<?xml version="1.0" encoding="UTF-8"?>
<svg id="Main" xmlns="http://www.w3.org/2000/svg" viewBox="0 0 1600 1067">
  <defs>
    <style>
      .cls-1, .cls-2 {
        fill: none;
      }

      .cls-1, .cls-2, .cls-3, .cls-4 {
        stroke: #000000;
        stroke-miterlimit: 10;
      }

      .cls-1, .cls-3 {
        stroke-width: 5px;
      }

      .cls-5 {
        fill: #eb992a;
      }

      .cls-5, .cls-6, .cls-7, .cls-8, .cls-9, .cls-10, .cls-11, .cls-12 {
        stroke-width: 0px;
      }

      .cls-2 {
        stroke-width: 3px;
      }

      .cls-7 {
        fill: #e8792e;
      }

      .cls-8 {
        fill: #fff;
      }

      .cls-9 {
        fill: #eaaf2a;
      }

      .cls-10 {
        fill: #b5b5b6;
      }

      .cls-11 {
        fill: #231f20;
      }

      .cls-12 {
        fill: #3b77bc;
      }

      .cls-4 {
        stroke-width: 7px;
      }
    </style>
  </defs>
  <g>
    <g>
      <path class="cls-6" d="m1095.01,182.68c2.3.84,3.73,1.07,3.73,1.07,281.29-13.41,249.18,510,249.18,510-8.12,110.82,74.82,130.24,86.47,136.94,11.64,6.71,27.53,28.24,27.53,28.24,24,26.12,52.76,30.7,52.76,30.7-193.24,160.24-701.12,106.18-701.12,106.18,65.09-56.12,82.03-105.18,86.45-126.65,17.62,53.99,115.43,49.41,115.43,49.41,139.06,28.95,203.65-142.23,203.65-142.23,8.83-33.53,7.06-73.77,7.06-73.77,24.35-48.35,19.77-96.7,19.77-96.7,34.94-96.71-11.3-172.24-11.3-172.24-4.71-13.02-8.48-23.94-11.56-33.27-15.57-47.32-13.18-53.89-24.09-87.79-.2-.63-.42-1.27-.66-1.91-14.69-40.04-86.08-82.44-86.08-82.44l-.24-.08c.34-4.21.29-8.11-.04-11.71-1.89-20.81-12.98-31.5-12.98-31.5l-3.38-1.75-2.23-1.15c.52.22,1,.41,1.46.58.06.02.13.05.19.07Z"/>
      <path class="cls-6" d="m1058.87,404.1c-3.41,1.02-14.35,3.5-21.63-4.23-5.63-5.98-9.07-18.1-5.09-41.77,0,0,23.85-145.66,61.1-176.12.04.02.08.03.11.05l2.23,1.15,3.38,1.75s11.09,10.69,12.98,31.5c.33,3.6.38,7.5.04,11.71,0,.11,0,.22-.02.33-.01.22-.03.43-.05.65-1.55,16.95-9.29,38.68-29.89,64.98,0,0-32.23,53.65-13.64,59.3,0,0,6.82,14.12-8.47,50.35,0,0-.38.15-1.05.35Z"/>
      <path class="cls-9" d="m1112.23,228.22s71.39,42.4,86.08,82.44c.24.64.46,1.28.66,1.91,10.91,33.9,8.52,40.47,24.09,87.79-13.3,29-153.73,19.38-153.73,19.38-14.59-.17-10.36-15.32-10.36-15.32l-.1-.32c.67-.2,1.05-.35,1.05-.35,15.29-36.23,8.47-50.35,8.47-50.35-18.59-5.65,13.64-59.3,13.64-59.3,20.6-26.3,28.34-48.03,29.89-64.98.02-.22.04-.43.05-.65,0-.11.02-.22.02-.33l.24.08Zm39.92,169.18c38.82-24.94,21.65-64,21.65-64-12.24-46.12-47.53-36.24-47.53-36.24-39.06,16.71-31.53,65.18-31.53,65.18-.71,72.71,57.41,35.06,57.41,35.06Z"/>
      <path class="cls-6" d="m395.68,166.46s42.79,56.29-110.43,129.26c-57.74,7.06-89.57,16.03-89.57,16.03-73.88,11.3-105.41,87.06-105.41,87.06-22.53-117.88,36.59-191.13,84.55-229.68,0,0,.01,0,.02-.01.64-.35,21.45-11.54,51.6-20.93,5.9-1.84,12.16-3.6,18.69-5.21,45.93-11.27,105.51-14.43,150.55,23.48Z"/>
      <path class="cls-7" d="m245.13,142.98c-6.53,1.61-12.79,3.37-18.69,5.21-30.15,9.39-50.96,20.58-51.6,20.93,29.19-23.46,54.25-34.07,54.25-34.07,181.13-70.89,348.95-81.34,487.22-67.16-335.89-.7-471.18,75.09-471.18,75.09Z"/>
      <path class="cls-10" d="m1234.62,433.63s46.24,75.53,11.3,172.24c0,0,4.58,48.35-19.77,96.7,0,0,1.77,40.24-7.06,73.77,0,0-64.59,171.18-203.65,142.23,0,0-97.81,4.58-115.43-49.41,1.52-7.41,1.55-11.53,1.55-11.53-5.64-71.53,21.59-255.11,21.59-255.11l-6.35-2.47c-7.24-1.95-11.3-45.71-11.3-45.71v-.94h1.24s151.76-27.53,136.23-121.88c0,0-5.03-.13-12.54.26-82.19-7.5-77.46-23.91-77.46-23.91-11.82-21.92-24.68-31.3-31.36-34.96,1.72.32,108.78,19.84,115.63,26.96,7.28,7.73,18.22,5.25,21.63,4.23l.1.32s-4.23,15.15,10.36,15.32c0,0,140.43,9.62,153.73-19.38,3.08,9.33,6.85,20.25,11.56,33.27Zm-242.94-35.56c0-.99-.8-1.79-1.8-1.79s-1.79.8-1.79,1.79.8,1.8,1.79,1.8,1.8-.81,1.8-1.8Zm-7.44,9.03c0-.99-.8-1.8-1.79-1.8s-1.8.81-1.8,1.8.81,1.79,1.8,1.79,1.79-.8,1.79-1.79Zm-4.35-12.42c0-.99-.81-1.79-1.8-1.79s-1.79.8-1.79,1.79.8,1.8,1.79,1.8,1.8-.81,1.8-1.8Zm-9.36,8.83c0-.99-.8-1.79-1.79-1.79s-1.79.8-1.79,1.79.8,1.79,1.79,1.79,1.79-.8,1.79-1.79Zm-3.58-11.95c0-.99-.81-1.79-1.8-1.79s-1.79.8-1.79,1.79.8,1.8,1.79,1.8,1.8-.81,1.8-1.8Z"/>
      <path class="cls-12" d="m1173.8,333.4s17.17,39.06-21.65,64c0,0-58.12,37.65-57.41-35.06,0,0-7.53-48.47,31.53-65.18,0,0,35.29-9.88,47.53,36.24Zm-41.41,38c37.38-.25,31.64-26.59,31.64-26.59-4.47-27.65-27.41-27.88-27.41-27.88-21.18-3.18-28.59,15.29-28.59,15.29-15.17,39.77,24.36,39.18,24.36,39.18Z"/>
      <path class="cls-11" d="m1164.03,344.81s5.74,26.34-31.64,26.59c0,0-39.53.59-24.36-39.18,0,0,7.41-18.47,28.59-15.29,0,0,22.94.23,27.41,27.88Zm-32.19-2.68c0-2.53-2.05-4.58-4.58-4.58s-4.58,2.05-4.58,4.58,2.05,4.58,4.58,4.58,4.58-2.05,4.58-4.58Z"/>
      <circle class="cls-8" cx="1127.26" cy="342.13" r="4.58"/>
      <path class="cls-5" d="m1092.45,181.62c.27.13.54.25.8.36-37.25,30.46-61.1,176.12-61.1,176.12-3.98,23.67-.54,35.79,5.09,41.77-6.85-7.12-113.91-26.64-115.63-26.96h-.02c-2.89-1.59-4.62-2.1-4.62-2.1-285.52-95.96-513.2-89.57-631.72-75.09,153.22-72.97,110.43-129.26,110.43-129.26-45.04-37.91-104.62-34.75-150.55-23.48,0,0,135.29-75.79,471.18-75.09,223.85,22.93,370.25,110.39,370.25,110.39,2.13,1.46,4.14,2.54,5.89,3.34Z"/>
      <path class="cls-6" d="m1042.97,431.52c15.53,94.35-136.23,121.88-136.23,121.88h-29.21c31.38-11.21,88.5-96.71,88.5-96.71,8.5-19.37,44.86-23.89,64.4-24.91,7.51-.39,12.54-.26,12.54-.26Z"/>
      <path class="cls-6" d="m989.88,396.28c1,0,1.8.8,1.8,1.79s-.8,1.8-1.8,1.8-1.79-.81-1.79-1.8.8-1.79,1.79-1.79Z"/>
      <path class="cls-6" d="m982.45,405.3c.99,0,1.79.81,1.79,1.8s-.8,1.79-1.79,1.79-1.8-.8-1.8-1.79.81-1.8,1.8-1.8Z"/>
      <path class="cls-6" d="m978.09,392.89c.99,0,1.8.8,1.8,1.79s-.81,1.8-1.8,1.8-1.79-.81-1.79-1.8.8-1.79,1.79-1.79Z"/>
      <circle class="cls-6" cx="968.74" cy="403.51" r="1.79"/>
      <path class="cls-5" d="m1030.43,431.78c-19.54,1.02-55.9,5.54-64.4,24.91,0,0-57.12,85.5-88.5,96.71h-11.26c1.53.82,3.22,1.21,5.06,1.21l-.04,1.6c-5.74-.18-9.73-.46-9.73-.46-170.82-16.23-480.47-.7-480.47-.7-238.35,8.47-267.76,96.7-267.76,96.7,38.82-300,839.64-243.88,839.64-243.88,0,0-4.73,16.41,77.46,23.91Z"/>
      <path class="cls-6" d="m965.15,389.77c.99,0,1.8.8,1.8,1.79s-.81,1.8-1.8,1.8-1.79-.81-1.79-1.8.8-1.79,1.79-1.79Z"/>
      <path class="cls-6" d="m905.5,553.4v.94c-8.56,2.25-24.09,2.2-34.21,1.87l.04-1.6c1.92,0,4-.42,6.2-1.21h27.97Z"/>
      <path class="cls-11" d="m866.27,553.4h11.26c-2.2.79-4.28,1.21-6.2,1.21s-3.53-.39-5.06-1.21Z"/>
    </g>
    <g>
      <path class="cls-1" d="m174.84,169.12c.64-.35,21.45-11.54,51.6-20.93,5.9-1.84,12.16-3.6,18.69-5.21,45.93-11.27,105.51-14.43,150.55,23.48,0,0,42.79,56.29-110.43,129.26"/>
      <path class="cls-1" d="m921.61,372.91c6.68,3.66,19.54,13.04,31.36,34.96,0,0-800.82-56.12-839.64,243.88,0,0,29.41-88.23,267.76-96.7,0,0,309.65-15.53,480.47.7,0,0,3.99.28,9.73.46,10.12.33,25.65.38,34.21-1.87,0,0,4.06,43.76,11.3,45.71l6.35,2.47s-27.23,183.58-21.59,255.11c0,0-.03,4.12-1.55,11.53-4.42,21.47-21.36,70.53-86.45,126.65,0,0,507.88,54.06,701.12-106.18,0,0-28.76-4.58-52.76-30.7,0,0-15.89-21.53-27.53-28.24-11.65-6.7-94.59-26.12-86.47-136.94,0,0,32.11-523.41-249.18-510,0,0-1.43-.23-3.73-1.07-.06-.02-.13-.05-.19-.07-.46-.17-.94-.36-1.46-.58"/>
      <path class="cls-1" d="m1093.25,181.98c-.26-.11-.53-.23-.8-.36-1.75-.8-3.76-1.88-5.89-3.34,0,0-146.4-87.46-370.25-110.39-138.27-14.18-306.09-3.73-487.22,67.16,0,0-25.06,10.61-54.25,34.07,0,.01-.02.01-.02.01-47.96,38.55-107.08,111.8-84.55,229.68,0,0,31.53-75.76,105.41-87.06,0,0,31.83-8.97,89.57-16.03,118.52-14.48,346.2-20.87,631.72,75.09,0,0,1.73.51,4.62,2.1"/>
      <path class="cls-2" d="m1173.8,333.4s17.17,39.06-21.65,64c0,0-58.12,37.65-57.41-35.06,0,0-7.53-48.47,31.53-65.18,0,0,35.29-9.88,47.53,36.24Z"/>
      <path class="cls-2" d="m900.01,869.16c17.62,53.99,115.43,49.41,115.43,49.41,139.06,28.95,203.65-142.23,203.65-142.23,8.83-33.53,7.06-73.77,7.06-73.77,24.35-48.35,19.77-96.7,19.77-96.7,34.94-96.71-11.3-172.24-11.3-172.24-4.71-13.02-8.48-23.94-11.56-33.27-15.57-47.32-13.18-53.89-24.09-87.79-.2-.63-.42-1.27-.66-1.91-14.69-40.04-86.08-82.44-86.08-82.44l-.24-.08-.23-.08"/>
      <path class="cls-1" d="m921.59,372.91h.02c1.72.32,108.78,19.84,115.63,26.96"/>
      <path class="cls-2" d="m952.97,407.87s-4.73,16.41,77.46,23.91"/>
      <path class="cls-2" d="m1058.97,404.42s-4.23,15.15,10.36,15.32c0,0,140.43,9.62,153.73-19.38.08-.16.15-.33.22-.49"/>
      <path class="cls-1" d="m966.95,391.56c0,.99-.81,1.8-1.8,1.8s-1.79-.81-1.79-1.8.8-1.79,1.79-1.79,1.8.8,1.8,1.79Z"/>
      <path class="cls-1" d="m979.89,394.68c0,.99-.81,1.8-1.8,1.8s-1.79-.81-1.79-1.8.8-1.79,1.79-1.79,1.8.8,1.8,1.79Z"/>
      <path class="cls-1" d="m991.68,398.07c0,.99-.8,1.8-1.8,1.8s-1.79-.81-1.79-1.8.8-1.79,1.79-1.79,1.8.8,1.8,1.79Z"/>
      <circle class="cls-1" cx="968.74" cy="403.51" r="1.79"/>
      <path class="cls-1" d="m984.24,407.1c0,.99-.8,1.79-1.79,1.79s-1.8-.8-1.8-1.79.81-1.8,1.8-1.8,1.79.81,1.79,1.8Z"/>
    </g>
  </g>
  <path class="cls-4" d="m1095.88,183.88s21.63,16.64,17.63,45.59"/>
  <line class="cls-3" x1="1088.44" y1="179.49" x2="1095.88" y2="182.98"/>
</svg>