<svg xmlns="http://www.w3.org/2000/svg" viewBox="-0.51 -0.29 3001.12 750.79">
  <path id="500px" fill="#303030" stroke="none" stroke-width="1"
    d="M 902.00,0.21            C 902.00,0.21 948.00,0.21 948.00,0.21              948.00,0.21 960.00,0.91 960.00,0.91              1001.10,3.78 1041.23,14.42 1079.00,30.72              1119.77,48.32 1152.20,71.17 1185.00,100.83              1207.69,121.35 1229.23,148.00 1245.42,174.00              1315.04,285.78 1322.50,423.51 1264.74,542.00              1230.86,611.51 1175.99,666.72 1109.00,704.58              1075.94,723.26 1039.16,735.97 1002.00,743.40              986.98,746.40 963.08,749.98 948.00,750.00              948.00,750.00 908.00,750.00 908.00,750.00              908.00,750.00 898.00,749.09 898.00,749.09              871.39,747.23 845.58,741.90 820.00,734.42              789.84,725.61 757.61,710.71 731.00,694.05              671.68,656.91 622.79,603.09 592.26,540.00              548.40,449.38 542.35,340.65 577.05,246.00              615.62,140.81 698.36,58.28 804.00,20.69              825.82,12.93 851.08,6.82 874.00,3.43              874.00,3.43 902.00,0.21 902.00,0.21 Z            M 1711.00,0.21            C 1711.00,0.21 1757.00,0.21 1757.00,0.21              1757.00,0.21 1769.00,0.91 1769.00,0.91              1810.10,3.78 1850.23,14.42 1888.00,30.72              1927.31,47.69 1962.73,71.79 1994.00,100.91              2026.04,130.75 2053.11,166.77 2072.73,206.00              2132.64,325.81 2124.05,472.61 2049.33,584.00              2014.64,635.71 1972.06,674.02 1918.00,704.58              1885.18,723.13 1847.90,736.02 1811.00,743.40              1795.98,746.40 1772.08,749.98 1757.00,750.00              1757.00,750.00 1717.00,750.00 1717.00,750.00              1717.00,750.00 1707.00,749.09 1707.00,749.09              1680.39,747.23 1654.58,741.90 1629.00,734.42              1598.84,725.61 1566.61,710.71 1540.00,694.05              1483.11,658.43 1436.07,607.71 1405.26,548.00              1357.72,455.87 1350.34,343.41 1386.05,246.00              1424.63,140.77 1507.32,58.30 1613.00,20.69              1634.82,12.93 1660.08,6.82 1683.00,3.43              1683.00,3.43 1711.00,0.21 1711.00,0.21 Z            M 2364.00,3.21            C 2364.00,3.21 2391.00,3.21 2391.00,3.21              2408.87,3.03 2431.09,8.24 2448.00,14.00              2466.89,20.44 2486.26,31.20 2502.00,43.42              2524.85,61.17 2543.77,84.08 2556.73,110.00              2595.05,186.64 2578.96,281.26 2516.00,339.91              2488.06,365.94 2453.49,384.50 2416.00,392.00              2409.26,393.35 2400.83,394.92 2394.00,395.00              2394.00,395.00 2372.00,395.00 2372.00,395.00              2363.68,394.90 2348.86,393.50 2344.00,385.96              2341.14,381.51 2341.01,376.09 2341.00,371.00              2340.98,357.71 2340.97,331.61 2354.00,324.09              2360.73,320.20 2372.35,321.09 2380.00,321.00              2380.00,321.00 2397.00,319.08 2397.00,319.08              2439.65,312.03 2470.97,287.56 2490.25,249.00              2499.43,230.63 2504.24,212.53 2504.00,192.00              2503.67,164.18 2488.19,132.59 2468.99,113.00              2458.07,101.87 2444.34,92.29 2430.00,86.15              2414.25,79.40 2397.15,75.80 2380.00,76.00              2325.39,76.64 2279.03,120.63 2266.13,172.00              2263.89,180.92 2262.01,190.80 2262.00,200.00              2262.00,200.00 2262.00,433.00 2262.00,433.00              2262.00,433.00 2262.00,520.00 2262.00,520.00              2262.00,530.03 2263.83,547.24 2256.78,554.90              2248.41,563.98 2229.47,563.13 2218.00,563.00              2207.78,562.88 2193.83,560.59 2189.48,550.00              2187.88,546.10 2188.01,543.08 2188.00,539.00              2188.00,539.00 2188.00,193.00 2188.00,193.00              2188.02,177.69 2191.89,159.65 2196.28,145.00              2211.00,95.93 2243.95,52.00 2289.00,26.86              2315.68,11.98 2334.37,7.72 2364.00,3.21 Z            M 2858.00,200.00            C 2864.54,204.68 2881.25,222.25 2888.00,229.00              2888.00,229.00 2943.00,284.00 2943.00,284.00              2943.00,284.00 2979.00,320.00 2979.00,320.00              2983.19,324.19 2994.33,334.76 2997.03,339.00              3002.42,347.44 3000.06,357.96 2995.17,366.00              2986.88,379.65 2969.36,395.38 2952.00,390.36              2946.24,388.70 2942.10,384.09 2938.00,380.00              2938.00,380.00 2919.00,361.00 2919.00,361.00              2919.00,361.00 2844.00,286.00 2844.00,286.00              2844.00,286.00 2818.00,260.00 2818.00,260.00              2815.97,257.97 2810.85,252.04 2808.00,252.04              2805.07,252.04 2799.15,258.85 2797.00,261.00              2797.00,261.00 2771.00,287.00 2771.00,287.00              2771.00,287.00 2701.00,357.00 2701.00,357.00              2701.00,357.00 2680.00,378.00 2680.00,378.00              2676.19,381.81 2671.80,386.76 2667.00,389.16              2649.31,398.01 2628.15,378.27 2620.31,364.00              2617.55,358.96 2615.69,353.83 2616.10,348.00              2616.88,336.79 2635.01,321.99 2643.00,314.00              2643.00,314.00 2723.00,234.00 2723.00,234.00              2723.00,234.00 2747.00,210.00 2747.00,210.00              2749.03,207.97 2754.96,202.85 2754.96,200.00              2754.96,197.39 2749.28,192.14 2747.42,190.00              2747.42,190.00 2723.00,165.00 2723.00,165.00              2723.00,165.00 2641.04,83.00 2641.04,83.00              2641.04,83.00 2631.99,73.00 2631.99,73.00              2623.99,64.81 2615.50,59.48 2616.04,47.00              2616.29,41.23 2618.62,36.76 2621.70,32.00              2628.40,21.64 2643.08,7.62 2656.00,6.34              2665.04,5.44 2672.12,12.15 2678.00,18.00              2678.00,18.00 2696.91,37.00 2696.91,37.00              2696.91,37.00 2773.00,114.00 2773.00,114.00              2773.00,114.00 2795.00,136.00 2795.00,136.00              2799.33,140.33 2804.35,144.40 2807.00,150.00              2807.00,150.00 2915.00,41.00 2915.00,41.00              2915.00,41.00 2938.00,18.00 2938.00,18.00              2943.72,12.31 2950.31,6.02 2959.00,6.26              2975.74,6.71 2999.58,30.30 2999.99,47.00              3000.28,59.32 2995.29,61.71 2987.00,70.00              2987.00,70.00 2965.00,92.00 2965.00,92.00              2965.00,92.00 2948.04,109.00 2948.04,109.00              2948.04,109.00 2938.00,120.00 2938.00,120.00              2938.00,120.00 2858.00,200.00 2858.00,200.00 Z            M 88.00,276.00            C 122.94,248.95 163.54,232.06 207.00,224.92              215.32,223.55 227.69,222.01 236.00,222.00              236.00,222.00 261.00,222.00 261.00,222.00              261.00,222.00 282.00,223.85 282.00,223.85              325.33,229.02 366.49,245.05 402.00,270.43              427.01,288.30 448.56,310.71 465.98,336.00              488.82,369.17 504.38,411.02 509.15,451.00              509.15,451.00 511.00,472.00 511.00,472.00              511.00,472.00 511.00,502.00 511.00,502.00              511.00,502.00 509.15,521.00 509.15,521.00              503.54,568.01 484.04,612.91 454.79,650.00              430.21,681.17 400.37,704.56 365.00,722.25              336.46,736.52 295.06,748.95 263.00,749.00              263.00,749.00 232.00,749.00 232.00,749.00              216.26,748.81 191.30,743.79 176.00,739.42              121.75,723.94 72.27,690.13 38.37,645.00              25.93,628.43 18.80,615.39 9.76,597.00              6.17,589.70 0.21,576.97 0.01,569.00              -0.04,566.59 -0.07,563.28 0.65,561.00              4.22,549.60 20.73,543.43 31.00,539.86              39.16,537.03 44.35,535.90 53.00,536.00              69.67,536.20 70.29,547.66 76.26,560.00              88.09,584.45 97.08,596.84 115.28,616.99              115.28,616.99 124.00,625.07 124.00,625.07              151.33,649.87 187.13,668.00 224.00,672.72              235.66,674.21 247.26,674.13 259.00,674.00              273.36,673.83 293.33,669.22 307.00,664.67              379.90,640.37 430.84,574.41 436.09,498.00              436.09,498.00 437.00,488.00 437.00,488.00              437.00,488.00 437.00,484.00 437.00,484.00              437.00,484.00 436.09,473.00 436.09,473.00              431.35,405.24 390.58,347.04 330.00,316.75              310.67,307.09 280.68,297.26 259.00,297.00              259.00,297.00 245.00,297.00 245.00,297.00              237.26,297.01 227.65,298.50 220.00,300.00              179.37,308.00 142.47,329.60 112.00,357.17              104.90,363.59 96.85,372.52 90.80,380.00              90.80,380.00 80.82,392.67 80.82,392.67              69.71,403.08 50.27,399.48 37.00,395.85              30.81,394.15 24.70,391.87 20.34,386.91              15.55,381.46 15.01,374.89 15.00,368.00              15.00,368.00 15.00,90.00 15.00,90.00              15.00,90.00 15.00,72.00 15.00,72.00              15.00,49.69 10.44,16.68 38.00,8.44              42.78,7.01 45.13,7.01 50.00,7.00              50.00,7.00 347.00,7.00 347.00,7.00              347.00,7.00 410.00,7.00 410.00,7.00              418.67,7.00 429.09,5.51 435.79,12.21              444.27,20.69 443.13,40.72 443.00,52.00              442.90,59.89 441.37,73.08 433.91,77.43              429.77,79.84 423.68,79.99 419.00,80.00              419.00,80.00 88.00,80.00 88.00,80.00              88.00,80.00 88.00,276.00 88.00,276.00 Z            M 926.00,80.29            C 919.91,81.16 917.96,80.97 912.00,81.00              912.00,81.00 897.00,82.17 897.00,82.17              879.46,83.92 861.87,87.64 845.00,92.72              781.12,111.96 728.00,150.69 689.29,205.00              680.40,217.47 671.90,231.15 665.32,245.00              650.27,276.66 639.72,310.96 636.92,346.00              636.92,346.00 636.00,356.00 636.00,356.00              636.00,356.00 635.00,373.00 635.00,373.00              635.00,373.00 635.00,377.00 635.00,377.00              635.00,377.00 636.00,394.00 636.00,394.00              636.21,411.28 641.30,436.19 645.85,453.00              670.98,545.80 742.54,623.18 834.00,653.67              856.20,661.07 877.61,666.21 901.00,668.08              901.00,668.08 911.00,669.04 911.00,669.04              911.00,669.04 920.00,669.04 920.00,669.04              920.00,669.04 929.00,669.97 929.00,669.97              929.00,669.97 945.00,669.00 945.00,669.00              960.85,668.97 987.46,664.20 1003.00,660.12              1100.00,634.62 1177.24,561.33 1208.33,466.00              1214.41,447.35 1221.77,413.39 1222.00,394.00              1222.00,394.00 1222.98,376.00 1222.98,376.00              1222.98,376.00 1222.04,365.00 1222.04,365.00              1222.04,365.00 1222.04,356.00 1222.04,356.00              1221.82,340.90 1217.10,316.89 1213.37,302.00              1188.88,204.03 1115.47,126.82 1020.00,95.00              994.31,86.44 967.08,81.31 940.00,81.00              940.00,81.00 926.00,80.29 926.00,80.29 Z            M 1735.00,80.29            C 1728.91,81.16 1726.96,80.97 1721.00,81.00              1721.00,81.00 1706.00,82.17 1706.00,82.17              1688.46,83.92 1670.87,87.64 1654.00,92.72              1576.81,115.97 1511.37,170.79 1475.27,243.00              1434.05,325.44 1434.05,424.56 1475.27,507.00              1496.75,549.96 1529.00,587.24 1568.00,615.14              1590.97,631.57 1616.20,644.73 1643.00,653.67              1664.24,660.75 1696.75,668.74 1719.00,669.04              1719.00,669.04 1729.00,669.04 1729.00,669.04              1729.00,669.04 1738.00,669.97 1738.00,669.97              1738.00,669.97 1754.00,669.00 1754.00,669.00              1769.85,668.97 1796.46,664.20 1812.00,660.12              1908.93,634.64 1987.12,560.54 2017.66,465.00              2025.65,439.99 2030.70,413.25 2031.00,387.00              2031.00,387.00 2031.97,375.00 2031.97,375.00              2031.97,375.00 2031.04,366.00 2031.04,366.00              2031.04,366.00 2031.04,356.00 2031.04,356.00              2030.83,341.93 2025.87,315.99 2022.37,302.00              1997.88,204.06 1924.45,126.81 1829.00,95.00              1803.31,86.44 1776.08,81.31 1749.00,81.00              1749.00,81.00 1735.00,80.29 1735.00,80.29 Z" />
</svg>