<svg xmlns="http://www.w3.org/2000/svg" viewBox="-0.5 1.46 324 312.04">
  <path id="academia" fill="#303030" stroke="none" stroke-width="1"
    d="M 105.00,2.00            C 105.00,2.00 178.00,2.00 178.00,2.00              180.57,2.00 184.06,1.59 186.01,3.57              187.63,5.22 190.93,14.32 192.00,17.00              192.00,17.00 204.00,47.00 204.00,47.00              204.00,47.00 239.40,136.00 239.40,136.00              239.40,136.00 262.58,194.00 262.58,194.00              262.58,194.00 287.60,257.00 287.60,257.00              290.42,264.05 296.69,282.08 301.21,286.90              306.52,292.55 315.55,294.95 323.00,296.00              323.00,296.00 323.00,313.00 323.00,313.00              323.00,313.00 178.00,313.00 178.00,313.00              178.00,313.00 178.00,296.00 178.00,296.00              191.14,296.00 214.47,293.52 212.66,275.00              211.97,267.95 207.49,255.73 204.80,249.00              204.80,249.00 197.00,229.00 197.00,229.00              195.86,226.14 194.50,221.66 191.78,220.02              189.74,218.80 186.34,219.00 184.00,219.00              184.00,219.00 91.00,219.00 91.00,219.00              88.20,219.01 84.69,218.69 82.42,220.60              80.15,222.50 78.95,227.20 78.00,230.00              78.00,230.00 70.68,250.00 70.68,250.00              65.94,262.83 51.76,283.41 70.00,292.08              72.69,293.36 76.07,294.07 79.00,294.57              83.29,295.29 87.65,295.90 92.00,296.00              92.00,296.00 92.00,313.00 92.00,313.00              92.00,313.00 0.00,313.00 0.00,313.00              0.00,313.00 0.00,296.00 0.00,296.00              6.54,294.77 13.80,293.42 18.81,288.67              23.41,284.31 25.99,275.02 28.40,269.00              28.40,269.00 44.81,227.00 44.81,227.00              44.81,227.00 97.20,93.00 97.20,93.00              97.20,93.00 112.58,54.00 112.58,54.00              113.90,50.53 118.37,39.97 118.30,37.00              118.23,34.26 115.33,27.84 114.20,25.00              114.20,25.00 105.00,2.00 105.00,2.00 Z            M 136.00,77.00            C 136.00,77.00 128.95,94.00 128.95,94.00              128.95,94.00 117.95,123.00 117.95,123.00              117.95,123.00 102.00,164.00 102.00,164.00              102.00,164.00 93.00,189.00 93.00,189.00              93.00,189.00 181.00,189.00 181.00,189.00              181.00,189.00 155.20,124.00 155.20,124.00              155.20,124.00 136.00,77.00 136.00,77.00 Z" />
</svg>