<svg xmlns="http://www.w3.org/2000/svg" viewBox="-0.5 -0.56 2561.11 319.06">
  <path id="academia-wordmark" fill="#303030" stroke="none" stroke-width="1"
    d="M 603.00,204.00            C 603.00,204.00 601.17,232.00 601.17,232.00              601.17,232.00 598.17,268.00 598.17,268.00              597.73,272.59 597.62,287.48 595.26,290.48              593.39,292.86 588.70,295.30 586.00,296.77              579.20,300.47 572.35,303.86 565.00,306.33              532.37,317.32 514.77,318.05 481.00,318.00              472.45,317.99 459.49,316.11 451.00,314.40              403.29,304.80 364.98,278.72 345.43,233.00              333.78,205.77 332.66,182.96 333.00,154.00              333.11,144.75 335.85,129.12 338.13,120.00              351.46,66.64 385.86,27.24 438.00,8.69              462.05,0.14 481.99,-0.29 507.00,0.00              526.65,0.23 553.95,6.42 572.00,14.15              576.21,15.95 588.67,21.22 590.40,25.21              591.12,26.88 591.00,30.13 591.00,32.00              591.00,32.00 591.00,99.00 591.00,99.00              591.00,99.00 577.00,99.00 577.00,99.00              569.03,98.85 570.35,96.72 567.57,87.00              564.88,77.56 560.54,65.39 555.55,57.00              543.49,36.73 527.62,24.19 504.00,20.87              498.73,20.13 494.37,19.66 489.00,20.17              450.19,23.88 429.58,52.94 419.58,88.00              416.11,100.15 412.06,122.53 412.00,135.00              412.00,135.00 411.00,156.00 411.00,156.00              411.00,156.00 412.04,167.00 412.04,167.00              412.04,167.00 412.04,177.00 412.04,177.00              415.14,208.15 422.61,240.64 441.90,266.00              463.86,294.87 501.98,305.64 534.00,286.55              546.51,279.09 556.49,267.53 563.72,255.00              572.65,239.52 579.06,221.43 583.00,204.00              583.00,204.00 603.00,204.00 603.00,204.00 Z            M 105.00,2.00            C 105.00,2.00 178.00,2.00 178.00,2.00              180.57,2.00 184.06,1.59 186.01,3.57              187.63,5.22 190.93,14.32 192.00,17.00              192.00,17.00 204.00,47.00 204.00,47.00              204.00,47.00 239.40,136.00 239.40,136.00              239.40,136.00 262.58,194.00 262.58,194.00              262.58,194.00 287.60,257.00 287.60,257.00              290.42,264.05 296.69,282.08 301.21,286.90              306.52,292.55 315.55,294.95 323.00,296.00              323.00,296.00 323.00,313.00 323.00,313.00              323.00,313.00 178.00,313.00 178.00,313.00              178.00,313.00 178.00,296.00 178.00,296.00              191.14,296.00 214.47,293.52 212.66,275.00              211.97,267.95 207.49,255.73 204.80,249.00              204.80,249.00 197.00,229.00 197.00,229.00              195.86,226.14 194.50,221.66 191.78,220.02              189.74,218.80 186.34,219.00 184.00,219.00              184.00,219.00 91.00,219.00 91.00,219.00              88.20,219.01 84.69,218.69 82.42,220.60              80.15,222.50 78.95,227.20 78.00,230.00              78.00,230.00 70.68,250.00 70.68,250.00              65.94,262.83 51.76,283.41 70.00,292.08              72.69,293.36 76.07,294.07 79.00,294.57              83.29,295.29 87.65,295.90 92.00,296.00              92.00,296.00 92.00,313.00 92.00,313.00              92.00,313.00 0.00,313.00 0.00,313.00              0.00,313.00 0.00,296.00 0.00,296.00              6.54,294.77 13.80,293.42 18.81,288.67              23.41,284.31 25.99,275.02 28.40,269.00              28.40,269.00 44.81,227.00 44.81,227.00              44.81,227.00 97.20,93.00 97.20,93.00              97.20,93.00 112.58,54.00 112.58,54.00              113.90,50.53 118.37,39.97 118.30,37.00              118.23,34.26 115.33,27.84 114.20,25.00              114.20,25.00 105.00,2.00 105.00,2.00 Z            M 738.00,2.00            C 738.00,2.00 811.00,2.00 811.00,2.00              813.57,2.00 817.06,1.59 819.01,3.57              820.63,5.22 823.93,14.32 825.00,17.00              825.00,17.00 836.80,47.00 836.80,47.00              836.80,47.00 895.00,193.00 895.00,193.00              895.00,193.00 920.60,257.00 920.60,257.00              923.57,264.43 929.37,281.72 934.19,286.96              940.15,293.44 949.55,295.31 958.00,296.00              958.00,296.00 958.00,313.00 958.00,313.00              958.00,313.00 812.00,313.00 812.00,313.00              812.00,313.00 812.00,296.00 812.00,296.00              823.63,296.00 841.93,295.36 846.37,282.00              849.20,273.50 842.86,257.15 839.60,249.00              839.60,249.00 831.40,228.00 831.40,228.00              830.38,225.45 829.13,221.51 826.73,220.02              824.74,218.79 821.30,219.00 819.00,219.00              819.00,219.00 716.00,219.00 716.00,219.00              714.61,226.67 704.79,251.65 701.40,260.00              699.29,265.17 694.92,274.51 695.28,280.00              695.84,288.67 705.55,293.16 713.00,294.54              713.00,294.54 727.00,296.00 727.00,296.00              727.00,296.00 727.00,313.00 727.00,313.00              727.00,313.00 634.00,313.00 634.00,313.00              634.00,313.00 634.00,296.00 634.00,296.00              641.46,294.99 648.36,293.44 653.90,287.90              658.74,283.04 660.97,274.45 663.42,268.00              663.42,268.00 679.19,227.00 679.19,227.00              679.19,227.00 731.40,91.00 731.40,91.00              731.40,91.00 745.60,54.00 745.60,54.00              747.30,49.73 751.68,40.24 751.03,36.00              751.03,36.00 738.00,2.00 738.00,2.00 Z            M 987.00,3.00            C 987.00,3.00 1092.00,3.00 1092.00,3.00              1092.00,3.00 1131.00,3.00 1131.00,3.00              1131.00,3.00 1143.00,3.91 1143.00,3.91              1143.00,3.91 1170.00,6.44 1170.00,6.44              1204.83,12.04 1239.25,26.17 1263.96,52.00              1286.67,75.74 1299.95,111.23 1300.00,144.00              1300.00,144.00 1300.00,157.00 1300.00,157.00              1300.00,157.00 1299.09,169.00 1299.09,169.00              1296.64,202.50 1286.04,234.33 1263.71,260.00              1237.31,290.35 1197.62,306.91 1158.00,310.08              1158.00,310.08 1146.00,311.00 1146.00,311.00              1146.00,311.00 987.00,311.00 987.00,311.00              987.00,311.00 987.00,294.00 987.00,294.00              996.82,293.55 1012.50,291.53 1017.56,282.00              1019.91,277.58 1019.99,272.85 1020.00,268.00              1020.00,268.00 1020.00,46.00 1020.00,46.00              1019.99,42.30 1020.04,38.53 1018.74,35.00              1014.13,22.47 998.08,21.99 987.00,20.00              987.00,20.00 987.00,3.00 987.00,3.00 Z            M 1332.00,3.00            C 1332.00,3.00 1580.00,3.00 1580.00,3.00              1580.00,3.00 1581.00,25.00 1581.00,25.00              1581.00,25.00 1581.00,55.00 1581.00,55.00              1581.00,55.00 1582.00,70.00 1582.00,70.00              1582.00,70.00 1582.00,87.00 1582.00,87.00              1582.00,87.00 1574.00,87.00 1574.00,87.00              1572.32,86.99 1569.74,87.06 1568.21,86.40              1564.67,84.86 1560.13,73.76 1558.25,70.00              1551.52,56.55 1542.70,41.13 1530.00,32.60              1515.74,23.01 1503.13,24.00 1487.00,24.00              1487.00,24.00 1441.00,24.00 1441.00,24.00              1441.00,24.00 1441.00,143.00 1441.00,143.00              1441.00,143.00 1484.00,143.00 1484.00,143.00              1490.31,142.99 1497.50,142.42 1503.00,139.01              1514.01,132.18 1518.44,114.26 1519.00,102.00              1519.00,102.00 1538.00,102.00 1538.00,102.00              1538.00,102.00 1538.00,205.00 1538.00,205.00              1538.00,205.00 1519.00,205.00 1519.00,205.00              1518.42,192.44 1514.02,173.74 1502.00,167.44              1495.96,164.27 1487.69,165.00 1481.00,165.00              1481.00,165.00 1441.00,165.00 1441.00,165.00              1441.00,165.00 1441.00,252.00 1441.00,252.00              1441.00,264.42 1439.14,278.84 1450.02,287.61              1461.13,296.57 1486.77,294.02 1501.00,294.00              1531.60,293.95 1545.82,273.57 1560.68,250.00              1560.68,250.00 1573.00,229.00 1573.00,229.00              1574.48,226.42 1576.85,221.52 1579.33,220.02              1581.37,218.78 1584.65,219.00 1587.00,219.00              1587.00,219.00 1598.00,219.00 1598.00,219.00              1598.00,219.00 1587.73,286.00 1587.73,286.00              1587.73,286.00 1584.00,311.00 1584.00,311.00              1584.00,311.00 1332.00,311.00 1332.00,311.00              1332.00,311.00 1332.00,294.00 1332.00,294.00              1342.06,293.78 1357.84,291.65 1363.08,281.99              1365.64,277.28 1365.99,270.29 1366.00,265.00              1366.00,265.00 1366.00,49.00 1366.00,49.00              1365.99,43.76 1365.58,36.62 1362.91,32.00              1357.31,22.30 1342.06,21.33 1332.00,20.00              1332.00,20.00 1332.00,3.00 1332.00,3.00 Z            M 1898.00,3.00            C 1898.00,3.00 2007.00,3.00 2007.00,3.00              2007.00,3.00 2007.00,22.00 2007.00,22.00              1990.46,22.36 1973.84,26.28 1970.46,45.00              1969.16,52.21 1970.98,60.73 1971.85,68.00              1971.85,68.00 1977.84,117.00 1977.84,117.00              1977.84,117.00 1990.72,223.00 1990.72,223.00              1990.72,223.00 1997.91,276.00 1997.91,276.00              2002.70,292.22 2016.97,295.67 2032.00,296.00              2032.00,296.00 2032.00,313.00 2032.00,313.00              2032.00,313.00 1875.00,313.00 1875.00,313.00              1875.00,313.00 1875.00,296.00 1875.00,296.00              1886.82,295.96 1907.20,293.85 1914.01,283.00              1917.56,277.34 1918.07,269.51 1918.00,263.00              1918.00,263.00 1914.15,231.00 1914.15,231.00              1914.15,231.00 1905.28,162.00 1905.28,162.00              1905.28,162.00 1899.42,117.00 1899.42,117.00              1898.48,110.28 1898.34,103.41 1896.00,97.00              1896.00,97.00 1887.05,125.00 1887.05,125.00              1887.05,125.00 1875.69,158.00 1875.69,158.00              1875.69,158.00 1856.66,214.00 1856.66,214.00              1856.66,214.00 1839.00,265.00 1839.00,265.00              1839.00,265.00 1827.67,298.00 1827.67,298.00              1827.67,298.00 1821.92,313.43 1821.92,313.43              1821.92,313.43 1814.00,315.00 1814.00,315.00              1814.00,315.00 1785.00,315.00 1785.00,315.00              1785.00,315.00 1774.69,286.00 1774.69,286.00              1774.69,286.00 1748.42,215.00 1748.42,215.00              1748.42,215.00 1721.05,141.00 1721.05,141.00              1721.05,141.00 1703.00,93.00 1703.00,93.00              1703.00,93.00 1695.28,152.00 1695.28,152.00              1695.28,152.00 1684.28,239.00 1684.28,239.00              1682.17,255.16 1678.24,274.06 1691.04,286.96              1694.10,290.04 1696.85,292.16 1701.00,293.53              1705.34,294.97 1715.29,295.96 1720.00,296.00              1720.00,296.00 1720.00,313.00 1720.00,313.00              1720.00,313.00 1614.00,313.00 1614.00,313.00              1614.00,313.00 1614.00,296.00 1614.00,296.00              1627.37,295.71 1644.16,293.25 1649.44,279.00              1651.23,274.16 1653.41,255.19 1654.15,249.00              1654.15,249.00 1661.15,195.00 1661.15,195.00              1661.15,195.00 1675.15,87.00 1675.15,87.00              1675.15,87.00 1679.68,53.00 1679.68,53.00              1679.89,50.28 1679.51,48.65 1679.13,46.00              1676.37,26.64 1660.06,22.37 1643.00,22.00              1643.00,22.00 1643.00,5.00 1643.00,5.00              1643.00,5.00 1755.00,5.00 1755.00,5.00              1755.25,16.35 1759.10,23.71 1762.95,34.00              1762.95,34.00 1778.58,76.00 1778.58,76.00              1778.58,76.00 1810.95,163.00 1810.95,163.00              1810.95,163.00 1829.00,210.00 1829.00,210.00              1829.00,210.00 1844.33,164.00 1844.33,164.00              1844.33,164.00 1865.31,104.00 1865.31,104.00              1865.31,104.00 1878.42,66.00 1878.42,66.00              1878.42,66.00 1890.69,31.00 1890.69,31.00              1894.60,20.02 1897.73,15.22 1898.00,3.00 Z            M 2068.00,3.00            C 2068.00,3.00 2211.00,3.00 2211.00,3.00              2211.00,3.00 2211.00,22.00 2211.00,22.00              2198.93,23.59 2183.28,24.08 2179.17,38.00              2177.98,42.05 2178.01,44.87 2178.00,49.00              2178.00,49.00 2178.00,269.00 2178.00,269.00              2178.01,273.13 2177.98,275.95 2179.17,280.00              2183.28,293.92 2198.93,294.41 2211.00,296.00              2211.00,296.00 2211.00,313.00 2211.00,313.00              2211.00,313.00 2068.00,313.00 2068.00,313.00              2068.00,313.00 2068.00,296.00 2068.00,296.00              2080.07,294.41 2095.72,293.92 2099.83,280.00              2101.02,275.95 2100.99,273.13 2101.00,269.00              2101.00,269.00 2101.00,49.00 2101.00,49.00              2100.99,44.87 2101.02,42.05 2099.83,38.00              2095.72,24.08 2080.07,23.59 2068.00,22.00              2068.00,22.00 2068.00,3.00 2068.00,3.00 Z            M 2341.00,3.00            C 2341.00,3.00 2413.00,3.00 2413.00,3.00              2415.17,3.00 2418.68,2.77 2420.50,4.02              2422.78,5.59 2426.80,16.83 2428.15,20.00              2428.15,20.00 2449.00,72.00 2449.00,72.00              2449.00,72.00 2525.60,263.00 2525.60,263.00              2528.57,270.41 2531.93,281.09 2537.46,286.67              2540.37,289.61 2546.12,292.84 2550.00,294.29              2552.65,295.28 2557.38,296.07 2558.98,298.43              2560.61,300.84 2560.00,311.60 2560.00,315.00              2560.00,315.00 2415.00,315.00 2415.00,315.00              2415.00,315.00 2415.00,298.00 2415.00,298.00              2426.82,297.99 2446.37,296.21 2449.61,282.00              2451.45,273.91 2445.53,259.70 2442.68,252.00              2442.68,252.00 2434.42,231.00 2434.42,231.00              2433.38,228.25 2432.15,223.66 2429.61,222.02              2427.68,220.78 2424.25,221.00 2422.00,221.00              2422.00,221.00 2328.00,221.00 2328.00,221.00              2325.28,221.01 2321.67,220.68 2319.51,222.60              2317.51,224.37 2316.23,229.40 2315.31,232.00              2315.31,232.00 2307.58,253.00 2307.58,253.00              2302.93,265.22 2289.38,285.57 2307.00,293.65              2309.47,294.78 2313.31,295.78 2316.00,296.33              2316.00,296.33 2330.00,298.00 2330.00,298.00              2330.00,298.00 2330.00,315.00 2330.00,315.00              2330.00,315.00 2237.00,315.00 2237.00,315.00              2237.00,311.89 2236.37,300.79 2237.99,298.73              2239.37,297.00 2243.82,296.45 2246.00,295.79              2250.45,294.44 2254.43,292.55 2257.47,288.91              2261.40,284.19 2268.59,263.09 2271.40,256.00              2271.40,256.00 2297.42,188.00 2297.42,188.00              2297.42,188.00 2330.05,103.00 2330.05,103.00              2330.05,103.00 2346.20,61.00 2346.20,61.00              2346.20,61.00 2353.84,40.00 2353.84,40.00              2354.09,36.65 2351.49,31.22 2350.20,28.00              2347.56,21.41 2342.16,9.40 2341.00,3.00 Z            M 1097.00,24.00            C 1097.00,24.00 1097.00,141.00 1097.00,141.00              1097.00,141.00 1097.00,246.00 1097.00,246.00              1097.00,257.85 1095.30,278.91 1104.21,287.79              1112.07,295.62 1128.61,294.12 1139.00,294.00              1163.39,293.71 1185.00,277.61 1198.00,258.00              1218.42,227.19 1223.42,188.15 1223.00,152.00              1223.00,152.00 1220.08,125.00 1220.08,125.00              1213.07,82.65 1193.59,44.91 1151.00,29.44              1132.58,22.74 1116.05,24.00 1097.00,24.00 Z            M 136.00,77.00            C 136.00,77.00 128.95,94.00 128.95,94.00              128.95,94.00 117.95,123.00 117.95,123.00              117.95,123.00 102.00,164.00 102.00,164.00              102.00,164.00 93.00,189.00 93.00,189.00              93.00,189.00 181.00,189.00 181.00,189.00              181.00,189.00 155.20,124.00 155.20,124.00              155.20,124.00 136.00,77.00 136.00,77.00 Z            M 769.00,77.00            C 769.00,77.00 753.95,115.00 753.95,115.00              753.95,115.00 725.00,189.00 725.00,189.00              725.00,189.00 814.00,189.00 814.00,189.00              814.00,189.00 788.20,124.00 788.20,124.00              788.20,124.00 769.00,77.00 769.00,77.00 Z            M 2374.00,77.00            C 2374.00,77.00 2368.19,89.00 2368.19,89.00              2368.19,89.00 2359.81,111.00 2359.81,111.00              2359.81,111.00 2341.40,159.00 2341.40,159.00              2341.40,159.00 2330.00,189.00 2330.00,189.00              2330.00,189.00 2418.00,189.00 2418.00,189.00              2418.00,189.00 2405.00,155.00 2405.00,155.00              2405.00,155.00 2385.00,105.00 2385.00,105.00              2385.00,105.00 2374.00,77.00 2374.00,77.00 Z" />
</svg>