<svg xmlns="http://www.w3.org/2000/svg" viewBox="-0.5 -0.42 1025 1024.92">
  <path id="Selection" fill="#303030" stroke="none" stroke-width="1" d="M 162.00,0.08            C 162.00,0.08 190.00,0.08 190.00,0.08              190.00,0.08 240.00,0.08 240.00,0.08              240.00,0.08 392.00,0.08 392.00,0.08              392.00,0.08 854.00,0.08 854.00,0.08              863.45,0.01 872.76,1.74 882.00,3.60              944.97,16.27 995.14,62.37 1015.33,123.00              1019.77,136.33 1023.98,156.00 1024.00,170.00              1024.00,170.00 1024.00,854.00 1024.00,854.00              1023.98,867.62 1019.66,888.01 1015.33,901.00              995.15,961.58 944.91,1007.74 882.00,1020.40              873.23,1022.16 862.91,1023.99 854.00,1024.00              854.00,1024.00 170.00,1024.00 170.00,1024.00              158.30,1023.98 141.33,1020.65 130.00,1017.42              71.94,1000.86 27.73,958.24 8.67,901.00              4.23,887.67 0.02,868.00 0.00,854.00              0.00,854.00 0.00,169.00 0.00,169.00              0.02,158.65 2.59,145.10 5.13,135.00              17.88,84.22 52.17,41.78 99.00,18.37              120.60,7.57 138.48,3.84 162.00,0.08 Z            M 474.00,203.30            C 467.70,204.47 462.73,205.78 457.00,208.78              435.65,219.97 427.37,243.29 425.04,266.00              425.04,266.00 425.04,274.00 425.04,274.00              424.57,278.95 423.79,280.09 424.04,286.00              424.04,286.00 425.04,294.00 425.04,294.00              425.04,294.00 425.04,304.00 425.04,304.00              427.76,331.17 434.38,358.15 443.00,384.00              443.00,384.00 452.40,409.00 452.40,409.00              453.60,412.00 456.98,419.28 457.15,422.00              457.38,425.75 452.92,436.99 451.42,441.00              451.42,441.00 439.05,475.00 439.05,475.00              425.00,512.69 409.24,550.02 391.25,586.00              391.25,586.00 377.24,614.00 377.24,614.00              377.24,614.00 368.37,629.61 368.37,629.61              365.75,632.44 356.89,635.60 353.00,637.28              353.00,637.28 322.00,651.31 322.00,651.31              289.96,666.02 244.71,692.32 220.00,717.00              206.41,730.58 194.24,746.94 194.00,767.00              193.62,800.23 221.62,820.63 253.00,821.00              278.82,821.30 299.81,810.54 320.00,795.37              349.09,773.53 378.74,736.39 399.00,706.00              399.00,706.00 425.20,665.00 425.20,665.00              428.76,659.06 432.32,650.37 439.01,647.71              439.01,647.71 479.00,635.28 479.00,635.28              479.00,635.28 552.00,615.79 552.00,615.79              552.00,615.79 580.00,609.80 580.00,609.80              583.24,609.15 590.05,607.33 593.00,608.22              596.14,609.17 606.67,618.36 610.00,621.00              618.59,627.81 633.52,638.07 643.00,643.58              673.23,661.13 715.63,677.94 751.00,678.00              751.00,678.00 769.00,678.00 769.00,678.00              781.91,677.85 800.97,672.95 811.00,664.67              829.21,649.65 835.36,623.16 824.63,602.00              819.91,592.70 811.71,584.98 803.00,579.44              769.42,558.06 723.46,557.94 685.00,558.00              685.00,558.00 670.00,559.00 670.00,559.00              670.00,559.00 629.00,562.42 629.00,562.42              625.02,562.96 612.08,565.19 609.00,563.89              604.29,561.92 588.69,544.62 584.73,540.00              567.68,520.12 551.34,499.23 537.42,477.00              537.42,477.00 525.60,458.00 525.60,458.00              524.17,455.62 521.07,451.44 521.13,448.72              521.13,448.72 525.58,434.00 525.58,434.00              525.58,434.00 535.13,399.00 535.13,399.00              541.36,374.05 548.87,333.34 549.00,308.00              549.00,308.00 549.68,296.00 549.68,296.00              548.59,281.45 548.21,271.36 544.14,257.00              534.54,223.12 510.99,199.62 474.00,203.30 Z            M 478.00,385.00            C 465.17,355.76 457.95,313.89 458.00,282.00              458.02,267.18 461.09,234.32 482.00,236.11              500.64,237.70 500.15,264.53 500.00,278.00              499.76,298.22 492.66,338.29 487.00,358.00              485.02,364.89 481.42,379.41 478.00,385.00 Z            M 503.00,498.00            C 503.00,498.00 520.15,521.00 520.15,521.00              520.15,521.00 546.15,554.00 546.15,554.00              546.15,554.00 562.00,573.00 562.00,573.00              562.00,573.00 462.00,600.00 462.00,600.00              462.00,600.00 473.14,575.00 473.14,575.00              473.14,575.00 491.20,531.00 491.20,531.00              491.20,531.00 503.00,498.00 503.00,498.00 Z            M 631.00,592.00            C 631.00,592.00 655.00,589.17 655.00,589.17              674.28,587.32 693.61,586.78 713.00,587.00              713.00,587.00 723.00,587.91 723.00,587.91              737.21,588.90 755.32,589.94 765.67,601.17              775.18,611.49 772.10,628.42 761.00,636.36              754.96,640.69 747.27,641.97 740.00,642.00              714.76,642.11 677.38,624.28 656.00,611.19              649.66,607.31 634.43,597.96 631.00,592.00 Z            M 353.00,674.00            C 348.87,683.25 338.06,698.28 332.02,707.00              317.15,728.49 295.39,755.73 275.00,771.79              263.82,780.59 241.33,794.88 229.51,778.96              220.40,766.69 237.73,746.13 246.00,738.01              265.60,718.80 292.96,703.69 317.00,690.69              324.20,686.80 346.02,675.31 353.00,674.00 Z"/>
</svg>