<svg xmlns="http://www.w3.org/2000/svg" viewBox="-0.5 -0.51 2561 875.02">
  <path id="adafruit-wordmark" fill="#303030" stroke="none" stroke-width="1"
    d="M 338.00,304.00            C 338.00,304.00 333.67,291.00 333.67,291.00              329.81,279.52 326.15,265.13 326.00,253.00              325.62,219.99 334.02,190.66 350.43,162.00              350.43,162.00 377.86,122.00 377.86,122.00              377.86,122.00 415.29,70.00 415.29,70.00              415.29,70.00 451.37,20.00 451.37,20.00              459.49,9.25 466.44,0.17 481.00,0.00              486.05,-0.06 490.11,0.06 495.00,1.57              511.42,6.64 515.84,24.51 520.67,39.00              520.67,39.00 535.34,85.00 535.34,85.00              535.34,85.00 553.00,140.00 553.00,140.00              553.00,140.00 569.58,194.00 569.58,194.00              576.52,225.50 576.42,261.50 565.31,292.00              558.97,309.38 549.39,320.38 539.00,335.00              539.00,335.00 555.00,323.15 555.00,323.15              566.93,314.58 580.89,308.41 595.00,304.43              601.63,302.56 613.13,300.56 620.00,300.00              620.00,300.00 629.00,300.00 629.00,300.00              632.15,299.70 633.69,299.07 637.00,299.32              637.00,299.32 646.00,300.00 646.00,300.00              670.45,300.12 690.14,306.87 713.00,313.98              713.00,313.98 767.00,331.02 767.00,331.02              767.00,331.02 789.00,338.14 789.00,338.14              789.00,338.14 828.00,350.66 828.00,350.66              841.42,354.95 862.20,359.43 870.01,372.00              872.18,375.50 873.21,379.98 873.92,384.00              874.44,386.97 875.05,389.98 874.82,393.00              873.76,406.91 864.47,414.50 854.00,422.37              854.00,422.37 805.00,457.86 805.00,457.86              805.00,457.86 750.00,497.42 750.00,497.42              750.00,497.42 721.00,517.95 721.00,517.95              694.68,534.62 668.98,544.17 638.00,547.17              638.00,547.17 626.00,548.00 626.00,548.00              614.38,547.86 601.13,545.60 590.00,542.28              584.07,540.51 574.57,536.35 569.00,536.00              576.35,539.28 586.69,547.04 593.00,552.25              624.84,578.55 640.00,619.77 643.96,660.00              643.96,660.00 643.96,668.00 643.96,668.00              643.96,668.00 645.00,680.00 645.00,680.00              645.00,680.00 645.00,734.00 645.00,734.00              645.00,734.00 645.00,778.00 645.00,778.00              645.00,778.00 645.00,825.00 645.00,825.00              645.00,834.62 645.79,844.74 642.78,854.00              638.67,866.66 623.82,874.48 611.00,873.96              600.63,873.54 590.25,866.07 582.00,860.28              582.00,860.28 534.00,825.15 534.00,825.15              534.00,825.15 479.00,784.88 479.00,784.88              479.00,784.88 446.00,759.71 446.00,759.71              429.78,745.49 409.97,720.95 401.43,701.00              395.08,686.18 390.03,669.24 390.00,653.00              389.99,645.96 390.78,633.27 389.00,627.00              387.96,634.38 383.93,646.92 381.19,654.00              366.19,692.72 332.10,719.74 295.00,736.14              295.00,736.14 219.00,762.02 219.00,762.02              219.00,762.02 181.00,774.67 181.00,774.67              181.00,774.67 141.00,788.00 141.00,788.00              131.01,791.33 119.59,795.24 109.00,794.99              96.95,794.69 84.11,784.52 80.79,773.00              79.78,769.51 79.96,764.69 80.00,761.00              80.12,751.44 83.94,743.01 86.58,734.00              86.58,734.00 107.33,671.00 107.33,671.00              107.33,671.00 125.33,616.00 125.33,616.00              125.33,616.00 138.43,579.00 138.43,579.00              150.07,551.78 169.83,524.67 194.00,507.43              207.17,498.03 219.60,492.93 235.00,488.42              235.00,488.42 250.00,484.00 250.00,484.00              250.00,484.00 230.00,485.00 230.00,485.00              216.77,485.02 200.62,482.97 188.00,478.97              162.55,470.91 136.16,452.40 118.09,433.00              107.22,421.33 98.64,408.69 89.13,396.00              89.13,396.00 46.42,338.00 46.42,338.00              46.42,338.00 16.37,297.00 16.37,297.00              7.72,285.31 -0.17,276.08 0.00,261.00              0.08,254.90 0.95,252.41 3.78,247.00              10.97,233.30 21.38,230.02 36.00,230.00              36.00,230.00 160.00,230.00 160.00,230.00              160.00,230.00 199.00,230.00 199.00,230.00              199.00,230.00 211.00,230.91 211.00,230.91              238.36,232.91 267.51,240.56 291.00,255.06              317.67,271.54 320.57,281.41 338.00,304.00 Z            M 440.00,293.43            C 430.19,295.44 424.07,304.53 419.81,313.00              410.08,332.34 406.97,354.62 407.00,376.00              407.01,384.67 409.02,397.27 412.99,405.00              415.63,410.12 419.86,414.30 426.00,413.88              434.39,413.30 440.78,403.62 444.57,397.00              454.20,380.17 459.03,353.31 459.00,334.00              458.98,321.60 456.23,294.17 440.00,293.43 Z            M 340.00,306.00            C 340.00,306.00 339.00,306.00 339.00,306.00              339.00,306.00 340.00,307.00 340.00,307.00              340.00,307.00 340.00,306.00 340.00,306.00 Z            M 539.00,335.00            C 539.00,335.00 538.00,335.00 538.00,335.00              538.00,335.00 539.00,336.00 539.00,336.00              539.00,336.00 539.00,335.00 539.00,335.00 Z            M 538.00,336.00            C 538.00,336.00 537.00,336.00 537.00,336.00              537.00,336.00 538.00,337.00 538.00,337.00              538.00,337.00 538.00,336.00 538.00,336.00 Z            M 537.00,337.00            C 537.00,337.00 536.00,337.00 536.00,337.00              536.00,337.00 537.00,338.00 537.00,338.00              537.00,338.00 537.00,337.00 537.00,337.00 Z            M 536.00,338.00            C 536.00,338.00 535.00,338.00 535.00,338.00              535.00,338.00 536.00,339.00 536.00,339.00              536.00,339.00 536.00,338.00 536.00,338.00 Z            M 280.00,375.32            C 277.47,375.90 275.33,376.41 273.04,377.75              260.01,385.37 272.01,401.72 279.04,409.00              297.09,427.68 332.64,445.11 359.00,445.00              368.35,444.96 378.89,442.82 377.89,431.00              377.09,421.46 366.76,411.21 360.00,405.17              341.14,388.34 305.67,372.51 280.00,375.32 Z            M 530.00,415.28            C 509.47,418.24 487.02,421.05 470.01,434.24              467.77,435.98 465.68,437.84 463.93,440.09              458.22,447.41 459.01,454.58 467.02,459.73              474.40,464.48 487.26,466.89 496.00,467.00              516.42,467.24 533.84,465.26 553.00,457.60              560.92,454.43 569.91,450.22 575.81,443.91              584.32,434.82 581.52,426.24 571.00,420.82              560.65,415.49 541.56,414.21 530.00,415.28 Z            M 1204.00,473.00            C 1204.00,473.00 1288.00,473.00 1288.00,473.00              1288.00,473.00 1288.00,872.00 1288.00,872.00              1288.00,872.00 1204.00,872.00 1204.00,872.00              1204.00,872.00 1204.00,835.00 1204.00,835.00              1187.66,847.32 1174.03,862.06 1154.00,868.92              1143.25,872.60 1134.05,872.00 1123.00,872.00              1123.00,872.00 1087.00,872.00 1087.00,872.00              1081.33,871.93 1068.47,870.12 1063.00,868.57              1027.81,858.64 1019.70,829.22 1015.85,797.00              1015.85,797.00 1014.00,775.00 1014.00,775.00              1014.00,775.00 1013.00,758.00 1013.00,758.00              1013.00,758.00 1013.00,726.00 1013.00,726.00              1013.00,726.00 1013.00,693.00 1013.00,693.00              1013.00,693.00 1014.00,675.00 1014.00,675.00              1014.00,675.00 1015.85,653.00 1015.85,653.00              1019.19,624.99 1026.91,594.47 1055.00,581.32              1075.33,571.81 1114.00,573.73 1137.00,574.00              1163.09,574.31 1185.43,589.95 1204.00,607.00              1204.00,607.00 1204.00,473.00 1204.00,473.00 Z            M 1616.00,872.00            C 1616.00,872.00 1616.00,596.00 1616.00,596.00              1616.00,574.99 1614.89,542.72 1618.61,523.00              1620.87,511.03 1624.97,498.84 1634.09,490.29              1647.72,477.50 1661.23,475.13 1679.00,473.91              1679.00,473.91 1691.00,473.00 1691.00,473.00              1691.00,473.00 1760.00,473.00 1760.00,473.00              1760.00,473.00 1760.00,537.00 1760.00,537.00              1760.00,537.00 1716.00,537.00 1716.00,537.00              1711.36,537.06 1706.74,537.50 1703.43,541.22              1699.67,545.44 1700.11,551.76 1699.99,557.00              1699.99,557.00 1699.00,575.00 1699.00,575.00              1699.00,575.00 1760.00,575.00 1760.00,575.00              1760.00,575.00 1760.00,640.00 1760.00,640.00              1760.00,640.00 1700.00,640.00 1700.00,640.00              1700.00,640.00 1700.00,872.00 1700.00,872.00              1700.00,872.00 1616.00,872.00 1616.00,872.00 Z            M 2303.00,473.00            C 2303.00,473.00 2385.00,473.00 2385.00,473.00              2385.00,473.00 2385.00,535.00 2385.00,535.00              2385.00,535.00 2303.00,535.00 2303.00,535.00              2303.00,535.00 2303.00,473.00 2303.00,473.00 Z            M 370.00,486.27            C 342.97,492.37 316.53,519.85 303.01,543.00              297.63,552.21 289.11,574.51 305.00,578.50              307.11,578.82 308.85,578.94 311.00,578.50              320.12,577.61 329.37,572.80 337.00,567.95              353.92,557.17 370.18,540.27 380.40,523.00              385.73,513.98 396.60,488.98 379.00,486.27              376.21,485.77 372.80,486.02 370.00,486.27 Z            M 439.00,496.43            C 426.28,501.48 428.57,518.17 430.61,529.00              434.63,550.33 449.34,579.89 465.09,594.71              470.70,600.00 481.70,608.73 490.00,606.43              503.18,602.77 500.03,580.78 497.63,571.00              492.25,549.08 481.28,526.62 465.71,510.09              459.12,503.08 449.16,494.98 439.00,496.43 Z            M 2416.00,534.00            C 2416.00,534.00 2500.00,534.00 2500.00,534.00              2500.00,534.00 2500.00,575.00 2500.00,575.00              2500.00,575.00 2560.00,575.00 2560.00,575.00              2560.00,575.00 2560.00,640.00 2560.00,640.00              2560.00,640.00 2500.00,640.00 2500.00,640.00              2500.00,640.00 2500.00,787.00 2500.00,787.00              2500.01,792.72 2500.03,798.60 2505.11,802.44              2509.39,805.68 2515.02,804.69 2520.00,805.17              2520.00,805.17 2560.00,806.00 2560.00,806.00              2560.00,806.00 2560.00,863.00 2560.00,863.00              2560.00,863.00 2540.00,868.12 2540.00,868.12              2540.00,868.12 2521.00,871.57 2521.00,871.57              2503.42,874.18 2491.49,874.03 2474.00,874.00              2451.37,873.96 2425.77,865.03 2419.16,841.00              2417.30,834.26 2416.01,824.00 2416.00,817.00              2416.00,817.00 2416.00,534.00 2416.00,534.00 Z            M 1874.00,618.00            C 1888.65,603.35 1907.71,582.09 1928.00,576.04              1938.85,572.80 1963.60,574.00 1976.00,574.00              1976.00,574.00 1976.00,656.00 1976.00,656.00              1951.59,656.00 1921.41,654.60 1898.00,660.37              1893.15,661.57 1877.48,665.34 1875.02,669.27              1873.79,671.24 1874.00,674.72 1874.00,677.00              1874.00,677.00 1874.00,872.00 1874.00,872.00              1874.00,872.00 1790.00,872.00 1790.00,872.00              1790.00,872.00 1790.00,575.00 1790.00,575.00              1790.00,575.00 1874.00,575.00 1874.00,575.00              1874.00,575.00 1874.00,618.00 1874.00,618.00 Z            M 726.00,670.00            C 726.00,670.00 727.00,651.00 727.00,651.00              727.04,628.28 729.27,602.80 748.00,587.33              762.64,575.23 780.14,575.00 798.00,575.00              798.00,575.00 835.00,575.00 835.00,575.00              835.00,575.00 868.00,575.00 868.00,575.00              868.00,575.00 903.00,575.00 903.00,575.00              926.98,575.00 953.24,574.95 969.47,596.00              971.95,599.21 975.05,605.19 976.54,609.00              981.32,621.23 981.85,637.96 982.00,651.00              982.00,651.00 983.00,666.00 983.00,666.00              983.00,666.00 983.00,872.00 983.00,872.00              983.00,872.00 899.00,872.00 899.00,872.00              899.00,872.00 899.00,839.00 899.00,839.00              883.46,851.61 867.73,864.64 848.00,869.84              834.42,873.42 805.30,872.00 790.00,872.00              770.80,872.00 751.04,873.16 735.00,860.48              719.11,847.92 715.09,823.14 715.00,804.00              715.00,804.00 714.09,790.00 714.09,790.00              714.09,790.00 715.00,778.00 715.00,778.00              715.04,752.97 719.19,724.72 742.00,710.09              755.30,701.56 771.64,699.99 787.00,698.91              787.00,698.91 799.00,698.00 799.00,698.00              839.82,697.94 858.31,698.34 899.00,706.00              899.00,706.00 899.00,665.00 899.00,665.00              898.97,658.62 898.06,647.08 893.47,642.39              888.74,637.55 876.55,637.01 870.00,637.21              870.00,637.21 827.00,637.21 827.00,637.21              821.98,638.09 816.39,638.19 812.33,641.65              805.24,647.67 806.53,661.44 805.00,670.00              805.00,670.00 726.00,670.00 726.00,670.00 Z            M 1329.00,670.00            C 1330.36,662.39 1329.99,656.62 1330.00,649.00              1330.00,649.00 1330.91,637.00 1330.91,637.00              1332.38,616.90 1335.57,598.64 1353.00,585.93              1369.17,574.13 1386.20,575.00 1405.00,575.00              1405.00,575.00 1435.00,575.00 1435.00,575.00              1435.00,575.00 1497.00,575.00 1497.00,575.00              1510.70,575.00 1524.49,574.20 1538.00,576.80              1555.78,580.24 1571.12,588.43 1578.54,606.00              1583.28,617.24 1584.86,630.89 1585.00,643.00              1585.00,643.00 1586.00,658.00 1586.00,658.00              1586.00,658.00 1586.00,872.00 1586.00,872.00              1586.00,872.00 1502.00,872.00 1502.00,872.00              1502.00,872.00 1502.00,839.00 1502.00,839.00              1490.86,848.64 1470.91,863.68 1457.00,868.25              1443.32,872.75 1433.92,872.00 1420.00,872.00              1420.00,872.00 1378.00,872.00 1378.00,872.00              1363.54,871.98 1348.33,869.05 1337.01,859.54              1326.25,850.49 1321.70,835.43 1319.59,822.00              1317.80,810.59 1318.00,802.35 1318.00,791.00              1318.00,762.25 1318.33,726.42 1346.00,709.47              1358.93,701.55 1375.23,699.94 1390.00,698.91              1390.00,698.91 1402.00,698.00 1402.00,698.00              1442.82,697.94 1461.31,698.34 1502.00,706.00              1502.00,706.00 1502.00,664.00 1502.00,664.00              1501.99,657.17 1501.30,646.30 1495.79,641.57              1491.20,637.63 1479.03,637.01 1473.00,637.21              1473.00,637.21 1430.00,637.21 1430.00,637.21              1424.39,638.17 1419.54,638.09 1415.11,642.22              1408.72,648.17 1409.00,661.77 1409.00,670.00              1409.00,670.00 1329.00,670.00 1329.00,670.00 Z            M 2006.00,575.00            C 2006.00,575.00 2090.00,575.00 2090.00,575.00              2090.00,575.00 2090.00,751.00 2090.00,751.00              2090.00,751.00 2090.00,770.00 2090.00,770.00              2090.00,783.39 2089.37,798.20 2105.00,803.40              2109.41,804.87 2113.43,804.99 2118.00,805.00              2130.25,805.02 2146.31,805.90 2158.00,803.55              2158.00,803.55 2189.00,794.00 2189.00,794.00              2189.00,794.00 2189.00,575.00 2189.00,575.00              2189.00,575.00 2273.00,575.00 2273.00,575.00              2273.00,575.00 2273.00,872.00 2273.00,872.00              2273.00,872.00 2189.00,872.00 2189.00,872.00              2189.00,872.00 2189.00,834.00 2189.00,834.00              2169.25,852.15 2147.34,871.96 2119.00,872.00              2119.00,872.00 2085.00,872.00 2085.00,872.00              2059.01,872.00 2031.75,872.06 2016.23,847.00              2012.57,841.09 2010.74,834.71 2009.13,828.00              2007.59,821.56 2006.01,806.67 2006.00,800.00              2006.00,800.00 2006.00,575.00 2006.00,575.00 Z            M 2303.00,575.00            C 2303.00,575.00 2385.00,575.00 2385.00,575.00              2385.00,575.00 2385.00,872.00 2385.00,872.00              2385.00,872.00 2303.00,872.00 2303.00,872.00              2303.00,872.00 2303.00,575.00 2303.00,575.00 Z            M 391.00,623.00            C 391.00,623.00 390.00,623.00 390.00,623.00              390.00,623.00 391.00,624.00 391.00,624.00              391.00,624.00 391.00,623.00 391.00,623.00 Z            M 1120.00,641.14            C 1114.47,642.22 1109.52,643.44 1105.33,647.48              1097.79,654.75 1097.59,667.27 1096.91,677.00              1096.91,677.00 1096.00,689.00 1096.00,689.00              1096.00,689.00 1096.00,757.00 1096.00,757.00              1096.00,757.00 1096.91,769.00 1096.91,769.00              1097.64,779.37 1097.93,793.30 1107.09,800.20              1112.41,804.20 1121.52,804.99 1128.00,805.00              1147.71,805.03 1168.13,806.80 1187.00,799.95              1190.32,798.74 1201.24,794.88 1203.01,792.36              1204.25,790.59 1204.00,787.13 1204.00,785.00              1204.00,785.00 1204.00,660.00 1204.00,660.00              1204.00,657.90 1204.25,654.39 1203.01,652.65              1201.10,649.97 1188.59,645.84 1185.00,644.67              1169.99,639.78 1162.33,641.00 1147.00,641.14              1147.00,641.14 1120.00,641.14 1120.00,641.14 Z            M 899.00,748.00            C 899.00,748.00 839.00,748.00 839.00,748.00              839.00,748.00 829.00,748.91 829.00,748.91              818.45,749.63 805.56,748.69 798.99,759.01              794.66,765.82 794.96,777.15 795.00,785.00              795.03,791.78 795.91,803.74 801.33,808.35              806.37,812.65 812.05,811.58 818.00,812.28              832.13,813.96 856.28,812.90 870.00,809.37              876.38,807.73 885.07,804.18 891.00,801.24              893.16,800.18 896.67,798.66 897.98,796.61              899.22,794.66 899.00,791.27 899.00,789.00              899.00,789.00 899.00,748.00 899.00,748.00 Z            M 1502.00,748.00            C 1502.00,748.00 1443.00,748.00 1443.00,748.00              1443.00,748.00 1433.00,748.91 1433.00,748.91              1424.32,749.51 1414.60,748.55 1407.04,753.85              1396.09,761.52 1398.07,779.42 1398.91,791.00              1399.36,797.16 1399.25,803.12 1404.13,807.78              1409.56,812.96 1415.33,811.54 1422.00,812.42              1438.52,814.60 1466.42,812.46 1482.00,806.58              1485.95,805.09 1498.96,799.77 1500.98,796.61              1502.22,794.66 1502.00,791.27 1502.00,789.00              1502.00,789.00 1502.00,748.00 1502.00,748.00 Z" />
</svg>