<svg xmlns="http://www.w3.org/2000/svg" viewBox="-0.5 -0.51 875.87 875">
  <path id="adafruit" fill="#303030" stroke="none" stroke-width="1"
    d="M 338.00,304.00            C 338.00,304.00 333.67,291.00 333.67,291.00              329.81,279.52 326.15,265.13 326.00,253.00              325.62,219.99 334.02,190.66 350.43,162.00              350.43,162.00 377.86,122.00 377.86,122.00              377.86,122.00 415.29,70.00 415.29,70.00              415.29,70.00 451.37,20.00 451.37,20.00              459.49,9.25 466.44,0.17 481.00,0.00              486.05,-0.06 490.11,0.06 495.00,1.57              511.42,6.64 515.84,24.51 520.67,39.00              520.67,39.00 535.34,85.00 535.34,85.00              535.34,85.00 553.00,140.00 553.00,140.00              553.00,140.00 569.58,194.00 569.58,194.00              576.52,225.50 576.42,261.50 565.31,292.00              558.97,309.38 549.39,320.38 539.00,335.00              539.00,335.00 555.00,323.15 555.00,323.15              566.93,314.58 580.89,308.41 595.00,304.43              601.63,302.56 613.13,300.56 620.00,300.00              620.00,300.00 629.00,300.00 629.00,300.00              632.15,299.70 633.69,299.07 637.00,299.32              637.00,299.32 646.00,300.00 646.00,300.00              670.45,300.12 690.14,306.87 713.00,313.98              713.00,313.98 767.00,331.02 767.00,331.02              767.00,331.02 789.00,338.14 789.00,338.14              789.00,338.14 828.00,350.66 828.00,350.66              841.42,354.95 862.20,359.43 870.01,372.00              872.18,375.50 873.21,379.98 873.92,384.00              874.44,386.97 875.05,389.98 874.82,393.00              873.76,406.91 864.47,414.50 854.00,422.37              854.00,422.37 805.00,457.86 805.00,457.86              805.00,457.86 750.00,497.42 750.00,497.42              750.00,497.42 721.00,517.95 721.00,517.95              694.68,534.62 668.98,544.17 638.00,547.17              638.00,547.17 626.00,548.00 626.00,548.00              614.38,547.86 601.13,545.60 590.00,542.28              584.07,540.51 574.57,536.35 569.00,536.00              576.35,539.28 586.69,547.04 593.00,552.25              624.84,578.55 640.00,619.77 643.96,660.00              643.96,660.00 643.96,668.00 643.96,668.00              643.96,668.00 645.00,680.00 645.00,680.00              645.00,680.00 645.00,734.00 645.00,734.00              645.00,734.00 645.00,778.00 645.00,778.00              645.00,778.00 645.00,825.00 645.00,825.00              645.00,834.62 645.79,844.74 642.78,854.00              638.67,866.66 623.82,874.48 611.00,873.96              600.63,873.54 590.25,866.07 582.00,860.28              582.00,860.28 534.00,825.15 534.00,825.15              534.00,825.15 479.00,784.88 479.00,784.88              479.00,784.88 446.00,759.71 446.00,759.71              429.78,745.49 409.97,720.95 401.43,701.00              395.08,686.18 390.03,669.24 390.00,653.00              389.99,645.96 390.78,633.27 389.00,627.00              387.96,634.38 383.93,646.92 381.19,654.00              366.19,692.72 332.10,719.74 295.00,736.14              295.00,736.14 219.00,762.02 219.00,762.02              219.00,762.02 181.00,774.67 181.00,774.67              181.00,774.67 141.00,788.00 141.00,788.00              131.01,791.33 119.59,795.24 109.00,794.99              96.95,794.69 84.11,784.52 80.79,773.00              79.78,769.51 79.96,764.69 80.00,761.00              80.12,751.44 83.94,743.01 86.58,734.00              86.58,734.00 107.33,671.00 107.33,671.00              107.33,671.00 125.33,616.00 125.33,616.00              125.33,616.00 138.43,579.00 138.43,579.00              150.07,551.78 169.83,524.67 194.00,507.43              207.17,498.03 219.60,492.93 235.00,488.42              235.00,488.42 250.00,484.00 250.00,484.00              250.00,484.00 230.00,485.00 230.00,485.00              216.77,485.02 200.62,482.97 188.00,478.97              162.55,470.91 136.16,452.40 118.09,433.00              107.22,421.33 98.64,408.69 89.13,396.00              89.13,396.00 46.42,338.00 46.42,338.00              46.42,338.00 16.37,297.00 16.37,297.00              7.72,285.31 -0.17,276.08 0.00,261.00              0.08,254.90 0.95,252.41 3.78,247.00              10.97,233.30 21.38,230.02 36.00,230.00              36.00,230.00 160.00,230.00 160.00,230.00              160.00,230.00 199.00,230.00 199.00,230.00              199.00,230.00 211.00,230.91 211.00,230.91              238.36,232.91 267.51,240.56 291.00,255.06              317.67,271.54 320.57,281.41 338.00,304.00 Z            M 440.00,293.43            C 430.19,295.44 424.07,304.53 419.81,313.00              410.08,332.34 406.97,354.62 407.00,376.00              407.01,384.67 409.02,397.27 412.99,405.00              415.63,410.12 419.86,414.30 426.00,413.88              434.39,413.30 440.78,403.62 444.57,397.00              454.20,380.17 459.03,353.31 459.00,334.00              458.98,321.60 456.23,294.17 440.00,293.43 Z            M 340.00,306.00            C 340.00,306.00 339.00,306.00 339.00,306.00              339.00,306.00 340.00,307.00 340.00,307.00              340.00,307.00 340.00,306.00 340.00,306.00 Z            M 539.00,335.00            C 539.00,335.00 538.00,335.00 538.00,335.00              538.00,335.00 539.00,336.00 539.00,336.00              539.00,336.00 539.00,335.00 539.00,335.00 Z            M 538.00,336.00            C 538.00,336.00 537.00,336.00 537.00,336.00              537.00,336.00 538.00,337.00 538.00,337.00              538.00,337.00 538.00,336.00 538.00,336.00 Z            M 537.00,337.00            C 537.00,337.00 536.00,337.00 536.00,337.00              536.00,337.00 537.00,338.00 537.00,338.00              537.00,338.00 537.00,337.00 537.00,337.00 Z            M 536.00,338.00            C 536.00,338.00 535.00,338.00 535.00,338.00              535.00,338.00 536.00,339.00 536.00,339.00              536.00,339.00 536.00,338.00 536.00,338.00 Z            M 280.00,375.32            C 277.47,375.90 275.33,376.41 273.04,377.75              260.01,385.37 272.01,401.72 279.04,409.00              297.09,427.68 332.64,445.11 359.00,445.00              368.35,444.96 378.89,442.82 377.89,431.00              377.09,421.46 366.76,411.21 360.00,405.17              341.14,388.34 305.67,372.51 280.00,375.32 Z            M 530.00,415.28            C 509.47,418.24 487.02,421.05 470.01,434.24              467.77,435.98 465.68,437.84 463.93,440.09              458.22,447.41 459.01,454.58 467.02,459.73              474.40,464.48 487.26,466.89 496.00,467.00              516.42,467.24 533.84,465.26 553.00,457.60              560.92,454.43 569.91,450.22 575.81,443.91              584.32,434.82 581.52,426.24 571.00,420.82              560.65,415.49 541.56,414.21 530.00,415.28 Z            M 370.00,486.27            C 342.97,492.37 316.53,519.85 303.01,543.00              297.63,552.21 289.11,574.51 305.00,578.50              307.11,578.82 308.85,578.94 311.00,578.50              320.12,577.61 329.37,572.80 337.00,567.95              353.92,557.17 370.18,540.27 380.40,523.00              385.73,513.98 396.60,488.98 379.00,486.27              376.21,485.77 372.80,486.02 370.00,486.27 Z            M 439.00,496.43            C 426.28,501.48 428.57,518.17 430.61,529.00              434.63,550.33 449.34,579.89 465.09,594.71              470.70,600.00 481.70,608.73 490.00,606.43              503.18,602.77 500.03,580.78 497.63,571.00              492.25,549.08 481.28,526.62 465.71,510.09              459.12,503.08 449.16,494.98 439.00,496.43 Z            M 391.00,623.00            C 391.00,623.00 390.00,623.00 390.00,623.00              390.00,623.00 391.00,624.00 391.00,624.00              391.00,624.00 391.00,623.00 391.00,623.00 Z" />
</svg>