<svg xmlns="http://www.w3.org/2000/svg" viewBox="-0.85 0.24 2561.35 1725.26">
  <path id="adidas" fill="#303030" stroke="none" stroke-width="1"
    d="M 1149.00,216.00            C 1149.00,216.00 1206.00,183.42 1206.00,183.42              1206.00,183.42 1260.00,152.42 1260.00,152.42              1260.00,152.42 1430.00,54.85 1430.00,54.85              1430.00,54.85 1501.00,14.15 1501.00,14.15              1501.00,14.15 1519.00,3.72 1519.00,3.72              1521.02,2.58 1524.44,0.28 1526.82,0.82              1530.48,1.66 1536.69,14.44 1538.72,18.00              1538.72,18.00 1568.28,69.00 1568.28,69.00              1568.28,69.00 1684.42,270.00 1684.42,270.00              1684.42,270.00 2027.42,863.00 2027.42,863.00              2027.42,863.00 2133.85,1047.00 2133.85,1047.00              2133.85,1047.00 2166.85,1104.00 2166.85,1104.00              2170.80,1110.92 2180.04,1125.27 2182.00,1132.00              2182.00,1132.00 1683.00,1132.00 1683.00,1132.00              1673.84,1131.98 1674.66,1132.10 1666.58,1118.00              1666.58,1118.00 1646.42,1083.00 1646.42,1083.00              1646.42,1083.00 1589.42,984.00 1589.42,984.00              1589.42,984.00 1554.40,923.00 1554.40,923.00              1554.40,923.00 1475.58,786.00 1475.58,786.00              1475.58,786.00 1273.58,435.00 1273.58,435.00              1273.58,435.00 1186.58,284.00 1186.58,284.00              1186.58,284.00 1160.72,239.00 1160.72,239.00              1157.08,232.60 1150.30,222.82 1149.00,216.00 Z            M 1015.00,1240.00            C 1015.00,1240.00 1015.00,1140.00 1015.00,1140.00              1015.00,1137.34 1015.11,1134.58 1014.36,1132.00              1014.36,1132.00 998.20,1103.00 998.20,1103.00              998.20,1103.00 958.20,1034.00 958.20,1034.00              958.20,1034.00 894.58,924.00 894.58,924.00              894.58,924.00 811.72,781.00 811.72,781.00              811.72,781.00 739.85,657.00 739.85,657.00              739.85,657.00 722.42,627.00 722.42,627.00              720.96,624.49 716.53,617.94 717.41,615.21              718.32,612.40 729.97,606.58 733.00,604.85              733.00,604.85 776.00,580.00 776.00,580.00              776.00,580.00 950.00,479.72 950.00,479.72              950.00,479.72 1049.00,422.58 1049.00,422.58              1049.00,422.58 1080.00,404.72 1080.00,404.72              1085.47,401.61 1089.72,398.19 1096.00,397.00              1096.00,397.00 1124.15,446.00 1124.15,446.00              1124.15,446.00 1194.58,568.00 1194.58,568.00              1194.58,568.00 1394.85,915.00 1394.85,915.00              1394.85,915.00 1480.85,1064.00 1480.85,1064.00              1480.85,1064.00 1506.85,1109.00 1506.85,1109.00              1506.85,1109.00 1519.00,1132.00 1519.00,1132.00              1519.00,1132.00 1124.00,1132.00 1124.00,1132.00              1124.00,1132.00 1124.00,1240.00 1124.00,1240.00              1124.00,1240.00 1015.00,1240.00 1015.00,1240.00 Z            M 273.00,1003.00            C 273.00,1003.00 386.00,937.58 386.00,937.58              386.00,937.58 551.00,842.15 551.00,842.15              551.00,842.15 623.00,800.58 623.00,800.58              623.00,800.58 642.00,789.58 642.00,789.58              642.00,789.58 650.79,785.56 650.79,785.56              650.79,785.56 655.58,790.02 655.58,790.02              655.58,790.02 664.20,805.00 664.20,805.00              664.20,805.00 700.00,867.00 700.00,867.00              700.00,867.00 804.42,1048.00 804.42,1048.00              804.42,1048.00 837.28,1105.00 837.28,1105.00              837.28,1105.00 852.00,1132.00 852.00,1132.00              852.00,1132.00 354.00,1132.00 354.00,1132.00              354.00,1132.00 346.39,1130.98 346.39,1130.98              346.39,1130.98 340.28,1122.00 340.28,1122.00              340.28,1122.00 329.42,1103.00 329.42,1103.00              329.42,1103.00 291.58,1037.00 291.58,1037.00              291.58,1037.00 273.00,1003.00 273.00,1003.00 Z            M 854.00,1131.00            C 854.00,1131.00 963.00,1131.00 963.00,1131.00              963.00,1131.00 963.00,1716.00 963.00,1716.00              963.00,1716.00 854.00,1716.00 854.00,1716.00              854.00,1716.00 854.00,1688.00 854.00,1688.00              823.74,1704.92 805.65,1714.67 771.00,1721.60              762.60,1723.28 752.53,1724.99 744.00,1725.00              744.00,1725.00 707.00,1725.00 707.00,1725.00              707.00,1725.00 688.00,1722.75 688.00,1722.75              659.36,1717.98 632.87,1707.95 608.00,1693.00              579.32,1675.76 554.86,1651.80 536.33,1624.00              485.05,1547.08 486.68,1444.21 540.43,1369.00              592.90,1295.57 681.38,1263.88 769.00,1278.59              796.24,1283.16 832.14,1296.13 854.00,1313.00              854.00,1313.00 854.00,1131.00 854.00,1131.00 Z            M 1521.00,1131.00            C 1521.00,1131.00 1629.00,1131.00 1629.00,1131.00              1629.00,1131.00 1629.00,1716.00 1629.00,1716.00              1629.00,1716.00 1521.00,1716.00 1521.00,1716.00              1521.00,1716.00 1521.00,1688.00 1521.00,1688.00              1494.54,1705.28 1465.20,1717.17 1434.00,1722.41              1426.40,1723.69 1418.71,1724.99 1411.00,1725.00              1411.00,1725.00 1374.00,1725.00 1374.00,1725.00              1361.03,1724.94 1337.55,1719.80 1325.00,1715.81              1286.78,1703.63 1253.44,1682.36 1226.09,1653.00              1205.16,1630.54 1190.21,1604.60 1179.42,1576.00              1170.40,1552.09 1165.71,1520.51 1166.00,1495.00              1166.00,1495.00 1167.04,1485.00 1167.04,1485.00              1167.04,1485.00 1167.04,1477.00 1167.04,1477.00              1168.79,1460.08 1172.63,1443.10 1178.00,1427.00              1186.94,1400.21 1202.32,1373.13 1221.05,1352.00              1241.46,1328.98 1266.11,1309.96 1294.00,1296.78              1329.34,1280.08 1363.25,1274.55 1402.00,1275.00              1402.00,1275.00 1412.00,1275.91 1412.00,1275.91              1442.09,1277.98 1467.58,1284.62 1495.00,1297.31              1495.00,1297.31 1521.00,1312.00 1521.00,1312.00              1521.00,1312.00 1521.00,1131.00 1521.00,1131.00 Z            M 355.00,1688.00            C 345.14,1693.94 335.49,1699.88 325.00,1704.69              304.02,1714.32 268.01,1724.96 245.00,1725.00              245.00,1725.00 207.00,1725.00 207.00,1725.00              179.96,1724.68 139.39,1710.81 116.00,1697.42              98.14,1687.20 78.19,1672.96 64.09,1658.00              44.80,1637.53 28.52,1613.92 17.43,1588.00              -8.30,1527.87 -5.62,1458.80 22.32,1400.00              33.43,1376.62 49.77,1356.14 68.00,1338.00              86.97,1319.12 111.44,1303.67 136.00,1293.15              158.90,1283.34 183.20,1277.65 208.00,1275.91              208.00,1275.91 218.00,1275.00 218.00,1275.00              258.65,1274.53 294.33,1280.42 331.00,1298.75              340.11,1303.31 346.80,1306.67 355.00,1313.00              355.00,1313.00 355.00,1279.00 355.00,1279.00              355.00,1279.00 462.00,1279.00 462.00,1279.00              462.00,1279.00 462.00,1716.00 462.00,1716.00              462.00,1716.00 355.00,1716.00 355.00,1716.00              355.00,1716.00 355.00,1688.00 355.00,1688.00 Z            M 2017.00,1688.00            C 1988.23,1707.16 1942.92,1724.95 1908.00,1725.00              1908.00,1725.00 1871.00,1725.00 1871.00,1725.00              1856.30,1724.82 1829.04,1718.30 1815.00,1713.31              1769.07,1696.97 1727.86,1664.76 1701.08,1624.00              1681.02,1593.47 1667.84,1557.49 1664.92,1521.00              1664.92,1521.00 1664.00,1509.00 1664.00,1509.00              1664.00,1509.00 1664.00,1490.00 1664.00,1490.00              1664.00,1490.00 1664.92,1478.00 1664.92,1478.00              1668.35,1435.12 1685.82,1392.44 1712.80,1359.00              1734.57,1332.03 1759.14,1313.15 1790.00,1297.75              1824.46,1280.57 1860.85,1274.56 1899.00,1275.00              1899.00,1275.00 1909.00,1275.91 1909.00,1275.91              1935.12,1277.71 1961.09,1283.33 1985.00,1294.31              1985.00,1294.31 2017.00,1312.00 2017.00,1312.00              2017.00,1312.00 2017.00,1279.00 2017.00,1279.00              2017.00,1279.00 2126.00,1279.00 2126.00,1279.00              2126.00,1279.00 2126.00,1716.00 2126.00,1716.00              2126.00,1716.00 2017.00,1716.00 2017.00,1716.00              2017.00,1716.00 2017.00,1688.00 2017.00,1688.00 Z            M 2282.00,1575.00            C 2282.00,1583.60 2282.26,1586.65 2284.89,1595.00              2295.58,1629.00 2334.05,1643.95 2367.00,1644.00              2367.00,1644.00 2376.00,1644.00 2376.00,1644.00              2396.36,1643.97 2415.69,1636.60 2429.99,1622.00              2436.40,1615.45 2442.04,1606.38 2442.81,1597.00              2443.89,1584.05 2433.63,1572.68 2423.00,1566.90              2405.67,1557.47 2371.16,1553.65 2351.00,1550.41              2314.86,1544.60 2259.54,1534.94 2229.00,1515.30              2214.36,1505.89 2204.78,1495.50 2195.34,1481.00              2189.80,1472.48 2186.17,1463.60 2183.00,1454.00              2179.85,1444.46 2177.12,1431.02 2177.00,1421.00              2176.81,1404.40 2177.84,1392.03 2182.72,1376.00              2185.74,1366.09 2191.31,1354.64 2197.00,1346.00              2234.69,1288.74 2303.97,1274.25 2368.00,1275.00              2368.00,1275.00 2398.00,1277.75 2398.00,1277.75              2415.29,1280.56 2427.45,1283.20 2444.00,1289.32              2490.92,1306.66 2526.55,1341.92 2538.87,1391.00              2541.12,1399.97 2542.97,1408.71 2543.00,1418.00              2543.00,1418.00 2433.00,1418.00 2433.00,1418.00              2432.14,1407.40 2430.79,1396.52 2425.68,1387.00              2414.08,1365.39 2387.75,1359.04 2365.00,1359.00              2338.42,1358.96 2292.07,1362.12 2289.19,1397.00              2288.19,1408.99 2298.29,1419.31 2308.00,1424.69              2326.36,1434.86 2354.18,1439.63 2375.00,1443.08              2439.67,1453.79 2517.70,1462.83 2550.24,1529.00              2555.62,1539.93 2559.85,1554.77 2560.00,1567.00              2560.00,1567.00 2560.00,1587.00 2560.00,1587.00              2559.95,1618.14 2546.17,1651.44 2524.91,1674.00              2499.76,1700.69 2459.49,1715.32 2424.00,1721.25              2414.45,1722.84 2399.46,1724.99 2390.00,1725.00              2390.00,1725.00 2341.00,1725.00 2341.00,1725.00              2329.14,1724.98 2309.76,1721.59 2298.00,1718.88              2256.60,1709.34 2219.15,1689.93 2193.64,1655.00              2186.14,1644.73 2179.07,1631.06 2175.00,1619.00              2170.68,1606.18 2167.30,1588.51 2167.00,1575.00              2167.00,1575.00 2282.00,1575.00 2282.00,1575.00 Z            M 1015.00,1279.00            C 1015.00,1279.00 1124.00,1279.00 1124.00,1279.00              1124.00,1279.00 1124.00,1716.00 1124.00,1716.00              1124.00,1716.00 1015.00,1716.00 1015.00,1716.00              1015.00,1716.00 1015.00,1279.00 1015.00,1279.00 Z            M 217.00,1375.28            C 194.36,1378.61 176.98,1384.43 158.00,1397.72              144.76,1406.99 132.86,1419.32 124.23,1433.00              111.45,1453.24 103.73,1476.90 104.00,1501.00              104.84,1574.60 173.11,1630.67 245.00,1621.71              263.11,1619.46 278.26,1613.80 294.00,1604.72              307.04,1597.19 319.64,1585.75 329.00,1574.00              337.54,1563.26 344.61,1550.01 349.00,1537.00              354.50,1520.68 355.19,1509.94 355.00,1493.00              354.84,1479.76 349.77,1462.03 344.30,1450.00              321.98,1400.84 270.91,1370.27 217.00,1375.28 Z            M 718.00,1375.28            C 687.31,1379.72 662.43,1389.65 640.04,1412.04              630.06,1422.01 618.99,1437.98 613.43,1451.00              607.32,1465.27 603.18,1482.44 603.00,1498.00              602.23,1566.02 660.76,1622.23 728.00,1623.00              744.41,1623.18 766.27,1618.48 781.00,1611.24              794.70,1604.51 806.96,1596.70 817.83,1585.83              838.80,1564.86 853.95,1532.95 854.00,1503.00              854.00,1503.00 854.00,1494.00 854.00,1494.00              853.87,1483.49 850.99,1470.97 847.67,1461.00              829.61,1406.85 775.06,1369.98 718.00,1375.28 Z            M 1384.00,1375.28            C 1370.38,1377.28 1359.68,1379.50 1347.00,1385.31              1299.76,1406.94 1271.40,1452.43 1272.00,1504.00              1272.75,1567.66 1331.23,1622.29 1394.00,1623.00              1410.74,1623.19 1432.86,1618.37 1448.00,1611.22              1466.20,1602.62 1480.83,1591.49 1493.72,1576.00              1502.32,1565.65 1510.21,1551.72 1514.66,1539.00              1517.60,1530.58 1520.89,1516.86 1521.00,1508.00              1521.25,1486.16 1520.37,1472.57 1511.57,1452.00              1490.38,1402.43 1437.77,1370.28 1384.00,1375.28 Z            M 1883.00,1375.28            C 1859.25,1378.77 1841.73,1384.23 1822.00,1398.64              1807.64,1409.13 1796.01,1421.63 1787.01,1437.00              1776.58,1454.82 1770.83,1472.37 1769.74,1493.00              1769.74,1493.00 1769.74,1501.00 1769.74,1501.00              1770.70,1519.74 1772.31,1531.53 1780.31,1549.00              1803.20,1598.98 1855.60,1628.49 1910.00,1621.71              1927.00,1619.60 1943.48,1613.61 1958.00,1604.58              1972.64,1595.46 1984.13,1585.01 1994.26,1571.00              2032.74,1517.75 2021.44,1443.97 1971.00,1402.62              1958.96,1392.75 1944.82,1385.09 1930.00,1380.34              1915.06,1375.56 1898.62,1373.83 1883.00,1375.28 Z" />
</svg>