<svg xmlns="http://www.w3.org/2000/svg" viewBox="-0.5 -0.39 513 512.89">
  <path id="adobe-fuse" fill="#303030" stroke="none" stroke-width="1"
    d="M 67.00,0.11            C 67.00,0.11 110.00,0.11 110.00,0.11              110.00,0.11 191.00,0.11 191.00,0.11              191.00,0.11 437.00,0.11 437.00,0.11              475.99,0.06 511.94,36.01 512.00,75.00              512.00,75.00 512.00,437.00 512.00,437.00              511.94,475.96 475.95,511.94 437.00,512.00              437.00,512.00 75.00,512.00 75.00,512.00              36.01,511.94 0.06,475.99 0.00,437.00              0.00,437.00 0.00,203.00 0.00,203.00              0.00,203.00 0.00,73.00 0.00,73.00              0.08,66.15 1.82,59.46 4.00,53.00              13.82,24.02 37.43,5.90 67.00,0.11 Z            M 191.00,185.00            C 191.00,185.00 258.00,185.00 258.00,185.00              267.53,185.00 278.67,187.92 277.83,177.00              277.83,177.00 275.57,159.00 275.57,159.00              275.25,156.83 274.86,153.32 273.26,151.74              271.16,149.65 266.77,150.00 264.00,150.00              264.00,150.00 174.00,150.00 174.00,150.00              174.00,150.00 155.00,150.00 155.00,150.00              152.27,150.05 149.65,150.00 147.74,152.31              145.71,154.77 146.00,158.97 146.00,162.00              146.00,162.00 146.00,319.00 146.00,319.00              146.00,319.00 146.00,355.00 146.00,355.00              146.00,357.94 145.73,363.14 147.85,365.40              149.70,367.36 153.50,367.00 156.00,367.00              156.00,367.00 181.00,367.00 181.00,367.00              182.99,367.00 186.81,367.23 188.40,365.98              190.38,364.41 190.00,360.30 190.00,358.00              190.00,358.00 190.00,280.00 190.00,280.00              190.00,280.00 249.00,280.00 249.00,280.00              253.27,280.00 265.49,281.19 267.98,277.57              269.22,275.76 269.00,272.16 269.00,270.00              269.00,270.00 269.00,252.00 269.00,252.00              268.96,249.87 269.05,247.35 267.40,245.74              265.42,243.80 261.58,244.01 259.00,244.00              259.00,244.00 191.00,244.00 191.00,244.00              191.00,244.00 191.00,185.00 191.00,185.00 Z            M 326.00,203.29            C 310.17,205.71 297.61,210.91 287.53,224.00              276.60,238.18 276.20,261.90 285.47,277.00              289.44,283.48 295.73,289.03 302.00,293.25              302.00,293.25 336.00,311.44 336.00,311.44              340.56,314.65 346.01,318.96 345.04,325.27              344.10,331.38 338.39,334.36 333.00,335.84              322.44,338.73 305.53,334.20 296.00,329.22              292.42,327.35 284.25,320.57 280.51,323.04              278.42,324.42 278.15,327.74 278.02,330.00              278.02,330.00 278.02,348.00 278.02,348.00              278.02,351.89 278.00,356.59 280.56,359.79              283.12,362.99 289.14,364.93 293.00,366.12              303.56,369.36 316.95,371.12 328.00,371.00              352.90,370.71 378.13,360.44 386.25,335.00              388.36,328.41 388.08,323.77 388.00,317.00              387.72,293.38 369.45,279.99 350.00,270.78              341.79,266.89 330.66,263.32 324.22,256.70              314.90,247.13 324.51,237.17 337.00,237.00              347.68,236.86 352.90,237.11 363.00,241.43              366.43,242.90 373.31,247.68 376.72,246.36              380.28,244.98 379.98,239.11 380.00,236.00              380.00,236.00 380.00,220.00 380.00,220.00              379.85,209.64 374.01,207.95 365.00,205.63              353.89,202.77 337.44,202.22 326.00,203.29 Z" />
</svg>