<svg xmlns="http://www.w3.org/2000/svg" viewBox="-0.5 -0.42 1050 1024.92">
  <path id="Selection" fill="#303030" stroke="none" stroke-width="1" d="M 166.00,0.08            C 166.00,0.08 195.00,0.08 195.00,0.08              195.00,0.08 246.00,0.08 246.00,0.08              246.00,0.08 402.00,0.08 402.00,0.08              402.00,0.08 876.00,0.08 876.00,0.08              884.91,0.01 895.23,1.84 904.00,3.60              961.55,15.18 1012.04,56.11 1035.28,110.00              1041.99,125.56 1048.97,145.96 1049.00,163.00              1049.00,163.00 1049.00,861.00 1049.00,861.00              1048.97,877.89 1041.94,898.55 1035.28,914.00              1013.35,964.84 968.97,1002.31 916.00,1017.42              904.67,1020.65 887.70,1023.98 876.00,1024.00              876.00,1024.00 175.00,1024.00 175.00,1024.00              164.98,1023.98 149.81,1021.34 140.00,1018.87              77.25,1003.12 25.24,954.49 7.29,892.00              3.88,880.12 0.02,862.25 0.00,850.00              0.00,850.00 0.00,174.00 0.00,174.00              0.02,163.65 2.59,150.10 5.13,140.00              17.21,91.88 48.78,49.17 92.00,24.43              117.59,9.78 137.31,4.76 166.00,0.08 Z            M 427.00,615.00            C 427.00,615.00 438.31,649.00 438.31,649.00              438.31,649.00 455.19,698.00 455.19,698.00              457.03,702.85 461.03,717.67 464.39,720.40              466.37,722.01 468.59,721.95 471.00,722.00              471.00,722.00 556.00,722.00 556.00,722.00              558.78,721.99 563.28,722.44 564.94,719.69              566.53,717.04 564.27,711.71 563.31,709.00              563.31,709.00 554.33,684.00 554.33,684.00              554.33,684.00 530.69,618.00 530.69,618.00              530.69,618.00 512.19,566.00 512.19,566.00              512.19,566.00 473.31,457.00 473.31,457.00              473.31,457.00 430.00,336.00 430.00,336.00              430.00,336.00 410.81,282.00 410.81,282.00              409.37,278.19 406.73,268.04 403.61,266.02              401.68,264.78 398.25,265.00 396.00,265.00              396.00,265.00 290.00,265.00 290.00,265.00              287.87,265.04 285.35,264.95 283.74,266.60              281.80,268.58 282.02,272.42 282.00,275.00              282.00,275.00 280.84,290.00 280.84,290.00              279.89,298.73 275.29,310.50 272.34,319.00              272.34,319.00 256.33,365.00 256.33,365.00              256.33,365.00 216.69,478.00 216.69,478.00              216.69,478.00 160.69,638.00 160.69,638.00              160.69,638.00 141.58,693.00 141.58,693.00              141.58,693.00 135.67,710.00 135.67,710.00              134.89,712.34 133.22,716.57 133.61,718.95              134.52,724.51 141.80,723.99 146.00,724.00              146.00,724.00 216.00,724.00 216.00,724.00              219.18,724.00 223.08,724.18 225.96,722.69              231.53,719.80 234.05,707.84 236.00,702.00              236.00,702.00 255.67,641.00 255.67,641.00              255.67,641.00 261.34,623.00 261.34,623.00              262.13,620.59 263.00,617.44 265.27,616.02              267.24,614.79 270.72,615.00 273.00,615.00              273.00,615.00 427.00,615.00 427.00,615.00 Z            M 343.00,345.00            C 343.00,345.00 349.86,366.00 349.86,366.00              349.86,366.00 361.34,405.00 361.34,405.00              361.34,405.00 384.67,479.00 384.67,479.00              384.67,479.00 400.00,527.00 400.00,527.00              400.00,527.00 290.00,527.00 290.00,527.00              290.00,527.00 303.57,483.00 303.57,483.00              303.57,483.00 324.02,415.00 324.02,415.00              331.20,391.90 338.23,368.75 343.00,345.00 Z            M 704.00,404.00            C 703.47,397.44 700.75,380.70 695.78,376.51              691.53,372.93 680.56,374.00 675.00,374.00              675.00,374.00 623.00,374.00 623.00,374.00              619.91,374.01 615.00,373.56 612.95,376.43              610.92,379.48 612.49,387.41 612.95,391.00              612.95,391.00 612.95,404.00 612.95,404.00              612.95,404.00 614.00,420.00 614.00,420.00              614.00,420.00 614.00,653.00 614.00,653.00              614.00,653.00 614.00,712.00 614.00,712.00              614.05,721.90 614.98,723.98 625.00,724.00              625.00,724.00 688.00,724.00 688.00,724.00              692.05,724.00 705.71,725.01 708.26,722.40              710.32,720.29 710.00,715.77 710.00,713.00              710.00,713.00 710.00,604.00 710.00,604.00              710.00,604.00 710.00,483.00 710.00,483.00              710.17,474.14 717.06,470.58 724.00,466.23              741.26,455.40 754.23,453.77 774.00,454.00              809.05,454.41 824.86,490.52 825.00,521.00              825.00,521.00 825.00,655.00 825.00,655.00              825.00,655.00 825.00,714.00 825.00,714.00              825.06,723.25 827.32,723.98 836.00,724.00              836.00,724.00 909.00,724.00 909.00,724.00              920.73,723.86 920.98,720.79 921.00,710.00              921.00,710.00 921.00,550.00 921.00,550.00              921.00,550.00 921.00,517.00 921.00,517.00              921.00,517.00 920.00,500.00 920.00,500.00              919.97,477.77 917.65,459.01 909.95,438.00              906.27,427.98 900.94,418.39 894.33,410.00              860.90,367.56 799.71,360.32 751.00,377.08              732.84,383.33 718.84,391.95 704.00,404.00 Z"/>
</svg>