<svg xmlns="http://www.w3.org/2000/svg" viewBox="9.5 -0.5 1261.01 333">
  <path id="Selection #1" fill="#303030" stroke="none" stroke-width="1" d="M 10.00,0.00            C 10.00,0.00 149.00,0.00 149.00,0.00              147.82,6.51 141.80,19.24 139.01,26.00              139.01,26.00 116.42,80.00 116.42,80.00              116.42,80.00 50.85,237.00 50.85,237.00              50.85,237.00 23.28,303.00 23.28,303.00              20.37,309.76 14.15,327.29 10.00,332.00              10.00,332.00 10.00,0.00 10.00,0.00 Z            M 246.00,0.00            C 246.00,0.00 386.00,0.00 386.00,0.00              386.00,0.00 386.00,332.00 386.00,332.00              381.78,328.85 375.98,311.73 373.58,306.00              373.58,306.00 345.99,240.00 345.99,240.00              345.99,240.00 277.58,76.00 277.58,76.00              277.58,76.00 254.99,22.00 254.99,22.00              254.99,22.00 246.00,0.00 246.00,0.00 Z            M 767.00,59.00            C 767.00,59.00 801.99,59.00 801.99,59.00              801.99,59.00 801.99,236.00 801.99,236.00              802.01,239.39 803.37,248.40 801.99,250.61              800.08,253.61 791.49,255.85 788.00,257.00              773.82,261.68 759.83,263.02 745.00,263.00              725.18,262.97 704.57,256.16 691.18,241.00              679.89,228.21 675.03,209.76 675.00,193.00              674.95,162.82 688.18,138.95 716.00,125.78              734.05,117.24 747.84,118.00 767.00,118.00              767.00,118.00 767.00,59.00 767.00,59.00 Z            M 1032.00,121.00            C 1040.65,119.26 1043.77,118.01 1053.00,118.00              1071.30,117.97 1086.30,120.07 1101.00,132.32              1116.84,145.53 1122.53,163.10 1123.26,183.00              1124.39,213.97 1109.76,241.42 1081.00,254.69              1061.06,263.89 1038.40,264.72 1017.00,261.25              1012.94,260.59 999.37,258.63 997.17,255.52              995.76,253.51 996.00,249.42 996.00,247.00              996.00,247.00 996.00,103.00 996.00,103.00              996.00,103.00 996.00,72.00 996.00,72.00              996.00,69.46 995.56,62.45 997.02,60.60              998.59,58.62 1002.70,59.00 1005.00,59.00              1005.00,59.00 1031.00,59.00 1031.00,59.00              1031.00,59.00 1031.00,101.00 1031.00,101.00              1031.00,101.00 1032.00,121.00 1032.00,121.00 Z            M 495.00,260.00            C 495.66,252.68 498.87,245.86 501.31,239.00              501.31,239.00 513.58,204.00 513.58,204.00              513.58,204.00 544.42,116.00 544.42,116.00              544.42,116.00 553.84,89.00 553.84,89.00              554.73,85.71 555.16,78.37 556.43,76.31              557.94,73.87 560.45,74.05 563.00,74.00              563.00,74.00 590.00,74.00 590.00,74.00              592.72,74.01 596.33,73.68 598.49,75.60              600.36,77.25 602.58,84.33 603.58,87.00              603.58,87.00 614.33,117.00 614.33,117.00              614.33,117.00 648.05,211.00 648.05,211.00              648.05,211.00 665.00,259.00 665.00,259.00              658.74,260.78 642.33,260.05 635.00,260.00              626.64,259.94 627.43,259.30 623.33,247.00              623.33,247.00 615.33,224.00 615.33,224.00              614.35,221.06 612.92,215.56 610.58,213.60              608.31,211.69 604.80,212.01 602.00,212.00              602.00,212.00 552.00,212.00 552.00,212.00              549.70,212.05 547.34,211.97 545.51,213.60              543.48,215.39 541.90,221.29 541.00,224.00              541.00,224.00 533.00,248.00 533.00,248.00              529.27,259.18 529.78,259.88 523.00,260.00              523.00,260.00 495.00,260.00 495.00,260.00 Z            M 578.00,106.00            C 578.00,106.00 570.66,129.00 570.66,129.00              570.66,129.00 554.00,180.00 554.00,180.00              554.00,180.00 602.00,180.00 602.00,180.00              602.00,180.00 585.34,129.00 585.34,129.00              585.34,129.00 578.00,106.00 578.00,106.00 Z            M 889.00,118.44            C 909.86,115.77 932.82,120.55 947.91,136.04              961.48,149.97 966.01,166.18 967.08,185.00              968.62,211.93 960.23,238.79 936.00,253.54              922.92,261.50 909.95,263.17 895.00,263.00              889.02,262.93 881.73,261.55 876.00,259.80              827.64,244.95 818.88,177.34 847.52,141.00              858.28,127.34 872.44,121.50 889.00,118.44 Z            M 1259.00,226.00            C 1260.64,231.76 1260.01,238.96 1260.00,245.00              1260.00,247.52 1260.24,251.45 1258.83,253.59              1257.47,255.64 1254.23,256.73 1252.00,257.58              1245.79,259.93 1239.59,261.31 1233.00,262.05              1208.50,264.80 1180.08,262.75 1162.62,242.91              1149.82,228.38 1145.05,209.01 1145.74,190.00              1146.72,163.29 1155.85,137.92 1181.00,124.78              1188.58,120.82 1198.43,118.10 1207.00,118.00              1216.68,117.89 1223.57,117.66 1233.00,120.75              1255.62,128.17 1269.89,150.65 1270.00,174.00              1270.00,174.00 1270.00,185.00 1270.00,185.00              1269.99,188.21 1270.32,194.72 1267.47,196.83              1265.65,198.17 1262.19,197.98 1260.00,198.00              1260.00,198.00 1246.00,199.00 1246.00,199.00              1246.00,199.00 1181.00,199.00 1181.00,199.00              1181.40,203.72 1182.31,207.68 1184.32,212.00              1194.64,234.18 1221.12,235.51 1242.00,230.99              1242.00,230.99 1259.00,226.00 1259.00,226.00 Z            M 197.00,122.00            C 197.00,122.00 199.00,122.00 199.00,122.00              199.00,122.00 225.58,186.00 225.58,186.00              225.58,186.00 263.42,276.00 263.42,276.00              263.42,276.00 287.00,332.00 287.00,332.00              287.00,332.00 227.00,332.00 227.00,332.00              227.00,332.00 209.20,286.00 209.20,286.00              209.20,286.00 202.00,266.00 202.00,266.00              202.00,266.00 137.00,266.00 137.00,266.00              137.00,266.00 155.58,220.00 155.58,220.00              155.58,220.00 197.00,122.00 197.00,122.00 Z            M 1237.00,173.00            C 1236.84,155.74 1226.15,145.60 1209.00,146.01              1204.39,146.13 1200.03,147.23 1196.00,149.53              1187.14,154.59 1182.96,163.39 1181.00,173.00              1181.00,173.00 1237.00,173.00 1237.00,173.00 Z            M 767.00,231.00            C 767.00,231.00 767.00,191.00 767.00,191.00              767.00,191.00 767.00,161.00 767.00,161.00              767.00,158.50 767.46,151.56 766.01,149.73              764.03,147.25 756.03,146.92 753.00,147.04              739.05,147.58 725.94,153.41 717.78,165.00              705.75,182.09 709.32,212.62 726.00,225.47              738.10,234.80 752.99,233.55 767.00,231.00 Z            M 895.00,147.30            C 876.46,150.80 867.21,167.10 867.00,185.00              867.00,185.00 867.00,195.00 867.00,195.00              867.26,217.13 882.05,236.87 906.00,232.67              918.94,230.41 926.05,219.65 929.65,208.00              937.40,182.94 927.95,144.13 895.00,147.30 Z            M 1032.00,150.00            C 1032.00,150.00 1032.00,213.00 1032.00,213.00              1032.00,230.98 1030.22,232.86 1040.00,233.00              1040.00,233.00 1047.00,233.00 1047.00,233.00              1076.48,232.65 1091.61,205.91 1087.08,179.00              1085.77,171.25 1083.37,163.92 1077.82,158.09              1068.86,148.70 1058.05,147.86 1046.00,148.00              1039.44,148.08 1038.07,149.14 1032.00,150.00 Z"/>
</svg>