<svg xmlns="http://www.w3.org/2000/svg" viewBox="9.5 -0.5 377 333">
  <path id="adobe" fill="#303030" stroke="none" stroke-width="1"
    d="M 10.00,0.00            C 10.00,0.00 149.00,0.00 149.00,0.00              147.82,6.51 141.80,19.24 139.01,26.00              139.01,26.00 116.42,80.00 116.42,80.00              116.42,80.00 50.85,237.00 50.85,237.00              50.85,237.00 23.28,303.00 23.28,303.00              20.37,309.76 14.15,327.29 10.00,332.00              10.00,332.00 10.00,0.00 10.00,0.00 Z            M 246.00,0.00            C 246.00,0.00 386.00,0.00 386.00,0.00              386.00,0.00 386.00,332.00 386.00,332.00              381.78,328.85 375.98,311.73 373.58,306.00              373.58,306.00 345.99,240.00 345.99,240.00              345.99,240.00 277.58,76.00 277.58,76.00              277.58,76.00 254.99,22.00 254.99,22.00              254.99,22.00 246.00,0.00 246.00,0.00 Z            M 197.00,122.00            C 197.00,122.00 199.00,122.00 199.00,122.00              199.00,122.00 225.58,186.00 225.58,186.00              225.58,186.00 263.42,276.00 263.42,276.00              263.42,276.00 287.00,332.00 287.00,332.00              287.00,332.00 227.00,332.00 227.00,332.00              227.00,332.00 209.20,286.00 209.20,286.00              209.20,286.00 202.00,266.00 202.00,266.00              202.00,266.00 137.00,266.00 137.00,266.00              137.00,266.00 155.58,220.00 155.58,220.00              155.58,220.00 197.00,122.00 197.00,122.00 Z" />
</svg>