<svg xmlns="http://www.w3.org/2000/svg" viewBox="-0.5 -0.42 1052 1025.92">
  <path id="Selection" fill="#303030" stroke="none" stroke-width="1" d="M 167.00,0.08            C 167.00,0.08 196.00,0.08 196.00,0.08              196.00,0.08 247.00,0.08 247.00,0.08              247.00,0.08 403.00,0.08 403.00,0.08              403.00,0.08 876.00,0.08 876.00,0.08              886.69,0.02 900.59,2.51 911.00,5.13              971.36,20.29 1019.91,64.27 1040.69,123.00              1046.00,138.01 1050.98,159.10 1051.00,175.00              1051.00,175.00 1051.00,850.00 1051.00,850.00              1050.98,865.90 1046.00,886.99 1040.69,902.00              1019.93,960.69 971.32,1004.73 911.00,1019.87              900.59,1022.49 886.69,1024.98 876.00,1025.00              876.00,1025.00 175.00,1025.00 175.00,1025.00              159.97,1024.98 138.20,1020.14 124.00,1015.05              70.43,995.85 29.36,955.85 10.31,902.00              5.26,887.73 0.02,866.06 0.00,851.00              0.00,851.00 0.00,174.00 0.00,174.00              0.02,164.15 2.70,149.65 5.13,140.00              17.21,91.87 48.78,49.17 92.00,24.43              118.02,9.53 137.86,4.65 167.00,0.08 Z            M 423.00,612.00            C 423.00,612.00 432.66,641.00 432.66,641.00              432.66,641.00 451.33,696.00 451.33,696.00              453.16,701.48 456.93,716.13 461.21,719.26              463.58,720.99 466.22,720.96 469.00,721.00              469.00,721.00 550.00,721.00 550.00,721.00              553.00,721.00 558.10,721.43 559.96,718.57              561.73,715.86 559.60,710.80 558.67,708.00              558.67,708.00 549.69,683.00 549.69,683.00              549.69,683.00 507.58,565.00 507.58,565.00              507.58,565.00 492.95,524.00 492.95,524.00              492.95,524.00 424.95,334.00 424.95,334.00              424.95,334.00 406.66,283.00 406.66,283.00              405.34,279.23 401.66,267.01 398.73,265.17              396.49,263.78 392.59,264.00 390.00,264.00              390.00,264.00 287.00,264.00 287.00,264.00              275.82,264.21 280.09,270.46 277.57,288.00              275.21,304.41 259.44,344.75 253.33,363.00              253.33,363.00 224.69,445.00 224.69,445.00              224.69,445.00 194.69,531.00 194.69,531.00              194.69,531.00 157.42,638.00 157.42,638.00              157.42,638.00 135.42,701.00 135.42,701.00              134.02,704.74 128.75,717.29 131.64,720.40              133.42,722.32 137.57,722.00 140.00,722.00              140.00,722.00 214.00,722.00 214.00,722.00              216.45,722.00 219.72,722.19 221.89,720.98              226.61,718.34 229.17,706.16 230.72,701.00              230.72,701.00 238.66,677.00 238.66,677.00              238.66,677.00 251.00,638.00 251.00,638.00              251.00,638.00 256.67,621.00 256.67,621.00              257.44,618.72 258.32,615.42 260.42,614.02              262.29,612.78 265.79,613.00 268.00,613.00              268.00,613.00 373.00,613.00 373.00,613.00              373.00,613.00 405.00,613.00 405.00,613.00              410.92,613.00 417.29,613.62 423.00,612.00 Z            M 339.00,343.00            C 339.00,343.00 346.14,364.00 346.14,364.00              346.14,364.00 357.72,404.00 357.72,404.00              357.72,404.00 385.72,493.00 385.72,493.00              385.72,493.00 396.00,526.00 396.00,526.00              396.00,526.00 285.00,526.00 285.00,526.00              285.00,526.00 295.66,492.00 295.66,492.00              295.66,492.00 309.98,444.00 309.98,444.00              309.98,444.00 329.58,380.00 329.58,380.00              329.58,380.00 339.00,343.00 339.00,343.00 Z            M 680.00,573.00            C 680.00,573.00 812.00,573.00 812.00,573.00              812.00,573.00 828.00,574.00 828.00,574.00              828.00,574.00 845.00,575.00 845.00,575.00              845.00,575.00 882.00,573.72 882.00,573.72              885.11,573.35 892.23,573.17 894.35,571.26              897.50,568.43 897.03,561.14 897.58,557.00              897.58,557.00 898.09,548.00 898.09,548.00              898.09,548.00 899.00,538.00 899.00,538.00              899.00,538.00 899.00,512.00 899.00,512.00              898.56,474.98 878.99,427.63 851.00,403.29              828.35,383.59 793.15,370.05 763.00,370.00              763.00,370.00 735.00,370.00 735.00,370.00              716.42,370.22 693.77,375.35 677.00,383.32              617.27,411.70 582.75,479.58 582.00,544.00              582.00,544.00 581.18,554.00 581.18,554.00              581.18,554.00 582.00,568.00 582.00,568.00              582.01,576.70 583.49,585.44 584.92,594.00              592.54,639.72 615.23,680.63 655.00,705.95              700.40,734.85 765.32,736.36 817.00,727.75              828.89,725.77 843.80,722.51 855.00,718.19              865.10,714.29 868.98,714.55 869.00,703.00              869.00,703.00 869.00,635.00 869.00,635.00              869.00,635.00 837.00,643.80 837.00,643.80              802.89,650.58 769.59,654.20 736.00,643.00              714.19,635.72 699.28,625.04 688.76,604.00              684.52,595.53 680.44,582.47 680.00,573.00 Z            M 680.00,510.00            C 680.76,493.44 689.67,472.32 702.00,461.17              718.56,446.21 731.92,444.76 753.00,445.00              767.14,445.17 780.68,451.63 790.71,461.43              799.84,470.34 805.20,481.51 807.25,494.00              807.81,497.44 808.98,503.53 806.40,506.35              803.21,509.85 795.41,509.99 791.00,510.00              791.00,510.00 680.00,510.00 680.00,510.00 Z"/>
</svg>