<svg xmlns="http://www.w3.org/2000/svg" viewBox="-0.56 -0.28 1281.06 400.8">
  <path id="airbnb-wordmark" fill="#303030" stroke="none" stroke-width="1"
    d="M 176.00,0.22            C 176.00,0.22 188.00,0.22 188.00,0.22              231.58,0.07 248.16,38.82 264.75,72.00              292.63,127.75 321.48,183.04 346.86,240.00              356.97,262.69 368.46,280.67 371.16,306.00              371.50,309.10 372.05,310.72 371.82,314.00              369.03,353.19 348.77,384.90 310.00,396.80              299.95,399.88 291.35,400.12 281.00,400.00              256.74,399.71 231.44,386.29 213.00,371.39              204.44,364.47 200.68,360.65 193.00,353.00              191.30,351.31 187.57,347.04 185.09,347.04              183.03,347.04 181.12,349.64 179.83,351.01              179.83,351.01 171.00,359.58 171.00,359.58              157.78,371.06 146.95,380.76 131.00,388.73              85.56,411.45 29.70,399.85 7.31,351.00              -0.32,334.35 -0.20,325.71 0.00,308.00              0.19,292.45 7.33,276.90 13.69,263.00              13.69,263.00 30.69,226.00 30.69,226.00              30.69,226.00 82.75,119.00 82.75,119.00              82.75,119.00 113.00,59.00 113.00,59.00              119.55,47.46 123.00,38.13 131.50,27.00              143.08,11.84 157.48,3.86 176.00,0.22 Z            M 203.00,326.00            C 220.74,343.74 239.36,363.14 264.00,370.97              274.21,374.22 278.65,374.02 289.00,374.00              318.82,373.95 344.65,347.73 345.00,318.00              345.00,318.00 345.00,313.00 345.00,313.00              344.97,291.77 330.52,267.44 321.86,248.00              321.86,248.00 296.26,194.00 296.26,194.00              296.26,194.00 255.25,110.00 255.25,110.00              255.25,110.00 236.26,73.00 236.26,73.00              224.98,51.15 217.70,30.69 190.00,27.29              185.30,26.71 181.58,27.16 177.00,28.24              158.42,32.61 151.68,44.60 143.14,60.00              143.14,60.00 122.75,99.00 122.75,99.00              98.36,147.67 73.29,196.28 51.14,246.00              40.93,268.91 25.70,292.23 26.00,318.00              26.39,350.77 54.86,375.71 87.00,374.99              110.19,374.46 131.00,360.84 148.00,346.27              155.41,339.92 162.55,333.14 168.00,325.00              151.81,305.05 138.26,284.55 127.86,261.00              121.60,246.82 116.82,228.54 117.00,213.00              117.09,205.56 119.10,195.93 121.81,189.00              142.45,136.16 219.27,132.69 246.10,182.00              256.46,201.04 255.30,223.80 249.28,244.00              243.30,264.06 233.38,282.73 221.66,300.00              221.66,300.00 203.00,326.00 203.00,326.00 Z            M 644.00,74.46            C 648.52,73.85 651.57,74.03 656.00,75.30              685.22,83.64 679.66,128.28 647.00,126.96              627.01,126.15 615.85,104.02 625.53,87.00              629.86,79.39 635.80,76.29 644.00,74.46 Z            M 797.00,75.00            C 797.00,75.00 837.00,75.00 837.00,75.00              837.00,75.00 837.00,157.00 837.00,157.00              850.47,145.44 861.67,142.80 879.00,143.00              891.49,143.15 904.14,147.31 915.00,153.31              956.34,176.16 964.44,238.42 935.53,274.00              912.34,302.54 864.55,314.15 836.00,287.00              836.00,287.00 834.26,296.26 834.26,296.26              834.26,296.26 827.00,298.00 827.00,298.00              827.00,298.00 797.00,298.00 797.00,298.00              797.00,298.00 797.00,75.00 797.00,75.00 Z            M 1125.00,75.00            C 1125.00,75.00 1165.00,75.00 1165.00,75.00              1165.00,75.00 1165.00,157.00 1165.00,157.00              1175.05,147.87 1187.43,143.16 1201.00,143.00              1215.62,142.83 1229.17,145.55 1242.00,152.87              1264.53,165.73 1279.96,190.88 1280.00,217.00              1280.00,217.00 1280.00,230.00 1280.00,230.00              1279.82,245.09 1272.58,262.26 1263.33,274.00              1240.87,302.52 1191.84,314.15 1164.00,287.00              1163.99,290.18 1164.39,294.13 1161.69,296.40              1159.60,298.16 1156.56,297.98 1154.00,298.00              1154.00,298.00 1125.00,298.00 1125.00,298.00              1125.00,298.00 1125.00,75.00 1125.00,75.00 Z            M 567.00,287.00            C 553.02,300.66 541.66,302.21 523.00,302.00              510.72,301.85 495.29,296.51 485.00,289.91              464.86,276.99 451.04,251.97 451.00,228.00              451.00,228.00 451.00,216.00 451.00,216.00              451.20,199.13 459.00,180.50 470.17,168.00              492.42,143.12 541.69,130.86 567.00,158.00              567.01,154.82 566.61,150.87 569.31,148.60              571.40,146.84 574.44,147.02 577.00,147.00              577.00,147.00 606.00,147.00 606.00,147.00              606.00,147.00 606.00,298.00 606.00,298.00              606.00,298.00 578.00,298.00 578.00,298.00              575.23,297.99 571.56,298.29 569.31,296.40              566.61,294.13 567.01,290.18 567.00,287.00 Z            M 730.00,158.00            C 740.76,147.77 753.19,142.84 768.00,143.00              770.91,143.04 780.22,143.52 782.01,145.74              783.26,147.29 783.00,151.05 783.00,153.00              783.00,153.00 783.00,181.00 783.00,181.00              783.00,181.00 769.00,179.09 769.00,179.09              758.16,178.33 737.55,182.80 732.02,193.09              730.80,195.36 731.01,198.47 731.00,201.00              731.00,201.00 731.00,299.00 731.00,299.00              731.00,299.00 691.00,299.00 691.00,299.00              691.00,299.00 691.00,147.00 691.00,147.00              691.00,147.00 719.00,147.00 719.00,147.00              721.77,147.01 725.44,146.71 727.69,148.60              730.39,150.87 729.99,154.82 730.00,158.00 Z            M 1005.00,157.00            C 1011.79,151.60 1017.60,147.91 1026.00,145.44              1052.99,137.48 1090.55,147.72 1101.29,176.00              1107.28,191.76 1106.00,208.47 1106.00,225.00              1106.00,225.00 1106.00,299.00 1106.00,299.00              1106.00,299.00 1067.00,299.00 1067.00,299.00              1067.00,299.00 1067.00,228.00 1067.00,228.00              1067.00,217.31 1067.80,200.38 1062.47,191.00              1054.13,176.35 1034.44,176.55 1021.00,183.27              1011.76,187.89 1007.02,191.37 1007.00,202.00              1007.00,202.00 1007.00,298.00 1007.00,298.00              1007.00,298.00 968.00,298.00 968.00,298.00              968.00,298.00 968.00,147.00 968.00,147.00              968.00,147.00 994.00,147.00 994.00,147.00              996.74,147.01 1000.30,146.81 1002.49,148.74              1004.82,150.79 1004.86,154.15 1005.00,157.00 Z            M 629.00,147.00            C 629.00,147.00 668.00,147.00 668.00,147.00              668.00,147.00 668.00,298.00 668.00,298.00              668.00,298.00 629.00,298.00 629.00,298.00              629.00,298.00 629.00,147.00 629.00,147.00 Z            M 186.00,304.00            C 199.09,285.57 204.81,278.92 215.25,258.00              226.15,236.13 235.31,204.14 215.91,184.04              209.03,176.92 201.54,174.21 192.00,172.87              166.83,169.34 144.31,185.61 144.00,212.00              143.76,233.01 150.15,247.74 159.78,266.00              164.82,275.55 178.42,297.20 186.00,304.00 Z            M 869.00,179.71            C 859.15,179.96 841.98,185.30 837.85,195.04              836.85,197.40 837.00,200.46 837.00,203.00              837.00,203.00 837.00,242.00 837.00,242.00              837.00,244.09 836.88,247.06 837.60,249.00              841.22,258.84 858.24,264.79 868.00,264.98              882.59,265.27 896.45,259.72 905.47,248.00              917.55,232.30 915.09,204.73 900.96,191.09              891.87,182.32 881.06,180.30 869.00,179.71 Z            M 1197.00,179.71            C 1187.19,179.93 1171.00,184.82 1166.17,194.04              1164.79,196.68 1165.00,200.09 1165.00,203.00              1165.00,203.00 1165.00,242.00 1165.00,242.00              1165.00,244.09 1164.88,247.06 1165.60,249.00              1169.33,259.15 1186.02,264.79 1196.00,264.98              1209.30,265.25 1223.01,260.23 1231.79,250.00              1245.03,234.56 1243.91,206.62 1229.83,192.09              1220.61,182.58 1209.59,180.33 1197.00,179.71 Z            M 528.00,180.29            C 516.71,182.16 506.84,185.78 499.38,195.00              493.45,202.33 490.84,211.74 490.18,221.00              489.97,224.02 490.46,226.07 490.87,229.00              493.95,250.92 509.86,264.74 532.00,265.00              543.59,265.13 551.85,263.77 561.00,255.79              563.07,253.98 565.43,251.63 566.40,249.00              567.12,247.06 567.00,244.09 567.00,242.00              567.00,242.00 567.00,204.00 567.00,204.00              567.00,201.55 567.13,198.28 566.26,196.00              561.36,183.17 540.11,179.14 528.00,180.29 Z" />
</svg>