<svg xmlns="http://www.w3.org/2000/svg" viewBox="-0.56 -0.28 372.93 400.8">
  <path id="airbnb" fill="#303030" stroke="none" stroke-width="1"
    d="M 176.00,0.22            C 176.00,0.22 188.00,0.22 188.00,0.22              231.58,0.07 248.16,38.82 264.75,72.00              292.63,127.75 321.48,183.04 346.86,240.00              356.97,262.69 368.46,280.67 371.16,306.00              371.50,309.10 372.05,310.72 371.82,314.00              369.03,353.19 348.77,384.90 310.00,396.80              299.95,399.88 291.35,400.12 281.00,400.00              256.74,399.71 231.44,386.29 213.00,371.39              204.44,364.47 200.68,360.65 193.00,353.00              191.30,351.31 187.57,347.04 185.09,347.04              183.03,347.04 181.12,349.64 179.83,351.01              179.83,351.01 171.00,359.58 171.00,359.58              157.78,371.06 146.95,380.76 131.00,388.73              85.56,411.45 29.70,399.85 7.31,351.00              -0.32,334.35 -0.20,325.71 0.00,308.00              0.19,292.45 7.33,276.90 13.69,263.00              13.69,263.00 30.69,226.00 30.69,226.00              30.69,226.00 82.75,119.00 82.75,119.00              82.75,119.00 113.00,59.00 113.00,59.00              119.55,47.46 123.00,38.13 131.50,27.00              143.08,11.84 157.48,3.86 176.00,0.22 Z            M 203.00,326.00            C 220.74,343.74 239.36,363.14 264.00,370.97              274.21,374.22 278.65,374.02 289.00,374.00              318.82,373.95 344.65,347.73 345.00,318.00              345.00,318.00 345.00,313.00 345.00,313.00              344.97,291.77 330.52,267.44 321.86,248.00              321.86,248.00 296.26,194.00 296.26,194.00              296.26,194.00 255.25,110.00 255.25,110.00              255.25,110.00 236.26,73.00 236.26,73.00              224.98,51.15 217.70,30.69 190.00,27.29              185.30,26.71 181.58,27.16 177.00,28.24              158.42,32.61 151.68,44.60 143.14,60.00              143.14,60.00 122.75,99.00 122.75,99.00              98.36,147.67 73.29,196.28 51.14,246.00              40.93,268.91 25.70,292.23 26.00,318.00              26.39,350.77 54.86,375.71 87.00,374.99              110.19,374.46 131.00,360.84 148.00,346.27              155.41,339.92 162.55,333.14 168.00,325.00              151.81,305.05 138.26,284.55 127.86,261.00              121.60,246.82 116.82,228.54 117.00,213.00              117.09,205.56 119.10,195.93 121.81,189.00              142.45,136.16 219.27,132.69 246.10,182.00              256.46,201.04 255.30,223.80 249.28,244.00              243.30,264.06 233.38,282.73 221.66,300.00              221.66,300.00 203.00,326.00 203.00,326.00 Z            M 186.00,304.00            C 199.09,285.57 204.81,278.92 215.25,258.00              226.15,236.13 235.31,204.14 215.91,184.04              209.03,176.92 201.54,174.21 192.00,172.87              166.83,169.34 144.31,185.61 144.00,212.00              143.76,233.01 150.15,247.74 159.78,266.00              164.82,275.55 178.42,297.20 186.00,304.00 Z" />
</svg>