<svg xmlns="http://www.w3.org/2000/svg" viewBox="-0.51 -0.6 1281.01 387.15">
  <path id="Selection" fill="#303030" stroke="none" stroke-width="1" d="M 117.00,86.00            C 117.00,76.28 117.82,64.84 113.18,56.00              105.05,40.51 84.13,39.96 71.00,49.05              66.37,52.26 63.26,55.77 61.09,61.00              59.39,65.09 58.45,71.39 53.90,73.14              51.04,74.43 46.19,73.24 43.00,73.14              43.00,73.14 24.00,71.00 24.00,71.00              21.22,70.76 13.20,70.00 11.06,68.83              7.49,66.87 6.84,63.77 7.18,60.00              7.48,56.57 9.19,51.32 10.34,48.00              17.62,27.18 33.40,13.60 54.00,6.67              60.70,4.41 65.99,2.90 73.00,1.75              107.81,-3.94 157.96,2.67 169.96,42.00              171.95,48.51 172.99,56.21 173.00,63.00              173.00,63.00 173.00,146.00 173.00,146.00              173.12,155.79 175.19,165.54 180.26,174.00              183.68,179.72 191.33,187.04 189.68,194.00              188.53,198.86 178.97,205.72 175.00,209.13              170.41,213.08 159.23,223.87 154.00,225.11              148.85,226.33 145.45,223.29 142.00,219.98              135.78,214.02 129.12,207.16 126.00,199.00              118.84,204.12 115.51,209.16 106.00,215.30              91.78,224.49 76.62,227.03 60.00,227.00              43.94,226.97 26.68,221.85 15.44,209.83              4.58,198.23 0.37,181.54 0.01,166.00              -0.41,147.38 6.54,127.18 20.04,114.09              38.44,96.25 66.51,91.45 91.00,88.84              91.00,88.84 117.00,86.00 117.00,86.00 Z            M 636.00,86.00            C 636.00,77.14 636.20,63.88 631.96,56.00              624.16,41.54 603.88,39.64 591.00,48.11              586.41,51.13 582.70,55.02 580.33,60.00              578.19,64.47 577.81,70.42 572.96,73.03              569.75,74.67 565.46,73.39 562.00,73.03              562.00,73.03 536.00,70.27 536.00,70.27              532.38,69.73 528.51,69.48 526.61,65.79              524.44,61.57 527.25,53.30 528.67,49.00              533.89,33.17 545.18,19.92 560.00,12.26              585.57,-0.97 618.33,-3.43 646.00,4.15              662.52,8.68 678.73,18.96 686.10,35.00              689.92,43.31 691.96,55.86 692.00,65.00              692.00,65.00 692.00,147.00 692.00,147.00              692.01,156.55 693.53,164.67 698.45,173.00              701.57,178.28 709.48,187.03 708.73,193.00              708.06,198.36 699.02,204.53 695.00,208.00              690.29,212.06 678.32,223.77 673.00,224.97              667.85,226.13 664.72,223.51 661.00,220.41              653.42,214.06 649.25,206.39 643.00,199.00              636.63,207.88 622.30,218.03 612.00,221.94              588.49,230.86 552.25,229.33 534.17,209.96              512.84,187.12 514.83,143.71 533.52,120.00              541.54,109.81 553.88,102.11 566.00,97.69              582.82,91.57 601.30,89.60 619.00,87.83              619.00,87.83 636.00,86.00 636.00,86.00 Z            M 272.00,38.00            C 273.08,32.22 275.72,27.72 279.16,23.00              283.51,17.03 288.50,12.11 295.00,8.51              310.10,0.14 333.68,-0.40 349.00,7.63              362.40,14.65 367.94,25.62 375.00,38.00              376.59,32.43 379.07,28.66 382.43,24.00              401.98,-3.18 446.04,-5.11 469.91,17.29              486.40,32.76 486.03,58.10 486.00,79.00              486.00,79.00 485.00,96.00 485.00,96.00              485.00,96.00 485.00,190.00 485.00,190.00              485.00,190.00 485.00,214.00 485.00,214.00              484.96,216.94 485.02,220.17 482.57,222.26              480.16,224.31 475.99,224.00 473.00,224.00              473.00,224.00 441.00,224.00 441.00,224.00              437.86,223.95 434.82,223.96 432.43,221.57              429.64,218.78 430.01,214.62 430.00,211.00              430.00,211.00 430.00,147.00 430.00,147.00              430.00,147.00 430.00,81.00 430.00,81.00              429.91,73.49 428.40,65.60 422.90,60.10              410.90,48.11 391.05,54.93 384.14,69.00              379.74,77.96 380.55,85.67 379.91,95.00              379.91,95.00 379.00,105.00 379.00,105.00              379.00,105.00 379.00,187.00 379.00,187.00              379.00,187.00 379.00,213.00 379.00,213.00              378.98,215.79 379.18,219.32 377.26,221.57              374.85,224.41 370.37,223.99 367.00,224.00              367.00,224.00 335.00,224.00 335.00,224.00              331.86,223.95 328.82,223.96 326.43,221.57              323.64,218.78 324.01,214.62 324.00,211.00              324.00,211.00 324.00,147.00 324.00,147.00              324.00,147.00 324.00,85.00 324.00,85.00              323.89,76.32 321.40,65.34 314.91,59.19              303.00,47.91 284.90,54.20 278.33,68.00              273.88,77.33 274.58,85.29 273.91,95.00              273.91,95.00 273.00,105.00 273.00,105.00              273.00,105.00 273.00,187.00 273.00,187.00              273.00,187.00 273.00,213.00 273.00,213.00              272.98,215.79 273.18,219.32 271.26,221.57              268.85,224.41 264.37,223.99 261.00,224.00              261.00,224.00 229.00,224.00 229.00,224.00              225.86,223.95 222.82,223.96 220.43,221.57              217.64,218.78 218.01,214.62 218.00,211.00              218.00,211.00 218.00,54.00 218.00,54.00              218.00,54.00 218.00,19.00 218.00,19.00              218.02,15.40 217.90,11.40 220.65,8.65              223.60,5.70 228.16,6.01 232.00,6.00              232.00,6.00 259.00,6.00 259.00,6.00              263.04,6.05 267.54,6.16 269.83,10.13              272.32,14.46 269.84,30.40 272.00,38.00 Z            M 987.00,2.42            C 1013.15,-0.77 1041.04,8.26 1058.83,28.00              1072.35,43.00 1079.47,60.58 1083.88,80.00              1085.94,89.06 1088.19,108.87 1087.99,118.00              1087.99,118.00 1087.09,127.00 1087.09,127.00              1084.29,167.79 1067.29,208.56 1026.00,223.56              1013.16,228.23 1003.31,228.15 990.00,228.00              948.09,227.51 919.38,191.18 911.21,153.00              901.45,107.39 907.42,41.62 951.00,14.46              963.83,6.47 972.47,4.62 987.00,2.42 Z            M 1170.00,40.00            C 1171.53,34.64 1174.28,29.64 1177.36,25.00              1182.10,17.85 1186.46,13.01 1194.00,8.68              1213.78,-2.68 1245.36,0.24 1261.91,16.17              1273.50,27.33 1277.35,43.54 1278.96,59.00              1278.96,59.00 1278.96,68.00 1278.96,68.00              1278.96,68.00 1280.00,78.00 1280.00,78.00              1280.00,78.00 1280.00,190.00 1280.00,190.00              1280.00,190.00 1280.00,213.00 1280.00,213.00              1279.95,216.14 1279.96,219.18 1277.57,221.57              1274.78,224.36 1270.62,223.99 1267.00,224.00              1267.00,224.00 1235.00,224.00 1235.00,224.00              1231.90,223.95 1228.84,223.99 1226.51,221.57              1223.70,218.65 1224.01,213.76 1224.00,210.00              1224.00,210.00 1224.00,146.00 1224.00,146.00              1224.00,146.00 1224.00,85.00 1224.00,85.00              1223.93,79.44 1222.50,70.95 1220.00,66.00              1214.69,55.48 1203.11,49.77 1192.00,55.05              1189.06,56.45 1186.33,58.74 1184.04,61.04              1180.80,64.31 1179.20,66.85 1177.31,71.00              1170.61,85.72 1172.00,100.32 1172.00,116.00              1172.00,116.00 1172.00,187.00 1172.00,187.00              1172.00,187.00 1172.00,209.00 1172.00,209.00              1171.98,213.03 1171.93,219.30 1168.57,222.11              1165.97,224.29 1162.19,223.99 1159.00,224.00              1159.00,224.00 1127.00,224.00 1127.00,224.00              1123.90,223.95 1120.84,223.99 1118.51,221.57              1115.70,218.65 1116.01,213.76 1116.00,210.00              1116.00,210.00 1116.00,54.00 1116.00,54.00              1116.00,54.00 1116.00,19.00 1116.00,19.00              1116.01,15.89 1115.69,11.95 1117.74,9.39              1120.67,5.74 1125.80,6.01 1130.00,6.00              1130.00,6.00 1157.00,6.00 1157.00,6.00              1161.10,6.06 1165.20,6.25 1167.55,10.21              1170.58,15.32 1167.73,32.01 1170.00,40.00 Z            M 814.00,50.00            C 814.00,50.00 750.00,50.00 750.00,50.00              747.31,49.98 744.49,50.15 742.23,48.40              738.64,45.63 739.01,41.04 739.00,37.00              739.00,37.00 739.00,19.00 739.00,19.00              739.01,15.35 738.67,11.16 741.43,8.31              744.02,5.64 747.60,6.01 751.00,6.00              751.00,6.00 853.00,6.00 853.00,6.00              853.00,6.00 875.00,6.00 875.00,6.00              877.94,6.04 881.17,5.98 883.26,8.43              885.31,10.84 885.00,15.01 885.00,18.00              885.00,18.00 885.00,36.00 885.00,36.00              884.84,47.77 871.43,63.32 864.58,73.00              864.58,73.00 822.42,133.00 822.42,133.00              822.42,133.00 809.00,152.00 809.00,152.00              829.76,152.00 850.58,154.51 870.00,162.20              880.42,166.33 888.83,169.31 889.00,182.00              889.00,182.00 889.00,206.00 889.00,206.00              888.99,212.65 888.18,220.32 879.00,218.17              879.00,218.17 866.00,212.45 866.00,212.45              857.96,209.17 849.52,206.48 841.00,204.80              816.89,200.07 792.69,200.67 769.00,207.43              769.00,207.43 742.00,218.03 742.00,218.03              732.86,220.78 732.01,212.51 732.00,206.00              732.00,206.00 732.00,180.00 732.00,180.00              732.01,175.00 732.09,171.84 733.76,167.00              736.08,160.28 749.22,142.86 753.98,136.00              753.98,136.00 814.00,50.00 814.00,50.00 Z            M 996.00,44.38            C 979.06,46.60 972.91,57.40 969.42,73.00              967.24,82.74 967.02,88.18 967.00,98.00              967.00,98.00 966.18,112.00 966.18,112.00              966.18,112.00 967.00,123.00 967.00,123.00              967.02,134.23 967.25,142.87 969.66,154.00              972.78,168.40 980.01,186.82 998.00,185.48              1013.97,184.30 1021.09,172.20 1024.63,158.00              1028.18,143.75 1028.00,131.44 1028.00,117.00              1028.00,101.94 1027.93,87.86 1024.79,73.00              1021.21,56.06 1015.42,44.53 996.00,44.38 Z            M 117.00,119.00            C 105.16,119.00 99.84,118.88 88.00,121.90              80.10,123.91 72.62,127.87 67.18,134.00              53.75,149.17 55.84,184.86 81.00,185.96              85.99,186.18 90.54,185.29 95.00,183.01              98.70,181.11 102.07,178.09 104.82,175.00              108.53,170.80 111.44,165.27 113.30,160.00              115.73,153.13 116.99,143.30 117.00,136.00              117.00,136.00 117.00,119.00 117.00,119.00 Z            M 636.00,119.00            C 624.05,119.00 616.78,118.91 605.00,122.44              598.47,124.39 590.93,127.96 586.33,133.09              572.55,148.45 574.29,184.83 600.00,185.96              607.08,186.27 612.31,184.44 618.00,180.24              622.11,177.20 624.56,174.26 627.30,170.00              630.91,164.40 633.21,157.54 634.38,151.00              635.98,142.13 636.00,128.21 636.00,119.00 Z            M 804.00,232.42            C 814.07,231.20 832.97,233.18 843.00,235.42              847.43,236.42 854.43,238.35 857.15,242.21              859.00,244.86 860.05,253.70 859.82,257.00              858.46,276.10 853.62,294.31 846.40,312.00              841.10,324.96 832.79,337.49 823.57,347.99              820.35,351.66 814.19,357.68 809.04,357.84              804.54,357.98 803.77,354.77 804.62,351.00              804.62,351.00 813.31,328.00 813.31,328.00              817.97,314.95 823.91,298.64 825.87,285.00              826.82,278.38 828.08,271.57 822.78,266.22              817.57,260.97 806.07,260.01 799.00,260.00              782.86,259.97 767.02,260.30 751.00,262.34              747.08,262.94 735.46,265.18 732.78,262.34              727.31,256.32 742.12,248.36 746.00,246.32              759.88,239.02 776.50,235.14 792.00,233.28              792.00,233.28 804.00,232.42 804.00,232.42 Z            M 183.15,247.02            C 190.77,244.34 196.49,249.77 203.00,253.22              203.00,253.22 246.00,274.78 246.00,274.78              297.39,298.88 352.30,314.95 408.00,325.39              492.49,341.23 582.11,339.10 666.00,320.58              694.24,314.34 721.70,306.13 749.00,296.66              749.00,296.66 770.00,288.72 770.00,288.72              775.04,286.59 781.59,283.32 787.00,283.04              794.09,282.69 800.92,285.59 799.62,294.00              798.60,300.60 790.17,305.54 785.00,309.00              758.22,326.94 730.15,341.20 700.00,352.58              636.43,376.56 571.74,386.79 504.00,386.00              504.00,386.00 486.00,385.00 486.00,385.00              486.00,385.00 437.00,379.42 437.00,379.42              400.02,373.68 358.41,362.25 324.00,347.57              280.63,329.07 246.39,308.91 209.00,280.12              209.00,280.12 185.04,259.96 185.04,259.96              180.90,255.74 177.92,251.68 183.15,247.02 Z"/>
</svg>