<svg xmlns="http://www.w3.org/2000/svg" viewBox="13.23 8.71 2533.27 1515.79">
  <path id="amazon-ws" fill="#303030" stroke="none" stroke-width="1"
    d="M 2146.00,9.21            C 2146.00,9.21 2192.00,9.21 2192.00,9.21              2192.00,9.21 2204.00,9.91 2204.00,9.91              2204.00,9.91 2252.00,15.59 2252.00,15.59              2282.55,20.71 2312.96,27.62 2342.00,38.58              2359.99,45.36 2385.35,57.40 2394.67,75.00              2398.17,81.59 2399.91,93.52 2400.00,101.00              2400.00,101.00 2400.00,135.00 2400.00,135.00              2399.99,140.03 2399.57,144.04 2398.71,149.00              2396.05,164.52 2385.22,168.35 2371.00,165.33              2362.68,163.57 2352.87,158.84 2345.00,155.42              2331.95,149.77 2318.67,144.42 2305.00,140.42              2277.07,132.26 2249.02,126.91 2220.00,124.91              2220.00,124.91 2210.00,124.00 2210.00,124.00              2210.00,124.00 2197.00,124.00 2197.00,124.00              2197.00,124.00 2186.00,123.08 2186.00,123.08              2186.00,123.08 2173.00,124.00 2173.00,124.00              2151.64,124.03 2131.71,126.92 2111.00,132.13              2068.28,142.86 2035.55,171.56 2035.00,218.00              2035.00,218.00 2035.00,224.00 2035.00,224.00              2035.71,284.79 2101.60,309.87 2150.00,326.00              2150.00,326.00 2177.00,334.67 2177.00,334.67              2177.00,334.67 2247.00,356.98 2247.00,356.98              2311.37,376.98 2372.79,398.57 2411.66,458.00              2421.13,472.48 2427.60,487.64 2433.00,504.00              2437.94,518.98 2440.01,534.36 2441.09,550.00              2441.09,550.00 2442.00,560.00 2442.00,560.00              2442.00,560.00 2442.00,567.00 2442.00,567.00              2442.00,567.00 2441.09,579.00 2441.09,579.00              2437.47,631.96 2422.39,669.65 2387.28,710.00              2359.29,742.18 2318.24,766.21 2278.00,779.67              2245.42,790.56 2212.28,797.69 2178.00,800.09              2178.00,800.09 2166.00,801.00 2166.00,801.00              2166.00,801.00 2116.00,801.00 2116.00,801.00              2116.00,801.00 2106.00,800.09 2106.00,800.09              2106.00,800.09 2060.00,795.27 2060.00,795.27              2023.05,789.94 1972.35,777.27 1938.00,762.99              1912.68,752.46 1886.37,739.24 1886.00,708.00              1886.00,708.00 1886.00,661.00 1886.00,661.00              1886.01,653.16 1887.18,643.65 1894.04,638.65              1899.37,634.77 1909.78,635.23 1916.00,636.51              1923.91,638.15 1937.11,644.18 1945.00,647.40              1945.00,647.40 1993.00,665.02 1993.00,665.02              2022.38,674.06 2052.46,679.90 2083.00,683.16              2083.00,683.16 2103.00,685.00 2103.00,685.00              2103.00,685.00 2122.00,686.00 2122.00,686.00              2156.54,686.05 2181.13,685.09 2215.00,676.37              2249.59,667.47 2283.90,645.05 2295.92,610.00              2299.52,599.50 2301.13,587.06 2301.00,576.00              2300.93,570.48 2299.46,561.40 2298.11,556.00              2285.35,505.23 2226.92,487.60 2183.00,473.33              2183.00,473.33 2156.00,464.98 2156.00,464.98              2156.00,464.98 2104.00,448.72 2104.00,448.72              2056.57,434.43 2016.70,422.24 1976.00,392.27              1929.13,357.74 1898.96,301.86 1894.91,244.00              1894.91,244.00 1894.00,234.00 1894.00,234.00              1893.74,211.83 1897.08,184.99 1904.34,164.00              1909.02,150.49 1914.81,139.18 1922.20,127.00              1942.26,93.97 1971.59,67.55 2005.00,48.43              2035.09,31.20 2068.93,20.16 2103.00,14.25              2103.00,14.25 2134.00,10.17 2134.00,10.17              2134.00,10.17 2146.00,9.21 2146.00,9.21 Z            M 587.00,361.00            C 587.00,317.40 589.93,269.22 579.37,227.00              573.88,205.03 563.10,179.67 545.99,164.29              536.10,155.40 527.02,149.81 515.00,144.31              490.97,133.31 464.07,129.69 438.00,127.91              438.00,127.91 426.00,127.00 426.00,127.00              426.00,127.00 397.00,127.00 397.00,127.00              397.00,127.00 360.00,130.28 360.00,130.28              331.13,134.17 300.82,142.38 273.00,151.02              273.00,151.02 226.00,168.01 226.00,168.01              216.28,172.02 198.19,179.32 188.00,179.91              171.44,180.87 168.02,167.52 168.00,154.00              168.00,154.00 168.00,106.00 168.00,106.00              168.09,98.99 169.55,89.03 173.21,83.00              179.78,72.18 197.55,63.57 209.00,58.58              238.48,45.72 263.70,36.45 295.00,28.63              332.25,19.31 357.55,14.54 396.00,11.91              396.00,11.91 408.00,10.84 408.00,10.84              408.00,10.84 437.00,10.84 437.00,10.84              437.00,10.84 465.00,10.84 465.00,10.84              465.00,10.84 475.00,11.91 475.00,11.91              494.93,13.28 514.36,15.47 534.00,19.40              588.73,30.35 638.82,53.10 673.99,98.00              706.00,138.88 719.25,190.23 724.17,241.00              724.17,241.00 726.00,265.00 726.00,265.00              726.00,265.00 726.00,327.00 726.00,327.00              726.00,327.00 726.00,477.00 726.00,477.00              726.00,477.00 726.00,552.00 726.00,552.00              726.14,559.90 727.95,556.96 728.00,566.00              728.00,566.00 728.00,570.00 728.00,570.00              728.00,570.00 728.91,580.00 728.91,580.00              729.95,595.21 731.16,610.11 734.89,625.00              737.71,636.22 745.65,655.02 750.42,666.00              756.98,681.08 773.21,703.81 769.47,720.00              765.96,735.24 743.43,747.38 731.00,755.67              717.84,764.44 695.50,782.44 680.00,782.96              664.25,783.48 652.91,772.28 643.61,761.00              626.26,739.93 607.83,708.14 597.00,683.00              597.00,683.00 577.99,704.00 577.99,704.00              557.87,724.59 531.18,745.09 506.00,759.14              465.39,781.80 421.24,793.91 375.00,797.09              375.00,797.09 363.00,798.00 363.00,798.00              363.00,798.00 337.00,798.00 337.00,798.00              337.00,798.00 325.00,797.09 325.00,797.09              274.75,793.64 225.04,778.19 187.00,743.83              144.44,705.39 124.52,657.21 119.04,601.00              119.04,601.00 119.04,592.00 119.04,592.00              119.04,592.00 118.00,582.00 118.00,582.00              117.51,539.91 125.16,497.11 145.86,460.00              172.20,412.80 220.25,374.77 271.00,356.69              302.60,345.44 334.59,339.21 368.00,336.91              368.00,336.91 380.00,336.00 380.00,336.00              380.00,336.00 426.00,336.00 426.00,336.00              426.00,336.00 437.00,336.96 437.00,336.96              469.53,338.38 501.99,343.39 534.00,349.39              534.00,349.39 587.00,361.00 587.00,361.00 Z            M 1313.00,197.00            C 1313.00,197.00 1305.87,229.00 1305.87,229.00              1305.87,229.00 1293.65,280.00 1293.65,280.00              1293.65,280.00 1271.88,371.00 1271.88,371.00              1271.88,371.00 1252.87,451.00 1252.87,451.00              1252.87,451.00 1232.12,538.00 1232.12,538.00              1232.12,538.00 1210.35,629.00 1210.35,629.00              1210.35,629.00 1189.21,717.00 1189.21,717.00              1186.06,731.59 1180.81,757.11 1170.82,767.96              1162.53,776.96 1147.69,778.86 1136.00,779.00              1136.00,779.00 1062.00,779.00 1062.00,779.00              1050.57,778.98 1036.92,777.33 1028.17,769.38              1018.32,760.43 1013.54,743.43 1009.66,731.00              1009.66,731.00 986.28,654.00 986.28,654.00              986.28,654.00 897.28,361.00 897.28,361.00              897.28,361.00 860.14,239.00 860.14,239.00              860.14,239.00 812.14,81.00 812.14,81.00              808.14,67.03 798.60,38.86 818.00,32.11              821.52,30.88 824.36,31.01 828.00,31.00              828.00,31.00 917.00,31.00 917.00,31.00              924.17,31.09 934.00,32.80 940.00,36.85              947.90,42.18 951.86,50.41 955.19,59.00              955.19,59.00 968.63,107.00 968.63,107.00              968.63,107.00 1033.63,363.00 1033.63,363.00              1033.63,363.00 1064.63,485.00 1064.63,485.00              1064.63,485.00 1081.85,553.00 1081.85,553.00              1081.85,553.00 1101.00,627.00 1101.00,627.00              1101.00,627.00 1111.35,582.00 1111.35,582.00              1111.35,582.00 1135.35,480.00 1135.35,480.00              1135.35,480.00 1209.12,167.00 1209.12,167.00              1209.12,167.00 1228.13,86.00 1228.13,86.00              1231.38,72.99 1234.57,54.76 1242.76,44.01              1249.64,34.98 1264.02,31.13 1275.00,31.00              1275.00,31.00 1355.00,31.00 1355.00,31.00              1360.06,31.01 1364.04,31.33 1369.00,32.50              1393.63,38.33 1396.23,60.16 1401.37,81.00              1401.37,81.00 1422.63,171.00 1422.63,171.00              1422.63,171.00 1450.88,291.00 1450.88,291.00              1450.88,291.00 1499.12,495.00 1499.12,495.00              1499.12,495.00 1519.35,581.00 1519.35,581.00              1519.35,581.00 1532.00,633.00 1532.00,633.00              1532.00,633.00 1551.88,556.00 1551.88,556.00              1551.88,556.00 1586.12,424.00 1586.12,424.00              1586.12,424.00 1600.15,369.00 1600.15,369.00              1600.15,369.00 1623.88,277.00 1623.88,277.00              1623.88,277.00 1644.63,197.00 1644.63,197.00              1644.63,197.00 1674.63,81.00 1674.63,81.00              1678.09,67.14 1683.83,46.19 1696.00,37.65              1702.79,32.88 1714.81,31.01 1723.00,31.00              1723.00,31.00 1805.00,31.00 1805.00,31.00              1821.14,31.03 1827.35,37.99 1826.99,54.00              1826.71,65.94 1821.74,80.67 1818.00,92.00              1818.00,92.00 1808.67,122.00 1808.67,122.00              1808.67,122.00 1774.02,233.00 1774.02,233.00              1774.02,233.00 1690.98,500.00 1690.98,500.00              1690.98,500.00 1653.72,619.00 1653.72,619.00              1653.72,619.00 1621.33,723.00 1621.33,723.00              1616.84,736.54 1611.75,758.65 1601.70,768.70              1592.65,777.75 1576.29,779.85 1564.00,780.00              1564.00,780.00 1497.00,780.00 1497.00,780.00              1485.20,779.98 1468.20,778.78 1459.09,770.67              1447.99,760.79 1445.06,742.72 1441.63,729.00              1441.63,729.00 1431.12,685.00 1431.12,685.00              1431.12,685.00 1420.21,640.00 1420.21,640.00              1420.21,640.00 1395.88,539.00 1395.88,539.00              1395.88,539.00 1347.37,337.00 1347.37,337.00              1347.37,337.00 1324.37,241.00 1324.37,241.00              1324.37,241.00 1313.00,197.00 1313.00,197.00 Z            M 589.00,456.00            C 589.00,456.00 530.00,444.27 530.00,444.27              509.07,441.19 488.10,438.88 467.00,437.96              467.00,437.96 454.00,437.00 454.00,437.00              454.00,437.00 416.00,437.00 416.00,437.00              416.00,437.00 406.00,437.91 406.00,437.91              369.27,440.44 331.15,448.83 303.00,474.17              280.46,494.46 267.05,526.75 267.00,557.00              267.00,557.00 267.00,580.00 267.00,580.00              267.26,601.69 275.71,630.13 289.46,647.00              310.82,673.21 337.07,683.68 370.00,686.09              370.00,686.09 380.00,687.00 380.00,687.00              456.35,687.89 543.12,655.73 575.13,581.00              590.41,545.32 589.00,494.43 589.00,456.00 Z            M 2342.00,953.21            C 2342.00,953.21 2387.00,953.21 2387.00,953.21              2387.00,953.21 2407.00,954.00 2407.00,954.00              2407.00,954.00 2417.00,954.91 2417.00,954.91              2439.24,956.47 2461.23,959.42 2483.00,964.35              2497.58,967.65 2524.26,974.86 2534.90,985.18              2543.23,993.27 2545.98,1013.70 2546.00,1025.00              2546.00,1025.00 2546.00,1053.00 2546.00,1053.00              2545.97,1071.94 2539.64,1108.92 2535.42,1128.00              2524.42,1177.83 2508.09,1226.31 2485.25,1272.00              2463.67,1315.15 2437.20,1356.66 2403.00,1391.00              2403.00,1391.00 2390.00,1403.08 2390.00,1403.08              2379.78,1412.49 2370.74,1421.39 2356.00,1420.98              2340.77,1420.56 2340.47,1406.15 2344.44,1395.00              2344.44,1395.00 2355.60,1367.00 2355.60,1367.00              2355.60,1367.00 2378.31,1308.00 2378.31,1308.00              2392.20,1269.11 2405.85,1230.11 2415.87,1190.00              2420.28,1172.36 2426.97,1140.67 2427.00,1123.00              2427.00,1123.00 2427.00,1112.00 2427.00,1112.00              2426.99,1102.64 2424.88,1089.74 2419.36,1082.00              2412.17,1071.91 2401.40,1066.77 2390.00,1063.00              2371.85,1057.00 2352.93,1055.21 2334.00,1053.91              2334.00,1053.91 2322.00,1053.00 2322.00,1053.00              2322.00,1053.00 2267.00,1053.00 2267.00,1053.00              2267.00,1053.00 2250.00,1054.00 2250.00,1054.00              2250.00,1054.00 2235.00,1054.96 2235.00,1054.96              2235.00,1054.96 2178.00,1059.17 2178.00,1059.17              2178.00,1059.17 2122.00,1065.28 2122.00,1065.28              2122.00,1065.28 2091.00,1068.96 2091.00,1068.96              2087.96,1069.08 2084.94,1068.88 2082.00,1068.07              2066.93,1063.92 2069.50,1048.91 2077.04,1039.00              2082.67,1031.60 2092.09,1025.67 2100.00,1020.81              2100.00,1020.81 2135.00,1001.26 2135.00,1001.26              2177.03,980.91 2225.83,967.07 2272.00,960.27              2272.00,960.27 2315.00,955.09 2315.00,955.09              2315.00,955.09 2328.00,954.04 2328.00,954.04              2328.00,954.04 2342.00,953.21 2342.00,953.21 Z            M 31.00,1003.47            C 44.93,1001.52 54.46,1008.36 66.00,1015.00              66.00,1015.00 83.00,1024.72 83.00,1024.72              118.37,1044.82 154.61,1063.56 191.00,1081.75              316.45,1144.48 448.72,1195.00 583.00,1235.28              681.79,1264.91 782.42,1287.61 884.00,1305.25              884.00,1305.25 957.00,1316.72 957.00,1316.72              957.00,1316.72 1038.00,1326.83 1038.00,1326.83              1038.00,1326.83 1085.00,1331.17 1085.00,1331.17              1085.00,1331.17 1141.00,1336.00 1141.00,1336.00              1141.00,1336.00 1150.00,1336.00 1150.00,1336.00              1150.00,1336.00 1157.00,1337.00 1157.00,1337.00              1157.00,1337.00 1167.00,1337.00 1167.00,1337.00              1167.00,1337.00 1177.00,1338.00 1177.00,1338.00              1177.00,1338.00 1197.00,1339.04 1197.00,1339.04              1197.00,1339.04 1210.00,1339.04 1210.00,1339.04              1210.00,1339.04 1222.00,1340.00 1222.00,1340.00              1222.00,1340.00 1236.00,1340.00 1236.00,1340.00              1236.00,1340.00 1252.00,1341.00 1252.00,1341.00              1252.00,1341.00 1360.00,1341.00 1360.00,1341.00              1360.00,1341.00 1375.00,1340.00 1375.00,1340.00              1375.00,1340.00 1389.00,1340.00 1389.00,1340.00              1389.00,1340.00 1410.00,1339.00 1410.00,1339.00              1410.00,1339.00 1422.00,1338.04 1422.00,1338.04              1422.00,1338.04 1430.00,1338.04 1430.00,1338.04              1430.00,1338.04 1448.00,1337.00 1448.00,1337.00              1448.00,1337.00 1472.00,1335.09 1472.00,1335.09              1472.00,1335.09 1551.00,1328.17 1551.00,1328.17              1636.02,1319.67 1734.52,1303.91 1818.00,1285.58              1920.43,1263.08 2022.16,1235.48 2121.00,1200.31              2121.00,1200.31 2216.00,1164.60 2216.00,1164.60              2216.00,1164.60 2271.00,1142.74 2271.00,1142.74              2289.11,1137.72 2309.72,1143.05 2319.54,1160.00              2322.63,1165.35 2324.48,1172.83 2323.71,1179.00              2323.27,1182.52 2322.08,1187.78 2320.65,1191.00              2318.53,1195.77 2314.64,1201.27 2310.96,1204.96              2305.02,1210.92 2279.29,1228.70 2271.00,1234.34              2271.00,1234.34 2200.00,1279.80 2200.00,1279.80              2102.42,1338.35 1997.62,1384.34 1890.00,1421.00              1749.05,1469.02 1602.20,1500.82 1454.00,1515.17              1454.00,1515.17 1402.00,1519.91 1402.00,1519.91              1402.00,1519.91 1378.00,1521.09 1378.00,1521.09              1378.00,1521.09 1360.00,1522.00 1360.00,1522.00              1360.00,1522.00 1346.00,1523.04 1346.00,1523.04              1346.00,1523.04 1330.00,1523.04 1330.00,1523.04              1330.00,1523.04 1318.00,1524.00 1318.00,1524.00              1318.00,1524.00 1234.00,1524.00 1234.00,1524.00              1234.00,1524.00 1219.00,1523.00 1219.00,1523.00              1219.00,1523.00 1203.00,1523.00 1203.00,1523.00              1203.00,1523.00 1187.00,1522.00 1187.00,1522.00              1187.00,1522.00 1166.00,1521.00 1166.00,1521.00              1166.00,1521.00 1125.00,1518.09 1125.00,1518.09              1083.18,1515.21 1041.53,1510.26 1000.00,1504.27              836.30,1480.67 680.95,1436.37 529.00,1371.15              379.64,1307.04 248.42,1226.74 120.00,1127.35              120.00,1127.35 63.00,1080.42 63.00,1080.42              63.00,1080.42 22.09,1044.00 22.09,1044.00              9.36,1030.14 10.28,1008.41 31.00,1003.47 Z" />
</svg>