<svg xmlns="http://www.w3.org/2000/svg" viewBox="-0.2 -0.7 733.7 633.02">
  <path id="amazon-lightsail" fill="#303030" stroke="none" stroke-width="1"
    d="M 402.00,0.67            C 413.55,-0.98 425.47,0.12 437.00,0.67              456.05,2.21 474.40,4.48 493.00,9.13              595.39,34.72 678.74,108.14 714.31,208.00              723.97,235.12 730.08,263.31 732.09,292.00              732.09,292.00 733.00,304.00 733.00,304.00              733.00,304.00 733.00,325.00 733.00,325.00              732.98,336.94 730.43,357.97 728.41,370.00              709.97,479.91 633.24,572.26 529.00,611.58              502.77,621.47 473.96,628.05 446.00,630.09              446.00,630.09 435.00,631.00 435.00,631.00              435.00,631.00 426.00,631.00 426.00,631.00              426.00,631.00 414.00,631.82 414.00,631.82              414.00,631.82 404.00,631.00 404.00,631.00              404.00,631.00 396.00,631.00 396.00,631.00              396.00,631.00 387.00,630.17 387.00,630.17              364.33,627.97 342.76,623.86 321.00,617.02              239.71,591.50 172.96,535.41 134.75,459.00              123.28,436.05 114.31,411.15 109.20,386.00              106.95,374.93 102.44,366.69 108.66,356.18              115.04,345.41 133.06,347.31 138.43,358.01              138.43,358.01 144.37,383.00 144.37,383.00              147.58,395.81 153.31,412.82 158.42,425.00              181.04,478.89 218.93,522.71 268.00,554.31              341.38,601.56 439.24,609.86 520.00,577.55              571.09,557.11 619.01,518.33 649.97,473.00              676.11,434.73 693.71,385.27 697.09,339.00              697.09,339.00 698.00,327.00 698.00,327.00              698.00,327.00 698.00,305.00 698.00,305.00              698.00,305.00 697.09,295.00 697.09,295.00              695.37,271.52 690.10,248.31 682.67,226.00              672.72,196.15 658.26,167.67 638.55,143.00              600.81,95.75 544.68,58.29 486.00,42.88              423.82,26.56 348.38,35.58 291.00,64.27              272.55,73.49 254.84,85.25 239.00,98.43              196.09,134.14 163.62,181.44 147.72,235.00              147.72,235.00 138.08,274.00 138.08,274.00              134.92,280.58 128.24,284.13 121.00,283.47              119.25,283.31 116.61,282.70 115.00,282.01              99.80,275.46 106.44,256.96 109.00,245.00              116.94,207.91 132.76,172.79 153.22,141.00              193.23,78.82 258.11,32.65 329.00,12.43              345.29,7.78 362.19,4.38 379.00,2.28              379.00,2.28 402.00,0.67 402.00,0.67 Z            M 436.00,88.00            C 442.04,91.24 448.65,97.96 454.00,102.58              470.47,116.80 487.06,136.25 499.71,154.00              546.39,219.49 567.27,299.05 547.53,378.00              540.42,406.43 527.87,433.19 512.42,458.00              497.25,482.37 478.84,504.29 459.04,525.00              452.88,531.44 443.90,544.56 435.00,546.00              435.00,546.00 435.00,502.00 435.00,502.00              434.93,459.72 413.71,409.75 384.00,380.00              360.08,356.05 340.33,347.07 309.00,336.67              296.86,332.63 287.03,329.29 288.10,314.00              289.25,297.48 307.55,295.83 320.00,291.31              346.53,281.67 370.02,264.90 388.83,244.00              414.04,215.99 431.09,172.47 434.08,135.00              434.08,135.00 435.00,125.00 435.00,125.00              435.10,116.49 434.06,94.84 436.00,88.00 Z            M 326.00,111.00            C 329.96,115.49 330.92,122.05 336.24,129.00              345.40,140.97 351.57,141.55 364.00,147.00              357.32,150.97 349.67,150.24 339.44,161.17              336.26,164.56 333.30,168.78 331.32,173.00              329.59,176.69 329.54,179.61 326.00,182.00              323.44,171.07 317.45,161.39 308.00,155.10              308.00,155.10 292.00,147.00 292.00,147.00              292.00,147.00 308.00,138.90 308.00,138.90              317.35,132.67 324.26,122.10 326.00,111.00 Z            M 463.00,160.00            C 463.00,160.00 452.31,196.00 452.31,196.00              443.37,221.09 429.69,246.15 411.83,266.00              400.46,278.63 386.26,291.02 372.00,300.31              372.00,300.31 345.00,316.00 345.00,316.00              353.63,318.46 369.23,328.16 377.00,333.33              408.27,354.18 431.81,383.50 446.57,418.00              451.60,429.75 455.48,441.73 459.00,454.00              459.00,454.00 464.00,472.00 464.00,472.00              464.00,472.00 475.33,456.00 475.33,456.00              486.16,439.94 496.28,423.77 504.14,406.00              532.29,342.31 529.27,276.04 498.25,214.00              491.83,201.16 485.36,189.92 477.33,178.00              473.60,172.47 468.00,164.17 463.00,160.00 Z            M 13.00,300.24            C 13.00,300.24 38.00,300.24 38.00,300.24              42.05,300.05 47.53,300.49 50.98,302.73              60.81,309.12 59.02,323.42 52.79,328.30              49.22,331.10 38.64,331.94 34.00,332.00              27.07,332.08 11.62,332.75 6.21,328.44              4.21,326.85 2.87,324.31 1.88,322.00              -2.48,311.86 2.46,303.08 13.00,300.24 Z            M 88.00,300.52            C 88.00,300.52 111.00,300.00 111.00,300.00              116.56,300.01 122.27,300.20 126.93,303.65              134.89,309.48 134.81,322.52 126.93,328.44              122.79,331.52 114.05,331.99 109.00,332.00              102.18,332.01 85.43,332.40 80.21,328.30              74.70,323.97 71.38,305.15 88.00,300.52 Z            M 154.00,300.53            C 154.00,300.53 188.00,300.00 188.00,300.00              190.39,300.02 192.74,299.94 195.00,300.85              205.73,305.22 207.41,318.46 200.36,326.79              196.39,331.49 185.94,331.93 180.00,332.00              172.57,332.08 154.99,332.82 149.02,329.15              138.47,322.66 139.20,305.28 154.00,300.53 Z            M 228.00,300.44            C 236.21,299.38 258.48,298.75 264.98,303.51              272.59,309.08 273.38,322.19 265.81,328.20              261.26,331.81 254.55,331.99 249.00,332.00              241.12,332.01 225.37,333.06 219.09,328.35              211.94,322.98 210.92,311.61 217.22,305.21              220.45,301.93 223.71,301.27 228.00,300.44 Z            M 621.00,337.00            C 624.63,339.45 624.91,343.08 626.78,347.00              629.15,351.95 632.46,356.89 636.29,360.83              646.64,371.45 655.70,370.72 662.00,375.00              648.49,379.51 637.68,384.38 629.71,397.00              629.71,397.00 622.00,414.00 622.00,414.00              617.73,401.21 613.66,391.26 602.00,383.22              596.37,379.34 591.07,377.68 585.00,375.00              585.00,375.00 600.00,367.76 600.00,367.76              610.20,361.12 618.82,349.07 621.00,337.00 Z            M 270.00,412.00            C 272.78,416.11 272.71,419.44 274.46,424.00              277.41,431.72 281.36,438.96 287.09,444.99              292.53,450.72 299.67,455.58 307.00,458.55              311.62,460.42 316.85,461.18 321.00,464.00              303.22,470.65 291.89,473.93 280.36,491.00              274.45,499.75 273.45,508.72 270.00,513.00              267.44,496.41 256.44,481.24 242.00,472.87              233.06,467.70 228.89,467.33 220.00,464.00              220.00,464.00 240.00,455.96 240.00,455.96              257.05,446.45 266.23,430.70 270.00,412.00 Z" />
</svg>