<svg xmlns="http://www.w3.org/2000/svg" viewBox="-0.9 -0.83 1278.05 246.64">
  <path id="amazon-pay" fill="#303030" stroke="none" stroke-width="1"
    d="M 80.00,127.00            C 72.72,132.05 68.54,136.99 60.00,140.66              51.42,144.36 44.99,144.01 36.00,144.00              25.58,143.98 16.91,141.48 9.46,133.70              -4.98,118.62 -2.83,87.86 11.18,73.09              22.26,61.41 42.55,57.51 58.00,56.07              63.55,55.56 73.85,56.54 73.77,49.00              73.73,44.73 72.53,37.65 70.03,34.17              64.36,26.29 52.41,25.77 45.00,31.42              42.35,33.44 40.07,36.03 38.55,39.00              36.96,42.11 36.80,45.42 32.89,46.37              30.26,47.34 26.71,46.45 24.00,46.37              24.00,46.37 15.00,45.17 15.00,45.17              8.89,44.55 3.31,45.31 4.19,37.00              4.55,33.58 6.29,29.11 7.79,26.00              18.67,3.35 42.55,-0.26 65.00,0.00              69.70,0.06 74.47,0.79 79.00,2.01              86.06,3.93 93.56,7.07 98.91,12.18              107.51,20.41 109.86,32.55 110.00,44.00              110.00,44.00 110.00,93.00 110.00,93.00              110.01,99.91 110.49,103.86 114.09,110.00              116.04,113.33 120.95,119.05 120.05,123.00              119.23,126.60 113.76,130.61 111.00,133.00              107.96,135.63 101.65,141.70 98.00,142.55              90.08,144.41 82.43,133.24 80.00,127.00 Z            M 403.00,55.00            C 403.00,48.77 403.57,41.67 400.56,36.00              395.64,26.74 383.28,25.30 375.00,30.85              364.57,37.86 369.12,45.75 360.98,46.84              360.98,46.84 341.00,44.92 341.00,44.92              338.43,44.64 335.49,44.16 334.04,41.72              332.50,39.15 333.88,34.66 334.75,32.00              337.39,23.94 342.38,16.68 349.00,11.38              354.23,7.19 359.69,4.98 366.00,3.02              388.22,-3.85 425.09,-1.50 435.66,23.00              439.61,32.13 439.00,41.35 439.00,51.00              439.00,51.00 439.00,90.00 439.00,90.00              439.01,96.68 439.63,103.01 442.90,109.00              445.00,112.84 450.30,118.45 449.47,122.91              448.79,126.52 442.73,130.91 440.00,133.28              436.76,136.10 431.17,141.86 427.00,142.67              419.77,144.08 411.86,132.56 409.00,127.00              402.78,131.45 400.37,135.11 393.00,139.10              383.44,144.27 374.46,144.12 364.00,144.00              359.43,143.94 356.34,143.47 352.00,141.91              321.39,130.93 322.65,86.52 346.00,68.53              358.76,58.69 387.02,55.00 403.00,55.00 Z            M 905.00,17.00            C 913.92,8.89 927.84,1.47 940.00,0.09              940.00,0.09 953.00,0.09 953.00,0.09              977.13,0.11 992.48,15.18 1000.14,37.00              1011.24,68.65 1005.63,119.13 973.00,136.22              966.04,139.86 958.88,141.90 951.00,142.00              932.34,142.21 922.12,139.67 907.00,128.00              907.00,128.00 907.00,183.00 907.00,183.00              906.99,185.54 907.32,189.48 905.40,191.40              903.01,193.80 892.58,193.02 889.00,193.00              886.65,192.98 883.39,193.19 881.60,191.40              879.68,189.48 880.01,185.54 880.00,183.00              880.00,183.00 880.00,46.00 880.00,46.00              880.00,46.00 880.00,14.00 880.00,14.00              880.01,11.42 879.80,7.58 881.74,5.60              883.97,3.32 891.81,3.95 895.00,4.00              904.37,4.18 903.95,9.07 905.00,17.00 Z            M 1106.00,64.00            C 1106.00,48.82 1108.70,28.56 1090.00,23.17              1086.64,22.20 1084.45,22.04 1081.00,22.00              1067.29,21.84 1061.35,22.54 1048.00,25.87              1044.57,26.73 1036.23,29.81 1033.31,27.96              1030.45,26.15 1030.96,20.98 1031.00,18.00              1031.03,15.78 1030.99,13.19 1032.17,11.22              1035.04,6.45 1050.48,3.30 1056.00,2.20              1068.68,-0.32 1075.41,-0.02 1088.00,0.00              1103.12,0.02 1119.74,4.52 1127.18,19.00              1130.69,25.83 1131.91,37.31 1132.00,45.00              1132.00,45.00 1132.00,111.00 1132.00,111.00              1132.00,111.00 1132.00,129.00 1132.00,129.00              1131.96,131.93 1131.99,135.30 1129.57,137.40              1127.16,139.49 1122.08,139.01 1119.00,139.00              1108.26,138.98 1108.79,136.82 1107.00,127.00              1093.39,136.63 1079.08,143.37 1062.00,142.99              1051.08,142.74 1039.79,138.93 1032.09,130.96              1019.80,118.22 1018.77,93.37 1028.77,79.00              1041.72,60.41 1060.69,59.77 1081.00,60.00              1088.54,60.09 1098.73,61.90 1106.00,64.00 Z            M 173.00,22.00            C 178.78,2.20 204.94,-4.51 222.00,4.90              230.32,9.49 233.48,16.16 238.00,24.00              242.46,2.11 273.45,-4.28 291.00,5.68              304.59,13.39 307.98,25.31 308.00,40.00              308.00,40.00 308.00,118.00 308.00,118.00              308.00,122.96 309.33,138.26 305.69,141.26              303.23,143.29 299.03,143.00 296.00,143.00              291.38,143.01 276.70,144.23 274.02,140.49              272.77,138.74 273.00,135.12 273.00,133.00              273.00,133.00 273.00,93.00 273.00,93.00              273.00,93.00 273.00,59.00 273.00,59.00              272.93,53.21 272.18,43.62 268.44,39.11              262.11,31.46 251.21,33.89 245.64,41.09              241.75,46.11 241.03,52.87 241.00,59.00              241.00,59.00 241.00,131.00 241.00,131.00              240.98,142.27 238.97,142.98 228.00,143.00              228.00,143.00 217.00,143.00 217.00,143.00              206.34,142.98 205.02,141.66 205.00,131.00              205.00,131.00 205.00,91.00 205.00,91.00              205.00,91.00 205.00,55.00 205.00,55.00              204.93,49.20 203.88,42.56 199.66,38.22              191.90,30.23 180.55,34.83 176.35,44.00              174.19,48.71 173.07,59.68 173.00,65.00              173.00,65.00 173.00,118.00 173.00,118.00              173.00,122.96 174.33,138.26 170.69,141.26              168.23,143.29 164.03,143.00 161.00,143.00              161.00,143.00 149.00,143.00 149.00,143.00              139.39,142.95 138.02,141.41 138.00,132.00              138.00,132.00 138.00,34.00 138.00,34.00              138.00,34.00 138.00,12.00 138.00,12.00              138.04,9.86 137.96,7.23 139.60,5.60              141.52,3.68 145.46,4.01 148.00,4.00              152.68,3.99 168.25,2.68 170.83,6.43              172.83,9.35 171.23,15.78 173.00,22.00 Z            M 624.00,1.22            C 624.00,1.22 632.00,1.22 632.00,1.22              638.85,0.99 643.36,1.45 650.00,3.44              677.06,11.54 689.96,41.71 690.00,68.00              690.00,68.00 690.00,80.00 690.00,80.00              689.95,110.67 669.65,144.60 636.00,145.00              636.00,145.00 629.00,145.00 629.00,145.00              603.01,144.69 587.14,126.13 579.67,103.00              575.95,91.49 575.11,78.95 576.10,67.00              576.10,67.00 576.10,58.00 576.10,58.00              578.71,38.28 587.90,17.28 606.00,7.31              612.54,3.71 616.80,2.77 624.00,1.22 Z            M 743.00,24.00            C 745.34,15.98 751.55,8.27 759.00,4.40              769.85,-1.24 788.28,0.09 798.00,7.53              809.14,16.06 811.98,29.66 812.00,43.00              812.00,43.00 812.00,118.00 812.00,118.00              812.00,118.00 812.00,135.00 812.00,135.00              811.96,137.11 812.07,139.57 810.40,141.15              808.14,143.27 802.94,143.00 800.00,143.00              794.78,143.01 780.93,144.54 778.02,139.77              776.80,137.77 777.00,134.31 777.00,132.00              777.00,132.00 777.00,92.00 777.00,92.00              777.00,92.00 777.00,58.00 777.00,58.00              776.93,52.41 776.08,44.52 772.58,40.02              764.33,29.38 752.48,34.16 747.52,45.00              743.23,54.35 744.00,64.04 744.00,74.00              744.00,74.00 744.00,117.00 744.00,117.00              744.00,122.14 745.37,138.03 741.57,141.15              738.99,143.26 734.19,143.00 731.00,143.00              731.00,143.00 719.00,143.00 719.00,143.00              708.77,142.95 708.02,140.67 708.00,131.00              708.00,131.00 708.00,34.00 708.00,34.00              708.00,34.00 708.00,13.00 708.00,13.00              708.04,10.63 707.96,7.42 709.74,5.60              711.64,3.66 715.47,4.01 718.00,4.00              718.00,4.00 734.00,4.00 734.00,4.00              736.55,4.05 739.23,3.93 740.83,6.31              742.96,9.52 741.12,17.39 743.00,24.00 Z            M 516.00,32.00            C 516.00,32.00 479.00,32.00 479.00,32.00              476.46,31.99 472.52,32.32 470.60,30.40              468.81,28.61 469.02,25.35 469.00,23.00              468.97,19.03 468.16,8.24 470.60,5.43              473.04,2.62 477.62,3.01 481.00,3.00              481.00,3.00 550.00,3.00 550.00,3.00              559.94,3.02 561.98,3.70 562.00,14.00              562.01,17.84 562.31,23.46 561.15,27.00              559.78,31.21 555.89,36.29 553.34,40.00              553.34,40.00 537.28,63.00 537.28,63.00              537.28,63.00 513.00,97.00 513.00,97.00              527.40,97.00 537.15,96.95 551.00,102.45              559.35,105.76 563.86,107.26 564.00,117.00              564.00,117.00 564.00,129.00 564.00,129.00              563.99,133.44 564.43,139.38 558.00,138.56              558.00,138.56 542.00,132.67 542.00,132.67              534.37,130.16 519.95,127.70 512.00,128.04              504.02,128.37 491.58,130.80 484.00,133.36              480.18,134.64 473.07,138.52 470.02,138.73              463.80,139.16 464.02,133.46 464.00,129.00              464.00,129.00 464.00,117.00 464.00,117.00              464.07,102.83 471.26,96.15 478.98,85.00              478.98,85.00 516.00,32.00 516.00,32.00 Z            M 1214.00,112.00            C 1214.00,112.00 1226.31,75.00 1226.31,75.00              1226.31,75.00 1242.00,29.00 1242.00,29.00              1243.53,24.42 1248.39,8.14 1251.42,5.60              1253.34,3.98 1255.64,4.05 1258.00,4.00              1258.00,4.00 1268.00,4.00 1268.00,4.00              1270.55,4.01 1275.15,3.47 1276.36,6.31              1277.54,9.07 1274.86,15.29 1273.80,18.00              1273.80,18.00 1262.60,47.00 1262.60,47.00              1262.60,47.00 1227.60,137.00 1227.60,137.00              1222.02,151.07 1215.74,171.25 1206.48,183.00              1198.43,193.23 1189.76,196.85 1177.00,197.00              1171.65,197.06 1159.21,196.81 1156.17,191.78              1154.75,189.41 1154.95,184.77 1155.00,182.00              1155.27,167.39 1165.83,178.90 1179.00,173.52              1188.95,169.45 1192.81,159.31 1196.32,150.00              1197.31,147.36 1199.37,142.67 1199.30,140.00              1199.23,137.34 1196.68,131.70 1195.60,129.00              1195.60,129.00 1187.60,109.00 1187.60,109.00              1187.60,109.00 1158.40,37.00 1158.40,37.00              1158.40,37.00 1149.62,15.00 1149.62,15.00              1148.69,12.50 1147.15,7.99 1149.02,5.60              1150.57,3.62 1154.72,4.00 1157.00,4.00              1157.00,4.00 1168.00,4.00 1168.00,4.00              1169.85,4.04 1171.99,3.98 1173.61,5.02              1175.74,6.40 1176.89,9.72 1177.80,12.00              1177.80,12.00 1183.95,29.00 1183.95,29.00              1183.95,29.00 1205.95,90.00 1205.95,90.00              1205.95,90.00 1214.00,112.00 1214.00,112.00 Z            M 937.00,22.29            C 929.35,23.45 912.19,27.38 908.02,34.32              906.78,36.39 907.00,39.64 907.00,42.00              907.00,42.00 907.00,99.00 907.00,99.00              907.00,101.43 906.80,104.67 908.02,106.82              909.53,109.46 913.35,111.38 916.00,112.74              923.51,116.60 931.56,119.03 940.00,119.68              942.75,119.89 945.28,119.38 948.00,119.00              971.38,115.69 976.97,93.34 977.00,73.00              977.03,52.22 973.77,27.31 949.00,22.92              944.06,22.05 942.03,21.82 937.00,22.29 Z            M 631.00,28.34            C 614.71,32.15 614.55,48.40 613.96,62.00              613.96,62.00 613.08,71.00 613.08,71.00              613.08,71.00 614.00,86.00 614.00,86.00              614.05,90.05 614.64,94.03 615.45,98.00              617.41,107.57 623.25,119.49 635.00,117.52              644.04,116.00 648.09,108.13 650.10,100.00              652.50,90.33 652.00,83.71 652.00,74.00              652.00,63.37 652.44,55.58 649.87,45.00              647.37,34.74 642.66,27.58 631.00,28.34 Z            M 74.00,76.00            C 66.50,76.00 62.46,75.64 55.00,77.75              50.58,78.99 46.46,80.83 43.21,84.18              36.69,90.91 35.26,102.74 39.68,110.96              44.09,119.14 55.06,119.86 62.00,114.58              64.48,112.69 67.19,109.64 68.87,107.00              70.91,103.78 72.14,99.76 72.70,96.00              73.69,89.36 74.00,82.70 74.00,76.00 Z            M 403.00,76.00            C 396.07,76.00 390.80,75.67 384.00,77.77              371.57,81.61 366.87,88.30 367.00,101.00              367.05,105.48 367.41,109.29 370.42,112.90              378.93,123.10 394.51,117.67 400.53,102.00              402.60,96.63 402.99,91.67 403.00,86.00              403.00,86.00 403.00,76.00 403.00,76.00 Z            M 1106.00,82.00            C 1095.66,80.12 1086.55,78.88 1076.00,79.00              1071.22,79.06 1065.34,79.86 1061.00,81.92              1057.09,83.77 1053.45,87.07 1051.57,91.00              1048.05,98.36 1049.57,111.83 1056.18,117.21              1065.94,125.15 1083.71,120.44 1094.00,115.69              1097.16,114.23 1102.37,111.63 1104.40,108.82              1106.29,106.20 1105.99,103.05 1106.00,100.00              1106.00,100.00 1106.00,82.00 1106.00,82.00 Z            M 512.00,147.43            C 516.59,146.97 530.39,148.29 535.00,149.48              537.65,150.16 541.59,151.30 543.41,153.42              545.34,155.68 545.89,161.10 545.68,164.00              544.71,176.97 541.02,191.35 535.19,203.00              531.79,209.80 526.45,217.70 520.99,222.96              519.10,224.77 515.99,227.69 513.15,227.46              507.32,226.99 512.92,215.72 514.00,213.00              517.31,204.67 522.20,190.68 523.56,182.00              524.26,177.51 524.69,171.87 520.77,168.70              518.20,166.62 514.19,166.09 511.00,165.59              503.13,164.35 489.08,165.50 481.00,166.58              478.35,166.93 468.23,168.33 466.32,167.40              459.78,164.21 471.56,157.20 474.00,155.97              481.97,151.97 493.11,149.03 502.00,148.17              502.00,148.17 512.00,147.43 512.00,147.43 Z            M 115.60,157.03            C 119.89,155.37 122.18,157.21 126.00,159.23              126.00,159.23 146.00,169.75 146.00,169.75              170.52,182.00 200.40,192.98 227.00,199.63              291.34,215.71 350.91,217.82 416.00,204.80              437.22,200.56 452.60,195.94 473.00,189.00              473.00,189.00 500.00,179.51 500.00,179.51              506.61,179.32 511.82,186.65 501.98,193.96              480.47,209.95 446.84,224.55 421.00,232.00              354.94,251.05 282.71,250.17 218.00,226.05              188.35,215.00 160.05,200.01 135.00,180.58              135.00,180.58 118.06,166.58 118.06,166.58              114.91,163.60 112.84,160.97 115.60,157.03 Z" />
</svg>