<svg xmlns="http://www.w3.org/2000/svg" viewBox="52.4 -0.5 1951.1 2010">
  <path id="Selection" fill="#303030" stroke="none" stroke-width="1" d="M 1259.00,1327.00            C 1252.14,1331.91 1237.98,1347.17 1231.00,1353.99              1231.00,1353.99 1187.00,1393.73 1187.00,1393.73              1136.99,1436.37 1081.64,1471.77 1019.00,1492.65              951.32,1515.21 874.87,1519.83 804.00,1519.00              804.00,1519.00 791.00,1518.00 791.00,1518.00              771.10,1517.77 747.65,1514.29 728.00,1510.61              627.93,1491.88 540.00,1439.62 485.42,1352.00              467.38,1323.02 451.96,1288.85 442.58,1256.00              433.42,1223.92 428.04,1194.16 424.83,1161.00              424.83,1161.00 422.96,1139.00 422.96,1139.00              422.96,1139.00 422.96,1128.00 422.96,1128.00              422.96,1128.00 422.00,1116.00 422.00,1116.00              422.00,1116.00 422.00,1090.00 422.00,1090.00              422.00,1090.00 423.00,1071.00 423.00,1071.00              423.00,1071.00 423.91,1061.00 423.91,1061.00              426.64,1021.23 434.20,982.01 446.34,944.00              477.80,845.59 545.10,763.09 632.00,708.05              680.65,677.24 734.74,655.18 790.00,639.43              864.39,618.22 941.38,606.83 1018.00,597.28              1018.00,597.28 1091.00,589.17 1091.00,589.17              1091.00,589.17 1108.00,587.58 1108.00,587.58              1108.00,587.58 1126.00,585.83 1126.00,585.83              1126.00,585.83 1182.00,579.93 1182.00,579.93              1182.00,579.93 1197.00,578.16 1197.00,578.16              1199.14,577.92 1201.77,578.04 1203.40,576.40              1205.32,574.48 1204.99,570.54 1205.00,568.00              1205.00,568.00 1205.00,472.00 1205.00,472.00              1205.00,472.00 1204.09,462.00 1204.09,462.00              1201.63,426.12 1196.32,390.49 1177.55,359.00              1147.50,308.59 1093.24,286.78 1037.00,282.91              1037.00,282.91 1027.00,282.00 1027.00,282.00              1027.00,282.00 1023.00,282.00 1023.00,282.00              1023.00,282.00 1011.00,282.91 1011.00,282.91              1011.00,282.91 991.00,284.28 991.00,284.28              931.33,291.72 875.16,318.99 841.00,370.00              829.75,386.80 822.01,403.73 816.02,423.00              811.67,437.02 810.50,451.09 803.13,464.00              795.38,477.58 782.50,489.80 766.00,490.00              766.00,490.00 725.00,486.17 725.00,486.17              725.00,486.17 650.00,478.17 650.00,478.17              650.00,478.17 557.00,468.16 557.00,468.16              557.00,468.16 520.00,464.17 520.00,464.17              520.00,464.17 506.00,462.68 506.00,462.68              489.07,459.66 473.16,447.53 467.75,431.00              465.64,424.58 465.93,419.62 466.00,413.00              466.09,405.61 468.92,394.48 470.58,387.00              470.58,387.00 485.33,334.00 485.33,334.00              514.56,246.33 569.08,170.38 644.00,116.01              725.14,57.12 822.42,24.25 921.00,9.73              921.00,9.73 994.00,1.91 994.00,1.91              994.00,1.91 1004.00,1.00 1004.00,1.00              1004.00,1.00 1026.00,0.00 1026.00,0.00              1026.00,0.00 1094.00,0.00 1094.00,0.00              1094.00,0.00 1104.00,1.00 1104.00,1.00              1104.00,1.00 1113.00,1.00 1113.00,1.00              1113.00,1.00 1142.00,3.83 1142.00,3.83              1178.71,7.50 1215.29,13.74 1251.00,23.12              1351.79,49.58 1445.48,96.12 1507.57,183.00              1553.02,246.59 1570.81,323.22 1576.09,400.00              1576.09,400.00 1578.00,433.00 1578.00,433.00              1578.00,433.00 1579.00,450.00 1579.00,450.00              1579.00,450.00 1579.00,1012.00 1579.00,1012.00              1579.00,1012.00 1579.96,1025.00 1579.96,1025.00              1582.41,1081.31 1598.47,1131.72 1629.34,1179.00              1629.34,1179.00 1669.87,1236.00 1669.87,1236.00              1680.66,1250.41 1692.78,1266.16 1693.00,1285.00              1693.10,1293.46 1693.38,1299.05 1689.68,1307.00              1685.15,1316.73 1677.92,1321.73 1670.00,1328.42              1670.00,1328.42 1645.00,1349.59 1645.00,1349.59              1645.00,1349.59 1507.00,1469.28 1507.00,1469.28              1487.24,1486.60 1465.65,1511.07 1437.00,1509.96              1417.79,1509.21 1410.01,1503.19 1396.00,1491.13              1396.00,1491.13 1377.00,1474.28 1377.00,1474.28              1340.87,1442.49 1310.95,1404.92 1284.33,1365.00              1284.33,1365.00 1259.00,1327.00 1259.00,1327.00 Z            M 1205.00,791.00            C 1205.00,791.00 1159.00,792.00 1159.00,792.00              1159.00,792.00 1143.00,793.00 1143.00,793.00              1143.00,793.00 1107.00,795.83 1107.00,795.83              1072.92,799.13 1039.07,804.23 1006.00,813.42              959.36,826.39 919.87,844.47 883.00,876.42              819.47,931.48 802.77,1024.36 814.58,1104.00              821.34,1149.59 841.67,1195.06 880.00,1222.57              902.35,1238.61 934.33,1249.96 962.00,1250.00              962.00,1250.00 984.00,1250.00 984.00,1250.00              1001.58,1249.79 1029.98,1242.03 1046.00,1234.69              1076.70,1220.63 1093.44,1206.84 1117.00,1183.00              1142.22,1157.48 1166.21,1114.74 1178.68,1081.00              1192.88,1042.58 1198.30,1010.44 1202.17,970.00              1202.17,970.00 1204.04,947.00 1204.04,947.00              1204.04,947.00 1204.04,934.00 1204.04,934.00              1204.04,934.00 1205.00,922.00 1205.00,922.00              1205.00,922.00 1205.00,791.00 1205.00,791.00 Z            M 1830.00,1495.21            C 1830.00,1495.21 1877.00,1495.21 1877.00,1495.21              1877.00,1495.21 1894.00,1496.00 1894.00,1496.00              1894.00,1496.00 1904.00,1496.91 1904.00,1496.91              1924.24,1498.33 1945.57,1500.94 1965.00,1506.98              1975.06,1510.10 1988.59,1514.80 1995.47,1523.09              2001.35,1530.18 2002.99,1543.98 2003.00,1553.00              2003.09,1612.34 1982.99,1684.24 1958.31,1738.00              1941.93,1773.66 1915.36,1814.95 1887.99,1843.00              1878.05,1853.18 1862.35,1868.84 1847.00,1867.96              1834.78,1867.26 1836.49,1854.35 1839.04,1846.00              1839.04,1846.00 1848.58,1823.00 1848.58,1823.00              1848.58,1823.00 1866.00,1778.00 1866.00,1778.00              1876.97,1746.48 1887.77,1715.43 1895.87,1683.00              1899.66,1667.84 1904.98,1643.31 1905.00,1628.00              1905.00,1628.00 1905.00,1619.00 1905.00,1619.00              1904.99,1612.17 1904.09,1604.02 1900.64,1598.00              1896.30,1590.44 1888.69,1585.40 1881.00,1581.78              1867.02,1575.21 1836.64,1571.02 1821.00,1571.00              1821.00,1571.00 1780.00,1571.00 1780.00,1571.00              1780.00,1571.00 1761.00,1572.00 1761.00,1572.00              1761.00,1572.00 1751.00,1572.91 1751.00,1572.91              1751.00,1572.91 1711.00,1576.17 1711.00,1576.17              1711.00,1576.17 1662.00,1581.16 1662.00,1581.16              1662.00,1581.16 1635.00,1583.96 1635.00,1583.96              1632.57,1584.06 1629.34,1583.95 1627.00,1583.28              1615.49,1579.96 1619.08,1569.01 1624.53,1562.00              1632.93,1551.21 1655.36,1539.75 1668.00,1533.78              1700.48,1518.43 1747.38,1504.60 1783.00,1499.43              1783.00,1499.43 1819.00,1496.00 1819.00,1496.00              1823.76,1495.95 1825.09,1496.12 1830.00,1495.21 Z            M 67.00,1513.53            C 71.13,1512.85 78.96,1512.60 83.00,1513.53              89.47,1515.01 107.18,1526.71 114.00,1530.80              114.00,1530.80 201.00,1583.20 201.00,1583.20              304.53,1644.99 416.11,1702.99 529.00,1745.58              634.18,1785.25 743.37,1813.50 855.00,1827.28              883.25,1830.77 911.59,1833.80 940.00,1835.04              940.00,1835.04 951.00,1836.00 951.00,1836.00              951.00,1836.00 973.00,1837.00 973.00,1837.00              973.00,1837.00 1032.00,1838.00 1032.00,1838.00              1032.00,1838.00 1049.00,1837.00 1049.00,1837.00              1049.00,1837.00 1068.00,1837.00 1068.00,1837.00              1068.00,1837.00 1090.00,1836.00 1090.00,1836.00              1090.00,1836.00 1100.00,1835.00 1100.00,1835.00              1100.00,1835.00 1109.00,1835.00 1109.00,1835.00              1109.00,1835.00 1130.00,1833.09 1130.00,1833.09              1160.10,1831.02 1190.11,1827.58 1220.00,1823.27              1302.12,1811.43 1382.53,1793.56 1462.00,1769.72              1548.70,1743.71 1646.23,1707.39 1728.00,1668.78              1728.00,1668.78 1748.00,1659.69 1748.00,1659.69              1761.89,1653.31 1768.01,1648.81 1784.00,1649.00              1798.62,1649.18 1805.31,1657.95 1804.99,1672.00              1804.46,1694.67 1782.85,1715.15 1768.00,1730.00              1730.90,1767.10 1678.58,1804.58 1634.00,1832.68              1513.60,1908.59 1371.08,1963.16 1231.00,1988.42              1188.59,1996.07 1145.97,2002.14 1103.00,2005.09              1103.00,2005.09 1074.00,2007.00 1074.00,2007.00              1074.00,2007.00 1061.00,2008.00 1061.00,2008.00              1061.00,2008.00 1048.00,2008.00 1048.00,2008.00              1048.00,2008.00 1032.00,2009.00 1032.00,2009.00              1032.00,2009.00 980.00,2009.00 980.00,2009.00              980.00,2009.00 963.00,2008.00 963.00,2008.00              963.00,2008.00 928.00,2006.09 928.00,2006.09              873.13,2002.33 818.65,1993.96 765.00,1981.65              582.57,1939.78 415.25,1854.56 266.00,1742.63              206.67,1698.13 138.76,1638.81 89.17,1584.00              79.85,1573.70 59.54,1552.04 54.83,1540.00              50.08,1527.87 54.10,1517.39 67.00,1513.53 Z"/>
</svg>