<svg xmlns="http://www.w3.org/2000/svg" viewBox="-0.2 -0.7 1739.82 633.02">
  <path id="amazon-lightsail-wordmark" fill="#303030" stroke="none" stroke-width="1"
    d="M 402.00,0.67            C 413.55,-0.98 425.47,0.12 437.00,0.67              456.05,2.21 474.40,4.48 493.00,9.13              595.39,34.72 678.74,108.14 714.31,208.00              723.97,235.12 730.08,263.31 732.09,292.00              732.09,292.00 733.00,304.00 733.00,304.00              733.00,304.00 733.00,325.00 733.00,325.00              732.98,336.94 730.43,357.97 728.41,370.00              709.97,479.91 633.24,572.26 529.00,611.58              502.77,621.47 473.96,628.05 446.00,630.09              446.00,630.09 435.00,631.00 435.00,631.00              435.00,631.00 426.00,631.00 426.00,631.00              426.00,631.00 414.00,631.82 414.00,631.82              414.00,631.82 404.00,631.00 404.00,631.00              404.00,631.00 396.00,631.00 396.00,631.00              396.00,631.00 387.00,630.17 387.00,630.17              364.33,627.97 342.76,623.86 321.00,617.02              239.71,591.50 172.96,535.41 134.75,459.00              123.28,436.05 114.31,411.15 109.20,386.00              106.95,374.93 102.44,366.69 108.66,356.18              115.04,345.41 133.06,347.31 138.43,358.01              138.43,358.01 144.37,383.00 144.37,383.00              147.58,395.81 153.31,412.82 158.42,425.00              181.04,478.89 218.93,522.71 268.00,554.31              341.38,601.56 439.24,609.86 520.00,577.55              571.09,557.11 619.01,518.33 649.97,473.00              676.11,434.73 693.71,385.27 697.09,339.00              697.09,339.00 698.00,327.00 698.00,327.00              698.00,327.00 698.00,305.00 698.00,305.00              698.00,305.00 697.09,295.00 697.09,295.00              695.37,271.52 690.10,248.31 682.67,226.00              672.72,196.15 658.26,167.67 638.55,143.00              600.81,95.75 544.68,58.29 486.00,42.88              423.82,26.56 348.38,35.58 291.00,64.27              272.55,73.49 254.84,85.25 239.00,98.43              196.09,134.14 163.62,181.44 147.72,235.00              147.72,235.00 138.08,274.00 138.08,274.00              134.92,280.58 128.24,284.13 121.00,283.47              119.25,283.31 116.61,282.70 115.00,282.01              99.80,275.46 106.44,256.96 109.00,245.00              116.94,207.91 132.76,172.79 153.22,141.00              193.23,78.82 258.11,32.65 329.00,12.43              345.29,7.78 362.19,4.38 379.00,2.28              379.00,2.28 402.00,0.67 402.00,0.67 Z            M 831.00,248.79            C 831.00,248.79 848.19,203.00 848.19,203.00              848.19,203.00 878.80,123.00 878.80,123.00              878.80,123.00 888.00,99.00 888.00,99.00              888.97,96.56 891.08,90.17 892.70,88.58              894.72,86.59 899.27,86.06 902.00,86.21              904.31,86.33 908.35,86.86 910.01,88.57              911.74,90.36 914.07,97.37 915.05,100.00              915.05,100.00 924.32,124.00 924.32,124.00              924.32,124.00 955.81,206.00 955.81,206.00              955.81,206.00 972.00,249.00 972.00,249.00              967.43,249.37 959.51,251.23 955.65,248.10              953.40,246.27 951.37,239.84 950.32,237.00              950.32,237.00 941.58,214.00 941.58,214.00              940.53,211.22 938.74,205.40 936.58,203.60              934.31,201.69 930.80,202.01 928.00,202.00              928.00,202.00 872.00,202.00 872.00,202.00              870.09,202.04 867.92,202.00 866.22,203.02              862.92,205.01 860.03,215.15 858.58,219.00              858.58,219.00 850.58,240.00 850.58,240.00              849.52,242.79 848.40,247.02 845.73,248.79              841.65,250.94 835.45,249.36 831.00,248.79 Z            M 436.00,88.00            C 442.04,91.24 448.65,97.96 454.00,102.58              470.47,116.80 487.06,136.25 499.71,154.00              546.39,219.49 567.27,299.05 547.53,378.00              540.42,406.43 527.87,433.19 512.42,458.00              497.25,482.37 478.84,504.29 459.04,525.00              452.88,531.44 443.90,544.56 435.00,546.00              435.00,546.00 435.00,502.00 435.00,502.00              434.93,459.72 413.71,409.75 384.00,380.00              360.08,356.05 340.33,347.07 309.00,336.67              296.86,332.63 287.03,329.29 288.10,314.00              289.25,297.48 307.55,295.83 320.00,291.31              346.53,281.67 370.02,264.90 388.83,244.00              414.04,215.99 431.09,172.47 434.08,135.00              434.08,135.00 435.00,125.00 435.00,125.00              435.10,116.49 434.06,94.84 436.00,88.00 Z            M 902.00,107.00            C 897.74,111.46 895.17,121.03 892.95,127.00              892.95,127.00 878.68,165.00 878.68,165.00              877.44,168.36 871.65,182.30 872.11,184.85              872.80,188.60 878.16,187.99 881.00,188.00              881.00,188.00 932.00,188.00 932.00,188.00              932.00,188.00 902.00,107.00 902.00,107.00 Z            M 326.00,111.00            C 329.96,115.49 330.92,122.05 336.24,129.00              345.40,140.97 351.57,141.55 364.00,147.00              357.32,150.97 349.67,150.24 339.44,161.17              336.26,164.56 333.30,168.78 331.32,173.00              329.59,176.69 329.54,179.61 326.00,182.00              323.44,171.07 317.45,161.39 308.00,155.10              308.00,155.10 292.00,147.00 292.00,147.00              292.00,147.00 308.00,138.90 308.00,138.90              317.35,132.67 324.26,122.10 326.00,111.00 Z            M 1005.00,140.00            C 1022.50,132.46 1040.32,122.23 1060.00,128.75              1064.72,130.31 1068.11,132.64 1072.00,135.67              1073.75,137.03 1076.94,140.06 1079.00,140.48              1081.64,141.01 1090.01,135.68 1093.00,134.31              1101.80,130.28 1113.29,127.11 1123.00,127.00              1137.06,126.84 1149.88,130.72 1155.54,145.00              1159.33,154.58 1159.00,173.38 1159.00,184.00              1159.00,184.00 1159.00,249.00 1159.00,249.00              1154.91,249.33 1145.86,251.46 1143.60,246.70              1142.87,245.17 1143.00,241.75 1143.00,240.00              1143.00,240.00 1143.00,173.00 1143.00,173.00              1142.98,161.69 1141.80,148.52 1130.00,143.36              1119.35,138.71 1101.48,144.41 1092.00,150.01              1088.92,151.83 1083.72,154.94 1082.02,158.09              1080.80,160.35 1081.01,163.48 1081.00,166.00              1081.00,166.00 1081.00,249.00 1081.00,249.00              1081.00,249.00 1067.00,249.00 1067.00,249.00              1065.30,239.51 1066.00,228.72 1066.00,219.00              1066.00,219.00 1066.00,167.00 1066.00,167.00              1065.95,162.79 1065.59,160.03 1064.25,156.00              1058.24,137.93 1037.09,140.01 1023.00,146.31              1018.20,148.46 1007.50,153.12 1005.60,158.04              1004.88,159.88 1005.00,162.99 1005.00,165.00              1005.00,165.00 1005.00,240.00 1005.00,240.00              1005.00,241.75 1005.13,245.17 1004.40,246.70              1002.22,251.29 993.94,249.32 990.00,249.00              990.00,249.00 990.00,131.00 990.00,131.00              990.00,131.00 1003.00,131.00 1003.00,131.00              1003.00,131.00 1005.00,140.00 1005.00,140.00 Z            M 1191.00,135.00            C 1191.00,135.00 1205.00,130.74 1205.00,130.74              1217.96,127.15 1231.69,126.02 1245.00,127.87              1252.02,128.85 1258.24,129.82 1264.00,134.39              1272.10,140.81 1274.95,150.02 1275.00,160.00              1275.00,160.00 1275.00,249.00 1275.00,249.00              1264.01,250.44 1262.18,250.85 1259.00,240.00              1241.03,247.79 1238.16,252.24 1217.00,252.00              1208.51,251.90 1199.42,249.68 1193.04,243.82              1180.07,231.90 1179.54,205.99 1191.18,193.01              1206.50,175.95 1237.88,178.18 1258.00,184.00              1261.02,167.17 1260.50,144.74 1239.00,142.05              1236.15,141.70 1232.83,141.11 1230.00,141.32              1221.39,141.97 1212.28,142.95 1204.00,145.51              1201.25,146.36 1195.16,148.89 1192.60,146.96              1190.32,145.25 1191.00,137.76 1191.00,135.00 Z            M 1449.00,127.44            C 1463.97,125.52 1484.22,128.11 1496.00,138.21              1516.95,156.17 1519.19,194.35 1510.66,219.00              1507.24,228.87 1502.40,237.00 1494.00,243.47              1482.25,252.53 1469.09,253.16 1455.00,253.00              1449.42,252.93 1445.29,252.05 1440.00,250.33              1409.61,240.41 1404.67,213.10 1405.00,185.00              1405.15,172.13 1409.51,155.17 1417.52,145.00              1425.79,134.50 1436.20,129.83 1449.00,127.44 Z            M 1557.00,142.00            C 1566.78,136.13 1572.01,133.43 1583.00,130.02              1600.32,124.66 1629.75,124.61 1637.44,145.00              1639.01,149.16 1638.99,152.67 1639.00,157.00              1639.00,157.00 1639.00,249.00 1639.00,249.00              1636.29,249.00 1627.61,249.52 1625.74,248.01              1623.62,246.30 1624.00,241.50 1624.00,239.00              1624.00,239.00 1624.00,219.00 1624.00,219.00              1624.00,219.00 1624.00,167.00 1624.00,167.00              1623.97,160.12 1622.56,153.39 1617.67,148.18              1611.79,141.92 1604.92,141.91 1597.00,142.00              1587.29,142.12 1576.51,146.12 1568.00,150.64              1564.80,152.34 1559.78,154.87 1558.02,158.09              1556.80,160.33 1557.00,163.50 1557.00,166.00              1557.00,166.00 1557.00,249.00 1557.00,249.00              1557.00,249.00 1541.00,249.00 1541.00,249.00              1541.00,249.00 1541.00,131.00 1541.00,131.00              1541.00,131.00 1555.00,131.00 1555.00,131.00              1555.00,131.00 1557.00,142.00 1557.00,142.00 Z            M 1301.00,131.00            C 1301.00,131.00 1388.95,131.00 1388.95,131.00              1388.95,131.00 1388.95,144.00 1388.95,144.00              1388.95,144.00 1371.80,167.00 1371.80,167.00              1371.80,167.00 1336.42,212.00 1336.42,212.00              1336.42,212.00 1318.00,235.00 1318.00,235.00              1318.00,235.00 1380.00,235.00 1380.00,235.00              1390.91,235.02 1390.76,239.14 1389.00,249.00              1389.00,249.00 1299.00,249.00 1299.00,249.00              1299.00,249.00 1299.58,235.00 1299.58,235.00              1299.58,235.00 1317.58,211.00 1317.58,211.00              1317.58,211.00 1349.60,170.00 1349.60,170.00              1349.60,170.00 1368.00,145.00 1368.00,145.00              1368.00,145.00 1301.00,145.00 1301.00,145.00              1301.00,145.00 1301.00,131.00 1301.00,131.00 Z            M 1458.00,141.32            C 1447.43,142.70 1438.84,144.39 1431.47,153.04              1421.64,164.57 1422.19,179.81 1421.18,194.00              1420.94,197.44 1421.95,202.52 1422.61,206.00              1425.76,222.70 1432.51,233.53 1450.00,237.57              1454.04,238.50 1457.84,239.18 1462.00,238.91              1491.13,237.01 1499.04,214.32 1499.00,189.00              1498.98,176.85 1496.33,161.23 1487.82,152.04              1480.62,144.28 1468.31,141.10 1458.00,141.32 Z            M 463.00,160.00            C 463.00,160.00 452.31,196.00 452.31,196.00              443.37,221.09 429.69,246.15 411.83,266.00              400.46,278.63 386.26,291.02 372.00,300.31              372.00,300.31 345.00,316.00 345.00,316.00              353.63,318.46 369.23,328.16 377.00,333.33              408.27,354.18 431.81,383.50 446.57,418.00              451.60,429.75 455.48,441.73 459.00,454.00              459.00,454.00 464.00,472.00 464.00,472.00              464.00,472.00 475.33,456.00 475.33,456.00              486.16,439.94 496.28,423.77 504.14,406.00              532.29,342.31 529.27,276.04 498.25,214.00              491.83,201.16 485.36,189.92 477.33,178.00              473.60,172.47 468.00,164.17 463.00,160.00 Z            M 1225.00,193.29            C 1217.70,194.40 1209.47,196.24 1204.39,202.10              1197.64,209.89 1196.99,225.59 1205.11,232.61              1209.15,236.11 1215.79,237.13 1221.00,237.49              1230.45,238.13 1240.75,233.90 1249.00,229.75              1251.71,228.39 1256.40,226.27 1257.98,223.67              1259.60,220.99 1259.01,209.68 1259.00,206.00              1258.99,203.37 1259.35,199.74 1257.40,197.70              1255.62,195.83 1251.49,195.06 1249.00,194.62              1243.51,193.62 1230.57,192.77 1225.00,193.29 Z            M 1632.00,292.46            C 1637.96,291.66 1646.95,292.64 1651.64,296.80              1659.19,303.56 1658.69,318.79 1651.64,325.66              1647.34,329.91 1640.86,331.20 1635.00,330.96              1614.72,330.14 1610.61,309.45 1619.39,299.09              1622.97,294.87 1626.84,293.62 1632.00,292.46 Z            M 967.00,293.47            C 975.55,292.27 984.53,292.04 990.72,299.10              994.14,303.00 994.10,307.12 993.99,312.00              993.69,324.73 983.05,331.73 971.00,330.90              958.47,330.04 952.73,321.94 953.01,310.00              953.13,305.42 953.87,301.61 957.22,298.21              960.13,295.26 963.13,294.39 967.00,293.47 Z            M 1159.00,467.00            C 1159.00,467.00 1159.00,334.00 1159.00,334.00              1159.00,334.00 1159.00,303.00 1159.00,303.00              1159.00,303.00 1160.60,294.74 1160.60,294.74              1160.60,294.74 1170.00,293.00 1170.00,293.00              1170.00,293.00 1186.00,293.00 1186.00,293.00              1186.00,293.00 1193.40,294.74 1193.40,294.74              1193.40,294.74 1195.00,301.00 1195.00,301.00              1195.00,301.00 1196.00,354.00 1196.00,354.00              1196.00,354.00 1209.00,348.06 1209.00,348.06              1226.70,341.29 1257.71,338.44 1267.60,359.00              1270.01,364.01 1270.97,372.43 1271.00,378.00              1271.00,378.00 1271.00,413.00 1271.00,413.00              1271.00,413.00 1271.00,460.00 1271.00,460.00              1270.83,468.75 1266.37,467.99 1259.00,468.00              1259.00,468.00 1242.00,468.00 1242.00,468.00              1239.92,467.96 1237.61,468.13 1236.09,466.43              1233.35,463.37 1234.50,458.58 1234.91,455.00              1234.91,455.00 1234.91,440.00 1234.91,440.00              1234.91,440.00 1234.00,412.00 1234.00,412.00              1234.00,412.00 1234.00,389.00 1234.00,389.00              1233.86,377.85 1228.50,371.58 1217.00,372.04              1211.55,372.26 1198.95,375.49 1196.02,380.33              1194.78,382.37 1195.00,385.65 1195.00,388.00              1195.00,388.00 1195.00,467.00 1195.00,467.00              1195.00,467.00 1159.00,467.00 1159.00,467.00 Z            M 1685.00,294.00            C 1685.00,294.00 1712.00,294.00 1712.00,294.00              1714.35,294.02 1717.61,293.81 1719.40,295.60              1721.32,297.52 1720.99,301.46 1721.00,304.00              1721.00,304.00 1721.00,427.00 1721.00,427.00              1721.01,433.04 1720.90,438.27 1728.00,440.11              1731.12,440.92 1735.88,439.74 1737.98,442.56              1739.54,444.66 1739.05,455.87 1739.00,459.00              1738.97,460.69 1739.07,462.88 1738.01,464.30              1734.97,468.40 1720.95,470.10 1716.00,469.99              1705.29,469.74 1692.94,464.97 1687.83,455.00              1685.18,449.82 1684.07,438.91 1684.00,433.00              1684.00,433.00 1684.00,366.00 1684.00,366.00              1684.00,366.00 1684.00,322.00 1684.00,322.00              1684.00,312.69 1683.35,303.19 1685.00,294.00 Z            M 13.00,300.24            C 13.00,300.24 38.00,300.24 38.00,300.24              42.05,300.05 47.53,300.49 50.98,302.73              60.81,309.12 59.02,323.42 52.79,328.30              49.22,331.10 38.64,331.94 34.00,332.00              27.07,332.08 11.62,332.75 6.21,328.44              4.21,326.85 2.87,324.31 1.88,322.00              -2.48,311.86 2.46,303.08 13.00,300.24 Z            M 88.00,300.52            C 88.00,300.52 111.00,300.00 111.00,300.00              116.56,300.01 122.27,300.20 126.93,303.65              134.89,309.48 134.81,322.52 126.93,328.44              122.79,331.52 114.05,331.99 109.00,332.00              102.18,332.01 85.43,332.40 80.21,328.30              74.70,323.97 71.38,305.15 88.00,300.52 Z            M 154.00,300.53            C 154.00,300.53 188.00,300.00 188.00,300.00              190.39,300.02 192.74,299.94 195.00,300.85              205.73,305.22 207.41,318.46 200.36,326.79              196.39,331.49 185.94,331.93 180.00,332.00              172.57,332.08 154.99,332.82 149.02,329.15              138.47,322.66 139.20,305.28 154.00,300.53 Z            M 228.00,300.44            C 236.21,299.38 258.48,298.75 264.98,303.51              272.59,309.08 273.38,322.19 265.81,328.20              261.26,331.81 254.55,331.99 249.00,332.00              241.12,332.01 225.37,333.06 219.09,328.35              211.94,322.98 210.92,311.61 217.22,305.21              220.45,301.93 223.71,301.27 228.00,300.44 Z            M 833.00,305.00            C 833.00,305.00 869.00,305.00 869.00,305.00              869.00,305.00 869.00,437.00 869.00,437.00              869.00,437.00 930.00,437.00 930.00,437.00              930.00,437.00 937.40,438.02 937.40,438.02              937.40,438.02 939.58,445.00 939.58,445.00              939.58,445.00 939.00,467.00 939.00,467.00              939.00,467.00 833.00,467.00 833.00,467.00              833.00,467.00 833.00,305.00 833.00,305.00 Z            M 1309.00,315.00            C 1309.00,315.00 1321.00,314.02 1321.00,314.02              1321.00,314.02 1339.00,314.02 1339.00,314.02              1340.22,323.28 1339.94,327.89 1340.00,337.00              1340.02,339.38 1339.80,342.58 1341.60,344.41              1345.58,348.47 1356.09,346.08 1361.00,346.08              1361.00,346.08 1371.00,347.00 1371.00,347.00              1372.21,356.14 1372.64,364.87 1371.00,374.00              1371.00,374.00 1340.00,374.00 1340.00,374.00              1340.00,374.00 1340.00,423.00 1340.00,423.00              1340.00,425.52 1339.92,428.58 1340.56,431.00              1343.41,441.84 1356.07,440.84 1365.00,441.00              1366.95,441.04 1369.63,440.90 1370.98,442.60              1372.23,444.19 1372.00,448.01 1372.00,450.00              1372.00,450.00 1372.00,465.00 1372.00,465.00              1359.45,467.86 1355.90,470.16 1342.00,470.00              1337.23,469.94 1333.61,469.26 1329.00,468.11              1324.99,467.10 1320.54,465.67 1317.00,463.52              1302.41,454.67 1304.00,436.76 1303.95,422.00              1303.95,422.00 1303.95,384.00 1303.95,384.00              1303.95,384.00 1303.95,379.04 1303.95,379.04              1302.46,370.56 1292.14,376.43 1287.60,372.15              1285.27,369.95 1285.94,361.25 1286.00,358.00              1286.04,356.19 1285.98,353.98 1287.02,352.42              1289.45,348.77 1299.85,348.09 1304.00,348.00              1304.00,348.00 1309.00,315.00 1309.00,315.00 Z            M 621.00,337.00            C 624.63,339.45 624.91,343.08 626.78,347.00              629.15,351.95 632.46,356.89 636.29,360.83              646.64,371.45 655.70,370.72 662.00,375.00              648.49,379.51 637.68,384.38 629.71,397.00              629.71,397.00 622.00,414.00 622.00,414.00              617.73,401.21 613.66,391.26 602.00,383.22              596.37,379.34 591.07,377.68 585.00,375.00              585.00,375.00 600.00,367.76 600.00,367.76              610.20,361.12 618.82,349.07 621.00,337.00 Z            M 1094.00,457.00            C 1094.00,457.00 1078.00,463.57 1078.00,463.57              1065.23,467.17 1049.11,465.29 1038.00,457.90              1026.40,450.18 1021.28,439.06 1018.13,426.00              1015.47,414.95 1015.87,407.19 1016.00,396.00              1016.26,374.07 1028.85,350.70 1051.00,344.76              1055.05,343.67 1060.81,342.88 1065.00,343.04              1069.58,343.22 1080.78,345.27 1085.00,346.93              1085.00,346.93 1098.00,353.00 1098.00,353.00              1101.33,343.54 1111.85,345.76 1120.00,346.54              1122.32,346.76 1125.74,346.26 1127.57,347.69              1130.37,349.87 1129.99,354.81 1130.00,358.00              1130.00,358.00 1130.00,440.00 1130.00,440.00              1130.00,458.27 1131.08,476.57 1121.66,493.00              1107.56,517.61 1077.21,520.29 1052.00,516.72              1046.52,515.94 1029.01,511.69 1025.99,507.37              1024.94,505.86 1025.03,503.75 1025.00,502.00              1025.00,502.00 1025.00,494.00 1025.00,494.00              1025.01,491.16 1024.56,486.78 1027.31,485.04              1029.82,483.45 1034.32,484.97 1037.00,485.63              1037.00,485.63 1059.00,489.72 1059.00,489.72              1071.95,491.27 1086.19,488.43 1091.52,475.00              1093.39,470.30 1093.98,462.11 1094.00,457.00 Z            M 1381.00,438.00            C 1381.00,438.00 1419.00,444.00 1419.00,444.00              1425.78,444.07 1435.85,443.75 1438.28,436.07              1439.23,433.93 1439.29,431.99 1438.28,430.00              1434.53,424.31 1421.31,420.35 1415.00,417.80              1400.36,411.89 1387.03,406.99 1382.90,390.00              1381.86,385.71 1381.95,382.36 1382.00,378.00              1382.30,352.52 1405.91,343.03 1428.00,343.00              1436.63,342.99 1446.68,344.09 1455.00,346.43              1457.60,347.16 1462.41,348.43 1464.15,350.51              1466.28,353.06 1466.00,357.83 1466.00,361.00              1466.00,361.00 1466.00,375.00 1466.00,375.00              1466.00,375.00 1433.00,370.09 1433.00,370.09              1424.67,369.62 1410.56,375.79 1420.11,384.78              1423.70,388.16 1433.15,391.39 1438.00,393.42              1455.88,400.93 1475.22,408.93 1473.91,432.00              1473.52,438.77 1471.73,447.26 1468.03,453.00              1459.36,466.47 1440.24,471.82 1425.00,472.00              1414.62,472.12 1402.84,470.30 1393.00,466.92              1390.13,465.94 1384.47,463.91 1382.60,461.61              1380.69,459.26 1381.01,455.86 1381.00,453.00              1381.00,453.00 1381.00,438.00 1381.00,438.00 Z            M 1493.00,352.00            C 1493.00,352.00 1514.00,345.42 1514.00,345.42              1527.04,342.51 1539.80,342.47 1553.00,343.95              1563.94,345.17 1574.25,346.86 1581.61,356.01              1587.76,363.65 1588.88,375.47 1589.00,385.00              1589.00,385.00 1589.00,458.00 1589.00,458.00              1589.00,460.01 1589.24,463.79 1587.98,465.41              1586.77,466.95 1583.84,467.29 1582.00,467.57              1577.66,468.23 1564.99,468.07 1561.21,466.41              1557.96,464.98 1557.51,461.47 1554.67,461.66              1554.67,461.66 1542.00,467.94 1542.00,467.94              1533.70,471.09 1528.61,471.04 1520.00,471.00              1512.77,470.97 1505.03,469.42 1499.00,465.20              1494.19,461.84 1489.32,456.38 1486.90,451.00              1481.45,438.90 1483.49,420.16 1492.21,410.00              1501.02,399.74 1511.23,397.20 1524.00,395.84              1527.10,395.50 1528.72,394.95 1532.00,395.18              1532.00,395.18 1554.00,397.00 1554.00,397.00              1554.00,390.70 1554.91,381.45 1551.01,376.22              1547.08,370.95 1536.03,370.93 1530.00,371.00              1518.52,371.14 1504.33,375.72 1493.00,378.00              1493.00,378.00 1493.00,352.00 1493.00,352.00 Z            M 957.00,347.00            C 957.00,347.00 991.00,347.00 991.00,347.00              991.00,347.00 991.00,467.00 991.00,467.00              991.00,467.00 976.00,468.00 976.00,468.00              976.00,468.00 957.00,467.00 957.00,467.00              957.00,467.00 957.00,347.00 957.00,347.00 Z            M 1619.00,347.00            C 1619.00,347.00 1653.00,347.00 1653.00,347.00              1653.00,347.00 1653.00,467.00 1653.00,467.00              1653.00,467.00 1634.00,468.00 1634.00,468.00              1634.00,468.00 1619.00,467.00 1619.00,467.00              1619.00,467.00 1619.00,347.00 1619.00,347.00 Z            M 1070.00,371.33            C 1065.57,372.39 1062.42,373.68 1059.21,377.10              1051.06,385.80 1050.86,405.93 1053.21,417.00              1055.60,428.26 1060.27,436.68 1073.00,436.99              1078.57,437.12 1089.77,435.86 1092.98,430.66              1094.50,428.19 1094.00,420.18 1094.00,417.00              1094.00,417.00 1094.00,384.00 1094.00,384.00              1094.00,381.88 1094.25,378.41 1093.01,376.64              1089.47,371.59 1075.66,370.70 1070.00,371.33 Z            M 270.00,412.00            C 272.78,416.11 272.71,419.44 274.46,424.00              277.41,431.72 281.36,438.96 287.09,444.99              292.53,450.72 299.67,455.58 307.00,458.55              311.62,460.42 316.85,461.18 321.00,464.00              303.22,470.65 291.89,473.93 280.36,491.00              274.45,499.75 273.45,508.72 270.00,513.00              267.44,496.41 256.44,481.24 242.00,472.87              233.06,467.70 228.89,467.33 220.00,464.00              220.00,464.00 240.00,455.96 240.00,455.96              257.05,446.45 266.23,430.70 270.00,412.00 Z            M 1554.00,418.04            C 1554.00,418.04 1545.00,418.04 1545.00,418.04              1540.28,417.98 1535.67,417.13 1531.00,418.04              1518.10,420.89 1515.94,435.81 1523.34,442.57              1531.64,450.18 1549.69,442.70 1553.01,437.48              1554.24,435.54 1554.00,432.26 1554.00,430.00              1554.00,430.00 1554.00,418.04 1554.00,418.04 Z" />
</svg>