<svg xmlns="http://www.w3.org/2000/svg" viewBox="-0.5 -0.5 1281 307.01">
  <path id="amd-alt" fill="#303030" stroke="none" stroke-width="1"
    d="M 977.00,0.00            C 977.00,0.00 1280.00,0.00 1280.00,0.00              1280.00,0.00 1280.00,304.00 1280.00,304.00              1273.91,299.64 1264.69,289.69 1259.00,284.00              1259.00,284.00 1216.00,240.00 1216.00,240.00              1212.01,236.01 1198.16,223.25 1196.60,219.00              1195.88,217.06 1196.00,214.09 1196.00,212.00              1196.00,212.00 1196.00,84.00 1196.00,84.00              1196.00,84.00 1068.00,84.00 1068.00,84.00              1065.91,84.00 1062.94,84.12 1061.00,83.40              1056.75,81.84 1043.99,67.99 1040.00,64.00              1040.00,64.00 999.00,23.00 999.00,23.00              993.06,17.06 981.45,6.22 977.00,0.00 Z            M 0.00,286.00            C 0.00,286.00 8.20,263.00 8.20,263.00              8.20,263.00 25.00,221.00 25.00,221.00              25.00,221.00 81.80,80.00 81.80,80.00              81.80,80.00 99.60,36.00 99.60,36.00              99.60,36.00 106.65,20.99 106.65,20.99              106.65,20.99 114.00,20.00 114.00,20.00              114.00,20.00 176.00,20.00 176.00,20.00              176.00,20.00 183.35,20.99 183.35,20.99              183.35,20.99 190.86,36.00 190.86,36.00              190.86,36.00 210.86,81.00 210.86,81.00              210.86,81.00 270.30,215.00 270.30,215.00              270.30,215.00 289.30,258.00 289.30,258.00              289.30,258.00 301.00,286.00 301.00,286.00              301.00,286.00 237.00,286.00 237.00,286.00              227.94,285.98 228.74,285.75 223.20,272.00              223.20,272.00 212.42,246.00 212.42,246.00              211.12,242.88 209.11,236.63 206.61,234.60              204.26,232.69 200.86,233.01 198.00,233.00              198.00,233.00 99.00,233.00 99.00,233.00              96.33,233.01 92.77,232.65 90.70,234.60              88.76,236.41 86.61,243.27 85.58,246.00              85.58,246.00 75.68,272.00 75.68,272.00              70.76,285.32 71.81,285.98 62.00,286.00              62.00,286.00 0.00,286.00 0.00,286.00 Z            M 331.00,20.00            C 331.00,20.00 381.00,20.00 381.00,20.00              381.00,20.00 389.00,21.02 389.00,21.02              389.00,21.02 410.27,44.00 410.27,44.00              410.27,44.00 474.00,118.00 474.00,118.00              474.00,118.00 498.85,88.00 498.85,88.00              498.85,88.00 538.58,42.00 538.58,42.00              538.58,42.00 558.00,21.02 558.00,21.02              558.00,21.02 566.00,20.00 566.00,20.00              566.00,20.00 616.00,20.00 616.00,20.00              616.00,20.00 616.00,286.00 616.00,286.00              616.00,286.00 549.00,286.00 549.00,286.00              549.00,286.00 549.00,123.00 549.00,123.00              549.00,123.00 529.73,145.00 529.73,145.00              529.73,145.00 497.00,183.00 497.00,183.00              497.00,183.00 479.83,201.98 479.83,201.98              479.83,201.98 475.00,202.98 475.00,202.98              475.00,202.98 468.09,202.40 468.09,202.40              468.09,202.40 450.87,184.00 450.87,184.00              450.87,184.00 418.27,146.00 418.27,146.00              418.27,146.00 398.00,123.00 398.00,123.00              398.00,123.00 398.00,286.00 398.00,286.00              398.00,286.00 331.00,286.00 331.00,286.00              331.00,286.00 331.00,20.00 331.00,20.00 Z            M 666.00,20.00            C 666.00,20.00 759.00,20.00 759.00,20.00              795.78,20.00 825.62,19.26 860.00,35.78              883.73,47.19 903.81,66.41 915.66,90.00              934.05,126.76 934.93,181.40 915.66,218.00              906.22,235.99 893.09,250.30 876.00,261.31              850.89,277.48 822.30,283.08 793.00,285.09              793.00,285.09 781.00,286.00 781.00,286.00              781.00,286.00 755.00,286.00 755.00,286.00              755.00,286.00 666.00,286.00 666.00,286.00              666.00,286.00 666.00,20.00 666.00,20.00 Z            M 733.00,236.00            C 733.00,236.00 764.00,236.00 764.00,236.00              784.93,236.00 804.02,236.43 823.00,225.57              833.15,219.77 840.92,212.85 847.30,203.00              869.43,168.82 865.36,110.23 831.00,85.16              819.45,76.73 803.19,71.54 789.00,70.04              789.00,70.04 779.00,70.04 779.00,70.04              779.00,70.04 768.00,69.00 768.00,69.00              768.00,69.00 733.00,69.00 733.00,69.00              733.00,69.00 733.00,236.00 733.00,236.00 Z            M 146.00,86.00            C 146.00,86.00 131.58,123.00 131.58,123.00              131.58,123.00 108.00,186.00 108.00,186.00              108.00,186.00 187.00,186.00 187.00,186.00              187.00,186.00 172.01,148.00 172.01,148.00              172.01,148.00 146.00,86.00 146.00,86.00 Z            M 974.00,306.00            C 974.00,306.00 974.00,193.00 974.00,193.00              974.00,190.91 973.88,187.94 974.60,186.00              976.11,181.88 989.16,169.84 993.00,166.00              993.00,166.00 1038.00,121.00 1038.00,121.00              1043.67,115.33 1054.37,103.14 1061.00,100.00              1061.00,100.00 1061.00,219.00 1061.00,219.00              1061.00,219.00 1181.00,219.00 1181.00,219.00              1177.86,225.63 1165.67,236.33 1160.00,242.00              1160.00,242.00 1115.00,287.00 1115.00,287.00              1111.16,290.84 1099.12,303.89 1095.00,305.40              1093.06,306.12 1090.09,306.00 1088.00,306.00              1088.00,306.00 974.00,306.00 974.00,306.00 Z" />
</svg>