<svg xmlns="http://www.w3.org/2000/svg" viewBox="973.49 -0.5 307.01 307.01">
  <path id="amd" fill="#303030" stroke="none" stroke-width="1"
    d="M 977.00,0.00            C 977.00,0.00 1280.00,0.00 1280.00,0.00              1280.00,0.00 1280.00,304.00 1280.00,304.00              1273.91,299.64 1264.69,289.69 1259.00,284.00              1259.00,284.00 1216.00,240.00 1216.00,240.00              1212.01,236.01 1198.16,223.25 1196.60,219.00              1195.88,217.06 1196.00,214.09 1196.00,212.00              1196.00,212.00 1196.00,84.00 1196.00,84.00              1196.00,84.00 1068.00,84.00 1068.00,84.00              1065.91,84.00 1062.94,84.12 1061.00,83.40              1056.75,81.84 1043.99,67.99 1040.00,64.00              1040.00,64.00 999.00,23.00 999.00,23.00              993.06,17.06 981.45,6.22 977.00,0.00 Z            M 974.00,306.00            C 974.00,306.00 974.00,193.00 974.00,193.00              974.00,190.91 973.88,187.94 974.60,186.00              976.11,181.88 989.16,169.84 993.00,166.00              993.00,166.00 1038.00,121.00 1038.00,121.00              1043.67,115.33 1054.37,103.14 1061.00,100.00              1061.00,100.00 1061.00,219.00 1061.00,219.00              1061.00,219.00 1181.00,219.00 1181.00,219.00              1177.86,225.63 1165.67,236.33 1160.00,242.00              1160.00,242.00 1115.00,287.00 1115.00,287.00              1111.16,290.84 1099.12,303.89 1095.00,305.40              1093.06,306.12 1090.09,306.00 1088.00,306.00              1088.00,306.00 974.00,306.00 974.00,306.00 Z" />
</svg>