<svg xmlns="http://www.w3.org/2000/svg" viewBox="0.5 -0.55 2346 1316.05">
  <path id="android" fill="#303030" stroke="none" stroke-width="1"
    d="M 1.00,1315.00            C 1.00,1315.00 7.87,1256.00 7.87,1256.00              14.40,1209.08 24.08,1162.80 36.12,1117.00              89.75,912.94 195.56,732.73 345.00,584.00              345.00,584.00 357.00,572.96 357.00,572.96              407.59,524.57 460.80,483.13 519.00,444.33              519.00,444.33 577.00,408.80 577.00,408.80              577.00,408.80 592.00,400.30 592.00,400.30              593.89,399.25 597.04,397.81 598.01,395.79              599.16,393.41 597.54,391.04 596.42,389.00              596.42,389.00 588.28,375.00 588.28,375.00              588.28,375.00 554.28,316.00 554.28,316.00              554.28,316.00 441.15,120.00 441.15,120.00              441.15,120.00 414.00,73.00 414.00,73.00              407.26,61.28 400.48,52.30 401.04,38.00              401.72,20.51 413.66,4.66 431.00,0.68              434.89,-0.21 439.96,-0.04 444.00,0.00              464.70,0.25 472.90,14.16 482.00,30.00              482.00,30.00 512.01,82.00 512.01,82.00              512.01,82.00 618.85,267.00 618.85,267.00              618.85,267.00 650.01,321.00 650.01,321.00              650.01,321.00 672.00,360.00 672.00,360.00              672.00,360.00 737.00,332.81 737.00,332.81              784.77,314.30 835.15,298.71 885.00,286.88              944.20,272.84 1007.33,262.15 1068.00,257.91              1068.00,257.91 1113.00,255.00 1113.00,255.00              1113.00,255.00 1130.00,254.00 1130.00,254.00              1130.00,254.00 1159.00,254.00 1159.00,254.00              1159.00,254.00 1175.00,253.00 1175.00,253.00              1175.00,253.00 1190.00,254.00 1190.00,254.00              1190.00,254.00 1218.00,254.00 1218.00,254.00              1218.00,254.00 1240.00,255.00 1240.00,255.00              1240.00,255.00 1251.00,255.96 1251.00,255.96              1251.00,255.96 1301.00,259.83 1301.00,259.83              1358.99,265.63 1416.44,275.49 1473.00,289.63              1540.06,306.39 1612.49,330.52 1675.00,360.00              1675.00,360.00 1730.15,264.00 1730.15,264.00              1730.15,264.00 1796.58,149.00 1796.58,149.00              1796.58,149.00 1834.60,83.00 1834.60,83.00              1834.60,83.00 1864.72,31.00 1864.72,31.00              1873.78,15.09 1882.16,0.26 1903.00,0.00              1909.09,-0.07 1914.19,-0.35 1920.00,1.93              1942.62,10.78 1952.30,36.29 1941.63,58.00              1941.63,58.00 1921.42,93.00 1921.42,93.00              1921.42,93.00 1891.42,145.00 1891.42,145.00              1891.42,145.00 1792.72,316.00 1792.72,316.00              1792.72,316.00 1758.72,375.00 1758.72,375.00              1758.72,375.00 1750.61,389.00 1750.61,389.00              1749.46,391.02 1747.85,393.41 1748.99,395.79              1749.96,397.81 1753.11,399.25 1755.00,400.30              1755.00,400.30 1771.00,409.28 1771.00,409.28              1771.00,409.28 1826.00,443.00 1826.00,443.00              1882.73,480.80 1936.69,521.79 1986.00,568.96              1986.00,568.96 1997.00,579.00 1997.00,579.00              2053.64,634.98 2104.82,695.11 2149.66,761.00              2221.56,866.68 2274.23,984.01 2308.42,1107.00              2321.19,1152.93 2331.47,1200.80 2338.27,1248.00              2340.45,1263.11 2345.99,1301.48 2346.00,1315.00              2346.00,1315.00 1.00,1315.00 1.00,1315.00 Z            M 631.00,789.28            C 620.07,790.85 615.24,790.61 604.00,794.35              580.74,802.10 560.38,819.33 548.89,841.00              539.21,859.25 537.77,873.92 538.00,894.00              538.10,901.97 540.14,910.48 542.67,918.00              552.76,948.02 574.91,970.06 605.00,980.00              613.45,982.79 624.09,984.89 633.00,985.00              648.49,985.18 663.99,981.85 678.00,975.22              688.47,970.26 697.89,963.26 705.95,955.00              742.81,917.42 741.50,856.82 705.95,819.00              696.02,808.50 683.32,800.87 670.00,795.60              659.78,791.56 641.90,788.27 631.00,789.28 Z            M 1707.00,789.28            C 1695.62,790.92 1691.64,790.60 1680.00,794.52              1657.74,802.00 1638.55,817.58 1626.87,838.00              1596.57,891.00 1621.16,958.73 1679.00,979.31              1688.02,982.52 1700.43,984.88 1710.00,985.00              1724.78,985.17 1740.71,981.77 1754.00,975.24              1767.43,968.64 1777.97,960.67 1787.54,949.00              1821.90,907.08 1814.63,843.42 1772.00,810.01              1763.00,802.96 1751.97,797.02 1741.00,793.72              1731.70,790.92 1716.60,788.39 1707.00,789.28 Z" />
</svg>