<svg xmlns="http://www.w3.org/2000/svg" viewBox="-0.62 -0.67 1281.12 222.43">
  <path id="android-tv" fill="#303030" stroke="none" stroke-width="1"
    d="M 800.00,0.64            C 807.30,-0.83 815.99,-0.67 821.91,4.39              836.80,17.12 827.23,44.60 806.00,42.81              782.52,40.84 778.16,8.88 800.00,0.64 Z            M 455.00,1.00            C 455.00,1.00 487.00,1.00 487.00,1.00              487.00,1.00 487.00,217.79 487.00,217.79              487.00,217.79 462.00,217.79 462.00,217.79              462.00,217.79 456.74,213.89 456.74,213.89              456.74,213.89 454.00,200.00 454.00,200.00              449.90,208.65 438.77,214.59 430.00,217.66              402.92,227.11 372.54,217.45 355.02,195.00              329.76,162.64 334.34,110.24 367.00,84.52              379.09,74.99 388.23,72.59 403.00,70.58              412.70,69.25 423.96,71.32 433.00,75.01              443.01,79.11 447.51,83.52 455.00,91.00              455.00,91.00 455.00,1.00 455.00,1.00 Z            M 964.00,1.00            C 964.00,1.00 997.00,1.00 997.00,1.00              997.00,1.00 997.00,217.79 997.00,217.79              997.00,217.79 972.00,217.79 972.00,217.79              969.75,216.95 967.97,215.78 966.58,213.89              964.28,210.77 964.08,205.75 964.00,202.00              948.17,217.48 935.55,221.25 914.00,221.00              906.39,220.91 898.99,218.89 892.00,215.99              843.27,195.73 835.29,125.72 871.00,90.00              876.70,84.30 882.59,79.73 890.00,76.44              896.36,73.62 902.08,71.83 909.00,71.05              920.09,69.79 924.94,69.66 936.00,72.64              948.39,75.98 955.05,81.08 964.00,90.00              964.00,90.00 964.00,1.00 964.00,1.00 Z            M 1051.00,32.00            C 1051.00,32.00 1073.00,32.00 1073.00,32.00              1073.00,32.00 1073.00,72.00 1073.00,72.00              1073.00,72.00 1115.00,72.00 1115.00,72.00              1115.00,72.00 1115.00,92.00 1115.00,92.00              1115.00,92.00 1073.00,92.00 1073.00,92.00              1073.00,92.00 1073.00,166.00 1073.00,166.00              1073.00,177.57 1071.05,188.71 1082.00,196.35              1091.86,203.23 1104.50,198.61 1115.00,197.00              1115.00,197.00 1115.00,208.00 1115.00,208.00              1115.00,210.13 1115.23,213.73 1113.98,215.49              1111.85,218.48 1100.71,219.66 1097.00,219.91              1081.09,221.00 1064.28,215.83 1056.32,201.00              1049.99,189.21 1051.00,174.01 1051.00,161.00              1051.00,161.00 1051.00,92.00 1051.00,92.00              1051.00,92.00 1020.00,92.00 1020.00,92.00              1020.00,92.00 1020.00,72.00 1020.00,72.00              1020.00,72.00 1051.00,72.00 1051.00,72.00              1051.00,72.00 1051.00,32.00 1051.00,32.00 Z            M 115.00,200.00            C 110.90,208.65 99.77,214.59 91.00,217.66              65.32,226.62 34.72,218.45 17.67,197.00              -3.77,170.04 -6.14,131.26 12.23,102.00              29.91,73.84 66.70,61.93 97.00,76.32              105.41,80.31 109.56,84.57 116.00,91.00              116.00,91.00 116.00,73.00 116.00,73.00              116.00,73.00 148.00,73.00 148.00,73.00              148.00,73.00 148.00,217.79 148.00,217.79              148.00,217.79 123.00,217.79 123.00,217.79              123.00,217.79 117.74,213.89 117.74,213.89              117.74,213.89 115.00,200.00 115.00,200.00 Z            M 217.00,91.00            C 221.51,81.46 233.06,74.93 243.00,72.38              265.69,66.54 291.51,72.53 304.90,93.00              315.64,109.43 315.00,127.35 315.00,146.00              315.00,146.00 315.00,218.00 315.00,218.00              315.00,218.00 294.00,218.00 294.00,218.00              290.24,217.94 287.28,217.91 284.65,214.77              281.79,211.36 282.01,207.16 282.00,203.00              282.00,203.00 282.00,147.00 282.00,147.00              282.00,135.07 282.83,123.54 275.89,113.00              264.94,96.36 242.48,96.73 229.09,110.09              219.85,119.32 216.15,133.24 216.00,146.00              216.00,146.00 216.00,218.00 216.00,218.00              216.00,218.00 195.00,218.00 195.00,218.00              191.70,217.94 189.09,217.88 186.56,215.43              182.85,211.85 183.01,206.74 183.00,202.00              183.00,202.00 183.00,73.00 183.00,73.00              183.00,73.00 216.00,73.00 216.00,73.00              216.00,73.00 217.00,91.00 217.00,91.00 Z            M 685.00,70.23            C 687.57,70.11 689.38,69.94 692.00,70.23              710.07,70.74 728.43,77.04 742.00,89.17              769.77,114.00 774.37,159.63 752.96,190.00              739.63,208.91 717.17,220.96 694.00,221.00              694.00,221.00 685.00,221.00 685.00,221.00              675.14,220.88 663.79,217.64 655.00,213.24              617.82,194.65 603.91,147.73 622.27,111.00              632.22,91.10 650.47,77.29 672.00,72.24              672.00,72.24 685.00,70.23 685.00,70.23 Z            M 556.00,95.00            C 560.90,79.63 577.99,72.02 593.00,72.00              603.79,71.98 604.95,71.64 605.00,80.00              605.00,80.00 605.00,106.00 605.00,106.00              596.06,105.25 590.70,102.19 581.00,105.22              567.55,109.42 559.38,121.81 556.42,135.00              554.15,145.14 555.00,156.57 555.00,167.00              555.00,167.00 555.00,218.00 555.00,218.00              555.00,218.00 534.00,218.00 534.00,218.00              530.70,217.94 528.09,217.88 525.56,215.43              521.85,211.85 522.01,206.74 522.00,202.00              522.00,202.00 522.00,73.00 522.00,73.00              522.00,73.00 555.00,73.00 555.00,73.00              555.00,73.00 556.00,95.00 556.00,95.00 Z            M 1127.00,72.00            C 1127.00,72.00 1143.00,72.00 1143.00,72.00              1143.00,72.00 1150.37,72.99 1150.37,72.99              1150.37,72.99 1155.14,81.00 1155.14,81.00              1155.14,81.00 1162.78,98.00 1162.78,98.00              1162.78,98.00 1186.31,149.00 1186.31,149.00              1186.31,149.00 1203.00,186.00 1203.00,186.00              1203.00,186.00 1216.78,157.00 1216.78,157.00              1216.78,157.00 1243.14,100.00 1243.14,100.00              1243.14,100.00 1251.78,81.00 1251.78,81.00              1251.78,81.00 1256.63,72.99 1256.63,72.99              1256.63,72.99 1264.00,72.00 1264.00,72.00              1264.00,72.00 1280.00,72.00 1280.00,72.00              1280.00,72.00 1263.31,109.00 1263.31,109.00              1263.31,109.00 1227.78,185.00 1227.78,185.00              1227.78,185.00 1217.22,208.00 1217.22,208.00              1214.12,214.57 1213.72,217.85 1206.00,218.00              1203.34,218.04 1197.54,218.35 1195.39,216.98              1192.76,215.30 1191.01,209.86 1189.69,207.00              1189.69,207.00 1179.75,186.00 1179.75,186.00              1179.75,186.00 1145.69,113.00 1145.69,113.00              1145.69,113.00 1127.00,72.00 1127.00,72.00 Z            M 791.00,73.00            C 791.00,73.00 824.00,73.00 824.00,73.00              824.00,73.00 824.00,218.00 824.00,218.00              824.00,218.00 803.00,218.00 803.00,218.00              799.24,217.94 796.28,217.91 793.65,214.77              790.79,211.36 791.01,207.16 791.00,203.00              791.00,203.00 791.00,73.00 791.00,73.00 Z            M 71.00,100.29            C 56.17,102.75 45.30,109.14 38.37,123.00              24.68,150.39 39.00,190.60 73.00,191.00              82.15,191.10 87.66,191.11 96.00,186.49              128.39,168.54 124.85,112.32 88.00,101.92              82.15,100.27 77.05,99.72 71.00,100.29 Z            M 410.00,100.29            C 395.17,102.75 384.30,109.14 377.37,123.00              363.68,150.39 378.00,190.60 412.00,191.00              421.15,191.10 426.66,191.11 435.00,186.49              458.50,173.46 463.99,138.01 448.39,117.00              439.30,104.75 425.04,98.86 410.00,100.29 Z            M 920.00,100.29            C 906.16,102.59 895.40,108.33 888.35,121.00              873.10,148.41 886.92,190.58 922.00,191.00              930.83,191.10 936.96,190.88 945.00,186.48              969.16,173.26 973.80,137.07 957.47,116.00              948.48,104.39 934.46,98.92 920.00,100.29 Z            M 683.00,101.30            C 638.98,109.62 636.74,169.49 671.00,186.62              675.44,188.84 684.02,190.77 689.00,190.96              731.80,192.64 747.06,136.62 718.91,111.32              708.64,102.10 696.31,99.98 683.00,101.30 Z" />
</svg>