<svg xmlns="http://www.w3.org/2000/svg" viewBox="-0.5 -0.55 2347 2049.36">
  <path id="android-wordmark" fill="#303030" stroke="none" stroke-width="1"
    d="M 1.00,1315.00            C 1.00,1315.00 7.87,1256.00 7.87,1256.00              14.40,1209.08 24.08,1162.80 36.12,1117.00              89.75,912.94 195.56,732.73 345.00,584.00              345.00,584.00 357.00,572.96 357.00,572.96              407.59,524.57 460.80,483.13 519.00,444.33              519.00,444.33 577.00,408.80 577.00,408.80              577.00,408.80 592.00,400.30 592.00,400.30              593.89,399.25 597.04,397.81 598.01,395.79              599.16,393.41 597.54,391.04 596.42,389.00              596.42,389.00 588.28,375.00 588.28,375.00              588.28,375.00 554.28,316.00 554.28,316.00              554.28,316.00 441.15,120.00 441.15,120.00              441.15,120.00 414.00,73.00 414.00,73.00              407.26,61.28 400.48,52.30 401.04,38.00              401.72,20.51 413.66,4.66 431.00,0.68              434.89,-0.21 439.96,-0.04 444.00,0.00              464.70,0.25 472.90,14.16 482.00,30.00              482.00,30.00 512.01,82.00 512.01,82.00              512.01,82.00 618.85,267.00 618.85,267.00              618.85,267.00 650.01,321.00 650.01,321.00              650.01,321.00 672.00,360.00 672.00,360.00              672.00,360.00 737.00,332.81 737.00,332.81              784.77,314.30 835.15,298.71 885.00,286.88              944.20,272.84 1007.33,262.15 1068.00,257.91              1068.00,257.91 1113.00,255.00 1113.00,255.00              1113.00,255.00 1130.00,254.00 1130.00,254.00              1130.00,254.00 1159.00,254.00 1159.00,254.00              1159.00,254.00 1175.00,253.00 1175.00,253.00              1175.00,253.00 1190.00,254.00 1190.00,254.00              1190.00,254.00 1218.00,254.00 1218.00,254.00              1218.00,254.00 1240.00,255.00 1240.00,255.00              1240.00,255.00 1251.00,255.96 1251.00,255.96              1251.00,255.96 1301.00,259.83 1301.00,259.83              1358.99,265.63 1416.44,275.49 1473.00,289.63              1540.06,306.39 1612.49,330.52 1675.00,360.00              1675.00,360.00 1730.15,264.00 1730.15,264.00              1730.15,264.00 1796.58,149.00 1796.58,149.00              1796.58,149.00 1834.60,83.00 1834.60,83.00              1834.60,83.00 1864.72,31.00 1864.72,31.00              1873.78,15.09 1882.16,0.26 1903.00,0.00              1909.09,-0.07 1914.19,-0.35 1920.00,1.93              1942.62,10.78 1952.30,36.29 1941.63,58.00              1941.63,58.00 1921.42,93.00 1921.42,93.00              1921.42,93.00 1891.42,145.00 1891.42,145.00              1891.42,145.00 1792.72,316.00 1792.72,316.00              1792.72,316.00 1758.72,375.00 1758.72,375.00              1758.72,375.00 1750.61,389.00 1750.61,389.00              1749.46,391.02 1747.85,393.41 1748.99,395.79              1749.96,397.81 1753.11,399.25 1755.00,400.30              1755.00,400.30 1771.00,409.28 1771.00,409.28              1771.00,409.28 1826.00,443.00 1826.00,443.00              1882.73,480.80 1936.69,521.79 1986.00,568.96              1986.00,568.96 1997.00,579.00 1997.00,579.00              2053.64,634.98 2104.82,695.11 2149.66,761.00              2221.56,866.68 2274.23,984.01 2308.42,1107.00              2321.19,1152.93 2331.47,1200.80 2338.27,1248.00              2340.45,1263.11 2345.99,1301.48 2346.00,1315.00              2346.00,1315.00 1.00,1315.00 1.00,1315.00 Z            M 631.00,789.28            C 620.07,790.85 615.24,790.61 604.00,794.35              580.74,802.10 560.38,819.33 548.89,841.00              539.21,859.25 537.77,873.92 538.00,894.00              538.10,901.97 540.14,910.48 542.67,918.00              552.76,948.02 574.91,970.06 605.00,980.00              613.45,982.79 624.09,984.89 633.00,985.00              648.49,985.18 663.99,981.85 678.00,975.22              688.47,970.26 697.89,963.26 705.95,955.00              742.81,917.42 741.50,856.82 705.95,819.00              696.02,808.50 683.32,800.87 670.00,795.60              659.78,791.56 641.90,788.27 631.00,789.28 Z            M 1707.00,789.28            C 1695.62,790.92 1691.64,790.60 1680.00,794.52              1657.74,802.00 1638.55,817.58 1626.87,838.00              1596.57,891.00 1621.16,958.73 1679.00,979.31              1688.02,982.52 1700.43,984.88 1710.00,985.00              1724.78,985.17 1740.71,981.77 1754.00,975.24              1767.43,968.64 1777.97,960.67 1787.54,949.00              1821.90,907.08 1814.63,843.42 1772.00,810.01              1763.00,802.96 1751.97,797.02 1741.00,793.72              1731.70,790.92 1716.60,788.39 1707.00,789.28 Z            M 1892.00,1527.44            C 1910.58,1525.06 1927.44,1530.33 1939.68,1545.00              1960.62,1570.11 1951.97,1610.08 1922.00,1623.69              1913.39,1627.60 1907.25,1628.10 1898.00,1628.00              1857.95,1627.53 1836.96,1581.28 1858.10,1549.00              1866.09,1536.80 1877.92,1530.07 1892.00,1527.44 Z            M 1069.00,1531.00            C 1069.00,1531.00 1146.00,1531.00 1146.00,1531.00              1146.00,1531.00 1146.00,2042.00 1146.00,2042.00              1146.00,2042.00 1095.00,2042.00 1095.00,2042.00              1084.52,2041.95 1076.34,2038.92 1071.38,2029.00              1067.72,2021.71 1069.00,2008.35 1069.00,2000.00              1058.90,2010.99 1053.63,2016.68 1041.00,2025.25              1021.43,2038.54 991.71,2047.96 968.00,2048.00              968.00,2048.00 953.00,2048.00 953.00,2048.00              925.74,2047.68 896.94,2037.43 874.00,2023.19              827.96,1994.59 801.78,1941.94 797.91,1889.00              797.91,1889.00 797.00,1879.00 797.00,1879.00              796.46,1832.45 806.97,1786.02 838.29,1750.00              867.10,1716.86 911.41,1693.07 956.00,1693.00              956.00,1693.00 967.00,1693.00 967.00,1693.00              992.54,1693.04 1019.97,1702.05 1041.00,1716.34              1052.61,1724.23 1060.07,1731.13 1069.00,1742.00              1069.00,1742.00 1069.00,1531.00 1069.00,1531.00 Z            M 2270.00,1531.00            C 2270.00,1531.00 2346.00,1531.00 2346.00,1531.00              2346.00,1531.00 2346.00,2042.00 2346.00,2042.00              2346.00,2042.00 2295.00,2042.00 2295.00,2042.00              2285.55,2041.89 2277.25,2038.58 2272.36,2030.00              2267.51,2021.47 2271.77,2008.73 2269.00,1999.00              2266.36,2004.58 2261.40,2008.86 2256.96,2013.07              2244.93,2024.48 2228.68,2034.21 2213.00,2039.66              2150.88,2061.22 2080.47,2041.54 2038.43,1991.00              2014.79,1962.58 1998.06,1919.19 1998.00,1882.00              1998.00,1882.00 1998.00,1858.00 1998.00,1858.00              1998.36,1827.74 2010.87,1789.96 2027.74,1765.00              2052.15,1728.89 2088.21,1704.42 2131.00,1696.00              2138.75,1694.48 2149.16,1693.01 2157.00,1693.00              2157.00,1693.00 2170.00,1693.00 2170.00,1693.00              2184.12,1693.17 2206.01,1698.29 2219.00,1703.87              2241.67,1713.61 2253.54,1724.09 2270.00,1742.00              2270.00,1742.00 2270.00,1531.00 2270.00,1531.00 Z            M 270.00,2000.00            C 267.56,2005.17 263.10,2009.04 259.00,2012.96              247.51,2023.95 233.70,2032.14 219.00,2038.00              196.41,2047.01 178.91,2048.28 155.00,2048.00              146.11,2047.89 132.72,2045.54 124.00,2043.37              89.96,2034.90 61.86,2017.00 39.43,1990.00              16.44,1962.32 0.06,1919.18 0.00,1883.00              0.00,1883.00 0.00,1856.00 0.00,1856.00              0.00,1856.00 1.73,1840.00 1.73,1840.00              5.75,1811.91 15.35,1785.32 31.72,1762.00              59.59,1722.29 108.71,1693.08 158.00,1693.00              158.00,1693.00 172.00,1693.00 172.00,1693.00              187.40,1693.18 210.00,1698.90 224.00,1705.31              236.77,1711.16 252.06,1721.13 261.96,1731.04              261.96,1731.04 271.00,1741.00 271.00,1741.00              271.00,1741.00 271.00,1701.00 271.00,1701.00              271.00,1701.00 348.00,1701.00 348.00,1701.00              348.00,1701.00 348.00,2042.00 348.00,2042.00              348.00,2042.00 298.00,2042.00 298.00,2042.00              287.87,2041.95 279.72,2039.34 274.36,2030.00              268.39,2019.60 272.93,2010.32 270.00,2000.00 Z            M 509.00,1741.00            C 511.71,1734.99 516.38,1730.60 521.00,1726.00              532.70,1714.34 547.34,1705.57 563.00,1700.33              605.52,1686.11 656.31,1691.31 692.00,1719.67              702.89,1728.32 712.11,1739.38 719.66,1751.00              731.34,1769.00 739.97,1797.49 740.00,1819.00              740.00,1819.00 740.00,1865.00 740.00,1865.00              740.00,1865.00 740.00,2042.00 740.00,2042.00              740.00,2042.00 701.00,2042.00 701.00,2042.00              693.86,2042.00 684.61,2042.71 678.00,2040.19              666.63,2035.85 663.02,2026.20 663.00,2015.00              663.00,2015.00 663.00,1876.00 663.00,1876.00              663.00,1846.44 666.29,1820.23 649.30,1794.00              625.44,1757.16 576.34,1754.95 544.00,1781.46              522.21,1799.32 508.33,1830.91 508.00,1859.00              508.00,1859.00 508.00,2042.00 508.00,2042.00              508.00,2042.00 469.00,2042.00 469.00,2042.00              454.41,2042.00 436.87,2044.03 431.93,2026.00              430.94,2022.39 431.01,2019.67 431.00,2016.00              431.00,2016.00 431.00,1701.00 431.00,1701.00              431.00,1701.00 508.00,1701.00 508.00,1701.00              508.00,1709.65 507.06,1734.19 509.00,1741.00 Z            M 1608.00,1693.21            C 1608.00,1693.21 1632.00,1693.21 1632.00,1693.21              1650.86,1693.03 1675.47,1698.44 1693.00,1705.40              1710.51,1712.35 1731.22,1724.27 1745.00,1737.09              1760.94,1751.91 1776.27,1770.20 1785.68,1790.00              1825.32,1873.42 1799.51,1975.18 1719.00,2023.80              1694.83,2038.39 1660.27,2047.96 1632.00,2048.00              1632.00,2048.00 1614.00,2048.00 1614.00,2048.00              1599.90,2047.83 1578.45,2043.44 1565.00,2039.00              1537.93,2030.06 1512.60,2014.95 1493.09,1994.00              1463.58,1962.32 1449.84,1925.65 1446.91,1883.00              1446.91,1883.00 1446.00,1873.00 1446.00,1873.00              1446.00,1873.00 1447.04,1858.00 1447.04,1858.00              1447.04,1858.00 1447.04,1850.00 1447.04,1850.00              1449.06,1830.27 1455.41,1806.72 1464.27,1789.00              1486.68,1744.17 1526.47,1713.88 1574.00,1699.72              1585.22,1696.38 1596.49,1695.07 1608.00,1693.21 Z            M 1307.00,1753.00            C 1309.10,1745.67 1315.04,1736.95 1319.81,1731.00              1336.91,1709.66 1363.65,1697.04 1391.00,1697.00              1391.00,1697.00 1404.00,1697.00 1404.00,1697.00              1404.00,1697.00 1424.00,1699.00 1424.00,1699.00              1424.00,1699.00 1424.00,1779.00 1424.00,1779.00              1408.76,1775.52 1405.88,1773.36 1389.00,1772.74              1340.35,1770.96 1306.07,1819.78 1306.00,1865.00              1306.00,1865.00 1306.00,2042.00 1306.00,2042.00              1306.00,2042.00 1266.00,2042.00 1266.00,2042.00              1258.92,2042.00 1249.62,2042.61 1243.00,2040.40              1231.90,2036.71 1229.02,2028.68 1229.00,2018.00              1229.00,2018.00 1229.00,1701.00 1229.00,1701.00              1229.00,1701.00 1306.00,1701.00 1306.00,1701.00              1306.00,1701.00 1306.00,1734.00 1306.00,1734.00              1306.00,1734.00 1307.00,1753.00 1307.00,1753.00 Z            M 1862.00,1701.00            C 1862.00,1701.00 1939.00,1701.00 1939.00,1701.00              1939.00,1701.00 1939.00,2042.00 1939.00,2042.00              1939.00,2042.00 1889.00,2042.00 1889.00,2042.00              1882.23,2041.97 1875.45,2041.10 1870.04,2036.61              1862.86,2030.65 1862.01,2021.70 1862.00,2013.00              1862.00,2013.00 1862.00,1701.00 1862.00,1701.00 Z            M 175.00,1763.30            C 163.88,1764.83 159.75,1764.18 148.00,1767.72              124.87,1774.69 105.76,1790.31 93.45,1811.00              80.92,1832.06 77.72,1852.96 78.00,1877.00              78.50,1919.61 106.41,1960.13 147.00,1973.67              156.01,1976.67 166.48,1978.89 176.00,1979.00              188.91,1979.14 204.26,1976.07 216.00,1970.69              272.02,1945.04 292.08,1877.55 267.30,1823.00              260.52,1808.07 251.72,1795.57 239.00,1785.08              229.85,1777.54 220.25,1772.10 209.00,1768.35              200.16,1765.41 184.21,1762.83 175.00,1763.30 Z            M 972.00,1763.24            C 959.41,1765.08 956.34,1764.03 943.00,1768.52              913.02,1778.60 892.01,1801.42 881.69,1831.00              861.46,1889.02 889.47,1963.21 954.00,1976.40              961.72,1977.98 972.19,1979.58 980.00,1978.83              1023.59,1974.68 1056.65,1948.04 1069.97,1906.00              1075.14,1889.68 1075.19,1879.70 1075.00,1863.00              1074.63,1831.67 1052.76,1793.41 1026.00,1777.45              1010.30,1768.09 994.01,1764.46 976.00,1763.24              976.00,1763.24 972.00,1763.24 972.00,1763.24 Z            M 2173.00,1763.30            C 2161.62,1764.86 2156.90,1764.26 2145.00,1768.03              2120.51,1775.79 2101.48,1792.53 2089.31,1815.00              2079.68,1832.78 2075.97,1852.96 2076.00,1873.00              2076.07,1918.08 2102.45,1959.61 2146.00,1974.00              2154.43,1976.79 2165.12,1978.90 2174.00,1979.00              2186.77,1979.14 2200.18,1976.34 2212.00,1971.60              2224.77,1966.48 2234.29,1959.71 2244.00,1950.00              2280.66,1913.34 2286.05,1854.83 2259.19,1811.00              2251.81,1798.96 2243.57,1789.26 2232.00,1781.04              2223.78,1775.20 2214.66,1770.63 2205.00,1767.72              2196.68,1765.21 2181.56,1762.86 2173.00,1763.30 Z            M 1613.00,1765.14            C 1569.71,1771.90 1538.57,1798.17 1527.15,1841.00              1512.99,1894.13 1537.44,1952.23 1591.00,1971.31              1599.52,1974.34 1608.90,1976.89 1618.00,1977.00              1636.64,1977.21 1649.83,1976.11 1667.00,1967.74              1734.39,1934.89 1746.75,1837.55 1690.00,1788.87              1681.94,1781.96 1672.89,1776.12 1663.00,1772.20              1653.13,1768.29 1640.65,1765.05 1630.00,1765.14              1630.00,1765.14 1613.00,1765.14 1613.00,1765.14 Z" />
</svg>