<svg xmlns="http://www.w3.org/2000/svg" viewBox="129.5 122.25 765 819.83">
  <path id="angular" fill="#303030" stroke="none" stroke-width="1"
    d="M 130.00,258.00            C 130.00,258.00 157.00,248.69 157.00,248.69              157.00,248.69 214.00,228.34 214.00,228.34              214.00,228.34 408.00,159.31 408.00,159.31              408.00,159.31 479.00,133.95 479.00,133.95              479.00,133.95 500.00,126.42 500.00,126.42              500.00,126.42 512.00,122.75 512.00,122.75              512.00,122.75 523.00,126.00 523.00,126.00              523.00,126.00 546.00,134.31 546.00,134.31              546.00,134.31 619.00,160.31 619.00,160.31              619.00,160.31 797.00,223.69 797.00,223.69              797.00,223.69 868.00,249.00 868.00,249.00              868.00,249.00 894.00,258.00 894.00,258.00              894.00,258.00 889.28,298.00 889.28,298.00              889.28,298.00 880.16,377.00 880.16,377.00              880.16,377.00 852.16,620.00 852.16,620.00              852.16,620.00 840.28,723.00 840.28,723.00              840.28,723.00 837.07,751.00 837.07,751.00              836.84,753.52 836.27,761.57 835.01,763.37              833.56,765.42 817.34,773.95 814.00,775.77              814.00,775.77 766.00,802.30 766.00,802.30              766.00,802.30 589.00,900.30 589.00,900.30              589.00,900.30 534.00,930.77 534.00,930.77              529.56,933.18 516.18,941.58 512.00,941.58              507.82,941.58 494.44,933.18 490.00,930.77              490.00,930.77 435.00,900.30 435.00,900.30              435.00,900.30 258.00,802.30 258.00,802.30              258.00,802.30 211.00,776.25 211.00,776.25              211.00,776.25 196.00,768.00 196.00,768.00              194.19,766.97 190.11,764.95 188.99,763.37              187.73,761.57 187.16,753.52 186.93,751.00              186.93,751.00 183.72,723.00 183.72,723.00              183.72,723.00 171.84,620.00 171.84,620.00              171.84,620.00 143.84,377.00 143.84,377.00              143.84,377.00 134.72,298.00 134.72,298.00              134.72,298.00 130.00,258.00 130.00,258.00 Z            M 513.00,214.00            C 513.00,214.00 511.00,214.00 511.00,214.00              511.00,214.00 458.86,331.00 458.86,331.00              458.86,331.00 334.14,611.00 334.14,611.00              334.14,611.00 273.00,748.00 273.00,748.00              273.00,748.00 355.00,748.00 355.00,748.00              355.00,748.00 362.35,747.01 362.35,747.01              362.35,747.01 366.60,739.00 366.60,739.00              366.60,739.00 373.80,721.00 373.80,721.00              373.80,721.00 398.40,660.00 398.40,660.00              398.40,660.00 410.00,629.00 410.00,629.00              410.00,629.00 604.00,629.00 604.00,629.00              606.22,629.00 609.70,628.78 611.59,630.02              614.34,631.85 619.63,647.09 621.20,651.00              621.20,651.00 649.80,722.00 649.80,722.00              649.80,722.00 657.00,740.00 657.00,740.00              657.77,741.92 659.06,745.79 660.70,747.01              662.38,748.26 665.94,748.00 668.00,748.00              668.00,748.00 750.00,748.00 750.00,748.00              750.00,748.00 728.86,700.00 728.86,700.00              728.86,700.00 684.86,601.00 684.86,601.00              684.86,601.00 567.14,336.00 567.14,336.00              567.14,336.00 513.00,214.00 513.00,214.00 Z            M 511.00,389.00            C 515.00,391.99 516.52,398.47 518.42,403.00              518.42,403.00 530.85,433.00 530.85,433.00              530.85,433.00 562.42,509.00 562.42,509.00              562.42,509.00 581.00,554.00 581.00,554.00              581.00,554.00 443.00,554.00 443.00,554.00              443.00,554.00 461.58,509.00 461.58,509.00              461.58,509.00 491.42,437.00 491.42,437.00              491.42,437.00 511.00,389.00 511.00,389.00 Z" />
</svg>