<svg xmlns="http://www.w3.org/2000/svg" viewBox="6.5 3.55 2547 966.95">
  <path id="apache-wordmark" fill="#303030" stroke="none" stroke-width="1"
    d="M 79.00,650.00            C 79.00,650.00 88.36,582.00 88.36,582.00              94.22,554.42 101.66,526.93 110.02,500.00              126.61,446.63 150.18,395.55 175.74,346.00              214.94,270.02 258.40,201.28 308.42,132.00              333.85,96.79 361.29,62.71 392.00,32.00              403.53,20.47 420.27,3.06 438.00,4.09              448.44,4.70 456.10,9.39 464.00,15.80              482.80,31.07 491.96,56.23 492.00,80.00              492.03,96.46 492.36,103.33 489.57,120.00              483.95,153.46 467.40,188.32 451.31,218.00              440.20,238.49 422.01,270.64 405.00,285.83              396.22,293.67 387.04,298.29 377.00,304.00              397.66,301.09 409.83,291.90 419.00,289.00              415.74,306.33 408.13,325.24 400.25,341.00              393.71,354.07 388.51,364.31 377.91,374.91              367.89,384.94 356.42,391.52 344.00,398.00              363.24,395.29 373.74,385.30 385.00,381.00              383.38,386.56 379.26,392.98 376.19,398.00              366.51,413.80 351.79,429.19 336.00,438.94              336.00,438.94 323.00,446.00 323.00,446.00              323.00,446.00 342.00,440.95 342.00,440.95              342.00,440.95 355.00,436.00 355.00,436.00              353.87,443.29 350.75,450.07 348.34,457.00              348.34,457.00 331.86,499.00 331.86,499.00              307.82,553.37 279.25,599.04 227.00,630.55              215.90,637.25 200.23,645.04 188.00,649.31              188.00,649.31 168.00,655.00 168.00,655.00              192.14,660.89 223.20,653.52 244.00,640.58              259.35,631.02 260.81,626.83 271.00,620.00              269.04,626.89 264.86,632.91 261.20,639.00              255.69,648.18 247.71,659.51 239.96,666.83              223.62,682.29 210.18,688.04 191.00,698.00              201.19,698.00 214.11,696.84 223.00,691.52              223.00,691.52 238.00,680.00 238.00,680.00              234.94,687.10 231.08,693.88 226.34,700.00              198.69,735.67 154.95,741.00 113.00,741.00              123.23,752.17 129.30,764.73 130.00,780.00              126.37,777.68 124.85,773.59 122.56,770.00              119.69,765.48 114.69,759.08 110.83,755.43              108.66,753.37 102.88,749.63 102.48,746.79              102.10,744.16 105.52,735.82 106.58,733.00              106.58,733.00 115.66,707.00 115.66,707.00              115.66,707.00 153.81,603.00 153.81,603.00              187.23,516.73 222.70,431.65 262.22,348.00              262.22,348.00 298.78,274.00 298.78,274.00              317.68,238.18 337.18,202.64 358.20,168.00              358.20,168.00 382.05,130.00 382.05,130.00              382.05,130.00 393.00,113.00 393.00,113.00              379.14,129.13 349.75,175.30 337.80,195.00              308.89,242.61 278.92,297.42 255.69,348.00              255.69,348.00 238.31,384.00 238.31,384.00              238.31,384.00 208.86,449.00 208.86,449.00              182.68,508.26 158.61,568.46 135.58,629.00              135.58,629.00 122.42,662.00 122.42,662.00              122.42,662.00 93.69,741.00 93.69,741.00              73.43,797.94 53.92,855.28 35.98,913.00              35.98,913.00 25.34,947.00 25.34,947.00              21.77,958.18 20.12,966.71 7.00,970.00              7.00,970.00 13.28,948.00 13.28,948.00              13.28,948.00 26.98,904.00 26.98,904.00              26.98,904.00 63.00,793.00 63.00,793.00              63.00,793.00 81.00,741.00 81.00,741.00              65.11,738.15 47.08,742.44 32.00,747.69              32.00,747.69 17.00,753.00 17.00,753.00              20.95,747.95 25.73,745.17 31.00,741.67              41.10,734.96 54.65,726.60 67.00,726.00              63.27,722.70 58.35,721.08 54.00,718.69              46.70,714.68 36.84,707.70 32.00,701.00              49.22,704.93 58.97,711.51 78.00,709.00              76.22,687.09 65.64,663.87 54.85,645.00              50.83,637.96 39.54,622.29 38.00,616.00              53.37,624.22 68.66,635.93 79.00,650.00 Z            M 411.00,89.00            C 411.00,89.00 410.00,89.00 410.00,89.00              410.00,89.00 411.00,90.00 411.00,90.00              411.00,90.00 411.00,89.00 411.00,89.00 Z            M 408.00,93.00            C 408.00,93.00 407.00,93.00 407.00,93.00              407.00,93.00 408.00,94.00 408.00,94.00              408.00,94.00 408.00,93.00 408.00,93.00 Z            M 407.00,94.00            C 407.00,94.00 406.00,94.00 406.00,94.00              406.00,94.00 407.00,95.00 407.00,95.00              407.00,95.00 407.00,94.00 407.00,94.00 Z            M 405.00,97.00            C 405.00,97.00 404.00,97.00 404.00,97.00              404.00,97.00 405.00,98.00 405.00,98.00              405.00,98.00 405.00,97.00 405.00,97.00 Z            M 404.00,98.00            C 404.00,98.00 403.00,98.00 403.00,98.00              403.00,98.00 404.00,99.00 404.00,99.00              404.00,99.00 404.00,98.00 404.00,98.00 Z            M 402.00,101.00            C 402.00,101.00 401.00,101.00 401.00,101.00              401.00,101.00 402.00,102.00 402.00,102.00              402.00,102.00 402.00,101.00 402.00,101.00 Z            M 401.00,102.00            C 401.00,102.00 400.00,102.00 400.00,102.00              400.00,102.00 401.00,103.00 401.00,103.00              401.00,103.00 401.00,102.00 401.00,102.00 Z            M 399.00,105.00            C 399.00,105.00 398.00,105.00 398.00,105.00              398.00,105.00 399.00,106.00 399.00,106.00              399.00,106.00 399.00,105.00 399.00,105.00 Z            M 396.00,109.00            C 396.00,109.00 395.00,109.00 395.00,109.00              395.00,109.00 396.00,110.00 396.00,110.00              396.00,110.00 396.00,109.00 396.00,109.00 Z            M 1134.00,653.00            C 1135.35,644.29 1143.81,625.97 1147.58,617.00              1147.58,617.00 1175.58,550.00 1175.58,550.00              1175.58,550.00 1261.42,346.00 1261.42,346.00              1261.42,346.00 1287.15,285.00 1287.15,285.00              1289.18,280.23 1294.42,264.31 1298.22,262.02              1301.86,259.83 1319.99,259.91 1325.00,260.00              1326.78,260.04 1328.98,259.97 1330.50,261.02              1333.08,262.79 1338.27,277.29 1339.85,281.00              1339.85,281.00 1368.99,350.00 1368.99,350.00              1368.99,350.00 1429.42,494.00 1429.42,494.00              1429.42,494.00 1458.60,563.00 1458.60,563.00              1458.60,563.00 1484.01,624.00 1484.01,624.00              1487.22,631.79 1494.20,645.26 1495.00,653.00              1495.00,653.00 1485.00,653.67 1485.00,653.67              1479.42,654.29 1467.49,654.15 1462.00,653.67              1459.56,653.10 1455.15,653.12 1453.21,651.98              1449.34,649.70 1445.22,637.50 1443.28,633.00              1443.28,633.00 1421.72,581.00 1421.72,581.00              1421.72,581.00 1407.42,547.00 1407.42,547.00              1406.15,544.03 1402.49,534.32 1400.50,532.60              1398.29,530.67 1394.76,531.01 1392.00,531.00              1392.00,531.00 1236.00,531.00 1236.00,531.00              1225.26,531.02 1226.31,532.48 1220.40,547.00              1220.40,547.00 1205.55,584.00 1205.55,584.00              1205.55,584.00 1183.20,637.00 1183.20,637.00              1181.82,640.41 1178.25,651.22 1175.59,652.98              1173.70,654.22 1170.22,654.00 1168.00,654.00              1168.00,654.00 1149.00,654.00 1149.00,654.00              1149.00,654.00 1134.00,653.00 1134.00,653.00 Z            M 1660.00,260.21            C 1660.00,260.21 1693.00,260.21 1693.00,260.21              1718.67,260.30 1750.42,270.40 1772.00,284.09              1781.19,289.92 1789.34,297.34 1797.00,305.00              1806.36,314.36 1812.63,321.34 1819.14,333.00              1820.85,336.06 1824.59,342.33 1823.36,345.82              1822.49,348.29 1819.11,350.27 1817.00,351.66              1817.00,351.66 1800.00,361.68 1800.00,361.68              1797.12,362.99 1794.13,364.18 1791.21,362.22              1791.21,362.22 1780.33,346.00 1780.33,346.00              1772.41,335.87 1761.53,325.43 1751.00,318.04              1706.07,286.45 1633.53,290.46 1592.00,326.21              1569.12,345.90 1553.41,369.71 1543.31,398.00              1540.77,405.12 1539.33,408.31 1537.66,416.00              1533.68,434.38 1533.79,449.43 1534.00,468.00              1534.09,475.32 1537.40,495.83 1539.43,503.00              1544.38,520.54 1555.68,544.57 1566.68,559.00              1572.55,566.71 1578.22,572.22 1585.00,579.00              1598.37,592.37 1614.36,603.42 1632.00,610.40              1649.21,617.21 1663.65,619.21 1682.00,619.00              1682.00,619.00 1692.00,618.09 1692.00,618.09              1725.26,615.66 1749.82,602.55 1774.00,579.91              1778.58,575.62 1786.71,566.20 1790.25,561.00              1792.31,557.99 1796.20,550.57 1799.18,549.06              1802.12,547.58 1805.36,549.47 1808.00,550.76              1808.00,550.76 1825.00,559.72 1825.00,559.72              1827.18,560.98 1830.50,562.60 1831.30,565.18              1832.26,568.30 1828.24,575.10 1826.74,578.00              1820.60,589.87 1810.07,601.88 1800.00,610.58              1800.00,610.58 1785.00,622.96 1785.00,622.96              1767.25,635.57 1736.55,648.94 1715.00,652.57              1696.09,655.75 1674.29,655.22 1655.00,655.00              1646.62,654.90 1624.94,649.22 1617.00,645.99              1617.00,645.99 1599.00,637.25 1599.00,637.25              1599.00,637.25 1584.00,629.30 1584.00,629.30              1532.77,596.20 1497.15,533.67 1492.91,473.00              1492.91,473.00 1492.00,463.00 1492.00,463.00              1491.71,437.91 1493.50,417.24 1500.72,393.00              1503.30,384.35 1506.96,376.19 1510.69,368.00              1510.69,368.00 1514.31,359.28 1514.31,359.28              1514.31,359.28 1518.21,352.99 1518.21,352.99              1537.06,319.30 1565.79,291.47 1601.00,275.31              1608.89,271.69 1626.71,265.14 1635.00,263.45              1635.00,263.45 1660.00,260.21 1660.00,260.21 Z            M 638.70,261.99            C 643.13,260.11 658.33,260.99 664.00,261.00              666.13,261.00 669.59,260.75 671.36,261.99              673.82,263.71 678.66,276.54 680.15,280.00              680.15,280.00 704.42,338.00 704.42,338.00              704.42,338.00 715.99,365.00 715.99,365.00              715.99,365.00 761.15,472.00 761.15,472.00              761.15,472.00 805.86,579.00 805.86,579.00              805.86,579.00 818.42,609.00 818.42,609.00              818.42,609.00 829.20,634.00 829.20,634.00              830.56,637.39 836.53,649.54 834.22,652.40              832.66,654.33 828.28,654.00 826.00,654.00              826.00,654.00 800.00,654.00 800.00,654.00              797.42,653.96 794.58,654.04 792.50,652.26              790.48,650.55 788.83,645.55 787.80,643.00              787.80,643.00 780.60,626.00 780.60,626.00              780.60,626.00 750.58,554.00 750.58,554.00              748.91,549.64 743.18,534.07 739.78,532.02              737.74,530.80 734.34,531.00 732.00,531.00              732.00,531.00 577.00,531.00 577.00,531.00              574.63,531.00 571.28,530.80 569.21,532.02              566.54,533.60 565.31,537.26 564.20,540.00              564.20,540.00 556.40,559.00 556.40,559.00              556.40,559.00 526.60,631.00 526.60,631.00              524.91,635.16 519.54,649.92 516.61,652.07              514.14,653.88 509.96,653.96 507.00,654.00              507.00,654.00 483.00,654.00 483.00,654.00              480.84,654.00 476.44,654.37 475.06,652.40              473.75,650.53 475.02,647.82 475.79,646.00              475.79,646.00 482.28,631.00 482.28,631.00              482.28,631.00 512.40,560.00 512.40,560.00              512.40,560.00 523.58,534.00 523.58,534.00              523.58,534.00 552.42,464.00 552.42,464.00              552.42,464.00 596.99,359.00 596.99,359.00              596.99,359.00 625.15,292.00 625.15,292.00              628.10,285.07 634.52,266.87 638.70,261.99 Z            M 877.00,261.00            C 877.00,261.00 1031.00,261.00 1031.00,261.00              1031.00,261.00 1046.00,262.00 1046.00,262.00              1061.96,262.18 1070.47,264.14 1085.00,270.70              1091.23,273.50 1095.11,274.95 1101.00,278.89              1132.54,299.97 1156.55,340.62 1157.00,379.00              1157.41,413.96 1148.27,447.81 1123.91,474.00              1110.97,487.92 1091.75,501.61 1073.00,506.10              1063.01,508.50 1052.21,507.98 1042.00,508.00              1042.00,508.00 1027.00,509.00 1027.00,509.00              1027.00,509.00 917.00,509.00 917.00,509.00              917.00,509.00 917.00,654.00 917.00,654.00              917.00,654.00 877.00,654.00 877.00,654.00              877.00,654.00 877.00,261.00 877.00,261.00 Z            M 1885.00,261.00            C 1885.00,261.00 1924.00,261.00 1924.00,261.00              1924.00,261.00 1924.00,290.00 1924.00,290.00              1924.00,290.00 1925.00,307.00 1925.00,307.00              1925.00,307.00 1925.00,435.00 1925.00,435.00              1925.00,435.00 2155.00,435.00 2155.00,435.00              2155.00,435.00 2155.00,261.00 2155.00,261.00              2155.00,261.00 2196.00,261.00 2196.00,261.00              2196.00,261.00 2196.00,654.00 2196.00,654.00              2196.00,654.00 2155.00,654.00 2155.00,654.00              2155.00,654.00 2155.00,471.00 2155.00,471.00              2155.00,471.00 1925.00,471.00 1925.00,471.00              1925.00,471.00 1925.00,608.00 1925.00,608.00              1925.00,608.00 1924.00,623.00 1924.00,623.00              1924.00,623.00 1924.00,654.00 1924.00,654.00              1924.00,654.00 1895.00,654.00 1895.00,654.00              1895.00,654.00 1886.57,652.83 1886.57,652.83              1886.57,652.83 1885.00,645.00 1885.00,645.00              1885.00,645.00 1885.00,261.00 1885.00,261.00 Z            M 2283.00,261.00            C 2283.00,261.00 2542.00,261.00 2542.00,261.00              2542.00,261.00 2542.00,298.00 2542.00,298.00              2542.00,298.00 2323.00,298.00 2323.00,298.00              2323.00,298.00 2323.00,435.00 2323.00,435.00              2323.00,435.00 2514.00,435.00 2514.00,435.00              2514.00,435.00 2514.00,471.00 2514.00,471.00              2514.00,471.00 2323.00,471.00 2323.00,471.00              2323.00,471.00 2323.00,616.00 2323.00,616.00              2323.00,616.00 2547.00,616.00 2547.00,616.00              2547.00,616.00 2547.00,654.00 2547.00,654.00              2547.00,654.00 2282.00,654.00 2282.00,654.00              2282.00,654.00 2282.00,610.00 2282.00,610.00              2282.00,610.00 2283.00,593.00 2283.00,593.00              2283.00,593.00 2283.00,261.00 2283.00,261.00 Z            M 917.00,473.00            C 917.00,473.00 1000.00,473.00 1000.00,473.00              1000.00,473.00 1015.00,472.00 1015.00,472.00              1041.96,471.96 1063.85,474.69 1086.00,455.70              1091.95,450.60 1097.43,443.65 1101.58,437.00              1114.64,416.07 1115.27,400.82 1115.00,377.00              1114.91,369.49 1113.37,361.10 1110.92,354.00              1104.91,336.53 1092.30,319.74 1077.00,309.36              1060.03,297.85 1054.33,299.03 1035.00,299.00              1035.00,299.00 1019.00,298.00 1019.00,298.00              1019.00,298.00 917.00,298.00 917.00,298.00              917.00,298.00 917.00,473.00 917.00,473.00 Z            M 376.00,304.00            C 376.00,304.00 375.00,304.00 375.00,304.00              375.00,304.00 376.00,305.00 376.00,305.00              376.00,305.00 376.00,304.00 376.00,304.00 Z            M 657.00,311.00            C 657.00,311.00 648.72,328.00 648.72,328.00              648.72,328.00 633.72,364.00 633.72,364.00              633.72,364.00 596.58,453.00 596.58,453.00              596.58,453.00 578.00,499.00 578.00,499.00              578.00,499.00 717.00,499.00 717.00,499.00              717.00,499.00 732.00,498.00 732.00,498.00              732.00,498.00 714.40,454.00 714.40,454.00              714.40,454.00 684.40,379.00 684.40,379.00              684.40,379.00 671.47,348.00 671.47,348.00              671.47,348.00 657.00,311.00 657.00,311.00 Z            M 1315.00,314.00            C 1315.00,314.00 1313.00,314.00 1313.00,314.00              1313.00,314.00 1305.70,331.00 1305.70,331.00              1305.70,331.00 1275.58,402.00 1275.58,402.00              1275.58,402.00 1248.58,466.00 1248.58,466.00              1248.58,466.00 1235.00,499.00 1235.00,499.00              1235.00,499.00 1390.00,499.00 1390.00,499.00              1390.00,499.00 1379.80,473.00 1379.80,473.00              1379.80,473.00 1360.42,425.00 1360.42,425.00              1360.42,425.00 1315.00,314.00 1315.00,314.00 Z            M 966.00,804.00            C 968.36,799.58 971.62,795.78 974.92,792.02              976.21,790.55 977.95,788.24 980.09,788.18              982.21,788.12 990.44,794.30 993.00,795.77              1004.05,802.14 1023.28,807.39 1033.96,797.79              1036.05,795.91 1037.83,793.76 1038.57,791.00              1041.95,778.37 1026.05,773.73 1017.00,771.37              995.12,765.68 972.65,761.34 971.09,734.00              970.90,730.65 971.46,727.28 972.09,724.00              977.21,697.48 1010.30,693.67 1032.00,698.65              1038.01,700.03 1053.13,704.89 1056.29,710.18              1059.00,714.72 1049.39,725.17 1046.00,728.00              1036.13,719.68 1020.93,714.88 1008.00,717.32              999.29,718.95 990.70,726.60 995.45,736.00              999.67,744.33 1013.58,747.20 1022.00,749.37              1043.71,754.95 1062.59,761.50 1061.99,788.00              1061.14,825.01 1015.56,828.81 989.00,817.99              978.52,813.72 974.82,810.48 966.00,804.00 Z            M 2036.00,699.42            C 2056.77,696.89 2078.04,702.80 2092.83,718.09              2120.67,746.86 2113.80,796.61 2079.00,816.77              2065.60,824.53 2054.94,825.17 2040.00,825.00              1992.83,824.44 1966.19,772.44 1986.98,732.00              1997.13,712.26 2014.86,702.62 2036.00,699.42 Z            M 2432.00,735.00            C 2422.94,727.59 2417.03,722.34 2405.00,720.44              2383.21,717.00 2361.20,730.16 2355.90,752.00              2354.86,756.29 2354.95,759.64 2355.00,764.00              2355.28,787.45 2375.34,804.10 2398.00,804.00              2405.68,803.97 2411.37,802.55 2418.00,798.54              2420.73,796.88 2427.61,791.12 2430.00,790.90              2434.14,790.51 2444.31,800.73 2442.83,805.00              2441.75,808.11 2435.74,812.64 2433.00,814.56              2419.64,823.94 2408.63,825.02 2393.00,825.00              2370.36,824.96 2348.62,812.50 2338.37,792.00              2335.59,786.44 2333.73,779.14 2332.87,773.00              2329.11,746.18 2339.23,719.94 2364.00,706.78              2378.01,699.34 2387.60,698.82 2403.00,699.00              2414.85,699.14 2427.59,703.77 2437.00,710.90              2439.44,712.74 2444.74,716.73 2444.82,720.00              2444.92,724.25 2435.32,732.62 2432.00,735.00 Z            M 464.00,700.00            C 464.00,700.00 485.00,700.00 485.00,700.00              485.00,700.00 485.00,753.00 485.00,753.00              485.00,753.00 545.00,753.00 545.00,753.00              545.00,753.00 545.00,700.00 545.00,700.00              545.00,700.00 567.00,700.00 567.00,700.00              567.00,700.00 567.00,823.00 567.00,823.00              567.00,823.00 545.00,823.00 545.00,823.00              545.00,823.00 545.00,773.00 545.00,773.00              545.00,773.00 485.00,773.00 485.00,773.00              485.00,773.00 485.00,823.00 485.00,823.00              485.00,823.00 464.00,823.00 464.00,823.00              464.00,823.00 464.00,700.00 464.00,700.00 Z            M 1311.00,700.00            C 1311.00,700.00 1336.00,700.00 1336.00,700.00              1336.00,700.00 1352.58,741.00 1352.58,741.00              1352.58,741.00 1373.00,790.00 1373.00,790.00              1373.00,790.00 1382.58,765.00 1382.58,765.00              1382.58,765.00 1397.85,728.00 1397.85,728.00              1397.85,728.00 1409.00,700.00 1409.00,700.00              1409.00,700.00 1434.00,700.00 1434.00,700.00              1434.00,700.00 1421.40,732.00 1421.40,732.00              1421.40,732.00 1396.40,794.00 1396.40,794.00              1396.40,794.00 1388.40,814.00 1388.40,814.00              1388.40,814.00 1384.30,822.01 1384.30,822.01              1384.30,822.01 1377.00,823.00 1377.00,823.00              1377.00,823.00 1367.00,823.00 1367.00,823.00              1367.00,823.00 1360.70,821.40 1360.70,821.40              1360.70,821.40 1356.60,813.00 1356.60,813.00              1356.60,813.00 1349.20,795.00 1349.20,795.00              1349.20,795.00 1323.80,732.00 1323.80,732.00              1323.80,732.00 1311.00,700.00 1311.00,700.00 Z            M 2135.00,700.00            C 2135.00,700.00 2195.00,700.00 2195.00,700.00              2195.00,700.00 2195.00,783.00 2195.00,783.00              2194.87,793.78 2191.88,805.20 2183.96,812.91              2171.80,824.73 2150.00,825.46 2135.00,819.13              2131.02,817.44 2121.55,812.29 2120.44,807.99              2119.52,804.43 2127.84,794.76 2130.00,791.00              2138.79,793.97 2144.14,802.91 2156.00,801.89              2167.93,800.87 2172.98,790.71 2173.00,780.00              2173.00,780.00 2173.00,719.00 2173.00,719.00              2173.00,719.00 2135.00,719.00 2135.00,719.00              2135.00,719.00 2135.00,700.00 2135.00,700.00 Z            M 810.00,701.00            C 810.00,701.00 851.00,701.00 851.00,701.00              864.58,701.00 879.44,701.35 891.00,709.63              912.08,724.75 911.21,766.24 889.00,779.88              873.65,789.32 848.69,787.00 831.00,787.00              831.00,787.00 831.00,823.00 831.00,823.00              831.00,823.00 810.00,823.00 810.00,823.00              810.00,823.00 810.00,701.00 810.00,701.00 Z            M 1089.00,701.00            C 1089.00,701.00 1176.00,701.00 1176.00,701.00              1176.00,701.00 1176.00,721.00 1176.00,721.00              1176.00,721.00 1111.00,721.00 1111.00,721.00              1111.00,721.00 1111.00,752.00 1111.00,752.00              1111.00,752.00 1169.00,752.00 1169.00,752.00              1169.00,752.00 1169.00,771.00 1169.00,771.00              1169.00,771.00 1111.00,771.00 1111.00,771.00              1111.00,771.00 1111.00,803.00 1111.00,803.00              1111.00,803.00 1178.00,803.00 1178.00,803.00              1178.00,803.00 1178.00,823.00 1178.00,823.00              1178.00,823.00 1089.00,823.00 1089.00,823.00              1089.00,823.00 1089.00,701.00 1089.00,701.00 Z            M 1202.00,701.00            C 1202.00,701.00 1257.00,701.00 1257.00,701.00              1266.87,701.12 1281.20,704.24 1288.96,710.53              1299.49,719.05 1300.14,731.66 1300.00,744.00              1299.81,759.56 1291.30,774.94 1275.00,778.00              1275.00,778.00 1306.00,823.00 1306.00,823.00              1306.00,823.00 1286.00,823.00 1286.00,823.00              1276.76,822.98 1277.84,822.56 1269.58,811.00              1269.58,811.00 1256.71,793.00 1256.71,793.00              1255.23,790.93 1251.18,784.94 1249.49,783.60              1247.05,781.66 1243.93,782.01 1241.00,782.00              1241.00,782.00 1223.00,782.00 1223.00,782.00              1223.00,782.00 1223.00,823.00 1223.00,823.00              1223.00,823.00 1202.00,823.00 1202.00,823.00              1202.00,823.00 1202.00,701.00 1202.00,701.00 Z            M 1450.00,701.00            C 1450.00,701.00 1536.00,701.00 1536.00,701.00              1536.00,701.00 1536.00,721.00 1536.00,721.00              1536.00,721.00 1471.00,721.00 1471.00,721.00              1471.00,721.00 1471.00,752.00 1471.00,752.00              1471.00,752.00 1530.00,752.00 1530.00,752.00              1530.00,752.00 1530.00,771.00 1530.00,771.00              1530.00,771.00 1471.00,771.00 1471.00,771.00              1471.00,771.00 1471.00,803.00 1471.00,803.00              1471.00,803.00 1539.00,803.00 1539.00,803.00              1539.00,803.00 1539.00,823.00 1539.00,823.00              1539.00,823.00 1450.00,823.00 1450.00,823.00              1450.00,823.00 1450.00,701.00 1450.00,701.00 Z            M 1565.00,701.00            C 1565.00,701.00 1619.00,701.00 1619.00,701.00              1629.63,701.05 1643.52,703.81 1651.98,710.53              1662.50,718.87 1663.14,731.78 1663.00,744.00              1662.81,759.63 1654.40,774.92 1638.00,778.00              1638.00,778.00 1669.00,823.00 1669.00,823.00              1669.00,823.00 1649.00,823.00 1649.00,823.00              1639.76,822.98 1640.84,822.56 1632.58,811.00              1632.58,811.00 1619.71,793.00 1619.71,793.00              1618.23,790.93 1614.18,784.94 1612.49,783.60              1610.05,781.66 1606.93,782.01 1604.00,782.00              1604.00,782.00 1586.00,782.00 1586.00,782.00              1586.00,782.00 1586.00,823.00 1586.00,823.00              1586.00,823.00 1565.00,823.00 1565.00,823.00              1565.00,823.00 1565.00,701.00 1565.00,701.00 Z            M 1740.00,701.00            C 1740.00,701.00 1781.00,701.00 1781.00,701.00              1794.58,701.00 1809.44,701.35 1821.00,709.63              1842.08,724.75 1841.21,766.24 1819.00,779.88              1803.65,789.32 1778.69,787.00 1761.00,787.00              1761.00,787.00 1761.00,823.00 1761.00,823.00              1761.00,823.00 1740.00,823.00 1740.00,823.00              1740.00,823.00 1740.00,701.00 1740.00,701.00 Z            M 1861.00,701.00            C 1861.00,701.00 1916.00,701.00 1916.00,701.00              1925.87,701.12 1940.20,704.24 1947.96,710.53              1965.53,724.76 1964.17,772.34 1934.00,778.00              1934.00,778.00 1965.00,823.00 1965.00,823.00              1965.00,823.00 1945.00,823.00 1945.00,823.00              1934.42,822.98 1934.55,819.58 1928.42,811.00              1928.42,811.00 1908.82,784.31 1908.82,784.31              1904.31,780.47 1888.29,782.00 1882.00,782.00              1882.00,782.00 1882.00,823.00 1882.00,823.00              1882.00,823.00 1861.00,823.00 1861.00,823.00              1861.00,823.00 1861.00,701.00 1861.00,701.00 Z            M 2225.00,701.00            C 2225.00,701.00 2312.00,701.00 2312.00,701.00              2312.00,701.00 2312.00,721.00 2312.00,721.00              2312.00,721.00 2247.00,721.00 2247.00,721.00              2247.00,721.00 2247.00,752.00 2247.00,752.00              2247.00,752.00 2306.00,752.00 2306.00,752.00              2306.00,752.00 2306.00,771.00 2306.00,771.00              2306.00,771.00 2247.00,771.00 2247.00,771.00              2247.00,771.00 2247.00,803.00 2247.00,803.00              2247.00,803.00 2314.00,803.00 2314.00,803.00              2314.00,803.00 2314.00,823.00 2314.00,823.00              2314.00,823.00 2225.00,823.00 2225.00,823.00              2225.00,823.00 2225.00,701.00 2225.00,701.00 Z            M 588.00,702.00            C 588.00,702.00 683.00,702.00 683.00,702.00              683.00,702.00 683.00,721.00 683.00,721.00              683.00,721.00 646.00,721.00 646.00,721.00              646.00,721.00 646.00,824.00 646.00,824.00              646.00,824.00 625.00,824.00 625.00,824.00              625.00,824.00 625.00,721.00 625.00,721.00              625.00,721.00 588.00,721.00 588.00,721.00              588.00,721.00 588.00,702.00 588.00,702.00 Z            M 692.00,702.00            C 692.00,702.00 788.00,702.00 788.00,702.00              788.00,702.00 788.00,721.00 788.00,721.00              788.00,721.00 751.00,721.00 751.00,721.00              751.00,721.00 751.00,824.00 751.00,824.00              751.00,824.00 729.00,824.00 729.00,824.00              729.00,824.00 729.00,721.00 729.00,721.00              729.00,721.00 692.00,721.00 692.00,721.00              692.00,721.00 692.00,702.00 692.00,702.00 Z            M 2457.00,702.00            C 2457.00,702.00 2553.00,702.00 2553.00,702.00              2553.00,702.00 2553.00,721.00 2553.00,721.00              2553.00,721.00 2516.00,721.00 2516.00,721.00              2516.00,721.00 2516.00,824.00 2516.00,824.00              2516.00,824.00 2494.00,824.00 2494.00,824.00              2494.00,824.00 2494.00,721.00 2494.00,721.00              2494.00,721.00 2457.00,721.00 2457.00,721.00              2457.00,721.00 2457.00,702.00 2457.00,702.00 Z            M 2045.00,718.57            C 2033.04,719.18 2024.09,721.68 2015.17,730.29              1987.75,756.75 2005.97,805.92 2045.00,805.92              2087.36,805.92 2102.65,749.87 2069.00,725.79              2061.40,720.35 2054.08,719.04 2045.00,718.57 Z            M 831.00,768.00            C 841.63,768.00 864.25,769.37 873.00,764.59              886.38,757.28 887.99,733.40 875.00,724.97              865.04,718.51 842.99,720.00 831.00,720.00              831.00,720.00 831.00,768.00 831.00,768.00 Z            M 1223.00,763.00            C 1234.90,763.00 1260.24,764.50 1269.96,758.64              1280.28,752.41 1281.15,731.13 1270.91,724.48              1266.28,721.47 1262.19,721.39 1257.00,720.72              1257.00,720.72 1223.00,720.00 1223.00,720.00              1223.00,720.00 1223.00,763.00 1223.00,763.00 Z            M 1586.00,763.00            C 1597.91,763.00 1623.23,764.50 1632.96,758.64              1643.36,752.37 1644.14,731.13 1633.91,724.48              1629.28,721.47 1625.19,721.39 1620.00,720.72              1620.00,720.72 1586.00,720.00 1586.00,720.00              1586.00,720.00 1586.00,763.00 1586.00,763.00 Z            M 1761.00,768.00            C 1771.63,768.00 1794.25,769.37 1803.00,764.59              1816.38,757.28 1817.99,733.40 1805.00,724.97              1795.04,718.51 1772.99,720.00 1761.00,720.00              1761.00,720.00 1761.00,768.00 1761.00,768.00 Z            M 1882.00,763.00            C 1893.90,763.00 1919.24,764.50 1928.98,758.64              1939.93,752.02 1939.83,730.67 1928.98,724.00              1924.77,721.40 1920.69,721.33 1916.00,720.72              1916.00,720.72 1882.00,720.00 1882.00,720.00              1882.00,720.00 1882.00,763.00 1882.00,763.00 Z" />
</svg>