<svg xmlns="http://www.w3.org/2000/svg" viewBox="6.5 3.55 486.03 966.95">
  <path id="apache" fill="#303030" stroke="none" stroke-width="1"
    d="M 79.00,650.00            C 79.00,650.00 88.36,582.00 88.36,582.00              94.22,554.42 101.66,526.93 110.02,500.00              126.61,446.63 150.18,395.55 175.74,346.00              214.94,270.02 258.40,201.28 308.42,132.00              333.85,96.79 361.29,62.71 392.00,32.00              403.53,20.47 420.27,3.06 438.00,4.09              448.44,4.70 456.10,9.39 464.00,15.80              482.80,31.07 491.96,56.23 492.00,80.00              492.03,96.46 492.36,103.33 489.57,120.00              483.95,153.46 467.40,188.32 451.31,218.00              440.20,238.49 422.01,270.64 405.00,285.83              396.22,293.67 387.04,298.29 377.00,304.00              397.66,301.09 409.83,291.90 419.00,289.00              415.74,306.33 408.13,325.24 400.25,341.00              393.71,354.07 388.51,364.31 377.91,374.91              367.89,384.94 356.42,391.52 344.00,398.00              363.24,395.29 373.74,385.30 385.00,381.00              383.38,386.56 379.26,392.98 376.19,398.00              366.51,413.80 351.79,429.19 336.00,438.94              336.00,438.94 323.00,446.00 323.00,446.00              323.00,446.00 342.00,440.95 342.00,440.95              342.00,440.95 355.00,436.00 355.00,436.00              353.87,443.29 350.75,450.07 348.34,457.00              348.34,457.00 331.86,499.00 331.86,499.00              307.82,553.37 279.25,599.04 227.00,630.55              215.90,637.25 200.23,645.04 188.00,649.31              188.00,649.31 168.00,655.00 168.00,655.00              192.14,660.89 223.20,653.52 244.00,640.58              259.35,631.02 260.81,626.83 271.00,620.00              269.04,626.89 264.86,632.91 261.20,639.00              255.69,648.18 247.71,659.51 239.96,666.83              223.62,682.29 210.18,688.04 191.00,698.00              201.19,698.00 214.11,696.84 223.00,691.52              223.00,691.52 238.00,680.00 238.00,680.00              234.94,687.10 231.08,693.88 226.34,700.00              198.69,735.67 154.95,741.00 113.00,741.00              123.23,752.17 129.30,764.73 130.00,780.00              126.37,777.68 124.85,773.59 122.56,770.00              119.69,765.48 114.69,759.08 110.83,755.43              108.66,753.37 102.88,749.63 102.48,746.79              102.10,744.16 105.52,735.82 106.58,733.00              106.58,733.00 115.66,707.00 115.66,707.00              115.66,707.00 153.81,603.00 153.81,603.00              187.23,516.73 222.70,431.65 262.22,348.00              262.22,348.00 298.78,274.00 298.78,274.00              317.68,238.18 337.18,202.64 358.20,168.00              358.20,168.00 382.05,130.00 382.05,130.00              382.05,130.00 393.00,113.00 393.00,113.00              379.14,129.13 349.75,175.30 337.80,195.00              308.89,242.61 278.92,297.42 255.69,348.00              255.69,348.00 238.31,384.00 238.31,384.00              238.31,384.00 208.86,449.00 208.86,449.00              182.68,508.26 158.61,568.46 135.58,629.00              135.58,629.00 122.42,662.00 122.42,662.00              122.42,662.00 93.69,741.00 93.69,741.00              73.43,797.94 53.92,855.28 35.98,913.00              35.98,913.00 25.34,947.00 25.34,947.00              21.77,958.18 20.12,966.71 7.00,970.00              7.00,970.00 13.28,948.00 13.28,948.00              13.28,948.00 26.98,904.00 26.98,904.00              26.98,904.00 63.00,793.00 63.00,793.00              63.00,793.00 81.00,741.00 81.00,741.00              65.11,738.15 47.08,742.44 32.00,747.69              32.00,747.69 17.00,753.00 17.00,753.00              20.95,747.95 25.73,745.17 31.00,741.67              41.10,734.96 54.65,726.60 67.00,726.00              63.27,722.70 58.35,721.08 54.00,718.69              46.70,714.68 36.84,707.70 32.00,701.00              49.22,704.93 58.97,711.51 78.00,709.00              76.22,687.09 65.64,663.87 54.85,645.00              50.83,637.96 39.54,622.29 38.00,616.00              53.37,624.22 68.66,635.93 79.00,650.00 Z            M 411.00,89.00            C 411.00,89.00 410.00,89.00 410.00,89.00              410.00,89.00 411.00,90.00 411.00,90.00              411.00,90.00 411.00,89.00 411.00,89.00 Z            M 408.00,93.00            C 408.00,93.00 407.00,93.00 407.00,93.00              407.00,93.00 408.00,94.00 408.00,94.00              408.00,94.00 408.00,93.00 408.00,93.00 Z            M 407.00,94.00            C 407.00,94.00 406.00,94.00 406.00,94.00              406.00,94.00 407.00,95.00 407.00,95.00              407.00,95.00 407.00,94.00 407.00,94.00 Z            M 405.00,97.00            C 405.00,97.00 404.00,97.00 404.00,97.00              404.00,97.00 405.00,98.00 405.00,98.00              405.00,98.00 405.00,97.00 405.00,97.00 Z            M 404.00,98.00            C 404.00,98.00 403.00,98.00 403.00,98.00              403.00,98.00 404.00,99.00 404.00,99.00              404.00,99.00 404.00,98.00 404.00,98.00 Z            M 402.00,101.00            C 402.00,101.00 401.00,101.00 401.00,101.00              401.00,101.00 402.00,102.00 402.00,102.00              402.00,102.00 402.00,101.00 402.00,101.00 Z            M 401.00,102.00            C 401.00,102.00 400.00,102.00 400.00,102.00              400.00,102.00 401.00,103.00 401.00,103.00              401.00,103.00 401.00,102.00 401.00,102.00 Z            M 399.00,105.00            C 399.00,105.00 398.00,105.00 398.00,105.00              398.00,105.00 399.00,106.00 399.00,106.00              399.00,106.00 399.00,105.00 399.00,105.00 Z            M 396.00,109.00            C 396.00,109.00 395.00,109.00 395.00,109.00              395.00,109.00 396.00,110.00 396.00,110.00              396.00,110.00 396.00,109.00 396.00,109.00 Z            M 376.00,304.00            C 376.00,304.00 375.00,304.00 375.00,304.00              375.00,304.00 376.00,305.00 376.00,305.00              376.00,305.00 376.00,304.00 376.00,304.00 Z" />
</svg>