<svg xmlns="http://www.w3.org/2000/svg" viewBox="39.5 106.63 320.87 186.62">
  <path id="apod" fill="#303030" stroke="none" stroke-width="1"
    d="M 186.00,202.00            C 186.00,183.45 193.05,166.70 210.00,157.31              214.96,154.56 220.34,152.12 226.00,151.30              229.64,150.77 235.02,151.52 237.96,149.98              241.40,148.18 247.94,138.55 250.80,135.00              257.88,126.23 266.33,116.38 276.00,110.47              279.37,108.41 284.93,105.70 288.77,108.02              293.15,110.67 292.25,120.58 291.56,125.00              290.17,133.90 286.11,146.55 282.80,155.00              281.54,158.20 277.06,168.25 277.10,171.00              277.14,173.63 279.49,177.39 280.55,180.00              282.63,185.13 285.74,196.78 284.00,202.00              280.81,192.46 278.93,187.63 272.00,180.00              260.98,205.57 233.35,249.25 214.95,270.00              208.89,276.83 195.60,292.09 186.00,292.73              177.51,293.30 177.70,282.74 178.59,277.00              181.19,260.30 186.89,244.29 194.00,229.00              196.77,231.19 199.15,233.23 199.56,237.00              200.01,241.26 194.17,255.45 203.04,258.36              206.60,259.53 210.32,256.77 213.00,254.76              220.34,249.25 226.33,242.28 231.87,235.00              240.82,223.24 253.15,204.40 259.14,191.00              260.48,187.99 265.52,177.78 265.03,175.10              264.26,170.97 253.77,166.57 250.00,165.44              233.04,160.36 216.51,163.72 203.00,175.30              196.80,180.61 192.06,187.50 188.87,195.00              188.87,195.00 186.00,202.00 186.00,202.00 Z            M 270.00,164.00            C 271.25,159.30 273.50,147.40 270.98,143.15              265.93,134.62 251.59,147.64 249.00,153.00              259.11,155.38 261.66,159.21 270.00,164.00 Z            M 40.00,235.00            C 41.97,229.29 45.23,230.73 49.56,221.00              49.56,221.00 56.42,203.00 56.42,203.00              56.42,203.00 70.32,166.00 70.32,166.00              72.95,158.88 74.65,146.40 84.87,149.31              89.39,150.60 92.18,165.42 93.67,170.00              93.67,170.00 104.98,207.00 104.98,207.00              104.98,207.00 110.07,223.00 110.07,223.00              113.16,230.80 116.09,229.48 118.00,235.00              118.00,235.00 90.00,235.00 90.00,235.00              91.72,230.52 94.07,231.39 95.98,227.89              97.95,224.27 95.35,212.50 92.91,209.31              90.78,206.52 87.14,207.01 84.00,207.00              80.66,206.99 67.47,206.60 65.22,207.60              61.47,209.26 58.85,219.66 58.86,223.57              58.87,230.54 63.91,229.56 66.00,235.00              66.00,235.00 40.00,235.00 40.00,235.00 Z            M 122.00,150.00            C 122.00,150.00 150.00,150.00 150.00,150.00              156.48,150.00 162.86,149.44 169.00,151.93              173.54,153.77 177.08,156.56 179.31,161.00              183.09,168.52 181.19,183.50 175.66,189.96              169.71,196.91 160.60,198.11 152.00,198.83              147.08,199.24 143.81,197.58 141.60,199.64              139.21,201.86 139.98,212.54 140.00,216.00              140.02,220.06 140.01,224.48 142.56,227.89              145.12,231.32 147.32,230.63 149.00,235.00              149.00,235.00 122.00,235.00 122.00,235.00              122.00,235.00 127.69,226.96 127.69,226.96              127.69,226.96 129.00,217.00 129.00,217.00              129.00,217.00 129.00,167.00 129.00,167.00              129.00,167.00 127.15,157.05 127.15,157.05              127.15,157.05 122.00,150.00 122.00,150.00 Z            M 290.00,150.00            C 305.91,150.00 331.77,147.34 345.00,155.96              355.50,162.81 357.92,172.40 359.16,184.00              359.50,187.10 360.05,188.72 359.82,192.00              358.85,205.63 356.34,220.37 344.00,228.45              330.19,237.49 306.35,235.00 290.00,235.00              290.00,235.00 295.83,226.96 295.83,226.96              295.83,226.96 297.00,218.00 297.00,218.00              297.00,218.00 297.00,167.00 297.00,167.00              297.00,167.00 295.55,157.11 295.55,157.11              295.55,157.11 290.00,150.00 290.00,150.00 Z            M 140.00,155.00            C 140.00,155.00 140.00,180.00 140.00,180.00              140.00,182.39 139.72,189.89 140.60,191.69              141.80,194.14 144.66,194.01 147.00,193.83              152.39,193.41 159.70,192.37 163.83,188.61              170.90,182.08 170.80,165.83 163.83,159.22              157.91,153.55 147.71,155.00 140.00,155.00 Z            M 310.31,155.60            C 309.56,156.24 309.34,155.80 308.60,157.31              307.61,159.34 308.00,171.91 308.00,175.00              308.00,175.00 308.00,223.00 308.00,223.00              308.14,230.11 309.72,230.19 318.00,229.99              324.11,229.84 332.23,227.83 336.83,223.66              344.54,216.67 346.95,203.99 347.00,194.00              347.07,178.22 344.56,161.26 327.00,156.04              322.93,154.83 319.19,154.93 315.00,155.00              312.85,155.04 312.38,155.10 310.31,155.60 Z            M 80.00,161.00            C 80.00,161.00 74.58,174.00 74.58,174.00              74.58,174.00 65.00,201.00 65.00,201.00              65.00,201.00 91.00,202.00 91.00,202.00              91.00,202.00 80.00,161.00 80.00,161.00 Z" />
</svg>