<svg xmlns="http://www.w3.org/2000/svg" viewBox="-0.5 -0.29 1668 2048.87">
  <path id="apple-inc" fill="#303030" stroke="none" stroke-width="1"
    d="M 1225.00,0.21            C 1225.00,0.21 1234.00,0.21 1234.00,0.21              1241.78,0.13 1240.94,2.69 1242.28,13.00              1244.06,26.67 1244.16,40.23 1244.00,54.00              1244.00,54.00 1243.09,64.00 1243.09,64.00              1240.85,96.66 1235.79,126.50 1226.58,158.00              1204.11,234.83 1155.33,315.16 1096.00,368.83              1065.27,396.64 1029.31,420.68 992.00,438.74              955.69,456.32 915.36,469.27 875.00,472.09              875.00,472.09 863.00,473.00 863.00,473.00              863.00,473.00 839.00,471.83 839.00,471.83              836.58,471.59 831.44,471.12 829.73,469.40              827.56,467.21 827.03,460.13 826.58,457.00              824.87,445.10 824.86,433.01 825.00,421.00              825.00,421.00 825.91,411.00 825.91,411.00              829.44,359.68 843.29,312.44 865.22,266.00              909.21,172.82 976.62,101.32 1067.00,51.70              1092.47,37.71 1119.30,25.62 1147.00,16.74              1164.38,11.17 1183.97,6.06 1202.00,3.27              1202.00,3.27 1225.00,0.21 1225.00,0.21 Z            M 1667.00,1501.00            C 1666.81,1509.55 1664.00,1516.01 1661.33,1524.00              1661.33,1524.00 1649.42,1558.00 1649.42,1558.00              1634.11,1598.60 1614.92,1642.89 1594.31,1681.00              1594.31,1681.00 1550.58,1758.00 1550.58,1758.00              1529.38,1792.03 1505.76,1824.62 1482.15,1857.00              1428.52,1930.55 1357.55,2014.11 1266.00,2038.27              1253.98,2041.44 1241.37,2043.65 1229.00,2044.96              1229.00,2044.96 1219.00,2044.96 1219.00,2044.96              1219.00,2044.96 1207.00,2045.99 1207.00,2045.99              1207.00,2045.99 1198.00,2045.04 1198.00,2045.04              1198.00,2045.04 1187.00,2045.04 1187.00,2045.04              1187.00,2045.04 1161.00,2042.27 1161.00,2042.27              1105.54,2034.27 1070.26,2013.90 1020.00,1993.60              980.66,1977.72 943.28,1968.82 901.00,1965.91              901.00,1965.91 891.00,1965.00 891.00,1965.00              891.00,1965.00 856.00,1965.00 856.00,1965.00              856.00,1965.00 844.00,1965.91 844.00,1965.91              806.98,1968.46 770.89,1976.30 736.00,1989.05              678.41,2010.10 629.26,2038.71 567.00,2046.15              567.00,2046.15 547.00,2048.00 547.00,2048.00              520.26,2048.31 502.20,2048.05 476.00,2040.57              431.80,2027.96 392.87,2000.46 360.00,1969.04              360.00,1969.04 346.01,1956.00 346.01,1956.00              312.14,1921.29 282.68,1882.74 253.63,1844.00              213.78,1790.87 180.96,1742.53 149.31,1684.00              92.25,1578.49 49.72,1458.28 24.79,1341.00              15.00,1294.95 8.36,1248.81 3.83,1202.00              3.83,1202.00 1.91,1176.00 1.91,1176.00              1.91,1176.00 1.00,1164.00 1.00,1164.00              1.00,1164.00 0.00,1146.00 0.00,1146.00              0.00,1146.00 0.00,1076.00 0.00,1076.00              0.00,1076.00 1.00,1056.00 1.00,1056.00              1.00,1056.00 1.91,1046.00 1.91,1046.00              4.14,1013.37 8.38,981.12 14.80,949.00              46.63,789.81 134.44,642.56 279.00,561.86              312.65,543.08 346.97,528.68 384.00,518.00              417.54,508.33 450.28,503.29 485.00,500.91              485.00,500.91 495.00,500.00 495.00,500.00              514.75,499.77 534.40,499.84 554.00,502.28              598.32,507.81 638.45,520.62 680.00,536.42              680.00,536.42 773.00,572.69 773.00,572.69              796.04,580.89 820.40,588.01 845.00,588.96              856.51,589.41 878.66,584.96 890.00,581.71              890.00,581.71 949.00,561.20 949.00,561.20              997.79,542.03 1046.22,522.53 1097.00,509.15              1119.41,503.25 1165.35,495.04 1188.00,495.00              1188.00,495.00 1237.00,495.00 1237.00,495.00              1237.00,495.00 1248.00,495.96 1248.00,495.96              1271.14,496.97 1294.28,500.26 1317.00,504.80              1393.47,520.09 1461.88,549.90 1523.00,598.80              1547.89,618.71 1571.68,642.11 1591.60,667.00              1591.60,667.00 1611.99,694.00 1611.99,694.00              1614.72,698.99 1611.96,700.59 1608.00,703.33              1608.00,703.33 1591.00,714.98 1591.00,714.98              1566.17,732.17 1538.90,756.19 1518.04,778.00              1453.54,845.44 1411.06,929.55 1397.73,1022.00              1397.73,1022.00 1393.91,1061.00 1393.91,1061.00              1393.91,1061.00 1393.00,1073.00 1393.00,1073.00              1393.00,1073.00 1393.00,1104.00 1393.00,1104.00              1393.00,1104.00 1394.00,1116.00 1394.00,1116.00              1394.00,1116.00 1394.00,1124.00 1394.00,1124.00              1395.85,1149.72 1400.12,1175.97 1406.37,1201.00              1430.27,1296.57 1485.36,1376.49 1562.00,1437.80              1583.07,1454.65 1605.45,1469.72 1629.00,1482.86              1637.63,1487.68 1658.16,1498.50 1667.00,1501.00 Z" />
</svg>