<svg xmlns="http://www.w3.org/2000/svg" viewBox="1.49 -0.5 1277.01 485.07">
  <path id="apple-tv-plus" fill="#303030" stroke="none" stroke-width="1"
    d="M 197.98,112.00            C 196.63,101.61 197.53,106.02 197.98,97.00              199.81,58.77 224.37,26.53 258.00,9.75              269.31,4.11 282.28,0.04 295.00,0.00              295.00,14.44 295.63,22.62 291.57,37.00              279.01,81.52 245.16,112.00 197.98,112.00 Z            M 477.00,59.00            C 477.00,59.00 546.00,59.00 546.00,59.00              546.00,59.00 546.00,140.00 546.00,140.00              546.00,140.00 611.00,140.00 611.00,140.00              611.00,140.00 611.00,194.00 611.00,194.00              611.00,194.00 546.00,194.00 546.00,194.00              546.00,194.00 546.00,351.00 546.00,351.00              546.00,351.00 546.00,374.00 546.00,374.00              546.00,388.80 545.22,403.87 555.67,415.83              569.69,431.87 591.51,427.50 610.00,426.00              610.00,426.00 610.00,481.00 610.00,481.00              610.00,481.00 569.00,484.00 569.00,484.00              569.00,484.00 559.00,483.09 559.00,483.09              537.78,481.64 517.55,478.78 501.00,463.83              486.53,450.75 479.23,425.11 479.00,406.00              479.00,406.00 479.00,196.00 479.00,196.00              479.00,196.00 428.00,196.00 428.00,196.00              428.00,196.00 428.00,141.00 428.00,141.00              428.00,141.00 477.00,141.00 477.00,141.00              477.00,141.00 477.00,59.00 477.00,59.00 Z            M 381.00,166.00            C 356.92,179.84 339.25,206.33 332.63,233.00              331.16,238.89 328.89,253.26 329.32,259.00              330.92,280.36 335.92,299.22 348.44,317.00              356.85,328.94 365.96,337.76 378.00,345.97              381.19,348.15 391.97,352.90 392.61,356.21              393.16,359.00 390.46,365.24 389.42,368.00              389.42,368.00 377.25,396.00 377.25,396.00              377.25,396.00 363.42,420.00 363.42,420.00              345.85,448.22 320.57,485.42 283.00,483.96              263.38,483.20 249.03,473.61 231.00,468.02              220.20,464.68 213.04,464.87 202.00,465.00              175.78,465.31 156.72,483.72 133.00,484.00              126.52,484.07 120.27,484.43 114.00,482.56              87.77,474.75 64.94,441.95 50.33,420.00              22.22,377.75 6.36,327.41 2.91,277.00              2.91,277.00 2.00,267.00 2.00,267.00              1.60,232.81 9.47,195.17 29.75,167.00              51.30,137.05 86.84,117.84 124.00,118.00              139.19,118.07 155.03,123.61 169.00,129.20              176.47,132.19 191.39,138.18 199.00,138.81              204.66,139.28 212.63,136.52 218.00,134.66              218.00,134.66 254.00,121.43 254.00,121.43              290.39,111.04 326.45,115.90 357.00,139.13              364.82,145.07 377.91,156.68 381.00,166.00 Z            M 646.00,141.00            C 646.00,141.00 709.00,141.00 709.00,141.00              709.00,141.00 716.30,141.99 716.30,141.99              716.30,141.99 721.98,157.00 721.98,157.00              721.98,157.00 736.33,204.00 736.33,204.00              736.33,204.00 779.98,346.00 779.98,346.00              779.98,346.00 801.00,413.00 801.00,413.00              801.00,413.00 825.02,335.00 825.02,335.00              825.02,335.00 865.28,204.00 865.28,204.00              865.28,204.00 879.67,157.00 879.67,157.00              879.67,157.00 885.51,142.02 885.51,142.02              885.51,142.02 893.00,141.00 893.00,141.00              893.00,141.00 955.00,141.00 955.00,141.00              955.00,141.00 934.69,199.00 934.69,199.00              934.69,199.00 895.31,312.00 895.31,312.00              895.31,312.00 864.00,401.00 864.00,401.00              864.00,401.00 842.67,462.00 842.67,462.00              842.67,462.00 835.30,480.01 835.30,480.01              835.30,480.01 828.00,481.00 828.00,481.00              828.00,481.00 764.00,481.00 764.00,481.00              764.00,481.00 752.69,448.00 752.69,448.00              752.69,448.00 732.69,391.00 732.69,391.00              732.69,391.00 675.66,228.00 675.66,228.00              675.66,228.00 655.31,170.00 655.31,170.00              655.31,170.00 646.00,141.00 646.00,141.00 Z            M 1084.00,141.00            C 1084.00,141.00 1146.00,141.00 1146.00,141.00              1146.00,141.00 1146.00,280.00 1146.00,280.00              1146.00,280.00 1278.00,280.00 1278.00,280.00              1278.00,280.00 1278.00,342.00 1278.00,342.00              1278.00,342.00 1147.00,342.00 1147.00,342.00              1147.00,342.00 1147.00,481.00 1147.00,481.00              1147.00,481.00 1085.00,481.00 1085.00,481.00              1085.00,481.00 1085.00,342.00 1085.00,342.00              1085.00,342.00 953.00,342.00 953.00,342.00              953.00,342.00 953.00,280.00 953.00,280.00              953.00,280.00 1084.00,280.00 1084.00,280.00              1084.00,280.00 1084.00,141.00 1084.00,141.00 Z" />
</svg>