<svg xmlns="http://www.w3.org/2000/svg" viewBox="-0.51 -0.5 1281.01 526.17">
  <path id="apple-pay" fill="#303030" stroke="none" stroke-width="1"
    d="M 171.00,98.00            C 170.88,84.85 170.17,79.20 174.20,66.00              184.94,30.87 219.20,0.00 257.00,0.00              257.00,9.61 257.49,15.37 255.55,25.00              249.21,56.52 227.23,85.05 196.00,94.97              186.62,97.95 180.59,98.00 171.00,98.00 Z            M 456.00,29.00            C 456.00,29.00 573.00,29.00 573.00,29.00              611.93,29.00 646.22,27.76 680.00,51.44              708.04,71.09 724.18,99.55 729.56,133.00              731.42,144.57 731.13,156.31 731.00,168.00              730.93,173.86 729.57,182.19 728.40,188.00              721.65,221.57 702.74,250.36 673.00,267.99              655.29,278.48 630.66,285.97 610.00,286.00              610.00,286.00 581.00,286.00 581.00,286.00              581.00,286.00 518.00,286.00 518.00,286.00              518.00,286.00 518.00,420.00 518.00,420.00              518.00,420.00 456.00,420.00 456.00,420.00              456.00,420.00 456.00,29.00 456.00,29.00 Z            M 518.00,235.00            C 518.00,235.00 573.00,235.00 573.00,235.00              595.65,235.00 618.16,234.63 638.00,221.91              658.10,209.02 665.89,189.77 668.17,167.00              668.62,162.46 669.10,160.90 668.99,156.00              668.73,144.55 665.76,129.25 660.63,119.00              654.67,107.09 644.81,97.22 633.00,91.11              612.99,80.74 593.78,81.00 572.00,81.00              572.00,81.00 518.00,81.00 518.00,81.00              518.00,81.00 518.00,235.00 518.00,235.00 Z            M 345.00,310.00            C 337.25,335.99 324.38,359.02 308.71,381.00              296.52,398.10 282.46,415.96 261.00,421.10              255.92,422.32 250.23,422.06 245.00,422.00              224.04,421.75 207.84,406.26 186.00,406.00              173.89,405.86 167.83,405.95 156.00,409.75              131.05,417.75 113.73,431.57 87.00,416.13              71.52,407.18 59.12,390.33 48.86,376.00              21.04,337.12 4.19,290.66 0.91,243.00              0.91,243.00 0.00,233.00 0.00,233.00              -0.64,178.06 23.03,122.99 80.00,106.86              87.82,104.65 98.89,102.92 107.00,103.00              121.82,103.15 136.36,108.53 150.00,113.81              158.99,117.29 169.16,122.12 179.00,120.70              179.00,120.70 226.00,104.89 226.00,104.89              254.79,97.66 287.75,103.01 312.00,120.43              319.68,125.94 330.55,136.12 334.00,145.00              321.65,153.31 309.11,165.15 301.45,178.00              283.63,207.90 283.86,244.76 303.08,274.00              314.57,291.49 327.29,299.91 345.00,310.00 Z            M 760.00,221.00            C 760.00,221.00 760.00,216.00 760.00,216.00              760.12,205.76 764.04,194.00 768.78,185.00              795.72,133.85 866.14,124.60 917.00,137.63              933.86,141.95 953.94,152.10 965.71,165.04              992.05,194.00 988.00,222.21 988.00,258.00              988.00,258.00 988.00,420.00 988.00,420.00              988.00,420.00 931.00,420.00 931.00,420.00              931.00,420.00 931.00,391.00 931.00,391.00              931.00,391.00 930.00,374.00 930.00,374.00              923.81,387.85 909.93,400.42 897.00,407.99              861.30,428.89 803.70,428.13 772.00,399.83              737.15,368.71 734.67,306.90 774.00,278.16              785.87,269.49 799.82,264.02 814.00,260.47              827.24,257.16 840.45,255.84 854.00,254.91              854.00,254.91 864.00,254.00 864.00,254.00              864.00,254.00 919.00,251.00 919.00,251.00              923.54,250.94 924.69,250.57 929.00,250.00              929.00,235.03 930.63,218.55 923.10,205.00              908.34,178.46 864.60,175.20 840.00,188.32              832.51,192.32 826.18,197.85 821.55,205.00              821.55,205.00 814.28,220.01 814.28,220.01              812.66,221.26 809.00,221.00 807.00,221.00              807.00,221.00 760.00,221.00 760.00,221.00 Z            M 1011.00,136.00            C 1011.00,136.00 1067.00,136.00 1067.00,136.00              1067.00,136.00 1074.28,136.99 1074.28,136.99              1074.28,136.99 1079.58,151.00 1079.58,151.00              1079.58,151.00 1091.66,190.00 1091.66,190.00              1091.66,190.00 1127.28,305.00 1127.28,305.00              1127.28,305.00 1139.66,345.00 1139.66,345.00              1139.66,345.00 1147.00,366.00 1147.00,366.00              1147.00,366.00 1153.98,341.00 1153.98,341.00              1153.98,341.00 1166.98,299.00 1166.98,299.00              1166.98,299.00 1199.02,195.00 1199.02,195.00              1199.02,195.00 1217.00,136.00 1217.00,136.00              1217.00,136.00 1280.00,136.00 1280.00,136.00              1280.00,136.00 1270.05,165.00 1270.05,165.00              1270.05,165.00 1254.69,208.00 1254.69,208.00              1254.69,208.00 1198.69,365.00 1198.69,365.00              1198.69,365.00 1177.34,425.00 1177.34,425.00              1168.95,449.17 1158.09,477.83 1140.83,497.00              1124.05,515.64 1098.83,524.96 1074.00,525.00              1063.66,525.02 1048.75,525.75 1039.00,524.00              1039.00,524.00 1039.00,476.00 1039.00,476.00              1061.83,479.01 1083.89,477.86 1098.10,457.00              1102.17,451.02 1104.68,444.80 1107.00,438.00              1108.79,432.74 1112.76,423.28 1111.79,418.00              1111.79,418.00 1104.69,398.00 1104.69,398.00              1104.69,398.00 1087.69,351.00 1087.69,351.00              1087.69,351.00 1033.95,202.00 1033.95,202.00              1033.95,202.00 1020.58,165.00 1020.58,165.00              1018.00,158.12 1012.00,142.48 1011.00,136.00 Z            M 929.00,292.00            C 929.00,292.00 899.00,294.00 899.00,294.00              899.00,294.00 885.00,294.91 885.00,294.91              885.00,294.91 854.00,297.00 854.00,297.00              841.32,298.10 825.55,302.40 816.04,311.18              801.15,324.94 802.14,349.45 817.01,362.82              830.11,374.58 847.49,375.19 864.00,375.00              896.89,374.61 928.60,349.22 929.00,315.00              929.00,315.00 929.00,292.00 929.00,292.00 Z" />
</svg>