<svg xmlns="http://www.w3.org/2000/svg" viewBox="135.65 175.42 746.43 659.08">
  <path id="appstore" fill="#303030" stroke="none" stroke-width="1"
    d="M 410.00,592.00            C 410.00,592.00 555.00,592.00 555.00,592.00              584.71,592.05 606.96,614.70 612.39,643.00              614.53,654.18 614.55,662.98 611.28,674.00              610.46,676.76 608.99,682.38 606.58,683.98              604.71,685.22 601.21,685.00 599.00,685.00              599.00,685.00 240.00,685.00 240.00,685.00              240.00,685.00 202.00,685.00 202.00,685.00              202.00,685.00 182.00,685.00 182.00,685.00              162.35,684.91 145.36,672.52 138.86,654.00              137.47,650.03 135.89,641.13 136.18,637.00              138.05,610.89 156.47,592.04 183.00,592.00              183.00,592.00 293.00,592.00 293.00,592.00              303.11,591.98 301.81,591.24 310.00,577.00              310.00,577.00 334.28,535.00 334.28,535.00              334.28,535.00 419.01,388.00 419.01,388.00              419.01,388.00 443.85,345.00 443.85,345.00              445.39,342.31 452.66,330.70 452.71,328.58              452.76,326.46 449.84,321.96 448.72,320.00              448.72,320.00 438.28,302.00 438.28,302.00              438.28,302.00 413.58,259.00 413.58,259.00              407.69,248.73 401.38,239.10 400.17,227.00              397.24,197.66 420.39,175.67 449.00,176.00              461.87,176.15 475.34,182.96 483.33,193.00              487.71,198.50 490.82,204.91 494.28,211.00              494.28,211.00 508.00,235.00 508.00,235.00              508.00,235.00 519.58,214.00 519.58,214.00              528.92,197.71 534.77,184.69 554.00,178.36              589.00,166.83 623.40,198.01 614.24,234.00              611.32,245.49 599.73,263.13 593.42,274.00              593.42,274.00 552.42,345.00 552.42,345.00              552.42,345.00 463.58,499.00 463.58,499.00              463.58,499.00 427.15,562.00 427.15,562.00              427.15,562.00 410.00,592.00 410.00,592.00 Z            M 768.00,685.00            C 768.00,685.00 802.42,745.00 802.42,745.00              812.12,761.92 819.23,769.73 819.00,790.00              818.72,813.37 798.39,833.72 775.00,834.00              758.45,834.19 745.99,829.26 735.38,816.00              735.38,816.00 720.99,792.00 720.99,792.00              720.99,792.00 690.85,740.00 690.85,740.00              690.85,740.00 594.58,573.00 594.58,573.00              584.02,554.81 559.32,513.87 551.86,497.00              548.75,489.95 546.33,482.47 544.47,475.00              540.53,459.14 540.82,449.01 541.00,433.00              541.23,413.91 550.52,387.82 561.00,372.00              565.22,365.64 569.95,358.34 577.00,355.00              577.00,355.00 681.72,536.00 681.72,536.00              681.72,536.00 705.40,577.00 705.40,577.00              714.17,591.81 712.11,591.98 722.00,592.00              722.00,592.00 833.00,592.00 833.00,592.00              846.50,592.02 859.27,596.15 868.83,606.09              887.31,625.30 885.41,657.60 865.00,674.68              850.51,686.80 838.37,685.00 821.00,685.00              821.00,685.00 768.00,685.00 768.00,685.00 Z            M 253.00,702.43            C 275.09,699.70 295.28,704.19 313.00,717.89              316.31,720.44 326.50,729.09 326.99,733.00              327.29,735.45 324.39,739.82 323.15,742.00              323.15,742.00 310.42,764.00 310.42,764.00              310.42,764.00 290.28,799.00 290.28,799.00              286.25,806.09 280.82,816.24 274.91,821.70              265.14,830.73 254.03,834.15 241.00,834.00              216.60,833.71 196.28,813.40 196.00,789.00              195.78,769.39 208.11,753.30 217.58,737.00              217.58,737.00 229.15,717.00 229.15,717.00              230.91,713.93 233.36,708.87 236.21,706.85              239.37,704.61 248.92,703.10 253.00,702.43 Z" />
</svg>