<svg xmlns="http://www.w3.org/2000/svg" viewBox="95.5 69.5 712 712">
  <path id="archlinux" fill="#303030" stroke="none" stroke-width="1"
    d="M 450.00,70.00            C 450.00,70.00 452.00,70.00 452.00,70.00              452.00,70.00 470.42,113.00 470.42,113.00              470.42,113.00 516.31,219.00 516.31,219.00              546.60,285.15 578.89,350.34 612.26,415.00              612.26,415.00 683.31,550.00 683.31,550.00              683.31,550.00 706.86,594.00 706.86,594.00              710.49,600.54 720.24,617.83 722.00,624.00              715.51,621.95 707.39,616.36 701.00,613.32              687.04,606.69 672.66,600.89 658.00,596.00              651.93,593.98 641.05,589.66 635.00,590.00              642.58,592.78 655.80,601.09 663.00,605.58              681.57,617.14 698.92,629.75 716.00,643.40              716.00,643.40 746.37,668.29 746.37,668.29              746.37,668.29 757.42,688.00 757.42,688.00              757.42,688.00 781.78,733.00 781.78,733.00              781.78,733.00 796.86,761.00 796.86,761.00              799.68,766.09 805.38,775.86 807.00,781.00              799.68,778.91 790.86,772.71 784.00,768.86              784.00,768.86 743.00,746.31 743.00,746.31              707.64,727.18 658.41,703.04 621.00,689.05              600.31,681.31 579.44,673.80 558.00,668.37              558.00,668.37 539.00,663.80 539.00,663.80              536.75,663.34 531.17,662.53 529.50,661.07              527.41,659.00 528.92,654.61 529.50,652.00              529.50,652.00 532.00,629.00 532.00,629.00              532.00,629.00 532.00,604.00 532.00,604.00              531.63,572.29 517.19,530.47 495.71,507.04              485.30,495.68 467.88,485.18 452.00,485.18              443.73,485.18 432.06,489.24 425.00,493.45              417.97,497.64 410.62,504.79 405.30,511.00              384.58,535.17 375.33,570.77 373.96,602.00              373.96,602.00 373.04,617.00 373.04,617.00              373.04,617.00 373.91,625.00 373.91,625.00              373.91,625.00 375.28,642.00 375.28,642.00              375.28,642.00 378.00,661.00 378.00,661.00              308.46,674.09 243.79,703.64 181.00,735.25              181.00,735.25 122.00,767.30 122.00,767.30              115.35,770.96 102.56,779.44 96.00,781.00              96.00,781.00 119.14,738.00 119.14,738.00              119.14,738.00 160.69,663.00 160.69,663.00              160.69,663.00 300.26,403.00 300.26,403.00              300.26,403.00 326.25,352.00 326.25,352.00              326.25,352.00 339.31,326.00 339.31,326.00              339.31,326.00 354.00,295.00 354.00,295.00              359.39,296.53 377.51,310.72 384.00,315.00              399.25,325.05 428.01,341.07 445.00,347.00              445.00,347.00 418.00,325.57 418.00,325.57              418.00,325.57 386.00,296.91 386.00,296.91              386.00,296.91 370.84,281.00 370.84,281.00              370.84,281.00 365.81,274.00 365.81,274.00              365.81,274.00 371.00,260.00 371.00,260.00              371.00,260.00 388.58,221.00 388.58,221.00              388.58,221.00 430.01,121.00 430.01,121.00              430.01,121.00 443.40,88.00 443.40,88.00              443.40,88.00 450.00,70.00 450.00,70.00 Z            M 448.00,348.00            C 448.00,348.00 447.00,348.00 447.00,348.00              447.00,348.00 448.00,349.00 448.00,349.00              448.00,349.00 448.00,348.00 448.00,348.00 Z            M 634.00,588.00            C 634.00,588.00 633.00,588.00 633.00,588.00              633.00,588.00 634.00,589.00 634.00,589.00              634.00,589.00 634.00,588.00 634.00,588.00 Z" />
</svg>