<svg xmlns="http://www.w3.org/2000/svg" viewBox="95.5 69.5 2343 712">
  <path id="archlinux-wordmark" fill="#303030" stroke="none" stroke-width="1"
    d="M 450.00,70.00            C 450.00,70.00 452.00,70.00 452.00,70.00              452.00,70.00 470.42,113.00 470.42,113.00              470.42,113.00 516.31,219.00 516.31,219.00              546.60,285.15 578.89,350.34 612.26,415.00              612.26,415.00 683.31,550.00 683.31,550.00              683.31,550.00 706.86,594.00 706.86,594.00              710.49,600.54 720.24,617.83 722.00,624.00              715.51,621.95 707.39,616.36 701.00,613.32              687.04,606.69 672.66,600.89 658.00,596.00              651.93,593.98 641.05,589.66 635.00,590.00              642.58,592.78 655.80,601.09 663.00,605.58              681.57,617.14 698.92,629.75 716.00,643.40              716.00,643.40 746.37,668.29 746.37,668.29              746.37,668.29 757.42,688.00 757.42,688.00              757.42,688.00 781.78,733.00 781.78,733.00              781.78,733.00 796.86,761.00 796.86,761.00              799.68,766.09 805.38,775.86 807.00,781.00              799.68,778.91 790.86,772.71 784.00,768.86              784.00,768.86 743.00,746.31 743.00,746.31              707.64,727.18 658.41,703.04 621.00,689.05              600.31,681.31 579.44,673.80 558.00,668.37              558.00,668.37 539.00,663.80 539.00,663.80              536.75,663.34 531.17,662.53 529.50,661.07              527.41,659.00 528.92,654.61 529.50,652.00              529.50,652.00 532.00,629.00 532.00,629.00              532.00,629.00 532.00,604.00 532.00,604.00              531.63,572.29 517.19,530.47 495.71,507.04              485.30,495.68 467.88,485.18 452.00,485.18              443.73,485.18 432.06,489.24 425.00,493.45              417.97,497.64 410.62,504.79 405.30,511.00              384.58,535.17 375.33,570.77 373.96,602.00              373.96,602.00 373.04,617.00 373.04,617.00              373.04,617.00 373.91,625.00 373.91,625.00              373.91,625.00 375.28,642.00 375.28,642.00              375.28,642.00 378.00,661.00 378.00,661.00              308.46,674.09 243.79,703.64 181.00,735.25              181.00,735.25 122.00,767.30 122.00,767.30              115.35,770.96 102.56,779.44 96.00,781.00              96.00,781.00 119.14,738.00 119.14,738.00              119.14,738.00 160.69,663.00 160.69,663.00              160.69,663.00 300.26,403.00 300.26,403.00              300.26,403.00 326.25,352.00 326.25,352.00              326.25,352.00 339.31,326.00 339.31,326.00              339.31,326.00 354.00,295.00 354.00,295.00              359.39,296.53 377.51,310.72 384.00,315.00              399.25,325.05 428.01,341.07 445.00,347.00              445.00,347.00 418.00,325.57 418.00,325.57              418.00,325.57 386.00,296.91 386.00,296.91              386.00,296.91 370.84,281.00 370.84,281.00              370.84,281.00 365.81,274.00 365.81,274.00              365.81,274.00 371.00,260.00 371.00,260.00              371.00,260.00 388.58,221.00 388.58,221.00              388.58,221.00 430.01,121.00 430.01,121.00              430.01,121.00 443.40,88.00 443.40,88.00              443.40,88.00 450.00,70.00 450.00,70.00 Z            M 1375.00,231.00            C 1375.00,231.00 1420.00,220.58 1420.00,220.58              1420.00,220.58 1436.00,217.00 1436.00,217.00              1436.00,217.00 1436.00,251.00 1436.00,251.00              1436.00,251.00 1437.00,267.00 1437.00,267.00              1437.00,267.00 1437.00,299.00 1437.00,299.00              1436.98,309.65 1435.49,307.56 1425.00,318.00              1417.99,324.98 1410.97,332.10 1405.00,340.00              1418.69,331.35 1437.06,314.24 1451.00,308.60              1462.57,303.93 1481.50,301.02 1494.00,301.00              1520.31,300.96 1547.31,306.06 1570.00,320.06              1586.10,330.00 1600.97,342.79 1601.00,363.00              1601.00,363.00 1601.00,448.00 1601.00,448.00              1601.00,448.00 1600.00,463.00 1600.00,463.00              1600.00,463.00 1600.00,543.00 1600.00,543.00              1600.00,543.00 1540.96,553.00 1540.96,553.00              1540.96,553.00 1540.96,540.00 1540.96,540.00              1540.96,540.00 1540.00,528.00 1540.00,528.00              1540.00,528.00 1540.00,387.00 1540.00,387.00              1539.99,383.10 1540.05,379.76 1538.75,376.00              1533.05,359.41 1512.04,352.08 1496.00,352.00              1474.88,351.90 1444.24,362.54 1437.79,385.00              1436.90,388.09 1437.00,390.83 1437.00,394.00              1437.00,394.00 1437.00,418.00 1437.00,418.00              1437.00,418.00 1436.00,435.00 1436.00,435.00              1436.00,435.00 1436.00,541.00 1436.00,541.00              1436.00,541.00 1395.00,548.42 1395.00,548.42              1395.00,548.42 1375.00,552.00 1375.00,552.00              1375.00,552.00 1375.00,231.00 1375.00,231.00 Z            M 1650.00,546.00            C 1650.00,546.00 1650.00,374.00 1650.00,374.00              1650.00,374.00 1650.00,287.00 1650.00,287.00              1650.00,287.00 1649.00,272.00 1649.00,272.00              1649.00,272.00 1649.00,233.00 1649.00,233.00              1649.00,233.00 1650.02,226.51 1650.02,226.51              1650.02,226.51 1658.00,223.13 1658.00,223.13              1658.00,223.13 1678.00,219.00 1678.00,219.00              1678.00,219.00 1678.00,310.00 1678.00,310.00              1678.00,310.00 1679.00,325.00 1679.00,325.00              1679.00,325.00 1679.00,542.00 1679.00,542.00              1679.00,542.00 1650.00,546.00 1650.00,546.00 Z            M 1717.00,238.00            C 1717.00,238.00 1735.00,224.15 1735.00,224.15              1737.93,223.21 1739.95,225.15 1741.91,227.06              1745.35,230.41 1751.77,237.85 1754.00,242.00              1750.61,244.54 1737.57,256.17 1735.00,256.70              1732.10,257.31 1730.30,254.88 1728.58,252.98              1724.38,248.36 1719.64,243.70 1717.00,238.00 Z            M 774.00,363.00            C 774.00,363.00 781.80,317.00 781.80,317.00              782.47,313.51 783.79,302.95 785.82,300.70              787.72,298.61 795.09,296.92 798.00,296.23              808.23,293.81 818.53,291.90 829.00,290.93              829.00,290.93 853.00,289.00 853.00,289.00              886.62,288.95 926.02,292.44 948.48,321.00              966.74,344.21 964.00,370.51 964.00,398.00              964.00,398.00 964.00,540.00 964.00,540.00              964.00,540.00 952.00,541.92 952.00,541.92              952.00,541.92 908.00,549.00 908.00,549.00              908.00,549.00 908.00,543.00 908.00,543.00              908.16,534.52 913.01,531.35 917.99,525.00              923.19,518.36 931.35,506.48 935.00,499.00              935.00,499.00 903.00,530.48 903.00,530.48              886.59,543.41 869.33,547.67 849.00,549.09              845.86,549.31 844.29,549.92 841.00,549.68              821.19,548.19 804.35,545.33 787.00,534.80              755.83,515.88 746.05,487.58 744.09,453.00              743.85,448.73 744.64,446.88 744.91,443.00              746.27,423.62 750.95,408.75 764.43,394.09              771.23,386.69 780.06,381.16 789.00,376.76              804.30,369.21 821.12,366.09 838.00,364.91              838.00,364.91 848.00,364.00 848.00,364.00              867.57,363.77 885.53,366.85 900.00,381.00              899.61,376.22 898.86,369.17 896.59,365.00              888.69,350.50 865.71,348.83 851.00,349.00              834.72,349.19 810.23,354.92 794.00,358.65              794.00,358.65 774.00,363.00 774.00,363.00 Z            M 998.00,549.00            C 998.00,549.00 998.00,311.00 998.00,311.00              998.00,311.00 999.57,303.17 999.57,303.17              999.57,303.17 1016.00,299.75 1016.00,299.75              1016.00,299.75 1058.00,293.00 1058.00,293.00              1058.00,293.00 1058.00,327.00 1058.00,327.00              1065.95,318.87 1069.77,312.55 1080.00,306.45              1092.78,298.83 1113.18,295.10 1128.00,294.00              1128.00,294.00 1137.00,294.00 1137.00,294.00              1137.00,294.00 1156.00,293.00 1156.00,293.00              1156.00,293.00 1137.77,337.00 1137.77,337.00              1136.21,340.41 1132.02,351.15 1129.37,353.01              1127.47,354.33 1123.38,353.94 1121.00,354.17              1116.35,354.62 1110.52,355.91 1106.00,357.15              1091.36,361.16 1072.32,372.86 1065.90,387.00              1063.37,392.59 1063.01,397.00 1063.00,403.00              1063.00,403.00 1063.00,537.00 1063.00,537.00              1063.00,537.00 998.00,549.00 998.00,549.00 Z            M 1316.00,465.00            C 1322.99,467.05 1330.72,476.72 1336.00,482.00              1336.00,482.00 1351.00,496.42 1351.00,496.42              1352.97,498.15 1356.77,501.16 1356.81,504.00              1356.83,506.26 1353.98,509.33 1352.57,511.00              1348.00,516.40 1342.58,521.01 1337.00,525.34              1319.00,539.31 1290.84,548.96 1268.00,549.00              1268.00,549.00 1248.00,549.00 1248.00,549.00              1242.40,548.93 1231.68,547.29 1226.00,546.20              1194.23,540.07 1164.90,524.40 1146.52,497.00              1130.33,472.87 1125.96,446.46 1126.00,418.00              1126.04,390.16 1134.64,357.74 1152.46,336.00              1164.09,321.82 1179.96,311.84 1197.00,305.42              1209.08,300.88 1230.08,297.02 1243.00,297.00              1243.00,297.00 1265.00,297.00 1265.00,297.00              1286.92,297.03 1313.16,304.98 1332.00,316.01              1339.06,320.14 1343.82,323.46 1350.00,328.87              1351.75,330.41 1354.71,332.64 1355.18,335.04              1355.91,338.81 1349.16,345.17 1346.73,348.00              1340.28,355.53 1322.63,377.21 1316.00,382.00              1299.98,366.33 1281.36,358.74 1259.00,359.00              1248.41,359.13 1235.56,362.26 1226.00,366.78              1214.09,372.42 1204.15,380.48 1197.46,392.00              1182.86,417.16 1190.55,451.71 1210.17,471.91              1231.89,494.28 1264.62,498.47 1292.00,484.75              1301.31,480.09 1309.91,473.51 1316.00,465.00 Z            M 1821.00,355.00            C 1826.17,336.90 1846.96,320.41 1864.00,313.81              1877.10,308.74 1891.04,306.98 1905.00,307.00              1938.21,307.05 1968.67,320.52 1981.60,353.00              1984.80,361.04 1985.99,366.33 1986.00,375.00              1986.00,375.00 1986.00,418.00 1986.00,418.00              1986.00,418.00 1987.00,435.00 1987.00,435.00              1987.00,435.00 1987.00,545.00 1987.00,545.00              1987.00,545.00 1962.00,550.00 1962.00,550.00              1962.00,550.00 1962.00,390.00 1962.00,390.00              1961.99,382.18 1961.16,377.23 1957.96,370.00              1955.13,363.59 1950.93,357.95 1945.99,353.01              1919.60,326.63 1874.70,333.72 1847.00,354.16              1833.26,364.29 1821.03,378.18 1821.00,396.00              1821.00,396.00 1821.00,542.00 1821.00,542.00              1821.00,542.00 1792.00,549.00 1792.00,549.00              1792.00,549.00 1792.00,470.00 1792.00,470.00              1792.00,470.00 1791.00,455.00 1791.00,455.00              1791.00,455.00 1791.00,317.00 1791.00,317.00              1791.00,317.00 1820.00,312.00 1820.00,312.00              1820.00,320.87 1819.08,348.24 1821.00,355.00 Z            M 1724.00,548.00            C 1724.00,548.00 1724.00,509.00 1724.00,509.00              1724.00,509.00 1723.00,492.00 1723.00,492.00              1723.00,492.00 1723.00,372.00 1723.00,372.00              1723.00,372.00 1723.00,328.00 1723.00,328.00              1723.00,328.00 1723.99,321.64 1723.99,321.64              1723.99,321.64 1731.00,317.58 1731.00,317.58              1731.00,317.58 1748.00,311.00 1748.00,311.00              1748.00,311.00 1748.00,543.00 1748.00,543.00              1748.00,543.00 1724.00,548.00 1724.00,548.00 Z            M 2026.00,318.00            C 2026.00,318.00 2057.00,313.00 2057.00,313.00              2057.00,313.00 2057.00,476.00 2057.00,476.00              2057.05,506.03 2080.70,526.66 2110.00,527.00              2151.82,527.48 2192.93,501.36 2193.00,456.00              2193.00,456.00 2193.00,329.00 2193.00,329.00              2193.00,326.92 2192.77,323.26 2194.02,321.56              2195.42,319.66 2199.75,318.94 2202.00,318.37              2208.12,316.84 2215.88,314.51 2221.99,314.00              2221.99,314.00 2221.99,531.00 2221.99,531.00              2221.99,531.00 2221.99,544.44 2221.99,544.44              2221.99,544.44 2214.00,547.40 2214.00,547.40              2214.00,547.40 2194.00,551.00 2194.00,551.00              2194.00,551.00 2194.00,523.00 2194.00,523.00              2194.00,523.00 2193.00,506.00 2193.00,506.00              2190.40,519.69 2173.55,535.79 2162.00,542.80              2147.14,551.81 2135.79,553.56 2119.00,555.17              2089.89,557.95 2057.39,550.17 2039.77,525.00              2023.32,501.50 2027.00,477.96 2027.00,451.00              2027.00,451.00 2027.00,389.00 2027.00,389.00              2027.00,389.00 2026.00,374.00 2026.00,374.00              2026.00,374.00 2026.00,318.00 2026.00,318.00 Z            M 2250.00,537.00            C 2251.65,530.32 2263.45,515.40 2268.00,509.00              2268.00,509.00 2307.42,453.00 2307.42,453.00              2307.42,453.00 2319.42,436.00 2319.42,436.00              2320.85,433.99 2324.61,429.20 2325.02,427.00              2325.59,423.98 2323.04,421.25 2321.37,419.00              2321.37,419.00 2308.37,402.00 2308.37,402.00              2308.37,402.00 2272.58,355.00 2272.58,355.00              2272.58,355.00 2256.31,333.00 2256.31,333.00              2255.21,329.62 2257.68,327.81 2260.02,325.88              2262.40,323.93 2271.46,316.16 2273.96,316.19              2275.50,316.21 2276.51,317.16 2277.54,318.16              2277.54,318.16 2294.00,339.00 2294.00,339.00              2294.00,339.00 2343.00,401.00 2343.00,401.00              2343.00,401.00 2360.28,376.00 2360.28,376.00              2360.28,376.00 2386.86,338.00 2386.86,338.00              2386.86,338.00 2396.66,324.02 2396.66,324.02              2398.26,321.82 2399.88,319.03 2403.04,320.17              2404.83,320.81 2408.39,324.20 2410.00,325.57              2414.74,329.60 2418.25,331.88 2422.00,337.00              2422.00,337.00 2401.28,366.00 2401.28,366.00              2401.28,366.00 2375.58,402.00 2375.58,402.00              2375.58,402.00 2363.42,419.00 2363.42,419.00              2362.21,420.71 2359.33,424.34 2359.35,426.42              2359.37,428.79 2363.53,433.94 2365.00,436.00              2365.00,436.00 2380.15,457.00 2380.15,457.00              2380.15,457.00 2419.14,511.00 2419.14,511.00              2424.18,518.04 2435.21,531.71 2438.00,539.00              2438.00,539.00 2418.00,554.00 2418.00,554.00              2418.00,554.00 2366.15,482.00 2366.15,482.00              2366.15,482.00 2343.00,450.00 2343.00,450.00              2343.00,450.00 2322.43,480.00 2322.43,480.00              2322.43,480.00 2289.71,526.00 2289.71,526.00              2289.71,526.00 2276.86,544.00 2276.86,544.00              2276.86,544.00 2270.82,550.10 2270.82,550.10              2270.82,550.10 2264.00,546.87 2264.00,546.87              2264.00,546.87 2250.00,537.00 2250.00,537.00 Z            M 1405.00,340.00            C 1405.00,340.00 1404.00,340.00 1404.00,340.00              1404.00,340.00 1405.00,341.00 1405.00,341.00              1405.00,341.00 1405.00,340.00 1405.00,340.00 Z            M 1404.00,341.00            C 1404.00,341.00 1403.00,341.00 1403.00,341.00              1403.00,341.00 1404.00,342.00 1404.00,342.00              1404.00,342.00 1404.00,341.00 1404.00,341.00 Z            M 1403.00,342.00            C 1403.00,342.00 1402.00,342.00 1402.00,342.00              1402.00,342.00 1403.00,343.00 1403.00,343.00              1403.00,343.00 1403.00,342.00 1403.00,342.00 Z            M 448.00,348.00            C 448.00,348.00 447.00,348.00 447.00,348.00              447.00,348.00 448.00,349.00 448.00,349.00              448.00,349.00 448.00,348.00 448.00,348.00 Z            M 842.00,420.30            C 834.70,421.66 828.36,423.69 822.00,427.62              817.83,430.19 814.45,433.22 811.33,437.00              801.08,449.41 803.53,466.44 814.44,477.57              825.31,488.67 841.47,494.73 857.00,492.71              880.93,489.60 906.16,473.47 897.96,446.00              896.65,441.62 894.88,438.43 891.82,435.01              879.49,421.27 859.45,418.56 842.00,420.30 Z            M 938.00,495.00            C 938.00,495.00 937.00,495.00 937.00,495.00              937.00,495.00 938.00,496.00 938.00,496.00              938.00,496.00 938.00,495.00 938.00,495.00 Z            M 634.00,588.00            C 634.00,588.00 633.00,588.00 633.00,588.00              633.00,588.00 634.00,589.00 634.00,589.00              634.00,589.00 634.00,588.00 634.00,588.00 Z" />
</svg>