<svg xmlns="http://www.w3.org/2000/svg" viewBox="-0.5 -0.5 1281 869.01">
  <path id="Selection" fill="#303030" stroke="none" stroke-width="1" d="M 635.00,401.00            C 632.29,408.08 621.67,422.28 616.86,429.00              616.86,429.00 576.27,481.00 576.27,481.00              576.27,481.00 550.01,509.00 550.01,509.00              550.01,509.00 538.00,521.96 538.00,521.96              516.59,542.54 490.75,560.79 464.00,573.74              426.57,591.87 386.30,601.26 345.00,604.09              345.00,604.09 333.00,605.00 333.00,605.00              333.00,605.00 309.00,605.00 309.00,605.00              309.00,605.00 299.00,604.09 299.00,604.09              299.00,604.09 277.00,602.15 277.00,602.15              199.74,592.92 125.28,557.10 72.09,500.00              44.38,470.25 23.21,432.48 10.33,394.00              5.96,380.92 0.02,360.61 0.00,347.00              0.00,347.00 0.00,269.00 0.00,269.00              0.12,259.35 3.73,245.54 6.13,236.00              12.60,210.23 23.60,183.08 36.72,160.00              69.31,102.65 118.58,53.05 179.00,25.31              207.87,12.05 249.12,0.05 281.00,0.00              281.00,0.00 320.00,0.00 320.00,0.00              320.00,0.00 333.00,0.96 333.00,0.96              362.64,2.25 391.77,7.10 420.00,16.51              478.02,35.85 524.95,67.95 568.00,111.00              568.00,111.00 584.83,128.00 584.83,128.00              584.83,128.00 618.35,168.00 618.35,168.00              618.35,168.00 640.00,197.00 640.00,197.00              646.11,185.13 673.64,150.53 683.25,139.00              734.20,77.86 802.35,24.53 881.00,5.88              891.17,3.47 909.82,0.02 920.00,0.00              920.00,0.00 987.00,0.00 987.00,0.00              1011.81,0.12 1054.43,12.68 1078.00,21.58              1164.31,54.17 1237.21,122.64 1266.67,211.00              1272.86,229.59 1279.77,259.55 1280.00,279.00              1280.00,279.00 1280.00,314.00 1280.00,314.00              1279.97,332.40 1273.50,363.22 1267.98,381.00              1236.73,481.52 1152.36,564.78 1052.00,595.98              1018.57,606.36 989.79,609.40 955.00,609.00              955.00,609.00 945.00,608.09 945.00,608.09              924.79,606.68 908.48,603.00 889.00,597.88              889.00,597.88 853.00,587.31 853.00,587.31              803.60,569.73 757.81,540.19 720.00,504.04              720.00,504.04 709.00,494.00 709.00,494.00              709.00,494.00 699.91,484.00 699.91,484.00              684.53,467.49 670.11,450.39 657.00,432.00              652.17,425.22 639.63,407.87 637.00,401.00              637.00,401.00 635.00,401.00 635.00,401.00 Z            M 1200.00,22.00            C 1200.00,22.00 1226.00,22.00 1226.00,22.00              1226.00,22.00 1226.00,29.00 1226.00,29.00              1226.00,29.00 1217.00,29.00 1217.00,29.00              1217.00,29.00 1217.00,54.00 1217.00,54.00              1217.00,54.00 1210.00,54.00 1210.00,54.00              1210.00,54.00 1210.00,29.00 1210.00,29.00              1210.00,29.00 1200.00,29.00 1200.00,29.00              1200.00,29.00 1200.00,22.00 1200.00,22.00 Z            M 1227.00,22.00            C 1227.00,22.00 1235.44,23.02 1235.44,23.02              1235.44,23.02 1242.00,40.00 1242.00,40.00              1242.00,40.00 1248.70,22.99 1248.70,22.99              1248.70,22.99 1257.00,22.00 1257.00,22.00              1257.00,22.00 1257.00,53.00 1257.00,53.00              1257.00,53.00 1250.00,53.00 1250.00,53.00              1250.00,53.00 1249.00,40.00 1249.00,40.00              1249.00,40.00 1246.00,53.00 1246.00,53.00              1236.41,52.88 1238.55,51.16 1234.00,39.00              1234.00,39.00 1234.00,53.00 1234.00,53.00              1234.00,53.00 1227.00,53.00 1227.00,53.00              1227.00,53.00 1227.00,22.00 1227.00,22.00 Z            M 936.00,104.14            C 910.59,107.94 898.49,108.95 874.00,119.43              845.39,131.67 812.24,157.46 790.04,179.09              790.04,179.09 781.96,188.00 781.96,188.00              767.77,202.83 754.87,218.52 742.63,235.00              742.63,235.00 712.33,279.00 712.33,279.00              709.83,282.75 701.68,294.07 701.49,298.00              701.28,302.11 708.49,313.93 710.69,318.00              720.08,335.32 730.23,351.97 741.71,368.00              785.22,428.79 840.32,476.43 914.00,494.87              928.49,498.50 942.92,502.82 958.00,503.00              982.55,503.28 1000.47,501.49 1024.00,493.65              1101.41,467.84 1168.03,392.86 1174.09,310.00              1174.09,310.00 1175.00,300.00 1175.00,300.00              1175.34,270.89 1167.54,241.54 1153.69,216.00              1143.40,197.01 1127.19,177.48 1111.00,163.29              1088.00,143.12 1060.02,127.04 1031.00,117.33              1003.46,108.12 981.06,104.00 952.00,104.14              952.00,104.14 936.00,104.14 936.00,104.14 Z            M 278.00,106.10            C 256.18,109.49 241.14,113.10 221.00,122.78              177.09,143.89 140.56,184.95 120.70,229.00              112.17,247.91 103.25,276.22 103.00,297.00              102.71,321.96 102.67,335.70 110.67,360.00              132.61,426.63 186.85,470.55 253.00,489.42              269.52,494.14 292.89,498.80 310.00,499.00              310.00,499.00 332.00,499.00 332.00,499.00              332.00,499.00 344.00,498.08 344.00,498.08              376.10,495.52 408.77,485.28 436.00,467.95              444.80,462.35 457.59,452.23 464.91,444.91              464.91,444.91 474.00,435.00 474.00,435.00              495.80,412.94 513.43,391.18 531.42,366.00              531.42,366.00 566.42,313.00 566.42,313.00              568.99,308.90 577.16,298.58 576.03,294.00              575.28,290.98 565.36,276.53 563.00,273.00              563.00,273.00 528.00,225.00 528.00,225.00              495.24,184.05 455.51,146.30 407.00,124.86              383.41,114.44 358.64,108.70 333.00,106.91              333.00,106.91 319.00,106.10 319.00,106.10              319.00,106.10 302.00,106.10 302.00,106.10              302.00,106.10 278.00,106.10 278.00,106.10 Z            M 922.00,204.00            C 922.00,204.00 980.00,204.00 980.00,204.00              980.00,204.00 980.00,264.00 980.00,264.00              980.00,264.00 1042.00,264.00 1042.00,264.00              1042.00,264.00 1042.00,322.00 1042.00,322.00              1042.00,322.00 980.00,322.00 980.00,322.00              980.00,322.00 980.00,383.00 980.00,383.00              980.00,383.00 922.00,383.00 922.00,383.00              922.00,383.00 922.00,322.00 922.00,322.00              922.00,322.00 864.00,322.00 864.00,322.00              864.00,322.00 864.00,264.00 864.00,264.00              864.00,264.00 922.00,264.00 922.00,264.00              922.00,264.00 922.00,204.00 922.00,204.00 Z            M 209.00,271.00            C 209.00,271.00 424.00,271.00 424.00,271.00              424.00,271.00 424.00,316.00 424.00,316.00              424.00,316.00 209.00,316.00 209.00,316.00              209.00,316.00 209.00,271.00 209.00,271.00 Z            M 1181.00,650.42            C 1200.71,648.02 1232.54,655.10 1246.96,669.09              1265.74,687.29 1271.67,715.01 1274.17,740.00              1274.17,740.00 1275.00,749.00 1275.00,749.00              1275.33,777.79 1270.57,818.64 1250.82,841.00              1238.41,855.04 1210.84,866.91 1192.00,867.00              1192.00,867.00 1181.00,867.00 1181.00,867.00              1174.73,866.92 1167.96,865.57 1162.00,863.66              1127.05,852.45 1112.62,824.20 1107.87,790.00              1106.95,783.40 1106.01,776.67 1106.00,770.00              1106.00,770.00 1106.00,748.00 1106.00,748.00              1106.05,713.53 1121.86,673.88 1154.00,657.81              1163.89,652.86 1170.40,652.03 1181.00,650.42 Z            M 760.00,653.00            C 760.00,653.00 893.00,653.00 893.00,653.00              893.00,653.00 893.00,687.00 893.00,687.00              893.00,687.00 847.00,687.00 847.00,687.00              847.00,687.00 847.00,828.00 847.00,828.00              847.00,828.00 893.00,828.00 893.00,828.00              893.00,828.00 893.00,863.00 893.00,863.00              893.00,863.00 760.00,863.00 760.00,863.00              760.00,863.00 760.00,828.00 760.00,828.00              760.00,828.00 805.00,828.00 805.00,828.00              805.00,828.00 805.00,687.00 805.00,687.00              805.00,687.00 760.00,687.00 760.00,687.00              760.00,687.00 760.00,653.00 760.00,653.00 Z            M 214.00,655.00            C 236.00,652.10 263.55,654.74 286.00,655.00              286.00,655.00 295.00,655.83 295.00,655.83              310.10,657.34 321.99,658.61 334.00,669.18              360.96,692.92 360.31,741.53 327.00,759.22              321.62,762.07 319.04,763.14 313.00,764.00              318.76,770.53 320.30,769.54 326.64,779.00              326.64,779.00 355.25,837.00 355.25,837.00              355.25,837.00 363.89,855.00 363.89,855.00              365.02,858.56 364.88,861.81 360.94,863.40              359.18,864.11 355.95,864.00 354.00,864.00              354.00,864.00 330.00,864.00 330.00,864.00              326.67,863.99 322.16,864.27 319.39,862.15              317.10,860.39 315.85,856.62 314.72,854.00              314.72,854.00 306.85,836.00 306.85,836.00              306.85,836.00 293.42,806.00 293.42,806.00              289.89,797.90 286.39,788.95 279.00,783.63              271.60,778.31 265.66,778.00 257.00,778.00              257.00,778.00 256.00,797.00 256.00,797.00              256.00,797.00 256.00,863.00 256.00,863.00              256.00,863.00 214.00,863.00 214.00,863.00              214.00,863.00 214.00,655.00 214.00,655.00 Z            M 388.00,654.00            C 388.00,654.00 443.00,654.00 443.00,654.00              443.00,654.00 466.00,655.00 466.00,655.00              473.94,655.01 482.39,656.44 490.00,658.72              496.68,660.73 503.18,663.49 509.00,667.36              534.03,683.96 546.95,714.43 547.00,744.00              547.00,744.00 547.00,766.00 547.00,766.00              547.00,766.00 545.42,780.00 545.42,780.00              542.80,797.68 539.20,812.20 528.57,827.00              510.77,851.79 478.68,862.95 449.00,863.00              449.00,863.00 429.00,863.00 429.00,863.00              429.00,863.00 388.00,863.00 388.00,863.00              388.00,863.00 388.00,654.00 388.00,654.00 Z            M 572.00,654.00            C 572.00,654.00 613.00,654.00 613.00,654.00              613.00,654.00 613.00,681.00 613.00,681.00              613.00,681.00 614.00,698.00 614.00,698.00              614.00,698.00 614.00,796.00 614.00,796.00              614.03,815.61 626.34,831.75 647.00,832.00              668.60,832.25 680.69,820.35 682.83,799.00              682.83,799.00 683.92,785.00 683.92,785.00              683.92,785.00 683.00,772.00 683.00,772.00              683.00,772.00 683.00,750.00 683.00,750.00              683.00,750.00 683.00,654.00 683.00,654.00              683.00,654.00 725.00,654.00 725.00,654.00              725.00,654.00 725.00,768.00 725.00,768.00              725.00,793.22 726.88,816.51 710.50,838.00              703.53,847.15 694.43,854.74 684.00,859.68              654.49,873.67 609.70,870.86 587.30,845.00              573.03,828.52 572.24,811.62 572.00,791.00              572.00,791.00 571.00,778.00 571.00,778.00              571.00,778.00 572.00,761.00 572.00,761.00              572.00,761.00 572.00,654.00 572.00,654.00 Z            M 75.00,655.00            C 75.00,655.00 124.00,655.00 124.00,655.00              124.00,655.00 132.15,656.60 132.15,656.60              132.15,656.60 137.14,671.00 137.14,671.00              137.14,671.00 146.66,703.00 146.66,703.00              146.66,703.00 175.72,801.00 175.72,801.00              175.72,801.00 188.42,844.00 188.42,844.00              188.42,844.00 194.00,863.00 194.00,863.00              194.00,863.00 156.00,863.00 156.00,863.00              154.00,863.00 150.34,863.26 148.72,862.01              147.04,860.70 146.02,856.09 145.42,854.00              145.42,854.00 139.86,834.00 139.86,834.00              139.08,831.25 137.95,825.63 135.57,824.02              133.73,822.78 130.18,823.00 128.00,823.00              128.00,823.00 76.00,823.00 76.00,823.00              73.72,823.00 70.23,822.79 68.28,824.02              65.74,825.62 65.07,829.30 64.29,832.00              64.29,832.00 58.86,851.00 58.86,851.00              55.72,862.06 56.37,862.94 48.00,863.00              48.00,863.00 14.00,863.00 14.00,863.00              14.00,863.00 20.98,838.00 20.98,838.00              20.98,838.00 31.98,801.00 31.98,801.00              31.98,801.00 57.72,714.00 57.72,714.00              57.72,714.00 70.42,671.00 70.42,671.00              70.42,671.00 75.00,655.00 75.00,655.00 Z            M 933.00,655.00            C 933.00,655.00 975.00,655.00 975.00,655.00              975.00,655.00 982.61,656.02 982.61,656.02              982.61,656.02 988.42,666.00 988.42,666.00              988.42,666.00 998.23,688.00 998.23,688.00              998.23,688.00 1029.14,757.00 1029.14,757.00              1029.14,757.00 1047.00,796.00 1047.00,796.00              1047.00,796.00 1047.00,655.00 1047.00,655.00              1047.00,655.00 1085.00,655.00 1085.00,655.00              1085.00,655.00 1085.00,863.00 1085.00,863.00              1085.00,863.00 1043.00,863.00 1043.00,863.00              1043.00,863.00 1035.63,862.01 1035.63,862.01              1035.63,862.01 1030.14,852.00 1030.14,852.00              1030.14,852.00 1019.86,829.00 1019.86,829.00              1019.86,829.00 987.30,756.00 987.30,756.00              987.30,756.00 971.00,720.00 971.00,720.00              971.00,720.00 971.00,863.00 971.00,863.00              971.00,863.00 933.00,863.00 933.00,863.00              933.00,863.00 933.00,655.00 933.00,655.00 Z            M 1186.00,688.48            C 1181.39,689.05 1178.25,689.68 1174.00,691.81              1148.71,704.45 1149.96,741.98 1150.00,766.00              1150.02,777.31 1152.38,796.71 1156.87,807.00              1164.23,823.85 1178.99,831.35 1197.00,828.70              1215.46,825.98 1224.61,809.80 1227.74,793.00              1229.38,784.23 1230.99,771.85 1231.00,763.00              1231.03,745.07 1230.29,727.87 1223.40,711.00              1218.94,700.09 1211.96,691.42 1200.00,688.48              1195.78,687.71 1190.31,687.88 1186.00,688.48 Z            M 256.00,745.00            C 269.25,745.00 287.78,744.87 298.99,737.09              312.08,727.99 312.61,703.84 298.99,694.97              288.21,687.93 268.62,689.00 256.00,689.00              256.00,689.00 256.00,745.00 256.00,745.00 Z            M 430.00,828.00            C 449.17,828.00 469.79,828.52 484.99,814.82              491.86,808.61 495.87,799.68 498.66,791.00              504.90,771.53 504.01,747.73 499.35,728.00              496.76,717.06 491.97,705.56 483.00,698.38              468.18,686.52 447.71,689.00 430.00,689.00              430.00,689.00 430.00,828.00 430.00,828.00 Z            M 103.00,699.00            C 103.00,699.00 94.29,727.00 94.29,727.00              94.29,727.00 77.00,788.00 77.00,788.00              77.00,788.00 127.00,788.00 127.00,788.00              127.00,788.00 103.00,699.00 103.00,699.00 Z"/>
</svg>