<svg xmlns="http://www.w3.org/2000/svg" viewBox="-0.5 -0.5 1281 610.03">
  <path id="arduino" fill="#303030" stroke="none" stroke-width="1"
    d="M 635.00,401.00            C 632.29,408.08 621.67,422.28 616.86,429.00              616.86,429.00 576.27,481.00 576.27,481.00              576.27,481.00 550.01,509.00 550.01,509.00              550.01,509.00 538.00,521.96 538.00,521.96              516.59,542.54 490.75,560.79 464.00,573.74              426.57,591.87 386.30,601.26 345.00,604.09              345.00,604.09 333.00,605.00 333.00,605.00              333.00,605.00 309.00,605.00 309.00,605.00              309.00,605.00 299.00,604.09 299.00,604.09              299.00,604.09 277.00,602.15 277.00,602.15              199.74,592.92 125.28,557.10 72.09,500.00              44.38,470.25 23.21,432.48 10.33,394.00              5.96,380.92 0.02,360.61 0.00,347.00              0.00,347.00 0.00,269.00 0.00,269.00              0.11,259.79 3.82,245.19 6.13,236.00              12.60,210.23 23.60,183.08 36.72,160.00              69.31,102.65 118.58,53.05 179.00,25.31              207.87,12.05 249.12,0.05 281.00,0.00              281.00,0.00 320.00,0.00 320.00,0.00              320.00,0.00 333.00,0.96 333.00,0.96              362.64,2.25 391.77,7.10 420.00,16.51              478.02,35.85 524.95,67.95 568.00,111.00              568.00,111.00 584.83,128.00 584.83,128.00              584.83,128.00 618.35,168.00 618.35,168.00              618.35,168.00 640.00,197.00 640.00,197.00              646.11,185.13 673.64,150.53 683.25,139.00              734.20,77.86 802.35,24.53 881.00,5.88              891.17,3.47 909.82,0.02 920.00,0.00              920.00,0.00 987.00,0.00 987.00,0.00              1011.81,0.12 1054.43,12.68 1078.00,21.58              1164.31,54.17 1237.21,122.64 1266.67,211.00              1272.86,229.59 1279.77,259.55 1280.00,279.00              1280.00,279.00 1280.00,314.00 1280.00,314.00              1279.97,332.40 1273.50,363.22 1267.98,381.00              1236.73,481.52 1152.36,564.78 1052.00,595.98              1018.57,606.36 989.79,609.40 955.00,609.00              955.00,609.00 945.00,608.09 945.00,608.09              924.79,606.68 908.48,603.00 889.00,597.88              889.00,597.88 853.00,587.31 853.00,587.31              803.60,569.73 757.81,540.19 720.00,504.04              720.00,504.04 709.00,494.00 709.00,494.00              709.00,494.00 699.91,484.00 699.91,484.00              684.53,467.49 670.11,450.39 657.00,432.00              652.17,425.22 639.63,407.87 637.00,401.00              637.00,401.00 635.00,401.00 635.00,401.00 Z            M 936.00,104.14            C 910.59,107.94 898.49,108.95 874.00,119.43              845.39,131.67 812.24,157.46 790.04,179.09              790.04,179.09 781.96,188.00 781.96,188.00              767.77,202.83 754.87,218.52 742.63,235.00              742.63,235.00 712.33,279.00 712.33,279.00              709.83,282.75 701.68,294.07 701.49,298.00              701.28,302.11 708.49,313.93 710.69,318.00              720.08,335.32 730.23,351.97 741.71,368.00              785.22,428.79 840.32,476.43 914.00,494.87              928.49,498.50 942.92,502.82 958.00,503.00              982.55,503.28 1000.47,501.49 1024.00,493.65              1101.41,467.84 1168.03,392.86 1174.09,310.00              1174.09,310.00 1175.00,300.00 1175.00,300.00              1175.34,270.89 1167.54,241.54 1153.69,216.00              1143.40,197.01 1127.19,177.48 1111.00,163.29              1088.00,143.12 1060.02,127.04 1031.00,117.33              1003.46,108.12 981.06,104.00 952.00,104.14              952.00,104.14 936.00,104.14 936.00,104.14 Z            M 278.00,106.10            C 256.18,109.49 241.14,113.10 221.00,122.78              177.09,143.89 140.56,184.95 120.70,229.00              112.17,247.91 103.25,276.22 103.00,297.00              102.71,321.96 102.67,335.70 110.67,360.00              132.61,426.63 186.85,470.55 253.00,489.42              269.52,494.14 292.89,498.80 310.00,499.00              310.00,499.00 332.00,499.00 332.00,499.00              332.00,499.00 344.00,498.08 344.00,498.08              376.10,495.52 408.77,485.28 436.00,467.95              444.80,462.35 457.59,452.23 464.91,444.91              464.91,444.91 474.00,435.00 474.00,435.00              495.80,412.94 513.43,391.18 531.42,366.00              531.42,366.00 566.42,313.00 566.42,313.00              568.99,308.90 577.16,298.58 576.03,294.00              575.28,290.98 565.36,276.53 563.00,273.00              563.00,273.00 528.00,225.00 528.00,225.00              495.24,184.05 455.51,146.30 407.00,124.86              383.41,114.44 358.64,108.70 333.00,106.91              333.00,106.91 319.00,106.10 319.00,106.10              319.00,106.10 302.00,106.10 302.00,106.10              302.00,106.10 278.00,106.10 278.00,106.10 Z            M 922.00,204.00            C 922.00,204.00 980.00,204.00 980.00,204.00              980.00,204.00 980.00,264.00 980.00,264.00              980.00,264.00 1042.00,264.00 1042.00,264.00              1042.00,264.00 1042.00,322.00 1042.00,322.00              1042.00,322.00 980.00,322.00 980.00,322.00              980.00,322.00 980.00,383.00 980.00,383.00              980.00,383.00 922.00,383.00 922.00,383.00              922.00,383.00 922.00,322.00 922.00,322.00              922.00,322.00 864.00,322.00 864.00,322.00              864.00,322.00 864.00,264.00 864.00,264.00              864.00,264.00 922.00,264.00 922.00,264.00              922.00,264.00 922.00,204.00 922.00,204.00 Z            M 209.00,271.00            C 209.00,271.00 424.00,271.00 424.00,271.00              424.00,271.00 424.00,316.00 424.00,316.00              424.00,316.00 209.00,316.00 209.00,316.00              209.00,316.00 209.00,271.00 209.00,271.00 Z" />
</svg>