<svg xmlns="http://www.w3.org/2000/svg" viewBox="1.28 1.51 502.56 154.09">
  <path id="arm" fill="#303030" stroke="none" stroke-width="1"
    d="M 114.00,137.00            C 109.91,144.95 97.43,151.09 89.00,153.36              80.92,155.54 74.28,155.09 66.00,155.00              49.45,154.80 31.08,145.70 20.62,133.00              -1.36,106.32 -4.59,63.63 13.46,34.00              29.81,7.16 66.87,-5.64 96.00,6.87              104.57,10.55 108.53,14.55 115.00,21.00              115.00,21.00 115.00,6.00 115.00,6.00              115.00,6.00 149.00,6.00 149.00,6.00              149.00,6.00 149.00,151.00 149.00,151.00              149.00,151.00 115.00,151.00 115.00,151.00              115.00,151.00 114.00,137.00 114.00,137.00 Z            M 223.00,17.00            C 227.74,12.48 232.95,8.03 239.00,5.35              252.45,-0.63 271.42,2.04 284.00,9.00              284.00,9.00 270.00,41.00 270.00,41.00              263.89,38.37 259.91,35.93 253.00,35.60              231.68,34.57 223.03,53.62 223.00,72.00              223.00,72.00 223.00,151.00 223.00,151.00              223.00,151.00 188.00,151.00 188.00,151.00              188.00,151.00 188.00,6.00 188.00,6.00              188.00,6.00 223.00,6.00 223.00,6.00              223.00,6.00 223.00,17.00 223.00,17.00 Z            M 339.00,17.00            C 344.07,12.36 349.55,8.01 356.00,5.46              373.66,-1.50 401.78,2.74 410.00,22.00              410.00,22.00 422.00,11.78 422.00,11.78              431.00,5.27 443.90,1.61 455.00,2.04              459.01,2.20 467.19,3.50 471.00,4.75              508.94,17.17 503.00,61.61 503.00,93.00              503.00,93.00 503.00,119.00 503.00,119.00              503.00,119.00 503.00,151.00 503.00,151.00              503.00,151.00 468.00,151.00 468.00,151.00              468.00,151.00 468.00,61.00 468.00,61.00              467.87,50.37 464.06,38.51 453.00,34.61              438.57,29.53 425.64,42.80 422.66,56.00              420.13,67.24 421.00,80.39 421.00,92.00              421.00,92.00 421.00,151.00 421.00,151.00              421.00,151.00 386.00,151.00 386.00,151.00              386.00,151.00 386.00,62.00 386.00,62.00              385.87,51.12 382.43,38.63 371.00,34.61              356.51,29.51 343.65,42.74 340.66,56.00              338.13,67.24 339.00,80.39 339.00,92.00              339.00,92.00 339.00,151.00 339.00,151.00              339.00,151.00 304.00,151.00 304.00,151.00              304.00,151.00 304.00,6.00 304.00,6.00              304.00,6.00 339.00,6.00 339.00,6.00              339.00,6.00 339.00,17.00 339.00,17.00 Z            M 75.00,33.32            C 59.34,35.46 49.14,41.18 42.12,56.00              29.71,82.21 41.32,123.60 75.00,124.00              81.73,124.08 86.69,123.95 93.00,121.10              130.92,103.96 123.76,32.23 75.00,33.32 Z" />
</svg>