<svg xmlns="http://www.w3.org/2000/svg" viewBox="621.49 226.5 1955.01 531">
  <path id="armut-text" fill="#303030" stroke="none" stroke-width="1"
    d="M 2396.00,227.00            C 2396.00,227.00 2488.00,227.00 2488.00,227.00              2488.00,227.00 2488.00,318.00 2488.00,318.00              2488.00,318.00 2576.00,318.00 2576.00,318.00              2576.00,318.00 2576.00,370.00 2576.00,370.00              2576.00,373.08 2576.10,376.01 2575.20,379.00              2572.31,388.60 2561.45,398.28 2552.00,401.23              2544.18,403.67 2535.17,403.00 2527.00,403.00              2527.00,403.00 2488.00,403.00 2488.00,403.00              2488.00,403.00 2488.00,615.00 2488.00,615.00              2488.04,640.55 2503.53,663.96 2531.00,664.00              2531.00,664.00 2576.00,664.00 2576.00,664.00              2576.00,664.00 2576.00,757.00 2576.00,757.00              2576.00,757.00 2527.00,757.00 2527.00,757.00              2493.67,756.95 2453.42,739.72 2431.17,715.00              2420.62,703.28 2409.50,686.85 2404.05,672.00              2395.36,648.28 2396.00,631.48 2396.00,607.00              2396.00,607.00 2396.00,553.00 2396.00,553.00              2396.00,553.00 2396.00,227.00 2396.00,227.00 Z            M 1364.00,756.00            C 1364.00,756.00 1364.00,475.00 1364.00,475.00              1364.03,456.35 1369.62,434.01 1377.14,417.00              1402.71,359.15 1454.81,321.25 1518.00,316.91              1518.00,316.91 1530.00,316.01 1530.00,316.01              1530.00,316.01 1539.00,316.91 1539.00,316.91              1585.19,320.09 1619.32,338.62 1652.00,371.00              1655.55,366.08 1659.54,363.11 1664.00,359.07              1676.79,347.49 1694.96,336.24 1711.00,329.80              1730.97,321.79 1745.60,318.38 1767.00,316.91              1767.00,316.91 1779.00,316.01 1779.00,316.01              1779.00,316.01 1788.00,317.04 1788.00,317.04              1788.00,317.04 1796.00,317.04 1796.00,317.04              1834.13,320.82 1866.75,336.32 1895.00,361.83              1898.68,365.15 1901.37,367.18 1904.83,371.00              1913.33,380.37 1921.66,392.85 1927.69,404.00              1950.00,445.25 1946.00,491.71 1946.00,537.00              1946.00,537.00 1946.00,756.00 1946.00,756.00              1946.00,756.00 1889.00,756.00 1889.00,756.00              1869.84,755.97 1854.03,742.74 1854.00,723.00              1854.00,723.00 1854.00,488.00 1854.00,488.00              1853.96,464.53 1845.83,441.09 1828.00,425.17              1822.61,420.36 1819.26,418.88 1813.00,415.75              1789.05,403.81 1765.93,403.82 1742.00,415.75              1731.90,420.79 1725.84,424.98 1718.67,434.00              1708.21,447.15 1701.03,462.98 1701.00,480.00              1701.00,480.00 1701.00,513.00 1701.00,513.00              1701.00,513.00 1701.00,611.00 1701.00,611.00              1701.00,611.00 1701.00,756.00 1701.00,756.00              1701.00,756.00 1642.00,756.00 1642.00,756.00              1622.86,755.97 1610.03,743.13 1610.00,724.00              1610.00,724.00 1610.00,488.00 1610.00,488.00              1609.96,463.23 1599.80,438.09 1580.00,422.52              1547.79,397.18 1497.86,404.02 1472.67,436.00              1454.19,459.45 1457.00,479.23 1457.00,507.00              1457.00,507.00 1457.00,611.00 1457.00,611.00              1457.00,611.00 1457.00,756.00 1457.00,756.00              1457.00,756.00 1364.00,756.00 1364.00,756.00 Z            M 969.00,716.00            C 952.24,730.17 931.57,738.48 911.00,745.33              861.20,761.92 808.78,759.28 760.00,740.61              760.00,740.61 749.00,736.69 749.00,736.69              730.17,728.26 710.23,713.89 695.00,700.07              685.71,691.65 677.34,684.14 669.74,674.00              647.01,643.65 632.45,612.30 625.46,575.00              623.59,565.03 621.88,544.16 622.00,534.00              622.00,534.00 623.04,524.00 623.04,524.00              623.04,524.00 623.04,516.00 623.04,516.00              627.21,473.57 645.64,428.44 673.30,396.00              691.26,374.93 707.28,361.72 731.00,347.60              760.03,330.33 792.35,320.26 826.00,317.91              826.00,317.91 836.00,317.00 836.00,317.00              874.87,316.55 911.81,324.92 946.00,343.70              953.84,348.00 961.92,352.53 969.00,358.00              969.00,358.00 969.00,317.00 969.00,317.00              969.00,317.00 1062.00,317.00 1062.00,317.00              1062.00,317.00 1062.00,756.00 1062.00,756.00              1062.00,756.00 1004.00,756.00 1004.00,756.00              989.03,755.98 975.40,747.85 970.77,733.00              968.87,726.89 969.00,722.24 969.00,716.00 Z            M 1120.00,317.00            C 1120.00,317.00 1212.00,317.00 1212.00,317.00              1212.00,317.00 1212.00,346.00 1212.00,346.00              1212.00,346.00 1213.00,364.00 1213.00,364.00              1218.33,353.89 1230.54,343.04 1240.00,336.67              1270.57,316.08 1309.92,312.63 1345.00,321.88              1345.00,321.88 1368.00,330.00 1368.00,330.00              1368.00,330.00 1356.78,352.00 1356.78,352.00              1356.78,352.00 1342.14,380.00 1342.14,380.00              1342.14,380.00 1326.00,410.00 1326.00,410.00              1317.62,408.71 1313.58,406.12 1304.00,406.00              1295.49,405.90 1290.46,405.77 1282.00,407.66              1244.47,416.07 1212.06,450.47 1212.00,490.00              1212.00,490.00 1212.00,756.00 1212.00,756.00              1212.00,756.00 1120.00,756.00 1120.00,756.00              1120.00,756.00 1120.00,317.00 1120.00,317.00 Z            M 2000.00,317.00            C 2000.00,317.00 2092.00,317.00 2092.00,317.00              2092.00,317.00 2092.00,591.00 2092.00,591.00              2092.01,598.78 2093.36,606.58 2095.75,614.00              2097.31,618.86 2100.01,622.87 2100.00,628.00              2103.80,630.70 2107.70,638.04 2111.18,642.00              2118.81,650.67 2128.20,657.96 2139.00,662.19              2170.28,674.42 2201.31,666.47 2224.07,641.99              2230.33,635.26 2234.89,629.43 2238.69,621.00              2242.85,611.77 2244.98,598.12 2245.00,588.00              2245.00,588.00 2245.00,317.00 2245.00,317.00              2245.00,317.00 2337.00,317.00 2337.00,317.00              2337.00,317.00 2337.00,756.00 2337.00,756.00              2337.00,756.00 2295.00,756.00 2295.00,756.00              2275.87,756.00 2260.73,758.01 2249.07,739.00              2241.88,727.29 2247.07,722.80 2244.00,712.00              2239.95,726.16 2228.58,734.96 2216.00,741.25              2200.44,749.03 2181.54,754.79 2164.00,755.00              2118.78,755.53 2081.99,740.00 2050.00,708.00              2042.02,700.02 2033.67,690.37 2027.36,681.00              2012.58,659.08 2000.04,625.66 2000.00,599.00              2000.00,599.00 2000.00,535.00 2000.00,535.00              2000.00,535.00 2000.00,317.00 2000.00,317.00 Z            M 829.00,411.28            C 817.10,413.03 801.03,416.23 790.00,420.87              765.21,431.31 740.26,456.07 728.27,480.00              704.40,527.63 713.28,586.42 750.09,624.99              762.26,637.74 781.53,649.81 798.00,656.19              808.91,660.41 826.31,663.86 838.00,664.00              857.91,664.23 874.66,661.20 893.00,653.28              907.48,647.03 925.33,634.78 935.71,623.00              964.35,590.50 975.22,550.26 965.65,508.00              963.40,498.04 959.59,486.98 954.69,478.00              954.69,478.00 943.37,461.00 943.37,461.00              936.32,451.53 932.34,446.51 923.00,439.00              914.00,431.76 904.71,425.38 894.00,420.87              874.95,412.85 849.56,409.37 829.00,411.28 Z" />
</svg>