<svg xmlns="http://www.w3.org/2000/svg" viewBox="23.5 7.26 477.04 821.24">
  <path id="armut" fill="#303030" stroke="none" stroke-width="1"
    d="M 327.00,8.46            C 332.00,7.77 349.15,6.68 352.40,10.43              354.48,12.82 354.06,17.10 353.54,20.00              352.35,26.59 348.37,36.05 345.22,42.00              334.50,62.23 325.14,65.98 309.75,80.66              302.80,87.30 292.17,99.98 286.74,108.00              286.74,108.00 270.42,137.00 270.42,137.00              268.53,140.36 266.28,146.71 261.97,147.21              255.77,147.92 255.81,140.08 256.28,136.00              256.28,136.00 261.60,98.00 261.60,98.00              267.65,67.93 280.25,29.62 309.00,14.32              314.59,11.35 320.85,9.79 327.00,8.46 Z            M 178.00,240.00            C 178.00,240.00 187.46,221.00 187.46,221.00              194.20,210.05 203.23,201.91 214.00,195.05              231.25,184.07 245.81,180.77 266.00,181.00              286.90,181.25 312.93,193.62 326.82,209.01              334.03,217.01 339.79,227.95 343.58,238.00              349.57,253.92 347.75,267.11 350.61,283.00              354.79,306.16 366.83,341.20 379.23,361.00              388.77,376.24 396.69,386.84 409.09,400.00              409.09,400.00 422.00,412.00 422.00,412.00              432.81,422.69 442.89,433.90 452.12,446.00              475.79,477.04 491.73,510.17 497.73,549.00              500.42,566.48 500.03,581.47 500.00,599.00              499.96,629.77 493.03,661.36 479.25,689.00              463.37,720.83 449.92,740.36 424.00,765.04              414.47,774.11 404.10,782.80 393.00,789.91              393.00,789.91 376.00,799.31 376.00,799.31              348.90,814.00 308.03,827.95 277.00,828.00              277.00,828.00 245.00,828.00 245.00,828.00              211.98,827.61 171.57,812.79 143.00,796.86              143.00,796.86 130.00,789.62 130.00,789.62              115.33,780.18 102.28,768.30 90.00,756.00              74.15,740.12 59.82,720.09 49.75,700.00              37.49,675.53 30.46,657.20 25.92,630.00              25.09,625.00 24.06,620.08 24.00,615.00              24.00,615.00 24.00,566.00 24.00,566.00              24.02,552.77 28.78,532.65 33.00,520.00              41.50,494.50 46.99,481.82 61.69,459.00              67.98,449.23 80.02,433.32 88.04,425.00              88.04,425.00 101.00,412.91 101.00,412.91              109.79,404.73 119.99,394.30 127.54,385.00              150.78,356.36 168.16,315.53 173.57,279.00              173.57,279.00 175.09,260.00 175.09,260.00              175.09,260.00 178.00,240.00 178.00,240.00 Z" />
</svg>