<svg xmlns="http://www.w3.org/2000/svg" viewBox="-0.52 -0.52 1031.03 464.98">
  <path id="arxiv-wordmark" fill="#303030" stroke="#303030" stroke-width="1"
    d="M 533.00,306.00            C 530.36,311.58 526.24,314.61 522.04,319.00              522.04,319.00 505.09,337.00 505.09,337.00              505.09,337.00 443.01,403.00 443.01,403.00              437.19,408.97 423.88,425.21 417.00,427.99              414.29,429.09 410.90,429.07 408.00,428.98              397.23,428.69 389.30,419.76 390.19,409.00              390.47,405.61 391.86,400.95 393.53,398.00              393.53,398.00 418.08,368.00 418.08,368.00              418.08,368.00 473.75,302.00 473.75,302.00              473.75,302.00 497.71,273.00 497.71,273.00              500.22,267.97 493.14,263.24 490.04,260.00              490.04,260.00 482.91,252.00 482.91,252.00              476.76,245.36 471.62,240.85 472.10,231.00              472.63,220.12 482.78,211.40 489.99,204.00              492.28,201.65 498.76,195.36 498.42,192.00              498.16,189.42 492.43,183.22 490.59,181.00              490.59,181.00 469.08,155.00 469.08,155.00              469.08,155.00 389.58,59.00 389.58,59.00              389.58,59.00 382.08,50.00 382.08,50.00              372.93,39.04 354.31,22.20 365.80,7.09              371.33,-0.18 382.14,-2.10 390.00,2.36              395.76,5.64 411.12,23.14 416.28,29.00              416.28,29.00 436.91,51.00 436.91,51.00              436.91,51.00 480.09,98.00 480.09,98.00              480.09,98.00 502.42,122.00 502.42,122.00              502.42,122.00 524.72,146.00 524.72,146.00              526.69,148.24 530.85,153.96 534.00,153.96              536.82,153.96 540.94,149.02 542.72,147.00              542.72,147.00 561.01,127.00 561.01,127.00              561.01,127.00 584.09,102.00 584.09,102.00              584.09,102.00 615.83,68.00 615.83,68.00              621.87,61.32 636.65,43.48 644.00,40.48              655.66,35.72 670.80,44.09 671.78,57.00              672.15,61.91 669.65,66.11 666.96,70.00              666.96,70.00 627.42,119.00 627.42,119.00              627.42,119.00 567.00,193.00 567.00,193.00              573.45,197.62 574.86,200.58 580.04,206.00              583.86,210.01 593.06,219.21 594.99,224.00              596.10,226.73 596.06,230.08 595.99,233.00              595.74,243.10 590.47,246.15 584.09,253.00              584.09,253.00 567.00,271.00 567.00,271.00              572.57,275.07 579.71,284.40 584.41,290.00              584.41,290.00 610.59,321.00 610.59,321.00              610.59,321.00 692.59,418.00 692.59,418.00              698.34,424.86 705.70,432.17 708.07,441.00              711.54,453.86 700.97,464.81 688.00,463.90              679.02,463.27 675.70,457.84 669.99,452.00              669.99,452.00 642.91,423.00 642.91,423.00              642.91,423.00 576.09,352.00 576.09,352.00              576.09,352.00 533.00,306.00 533.00,306.00 Z            M 744.00,39.28            C 746.30,39.15 747.63,38.95 750.00,39.28              753.38,39.30 756.99,40.29 760.00,41.83              783.45,53.84 773.38,91.00 747.00,88.81              728.16,87.25 716.37,66.06 727.65,50.00              731.87,43.98 737.02,41.12 744.00,39.28 Z            M 136.00,172.00            C 136.00,172.00 79.00,172.00 79.00,172.00              79.00,172.00 20.00,172.00 20.00,172.00              14.32,171.93 9.38,170.91 5.17,166.79              -1.42,160.44 -1.54,147.60 5.17,141.39              9.75,137.22 15.24,137.01 21.00,137.00              21.00,137.00 136.00,137.00 136.00,137.00              160.84,137.04 170.96,152.81 171.00,176.00              171.00,176.00 171.00,330.00 171.00,330.00              171.00,330.00 42.00,330.00 42.00,330.00              42.00,330.00 27.00,330.00 27.00,330.00              14.55,330.00 4.56,329.54 0.90,315.00              -0.07,311.16 0.01,308.87 0.00,305.00              0.00,305.00 0.00,266.00 0.00,266.00              0.00,255.23 -0.59,245.51 5.55,236.00              14.80,221.66 27.86,220.91 43.00,218.73              43.00,218.73 100.00,210.73 100.00,210.73              100.00,210.73 136.00,206.00 136.00,206.00              136.00,206.00 136.00,172.00 136.00,172.00 Z            M 282.00,172.00            C 282.00,172.00 253.00,172.00 253.00,172.00              248.17,171.94 242.87,171.24 239.22,167.73              233.31,162.04 233.46,146.99 239.22,141.22              242.90,137.54 247.09,137.06 252.00,137.00              252.00,137.00 287.00,137.00 287.00,137.00              290.53,137.01 293.73,136.81 297.00,138.45              302.13,141.03 304.28,145.29 307.00,150.00              313.21,134.15 327.24,137.00 341.00,137.00              341.00,137.00 379.00,137.00 379.00,137.00              384.56,137.00 392.13,136.28 397.00,139.09              405.01,143.70 405.99,151.69 406.00,160.00              406.01,168.88 407.38,191.10 402.99,197.93              397.61,206.38 378.62,206.38 373.23,197.93              369.86,192.61 371.00,178.61 371.00,172.00              371.00,172.00 337.00,172.00 337.00,172.00              332.62,172.00 325.71,171.32 322.04,173.74              316.88,177.14 317.01,181.52 317.00,187.00              317.00,187.00 317.00,296.00 317.00,296.00              317.00,296.00 360.00,296.00 360.00,296.00              380.14,296.27 376.26,320.36 371.44,325.78              367.58,330.13 362.31,329.99 357.00,330.00              357.00,330.00 248.00,330.00 248.00,330.00              243.17,329.99 239.12,330.22 235.34,326.61              229.16,320.71 229.14,304.00 236.11,298.65              239.56,296.00 242.89,296.02 247.00,296.00              247.00,296.00 282.00,296.00 282.00,296.00              282.00,296.00 282.00,172.00 282.00,172.00 Z            M 738.00,172.00            C 738.00,172.00 705.00,172.00 705.00,172.00              700.39,171.98 695.06,171.66 691.10,169.00              683.10,163.61 683.28,146.59 690.21,140.42              694.17,136.89 699.05,137.01 704.00,137.00              704.00,137.00 748.00,137.00 748.00,137.00              754.69,137.00 762.28,135.98 767.79,140.64              772.77,144.83 772.99,152.98 773.00,159.00              773.00,159.00 773.00,296.00 773.00,296.00              773.00,296.00 816.00,296.00 816.00,296.00              836.00,296.27 833.87,319.28 827.72,325.79              823.70,330.05 819.39,329.99 814.00,330.00              814.00,330.00 695.00,330.00 695.00,330.00              690.15,329.99 686.07,330.18 682.22,326.61              675.71,320.56 676.28,302.93 684.04,298.01              688.41,295.24 695.87,296.00 701.00,296.00              701.00,296.00 738.00,296.00 738.00,296.00              738.00,296.00 738.00,172.00 738.00,172.00 Z            M 939.00,296.00            C 939.00,296.00 950.42,267.00 950.42,267.00              950.42,267.00 965.42,228.00 965.42,228.00              965.42,228.00 982.40,184.00 982.40,184.00              982.40,184.00 993.60,155.00 993.60,155.00              995.52,150.19 997.40,144.22 1001.33,140.71              1008.57,134.23 1021.74,136.28 1027.35,144.04              1030.07,147.80 1030.11,151.56 1029.98,156.00              1029.82,162.00 1027.72,165.49 1025.68,171.00              1025.68,171.00 1014.00,201.00 1014.00,201.00              1014.00,201.00 978.00,293.00 978.00,293.00              978.00,293.00 969.40,315.00 969.40,315.00              967.59,319.51 965.95,324.31 961.91,327.35              958.68,329.77 955.85,329.94 952.00,330.00              952.00,330.00 927.00,330.00 927.00,330.00              923.37,329.99 920.34,330.22 917.02,328.43              909.54,324.40 904.42,306.05 901.20,298.00              901.20,298.00 874.80,231.00 874.80,231.00              874.80,231.00 860.05,194.00 860.05,194.00              857.18,186.34 846.56,162.08 846.09,156.00              845.17,143.96 853.17,136.51 865.00,137.04              876.29,137.55 878.79,144.97 882.40,154.00              882.40,154.00 895.19,186.00 895.19,186.00              895.19,186.00 911.40,227.00 911.40,227.00              911.40,227.00 929.60,273.00 929.60,273.00              929.60,273.00 939.00,296.00 939.00,296.00 Z            M 539.00,162.00            C 539.00,162.00 538.00,162.00 538.00,162.00              538.00,162.00 539.00,163.00 539.00,163.00              539.00,163.00 539.00,162.00 539.00,162.00 Z            M 540.00,163.00            C 540.00,163.00 539.00,163.00 539.00,163.00              539.00,163.00 540.00,164.00 540.00,164.00              540.00,164.00 540.00,163.00 540.00,163.00 Z            M 541.00,164.00            C 541.00,164.00 540.00,164.00 540.00,164.00              540.00,164.00 541.00,165.00 541.00,165.00              541.00,165.00 541.00,164.00 541.00,164.00 Z            M 542.00,165.00            C 542.00,165.00 541.00,165.00 541.00,165.00              541.00,165.00 542.00,166.00 542.00,166.00              542.00,166.00 542.00,165.00 542.00,165.00 Z            M 543.00,166.00            C 543.00,166.00 542.00,166.00 542.00,166.00              542.00,166.00 543.00,167.00 543.00,167.00              543.00,167.00 543.00,166.00 543.00,166.00 Z            M 544.00,167.00            C 544.00,167.00 543.00,167.00 543.00,167.00              543.00,167.00 544.00,168.00 544.00,168.00              544.00,168.00 544.00,167.00 544.00,167.00 Z            M 545.00,168.00            C 545.00,168.00 544.00,168.00 544.00,168.00              544.00,168.00 545.00,169.00 545.00,169.00              545.00,169.00 545.00,168.00 545.00,168.00 Z            M 552.00,176.00            C 552.00,176.00 551.00,176.00 551.00,176.00              551.00,176.00 552.00,177.00 552.00,177.00              552.00,177.00 552.00,176.00 552.00,176.00 Z            M 553.00,177.00            C 553.00,177.00 552.00,177.00 552.00,177.00              552.00,177.00 553.00,178.00 553.00,178.00              553.00,178.00 553.00,177.00 553.00,177.00 Z            M 554.00,178.00            C 554.00,178.00 553.00,178.00 553.00,178.00              553.00,178.00 554.00,179.00 554.00,179.00              554.00,179.00 554.00,178.00 554.00,178.00 Z            M 555.00,179.00            C 555.00,179.00 554.00,179.00 554.00,179.00              554.00,179.00 555.00,180.00 555.00,180.00              555.00,180.00 555.00,179.00 555.00,179.00 Z            M 556.00,180.00            C 556.00,180.00 555.00,180.00 555.00,180.00              555.00,180.00 556.00,181.00 556.00,181.00              556.00,181.00 556.00,180.00 556.00,180.00 Z            M 557.00,181.00            C 557.00,181.00 556.00,181.00 556.00,181.00              556.00,181.00 557.00,182.00 557.00,182.00              557.00,182.00 557.00,181.00 557.00,181.00 Z            M 564.00,189.00            C 564.00,189.00 563.00,189.00 563.00,189.00              563.00,189.00 564.00,190.00 564.00,190.00              564.00,190.00 564.00,189.00 564.00,189.00 Z            M 565.00,190.00            C 565.00,190.00 564.00,190.00 564.00,190.00              564.00,190.00 565.00,191.00 565.00,191.00              565.00,191.00 565.00,190.00 565.00,190.00 Z            M 566.00,191.00            C 566.00,191.00 565.00,191.00 565.00,191.00              565.00,191.00 566.00,192.00 566.00,192.00              566.00,192.00 566.00,191.00 566.00,191.00 Z            M 504.00,195.00            C 504.00,195.00 503.00,195.00 503.00,195.00              503.00,195.00 504.00,196.00 504.00,196.00              504.00,196.00 504.00,195.00 504.00,195.00 Z            M 505.00,196.00            C 505.00,196.00 504.00,196.00 504.00,196.00              504.00,196.00 505.00,197.00 505.00,197.00              505.00,197.00 505.00,196.00 505.00,196.00 Z            M 506.00,197.00            C 506.00,197.00 505.00,197.00 505.00,197.00              505.00,197.00 506.00,198.00 506.00,198.00              506.00,198.00 506.00,197.00 506.00,197.00 Z            M 509.00,201.00            C 509.00,201.00 508.00,201.00 508.00,201.00              508.00,201.00 509.00,202.00 509.00,202.00              509.00,202.00 509.00,201.00 509.00,201.00 Z            M 510.00,202.00            C 510.00,202.00 509.00,202.00 509.00,202.00              509.00,202.00 510.00,203.00 510.00,203.00              510.00,203.00 510.00,202.00 510.00,202.00 Z            M 511.00,203.00            C 511.00,203.00 510.00,203.00 510.00,203.00              510.00,203.00 511.00,204.00 511.00,204.00              511.00,204.00 511.00,203.00 511.00,203.00 Z            M 514.00,207.00            C 514.00,207.00 513.00,207.00 513.00,207.00              513.00,207.00 514.00,208.00 514.00,208.00              514.00,208.00 514.00,207.00 514.00,207.00 Z            M 515.00,208.00            C 515.00,208.00 514.00,208.00 514.00,208.00              514.00,208.00 515.00,209.00 515.00,209.00              515.00,209.00 515.00,208.00 515.00,208.00 Z            M 519.00,213.00            C 519.00,213.00 518.00,213.00 518.00,213.00              518.00,213.00 519.00,214.00 519.00,214.00              519.00,214.00 519.00,213.00 519.00,213.00 Z            M 520.00,214.00            C 520.00,214.00 519.00,214.00 519.00,214.00              519.00,214.00 520.00,215.00 520.00,215.00              520.00,215.00 520.00,214.00 520.00,214.00 Z            M 523.00,218.00            C 523.00,218.00 522.00,218.00 522.00,218.00              522.00,218.00 523.00,219.00 523.00,219.00              523.00,219.00 523.00,218.00 523.00,218.00 Z            M 524.00,219.00            C 524.00,219.00 523.00,219.00 523.00,219.00              523.00,219.00 524.00,220.00 524.00,220.00              524.00,220.00 524.00,219.00 524.00,219.00 Z            M 525.00,220.00            C 525.00,220.00 524.00,220.00 524.00,220.00              524.00,220.00 525.00,221.00 525.00,221.00              525.00,221.00 525.00,220.00 525.00,220.00 Z            M 528.00,224.00            C 528.00,224.00 527.00,224.00 527.00,224.00              527.00,224.00 528.00,225.00 528.00,225.00              528.00,225.00 528.00,224.00 528.00,224.00 Z            M 529.00,225.00            C 529.00,225.00 528.00,225.00 528.00,225.00              528.00,225.00 529.00,226.00 529.00,226.00              529.00,226.00 529.00,225.00 529.00,225.00 Z            M 530.00,226.00            C 530.00,226.00 529.00,226.00 529.00,226.00              529.00,226.00 530.00,227.00 530.00,227.00              530.00,227.00 530.00,226.00 530.00,226.00 Z            M 533.00,230.00            C 533.00,230.00 532.00,230.00 532.00,230.00              532.00,230.00 533.00,231.00 533.00,231.00              533.00,231.00 533.00,230.00 533.00,230.00 Z            M 534.00,231.00            C 534.00,231.00 533.00,231.00 533.00,231.00              533.00,231.00 534.00,232.00 534.00,232.00              534.00,232.00 534.00,231.00 534.00,231.00 Z            M 535.00,232.00            C 535.00,232.00 534.00,232.00 534.00,232.00              534.00,232.00 535.00,233.00 535.00,233.00              535.00,233.00 535.00,232.00 535.00,232.00 Z            M 541.00,239.00            C 541.00,239.00 540.00,239.00 540.00,239.00              540.00,239.00 541.00,240.00 541.00,240.00              541.00,240.00 541.00,239.00 541.00,239.00 Z            M 542.00,240.00            C 542.00,240.00 541.00,240.00 541.00,240.00              541.00,240.00 542.00,241.00 542.00,241.00              542.00,241.00 542.00,240.00 542.00,240.00 Z            M 136.00,241.00            C 136.00,241.00 70.00,250.28 70.00,250.28              70.00,250.28 35.00,255.00 35.00,255.00              35.00,255.00 35.00,296.00 35.00,296.00              35.00,296.00 136.00,296.00 136.00,296.00              136.00,296.00 136.00,241.00 136.00,241.00 Z            M 543.00,241.00            C 543.00,241.00 542.00,241.00 542.00,241.00              542.00,241.00 543.00,242.00 543.00,242.00              543.00,242.00 543.00,241.00 543.00,241.00 Z            M 546.00,245.00            C 546.00,245.00 545.00,245.00 545.00,245.00              545.00,245.00 546.00,246.00 546.00,246.00              546.00,246.00 546.00,245.00 546.00,245.00 Z            M 547.00,246.00            C 547.00,246.00 546.00,246.00 546.00,246.00              546.00,246.00 547.00,247.00 547.00,247.00              547.00,247.00 547.00,246.00 547.00,246.00 Z            M 548.00,247.00            C 548.00,247.00 547.00,247.00 547.00,247.00              547.00,247.00 548.00,248.00 548.00,248.00              548.00,248.00 548.00,247.00 548.00,247.00 Z            M 552.00,252.00            C 552.00,252.00 551.00,252.00 551.00,252.00              551.00,252.00 552.00,253.00 552.00,253.00              552.00,253.00 552.00,252.00 552.00,252.00 Z            M 553.00,253.00            C 553.00,253.00 552.00,253.00 552.00,253.00              552.00,253.00 553.00,254.00 553.00,254.00              553.00,254.00 553.00,253.00 553.00,253.00 Z            M 557.00,258.00            C 557.00,258.00 556.00,258.00 556.00,258.00              556.00,258.00 557.00,259.00 557.00,259.00              557.00,259.00 557.00,258.00 557.00,258.00 Z            M 558.00,259.00            C 558.00,259.00 557.00,259.00 557.00,259.00              557.00,259.00 558.00,260.00 558.00,260.00              558.00,260.00 558.00,259.00 558.00,259.00 Z            M 559.00,260.00            C 559.00,260.00 558.00,260.00 558.00,260.00              558.00,260.00 559.00,261.00 559.00,261.00              559.00,261.00 559.00,260.00 559.00,260.00 Z            M 562.00,264.00            C 562.00,264.00 561.00,264.00 561.00,264.00              561.00,264.00 562.00,265.00 562.00,265.00              562.00,265.00 562.00,264.00 562.00,264.00 Z            M 563.00,265.00            C 563.00,265.00 562.00,265.00 562.00,265.00              562.00,265.00 563.00,266.00 563.00,266.00              563.00,266.00 563.00,265.00 563.00,265.00 Z            M 564.00,266.00            C 564.00,266.00 563.00,266.00 563.00,266.00              563.00,266.00 564.00,267.00 564.00,267.00              564.00,267.00 564.00,266.00 564.00,266.00 Z            M 509.00,278.00            C 509.00,278.00 508.00,278.00 508.00,278.00              508.00,278.00 509.00,279.00 509.00,279.00              509.00,279.00 509.00,278.00 509.00,278.00 Z            M 510.00,279.00            C 510.00,279.00 509.00,279.00 509.00,279.00              509.00,279.00 510.00,280.00 510.00,280.00              510.00,280.00 510.00,279.00 510.00,279.00 Z            M 511.00,280.00            C 511.00,280.00 510.00,280.00 510.00,280.00              510.00,280.00 511.00,281.00 511.00,281.00              511.00,281.00 511.00,280.00 511.00,280.00 Z            M 512.00,281.00            C 512.00,281.00 511.00,281.00 511.00,281.00              511.00,281.00 512.00,282.00 512.00,282.00              512.00,282.00 512.00,281.00 512.00,281.00 Z            M 513.00,282.00            C 513.00,282.00 512.00,282.00 512.00,282.00              512.00,282.00 513.00,283.00 513.00,283.00              513.00,283.00 513.00,282.00 513.00,282.00 Z            M 514.00,283.00            C 514.00,283.00 513.00,283.00 513.00,283.00              513.00,283.00 514.00,284.00 514.00,284.00              514.00,284.00 514.00,283.00 514.00,283.00 Z            M 515.00,284.00            C 515.00,284.00 514.00,284.00 514.00,284.00              514.00,284.00 515.00,285.00 515.00,285.00              515.00,285.00 515.00,284.00 515.00,284.00 Z            M 523.00,293.00            C 523.00,293.00 522.00,293.00 522.00,293.00              522.00,293.00 523.00,294.00 523.00,294.00              523.00,294.00 523.00,293.00 523.00,293.00 Z            M 524.00,294.00            C 524.00,294.00 523.00,294.00 523.00,294.00              523.00,294.00 524.00,295.00 524.00,295.00              524.00,295.00 524.00,294.00 524.00,294.00 Z            M 525.00,295.00            C 525.00,295.00 524.00,295.00 524.00,295.00              524.00,295.00 525.00,296.00 525.00,296.00              525.00,296.00 525.00,295.00 525.00,295.00 Z            M 526.00,296.00            C 526.00,296.00 525.00,296.00 525.00,296.00              525.00,296.00 526.00,297.00 526.00,297.00              526.00,297.00 526.00,296.00 526.00,296.00 Z            M 527.00,297.00            C 527.00,297.00 526.00,297.00 526.00,297.00              526.00,297.00 527.00,298.00 527.00,298.00              527.00,298.00 527.00,297.00 527.00,297.00 Z            M 528.00,298.00            C 528.00,298.00 527.00,298.00 527.00,298.00              527.00,298.00 528.00,299.00 528.00,299.00              528.00,299.00 528.00,298.00 528.00,298.00 Z            M 529.00,299.00            C 529.00,299.00 528.00,299.00 528.00,299.00              528.00,299.00 529.00,300.00 529.00,300.00              529.00,300.00 529.00,299.00 529.00,299.00 Z            M 530.00,300.00            C 530.00,300.00 529.00,300.00 529.00,300.00              529.00,300.00 530.00,301.00 530.00,301.00              530.00,301.00 530.00,300.00 530.00,300.00 Z" />
</svg>