<svg xmlns="http://www.w3.org/2000/svg" viewBox="361.5 -0.49 348.99 465.98">
  <path id="arxiv" fill="#303030" stroke="none" stroke-width="1"
    d="M 533.00,309.00            C 529.42,315.67 510.42,334.20 504.09,341.00              504.09,341.00 445.00,404.00 445.00,404.00              438.83,410.25 426.32,425.76 419.00,428.91              416.55,429.97 414.59,429.96 412.00,430.00              408.88,430.04 404.97,430.13 402.00,429.20              389.28,425.21 387.32,409.54 392.55,399.00              394.15,395.79 398.40,390.98 400.80,388.00              400.80,388.00 467.75,308.00 467.75,308.00              467.75,308.00 486.92,285.00 486.92,285.00              488.90,282.63 495.24,275.39 496.13,273.00              497.92,268.13 491.09,263.23 488.17,260.00              479.36,250.26 471.63,245.01 472.02,231.00              472.31,220.19 480.87,212.16 488.00,205.00              490.89,202.09 497.32,196.52 496.50,192.00              495.96,189.06 490.83,183.51 488.80,181.00              488.80,181.00 467.25,155.00 467.25,155.00              467.25,155.00 389.41,61.00 389.41,61.00              381.19,51.11 362.69,32.69 362.04,20.00              361.34,6.15 369.84,-0.35 383.00,0.02              395.94,0.37 409.80,19.75 418.17,29.00              418.17,29.00 440.83,53.00 440.83,53.00              440.83,53.00 498.96,116.00 498.96,116.00              498.96,116.00 524.83,144.00 524.83,144.00              527.38,146.81 531.55,153.37 536.00,151.83              538.88,150.84 543.35,145.38 545.42,143.00              545.42,143.00 560.04,127.00 560.04,127.00              560.04,127.00 595.09,89.00 595.09,89.00              595.09,89.00 615.83,67.00 615.83,67.00              622.45,59.68 635.27,43.52 644.00,40.14              646.64,39.13 649.21,39.00 652.00,39.01              669.07,39.03 678.77,55.44 669.24,70.00              669.24,70.00 638.20,109.00 638.20,109.00              638.20,109.00 569.00,194.00 569.00,194.00              574.98,196.84 577.47,201.34 582.01,206.00              586.10,210.20 593.62,217.73 595.91,223.00              597.14,225.83 597.38,229.93 597.25,233.00              596.71,246.23 590.46,249.02 582.09,258.00              582.09,258.00 569.00,272.00 569.00,272.00              575.67,276.24 580.38,283.03 585.42,289.00              585.42,289.00 607.41,315.00 607.41,315.00              607.41,315.00 677.59,398.00 677.59,398.00              677.59,398.00 698.75,423.00 698.75,423.00              704.09,429.47 709.58,436.24 709.96,445.00              710.51,457.75 702.43,464.99 690.00,464.99              687.24,464.99 684.61,464.87 682.00,463.85              677.00,461.90 667.99,452.23 664.17,448.00              664.17,448.00 635.09,417.00 635.09,417.00              635.09,417.00 573.04,351.00 573.04,351.00              573.04,351.00 544.01,320.00 544.01,320.00              539.79,315.68 537.99,312.65 533.00,309.00 Z" />
</svg>