<svg xmlns="http://www.w3.org/2000/svg" viewBox="-0.5 0.5 2412 509.01">
  <path id="asus" fill="#303030" stroke="none" stroke-width="1"
    d="M 237.00,136.00            C 238.95,130.91 244.18,122.97 247.20,118.00              247.20,118.00 267.58,85.00 267.58,85.00              267.58,85.00 296.67,39.00 296.67,39.00              305.08,26.38 312.20,15.37 326.00,7.90              335.81,2.59 349.95,1.02 361.00,1.00              361.00,1.00 594.00,1.00 594.00,1.00              594.00,1.00 594.00,80.00 594.00,80.00              594.00,88.53 593.08,112.23 595.00,119.00              596.29,110.62 601.71,97.00 605.15,89.00              614.50,67.24 625.36,53.59 643.00,37.84              664.38,18.74 685.63,7.62 714.00,2.92              720.15,1.90 725.74,1.01 732.00,1.00              732.00,1.00 1186.00,1.00 1186.00,1.00              1186.00,1.00 1186.00,136.00 1186.00,136.00              1186.00,136.00 237.00,136.00 237.00,136.00 Z            M 1208.00,1.00            C 1208.00,1.00 1344.00,1.00 1344.00,1.00              1344.00,1.00 1344.00,136.00 1344.00,136.00              1344.00,136.00 1208.00,136.00 1208.00,136.00              1208.00,136.00 1208.00,1.00 1208.00,1.00 Z            M 1651.00,1.00            C 1651.00,1.00 1786.00,1.00 1786.00,1.00              1786.00,1.00 1786.00,84.00 1786.00,84.00              1786.00,92.65 1785.06,117.19 1787.00,124.00              1788.24,115.24 1792.86,103.34 1796.20,95.00              1800.22,84.96 1804.68,75.00 1810.75,66.00              1815.92,58.31 1821.50,52.50 1828.00,46.00              1850.35,23.65 1871.83,10.13 1903.00,3.80              1910.32,2.31 1917.51,1.01 1925.00,1.00              1925.00,1.00 2411.00,1.00 2411.00,1.00              2411.00,1.00 2411.00,136.00 2411.00,136.00              2411.00,136.00 1651.00,136.00 1651.00,136.00              1651.00,136.00 1651.00,1.00 1651.00,1.00 Z            M 0.00,509.00            C 1.71,501.84 11.28,488.87 15.58,482.00              15.58,482.00 50.58,427.00 50.58,427.00              50.58,427.00 173.31,234.00 173.31,234.00              173.31,234.00 214.66,169.00 214.66,169.00              214.66,169.00 224.81,153.00 224.81,153.00              226.35,150.51 228.63,146.47 231.18,144.87              234.45,143.16 240.41,144.27 244.00,144.87              244.00,144.87 272.00,147.84 272.00,147.84              272.00,147.84 346.00,155.84 346.00,155.84              346.00,155.84 382.00,160.00 382.00,160.00              382.00,160.00 359.34,196.00 359.34,196.00              359.34,196.00 324.69,250.00 324.69,250.00              324.69,250.00 211.31,427.00 211.31,427.00              211.31,427.00 171.58,489.00 171.58,489.00              169.30,492.63 160.76,507.08 157.68,508.43              156.06,509.14 152.82,509.00 151.00,509.00              151.00,509.00 0.00,509.00 0.00,509.00 Z            M 1210.00,145.00            C 1210.00,145.00 1265.00,149.09 1265.00,149.09              1265.00,149.09 1321.00,153.09 1321.00,153.09              1321.00,153.09 1344.00,155.00 1344.00,155.00              1344.00,155.00 1344.00,330.00 1344.00,330.00              1344.04,358.25 1362.74,376.96 1391.00,377.00              1391.00,377.00 1601.00,377.00 1601.00,377.00              1608.93,376.99 1620.80,375.77 1628.00,372.48              1643.76,365.29 1651.97,347.62 1652.00,331.00              1652.00,331.00 1652.00,176.00 1652.00,176.00              1652.00,176.00 1684.00,177.91 1684.00,177.91              1684.00,177.91 1726.00,180.09 1726.00,180.09              1726.00,180.09 1752.00,182.00 1752.00,182.00              1752.00,182.00 1786.00,184.00 1786.00,184.00              1786.00,184.00 1786.00,283.00 1786.00,283.00              1786.00,283.00 1787.00,298.00 1787.00,298.00              1787.00,298.00 1787.00,374.00 1787.00,374.00              1787.00,374.00 2249.00,374.00 2249.00,374.00              2257.61,373.99 2272.41,371.87 2278.82,365.78              2291.05,354.14 2287.36,331.36 2272.00,324.53              2263.53,320.76 2245.77,320.77 2236.00,319.83              2236.00,319.83 2165.00,313.83 2165.00,313.83              2165.00,313.83 1922.00,293.17 1922.00,293.17              1922.00,293.17 1913.00,292.56 1913.00,292.56              1871.64,286.09 1829.88,258.34 1809.15,222.00              1804.17,213.27 1795.89,193.82 1795.00,184.00              1795.00,184.00 1832.00,186.00 1832.00,186.00              1832.00,186.00 1842.00,187.00 1842.00,187.00              1842.00,187.00 1852.00,187.00 1852.00,187.00              1852.00,187.00 1866.00,188.00 1866.00,188.00              1866.00,188.00 1883.00,189.00 1883.00,189.00              1883.00,189.00 1897.00,190.00 1897.00,190.00              1897.00,190.00 1910.00,191.00 1910.00,191.00              1910.00,191.00 1919.00,191.00 1919.00,191.00              1919.00,191.00 1932.00,192.00 1932.00,192.00              1932.00,192.00 1950.00,193.00 1950.00,193.00              1950.00,193.00 1982.00,195.00 1982.00,195.00              1982.00,195.00 1993.00,195.91 1993.00,195.91              1993.00,195.91 2019.00,197.09 2019.00,197.09              2019.00,197.09 2046.00,199.00 2046.00,199.00              2046.00,199.00 2062.00,200.00 2062.00,200.00              2062.00,200.00 2092.00,201.91 2092.00,201.91              2092.00,201.91 2117.00,203.09 2117.00,203.09              2117.00,203.09 2172.00,207.00 2172.00,207.00              2172.00,207.00 2181.00,207.00 2181.00,207.00              2181.00,207.00 2218.00,209.91 2218.00,209.91              2218.00,209.91 2261.00,212.83 2261.00,212.83              2261.00,212.83 2282.00,214.17 2282.00,214.17              2300.50,215.94 2318.94,221.10 2335.00,230.60              2363.07,247.22 2382.76,269.96 2397.25,299.00              2400.15,304.82 2404.11,313.81 2405.85,320.00              2409.11,331.63 2408.33,331.93 2409.09,343.00              2409.09,343.00 2410.00,358.00 2410.00,358.00              2410.00,358.00 2409.09,368.00 2409.09,368.00              2409.09,368.00 2407.39,388.00 2407.39,388.00              2397.73,442.10 2359.25,488.23 2306.00,503.42              2295.81,506.33 2282.58,508.98 2272.00,509.00              2272.00,509.00 1786.00,509.00 1786.00,509.00              1786.00,509.00 1786.00,463.00 1786.00,463.00              1786.00,463.00 1787.00,447.00 1787.00,447.00              1787.00,447.00 1787.00,423.00 1787.00,423.00              1787.00,414.47 1787.92,390.77 1786.00,384.00              1786.00,394.27 1784.21,404.12 1781.42,414.00              1769.54,456.10 1739.73,482.63 1700.00,498.40              1688.50,502.96 1668.24,508.85 1656.00,509.00              1656.00,509.00 1573.00,509.00 1573.00,509.00              1573.00,509.00 1408.00,509.00 1408.00,509.00              1408.00,509.00 1343.00,509.00 1343.00,509.00              1316.28,508.96 1282.47,494.22 1262.00,477.54              1239.23,458.98 1222.50,433.28 1214.43,405.00              1214.43,405.00 1210.30,388.00 1210.30,388.00              1209.52,382.56 1210.71,381.03 1209.00,375.00              1208.91,385.20 1205.60,399.30 1202.33,409.00              1189.06,448.49 1163.69,477.79 1126.00,495.78              1113.32,501.83 1093.02,508.98 1079.00,509.00              1079.00,509.00 456.00,509.00 456.00,509.00              456.00,509.00 456.00,165.00 456.00,165.00              456.00,165.00 510.00,169.09 510.00,169.09              510.00,169.09 566.00,173.09 566.00,173.09              566.00,173.09 588.00,175.00 588.00,175.00              588.00,175.00 588.00,375.00 588.00,375.00              588.00,375.00 1056.00,375.00 1056.00,375.00              1072.21,374.97 1085.26,366.41 1085.96,349.00              1086.66,331.64 1074.59,323.67 1059.00,321.43              1059.00,321.43 1038.00,319.83 1038.00,319.83              1038.00,319.83 973.00,314.17 973.00,314.17              973.00,314.17 953.00,312.72 953.00,312.72              953.00,312.72 930.00,310.83 930.00,310.83              930.00,310.83 883.00,306.91 883.00,306.91              883.00,306.91 854.00,304.17 854.00,304.17              854.00,304.17 782.00,298.17 782.00,298.17              782.00,298.17 717.00,292.54 717.00,292.54              709.44,291.16 695.32,286.71 688.00,283.94              650.27,269.63 623.81,245.65 608.60,208.00              605.14,199.42 600.43,185.11 600.00,176.00              600.00,176.00 612.00,176.91 612.00,176.91              612.00,176.91 650.00,179.91 650.00,179.91              650.00,179.91 736.00,186.83 736.00,186.83              736.00,186.83 769.00,189.17 769.00,189.17              769.00,189.17 947.00,203.83 947.00,203.83              947.00,203.83 978.00,206.09 978.00,206.09              978.00,206.09 1008.00,208.83 1008.00,208.83              1008.00,208.83 1056.00,212.83 1056.00,212.83              1078.56,215.02 1099.59,214.77 1121.00,223.87              1156.16,238.82 1183.19,269.04 1199.74,303.00              1199.74,303.00 1210.00,329.00 1210.00,329.00              1210.00,329.00 1210.00,145.00 1210.00,145.00 Z" />
</svg>