<svg xmlns="http://www.w3.org/2000/svg" viewBox="84.5 -0.55 874 971.07">
  <path id="atlassian-wordmark" fill="#303030" stroke="none" stroke-width="1" d="M 533.00,0.53            C 550.64,-2.35 556.04,5.62 563.25,20.00              563.25,20.00 571.25,36.00 571.25,36.00              571.25,36.00 578.25,51.00 578.25,51.00              578.25,51.00 636.25,167.00 636.25,167.00              636.25,167.00 873.75,642.00 873.75,642.00              873.75,642.00 913.25,721.00 913.25,721.00              913.25,721.00 933.53,762.00 933.53,762.00              938.49,775.05 933.09,790.16 919.00,794.21              915.91,795.10 913.17,795.00 910.00,795.00              910.00,795.00 642.00,795.00 642.00,795.00              624.95,794.97 621.66,787.81 614.75,774.00              614.75,774.00 605.75,756.00 605.75,756.00              605.75,756.00 542.75,630.00 542.75,630.00              542.75,630.00 499.75,544.00 499.75,544.00              487.43,519.36 474.95,495.02 465.69,469.00              427.13,360.62 425.62,254.17 457.29,144.00              467.29,109.22 486.21,65.10 504.60,34.00              511.67,22.06 518.80,4.77 533.00,0.53 Z            M 352.00,358.53            C 366.37,356.18 372.87,363.12 381.82,372.96              394.52,386.93 405.94,402.07 416.05,418.00              454.01,477.81 475.13,540.64 482.17,611.00              482.17,611.00 484.00,637.00 484.00,637.00              484.00,637.00 484.00,659.00 484.00,659.00              484.00,659.00 482.96,671.00 482.96,671.00              482.96,671.00 482.96,680.00 482.96,680.00              480.12,708.47 474.25,736.16 464.32,763.00              464.32,763.00 458.86,776.00 458.86,776.00              452.99,789.23 448.02,794.98 433.00,795.00              433.00,795.00 164.00,795.00 164.00,795.00              160.92,795.00 157.98,795.10 155.00,794.20              144.09,790.91 137.49,779.01 139.46,768.00              140.85,760.28 147.09,749.32 150.75,742.00              150.75,742.00 171.25,701.00 171.25,701.00              171.25,701.00 299.75,444.00 299.75,444.00              299.75,444.00 330.22,384.00 330.22,384.00              336.45,372.03 337.61,362.79 352.00,358.53 Z            M 482.00,935.00            C 482.00,935.00 493.00,939.55 493.00,939.55              500.97,942.77 512.41,945.90 521.00,946.00              526.54,946.06 540.70,945.11 538.16,936.02              536.20,929.02 521.21,926.97 515.00,925.58              497.73,921.69 483.23,913.67 483.00,894.00              482.95,889.24 482.92,885.58 484.55,881.00              491.31,861.99 515.53,858.57 533.00,860.72              541.30,861.74 544.77,861.94 553.00,864.67              555.27,865.42 558.59,866.33 559.98,868.42              561.22,870.29 561.00,873.79 561.00,876.00              561.00,876.00 561.00,893.00 561.00,893.00              548.16,890.68 535.71,883.07 522.00,884.47              517.66,884.91 507.96,887.79 510.17,893.98              512.62,900.86 526.71,903.39 533.00,904.88              551.53,909.29 567.15,917.14 565.91,939.00              565.75,941.74 564.78,947.42 563.90,950.00              556.79,970.87 534.85,970.03 517.00,970.00              508.51,969.99 500.02,968.43 492.00,965.66              489.74,964.87 484.38,963.17 482.99,961.30              481.74,959.62 482.00,956.06 482.00,954.00              482.00,954.00 482.00,935.00 482.00,935.00 Z            M 585.00,935.00            C 589.71,936.34 591.70,937.75 596.00,939.57              604.02,942.98 615.28,945.90 624.00,946.00              629.48,946.06 643.74,945.09 641.16,936.04              639.03,928.60 621.61,926.61 615.00,924.85              602.93,921.62 590.89,915.90 587.04,903.00              585.75,898.67 585.95,894.47 586.00,890.00              586.28,867.18 608.76,860.01 628.00,860.01              628.00,860.01 638.00,860.93 638.00,860.93              644.63,861.54 649.67,862.56 656.00,864.67              657.82,865.28 660.83,866.13 662.01,867.70              663.26,869.37 663.00,872.96 663.00,875.00              663.00,875.00 663.00,893.00 663.00,893.00              650.60,890.09 637.42,882.77 624.00,884.61              619.47,885.23 611.13,887.63 612.99,893.96              615.02,900.93 629.87,903.43 636.00,904.88              654.47,909.27 670.15,917.25 668.91,939.00              668.75,941.74 667.78,947.42 666.90,950.00              659.79,970.87 637.85,970.03 620.00,970.00              611.37,969.99 602.11,968.36 594.00,965.41              591.73,964.59 587.40,963.32 585.99,961.35              584.75,959.61 585.00,956.10 585.00,954.00              585.00,954.00 585.00,935.00 585.00,935.00 Z            M 85.00,969.00            C 85.00,969.00 98.95,928.00 98.95,928.00              98.95,928.00 113.58,886.00 113.58,886.00              113.58,886.00 119.05,870.00 119.05,870.00              119.05,870.00 122.70,862.99 122.70,862.99              122.70,862.99 130.00,862.00 130.00,862.00              130.00,862.00 148.00,862.00 148.00,862.00              148.00,862.00 155.30,862.99 155.30,862.99              155.30,862.99 158.67,870.00 158.67,870.00              158.67,870.00 164.05,886.00 164.05,886.00              164.05,886.00 181.69,937.00 181.69,937.00              181.69,937.00 192.00,969.00 192.00,969.00              192.00,969.00 170.00,969.00 170.00,969.00              168.14,968.99 165.24,969.17 163.70,968.01              161.31,966.21 158.67,954.31 158.00,951.00              147.37,955.45 129.75,954.93 119.00,951.00              118.69,954.41 116.14,966.10 113.49,967.98              112.01,969.03 109.74,968.96 108.00,969.00              108.00,969.00 85.00,969.00 85.00,969.00 Z            M 191.00,862.00            C 191.00,862.00 274.00,862.00 274.00,862.00              274.00,862.00 274.00,886.00 274.00,886.00              274.00,886.00 244.00,886.00 244.00,886.00              244.00,886.00 244.00,969.00 244.00,969.00              244.00,969.00 218.00,969.00 218.00,969.00              218.00,969.00 218.00,886.00 218.00,886.00              218.00,886.00 191.00,886.00 191.00,886.00              191.00,886.00 191.00,862.00 191.00,862.00 Z            M 291.00,862.00            C 291.00,862.00 317.00,862.00 317.00,862.00              317.00,862.00 317.00,945.00 317.00,945.00              317.00,945.00 351.00,945.00 351.00,945.00              351.00,945.00 345.58,962.00 345.58,962.00              345.58,962.00 342.30,968.01 342.30,968.01              342.30,968.01 337.00,969.00 337.00,969.00              337.00,969.00 291.00,969.00 291.00,969.00              291.00,969.00 291.00,862.00 291.00,862.00 Z            M 360.00,969.00            C 360.00,969.00 370.95,936.00 370.95,936.00              370.95,936.00 388.33,886.00 388.33,886.00              388.33,886.00 394.00,870.00 394.00,870.00              394.00,870.00 397.51,863.02 397.51,863.02              397.51,863.02 405.00,862.00 405.00,862.00              405.00,862.00 431.00,862.00 431.00,862.00              431.00,862.00 438.67,885.00 438.67,885.00              438.67,885.00 458.67,943.00 458.67,943.00              458.67,943.00 467.00,969.00 467.00,969.00              467.00,969.00 445.00,969.00 445.00,969.00              443.09,968.99 440.15,969.15 438.56,967.98              436.14,966.20 433.50,954.27 433.00,951.00              422.37,955.45 404.75,954.93 394.00,951.00              393.48,954.41 390.86,966.09 388.30,968.01              386.89,969.07 384.68,968.97 383.00,969.00              383.00,969.00 360.00,969.00 360.00,969.00 Z            M 696.00,862.00            C 696.00,862.00 722.00,862.00 722.00,862.00              722.00,862.00 722.00,969.00 722.00,969.00              722.00,969.00 696.00,969.00 696.00,969.00              696.00,969.00 696.00,862.00 696.00,862.00 Z            M 740.00,969.00            C 740.00,969.00 750.95,937.00 750.95,937.00              750.95,937.00 768.33,887.00 768.33,887.00              768.33,887.00 774.33,870.00 774.33,870.00              774.33,870.00 777.70,862.99 777.70,862.99              777.70,862.99 785.00,862.00 785.00,862.00              785.00,862.00 803.00,862.00 803.00,862.00              803.00,862.00 810.30,862.99 810.30,862.99              810.30,862.99 813.67,870.00 813.67,870.00              813.67,870.00 819.33,886.00 819.33,886.00              819.33,886.00 838.67,942.00 838.67,942.00              838.67,942.00 847.00,969.00 847.00,969.00              847.00,969.00 818.00,969.00 818.00,969.00              818.00,969.00 812.49,953.84 812.49,953.84              812.49,953.84 798.00,953.84 798.00,953.84              798.00,953.84 774.00,952.00 774.00,952.00              774.00,952.00 770.00,969.00 770.00,969.00              770.00,969.00 740.00,969.00 740.00,969.00 Z            M 865.00,862.00            C 865.00,862.00 894.00,862.00 894.00,862.00              895.75,862.00 899.08,861.86 900.61,862.57              903.52,863.93 909.09,875.68 910.75,879.00              910.75,879.00 926.63,909.00 926.63,909.00              926.63,909.00 935.00,928.00 935.00,928.00              935.00,928.00 935.00,862.00 935.00,862.00              935.00,862.00 958.00,862.00 958.00,862.00              958.00,862.00 958.00,969.00 958.00,969.00              958.00,969.00 937.00,969.00 937.00,969.00              937.00,969.00 929.21,967.98 929.21,967.98              929.21,967.98 918.86,951.00 918.86,951.00              918.86,951.00 899.25,914.00 899.25,914.00              899.25,914.00 889.00,893.00 889.00,893.00              889.00,893.00 889.00,969.00 889.00,969.00              889.00,969.00 865.00,969.00 865.00,969.00              865.00,969.00 865.00,862.00 865.00,862.00 Z            M 414.00,886.00            C 414.00,886.00 408.98,901.00 408.98,901.00              408.98,901.00 401.00,930.00 401.00,930.00              411.62,931.40 415.38,931.40 426.00,930.00              426.00,930.00 414.00,886.00 414.00,886.00 Z            M 139.00,887.00            C 139.00,887.00 133.58,903.00 133.58,903.00              133.58,903.00 126.00,930.00 126.00,930.00              136.62,931.40 140.38,931.40 151.00,930.00              151.00,930.00 139.00,887.00 139.00,887.00 Z            M 795.00,887.00            C 795.00,887.00 789.42,902.00 789.42,902.00              789.42,902.00 782.00,930.00 782.00,930.00              792.62,931.40 796.38,931.40 807.00,930.00              807.00,930.00 795.00,887.00 795.00,887.00 Z"/>
</svg>