<svg xmlns="http://www.w3.org/2000/svg" viewBox="138.61 -0.55 797.22 796.06">
  <path id="atlassian" fill="#303030" stroke="none" stroke-width="1"
    d="M 533.00,0.53            C 550.64,-2.35 556.04,5.62 563.25,20.00              563.25,20.00 571.25,36.00 571.25,36.00              571.25,36.00 578.25,51.00 578.25,51.00              578.25,51.00 636.25,167.00 636.25,167.00              636.25,167.00 873.75,642.00 873.75,642.00              873.75,642.00 913.25,721.00 913.25,721.00              913.25,721.00 933.53,762.00 933.53,762.00              938.49,775.05 933.09,790.16 919.00,794.21              915.91,795.10 913.17,795.00 910.00,795.00              910.00,795.00 642.00,795.00 642.00,795.00              624.95,794.97 621.66,787.81 614.75,774.00              614.75,774.00 605.75,756.00 605.75,756.00              605.75,756.00 542.75,630.00 542.75,630.00              542.75,630.00 499.75,544.00 499.75,544.00              487.43,519.36 474.95,495.02 465.69,469.00              427.13,360.62 425.62,254.17 457.29,144.00              467.29,109.22 486.21,65.10 504.60,34.00              511.67,22.06 518.80,4.77 533.00,0.53 Z            M 352.00,358.53            C 366.37,356.18 372.87,363.12 381.82,372.96              394.52,386.93 405.94,402.07 416.05,418.00              454.01,477.81 475.13,540.64 482.17,611.00              482.17,611.00 484.00,637.00 484.00,637.00              484.00,637.00 484.00,659.00 484.00,659.00              484.00,659.00 482.96,671.00 482.96,671.00              482.96,671.00 482.96,680.00 482.96,680.00              480.12,708.47 474.25,736.16 464.32,763.00              464.32,763.00 458.86,776.00 458.86,776.00              452.99,789.23 448.02,794.98 433.00,795.00              433.00,795.00 164.00,795.00 164.00,795.00              160.92,795.00 157.98,795.10 155.00,794.20              144.09,790.91 137.49,779.01 139.46,768.00              140.85,760.28 147.09,749.32 150.75,742.00              150.75,742.00 171.25,701.00 171.25,701.00              171.25,701.00 299.75,444.00 299.75,444.00              299.75,444.00 330.22,384.00 330.22,384.00              336.45,372.03 337.61,362.79 352.00,358.53 Z" />
</svg>