<svg xmlns="http://www.w3.org/2000/svg" viewBox="-0.13 0.14 995.63 124.36">
  <path id="atlassian-wordmark-alt" fill="#303030" stroke="none" stroke-width="1"
    d="M 59.18,1.04            C 64.61,-0.50 65.53,2.62 67.75,7.00              67.75,7.00 77.75,27.00 77.75,27.00              77.75,27.00 113.25,98.00 113.25,98.00              113.25,98.00 121.17,114.00 121.17,114.00              122.02,116.24 123.12,119.20 121.17,121.26              119.31,123.34 114.63,123.00 112.00,123.00              112.00,123.00 83.00,123.00 83.00,123.00              80.62,123.00 77.29,123.20 75.21,121.98              72.66,120.47 71.05,116.58 69.75,114.00              69.75,114.00 60.75,96.00 60.75,96.00              60.75,96.00 50.61,75.00 50.61,75.00              44.01,58.12 43.03,38.29 48.67,21.00              50.87,14.25 53.53,5.58 59.18,1.04 Z            M 546.00,91.00            C 546.00,91.00 566.00,98.26 566.00,98.26              572.53,100.06 585.56,102.24 592.00,100.20              597.06,98.59 600.89,94.04 596.68,89.21              592.39,84.30 581.24,82.91 575.00,81.27              557.94,76.77 545.27,68.54 546.04,49.00              546.16,45.81 546.83,41.99 547.95,39.00              555.18,19.66 574.87,19.92 592.00,20.00              596.76,20.02 600.34,20.50 605.00,21.45              605.00,21.45 620.00,26.00 620.00,26.00              620.00,26.00 620.00,50.00 620.00,50.00              610.08,48.45 602.07,42.62 587.00,42.04              574.53,41.56 568.06,48.76 574.23,54.45              577.90,57.83 585.20,59.43 590.00,60.63              601.85,63.59 617.38,67.48 622.52,80.00              623.57,82.57 624.61,88.19 624.82,91.00              625.03,93.97 624.46,97.08 623.91,100.00              619.60,122.69 598.74,124.03 580.00,124.00              571.95,123.99 562.60,122.62 555.00,119.91              552.81,119.13 548.34,117.43 547.02,115.51              545.77,113.68 546.00,110.18 546.00,108.00              546.00,108.00 546.00,91.00 546.00,91.00 Z            M 643.00,91.00            C 643.00,91.00 653.00,94.94 653.00,94.94              660.86,97.94 671.58,100.79 680.00,100.99              685.02,101.10 693.34,100.86 695.21,94.96              695.91,92.73 695.16,90.90 693.68,89.21              689.83,84.80 681.48,83.42 676.00,82.12              665.01,79.51 653.36,76.27 646.99,66.00              640.74,55.93 642.14,38.83 650.21,30.09              653.70,26.31 658.18,24.10 663.00,22.52              673.98,18.92 692.79,19.16 704.00,21.90              704.00,21.90 717.00,26.00 717.00,26.00              717.00,26.00 717.00,50.00 717.00,50.00              707.08,48.45 699.07,42.62 684.00,42.04              671.48,41.55 665.08,48.80 671.23,54.44              674.51,57.46 682.59,59.51 687.00,60.63              699.05,63.68 714.25,67.24 719.52,80.00              720.67,82.79 721.73,87.97 721.91,91.00              722.10,94.33 721.53,97.74 720.91,101.00              716.68,122.88 694.82,124.03 677.00,124.00              668.77,123.99 659.74,122.63 652.00,119.77              649.78,118.95 645.36,117.45 644.02,115.50              642.77,113.68 643.00,110.17 643.00,108.00              643.00,108.00 643.00,91.00 643.00,91.00 Z            M 170.00,123.00            C 170.00,123.00 178.33,98.00 178.33,98.00              178.33,98.00 197.05,44.00 197.05,44.00              197.05,44.00 202.33,29.00 202.33,29.00              202.33,29.00 205.70,21.99 205.70,21.99              205.70,21.99 213.00,21.00 213.00,21.00              213.00,21.00 229.00,21.00 229.00,21.00              229.00,21.00 236.30,21.99 236.30,21.99              236.30,21.99 239.42,28.00 239.42,28.00              239.42,28.00 245.00,44.00 245.00,44.00              245.00,44.00 264.33,99.00 264.33,99.00              264.33,99.00 272.00,123.00 272.00,123.00              272.00,123.00 253.00,123.00 253.00,123.00              250.86,123.00 247.29,123.23 245.51,121.98              242.77,120.06 240.53,109.44 240.00,106.00              226.69,108.50 221.38,108.48 208.00,107.06              206.37,106.88 204.92,106.71 203.51,107.77              201.06,109.59 198.73,119.76 198.00,123.00              198.00,123.00 170.00,123.00 170.00,123.00 Z            M 270.00,21.00            C 270.00,21.00 348.00,21.00 348.00,21.00              348.00,21.00 348.00,44.00 348.00,44.00              348.00,44.00 320.00,44.00 320.00,44.00              320.00,44.00 320.00,123.00 320.00,123.00              320.00,123.00 296.00,123.00 296.00,123.00              296.00,123.00 296.00,44.00 296.00,44.00              296.00,44.00 270.00,44.00 270.00,44.00              270.00,44.00 270.00,21.00 270.00,21.00 Z            M 365.00,21.00            C 365.00,21.00 389.00,21.00 389.00,21.00              389.00,21.00 389.00,100.00 389.00,100.00              389.00,100.00 421.00,100.00 421.00,100.00              421.00,100.00 414.00,123.00 414.00,123.00              414.00,123.00 365.00,123.00 365.00,123.00              365.00,123.00 365.00,21.00 365.00,21.00 Z            M 430.00,123.00            C 430.00,123.00 438.67,96.00 438.67,96.00              438.67,96.00 450.31,63.00 450.31,63.00              450.31,63.00 456.81,44.00 456.81,44.00              456.81,44.00 462.00,29.00 462.00,29.00              462.00,29.00 465.51,22.02 465.51,22.02              465.51,22.02 473.00,21.00 473.00,21.00              473.00,21.00 497.00,21.00 497.00,21.00              497.00,21.00 507.31,51.00 507.31,51.00              507.31,51.00 525.00,102.00 525.00,102.00              525.00,102.00 532.00,123.00 532.00,123.00              532.00,123.00 504.00,123.00 504.00,123.00              503.12,119.11 501.11,108.07 496.87,107.04              496.87,107.04 483.00,108.00 483.00,108.00              469.20,108.02 474.05,107.63 462.00,106.00              461.47,109.44 459.23,120.06 456.49,121.98              454.84,123.14 451.96,122.99 450.00,123.00              450.00,123.00 430.00,123.00 430.00,123.00 Z            M 748.00,21.00            C 748.00,21.00 772.00,21.00 772.00,21.00              772.00,21.00 772.00,123.00 772.00,123.00              772.00,123.00 748.00,123.00 748.00,123.00              748.00,123.00 748.00,21.00 748.00,21.00 Z            M 824.00,21.00            C 824.00,21.00 848.00,21.00 848.00,21.00              848.00,21.00 855.49,22.02 855.49,22.02              855.49,22.02 859.00,29.00 859.00,29.00              859.00,29.00 864.33,44.00 864.33,44.00              864.33,44.00 881.05,92.00 881.05,92.00              881.05,92.00 891.00,123.00 891.00,123.00              891.00,123.00 872.00,123.00 872.00,123.00              872.00,123.00 864.56,121.98 864.56,121.98              864.56,121.98 859.00,106.00 859.00,106.00              845.70,108.50 840.38,108.48 827.00,107.06              817.43,106.04 821.40,118.16 816.30,122.01              814.76,123.17 811.86,122.99 810.00,123.00              810.00,123.00 790.00,123.00 790.00,123.00              790.00,123.00 798.67,95.00 798.67,95.00              798.67,95.00 824.00,21.00 824.00,21.00 Z            M 907.00,21.00            C 907.00,21.00 934.00,21.00 934.00,21.00              935.75,21.00 939.08,20.86 940.61,21.57              943.44,22.89 948.65,33.82 950.25,37.00              950.25,37.00 966.74,69.00 966.74,69.00              966.74,69.00 973.00,83.00 973.00,83.00              973.00,83.00 973.00,21.00 973.00,21.00              973.00,21.00 995.00,21.00 995.00,21.00              995.00,21.00 995.00,123.00 995.00,123.00              995.00,123.00 976.00,123.00 976.00,123.00              976.00,123.00 968.21,121.98 968.21,121.98              968.21,121.98 957.26,104.00 957.26,104.00              957.26,104.00 938.11,68.00 938.11,68.00              938.11,68.00 929.00,49.00 929.00,49.00              929.00,49.00 929.00,123.00 929.00,123.00              929.00,123.00 907.00,123.00 907.00,123.00              907.00,123.00 907.00,21.00 907.00,21.00 Z            M 481.00,44.00            C 478.47,48.25 473.35,67.92 471.58,74.00              470.86,76.44 468.45,82.08 470.03,84.26              471.14,85.78 474.26,86.13 476.00,86.41              481.65,87.32 487.49,86.36 493.00,85.00              493.00,85.00 481.00,44.00 481.00,44.00 Z            M 841.00,44.00            C 841.00,44.00 836.28,57.00 836.28,57.00              836.28,57.00 828.00,85.00 828.00,85.00              834.24,86.14 838.60,87.45 845.00,86.41              846.74,86.13 849.86,85.78 850.97,84.26              852.51,82.14 850.01,75.48 849.29,73.00              849.29,73.00 841.00,44.00 841.00,44.00 Z            M 222.00,45.00            C 222.00,45.00 220.00,45.00 220.00,45.00              220.00,45.00 209.00,85.00 209.00,85.00              217.33,87.10 224.67,87.10 233.00,85.00              233.00,85.00 222.00,45.00 222.00,45.00 Z            M 31.39,56.04            C 38.48,53.93 43.44,63.70 46.22,69.00              52.36,80.73 53.02,89.18 53.00,102.00              52.99,107.62 52.19,118.78 46.79,121.98              44.72,123.20 41.37,123.00 39.00,123.00              39.00,123.00 10.00,123.00 10.00,123.00              6.50,122.99 1.19,123.56 0.42,118.94              -0.17,115.39 5.02,106.48 6.75,103.00              6.75,103.00 22.75,71.00 22.75,71.00              25.14,66.22 27.54,59.64 31.39,56.04 Z" />
</svg>