<svg xmlns="http://www.w3.org/2000/svg" viewBox="2.46 7.48 2234.12 2037.04">
  <path id="atom-editor" fill="#303030" stroke="none" stroke-width="1"
    d="M 510.00,631.00            C 510.00,631.00 502.00,591.00 502.00,591.00              502.00,591.00 489.27,518.00 489.27,518.00              475.93,427.40 469.38,327.61 484.59,237.00              495.19,173.79 515.49,116.26 559.17,68.00              568.09,58.15 582.84,46.76 594.00,39.33              629.67,15.60 669.76,7.51 712.00,8.00              712.00,8.00 722.00,8.91 722.00,8.91              777.58,12.80 829.63,34.14 878.00,60.70              878.00,60.70 920.00,86.00 920.00,86.00              943.13,101.25 965.37,117.70 987.00,135.00              1001.58,146.66 1013.10,153.99 1015.71,174.00              1020.24,208.70 985.36,233.36 954.00,218.68              946.42,215.13 938.64,207.91 932.00,202.60              932.00,202.60 899.00,177.42 899.00,177.42              853.16,144.33 802.29,113.94 747.00,100.13              735.18,97.17 724.05,95.98 712.00,94.83              712.00,94.83 704.00,94.03 704.00,94.03              704.00,94.03 695.00,94.91 695.00,94.91              676.89,96.24 660.63,100.41 645.00,110.06              606.15,134.05 586.77,179.43 576.13,222.00              569.26,249.46 565.84,276.85 563.91,305.00              563.91,305.00 562.96,315.00 562.96,315.00              562.96,315.00 562.96,327.00 562.96,327.00              562.96,327.00 562.00,339.00 562.00,339.00              562.00,339.00 562.00,362.00 562.00,362.00              562.00,362.00 563.00,379.00 563.00,379.00              563.00,379.00 563.00,390.00 563.00,390.00              563.00,390.00 564.91,416.00 564.91,416.00              564.91,416.00 572.87,491.00 572.87,491.00              572.87,491.00 588.80,583.00 588.80,583.00              588.80,583.00 593.65,606.00 593.65,606.00              594.22,608.46 594.92,612.57 597.30,613.89              599.73,615.24 614.37,612.38 618.00,611.87              618.00,611.87 675.00,604.28 675.00,604.28              675.00,604.28 743.00,597.17 743.00,597.17              743.00,597.17 762.00,595.83 762.00,595.83              762.00,595.83 801.00,592.91 801.00,592.91              801.00,592.91 833.00,591.00 833.00,591.00              833.00,591.00 847.00,590.00 847.00,590.00              847.00,590.00 866.00,589.00 866.00,589.00              866.00,589.00 878.00,589.00 878.00,589.00              880.71,588.96 894.14,587.93 895.91,586.98              898.75,585.45 907.08,574.20 909.58,571.00              909.58,571.00 937.60,536.00 937.60,536.00              971.00,494.27 1006.50,454.09 1042.91,415.00              1042.91,415.00 1068.00,388.00 1068.00,388.00              1068.00,388.00 1131.00,325.04 1131.00,325.04              1208.31,251.10 1292.99,181.91 1386.00,128.58              1432.43,101.96 1488.61,76.15 1541.00,64.58              1559.60,60.47 1584.08,56.03 1603.00,56.00              1603.00,56.00 1625.00,56.00 1625.00,56.00              1642.79,56.21 1672.34,61.91 1689.00,68.19              1707.60,75.21 1722.92,82.89 1739.00,94.73              1819.83,154.27 1835.15,262.74 1835.00,356.00              1835.00,356.00 1834.04,368.00 1834.04,368.00              1834.04,368.00 1834.04,380.00 1834.04,380.00              1834.04,380.00 1833.09,390.00 1833.09,390.00              1831.14,418.52 1828.15,446.76 1823.41,475.00              1823.41,475.00 1814.94,518.00 1814.94,518.00              1808.46,535.12 1791.51,546.69 1773.00,545.49              1767.94,545.16 1762.74,544.41 1758.00,542.54              1741.73,536.12 1730.37,518.53 1731.51,501.00              1731.51,501.00 1741.72,437.00 1741.72,437.00              1741.72,437.00 1747.09,381.00 1747.09,381.00              1747.09,381.00 1748.00,369.00 1748.00,369.00              1748.00,369.00 1748.00,320.00 1748.00,320.00              1748.00,320.00 1747.09,310.00 1747.09,310.00              1745.68,289.89 1743.13,269.53 1737.85,250.00              1732.83,231.43 1726.28,213.32 1715.95,197.00              1710.17,187.87 1702.13,177.36 1694.00,170.29              1670.73,150.04 1640.45,141.65 1610.00,142.00              1610.00,142.00 1600.00,142.91 1600.00,142.91              1563.03,145.50 1525.70,157.11 1492.00,172.30              1403.07,212.41 1323.01,270.56 1250.00,334.85              1211.44,368.79 1173.57,403.85 1138.04,441.00              1138.04,441.00 1129.96,450.00 1129.96,450.00              1102.18,479.04 1075.11,508.53 1048.87,539.00              1048.87,539.00 1009.00,587.00 1009.00,587.00              1009.00,587.00 1040.00,587.00 1040.00,587.00              1040.00,587.00 1055.00,588.00 1055.00,588.00              1055.00,588.00 1075.00,588.00 1075.00,588.00              1075.00,588.00 1087.00,588.96 1087.00,588.96              1087.00,588.96 1103.00,588.96 1103.00,588.96              1103.00,588.96 1118.00,590.00 1118.00,590.00              1118.00,590.00 1145.00,591.00 1145.00,591.00              1145.00,591.00 1155.00,592.00 1155.00,592.00              1155.00,592.00 1165.00,592.00 1165.00,592.00              1165.00,592.00 1172.00,593.00 1172.00,593.00              1172.00,593.00 1181.00,593.00 1181.00,593.00              1181.00,593.00 1240.00,597.83 1240.00,597.83              1240.00,597.83 1280.00,601.17 1280.00,601.17              1280.00,601.17 1405.00,616.28 1405.00,616.28              1405.00,616.28 1483.00,628.75 1483.00,628.75              1563.39,642.71 1642.40,660.72 1721.00,682.58              1846.46,717.46 1988.26,773.08 2094.00,849.42              2152.85,891.91 2211.20,951.95 2230.12,1024.00              2237.09,1050.56 2236.04,1061.46 2236.00,1088.00              2235.96,1111.48 2226.16,1139.77 2216.56,1161.00              2206.78,1182.64 2188.72,1206.44 2172.83,1224.00              2144.41,1255.42 2101.89,1285.30 2065.00,1306.28              2038.51,1321.34 2011.02,1334.47 1983.00,1346.42              1972.02,1351.10 1953.48,1359.72 1942.00,1359.99              1935.18,1360.14 1928.23,1358.96 1922.00,1356.10              1893.35,1342.95 1889.15,1304.90 1912.00,1284.10              1919.49,1277.28 1931.54,1273.62 1941.00,1269.80              1941.00,1269.80 1982.00,1251.69 1982.00,1251.69              1982.00,1251.69 2006.00,1239.31 2006.00,1239.31              2047.41,1216.91 2091.32,1188.66 2120.35,1151.00              2135.43,1131.43 2149.70,1105.36 2150.00,1080.00              2150.00,1080.00 2150.00,1070.00 2150.00,1070.00              2149.94,1032.28 2120.58,990.59 2095.00,965.00              2049.77,919.75 1993.55,883.89 1936.00,856.22              1936.00,856.22 1912.00,844.31 1912.00,844.31              1912.00,844.31 1855.00,819.60 1855.00,819.60              1711.37,761.15 1529.93,719.98 1376.00,699.72              1376.00,699.72 1281.00,688.17 1281.00,688.17              1281.00,688.17 1220.00,682.83 1220.00,682.83              1220.00,682.83 1179.00,679.91 1179.00,679.91              1179.00,679.91 1154.00,678.00 1154.00,678.00              1154.00,678.00 1134.00,677.00 1134.00,677.00              1134.00,677.00 1114.00,676.00 1114.00,676.00              1114.00,676.00 1081.00,675.00 1081.00,675.00              1081.00,675.00 1064.00,674.00 1064.00,674.00              1064.00,674.00 1041.00,674.00 1041.00,674.00              1041.00,674.00 1024.00,673.00 1024.00,673.00              1024.00,673.00 949.00,673.00 949.00,673.00              947.07,673.00 943.92,672.88 942.17,673.60              938.67,675.04 931.04,686.45 928.37,690.00              928.37,690.00 890.00,743.00 890.00,743.00              859.14,786.36 829.81,830.89 801.58,876.00              801.58,876.00 764.85,936.00 764.85,936.00              764.85,936.00 736.42,985.00 736.42,985.00              734.20,988.88 725.82,1002.42 725.78,1006.00              725.74,1009.03 733.16,1025.15 734.86,1029.00              734.86,1029.00 758.74,1082.00 758.74,1082.00              758.74,1082.00 781.26,1130.00 781.26,1130.00              803.50,1175.95 827.13,1221.27 851.70,1266.00              919.77,1390.00 997.07,1509.13 1085.00,1620.00              1121.19,1665.64 1159.32,1709.32 1199.99,1751.00              1199.99,1751.00 1214.00,1766.00 1214.00,1766.00              1214.00,1766.00 1225.00,1776.04 1225.00,1776.04              1225.00,1776.04 1242.00,1792.91 1242.00,1792.91              1242.00,1792.91 1270.00,1818.16 1270.00,1818.16              1311.22,1854.98 1358.50,1890.68 1407.00,1917.30              1434.23,1932.25 1464.58,1945.70 1495.00,1952.42              1505.41,1954.72 1516.31,1956.98 1527.00,1957.00              1527.00,1957.00 1544.00,1957.00 1544.00,1957.00              1551.63,1956.91 1561.66,1954.87 1569.00,1952.71              1605.03,1942.10 1627.95,1915.66 1644.25,1883.00              1658.92,1853.58 1666.60,1819.37 1671.27,1787.00              1671.27,1787.00 1675.09,1750.00 1675.09,1750.00              1675.09,1750.00 1676.04,1740.00 1676.04,1740.00              1676.04,1740.00 1676.04,1728.00 1676.04,1728.00              1676.04,1728.00 1677.00,1716.00 1677.00,1716.00              1677.00,1716.00 1677.00,1685.00 1677.00,1685.00              1677.00,1685.00 1676.04,1673.00 1676.04,1673.00              1676.04,1673.00 1676.04,1660.00 1676.04,1660.00              1676.04,1660.00 1675.00,1650.00 1675.00,1650.00              1675.00,1650.00 1675.00,1641.00 1675.00,1641.00              1675.00,1641.00 1672.17,1612.00 1672.17,1612.00              1667.48,1563.56 1659.87,1515.67 1650.00,1468.00              1622.77,1336.43 1577.41,1196.88 1525.42,1073.00              1525.42,1073.00 1478.14,965.00 1478.14,965.00              1471.45,949.98 1457.63,926.36 1456.17,911.00              1455.71,906.24 1456.51,901.61 1457.66,897.00              1464.82,868.42 1497.26,856.87 1522.00,871.23              1533.64,877.99 1536.58,885.64 1542.25,897.00              1542.25,897.00 1561.31,938.00 1561.31,938.00              1588.71,997.83 1614.19,1058.42 1637.42,1120.00              1682.65,1239.88 1724.16,1378.62 1745.08,1505.00              1750.48,1537.62 1754.98,1570.11 1758.17,1603.00              1758.17,1603.00 1761.00,1632.00 1761.00,1632.00              1761.00,1632.00 1761.00,1641.00 1761.00,1641.00              1761.00,1641.00 1762.00,1652.00 1762.00,1652.00              1762.00,1652.00 1762.00,1656.00 1762.00,1656.00              1762.00,1656.00 1763.00,1673.00 1763.00,1673.00              1763.00,1673.00 1763.00,1729.00 1763.00,1729.00              1763.00,1729.00 1762.00,1747.00 1762.00,1747.00              1761.97,1760.98 1758.36,1789.48 1756.27,1804.00              1744.05,1888.76 1709.27,1981.61 1628.00,2022.25              1617.35,2027.57 1606.48,2032.30 1595.00,2035.57              1574.24,2041.50 1551.55,2044.25 1530.00,2044.00              1530.00,2044.00 1520.00,2043.09 1520.00,2043.09              1472.55,2039.84 1428.41,2025.45 1386.00,2004.25              1325.83,1974.16 1272.89,1935.95 1222.00,1892.13              1140.05,1821.56 1067.96,1740.20 1001.58,1655.00              922.57,1553.60 849.80,1441.25 787.14,1329.00              758.88,1278.37 732.00,1227.19 706.74,1175.00              706.74,1175.00 685.22,1130.00 685.22,1130.00              681.99,1123.16 675.61,1110.87 674.00,1104.00              674.00,1104.00 672.00,1104.00 672.00,1104.00              670.34,1109.83 666.06,1117.37 663.25,1123.00              663.25,1123.00 647.31,1156.00 647.31,1156.00              647.31,1156.00 598.60,1266.00 598.60,1266.00              560.98,1358.44 530.57,1448.22 509.79,1546.00              503.88,1573.82 499.22,1601.76 495.85,1630.00              495.85,1630.00 492.91,1661.00 492.91,1661.00              492.91,1661.00 492.00,1671.00 492.00,1671.00              492.00,1671.00 491.00,1690.00 491.00,1690.00              491.00,1690.00 491.00,1727.00 491.00,1727.00              491.00,1727.00 491.91,1737.00 491.91,1737.00              491.91,1737.00 493.84,1760.00 493.84,1760.00              499.72,1815.01 519.33,1874.05 573.00,1899.22              580.05,1902.52 591.28,1905.78 599.00,1907.08              604.60,1908.02 622.99,1910.05 628.00,1909.68              628.00,1909.68 666.00,1905.55 666.00,1905.55              720.66,1894.62 771.09,1870.38 819.00,1842.58              819.00,1842.58 871.00,1809.33 871.00,1809.33              879.13,1803.91 890.04,1795.20 899.00,1792.10              920.44,1784.68 944.19,1795.21 953.12,1816.00              956.27,1823.33 956.09,1828.28 956.00,1836.00              955.76,1855.99 943.69,1864.68 929.00,1875.14              929.00,1875.14 884.00,1904.95 884.00,1904.95              806.11,1953.72 712.62,1997.09 619.00,1996.00              619.00,1996.00 609.00,1995.09 609.00,1995.09              593.33,1994.01 578.18,1991.80 563.00,1987.58              550.86,1984.20 536.06,1978.67 525.00,1972.69              452.86,1933.70 420.94,1861.80 409.73,1784.00              409.73,1784.00 405.91,1746.00 405.91,1746.00              405.91,1746.00 405.00,1736.00 405.00,1736.00              405.00,1736.00 405.00,1679.00 405.00,1679.00              405.00,1679.00 405.91,1667.00 405.91,1667.00              405.91,1667.00 407.83,1641.00 407.83,1641.00              411.32,1604.94 416.69,1569.55 423.80,1534.00              445.74,1424.30 484.19,1314.04 527.42,1211.00              547.59,1162.95 569.67,1115.60 592.97,1069.00              592.97,1069.00 614.42,1027.00 614.42,1027.00              614.42,1027.00 623.31,1010.00 623.31,1010.00              624.38,1008.01 627.37,1003.34 627.72,1001.42              628.25,998.47 623.15,987.36 621.80,984.00              621.80,984.00 605.05,941.00 605.05,941.00              585.59,888.81 566.79,836.35 550.72,783.00              550.72,783.00 536.71,735.00 536.71,735.00              535.64,731.22 533.06,718.78 530.49,716.52              528.22,714.74 524.62,715.88 522.00,716.52              522.00,716.52 499.00,721.35 499.00,721.35              499.00,721.35 406.00,745.00 406.00,745.00              322.68,769.02 222.87,807.52 156.00,863.25              119.74,893.46 88.42,931.53 89.00,981.00              89.32,1007.74 103.99,1036.98 119.63,1058.00              149.59,1098.28 190.70,1130.10 233.00,1156.58              233.00,1156.58 276.00,1181.69 276.00,1181.69              276.00,1181.69 298.00,1193.93 298.00,1193.93              308.38,1201.51 314.85,1214.15 315.00,1227.00              315.08,1234.43 314.78,1238.96 311.91,1246.00              304.81,1263.41 285.56,1274.13 267.00,1271.71              253.86,1270.00 238.64,1260.60 227.00,1254.14              156.52,1215.02 79.52,1160.58 36.81,1091.00              20.84,1064.98 8.18,1034.46 4.28,1004.00              2.67,991.33 2.98,978.75 3.00,966.00              3.01,957.00 4.89,945.83 6.79,937.00              17.64,886.67 48.63,841.36 87.00,807.72              87.00,807.72 122.00,779.15 122.00,779.15              197.15,724.33 294.95,686.67 384.00,661.00              384.00,661.00 459.00,641.63 459.00,641.63              459.00,641.63 510.00,631.00 510.00,631.00 Z            M 830.00,677.00            C 830.00,677.00 829.00,677.00 829.00,677.00              829.00,677.00 830.00,678.00 830.00,678.00              830.00,678.00 830.00,677.00 830.00,677.00 Z            M 829.00,678.00            C 829.00,678.00 781.00,680.91 781.00,680.91              781.00,680.91 675.00,691.28 675.00,691.28              675.00,691.28 617.00,699.00 617.00,699.00              617.00,699.00 630.28,747.00 630.28,747.00              630.28,747.00 659.00,836.00 659.00,836.00              659.00,836.00 674.31,879.00 674.31,879.00              674.31,879.00 684.00,903.00 684.00,903.00              684.00,903.00 715.19,851.00 715.19,851.00              715.19,851.00 782.67,746.00 782.67,746.00              782.67,746.00 813.72,701.00 813.72,701.00              813.72,701.00 829.00,678.00 829.00,678.00 Z            M 1111.00,913.21            C 1111.00,913.21 1134.00,913.21 1134.00,913.21              1149.15,913.02 1168.33,918.32 1182.00,924.78              1194.74,930.80 1209.19,940.91 1218.96,951.00              1271.87,1005.68 1265.87,1093.92 1207.00,1141.74              1196.35,1150.39 1180.16,1159.27 1167.00,1163.28              1153.69,1167.33 1146.82,1168.46 1133.00,1169.12              1133.00,1169.12 1125.00,1169.12 1125.00,1169.12              1125.00,1169.12 1112.00,1169.12 1112.00,1169.12              1092.62,1166.95 1072.24,1159.59 1056.00,1148.92              1000.90,1112.72 982.45,1041.62 1011.75,983.00              1018.01,970.49 1025.99,958.87 1036.01,949.04              1057.31,928.17 1081.96,917.81 1111.00,913.21 Z" />
</svg>