<svg xmlns="http://www.w3.org/2000/svg" viewBox="-0.5 88.43 1001 823.07">
  <path id="audacity" fill="#303030" stroke="none" stroke-width="1" d="M 180.00,911.00            C 167.48,911.00 158.23,910.16 146.00,907.11              67.09,887.38 21.03,804.59 6.20,730.00              3.63,717.10 0.02,692.79 0.00,680.00              0.00,680.00 0.00,642.00 0.00,642.00              0.02,629.33 3.01,608.70 5.39,596.00              12.85,556.12 27.30,517.36 50.72,484.00              63.04,466.44 77.54,450.96 95.00,438.43              95.00,438.43 108.00,429.87 108.00,429.87              110.79,428.26 114.35,426.84 115.98,423.90              117.20,421.70 117.00,418.47 117.00,416.00              117.00,416.00 117.00,380.00 117.00,380.00              117.00,380.00 117.92,370.00 117.92,370.00              120.36,339.52 130.12,308.27 143.75,281.00              153.56,261.39 165.26,242.93 179.25,226.00              235.00,158.53 317.87,115.48 403.00,98.45              443.72,90.30 477.69,88.52 519.00,89.00              519.00,89.00 529.00,90.00 529.00,90.00              529.00,90.00 537.00,90.00 537.00,90.00              537.00,90.00 587.00,96.58 587.00,96.58              670.59,111.65 754.03,151.02 811.16,215.00              847.85,256.08 874.56,306.82 881.15,362.00              881.15,362.00 883.00,381.00 883.00,381.00              883.00,381.00 883.00,416.00 883.00,416.00              883.00,418.43 882.80,421.67 884.02,423.82              885.67,426.70 890.18,428.75 893.00,430.45              899.03,434.07 904.41,437.87 910.00,442.13              929.27,456.81 945.91,477.30 958.40,498.00              980.65,534.89 993.59,577.28 998.16,620.00              998.16,620.00 1000.00,642.00 1000.00,642.00              1000.00,642.00 1000.00,681.00 1000.00,681.00              999.84,694.34 996.45,716.66 993.80,730.00              978.98,804.53 932.80,887.32 854.00,907.11              842.87,909.90 831.44,911.00 820.00,911.00              820.00,911.00 820.00,502.00 820.00,502.00              820.00,502.00 820.00,423.00 820.00,423.00              820.00,393.64 820.84,372.98 812.57,344.00              802.33,308.09 781.51,276.82 755.91,250.01              755.91,250.01 747.00,241.91 747.00,241.91              712.62,210.04 672.33,187.78 628.00,173.00              526.43,139.14 409.63,146.40 315.00,197.69              245.80,235.20 186.87,299.47 180.91,381.00              180.91,381.00 180.00,393.00 180.00,393.00              180.00,393.00 180.00,911.00 180.00,911.00 Z            M 499.00,345.00            C 501.44,348.31 500.99,350.03 501.00,354.00              501.00,354.00 501.00,380.00 501.00,380.00              501.00,380.00 502.00,394.00 502.00,394.00              502.00,394.00 502.00,419.00 502.00,419.00              502.00,419.00 503.00,436.00 503.00,436.00              503.00,436.00 505.00,544.00 505.00,544.00              505.00,544.00 506.00,561.00 506.00,561.00              506.00,561.00 506.00,585.00 506.00,585.00              506.00,585.00 507.00,602.00 507.00,602.00              507.00,602.00 507.00,627.00 507.00,627.00              507.00,627.00 508.00,644.00 508.00,644.00              508.01,650.25 507.32,658.09 509.00,664.00              509.00,664.00 523.34,618.00 523.34,618.00              523.34,618.00 529.42,583.00 529.42,583.00              529.42,583.00 540.59,519.00 540.59,519.00              540.59,519.00 550.00,465.00 550.00,465.00              550.00,465.00 555.00,442.00 555.00,442.00              555.00,442.00 563.27,496.00 563.27,496.00              563.27,496.00 577.58,592.00 577.58,592.00              577.58,592.00 582.73,627.00 582.73,627.00              582.73,627.00 587.00,648.00 587.00,648.00              587.00,648.00 600.92,589.00 600.92,589.00              600.92,589.00 604.28,561.00 604.28,561.00              604.28,561.00 613.28,483.00 613.28,483.00              613.28,483.00 620.15,424.00 620.15,424.00              620.15,424.00 624.00,387.00 624.00,387.00              624.00,387.00 626.00,387.00 626.00,387.00              626.00,387.00 630.83,439.00 630.83,439.00              630.83,439.00 641.83,549.00 641.83,549.00              641.83,549.00 646.83,599.00 646.83,599.00              648.81,618.77 647.91,617.19 653.12,637.00              654.41,641.92 654.96,645.20 657.00,650.00              657.00,650.00 666.58,611.00 666.58,611.00              666.58,611.00 683.13,548.00 683.13,548.00              683.13,548.00 691.29,517.00 691.29,517.00              691.29,517.00 696.00,504.00 696.00,504.00              696.00,504.00 696.91,517.00 696.91,517.00              696.91,517.00 699.91,559.00 699.91,559.00              699.91,559.00 702.83,600.00 702.83,600.00              702.83,600.00 703.53,611.00 703.53,611.00              703.53,611.00 719.00,643.00 719.00,643.00              719.00,643.00 723.25,612.00 723.25,612.00              723.25,612.00 729.25,573.00 729.25,573.00              730.35,566.25 732.12,547.94 735.00,543.00              735.00,543.00 736.00,564.00 736.00,564.00              736.00,564.00 737.00,580.00 737.00,580.00              737.00,580.00 738.00,595.00 738.00,595.00              738.00,595.00 740.00,632.00 740.00,632.00              740.00,632.00 742.00,662.00 742.00,662.00              742.00,662.00 743.00,673.00 743.00,673.00              746.62,657.55 756.97,643.09 757.00,627.00              757.00,627.00 757.00,441.00 757.00,441.00              757.00,438.64 756.76,435.51 757.99,433.44              759.73,430.51 764.99,427.38 768.00,425.78              777.54,420.71 786.17,418.03 797.00,418.00              797.00,418.00 797.00,911.00 797.00,911.00              782.06,910.96 762.84,903.41 757.70,888.00              756.87,885.53 757.00,882.59 757.00,880.00              757.00,880.00 757.00,754.00 757.00,754.00              757.00,751.32 757.10,748.60 756.37,746.00              756.37,746.00 742.00,717.00 742.00,717.00              742.00,717.00 737.28,764.00 737.28,764.00              737.28,764.00 734.00,786.00 734.00,786.00              734.00,786.00 711.00,711.00 711.00,711.00              711.00,711.00 701.35,753.00 701.35,753.00              701.35,753.00 684.21,828.00 684.21,828.00              684.21,828.00 676.12,864.00 676.12,864.00              674.94,868.98 674.14,876.08 671.00,880.00              671.00,880.00 670.00,846.00 670.00,846.00              670.00,846.00 669.00,823.00 669.00,823.00              669.00,823.00 668.00,806.00 668.00,806.00              668.00,806.00 667.00,783.00 667.00,783.00              667.00,783.00 666.00,752.00 666.00,752.00              666.00,752.00 665.04,742.00 665.04,742.00              665.04,742.00 665.04,729.00 665.04,729.00              665.04,729.00 664.00,715.00 664.00,715.00              664.00,715.00 663.00,702.00 663.00,702.00              663.00,702.00 641.96,746.00 641.96,746.00              641.02,748.72 640.01,763.50 640.00,767.00              640.00,767.00 639.00,783.00 639.00,783.00              639.00,783.00 638.00,806.00 638.00,806.00              638.00,806.00 637.00,820.00 637.00,820.00              637.00,820.00 635.00,860.00 635.00,860.00              635.00,860.00 634.09,870.00 634.09,870.00              633.65,876.38 635.03,882.05 632.00,888.00              632.00,888.00 621.42,836.00 621.42,836.00              621.42,836.00 606.42,764.00 606.42,764.00              606.42,764.00 598.60,726.00 598.60,726.00              598.60,726.00 593.00,703.00 593.00,703.00              593.00,703.00 583.88,746.00 583.88,746.00              583.88,746.00 566.65,822.00 566.65,822.00              566.65,822.00 558.88,856.00 558.88,856.00              558.88,856.00 554.00,872.00 554.00,872.00              554.00,872.00 551.17,842.00 551.17,842.00              551.17,842.00 545.17,779.00 545.17,779.00              545.17,779.00 541.17,737.00 541.17,737.00              541.17,737.00 538.00,712.00 538.00,712.00              538.00,712.00 527.37,759.00 527.37,759.00              527.37,759.00 508.65,837.00 508.65,837.00              508.65,837.00 497.87,882.00 497.87,882.00              497.87,882.00 492.00,903.00 492.00,903.00              492.00,903.00 484.83,816.00 484.83,816.00              484.83,816.00 479.91,755.00 479.91,755.00              479.91,755.00 477.00,713.00 477.00,713.00              473.02,717.62 469.16,732.53 467.00,739.00              467.00,739.00 461.16,757.00 461.16,757.00              461.16,757.00 461.16,784.00 461.16,784.00              461.16,784.00 460.00,801.00 460.00,801.00              460.00,801.00 460.00,826.00 460.00,826.00              460.00,826.00 459.00,843.00 459.00,843.00              458.99,851.40 460.37,872.39 457.00,879.00              457.00,879.00 442.88,823.00 442.88,823.00              442.88,823.00 426.87,760.00 426.87,760.00              426.87,760.00 413.87,709.00 413.87,709.00              413.87,709.00 406.00,680.00 406.00,680.00              406.00,680.00 401.28,719.00 401.28,719.00              401.28,719.00 390.15,804.00 390.15,804.00              390.15,804.00 385.42,841.00 385.42,841.00              384.73,845.74 384.84,852.14 382.00,856.00              382.00,856.00 375.42,818.00 375.42,818.00              375.42,818.00 366.61,768.00 366.61,768.00              366.61,768.00 361.39,738.00 361.39,738.00              361.39,738.00 358.07,724.00 358.07,724.00              358.07,724.00 344.00,709.00 344.00,709.00              344.00,709.00 344.00,811.00 344.00,811.00              344.00,811.00 344.00,841.00 344.00,841.00              344.00,841.00 343.00,856.00 343.00,856.00              343.00,856.00 331.21,801.00 331.21,801.00              331.21,801.00 324.80,771.00 324.80,771.00              324.80,771.00 319.79,748.00 319.79,748.00              319.79,748.00 305.00,711.00 305.00,711.00              305.00,711.00 305.00,812.00 305.00,812.00              305.00,812.00 305.00,841.00 305.00,841.00              305.00,841.00 304.00,856.00 304.00,856.00              304.00,856.00 289.60,784.00 289.60,784.00              289.60,784.00 281.00,743.00 281.00,743.00              281.00,743.00 276.17,805.00 276.17,805.00              276.17,805.00 273.00,833.00 273.00,833.00              273.00,833.00 256.34,778.00 256.34,778.00              252.33,765.15 252.85,758.97 243.00,749.00              243.00,749.00 243.00,880.00 243.00,880.00              243.00,882.59 243.13,885.53 242.30,888.00              237.16,903.41 217.94,910.96 203.00,911.00              203.00,911.00 203.00,418.00 203.00,418.00              214.10,418.10 222.24,420.59 232.00,425.78              235.01,427.38 240.27,430.51 242.01,433.44              243.24,435.51 243.00,438.64 243.00,441.00              243.00,441.00 243.00,621.00 243.00,621.00              243.02,632.48 248.13,646.64 251.12,658.00              251.12,658.00 265.00,709.00 265.00,709.00              265.00,709.00 265.00,606.00 265.00,606.00              269.32,608.59 271.47,613.78 274.00,618.00              274.00,618.00 289.00,643.00 289.00,643.00              289.00,643.00 291.83,614.00 291.83,614.00              291.83,614.00 298.84,547.00 298.84,547.00              298.84,547.00 301.92,518.00 301.92,518.00              301.92,518.00 305.00,496.00 305.00,496.00              305.00,496.00 307.17,521.00 307.17,521.00              307.17,521.00 313.17,593.00 313.17,593.00              313.17,593.00 320.00,680.00 320.00,680.00              320.00,680.00 331.42,656.00 331.42,656.00              331.42,656.00 342.62,629.00 342.62,629.00              342.62,629.00 344.00,607.00 344.00,607.00              344.00,607.00 344.96,595.00 344.96,595.00              344.96,595.00 344.96,582.00 344.96,582.00              344.96,582.00 346.04,566.00 346.04,566.00              346.04,566.00 346.04,554.00 346.04,554.00              346.04,554.00 347.04,542.00 347.04,542.00              347.04,542.00 347.04,530.00 347.04,530.00              347.04,530.00 348.00,518.00 348.00,518.00              348.00,518.00 349.00,485.00 349.00,485.00              349.00,485.00 350.00,472.00 350.00,472.00              350.00,472.00 350.72,453.00 350.72,453.00              350.72,453.00 352.00,442.00 352.00,442.00              352.00,442.00 363.83,581.00 363.83,581.00              363.83,581.00 367.68,627.00 367.68,627.00              369.01,632.80 379.37,652.91 383.00,658.00              383.00,658.00 384.83,631.00 384.83,631.00              384.83,631.00 387.83,595.00 387.83,595.00              387.83,595.00 393.17,528.00 393.17,528.00              393.17,528.00 398.91,462.00 398.91,462.00              398.91,462.00 403.83,403.00 403.83,403.00              404.41,396.93 404.24,383.75 407.00,379.00              407.00,379.00 410.73,406.00 410.73,406.00              410.73,406.00 417.73,455.00 417.73,455.00              417.73,455.00 438.73,602.00 438.73,602.00              438.73,602.00 448.00,667.00 448.00,667.00              449.08,674.87 450.73,693.84 454.00,700.00              454.00,700.00 457.72,668.00 457.72,668.00              457.72,668.00 464.72,614.00 464.72,614.00              464.72,614.00 488.15,432.00 488.15,432.00              488.15,432.00 495.28,377.00 495.28,377.00              495.28,377.00 499.00,345.00 499.00,345.00 Z"/>
</svg>