<svg xmlns="http://www.w3.org/2000/svg" viewBox="107.6 37.7 947.77 504.85">
  <path id="authy-wordmark" fill="#303030" stroke="none" stroke-width="1"
    d="M 565.00,38.21            C 565.00,38.21 589.00,38.21 589.00,38.21              603.64,38.02 622.14,42.28 636.00,47.00              652.02,52.46 667.58,60.93 681.00,71.23              754.68,127.80 766.87,235.43 707.75,307.00              695.34,322.02 680.15,335.27 663.00,344.69              641.52,356.48 613.71,365.96 589.00,366.00              589.00,366.00 571.00,366.00 571.00,366.00              558.87,365.85 539.60,361.53 528.00,357.67              439.23,328.08 394.73,229.61 427.42,143.00              443.57,100.22 477.54,66.03 520.00,49.20              536.15,42.81 548.10,40.87 565.00,38.21 Z            M 627.00,110.47            C 619.48,111.50 613.99,116.15 613.20,124.00              612.13,134.61 625.98,144.98 633.00,152.00              644.57,163.57 661.77,177.71 667.14,193.00              669.16,198.76 669.07,202.04 669.00,208.00              668.72,231.38 647.88,249.51 625.00,248.99              607.40,248.59 597.65,238.65 586.00,227.00              586.00,227.00 570.00,211.00 570.00,211.00              564.33,205.33 555.06,193.80 547.00,193.11              533.50,191.95 524.35,207.12 537.09,221.00              537.09,221.00 559.00,243.00 559.00,243.00              566.70,250.70 574.13,258.87 583.00,265.25              596.75,275.15 612.23,279.19 629.00,279.00              669.60,278.52 699.06,244.49 699.00,205.00              698.98,188.88 692.76,171.47 682.54,159.00              682.54,159.00 664.00,140.00 664.00,140.00              664.00,140.00 646.00,122.00 646.00,122.00              639.84,115.84 636.24,110.98 627.00,110.47 Z            M 529.00,125.28            C 519.14,126.73 510.99,128.12 502.00,132.89              470.29,149.70 455.64,185.79 466.04,220.00              470.89,235.97 478.48,244.48 490.00,256.00              490.00,256.00 519.00,285.00 519.00,285.00              524.53,290.50 529.50,295.51 538.00,293.06              549.08,289.86 551.53,277.84 545.35,269.00              538.48,259.15 504.82,230.82 498.31,219.00              482.39,190.09 503.49,153.73 537.00,155.04              560.08,155.94 576.80,177.80 592.00,193.00              597.67,198.67 606.94,210.20 615.00,210.89              628.36,212.04 637.05,197.46 625.70,184.00              625.70,184.00 604.00,162.00 604.00,162.00              581.53,139.53 563.18,122.11 529.00,125.28 Z            M 434.00,406.57            C 442.80,405.18 447.84,409.04 448.00,418.00              448.00,418.00 448.00,463.00 448.00,463.00              448.00,476.76 449.25,490.84 444.46,504.00              436.38,526.19 413.08,539.89 390.00,540.00              390.00,540.00 381.00,540.00 381.00,540.00              374.55,539.92 366.89,538.33 361.00,535.69              341.79,527.09 327.26,508.56 327.00,487.00              327.00,487.00 327.00,422.00 327.00,422.00              327.01,418.81 326.71,414.91 328.74,412.23              332.13,407.73 343.87,407.73 347.26,412.23              349.29,414.91 348.99,418.81 349.00,422.00              349.00,422.00 349.00,464.00 349.00,464.00              349.00,479.46 348.73,493.43 359.32,506.00              374.70,524.23 401.47,522.55 416.54,504.96              424.19,496.03 425.98,486.42 426.00,475.00              426.00,475.00 426.00,420.00 426.00,420.00              426.04,412.84 426.80,409.41 434.00,406.57 Z            M 943.00,406.52            C 952.91,405.87 956.21,412.87 961.29,420.00              961.29,420.00 982.86,450.00 982.86,450.00              984.87,452.81 990.16,460.91 993.02,462.09              997.35,463.87 1002.67,454.00 1004.88,451.00              1004.88,451.00 1023.29,426.00 1023.29,426.00              1025.89,422.37 1033.30,411.87 1036.17,409.39              1044.08,402.57 1056.08,407.38 1054.77,418.00              1054.03,424.02 1047.05,432.09 1043.37,437.00              1043.37,437.00 1013.46,477.00 1013.46,477.00              1002.21,495.49 1006.03,504.52 1006.00,524.00              1005.99,527.59 1006.23,531.78 1004.15,534.89              1000.68,540.07 989.63,540.75 985.72,535.77              982.08,531.13 982.93,518.01 983.12,512.00              983.08,505.69 984.87,500.34 983.12,494.00              980.65,483.91 973.27,475.20 967.13,467.00              967.13,467.00 937.44,427.00 937.44,427.00              931.47,418.33 931.22,409.74 943.00,406.52 Z            M 172.00,407.74            C 185.92,404.41 189.82,419.13 194.75,429.00              194.75,429.00 234.74,507.00 234.74,507.00              234.74,507.00 240.25,518.00 240.25,518.00              243.50,524.50 250.28,535.85 240.96,540.69              239.18,541.61 236.98,541.91 235.00,541.95              227.35,542.09 225.34,538.13 222.25,532.00              219.17,525.92 213.86,512.26 207.98,509.31              205.01,507.82 201.26,508.01 198.00,508.00              198.00,508.00 156.00,508.00 156.00,508.00              151.84,508.01 147.63,507.73 144.19,510.51              141.49,512.69 134.33,527.00 132.26,531.00              130.63,534.14 129.13,538.04 125.90,539.83              123.83,540.97 121.30,540.99 119.00,540.99              111.79,540.99 107.25,537.92 108.23,530.00              108.78,525.52 119.07,506.38 121.75,501.00              121.75,501.00 153.75,437.00 153.75,437.00              157.95,428.62 163.91,412.07 172.00,407.74 Z            M 746.02,408.74            C 758.24,405.88 760.98,415.08 761.00,425.00              761.00,425.00 761.00,456.00 761.00,456.00              761.01,458.92 760.71,462.33 762.60,464.77              765.37,468.36 769.96,467.99 774.00,468.00              774.00,468.00 806.00,468.00 806.00,468.00              809.65,468.00 816.80,468.44 819.85,466.69              823.28,464.72 822.98,461.45 823.00,458.00              823.00,458.00 823.00,424.00 823.00,424.00              823.01,420.31 822.84,415.41 825.09,412.28              828.45,407.58 839.85,408.05 843.44,412.28              846.17,415.49 845.99,421.01 846.00,425.00              846.00,425.00 846.00,514.00 846.00,514.00              846.00,520.36 847.68,536.27 841.78,539.83              839.56,541.16 835.56,541.06 833.00,540.98              823.01,540.69 823.01,534.16 823.00,526.00              823.00,526.00 823.00,497.00 823.00,497.00              822.85,489.08 820.41,488.05 813.00,488.00              813.00,488.00 770.00,488.00 770.00,488.00              761.30,488.16 761.02,491.34 761.00,499.00              761.00,499.00 761.00,523.00 761.00,523.00              761.00,526.68 761.37,532.71 759.99,535.98              756.52,544.23 743.72,543.51 740.17,536.95              739.10,534.96 738.04,520.05 738.00,517.00              738.00,517.00 739.00,439.00 739.00,439.00              739.00,429.42 736.29,414.10 746.02,408.74 Z            M 544.00,409.22            C 544.00,409.22 586.00,409.22 586.00,409.22              586.00,409.22 603.00,410.00 603.00,410.00              603.00,410.00 639.00,410.00 639.00,410.00              642.84,410.01 647.46,409.84 650.79,412.09              655.85,415.50 656.09,423.36 651.61,427.35              647.86,430.69 638.88,430.99 634.00,431.00              634.00,431.00 615.00,431.00 615.00,431.00              612.51,431.02 609.49,430.81 607.51,432.60              605.05,434.82 605.04,438.95 605.00,442.00              605.00,442.00 605.00,469.00 605.00,469.00              605.00,469.00 606.00,486.00 606.00,486.00              606.00,486.00 606.00,523.00 606.00,523.00              605.99,527.70 605.92,535.10 602.57,538.72              598.37,543.28 588.56,543.32 585.09,537.89              582.86,534.41 583.01,529.97 583.00,526.00              583.00,526.00 583.00,454.00 583.00,454.00              583.00,448.06 584.76,435.32 578.89,432.02              576.73,430.81 573.44,431.00 571.00,431.00              571.00,431.00 549.00,431.00 549.00,431.00              545.30,430.95 540.24,430.65 537.23,428.28              534.32,426.00 533.81,422.47 534.11,419.00              534.68,412.29 538.05,410.69 544.00,409.22 Z            M 178.00,442.00            C 178.00,442.00 169.69,456.00 169.69,456.00              169.69,456.00 154.00,487.00 154.00,487.00              154.00,487.00 199.00,487.00 199.00,487.00              199.00,487.00 192.25,471.00 192.25,471.00              192.25,471.00 178.00,442.00 178.00,442.00 Z" />
</svg>