<svg xmlns="http://www.w3.org/2000/svg" viewBox="416.2 37.7 329.54 328.8">
  <path id="authy" fill="#303030" stroke="none" stroke-width="1"
    d="M 565.00,38.21            C 565.00,38.21 589.00,38.21 589.00,38.21              603.64,38.02 622.14,42.28 636.00,47.00              652.02,52.46 667.58,60.93 681.00,71.23              754.68,127.80 766.87,235.43 707.75,307.00              695.34,322.02 680.15,335.27 663.00,344.69              641.52,356.48 613.71,365.96 589.00,366.00              589.00,366.00 571.00,366.00 571.00,366.00              558.87,365.85 539.60,361.53 528.00,357.67              439.23,328.08 394.73,229.61 427.42,143.00              443.57,100.22 477.54,66.03 520.00,49.20              536.15,42.81 548.10,40.87 565.00,38.21 Z            M 627.00,110.47            C 619.48,111.50 613.99,116.15 613.20,124.00              612.13,134.61 625.98,144.98 633.00,152.00              644.57,163.57 661.77,177.71 667.14,193.00              669.16,198.76 669.07,202.04 669.00,208.00              668.72,231.38 647.88,249.51 625.00,248.99              607.40,248.59 597.65,238.65 586.00,227.00              586.00,227.00 570.00,211.00 570.00,211.00              564.33,205.33 555.06,193.80 547.00,193.11              533.50,191.95 524.35,207.12 537.09,221.00              537.09,221.00 559.00,243.00 559.00,243.00              566.70,250.70 574.13,258.87 583.00,265.25              596.75,275.15 612.23,279.19 629.00,279.00              669.60,278.52 699.06,244.49 699.00,205.00              698.98,188.88 692.76,171.47 682.54,159.00              682.54,159.00 664.00,140.00 664.00,140.00              664.00,140.00 646.00,122.00 646.00,122.00              639.84,115.84 636.24,110.98 627.00,110.47 Z            M 529.00,125.28            C 519.14,126.73 510.99,128.12 502.00,132.89              470.29,149.70 455.64,185.79 466.04,220.00              470.89,235.97 478.48,244.48 490.00,256.00              490.00,256.00 519.00,285.00 519.00,285.00              524.53,290.50 529.50,295.51 538.00,293.06              549.08,289.86 551.53,277.84 545.35,269.00              538.48,259.15 504.82,230.82 498.31,219.00              482.39,190.09 503.49,153.73 537.00,155.04              560.08,155.94 576.80,177.80 592.00,193.00              597.67,198.67 606.94,210.20 615.00,210.89              628.36,212.04 637.05,197.46 625.70,184.00              625.70,184.00 604.00,162.00 604.00,162.00              581.53,139.53 563.18,122.11 529.00,125.28 Z" />
</svg>