<svg xmlns="http://www.w3.org/2000/svg" viewBox="463.41 110.81 235.09 182.55">
  <path id="authy-alt" fill="#303030" stroke="none" stroke-width="1"
    d="M 625.00,111.53            C 634.76,110.14 638.64,115.64 645.00,122.00              645.00,122.00 669.00,146.00 669.00,146.00              673.84,150.84 678.95,155.54 683.10,161.00              695.27,176.99 698.09,190.43 698.00,210.00              697.87,238.39 678.19,264.02 652.00,273.77              641.05,277.85 633.41,278.13 622.00,278.00              590.49,277.63 572.43,255.43 552.00,235.00              545.58,228.58 532.60,218.06 531.56,209.00              530.45,199.48 537.96,193.53 547.00,194.04              555.53,194.53 566.01,208.01 572.00,214.00              588.11,230.11 606.18,253.96 632.00,249.39              636.22,248.64 640.06,247.69 644.00,245.96              648.73,243.88 653.32,240.61 656.96,236.96              660.23,233.69 663.55,229.14 665.63,225.00              672.56,211.13 670.99,194.76 662.48,182.00              658.19,175.57 651.51,169.51 646.00,164.00              646.00,164.00 628.00,146.00 628.00,146.00              621.81,139.81 613.27,133.72 614.11,124.00              614.44,120.14 616.12,116.91 619.10,114.42              621.16,112.70 622.56,112.31 625.00,111.53 Z            M 525.00,126.44            C 543.47,124.07 562.69,128.30 578.00,139.04              587.70,145.85 599.36,158.36 608.00,167.00              614.61,173.61 629.36,185.74 630.21,195.00              631.11,204.75 624.41,210.49 615.00,209.96              606.47,209.47 595.99,195.99 590.00,190.00              573.25,173.25 555.60,150.25 529.00,154.92              524.41,155.73 521.22,156.77 517.00,158.78              512.19,161.08 508.84,163.24 505.04,167.04              501.55,170.53 497.96,175.50 495.90,180.00              489.80,193.30 490.76,208.68 498.70,221.00              503.09,227.81 509.30,233.30 515.00,239.00              515.00,239.00 535.00,259.00 535.00,259.00              542.65,266.65 554.80,277.93 543.79,288.78              542.12,290.42 540.23,291.51 538.00,292.20              529.64,294.78 524.40,289.38 519.00,284.00              519.00,284.00 491.00,256.00 491.00,256.00              478.86,243.86 471.46,235.96 466.44,219.00              463.49,209.02 463.88,202.18 464.00,192.00              464.23,172.70 475.98,152.31 491.00,140.68              501.18,132.80 512.48,128.75 525.00,126.44 Z" />
</svg>