<svg xmlns="http://www.w3.org/2000/svg" viewBox="38.97 62.41 922.13 875.34">
  <path id="azure" fill="#303030" stroke="none" stroke-width="1"
    d="M 391.00,756.00            C 391.00,756.00 350.00,878.00 350.00,878.00              344.12,895.64 333.24,924.02 317.00,934.05              305.74,941.00 299.55,936.02 288.00,936.00              288.00,936.00 86.00,936.00 86.00,936.00              67.72,935.97 49.96,930.35 42.47,912.00              38.86,903.16 38.89,894.33 39.00,885.00              39.14,873.05 46.38,855.86 50.33,844.00              50.33,844.00 76.00,768.00 76.00,768.00              76.00,768.00 164.33,507.00 164.33,507.00              164.33,507.00 278.00,171.00 278.00,171.00              278.00,171.00 296.67,116.00 296.67,116.00              296.67,116.00 306.26,88.00 306.26,88.00              310.70,79.31 322.94,69.14 332.00,65.45              346.38,59.60 352.28,63.98 366.00,64.00              366.00,64.00 651.00,64.00 651.00,64.00              657.11,64.01 660.04,64.38 666.00,65.90              693.18,72.82 698.33,97.00 706.00,120.00              706.00,120.00 723.33,172.00 723.33,172.00              723.33,172.00 844.00,530.00 844.00,530.00              844.00,530.00 948.67,841.00 948.67,841.00              956.11,863.32 968.74,889.49 954.93,912.00              952.33,916.24 949.64,919.51 946.00,922.91              942.42,926.24 937.52,929.64 933.00,931.54              926.62,934.22 920.84,934.99 914.00,935.00              914.00,935.00 597.00,935.00 597.00,935.00              591.71,934.99 584.68,934.58 580.00,931.91              576.43,929.88 570.62,923.56 567.00,920.42              567.00,920.42 537.00,892.28 537.00,892.28              537.00,892.28 508.00,865.09 508.00,865.09              508.00,865.09 462.00,822.09 462.00,822.09              462.00,822.09 416.00,779.09 416.00,779.09              416.00,779.09 391.00,756.00 391.00,756.00 Z            M 640.00,928.00            C 640.00,928.00 818.00,928.00 818.00,928.00              818.00,928.00 908.00,928.00 908.00,928.00              927.18,927.77 944.79,920.71 951.25,901.00              953.21,895.03 953.07,891.14 953.00,885.00              952.89,875.86 948.58,865.73 945.67,857.00              945.67,857.00 930.42,812.00 930.42,812.00              930.42,812.00 914.33,764.00 914.33,764.00              914.33,764.00 890.33,693.00 890.33,693.00              890.33,693.00 742.67,254.00 742.67,254.00              742.67,254.00 696.33,116.00 696.33,116.00              693.81,108.42 690.72,97.63 686.74,91.00              679.14,78.32 666.51,72.02 652.00,72.00              652.00,72.00 459.00,72.00 459.00,72.00              459.00,72.00 403.00,72.00 403.00,72.00              397.10,72.00 381.69,71.14 377.00,73.00              381.75,76.40 386.65,81.11 389.90,86.00              395.07,93.79 402.60,118.79 406.00,129.00              406.00,129.00 447.00,251.00 447.00,251.00              447.00,251.00 608.00,728.00 608.00,728.00              608.00,728.00 644.33,836.00 644.33,836.00              644.33,836.00 653.00,862.00 653.00,862.00              653.00,862.00 658.48,879.00 658.48,879.00              660.86,890.21 657.83,903.08 652.51,913.00              648.71,920.08 645.27,922.43 640.00,928.00 Z            M 499.00,428.00            C 495.45,432.11 493.50,441.50 491.67,447.00              491.67,447.00 478.28,489.00 478.28,489.00              478.28,489.00 446.28,589.00 446.28,589.00              446.28,589.00 435.00,626.00 435.00,626.00              435.00,626.00 565.00,626.00 565.00,626.00              565.00,626.00 559.00,607.00 559.00,607.00              559.00,607.00 548.33,575.00 548.33,575.00              548.33,575.00 514.67,475.00 514.67,475.00              514.67,475.00 499.00,428.00 499.00,428.00 Z            M 567.00,633.00            C 567.00,633.00 359.00,633.00 359.00,633.00              359.00,633.00 322.00,633.00 322.00,633.00              315.80,633.00 307.58,632.36 302.04,635.44              296.18,638.70 295.84,644.00 296.02,650.00              296.31,660.03 306.52,665.61 313.00,672.00              313.00,672.00 340.00,697.09 340.00,697.09              340.00,697.09 368.00,723.42 368.00,723.42              368.00,723.42 395.00,748.91 395.00,748.91              395.00,748.91 441.00,791.91 441.00,791.91              441.00,791.91 526.00,871.04 526.00,871.04              526.00,871.04 569.00,911.28 569.00,911.28              573.05,914.85 581.10,923.82 585.28,925.68              589.91,927.74 608.91,927.07 615.00,927.00              629.05,926.83 642.51,918.14 647.91,905.00              650.67,898.28 651.08,892.13 651.00,885.00              650.90,876.65 646.95,868.85 644.33,861.00              644.33,861.00 628.67,815.00 628.67,815.00              628.67,815.00 603.34,741.00 603.34,741.00              603.34,741.00 592.31,708.00 592.31,708.00              592.31,708.00 577.31,664.00 577.31,664.00              577.31,664.00 567.00,633.00 567.00,633.00 Z" />
</svg>