<svg xmlns="http://www.w3.org/2000/svg" viewBox="6.48 42.5 287.02 83.17">
  <path id="bbc" fill="#303030" stroke="none" stroke-width="1"
    d="M 7.00,43.00            C 7.00,43.00 89.00,43.00 89.00,43.00              89.00,43.00 89.00,125.00 89.00,125.00              89.00,125.00 27.00,125.00 27.00,125.00              23.42,125.00 10.03,125.93 8.02,123.40              6.77,121.81 7.00,117.99 7.00,116.00              7.00,116.00 7.00,43.00 7.00,43.00 Z            M 110.00,43.00            C 110.00,43.00 191.00,43.00 191.00,43.00              191.00,43.00 191.00,125.00 191.00,125.00              191.00,125.00 110.00,125.00 110.00,125.00              110.00,125.00 110.00,43.00 110.00,43.00 Z            M 212.00,43.00            C 212.00,43.00 293.00,43.00 293.00,43.00              293.00,43.00 293.00,125.00 293.00,125.00              293.00,125.00 212.00,125.00 212.00,125.00              212.00,125.00 212.00,43.00 212.00,43.00 Z            M 59.00,83.00            C 60.78,80.23 63.11,77.32 63.62,74.00              66.16,57.37 39.85,60.00 30.00,60.00              30.00,60.00 30.00,107.00 30.00,107.00              37.86,107.00 53.53,108.33 59.96,104.47              68.40,99.39 68.26,87.49 59.00,83.00 Z            M 161.99,83.00            C 163.29,80.75 164.75,78.53 165.43,76.00              170.58,56.97 142.90,60.00 132.00,60.00              132.00,60.00 132.00,107.00 132.00,107.00              139.94,107.00 155.38,108.29 161.99,104.59              170.73,99.68 170.62,88.11 161.99,83.00 Z            M 270.00,71.85            C 270.00,69.69 270.30,65.39 268.98,63.51              264.81,57.58 248.47,60.16 243.00,62.99              233.83,67.75 231.77,76.52 232.01,86.00              232.22,94.26 236.18,102.03 244.00,105.47              249.79,108.02 266.02,109.54 269.98,103.58              271.29,101.61 271.00,97.38 271.00,95.00              264.73,96.69 258.69,99.74 252.00,97.33              241.04,93.36 240.23,77.91 249.04,71.85              256.05,66.77 262.78,70.10 270.00,71.85 Z            M 40.00,69.00            C 42.88,69.00 49.30,68.58 51.57,70.17              54.52,72.24 53.57,76.26 50.77,77.98              48.50,79.38 42.78,79.00 40.00,79.00              40.00,79.00 40.00,69.00 40.00,69.00 Z            M 142.00,69.00            C 144.43,69.00 150.91,68.75 152.85,69.60              156.46,71.17 156.46,75.84 153.57,77.83              151.26,79.42 144.91,79.00 142.00,79.00              142.00,79.00 142.00,69.00 142.00,69.00 Z            M 40.00,87.00            C 43.74,87.00 49.51,86.66 52.77,88.57              57.01,91.04 56.19,96.41 51.89,98.26              49.50,99.29 42.87,99.00 40.00,99.00              40.00,99.00 40.00,87.00 40.00,87.00 Z            M 142.00,87.00            C 145.58,87.00 151.73,86.72 154.85,88.43              159.22,90.82 158.42,96.39 153.94,98.26              151.49,99.29 144.92,99.00 142.00,99.00              142.00,99.00 142.00,87.00 142.00,87.00 Z" />
</svg>