<svg xmlns="http://www.w3.org/2000/svg" viewBox="-0.5 -0.78 2561 476.44">
  <path id="behance-alt" fill="#303030" stroke="none" stroke-width="1"
    d="M 0.00,0.00            C 0.00,0.00 182.00,0.00 182.00,0.00              220.09,0.00 244.16,-2.33 282.00,6.35              290.09,8.21 295.06,9.09 303.00,12.20              316.77,17.61 332.47,25.20 342.71,36.09              358.99,53.37 367.96,80.42 368.00,104.00              368.00,104.00 368.00,125.00 368.00,125.00              367.94,138.63 363.25,154.12 356.69,166.00              348.10,181.54 334.78,193.79 320.00,203.31              320.00,203.31 306.00,212.00 306.00,212.00              312.90,212.63 321.73,216.67 328.00,219.76              349.62,230.42 364.29,244.44 375.24,266.00              402.76,320.14 393.08,394.70 341.00,430.80              313.58,449.80 266.33,462.95 233.00,463.00              233.00,463.00 181.00,463.00 181.00,463.00              181.00,463.00 46.00,463.00 46.00,463.00              46.00,463.00 31.00,464.00 31.00,464.00              31.00,464.00 0.00,464.00 0.00,464.00              0.00,464.00 0.00,0.00 0.00,0.00 Z            M 794.00,0.00            C 794.00,0.00 887.00,0.00 887.00,0.00              887.00,0.00 887.00,118.00 887.00,118.00              887.00,118.00 887.00,154.00 887.00,154.00              887.00,154.00 888.00,174.00 888.00,174.00              899.97,149.46 922.24,135.39 947.00,126.32              958.18,122.22 970.02,119.02 982.00,119.00              982.00,119.00 1000.00,119.00 1000.00,119.00              1033.91,119.05 1072.35,133.08 1089.69,164.00              1100.99,184.14 1105.26,202.15 1107.08,225.00              1107.08,225.00 1108.00,235.00 1108.00,235.00              1108.00,235.00 1109.00,256.00 1109.00,256.00              1109.00,256.00 1109.00,465.00 1109.00,465.00              1109.00,465.00 1015.00,465.00 1015.00,465.00              1015.00,465.00 1015.00,265.00 1015.00,265.00              1014.91,246.82 1008.75,218.76 994.99,206.17              985.24,197.25 975.64,195.09 963.00,193.83              937.19,191.26 910.59,200.99 898.26,225.00              885.73,249.39 887.00,286.92 887.00,314.00              887.00,314.00 887.00,465.00 887.00,465.00              887.00,465.00 794.00,465.00 794.00,465.00              794.00,465.00 794.00,0.00 794.00,0.00 Z            M 493.00,32.00            C 493.00,32.00 682.00,32.00 682.00,32.00              682.00,32.00 682.00,78.00 682.00,78.00              682.00,78.00 493.00,78.00 493.00,78.00              493.00,78.00 493.00,32.00 493.00,32.00 Z            M 103.00,188.00            C 103.00,188.00 145.00,188.00 145.00,188.00              145.00,188.00 161.00,187.00 161.00,187.00              161.00,187.00 189.00,187.00 189.00,187.00              210.74,187.00 231.06,188.78 250.00,175.21              266.93,163.08 270.32,139.27 267.08,120.00              265.88,112.90 263.93,105.80 259.47,100.00              249.24,86.71 230.42,80.03 214.00,80.00              214.00,80.00 103.00,80.00 103.00,80.00              103.00,80.00 103.00,188.00 103.00,188.00 Z            M 753.00,360.00            C 744.34,392.14 721.30,428.43 694.00,447.56              682.54,455.60 668.24,461.59 655.00,466.00              607.53,481.82 543.36,477.21 500.00,451.55              487.72,444.28 478.61,436.37 468.91,426.00              446.06,401.57 434.87,379.62 427.58,347.00              425.69,338.56 423.10,322.43 423.00,314.00              422.78,295.28 422.33,276.51 425.43,258.00              430.78,226.14 446.53,193.94 468.17,170.00              496.22,138.95 542.34,119.48 584.00,119.00              584.00,119.00 596.00,118.18 596.00,118.18              596.00,118.18 610.00,119.00 610.00,119.00              649.69,119.19 693.14,142.32 717.55,173.00              731.29,190.27 748.16,222.32 752.71,244.00              756.06,259.90 757.03,287.40 757.00,304.00              757.00,304.00 756.00,319.00 756.00,319.00              756.00,319.00 513.00,319.00 513.00,319.00              513.00,345.79 523.20,377.13 547.00,391.94              575.50,409.66 622.84,407.82 649.00,386.38              657.28,379.60 665.99,370.52 669.00,360.00              669.00,360.00 753.00,360.00 753.00,360.00 Z            M 2555.00,360.00            C 2546.34,392.14 2523.30,428.43 2496.00,447.56              2484.54,455.60 2470.24,461.59 2457.00,466.00              2409.53,481.82 2345.36,477.21 2302.00,451.55              2289.72,444.28 2280.61,436.37 2270.91,426.00              2248.06,401.57 2236.87,379.62 2229.58,347.00              2227.69,338.56 2225.10,322.43 2225.00,314.00              2224.78,295.28 2224.33,276.51 2227.43,258.00              2232.80,226.01 2248.45,194.04 2270.17,170.00              2298.10,139.08 2344.47,119.48 2386.00,119.00              2386.00,119.00 2395.00,118.18 2395.00,118.18              2395.00,118.18 2413.00,119.00 2413.00,119.00              2424.10,119.13 2442.49,122.96 2453.00,126.70              2474.44,134.33 2498.73,151.10 2513.83,168.00              2539.18,196.39 2559.94,248.71 2560.00,287.00              2560.00,287.00 2560.00,320.00 2560.00,320.00              2560.00,320.00 2316.00,320.00 2316.00,320.00              2316.00,320.00 2317.29,333.00 2317.29,333.00              2319.11,346.93 2325.38,364.72 2333.76,376.00              2356.31,406.33 2405.42,410.48 2438.00,395.69              2447.06,391.57 2457.10,383.66 2463.38,376.00              2463.38,376.00 2473.63,360.99 2473.63,360.99              2475.42,359.75 2478.87,360.00 2481.00,360.00              2481.00,360.00 2555.00,360.00 2555.00,360.00 Z            M 1161.00,231.00            C 1161.00,216.49 1160.75,212.34 1165.34,198.00              1168.03,189.61 1171.74,182.30 1176.67,175.00              1200.58,139.57 1242.35,125.18 1283.00,120.84              1283.00,120.84 1306.00,119.00 1306.00,119.00              1306.00,119.00 1330.00,119.00 1330.00,119.00              1330.00,119.00 1355.00,120.83 1355.00,120.83              1355.00,120.83 1373.00,122.28 1373.00,122.28              1400.77,125.66 1425.01,135.01 1445.00,155.00              1454.44,164.44 1459.18,170.96 1462.85,184.00              1465.27,192.64 1466.99,203.03 1467.00,212.00              1467.00,212.00 1467.00,339.00 1467.00,339.00              1467.00,367.85 1465.43,411.82 1471.42,439.00              1474.86,454.59 1477.92,454.86 1482.00,466.00              1482.00,466.00 1395.00,466.00 1395.00,466.00              1392.63,466.00 1389.28,466.20 1387.21,464.98              1384.52,463.38 1383.33,459.80 1382.34,457.00              1378.78,446.85 1379.00,445.43 1379.00,435.00              1368.27,444.86 1356.29,453.60 1343.00,459.69              1324.84,468.02 1306.80,471.70 1287.00,473.09              1287.00,473.09 1275.00,474.00 1275.00,474.00              1275.00,474.00 1261.00,474.00 1261.00,474.00              1234.09,473.96 1200.37,463.75 1180.00,445.82              1172.35,439.08 1165.06,429.03 1160.32,420.00              1151.13,402.48 1150.97,382.22 1151.00,363.00              1151.01,354.48 1152.66,344.09 1155.35,336.00              1158.02,327.99 1160.68,323.01 1165.35,316.00              1170.87,307.72 1177.96,299.17 1186.00,293.29              1214.28,272.60 1263.67,268.26 1298.00,264.15              1316.16,261.98 1336.23,260.85 1353.00,253.41              1360.27,250.19 1368.36,245.69 1371.52,238.00              1373.77,232.52 1374.21,225.80 1373.42,220.00              1372.73,214.93 1372.83,211.90 1370.65,207.00              1362.66,188.99 1342.61,181.03 1324.00,181.00              1312.97,180.98 1301.76,180.24 1291.00,183.16              1267.59,189.50 1257.00,208.37 1254.00,231.00              1254.00,231.00 1161.00,231.00 1161.00,231.00 Z            M 1607.00,174.00            C 1618.93,149.54 1641.94,134.69 1667.00,126.33              1706.98,113.01 1765.93,116.02 1797.96,146.17              1804.43,152.26 1810.79,162.19 1815.14,170.00              1834.97,205.63 1832.00,244.75 1832.00,284.00              1832.00,284.00 1832.00,465.00 1832.00,465.00              1832.00,465.00 1739.00,465.00 1739.00,465.00              1739.00,465.00 1739.00,270.00 1739.00,270.00              1739.00,270.00 1738.08,258.00 1738.08,258.00              1735.81,229.62 1726.95,201.65 1696.00,194.13              1690.67,192.84 1683.48,191.89 1678.00,192.01              1655.57,192.52 1633.41,202.79 1621.09,222.00              1615.47,230.77 1611.88,242.77 1610.08,253.00              1605.72,277.88 1607.00,311.16 1607.00,337.00              1607.00,337.00 1607.00,467.00 1607.00,467.00              1607.00,467.00 1514.00,467.00 1514.00,467.00              1514.00,467.00 1514.00,127.00 1514.00,127.00              1514.00,127.00 1606.00,127.00 1606.00,127.00              1606.00,127.00 1606.00,156.00 1606.00,156.00              1606.00,156.00 1607.00,174.00 1607.00,174.00 Z            M 2201.00,335.00            C 2193.65,375.34 2183.66,407.34 2152.00,435.83              2106.31,476.95 2027.93,482.96 1972.00,462.05              1954.65,455.56 1936.88,446.22 1923.00,433.83              1893.47,407.46 1875.97,375.93 1869.43,337.00              1866.77,321.13 1866.82,305.06 1867.00,289.00              1867.00,289.00 1867.91,279.00 1867.91,279.00              1869.87,252.26 1876.78,229.94 1888.75,206.00              1896.20,191.11 1905.87,175.67 1918.04,164.17              1930.19,152.68 1948.74,139.87 1964.00,132.90              1979.47,125.83 2010.92,119.03 2028.00,119.00              2028.00,119.00 2049.00,119.00 2049.00,119.00              2059.32,119.02 2072.78,121.54 2083.00,123.60              2112.68,129.57 2147.03,145.30 2166.54,169.00              2179.91,185.25 2187.91,203.54 2192.34,224.00              2192.34,224.00 2196.00,249.00 2196.00,249.00              2196.00,249.00 2104.00,249.00 2104.00,249.00              2101.83,232.59 2098.73,218.45 2086.91,206.01              2070.54,188.78 2037.81,184.27 2016.00,192.09              2007.93,194.98 1999.37,200.48 1993.00,206.17              1974.55,222.67 1963.50,251.67 1961.06,276.00              1961.06,276.00 1961.06,285.00 1961.06,285.00              1961.06,285.00 1960.09,296.00 1960.09,296.00              1960.09,296.00 1961.00,310.00 1961.00,310.00              1961.16,323.53 1964.40,339.32 1969.05,352.00              1979.53,380.58 2004.55,403.64 2036.00,404.00              2060.41,404.27 2083.76,394.70 2097.64,374.00              2102.53,366.71 2105.97,358.50 2108.11,350.00              2108.11,350.00 2111.02,336.60 2111.02,336.60              2112.60,334.62 2116.69,335.00 2119.00,335.00              2119.00,335.00 2201.00,335.00 2201.00,335.00 Z            M 664.00,261.00            C 663.13,242.01 652.69,217.58 638.00,205.32              614.29,185.54 571.41,185.49 546.00,202.10              536.40,208.38 524.37,220.15 520.23,231.00              518.36,235.90 516.28,245.69 515.44,251.00              515.44,251.00 514.00,261.00 514.00,261.00              514.00,261.00 664.00,261.00 664.00,261.00 Z            M 2470.00,261.00            C 2463.93,240.07 2457.86,213.93 2438.00,201.46              2402.66,179.28 2348.43,189.26 2327.90,227.00              2323.10,235.82 2320.03,250.97 2320.00,261.00              2320.00,261.00 2470.00,261.00 2470.00,261.00 Z            M 103.00,385.00            C 103.00,385.00 218.00,385.00 218.00,385.00              237.78,384.97 258.97,378.94 272.56,363.91              293.56,340.70 290.84,289.80 265.00,270.93              251.89,261.35 231.04,257.03 215.00,257.00              215.00,257.00 103.00,257.00 103.00,257.00              103.00,257.00 103.00,385.00 103.00,385.00 Z            M 1373.00,302.00            C 1356.42,309.39 1361.21,309.46 1341.00,314.11              1341.00,314.11 1323.00,316.87 1323.00,316.87              1309.19,318.79 1278.69,323.49 1267.00,329.38              1252.84,336.50 1243.65,350.20 1243.04,366.00              1242.88,370.20 1243.69,375.90 1244.68,380.00              1245.79,384.60 1247.73,388.10 1250.36,392.00              1263.63,411.65 1288.02,410.24 1309.00,410.00              1319.47,409.87 1335.19,406.15 1344.00,400.45              1355.10,393.27 1365.12,380.61 1369.25,368.00              1374.27,352.67 1373.00,319.20 1373.00,302.00 Z" />
</svg>