<svg xmlns="http://www.w3.org/2000/svg" viewBox="-0.5 -0.78 758 476.44">
  <path id="behance" fill="#303030" stroke="none" stroke-width="1"
    d="M 0.00,0.00            C 0.00,0.00 182.00,0.00 182.00,0.00              220.09,0.00 244.16,-2.33 282.00,6.35              290.09,8.21 295.06,9.09 303.00,12.20              316.77,17.61 332.47,25.20 342.71,36.09              358.99,53.37 367.96,80.42 368.00,104.00              368.00,104.00 368.00,125.00 368.00,125.00              367.94,138.63 363.25,154.12 356.69,166.00              348.10,181.54 334.78,193.79 320.00,203.31              320.00,203.31 306.00,212.00 306.00,212.00              312.90,212.63 321.73,216.67 328.00,219.76              349.62,230.42 364.29,244.44 375.24,266.00              402.76,320.14 393.08,394.70 341.00,430.80              313.58,449.80 266.33,462.95 233.00,463.00              233.00,463.00 181.00,463.00 181.00,463.00              181.00,463.00 46.00,463.00 46.00,463.00              46.00,463.00 31.00,464.00 31.00,464.00              31.00,464.00 0.00,464.00 0.00,464.00              0.00,464.00 0.00,0.00 0.00,0.00 Z            M 493.00,32.00            C 493.00,32.00 682.00,32.00 682.00,32.00              682.00,32.00 682.00,78.00 682.00,78.00              682.00,78.00 493.00,78.00 493.00,78.00              493.00,78.00 493.00,32.00 493.00,32.00 Z            M 103.00,188.00            C 103.00,188.00 145.00,188.00 145.00,188.00              145.00,188.00 161.00,187.00 161.00,187.00              161.00,187.00 189.00,187.00 189.00,187.00              210.74,187.00 231.06,188.78 250.00,175.21              266.93,163.08 270.32,139.27 267.08,120.00              265.88,112.90 263.93,105.80 259.47,100.00              249.24,86.71 230.42,80.03 214.00,80.00              214.00,80.00 103.00,80.00 103.00,80.00              103.00,80.00 103.00,188.00 103.00,188.00 Z            M 753.00,360.00            C 744.34,392.14 721.30,428.43 694.00,447.56              682.54,455.60 668.24,461.59 655.00,466.00              607.53,481.82 543.36,477.21 500.00,451.55              487.72,444.28 478.61,436.37 468.91,426.00              446.06,401.57 434.87,379.62 427.58,347.00              425.69,338.56 423.10,322.43 423.00,314.00              422.78,295.28 422.33,276.51 425.43,258.00              430.78,226.14 446.53,193.94 468.17,170.00              496.22,138.95 542.34,119.48 584.00,119.00              584.00,119.00 596.00,118.18 596.00,118.18              596.00,118.18 610.00,119.00 610.00,119.00              649.69,119.19 693.14,142.32 717.55,173.00              731.29,190.27 748.16,222.32 752.71,244.00              756.06,259.90 757.03,287.40 757.00,304.00              757.00,304.00 756.00,319.00 756.00,319.00              756.00,319.00 513.00,319.00 513.00,319.00              513.00,345.79 523.20,377.13 547.00,391.94              575.50,409.66 622.84,407.82 649.00,386.38              657.28,379.60 665.99,370.52 669.00,360.00              669.00,360.00 753.00,360.00 753.00,360.00 Z            M 664.00,261.00            C 663.13,242.01 652.69,217.58 638.00,205.32              614.29,185.54 571.41,185.49 546.00,202.10              536.40,208.38 524.37,220.15 520.23,231.00              518.36,235.90 516.28,245.69 515.44,251.00              515.44,251.00 514.00,261.00 514.00,261.00              514.00,261.00 664.00,261.00 664.00,261.00 Z            M 103.00,385.00            C 103.00,385.00 218.00,385.00 218.00,385.00              237.78,384.97 258.97,378.94 272.56,363.91              293.56,340.70 290.84,289.80 265.00,270.93              251.89,261.35 231.04,257.03 215.00,257.00              215.00,257.00 103.00,257.00 103.00,257.00              103.00,257.00 103.00,385.00 103.00,385.00 Z" />
</svg>