<svg xmlns="http://www.w3.org/2000/svg" viewBox="-0.5 -0.52 405 193.02">
  <path id="bim" fill="#303030" stroke="none" stroke-width="1"
    d="M 186.00,31.00            C 186.00,31.00 200.14,10.00 200.14,10.00              201.75,7.74 205.18,2.31 207.32,1.02              209.39,-0.22 212.63,0.00 215.00,0.00              215.00,0.00 348.00,0.00 348.00,0.00              380.41,0.05 403.96,24.96 404.00,57.00              404.00,57.00 404.00,137.00 404.00,137.00              403.95,167.54 379.54,191.95 349.00,192.00              349.00,192.00 159.00,192.00 159.00,192.00              159.00,192.00 54.00,192.00 54.00,192.00              24.80,191.65 0.05,166.02 0.00,137.00              0.00,137.00 0.00,55.00 0.00,55.00              0.12,25.01 23.67,0.05 54.00,0.00              54.00,0.00 158.00,0.00 158.00,0.00              160.26,0.00 163.53,-0.25 165.48,0.99              167.54,2.29 170.85,7.78 172.33,10.00              172.33,10.00 186.00,31.00 186.00,31.00 Z            M 125.00,99.00            C 131.36,90.07 137.15,86.33 137.91,74.00              138.12,70.51 137.43,66.37 136.51,63.00              128.72,34.47 93.40,36.73 70.00,37.00              70.00,37.00 52.00,38.72 52.00,38.72              50.10,38.98 47.31,38.97 46.02,40.60              44.77,42.19 45.00,46.01 45.00,48.00              45.00,48.00 45.00,154.00 45.00,154.00              45.00,154.00 58.00,156.04 58.00,156.04              58.00,156.04 67.00,156.04 67.00,156.04              84.20,157.81 109.67,158.42 125.00,149.54              147.64,136.42 144.77,106.75 125.00,99.00 Z            M 169.00,39.00            C 169.00,39.00 168.00,52.00 168.00,52.00              168.00,52.00 168.00,74.00 168.00,74.00              168.00,74.00 168.00,154.00 168.00,154.00              168.00,154.00 202.00,155.00 202.00,155.00              202.00,155.00 202.00,39.00 202.00,39.00              195.81,40.51 175.01,40.71 169.00,39.00 Z            M 298.00,93.00            C 298.00,93.00 281.60,53.00 281.60,53.00              276.22,39.55 277.17,39.05 269.00,39.00              269.00,39.00 243.00,39.00 243.00,39.00              243.00,39.00 240.83,58.00 240.83,58.00              240.83,58.00 236.84,95.00 236.84,95.00              236.84,95.00 231.00,154.00 231.00,154.00              231.00,154.00 264.00,154.00 264.00,154.00              264.00,154.00 264.91,144.00 264.91,144.00              264.91,144.00 267.17,115.00 267.17,115.00              267.17,115.00 269.00,90.00 269.00,90.00              272.89,94.07 275.77,102.62 277.99,108.00              277.99,108.00 290.72,138.00 290.72,138.00              292.82,142.88 294.78,148.84 298.00,153.00              298.00,153.00 316.69,112.00 316.69,112.00              319.46,105.95 323.64,94.37 328.00,90.00              328.00,90.00 328.00,108.00 328.00,108.00              328.00,108.00 328.96,120.00 328.96,120.00              328.96,120.00 328.96,134.00 328.96,134.00              328.96,134.00 330.00,154.00 330.00,154.00              330.00,154.00 363.00,154.00 363.00,154.00              363.00,154.00 359.83,119.00 359.83,119.00              359.83,119.00 356.09,76.00 356.09,76.00              356.09,76.00 353.00,39.00 353.00,39.00              353.00,39.00 327.00,39.00 327.00,39.00              317.87,39.02 319.28,38.79 313.60,53.00              313.60,53.00 298.00,93.00 298.00,93.00 Z            M 79.00,63.00            C 84.02,63.00 94.84,62.27 98.97,64.45              106.56,68.49 107.56,80.88 98.97,85.91              94.04,88.81 84.79,88.00 79.00,88.00              79.00,88.00 79.00,63.00 79.00,63.00 Z            M 79.00,110.00            C 84.03,110.00 98.06,109.38 102.00,111.01              109.50,114.10 111.53,123.05 103.96,127.64              98.11,131.18 85.98,130.00 79.00,130.00              79.00,130.00 79.00,110.00 79.00,110.00 Z" />
</svg>