<svg xmlns="http://www.w3.org/2000/svg" viewBox="-0.5 -0.5 679.02 1025.14">
  <path id="Selection" fill="#303030" stroke="none" stroke-width="1" d="M 543.00,643.00            C 523.14,633.76 485.96,622.85 464.00,616.42              445.34,610.96 427.07,606.37 411.00,594.96              385.46,576.83 380.24,557.10 369.40,530.00              369.40,530.00 330.00,429.00 330.00,429.00              330.00,429.00 315.80,392.00 315.80,392.00              313.17,385.32 307.50,370.71 307.09,364.00              305.58,339.45 327.68,318.93 352.00,322.43              364.69,324.25 388.12,337.55 400.00,344.14              400.00,344.14 464.00,377.31 464.00,377.31              504.12,399.01 543.71,415.71 579.00,445.44              637.92,495.07 671.85,566.72 677.09,643.00              677.09,643.00 678.00,653.00 678.00,653.00              678.91,730.75 651.66,809.78 593.00,862.83              577.00,877.30 561.83,886.23 544.00,897.69              544.00,897.69 477.00,940.05 477.00,940.05              477.00,940.05 438.00,964.69 438.00,964.69              407.15,984.53 380.48,1001.95 345.00,1012.98              307.63,1024.59 284.23,1024.44 246.00,1024.00              228.81,1023.80 197.58,1016.53 181.00,1011.00              104.09,985.35 44.34,929.17 15.95,853.00              8.79,833.79 0.03,799.29 0.00,779.00              0.00,779.00 0.00,180.00 0.00,180.00              0.00,180.00 0.00,39.00 0.00,39.00              0.03,18.12 15.55,0.26 37.00,0.00              37.00,0.00 44.00,0.00 44.00,0.00              56.78,0.16 66.03,7.52 76.00,14.58              76.00,14.58 110.00,37.98 110.00,37.98              110.00,37.98 168.00,77.98 168.00,77.98              178.57,85.26 195.23,96.12 203.91,105.04              223.44,125.09 236.96,155.84 237.00,184.00              237.00,184.00 237.00,831.00 237.00,831.00              237.00,831.00 276.00,807.05 276.00,807.05              276.00,807.05 316.00,782.42 316.00,782.42              316.00,782.42 460.00,693.58 460.00,693.58              460.00,693.58 508.00,663.95 508.00,663.95              508.00,663.95 543.00,643.00 543.00,643.00 Z"/>
</svg>