<svg xmlns="http://www.w3.org/2000/svg" viewBox="194.5 194.71 636.23 636.79">
  <path id="blogger-b" fill="#303030" stroke="none" stroke-width="1"
    d="M 409.00,195.21            C 409.00,195.21 464.00,195.21 464.00,195.21              464.00,195.21 481.00,196.00 481.00,196.00              481.00,196.00 522.00,196.00 522.00,196.00              522.00,196.00 544.00,197.00 544.00,197.00              560.30,197.08 574.20,201.79 589.00,208.15              620.92,221.86 649.32,244.49 671.56,271.00              692.12,295.50 707.85,324.30 713.58,356.00              713.58,356.00 716.91,392.00 716.91,392.00              717.55,401.36 717.17,410.06 723.39,418.00              735.44,433.38 748.25,434.27 766.00,435.04              766.00,435.04 782.00,436.00 782.00,436.00              787.47,436.07 807.82,437.87 812.00,440.14              818.55,443.70 823.81,452.22 826.55,459.00              831.57,471.43 830.00,501.52 830.00,516.00              830.00,516.00 830.00,623.00 830.00,623.00              830.00,623.00 829.00,638.00 829.00,638.00              828.98,651.66 828.95,663.51 825.99,677.00              822.23,694.08 814.73,711.51 806.74,727.00              799.29,741.43 789.13,754.11 778.17,765.99              751.89,794.48 719.69,814.69 682.00,824.11              673.62,826.20 657.48,828.96 649.00,829.00              649.00,829.00 629.00,830.00 629.00,830.00              629.00,830.00 603.00,830.00 603.00,830.00              603.00,830.00 566.00,830.00 566.00,830.00              566.00,830.00 550.00,831.00 550.00,831.00              550.00,831.00 526.00,831.00 526.00,831.00              526.00,831.00 511.00,830.00 511.00,830.00              511.00,830.00 416.00,830.00 416.00,830.00              416.00,830.00 402.00,829.00 402.00,829.00              402.00,829.00 379.00,829.00 379.00,829.00              379.00,829.00 365.00,828.00 365.00,828.00              320.91,827.49 271.37,795.28 243.29,763.00              222.46,739.06 207.40,711.10 200.66,680.00              196.85,662.42 196.03,642.95 196.00,625.00              196.00,625.00 195.00,608.00 195.00,608.00              195.00,608.00 195.00,494.00 195.00,494.00              195.00,494.00 196.00,479.00 196.00,479.00              196.00,479.00 196.00,405.00 196.00,405.00              196.00,405.00 196.96,393.00 196.96,393.00              196.96,393.00 196.96,378.00 196.96,378.00              197.04,354.08 205.13,329.25 215.75,308.00              238.90,261.70 273.80,228.73 322.00,209.45              341.37,201.70 358.31,198.42 379.00,196.91              379.00,196.91 391.00,196.00 391.00,196.00              397.01,195.99 403.03,196.27 409.00,195.21 Z            M 430.00,363.14            C 414.23,365.55 391.80,360.97 378.00,369.47              354.58,383.89 358.20,421.58 383.00,432.12              389.22,434.76 391.82,433.67 398.00,434.09              398.00,434.09 422.00,435.00 422.00,435.00              422.00,435.00 500.00,435.00 500.00,435.00              500.00,435.00 512.00,434.09 512.00,434.09              521.78,433.42 525.21,434.51 534.00,428.07              552.22,414.72 553.38,384.02 534.00,371.10              519.98,361.76 505.88,364.18 490.00,364.00              490.00,364.00 475.00,363.14 475.00,363.14              475.00,363.14 430.00,363.14 430.00,363.14 Z            M 416.00,592.09            C 402.98,594.16 385.77,591.26 375.01,600.33              355.94,616.41 358.60,646.53 380.00,659.24              387.16,663.49 394.23,662.56 402.00,663.09              402.00,663.09 414.00,664.00 414.00,664.00              414.00,664.00 548.00,664.00 548.00,664.00              548.00,664.00 563.00,663.00 563.00,663.00              563.00,663.00 618.00,663.00 618.00,663.00              623.27,662.93 641.83,660.29 646.00,657.91              656.13,652.15 662.41,638.42 661.96,627.00              661.45,613.97 652.46,600.00 640.00,595.55              634.15,593.45 612.81,592.01 606.00,592.09              606.00,592.09 481.00,592.09 481.00,592.09              481.00,592.09 416.00,592.09 416.00,592.09 Z" />
</svg>