<svg xmlns="http://www.w3.org/2000/svg" viewBox="-0.5 -0.41 1029 1024.91">
  <path id="blogger" fill="#303030" stroke="none" stroke-width="1"
    d="M 244.00,0.09            C 244.00,0.09 315.00,0.09 315.00,0.09              315.00,0.09 453.00,0.09 453.00,0.09              453.00,0.09 705.00,0.09 705.00,0.09              705.00,0.09 831.00,0.09 831.00,0.09              831.00,0.09 846.00,1.00 846.00,1.00              846.00,1.00 886.00,1.00 886.00,1.00              925.16,1.06 964.57,24.08 989.71,53.00              996.51,60.82 1000.56,67.21 1005.80,76.00              1010.41,83.72 1018.54,98.67 1020.96,107.00              1022.94,113.82 1024.91,131.76 1025.00,139.00              1025.00,139.00 1026.00,159.00 1026.00,159.00              1026.00,159.00 1026.00,186.00 1026.00,186.00              1026.00,186.00 1027.00,203.00 1027.00,203.00              1027.00,203.00 1027.00,385.00 1027.00,385.00              1027.00,385.00 1027.00,468.00 1027.00,468.00              1027.00,468.00 1028.00,483.00 1028.00,483.00              1028.00,483.00 1028.00,787.00 1028.00,787.00              1028.00,787.00 1027.00,804.00 1027.00,804.00              1027.00,804.00 1027.00,841.00 1027.00,841.00              1027.00,859.66 1027.70,881.78 1024.39,900.00              1018.57,932.02 1001.55,964.19 977.00,985.71              964.49,996.68 954.83,1002.95 940.00,1010.24              925.24,1017.50 905.53,1023.97 889.00,1024.00              889.00,1024.00 138.00,1024.00 138.00,1024.00              120.25,1023.97 104.01,1018.58 88.00,1011.30              45.79,992.12 17.07,957.32 4.43,913.00              0.77,900.18 1.02,890.06 1.00,877.00              1.00,877.00 0.00,860.00 0.00,860.00              0.00,860.00 0.00,408.00 0.00,408.00              0.00,408.00 0.00,241.00 0.00,241.00              0.00,241.00 0.00,157.00 0.00,157.00              0.00,157.00 1.00,142.00 1.00,142.00              1.00,142.00 1.00,135.00 1.00,135.00              1.37,103.58 22.10,65.65 44.00,44.01              55.37,32.79 69.72,22.87 84.00,15.75              97.97,8.78 115.23,2.02 131.00,2.00              131.00,2.00 147.00,2.00 147.00,2.00              147.00,2.00 163.00,1.00 163.00,1.00              163.00,1.00 198.00,1.00 198.00,1.00              198.00,1.00 244.00,0.09 244.00,0.09 Z            M 393.00,195.09            C 393.00,195.09 368.00,197.28 368.00,197.28              348.90,199.66 331.55,204.27 314.00,212.31              296.35,220.39 279.77,230.48 265.00,243.13              233.50,270.11 208.52,310.31 199.42,351.00              195.40,369.02 196.03,396.12 196.00,415.00              196.00,415.00 195.00,432.00 195.00,432.00              195.00,432.00 195.00,541.00 195.00,541.00              195.00,541.00 195.00,627.00 195.00,627.00              195.00,627.00 196.00,647.00 196.00,647.00              196.13,657.99 199.06,676.28 201.88,687.00              210.01,717.83 224.34,742.11 245.29,766.00              274.29,799.07 325.00,828.93 370.00,829.04              370.00,829.04 382.00,829.04 382.00,829.04              382.00,829.04 394.00,830.00 394.00,830.00              394.00,830.00 432.00,830.00 432.00,830.00              432.00,830.00 449.00,831.00 449.00,831.00              449.00,831.00 607.00,831.00 607.00,831.00              607.00,831.00 624.00,830.00 624.00,830.00              650.93,829.96 668.81,829.30 695.00,820.97              739.51,806.81 780.90,771.96 804.55,732.00              813.83,716.32 820.64,698.49 825.57,681.00              830.03,665.20 830.00,640.70 830.00,624.00              830.00,624.00 830.00,599.00 830.00,599.00              830.00,599.00 831.00,582.00 831.00,582.00              831.00,582.00 831.00,493.00 831.00,493.00              831.00,493.00 829.96,481.00 829.96,481.00              829.96,481.00 829.96,471.00 829.96,471.00              828.78,460.46 823.65,448.02 815.00,441.56              809.58,437.51 803.42,437.52 797.00,436.84              797.00,436.84 769.00,435.00 769.00,435.00              764.40,434.94 750.31,433.63 746.00,432.52              742.10,431.52 739.47,430.43 736.00,428.37              717.15,417.22 717.03,402.67 717.00,383.00              716.98,370.07 714.42,355.50 711.12,343.00              703.75,315.09 687.06,287.33 667.83,266.00              641.06,236.31 605.97,210.38 567.00,199.43              553.20,195.55 530.67,196.17 516.00,196.00              516.00,196.00 501.00,195.09 501.00,195.09              501.00,195.09 431.00,195.09 431.00,195.09              431.00,195.09 393.00,195.09 393.00,195.09 Z            M 406.00,364.14            C 406.00,364.14 435.00,364.14 435.00,364.14              435.00,364.14 488.00,364.14 488.00,364.14              501.30,364.00 519.28,363.14 531.00,369.88              535.71,372.59 540.97,377.20 543.59,382.00              547.03,388.32 547.08,395.04 547.00,402.00              546.85,414.06 540.62,424.24 530.00,430.10              519.91,435.66 493.37,433.98 481.00,434.00              481.00,434.00 464.00,435.00 464.00,435.00              464.00,435.00 432.00,435.00 432.00,435.00              432.00,435.00 417.00,434.00 417.00,434.00              417.00,434.00 400.00,434.00 400.00,434.00              391.85,433.99 383.83,433.27 377.00,428.37              362.09,417.64 357.96,392.58 369.39,378.00              380.86,363.37 390.52,366.62 406.00,364.14 Z            M 452.00,592.14            C 452.00,592.14 503.00,592.14 503.00,592.14              503.00,592.14 582.00,592.14 582.00,592.14              582.00,592.14 597.00,593.00 597.00,593.00              597.00,593.00 615.00,593.00 615.00,593.00              624.48,593.01 639.23,594.22 647.00,599.79              664.55,612.36 666.30,640.27 649.91,654.53              644.13,659.57 639.17,659.56 632.00,660.75              621.78,662.46 613.25,661.98 603.00,662.00              603.00,662.00 586.00,663.00 586.00,663.00              586.00,663.00 514.00,663.00 514.00,663.00              514.00,663.00 499.00,664.00 499.00,664.00              499.00,664.00 431.00,664.00 431.00,664.00              431.00,664.00 418.00,663.00 418.00,663.00              408.91,662.90 388.56,663.58 381.00,659.44              371.37,654.17 363.15,642.08 363.00,631.00              362.84,618.39 367.01,606.03 378.00,598.70              384.32,594.48 392.72,594.42 400.00,593.91              400.00,593.91 412.00,593.00 412.00,593.00              412.00,593.00 452.00,592.14 452.00,592.14 Z" />
</svg>