<svg xmlns="http://www.w3.org/2000/svg" viewBox="-0.5 -0.36 672 1023.86">
  <path id="bluetooth" fill="#303030" stroke="none" stroke-width="1"
    d="M 280.00,0.14            C 280.00,0.14 317.00,0.14 317.00,0.14              317.00,0.14 383.00,0.14 383.00,0.14              413.58,0.05 457.91,11.60 486.00,23.72              512.19,35.02 538.05,50.17 560.00,68.43              608.68,108.93 644.96,163.54 661.12,225.00              665.52,241.76 670.97,270.95 671.00,288.00              671.00,288.00 671.00,364.00 671.00,364.00              671.00,364.00 671.00,553.00 671.00,553.00              671.00,553.00 671.00,681.00 671.00,681.00              671.00,681.00 671.00,735.00 671.00,735.00              670.98,745.63 667.71,768.23 665.55,779.00              656.05,826.49 634.06,873.51 603.39,911.00              559.37,964.79 499.83,1001.46 432.00,1016.42              418.53,1019.39 395.57,1022.98 382.00,1023.00              382.00,1023.00 286.00,1023.00 286.00,1023.00              267.77,1022.78 238.74,1016.89 221.00,1011.86              118.66,982.86 37.00,901.18 9.88,798.00              5.38,780.86 0.03,752.48 0.00,735.00              0.00,735.00 0.00,688.00 0.00,688.00              0.00,688.00 0.00,590.00 0.00,590.00              0.00,590.00 0.00,392.00 0.00,392.00              0.00,392.00 0.00,287.00 0.00,287.00              0.06,274.55 3.83,251.46 6.58,239.00              20.67,175.09 53.37,119.92 102.00,76.17              123.17,57.12 145.64,42.93 171.00,30.25              196.98,17.25 227.27,7.71 256.00,3.27              256.00,3.27 280.00,0.14 280.00,0.14 Z            M 303.00,113.00            C 301.07,117.87 302.00,136.62 302.00,143.00              302.00,143.00 302.00,211.00 302.00,211.00              302.00,211.00 302.00,444.00 302.00,444.00              302.00,444.00 254.01,396.00 254.01,396.00              254.01,396.00 244.96,386.00 244.96,386.00              244.96,386.00 223.00,364.00 223.00,364.00              223.00,364.00 184.00,326.00 184.00,326.00              184.00,326.00 145.00,364.00 145.00,364.00              147.57,369.44 150.82,371.58 154.72,376.00              154.72,376.00 179.00,401.00 179.00,401.00              179.00,401.00 253.00,475.00 253.00,475.00              253.00,475.00 281.00,503.00 281.00,503.00              283.12,505.12 290.02,511.32 290.38,514.00              290.82,517.32 284.30,521.84 282.00,524.04              282.00,524.04 255.00,551.00 255.00,551.00              255.00,551.00 229.00,576.00 229.00,576.00              229.00,576.00 190.00,614.91 190.00,614.91              190.00,614.91 161.00,643.00 161.00,643.00              155.85,648.15 149.15,654.21 145.00,660.00              145.00,660.00 162.96,678.00 162.96,678.00              162.96,678.00 173.00,689.00 173.00,689.00              175.19,691.21 180.95,697.80 184.00,697.80              186.84,697.80 191.04,692.95 193.00,691.00              193.00,691.00 215.00,669.96 215.00,669.96              215.00,669.96 254.00,631.00 254.00,631.00              254.00,631.00 265.00,620.96 265.00,620.96              265.00,620.96 302.00,584.00 302.00,584.00              302.00,584.00 302.00,931.00 302.00,931.00              307.22,928.07 316.04,916.14 320.20,911.00              320.20,911.00 353.25,871.00 353.25,871.00              353.25,871.00 471.39,728.00 471.39,728.00              471.39,728.00 509.39,682.00 509.39,682.00              511.97,678.83 521.66,668.77 520.67,665.00              520.01,662.50 514.04,657.04 512.00,655.00              512.00,655.00 489.00,632.00 489.00,632.00              489.00,632.00 438.00,581.00 438.00,581.00              438.00,581.00 406.72,549.00 406.72,549.00              406.72,549.00 383.00,525.00 383.00,525.00              380.97,522.97 375.04,517.85 375.04,515.00              375.04,512.07 381.85,506.15 384.00,504.00              384.00,504.00 414.00,474.83 414.00,474.83              414.00,474.83 450.00,439.00 450.00,439.00              450.00,439.00 486.00,404.00 486.00,404.00              486.00,404.00 508.00,382.09 508.00,382.09              513.90,376.59 518.07,373.89 523.00,367.00              523.00,367.00 460.72,295.00 460.72,295.00              460.72,295.00 360.28,179.00 360.28,179.00              360.28,179.00 327.42,141.00 327.42,141.00              327.42,141.00 303.00,113.00 303.00,113.00 Z            M 358.00,263.00            C 358.00,263.00 375.27,282.00 375.27,282.00              375.27,282.00 400.28,311.00 400.28,311.00              400.28,311.00 431.42,347.00 431.42,347.00              431.42,347.00 446.00,365.00 446.00,365.00              446.00,365.00 433.00,377.01 433.00,377.01              433.00,377.01 385.00,424.09 385.00,424.09              385.00,424.09 358.00,450.00 358.00,450.00              358.00,450.00 358.00,263.00 358.00,263.00 Z            M 358.00,581.00            C 358.00,581.00 382.00,604.00 382.00,604.00              382.00,604.00 423.00,645.00 423.00,645.00              423.00,645.00 439.00,661.00 439.00,661.00              439.00,661.00 445.09,669.00 445.09,669.00              445.09,669.00 440.75,677.00 440.75,677.00              440.75,677.00 425.08,696.00 425.08,696.00              425.08,696.00 380.41,750.00 380.41,750.00              380.41,750.00 358.00,776.00 358.00,776.00              358.00,776.00 358.00,581.00 358.00,581.00 Z" />
</svg>