<svg xmlns="http://www.w3.org/2000/svg" viewBox="144.5 114.5 378 816">
  <path id="bluetooth-b" fill="#303030" stroke="none" stroke-width="1"
    d="M 303.00,115.00            C 303.00,115.00 330.15,145.00 330.15,145.00              330.15,145.00 393.28,218.00 393.28,218.00              393.28,218.00 482.42,321.00 482.42,321.00              482.42,321.00 522.00,368.00 522.00,368.00              522.00,368.00 503.00,386.96 503.00,386.96              503.00,386.96 493.00,396.01 493.00,396.01              493.00,396.01 454.00,434.99 454.00,434.99              454.00,434.99 444.00,444.04 444.00,444.04              444.00,444.04 409.00,479.00 409.00,479.00              409.00,479.00 382.00,505.00 382.00,505.00              379.68,507.32 373.27,512.47 374.20,516.00              374.81,518.31 381.06,524.06 383.00,526.00              383.00,526.00 405.00,548.00 405.00,548.00              405.00,548.00 486.00,630.00 486.00,630.00              486.00,630.00 511.00,655.00 511.00,655.00              513.30,657.30 519.68,662.85 519.89,666.00              520.13,669.52 509.62,680.75 507.00,684.00              507.00,684.00 468.20,731.00 468.20,731.00              468.20,731.00 358.25,864.00 358.25,864.00              358.25,864.00 321.08,909.00 321.08,909.00              316.11,914.97 308.46,925.22 303.00,930.00              303.00,930.00 303.00,583.00 303.00,583.00              303.00,583.00 255.00,630.00 255.00,630.00              255.00,630.00 244.00,640.04 244.00,640.04              244.00,640.04 223.00,661.00 223.00,661.00              223.00,661.00 196.00,687.28 196.00,687.28              193.87,689.16 187.85,695.37 186.00,696.26              181.79,698.26 177.66,692.65 175.00,690.00              175.00,690.00 153.72,668.00 153.72,668.00              151.92,665.96 147.20,661.71 147.20,659.04              147.20,656.34 153.94,651.03 156.00,649.00              156.00,649.00 183.00,622.00 183.00,622.00              183.00,622.00 205.00,600.99 205.00,600.99              205.00,600.99 244.00,562.01 244.00,562.01              244.00,562.01 254.00,552.96 254.00,552.96              254.00,552.96 293.00,514.00 293.00,514.00              293.00,514.00 271.00,492.00 271.00,492.00              271.00,492.00 226.00,447.00 226.00,447.00              226.00,447.00 173.00,394.00 173.00,394.00              173.00,394.00 145.00,365.00 145.00,365.00              154.24,355.76 175.46,333.06 185.00,327.00              185.00,327.00 265.00,407.00 265.00,407.00              265.00,407.00 284.91,427.00 284.91,427.00              284.91,427.00 303.00,445.00 303.00,445.00              303.00,445.00 303.00,115.00 303.00,115.00 Z            M 359.00,262.00            C 359.00,262.00 358.00,281.00 358.00,281.00              358.00,281.00 358.00,319.00 358.00,319.00              358.00,319.00 358.00,451.00 358.00,451.00              358.00,451.00 385.00,425.00 385.00,425.00              385.00,425.00 424.00,387.00 424.00,387.00              424.00,387.00 440.00,371.00 440.00,371.00              440.00,371.00 444.84,364.00 444.84,364.00              444.84,364.00 439.05,355.00 439.05,355.00              439.05,355.00 423.58,337.00 423.58,337.00              423.58,337.00 378.58,285.00 378.58,285.00              378.58,285.00 359.00,262.00 359.00,262.00 Z            M 359.00,580.00            C 359.00,580.00 358.00,597.00 358.00,597.00              358.00,597.00 358.00,631.00 358.00,631.00              358.00,631.00 358.00,733.00 358.00,733.00              358.00,733.00 358.00,762.00 358.00,762.00              358.00,762.00 359.00,777.00 359.00,777.00              359.00,777.00 386.92,743.00 386.92,743.00              386.92,743.00 423.25,699.00 423.25,699.00              423.25,699.00 439.75,679.00 439.75,679.00              439.75,679.00 445.66,670.00 445.66,670.00              445.66,670.00 440.04,662.00 440.04,662.00              440.04,662.00 424.00,645.00 424.00,645.00              424.00,645.00 359.00,580.00 359.00,580.00 Z" />
</svg>