<svg xmlns="http://www.w3.org/2000/svg" viewBox="-0.5 -0.5 513 409">
  <path id="bootstrap" fill="#303030" stroke="none" stroke-width="1"
    d="M 0.00,190.00            C 22.67,188.94 36.68,169.38 44.19,150.00              56.28,118.80 55.95,84.89 56.00,52.00              56.04,24.79 75.61,0.04 104.00,0.00              104.00,0.00 301.00,0.00 301.00,0.00              301.00,0.00 410.00,0.00 410.00,0.00              437.19,0.32 455.96,26.54 456.00,52.00              456.05,86.99 455.43,124.58 470.78,157.00              478.70,173.72 492.32,189.08 512.00,190.00              512.00,190.00 512.00,218.00 512.00,218.00              489.44,219.05 475.29,238.69 467.81,258.00              455.74,289.15 456.05,323.17 456.00,356.00              455.96,383.22 436.40,407.96 408.00,408.00              408.00,408.00 212.00,408.00 212.00,408.00              212.00,408.00 103.00,408.00 103.00,408.00              75.15,407.67 56.04,382.53 56.00,356.00              55.95,320.95 56.59,283.48 41.22,251.00              33.24,234.14 19.84,218.93 0.00,218.00              0.00,218.00 0.00,190.00 0.00,190.00 Z            M 294.00,197.00            C 335.38,190.61 347.51,131.30 311.00,106.75              290.97,93.28 273.62,95.00 251.00,95.00              251.00,95.00 177.00,95.00 177.00,95.00              177.00,95.00 177.00,313.00 177.00,313.00              177.00,313.00 254.00,313.00 254.00,313.00              274.42,313.00 294.27,313.67 313.00,303.68              318.44,300.78 325.66,295.59 329.70,290.99              347.43,270.78 348.96,236.77 331.19,216.09              324.21,207.96 314.25,202.32 304.00,199.43              304.00,199.43 294.00,197.00 294.00,197.00 Z            M 213.00,124.00            C 213.00,124.00 253.00,124.00 253.00,124.00              263.38,124.00 273.56,123.68 283.00,128.90              301.67,139.24 301.46,168.78 282.00,180.52              275.34,184.54 262.78,186.91 255.00,187.00              255.00,187.00 213.00,187.00 213.00,187.00              213.00,187.00 213.00,124.00 213.00,124.00 Z            M 213.00,214.00            C 213.00,214.00 259.00,214.00 259.00,214.00              269.22,214.12 283.09,216.25 292.00,221.34              310.81,232.07 312.39,263.98 294.00,276.04              281.63,284.14 268.11,284.00 254.00,284.00              254.00,284.00 213.00,284.00 213.00,284.00              213.00,284.00 213.00,214.00 213.00,214.00 Z" />
</svg>