<svg xmlns="http://www.w3.org/2000/svg" viewBox="-0.41 -0.29 2531.91 792.45">
  <path id="Selection #1" fill="#303030" stroke="none" stroke-width="1" d="M 318.00,0.21            C 318.00,0.21 356.00,0.21 356.00,0.21              356.00,0.21 373.00,1.00 373.00,1.00              373.00,1.00 450.00,1.00 450.00,1.00              451.99,1.00 455.10,0.88 456.91,1.60              460.27,2.92 472.04,16.54 475.17,20.00              475.17,20.00 506.83,54.00 506.83,54.00              506.83,54.00 526.01,74.50 526.01,74.50              529.82,76.96 534.12,74.62 538.00,73.33              546.52,70.50 551.93,69.01 561.00,69.00              572.85,68.98 579.48,68.94 591.00,73.09              612.37,80.79 628.26,100.26 644.00,116.00              644.00,116.00 660.04,133.00 660.04,133.00              663.66,136.81 667.11,139.46 667.81,145.00              668.85,153.25 658.57,171.74 655.00,180.00              653.69,183.03 650.76,188.15 651.07,191.28              651.07,191.28 656.58,207.00 656.58,207.00              656.58,207.00 667.19,236.00 667.19,236.00              668.77,240.15 673.12,251.21 673.66,255.00              674.37,259.99 669.63,275.23 668.12,281.00              668.12,281.00 609.37,504.00 609.37,504.00              609.37,504.00 592.88,567.00 592.88,567.00              586.66,590.68 581.99,611.41 567.56,632.00              549.73,657.45 531.83,667.91 507.00,685.02              507.00,685.02 442.00,729.67 442.00,729.67              442.00,729.67 379.00,771.67 379.00,771.67              365.66,780.52 355.39,790.01 339.00,791.54              323.35,792.99 309.32,781.51 297.00,773.33              297.00,773.33 219.00,721.02 219.00,721.02              219.00,721.02 157.00,678.42 157.00,678.42              136.45,663.88 122.69,655.29 107.43,634.00              92.68,613.42 89.10,597.47 82.58,574.00              82.58,574.00 63.12,500.00 63.12,500.00              63.12,500.00 35.88,397.00 35.88,397.00              35.88,397.00 22.58,346.00 22.58,346.00              22.58,346.00 8.12,291.00 8.12,291.00              8.12,291.00 0.17,260.00 0.17,260.00              -0.52,253.24 3.18,245.34 5.58,239.00              5.58,239.00 17.34,207.00 17.34,207.00              17.34,207.00 22.15,193.00 22.15,193.00              22.98,188.17 20.24,184.22 18.31,180.00              18.31,180.00 8.58,158.00 8.58,158.00              6.83,153.97 4.70,150.58 5.20,146.00              5.78,140.70 9.45,137.57 13.00,134.00              13.00,134.00 28.00,119.00 28.00,119.00              28.00,119.00 47.00,100.00 47.00,100.00              47.00,100.00 61.00,86.28 61.00,86.28              72.82,76.41 88.53,70.02 104.00,70.00              115.77,69.98 120.34,69.42 132.00,73.02              136.24,74.34 142.93,77.95 147.00,75.48              149.61,73.89 164.27,57.42 167.28,54.00              167.28,54.00 197.58,21.00 197.58,21.00              200.52,17.61 212.97,3.54 216.00,2.02              218.42,0.81 221.36,1.01 224.00,1.00              224.00,1.00 285.00,1.00 285.00,1.00              285.00,1.00 318.00,0.21 318.00,0.21 Z            M 520.00,212.00            C 512.99,217.68 497.92,222.38 489.00,225.68              489.00,225.68 437.00,245.40 437.00,245.40              424.68,250.29 411.76,252.94 404.13,265.00              397.42,275.60 402.01,287.10 407.22,297.00              407.22,297.00 426.78,334.00 426.78,334.00              429.38,338.93 434.96,347.70 435.63,353.00              436.98,363.67 422.64,371.18 415.00,376.33              415.00,376.33 369.00,407.33 369.00,407.33              364.22,410.52 352.13,417.59 349.57,422.09              348.29,424.34 348.03,426.46 348.03,429.00              348.02,438.17 353.83,441.62 360.00,447.17              360.00,447.17 369.00,455.28 369.00,455.28              378.14,463.33 386.78,472.20 397.00,478.92              408.91,486.75 422.31,491.90 435.00,498.25              445.45,503.47 456.98,510.68 469.00,506.78              474.34,505.05 480.59,499.40 485.00,495.75              501.79,481.87 516.96,457.65 510.57,435.00              510.57,435.00 496.21,398.00 496.21,398.00              495.57,393.54 496.31,388.92 498.53,385.00              501.61,379.57 516.87,364.41 521.91,359.00              521.91,359.00 574.17,303.00 574.17,303.00              582.43,293.87 599.50,278.99 599.53,266.00              599.53,266.00 598.39,253.00 598.39,253.00              595.74,242.66 585.16,227.90 579.02,219.00              579.02,219.00 554.85,184.00 554.85,184.00              554.85,184.00 536.00,160.00 536.00,160.00              536.00,160.00 519.20,139.00 519.20,139.00              517.22,136.55 512.49,130.32 509.91,129.06              506.53,127.40 491.39,131.12 487.00,132.00              487.00,132.00 445.00,140.08 445.00,140.08              445.00,140.08 428.00,142.96 428.00,142.96              418.39,143.34 403.40,137.80 394.00,134.67              380.91,130.30 354.96,121.06 342.00,121.00              342.00,121.00 333.00,121.00 333.00,121.00              325.59,121.09 318.10,123.55 311.00,125.58              311.00,125.58 275.00,137.00 275.00,137.00              267.01,139.64 256.33,143.28 248.00,142.96              248.00,142.96 191.00,132.60 191.00,132.60              186.76,131.75 170.14,127.90 167.01,128.77              163.67,129.70 160.53,134.34 158.40,137.00              158.40,137.00 142.40,157.00 142.40,157.00              142.40,157.00 118.15,188.00 118.15,188.00              118.15,188.00 99.58,215.00 99.58,215.00              93.68,223.34 80.51,241.69 78.24,251.00              77.41,254.40 75.89,264.78 76.34,268.00              78.26,281.79 92.74,294.15 101.91,304.00              101.91,304.00 155.17,361.00 155.17,361.00              160.62,367.02 173.86,379.38 177.33,386.00              182.31,395.50 178.70,402.04 174.85,411.00              170.20,421.83 164.23,433.15 163.32,445.00              162.50,455.83 170.91,474.60 177.52,483.00              181.12,487.58 187.43,493.49 192.00,497.20              200.85,504.38 204.93,508.89 217.00,507.91              224.82,507.27 236.66,500.25 244.00,496.78              255.80,491.20 268.05,486.12 279.00,478.92              287.17,473.55 297.69,463.79 305.00,456.98              309.87,452.43 323.78,441.01 326.31,436.00              333.35,422.09 318.35,415.23 309.00,409.00              309.00,409.00 255.00,372.58 255.00,372.58              247.92,367.57 239.11,363.20 240.20,353.00              240.65,348.76 244.71,342.07 246.75,338.00              246.75,338.00 265.86,302.00 265.86,302.00              270.21,294.15 275.53,285.39 274.82,276.00              273.50,258.63 258.98,253.16 245.00,247.95              245.00,247.95 183.00,224.42 183.00,224.42              183.00,224.42 156.00,214.00 156.00,214.00              156.00,214.00 156.00,212.00 156.00,212.00              156.00,212.00 184.00,208.83 184.00,208.83              184.00,208.83 221.00,205.01 221.00,205.01              235.12,204.69 253.26,210.50 267.00,214.42              277.88,217.52 297.54,219.67 301.35,232.00              303.00,237.35 298.20,256.40 297.08,263.00              297.08,263.00 287.80,314.00 287.80,314.00              287.80,314.00 282.00,349.00 282.00,349.00              281.97,351.82 281.59,358.36 283.02,360.61              286.15,365.51 300.37,367.82 306.00,369.12              315.43,371.29 331.68,375.08 341.00,374.49              351.86,373.80 357.60,372.35 368.00,369.88              374.64,368.31 389.50,366.17 392.98,359.90              394.23,357.64 394.05,353.58 393.99,351.00              393.99,351.00 388.00,316.00 388.00,316.00              388.00,316.00 379.00,267.00 379.00,267.00              379.00,267.00 375.00,245.00 375.00,245.00              374.17,240.78 372.73,236.25 374.01,232.00              376.93,222.27 385.61,220.91 394.00,218.58              394.00,218.58 408.00,214.58 408.00,214.58              421.63,210.69 440.02,204.70 454.00,205.01              454.00,205.01 485.00,207.91 485.00,207.91              494.90,208.64 510.81,209.56 520.00,212.00 Z            M 845.00,158.00            C 861.19,158.00 880.54,155.14 894.00,165.53              905.20,174.17 908.98,185.31 909.00,199.00              909.00,199.00 909.00,313.00 909.00,313.00              928.52,293.91 957.61,275.96 984.00,268.43              1037.82,253.07 1098.05,264.55 1142.00,299.21              1142.00,299.21 1157.83,313.04 1157.83,313.04              1173.49,329.60 1184.87,346.90 1193.40,368.00              1200.05,384.48 1202.88,400.40 1204.09,418.00              1204.09,418.00 1205.00,428.00 1205.00,428.00              1205.32,456.10 1199.42,484.61 1187.22,510.00              1182.14,520.56 1173.76,533.02 1166.25,542.00              1137.48,576.39 1096.46,596.53 1052.00,600.08              1052.00,600.08 1042.00,601.00 1042.00,601.00              981.54,601.70 925.35,585.74 884.17,539.00              860.06,511.65 845.06,469.42 845.00,433.00              845.00,433.00 845.00,381.00 845.00,381.00              845.00,381.00 845.00,158.00 845.00,158.00 Z            M 1310.00,314.00            C 1310.00,314.00 1322.01,301.00 1322.01,301.00              1332.30,290.51 1347.83,277.85 1361.00,271.27              1379.35,262.10 1402.71,259.77 1423.00,260.00              1423.00,260.00 1448.00,262.00 1448.00,262.00              1450.19,262.19 1456.84,262.76 1458.40,264.02              1460.38,265.62 1460.00,269.67 1460.00,272.00              1460.00,272.00 1460.00,328.00 1460.00,328.00              1440.29,322.30 1427.18,321.77 1407.00,322.00              1362.96,322.52 1310.07,357.40 1310.00,405.00              1310.00,405.00 1310.00,590.00 1310.00,590.00              1310.00,590.00 1243.00,590.00 1243.00,590.00              1243.00,590.00 1243.00,269.00 1243.00,269.00              1243.00,269.00 1310.00,269.00 1310.00,269.00              1310.00,269.00 1310.00,314.00 1310.00,314.00 Z            M 1474.00,376.00            C 1474.50,365.18 1477.89,348.32 1481.33,338.00              1497.80,288.60 1551.39,267.93 1599.00,262.84              1599.00,262.84 1618.00,260.96 1618.00,260.96              1618.00,260.96 1630.00,260.96 1630.00,260.96              1630.00,260.96 1642.00,260.00 1642.00,260.00              1642.00,260.00 1646.00,260.00 1646.00,260.00              1646.00,260.00 1656.00,260.96 1656.00,260.96              1656.00,260.96 1668.00,260.96 1668.00,260.96              1668.00,260.96 1678.00,261.91 1678.00,261.91              1709.73,264.23 1748.43,272.30 1772.96,293.75              1788.88,307.68 1795.75,331.35 1796.00,352.00              1796.00,352.00 1796.00,507.00 1796.00,507.00              1796.23,526.49 1800.39,546.44 1824.00,546.99              1824.00,546.99 1841.00,546.00 1841.00,546.00              1841.00,546.00 1841.00,590.00 1841.00,590.00              1825.53,593.49 1819.30,595.19 1803.00,595.00              1803.00,595.00 1793.00,594.09 1793.00,594.09              1769.25,592.35 1753.18,585.53 1740.87,564.00              1737.85,558.71 1735.09,553.02 1734.00,547.00              1706.86,573.89 1670.64,590.99 1633.00,596.57              1614.38,599.33 1595.79,599.22 1577.00,599.00              1568.57,598.90 1552.44,596.31 1544.00,594.42              1498.92,584.34 1462.58,555.36 1462.00,506.00              1462.00,506.00 1462.00,501.00 1462.00,501.00              1462.09,493.67 1464.02,481.95 1466.36,475.00              1467.99,470.13 1472.35,461.38 1475.06,457.00              1502.85,412.23 1566.87,409.88 1614.00,404.84              1614.00,404.84 1649.00,401.08 1649.00,401.08              1649.00,401.08 1667.00,399.15 1667.00,399.15              1689.77,396.43 1732.63,392.63 1733.00,362.00              1733.00,362.00 1733.00,358.00 1733.00,358.00              1732.58,322.34 1693.25,313.89 1665.00,311.91              1665.00,311.91 1655.00,311.00 1655.00,311.00              1655.00,311.00 1633.00,311.00 1633.00,311.00              1633.00,311.00 1621.00,311.91 1621.00,311.91              1599.44,313.42 1575.05,317.19 1559.00,333.01              1545.60,346.23 1545.85,362.13 1528.00,371.68              1515.69,378.26 1488.60,376.00 1474.00,376.00 Z            M 2524.00,489.00            C 2522.23,498.44 2512.15,513.77 2506.67,522.00              2483.29,557.06 2448.70,580.65 2408.00,590.87              2378.05,598.39 2358.35,598.35 2328.00,598.00              2317.41,597.87 2300.48,595.03 2290.00,592.65              2246.31,582.71 2209.27,561.11 2184.34,523.00              2177.04,511.83 2171.72,500.65 2167.51,488.00              2163.55,476.13 2159.15,455.40 2159.00,443.00              2159.00,443.00 2159.00,421.00 2159.00,421.00              2159.05,386.58 2174.90,346.87 2197.29,321.00              2245.25,265.59 2324.71,250.94 2394.00,264.80              2427.16,271.43 2461.00,286.54 2484.83,311.09              2511.68,338.74 2526.04,375.91 2529.08,414.00              2529.08,414.00 2530.00,424.00 2530.00,424.00              2530.00,424.00 2531.00,448.00 2531.00,448.00              2531.00,448.00 2223.00,448.00 2223.00,448.00              2223.75,457.27 2226.28,466.25 2229.34,475.00              2231.72,481.77 2237.12,492.10 2241.20,498.00              2262.47,528.69 2303.02,546.94 2340.00,547.00              2340.00,547.00 2361.00,547.00 2361.00,547.00              2373.76,546.85 2393.31,542.30 2405.00,537.14              2414.67,532.86 2423.35,527.28 2431.00,519.96              2437.83,513.42 2443.31,505.54 2451.00,499.93              2460.84,492.75 2472.89,489.02 2485.00,489.00              2485.00,489.00 2524.00,489.00 2524.00,489.00 Z            M 1805.00,269.00            C 1805.00,269.00 1848.00,269.00 1848.00,269.00              1866.17,269.09 1882.85,278.14 1893.23,293.00              1898.12,299.99 1904.55,315.61 1908.15,324.00              1908.15,324.00 1962.86,449.00 1962.86,449.00              1962.86,449.00 1992.00,516.00 1992.00,516.00              1992.00,516.00 2023.86,446.00 2023.86,446.00              2023.86,446.00 2076.23,330.00 2076.23,330.00              2080.41,320.85 2088.41,301.33 2093.36,294.00              2103.54,278.93 2120.73,269.09 2139.00,269.00              2139.00,269.00 2178.00,269.00 2178.00,269.00              2176.60,276.46 2169.71,287.59 2166.31,295.00              2166.31,295.00 2139.26,351.00 2139.26,351.00              2139.26,351.00 2082.26,469.00 2082.26,469.00              2082.26,469.00 2057.25,521.00 2057.25,521.00              2057.25,521.00 2040.25,556.00 2040.25,556.00              2036.51,563.52 2034.94,569.14 2029.48,576.00              2022.24,585.10 2010.45,589.86 1999.00,590.00              1986.39,590.14 1973.40,591.26 1962.00,584.83              1949.72,577.90 1947.48,569.54 1941.75,558.00              1941.75,558.00 1925.69,524.00 1925.69,524.00              1925.69,524.00 1918.00,508.00 1918.00,508.00              1918.00,508.00 1892.78,455.00 1892.78,455.00              1892.78,455.00 1836.22,335.00 1836.22,335.00              1836.22,335.00 1805.00,269.00 1805.00,269.00 Z            M 2462.00,398.00            C 2460.43,386.85 2453.63,372.62 2447.80,363.00              2427.62,329.76 2393.71,313.67 2356.00,310.91              2356.00,310.91 2346.00,310.00 2346.00,310.00              2322.52,309.73 2296.28,315.39 2276.00,327.45              2251.13,342.25 2231.44,369.75 2225.00,398.00              2225.00,398.00 2462.00,398.00 2462.00,398.00 Z            M 1017.00,316.14            C 1005.55,317.93 997.64,318.09 986.00,321.43              962.79,328.08 941.54,342.34 927.43,362.00              920.78,371.26 915.80,382.17 912.52,393.00              905.20,415.38 904.94,444.76 912.52,467.00              928.72,512.95 974.37,545.88 1023.00,546.99              1027.88,547.10 1029.50,546.60 1034.00,546.17              1048.81,544.75 1060.99,543.07 1075.00,537.40              1115.63,520.94 1138.65,485.97 1142.08,443.00              1142.08,443.00 1143.00,433.00 1143.00,433.00              1143.00,433.00 1142.17,421.00 1142.17,421.00              1139.89,397.47 1134.71,378.21 1120.10,359.00              1099.22,331.54 1070.24,320.05 1037.00,316.83              1037.00,316.83 1028.00,316.14 1028.00,316.14              1028.00,316.14 1017.00,316.14 1017.00,316.14 Z            M 1733.00,431.00            C 1733.00,431.00 1700.00,439.12 1700.00,439.12              1700.00,439.12 1646.00,449.13 1646.00,449.13              1646.00,449.13 1584.00,456.42 1584.00,456.42              1558.42,460.40 1530.72,466.65 1530.01,498.00              1529.90,503.16 1530.35,507.02 1531.75,512.00              1539.51,539.68 1573.56,547.96 1599.00,548.00              1599.00,548.00 1620.00,548.00 1620.00,548.00              1658.71,547.94 1713.38,528.77 1728.54,490.00              1734.44,474.89 1733.00,447.67 1733.00,431.00 Z            M 334.00,485.32            C 326.37,487.04 317.38,491.39 310.00,494.40              310.00,494.40 276.00,509.26 276.00,509.26              276.00,509.26 255.00,520.25 255.00,520.25              255.00,520.25 238.00,529.14 238.00,529.14              234.88,530.89 231.42,532.23 230.45,536.04              229.31,540.46 231.84,543.50 235.04,546.10              235.04,546.10 253.00,558.86 253.00,558.86              276.60,575.70 291.31,587.69 313.00,606.95              320.81,613.88 329.67,624.53 341.00,622.79              348.45,621.64 361.92,608.20 368.00,602.85              389.08,584.28 401.02,574.35 424.00,558.00              424.00,558.00 440.98,545.85 440.98,545.85              443.97,543.56 446.95,541.17 446.55,537.00              446.12,532.48 442.60,530.62 439.00,528.76              439.00,528.76 421.00,519.75 421.00,519.75              421.00,519.75 404.00,510.81 404.00,510.81              404.00,510.81 364.00,493.20 364.00,493.20              354.35,489.31 344.64,484.17 334.00,485.32 Z"/>
</svg>