<svg xmlns="http://www.w3.org/2000/svg" viewBox="844.5 157.14 1687 444.38">
  <path id="Selection" fill="#303030" stroke="none" stroke-width="1" d="M 845.00,158.00            C 861.19,158.00 880.54,155.14 894.00,165.53              905.20,174.17 908.98,185.31 909.00,199.00              909.00,199.00 909.00,313.00 909.00,313.00              928.52,293.91 957.61,275.96 984.00,268.43              1037.82,253.07 1098.05,264.55 1142.00,299.21              1142.00,299.21 1157.83,313.04 1157.83,313.04              1173.49,329.60 1184.87,346.90 1193.40,368.00              1200.05,384.48 1202.88,400.40 1204.09,418.00              1204.09,418.00 1205.00,428.00 1205.00,428.00              1205.32,456.10 1199.42,484.61 1187.22,510.00              1182.14,520.56 1173.76,533.02 1166.25,542.00              1137.48,576.39 1096.46,596.53 1052.00,600.08              1052.00,600.08 1042.00,601.00 1042.00,601.00              981.54,601.70 925.35,585.74 884.17,539.00              860.06,511.65 845.06,469.42 845.00,433.00              845.00,433.00 845.00,381.00 845.00,381.00              845.00,381.00 845.00,158.00 845.00,158.00 Z            M 1310.00,314.00            C 1310.00,314.00 1322.01,301.00 1322.01,301.00              1332.30,290.51 1347.83,277.85 1361.00,271.27              1379.35,262.10 1402.71,259.77 1423.00,260.00              1423.00,260.00 1448.00,262.00 1448.00,262.00              1450.19,262.19 1456.84,262.76 1458.40,264.02              1460.38,265.62 1460.00,269.67 1460.00,272.00              1460.00,272.00 1460.00,328.00 1460.00,328.00              1440.29,322.30 1427.18,321.77 1407.00,322.00              1362.96,322.52 1310.07,357.40 1310.00,405.00              1310.00,405.00 1310.00,590.00 1310.00,590.00              1310.00,590.00 1243.00,590.00 1243.00,590.00              1243.00,590.00 1243.00,269.00 1243.00,269.00              1243.00,269.00 1310.00,269.00 1310.00,269.00              1310.00,269.00 1310.00,314.00 1310.00,314.00 Z            M 1474.00,376.00            C 1474.50,365.18 1477.89,348.32 1481.33,338.00              1497.80,288.60 1551.39,267.93 1599.00,262.84              1599.00,262.84 1618.00,260.96 1618.00,260.96              1618.00,260.96 1630.00,260.96 1630.00,260.96              1630.00,260.96 1642.00,260.00 1642.00,260.00              1642.00,260.00 1646.00,260.00 1646.00,260.00              1646.00,260.00 1656.00,260.96 1656.00,260.96              1656.00,260.96 1668.00,260.96 1668.00,260.96              1668.00,260.96 1678.00,261.91 1678.00,261.91              1709.73,264.23 1748.43,272.30 1772.96,293.75              1788.88,307.68 1795.75,331.35 1796.00,352.00              1796.00,352.00 1796.00,507.00 1796.00,507.00              1796.23,526.49 1800.39,546.44 1824.00,546.99              1824.00,546.99 1841.00,546.00 1841.00,546.00              1841.00,546.00 1841.00,590.00 1841.00,590.00              1825.53,593.49 1819.30,595.19 1803.00,595.00              1803.00,595.00 1793.00,594.09 1793.00,594.09              1769.25,592.35 1753.18,585.53 1740.87,564.00              1737.85,558.71 1735.09,553.02 1734.00,547.00              1706.86,573.89 1670.64,590.99 1633.00,596.57              1614.38,599.33 1595.79,599.22 1577.00,599.00              1568.57,598.90 1552.44,596.31 1544.00,594.42              1498.92,584.34 1462.58,555.36 1462.00,506.00              1462.00,506.00 1462.00,501.00 1462.00,501.00              1462.09,493.67 1464.02,481.95 1466.36,475.00              1467.99,470.13 1472.35,461.38 1475.06,457.00              1502.85,412.23 1566.87,409.88 1614.00,404.84              1614.00,404.84 1649.00,401.08 1649.00,401.08              1649.00,401.08 1667.00,399.15 1667.00,399.15              1689.77,396.43 1732.63,392.63 1733.00,362.00              1733.00,362.00 1733.00,358.00 1733.00,358.00              1732.58,322.34 1693.25,313.89 1665.00,311.91              1665.00,311.91 1655.00,311.00 1655.00,311.00              1655.00,311.00 1633.00,311.00 1633.00,311.00              1633.00,311.00 1621.00,311.91 1621.00,311.91              1599.44,313.42 1575.05,317.19 1559.00,333.01              1545.60,346.23 1545.85,362.13 1528.00,371.68              1515.69,378.26 1488.60,376.00 1474.00,376.00 Z            M 2524.00,489.00            C 2522.23,498.44 2512.15,513.77 2506.67,522.00              2483.29,557.06 2448.70,580.65 2408.00,590.87              2378.05,598.39 2358.35,598.35 2328.00,598.00              2317.41,597.87 2300.48,595.03 2290.00,592.65              2246.31,582.71 2209.27,561.11 2184.34,523.00              2177.04,511.83 2171.72,500.65 2167.51,488.00              2163.55,476.13 2159.15,455.40 2159.00,443.00              2159.00,443.00 2159.00,421.00 2159.00,421.00              2159.05,386.58 2174.90,346.87 2197.29,321.00              2245.25,265.59 2324.71,250.94 2394.00,264.80              2427.16,271.43 2461.00,286.54 2484.83,311.09              2511.68,338.74 2526.04,375.91 2529.08,414.00              2529.08,414.00 2530.00,424.00 2530.00,424.00              2530.00,424.00 2531.00,448.00 2531.00,448.00              2531.00,448.00 2223.00,448.00 2223.00,448.00              2223.75,457.27 2226.28,466.25 2229.34,475.00              2231.72,481.77 2237.12,492.10 2241.20,498.00              2262.47,528.69 2303.02,546.94 2340.00,547.00              2340.00,547.00 2361.00,547.00 2361.00,547.00              2373.76,546.85 2393.31,542.30 2405.00,537.14              2414.67,532.86 2423.35,527.28 2431.00,519.96              2437.83,513.42 2443.31,505.54 2451.00,499.93              2460.84,492.75 2472.89,489.02 2485.00,489.00              2485.00,489.00 2524.00,489.00 2524.00,489.00 Z            M 1805.00,269.00            C 1805.00,269.00 1848.00,269.00 1848.00,269.00              1866.17,269.09 1882.85,278.14 1893.23,293.00              1898.12,299.99 1904.55,315.61 1908.15,324.00              1908.15,324.00 1962.86,449.00 1962.86,449.00              1962.86,449.00 1992.00,516.00 1992.00,516.00              1992.00,516.00 2023.86,446.00 2023.86,446.00              2023.86,446.00 2076.23,330.00 2076.23,330.00              2080.41,320.85 2088.41,301.33 2093.36,294.00              2103.54,278.93 2120.73,269.09 2139.00,269.00              2139.00,269.00 2178.00,269.00 2178.00,269.00              2176.60,276.46 2169.71,287.59 2166.31,295.00              2166.31,295.00 2139.26,351.00 2139.26,351.00              2139.26,351.00 2082.26,469.00 2082.26,469.00              2082.26,469.00 2057.25,521.00 2057.25,521.00              2057.25,521.00 2040.25,556.00 2040.25,556.00              2036.51,563.52 2034.94,569.14 2029.48,576.00              2022.24,585.10 2010.45,589.86 1999.00,590.00              1986.39,590.14 1973.40,591.26 1962.00,584.83              1949.72,577.90 1947.48,569.54 1941.75,558.00              1941.75,558.00 1925.69,524.00 1925.69,524.00              1925.69,524.00 1918.00,508.00 1918.00,508.00              1918.00,508.00 1892.78,455.00 1892.78,455.00              1892.78,455.00 1836.22,335.00 1836.22,335.00              1836.22,335.00 1805.00,269.00 1805.00,269.00 Z            M 2462.00,398.00            C 2460.43,386.85 2453.63,372.62 2447.80,363.00              2427.62,329.76 2393.71,313.67 2356.00,310.91              2356.00,310.91 2346.00,310.00 2346.00,310.00              2322.52,309.73 2296.28,315.39 2276.00,327.45              2251.13,342.25 2231.44,369.75 2225.00,398.00              2225.00,398.00 2462.00,398.00 2462.00,398.00 Z            M 1017.00,316.14            C 1005.55,317.93 997.64,318.09 986.00,321.43              962.79,328.08 941.54,342.34 927.43,362.00              920.78,371.26 915.80,382.17 912.52,393.00              905.20,415.38 904.94,444.76 912.52,467.00              928.72,512.95 974.37,545.88 1023.00,546.99              1027.88,547.10 1029.50,546.60 1034.00,546.17              1048.81,544.75 1060.99,543.07 1075.00,537.40              1115.63,520.94 1138.65,485.97 1142.08,443.00              1142.08,443.00 1143.00,433.00 1143.00,433.00              1143.00,433.00 1142.17,421.00 1142.17,421.00              1139.89,397.47 1134.71,378.21 1120.10,359.00              1099.22,331.54 1070.24,320.05 1037.00,316.83              1037.00,316.83 1028.00,316.14 1028.00,316.14              1028.00,316.14 1017.00,316.14 1017.00,316.14 Z            M 1733.00,431.00            C 1733.00,431.00 1700.00,439.12 1700.00,439.12              1700.00,439.12 1646.00,449.13 1646.00,449.13              1646.00,449.13 1584.00,456.42 1584.00,456.42              1558.42,460.40 1530.72,466.65 1530.01,498.00              1529.90,503.16 1530.35,507.02 1531.75,512.00              1539.51,539.68 1573.56,547.96 1599.00,548.00              1599.00,548.00 1620.00,548.00 1620.00,548.00              1658.71,547.94 1713.38,528.77 1728.54,490.00              1734.44,474.89 1733.00,447.67 1733.00,431.00 Z"/>
</svg>