<svg xmlns="http://www.w3.org/2000/svg" viewBox="-0.5 -0.36 1768.13 2558.86">
  <path id="buy-me-a-coffee" fill="#303030" stroke="none" stroke-width="1"
    d="M 781.00,0.14            C 781.00,0.14 845.00,0.14 845.00,0.14              845.00,0.14 918.00,0.14 918.00,0.14              918.00,0.14 934.00,1.00 934.00,1.00              934.00,1.00 950.00,1.00 950.00,1.00              950.00,1.00 966.00,2.00 966.00,2.00              966.00,2.00 1013.00,4.00 1013.00,4.00              1013.00,4.00 1030.00,5.00 1030.00,5.00              1030.00,5.00 1055.00,6.91 1055.00,6.91              1055.00,6.91 1117.00,11.83 1117.00,11.83              1182.40,18.16 1248.12,26.66 1312.00,42.63              1373.41,57.98 1453.15,78.14 1493.10,131.00              1516.77,162.31 1523.82,202.18 1530.08,240.00              1530.08,240.00 1548.59,349.00 1548.59,349.00              1552.69,373.47 1556.03,407.05 1569.06,428.00              1584.03,452.06 1608.34,455.46 1633.00,463.34              1650.44,468.92 1667.92,477.65 1682.00,489.44              1733.17,532.30 1741.75,593.74 1754.00,655.00              1757.97,674.88 1766.78,711.38 1767.00,730.00              1767.27,753.13 1767.61,768.05 1762.35,791.00              1751.95,836.37 1720.72,881.21 1679.00,902.74              1658.28,913.43 1646.31,917.39 1624.00,923.27              1599.96,929.60 1581.50,929.25 1567.89,955.00              1561.50,967.08 1561.30,985.29 1559.84,999.00              1559.84,999.00 1551.84,1077.00 1551.84,1077.00              1551.84,1077.00 1523.17,1355.00 1523.17,1355.00              1523.17,1355.00 1467.83,1897.00 1467.83,1897.00              1467.83,1897.00 1451.17,2057.00 1451.17,2057.00              1451.17,2057.00 1436.17,2204.00 1436.17,2204.00              1433.08,2234.91 1431.27,2266.57 1424.79,2297.00              1416.41,2336.34 1400.82,2373.84 1377.98,2407.00              1335.26,2468.97 1272.19,2509.85 1201.00,2531.98              1170.81,2541.36 1141.24,2546.21 1110.00,2550.28              1090.78,2552.79 1065.11,2555.78 1046.00,2556.00              1046.00,2556.00 1036.00,2556.96 1036.00,2556.96              1036.00,2556.96 1023.00,2556.96 1023.00,2556.96              1023.00,2556.96 1008.00,2558.00 1008.00,2558.00              1008.00,2558.00 882.00,2558.00 882.00,2558.00              882.00,2558.00 867.00,2557.00 867.00,2557.00              867.00,2557.00 828.00,2557.00 828.00,2557.00              828.00,2557.00 811.00,2556.00 811.00,2556.00              811.00,2556.00 789.00,2556.00 789.00,2556.00              789.00,2556.00 777.00,2555.04 777.00,2555.04              777.00,2555.04 762.00,2555.04 762.00,2555.04              762.00,2555.04 747.00,2554.00 747.00,2554.00              747.00,2554.00 722.00,2553.00 722.00,2553.00              722.00,2553.00 712.00,2552.09 712.00,2552.09              712.00,2552.09 698.00,2551.17 698.00,2551.17              698.00,2551.17 654.00,2547.16 654.00,2547.16              621.55,2543.69 588.57,2539.39 557.00,2530.85              490.07,2512.75 427.44,2478.39 386.43,2421.00              366.06,2392.50 352.31,2359.29 345.45,2325.00              340.42,2299.87 338.40,2270.72 335.83,2245.00              335.83,2245.00 322.83,2120.00 322.83,2120.00              322.83,2120.00 308.17,1981.00 308.17,1981.00              308.17,1981.00 255.17,1472.00 255.17,1472.00              255.17,1472.00 229.83,1227.00 229.83,1227.00              229.83,1227.00 219.83,1131.00 219.83,1131.00              219.83,1131.00 216.00,1094.00 216.00,1094.00              215.90,1084.71 215.52,1077.98 218.70,1069.00              228.43,1041.50 260.16,1021.04 289.00,1021.00              289.00,1021.00 296.00,1021.00 296.00,1021.00              331.28,1021.42 356.81,1056.53 360.85,1089.00              360.85,1089.00 372.17,1198.00 372.17,1198.00              372.17,1198.00 391.17,1380.00 391.17,1380.00              391.17,1380.00 405.83,1519.00 405.83,1519.00              405.83,1519.00 454.83,1990.00 454.83,1990.00              454.83,1990.00 471.83,2153.00 471.83,2153.00              476.55,2200.15 480.64,2252.51 497.42,2297.00              505.28,2317.83 516.86,2338.65 532.09,2355.00              567.01,2392.50 614.70,2408.98 664.00,2417.08              664.00,2417.08 709.00,2422.00 709.00,2422.00              709.00,2422.00 728.00,2423.00 728.00,2423.00              728.00,2423.00 807.00,2423.00 807.00,2423.00              807.00,2423.00 822.00,2424.00 822.00,2424.00              822.00,2424.00 862.00,2424.00 862.00,2424.00              862.00,2424.00 879.00,2425.00 879.00,2425.00              879.00,2425.00 926.00,2425.00 926.00,2425.00              926.00,2425.00 942.00,2426.00 942.00,2426.00              942.00,2426.00 970.00,2426.00 970.00,2426.00              970.00,2426.00 985.00,2425.00 985.00,2425.00              1020.15,2424.95 1055.19,2420.98 1090.00,2416.13              1090.00,2416.13 1144.00,2406.42 1144.00,2406.42              1144.00,2406.42 1169.00,2400.57 1169.00,2400.57              1198.20,2392.24 1227.64,2376.07 1247.71,2353.00              1285.76,2309.26 1288.31,2253.97 1292.09,2199.00              1292.09,2199.00 1306.16,2052.00 1306.16,2052.00              1306.16,2052.00 1341.17,1711.00 1341.17,1711.00              1341.17,1711.00 1383.17,1301.00 1383.17,1301.00              1383.17,1301.00 1406.17,1077.00 1406.17,1077.00              1406.17,1077.00 1410.28,1037.00 1410.28,1037.00              1412.72,1016.72 1416.20,1001.00 1403.07,983.00              1400.47,979.43 1396.39,975.15 1393.00,972.32              1371.96,954.79 1346.52,962.66 1322.00,964.93              1322.00,964.93 1191.00,976.09 1191.00,976.09              1191.00,976.09 1170.00,977.91 1170.00,977.91              1170.00,977.91 1145.00,979.09 1145.00,979.09              1145.00,979.09 1132.00,980.00 1132.00,980.00              1132.00,980.00 1117.00,981.00 1117.00,981.00              1117.00,981.00 1091.00,982.00 1091.00,982.00              1091.00,982.00 1076.00,983.04 1076.00,983.04              1076.00,983.04 1064.00,983.04 1064.00,983.04              1064.00,983.04 1052.00,984.04 1052.00,984.04              1052.00,984.04 1037.00,984.04 1037.00,984.04              1037.00,984.04 1026.00,985.00 1026.00,985.00              1026.00,985.00 1009.00,985.00 1009.00,985.00              1009.00,985.00 992.00,986.00 992.00,986.00              992.00,986.00 959.00,986.00 959.00,986.00              959.00,986.00 942.00,987.00 942.00,987.00              942.00,987.00 837.00,987.00 837.00,987.00              837.00,987.00 822.00,986.00 822.00,986.00              822.00,986.00 788.00,986.00 788.00,986.00              788.00,986.00 773.00,985.00 773.00,985.00              773.00,985.00 755.00,985.00 755.00,985.00              755.00,985.00 743.00,984.04 743.00,984.04              743.00,984.04 727.00,984.04 727.00,984.04              727.00,984.04 711.00,983.00 711.00,983.00              711.00,983.00 683.00,982.00 683.00,982.00              683.00,982.00 668.00,981.00 668.00,981.00              668.00,981.00 629.00,979.00 629.00,979.00              629.00,979.00 619.00,978.09 619.00,978.09              619.00,978.09 589.00,976.09 589.00,976.09              589.00,976.09 493.00,968.17 493.00,968.17              404.10,959.56 315.23,949.18 227.00,934.75              198.29,930.06 142.18,922.27 117.00,913.31              94.16,905.17 70.17,890.09 53.04,872.96              27.24,847.16 10.01,812.62 3.00,777.00              1.45,769.11 0.01,761.05 0.00,753.00              0.00,753.00 0.00,733.00 0.00,733.00              0.03,712.56 8.97,674.99 13.58,654.00              21.62,617.37 25.51,579.50 41.31,545.00              61.69,500.50 101.94,465.85 149.00,452.43              169.95,446.45 186.49,445.75 208.00,446.00              208.00,446.00 253.00,451.92 253.00,451.92              253.00,451.92 323.00,463.75 323.00,463.75              380.52,473.34 439.00,480.22 497.00,485.83              497.00,485.83 624.00,496.09 624.00,496.09              624.00,496.09 691.00,500.00 691.00,500.00              691.00,500.00 701.00,500.96 701.00,500.96              701.00,500.96 713.00,500.96 713.00,500.96              713.00,500.96 728.00,502.04 728.00,502.04              728.00,502.04 741.00,502.04 741.00,502.04              741.00,502.04 752.00,503.00 752.00,503.00              752.00,503.00 769.00,503.00 769.00,503.00              769.00,503.00 783.00,504.00 783.00,504.00              783.00,504.00 810.00,504.00 810.00,504.00              810.00,504.00 827.00,505.00 827.00,505.00              827.00,505.00 954.00,505.00 954.00,505.00              954.00,505.00 969.00,504.00 969.00,504.00              969.00,504.00 996.00,504.00 996.00,504.00              996.00,504.00 1011.00,503.00 1011.00,503.00              1011.00,503.00 1028.00,503.00 1028.00,503.00              1028.00,503.00 1045.00,502.00 1045.00,502.00              1045.00,502.00 1075.00,501.00 1075.00,501.00              1075.00,501.00 1095.00,500.00 1095.00,500.00              1095.00,500.00 1112.00,499.00 1112.00,499.00              1112.00,499.00 1132.00,498.00 1132.00,498.00              1132.00,498.00 1142.00,497.00 1142.00,497.00              1142.00,497.00 1151.00,497.00 1151.00,497.00              1151.00,497.00 1186.00,494.09 1186.00,494.09              1186.00,494.09 1268.00,487.17 1268.00,487.17              1268.00,487.17 1333.00,480.42 1333.00,480.42              1333.00,480.42 1384.00,474.28 1384.00,474.28              1389.77,473.53 1402.01,472.34 1407.00,470.44              1416.91,466.65 1423.37,456.37 1422.96,446.00              1422.75,440.57 1420.71,433.52 1419.60,428.00              1419.60,428.00 1411.42,390.00 1411.42,390.00              1411.42,390.00 1388.42,283.00 1388.42,283.00              1383.05,258.54 1379.96,233.50 1360.96,215.09              1341.71,196.42 1311.50,190.17 1286.00,185.39              1286.00,185.39 1244.00,176.80 1244.00,176.80              1244.00,176.80 1192.00,167.59 1192.00,167.59              1155.50,161.46 1118.76,158.35 1082.00,154.83              1082.00,154.83 1037.00,151.00 1037.00,151.00              1037.00,151.00 1028.00,151.00 1028.00,151.00              1028.00,151.00 994.00,149.00 994.00,149.00              994.00,149.00 984.00,148.04 984.00,148.04              984.00,148.04 971.00,148.04 971.00,148.04              971.00,148.04 956.00,147.00 956.00,147.00              956.00,147.00 942.00,147.00 942.00,147.00              942.00,147.00 926.00,146.00 926.00,146.00              926.00,146.00 900.00,146.00 900.00,146.00              900.00,146.00 883.00,145.00 883.00,145.00              883.00,145.00 818.00,145.00 818.00,145.00              818.00,145.00 802.00,146.00 802.00,146.00              802.00,146.00 773.00,146.00 773.00,146.00              773.00,146.00 759.00,147.00 759.00,147.00              759.00,147.00 747.00,147.00 747.00,147.00              747.00,147.00 726.00,148.00 726.00,148.00              726.00,148.00 706.00,149.00 706.00,149.00              706.00,149.00 693.00,150.00 693.00,150.00              693.00,150.00 664.00,151.91 664.00,151.91              664.00,151.91 626.00,154.83 626.00,154.83              626.00,154.83 577.00,159.17 577.00,159.17              577.00,159.17 551.00,162.72 551.00,162.72              551.00,162.72 528.00,165.28 528.00,165.28              528.00,165.28 494.00,170.75 494.00,170.75              494.00,170.75 448.00,179.35 448.00,179.35              441.78,180.77 434.14,183.14 433.95,191.00              433.78,198.12 439.98,201.42 446.00,202.79              446.00,202.79 491.00,211.25 491.00,211.25              521.86,216.40 552.88,220.72 584.00,223.83              584.00,223.83 622.00,227.17 622.00,227.17              622.00,227.17 660.00,230.09 660.00,230.09              660.00,230.09 685.00,232.00 685.00,232.00              685.00,232.00 689.00,232.00 689.00,232.00              689.00,232.00 708.00,233.00 708.00,233.00              708.00,233.00 718.00,233.96 718.00,233.96              718.00,233.96 730.00,233.96 730.00,233.96              730.00,233.96 745.00,235.00 745.00,235.00              745.00,235.00 759.00,235.00 759.00,235.00              759.00,235.00 774.00,236.00 774.00,236.00              774.00,236.00 801.00,236.00 801.00,236.00              801.00,236.00 818.00,237.00 818.00,237.00              818.00,237.00 891.00,237.00 891.00,237.00              891.00,237.00 906.00,236.00 906.00,236.00              906.00,236.00 933.00,236.00 933.00,236.00              933.00,236.00 945.00,235.04 945.00,235.04              945.00,235.04 961.00,235.04 961.00,235.04              961.00,235.04 976.00,234.00 976.00,234.00              976.00,234.00 1005.00,233.00 1005.00,233.00              1005.00,233.00 1015.00,232.00 1015.00,232.00              1015.00,232.00 1025.00,232.00 1025.00,232.00              1025.00,232.00 1032.00,231.09 1032.00,231.09              1032.00,231.09 1102.00,225.83 1102.00,225.83              1102.00,225.83 1166.00,218.72 1166.00,218.72              1166.00,218.72 1202.00,214.00 1202.00,214.00              1217.73,213.82 1226.86,213.27 1242.00,219.06              1265.54,228.07 1285.70,254.40 1286.00,280.00              1286.12,290.45 1285.71,295.81 1282.85,306.00              1277.20,326.11 1262.02,345.73 1242.00,352.91              1242.00,352.91 1197.00,360.28 1197.00,360.28              1197.00,360.28 1144.00,367.00 1144.00,367.00              1144.00,367.00 1107.00,370.83 1107.00,370.83              1107.00,370.83 1039.00,376.09 1039.00,376.09              1039.00,376.09 1010.00,378.00 1010.00,378.00              1010.00,378.00 1000.00,378.96 1000.00,378.96              1000.00,378.96 990.00,378.96 990.00,378.96              990.00,378.96 975.00,380.04 975.00,380.04              975.00,380.04 964.00,380.04 964.00,380.04              964.00,380.04 954.00,381.00 954.00,381.00              954.00,381.00 939.00,381.00 939.00,381.00              939.00,381.00 922.00,382.00 922.00,382.00              922.00,382.00 880.00,382.00 880.00,382.00              880.00,382.00 865.00,383.00 865.00,383.00              865.00,383.00 846.00,383.00 846.00,383.00              846.00,383.00 831.00,382.00 831.00,382.00              831.00,382.00 789.00,382.00 789.00,382.00              789.00,382.00 774.00,381.00 774.00,381.00              774.00,381.00 759.00,381.00 759.00,381.00              759.00,381.00 743.00,380.00 743.00,380.00              743.00,380.00 712.00,379.00 712.00,379.00              712.00,379.00 697.00,378.00 697.00,378.00              697.00,378.00 649.00,375.09 649.00,375.09              649.00,375.09 534.00,364.15 534.00,364.15              458.56,355.13 376.00,340.45 305.00,313.42              290.23,307.80 272.65,300.39 259.00,292.57              222.30,271.56 192.02,238.21 191.01,194.00              190.87,187.54 192.60,174.37 194.13,168.00              207.69,111.75 259.27,85.33 309.00,66.58              397.18,33.32 490.84,21.85 584.00,12.83              584.00,12.83 654.00,6.91 654.00,6.91              654.00,6.91 675.00,5.00 675.00,5.00              675.00,5.00 684.00,5.00 684.00,5.00              684.00,5.00 696.00,4.00 696.00,4.00              696.00,4.00 719.00,3.00 719.00,3.00              719.00,3.00 732.00,1.96 732.00,1.96              732.00,1.96 746.00,1.96 746.00,1.96              746.00,1.96 758.00,1.00 758.00,1.00              758.00,1.00 781.00,0.14 781.00,0.14 Z            M 145.00,731.00            C 144.81,739.61 143.28,738.83 145.91,748.00              155.49,781.44 187.13,783.57 216.00,787.73              216.00,787.73 366.00,807.28 366.00,807.28              366.00,807.28 435.00,815.17 435.00,815.17              435.00,815.17 461.00,818.02 461.00,818.02              461.00,818.02 498.00,821.83 498.00,821.83              498.00,821.83 552.00,826.83 552.00,826.83              552.00,826.83 583.00,829.09 583.00,829.09              583.00,829.09 646.00,834.00 646.00,834.00              646.00,834.00 655.00,834.00 655.00,834.00              655.00,834.00 730.00,838.00 730.00,838.00              730.00,838.00 745.00,839.04 745.00,839.04              745.00,839.04 760.00,839.04 760.00,839.04              760.00,839.04 771.00,840.00 771.00,840.00              771.00,840.00 792.00,840.00 792.00,840.00              792.00,840.00 809.00,841.00 809.00,841.00              809.00,841.00 962.00,841.00 962.00,841.00              962.00,841.00 977.00,840.00 977.00,840.00              977.00,840.00 998.00,840.00 998.00,840.00              998.00,840.00 1010.00,839.04 1010.00,839.04              1010.00,839.04 1027.00,839.04 1027.00,839.04              1027.00,839.04 1039.00,838.04 1039.00,838.04              1039.00,838.04 1053.00,838.04 1053.00,838.04              1053.00,838.04 1067.00,837.00 1067.00,837.00              1067.00,837.00 1093.00,836.00 1093.00,836.00              1093.00,836.00 1110.00,835.00 1110.00,835.00              1110.00,835.00 1139.00,833.00 1139.00,833.00              1139.00,833.00 1148.00,833.00 1148.00,833.00              1148.00,833.00 1196.00,829.17 1196.00,829.17              1196.00,829.17 1241.00,825.83 1241.00,825.83              1241.00,825.83 1348.00,815.16 1348.00,815.16              1348.00,815.16 1491.00,797.42 1491.00,797.42              1512.74,794.35 1546.91,790.57 1567.00,784.56              1585.87,778.92 1605.06,767.43 1613.68,749.00              1618.17,739.39 1619.87,726.56 1620.00,716.00              1620.34,686.80 1619.27,663.57 1608.20,636.00              1601.89,620.29 1591.18,605.05 1575.00,598.45              1566.95,595.17 1555.69,593.32 1547.00,593.04              1543.21,592.92 1541.48,593.50 1538.00,594.06              1538.00,594.06 1530.00,594.06 1530.00,594.06              1530.00,594.06 1483.00,602.58 1483.00,602.58              1483.00,602.58 1391.00,617.58 1391.00,617.58              1391.00,617.58 1279.00,632.16 1279.00,632.16              1279.00,632.16 1166.00,643.09 1166.00,643.09              1166.00,643.09 1133.00,645.91 1133.00,645.91              1133.00,645.91 1094.00,648.09 1094.00,648.09              1094.00,648.09 1079.00,649.00 1079.00,649.00              1079.00,649.00 1064.00,650.00 1064.00,650.00              1064.00,650.00 1044.00,651.00 1044.00,651.00              1044.00,651.00 1011.00,652.00 1011.00,652.00              1011.00,652.00 994.00,653.00 994.00,653.00              994.00,653.00 975.00,653.00 975.00,653.00              975.00,653.00 959.00,654.00 959.00,654.00              959.00,654.00 896.00,654.00 896.00,654.00              896.00,654.00 883.00,654.99 883.00,654.99              883.00,654.99 868.00,654.00 868.00,654.00              868.00,654.00 806.00,654.00 806.00,654.00              806.00,654.00 791.00,653.00 791.00,653.00              791.00,653.00 769.00,653.00 769.00,653.00              769.00,653.00 754.00,652.00 754.00,652.00              754.00,652.00 721.00,651.00 721.00,651.00              721.00,651.00 706.00,650.00 706.00,650.00              706.00,650.00 681.00,649.00 681.00,649.00              681.00,649.00 667.00,648.00 667.00,648.00              667.00,648.00 638.00,646.09 638.00,646.09              638.00,646.09 616.00,644.91 616.00,644.91              616.00,644.91 583.00,642.09 583.00,642.09              583.00,642.09 518.00,636.17 518.00,636.17              518.00,636.17 425.00,625.42 425.00,625.42              425.00,625.42 341.00,612.79 341.00,612.79              299.35,603.99 257.87,591.93 215.00,592.00              202.52,592.02 189.17,593.69 179.00,601.53              158.29,617.49 151.99,653.52 147.58,678.00              145.71,688.33 143.02,702.69 143.00,713.00              142.99,718.26 142.25,729.58 144.00,734.00              144.00,734.00 145.00,731.00 145.00,731.00 Z            M 446.00,1242.00            C 446.00,1242.00 487.00,1251.79 487.00,1251.79              518.24,1258.43 550.13,1262.65 582.00,1264.04              582.00,1264.04 595.00,1265.00 595.00,1265.00              595.00,1265.00 634.00,1265.00 634.00,1265.00              634.00,1265.00 652.00,1264.00 652.00,1264.00              652.00,1264.00 662.00,1263.09 662.00,1263.09              662.00,1263.09 691.00,1260.15 691.00,1260.15              727.19,1255.83 770.15,1245.81 805.00,1234.98              872.32,1214.05 935.69,1183.72 1001.00,1157.60              1049.77,1138.09 1095.42,1123.09 1148.00,1117.83              1148.00,1117.83 1170.00,1116.00 1170.00,1116.00              1170.00,1116.00 1200.00,1116.00 1200.00,1116.00              1200.00,1116.00 1212.00,1116.91 1212.00,1116.91              1240.80,1118.89 1269.18,1123.80 1297.00,1131.71              1297.00,1131.71 1319.00,1138.34 1319.00,1138.34              1321.81,1139.25 1325.77,1140.01 1326.71,1143.22              1327.52,1145.99 1325.41,1161.94 1325.08,1166.00              1325.08,1166.00 1319.17,1228.00 1319.17,1228.00              1319.17,1228.00 1301.17,1419.00 1301.17,1419.00              1301.17,1419.00 1288.83,1552.00 1288.83,1552.00              1288.83,1552.00 1245.17,2012.00 1245.17,2012.00              1245.17,2012.00 1231.17,2160.00 1231.17,2160.00              1229.05,2181.85 1228.14,2206.84 1223.12,2228.00              1218.94,2245.59 1211.16,2262.87 1201.31,2278.00              1179.72,2311.15 1144.51,2335.97 1106.00,2345.12              1090.58,2348.78 1075.78,2349.98 1060.00,2350.00              1060.00,2350.00 1044.00,2351.00 1044.00,2351.00              1044.00,2351.00 1013.00,2352.00 1013.00,2352.00              1013.00,2352.00 1000.00,2353.04 1000.00,2353.04              1000.00,2353.04 986.00,2353.04 986.00,2353.04              986.00,2353.04 974.00,2354.04 974.00,2354.04              974.00,2354.04 961.00,2354.04 961.00,2354.04              961.00,2354.04 949.00,2355.00 949.00,2355.00              949.00,2355.00 935.00,2355.00 935.00,2355.00              935.00,2355.00 920.00,2356.00 920.00,2356.00              920.00,2356.00 899.00,2356.00 899.00,2356.00              899.00,2356.00 882.00,2356.96 882.00,2356.96              882.00,2356.96 868.00,2356.96 868.00,2356.96              868.00,2356.96 856.00,2356.00 856.00,2356.00              856.00,2356.00 837.00,2356.00 837.00,2356.00              837.00,2356.00 825.00,2355.04 825.00,2355.04              825.00,2355.04 811.00,2355.04 811.00,2355.04              811.00,2355.04 799.00,2354.04 799.00,2354.04              799.00,2354.04 787.00,2354.04 787.00,2354.04              787.00,2354.04 775.00,2353.04 775.00,2353.04              775.00,2353.04 763.00,2353.04 763.00,2353.04              763.00,2353.04 749.00,2352.00 749.00,2352.00              749.00,2352.00 721.00,2351.00 721.00,2351.00              721.00,2351.00 706.00,2350.00 706.00,2350.00              688.81,2349.97 671.60,2348.31 655.00,2343.57              612.60,2331.47 578.12,2302.72 557.31,2264.00              539.54,2230.93 538.81,2193.41 535.17,2157.00              535.17,2157.00 510.83,1905.00 510.83,1905.00              510.83,1905.00 503.83,1833.00 503.83,1833.00              503.83,1833.00 500.09,1797.00 500.09,1797.00              500.09,1797.00 496.17,1757.00 496.17,1757.00              496.17,1757.00 489.17,1685.00 489.17,1685.00              489.17,1685.00 470.17,1490.00 470.17,1490.00              470.17,1490.00 455.17,1336.00 455.17,1336.00              455.17,1336.00 449.17,1274.00 449.17,1274.00              449.17,1274.00 446.00,1242.00 446.00,1242.00 Z" />
</svg>