<svg xmlns="http://www.w3.org/2000/svg" viewBox="97.84 55.38 894.66 195.43">
  <path id="buy-me-a-coffee-wordmark" fill="#303030" stroke="none" stroke-width="1"
    d="M 131.00,71.00            C 131.00,71.00 161.00,74.00 161.00,74.00              161.00,74.00 180.00,72.96 180.00,72.96              184.02,72.78 193.34,70.10 195.21,75.22              196.41,78.52 193.84,80.83 190.98,81.77              188.56,82.58 173.08,83.96 170.00,84.00              158.56,84.13 147.34,83.71 136.00,82.13              130.44,81.36 122.77,80.09 118.02,77.01              107.63,70.27 115.31,62.41 124.00,59.72              139.52,54.93 159.70,55.97 176.00,56.00              185.47,56.01 207.88,58.05 212.84,67.04              215.44,71.76 215.03,82.67 217.85,86.89              220.36,90.64 223.78,90.71 226.79,93.41              230.69,96.93 233.20,107.83 232.78,113.00              232.44,117.11 230.37,120.92 226.96,123.28              223.49,125.68 219.56,125.32 217.58,130.04              216.34,133.01 216.13,140.56 215.72,144.00              215.72,144.00 212.17,177.00 212.17,177.00              212.17,177.00 208.17,216.00 208.17,216.00              207.47,223.02 207.46,231.83 203.78,238.00              198.35,247.09 188.98,249.88 179.00,250.00              165.76,250.15 141.35,252.17 131.04,243.61              123.84,237.63 124.70,231.22 123.72,223.00              123.72,223.00 118.92,177.00 118.92,177.00              118.92,177.00 115.72,147.00 115.72,147.00              115.32,143.82 114.04,138.13 116.60,135.60              119.02,133.21 123.32,133.87 124.77,138.06              124.77,138.06 127.42,161.00 127.42,161.00              127.42,161.00 132.72,211.00 132.72,211.00              133.44,216.86 133.78,226.99 136.44,232.00              140.29,239.25 147.43,240.91 155.00,241.00              164.54,241.11 185.95,242.61 192.78,235.78              197.85,230.71 197.48,219.92 198.17,213.00              198.17,213.00 204.08,155.00 204.08,155.00              204.46,150.31 207.45,134.25 205.11,130.98              202.91,127.91 200.19,128.59 197.00,128.84              197.00,128.84 180.00,130.00 180.00,130.00              157.56,130.10 140.42,130.03 118.00,126.73              108.81,125.38 98.48,123.78 98.34,112.00              98.26,105.66 100.97,94.29 107.02,91.17              112.51,88.34 123.89,91.26 130.00,91.95              130.00,91.95 153.00,94.00 153.00,94.00              153.00,94.00 180.00,94.00 180.00,94.00              180.00,94.00 199.00,92.28 199.00,92.28              201.37,91.96 204.54,92.00 205.79,89.69              207.23,87.56 206.16,84.25 205.79,82.00              204.22,75.64 204.07,71.33 197.00,69.17              184.93,65.49 166.73,65.98 154.00,66.00              147.36,66.01 135.79,66.22 131.00,71.00 Z            M 113.08,100.60            C 107.98,103.85 105.85,113.31 113.08,115.58              113.08,115.58 134.00,118.17 134.00,118.17              134.00,118.17 174.00,120.00 174.00,120.00              174.00,120.00 188.00,119.01 188.00,119.01              188.00,119.01 208.00,117.15 208.00,117.15              211.05,116.79 216.26,116.45 218.85,114.84              223.74,111.81 222.96,101.67 216.96,100.35              214.66,99.85 201.46,102.28 198.00,102.72              198.00,102.72 163.00,105.00 163.00,105.00              163.00,105.00 132.00,102.72 132.00,102.72              126.04,101.95 118.91,99.44 113.08,100.60 Z            M 340.00,146.00            C 351.93,150.07 355.59,166.01 348.75,175.96              342.69,184.78 327.50,190.51 317.00,189.68              317.00,189.68 308.00,188.26 308.00,188.26              302.97,187.61 300.69,191.05 297.31,188.26              293.87,185.67 295.78,174.26 296.28,170.00              296.28,170.00 299.97,131.00 299.97,131.00              300.16,127.42 301.10,112.56 302.43,110.23              305.07,105.57 310.12,106.82 312.00,113.00              324.54,108.39 342.71,107.39 346.50,124.00              347.04,126.49 346.97,128.51 346.50,131.00              345.44,137.22 343.38,140.81 340.00,146.00 Z            M 828.12,167.00            C 835.01,165.83 835.41,164.63 836.16,158.00              836.16,158.00 836.97,151.00 836.97,151.00              836.97,151.00 839.85,121.00 839.85,121.00              840.21,117.99 840.56,111.77 842.73,109.60              844.77,107.57 850.69,106.53 850.98,114.02              850.98,114.02 848.17,146.00 848.17,146.00              848.17,146.00 845.00,177.00 845.00,177.00              852.61,175.93 866.24,171.09 869.98,163.96              871.32,161.39 870.93,157.03 871.28,154.00              871.28,154.00 873.72,129.00 873.72,129.00              874.24,124.74 874.68,112.27 877.56,109.60              878.74,108.51 880.38,108.08 881.95,108.37              887.27,109.34 885.92,116.21 885.42,120.00              885.42,120.00 882.83,149.00 882.83,149.00              882.83,149.00 880.00,177.00 880.00,177.00              887.61,175.93 901.02,171.12 904.69,163.96              906.03,161.33 906.06,157.05 906.62,154.00              908.24,145.05 912.71,132.81 923.00,131.21              935.97,129.20 939.34,139.28 937.19,150.00              934.75,162.22 927.95,170.36 915.00,171.00              915.05,173.03 915.03,175.04 915.65,177.00              919.91,190.56 932.44,183.18 938.67,175.96              940.53,173.81 942.53,170.74 943.35,168.00              943.35,168.00 944.43,159.00 944.43,159.00              946.12,147.27 951.87,127.03 968.00,131.43              976.08,133.63 976.29,141.13 975.96,148.00              975.33,161.05 966.14,170.70 953.00,171.00              953.44,173.35 954.04,176.85 954.99,178.98              961.10,192.76 976.26,178.25 980.87,171.00              982.17,168.96 983.82,164.11 985.51,163.07              987.67,161.73 990.01,163.10 992.00,164.00              989.94,172.78 984.45,184.04 977.00,189.36              970.56,193.97 957.80,196.27 951.04,191.35              947.79,188.98 946.61,186.52 945.00,183.00              941.91,186.26 940.00,188.40 936.00,190.65              926.75,195.86 912.27,196.21 907.36,185.00              906.21,182.36 906.16,180.78 906.00,178.00              906.00,178.00 893.00,184.00 893.00,184.00              900.55,194.07 901.71,208.29 897.29,220.00              893.93,228.87 884.75,234.85 876.09,228.35              870.82,224.39 869.65,218.13 868.98,212.00              868.98,212.00 868.98,178.00 868.98,178.00              868.98,178.00 859.00,184.00 859.00,184.00              865.06,195.52 867.51,207.44 862.54,220.00              858.88,229.22 848.89,235.64 840.33,227.61              834.82,222.44 834.01,214.09 834.00,207.00              834.00,207.00 834.00,191.00 834.00,191.00              834.00,191.00 835.00,175.00 835.00,175.00              835.00,175.00 825.04,177.43 825.04,177.43              820.71,179.53 819.96,183.16 814.00,186.64              802.48,193.35 786.67,190.69 782.00,177.00              777.03,181.73 774.29,183.85 768.00,186.69              765.05,188.02 761.21,189.27 758.00,189.70              735.69,192.65 735.47,162.33 740.03,148.00              742.47,140.32 747.03,131.87 756.00,131.11              765.99,130.25 770.88,136.55 769.71,146.00              769.22,149.99 768.15,158.02 762.10,156.16              756.05,154.28 759.66,147.10 758.00,140.00              750.28,145.67 748.40,153.77 748.04,163.00              747.66,172.73 751.04,182.80 763.00,179.36              768.19,177.87 774.13,173.40 777.20,169.00              781.73,162.48 779.28,153.22 787.39,143.00              794.54,133.99 799.57,133.59 810.00,132.91              814.59,132.61 817.71,131.59 821.82,134.70              826.42,138.18 827.38,143.69 828.12,149.00              829.66,157.67 828.07,158.81 828.12,167.00 Z            M 309.00,145.00            C 309.00,145.00 323.00,142.84 323.00,142.84              325.77,142.09 328.53,141.08 330.96,139.52              332.58,138.48 333.84,137.47 334.86,135.82              336.18,133.69 336.80,130.47 336.38,128.00              334.23,115.40 313.81,120.09 311.02,124.39              309.38,126.92 309.00,141.34 309.00,145.00 Z            M 541.00,147.00            C 545.71,136.45 557.17,125.18 567.61,137.11              568.81,138.47 569.92,140.34 570.53,142.00              573.47,148.55 571.36,165.57 570.53,173.00              570.04,176.07 569.90,182.87 575.02,181.51              578.78,180.51 583.18,173.47 584.64,170.00              586.13,166.45 585.91,163.70 586.42,160.00              588.08,148.05 592.71,128.34 609.00,131.23              618.31,132.87 618.76,142.45 617.82,150.00              616.27,162.40 607.37,170.72 595.00,171.00              595.44,173.35 596.04,176.85 596.99,178.98              603.10,192.76 618.26,178.25 622.87,171.00              624.17,168.96 625.82,164.11 627.51,163.07              629.67,161.73 632.01,163.10 634.00,164.00              631.71,173.78 625.93,185.46 617.00,190.64              607.32,196.26 592.18,196.22 588.00,184.00              585.44,186.50 583.19,188.85 580.00,190.59              578.21,191.56 576.01,192.33 574.00,192.67              554.01,196.08 559.31,169.01 560.87,158.00              561.31,154.87 562.87,143.15 556.90,144.05              553.81,144.52 551.18,148.49 549.80,151.00              545.92,158.04 543.87,166.18 542.21,174.00              541.51,177.31 541.29,183.84 537.77,185.22              534.58,186.47 531.04,184.32 530.48,180.96              529.93,177.63 533.52,162.99 531.33,153.00              530.53,149.32 528.07,142.38 523.00,144.17              520.08,145.20 517.22,149.35 515.82,152.00              512.50,158.28 509.37,169.89 508.27,177.00              507.75,180.43 507.55,188.02 504.69,190.11              502.00,192.06 497.24,191.28 496.31,187.78              495.74,185.64 497.54,175.02 497.58,172.00              498.69,162.98 499.08,153.94 497.58,145.00              496.63,141.40 495.30,136.33 500.10,134.84              506.02,133.01 506.90,140.07 507.00,144.00              510.49,140.78 512.72,136.92 517.00,134.56              528.56,128.17 536.45,137.41 541.00,147.00 Z            M 385.00,182.00            C 377.93,187.06 372.02,195.20 362.02,191.26              356.65,189.15 355.41,184.08 354.59,179.00              353.15,170.03 355.61,157.95 357.40,149.00              358.14,145.31 358.97,137.03 362.28,135.03              368.45,131.27 370.23,138.54 369.56,143.00              369.56,143.00 364.87,171.00 364.87,171.00              364.71,173.88 364.30,179.47 368.13,180.33              372.27,181.26 376.19,174.03 377.56,171.00              380.25,165.06 382.87,155.46 384.35,149.00              385.07,145.86 386.12,139.73 387.57,137.08              390.33,132.07 395.65,132.59 397.40,137.08              398.60,140.13 397.11,144.87 396.42,148.00              396.42,148.00 394.10,159.00 394.10,159.00              392.52,167.45 392.37,170.63 394.10,179.00              404.43,175.43 404.15,168.07 405.29,159.00              405.29,159.00 407.63,147.00 407.63,147.00              408.59,143.26 410.04,136.05 414.11,134.64              419.45,132.80 421.28,137.73 420.48,142.00              418.89,150.49 415.37,159.19 416.09,168.00              416.44,172.24 417.93,176.76 423.09,175.85              433.37,174.04 440.95,158.81 444.55,150.00              446.09,146.23 447.76,138.98 452.05,137.85              453.31,137.27 454.62,137.39 456.02,137.85              460.54,140.75 457.05,148.78 456.02,153.00              455.22,158.58 455.01,160.34 455.00,166.00              455.00,166.00 455.00,178.00 455.00,178.00              458.81,175.43 460.61,174.25 463.99,170.96              465.91,169.09 469.66,164.31 472.08,163.74              474.99,163.06 479.95,165.89 475.60,173.00              473.11,177.07 467.77,182.56 464.00,185.47              461.47,187.43 456.81,189.42 455.60,192.21              454.81,194.02 455.01,199.51 454.72,202.00              453.61,211.24 451.15,225.12 443.82,231.47              436.71,237.62 424.61,235.40 421.65,226.00              419.39,218.82 422.96,209.34 426.26,203.00              428.52,198.66 432.81,192.61 436.17,189.09              438.30,186.86 441.59,184.60 442.98,181.96              442.98,181.96 445.00,174.00 445.00,174.00              435.65,180.69 432.15,187.65 419.00,186.96              416.73,186.84 415.06,186.58 413.00,185.55              410.70,184.40 408.89,182.69 407.00,181.00              400.84,189.51 390.56,193.46 385.00,182.00 Z            M 683.00,180.00            C 676.14,184.76 674.07,188.47 665.00,187.96              655.12,187.40 651.58,176.51 652.18,168.00              653.13,154.68 661.11,131.39 678.00,133.20              683.96,133.84 682.82,136.22 691.00,136.43              698.91,136.63 698.28,142.22 696.71,148.00              695.21,153.51 692.20,165.64 692.04,171.00              691.95,173.94 692.15,177.47 694.43,179.64              697.21,182.30 700.38,180.73 702.90,178.61              709.06,173.41 710.91,163.36 712.30,161.16              714.44,157.76 717.85,158.60 718.65,162.11              719.22,164.61 717.83,168.64 716.94,171.00              714.19,178.26 708.48,187.98 701.00,190.99              692.36,194.48 684.73,188.47 683.00,180.00 Z            M 597.00,162.00            C 602.92,159.87 606.90,157.61 608.47,151.00              609.16,148.08 609.15,140.47 604.06,142.40              598.31,144.58 597.05,156.74 597.00,162.00 Z            M 916.00,162.00            C 922.82,160.04 927.38,156.58 927.90,149.00              928.05,146.88 928.01,143.42 925.70,142.40              920.80,140.25 917.99,149.82 917.24,153.00              916.41,156.47 916.16,158.46 916.00,162.00 Z            M 955.00,162.00            C 960.92,159.87 964.90,157.61 966.47,151.00              967.16,148.08 967.15,140.47 962.06,142.40              956.31,144.58 955.05,156.74 955.00,162.00 Z            M 133.00,150.79            C 141.33,152.10 148.74,152.89 157.00,150.79              166.75,147.84 177.43,141.43 187.00,141.04              190.56,140.90 197.59,140.76 198.65,145.14              198.65,145.14 197.09,163.00 197.09,163.00              197.09,163.00 193.17,205.00 193.17,205.00              192.61,210.54 192.24,223.71 189.86,228.00              186.17,234.66 179.78,234.97 173.00,235.00              158.88,235.07 141.16,238.98 139.17,220.00              139.17,220.00 136.28,190.00 136.28,190.00              136.28,190.00 133.00,150.79 133.00,150.79 Z            M 684.00,146.00            C 670.66,141.01 666.35,150.47 663.95,162.00              663.30,165.47 662.38,170.51 663.95,173.85              666.28,179.15 674.10,177.17 678.09,169.00              678.09,169.00 681.28,160.00 681.28,160.00              682.63,155.43 683.37,150.71 684.00,146.00 Z            M 804.00,144.00            C 789.54,147.08 785.60,172.25 795.21,178.99              802.03,183.78 812.44,177.97 811.97,172.99              811.70,170.00 808.01,167.55 805.68,163.00              802.68,157.13 802.47,150.28 804.00,144.00 Z            M 819.00,163.00            C 819.24,160.01 819.92,157.00 819.68,154.00              819.49,151.69 818.53,143.02 814.39,145.17              810.65,147.11 810.84,160.24 819.00,163.00 Z            M 305.00,178.00            C 314.94,182.82 329.89,181.23 337.66,172.82              345.92,163.88 341.59,153.18 329.00,153.00              317.68,152.85 317.39,153.91 307.00,156.00              307.00,156.00 305.00,178.00 305.00,178.00 Z            M 845.00,188.00            C 844.19,194.14 844.14,193.69 843.79,200.00              843.79,200.00 843.79,208.00 843.79,208.00              843.73,211.71 844.00,220.22 849.96,218.34              853.67,217.18 854.93,212.39 855.54,209.00              857.04,200.69 854.17,189.97 845.00,188.00 Z            M 881.30,188.87            C 878.33,190.90 879.18,192.61 878.64,196.00              878.23,201.89 877.44,205.92 878.64,212.00              878.97,215.23 879.64,219.47 884.00,218.52              888.09,217.63 889.40,213.61 890.06,210.00              891.30,203.24 889.79,189.85 881.30,188.87 Z            M 445.00,197.00            C 438.52,200.13 433.55,208.96 432.33,216.00              431.98,218.01 431.58,222.58 433.58,223.87              436.54,225.77 439.54,221.07 440.62,218.98              443.88,212.69 444.98,204.01 445.00,197.00 Z" />
</svg>