<svg xmlns="http://www.w3.org/2000/svg" viewBox="-0.5 -0.59 981 1024.09">
  <path id="Selection" fill="#303030" stroke="none" stroke-width="1" d="M 980.00,620.00            C 979.97,629.72 976.50,649.90 974.61,660.00              969.23,688.77 963.90,708.29 954.67,736.00              943.89,768.32 926.15,804.64 907.33,833.00              841.86,931.68 740.63,992.72 625.00,1013.58              608.25,1016.60 574.25,1021.81 558.00,1022.00              558.00,1022.00 539.00,1023.00 539.00,1023.00              539.00,1023.00 489.00,1023.00 489.00,1023.00              489.00,1023.00 469.00,1022.00 469.00,1022.00              469.00,1022.00 459.00,1021.09 459.00,1021.09              459.00,1021.09 402.00,1014.41 402.00,1014.41              349.45,1005.60 300.05,991.00 252.00,967.74              223.49,953.94 191.32,933.30 167.00,913.08              84.63,844.60 34.56,752.14 13.00,648.00              6.53,616.75 2.35,584.84 0.96,553.00              0.96,553.00 0.00,540.00 0.00,540.00              0.00,540.00 0.00,480.00 0.00,480.00              0.00,480.00 0.96,469.00 0.96,469.00              1.90,447.55 4.41,426.21 7.92,405.00              27.17,288.75 81.59,180.46 174.00,105.26              245.35,47.20 328.13,14.61 419.00,3.28              451.90,-0.82 484.88,-0.05 518.00,0.00              518.00,0.00 537.00,1.00 537.00,1.00              537.00,1.00 547.00,1.91 547.00,1.91              547.00,1.91 593.00,6.73 593.00,6.73              676.70,18.80 755.58,44.87 823.00,97.42              889.70,149.42 934.09,223.12 956.58,304.00              962.61,325.71 966.90,347.76 970.41,370.00              970.41,370.00 974.00,397.00 974.00,397.00              974.00,397.00 670.00,397.00 670.00,397.00              669.83,389.11 667.20,374.92 665.42,367.00              658.27,335.02 642.59,302.38 618.00,280.17              589.24,254.19 554.26,241.59 516.00,238.91              516.00,238.91 504.00,238.00 504.00,238.00              466.14,237.94 432.06,245.84 402.00,270.26              349.71,312.74 329.73,385.58 322.84,450.00              322.84,450.00 320.00,487.00 320.00,487.00              320.00,487.00 319.00,504.00 319.00,504.00              319.00,504.00 319.00,540.00 319.00,540.00              319.00,540.00 320.00,562.00 320.00,562.00              320.00,562.00 320.91,572.00 320.91,572.00              320.91,572.00 323.72,602.00 323.72,602.00              330.13,651.23 346.37,708.84 385.00,742.71              416.98,770.76 451.35,781.23 493.00,784.09              493.00,784.09 503.00,785.00 503.00,785.00              540.94,785.44 580.47,777.00 610.00,751.70              649.06,718.24 666.41,669.69 673.00,620.00              673.00,620.00 980.00,620.00 980.00,620.00 Z"/>
</svg>