<svg xmlns="http://www.w3.org/2000/svg" viewBox="-0.5 -0.3 1819 2043.84">
  <path id="Selection" fill="#303030" stroke="none" stroke-width="1" d="M 891.00,0.21            C 891.00,0.21 920.00,0.21 920.00,0.21              925.19,0.06 930.85,1.07 936.00,1.92              967.86,7.16 988.52,18.38 1016.00,34.15              1016.00,34.15 1066.00,62.99 1066.00,62.99              1066.00,62.99 1192.00,135.43 1192.00,135.43              1192.00,135.43 1336.00,218.58 1336.00,218.58              1336.00,218.58 1546.00,339.58 1546.00,339.58              1546.00,339.58 1691.00,422.99 1691.00,422.99              1716.02,437.69 1742.30,450.57 1764.00,470.17              1791.05,494.60 1808.41,528.25 1814.41,564.00              1815.72,571.77 1816.99,580.13 1817.00,588.00              1817.00,588.00 1817.00,1045.00 1817.00,1045.00              1817.00,1045.00 1817.00,1253.00 1817.00,1253.00              1817.00,1253.00 1818.00,1268.00 1818.00,1268.00              1818.00,1268.00 1818.00,1435.00 1818.00,1435.00              1818.00,1435.00 1817.04,1447.00 1817.04,1447.00              1817.04,1447.00 1817.04,1458.00 1817.04,1458.00              1817.04,1458.00 1815.13,1475.00 1815.13,1475.00              1809.95,1512.17 1792.50,1546.30 1765.00,1571.91              1748.95,1586.86 1734.52,1594.68 1716.00,1605.42              1716.00,1605.42 1650.00,1643.42 1650.00,1643.42              1650.00,1643.42 1276.00,1858.85 1276.00,1858.85              1276.00,1858.85 1061.00,1982.85 1061.00,1982.85              1031.55,1999.66 992.39,2025.21 961.00,2034.98              938.69,2041.92 923.12,2043.27 900.00,2043.00              847.61,2042.38 795.90,2005.90 752.00,1980.42              752.00,1980.42 496.00,1832.85 496.00,1832.85              496.00,1832.85 132.00,1623.42 132.00,1623.42              106.60,1608.86 74.31,1592.07 53.00,1572.83              26.60,1548.99 11.22,1519.43 3.79,1485.00              1.81,1475.82 0.01,1464.36 0.00,1455.00              0.00,1455.00 0.00,589.00 0.00,589.00              0.01,580.97 1.80,567.98 3.40,560.00              10.58,524.09 26.56,493.87 54.00,469.17              68.92,455.74 84.01,447.45 101.00,437.40              101.00,437.40 177.00,393.60 177.00,393.60              177.00,393.60 289.00,329.13 289.00,329.13              289.00,329.13 488.00,214.43 488.00,214.43              488.00,214.43 641.00,126.58 641.00,126.58              641.00,126.58 767.00,53.58 767.00,53.58              794.98,37.34 822.28,19.40 853.00,8.69              865.60,4.30 877.90,2.32 891.00,0.21 Z            M 1497.00,682.00            C 1494.31,672.77 1478.36,650.03 1472.33,641.00              1448.99,606.00 1421.71,573.71 1392.00,544.00              1297.10,449.10 1176.01,383.28 1044.00,357.80              1018.06,352.80 991.35,348.89 965.00,347.00              965.00,347.00 957.00,347.00 957.00,347.00              957.00,347.00 945.00,345.96 945.00,345.96              945.00,345.96 932.00,345.96 932.00,345.96              932.00,345.96 920.00,345.00 920.00,345.00              920.00,345.00 905.00,345.00 905.00,345.00              905.00,345.00 892.00,346.00 892.00,346.00              844.32,346.55 796.29,353.55 750.00,365.13              589.69,405.21 453.11,499.53 358.28,635.00              338.31,663.53 318.66,696.50 303.78,728.00              274.95,789.03 254.37,854.12 244.73,921.00              244.73,921.00 238.96,978.00 238.96,978.00              238.96,978.00 238.00,989.00 238.00,989.00              238.00,989.00 238.00,1005.00 238.00,1005.00              238.00,1005.00 237.00,1027.00 237.00,1027.00              237.00,1027.00 237.98,1038.00 237.98,1038.00              237.98,1038.00 237.98,1054.00 237.98,1054.00              237.98,1054.00 239.91,1079.00 239.91,1079.00              243.44,1127.24 253.39,1174.71 267.28,1221.00              285.48,1281.66 313.23,1339.35 348.33,1392.00              396.97,1464.95 453.98,1524.95 526.00,1575.28              716.72,1708.56 966.34,1734.50 1180.00,1642.28              1279.98,1599.13 1369.72,1532.01 1438.00,1447.00              1453.57,1427.61 1469.71,1406.12 1482.81,1385.00              1487.05,1378.16 1495.92,1365.13 1498.00,1358.00              1498.00,1358.00 1433.00,1320.42 1433.00,1320.42              1433.00,1320.42 1295.00,1240.58 1295.00,1240.58              1295.00,1240.58 1234.00,1205.15 1234.00,1205.15              1234.00,1205.15 1204.00,1189.00 1204.00,1189.00              1191.04,1215.91 1162.81,1247.87 1141.00,1268.09              1097.86,1308.07 1044.52,1336.72 987.00,1349.42              972.97,1352.52 949.05,1356.83 935.00,1357.00              935.00,1357.00 916.00,1358.00 916.00,1358.00              916.00,1358.00 908.00,1358.00 908.00,1358.00              908.00,1358.00 897.00,1357.04 897.00,1357.04              835.43,1354.36 774.80,1333.99 724.00,1298.98              648.51,1246.95 598.67,1169.06 582.42,1079.00              580.15,1066.37 578.02,1048.74 578.00,1036.00              578.00,1036.00 577.01,1019.00 577.01,1019.00              577.01,1019.00 578.00,1007.00 578.00,1007.00              578.97,924.02 621.71,834.26 682.00,778.09              717.70,744.82 758.85,719.36 805.00,703.34              832.20,693.90 870.24,686.13 899.00,686.00              899.00,686.00 913.00,685.01 913.00,685.01              913.00,685.01 923.00,685.96 923.00,685.96              923.00,685.96 934.00,685.96 934.00,685.96              945.36,686.14 967.48,689.70 979.00,692.00              1017.69,699.74 1057.80,715.32 1091.00,736.69              1124.31,758.14 1152.28,782.95 1177.00,814.00              1183.86,822.62 1190.15,831.71 1196.05,841.00              1197.73,843.64 1200.63,849.20 1204.09,849.30              1206.37,849.36 1210.01,846.98 1212.00,845.85              1212.00,845.85 1228.00,836.60 1228.00,836.60              1228.00,836.60 1287.00,802.60 1287.00,802.60              1287.00,802.60 1407.00,733.58 1407.00,733.58              1407.00,733.58 1497.00,682.00 1497.00,682.00 Z            M 1435.00,827.00            C 1435.00,827.00 1387.00,827.00 1387.00,827.00              1387.00,827.00 1387.00,923.00 1387.00,923.00              1387.00,923.00 1292.00,923.00 1292.00,923.00              1292.00,923.00 1292.00,971.00 1292.00,971.00              1292.00,971.00 1387.00,971.00 1387.00,971.00              1387.00,971.00 1387.00,1067.00 1387.00,1067.00              1387.00,1067.00 1292.00,1067.00 1292.00,1067.00              1292.00,1067.00 1292.00,1114.00 1292.00,1114.00              1292.00,1114.00 1387.00,1114.00 1387.00,1114.00              1387.00,1114.00 1387.00,1210.00 1387.00,1210.00              1387.00,1210.00 1435.00,1210.00 1435.00,1210.00              1435.00,1210.00 1435.00,1137.00 1435.00,1137.00              1435.00,1132.81 1433.97,1118.22 1436.60,1115.60              1438.52,1113.68 1442.46,1114.01 1445.00,1114.00              1445.00,1114.00 1531.00,1114.00 1531.00,1114.00              1531.00,1114.00 1531.00,1210.00 1531.00,1210.00              1531.00,1210.00 1579.00,1210.00 1579.00,1210.00              1579.00,1210.00 1579.00,1114.00 1579.00,1114.00              1579.00,1114.00 1675.00,1114.00 1675.00,1114.00              1675.00,1114.00 1675.00,1067.00 1675.00,1067.00              1675.00,1067.00 1579.00,1067.00 1579.00,1067.00              1579.00,1067.00 1579.00,971.00 1579.00,971.00              1579.00,971.00 1675.00,971.00 1675.00,971.00              1675.00,971.00 1675.00,923.00 1675.00,923.00              1675.00,923.00 1579.00,923.00 1579.00,923.00              1579.00,923.00 1579.00,827.00 1579.00,827.00              1579.00,827.00 1531.00,827.00 1531.00,827.00              1531.00,827.00 1531.00,923.00 1531.00,923.00              1531.00,923.00 1435.00,923.00 1435.00,923.00              1435.00,923.00 1435.00,827.00 1435.00,827.00 Z            M 1435.00,971.00            C 1435.00,971.00 1531.00,971.00 1531.00,971.00              1531.00,971.00 1531.00,1067.00 1531.00,1067.00              1531.00,1067.00 1458.00,1067.00 1458.00,1067.00              1458.00,1067.00 1442.00,1067.00 1442.00,1067.00              1442.00,1067.00 1436.02,1065.40 1436.02,1065.40              1436.02,1065.40 1435.00,1058.00 1435.00,1058.00              1435.00,1058.00 1435.00,971.00 1435.00,971.00 Z"/>
</svg>