<svg xmlns="http://www.w3.org/2000/svg" viewBox="137.48 425.17 948.01 304.33">
  <path id="canva-alt" fill="#303030" stroke="none" stroke-width="1"
    d="M 353.00,652.00            C 353.00,652.00 336.35,677.00 336.35,677.00              322.94,694.56 303.48,711.82 283.00,720.57              271.10,725.66 257.99,728.94 245.00,729.00              208.03,729.17 175.80,714.52 156.45,682.00              141.82,657.40 137.67,625.17 138.00,597.00              138.00,597.00 138.91,587.00 138.91,587.00              143.73,521.02 184.62,458.90 247.00,434.20              271.01,424.70 304.60,422.24 329.00,431.42              349.33,439.08 364.73,455.43 365.00,478.00              365.00,478.00 365.00,486.00 365.00,486.00              364.80,502.99 354.96,521.47 341.00,531.10              336.06,534.50 323.87,539.62 318.06,536.67              313.80,534.52 313.89,531.02 315.04,527.00              315.04,527.00 324.14,507.00 324.14,507.00              332.30,487.19 331.63,456.17 307.00,448.57              302.64,447.23 298.53,446.91 294.00,447.01              271.21,447.53 247.11,465.59 232.72,482.00              205.54,512.98 186.07,555.15 186.00,597.00              186.00,597.00 186.00,613.00 186.00,613.00              186.08,619.45 187.42,627.61 188.58,634.00              195.00,669.58 216.22,700.89 256.00,699.99              303.42,698.91 335.78,654.11 353.69,615.00              353.69,615.00 364.43,588.00 364.43,588.00              369.86,575.31 381.65,558.30 392.00,549.29              406.56,536.60 424.29,527.30 444.00,532.38              451.61,534.34 457.45,538.05 461.47,545.00              463.61,548.68 464.57,551.81 465.00,556.00              470.74,550.99 472.24,545.27 481.00,538.53              490.08,531.54 515.25,526.55 514.95,544.00              514.95,544.00 505.00,581.00 505.00,581.00              499.74,599.32 489.42,641.98 489.01,660.00              488.78,670.28 491.81,682.93 505.00,676.67              506.87,675.79 508.37,674.89 510.00,673.61              520.54,665.36 530.68,649.24 536.14,637.00              547.82,610.83 558.70,578.84 559.14,550.00              559.20,546.14 558.63,542.60 561.01,539.21              566.66,531.16 584.62,530.16 591.90,536.39              599.76,543.13 599.11,555.62 599.00,565.00              599.00,565.00 594.00,601.00 594.00,601.00              600.40,586.22 616.62,564.39 628.00,553.00              635.26,545.73 639.67,541.05 649.00,536.26              665.21,527.92 683.95,528.17 690.98,548.00              701.41,577.40 679.33,622.18 679.00,650.00              678.92,657.12 678.21,672.84 690.00,670.17              691.60,669.81 693.58,668.87 695.00,668.05              697.00,666.89 699.24,665.20 701.00,663.70              711.15,655.00 718.96,640.95 724.74,629.00              730.58,616.93 736.07,598.34 737.90,585.00              737.90,585.00 737.90,576.00 737.90,576.00              738.70,566.99 740.97,553.87 745.35,546.00              751.62,534.73 761.56,530.71 774.00,531.01              778.07,531.11 783.50,531.75 785.25,536.11              786.36,538.88 784.86,545.82 784.42,549.00              784.42,549.00 783.00,571.00 783.00,571.00              783.00,571.00 783.00,591.00 783.00,591.00              783.00,591.00 784.00,612.00 784.00,612.00              784.01,621.48 786.90,647.03 789.43,656.00              790.62,660.22 793.21,668.25 798.02,669.42              803.13,670.68 811.31,660.57 814.20,657.00              824.25,644.57 839.38,619.72 845.68,605.00              849.24,596.70 844.03,597.14 837.01,590.82              832.89,587.11 829.10,581.89 826.49,577.00              812.10,550.03 821.22,499.52 858.00,498.04              861.58,497.89 864.54,498.21 868.00,499.16              892.79,505.98 888.05,540.21 883.37,559.00              883.37,559.00 879.67,572.00 879.67,572.00              879.67,572.00 874.00,588.00 874.00,588.00              908.28,594.14 921.52,555.52 947.00,539.81              961.33,530.98 983.64,526.20 997.99,537.53              1005.77,543.68 1005.43,548.61 1010.00,556.00              1016.07,543.61 1027.58,532.62 1042.00,532.04              1052.11,531.63 1058.45,533.69 1057.96,545.00              1057.96,545.00 1048.71,579.00 1048.71,579.00              1043.57,597.06 1037.97,619.55 1034.92,638.00              1033.22,648.24 1030.45,663.18 1033.79,673.00              1037.30,683.33 1045.57,680.71 1052.00,674.90              1060.10,667.56 1065.19,658.83 1069.69,649.00              1070.99,646.16 1074.19,636.95 1075.70,635.33              1076.86,634.08 1078.19,633.43 1079.91,633.88              1084.72,635.15 1085.12,643.03 1084.96,647.00              1084.02,670.98 1061.71,695.69 1039.00,701.84              1028.72,704.63 1017.54,704.92 1008.00,699.47              995.88,692.55 993.42,680.82 989.00,669.00              977.11,695.61 940.20,716.17 914.01,696.24              910.31,693.42 907.59,689.90 905.09,686.00              899.71,677.60 896.12,662.97 896.00,653.00              895.74,630.51 896.50,616.37 905.00,595.00              896.78,600.35 888.98,603.88 879.00,604.00              876.08,604.03 869.72,603.53 867.39,605.02              865.18,606.43 863.46,610.65 862.22,613.00              862.22,613.00 852.00,631.00 852.00,631.00              841.00,649.30 823.02,674.52 807.00,688.27              798.28,695.76 783.26,707.77 771.00,701.95              763.20,698.25 758.20,688.67 755.01,681.00              750.60,670.38 747.70,659.26 745.45,648.00              745.45,648.00 741.00,625.00 741.00,625.00              738.58,635.32 727.24,656.80 721.31,666.00              715.33,675.28 708.58,684.35 700.00,691.38              694.11,696.21 687.45,700.33 680.00,702.24              667.35,705.48 652.44,701.85 644.63,691.00              641.64,686.83 639.10,680.01 637.90,675.00              633.10,654.98 640.81,625.09 645.35,605.00              647.28,596.48 648.90,587.70 649.70,579.00              650.01,575.66 649.46,570.71 645.87,569.21              642.30,567.72 637.46,571.99 635.00,574.17              627.98,580.41 620.76,590.13 615.51,598.00              598.62,623.34 587.88,648.27 578.33,677.00              574.00,690.03 575.43,702.79 558.00,703.00              555.34,703.03 551.49,703.13 549.00,702.35              535.00,697.96 537.16,679.01 534.00,668.00              531.73,673.33 527.91,677.65 524.13,682.00              508.89,699.51 482.06,713.11 461.01,696.47              451.51,688.96 449.92,679.48 446.00,669.00              435.54,690.43 412.62,707.29 388.00,703.41              380.94,702.30 375.58,700.38 370.01,695.67              358.49,685.92 353.13,666.67 353.00,652.00 Z            M 857.00,577.00            C 861.74,566.17 865.44,544.91 865.43,533.00              865.43,528.00 864.80,519.29 858.00,519.29              851.01,519.29 848.29,528.54 847.26,534.00              844.77,547.28 846.60,567.27 857.00,577.00 Z            M 441.00,555.33            C 428.84,558.22 421.56,567.78 415.40,578.00              405.36,594.64 396.03,622.46 396.00,642.00              396.00,642.00 396.00,651.00 396.00,651.00              396.14,662.86 400.71,679.93 416.00,677.79              426.49,676.31 434.71,663.60 439.29,655.00              448.64,637.48 457.97,608.89 458.00,589.00              458.00,589.00 458.00,578.00 458.00,578.00              457.87,566.95 454.64,554.16 441.00,555.33 Z            M 985.00,555.31            C 972.61,557.66 965.75,566.87 959.42,577.00              947.31,596.43 938.74,625.04 939.00,648.00              939.14,659.89 943.12,679.71 959.00,677.81              968.51,676.67 975.58,666.44 980.31,659.00              990.44,643.06 997.88,616.75 1000.57,598.00              1000.57,598.00 1001.25,587.00 1001.25,587.00              1002.20,580.90 1001.60,581.67 1001.25,576.00              1000.13,565.88 997.57,554.71 985.00,555.31 Z" />
</svg>