<svg xmlns="http://www.w3.org/2000/svg" viewBox="-0.5 -0.29 1201 1200.79">
  <path id="canva" fill="#303030" stroke="none" stroke-width="1"
    d="M 565.00,0.21            C 565.00,0.21 627.00,0.21 627.00,0.21              627.00,0.21 652.00,1.83 652.00,1.83              694.31,5.93 726.97,11.50 768.00,23.29              859.32,49.54 944.33,98.28 1013.00,163.96              1013.00,163.96 1026.99,177.00 1026.99,177.00              1099.10,250.88 1150.15,338.82 1178.42,438.00              1189.90,478.27 1196.24,519.33 1199.09,561.00              1199.09,561.00 1200.00,571.00 1200.00,571.00              1200.00,571.00 1200.00,627.00 1200.00,627.00              1200.00,627.00 1199.09,639.00 1199.09,639.00              1199.09,639.00 1195.28,679.00 1195.28,679.00              1190.19,719.91 1180.14,762.14 1166.31,801.00              1104.06,975.92 962.09,1115.05 785.00,1171.66              750.19,1182.78 715.21,1190.52 679.00,1195.28              679.00,1195.28 639.00,1199.09 639.00,1199.09              639.00,1199.09 627.00,1200.00 627.00,1200.00              627.00,1200.00 571.00,1200.00 571.00,1200.00              571.00,1200.00 561.00,1199.09 561.00,1199.09              561.00,1199.09 521.00,1195.28 521.00,1195.28              477.98,1189.92 433.64,1179.20 393.00,1164.05              330.20,1140.64 271.90,1107.92 220.00,1065.39              118.92,982.55 46.33,868.28 16.12,741.00              8.05,707.00 3.29,673.79 0.91,639.00              0.91,639.00 0.00,629.00 0.00,629.00              0.00,629.00 0.00,573.00 0.00,573.00              0.00,573.00 0.91,561.00 0.91,561.00              0.91,561.00 5.29,515.00 5.29,515.00              13.38,454.95 32.08,396.93 57.31,342.00              57.31,342.00 80.15,299.00 80.15,299.00              151.43,174.82 267.84,79.25 403.00,32.34              438.94,19.87 478.30,10.36 516.00,5.28              516.00,5.28 553.00,1.17 553.00,1.17              553.00,1.17 565.00,0.21 565.00,0.21 Z            M 466.00,557.00            C 464.06,551.18 461.98,544.75 457.67,540.18              453.76,536.03 447.51,533.23 442.00,532.02              422.33,527.69 402.74,538.75 389.04,552.09              378.40,562.45 367.97,579.18 362.45,593.00              362.45,593.00 355.14,612.00 355.14,612.00              345.71,633.34 332.11,656.90 315.00,672.91              307.16,680.25 298.64,686.91 289.00,691.73              266.34,703.06 237.58,703.67 217.00,687.48              212.36,683.83 206.68,677.89 203.36,673.00              186.94,648.80 185.67,621.16 186.00,593.00              186.08,586.55 187.42,578.39 188.58,572.00              195.38,534.35 215.42,494.50 245.00,469.75              258.22,458.70 276.19,447.21 294.00,447.00              299.46,446.94 302.71,447.00 308.00,448.75              332.68,456.92 331.55,487.09 324.31,507.00              324.31,507.00 315.22,527.00 315.22,527.00              314.13,530.67 313.93,534.67 318.11,536.40              324.50,539.05 334.56,534.91 340.00,531.53              358.11,520.30 365.23,499.27 365.00,479.00              364.94,473.94 364.05,468.81 362.48,464.00              354.00,438.00 324.49,426.04 299.00,426.00              299.00,426.00 285.00,426.00 285.00,426.00              278.13,426.08 268.71,427.91 262.00,429.63              226.57,438.70 196.12,461.90 174.48,491.00              155.29,516.79 142.23,550.98 139.04,583.00              139.04,583.00 139.04,591.00 139.04,591.00              139.04,591.00 138.00,601.00 138.00,601.00              138.00,601.00 139.04,614.00 139.04,614.00              139.04,614.00 139.04,623.00 139.04,623.00              140.38,635.70 142.92,648.92 147.08,661.00              152.74,677.46 161.94,693.16 175.00,704.83              200.27,727.39 239.96,734.15 272.00,724.56              281.61,721.69 290.55,717.09 299.00,711.77              315.71,701.25 330.01,686.12 341.28,670.00              341.28,670.00 353.00,651.00 353.00,651.00              353.08,676.26 364.68,702.29 393.00,703.91              400.07,704.31 410.59,701.68 417.00,698.68              424.70,695.07 432.08,688.61 437.33,682.00              437.33,682.00 447.00,669.00 447.00,669.00              447.49,674.40 449.19,679.16 451.61,684.00              461.16,703.10 480.99,708.15 500.00,700.13              516.42,693.19 524.41,681.26 535.00,668.00              535.31,681.99 536.96,702.55 555.00,702.99              561.11,703.13 568.51,702.78 572.07,696.96              573.45,694.69 574.63,688.86 575.42,686.00              575.42,686.00 582.42,664.00 582.42,664.00              591.46,639.85 601.61,618.49 616.00,597.00              621.58,588.67 627.59,580.90 635.00,574.09              637.52,571.78 642.17,567.48 645.89,569.13              649.61,570.78 650.06,575.48 649.96,579.00              649.96,579.00 645.60,604.00 645.60,604.00              640.84,627.62 636.96,638.01 637.00,663.00              637.02,673.44 639.40,684.84 646.33,692.98              655.20,703.43 671.61,705.37 684.00,700.91              689.02,699.11 693.78,695.99 698.00,692.76              706.47,686.29 713.28,677.79 719.25,669.00              732.00,650.24 737.22,632.73 742.00,625.00              742.85,635.49 745.98,650.71 748.63,661.00              750.71,669.09 753.04,676.34 756.44,684.00              757.93,687.36 760.09,691.05 762.29,693.99              773.85,709.39 788.32,702.74 801.00,693.10              821.42,677.57 841.00,649.04 854.20,627.00              856.67,622.87 864.51,606.76 867.34,605.02              869.60,603.63 874.31,604.03 877.00,604.00              888.97,603.86 894.94,600.62 905.00,595.00              905.00,595.00 899.89,611.00 899.89,611.00              894.40,632.89 893.04,664.89 904.68,685.00              906.89,688.82 909.75,691.94 913.00,694.90              918.32,699.72 924.01,702.08 931.00,703.25              955.58,707.35 978.57,690.38 989.00,669.00              989.00,669.00 992.46,679.00 992.46,679.00              996.69,689.80 1003.38,698.89 1015.00,702.21              1019.40,703.47 1024.48,703.50 1029.00,703.15              1050.71,701.51 1069.93,686.44 1079.22,667.00              1082.73,659.64 1086.54,647.04 1084.06,639.02              1083.08,635.84 1080.11,631.74 1076.51,634.64              1074.79,636.02 1071.11,646.18 1069.74,649.00              1065.14,658.52 1059.54,669.56 1050.99,676.10              1041.54,683.32 1034.72,680.91 1032.23,669.00              1031.92,666.13 1031.97,662.93 1032.23,660.00              1032.21,642.18 1043.04,598.27 1048.29,580.00              1050.33,572.91 1058.14,548.54 1057.94,543.00              1057.59,533.17 1048.04,531.18 1040.00,532.44              1024.16,534.91 1016.85,543.98 1009.00,557.00              1007.15,550.66 1006.21,546.27 1001.67,541.04              997.30,536.00 992.36,533.73 986.00,532.24              968.13,528.03 950.48,535.77 937.00,547.30              937.00,547.30 908.00,577.91 908.00,577.91              902.02,582.73 884.96,592.02 877.19,588.40              874.23,587.03 875.20,584.44 875.97,582.00              875.97,582.00 882.28,563.00 882.28,563.00              888.64,541.57 893.61,498.09 860.00,498.08              821.89,498.07 811.81,548.40 826.78,577.00              831.47,585.95 839.12,594.85 849.00,598.00              841.42,615.60 827.08,641.16 815.19,656.00              811.92,660.09 802.14,672.70 796.18,669.16              793.02,667.28 791.12,662.38 790.16,659.00              788.00,651.47 786.77,643.76 785.85,636.00              783.10,613.03 782.96,590.13 783.00,567.00              783.00,567.00 784.99,542.00 784.99,542.00              785.22,531.61 780.79,530.66 771.00,531.04              759.83,531.48 751.23,536.15 745.53,546.00              737.93,559.13 739.08,578.05 736.57,593.00              733.70,610.07 724.52,632.63 715.00,647.00              710.19,654.26 703.45,662.95 696.00,667.53              693.22,669.24 689.37,671.27 686.02,670.53              681.37,669.49 679.71,665.19 679.02,661.00              677.79,653.62 679.01,644.36 680.39,637.00              685.30,610.76 696.68,581.74 692.70,555.00              692.23,551.81 691.06,547.91 689.67,545.00              679.76,524.21 657.06,530.18 642.00,540.72              634.44,546.02 625.63,554.82 619.80,562.00              614.07,569.06 608.62,576.35 603.69,584.00              603.69,584.00 593.00,601.00 593.00,601.00              596.17,585.22 602.78,558.24 596.52,543.00              589.62,526.19 565.94,532.96 561.60,539.11              559.32,542.32 560.20,547.16 559.83,551.00              559.83,551.00 556.34,576.00 556.34,576.00              551.15,600.30 541.63,629.74 528.80,651.00              523.44,659.87 510.46,678.54 499.00,678.71              493.65,678.79 491.19,674.59 489.93,670.00              487.99,662.99 489.57,650.30 490.75,643.00              495.38,614.53 503.21,586.69 511.14,559.00              513.40,551.11 519.58,537.12 508.00,533.39              508.00,533.39 502.00,532.32 502.00,532.32              484.99,530.96 473.91,543.87 466.00,557.00 Z            M 858.00,577.00            C 853.06,574.39 851.33,570.08 849.44,565.00              845.43,554.20 843.42,530.03 852.53,521.43              856.24,517.92 861.26,518.67 863.86,523.06              866.24,527.06 866.26,534.46 865.72,539.00              865.72,539.00 863.54,554.00 863.54,554.00              863.54,554.00 858.00,577.00 858.00,577.00 Z            M 439.00,555.53            C 455.90,552.80 458.18,569.14 458.91,582.00              458.91,582.00 456.75,603.00 456.75,603.00              453.96,619.79 447.06,642.42 438.40,657.00              433.92,664.53 427.05,675.28 418.00,677.47              395.43,682.93 395.84,653.00 396.00,639.00              396.23,620.00 406.87,590.96 417.05,575.00              422.28,566.81 429.47,558.50 439.00,555.53 Z            M 983.00,555.53            C 999.15,552.94 1001.49,569.78 1001.96,582.00              1002.14,586.55 1001.58,587.88 1001.17,592.00              998.92,614.43 992.83,636.03 982.22,656.00              978.15,663.65 969.92,675.59 961.00,677.61              940.22,682.31 938.85,654.45 939.00,641.00              939.23,621.31 949.49,592.65 959.81,576.00              965.53,566.78 972.28,558.72 983.00,555.53 Z" />
</svg>