<svg xmlns="http://www.w3.org/2000/svg" viewBox="127.56 -0.29 1022.95 677.81">
  <path id="carrefour" fill="#303030" stroke="none" stroke-width="1"
    d="M 630.00,0.21            C 630.00,0.21 656.00,0.21 656.00,0.21              682.76,0.04 719.84,13.04 741.00,29.24              754.74,39.74 768.39,54.47 766.91,73.00              765.89,85.68 756.96,91.38 749.17,100.00              740.60,109.49 730.67,123.38 725.31,135.00              719.77,147.00 714.67,164.72 715.51,178.00              717.69,212.28 736.02,239.97 767.00,255.24              776.06,259.71 785.83,262.95 796.00,263.00              796.00,263.00 805.00,263.00 805.00,263.00              814.39,262.89 825.43,259.93 834.00,256.14              841.41,252.86 846.73,249.52 853.00,244.38              898.48,207.10 890.85,137.62 871.40,89.00              863.45,69.12 854.42,53.77 842.67,36.00              840.36,32.51 833.94,21.82 842.06,20.37              846.36,19.60 850.25,24.32 853.00,26.99              853.00,26.99 877.00,50.00 877.00,50.00              877.00,50.00 924.00,95.04 924.00,95.04              924.00,95.04 975.00,144.99 975.00,144.99              975.00,144.99 985.00,154.04 985.00,154.04              985.00,154.04 1006.00,174.96 1006.00,174.96              1006.00,174.96 1046.00,213.04 1046.00,213.04              1046.00,213.04 1067.00,233.96 1067.00,233.96              1067.00,233.96 1078.00,244.00 1078.00,244.00              1078.00,244.00 1099.00,264.83 1099.00,264.83              1099.00,264.83 1123.00,288.00 1123.00,288.00              1123.00,288.00 1134.71,299.01 1134.71,299.01              1145.53,311.16 1150.18,323.83 1150.00,340.00              1149.69,366.67 1131.24,381.67 1113.00,398.17              1113.00,398.17 1093.00,418.00 1093.00,418.00              1093.00,418.00 1081.00,429.04 1081.00,429.04              1081.00,429.04 1060.00,449.96 1060.00,449.96              1060.00,449.96 1051.00,458.04 1051.00,458.04              1051.00,458.04 1030.00,478.99 1030.00,478.99              1030.00,478.99 1020.00,488.04 1020.00,488.04              1020.00,488.04 999.00,508.96 999.00,508.96              999.00,508.96 990.00,517.04 990.00,517.04              990.00,517.04 969.00,537.96 969.00,537.96              969.00,537.96 918.00,587.00 918.00,587.00              918.00,587.00 900.00,604.04 900.00,604.04              900.00,604.04 879.00,624.96 879.00,624.96              879.00,624.96 867.00,636.00 867.00,636.00              862.49,640.49 849.34,655.06 844.00,656.29              839.02,657.45 837.53,653.09 838.28,649.00              839.07,644.70 847.42,633.51 850.19,629.00              869.85,596.97 883.33,563.76 886.09,526.00              886.09,526.00 887.00,516.00 887.00,516.00              887.00,516.00 887.00,511.00 887.00,511.00              886.56,473.62 868.23,434.13 832.00,419.45              821.96,415.38 805.80,412.12 795.00,413.17              754.77,417.06 718.15,453.29 715.74,494.00              715.74,494.00 715.74,502.00 715.74,502.00              717.06,526.44 725.04,545.53 739.88,565.00              739.88,565.00 754.28,582.00 754.28,582.00              761.15,589.79 766.71,593.63 766.99,605.00              767.40,622.10 755.80,635.64 743.00,645.58              718.77,664.39 690.13,673.16 660.00,676.17              660.00,676.17 651.00,677.00 651.00,677.00              637.00,677.16 625.48,676.24 612.00,671.97              557.11,654.58 529.06,591.37 515.15,540.00              505.62,504.79 500.34,469.23 496.83,433.00              496.83,433.00 494.91,407.00 494.91,407.00              494.91,407.00 493.96,397.00 493.96,397.00              493.96,397.00 493.96,386.00 493.96,386.00              493.96,386.00 493.00,374.00 493.00,374.00              493.00,374.00 493.00,303.00 493.00,303.00              493.00,303.00 494.00,287.00 494.00,287.00              494.00,287.00 495.91,256.00 495.91,256.00              498.79,214.83 504.97,176.96 515.37,137.00              527.84,89.09 554.43,29.77 602.00,8.31              610.90,4.30 620.41,2.00 630.00,0.21 Z            M 433.00,20.76            C 438.37,19.86 440.93,22.54 439.57,28.00              438.69,31.50 433.20,37.93 430.79,41.00              412.69,64.08 396.43,88.38 382.14,114.00              354.76,163.07 336.62,217.27 329.28,273.00              329.28,273.00 326.00,303.00 326.00,303.00              326.00,303.00 326.00,312.00 326.00,312.00              326.00,312.00 325.00,324.00 325.00,324.00              325.00,324.00 325.00,355.00 325.00,355.00              325.00,355.00 326.83,381.00 326.83,381.00              326.83,381.00 328.28,398.00 328.28,398.00              332.90,436.02 342.17,473.43 356.40,509.00              373.20,551.00 393.48,584.36 419.71,621.00              419.71,621.00 437.83,645.00 437.83,645.00              439.74,647.85 441.40,653.61 437.83,655.78              435.05,657.32 432.17,655.57 430.00,654.06              425.93,651.23 420.63,645.63 417.00,642.00              417.00,642.00 394.00,619.96 394.00,619.96              394.00,619.96 372.00,598.04 372.00,598.04              372.00,598.04 360.00,587.00 360.00,587.00              360.00,587.00 303.00,531.96 303.00,531.96              303.00,531.96 282.00,511.04 282.00,511.04              282.00,511.04 242.00,472.96 242.00,472.96              242.00,472.96 221.00,452.04 221.00,452.04              221.00,452.04 210.00,442.00 210.00,442.00              210.00,442.00 188.00,420.28 188.00,420.28              188.00,420.28 161.00,394.04 161.00,394.04              145.36,379.08 132.26,370.08 129.00,347.00              128.53,343.68 127.90,340.37 128.09,337.00              129.36,314.60 136.61,306.19 152.00,290.99              152.00,290.99 172.00,271.91 172.00,271.91              172.00,271.91 201.00,243.72 201.00,243.72              201.00,243.72 224.00,221.00 224.00,221.00              224.00,221.00 235.00,210.96 235.00,210.96              235.00,210.96 256.00,190.04 256.00,190.04              256.00,190.04 296.00,151.96 296.00,151.96              296.00,151.96 317.00,131.04 317.00,131.04              317.00,131.04 326.00,122.96 326.00,122.96              326.00,122.96 348.00,101.04 348.00,101.04              348.00,101.04 359.00,91.00 359.00,91.00              359.00,91.00 378.00,72.04 378.00,72.04              378.00,72.04 389.00,62.00 389.00,62.00              389.00,62.00 414.00,37.58 414.00,37.58              419.83,32.51 426.55,24.06 433.00,20.76 Z" />
</svg>