<svg xmlns="http://www.w3.org/2000/svg" viewBox="-0.57 -0.29 1278.2 1024.8">
  <path id="carrefour-wordmark" fill="#303030" stroke="none" stroke-width="1"
    d="M 630.00,0.21            C 630.00,0.21 656.00,0.21 656.00,0.21              682.76,0.04 719.84,13.04 741.00,29.24              754.74,39.74 768.39,54.47 766.91,73.00              765.89,85.68 756.96,91.38 749.17,100.00              740.60,109.49 730.67,123.38 725.31,135.00              719.77,147.00 714.67,164.72 715.51,178.00              717.69,212.28 736.02,239.97 767.00,255.24              776.06,259.71 785.83,262.95 796.00,263.00              796.00,263.00 805.00,263.00 805.00,263.00              814.39,262.89 825.43,259.93 834.00,256.14              841.41,252.86 846.73,249.52 853.00,244.38              898.48,207.10 890.85,137.62 871.40,89.00              863.45,69.12 854.42,53.77 842.67,36.00              840.36,32.51 833.94,21.82 842.06,20.37              846.36,19.60 850.25,24.32 853.00,26.99              853.00,26.99 877.00,50.00 877.00,50.00              877.00,50.00 924.00,95.04 924.00,95.04              924.00,95.04 975.00,144.99 975.00,144.99              975.00,144.99 985.00,154.04 985.00,154.04              985.00,154.04 1006.00,174.96 1006.00,174.96              1006.00,174.96 1046.00,213.04 1046.00,213.04              1046.00,213.04 1067.00,233.96 1067.00,233.96              1067.00,233.96 1078.00,244.00 1078.00,244.00              1078.00,244.00 1099.00,264.83 1099.00,264.83              1099.00,264.83 1123.00,288.00 1123.00,288.00              1123.00,288.00 1134.71,299.01 1134.71,299.01              1145.53,311.16 1150.18,323.83 1150.00,340.00              1149.69,366.67 1131.24,381.67 1113.00,398.17              1113.00,398.17 1093.00,418.00 1093.00,418.00              1093.00,418.00 1081.00,429.04 1081.00,429.04              1081.00,429.04 1060.00,449.96 1060.00,449.96              1060.00,449.96 1051.00,458.04 1051.00,458.04              1051.00,458.04 1030.00,478.99 1030.00,478.99              1030.00,478.99 1020.00,488.04 1020.00,488.04              1020.00,488.04 999.00,508.96 999.00,508.96              999.00,508.96 990.00,517.04 990.00,517.04              990.00,517.04 969.00,537.96 969.00,537.96              969.00,537.96 918.00,587.00 918.00,587.00              918.00,587.00 900.00,604.04 900.00,604.04              900.00,604.04 879.00,624.96 879.00,624.96              879.00,624.96 867.00,636.00 867.00,636.00              862.49,640.49 849.34,655.06 844.00,656.29              839.02,657.45 837.53,653.09 838.28,649.00              839.07,644.70 847.42,633.51 850.19,629.00              869.85,596.97 883.33,563.76 886.09,526.00              886.09,526.00 887.00,516.00 887.00,516.00              887.00,516.00 887.00,511.00 887.00,511.00              886.56,473.62 868.23,434.13 832.00,419.45              821.96,415.38 805.80,412.12 795.00,413.17              754.77,417.06 718.15,453.29 715.74,494.00              715.74,494.00 715.74,502.00 715.74,502.00              717.06,526.44 725.04,545.53 739.88,565.00              739.88,565.00 754.28,582.00 754.28,582.00              761.15,589.79 766.71,593.63 766.99,605.00              767.40,622.10 755.80,635.64 743.00,645.58              718.77,664.39 690.13,673.16 660.00,676.17              660.00,676.17 651.00,677.00 651.00,677.00              637.00,677.16 625.48,676.24 612.00,671.97              557.11,654.58 529.06,591.37 515.15,540.00              505.62,504.79 500.34,469.23 496.83,433.00              496.83,433.00 494.91,407.00 494.91,407.00              494.91,407.00 493.96,397.00 493.96,397.00              493.96,397.00 493.96,386.00 493.96,386.00              493.96,386.00 493.00,374.00 493.00,374.00              493.00,374.00 493.00,303.00 493.00,303.00              493.00,303.00 494.00,287.00 494.00,287.00              494.00,287.00 495.91,256.00 495.91,256.00              498.79,214.83 504.97,176.96 515.37,137.00              527.84,89.09 554.43,29.77 602.00,8.31              610.90,4.30 620.41,2.00 630.00,0.21 Z            M 433.00,20.76            C 438.37,19.86 440.93,22.54 439.57,28.00              438.69,31.50 433.20,37.93 430.79,41.00              412.69,64.08 396.43,88.38 382.14,114.00              354.76,163.07 336.62,217.27 329.28,273.00              329.28,273.00 326.00,303.00 326.00,303.00              326.00,303.00 326.00,312.00 326.00,312.00              326.00,312.00 325.00,324.00 325.00,324.00              325.00,324.00 325.00,355.00 325.00,355.00              325.00,355.00 326.83,381.00 326.83,381.00              326.83,381.00 328.28,398.00 328.28,398.00              332.90,436.02 342.17,473.43 356.40,509.00              373.20,551.00 393.48,584.36 419.71,621.00              419.71,621.00 437.83,645.00 437.83,645.00              439.74,647.85 441.40,653.61 437.83,655.78              435.05,657.32 432.17,655.57 430.00,654.06              425.93,651.23 420.63,645.63 417.00,642.00              417.00,642.00 394.00,619.96 394.00,619.96              394.00,619.96 372.00,598.04 372.00,598.04              372.00,598.04 360.00,587.00 360.00,587.00              360.00,587.00 303.00,531.96 303.00,531.96              303.00,531.96 282.00,511.04 282.00,511.04              282.00,511.04 242.00,472.96 242.00,472.96              242.00,472.96 221.00,452.04 221.00,452.04              221.00,452.04 210.00,442.00 210.00,442.00              210.00,442.00 188.00,420.28 188.00,420.28              188.00,420.28 161.00,394.04 161.00,394.04              145.36,379.08 132.26,370.08 129.00,347.00              128.53,343.68 127.90,340.37 128.09,337.00              129.36,314.60 136.61,306.19 152.00,290.99              152.00,290.99 172.00,271.91 172.00,271.91              172.00,271.91 201.00,243.72 201.00,243.72              201.00,243.72 224.00,221.00 224.00,221.00              224.00,221.00 235.00,210.96 235.00,210.96              235.00,210.96 256.00,190.04 256.00,190.04              256.00,190.04 296.00,151.96 296.00,151.96              296.00,151.96 317.00,131.04 317.00,131.04              317.00,131.04 326.00,122.96 326.00,122.96              326.00,122.96 348.00,101.04 348.00,101.04              348.00,101.04 359.00,91.00 359.00,91.00              359.00,91.00 378.00,72.04 378.00,72.04              378.00,72.04 389.00,62.00 389.00,62.00              389.00,62.00 414.00,37.58 414.00,37.58              419.83,32.51 426.55,24.06 433.00,20.76 Z            M 750.00,877.00            C 750.00,857.39 749.06,838.88 761.04,822.00              773.00,805.15 791.30,803.78 810.00,804.00              821.56,804.14 836.21,808.71 844.91,816.46              858.50,828.57 857.56,853.62 837.00,855.66              826.60,856.70 818.03,848.31 817.90,838.00              818.03,830.07 821.69,828.65 817.90,825.61              816.28,824.45 813.82,823.66 812.00,823.16              802.43,820.53 792.67,823.91 787.99,833.00              782.90,842.91 784.00,864.50 784.00,876.00              784.00,876.00 815.00,876.00 815.00,876.00              820.36,876.03 822.60,875.85 822.96,882.00              824.23,904.06 798.71,897.00 785.00,897.00              785.00,897.00 785.00,961.00 785.00,961.00              785.00,969.20 784.51,986.00 788.28,993.00              792.17,1000.25 800.52,1001.95 808.00,1003.00              810.18,1015.24 805.54,1017.73 794.00,1019.75              782.50,1021.77 770.65,1021.02 759.00,1021.00              752.21,1020.99 737.84,1020.11 733.87,1013.89              732.70,1012.07 732.44,1010.13 732.73,1008.02              733.64,1001.30 738.83,1002.37 743.90,998.36              747.11,995.82 748.97,991.99 749.88,988.00              749.88,988.00 749.88,981.00 749.88,981.00              749.88,981.00 751.00,971.00 751.00,971.00              751.00,971.00 751.00,952.00 751.00,952.00              751.00,952.00 751.00,897.00 751.00,897.00              751.00,897.00 728.00,896.00 728.00,896.00              727.52,893.34 726.96,890.72 727.06,888.00              727.54,874.79 740.83,877.00 750.00,877.00 Z            M 82.00,812.44            C 111.26,808.69 143.67,818.46 161.51,843.00              169.81,854.41 175.26,873.42 166.35,886.00              164.03,889.28 160.88,891.98 157.00,893.20              154.30,894.04 150.83,894.06 148.00,893.98              133.30,893.58 126.11,879.23 129.56,866.00              130.95,860.63 134.96,857.81 134.41,854.00              134.02,851.30 130.89,847.98 128.96,846.17              123.22,840.79 114.83,836.44 107.00,835.30              81.45,831.57 63.98,845.85 53.26,868.00              39.76,895.87 39.41,937.85 52.31,966.00              61.22,985.46 78.07,1002.85 101.00,1001.96              111.27,1001.56 121.41,997.91 129.00,990.91              130.85,989.20 134.87,985.39 135.53,983.00              136.34,980.06 133.84,977.42 132.53,975.00              130.55,971.36 130.11,969.08 130.01,965.00              129.67,950.90 138.22,940.74 153.00,942.18              175.47,944.36 177.46,974.15 161.32,995.00              148.62,1011.41 124.93,1023.90 104.00,1024.00              104.00,1024.00 86.00,1024.00 86.00,1024.00              77.18,1023.89 66.06,1020.70 58.00,1017.14              26.40,1003.17 7.71,976.55 1.61,943.00              -0.53,931.19 -0.02,921.85 0.00,910.00              0.01,901.86 1.61,893.87 3.63,886.00              13.79,846.34 41.83,819.83 82.00,812.44 Z            M 402.00,895.00            C 408.21,882.95 420.16,873.23 434.00,872.18              446.20,871.26 457.41,879.38 457.96,892.00              458.28,899.37 456.20,905.88 449.98,910.35              439.07,918.21 424.25,912.72 422.00,899.00              411.96,902.33 407.27,911.28 404.90,921.00              401.69,934.12 402.98,965.02 403.00,980.00              403.01,988.17 404.09,995.21 412.00,999.59              416.42,1002.02 420.96,1001.84 422.83,1004.48              425.56,1008.36 423.67,1014.52 419.94,1017.00              415.14,1020.18 404.75,1020.99 399.00,1021.00              388.57,1021.02 376.09,1021.70 366.00,1019.92              361.25,1019.08 355.46,1017.61 353.02,1012.96              347.92,1003.25 360.16,1001.84 364.79,996.90              369.34,992.03 369.97,986.33 370.00,980.00              370.00,980.00 370.00,920.00 370.00,920.00              369.99,913.47 369.65,906.61 362.98,903.17              356.88,900.03 349.95,905.22 349.11,896.98              347.51,881.27 373.25,871.10 386.00,874.79              396.83,877.92 398.57,885.84 402.00,895.00 Z            M 522.00,895.00            C 526.85,882.61 543.41,871.06 557.00,872.19              569.15,873.20 578.88,882.27 577.81,895.00              576.35,912.41 559.01,918.39 548.04,910.35              543.87,907.29 542.62,903.63 541.00,899.00              518.30,909.35 522.00,945.19 522.00,966.00              522.00,973.59 521.48,985.07 524.53,992.00              526.33,996.08 528.95,998.65 533.00,1000.47              538.47,1002.94 544.85,1002.66 543.74,1011.00              542.49,1020.32 526.27,1020.99 519.00,1021.00              507.30,1021.02 493.21,1021.90 482.00,1019.10              475.52,1017.49 470.12,1013.72 472.43,1006.12              473.89,1001.31 479.89,1001.81 484.66,996.79              489.57,991.64 489.99,981.82 490.00,975.00              490.00,975.00 490.00,921.00 490.00,921.00              489.93,915.57 489.15,908.19 484.79,904.43              480.94,901.11 473.89,902.00 469.00,902.00              469.00,898.28 468.55,892.25 470.17,889.00              475.85,877.66 498.69,870.44 510.00,876.44              517.79,880.57 518.82,887.76 522.00,895.00 Z            M 1222.00,895.00            C 1226.70,882.91 1242.71,871.18 1256.00,872.18              1271.70,873.37 1278.75,882.64 1276.82,898.00              1274.36,917.50 1246.05,920.23 1241.00,899.00              1218.19,909.40 1222.00,945.00 1222.00,966.00              1222.00,973.24 1221.45,985.47 1224.22,992.00              1225.83,995.78 1228.32,998.30 1232.00,1000.08              1237.28,1002.63 1243.86,1002.00 1243.61,1010.00              1243.28,1020.39 1226.59,1020.99 1219.00,1021.00              1208.54,1021.02 1191.66,1021.78 1182.00,1019.24              1175.89,1017.64 1170.16,1014.39 1171.90,1007.04              1173.31,1001.08 1178.42,1002.39 1183.67,997.47              1188.73,992.74 1188.99,987.41 1189.00,981.00              1189.00,981.00 1189.00,928.00 1189.00,928.00              1189.00,921.97 1190.19,910.92 1186.35,906.21              1182.10,901.00 1174.98,902.00 1169.00,902.00              1168.42,897.53 1167.70,894.35 1169.65,890.00              1174.00,880.30 1190.79,873.46 1201.00,874.09              1215.85,875.01 1216.66,884.57 1222.00,895.00 Z            M 240.00,896.00            C 241.59,904.85 241.77,913.36 233.96,919.58              230.96,921.98 227.77,922.82 224.00,922.96              212.26,923.39 204.21,914.60 205.19,903.00              206.29,889.81 217.53,881.87 229.00,877.69              244.03,872.22 254.51,872.93 270.00,873.00              282.35,873.06 297.81,876.41 306.98,885.09              318.58,896.06 317.83,910.40 318.00,925.00              318.00,925.00 319.00,940.00 319.00,940.00              319.00,940.00 319.00,986.00 319.00,986.00              319.17,998.23 328.47,1001.52 339.00,1003.00              338.15,1009.02 336.89,1014.42 331.91,1018.44              321.96,1026.49 295.04,1025.92 289.00,1007.00              275.78,1017.21 261.05,1024.37 244.00,1023.99              232.98,1023.74 220.78,1020.27 212.00,1013.47              194.93,1000.27 188.15,975.13 199.47,956.00              211.57,935.55 236.31,931.75 258.00,932.00              266.37,932.10 277.55,934.20 285.00,938.00              285.00,921.53 287.27,899.42 267.00,893.93              263.63,893.01 260.47,892.94 257.00,893.01              251.02,893.15 245.79,894.84 240.00,896.00 Z            M 618.00,948.00            C 619.05,955.94 620.49,963.86 624.32,971.00              633.07,987.30 650.09,995.20 668.00,995.00              676.76,994.90 685.45,992.16 693.00,987.77              693.00,987.77 703.98,980.33 703.98,980.33              709.54,978.97 710.11,987.49 709.96,991.00              709.40,1003.82 698.11,1013.30 687.00,1017.79              666.59,1026.05 640.91,1025.79 621.00,1016.22              605.19,1008.62 592.01,993.49 586.09,977.00              576.39,949.99 582.78,913.71 603.04,893.01              614.67,881.13 633.32,873.08 650.00,873.00              650.00,873.00 662.00,873.00 662.00,873.00              685.19,873.28 705.63,888.84 712.28,911.00              715.04,920.21 715.50,927.60 713.74,937.00              713.19,939.95 712.21,945.23 709.58,946.98              707.71,948.22 704.21,948.00 702.00,948.00              702.00,948.00 618.00,948.00 618.00,948.00 Z            M 892.00,873.44            C 915.57,870.42 940.74,875.82 957.96,893.04              970.33,905.41 977.92,924.55 978.00,942.00              978.00,942.00 978.00,955.00 978.00,955.00              977.75,976.07 965.28,998.49 948.00,1010.25              930.84,1021.93 917.00,1023.23 897.00,1023.00              890.50,1022.92 884.15,1021.36 878.00,1019.33              855.76,1012.00 839.34,994.45 832.91,972.00              829.57,960.34 829.86,952.86 830.00,941.00              830.10,933.14 832.50,924.27 835.45,917.00              845.30,892.70 866.86,878.08 892.00,873.44 Z            M 988.98,902.00            C 988.59,898.68 988.07,896.35 988.98,893.00              992.30,880.33 1010.47,875.20 1022.00,874.32              1026.86,873.95 1034.07,875.46 1037.91,878.56              1043.88,883.37 1044.97,890.81 1045.00,898.00              1045.10,918.52 1043.60,952.13 1046.75,971.00              1048.97,984.25 1055.30,995.00 1070.00,995.91              1083.78,996.76 1093.92,987.38 1098.30,975.00              1102.69,962.62 1101.02,934.27 1101.00,920.00              1100.98,904.84 1095.00,902.00 1081.00,902.00              1080.64,896.97 1079.86,893.75 1082.56,889.04              1089.98,876.04 1120.68,868.61 1131.78,880.19              1136.42,885.03 1136.99,891.67 1137.11,898.00              1137.11,898.00 1137.11,957.00 1137.11,957.00              1137.11,957.00 1137.11,986.00 1137.11,986.00              1138.30,991.09 1141.15,994.97 1146.00,997.00              1152.41,999.69 1158.81,995.69 1156.77,1007.00              1155.82,1012.32 1151.52,1015.41 1147.00,1017.73              1138.23,1022.22 1120.97,1026.53 1112.02,1020.99              1105.36,1016.88 1104.03,1008.96 1102.00,1002.00              1081.21,1029.45 1033.02,1032.48 1016.27,999.00              1011.83,990.13 1010.02,978.87 1010.00,969.00              1010.00,969.00 1009.00,948.00 1009.00,948.00              1009.00,948.00 1009.00,918.00 1009.00,918.00              1008.87,907.41 1003.64,902.15 993.00,902.00              993.00,902.00 988.98,902.00 988.98,902.00 Z            M 619.00,929.00            C 619.00,929.00 670.00,929.00 670.00,929.00              677.72,928.89 679.72,926.99 679.24,919.00              677.86,896.23 652.37,886.44 634.00,897.35              623.15,903.80 619.04,917.07 619.00,929.00 Z            M 898.00,893.30            C 868.34,899.10 866.36,939.19 870.61,963.00              871.59,968.48 873.02,973.92 875.31,979.00              881.57,992.88 892.60,1004.06 909.00,1001.70              924.86,999.42 932.19,988.24 936.65,974.00              938.50,968.11 939.93,957.18 940.00,951.00              940.29,924.86 930.66,890.04 898.00,893.30 Z            M 254.00,951.30            C 246.72,952.68 239.29,955.34 235.22,962.01              224.71,979.26 238.94,1001.54 259.00,999.53              267.12,998.72 281.38,993.16 284.40,985.00              285.31,982.55 285.04,972.20 285.00,969.00              284.94,964.64 284.65,961.63 281.61,958.18              275.28,951.01 262.87,950.42 254.00,951.30 Z" />
</svg>