<svg xmlns="http://www.w3.org/2000/svg" viewBox="-0.5 -0.5 805 805">
  <path id="chrome" fill="#303030" stroke="none" stroke-width="1"
    d="M 205.00,363.00            C 201.10,358.35 197.21,350.48 193.99,345.00              193.99,345.00 172.58,308.00 172.58,308.00              172.58,308.00 113.72,206.00 113.72,206.00              113.72,206.00 92.40,169.00 92.40,169.00              90.37,165.57 84.92,157.89 85.69,154.00              86.30,150.95 91.96,144.54 94.13,142.00              94.13,142.00 116.00,118.00 116.00,118.00              149.75,84.24 185.21,59.60 228.00,38.74              269.28,18.62 313.42,6.71 359.00,1.84              359.00,1.84 382.00,0.00 382.00,0.00              382.00,0.00 425.00,0.00 425.00,0.00              425.00,0.00 445.00,1.84 445.00,1.84              481.14,5.70 515.06,13.66 549.00,26.81              594.80,44.56 636.44,71.19 673.00,103.84              693.07,121.76 710.25,141.50 726.37,163.00              733.76,172.85 745.78,190.15 751.00,201.00              751.00,201.00 475.00,201.00 475.00,201.00              444.44,201.00 396.74,199.61 368.00,204.43              334.96,209.98 304.33,224.04 278.00,244.66              250.31,266.35 228.41,296.34 215.45,329.00              215.45,329.00 208.01,352.00 208.01,352.00              208.01,352.00 205.00,363.00 205.00,363.00 Z            M 53.00,199.00            C 53.00,199.00 55.00,199.00 55.00,199.00              55.00,199.00 74.58,234.00 74.58,234.00              74.58,234.00 107.99,292.00 107.99,292.00              107.99,292.00 189.58,434.00 189.58,434.00              189.58,434.00 237.43,516.00 237.43,516.00              255.39,541.17 278.72,562.90 306.00,577.69              333.04,592.35 364.13,601.79 395.00,602.00              395.00,602.00 409.00,602.00 409.00,602.00              421.52,601.92 433.79,600.15 446.00,597.35              446.00,597.35 467.00,592.00 467.00,592.00              467.00,592.00 452.42,618.00 452.42,618.00              452.42,618.00 427.01,662.00 427.01,662.00              427.01,662.00 385.58,734.00 385.58,734.00              385.58,734.00 347.00,801.00 347.00,801.00              196.58,781.05 72.38,677.45 21.69,535.00              10.45,503.41 3.35,468.40 0.91,435.00              0.91,435.00 0.00,423.00 0.00,423.00              0.00,423.00 0.00,379.00 0.00,379.00              0.00,379.00 2.85,350.00 2.85,350.00              9.55,293.91 26.78,248.62 53.00,199.00 Z            M 535.00,251.00            C 535.00,251.00 776.00,251.00 776.00,251.00              776.00,251.00 783.00,271.00 783.00,271.00              783.00,271.00 794.58,312.00 794.58,312.00              798.77,331.00 803.97,361.87 804.00,381.00              804.00,381.00 804.00,422.00 804.00,422.00              804.00,422.00 803.09,434.00 803.09,434.00              801.24,460.39 796.68,486.53 789.42,512.00              779.72,546.03 765.77,578.63 747.55,609.00              693.32,699.38 603.24,766.31 501.00,791.87              478.24,797.56 455.39,801.45 432.00,803.09              432.00,803.09 420.00,804.00 420.00,804.00              420.00,804.00 402.00,804.00 402.00,804.00              403.89,797.53 413.70,781.76 417.58,775.00              417.58,775.00 449.15,720.00 449.15,720.00              449.15,720.00 552.85,539.00 552.85,539.00              573.98,501.98 594.06,473.45 600.27,430.00              600.27,430.00 602.00,414.00 602.00,414.00              602.00,414.00 602.00,391.00 602.00,391.00              601.95,361.48 587.65,320.62 571.66,296.00              564.53,285.03 557.36,275.80 548.72,266.00              544.74,261.49 537.58,255.73 535.00,251.00 Z            M 395.00,263.42            C 403.11,262.44 414.79,263.73 423.00,264.87              487.01,273.78 535.41,326.98 540.09,391.00              540.09,391.00 540.99,404.00 540.99,404.00              540.99,404.00 540.17,412.00 540.17,412.00              538.52,429.03 536.40,441.04 529.57,457.00              510.03,502.71 468.27,533.80 419.00,539.72              401.02,541.87 381.47,540.56 364.00,535.57              342.20,529.35 321.36,517.68 305.00,501.96              255.99,454.86 249.62,376.04 288.91,321.00              307.39,295.11 333.47,277.14 364.00,268.43              375.06,265.27 383.96,264.99 395.00,263.42 Z" />
</svg>