<svg xmlns="http://www.w3.org/2000/svg" viewBox="-0.67 -0.34 1956.17 286.62">
  <path id="cloudflare-wordmark" fill="#303030" stroke="none" stroke-width="1"
    d="M 198.00,101.00            C 199.32,93.70 204.84,82.53 208.58,76.00              217.54,60.34 229.02,46.12 243.00,34.61              291.42,-5.24 358.25,-10.75 413.00,19.31              428.12,27.61 441.38,39.18 452.83,52.00              463.30,63.73 472.75,80.38 478.55,95.00              480.82,100.72 485.29,114.12 484.88,120.00              484.57,124.51 478.02,139.74 476.05,145.00              472.54,154.40 469.70,162.61 463.97,171.00              446.78,196.20 422.74,206.95 393.00,207.00              393.00,207.00 331.00,207.00 331.00,207.00              331.00,207.00 314.00,208.00 314.00,208.00              314.00,208.00 250.00,208.00 250.00,208.00              250.00,208.00 235.00,209.00 235.00,209.00              235.00,209.00 184.00,209.00 184.00,209.00              180.62,209.01 177.06,208.74 174.11,210.70              171.60,212.36 170.00,215.06 173.26,217.02              175.44,218.31 179.47,217.93 182.00,218.04              182.00,218.04 195.00,219.00 195.00,219.00              195.00,219.00 258.00,219.00 258.00,219.00              258.00,219.00 273.00,220.00 273.00,220.00              273.00,220.00 334.00,220.00 334.00,220.00              334.00,220.00 351.00,221.00 351.00,221.00              351.00,221.00 399.00,221.00 399.00,221.00              415.23,221.19 429.18,228.71 433.96,245.00              435.29,249.55 435.05,254.31 435.00,259.00              434.92,265.60 433.25,270.74 431.42,277.00              430.69,279.49 430.09,282.49 427.72,283.98              425.77,285.21 422.28,285.00 420.00,285.00              420.00,285.00 98.00,285.00 98.00,285.00              98.00,285.00 11.00,285.00 11.00,285.00              8.76,285.00 5.21,285.21 3.30,283.98              -1.19,281.08 -0.06,267.06 0.00,262.00              0.57,213.55 44.02,172.01 92.00,172.00              88.43,152.09 90.16,134.23 101.75,117.00              122.61,85.97 168.28,78.26 198.00,101.00 Z            M 444.00,285.00            C 444.44,276.02 449.42,265.43 454.36,258.00              465.65,240.98 483.04,227.77 503.00,222.90              510.64,221.03 529.66,220.09 538.00,220.00              538.00,220.00 563.00,218.18 563.00,218.18              565.63,217.57 570.46,215.91 568.83,212.21              567.72,209.68 564.41,209.19 562.00,209.04              562.00,209.04 541.00,208.00 541.00,208.00              541.00,208.00 530.00,207.04 530.00,207.04              511.32,206.23 493.61,205.89 486.09,185.00              480.54,169.59 486.88,153.87 491.14,139.00              494.08,128.75 493.61,124.16 502.00,124.00              554.25,123.04 601.93,152.34 620.94,202.00              628.71,222.32 629.03,233.87 629.00,255.00              628.99,262.06 627.94,269.12 626.35,276.00              625.84,278.22 625.14,281.82 623.44,283.40              621.38,285.33 617.65,284.99 615.00,285.00              615.00,285.00 444.00,285.00 444.00,285.00 Z            M 788.00,243.00            C 782.50,261.83 773.74,273.98 755.00,281.55              720.32,295.55 677.47,273.61 677.00,234.00              676.77,213.61 684.00,196.42 702.00,185.46              733.92,166.03 782.40,181.27 788.00,221.00              788.00,221.00 764.00,221.00 764.00,221.00              753.62,220.93 757.01,217.88 749.91,211.30              745.21,206.94 738.51,203.79 732.00,204.10              704.71,205.40 698.00,245.59 724.00,256.52              732.89,260.26 741.51,258.63 748.91,252.47              755.72,246.81 753.31,243.15 762.00,243.00              762.00,243.00 788.00,243.00 788.00,243.00 Z            M 977.00,177.42            C 999.45,174.68 1023.19,185.43 1033.63,206.00              1039.05,216.69 1039.13,223.44 1039.00,235.00              1038.70,260.12 1018.47,281.09 994.00,284.70              975.29,287.46 956.06,283.48 942.29,269.71              918.45,245.88 923.23,205.08 951.00,186.36              959.78,180.44 966.84,178.96 977.00,177.42 Z            M 819.00,179.00            C 819.00,179.00 849.00,179.00 849.00,179.00              849.00,179.00 849.00,257.00 849.00,257.00              849.00,257.00 899.00,257.00 899.00,257.00              899.00,257.00 899.00,283.00 899.00,283.00              899.00,283.00 819.00,283.00 819.00,283.00              819.00,283.00 819.00,179.00 819.00,179.00 Z            M 1073.00,179.00            C 1073.00,179.00 1103.00,179.00 1103.00,179.00              1103.00,179.00 1103.00,219.00 1103.00,219.00              1103.00,227.18 1102.43,237.19 1104.78,245.00              1108.27,256.60 1121.66,262.67 1131.98,255.35              1138.05,251.05 1139.91,245.09 1140.00,238.00              1140.00,238.00 1140.00,179.00 1140.00,179.00              1140.00,179.00 1171.00,179.00 1171.00,179.00              1171.00,179.00 1171.00,233.00 1171.00,233.00              1170.88,242.75 1169.44,256.53 1164.54,265.00              1153.28,284.43 1134.90,285.23 1115.00,285.00              1100.56,284.83 1086.39,277.89 1079.31,265.00              1074.56,256.36 1073.02,244.78 1073.00,235.00              1073.00,235.00 1073.00,179.00 1073.00,179.00 Z            M 1213.00,179.00            C 1213.00,179.00 1241.00,179.00 1241.00,179.00              1262.39,179.00 1283.98,179.12 1299.91,196.01              1315.65,212.71 1316.34,245.00 1302.47,263.00              1293.07,275.20 1276.32,282.82 1261.00,283.00              1261.00,283.00 1213.00,283.00 1213.00,283.00              1213.00,283.00 1213.00,179.00 1213.00,179.00 Z            M 1353.00,179.00            C 1353.00,179.00 1437.00,179.00 1437.00,179.00              1437.00,179.00 1437.00,205.00 1437.00,205.00              1437.00,205.00 1383.00,205.00 1383.00,205.00              1383.00,205.00 1383.00,222.00 1383.00,222.00              1383.00,222.00 1431.00,222.00 1431.00,222.00              1431.00,222.00 1431.00,247.00 1431.00,247.00              1431.00,247.00 1383.00,247.00 1383.00,247.00              1383.00,247.00 1383.00,283.00 1383.00,283.00              1383.00,283.00 1353.00,283.00 1353.00,283.00              1353.00,283.00 1353.00,179.00 1353.00,179.00 Z            M 1475.00,179.00            C 1475.00,179.00 1505.00,179.00 1505.00,179.00              1505.00,179.00 1505.00,257.00 1505.00,257.00              1505.00,257.00 1555.00,257.00 1555.00,257.00              1555.00,257.00 1555.00,283.00 1555.00,283.00              1555.00,283.00 1475.00,283.00 1475.00,283.00              1475.00,283.00 1475.00,179.00 1475.00,179.00 Z            M 1585.00,283.00            C 1585.00,283.00 1596.58,254.00 1596.58,254.00              1596.58,254.00 1618.15,203.00 1618.15,203.00              1618.15,203.00 1624.99,187.00 1624.99,187.00              1624.99,187.00 1628.70,179.99 1628.70,179.99              1628.70,179.99 1634.00,179.00 1634.00,179.00              1634.00,179.00 1650.00,179.00 1650.00,179.00              1650.00,179.00 1657.30,179.99 1657.30,179.99              1657.30,179.99 1661.15,187.00 1661.15,187.00              1661.15,187.00 1667.42,202.00 1667.42,202.00              1667.42,202.00 1689.42,254.00 1689.42,254.00              1689.42,254.00 1701.00,283.00 1701.00,283.00              1701.00,283.00 1677.00,283.00 1677.00,283.00              1677.00,283.00 1669.70,282.01 1669.70,282.01              1669.70,282.01 1660.73,266.02 1660.73,266.02              1660.73,266.02 1655.00,265.00 1655.00,265.00              1655.00,265.00 1632.00,265.00 1632.00,265.00              1632.00,265.00 1624.39,266.02 1624.39,266.02              1624.39,266.02 1615.50,281.98 1615.50,281.98              1615.50,281.98 1609.00,283.00 1609.00,283.00              1609.00,283.00 1585.00,283.00 1585.00,283.00 Z            M 1737.00,179.00            C 1737.00,179.00 1785.00,179.00 1785.00,179.00              1795.71,179.02 1806.87,180.57 1816.00,186.55              1837.11,200.38 1833.86,239.07 1809.00,247.00              1809.00,247.00 1833.00,283.00 1833.00,283.00              1833.00,283.00 1805.00,283.00 1805.00,283.00              1805.00,283.00 1798.52,282.01 1798.52,282.01              1798.52,282.01 1777.82,253.60 1777.82,253.60              1777.82,253.60 1767.00,252.00 1767.00,252.00              1767.00,252.00 1767.00,283.00 1767.00,283.00              1767.00,283.00 1737.00,283.00 1737.00,283.00              1737.00,283.00 1737.00,179.00 1737.00,179.00 Z            M 1870.00,179.00            C 1870.00,179.00 1954.00,179.00 1954.00,179.00              1954.00,179.00 1954.00,205.00 1954.00,205.00              1954.00,205.00 1899.00,205.00 1899.00,205.00              1899.00,205.00 1899.00,219.00 1899.00,219.00              1899.00,219.00 1949.00,219.00 1949.00,219.00              1949.00,219.00 1949.00,243.00 1949.00,243.00              1949.00,243.00 1899.00,243.00 1899.00,243.00              1899.00,243.00 1899.00,258.00 1899.00,258.00              1899.00,258.00 1955.00,258.00 1955.00,258.00              1955.00,258.00 1955.00,283.00 1955.00,283.00              1955.00,283.00 1870.00,283.00 1870.00,283.00              1870.00,283.00 1870.00,179.00 1870.00,179.00 Z            M 979.00,204.32            C 948.46,211.18 951.83,256.32 982.00,258.81              1010.93,261.21 1019.72,217.28 993.00,205.95              988.31,203.96 983.98,203.78 979.00,204.32 Z            M 1767.00,229.00            C 1774.37,229.00 1787.77,230.15 1793.96,226.59              1802.52,221.65 1801.57,209.92 1792.00,206.15              1787.39,204.33 1772.72,205.00 1767.00,205.00              1767.00,205.00 1767.00,229.00 1767.00,229.00 Z            M 1243.00,257.00            C 1252.79,257.00 1263.54,258.19 1272.00,252.20              1286.25,242.11 1285.18,218.08 1270.00,209.36              1262.09,204.83 1251.86,206.00 1243.00,206.00              1243.00,206.00 1243.00,257.00 1243.00,257.00 Z            M 1643.00,215.00            C 1643.00,215.00 1632.00,242.00 1632.00,242.00              1632.00,242.00 1653.00,242.00 1653.00,242.00              1653.00,242.00 1643.00,215.00 1643.00,215.00 Z" />
</svg>