<svg xmlns="http://www.w3.org/2000/svg" viewBox="-0.67 -0.34 630.17 285.85">
  <path id="cloudflare" fill="#303030" stroke="none" stroke-width="1"
    d="M 198.00,101.00            C 199.32,93.70 204.84,82.53 208.58,76.00              217.54,60.34 229.02,46.12 243.00,34.61              291.42,-5.24 358.25,-10.75 413.00,19.31              428.12,27.61 441.38,39.18 452.83,52.00              463.30,63.73 472.75,80.38 478.55,95.00              480.82,100.72 485.29,114.12 484.88,120.00              484.57,124.51 478.02,139.74 476.05,145.00              472.54,154.40 469.70,162.61 463.97,171.00              446.78,196.20 422.74,206.95 393.00,207.00              393.00,207.00 331.00,207.00 331.00,207.00              331.00,207.00 314.00,208.00 314.00,208.00              314.00,208.00 250.00,208.00 250.00,208.00              250.00,208.00 235.00,209.00 235.00,209.00              235.00,209.00 184.00,209.00 184.00,209.00              180.62,209.01 177.06,208.74 174.11,210.70              171.60,212.36 170.00,215.06 173.26,217.02              175.44,218.31 179.47,217.93 182.00,218.04              182.00,218.04 195.00,219.00 195.00,219.00              195.00,219.00 258.00,219.00 258.00,219.00              258.00,219.00 273.00,220.00 273.00,220.00              273.00,220.00 334.00,220.00 334.00,220.00              334.00,220.00 351.00,221.00 351.00,221.00              351.00,221.00 399.00,221.00 399.00,221.00              415.23,221.19 429.18,228.71 433.96,245.00              435.29,249.55 435.05,254.31 435.00,259.00              434.92,265.60 433.25,270.74 431.42,277.00              430.69,279.49 430.09,282.49 427.72,283.98              425.77,285.21 422.28,285.00 420.00,285.00              420.00,285.00 98.00,285.00 98.00,285.00              98.00,285.00 11.00,285.00 11.00,285.00              8.76,285.00 5.21,285.21 3.30,283.98              -1.19,281.08 -0.06,267.06 0.00,262.00              0.57,213.55 44.02,172.01 92.00,172.00              88.43,152.09 90.16,134.23 101.75,117.00              122.61,85.97 168.28,78.26 198.00,101.00 Z            M 444.00,285.00            C 444.44,276.02 449.42,265.43 454.36,258.00              465.65,240.98 483.04,227.77 503.00,222.90              510.64,221.03 529.66,220.09 538.00,220.00              538.00,220.00 563.00,218.18 563.00,218.18              565.63,217.57 570.46,215.91 568.83,212.21              567.72,209.68 564.41,209.19 562.00,209.04              562.00,209.04 541.00,208.00 541.00,208.00              541.00,208.00 530.00,207.04 530.00,207.04              511.32,206.23 493.61,205.89 486.09,185.00              480.54,169.59 486.88,153.87 491.14,139.00              494.08,128.75 493.61,124.16 502.00,124.00              554.25,123.04 601.93,152.34 620.94,202.00              628.71,222.32 629.03,233.87 629.00,255.00              628.99,262.06 627.94,269.12 626.35,276.00              625.84,278.22 625.14,281.82 623.44,283.40              621.38,285.33 617.65,284.99 615.00,285.00              615.00,285.00 444.00,285.00 444.00,285.00 Z" />
</svg>