<svg xmlns="http://www.w3.org/2000/svg" viewBox="9.41 6.55 1226.09 1010.09">
  <path id="clubhouse" fill="#303030" stroke="none" stroke-width="1"
    d="M 539.00,130.00            C 539.00,130.00 538.04,116.00 538.04,116.00              538.04,116.00 538.04,102.00 538.04,102.00              538.04,74.35 550.45,50.27 571.00,32.18              588.34,16.92 612.37,9.49 635.00,7.91              638.88,7.64 640.73,6.85 645.00,7.09              656.48,7.74 668.06,8.88 679.00,12.69              701.89,20.68 721.83,40.05 730.00,63.00              758.30,48.05 769.25,45.63 801.00,46.00              808.36,46.09 818.98,48.36 826.00,50.67              854.30,59.98 869.06,77.10 880.57,104.00              893.00,133.05 896.69,163.50 903.42,194.00              910.46,225.86 918.81,254.49 930.42,285.00              939.57,309.03 959.85,347.64 973.20,370.00              973.20,370.00 997.00,408.00 997.00,408.00              997.00,408.00 999.00,408.00 999.00,408.00              1001.20,400.30 1010.78,383.28 1015.20,376.00              1039.71,335.65 1084.86,300.08 1134.00,300.00              1151.76,299.97 1162.79,299.48 1180.00,306.06              1212.09,318.34 1234.95,352.59 1235.00,387.00              1235.00,387.00 1235.00,398.00 1235.00,398.00              1234.71,422.21 1217.81,456.20 1207.26,478.00              1190.45,512.73 1169.46,564.20 1168.96,603.00              1168.96,603.00 1168.96,619.00 1168.96,619.00              1168.96,619.00 1168.00,630.00 1168.00,630.00              1168.00,630.00 1168.00,647.00 1168.00,647.00              1168.00,647.00 1166.09,671.00 1166.09,671.00              1162.03,729.03 1147.28,785.94 1121.25,838.00              1107.55,865.39 1086.57,895.33 1065.00,917.00              1039.18,942.94 1009.00,965.65 976.00,981.74              933.19,1002.61 885.77,1015.78 838.00,1016.14              838.00,1016.14 829.00,1016.14 829.00,1016.14              829.00,1016.14 819.00,1016.14 819.00,1016.14              743.32,1015.88 664.95,985.79 607.00,937.57              557.40,896.29 519.08,839.83 485.80,785.00              467.02,754.06 447.87,723.19 431.26,691.00              403.15,636.53 379.12,580.48 355.42,524.00              355.42,524.00 335.66,472.00 335.66,472.00              318.49,422.54 288.90,355.22 326.45,308.00              332.43,300.47 338.21,294.85 346.00,289.16              354.33,283.07 364.19,278.49 374.00,275.34              387.27,271.09 405.24,268.53 418.85,271.00              412.03,246.90 410.20,215.89 418.85,192.00              436.50,141.96 489.48,121.09 539.00,130.00 Z            M 788.00,434.00            C 788.00,434.00 766.31,385.00 766.31,385.00              752.73,355.43 736.42,317.59 726.00,287.00              717.91,263.24 712.72,238.58 707.80,214.00              707.80,214.00 697.84,156.00 697.84,156.00              695.72,136.20 692.21,115.14 686.71,96.00              683.64,85.31 679.86,74.69 671.00,67.33              661.59,59.50 650.44,59.87 639.00,60.00              622.94,60.19 604.13,68.42 595.10,82.00              587.67,93.19 588.85,104.27 589.00,117.00              589.15,129.38 596.82,172.78 600.44,185.00              600.44,185.00 611.63,220.00 611.63,220.00              611.63,220.00 626.37,284.00 626.37,284.00              634.17,315.57 649.89,362.88 663.75,392.00              663.75,392.00 690.78,446.00 690.78,446.00              694.04,452.17 699.35,463.64 706.00,466.11              712.84,468.65 724.82,461.33 731.00,458.25              749.47,449.01 768.48,440.77 788.00,434.00 Z            M 785.00,98.15            C 778.87,99.30 771.62,100.87 766.00,103.49              758.04,107.20 749.98,113.67 746.61,122.00              744.53,127.14 744.94,134.43 745.00,140.00              745.00,140.00 750.25,182.00 750.25,182.00              760.65,245.65 779.24,308.01 807.76,366.00              807.76,366.00 826.75,405.00 826.75,405.00              829.47,410.43 832.61,418.57 838.04,421.56              844.56,425.15 857.53,422.52 865.00,422.09              875.87,421.48 890.03,425.37 891.63,438.00              892.58,445.44 887.36,449.91 881.00,452.29              881.00,452.29 841.00,462.58 841.00,462.58              795.18,475.64 753.46,494.52 716.00,524.45              705.05,533.19 691.54,545.48 682.42,556.00              678.59,560.42 667.58,574.57 663.00,576.26              658.09,578.07 654.38,575.19 651.01,571.96              644.97,566.14 634.33,552.81 635.20,544.00              636.14,534.43 649.51,520.36 655.73,513.00              658.58,509.62 663.20,504.46 663.74,500.00              664.56,493.11 653.14,477.50 649.43,471.00              649.43,471.00 617.58,404.00 617.58,404.00              598.93,360.42 590.37,338.41 578.63,292.00              578.63,292.00 565.42,236.00 565.42,236.00              562.07,220.80 557.24,202.31 545.96,191.04              528.69,173.78 493.28,178.26 477.09,195.04              470.04,202.34 466.14,213.01 465.17,223.00              464.40,230.89 466.98,245.95 468.60,254.00              468.60,254.00 484.58,313.00 484.58,313.00              497.11,355.87 511.96,397.71 528.99,439.00              539.68,464.91 550.53,490.45 564.14,515.00              564.14,515.00 581.78,548.00 581.78,548.00              585.01,554.08 589.68,562.12 590.66,569.00              592.60,582.63 578.53,592.78 566.00,591.90              558.41,591.37 553.00,586.61 548.32,581.00              542.18,573.63 530.99,553.17 526.26,544.00              526.26,544.00 505.26,503.00 505.26,503.00              486.63,464.52 471.39,424.55 458.00,384.00              450.15,360.22 438.72,319.93 407.00,322.18              383.69,323.84 364.36,334.12 360.87,359.00              360.40,362.33 359.90,364.56 360.09,368.00              361.20,387.59 372.04,418.09 378.95,437.00              378.95,437.00 410.80,521.00 410.80,521.00              427.48,562.70 445.67,603.83 465.75,644.00              465.75,644.00 479.31,671.00 479.31,671.00              497.55,704.73 517.31,737.46 537.58,770.00              576.45,832.42 619.84,892.91 686.00,928.69              726.12,950.39 772.33,963.47 818.00,964.00              818.00,964.00 829.00,964.92 829.00,964.92              829.00,964.92 837.00,964.04 837.00,964.04              837.00,964.04 847.00,964.04 847.00,964.04              858.22,963.87 881.78,959.68 893.00,956.87              933.86,946.66 970.04,928.88 1003.00,902.55              1022.14,887.26 1037.61,870.70 1052.12,851.00              1086.07,804.88 1103.34,748.13 1111.13,692.00              1111.13,692.00 1115.00,653.00 1115.00,653.00              1115.00,653.00 1116.00,635.00 1116.00,635.00              1116.00,635.00 1117.17,591.00 1117.17,591.00              1120.66,554.36 1132.04,518.87 1146.01,485.00              1146.01,485.00 1171.31,430.00 1171.31,430.00              1176.77,418.06 1183.49,403.40 1182.96,390.00              1182.38,375.18 1175.26,361.01 1161.00,355.26              1153.28,352.14 1146.15,351.91 1138.00,352.00              1091.90,352.54 1057.54,394.66 1041.60,434.00              1033.11,454.98 1029.27,478.49 1015.52,497.00              997.57,521.16 958.24,545.04 938.36,575.00              928.33,590.10 923.78,603.54 919.88,621.00              918.57,626.88 917.09,643.01 913.69,646.79              907.27,653.93 891.95,654.12 883.00,654.00              869.51,653.81 868.88,643.87 869.00,633.00              869.09,625.67 870.72,617.16 872.35,610.00              879.97,576.52 899.30,545.67 924.00,522.04              924.00,522.04 962.99,487.99 962.99,487.99              966.72,484.25 974.33,475.39 974.80,470.00              975.09,466.65 972.43,463.58 970.58,461.00              970.58,461.00 959.00,445.00 959.00,445.00              944.53,424.67 931.69,403.71 919.42,382.00              895.47,339.61 877.81,300.94 864.43,254.00              864.43,254.00 850.00,195.00 850.00,195.00              850.00,195.00 840.12,146.00 840.12,146.00              833.64,121.33 824.69,98.35 795.00,98.15              795.00,98.15 785.00,98.15 785.00,98.15 Z            M 86.00,107.44            C 102.16,105.51 119.28,118.48 132.00,127.00              159.11,145.16 185.26,165.52 211.00,185.58              218.90,191.73 241.36,208.11 246.20,215.00              253.87,225.93 247.41,237.92 241.40,248.00              238.57,252.74 235.91,256.90 231.00,259.77              227.44,261.85 224.02,262.12 220.00,261.96              209.31,261.53 190.83,252.16 181.00,247.25              181.00,247.25 100.00,201.85 100.00,201.85              89.11,195.60 63.56,181.59 56.21,173.00              44.33,159.09 55.69,135.84 64.36,123.00              66.79,119.39 69.68,116.04 73.00,113.21              77.40,109.46 80.49,108.50 86.00,107.44 Z            M 30.00,396.47            C 43.56,394.57 66.80,398.89 81.00,400.87              81.00,400.87 183.00,418.08 183.00,418.08              194.16,419.98 215.72,423.51 221.59,434.01              224.15,438.61 224.05,442.93 224.00,448.00              223.88,457.96 221.08,471.42 212.00,477.00              207.32,479.87 202.28,479.99 197.00,480.00              197.00,480.00 158.00,480.00 158.00,480.00              158.00,480.00 143.00,479.00 143.00,479.00              143.00,479.00 109.00,478.00 109.00,478.00              109.00,478.00 88.00,477.00 88.00,477.00              88.00,477.00 67.00,476.00 67.00,476.00              67.00,476.00 57.00,475.09 57.00,475.09              57.00,475.09 43.00,474.17 43.00,474.17              35.74,473.46 28.60,473.44 22.00,469.64              12.83,464.36 10.12,454.94 10.00,445.00              9.80,427.41 8.47,401.60 30.00,396.47 Z            M 265.00,628.44            C 271.93,627.56 277.21,628.41 282.91,632.79              291.89,639.69 298.57,658.93 295.36,670.00              294.40,673.32 292.34,676.41 289.90,678.83              283.10,685.55 262.26,696.29 253.00,701.31              253.00,701.31 178.00,740.25 178.00,740.25              166.14,746.17 141.42,759.10 129.00,759.91              104.72,761.49 94.59,731.74 93.18,712.00              91.60,689.90 111.03,682.34 128.00,675.60              128.00,675.60 209.00,646.31 209.00,646.31              223.03,641.32 251.47,630.94 265.00,628.44 Z" />
</svg>