<svg xmlns="http://www.w3.org/2000/svg" viewBox="101.41 326.49 799.09 371.1">
  <path id="cnn" fill="#303030" stroke="none" stroke-width="1"
    d="M 344.00,434.00            C 344.00,434.00 285.00,434.00 285.00,434.00              275.08,434.02 265.16,436.20 256.00,440.01              247.66,443.48 239.60,448.94 233.00,455.09              192.44,492.87 202.54,557.51 252.00,582.24              260.44,586.46 271.52,589.89 281.00,590.00              281.00,590.00 352.00,590.00 352.00,590.00              366.31,589.98 368.98,582.99 369.00,570.00              369.00,570.00 369.00,392.00 369.00,392.00              369.05,358.24 399.06,327.40 433.00,327.00              456.64,326.73 475.12,333.32 490.68,352.00              495.45,357.73 504.68,374.63 509.01,382.00              509.01,382.00 556.72,464.00 556.72,464.00              556.72,464.00 572.99,492.00 572.99,492.00              575.78,496.75 578.08,502.09 582.00,506.00              582.00,506.00 582.00,392.00 582.00,392.00              582.06,356.69 612.95,327.05 648.00,327.00              648.00,327.00 654.00,327.00 654.00,327.00              672.91,327.22 691.71,337.57 703.54,352.00              708.75,358.36 714.65,369.57 719.01,377.00              719.01,377.00 771.40,467.00 771.40,467.00              771.40,467.00 785.28,491.00 785.28,491.00              787.89,495.58 791.39,502.40 795.00,506.00              795.00,506.00 795.00,328.00 795.00,328.00              795.00,328.00 838.00,328.00 838.00,328.00              838.00,328.00 838.00,623.00 838.00,623.00              838.00,625.78 838.21,629.42 836.83,631.89              833.51,637.82 825.88,637.76 821.53,632.87              819.27,630.34 814.39,621.43 812.42,618.00              812.42,618.00 796.20,590.00 796.20,590.00              796.20,590.00 747.58,506.00 747.58,506.00              747.58,506.00 697.72,420.00 697.72,420.00              697.72,420.00 689.58,406.00 689.58,406.00              681.20,391.39 671.34,367.50 651.00,369.19              633.83,370.61 625.02,385.05 625.00,401.00              625.00,401.00 625.00,623.00 625.00,623.00              625.00,625.80 625.21,629.40 623.83,631.90              620.39,638.08 612.88,637.78 608.53,632.87              608.53,632.87 599.58,618.00 599.58,618.00              599.58,618.00 583.85,591.00 583.85,591.00              583.85,591.00 484.72,420.00 484.72,420.00              484.72,420.00 472.42,399.00 472.42,399.00              464.72,385.72 456.49,367.66 438.00,369.19              420.74,370.61 412.03,384.96 412.00,401.00              412.00,401.00 412.00,580.00 412.00,580.00              412.00,580.00 412.00,613.00 412.00,613.00              412.00,618.07 412.77,624.59 409.85,628.90              406.30,634.16 401.65,633.99 396.00,634.00              396.00,634.00 281.00,634.00 281.00,634.00              237.69,633.49 194.32,604.98 175.89,566.00              165.41,543.84 163.72,528.01 164.00,504.00              164.11,494.91 167.08,481.66 170.00,473.00              184.22,430.87 217.84,402.01 261.00,392.66              280.34,388.47 322.35,390.00 344.00,390.00              344.00,390.00 344.00,434.00 344.00,434.00 Z            M 474.00,518.00            C 474.00,518.00 474.00,599.00 474.00,599.00              474.00,616.69 475.41,634.90 469.97,652.00              460.38,682.17 433.12,695.95 403.00,696.00              403.00,696.00 316.00,696.00 316.00,696.00              288.78,696.00 269.12,697.09 242.00,690.77              203.26,681.73 168.76,659.44 143.43,629.00              83.77,557.27 89.08,448.00 155.04,382.04              181.86,355.22 220.26,335.37 258.00,330.29              258.00,330.29 277.00,328.91 277.00,328.91              277.00,328.91 289.00,328.00 289.00,328.00              289.00,328.00 344.00,328.00 344.00,328.00              344.00,328.00 344.00,372.00 344.00,372.00              344.00,372.00 282.00,372.00 282.00,372.00              257.34,372.04 229.50,381.61 209.00,395.08              196.06,403.58 185.21,413.92 175.60,426.00              126.41,487.82 139.01,575.23 201.00,623.34              222.13,639.74 253.03,651.96 280.00,652.00              280.00,652.00 320.00,652.00 320.00,652.00              320.00,652.00 400.00,652.00 400.00,652.00              412.90,651.84 425.60,642.56 429.21,630.00              430.10,626.91 430.00,624.17 430.00,621.00              430.00,621.00 430.00,404.00 430.00,404.00              430.01,400.19 429.87,395.41 431.93,392.05              435.57,386.13 442.85,386.17 447.21,391.22              447.21,391.22 456.60,407.00 456.60,407.00              456.60,407.00 478.15,444.00 478.15,444.00              478.15,444.00 553.58,574.00 553.58,574.00              553.58,574.00 579.58,619.00 579.58,619.00              579.58,619.00 594.53,643.99 594.53,643.99              606.88,659.53 629.20,658.00 639.39,641.00              642.65,635.56 642.99,631.11 643.00,625.00              643.00,625.00 643.00,404.00 643.00,404.00              643.01,400.19 642.87,395.41 644.93,392.05              648.57,386.13 655.85,386.17 660.21,391.22              660.21,391.22 671.42,410.00 671.42,410.00              671.42,410.00 691.15,444.00 691.15,444.00              691.15,444.00 769.99,580.00 769.99,580.00              769.99,580.00 793.15,620.00 793.15,620.00              793.15,620.00 807.53,643.97 807.53,643.97              818.83,658.22 839.04,658.51 850.24,643.97              855.16,637.57 855.99,632.77 856.00,625.00              856.00,625.00 856.00,328.00 856.00,328.00              856.00,328.00 900.00,328.00 900.00,328.00              900.00,328.00 900.00,628.00 900.00,628.00              899.94,664.22 872.25,696.56 835.00,697.00              814.68,697.23 795.34,691.47 781.17,675.99              773.71,667.84 762.16,646.48 756.15,636.00              756.15,636.00 709.60,556.00 709.60,556.00              709.60,556.00 687.00,518.00 687.00,518.00              687.00,518.00 687.00,631.00 687.00,631.00              686.91,638.15 685.28,645.25 683.00,652.00              667.06,699.05 608.51,711.07 572.01,679.56              561.77,670.72 547.07,642.90 539.72,630.00              539.72,630.00 501.28,564.00 501.28,564.00              501.28,564.00 474.00,518.00 474.00,518.00 Z" />
</svg>