<svg xmlns="http://www.w3.org/2000/svg" viewBox="-0.5 -0.75 1025 1025.26">
  <path id="codepen" fill="#303030" stroke="none" stroke-width="1"
    d="M 503.00,0.46            C 525.63,-2.67 534.20,4.80 552.00,16.67              552.00,16.67 582.00,36.67 582.00,36.67              582.00,36.67 753.00,150.67 753.00,150.67              753.00,150.67 960.00,288.67 960.00,288.67              960.00,288.67 991.00,309.33 991.00,309.33              1009.71,321.80 1023.96,329.73 1024.00,355.00              1024.00,355.00 1024.00,669.00 1024.00,669.00              1023.96,695.12 1008.20,703.20 989.00,716.00              989.00,716.00 916.00,764.67 916.00,764.67              916.00,764.67 629.00,956.00 629.00,956.00              629.00,956.00 560.00,1002.00 560.00,1002.00              541.01,1014.66 532.79,1024.28 509.00,1024.00              495.24,1023.83 486.88,1017.25 476.00,1010.00              476.00,1010.00 436.00,983.33 436.00,983.33              436.00,983.33 270.00,872.67 270.00,872.67              270.00,872.67 64.00,735.33 64.00,735.33              64.00,735.33 33.00,714.67 33.00,714.67              14.36,702.24 0.04,694.14 0.00,669.00              0.00,669.00 0.00,355.00 0.00,355.00              0.04,328.76 15.73,320.85 35.00,308.00              35.00,308.00 110.00,258.00 110.00,258.00              110.00,258.00 381.00,77.33 381.00,77.33              381.00,77.33 459.00,25.33 459.00,25.33              472.04,16.64 487.90,3.83 503.00,0.46 Z            M 468.00,127.00            C 468.00,127.00 394.00,176.00 394.00,176.00              394.00,176.00 216.00,294.67 216.00,294.67              216.00,294.67 157.00,334.00 157.00,334.00              157.00,334.00 125.00,355.00 125.00,355.00              125.00,355.00 125.00,357.00 125.00,357.00              125.00,357.00 167.00,384.67 167.00,384.67              167.00,384.67 228.00,425.42 228.00,425.42              228.00,425.42 261.00,447.67 261.00,447.67              261.00,447.67 276.00,456.89 276.00,456.89              276.00,456.89 284.00,453.67 284.00,453.67              284.00,453.67 298.00,444.33 298.00,444.33              298.00,444.33 357.00,405.00 357.00,405.00              357.00,405.00 442.00,348.33 442.00,348.33              442.00,348.33 459.00,337.00 459.00,337.00              459.00,337.00 466.98,330.68 466.98,330.68              466.98,330.68 468.00,323.00 468.00,323.00              468.00,323.00 468.00,127.00 468.00,127.00 Z            M 557.00,127.00            C 557.00,127.00 556.00,146.00 556.00,146.00              556.00,146.00 556.00,186.00 556.00,186.00              556.00,186.00 556.00,323.00 556.00,323.00              556.00,323.00 557.02,330.68 557.02,330.68              557.02,330.68 565.00,337.00 565.00,337.00              565.00,337.00 582.00,348.33 582.00,348.33              582.00,348.33 667.00,405.00 667.00,405.00              667.00,405.00 724.00,443.00 724.00,443.00              724.00,443.00 739.00,453.00 739.00,453.00              739.00,453.00 747.00,456.99 747.00,456.99              747.00,456.99 760.00,449.67 760.00,449.67              760.00,449.67 789.00,430.33 789.00,430.33              789.00,430.33 862.00,381.33 862.00,381.33              862.00,381.33 899.00,357.00 899.00,357.00              899.00,357.00 899.00,355.00 899.00,355.00              899.00,355.00 842.00,317.33 842.00,317.33              842.00,317.33 733.00,244.67 733.00,244.67              733.00,244.67 618.00,168.00 618.00,168.00              618.00,168.00 580.00,142.67 580.00,142.67              580.00,142.67 557.00,127.00 557.00,127.00 Z            M 666.00,511.00            C 666.00,511.00 626.00,484.67 626.00,484.67              626.00,484.67 555.00,437.33 555.00,437.33              555.00,437.33 525.00,417.00 525.00,417.00              525.00,417.00 512.00,409.83 512.00,409.83              512.00,409.83 499.00,417.00 499.00,417.00              499.00,417.00 470.00,436.67 470.00,436.67              470.00,436.67 397.00,485.33 397.00,485.33              397.00,485.33 358.00,511.00 358.00,511.00              363.56,517.57 387.46,532.31 396.00,538.00              396.00,538.00 473.00,589.33 473.00,589.33              473.00,589.33 500.00,607.34 500.00,607.34              502.88,609.30 508.68,614.16 512.00,614.17              515.11,614.17 521.29,609.50 524.00,607.66              524.00,607.66 551.00,589.33 551.00,589.33              551.00,589.33 629.00,537.33 629.00,537.33              629.00,537.33 652.00,522.00 652.00,522.00              657.15,518.57 662.13,515.92 666.00,511.00 Z            M 89.00,439.00            C 89.00,439.00 88.00,454.00 88.00,454.00              88.00,454.00 88.00,483.00 88.00,483.00              88.00,483.00 88.00,585.00 88.00,585.00              88.00,585.00 142.00,549.02 142.00,549.02              142.00,549.02 196.00,513.00 196.00,513.00              196.00,513.00 196.00,511.00 196.00,511.00              196.00,511.00 129.00,466.00 129.00,466.00              129.00,466.00 89.00,439.00 89.00,439.00 Z            M 936.00,439.00            C 936.00,439.00 900.00,462.67 900.00,462.67              900.00,462.67 828.00,511.00 828.00,511.00              828.00,511.00 828.00,513.00 828.00,513.00              828.00,513.00 893.00,556.34 893.00,556.34              893.00,556.34 936.00,585.00 936.00,585.00              936.00,585.00 936.00,439.00 936.00,439.00 Z            M 468.00,897.00            C 468.00,897.00 468.00,701.00 468.00,701.00              468.00,701.00 466.98,693.32 466.98,693.32              466.98,693.32 459.00,687.00 459.00,687.00              459.00,687.00 441.00,675.00 441.00,675.00              441.00,675.00 355.00,617.67 355.00,617.67              355.00,617.67 299.00,580.00 299.00,580.00              299.00,580.00 285.00,570.67 285.00,570.67              285.00,570.67 277.00,566.92 277.00,566.92              277.00,566.92 264.00,574.33 264.00,574.33              264.00,574.33 235.00,593.67 235.00,593.67              235.00,593.67 162.00,642.67 162.00,642.67              162.00,642.67 125.00,667.00 125.00,667.00              125.00,667.00 125.00,669.00 125.00,669.00              125.00,669.00 199.00,718.00 199.00,718.00              199.00,718.00 377.00,836.67 377.00,836.67              377.00,836.67 436.00,876.00 436.00,876.00              436.00,876.00 468.00,897.00 468.00,897.00 Z            M 899.00,667.00            C 899.00,667.00 862.00,642.67 862.00,642.67              862.00,642.67 789.00,593.67 789.00,593.67              789.00,593.67 760.00,574.33 760.00,574.33              760.00,574.33 747.00,566.92 747.00,566.92              747.00,566.92 739.00,570.67 739.00,570.67              739.00,570.67 725.00,580.33 725.00,580.33              725.00,580.33 669.00,617.67 669.00,617.67              669.00,617.67 583.00,675.00 583.00,675.00              583.00,675.00 565.00,687.00 565.00,687.00              565.00,687.00 557.02,693.32 557.02,693.32              557.02,693.32 556.00,701.00 556.00,701.00              556.00,701.00 556.00,897.00 556.00,897.00              556.00,897.00 588.00,876.00 588.00,876.00              588.00,876.00 647.00,836.67 647.00,836.67              647.00,836.67 825.00,718.00 825.00,718.00              825.00,718.00 899.00,669.00 899.00,669.00              899.00,669.00 899.00,667.00 899.00,667.00 Z" />
</svg>