<svg xmlns="http://www.w3.org/2000/svg" viewBox="-0.5 -0.5 2183 2049">
  <path id="commodore" fill="#303030" stroke="none" stroke-width="1" d="M 1310.00,1479.00            C 1310.00,1479.00 1310.00,2000.00 1310.00,2000.00              1310.00,2002.41 1310.42,2006.15 1308.43,2007.86              1306.99,2009.10 1296.55,2011.70 1294.00,2012.42              1294.00,2012.42 1257.00,2021.79 1257.00,2021.79              1214.15,2031.05 1171.65,2038.80 1128.00,2043.17              1128.00,2043.17 1092.00,2046.09 1092.00,2046.09              1092.00,2046.09 1079.00,2047.00 1079.00,2047.00              1079.00,2047.00 1062.00,2048.00 1062.00,2048.00              1062.00,2048.00 987.00,2048.00 987.00,2048.00              987.00,2048.00 967.00,2047.00 967.00,2047.00              967.00,2047.00 956.00,2046.09 956.00,2046.09              956.00,2046.09 902.00,2041.16 902.00,2041.16              829.74,2033.43 748.45,2013.67 680.00,1989.31              452.30,1908.28 259.85,1749.22 138.42,1540.00              89.43,1455.59 55.63,1371.27 30.88,1277.00              17.12,1224.59 9.04,1170.83 3.83,1117.00              3.83,1117.00 1.00,1078.00 1.00,1078.00              1.00,1078.00 0.00,1061.00 0.00,1061.00              0.00,1061.00 0.00,987.00 0.00,987.00              0.00,987.00 1.00,966.00 1.00,966.00              1.00,966.00 1.96,955.00 1.96,955.00              1.96,955.00 7.72,894.00 7.72,894.00              14.41,842.70 24.39,792.76 38.58,743.00              105.30,508.94 251.08,308.74 453.00,172.67              531.34,119.87 612.87,81.64 702.00,51.08              762.18,30.44 830.91,15.95 894.00,7.72              894.00,7.72 955.00,1.96 955.00,1.96              955.00,1.96 966.00,1.00 966.00,1.00              966.00,1.00 986.00,0.00 986.00,0.00              986.00,0.00 1064.00,0.00 1064.00,0.00              1064.00,0.00 1082.00,1.00 1082.00,1.00              1082.00,1.00 1092.00,1.91 1092.00,1.91              1092.00,1.91 1168.00,9.58 1168.00,9.58              1204.80,15.03 1240.91,22.10 1277.00,31.13              1277.00,31.13 1300.00,37.29 1300.00,37.29              1302.30,37.94 1307.60,38.91 1309.01,40.72              1310.26,42.33 1310.00,46.00 1310.00,48.00              1310.00,48.00 1310.00,569.00 1310.00,569.00              1303.25,567.39 1289.03,557.76 1282.00,553.86              1282.00,553.86 1234.00,530.43 1234.00,530.43              1194.30,513.49 1153.54,501.72 1111.00,494.59              1111.00,494.59 1063.00,488.91 1063.00,488.91              1063.00,488.91 1053.00,488.00 1053.00,488.00              1053.00,488.00 1016.00,487.00 1016.00,487.00              1016.00,487.00 997.00,488.00 997.00,488.00              997.00,488.00 985.00,488.91 985.00,488.91              957.77,490.82 930.59,494.80 904.00,501.12              812.38,522.87 729.12,565.69 660.00,630.09              609.82,676.84 568.10,732.95 538.78,795.00              510.12,855.66 488.78,934.76 488.00,1002.00              488.00,1002.00 487.00,1017.00 487.00,1017.00              487.00,1017.00 488.00,1053.00 488.00,1053.00              488.00,1053.00 488.91,1063.00 488.91,1063.00              490.72,1089.32 494.52,1115.23 500.35,1141.00              519.03,1223.51 556.65,1300.97 610.92,1366.00              645.72,1407.71 689.03,1446.83 735.00,1475.95              803.16,1519.12 878.89,1546.73 959.00,1556.72              959.00,1556.72 1002.00,1560.00 1002.00,1560.00              1002.00,1560.00 1019.00,1561.00 1019.00,1561.00              1019.00,1561.00 1053.00,1560.00 1053.00,1560.00              1053.00,1560.00 1074.00,1558.17 1074.00,1558.17              1109.16,1554.65 1142.01,1548.27 1176.00,1538.57              1202.75,1530.94 1239.32,1516.47 1264.00,1503.74              1264.00,1503.74 1292.00,1488.40 1292.00,1488.40              1297.61,1485.07 1303.67,1480.51 1310.00,1479.00 Z            M 1309.00,570.00            C 1309.00,570.00 2182.00,570.00 2182.00,570.00              2182.00,570.00 2171.00,583.00 2171.00,583.00              2171.00,583.00 2153.00,601.00 2153.00,601.00              2153.00,601.00 2089.00,665.00 2089.00,665.00              2089.00,665.00 1873.00,881.00 1873.00,881.00              1873.00,881.00 1803.00,951.00 1803.00,951.00              1803.00,951.00 1788.00,966.00 1788.00,966.00              1788.00,966.00 1779.00,973.40 1779.00,973.40              1779.00,973.40 1772.00,974.00 1772.00,974.00              1772.00,974.00 1309.00,974.00 1309.00,974.00              1309.00,974.00 1309.00,570.00 1309.00,570.00 Z            M 1309.00,1074.00            C 1309.00,1074.00 1772.00,1074.00 1772.00,1074.00              1772.00,1074.00 1779.00,1074.60 1779.00,1074.60              1779.00,1074.60 1788.00,1082.00 1788.00,1082.00              1788.00,1082.00 1803.00,1097.00 1803.00,1097.00              1803.00,1097.00 1873.00,1167.00 1873.00,1167.00              1873.00,1167.00 2089.00,1383.00 2089.00,1383.00              2089.00,1383.00 2153.00,1447.00 2153.00,1447.00              2153.00,1447.00 2171.00,1465.00 2171.00,1465.00              2171.00,1465.00 2182.00,1478.00 2182.00,1478.00              2182.00,1478.00 1309.00,1478.00 1309.00,1478.00              1309.00,1478.00 1309.00,1074.00 1309.00,1074.00 Z"/>
</svg>