<svg xmlns="http://www.w3.org/2000/svg" viewBox="890.4 20.58 779.11 715.95">
  <path id="compaq" fill="#303030" stroke="none" stroke-width="1"
    d="M 1038.00,21.08            C 1038.00,21.08 1078.00,21.08 1078.00,21.08              1078.00,21.08 1151.00,21.08 1151.00,21.08              1151.00,21.08 1375.00,21.08 1375.00,21.08              1375.00,21.08 1448.00,21.08 1448.00,21.08              1480.80,21.05 1517.84,36.79 1543.00,57.26              1572.26,81.07 1593.10,114.94 1600.55,152.00              1604.97,173.94 1604.00,194.80 1604.00,217.00              1604.00,217.00 1604.00,303.00 1604.00,303.00              1603.99,310.64 1602.58,320.72 1600.25,328.00              1589.60,361.34 1559.18,376.38 1526.00,376.00              1486.31,375.53 1454.19,346.42 1454.00,306.00              1454.00,306.00 1454.00,191.00 1454.00,191.00              1453.97,174.87 1446.25,170.02 1431.00,170.00              1431.00,170.00 1131.00,170.00 1131.00,170.00              1131.00,170.00 1076.00,170.00 1076.00,170.00              1068.87,170.00 1056.14,169.09 1050.00,172.05              1041.13,176.32 1040.01,184.22 1040.00,193.00              1040.00,193.00 1040.00,400.00 1040.00,400.00              1040.00,400.00 1040.00,434.00 1040.00,434.00              1040.00,439.50 1039.57,448.00 1041.70,453.00              1045.22,461.26 1051.99,462.99 1060.00,463.00              1060.00,463.00 1477.00,463.00 1477.00,463.00              1503.68,463.04 1531.53,471.78 1552.00,489.30              1567.13,502.24 1592.32,536.76 1605.65,554.00              1605.65,554.00 1640.65,599.00 1640.65,599.00              1658.71,622.34 1669.36,633.02 1669.00,664.00              1668.63,695.16 1642.53,723.08 1614.00,732.48              1603.28,736.01 1597.00,736.13 1586.00,736.00              1569.78,735.81 1552.50,727.15 1541.17,715.83              1535.58,710.25 1527.68,699.55 1522.58,693.00              1522.58,693.00 1487.42,648.00 1487.42,648.00              1487.42,648.00 1470.35,626.00 1470.35,626.00              1467.44,622.24 1463.24,616.39 1459.00,614.31              1455.94,612.82 1452.32,613.01 1449.00,613.00              1449.00,613.00 1049.00,613.00 1049.00,613.00              1038.26,612.98 1025.44,610.74 1015.00,608.13              960.86,594.59 918.71,555.34 899.95,503.00              895.53,490.66 891.16,472.07 891.00,459.00              891.00,459.00 891.00,284.00 891.00,284.00              891.00,284.00 891.00,208.00 891.00,208.00              891.00,180.41 889.57,164.33 897.72,137.00              906.60,107.21 922.72,84.29 945.00,63.00              955.58,52.89 969.89,43.76 983.00,37.25              1001.34,28.13 1017.95,24.33 1038.00,21.08 Z" />
</svg>