<svg xmlns="http://www.w3.org/2000/svg" viewBox="19.5 20.58 2520.96 1231.91">
  <path id="compaq-wordmark" fill="#303030" stroke="none" stroke-width="1"
    d="M 1038.00,21.08            C 1038.00,21.08 1078.00,21.08 1078.00,21.08              1078.00,21.08 1151.00,21.08 1151.00,21.08              1151.00,21.08 1375.00,21.08 1375.00,21.08              1375.00,21.08 1448.00,21.08 1448.00,21.08              1480.80,21.05 1517.84,36.79 1543.00,57.26              1572.26,81.07 1593.10,114.94 1600.55,152.00              1604.97,173.94 1604.00,194.80 1604.00,217.00              1604.00,217.00 1604.00,303.00 1604.00,303.00              1603.99,310.64 1602.58,320.72 1600.25,328.00              1589.60,361.34 1559.18,376.38 1526.00,376.00              1486.31,375.53 1454.19,346.42 1454.00,306.00              1454.00,306.00 1454.00,191.00 1454.00,191.00              1453.97,174.87 1446.25,170.02 1431.00,170.00              1431.00,170.00 1131.00,170.00 1131.00,170.00              1131.00,170.00 1076.00,170.00 1076.00,170.00              1068.87,170.00 1056.14,169.09 1050.00,172.05              1041.13,176.32 1040.01,184.22 1040.00,193.00              1040.00,193.00 1040.00,400.00 1040.00,400.00              1040.00,400.00 1040.00,434.00 1040.00,434.00              1040.00,439.50 1039.57,448.00 1041.70,453.00              1045.22,461.26 1051.99,462.99 1060.00,463.00              1060.00,463.00 1477.00,463.00 1477.00,463.00              1503.68,463.04 1531.53,471.78 1552.00,489.30              1567.13,502.24 1592.32,536.76 1605.65,554.00              1605.65,554.00 1640.65,599.00 1640.65,599.00              1658.71,622.34 1669.36,633.02 1669.00,664.00              1668.63,695.16 1642.53,723.08 1614.00,732.48              1603.28,736.01 1597.00,736.13 1586.00,736.00              1569.78,735.81 1552.50,727.15 1541.17,715.83              1535.58,710.25 1527.68,699.55 1522.58,693.00              1522.58,693.00 1487.42,648.00 1487.42,648.00              1487.42,648.00 1470.35,626.00 1470.35,626.00              1467.44,622.24 1463.24,616.39 1459.00,614.31              1455.94,612.82 1452.32,613.01 1449.00,613.00              1449.00,613.00 1049.00,613.00 1049.00,613.00              1038.26,612.98 1025.44,610.74 1015.00,608.13              960.86,594.59 918.71,555.34 899.95,503.00              895.53,490.66 891.16,472.07 891.00,459.00              891.00,459.00 891.00,284.00 891.00,284.00              891.00,284.00 891.00,208.00 891.00,208.00              891.00,180.41 889.57,164.33 897.72,137.00              906.60,107.21 922.72,84.29 945.00,63.00              955.58,52.89 969.89,43.76 983.00,37.25              1001.34,28.13 1017.95,24.33 1038.00,21.08 Z            M 96.00,886.11            C 96.00,886.11 124.00,886.11 124.00,886.11              124.00,886.11 173.00,886.11 173.00,886.11              173.00,886.11 321.00,886.11 321.00,886.11              331.57,886.02 340.81,888.09 348.83,895.46              363.69,909.13 363.89,938.56 349.82,952.83              342.22,960.54 332.48,962.98 322.00,963.00              322.00,963.00 149.00,963.00 149.00,963.00              149.00,963.00 116.00,963.00 116.00,963.00              111.77,963.00 104.58,962.32 101.11,964.74              96.67,967.82 97.01,972.23 97.14,977.00              97.14,977.00 97.14,1080.00 97.14,1080.00              97.14,1080.00 97.14,1105.00 97.14,1105.00              98.04,1107.21 99.21,1108.94 101.11,1110.26              104.00,1112.27 107.66,1111.99 111.00,1112.00              111.00,1112.00 322.00,1112.00 322.00,1112.00              348.01,1112.04 360.29,1128.08 360.00,1153.00              359.72,1176.10 343.08,1188.97 321.00,1189.00              321.00,1189.00 104.00,1189.00 104.00,1189.00              59.17,1188.93 20.07,1152.47 20.00,1107.00              20.00,1107.00 20.00,968.00 20.00,968.00              20.05,937.46 38.88,908.61 66.00,894.97              77.17,889.35 83.97,888.24 96.00,886.11 Z            M 470.00,886.14            C 470.00,886.14 540.00,886.14 540.00,886.14              540.00,886.14 676.00,886.14 676.00,886.14              720.55,886.07 758.93,923.16 759.00,968.00              759.00,968.00 759.00,1107.00 759.00,1107.00              758.93,1152.58 719.96,1188.93 675.00,1189.00              675.00,1189.00 477.00,1189.00 477.00,1189.00              433.72,1188.80 395.07,1151.60 395.00,1108.00              395.00,1108.00 395.00,967.00 395.00,967.00              395.05,936.72 414.82,907.20 442.00,894.32              451.64,889.75 459.59,888.00 470.00,886.14 Z            M 1039.00,911.00            C 1049.72,896.35 1074.00,886.21 1092.00,886.00              1092.00,886.00 1185.00,886.00 1185.00,886.00              1218.92,886.40 1251.13,909.92 1262.00,942.00              1265.06,951.04 1266.99,961.45 1267.00,971.00              1267.00,971.00 1267.00,1148.00 1267.00,1148.00              1266.96,1171.81 1253.58,1187.97 1229.00,1188.00              1205.82,1188.03 1190.04,1174.92 1190.00,1151.00              1190.00,1151.00 1190.00,1007.00 1190.00,1007.00              1190.00,1007.00 1190.00,976.00 1190.00,976.00              1189.95,972.52 1189.89,969.03 1187.49,966.23              1184.42,962.63 1180.27,963.01 1176.00,963.00              1176.00,963.00 1102.00,963.00 1102.00,963.00              1094.58,963.00 1081.02,960.69 1077.74,969.02              1076.87,971.22 1077.00,974.61 1077.00,977.00              1077.00,977.00 1077.00,1149.00 1077.00,1149.00              1076.96,1174.94 1061.26,1188.29 1036.00,1188.00              1013.61,1187.73 1000.03,1171.68 1000.00,1150.00              1000.00,1150.00 1000.00,1007.00 1000.00,1007.00              1000.00,1007.00 1000.00,976.00 1000.00,976.00              999.98,972.38 1000.15,969.13 997.57,966.23              994.40,962.65 990.33,963.01 986.00,963.00              986.00,963.00 912.00,963.00 912.00,963.00              904.58,963.00 891.02,960.69 887.74,969.02              886.87,971.22 887.00,974.61 887.00,977.00              887.00,977.00 887.00,1149.00 887.00,1149.00              886.99,1156.16 886.03,1163.65 882.47,1170.00              870.56,1191.28 837.25,1194.18 820.30,1177.56              812.26,1169.68 810.02,1159.86 810.00,1149.00              810.00,1149.00 810.00,967.00 810.00,967.00              810.11,958.27 813.07,944.91 816.78,937.00              821.06,927.88 824.60,921.68 831.29,914.00              846.30,896.76 870.16,886.04 893.00,886.00              893.00,886.00 911.00,886.00 911.00,886.00              911.00,886.00 946.00,886.00 946.00,886.00              966.59,886.00 991.94,883.73 1011.00,891.45              1022.20,895.99 1030.49,902.57 1039.00,911.00 Z            M 1395.00,1115.00            C 1395.00,1115.00 1395.00,1139.00 1395.00,1139.00              1395.00,1153.61 1396.34,1166.51 1384.83,1177.82              1369.15,1193.22 1338.98,1191.31 1325.39,1174.00              1319.65,1166.69 1318.01,1158.04 1318.00,1149.00              1318.00,1149.00 1318.00,970.00 1318.00,970.00              1318.07,922.94 1356.27,886.07 1403.00,886.00              1403.00,886.00 1563.00,886.00 1563.00,886.00              1599.12,886.00 1626.89,882.03 1655.91,908.73              1673.96,925.34 1682.71,948.76 1683.00,973.00              1683.00,973.00 1683.00,1010.00 1683.00,1010.00              1683.00,1021.66 1683.37,1033.44 1681.56,1045.00              1678.40,1065.17 1667.03,1084.70 1651.00,1097.33              1644.34,1102.58 1637.83,1106.22 1630.00,1109.40              1621.29,1112.92 1612.42,1114.99 1603.00,1115.00              1603.00,1115.00 1395.00,1115.00 1395.00,1115.00 Z            M 1803.00,1115.00            C 1803.00,1115.00 1803.00,1138.00 1803.00,1138.00              1803.00,1152.31 1804.28,1166.75 1792.83,1177.70              1777.28,1192.57 1747.71,1191.74 1733.92,1174.83              1727.71,1167.21 1726.01,1158.56 1726.00,1149.00              1726.00,1149.00 1726.00,970.00 1726.00,970.00              1726.07,924.51 1763.19,886.07 1809.00,886.00              1809.00,886.00 2007.00,886.00 2007.00,886.00              2041.25,886.05 2071.72,907.32 2084.55,939.00              2089.34,950.83 2089.03,955.04 2090.17,967.00              2090.17,967.00 2091.00,978.00 2091.00,978.00              2091.00,978.00 2091.00,1143.00 2091.00,1143.00              2090.98,1154.32 2089.68,1167.22 2081.82,1175.99              2066.03,1193.57 2032.30,1192.07 2019.11,1172.00              2014.09,1164.37 2013.01,1152.02 2013.00,1143.00              2013.00,1143.00 2013.00,1115.00 2013.00,1115.00              2013.00,1115.00 1803.00,1115.00 1803.00,1115.00 Z            M 2220.00,886.14            C 2220.00,886.14 2278.00,886.14 2278.00,886.14              2278.00,886.14 2388.00,886.14 2388.00,886.14              2421.28,886.00 2448.20,882.67 2476.00,905.46              2493.68,919.96 2505.96,942.92 2506.00,966.00              2506.00,966.00 2506.00,1012.00 2506.00,1012.00              2506.00,1012.00 2506.00,1034.00 2506.00,1034.00              2505.73,1056.87 2486.99,1068.24 2466.00,1068.00              2460.83,1067.94 2457.90,1067.30 2453.00,1065.64              2423.64,1055.73 2429.00,1021.51 2429.00,997.00              2429.00,997.00 2429.00,974.00 2429.00,974.00              2428.94,970.96 2428.92,968.64 2426.69,966.28              2423.35,962.74 2418.45,963.01 2414.00,963.00              2414.00,963.00 2264.00,963.00 2264.00,963.00              2264.00,963.00 2233.00,963.00 2233.00,963.00              2229.14,963.02 2225.47,962.95 2222.34,965.65              2218.70,968.79 2219.01,972.65 2219.14,977.00              2219.14,977.00 2219.14,1080.00 2219.14,1080.00              2219.14,1080.00 2219.14,1105.00 2219.14,1105.00              2220.04,1107.21 2221.21,1108.94 2223.11,1110.26              2226.00,1112.27 2229.66,1111.99 2233.00,1112.00              2233.00,1112.00 2441.00,1112.00 2441.00,1112.00              2454.59,1112.02 2468.30,1115.79 2479.00,1124.47              2488.47,1132.15 2498.02,1146.09 2505.79,1156.00              2505.79,1156.00 2524.42,1180.00 2524.42,1180.00              2532.36,1190.18 2540.71,1200.21 2539.91,1214.00              2538.67,1235.19 2519.27,1252.79 2498.00,1251.96              2479.82,1251.25 2472.97,1240.98 2462.79,1228.00              2462.79,1228.00 2447.21,1208.00 2447.21,1208.00              2443.75,1203.59 2435.67,1191.57 2430.99,1189.74              2428.76,1188.87 2425.41,1189.00 2423.00,1189.00              2423.00,1189.00 2224.00,1189.00 2224.00,1189.00              2180.02,1188.93 2142.07,1151.02 2142.00,1107.00              2142.00,1107.00 2142.00,969.00 2142.00,969.00              2142.04,940.41 2158.21,912.23 2183.00,897.87              2196.44,890.09 2205.09,888.59 2220.00,886.14 Z            M 479.00,963.11            C 471.83,965.46 471.09,969.11 471.00,976.00              471.00,976.00 471.00,1038.00 471.00,1038.00              471.00,1038.00 471.00,1100.00 471.00,1100.00              471.13,1110.63 474.09,1111.98 484.00,1112.00              484.00,1112.00 584.00,1112.00 584.00,1112.00              584.00,1112.00 669.00,1112.00 669.00,1112.00              680.76,1111.98 681.98,1109.38 682.00,1098.00              682.00,1098.00 682.00,995.00 682.00,995.00              682.00,990.29 682.54,972.23 681.26,969.02              680.55,967.23 679.49,965.93 677.89,964.85              674.78,962.77 670.59,963.01 667.00,963.11              667.00,963.11 543.00,963.11 543.00,963.11              543.00,963.11 479.00,963.11 479.00,963.11 Z            M 1395.00,1038.00            C 1395.00,1038.00 1488.00,1038.00 1488.00,1038.00              1488.00,1038.00 1577.00,1038.00 1577.00,1038.00              1577.00,1038.00 1595.00,1038.00 1595.00,1038.00              1598.06,1037.95 1601.06,1038.03 1603.30,1035.57              1606.16,1032.42 1605.99,1026.98 1606.00,1023.00              1606.00,1023.00 1606.00,984.00 1606.00,984.00              1606.00,979.34 1606.70,970.92 1604.15,967.11              1601.15,962.63 1596.74,963.01 1592.00,963.00              1592.00,963.00 1441.00,963.00 1441.00,963.00              1441.00,963.00 1408.00,963.00 1408.00,963.00              1404.86,963.01 1400.88,962.71 1398.28,964.74              1394.64,967.57 1395.01,972.88 1395.00,977.00              1395.00,977.00 1395.00,1038.00 1395.00,1038.00 Z            M 2014.00,1039.00            C 2014.00,1039.00 2014.00,976.00 2014.00,976.00              2013.86,965.00 2010.31,963.02 2000.00,963.00              2000.00,963.00 1903.00,963.00 1903.00,963.00              1903.00,963.00 1828.00,963.00 1828.00,963.00              1820.58,963.00 1807.02,960.69 1803.74,969.02              1802.87,971.22 1803.00,974.61 1803.00,977.00              1803.00,977.00 1803.00,1039.00 1803.00,1039.00              1803.00,1039.00 2014.00,1039.00 2014.00,1039.00 Z" />
</svg>