<svg xmlns="http://www.w3.org/2000/svg" viewBox="54.5 53.5 890 211">
  <path id="corsair-wordmark-horizontal" fill="#303030" stroke="none" stroke-width="1"
    d="M 174.00,54.00            C 180.70,56.13 189.25,62.82 195.00,67.13              210.81,78.96 227.09,92.24 236.51,110.00              241.18,118.80 245.67,134.78 238.00,143.00              235.61,137.93 234.84,135.57 231.18,131.01              222.26,119.91 201.78,108.72 188.00,105.00              188.00,92.67 185.90,85.47 181.58,74.00              179.42,68.28 175.00,59.33 174.00,54.00 Z            M 127.00,87.00            C 133.01,89.30 141.36,95.58 147.00,99.33              149.97,101.32 155.24,104.47 157.30,107.18              160.77,111.75 165.49,130.90 166.00,137.00              166.00,137.00 139.00,127.00 139.00,127.00              141.07,117.64 135.79,105.33 131.63,97.00              129.52,92.77 128.42,91.86 127.00,87.00 Z            M 161.00,93.00            C 168.48,95.91 186.63,110.55 194.00,116.13              194.00,116.13 215.00,132.75 215.00,132.75              230.04,145.17 244.96,157.54 258.07,172.00              265.50,180.19 272.86,188.42 273.00,200.00              273.11,209.21 273.30,213.13 269.94,222.00              268.04,227.00 265.61,232.03 262.00,236.00              250.89,218.22 234.83,217.97 216.00,218.00              204.89,218.02 188.03,221.14 177.00,223.58              151.49,229.21 126.44,237.20 102.00,246.42              102.00,246.42 75.00,256.86 75.00,256.86              68.97,259.35 61.35,263.33 55.00,264.00              55.00,264.00 68.55,245.00 68.55,245.00              77.83,229.40 85.58,205.29 83.83,187.00              83.03,178.61 81.71,170.09 79.28,162.00              79.28,162.00 74.00,146.00 74.00,146.00              74.00,146.00 109.00,163.78 109.00,163.78              112.32,165.53 119.48,168.74 120.94,172.21              124.30,180.75 119.84,211.30 120.94,217.00              120.94,217.00 124.63,204.00 124.63,204.00              126.94,194.76 129.55,178.36 128.91,169.00              128.28,159.70 127.05,150.00 124.58,141.00              124.58,141.00 118.00,120.00 118.00,120.00              118.00,120.00 155.00,144.00 155.00,144.00              158.74,146.50 166.82,150.95 168.40,155.04              169.15,156.98 168.99,161.54 169.28,164.00              170.43,173.67 169.88,183.34 168.72,193.00              168.04,198.59 166.43,204.40 167.00,210.00              167.00,210.00 171.67,196.00 171.67,196.00              175.25,185.26 177.98,171.32 178.00,160.00              178.02,145.48 176.11,130.78 171.31,117.00              171.31,117.00 161.00,93.00 161.00,93.00 Z            M 83.00,115.00            C 87.20,116.82 108.17,127.87 110.58,130.39              114.47,134.44 118.73,151.17 119.00,157.00              119.00,157.00 95.00,151.00 95.00,151.00              95.00,141.53 94.77,138.84 90.69,130.00              88.32,124.85 84.72,120.40 83.00,115.00 Z            M 373.00,141.00            C 367.30,135.81 360.97,131.39 353.00,131.04              339.81,130.46 329.02,139.35 325.76,152.00              321.65,167.94 332.98,186.21 350.00,186.96              356.00,187.22 359.80,186.10 365.00,183.12              366.89,182.04 371.41,178.62 373.00,178.30              376.31,177.63 381.90,183.00 382.66,185.99              383.70,190.01 375.98,194.58 373.00,196.20              362.46,201.93 348.45,203.36 337.00,199.64              297.70,186.87 299.85,126.43 340.00,117.67              342.99,117.01 350.07,115.97 353.00,116.18              361.04,116.76 369.08,118.69 376.00,122.93              378.09,124.20 381.67,126.50 382.13,129.09              382.61,131.86 379.68,135.13 377.91,136.96              376.38,138.53 374.77,139.73 373.00,141.00 Z            M 448.00,116.43            C 452.49,115.98 453.65,116.39 458.00,117.00              493.76,122.06 502.16,161.71 486.21,184.00              477.75,195.82 467.01,200.36 453.00,201.70              449.60,202.03 448.24,201.54 445.00,201.15              426.40,198.93 411.88,186.93 408.23,168.00              407.84,164.55 407.96,159.59 408.23,156.00              408.09,148.89 409.81,143.18 413.34,137.00              421.46,122.75 432.76,118.61 448.00,116.43 Z            M 628.00,177.00            C 637.28,180.93 644.89,189.16 657.00,187.34              664.96,186.15 671.67,178.83 665.58,172.39              657.82,164.17 632.03,166.73 624.97,151.00              623.92,148.66 623.25,145.56 623.09,143.00              622.27,129.61 630.88,119.51 644.00,117.16              644.00,117.16 654.00,117.16 654.00,117.16              661.16,117.03 667.62,118.44 674.00,121.79              676.08,122.87 679.63,124.69 680.18,127.18              680.84,130.20 675.75,136.40 674.00,139.00              666.76,135.51 657.48,129.03 649.00,130.72              642.63,131.99 635.78,138.54 641.31,144.79              644.53,148.42 651.40,150.17 656.00,151.37              666.46,154.10 679.21,157.43 682.94,169.00              683.89,171.93 684.09,174.94 683.96,178.00              682.87,203.07 651.90,204.83 634.00,197.55              628.31,195.23 624.92,192.48 620.00,189.00              620.00,189.00 628.00,177.00 628.00,177.00 Z            M 707.00,200.00            C 707.00,200.00 715.72,178.00 715.72,178.00              715.72,178.00 734.14,136.00 734.14,136.00              734.14,136.00 742.70,117.99 742.70,117.99              742.70,117.99 748.00,117.00 748.00,117.00              748.00,117.00 756.35,117.99 756.35,117.99              756.35,117.99 765.58,137.00 765.58,137.00              765.58,137.00 793.00,200.00 793.00,200.00              790.13,200.00 779.36,200.36 777.39,199.43              774.15,197.90 769.69,184.69 769.00,181.00              769.00,181.00 743.00,181.00 743.00,181.00              740.19,181.00 733.62,180.56 731.41,182.02              728.75,183.78 723.98,196.54 723.00,200.00              723.00,200.00 707.00,200.00 707.00,200.00 Z            M 526.00,118.00            C 526.00,118.00 557.00,118.00 557.00,118.00              566.65,118.00 574.45,117.42 583.00,123.11              598.61,133.50 596.93,162.73 575.00,169.00              575.00,169.00 596.00,200.00 596.00,200.00              596.00,200.00 583.00,200.00 583.00,200.00              581.14,199.96 579.16,200.05 577.52,199.01              577.52,199.01 558.82,174.31 558.82,174.31              554.82,170.90 546.15,172.00 541.00,172.00              541.00,172.00 541.00,200.00 541.00,200.00              541.00,200.00 526.00,200.00 526.00,200.00              526.00,200.00 526.00,118.00 526.00,118.00 Z            M 822.00,118.00            C 822.00,118.00 837.00,118.00 837.00,118.00              837.00,118.00 837.00,200.00 837.00,200.00              837.00,200.00 822.00,200.00 822.00,200.00              822.00,200.00 822.00,118.00 822.00,118.00 Z            M 874.00,118.00            C 874.00,118.00 905.00,118.00 905.00,118.00              914.20,118.00 921.69,117.41 930.00,122.48              945.12,131.71 947.08,160.43 923.00,169.00              923.00,169.00 944.00,200.00 944.00,200.00              944.00,200.00 931.00,200.00 931.00,200.00              929.09,199.96 927.16,200.04 925.46,199.01              925.46,199.01 906.68,174.31 906.68,174.31              902.86,170.89 894.02,172.00 889.00,172.00              889.00,172.00 889.00,200.00 889.00,200.00              889.00,200.00 874.00,200.00 874.00,200.00              874.00,200.00 874.00,118.00 874.00,118.00 Z            M 445.00,131.33            C 415.68,138.35 418.29,180.39 444.00,186.50              447.34,187.09 452.62,187.24 456.00,186.50              476.60,183.21 483.83,158.02 472.36,142.00              465.34,132.19 456.37,130.07 445.00,131.33 Z            M 541.00,158.00            C 548.11,158.00 565.40,159.19 570.98,155.91              580.10,150.57 579.92,137.95 569.99,133.53              564.42,131.06 547.85,132.00 541.00,132.00              541.00,132.00 541.00,158.00 541.00,158.00 Z            M 889.00,158.00            C 896.42,158.00 913.06,159.33 918.98,155.77              927.60,150.60 927.09,137.97 918.00,133.57              912.83,131.07 895.57,132.00 889.00,132.00              889.00,132.00 889.00,158.00 889.00,158.00 Z            M 750.00,137.00            C 746.45,141.49 738.07,161.26 737.00,167.00              737.00,167.00 762.00,167.00 762.00,167.00              762.00,167.00 750.00,137.00 750.00,137.00 Z" />
</svg>