<svg xmlns="http://www.w3.org/2000/svg" viewBox="54.5 53.5 219.05 211">
  <path id="corsair" fill="#303030" stroke="none" stroke-width="1" d="M 174.00,54.00            C 180.70,56.13 189.25,62.82 195.00,67.13              210.81,78.96 227.09,92.24 236.51,110.00              241.18,118.80 245.67,134.78 238.00,143.00              235.61,137.93 234.84,135.57 231.18,131.01              222.26,119.91 201.78,108.72 188.00,105.00              188.00,92.67 185.90,85.47 181.58,74.00              179.42,68.28 175.00,59.33 174.00,54.00 Z            M 127.00,87.00            C 133.01,89.30 141.36,95.58 147.00,99.33              149.97,101.32 155.24,104.47 157.30,107.18              160.77,111.75 165.49,130.90 166.00,137.00              166.00,137.00 139.00,127.00 139.00,127.00              141.07,117.64 135.79,105.33 131.63,97.00              129.52,92.77 128.42,91.86 127.00,87.00 Z            M 161.00,93.00            C 168.48,95.91 186.63,110.55 194.00,116.13              194.00,116.13 215.00,132.75 215.00,132.75              230.04,145.17 244.96,157.54 258.07,172.00              265.50,180.19 272.86,188.42 273.00,200.00              273.11,209.21 273.30,213.13 269.94,222.00              268.04,227.00 265.61,232.03 262.00,236.00              250.89,218.22 234.83,217.97 216.00,218.00              204.89,218.02 188.03,221.14 177.00,223.58              151.49,229.21 126.44,237.20 102.00,246.42              102.00,246.42 75.00,256.86 75.00,256.86              68.97,259.35 61.35,263.33 55.00,264.00              55.00,264.00 68.55,245.00 68.55,245.00              77.83,229.40 85.58,205.29 83.83,187.00              83.03,178.61 81.71,170.09 79.28,162.00              79.28,162.00 74.00,146.00 74.00,146.00              74.00,146.00 109.00,163.78 109.00,163.78              112.32,165.53 119.48,168.74 120.94,172.21              124.30,180.75 119.84,211.30 120.94,217.00              120.94,217.00 124.63,204.00 124.63,204.00              126.94,194.76 129.55,178.36 128.91,169.00              128.28,159.70 127.05,150.00 124.58,141.00              124.58,141.00 118.00,120.00 118.00,120.00              118.00,120.00 155.00,144.00 155.00,144.00              158.74,146.50 166.82,150.95 168.40,155.04              169.15,156.98 168.99,161.54 169.28,164.00              170.43,173.67 169.88,183.34 168.72,193.00              168.04,198.59 166.43,204.40 167.00,210.00              167.00,210.00 171.67,196.00 171.67,196.00              175.25,185.26 177.98,171.32 178.00,160.00              178.02,145.48 176.11,130.78 171.31,117.00              171.31,117.00 161.00,93.00 161.00,93.00 Z            M 83.00,115.00            C 87.20,116.82 108.17,127.87 110.58,130.39              114.47,134.44 118.73,151.17 119.00,157.00              119.00,157.00 95.00,151.00 95.00,151.00              95.00,141.53 94.77,138.84 90.69,130.00              88.32,124.85 84.72,120.40 83.00,115.00 Z"/>
</svg>