<svg xmlns="http://www.w3.org/2000/svg" viewBox="83.5 89.5 833 578.63">
  <path id="corsair-wordmark" fill="#303030" stroke="none" stroke-width="1" d="M 519.00,90.00            C 534.20,98.50 558.02,115.68 572.00,126.58              598.15,146.96 627.77,174.03 642.75,204.00              649.65,217.80 654.78,234.49 652.25,250.00              651.31,255.71 650.33,262.84 645.00,266.00              643.28,255.06 635.60,244.69 628.00,237.00              615.03,223.89 598.49,213.05 582.00,204.81              582.00,204.81 558.00,194.20 558.00,194.20              555.43,193.19 549.51,191.47 547.99,189.35              546.56,187.35 547.03,181.56 547.00,179.00              546.79,161.72 535.72,131.33 528.99,115.00              525.98,107.70 520.29,97.12 519.00,90.00 Z            M 426.00,156.00            C 426.00,156.00 443.00,166.00 443.00,166.00              443.00,166.00 469.00,183.33 469.00,183.33              469.00,183.33 486.01,196.09 486.01,196.09              486.01,196.09 492.67,213.00 492.67,213.00              492.67,213.00 503.00,254.00 503.00,254.00              503.00,254.00 451.00,235.00 451.00,235.00              451.00,235.00 451.92,227.00 451.92,227.00              451.92,213.25 443.87,191.33 437.75,179.00              437.75,179.00 426.00,156.00 426.00,156.00 Z            M 494.00,168.00            C 500.69,171.28 516.31,183.12 523.00,188.13              523.00,188.13 566.00,220.58 566.00,220.58              597.60,245.20 629.04,270.26 658.00,297.96              658.00,297.96 667.00,306.04 667.00,306.04              677.20,315.79 693.21,333.51 701.28,345.00              704.95,350.23 709.31,356.98 711.45,363.00              718.36,382.33 714.41,405.36 707.19,424.00              704.46,431.04 698.40,445.19 692.00,449.00              684.69,423.43 645.36,414.28 622.00,414.00              622.00,414.00 601.00,414.00 601.00,414.00              601.00,414.00 589.00,414.91 589.00,414.91              566.06,416.52 543.45,420.62 521.00,425.58              473.53,436.06 420.60,453.36 375.00,470.42              375.00,470.42 314.00,494.40 314.00,494.40              314.00,494.40 285.00,506.00 285.00,506.00              287.32,501.05 295.32,492.15 299.12,487.00              306.61,476.84 314.71,464.41 320.11,453.00              341.25,408.32 347.02,363.23 335.77,315.00              331.98,298.77 327.41,288.12 321.00,273.00              327.48,274.32 339.61,281.85 346.00,285.22              346.00,285.22 392.00,309.58 392.00,309.58              397.47,312.66 412.42,318.26 414.15,324.10              414.15,324.10 416.00,345.00 416.00,345.00              416.00,345.00 413.84,396.00 413.84,396.00              413.14,402.53 409.91,416.61 411.00,422.00              411.00,422.00 416.31,407.00 416.31,407.00              416.31,407.00 423.11,384.00 423.11,384.00              429.33,359.09 430.04,341.29 430.00,316.00              429.97,297.17 424.68,270.14 419.28,252.00              419.28,252.00 409.00,222.00 409.00,222.00              415.31,224.41 428.65,234.10 435.00,238.33              435.00,238.33 482.00,269.67 482.00,269.67              482.00,269.67 500.00,281.67 500.00,281.67              502.45,283.30 506.23,285.40 507.40,288.18              508.63,291.11 508.80,304.16 509.17,308.00              511.46,332.05 509.30,356.15 506.00,380.00              505.04,386.96 501.14,399.96 502.00,406.00              502.00,406.00 507.99,391.00 507.99,391.00              507.99,391.00 517.85,363.00 517.85,363.00              521.54,349.53 526.84,324.63 527.00,311.00              527.00,311.00 527.91,294.00 527.91,294.00              526.88,275.86 525.43,257.80 521.35,240.00              517.91,224.98 513.34,210.13 507.14,196.00              507.14,196.00 494.00,168.00 494.00,168.00 Z            M 339.00,212.00            C 339.00,212.00 378.00,232.70 378.00,232.70              378.00,232.70 395.16,243.21 395.16,243.21              395.16,243.21 401.33,259.00 401.33,259.00              401.33,259.00 411.00,293.00 411.00,293.00              411.00,293.00 364.00,282.00 364.00,282.00              364.00,282.00 364.00,273.00 364.00,273.00              363.94,259.49 358.06,244.75 351.69,233.00              351.69,233.00 339.00,212.00 339.00,212.00 Z            M 170.00,635.00            C 172.82,637.82 182.44,645.62 180.83,649.83              179.96,652.10 174.11,656.48 172.00,657.96              162.13,664.88 151.84,667.04 140.00,667.63              140.00,667.63 133.00,667.08 133.00,667.08              101.53,664.61 83.86,640.26 84.00,610.00              84.07,595.94 90.48,579.76 101.04,570.30              121.96,551.55 164.47,550.06 182.00,574.00              179.62,576.59 172.05,586.77 168.91,586.81              167.00,586.83 157.34,579.43 154.00,577.90              138.77,570.91 122.24,575.68 112.29,589.01              94.86,612.37 110.11,650.21 141.00,648.96              154.32,648.42 160.01,641.93 170.00,635.00 Z            M 264.00,556.42            C 285.83,553.76 309.13,564.35 319.68,584.00              337.14,616.54 319.21,661.13 281.00,666.70              263.09,669.31 244.88,665.83 231.17,653.38              205.41,630.00 208.84,585.94 237.00,566.04              246.42,559.39 252.98,558.09 264.00,556.42 Z            M 492.00,651.00            C 493.33,647.09 499.57,637.44 504.00,637.11              506.71,636.91 512.35,641.59 515.00,643.13              521.53,646.90 528.47,648.99 536.00,649.49              543.74,650.00 557.23,644.48 555.34,635.00              553.89,627.75 544.25,624.22 538.00,622.43              525.37,618.81 507.49,616.04 499.99,604.00              497.99,600.78 497.02,596.72 496.44,593.00              493.21,572.54 509.15,557.24 529.00,557.00              549.91,556.76 554.10,558.04 572.00,569.00              572.00,569.00 563.00,585.00 563.00,585.00              563.00,585.00 544.00,576.33 544.00,576.33              537.41,574.14 530.37,573.08 524.00,576.33              517.02,580.12 513.31,587.17 519.39,593.67              523.75,598.34 531.97,600.36 538.00,601.87              551.40,605.24 568.84,609.28 573.89,624.00              575.33,628.20 575.05,633.55 575.00,638.00              574.91,645.27 572.91,650.59 567.90,655.98              554.04,670.90 526.22,669.00 509.00,661.57              501.63,658.39 498.38,655.26 492.00,651.00 Z            M 652.00,557.00            C 652.00,557.00 663.00,557.00 663.00,557.00              663.00,557.00 670.37,557.99 670.37,557.99              670.37,557.99 675.00,566.00 675.00,566.00              675.00,566.00 682.00,582.00 682.00,582.00              682.00,582.00 703.30,631.00 703.30,631.00              703.30,631.00 718.00,666.00 718.00,666.00              713.78,666.00 699.64,667.06 696.97,664.43              693.15,660.66 689.59,643.86 684.79,641.02              682.72,639.80 679.37,640.00 677.00,640.00              677.00,640.00 646.00,640.00 646.00,640.00              643.63,640.00 640.28,639.80 638.21,641.02              633.26,643.95 629.76,660.75 626.03,664.43              623.38,667.04 610.12,666.00 606.00,666.00              606.00,666.00 617.58,637.00 617.58,637.00              617.58,637.00 640.28,585.00 640.28,585.00              640.28,585.00 652.00,557.00 652.00,557.00 Z            M 368.00,558.00            C 368.00,558.00 409.00,558.00 409.00,558.00              420.75,558.00 432.77,557.89 442.99,564.76              463.43,578.52 462.28,616.82 432.00,625.00              432.00,625.00 450.00,650.00 450.00,650.00              450.00,650.00 460.00,666.00 460.00,666.00              460.00,666.00 445.00,666.00 445.00,666.00              442.54,666.00 439.36,666.21 437.17,664.98              434.29,663.37 430.92,657.81 428.98,655.00              428.98,655.00 411.70,631.31 411.70,631.31              407.43,627.57 393.86,629.00 388.00,629.00              388.00,629.00 388.00,666.00 388.00,666.00              388.00,666.00 368.00,666.00 368.00,666.00              368.00,666.00 368.00,558.00 368.00,558.00 Z            M 757.00,558.00            C 757.00,558.00 776.00,558.00 776.00,558.00              776.00,558.00 776.00,666.00 776.00,666.00              776.00,666.00 757.00,666.00 757.00,666.00              757.00,666.00 757.00,558.00 757.00,558.00 Z            M 824.00,558.00            C 824.00,558.00 872.00,558.00 872.00,558.00              880.62,558.01 890.60,559.41 898.00,564.13              919.63,577.93 918.35,616.73 888.00,625.00              888.00,625.00 905.14,649.00 905.14,649.00              905.14,649.00 916.00,666.00 916.00,666.00              916.00,666.00 901.00,666.00 901.00,666.00              898.54,666.00 895.36,666.21 893.17,664.98              890.29,663.37 886.92,657.81 884.98,655.00              884.98,655.00 867.70,631.31 867.70,631.31              863.43,627.57 849.86,629.00 844.00,629.00              844.00,629.00 844.00,666.00 844.00,666.00              844.00,666.00 824.00,666.00 824.00,666.00              824.00,666.00 824.00,558.00 824.00,558.00 Z            M 269.00,574.45            C 256.64,575.59 246.85,580.08 240.12,591.00              225.71,614.37 239.91,648.32 269.00,648.99              307.82,649.88 317.81,599.24 289.00,580.10              282.70,575.92 276.42,574.73 269.00,574.45 Z            M 388.00,611.00            C 397.89,611.00 420.02,612.55 428.00,607.91              438.32,601.92 439.58,585.88 428.96,579.53              420.20,574.30 398.68,576.00 388.00,576.00              388.00,576.00 388.00,611.00 388.00,611.00 Z            M 844.00,611.00            C 853.89,611.00 876.02,612.55 884.00,607.91              894.12,602.03 895.38,585.75 884.96,579.53              876.20,574.30 854.68,576.00 844.00,576.00              844.00,576.00 844.00,611.00 844.00,611.00 Z            M 662.00,582.00            C 662.00,582.00 654.72,597.00 654.72,597.00              654.72,597.00 644.00,622.00 644.00,622.00              644.00,622.00 679.00,622.00 679.00,622.00              679.00,622.00 662.00,582.00 662.00,582.00 Z"/>
</svg>