<svg xmlns="http://www.w3.org/2000/svg" viewBox="144.5 152.41 155 163.3">
  <path id="coursera" fill="#303030" stroke="none" stroke-width="1"
    d="M 299.00,276.00            C 293.87,286.46 284.65,294.99 275.00,301.30              230.62,330.35 167.32,312.50 149.34,261.00              147.00,254.30 145.09,245.09 145.00,238.00              145.00,238.00 145.00,231.00 145.00,231.00              145.06,195.04 171.07,164.96 205.00,155.43              215.46,152.49 224.31,152.88 235.00,153.00              252.78,153.21 273.30,162.89 286.00,175.04              290.88,179.71 295.83,184.47 298.00,191.00              298.00,191.00 263.00,211.00 263.00,211.00              263.00,211.00 255.91,203.46 255.91,203.46              248.59,197.02 235.93,191.30 226.00,192.17              194.55,194.95 172.71,231.79 194.33,258.00              208.02,274.61 228.53,280.92 248.00,270.10              252.49,267.60 255.37,264.64 258.91,261.02              260.58,259.32 262.49,256.75 265.09,256.73              267.51,256.71 272.74,260.26 275.00,261.58              275.00,261.58 299.00,276.00 299.00,276.00 Z" />
</svg>