<svg xmlns="http://www.w3.org/2000/svg" viewBox="144.5 151.18 1157 165.59">
  <path id="coursera-wordmark" fill="#303030" stroke="none" stroke-width="1"
    d="M 687.00,172.00            C 700.86,156.05 712.27,152.00 733.00,152.00              733.00,152.00 726.00,190.00 726.00,190.00              711.57,190.01 698.10,193.62 691.52,208.00              686.54,218.87 688.00,233.15 688.00,245.00              688.00,245.00 688.00,312.00 688.00,312.00              688.00,312.00 646.00,312.00 646.00,312.00              646.00,312.00 646.00,156.00 646.00,156.00              646.00,156.00 687.00,156.00 687.00,156.00              687.00,156.00 687.00,172.00 687.00,172.00 Z            M 732.00,277.00            C 732.00,277.00 757.00,264.24 757.00,264.24              759.20,263.13 764.79,259.71 766.91,259.73              769.98,259.75 776.09,268.31 779.00,270.79              787.13,277.71 799.61,280.34 810.00,278.38              814.69,277.50 820.30,275.59 822.51,270.96              827.29,260.93 809.86,254.83 803.00,252.86              776.42,245.21 742.57,239.98 739.17,206.00              738.67,201.00 739.00,195.91 740.00,191.00              747.92,152.14 799.47,144.81 831.00,157.20              843.20,162.00 859.15,172.92 863.00,186.00              863.00,186.00 838.00,199.26 838.00,199.26              835.40,200.60 830.17,204.20 827.32,203.32              825.33,202.70 821.15,197.09 818.99,195.21              814.37,191.20 807.10,188.47 801.00,188.09              789.71,187.40 778.08,194.97 784.65,203.91              785.60,205.19 786.77,206.26 788.04,207.20              792.48,210.49 802.47,213.12 808.00,214.71              825.99,219.88 846.22,223.45 858.62,239.00              869.04,252.06 869.44,274.65 861.49,289.00              857.48,296.24 852.03,301.28 845.00,305.54              835.44,311.32 819.18,314.95 808.00,315.00              783.39,315.12 758.56,313.14 741.30,293.00              737.16,288.17 733.76,283.15 732.00,277.00 Z            M 1092.00,171.00            C 1106.29,156.16 1116.43,152.00 1137.00,152.00              1137.00,152.00 1130.00,190.00 1130.00,190.00              1107.35,190.02 1092.28,201.10 1092.00,225.00              1092.00,225.00 1092.00,312.00 1092.00,312.00              1092.00,312.00 1050.00,312.00 1050.00,312.00              1050.00,312.00 1050.00,156.00 1050.00,156.00              1050.00,156.00 1092.00,156.00 1092.00,156.00              1092.00,156.00 1092.00,171.00 1092.00,171.00 Z            M 299.00,276.00            C 293.87,286.46 284.65,294.99 275.00,301.30              230.62,330.35 167.32,312.50 149.34,261.00              147.00,254.30 145.09,245.09 145.00,238.00              145.00,238.00 145.00,231.00 145.00,231.00              145.06,195.04 171.07,164.96 205.00,155.43              215.46,152.49 224.31,152.88 235.00,153.00              252.78,153.21 273.30,162.89 286.00,175.04              290.88,179.71 295.83,184.47 298.00,191.00              298.00,191.00 263.00,211.00 263.00,211.00              263.00,211.00 255.91,203.46 255.91,203.46              248.59,197.02 235.93,191.30 226.00,192.17              194.55,194.95 172.71,231.79 194.33,258.00              208.02,274.61 228.53,280.92 248.00,270.10              252.49,267.60 255.37,264.64 258.91,261.02              260.58,259.32 262.49,256.75 265.09,256.73              267.51,256.71 272.74,260.26 275.00,261.58              275.00,261.58 299.00,276.00 299.00,276.00 Z            M 377.00,153.43            C 402.30,150.30 431.31,159.02 448.83,178.01              484.03,216.17 476.51,280.15 429.00,304.74              411.38,313.86 401.50,315.22 382.00,315.00              371.89,314.88 360.11,311.53 351.00,307.22              324.68,294.76 305.05,267.62 305.00,238.00              305.00,238.00 305.00,228.00 305.00,228.00              305.10,219.85 307.40,210.54 310.45,203.00              322.25,173.87 347.03,158.33 377.00,153.43 Z            M 1025.00,282.00            C 1022.01,289.00 1016.04,294.39 1010.00,298.84              997.00,308.43 980.26,314.81 964.00,315.00              948.48,315.18 938.70,314.50 924.00,308.55              898.33,298.15 876.33,270.31 876.00,242.00              875.73,218.78 877.20,202.33 891.90,183.00              918.75,147.69 974.50,142.62 1008.00,171.30              1029.26,189.50 1038.90,219.64 1034.00,247.00              1034.00,247.00 972.00,247.00 972.00,247.00              972.00,247.00 955.00,246.00 955.00,246.00              955.00,246.00 916.00,246.00 916.00,246.00              919.34,255.57 923.55,263.16 932.00,269.21              950.29,282.31 981.15,279.44 995.00,261.00              1003.41,262.78 1016.95,276.60 1025.00,282.00 Z            M 1259.00,297.00            C 1242.63,313.22 1230.11,315.25 1208.00,315.00              1195.11,314.85 1181.57,309.46 1171.00,302.33              1129.08,274.04 1124.61,215.14 1157.29,178.00              1169.71,163.88 1191.01,153.09 1210.00,153.00              1210.00,153.00 1218.00,153.00 1218.00,153.00              1227.76,153.12 1239.78,156.22 1248.00,161.55              1253.71,165.25 1255.69,168.04 1260.00,173.00              1260.00,173.00 1263.00,156.00 1263.00,156.00              1263.00,156.00 1301.00,156.00 1301.00,156.00              1301.00,156.00 1301.00,312.00 1301.00,312.00              1301.00,312.00 1263.00,312.00 1263.00,312.00              1263.00,312.00 1259.00,297.00 1259.00,297.00 Z            M 484.00,156.00            C 484.00,156.00 525.00,156.00 525.00,156.00              525.00,156.00 525.00,244.00 525.00,244.00              525.02,254.38 526.90,263.54 535.04,270.79              549.40,283.58 574.12,278.37 583.47,262.00              589.46,251.52 588.00,237.70 588.00,226.00              588.00,226.00 588.00,156.00 588.00,156.00              588.00,156.00 630.00,156.00 630.00,156.00              630.00,156.00 630.00,312.00 630.00,312.00              630.00,312.00 588.00,312.00 588.00,312.00              588.00,312.00 587.00,297.00 587.00,297.00              581.26,307.66 568.45,313.07 557.00,315.08              533.53,319.19 508.01,312.98 494.44,292.00              482.21,273.11 484.00,256.19 484.00,235.00              484.00,235.00 484.00,156.00 484.00,156.00 Z            M 993.00,217.00            C 987.79,183.78 928.43,180.52 918.00,217.00              918.00,217.00 993.00,217.00 993.00,217.00 Z            M 380.00,193.30            C 373.28,194.57 368.57,196.42 363.00,200.49              358.15,204.03 354.40,207.79 351.35,213.00              332.94,244.42 360.01,280.60 395.00,274.86              425.73,269.81 440.65,233.77 421.47,209.00              410.97,195.44 396.32,191.68 380.00,193.30 Z            M 1211.00,193.30            C 1204.87,194.50 1200.14,196.43 1195.00,200.04              1189.97,203.58 1185.99,207.80 1182.71,213.00              1179.30,218.42 1177.47,224.67 1176.86,231.00              1174.16,258.84 1199.40,278.90 1226.00,274.87              1257.23,270.13 1272.04,233.84 1252.48,209.00              1241.50,195.05 1227.92,191.61 1211.00,193.30 Z" />
</svg>