<svg xmlns="http://www.w3.org/2000/svg" viewBox="-0.5 -0.3 1823 2048.8">
  <path id="cpp-lang" fill="#303030" stroke="none" stroke-width="1"
    d="M 892.00,0.21            C 892.00,0.21 910.00,0.21 910.00,0.21              935.04,0.00 953.47,2.07 977.00,11.60              988.20,16.14 1001.35,24.40 1012.00,30.58              1012.00,30.58 1065.00,61.15 1065.00,61.15              1065.00,61.15 1232.00,157.58 1232.00,157.58              1232.00,157.58 1354.00,227.99 1354.00,227.99              1354.00,227.99 1523.00,325.42 1523.00,325.42              1523.00,325.42 1700.00,427.72 1700.00,427.72              1715.09,436.32 1746.88,453.62 1759.00,463.46              1785.44,484.91 1805.73,516.50 1815.72,549.00              1819.04,559.82 1821.98,571.63 1822.00,583.00              1822.00,583.00 1822.00,1467.00 1822.00,1467.00              1821.98,1480.19 1817.65,1496.65 1813.05,1509.00              1802.09,1538.42 1783.65,1566.86 1759.00,1586.55              1745.35,1597.46 1705.25,1619.48 1688.00,1629.28              1688.00,1629.28 1601.00,1679.58 1601.00,1679.58              1601.00,1679.58 1459.00,1761.42 1459.00,1761.42              1459.00,1761.42 1273.00,1868.85 1273.00,1868.85              1273.00,1868.85 1097.00,1970.42 1097.00,1970.42              1097.00,1970.42 1008.00,2021.85 1008.00,2021.85              986.22,2034.28 962.96,2047.96 937.00,2048.00              937.00,2048.00 883.00,2048.00 883.00,2048.00              861.79,2047.75 838.96,2036.10 821.00,2025.85              821.00,2025.85 757.00,1988.85 757.00,1988.85              757.00,1988.85 486.00,1832.42 486.00,1832.42              486.00,1832.42 123.00,1622.85 123.00,1622.85              107.55,1613.98 75.39,1596.60 63.00,1586.54              38.24,1566.46 20.03,1538.74 8.95,1509.00              4.14,1496.08 0.02,1480.84 0.00,1467.00              0.00,1467.00 0.00,583.00 0.00,583.00              0.02,569.16 4.14,553.92 8.95,541.00              18.17,516.24 35.37,487.91 55.00,470.17              70.50,456.16 87.18,447.92 105.00,437.58              105.00,437.58 180.00,394.20 180.00,394.20              180.00,394.20 299.00,325.58 299.00,325.58              299.00,325.58 526.00,194.42 526.00,194.42              526.00,194.42 643.00,126.99 643.00,126.99              643.00,126.99 766.00,55.99 766.00,55.99              766.00,55.99 810.00,30.58 810.00,30.58              821.80,23.73 834.32,15.73 847.00,10.81              864.13,4.17 874.29,2.95 892.00,0.21 Z            M 1436.00,722.00            C 1433.94,714.94 1424.98,701.61 1420.66,695.00              1420.66,695.00 1383.60,644.00 1383.60,644.00              1324.65,570.34 1247.62,511.90 1162.00,472.69              1022.34,408.74 863.46,401.18 718.00,449.67              690.43,458.86 662.84,469.93 637.00,483.26              560.17,522.90 492.03,577.54 437.80,645.00              395.38,697.78 362.07,757.25 339.31,821.00              324.56,862.31 314.05,905.41 308.85,949.00              308.85,949.00 305.91,980.00 305.91,980.00              305.91,980.00 305.00,990.00 305.00,990.00              305.00,990.00 304.00,1012.00 304.00,1012.00              304.00,1012.00 304.00,1040.00 304.00,1040.00              304.00,1040.00 304.96,1050.00 304.96,1050.00              304.96,1050.00 304.96,1060.00 304.96,1060.00              304.96,1060.00 305.91,1070.00 305.91,1070.00              305.91,1070.00 308.85,1101.00 308.85,1101.00              313.52,1140.12 323.30,1182.71 336.00,1220.00              399.95,1407.72 553.20,1554.18 744.00,1608.57              780.41,1618.95 817.36,1625.52 855.00,1629.17              855.00,1629.17 877.00,1631.04 877.00,1631.04              877.00,1631.04 888.00,1631.04 888.00,1631.04              888.00,1631.04 900.00,1632.00 900.00,1632.00              900.00,1632.00 923.00,1632.00 923.00,1632.00              923.00,1632.00 945.00,1631.00 945.00,1631.00              945.00,1631.00 955.00,1630.09 955.00,1630.09              988.73,1627.77 1022.16,1622.58 1055.00,1614.37              1157.51,1588.75 1244.58,1541.78 1323.00,1470.83              1323.00,1470.83 1346.00,1448.00 1346.00,1448.00              1371.55,1422.45 1394.59,1394.06 1414.67,1364.00              1414.67,1364.00 1429.40,1341.00 1429.40,1341.00              1430.64,1338.95 1434.42,1333.08 1434.70,1331.04              1435.27,1326.73 1425.33,1322.36 1422.00,1320.42              1422.00,1320.42 1378.00,1295.00 1378.00,1295.00              1378.00,1295.00 1229.00,1208.80 1229.00,1208.80              1229.00,1208.80 1191.00,1186.80 1191.00,1186.80              1188.05,1185.04 1178.05,1178.52 1175.10,1178.99              1172.23,1179.45 1170.19,1183.72 1168.80,1186.00              1168.80,1186.00 1156.58,1204.00 1156.58,1204.00              1141.85,1224.40 1121.57,1245.40 1102.00,1261.20              1060.15,1294.97 1011.96,1316.31 959.00,1325.08              947.97,1326.91 932.03,1328.98 921.00,1329.00              921.00,1329.00 899.00,1329.00 899.00,1329.00              899.00,1329.00 889.00,1328.09 889.00,1328.09              838.50,1324.62 788.22,1308.13 746.00,1280.00              704.97,1252.66 669.52,1216.40 645.70,1173.00              623.89,1133.29 611.07,1092.24 607.91,1047.00              607.91,1047.00 607.00,1035.00 607.00,1035.00              607.00,1035.00 607.00,1013.00 607.00,1013.00              607.00,1013.00 607.91,1003.00 607.91,1003.00              608.79,990.48 610.33,978.33 612.80,966.00              631.38,873.11 693.61,792.59 779.00,751.26              824.49,729.24 870.75,720.42 921.00,721.00              921.00,721.00 931.00,721.91 931.00,721.91              954.49,723.53 977.51,727.47 1000.00,734.66              1035.27,745.92 1068.94,762.64 1098.00,785.80              1126.16,808.24 1156.91,841.07 1174.00,873.00              1174.00,873.00 1246.00,831.42 1246.00,831.42              1246.00,831.42 1353.00,769.58 1353.00,769.58              1353.00,769.58 1400.00,742.40 1400.00,742.40              1400.00,742.40 1436.00,722.00 1436.00,722.00 Z            M 1450.00,924.00            C 1450.00,924.00 1384.00,924.00 1384.00,924.00              1384.00,924.00 1384.00,992.00 1384.00,992.00              1384.00,992.00 1316.00,992.00 1316.00,992.00              1316.00,992.00 1316.00,1058.00 1316.00,1058.00              1316.00,1058.00 1384.00,1058.00 1384.00,1058.00              1384.00,1058.00 1384.00,1126.00 1384.00,1126.00              1384.00,1126.00 1450.00,1126.00 1450.00,1126.00              1450.00,1126.00 1450.00,1068.00 1450.00,1068.00              1450.00,1068.00 1451.60,1059.60 1451.60,1059.60              1451.60,1059.60 1460.00,1058.00 1460.00,1058.00              1460.00,1058.00 1518.00,1058.00 1518.00,1058.00              1518.00,1058.00 1518.00,992.00 1518.00,992.00              1518.00,992.00 1450.00,992.00 1450.00,992.00              1450.00,992.00 1450.00,924.00 1450.00,924.00 Z            M 1703.00,924.00            C 1703.00,924.00 1637.00,924.00 1637.00,924.00              1637.00,924.00 1637.00,992.00 1637.00,992.00              1637.00,992.00 1569.00,992.00 1569.00,992.00              1569.00,992.00 1569.00,1058.00 1569.00,1058.00              1569.00,1058.00 1637.00,1058.00 1637.00,1058.00              1637.00,1058.00 1637.00,1126.00 1637.00,1126.00              1637.00,1126.00 1703.00,1126.00 1703.00,1126.00              1703.00,1126.00 1703.00,1068.00 1703.00,1068.00              1703.00,1068.00 1704.60,1059.60 1704.60,1059.60              1704.60,1059.60 1713.00,1058.00 1713.00,1058.00              1713.00,1058.00 1771.00,1058.00 1771.00,1058.00              1771.00,1058.00 1771.00,992.00 1771.00,992.00              1771.00,992.00 1713.00,992.00 1713.00,992.00              1704.37,991.98 1703.02,990.63 1703.00,982.00              1703.00,982.00 1703.00,924.00 1703.00,924.00 Z" />
</svg>