<svg xmlns="http://www.w3.org/2000/svg" viewBox="-0.5 -0.36 2561 1888.86">
  <path id="creative-cloud" fill="#303030" stroke="none" stroke-width="1"
    d="M 1567.00,0.14            C 1567.00,0.14 1604.00,0.14 1604.00,0.14              1604.00,0.14 1651.00,0.14 1651.00,0.14              1651.00,0.14 1687.00,3.83 1687.00,3.83              1727.54,7.89 1767.98,12.00 1808.00,20.00              1957.84,49.96 2094.47,116.05 2213.00,212.39              2242.35,236.24 2270.81,261.66 2296.96,289.00              2389.17,385.40 2461.57,502.27 2506.31,628.00              2530.90,697.11 2546.87,769.05 2554.17,842.00              2554.17,842.00 2560.00,900.00 2560.00,900.00              2560.00,900.00 2560.00,986.00 2560.00,986.00              2560.00,986.00 2557.16,1009.00 2557.16,1009.00              2557.16,1009.00 2551.16,1064.00 2551.16,1064.00              2533.96,1224.79 2472.14,1372.73 2377.15,1503.00              2346.44,1545.12 2305.03,1593.48 2267.00,1628.91              2193.63,1697.27 2120.54,1747.48 2031.00,1792.25              1940.85,1837.32 1842.86,1866.26 1743.00,1879.28              1743.00,1879.28 1691.00,1885.16 1691.00,1885.16              1691.00,1885.16 1661.00,1888.00 1661.00,1888.00              1661.00,1888.00 765.00,1888.00 765.00,1888.00              756.02,1887.99 756.23,1886.93 749.00,1886.17              749.00,1886.17 706.00,1882.16 706.00,1882.16              638.98,1874.99 571.55,1857.82 509.00,1832.80              413.90,1794.76 323.14,1738.88 249.00,1667.96              137.89,1561.69 55.10,1419.10 20.65,1269.00              13.81,1239.20 9.46,1209.30 5.72,1179.00              5.72,1179.00 0.00,1127.00 0.00,1127.00              0.00,1127.00 0.00,1046.00 0.00,1046.00              0.08,1039.86 1.01,1038.41 1.71,1033.00              1.71,1033.00 2.83,1020.00 2.83,1020.00              2.83,1020.00 4.17,1001.00 4.17,1001.00              4.17,1001.00 8.73,965.00 8.73,965.00              26.21,843.76 75.63,723.29 145.72,623.00              256.69,464.21 428.59,348.57 617.00,303.88              651.51,295.70 686.75,290.36 722.00,286.83              722.00,286.83 757.00,284.00 757.00,284.00              757.00,284.00 775.00,283.00 775.00,283.00              775.00,283.00 832.00,283.00 832.00,283.00              832.00,283.00 851.00,284.00 851.00,284.00              851.00,284.00 862.00,284.91 862.00,284.91              862.00,284.91 901.00,288.17 901.00,288.17              908.69,288.94 923.18,292.26 930.00,289.89              937.45,287.30 947.00,275.78 953.00,270.04              953.00,270.04 1001.00,226.43 1001.00,226.43              1051.20,183.67 1105.98,145.69 1164.00,114.31              1244.52,70.76 1331.32,38.56 1421.00,20.00              1453.62,13.25 1486.87,8.48 1520.00,5.17              1520.00,5.17 1567.00,0.14 1567.00,0.14 Z            M 1602.00,182.19            C 1594.07,183.42 1586.00,182.99 1578.00,183.00              1578.00,183.00 1563.00,184.00 1563.00,184.00              1541.55,184.25 1506.49,188.46 1485.00,192.08              1392.96,207.58 1310.78,239.49 1230.00,285.85              1203.54,301.03 1178.30,318.47 1154.00,336.87              1154.00,336.87 1137.00,350.20 1137.00,350.20              1135.21,351.65 1131.20,354.43 1131.20,356.94              1131.20,360.04 1137.60,362.55 1140.00,363.75              1140.00,363.75 1167.00,378.00 1167.00,378.00              1195.26,394.06 1222.93,410.29 1250.00,428.33              1250.00,428.33 1273.00,444.29 1273.00,444.29              1276.77,446.98 1281.30,450.86 1286.00,451.35              1294.09,452.21 1308.69,441.30 1316.00,437.01              1337.43,424.42 1359.36,413.51 1382.00,403.30              1423.63,384.53 1474.86,369.58 1520.00,362.58              1520.00,362.58 1571.00,356.91 1571.00,356.91              1571.00,356.91 1583.00,355.96 1583.00,355.96              1583.00,355.96 1595.00,355.96 1595.00,355.96              1595.00,355.96 1607.00,355.04 1607.00,355.04              1607.00,355.04 1619.00,355.04 1619.00,355.04              1619.00,355.04 1629.00,356.00 1629.00,356.00              1711.41,356.96 1803.90,380.37 1878.00,416.26              1959.42,455.69 2030.23,517.36 2084.88,589.00              2133.67,652.95 2171.04,723.67 2190.63,802.00              2202.67,850.17 2207.58,899.46 2207.00,949.00              2207.00,949.00 2206.04,959.00 2206.04,959.00              2206.04,959.00 2206.04,969.00 2206.04,969.00              2206.04,969.00 2205.09,979.00 2205.09,979.00              2205.09,979.00 2198.08,1038.00 2198.08,1038.00              2188.17,1097.86 2170.19,1156.36 2143.74,1211.00              2123.93,1251.94 2097.04,1292.40 2067.57,1327.00              2067.57,1327.00 2031.00,1366.00 2031.00,1366.00              1946.95,1450.05 1846.65,1508.35 1729.00,1529.58              1709.14,1533.16 1689.11,1535.71 1669.00,1537.09              1669.00,1537.09 1659.00,1538.00 1659.00,1538.00              1659.00,1538.00 1640.00,1539.00 1640.00,1539.00              1640.00,1539.00 1603.00,1539.00 1603.00,1539.00              1603.00,1539.00 1583.00,1538.00 1583.00,1538.00              1583.00,1538.00 1573.00,1537.09 1573.00,1537.09              1573.00,1537.09 1511.00,1530.08 1511.00,1530.08              1416.00,1514.35 1333.00,1477.81 1257.00,1418.58              1229.56,1397.19 1205.54,1372.54 1181.00,1348.00              1181.00,1348.00 1125.00,1292.00 1125.00,1292.00              1125.00,1292.00 937.00,1103.00 937.00,1103.00              937.00,1103.00 874.00,1040.00 874.00,1040.00              860.61,1026.61 846.99,1011.69 832.00,1000.24              798.49,974.62 750.09,979.07 720.09,1008.17              702.09,1025.62 692.71,1050.21 693.00,1075.00              693.44,1112.72 725.72,1137.01 750.00,1161.00              750.00,1161.00 806.00,1216.99 806.00,1216.99              806.00,1216.99 816.00,1226.04 816.00,1226.04              816.00,1226.04 837.00,1247.00 837.00,1247.00              837.00,1247.00 911.00,1320.09 911.00,1320.09              911.00,1320.09 932.00,1341.00 932.00,1341.00              932.00,1341.00 972.00,1381.00 972.00,1381.00              972.00,1381.00 1009.00,1417.96 1009.00,1417.96              1009.00,1417.96 1020.00,1428.00 1020.00,1428.00              1020.00,1428.00 1085.00,1492.96 1085.00,1492.96              1085.00,1492.96 1094.00,1501.04 1094.00,1501.04              1094.00,1501.04 1124.00,1530.91 1124.00,1530.91              1142.66,1548.30 1162.39,1564.81 1183.00,1579.85              1274.99,1646.96 1379.70,1686.08 1492.00,1702.27              1492.00,1702.27 1555.00,1709.09 1555.00,1709.09              1555.00,1709.09 1565.00,1710.00 1565.00,1710.00              1565.00,1710.00 1584.00,1711.00 1584.00,1711.00              1584.00,1711.00 1641.00,1711.00 1641.00,1711.00              1641.00,1711.00 1660.00,1710.00 1660.00,1710.00              1660.00,1710.00 1670.00,1709.09 1670.00,1709.09              1670.00,1709.09 1735.00,1701.42 1735.00,1701.42              1803.93,1690.72 1873.69,1668.38 1937.00,1639.31              2014.85,1603.56 2086.44,1553.56 2147.00,1493.00              2147.00,1493.00 2169.91,1470.00 2169.91,1470.00              2223.13,1412.87 2270.80,1345.73 2304.22,1275.00              2335.36,1209.09 2356.18,1140.87 2368.08,1069.00              2371.82,1046.43 2374.52,1023.79 2376.09,1001.00              2376.09,1001.00 2377.00,991.00 2377.00,991.00              2377.00,991.00 2378.00,972.00 2378.00,972.00              2378.00,972.00 2378.00,916.00 2378.00,916.00              2378.00,916.00 2377.00,897.00 2377.00,897.00              2377.00,897.00 2376.09,887.00 2376.09,887.00              2373.98,856.78 2369.75,826.73 2363.80,797.00              2348.07,718.35 2322.12,644.23 2283.14,574.00              2236.97,490.82 2170.94,415.29 2098.00,354.59              2030.14,298.12 1952.70,252.51 1869.00,224.00              1813.81,205.20 1758.05,192.64 1700.00,186.83              1700.00,186.83 1665.00,184.00 1665.00,184.00              1665.00,184.00 1649.00,183.00 1649.00,183.00              1649.00,183.00 1635.00,183.00 1635.00,183.00              1635.00,183.00 1624.00,182.19 1624.00,182.19              1624.00,182.19 1602.00,182.19 1602.00,182.19 Z            M 1063.00,1708.00            C 1057.80,1700.74 1053.13,1697.82 1047.00,1691.96              1047.00,1691.96 1014.00,1660.91 1014.00,1660.91              1014.00,1660.91 941.00,1591.91 941.00,1591.91              941.00,1591.91 920.00,1571.83 920.00,1571.83              902.69,1556.17 887.64,1533.04 862.00,1533.00              862.00,1533.00 787.00,1533.00 787.00,1533.00              787.00,1533.00 775.00,1532.09 775.00,1532.09              755.12,1530.73 735.68,1529.13 716.00,1525.58              608.68,1506.22 508.30,1442.66 443.73,1355.00              404.51,1301.75 377.96,1245.55 363.35,1181.00              358.65,1160.22 355.40,1139.23 353.91,1118.00              353.91,1118.00 352.96,1108.00 352.96,1108.00              352.96,1108.00 352.96,1097.00 352.96,1097.00              352.96,1097.00 352.00,1085.00 352.00,1085.00              352.00,1085.00 352.00,1080.00 352.00,1080.00              352.00,1080.00 352.96,1070.00 352.96,1070.00              352.96,1070.00 352.96,1059.00 352.96,1059.00              352.96,1059.00 353.91,1049.00 353.91,1049.00              356.67,1009.49 365.42,970.20 379.05,933.00              426.18,804.45 534.56,701.03 665.00,659.34              705.61,646.36 748.33,638.20 791.00,638.00              791.00,638.00 801.00,637.34 801.00,637.34              801.00,637.34 808.00,637.98 808.00,637.98              808.00,637.98 825.00,637.98 825.00,637.98              825.00,637.98 835.00,638.91 835.00,638.91              852.55,640.14 869.73,642.60 887.00,646.00              924.63,653.41 960.10,664.28 995.00,680.31              1031.12,696.89 1065.10,719.12 1095.00,745.29              1095.00,745.29 1157.00,807.00 1157.00,807.00              1157.00,807.00 1293.00,943.00 1293.00,943.00              1293.00,943.00 1350.00,1000.00 1350.00,1000.00              1366.39,1016.39 1381.93,1035.73 1405.00,1042.56              1414.77,1045.45 1421.04,1045.11 1431.00,1045.00              1453.73,1044.73 1482.38,1031.90 1496.48,1014.00              1510.21,996.57 1515.25,976.78 1515.00,955.00              1514.80,938.55 1507.03,921.43 1496.56,909.00              1496.56,909.00 1485.09,897.00 1485.09,897.00              1485.09,897.00 1448.00,859.00 1448.00,859.00              1448.00,859.00 1429.99,840.00 1429.99,840.00              1429.99,840.00 1342.01,751.00 1342.01,751.00              1342.01,751.00 1331.00,739.00 1331.00,739.00              1331.00,739.00 1305.00,714.00 1305.00,714.00              1305.00,714.00 1267.00,676.04 1267.00,676.04              1267.00,676.04 1256.00,666.00 1256.00,666.00              1164.47,575.54 1063.10,507.49 936.00,479.42              908.90,473.44 881.63,469.80 854.00,467.91              854.00,467.91 843.00,466.96 843.00,466.96              843.00,466.96 831.00,466.96 831.00,466.96              831.00,466.96 821.00,466.00 821.00,466.00              821.00,466.00 808.00,466.00 808.00,466.00              808.00,466.00 797.00,466.96 797.00,466.96              797.00,466.96 783.00,466.96 783.00,466.96              783.00,466.96 773.00,467.91 773.00,467.91              750.78,469.43 728.98,471.93 707.00,475.75              653.69,485.01 602.82,499.33 553.00,520.58              480.75,551.40 417.48,595.52 362.00,651.00              325.44,687.56 289.62,734.60 264.70,780.00              237.07,830.31 215.18,881.99 201.88,938.00              193.83,971.91 188.30,1006.25 185.91,1041.00              185.91,1041.00 184.96,1051.00 184.96,1051.00              184.96,1051.00 184.96,1062.00 184.96,1062.00              184.96,1062.00 184.00,1074.00 184.00,1074.00              184.00,1074.00 184.00,1098.00 184.00,1098.00              184.00,1098.00 185.00,1120.00 185.00,1120.00              185.00,1120.00 185.91,1130.00 185.91,1130.00              188.37,1165.77 193.92,1201.17 202.63,1236.00              229.15,1342.08 279.46,1434.90 354.09,1515.00              354.09,1515.00 385.00,1545.09 385.00,1545.09              445.15,1601.03 513.36,1641.52 590.00,1670.42              630.22,1685.59 673.47,1696.14 716.00,1702.27              716.00,1702.27 762.00,1707.09 762.00,1707.09              762.00,1707.09 772.00,1708.04 772.00,1708.04              772.00,1708.04 784.00,1708.04 784.00,1708.04              784.00,1708.04 796.00,1709.00 796.00,1709.00              796.00,1709.00 970.00,1709.00 970.00,1709.00              970.00,1709.00 1026.00,1709.00 1026.00,1709.00              1038.33,1709.00 1050.77,1709.61 1063.00,1708.00 Z" />
</svg>