<svg xmlns="http://www.w3.org/2000/svg" viewBox="-0.52 0.5 1001.02 650.01">
  <path id="crossref-wordmark" fill="#303030" stroke="none" stroke-width="1"
    d="M 675.00,294.00            C 675.00,294.00 646.00,285.02 646.00,285.02              646.00,285.02 584.00,264.67 584.00,264.67              584.00,264.67 566.00,258.67 566.00,258.67              566.00,258.67 558.99,255.30 558.99,255.30              558.99,255.30 558.00,248.00 558.00,248.00              558.00,248.00 558.00,120.00 558.00,120.00              558.00,120.00 558.99,112.70 558.99,112.70              558.99,112.70 576.00,105.67 576.00,105.67              576.00,105.67 634.00,86.00 634.00,86.00              634.00,86.00 808.00,27.00 808.00,27.00              808.00,27.00 886.00,1.00 886.00,1.00              886.00,1.00 886.00,137.00 886.00,137.00              886.00,137.00 884.98,144.49 884.98,144.49              884.98,144.49 877.00,148.33 877.00,148.33              877.00,148.33 859.00,154.33 859.00,154.33              859.00,154.33 809.00,170.98 809.00,170.98              809.00,170.98 770.00,184.00 770.00,184.00              770.00,184.00 804.00,195.00 804.00,195.00              804.00,195.00 860.00,213.33 860.00,213.33              860.00,213.33 878.00,219.33 878.00,219.33              878.00,219.33 885.01,222.70 885.01,222.70              885.01,222.70 886.00,230.00 886.00,230.00              886.00,230.00 886.00,367.00 886.00,367.00              886.00,367.00 812.00,391.67 812.00,391.67              812.00,391.67 645.00,448.33 645.00,448.33              645.00,448.33 587.00,468.00 587.00,468.00              587.00,468.00 558.00,477.00 558.00,477.00              558.00,477.00 558.00,341.00 558.00,341.00              558.00,341.00 558.99,333.70 558.99,333.70              558.99,333.70 567.00,330.00 567.00,330.00              567.00,330.00 586.00,323.67 586.00,323.67              586.00,323.67 675.00,294.00 675.00,294.00 Z            M 173.00,574.00            C 172.99,582.53 171.49,590.95 168.56,599.00              162.90,614.59 153.75,627.72 140.00,637.23              130.38,643.88 114.78,649.86 103.00,650.00              103.00,650.00 91.00,650.00 91.00,650.00              74.36,650.00 65.59,649.44 50.00,642.11              16.51,626.37 1.57,592.26 0.04,557.00              -0.24,550.49 0.49,548.76 0.91,543.00              3.47,508.00 20.11,478.13 53.00,463.31              67.58,456.74 81.34,455.82 97.00,456.00              135.36,456.45 168.81,483.95 172.00,523.00              172.00,523.00 131.00,523.00 131.00,523.00              129.74,514.85 126.80,509.85 120.98,504.01              105.75,488.73 82.59,487.08 65.00,499.44              45.26,513.31 41.74,536.66 42.00,559.00              42.23,577.94 50.60,598.53 67.00,608.91              82.65,618.81 106.76,617.56 119.91,603.96              127.91,595.69 131.49,585.18 133.00,574.00              133.00,574.00 173.00,574.00 173.00,574.00 Z            M 935.00,512.00            C 935.00,512.00 935.00,500.00 935.00,500.00              935.03,494.19 935.48,491.54 937.36,486.00              938.65,482.16 940.03,479.24 942.53,476.00              951.62,464.20 967.53,459.48 982.00,460.04              982.00,460.04 1000.00,461.00 1000.00,461.00              1000.00,461.00 1000.00,490.00 1000.00,490.00              990.73,488.78 976.99,486.08 973.57,498.00              972.77,500.80 973.00,507.77 973.00,511.00              973.00,511.00 998.00,511.00 998.00,511.00              998.00,511.00 998.00,537.00 998.00,537.00              998.00,537.00 973.00,537.00 973.00,537.00              973.00,537.00 973.00,646.00 973.00,646.00              973.00,646.00 935.00,646.00 935.00,646.00              935.00,646.00 935.00,537.00 935.00,537.00              935.00,537.00 913.00,537.00 913.00,537.00              913.00,537.00 913.00,512.00 913.00,512.00              913.00,512.00 935.00,512.00 935.00,512.00 Z            M 457.00,601.00            C 457.36,616.88 471.46,624.55 486.00,623.96              495.14,623.59 511.45,616.66 506.98,605.00              503.81,596.73 491.69,593.77 484.00,591.58              462.07,585.32 424.37,583.37 424.00,553.00              423.89,543.70 424.31,535.02 429.78,527.00              440.92,510.68 464.62,506.92 483.00,507.00              504.08,507.09 528.85,512.75 538.13,534.00              540.49,539.42 541.52,545.14 542.00,551.00              542.00,551.00 506.00,551.00 506.00,551.00              503.28,537.72 495.96,533.83 483.00,533.09              474.82,532.63 457.22,537.27 463.18,548.99              467.20,556.90 481.93,559.78 490.00,561.58              513.86,566.87 545.28,570.95 545.99,602.00              546.11,607.34 545.50,611.84 544.08,617.00              537.79,639.86 512.58,648.97 491.00,649.00              491.00,649.00 475.00,649.00 475.00,649.00              446.02,648.66 421.02,631.88 421.00,601.00              421.00,601.00 457.00,601.00 457.00,601.00 Z            M 591.00,601.00            C 591.77,616.73 605.40,624.55 620.00,623.96              629.06,623.59 645.54,616.56 641.26,605.00              638.16,596.64 623.86,592.95 616.00,590.88              592.64,584.74 558.36,582.56 558.00,551.00              557.93,544.75 558.26,541.02 560.22,535.00              567.93,511.20 597.42,506.75 619.00,507.00              647.03,507.33 675.30,518.88 676.00,551.00              676.00,551.00 640.00,551.00 640.00,551.00              638.28,534.79 621.65,530.90 608.00,534.02              601.01,535.61 593.25,540.88 597.45,548.96              601.41,556.57 615.18,559.56 623.00,561.35              645.91,566.60 679.64,570.55 680.00,601.00              680.14,613.20 677.84,624.82 668.83,633.83              653.37,649.29 630.18,649.09 610.00,649.00              580.75,648.86 555.28,632.37 555.00,601.00              555.00,601.00 591.00,601.00 591.00,601.00 Z            M 913.00,604.00            C 908.46,617.60 901.26,630.74 889.00,638.90              873.47,649.23 859.69,649.20 842.00,649.00              808.20,648.60 781.39,619.19 781.00,586.00              781.00,586.00 781.00,573.00 781.00,573.00              781.07,558.12 787.66,541.26 797.30,530.00              823.34,499.58 875.35,498.74 900.32,531.00              913.74,548.34 915.00,567.12 915.00,588.00              915.00,588.00 819.00,588.00 819.00,588.00              819.17,606.76 829.48,620.20 849.00,620.96              854.27,621.17 859.16,620.22 864.00,618.12              880.56,610.96 872.60,604.03 887.00,604.00              887.00,604.00 913.00,604.00 913.00,604.00 Z            M 224.00,534.00            C 227.98,521.52 243.48,511.31 256.00,508.81              259.45,508.12 270.66,506.83 273.01,509.74              274.25,511.28 274.00,515.06 274.00,517.00              274.00,517.00 274.00,545.00 274.00,545.00              269.39,543.84 263.74,542.78 259.00,543.09              255.77,543.30 251.07,544.32 248.00,545.36              221.62,554.28 225.00,586.06 225.00,608.00              225.00,608.00 225.00,624.00 225.00,624.00              225.00,624.00 225.00,646.00 225.00,646.00              225.00,646.00 187.00,646.00 187.00,646.00              187.00,646.00 187.00,511.00 187.00,511.00              187.00,511.00 223.00,511.00 223.00,511.00              223.00,511.00 224.00,534.00 224.00,534.00 Z            M 332.00,508.43            C 354.93,505.60 379.64,510.65 395.91,528.00              423.33,557.24 419.32,617.78 384.00,639.53              370.29,647.98 355.80,650.18 340.00,650.00              319.94,649.76 300.04,641.03 287.68,625.00              268.63,600.29 269.34,554.99 289.32,531.00              301.10,516.86 314.35,511.32 332.00,508.43 Z            M 728.00,535.00            C 729.35,529.48 732.10,526.04 736.04,522.01              747.75,510.03 762.81,506.10 779.00,509.00              779.00,509.00 779.00,545.00 779.00,545.00              779.00,545.00 767.00,543.09 767.00,543.09              763.67,542.90 759.27,543.57 756.00,544.29              725.83,550.89 729.00,585.54 729.00,609.00              729.00,609.00 729.00,625.00 729.00,625.00              729.00,625.00 729.00,646.00 729.00,646.00              729.00,646.00 691.00,646.00 691.00,646.00              691.00,646.00 691.00,511.00 691.00,511.00              691.00,511.00 727.00,511.00 727.00,511.00              727.00,511.00 728.00,535.00 728.00,535.00 Z            M 340.00,536.29            C 331.70,537.67 326.97,539.40 321.21,546.01              312.42,556.11 311.86,570.35 312.00,583.00              312.26,604.78 324.98,624.17 349.00,620.70              369.42,617.76 375.27,597.84 375.96,580.00              376.13,575.62 375.64,574.09 375.15,570.00              372.71,549.62 362.75,534.20 340.00,536.29 Z            M 877.00,564.00            C 875.72,554.95 872.19,545.43 864.00,540.48              858.33,537.06 853.38,536.93 847.00,537.00              830.94,537.19 819.37,547.73 819.00,564.00              819.00,564.00 877.00,564.00 877.00,564.00 Z" />
</svg>