<svg xmlns="http://www.w3.org/2000/svg" viewBox="557.5 0.5 329 477">
  <path id="crossref" fill="#303030" stroke="none" stroke-width="1"
    d="M 675.00,294.00            C 675.00,294.00 646.00,285.02 646.00,285.02              646.00,285.02 584.00,264.67 584.00,264.67              584.00,264.67 566.00,258.67 566.00,258.67              566.00,258.67 558.99,255.30 558.99,255.30              558.99,255.30 558.00,248.00 558.00,248.00              558.00,248.00 558.00,120.00 558.00,120.00              558.00,120.00 558.99,112.70 558.99,112.70              558.99,112.70 576.00,105.67 576.00,105.67              576.00,105.67 634.00,86.00 634.00,86.00              634.00,86.00 808.00,27.00 808.00,27.00              808.00,27.00 886.00,1.00 886.00,1.00              886.00,1.00 886.00,137.00 886.00,137.00              886.00,137.00 884.98,144.49 884.98,144.49              884.98,144.49 877.00,148.33 877.00,148.33              877.00,148.33 859.00,154.33 859.00,154.33              859.00,154.33 809.00,170.98 809.00,170.98              809.00,170.98 770.00,184.00 770.00,184.00              770.00,184.00 804.00,195.00 804.00,195.00              804.00,195.00 860.00,213.33 860.00,213.33              860.00,213.33 878.00,219.33 878.00,219.33              878.00,219.33 885.01,222.70 885.01,222.70              885.01,222.70 886.00,230.00 886.00,230.00              886.00,230.00 886.00,367.00 886.00,367.00              886.00,367.00 812.00,391.67 812.00,391.67              812.00,391.67 645.00,448.33 645.00,448.33              645.00,448.33 587.00,468.00 587.00,468.00              587.00,468.00 558.00,477.00 558.00,477.00              558.00,477.00 558.00,341.00 558.00,341.00              558.00,341.00 558.99,333.70 558.99,333.70              558.99,333.70 567.00,330.00 567.00,330.00              567.00,330.00 586.00,323.67 586.00,323.67              586.00,323.67 675.00,294.00 675.00,294.00 Z" />
</svg>