<svg xmlns="http://www.w3.org/2000/svg" viewBox="-0.5 200.5 727 823.86">
  <path id="css" fill="#303030" stroke="none" stroke-width="1"
    d="M 0.00,201.00            C 0.00,201.00 726.00,201.00 726.00,201.00              726.00,201.00 724.17,221.00 724.17,221.00              724.17,221.00 720.17,265.00 720.17,265.00              720.17,265.00 710.17,377.00 710.17,377.00              710.17,377.00 704.83,440.00 704.83,440.00              704.83,440.00 677.17,747.00 677.17,747.00              677.17,747.00 667.17,859.00 667.17,859.00              667.17,859.00 664.28,892.00 664.28,892.00              664.28,892.00 661.09,927.00 661.09,927.00              660.87,930.14 660.82,938.95 659.01,941.30              657.55,943.20 653.28,944.05 651.00,944.71              651.00,944.71 629.00,950.71 629.00,950.71              629.00,950.71 542.00,974.88 542.00,974.88              542.00,974.88 412.00,1010.88 412.00,1010.88              412.00,1010.88 377.00,1020.63 377.00,1020.63              372.07,1021.91 366.03,1024.23 361.00,1023.81              361.00,1023.81 340.00,1018.42 340.00,1018.42              340.00,1018.42 304.00,1008.42 304.00,1008.42              304.00,1008.42 195.00,978.15 195.00,978.15              195.00,978.15 99.00,951.58 99.00,951.58              99.00,951.58 76.00,945.15 76.00,945.15              72.89,944.31 67.84,943.61 66.02,940.72              64.77,938.74 64.15,925.25 63.83,922.00              63.83,922.00 59.91,878.00 59.91,878.00              59.91,878.00 57.17,850.00 57.17,850.00              57.17,850.00 51.83,787.00 51.83,787.00              51.83,787.00 46.91,732.00 46.91,732.00              46.91,732.00 43.17,693.00 43.17,693.00              43.17,693.00 34.17,592.00 34.17,592.00              34.17,592.00 14.83,372.00 14.83,372.00              14.83,372.00 4.83,260.00 4.83,260.00              4.83,260.00 0.00,201.00 0.00,201.00 Z            M 590.00,352.00            C 590.00,352.00 135.00,352.00 135.00,352.00              135.00,352.00 136.83,375.00 136.83,375.00              136.83,375.00 140.17,414.00 140.17,414.00              140.17,414.00 143.00,444.00 143.00,444.00              143.00,444.00 490.00,444.00 490.00,444.00              490.00,444.00 487.17,474.00 487.17,474.00              487.17,474.00 483.83,514.00 483.83,514.00              483.83,514.00 482.00,536.00 482.00,536.00              482.00,536.00 151.00,536.00 151.00,536.00              151.00,536.00 152.83,555.00 152.83,555.00              152.83,555.00 157.17,606.00 157.17,606.00              157.17,606.00 158.72,621.00 158.72,621.00              158.72,621.00 160.60,626.98 160.60,626.98              160.60,626.98 168.00,628.00 168.00,628.00              168.00,628.00 474.00,628.00 474.00,628.00              474.00,628.00 470.83,663.00 470.83,663.00              470.83,663.00 466.17,712.00 466.17,712.00              466.17,712.00 464.28,734.00 464.28,734.00              463.98,736.53 464.23,740.72 462.98,742.78              461.00,746.03 453.60,747.44 450.00,748.37              450.00,748.37 418.00,756.88 418.00,756.88              418.00,756.88 380.00,767.15 380.00,767.15              376.21,768.18 365.23,771.60 362.00,771.52              362.00,771.52 336.00,764.87 336.00,764.87              336.00,764.87 261.00,745.00 261.00,745.00              261.00,745.00 259.17,720.00 259.17,720.00              259.17,720.00 256.83,691.00 256.83,691.00              256.83,691.00 255.00,672.00 255.00,672.00              255.00,672.00 194.00,672.00 194.00,672.00              194.00,672.00 163.00,673.00 163.00,673.00              163.00,673.00 169.17,741.00 169.17,741.00              169.17,741.00 174.17,797.00 174.17,797.00              174.17,797.00 176.00,816.00 176.00,816.00              176.00,816.00 220.00,827.85 220.00,827.85              220.00,827.85 309.00,852.42 309.00,852.42              309.00,852.42 345.00,862.42 345.00,862.42              345.00,862.42 364.00,866.66 364.00,866.66              364.00,866.66 380.00,862.42 380.00,862.42              380.00,862.42 409.00,854.42 409.00,854.42              409.00,854.42 499.00,829.58 499.00,829.58              499.00,829.58 549.00,816.00 549.00,816.00              549.00,816.00 549.91,806.00 549.91,806.00              549.91,806.00 552.83,773.00 552.83,773.00              552.83,773.00 559.83,695.00 559.83,695.00              559.83,695.00 580.17,465.00 580.17,465.00              580.17,465.00 587.09,387.00 587.09,387.00              587.09,387.00 590.00,352.00 590.00,352.00 Z" />
</svg>