<svg xmlns="http://www.w3.org/2000/svg" viewBox="-0.48 -0.41 550.96 550.87">
  <path id="dailymotion" fill="#303030" stroke="none" stroke-width="1"
    d="M 269.00,0.42            C 276.95,-0.54 284.98,0.91 293.00,1.00              309.79,1.20 335.69,6.61 352.00,11.29              440.65,36.75 511.23,106.70 537.72,195.00              542.84,212.08 548.79,239.34 549.00,257.00              549.00,257.00 549.98,276.00 549.98,276.00              549.98,276.00 549.00,292.00 549.00,292.00              548.91,310.71 542.41,341.01 536.66,359.00              510.48,440.91 444.24,509.27 362.00,535.66              343.08,541.73 312.70,548.77 293.00,549.00              293.00,549.00 277.00,549.96 277.00,549.96              277.00,549.96 257.00,549.00 257.00,549.00              233.36,548.72 200.19,540.32 178.00,532.05              96.03,501.50 33.22,432.29 10.15,348.00              6.23,333.65 1.02,306.59 1.00,292.00              1.00,292.00 0.02,276.00 0.02,276.00              0.02,276.00 1.00,257.00 1.00,257.00              1.00,257.00 1.92,247.00 1.92,247.00              4.34,216.67 13.64,185.58 26.31,158.00              56.85,91.49 118.23,36.73 188.00,14.34              205.27,8.80 223.98,4.47 242.00,2.28              242.00,2.28 269.00,0.42 269.00,0.42 Z            M 144.00,103.11            C 137.62,106.02 137.08,109.64 137.00,116.00              137.00,116.00 137.00,142.00 137.00,142.00              137.00,142.00 137.00,160.00 137.00,160.00              137.02,172.42 142.46,174.46 151.00,183.00              151.00,183.00 187.00,219.00 187.00,219.00              196.11,228.11 198.62,233.98 212.00,234.00              212.00,234.00 273.00,234.00 273.00,234.00              305.88,234.39 328.85,275.45 301.96,302.99              287.19,318.11 274.02,316.00 255.00,316.00              255.00,316.00 201.00,316.00 201.00,316.00              201.00,316.00 179.00,316.00 179.00,316.00              174.71,316.06 170.72,316.36 168.01,320.21              165.77,323.38 166.01,327.32 166.00,331.00              166.00,331.00 166.00,373.00 166.00,373.00              166.02,385.68 170.31,387.31 179.00,396.00              179.00,396.00 206.00,422.00 206.00,422.00              210.40,426.40 226.97,443.81 231.00,445.83              233.33,446.99 235.48,446.96 238.00,447.00              238.00,447.00 280.00,447.00 280.00,447.00              311.80,446.95 348.19,433.40 374.00,415.28              443.71,366.35 466.25,276.45 430.11,200.00              421.02,180.76 407.31,163.67 392.00,149.04              364.53,122.77 318.26,103.06 280.00,103.11              280.00,103.11 217.00,103.11 217.00,103.11              217.00,103.11 170.00,103.11 170.00,103.11              170.00,103.11 144.00,103.11 144.00,103.11 Z            M 170.00,121.00            C 170.00,121.00 281.00,121.00 281.00,121.00              315.54,121.05 356.28,139.40 381.00,163.04              435.13,214.80 445.45,298.81 402.97,361.00              391.54,377.74 378.74,390.54 362.00,401.97              339.85,417.10 307.01,428.96 280.00,429.00              280.00,429.00 244.00,429.00 244.00,429.00              244.00,429.00 244.00,390.00 244.00,390.00              279.32,390.00 308.73,390.04 339.00,368.25              367.09,348.04 387.95,314.27 388.00,279.00              388.00,279.00 388.00,271.00 388.00,271.00              387.98,256.45 382.92,236.84 376.11,224.00              367.81,208.36 356.11,194.56 342.00,183.90              303.78,155.01 263.75,160.09 219.00,160.00              206.78,159.98 203.41,152.92 195.00,145.09              189.25,139.73 173.92,126.43 170.00,121.00 Z            M 155.00,132.00            C 155.00,132.00 186.00,160.09 186.00,160.09              192.53,166.17 196.94,168.82 197.00,178.00              197.00,178.00 197.00,203.00 197.00,203.00              190.41,198.28 172.87,179.87 166.00,173.00              159.51,166.51 155.06,164.52 155.00,155.00              155.00,155.00 155.00,132.00 155.00,132.00 Z            M 215.00,178.00            C 215.00,178.00 273.00,178.00 273.00,178.00              289.47,178.03 304.40,182.33 319.00,189.76              376.34,218.91 387.68,299.10 341.83,343.72              323.32,361.73 297.80,371.96 272.00,372.00              272.00,372.00 246.00,372.00 246.00,372.00              234.50,371.98 234.19,367.58 226.00,360.17              219.33,354.13 203.64,340.49 199.00,334.00              199.00,334.00 271.00,334.00 271.00,334.00              311.81,333.94 343.44,293.01 327.79,254.00              325.47,248.22 322.12,242.59 317.91,238.00              308.52,227.77 299.53,221.34 286.00,217.75              276.89,215.34 267.34,216.00 258.00,216.00              258.00,216.00 215.00,216.00 215.00,216.00              215.00,216.00 215.00,178.00 215.00,178.00 Z            M 184.00,346.00            C 189.51,348.60 191.65,351.86 196.00,355.91              196.00,355.91 213.00,371.72 213.00,371.72              220.10,377.98 225.93,380.95 226.00,391.00              226.00,391.00 226.00,416.00 226.00,416.00              219.04,411.02 203.24,394.08 196.00,387.01              189.25,380.43 184.14,379.17 184.00,369.00              184.00,369.00 184.00,346.00 184.00,346.00 Z" />
</svg>