<svg xmlns="http://www.w3.org/2000/svg" viewBox="137.47 102.29 310 345.31">
  <path id="dailymotion-alt" fill="#303030" stroke="none" stroke-width="1"
    d="M 145.00,103.57            C 150.71,102.53 163.55,103.00 170.00,103.00              170.00,103.00 216.00,103.00 216.00,103.00              241.72,103.00 274.06,101.75 299.00,105.28              335.02,110.39 371.14,128.47 396.83,154.17              423.52,180.85 442.23,219.31 445.96,257.00              445.96,257.00 445.96,266.00 445.96,266.00              445.96,266.00 446.97,275.00 446.97,275.00              446.97,275.00 446.09,284.00 446.09,284.00              446.09,284.00 444.56,302.00 444.56,302.00              437.63,345.09 413.99,384.90 379.00,411.11              355.85,428.44 328.54,439.97 300.00,444.56              282.68,447.35 257.86,447.21 240.00,447.00              228.49,446.86 224.67,440.67 217.00,433.00              217.00,433.00 181.00,397.00 181.00,397.00              174.30,390.30 167.14,385.98 167.00,376.00              167.00,376.00 167.00,336.00 167.00,336.00              167.00,331.84 166.27,323.49 168.74,320.23              171.47,316.61 175.97,317.01 180.00,317.00              180.00,317.00 268.00,317.00 268.00,317.00              275.97,316.99 285.04,315.64 292.00,311.53              317.66,296.35 322.48,262.97 299.00,243.32              284.94,231.55 272.91,233.00 256.00,233.00              256.00,233.00 211.00,233.00 211.00,233.00              208.55,233.00 205.28,233.13 203.00,232.26              198.17,230.42 185.82,216.53 181.00,212.17              181.00,212.17 150.00,182.00 150.00,182.00              143.56,175.56 138.13,172.55 138.00,163.00              138.00,163.00 138.00,142.00 138.00,142.00              138.00,142.00 138.00,120.00 138.00,120.00              138.00,117.36 137.75,111.23 138.60,109.02              139.87,105.70 141.96,104.78 145.00,103.57 Z            M 244.00,430.00            C 244.00,430.00 275.00,430.00 275.00,430.00              304.37,429.95 336.73,419.66 361.00,403.26              379.85,390.51 396.90,372.57 408.55,353.00              444.17,293.12 434.02,215.36 384.83,166.17              363.69,145.03 336.21,129.99 307.00,123.66              285.67,119.04 268.45,120.00 247.00,120.00              247.00,120.00 169.00,120.00 169.00,120.00              171.26,124.16 176.48,128.59 180.00,131.96              180.00,131.96 201.00,151.28 201.00,151.28              208.87,158.22 208.21,160.98 219.00,161.00              219.00,161.00 255.00,161.00 255.00,161.00              255.00,161.00 274.00,161.00 274.00,161.00              295.63,161.03 320.34,169.01 338.00,181.44              388.97,217.33 403.35,284.63 368.92,337.00              361.64,348.07 351.58,358.18 341.00,366.11              322.31,380.10 296.42,388.96 273.00,389.00              273.00,389.00 244.00,389.00 244.00,389.00              244.00,389.00 244.00,430.00 244.00,430.00 Z            M 156.00,132.00            C 154.21,136.51 154.96,150.44 155.00,156.00              155.02,158.43 154.90,160.76 156.02,163.00              157.76,166.48 173.18,181.19 177.00,185.00              181.51,189.49 192.74,200.74 198.00,203.00              198.00,203.00 198.00,179.00 198.00,179.00              197.98,167.08 193.04,166.65 185.00,158.96              185.00,158.96 156.00,132.00 156.00,132.00 Z            M 198.00,333.00            C 200.42,338.00 212.35,348.54 217.00,352.58              221.92,356.85 233.96,369.61 239.00,371.41              240.99,372.12 243.87,372.00 246.00,372.00              276.72,372.06 297.26,374.66 325.00,357.54              367.32,331.42 383.93,274.05 359.97,230.00              352.26,215.83 341.45,203.38 328.00,194.36              313.83,184.86 295.17,178.03 278.00,178.00              278.00,178.00 214.00,178.00 214.00,178.00              214.00,178.00 214.00,216.00 214.00,216.00              214.00,216.00 249.00,216.00 249.00,216.00              273.86,216.00 296.16,215.21 314.83,235.04              324.06,244.84 330.84,258.37 331.00,272.00              331.00,272.00 331.00,276.00 331.00,276.00              330.95,306.31 304.31,332.95 274.00,333.00              274.00,333.00 198.00,333.00 198.00,333.00 Z            M 185.00,345.00            C 183.21,349.51 183.96,363.44 184.00,369.00              184.02,371.43 183.90,373.76 185.02,376.00              186.79,379.54 203.05,395.05 207.00,399.00              212.26,404.26 220.65,414.00 227.00,417.00              227.00,417.00 227.00,392.00 227.00,392.00              226.98,380.53 223.10,380.99 215.00,373.00              215.00,373.00 185.00,345.00 185.00,345.00 Z" />
</svg>