<svg xmlns="http://www.w3.org/2000/svg" viewBox="-0.5 -0.59 1281.12 230.09">
  <path id="dailymotion-wordmark" fill="#303030" stroke="none" stroke-width="1"
    d="M 309.00,0.53            C 313.72,-0.24 320.56,-0.54 325.00,1.36              347.61,11.03 342.13,47.19 314.00,45.96              288.54,44.84 283.93,8.02 309.00,0.53 Z            M 982.00,0.64            C 987.85,-0.54 995.65,-0.50 1001.00,2.41              1020.92,13.26 1014.70,47.12 988.00,45.96              963.08,44.88 957.00,10.07 982.00,0.64 Z            M 98.00,18.00            C 98.00,18.00 137.00,10.00 137.00,10.00              137.00,10.00 137.00,77.00 137.00,77.00              136.98,88.46 133.02,90.90 129.72,102.00              126.54,112.71 126.88,118.10 127.00,129.00              127.08,135.61 128.94,143.80 131.23,150.00              133.82,157.03 136.89,161.35 137.00,169.00              137.00,169.00 137.00,188.00 137.00,188.00              137.00,188.00 99.00,188.00 99.00,188.00              99.00,188.00 99.00,175.00 99.00,175.00              84.42,187.32 75.20,188.21 57.00,188.00              46.69,187.88 36.54,183.89 28.00,178.30              12.01,167.83 0.23,148.33 0.00,129.00              0.00,129.00 0.00,117.00 0.00,117.00              0.13,106.34 4.43,94.78 10.36,86.00              23.29,66.84 43.96,56.10 67.00,57.85              74.29,58.40 80.43,59.27 87.00,62.90              91.53,65.41 94.38,68.42 98.00,72.00              98.00,72.00 98.00,18.00 98.00,18.00 Z            M 353.00,188.00            C 353.00,188.00 353.00,27.00 353.00,27.00              353.00,27.00 354.60,18.93 354.60,18.93              354.60,18.93 365.00,16.00 365.00,16.00              365.00,16.00 392.00,11.00 392.00,11.00              392.00,11.00 392.00,188.00 392.00,188.00              392.00,188.00 353.00,188.00 353.00,188.00 Z            M 899.00,18.00            C 899.00,18.00 938.00,11.00 938.00,11.00              938.00,11.00 938.00,60.00 938.00,60.00              938.00,60.00 955.00,60.00 955.00,60.00              955.00,60.00 955.00,98.00 955.00,98.00              955.00,98.00 938.00,98.00 938.00,98.00              938.00,98.00 938.00,188.00 938.00,188.00              938.00,188.00 899.00,188.00 899.00,188.00              899.00,188.00 899.00,98.00 899.00,98.00              899.00,98.00 883.00,98.00 883.00,98.00              883.00,98.00 883.00,60.00 883.00,60.00              883.00,60.00 899.00,60.00 899.00,60.00              899.00,60.00 899.00,18.00 899.00,18.00 Z            M 584.00,75.00            C 594.56,50.33 641.24,51.80 652.00,77.00              657.08,72.03 664.72,65.20 671.00,62.13              683.64,55.50 703.41,55.89 716.00,62.13              724.48,66.57 735.93,78.65 734.63,89.00              734.63,89.00 730.72,101.00 730.72,101.00              728.60,108.03 726.73,118.70 727.04,126.00              727.32,132.64 729.50,143.70 731.69,150.00              734.17,157.11 736.89,160.25 737.00,168.00              737.00,168.00 737.00,188.00 737.00,188.00              737.00,188.00 700.00,188.00 700.00,188.00              700.00,188.00 700.00,120.00 700.00,120.00              699.91,112.27 698.83,100.66 691.91,95.99              680.40,88.22 665.97,96.31 662.49,109.00              660.26,117.13 661.00,129.30 661.00,138.00              661.00,138.00 661.00,188.00 661.00,188.00              661.00,188.00 623.00,188.00 623.00,188.00              623.00,188.00 623.00,114.00 623.00,114.00              622.93,108.58 622.17,103.38 618.61,99.11              611.80,90.77 598.36,91.85 591.21,99.11              586.75,103.76 585.08,110.80 585.00,117.00              585.00,117.00 585.00,188.00 585.00,188.00              585.00,188.00 548.00,188.00 548.00,188.00              548.00,188.00 548.00,60.00 548.00,60.00              548.00,60.00 583.00,60.00 583.00,60.00              583.00,60.00 584.00,75.00 584.00,75.00 Z            M 798.00,57.44            C 827.93,53.60 856.41,66.25 870.19,94.00              889.88,133.63 865.77,184.28 821.00,190.70              811.01,192.13 796.61,191.62 787.00,188.48              745.83,175.04 729.17,124.20 751.47,88.00              761.97,70.95 778.66,61.01 798.00,57.44 Z            M 1072.00,57.44            C 1102.31,53.55 1130.60,65.93 1144.63,94.00              1150.87,106.48 1151.15,115.52 1151.00,129.00              1150.64,159.24 1125.40,185.93 1096.00,190.56              1085.84,192.16 1071.83,191.74 1062.00,188.65              1053.39,185.96 1048.10,182.92 1041.00,177.33              1013.11,155.36 1007.62,112.43 1028.76,84.00              1039.24,69.90 1054.85,60.65 1072.00,57.44 Z            M 1201.00,75.00            C 1213.66,51.41 1259.59,49.83 1274.68,78.00              1281.37,90.51 1280.00,104.33 1280.00,118.00              1280.00,118.00 1280.00,188.00 1280.00,188.00              1280.00,188.00 1242.00,188.00 1242.00,188.00              1242.00,188.00 1242.00,119.00 1242.00,119.00              1241.91,111.88 1240.89,101.29 1234.90,96.65              1224.31,88.44 1208.02,94.71 1203.60,108.00              1201.26,115.04 1202.00,128.18 1202.00,136.00              1202.00,136.00 1202.00,188.00 1202.00,188.00              1202.00,188.00 1164.00,188.00 1164.00,188.00              1164.00,188.00 1164.00,60.00 1164.00,60.00              1164.00,60.00 1201.00,60.00 1201.00,60.00              1201.00,60.00 1201.00,75.00 1201.00,75.00 Z            M 241.00,175.00            C 229.01,184.57 223.96,186.53 209.00,188.58              200.27,189.77 187.15,187.32 179.00,183.99              169.76,180.21 161.77,173.69 155.46,166.00              138.62,145.45 135.85,112.94 149.45,90.00              162.53,67.94 181.79,57.71 207.00,58.00              213.24,58.08 220.33,59.48 226.00,62.12              232.44,65.13 235.08,68.10 240.00,73.00              240.00,73.00 240.00,60.00 240.00,60.00              240.00,60.00 278.00,60.00 278.00,60.00              278.00,60.00 278.00,188.00 278.00,188.00              278.00,188.00 241.00,188.00 241.00,188.00              241.00,188.00 241.00,175.00 241.00,175.00 Z            M 297.00,60.00            C 297.00,60.00 335.00,60.00 335.00,60.00              335.00,60.00 335.00,188.00 335.00,188.00              335.00,188.00 297.00,188.00 297.00,188.00              297.00,188.00 297.00,60.00 297.00,60.00 Z            M 403.00,60.00            C 403.00,60.00 437.00,60.00 437.00,60.00              439.14,60.00 442.71,59.77 444.49,61.02              447.16,62.89 449.82,74.41 451.00,78.00              451.00,78.00 469.00,132.00 469.00,132.00              469.00,132.00 488.66,77.00 488.66,77.00              488.66,77.00 495.51,61.02 495.51,61.02              495.51,61.02 503.00,60.00 503.00,60.00              503.00,60.00 536.00,60.00 536.00,60.00              536.00,60.00 518.60,106.00 518.60,106.00              518.60,106.00 485.19,191.00 485.19,191.00              485.19,191.00 474.40,218.00 474.40,218.00              474.40,218.00 469.49,227.98 469.49,227.98              469.49,227.98 462.00,229.00 462.00,229.00              462.00,229.00 431.00,229.00 431.00,229.00              431.00,229.00 443.69,194.00 443.69,194.00              443.69,194.00 448.27,179.00 448.27,179.00              448.27,179.00 444.42,168.00 444.42,168.00              444.42,168.00 436.60,148.00 436.60,148.00              436.60,148.00 414.80,92.00 414.80,92.00              414.80,92.00 403.00,60.00 403.00,60.00 Z            M 970.00,60.00            C 970.00,60.00 1008.00,60.00 1008.00,60.00              1008.00,60.00 1008.00,86.00 1008.00,86.00              1008.00,86.00 1003.21,109.00 1003.21,109.00              1003.21,109.00 1002.00,129.00 1002.00,129.00              1002.00,129.00 1008.00,161.00 1008.00,161.00              1008.00,161.00 1008.00,188.00 1008.00,188.00              1008.00,188.00 970.00,188.00 970.00,188.00              970.00,188.00 970.00,60.00 970.00,60.00 Z            M 63.00,92.32            C 31.88,99.31 30.10,139.63 56.00,150.54              60.47,152.42 63.20,152.94 68.00,153.00              77.00,153.10 83.03,152.25 89.96,145.82              105.12,131.74 101.58,104.50 83.00,94.99              76.59,91.71 70.00,91.56 63.00,92.32 Z            M 206.00,92.30            C 200.40,93.36 196.68,94.49 192.00,97.93              177.04,108.92 174.90,131.58 188.18,144.82              193.58,150.20 202.45,153.47 210.00,153.91              242.57,155.80 252.74,109.50 224.00,95.00              218.40,92.17 212.14,91.69 206.00,92.30 Z            M 806.00,93.30            C 793.59,95.64 784.41,102.47 780.79,115.00              774.87,135.49 790.83,157.89 813.00,154.70              844.33,150.20 847.88,104.64 818.00,94.75              813.50,93.26 810.70,92.87 806.00,93.30 Z            M 1081.00,93.29            C 1070.11,95.08 1062.14,99.72 1057.14,110.00              1047.85,129.08 1059.76,153.99 1082.00,154.96              1086.57,155.16 1089.74,154.59 1094.00,152.93              1125.54,140.64 1115.41,90.78 1081.00,93.29 Z" />
</svg>