<svg xmlns="http://www.w3.org/2000/svg" viewBox="0.5 156.5 509 333">
  <path id="deezer" fill="#303030" stroke="none" stroke-width="1"
    d="M 399.00,157.00            C 399.00,157.00 509.00,157.00 509.00,157.00              509.00,157.00 509.00,223.00 509.00,223.00              509.00,223.00 399.00,223.00 399.00,223.00              399.00,223.00 399.00,157.00 399.00,157.00 Z            M 133.00,246.00            C 133.00,246.00 244.00,246.00 244.00,246.00              244.00,246.00 244.00,312.00 244.00,312.00              244.00,312.00 133.00,312.00 133.00,312.00              133.00,312.00 133.00,246.00 133.00,246.00 Z            M 399.00,246.00            C 399.00,246.00 509.00,246.00 509.00,246.00              509.00,246.00 509.00,312.00 509.00,312.00              509.00,312.00 399.00,312.00 399.00,312.00              399.00,312.00 399.00,246.00 399.00,246.00 Z            M 133.00,335.00            C 133.00,335.00 244.00,335.00 244.00,335.00              244.00,335.00 244.00,401.00 244.00,401.00              244.00,401.00 133.00,401.00 133.00,401.00              133.00,401.00 133.00,335.00 133.00,335.00 Z            M 266.00,335.00            C 266.00,335.00 377.00,335.00 377.00,335.00              377.00,335.00 377.00,401.00 377.00,401.00              377.00,401.00 266.00,401.00 266.00,401.00              266.00,401.00 266.00,335.00 266.00,335.00 Z            M 399.00,335.00            C 399.00,335.00 509.00,335.00 509.00,335.00              509.00,335.00 509.00,401.00 509.00,401.00              509.00,401.00 399.00,401.00 399.00,401.00              399.00,401.00 399.00,335.00 399.00,335.00 Z            M 1.00,424.00            C 1.00,424.00 86.00,424.00 86.00,424.00              86.00,424.00 105.00,424.00 105.00,424.00              105.00,424.00 110.98,425.60 110.98,425.60              110.98,425.60 112.00,433.00 112.00,433.00              112.00,433.00 112.00,489.00 112.00,489.00              112.00,489.00 1.00,489.00 1.00,489.00              1.00,489.00 1.00,424.00 1.00,424.00 Z            M 133.00,424.00            C 133.00,424.00 244.00,424.00 244.00,424.00              244.00,424.00 244.00,489.00 244.00,489.00              244.00,489.00 133.00,489.00 133.00,489.00              133.00,489.00 133.00,424.00 133.00,424.00 Z            M 266.00,424.00            C 266.00,424.00 377.00,424.00 377.00,424.00              377.00,424.00 377.00,489.00 377.00,489.00              377.00,489.00 266.00,489.00 266.00,489.00              266.00,489.00 266.00,424.00 266.00,424.00 Z            M 399.00,424.00            C 399.00,424.00 509.00,424.00 509.00,424.00              509.00,424.00 509.00,489.00 509.00,489.00              509.00,489.00 399.00,489.00 399.00,489.00              399.00,489.00 399.00,424.00 399.00,424.00 Z" />
</svg>