<svg xmlns="http://www.w3.org/2000/svg" viewBox="0.5 -0.5 2559 490.03">
  <path id="deezer-wordmark" fill="#303030" stroke="none" stroke-width="1"
    d="M 861.00,0.00            C 861.00,0.00 951.00,0.00 951.00,0.00              951.00,0.00 951.00,489.00 951.00,489.00              951.00,489.00 865.00,489.00 865.00,489.00              865.00,489.00 865.00,444.00 865.00,444.00              856.28,454.08 854.47,457.81 843.00,466.25              815.46,486.49 780.99,489.38 748.00,489.00              748.00,489.00 739.00,488.17 739.00,488.17              714.25,485.77 693.81,480.75 672.00,468.28              632.04,445.43 609.90,406.49 602.43,362.00              599.49,344.43 599.80,326.76 600.00,309.00              600.00,309.00 601.73,292.00 601.73,292.00              606.58,257.99 620.16,226.07 644.09,201.01              668.49,175.46 711.69,158.06 747.00,158.00              747.00,158.00 770.00,158.00 770.00,158.00              786.93,158.20 811.11,164.29 826.00,172.31              843.71,181.85 848.93,188.89 861.00,204.00              861.00,204.00 861.00,0.00 861.00,0.00 Z            M 399.00,157.00            C 399.00,157.00 509.00,157.00 509.00,157.00              509.00,157.00 509.00,223.00 509.00,223.00              509.00,223.00 399.00,223.00 399.00,223.00              399.00,223.00 399.00,157.00 399.00,157.00 Z            M 1304.00,392.00            C 1301.78,401.47 1294.01,416.77 1288.66,425.00              1281.86,435.44 1275.14,443.41 1266.00,451.91              1243.53,472.82 1212.95,483.38 1183.00,487.28              1183.00,487.28 1164.00,489.00 1164.00,489.00              1164.00,489.00 1137.00,489.00 1137.00,489.00              1129.45,488.91 1116.59,487.03 1109.00,485.61              1069.82,478.28 1032.99,459.87 1008.01,428.00              987.27,401.53 977.23,370.19 974.91,337.00              974.91,337.00 974.00,327.00 974.00,327.00              973.45,279.70 987.97,231.71 1024.00,199.17              1037.05,187.38 1051.83,177.82 1068.00,170.87              1091.92,160.60 1118.15,156.88 1144.00,157.00              1144.00,157.00 1155.00,157.91 1155.00,157.91              1203.08,161.22 1249.04,179.11 1274.13,223.00              1285.60,243.06 1290.49,263.16 1292.09,286.00              1292.09,286.00 1293.00,297.00 1293.00,297.00              1293.07,311.70 1290.95,325.51 1289.00,340.00              1289.00,340.00 1064.00,340.00 1064.00,340.00              1064.00,340.00 1067.16,360.00 1067.16,360.00              1071.38,376.01 1081.00,390.24 1094.00,400.48              1121.19,421.90 1169.01,425.67 1198.00,405.91              1212.27,396.18 1223.17,378.76 1227.00,362.00              1227.00,362.00 1261.00,374.80 1261.00,374.80              1261.00,374.80 1304.00,392.00 1304.00,392.00 Z            M 1557.00,362.00            C 1563.22,363.13 1572.79,367.52 1579.00,370.00              1579.00,370.00 1614.00,383.80 1614.00,383.80              1617.35,385.14 1631.50,390.04 1632.88,392.50              1633.96,394.44 1632.71,397.12 1632.00,399.00              1632.00,399.00 1625.74,413.00 1625.74,413.00              1614.94,433.94 1598.92,452.27 1579.00,464.95              1556.06,479.55 1521.19,488.96 1494.00,489.00              1494.00,489.00 1467.00,489.00 1467.00,489.00              1467.00,489.00 1457.00,488.08 1457.00,488.08              1426.22,485.62 1391.79,474.21 1367.00,455.63              1329.51,427.52 1309.57,388.21 1305.04,342.00              1305.04,342.00 1305.04,334.00 1305.04,334.00              1305.04,334.00 1304.00,322.00 1304.00,322.00              1304.00,322.00 1304.00,318.00 1304.00,318.00              1304.00,318.00 1304.91,308.00 1304.91,308.00              1308.44,257.49 1330.03,213.01 1373.00,184.35              1397.13,168.26 1425.26,159.92 1454.00,157.91              1454.00,157.91 1464.00,157.00 1464.00,157.00              1515.26,156.40 1567.25,170.29 1598.57,214.00              1604.31,222.00 1608.92,230.86 1612.55,240.00              1621.01,261.33 1623.26,284.26 1623.00,307.00              1622.88,317.11 1620.88,330.01 1619.00,340.00              1619.00,340.00 1395.00,340.00 1395.00,340.00              1395.00,369.96 1411.09,395.74 1438.00,409.19              1448.32,414.35 1459.61,416.95 1471.00,418.16              1501.54,421.43 1530.79,412.25 1547.57,385.00              1551.77,378.18 1555.40,369.85 1557.00,362.00 Z            M 1643.00,157.00            C 1643.00,157.00 1932.00,157.00 1932.00,157.00              1932.00,157.00 1932.00,224.00 1932.00,224.00              1931.98,234.97 1927.55,236.45 1920.00,244.00              1920.00,244.00 1888.00,275.00 1888.00,275.00              1888.00,275.00 1867.00,295.96 1867.00,295.96              1867.00,295.96 1857.00,305.01 1857.00,305.01              1857.00,305.01 1830.00,331.96 1830.00,331.96              1830.00,331.96 1752.00,408.00 1752.00,408.00              1752.00,408.00 1937.00,408.00 1937.00,408.00              1937.00,408.00 1937.00,489.00 1937.00,489.00              1937.00,489.00 1638.00,489.00 1638.00,489.00              1638.00,489.00 1638.00,419.00 1638.00,419.00              1638.02,408.03 1642.45,406.55 1650.00,399.00              1650.00,399.00 1681.00,369.00 1681.00,369.00              1681.00,369.00 1710.00,340.04 1710.00,340.04              1710.00,340.04 1721.00,330.00 1721.00,330.00              1721.00,330.00 1761.00,290.04 1761.00,290.04              1761.00,290.04 1771.00,280.99 1771.00,280.99              1771.00,280.99 1818.00,235.00 1818.00,235.00              1818.00,235.00 1643.00,235.00 1643.00,235.00              1643.00,235.00 1643.00,157.00 1643.00,157.00 Z            M 2273.00,392.00            C 2262.74,422.72 2243.76,448.79 2216.00,465.94              2193.77,479.66 2159.14,488.96 2133.00,489.00              2133.00,489.00 2105.00,489.00 2105.00,489.00              2078.42,488.69 2041.81,478.05 2019.00,464.55              1975.82,439.00 1951.69,399.08 1944.87,350.00              1944.87,350.00 1943.00,331.00 1943.00,331.00              1943.00,331.00 1943.00,314.00 1943.00,314.00              1943.00,314.00 1943.92,302.00 1943.92,302.00              1947.13,261.83 1964.94,224.22 1995.00,197.17              2022.14,172.75 2057.00,160.43 2093.00,157.91              2093.00,157.91 2103.00,157.00 2103.00,157.00              2155.41,156.39 2208.53,171.29 2239.25,217.00              2251.85,235.75 2260.96,265.36 2261.00,288.00              2261.00,288.00 2261.00,313.00 2261.00,313.00              2261.00,313.00 2258.00,340.00 2258.00,340.00              2258.00,340.00 2033.00,340.00 2033.00,340.00              2033.94,360.40 2040.76,379.08 2055.17,393.91              2082.31,421.86 2137.43,427.71 2169.00,404.24              2183.87,393.18 2190.35,378.94 2196.00,362.00              2196.00,362.00 2230.00,374.80 2230.00,374.80              2230.00,374.80 2273.00,392.00 2273.00,392.00 Z            M 2294.00,158.00            C 2294.00,158.00 2384.00,158.00 2384.00,158.00              2384.00,158.00 2384.00,188.00 2384.00,188.00              2384.00,188.00 2385.00,206.00 2385.00,206.00              2389.46,190.35 2405.78,174.97 2420.00,167.76              2454.33,150.34 2501.09,155.85 2530.00,181.29              2548.46,197.54 2558.96,226.72 2559.00,251.00              2559.00,251.00 2559.00,282.00 2559.00,282.00              2559.00,282.00 2471.00,282.00 2471.00,282.00              2471.00,264.21 2471.06,252.48 2458.38,238.09              2439.39,216.53 2406.74,221.16 2392.12,245.00              2385.69,255.48 2384.02,272.83 2384.00,285.00              2384.00,285.00 2384.00,489.00 2384.00,489.00              2384.00,489.00 2294.00,489.00 2294.00,489.00              2294.00,489.00 2294.00,158.00 2294.00,158.00 Z            M 1065.00,280.00            C 1065.00,280.00 1197.00,280.00 1197.00,280.00              1198.98,280.00 1202.82,280.23 1204.48,278.98              1207.12,276.82 1205.17,269.03 1204.48,266.00              1202.32,255.10 1196.54,245.45 1188.00,238.32              1174.64,227.18 1155.07,222.81 1138.00,223.00              1104.95,223.39 1070.32,245.55 1065.00,280.00 Z            M 1536.00,280.00            C 1535.99,271.02 1534.69,262.14 1530.63,254.00              1519.96,232.67 1494.64,223.27 1472.00,223.00              1435.92,222.58 1402.48,242.95 1395.00,280.00              1395.00,280.00 1536.00,280.00 1536.00,280.00 Z            M 2034.00,280.00            C 2034.00,280.00 2093.00,280.00 2093.00,280.00              2093.00,280.00 2166.00,280.00 2166.00,280.00              2167.86,280.00 2171.79,280.25 2173.28,279.01              2175.29,277.21 2173.88,268.59 2173.28,266.00              2171.11,255.54 2165.29,245.28 2157.00,238.47              2144.88,228.51 2126.57,223.19 2111.00,223.00              2085.25,222.70 2061.20,231.70 2045.64,253.00              2040.11,260.58 2034.85,270.54 2034.00,280.00 Z            M 771.00,228.28            C 771.00,228.28 755.00,230.89 755.00,230.89              730.17,237.13 711.23,252.99 700.11,276.00              690.91,295.03 689.76,311.36 690.00,332.00              690.43,368.37 713.19,403.07 748.00,414.67              755.02,417.01 763.59,418.91 771.00,419.00              792.81,419.25 809.86,416.45 828.00,403.08              884.90,361.12 875.40,250.11 797.00,230.63              788.74,228.57 779.49,227.49 771.00,228.28 Z            M 133.00,246.00            C 133.00,246.00 244.00,246.00 244.00,246.00              244.00,246.00 244.00,312.00 244.00,312.00              244.00,312.00 133.00,312.00 133.00,312.00              133.00,312.00 133.00,246.00 133.00,246.00 Z            M 399.00,246.00            C 399.00,246.00 509.00,246.00 509.00,246.00              509.00,246.00 509.00,312.00 509.00,312.00              509.00,312.00 399.00,312.00 399.00,312.00              399.00,312.00 399.00,246.00 399.00,246.00 Z            M 133.00,335.00            C 133.00,335.00 244.00,335.00 244.00,335.00              244.00,335.00 244.00,401.00 244.00,401.00              244.00,401.00 133.00,401.00 133.00,401.00              133.00,401.00 133.00,335.00 133.00,335.00 Z            M 266.00,335.00            C 266.00,335.00 377.00,335.00 377.00,335.00              377.00,335.00 377.00,401.00 377.00,401.00              377.00,401.00 266.00,401.00 266.00,401.00              266.00,401.00 266.00,335.00 266.00,335.00 Z            M 399.00,335.00            C 399.00,335.00 509.00,335.00 509.00,335.00              509.00,335.00 509.00,401.00 509.00,401.00              509.00,401.00 399.00,401.00 399.00,401.00              399.00,401.00 399.00,335.00 399.00,335.00 Z            M 1.00,424.00            C 1.00,424.00 86.00,424.00 86.00,424.00              86.00,424.00 105.00,424.00 105.00,424.00              105.00,424.00 110.98,425.60 110.98,425.60              110.98,425.60 112.00,433.00 112.00,433.00              112.00,433.00 112.00,489.00 112.00,489.00              112.00,489.00 1.00,489.00 1.00,489.00              1.00,489.00 1.00,424.00 1.00,424.00 Z            M 133.00,424.00            C 133.00,424.00 244.00,424.00 244.00,424.00              244.00,424.00 244.00,489.00 244.00,489.00              244.00,489.00 133.00,489.00 133.00,489.00              133.00,489.00 133.00,424.00 133.00,424.00 Z            M 266.00,424.00            C 266.00,424.00 377.00,424.00 377.00,424.00              377.00,424.00 377.00,489.00 377.00,489.00              377.00,489.00 266.00,489.00 266.00,489.00              266.00,489.00 266.00,424.00 266.00,424.00 Z            M 399.00,424.00            C 399.00,424.00 509.00,424.00 509.00,424.00              509.00,424.00 509.00,489.00 509.00,489.00              509.00,489.00 399.00,489.00 399.00,489.00              399.00,489.00 399.00,424.00 399.00,424.00 Z" />
</svg>