<svg xmlns="http://www.w3.org/2000/svg" viewBox="5.5 5.71 2037 2036.79">
  <path id="dell" fill="#303030" stroke="none" stroke-width="1"
    d="M 1007.00,6.21            C 1007.00,6.21 1034.00,6.21 1034.00,6.21              1034.00,6.21 1050.00,7.00 1050.00,7.00              1050.00,7.00 1065.00,7.00 1065.00,7.00              1065.00,7.00 1084.00,8.00 1084.00,8.00              1084.00,8.00 1095.00,8.91 1095.00,8.91              1095.00,8.91 1140.00,12.84 1140.00,12.84              1204.48,19.73 1268.11,33.74 1330.00,52.98              1475.76,98.27 1613.73,179.49 1724.00,284.96              1724.00,284.96 1754.96,315.00 1754.96,315.00              1865.06,430.11 1945.85,564.29 1994.34,716.00              2011.37,769.28 2023.29,822.66 2031.27,878.00              2031.27,878.00 2039.09,953.00 2039.09,953.00              2039.09,953.00 2040.00,963.00 2040.00,963.00              2040.00,963.00 2041.00,983.00 2041.00,983.00              2041.00,983.00 2042.00,1035.00 2042.00,1035.00              2042.00,1035.00 2041.00,1050.00 2041.00,1050.00              2041.00,1050.00 2041.00,1066.00 2041.00,1066.00              2041.00,1066.00 2040.00,1085.00 2040.00,1085.00              2040.00,1085.00 2039.09,1095.00 2039.09,1095.00              2039.09,1095.00 2034.16,1148.00 2034.16,1148.00              2028.48,1201.09 2015.55,1260.72 2000.58,1312.00              1954.79,1468.77 1869.75,1613.08 1756.96,1731.00              1756.96,1731.00 1724.00,1763.09 1724.00,1763.09              1724.00,1763.09 1668.00,1812.58 1668.00,1812.58              1574.43,1889.27 1466.49,1949.00 1352.00,1988.00              1285.49,2010.65 1216.68,2025.68 1147.00,2034.28              1147.00,2034.28 1095.00,2039.09 1095.00,2039.09              1095.00,2039.09 1085.00,2040.00 1085.00,2040.00              1085.00,2040.00 1067.00,2041.00 1067.00,2041.00              1067.00,2041.00 1048.00,2041.00 1048.00,2041.00              1048.00,2041.00 1032.00,2042.00 1032.00,2042.00              1032.00,2042.00 984.00,2041.00 984.00,2041.00              984.00,2041.00 963.00,2040.00 963.00,2040.00              963.00,2040.00 953.00,2039.09 953.00,2039.09              953.00,2039.09 892.00,2033.15 892.00,2033.15              823.24,2024.93 754.35,2008.02 689.00,1985.34              583.36,1948.68 484.04,1894.31 396.00,1825.34              317.71,1764.01 248.86,1691.16 191.42,1610.00              111.00,1496.34 58.38,1372.68 28.58,1237.00              20.83,1201.74 15.42,1165.89 11.83,1130.00              11.83,1130.00 8.91,1095.00 8.91,1095.00              8.91,1095.00 8.00,1081.00 8.00,1081.00              8.00,1081.00 7.00,1066.00 7.00,1066.00              7.00,1066.00 7.00,1050.00 7.00,1050.00              7.00,1050.00 6.00,1034.00 6.00,1034.00              6.00,1034.00 7.00,983.00 7.00,983.00              7.00,983.00 8.00,963.00 8.00,963.00              8.00,963.00 8.91,953.00 8.91,953.00              11.11,920.81 14.64,888.89 19.92,857.00              35.63,762.12 63.70,672.96 104.78,586.00              183.64,419.09 311.60,273.47 466.00,172.66              506.06,146.50 547.50,122.67 591.00,102.69              634.69,82.63 678.91,64.60 725.00,50.72              786.10,32.32 849.45,18.53 913.00,12.17              913.00,12.17 953.00,8.91 953.00,8.91              953.00,8.91 963.00,8.00 963.00,8.00              963.00,8.00 983.00,7.00 983.00,7.00              983.00,7.00 1007.00,6.21 1007.00,6.21 Z            M 1003.00,117.14            C 996.45,118.23 990.57,117.99 984.00,118.00              984.00,118.00 972.00,119.00 972.00,119.00              972.00,119.00 963.00,119.00 963.00,119.00              963.00,119.00 911.00,124.16 911.00,124.16              858.44,129.81 801.46,143.34 751.00,159.02              551.72,220.96 375.16,356.81 262.31,532.00              240.04,566.57 219.48,602.60 202.31,640.00              177.38,694.29 156.68,750.81 142.88,809.00              133.10,850.26 126.05,891.82 121.83,934.00              121.83,934.00 118.91,973.00 118.91,973.00              118.91,973.00 118.00,985.00 118.00,985.00              118.00,985.00 118.00,1002.00 118.00,1002.00              118.00,1002.00 117.00,1017.00 117.00,1017.00              117.00,1017.00 117.00,1032.00 117.00,1032.00              117.00,1032.00 118.00,1047.00 118.00,1047.00              118.00,1047.00 118.00,1065.00 118.00,1065.00              118.00,1065.00 118.96,1076.00 118.96,1076.00              118.96,1076.00 123.84,1133.00 123.84,1133.00              131.05,1200.45 149.71,1274.35 173.05,1338.00              197.75,1405.37 231.58,1470.34 271.35,1530.00              318.96,1601.40 380.13,1667.75 446.00,1722.57              528.94,1791.59 622.51,1843.58 724.00,1879.69              782.76,1900.60 853.97,1917.52 916.00,1924.16              916.00,1924.16 972.00,1929.04 972.00,1929.04              972.00,1929.04 983.00,1930.00 983.00,1930.00              983.00,1930.00 1036.00,1931.00 1036.00,1931.00              1036.00,1931.00 1049.00,1930.00 1049.00,1930.00              1132.81,1929.02 1216.97,1913.85 1297.00,1888.98              1342.36,1874.88 1386.55,1856.47 1429.00,1835.25              1636.20,1731.65 1796.42,1552.61 1875.95,1335.00              1897.56,1275.87 1912.62,1214.31 1921.42,1152.00              1921.42,1152.00 1928.09,1087.00 1928.09,1087.00              1928.09,1087.00 1929.00,1077.00 1929.00,1077.00              1929.00,1077.00 1930.00,1057.00 1930.00,1057.00              1930.00,1057.00 1930.00,991.00 1930.00,991.00              1930.00,991.00 1929.00,971.00 1929.00,971.00              1929.00,971.00 1928.09,961.00 1928.09,961.00              1928.09,961.00 1921.27,895.00 1921.27,895.00              1913.85,843.52 1903.18,796.56 1887.34,747.00              1846.11,617.99 1777.23,502.09 1684.91,403.00              1684.91,403.00 1663.00,381.00 1663.00,381.00              1552.19,270.19 1413.24,189.81 1262.00,148.85              1195.93,130.96 1121.40,118.80 1053.00,118.00              1053.00,118.00 1038.00,117.14 1038.00,117.14              1038.00,117.14 1003.00,117.14 1003.00,117.14 Z            M 668.00,931.00            C 674.43,927.27 680.99,921.30 687.00,916.65              687.00,916.65 727.00,885.21 727.00,885.21              727.00,885.21 836.00,799.58 836.00,799.58              836.00,799.58 880.00,765.00 880.00,765.00              883.14,762.51 894.77,752.44 898.00,752.29              900.68,752.17 903.99,755.21 906.00,756.80              906.00,756.80 922.00,769.40 922.00,769.40              922.00,769.40 964.00,802.42 964.00,802.42              964.00,802.42 984.00,818.00 984.00,818.00              984.00,818.00 964.00,835.00 964.00,835.00              964.00,835.00 924.00,866.42 924.00,866.42              924.00,866.42 831.00,939.58 831.00,939.58              831.00,939.58 774.00,985.00 774.00,985.00              774.00,985.00 802.00,1005.79 802.00,1005.79              802.00,1005.79 813.42,1013.41 813.42,1013.41              813.42,1013.41 827.00,1003.79 827.00,1003.79              827.00,1003.79 861.00,977.00 861.00,977.00              861.00,977.00 979.00,884.35 979.00,884.35              979.00,884.35 1010.00,860.00 1010.00,860.00              1010.00,860.00 1023.00,851.03 1023.00,851.03              1023.00,851.03 1031.00,855.20 1031.00,855.20              1031.00,855.20 1046.00,866.88 1046.00,866.88              1046.00,866.88 1086.00,898.21 1086.00,898.21              1086.00,898.21 1109.00,916.00 1109.00,916.00              1106.15,921.75 1096.32,928.23 1091.00,932.35              1091.00,932.35 1054.00,961.42 1054.00,961.42              1054.00,961.42 951.00,1042.58 951.00,1042.58              951.00,1042.58 919.00,1067.65 919.00,1067.65              913.41,1071.98 904.03,1078.64 900.00,1084.00              906.06,1086.73 921.88,1099.92 928.00,1104.80              930.90,1107.11 936.09,1112.43 940.00,1111.40              942.66,1110.70 951.32,1103.32 954.00,1101.21              954.00,1101.21 986.00,1076.12 986.00,1076.12              986.00,1076.12 1103.00,984.00 1103.00,984.00              1103.00,984.00 1135.00,958.88 1135.00,958.88              1138.21,956.41 1147.01,950.23 1148.40,946.83              1149.12,945.06 1149.00,941.95 1149.00,940.00              1149.00,940.00 1149.00,797.00 1149.00,797.00              1149.00,797.00 1302.00,797.00 1302.00,797.00              1302.00,797.00 1302.00,1106.00 1302.00,1106.00              1302.00,1106.00 1419.00,1106.00 1419.00,1106.00              1419.00,1106.00 1446.00,1106.00 1446.00,1106.00              1446.00,1106.00 1453.40,1107.02 1453.40,1107.02              1453.40,1107.02 1455.00,1115.00 1455.00,1115.00              1455.00,1115.00 1455.00,1208.00 1455.00,1208.00              1455.00,1208.00 1455.00,1229.00 1455.00,1229.00              1455.00,1229.00 1453.40,1234.98 1453.40,1234.98              1453.40,1234.98 1446.00,1236.00 1446.00,1236.00              1446.00,1236.00 1149.00,1236.00 1149.00,1236.00              1149.00,1236.00 1149.00,1084.00 1149.00,1084.00              1149.00,1084.00 1098.00,1124.21 1098.00,1124.21              1098.00,1124.21 964.00,1229.79 964.00,1229.79              964.00,1229.79 917.00,1266.80 917.00,1266.80              913.64,1269.47 901.59,1280.02 898.00,1279.93              894.67,1279.84 884.19,1270.58 881.00,1268.12              881.00,1268.12 838.00,1234.21 838.00,1234.21              838.00,1234.21 725.00,1145.21 725.00,1145.21              725.00,1145.21 669.00,1101.00 669.00,1101.00              661.00,1119.57 650.81,1137.36 637.92,1153.00              602.49,1195.96 553.20,1224.39 498.00,1232.57              471.15,1236.55 430.35,1235.00 402.00,1235.00              402.00,1235.00 267.00,1235.00 267.00,1235.00              267.00,1235.00 267.00,797.00 267.00,797.00              267.00,797.00 409.00,797.00 409.00,797.00              409.00,797.00 476.00,797.00 476.00,797.00              476.00,797.00 495.00,798.72 495.00,798.72              535.06,803.93 572.38,819.83 604.00,845.00              624.91,861.65 641.00,880.16 654.80,903.00              659.53,910.83 666.33,922.06 668.00,931.00 Z            M 1494.00,797.00            C 1494.00,797.00 1648.00,797.00 1648.00,797.00              1648.00,797.00 1648.00,1106.00 1648.00,1106.00              1648.00,1106.00 1800.00,1106.00 1800.00,1106.00              1800.00,1106.00 1800.00,1236.00 1800.00,1236.00              1800.00,1236.00 1494.00,1236.00 1494.00,1236.00              1494.00,1236.00 1494.00,797.00 1494.00,797.00 Z            M 414.00,1108.00            C 447.46,1108.00 477.55,1111.64 507.00,1091.91              528.83,1077.29 541.96,1050.08 542.00,1024.00              542.00,1024.00 542.00,1006.00 542.00,1006.00              541.71,981.77 528.33,955.84 509.00,941.48              480.63,920.40 447.25,923.00 414.00,923.00              414.00,923.00 414.00,1108.00 414.00,1108.00 Z" />
</svg>