<svg xmlns="http://www.w3.org/2000/svg" viewBox="266.5 751.79 1534 528.64">
  <path id="dell-alt" fill="#303030" stroke="none" stroke-width="1"
    d="M 668.00,931.00            C 674.43,927.27 680.99,921.30 687.00,916.65              687.00,916.65 727.00,885.21 727.00,885.21              727.00,885.21 836.00,799.58 836.00,799.58              836.00,799.58 880.00,765.00 880.00,765.00              883.14,762.51 894.77,752.44 898.00,752.29              900.68,752.17 903.99,755.21 906.00,756.80              906.00,756.80 922.00,769.40 922.00,769.40              922.00,769.40 964.00,802.42 964.00,802.42              964.00,802.42 984.00,818.00 984.00,818.00              984.00,818.00 964.00,835.00 964.00,835.00              964.00,835.00 924.00,866.42 924.00,866.42              924.00,866.42 831.00,939.58 831.00,939.58              831.00,939.58 774.00,985.00 774.00,985.00              774.00,985.00 802.00,1005.79 802.00,1005.79              802.00,1005.79 813.42,1013.41 813.42,1013.41              813.42,1013.41 827.00,1003.79 827.00,1003.79              827.00,1003.79 861.00,977.00 861.00,977.00              861.00,977.00 979.00,884.35 979.00,884.35              979.00,884.35 1010.00,860.00 1010.00,860.00              1010.00,860.00 1023.00,851.03 1023.00,851.03              1023.00,851.03 1031.00,855.20 1031.00,855.20              1031.00,855.20 1046.00,866.88 1046.00,866.88              1046.00,866.88 1086.00,898.21 1086.00,898.21              1086.00,898.21 1109.00,916.00 1109.00,916.00              1106.15,921.75 1096.32,928.23 1091.00,932.35              1091.00,932.35 1054.00,961.42 1054.00,961.42              1054.00,961.42 951.00,1042.58 951.00,1042.58              951.00,1042.58 919.00,1067.65 919.00,1067.65              913.41,1071.98 904.03,1078.64 900.00,1084.00              906.06,1086.73 921.88,1099.92 928.00,1104.80              930.90,1107.11 936.09,1112.43 940.00,1111.40              942.66,1110.70 951.32,1103.32 954.00,1101.21              954.00,1101.21 986.00,1076.12 986.00,1076.12              986.00,1076.12 1103.00,984.00 1103.00,984.00              1103.00,984.00 1135.00,958.88 1135.00,958.88              1138.21,956.41 1147.01,950.23 1148.40,946.83              1149.12,945.06 1149.00,941.95 1149.00,940.00              1149.00,940.00 1149.00,797.00 1149.00,797.00              1149.00,797.00 1302.00,797.00 1302.00,797.00              1302.00,797.00 1302.00,1106.00 1302.00,1106.00              1302.00,1106.00 1419.00,1106.00 1419.00,1106.00              1419.00,1106.00 1446.00,1106.00 1446.00,1106.00              1446.00,1106.00 1453.40,1107.02 1453.40,1107.02              1453.40,1107.02 1455.00,1115.00 1455.00,1115.00              1455.00,1115.00 1455.00,1208.00 1455.00,1208.00              1455.00,1208.00 1455.00,1229.00 1455.00,1229.00              1455.00,1229.00 1453.40,1234.98 1453.40,1234.98              1453.40,1234.98 1446.00,1236.00 1446.00,1236.00              1446.00,1236.00 1149.00,1236.00 1149.00,1236.00              1149.00,1236.00 1149.00,1084.00 1149.00,1084.00              1149.00,1084.00 1098.00,1124.21 1098.00,1124.21              1098.00,1124.21 964.00,1229.79 964.00,1229.79              964.00,1229.79 917.00,1266.80 917.00,1266.80              913.64,1269.47 901.59,1280.02 898.00,1279.93              894.67,1279.84 884.19,1270.58 881.00,1268.12              881.00,1268.12 838.00,1234.21 838.00,1234.21              838.00,1234.21 725.00,1145.21 725.00,1145.21              725.00,1145.21 669.00,1101.00 669.00,1101.00              661.00,1119.57 650.81,1137.36 637.92,1153.00              602.49,1195.96 553.20,1224.39 498.00,1232.57              471.15,1236.55 430.35,1235.00 402.00,1235.00              402.00,1235.00 267.00,1235.00 267.00,1235.00              267.00,1235.00 267.00,797.00 267.00,797.00              267.00,797.00 409.00,797.00 409.00,797.00              409.00,797.00 476.00,797.00 476.00,797.00              476.00,797.00 495.00,798.72 495.00,798.72              535.06,803.93 572.38,819.83 604.00,845.00              624.91,861.65 641.00,880.16 654.80,903.00              659.53,910.83 666.33,922.06 668.00,931.00 Z            M 1494.00,797.00            C 1494.00,797.00 1648.00,797.00 1648.00,797.00              1648.00,797.00 1648.00,1106.00 1648.00,1106.00              1648.00,1106.00 1800.00,1106.00 1800.00,1106.00              1800.00,1106.00 1800.00,1236.00 1800.00,1236.00              1800.00,1236.00 1494.00,1236.00 1494.00,1236.00              1494.00,1236.00 1494.00,797.00 1494.00,797.00 Z            M 414.00,1108.00            C 447.46,1108.00 477.55,1111.64 507.00,1091.91              528.83,1077.29 541.96,1050.08 542.00,1024.00              542.00,1024.00 542.00,1006.00 542.00,1006.00              541.71,981.77 528.33,955.84 509.00,941.48              480.63,920.40 447.25,923.00 414.00,923.00              414.00,923.00 414.00,1108.00 414.00,1108.00 Z" />
</svg>