<svg xmlns="http://www.w3.org/2000/svg" viewBox="1.5 1.71 2046 2045.79">
  <path id="delphi-lang" fill="#303030" stroke="none" stroke-width="1"
    d="M 997.00,2.21            C 997.00,2.21 1045.00,2.21 1045.00,2.21              1045.00,2.21 1060.00,3.00 1060.00,3.00              1146.62,4.01 1246.23,22.25 1329.00,47.98              1481.39,95.33 1619.69,177.75 1735.00,288.04              1735.00,288.04 1769.09,323.00 1769.09,323.00              1791.63,347.19 1813.23,371.89 1833.58,398.00              1916.14,503.96 1978.73,630.05 2012.88,760.00              2026.95,813.51 2036.66,865.94 2042.17,921.00              2042.17,921.00 2045.00,950.00 2045.00,950.00              2045.00,950.00 2045.00,959.00 2045.00,959.00              2045.00,959.00 2046.00,969.00 2046.00,969.00              2046.00,969.00 2047.00,990.00 2047.00,990.00              2047.00,990.00 2047.00,1062.00 2047.00,1062.00              2047.00,1062.00 2046.00,1081.00 2046.00,1081.00              2046.00,1081.00 2045.04,1092.00 2045.04,1092.00              2045.04,1092.00 2039.28,1154.00 2039.28,1154.00              2032.02,1209.64 2021.33,1262.10 2005.58,1316.00              1914.56,1627.31 1674.27,1879.68 1369.00,1988.31              1298.26,2013.48 1228.37,2029.58 1154.00,2039.28              1154.00,2039.28 1092.00,2045.04 1092.00,2045.04              1092.00,2045.04 1080.00,2046.00 1080.00,2046.00              1080.00,2046.00 1058.00,2047.00 1058.00,2047.00              1058.00,2047.00 991.00,2047.00 991.00,2047.00              991.00,2047.00 969.00,2046.00 969.00,2046.00              969.00,2046.00 958.00,2045.04 958.00,2045.04              958.00,2045.04 896.00,2039.28 896.00,2039.28              823.04,2030.28 751.26,2013.34 682.00,1988.69              581.89,1953.07 487.23,1902.25 403.00,1837.35              320.15,1773.51 251.24,1702.09 190.43,1617.00              91.41,1478.44 30.12,1316.78 9.28,1148.00              6.25,1123.40 3.04,1086.48 3.00,1062.00              3.00,1062.00 2.00,1045.00 2.00,1045.00              2.00,1045.00 2.00,1004.00 2.00,1004.00              2.00,1004.00 3.04,987.00 3.04,987.00              3.04,987.00 3.04,974.00 3.04,974.00              3.04,974.00 4.00,964.00 4.00,964.00              4.00,964.00 5.83,938.00 5.83,938.00              5.83,938.00 15.92,856.00 15.92,856.00              31.95,759.17 58.39,677.10 99.31,588.00              119.94,543.07 145.59,499.11 173.00,458.00              303.06,262.90 496.07,117.63 720.00,48.02              777.33,30.21 843.30,15.56 903.00,9.16              903.00,9.16 964.00,4.00 964.00,4.00              964.00,4.00 977.00,3.00 977.00,3.00              977.00,3.00 997.00,2.21 997.00,2.21 Z            M 1290.00,274.00            C 1290.00,274.00 1261.00,271.17 1261.00,271.17              1261.00,271.17 1226.00,269.00 1226.00,269.00              1226.00,269.00 1209.00,268.00 1209.00,268.00              1209.00,268.00 1159.00,268.00 1159.00,268.00              1159.00,268.00 1143.00,269.00 1143.00,269.00              1120.01,269.11 1096.83,272.12 1074.00,274.85              1074.00,274.85 1018.00,283.80 1018.00,283.80              1014.24,284.53 998.76,287.24 996.51,288.98              994.39,290.63 993.76,294.50 993.13,297.00              993.13,297.00 988.00,316.00 988.00,316.00              988.00,316.00 967.58,392.00 967.58,392.00              967.58,392.00 918.58,574.00 918.58,574.00              918.58,574.00 897.85,651.00 897.85,651.00              897.85,651.00 886.00,696.00 886.00,696.00              886.00,696.00 924.00,685.65 924.00,685.65              948.77,679.97 973.66,675.76 999.00,673.91              999.00,673.91 1009.00,673.00 1009.00,673.00              1009.00,673.00 1028.00,672.00 1028.00,672.00              1028.00,672.00 1044.00,672.00 1044.00,672.00              1044.00,672.00 1067.00,673.00 1067.00,673.00              1069.76,673.00 1073.37,673.22 1075.82,671.83              1079.68,669.62 1085.05,657.48 1087.58,653.00              1087.58,653.00 1101.31,627.00 1101.31,627.00              1101.31,627.00 1122.78,587.00 1122.78,587.00              1122.78,587.00 1169.69,500.00 1169.69,500.00              1169.69,500.00 1236.31,376.00 1236.31,376.00              1236.31,376.00 1271.86,310.00 1271.86,310.00              1276.03,302.48 1288.66,281.03 1290.00,274.00 Z            M 1680.00,426.00            C 1680.00,426.00 1625.00,390.00 1625.00,390.00              1575.43,360.26 1527.23,337.78 1473.00,317.95              1473.00,317.95 1421.00,301.14 1421.00,301.14              1417.60,300.18 1403.91,295.78 1401.32,296.67              1398.89,297.50 1396.43,301.89 1394.98,304.00              1394.98,304.00 1383.14,321.00 1383.14,321.00              1383.14,321.00 1335.58,390.00 1335.58,390.00              1335.58,390.00 1287.98,459.00 1287.98,459.00              1287.98,459.00 1200.98,585.00 1200.98,585.00              1200.98,585.00 1159.58,645.00 1159.58,645.00              1154.41,652.30 1137.55,675.34 1135.00,682.00              1171.31,686.90 1218.63,703.99 1252.00,719.31              1252.00,719.31 1286.00,736.77 1286.00,736.77              1291.13,739.56 1296.85,743.91 1303.00,742.72              1307.22,741.91 1310.80,738.14 1314.00,735.42              1314.00,735.42 1333.00,719.27 1333.00,719.27              1333.00,719.27 1403.00,660.13 1403.00,660.13              1403.00,660.13 1467.00,606.58 1467.00,606.58              1467.00,606.58 1592.00,501.42 1592.00,501.42              1592.00,501.42 1650.00,452.59 1650.00,452.59              1657.16,446.58 1675.25,432.48 1680.00,426.00 Z            M 914.00,311.00            C 914.00,311.00 894.00,318.05 894.00,318.05              894.00,318.05 847.00,336.43 847.00,336.43              798.81,356.99 751.60,382.60 708.00,411.67              708.00,411.67 664.00,443.01 664.00,443.01              658.30,447.42 650.55,450.98 651.17,459.00              651.17,459.00 654.83,498.00 654.83,498.00              654.83,498.00 662.17,589.00 662.17,589.00              662.17,589.00 673.09,719.00 673.09,719.00              673.09,719.00 674.91,738.00 674.91,738.00              674.91,738.00 678.17,781.00 678.17,781.00              678.17,781.00 681.00,818.00 681.00,818.00              686.22,815.53 692.55,809.11 697.00,805.07              697.00,805.07 719.00,786.45 719.00,786.45              742.87,767.35 768.25,749.70 795.00,734.86              795.00,734.86 830.00,717.31 830.00,717.31              834.32,715.33 842.44,712.98 844.84,708.89              846.44,706.17 846.92,700.25 847.42,697.00              847.42,697.00 851.25,674.00 851.25,674.00              851.25,674.00 865.42,593.00 865.42,593.00              865.42,593.00 896.42,415.00 896.42,415.00              896.42,415.00 908.08,348.00 908.08,348.00              908.08,348.00 914.00,311.00 914.00,311.00 Z            M 585.00,512.00            C 585.00,512.00 561.00,537.00 561.00,537.00              521.37,577.09 503.64,601.27 471.98,647.00              471.98,647.00 447.81,682.00 447.81,682.00              445.62,685.56 440.52,693.05 440.39,697.00              440.25,701.68 448.30,716.08 450.75,721.00              450.75,721.00 477.75,775.00 477.75,775.00              477.75,775.00 538.25,897.00 538.25,897.00              538.25,897.00 561.25,943.00 561.25,943.00              561.25,943.00 574.00,969.00 574.00,969.00              574.00,969.00 576.00,969.00 576.00,969.00              587.99,941.12 610.66,905.85 628.43,881.00              628.43,881.00 647.61,856.00 647.61,856.00              650.71,852.22 656.38,846.62 657.57,842.00              659.07,836.24 654.61,820.50 653.21,814.00              653.21,814.00 638.42,749.00 638.42,749.00              638.42,749.00 605.42,602.00 605.42,602.00              605.42,602.00 591.65,541.00 591.65,541.00              591.65,541.00 585.00,512.00 585.00,512.00 Z            M 1390.00,841.00            C 1390.00,841.00 1370.00,823.44 1370.00,823.44              1370.00,823.44 1331.00,793.15 1331.00,793.15              1291.75,764.64 1243.58,738.77 1198.00,722.05              1156.49,706.83 1114.03,697.92 1070.00,694.91              1070.00,694.91 1058.00,694.00 1058.00,694.00              1058.00,694.00 1022.00,694.00 1022.00,694.00              1022.00,694.00 1012.00,694.91 1012.00,694.91              980.16,697.09 948.82,702.01 918.00,710.58              822.96,737.00 742.53,785.59 676.17,859.00              616.60,924.89 575.02,1007.83 558.20,1095.00              554.22,1115.62 551.35,1136.08 549.91,1157.00              549.91,1157.00 548.96,1169.00 548.96,1169.00              548.96,1169.00 548.96,1183.00 548.96,1183.00              548.96,1183.00 548.03,1192.00 548.03,1192.00              548.03,1192.00 548.96,1201.00 548.96,1201.00              548.96,1201.00 548.96,1215.00 548.96,1215.00              548.96,1215.00 549.91,1225.00 549.91,1225.00              549.91,1225.00 556.58,1277.00 556.58,1277.00              564.99,1323.65 579.54,1368.57 600.75,1411.00              620.22,1449.93 644.19,1484.21 672.72,1517.00              672.72,1517.00 695.00,1540.00 695.00,1540.00              699.33,1544.33 703.40,1549.35 709.00,1552.00              728.87,1522.34 771.52,1510.21 805.00,1504.59              816.87,1502.59 839.24,1500.02 851.00,1500.00              851.00,1500.00 870.00,1499.00 870.00,1499.00              870.00,1499.00 895.00,1499.00 895.00,1499.00              895.00,1499.00 914.00,1500.00 914.00,1500.00              914.00,1500.00 926.00,1500.91 926.00,1500.91              926.00,1500.91 966.00,1504.17 966.00,1504.17              966.00,1504.17 1019.00,1510.28 1019.00,1510.28              1019.00,1510.28 1048.00,1514.00 1048.00,1514.00              1048.00,1514.00 1036.26,1488.00 1036.26,1488.00              1036.26,1488.00 1016.26,1446.00 1016.26,1446.00              1016.26,1446.00 971.74,1352.00 971.74,1352.00              971.74,1352.00 952.22,1311.00 952.22,1311.00              952.22,1311.00 943.00,1292.00 943.00,1292.00              943.00,1292.00 890.00,1303.00 890.00,1303.00              890.00,1303.00 874.12,1230.00 874.12,1230.00              872.66,1223.66 867.44,1206.37 870.17,1201.01              872.09,1197.26 877.52,1193.71 881.00,1191.34              881.00,1191.34 902.00,1177.28 902.00,1177.28              902.00,1177.28 986.00,1119.67 986.00,1119.67              986.00,1119.67 1073.00,1060.02 1073.00,1060.02              1073.00,1060.02 1208.00,967.98 1208.00,967.98              1208.00,967.98 1278.00,920.00 1278.00,920.00              1278.00,920.00 1358.00,865.02 1358.00,865.02              1358.00,865.02 1379.00,850.67 1379.00,850.67              1383.55,847.60 1387.41,845.99 1390.00,841.00 Z            M 920.00,761.00            C 920.00,761.00 921.00,762.00 921.00,762.00              921.00,762.00 885.00,784.35 885.00,784.35              799.64,841.26 718.79,921.89 675.69,1016.00              665.97,1037.24 657.15,1059.29 651.47,1082.00              645.81,1104.66 643.04,1124.87 640.83,1148.00              640.83,1148.00 639.32,1177.00 639.32,1177.00              639.32,1177.00 640.00,1185.00 640.00,1185.00              640.00,1185.00 640.00,1196.00 640.00,1196.00              640.02,1209.69 643.56,1233.23 646.20,1247.00              653.55,1285.34 666.25,1322.85 683.26,1358.00              683.26,1358.00 713.20,1412.00 713.20,1412.00              717.39,1418.98 728.36,1436.09 730.00,1443.00              730.00,1443.00 705.00,1455.25 705.00,1455.25              701.94,1456.77 697.50,1459.48 694.02,1458.36              689.35,1456.86 685.04,1447.27 682.70,1443.00              682.70,1443.00 660.69,1400.00 660.69,1400.00              639.23,1353.25 626.52,1318.48 615.79,1268.00              612.24,1251.28 607.20,1219.65 607.00,1203.00              607.00,1203.00 607.00,1167.00 607.00,1167.00              607.00,1167.00 607.91,1155.00 607.91,1155.00              610.13,1122.77 616.12,1090.71 626.35,1060.00              672.14,922.65 792.52,821.13 920.00,761.00 Z            M 399.00,777.00            C 393.50,782.51 385.69,803.79 382.40,812.00              371.13,840.16 361.16,868.82 352.86,898.00              352.86,898.00 345.63,925.00 345.63,925.00              344.84,928.14 342.90,934.00 343.83,937.00              345.18,941.37 352.53,946.79 356.00,950.02              356.00,950.02 392.00,981.95 392.00,981.95              392.00,981.95 483.00,1062.16 483.00,1062.16              483.00,1062.16 516.00,1091.28 516.00,1091.28              521.49,1096.06 527.87,1102.42 534.00,1106.00              537.43,1080.02 544.18,1055.03 551.72,1030.00              551.72,1030.00 558.81,1010.00 558.81,1010.00              560.18,1006.40 562.19,1001.90 561.62,998.00              560.81,992.34 552.03,981.87 548.37,977.00              548.37,977.00 516.87,935.00 516.87,935.00              516.87,935.00 440.63,833.00 440.63,833.00              440.63,833.00 399.00,777.00 399.00,777.00 Z            M 1450.00,828.00            C 1450.00,828.00 1397.00,863.98 1397.00,863.98              1397.00,863.98 1295.00,933.98 1295.00,933.98              1295.00,933.98 1009.00,1130.28 1009.00,1130.28              1009.00,1130.28 924.00,1188.58 924.00,1188.58              924.00,1188.58 903.00,1203.00 903.00,1203.00              899.54,1205.32 894.32,1208.22 892.49,1212.04              890.49,1216.23 893.00,1221.74 894.12,1226.00              894.12,1226.00 901.58,1253.00 901.58,1253.00              901.58,1253.00 905.65,1266.70 905.65,1266.70              907.53,1269.73 911.12,1268.37 914.00,1267.80              914.00,1267.80 938.00,1263.00 938.00,1263.00              938.00,1263.00 1040.00,1242.80 1040.00,1242.80              1040.00,1242.80 1264.00,1199.20 1264.00,1199.20              1264.00,1199.20 1378.00,1176.61 1378.00,1176.61              1378.00,1176.61 1468.00,1159.00 1468.00,1159.00              1468.00,1159.00 1491.00,1154.60 1491.00,1154.60              1493.74,1154.05 1498.31,1153.39 1500.26,1151.30              1503.54,1147.78 1500.15,1135.65 1499.42,1131.00              1499.42,1131.00 1490.08,1073.00 1490.08,1073.00              1490.08,1073.00 1464.42,914.00 1464.42,914.00              1464.42,914.00 1455.41,858.00 1455.41,858.00              1455.41,858.00 1450.00,828.00 1450.00,828.00 Z            M 532.00,1260.00            C 532.00,1260.00 528.91,1228.00 528.91,1228.00              528.91,1228.00 528.00,1216.00 528.00,1216.00              528.00,1216.00 528.00,1165.00 528.00,1165.00              528.00,1165.00 529.00,1150.00 529.00,1150.00              529.03,1146.72 529.32,1141.92 527.83,1139.01              525.55,1134.58 519.17,1131.31 515.00,1128.68              515.00,1128.68 484.00,1109.60 484.00,1109.60              484.00,1109.60 376.00,1042.80 376.00,1042.80              376.00,1042.80 345.00,1023.58 345.00,1023.58              339.79,1020.33 333.76,1015.83 328.00,1014.00              328.00,1014.00 322.17,1066.00 322.17,1066.00              322.17,1066.00 320.00,1110.00 320.00,1110.00              320.00,1110.00 319.00,1126.00 319.00,1126.00              319.00,1126.00 319.00,1152.00 319.00,1152.00              319.00,1152.00 320.00,1167.00 320.00,1167.00              320.00,1167.00 320.00,1180.00 320.00,1180.00              320.12,1188.78 321.81,1187.93 334.00,1192.00              334.00,1192.00 369.00,1204.05 369.00,1204.05              369.00,1204.05 477.00,1241.34 477.00,1241.34              477.00,1241.34 532.00,1260.00 532.00,1260.00 Z            M 562.00,1376.00            C 562.00,1376.00 545.15,1323.00 545.15,1323.00              543.81,1318.10 541.00,1303.50 537.72,1300.65              534.53,1297.86 524.47,1296.16 520.00,1295.21              520.00,1295.21 480.00,1286.80 480.00,1286.80              480.00,1286.80 377.00,1265.40 377.00,1265.40              377.00,1265.40 327.00,1256.00 327.00,1256.00              328.75,1277.55 338.67,1326.18 344.13,1348.00              344.13,1348.00 349.58,1369.00 349.58,1369.00              350.18,1371.17 350.95,1375.63 352.72,1377.01              354.67,1378.52 363.24,1378.01 366.00,1378.00              366.00,1378.00 382.00,1377.00 382.00,1377.00              382.00,1377.00 432.00,1377.00 432.00,1377.00              432.00,1377.00 449.00,1376.00 449.00,1376.00              449.00,1376.00 562.00,1376.00 562.00,1376.00 Z            M 977.00,1313.00            C 977.71,1319.66 983.23,1329.67 986.22,1336.00              986.22,1336.00 1005.14,1377.00 1005.14,1377.00              1005.14,1377.00 1034.69,1441.00 1034.69,1441.00              1034.69,1441.00 1076.22,1531.00 1076.22,1531.00              1076.22,1531.00 1121.31,1629.00 1121.31,1629.00              1121.31,1629.00 1150.42,1692.00 1150.42,1692.00              1150.42,1692.00 1166.69,1727.00 1166.69,1727.00              1166.69,1727.00 1207.69,1816.00 1207.69,1816.00              1207.69,1816.00 1223.74,1851.00 1223.74,1851.00              1225.55,1854.75 1228.00,1862.05 1231.21,1864.40              1235.04,1867.20 1240.17,1864.56 1244.00,1862.99              1244.00,1862.99 1274.00,1848.75 1274.00,1848.75              1299.58,1835.95 1330.78,1814.01 1348.92,1792.00              1359.12,1779.62 1368.36,1762.45 1367.99,1746.00              1367.80,1738.14 1361.34,1716.23 1358.67,1708.00              1358.67,1708.00 1337.42,1650.00 1337.42,1650.00              1312.37,1591.28 1274.12,1530.17 1229.96,1484.00              1196.57,1449.09 1168.12,1430.06 1133.00,1399.87              1108.07,1378.44 1085.23,1355.23 1062.00,1332.00              1062.00,1332.00 1042.00,1312.00 1042.00,1312.00              1039.51,1309.52 1035.34,1304.85 1032.00,1303.91              1029.40,1303.17 1019.28,1305.37 1016.00,1305.92              1016.00,1305.92 977.00,1313.00 977.00,1313.00 Z            M 614.00,1476.00            C 614.00,1476.00 586.25,1428.00 586.25,1428.00              583.53,1422.57 578.13,1409.89 572.96,1407.18              568.73,1404.96 562.40,1407.27 558.00,1408.37              558.00,1408.37 524.00,1416.58 524.00,1416.58              524.00,1416.58 427.00,1439.63 427.00,1439.63              427.00,1439.63 377.00,1452.00 377.00,1452.00              378.99,1460.50 390.58,1486.88 394.70,1496.00              406.37,1521.89 418.93,1547.31 433.00,1572.00              433.00,1572.00 495.00,1539.31 495.00,1539.31              495.00,1539.31 614.00,1476.00 614.00,1476.00 Z            M 640.00,1754.00            C 640.00,1754.00 676.00,1744.42 676.00,1744.42              700.78,1738.92 726.62,1735.29 752.00,1735.00              752.00,1735.00 766.00,1734.00 766.00,1734.00              766.00,1734.00 796.00,1734.00 796.00,1734.00              796.00,1734.00 811.00,1735.00 811.00,1735.00              811.00,1735.00 843.00,1736.91 843.00,1736.91              843.00,1736.91 928.00,1745.15 928.00,1745.15              928.00,1745.15 1017.00,1759.58 1017.00,1759.58              1017.00,1759.58 1040.00,1763.76 1040.00,1763.76              1042.55,1764.01 1047.35,1765.25 1049.61,1763.76              1051.88,1762.62 1055.39,1755.53 1056.77,1753.00              1056.77,1753.00 1071.77,1726.00 1071.77,1726.00              1071.77,1726.00 1092.23,1689.00 1092.23,1689.00              1094.57,1684.70 1100.32,1675.48 1100.75,1671.00              1101.22,1666.01 1094.64,1654.08 1092.42,1649.00              1092.42,1649.00 1066.78,1593.00 1066.78,1593.00              1066.78,1593.00 1051.22,1559.00 1051.22,1559.00              1049.31,1554.96 1046.18,1547.08 1042.89,1544.51              1038.75,1541.27 1021.12,1540.52 1015.00,1539.72              1015.00,1539.72 942.00,1531.72 942.00,1531.72              891.61,1525.51 844.20,1524.51 794.00,1533.58              773.23,1537.33 743.58,1545.48 728.00,1560.09              724.87,1563.03 721.88,1566.39 719.55,1570.00              719.55,1570.00 696.72,1622.00 696.72,1622.00              696.72,1622.00 640.00,1754.00 640.00,1754.00 Z            M 699.00,1691.00            C 698.43,1685.09 702.17,1679.18 704.75,1674.00              704.75,1674.00 719.58,1643.00 719.58,1643.00              719.58,1643.00 743.75,1593.00 743.75,1593.00              746.78,1586.95 751.69,1574.28 756.10,1570.22              761.39,1565.36 779.43,1561.97 787.00,1560.13              807.12,1555.24 831.35,1551.50 852.00,1550.00              852.00,1550.00 861.00,1550.00 861.00,1550.00              861.00,1550.00 877.00,1549.00 877.00,1549.00              877.00,1549.00 909.00,1551.92 909.00,1551.92              913.89,1552.72 919.05,1552.84 923.00,1556.00              891.51,1551.85 844.66,1561.49 814.00,1570.29              804.51,1573.02 784.02,1577.21 777.29,1583.47              773.05,1587.40 763.57,1601.47 759.58,1607.00              759.58,1607.00 719.42,1663.00 719.42,1663.00              719.42,1663.00 699.00,1691.00 699.00,1691.00 Z" />
</svg>