<svg xmlns="http://www.w3.org/2000/svg" viewBox="318.5 267.5 1362 1598.65">
  <path id="delphi-lang-alt" fill="#303030" stroke="none" stroke-width="1"
    d="M 886.00,696.00            C 886.00,696.00 895.85,659.00 895.85,659.00              895.85,659.00 913.85,592.00 913.85,592.00              913.85,592.00 967.12,394.00 967.12,394.00              967.12,394.00 987.85,317.00 987.85,317.00              987.85,317.00 993.15,297.00 993.15,297.00              993.15,297.00 996.53,289.16 996.53,289.16              996.53,289.16 1017.00,284.20 1017.00,284.20              1017.00,284.20 1068.00,275.73 1068.00,275.73              1068.00,275.73 1127.00,269.96 1127.00,269.96              1127.00,269.96 1139.00,269.00 1139.00,269.00              1139.00,269.00 1161.00,268.00 1161.00,268.00              1161.00,268.00 1206.00,268.00 1206.00,268.00              1206.00,268.00 1223.00,269.00 1223.00,269.00              1223.00,269.00 1229.00,269.00 1229.00,269.00              1229.00,269.00 1239.00,269.91 1239.00,269.91              1239.00,269.91 1270.00,272.17 1270.00,272.17              1270.00,272.17 1290.00,274.00 1290.00,274.00              1288.59,280.93 1276.37,301.50 1272.31,309.00              1272.31,309.00 1237.31,374.00 1237.31,374.00              1237.31,374.00 1163.69,511.00 1163.69,511.00              1163.69,511.00 1123.26,586.00 1123.26,586.00              1123.26,586.00 1102.31,625.00 1102.31,625.00              1102.31,625.00 1087.42,653.00 1087.42,653.00              1084.41,658.35 1079.77,670.21 1073.98,672.40              1072.11,673.11 1069.04,673.00 1067.00,673.00              1067.00,673.00 1047.00,672.00 1047.00,672.00              1047.00,672.00 1025.00,672.00 1025.00,672.00              1025.00,672.00 1008.00,673.00 1008.00,673.00              1008.00,673.00 988.00,674.83 988.00,674.83              949.67,678.66 922.74,685.35 886.00,696.00 Z            M 1135.00,682.00            C 1137.68,675.68 1152.73,654.85 1157.58,648.00              1157.58,648.00 1196.98,591.00 1196.98,591.00              1196.98,591.00 1334.98,391.00 1334.98,391.00              1334.98,391.00 1383.33,321.00 1383.33,321.00              1383.33,321.00 1395.00,304.00 1395.00,304.00              1396.70,301.48 1398.92,297.59 1402.04,296.78              1404.51,296.14 1417.65,300.24 1421.00,301.15              1421.00,301.15 1472.00,317.67 1472.00,317.67              1521.28,334.25 1583.65,364.64 1628.00,391.81              1628.00,391.81 1680.00,426.00 1680.00,426.00              1674.95,432.72 1661.02,443.10 1654.00,449.13              1654.00,449.13 1592.00,501.27 1592.00,501.27              1592.00,501.27 1398.00,664.25 1398.00,664.25              1398.00,664.25 1330.00,721.73 1330.00,721.73              1330.00,721.73 1313.00,736.13 1313.00,736.13              1309.76,738.91 1306.45,742.34 1302.00,742.84              1296.11,743.51 1289.01,738.45 1284.00,735.58              1284.00,735.58 1251.00,718.78 1251.00,718.78              1227.53,707.69 1202.94,698.70 1178.00,691.58              1168.42,688.85 1144.20,682.75 1135.00,682.00 Z            M 681.00,818.00            C 681.00,818.00 679.09,791.00 679.09,791.00              679.09,791.00 674.09,730.00 674.09,730.00              674.09,730.00 662.17,588.00 662.17,588.00              662.17,588.00 659.83,557.00 659.83,557.00              659.83,557.00 653.83,485.00 653.83,485.00              653.83,485.00 651.76,464.00 651.76,464.00              651.70,461.11 650.55,456.82 651.76,454.17              652.97,450.74 664.53,442.73 668.00,440.13              668.00,440.13 712.00,409.05 712.00,409.05              759.44,378.95 800.07,356.37 852.00,334.58              852.00,334.58 892.00,318.95 892.00,318.95              898.70,316.50 907.04,313.08 914.00,312.00              914.00,312.00 895.58,420.00 895.58,420.00              895.58,420.00 866.25,588.00 866.25,588.00              866.25,588.00 851.75,671.00 851.75,671.00              851.75,671.00 847.41,697.00 847.41,697.00              846.92,699.96 846.07,706.41 844.69,708.81              842.40,712.81 834.28,715.28 830.00,717.23              830.00,717.23 795.00,734.86 795.00,734.86              767.79,750.04 742.30,767.73 718.00,787.20              718.00,787.20 693.00,808.42 693.00,808.42              688.69,812.16 686.20,815.54 681.00,818.00 Z            M 584.00,512.00            C 587.14,516.76 589.22,530.77 590.65,537.00              590.65,537.00 602.42,589.00 602.42,589.00              602.42,589.00 641.00,761.00 641.00,761.00              641.00,761.00 653.37,815.00 653.37,815.00              654.81,820.83 658.95,836.82 657.57,842.00              656.53,845.91 651.88,850.83 649.25,854.00              649.25,854.00 632.00,876.00 632.00,876.00              617.63,896.11 603.94,916.49 591.72,938.00              586.49,947.19 579.42,959.21 576.00,969.00              576.00,969.00 574.00,969.00 574.00,969.00              574.00,969.00 560.25,941.00 560.25,941.00              560.25,941.00 537.25,895.00 537.25,895.00              537.25,895.00 525.75,871.00 525.75,871.00              525.75,871.00 475.75,771.00 475.75,771.00              475.75,771.00 449.25,718.00 449.25,718.00              446.83,713.16 439.70,700.95 440.51,696.00              441.02,692.86 446.68,684.18 448.60,681.00              448.60,681.00 474.14,644.00 474.14,644.00              493.95,616.19 513.22,588.37 536.17,563.00              536.17,563.00 571.17,526.00 571.17,526.00              575.49,521.22 580.22,517.28 584.00,512.00 Z            M 707.00,1552.00            C 707.00,1552.00 677.17,1522.00 677.17,1522.00              646.38,1487.97 619.28,1449.37 599.26,1408.00              576.78,1361.57 560.99,1311.14 553.87,1260.00              553.87,1260.00 549.91,1223.00 549.91,1223.00              549.91,1223.00 549.00,1211.00 549.00,1211.00              549.00,1211.00 549.00,1168.00 549.00,1168.00              549.00,1168.00 549.91,1158.00 549.91,1158.00              551.42,1136.12 554.29,1114.53 558.60,1093.00              577.40,999.02 624.58,910.22 692.00,842.00              757.39,775.84 841.55,728.56 932.00,707.12              958.56,700.82 985.72,696.15 1013.00,694.96              1013.00,694.96 1024.00,694.00 1024.00,694.00              1053.50,693.66 1082.85,694.54 1112.00,699.43              1165.90,708.48 1209.29,724.40 1258.00,748.75              1289.79,764.65 1326.25,788.44 1354.00,810.60              1363.75,818.39 1383.23,833.54 1390.00,843.00              1390.00,843.00 1259.00,932.98 1259.00,932.98              1259.00,932.98 1086.00,1051.02 1086.00,1051.02              1086.00,1051.02 1018.00,1097.67 1018.00,1097.67              1018.00,1097.67 911.00,1170.98 911.00,1170.98              911.00,1170.98 883.00,1190.00 883.00,1190.00              878.82,1192.79 872.46,1196.48 870.17,1201.00              867.39,1206.51 872.41,1222.58 873.79,1229.00              873.79,1229.00 883.00,1273.00 883.00,1273.00              884.62,1281.08 887.28,1295.81 890.00,1303.00              890.00,1303.00 943.00,1292.00 943.00,1292.00              943.00,1292.00 970.22,1349.00 970.22,1349.00              970.22,1349.00 1014.26,1442.00 1014.26,1442.00              1014.26,1442.00 1034.26,1484.00 1034.26,1484.00              1034.26,1484.00 1048.00,1514.00 1048.00,1514.00              1048.00,1514.00 1019.00,1510.15 1019.00,1510.15              1019.00,1510.15 939.00,1501.83 939.00,1501.83              939.00,1501.83 912.00,1500.00 912.00,1500.00              912.00,1500.00 897.00,1499.00 897.00,1499.00              897.00,1499.00 868.00,1499.00 868.00,1499.00              868.00,1499.00 847.00,1500.00 847.00,1500.00              847.00,1500.00 837.00,1500.91 837.00,1500.91              806.40,1503.05 775.10,1508.43 747.00,1521.31              738.24,1525.32 728.17,1531.77 721.00,1538.17              721.00,1538.17 707.00,1552.00 707.00,1552.00 Z            M 921.00,761.00            C 921.00,761.00 920.00,761.00 920.00,761.00              920.00,761.00 921.00,762.00 921.00,762.00              921.00,762.00 921.00,761.00 921.00,761.00 Z            M 920.00,762.00            C 912.76,763.36 895.54,772.98 888.00,776.75              861.07,790.25 829.13,811.03 805.00,829.13              783.42,845.31 762.50,862.39 743.00,881.04              743.00,881.04 722.91,902.00 722.91,902.00              668.78,960.40 627.85,1031.00 613.58,1110.00              613.58,1110.00 607.91,1155.00 607.91,1155.00              607.91,1155.00 607.00,1165.00 607.00,1165.00              607.00,1165.00 607.00,1200.00 607.00,1200.00              607.03,1217.69 612.03,1250.29 615.79,1268.00              625.03,1311.47 638.78,1353.76 657.78,1394.00              657.78,1394.00 682.14,1442.00 682.14,1442.00              684.61,1446.42 689.18,1456.81 694.02,1458.36              697.50,1459.48 701.94,1456.77 705.00,1455.25              705.00,1455.25 730.00,1443.00 730.00,1443.00              728.36,1436.09 717.39,1418.98 713.20,1412.00              713.20,1412.00 683.26,1358.00 683.26,1358.00              666.23,1322.83 653.56,1285.37 646.20,1247.00              643.56,1233.23 640.02,1209.69 640.00,1196.00              640.00,1196.00 640.00,1186.00 640.00,1186.00              640.00,1186.00 639.18,1174.00 639.18,1174.00              639.18,1174.00 640.00,1163.00 640.00,1163.00              640.04,1139.69 645.21,1106.74 650.89,1084.00              673.39,994.01 733.09,911.61 801.00,850.17              827.21,826.45 854.03,805.87 883.00,785.72              883.00,785.72 920.00,762.00 920.00,762.00 Z            M 398.00,777.00            C 398.00,777.00 414.37,798.00 414.37,798.00              414.37,798.00 441.88,835.00 441.88,835.00              441.88,835.00 517.63,936.00 517.63,936.00              517.63,936.00 548.87,978.00 548.87,978.00              552.35,982.63 560.75,992.63 561.52,998.00              562.05,1001.68 559.95,1006.54 558.68,1010.00              558.68,1010.00 551.02,1032.00 551.02,1032.00              545.16,1050.86 535.54,1086.94 534.00,1106.00              527.24,1101.71 521.08,1095.57 515.00,1090.28              515.00,1090.28 482.00,1061.16 482.00,1061.16              482.00,1061.16 395.00,984.42 395.00,984.42              395.00,984.42 358.00,951.83 358.00,951.83              354.64,948.80 345.13,940.88 344.06,937.00              343.19,933.85 345.30,927.32 346.13,924.00              346.13,924.00 353.86,895.00 353.86,895.00              361.18,869.26 370.01,843.91 379.80,819.00              384.32,807.49 392.19,787.21 398.00,777.00 Z            M 1449.00,828.00            C 1451.94,832.52 1453.11,845.15 1454.08,851.00              1454.08,851.00 1462.42,902.00 1462.42,902.00              1462.42,902.00 1490.41,1076.00 1490.41,1076.00              1490.41,1076.00 1499.59,1132.00 1499.59,1132.00              1500.33,1136.41 1503.47,1147.93 1500.26,1151.28              1498.27,1153.35 1491.91,1154.22 1489.00,1154.80              1489.00,1154.80 1460.00,1160.60 1460.00,1160.60              1460.00,1160.60 1348.00,1182.60 1348.00,1182.60              1348.00,1182.60 1041.00,1242.45 1041.00,1242.45              1041.00,1242.45 953.00,1260.00 953.00,1260.00              953.00,1260.00 906.00,1269.00 906.00,1269.00              906.00,1269.00 894.88,1229.00 894.88,1229.00              893.73,1224.62 891.04,1216.28 892.74,1212.09              894.29,1208.27 900.59,1204.61 904.00,1202.33              904.00,1202.33 928.00,1185.86 928.00,1185.86              928.00,1185.86 1029.00,1116.58 1029.00,1116.58              1029.00,1116.58 1113.00,1058.98 1113.00,1058.98              1113.00,1058.98 1324.00,914.02 1324.00,914.02              1324.00,914.02 1410.00,855.02 1410.00,855.02              1410.00,855.02 1449.00,828.00 1449.00,828.00 Z            M 328.00,1014.00            C 334.00,1016.21 341.39,1021.44 347.00,1024.95              347.00,1024.95 378.00,1044.19 378.00,1044.19              378.00,1044.19 483.00,1109.05 483.00,1109.05              483.00,1109.05 514.00,1128.20 514.00,1128.20              518.26,1130.79 525.48,1134.60 527.84,1139.02              530.45,1144.53 528.01,1156.46 527.84,1163.00              527.95,1193.61 526.66,1230.22 532.00,1260.00              532.00,1260.00 485.00,1244.00 485.00,1244.00              485.00,1244.00 372.00,1205.00 372.00,1205.00              372.00,1205.00 335.00,1192.33 335.00,1192.33              331.14,1191.05 323.39,1189.32 321.31,1185.78              319.25,1182.26 320.02,1167.79 320.00,1163.00              320.00,1163.00 319.00,1149.00 319.00,1149.00              319.00,1149.00 319.00,1130.00 319.00,1130.00              319.00,1130.00 320.00,1114.00 320.00,1114.00              320.00,1114.00 323.17,1056.00 323.17,1056.00              323.17,1056.00 326.28,1028.00 326.28,1028.00              326.28,1028.00 328.00,1014.00 328.00,1014.00 Z            M 327.00,1256.00            C 327.00,1256.00 382.00,1266.58 382.00,1266.58              382.00,1266.58 480.00,1287.00 480.00,1287.00              480.00,1287.00 520.00,1295.40 520.00,1295.40              524.30,1296.26 534.58,1297.90 537.58,1300.65              540.75,1303.54 543.76,1318.11 545.14,1323.00              545.14,1323.00 562.00,1376.00 562.00,1376.00              562.00,1376.00 441.00,1376.00 441.00,1376.00              441.00,1376.00 426.00,1377.00 426.00,1377.00              426.00,1377.00 378.00,1377.00 378.00,1377.00              378.00,1377.00 366.00,1377.96 366.00,1377.96              366.00,1377.96 352.00,1377.96 352.00,1377.96              352.00,1377.96 340.65,1333.00 340.65,1333.00              334.83,1307.62 330.41,1281.81 327.00,1256.00 Z            M 977.00,1313.00            C 977.00,1313.00 1015.00,1306.20 1015.00,1306.20              1018.59,1305.49 1028.94,1303.20 1032.00,1304.06              1035.56,1305.06 1039.39,1309.40 1042.00,1312.00              1042.00,1312.00 1061.00,1331.00 1061.00,1331.00              1083.54,1353.54 1105.57,1376.91 1130.00,1397.41              1163.42,1425.45 1198.73,1451.39 1228.96,1483.00              1272.59,1528.62 1308.41,1585.58 1334.30,1643.00              1344.51,1665.64 1353.60,1690.11 1360.42,1714.00              1362.71,1722.01 1367.81,1738.31 1367.99,1746.00              1368.32,1760.59 1360.31,1776.50 1351.84,1788.00              1334.12,1812.07 1301.42,1834.28 1275.00,1848.22              1275.00,1848.22 1244.00,1862.85 1244.00,1862.85              1240.15,1864.50 1235.15,1867.29 1231.21,1864.40              1228.35,1862.30 1225.47,1854.51 1223.76,1851.00              1223.76,1851.00 1208.69,1818.00 1208.69,1818.00              1208.69,1818.00 1167.69,1729.00 1167.69,1729.00              1167.69,1729.00 1151.00,1693.00 1151.00,1693.00              1151.00,1693.00 1116.31,1618.00 1116.31,1618.00              1116.31,1618.00 1076.74,1532.00 1076.74,1532.00              1076.74,1532.00 1011.22,1390.00 1011.22,1390.00              1011.22,1390.00 987.69,1339.00 987.69,1339.00              984.37,1331.77 978.17,1320.44 977.00,1313.00 Z            M 377.00,1452.00            C 377.00,1452.00 432.00,1438.58 432.00,1438.58              432.00,1438.58 519.00,1417.87 519.00,1417.87              519.00,1417.87 556.00,1408.88 556.00,1408.88              559.80,1407.98 568.56,1405.49 571.98,1406.75              577.13,1408.65 581.81,1419.14 584.25,1424.00              584.25,1424.00 601.60,1456.00 601.60,1456.00              605.13,1461.91 611.01,1469.74 613.00,1476.00              613.00,1476.00 581.00,1493.31 581.00,1493.31              581.00,1493.31 508.00,1532.31 508.00,1532.31              508.00,1532.31 433.00,1572.00 433.00,1572.00              433.00,1572.00 417.26,1543.00 417.26,1543.00              417.26,1543.00 392.14,1490.00 392.14,1490.00              392.14,1490.00 377.00,1452.00 377.00,1452.00 Z            M 641.00,1754.00            C 642.10,1748.09 645.45,1741.60 647.85,1736.00              647.85,1736.00 660.72,1706.00 660.72,1706.00              660.72,1706.00 701.15,1612.00 701.15,1612.00              708.93,1593.73 715.85,1568.77 732.00,1556.76              744.35,1547.58 760.31,1542.00 775.00,1537.86              797.33,1531.56 820.96,1529.49 844.00,1527.91              844.00,1527.91 856.00,1527.00 856.00,1527.00              856.00,1527.00 886.00,1527.00 886.00,1527.00              886.00,1527.00 898.00,1527.91 898.00,1527.91              898.00,1527.91 932.00,1530.83 932.00,1530.83              932.00,1530.83 1004.00,1538.58 1004.00,1538.58              1004.00,1538.58 1032.00,1541.72 1032.00,1541.72              1036.21,1542.27 1040.43,1542.14 1043.73,1545.30              1045.85,1547.34 1047.88,1552.21 1049.24,1555.00              1049.24,1555.00 1058.86,1576.00 1058.86,1576.00              1058.86,1576.00 1087.31,1638.00 1087.31,1638.00              1087.31,1638.00 1097.31,1660.00 1097.31,1660.00              1098.92,1663.52 1101.13,1666.97 1100.75,1671.00              1100.34,1675.28 1095.43,1682.96 1093.23,1687.00              1093.23,1687.00 1073.86,1722.00 1073.86,1722.00              1073.86,1722.00 1056.70,1753.00 1056.70,1753.00              1055.17,1755.77 1051.64,1763.31 1048.79,1764.31              1046.67,1765.06 1040.50,1763.50 1038.00,1763.08              1038.00,1763.08 1011.00,1758.41 1011.00,1758.41              1011.00,1758.41 913.00,1743.16 913.00,1743.16              913.00,1743.16 844.00,1736.91 844.00,1736.91              844.00,1736.91 819.00,1734.96 819.00,1734.96              819.00,1734.96 808.00,1734.96 808.00,1734.96              808.00,1734.96 796.00,1734.00 796.00,1734.00              796.00,1734.00 765.00,1734.00 765.00,1734.00              765.00,1734.00 750.00,1735.00 750.00,1735.00              722.54,1735.32 694.70,1739.92 668.00,1746.23              668.00,1746.23 641.00,1754.00 641.00,1754.00 Z            M 924.00,1555.00            C 887.97,1544.58 835.60,1550.08 799.00,1557.40              799.00,1557.40 772.00,1563.85 772.00,1563.85              767.20,1565.15 760.97,1566.28 757.04,1569.42              751.66,1573.71 747.61,1584.64 744.69,1591.00              744.69,1591.00 726.75,1628.00 726.75,1628.00              726.75,1628.00 705.24,1673.00 705.24,1673.00              702.93,1677.71 697.09,1686.07 700.00,1691.00              700.00,1691.00 719.58,1663.00 719.58,1663.00              719.58,1663.00 754.58,1614.00 754.58,1614.00              760.52,1605.69 773.99,1584.81 782.00,1580.41              782.00,1580.41 813.00,1570.58 813.00,1570.58              836.84,1563.78 861.31,1558.52 886.00,1556.17              886.00,1556.17 911.00,1555.00 911.00,1555.00              915.38,1555.05 919.90,1556.58 924.00,1555.00 Z" />
</svg>