<svg xmlns="http://www.w3.org/2000/svg" viewBox="-0.5 -0.51 2554 357.03">
  <path id="dhl" fill="#303030" stroke="none" stroke-width="1"
    d="M 368.00,109.15            C 370.69,102.09 383.97,85.88 389.13,79.00              389.13,79.00 430.58,24.00 430.58,24.00              434.00,19.60 445.43,3.00 449.09,1.02              451.35,-0.20 454.48,0.01 457.00,0.00              457.00,0.00 865.00,0.00 865.00,0.00              865.00,0.00 945.00,0.00 945.00,0.00              973.91,0.05 1009.70,17.91 1027.92,40.00              1034.54,48.03 1038.91,55.26 1042.58,65.00              1046.94,76.60 1048.14,85.73 1048.00,98.00              1047.76,117.85 1039.79,129.46 1029.02,145.00              1029.02,145.00 1000.13,185.00 1000.13,185.00              1000.13,185.00 988.87,200.00 988.87,200.00              987.15,202.30 984.24,206.63 981.83,207.98              979.80,209.11 977.25,208.98 975.00,209.00              975.00,209.00 801.00,209.00 801.00,209.00              794.80,208.99 779.47,208.43 776.74,201.90              773.98,195.30 780.95,186.96 784.63,182.00              784.63,182.00 818.00,137.00 818.00,137.00              822.82,130.25 838.40,115.82 824.00,110.61              824.00,110.61 819.00,109.15 819.00,109.15              816.01,108.96 813.98,109.00 811.00,109.15              811.00,109.15 368.00,109.15 368.00,109.15 Z            M 1057.00,209.00            C 1057.00,209.00 1071.13,189.00 1071.13,189.00              1071.13,189.00 1096.63,155.00 1096.63,155.00              1096.63,155.00 1176.13,49.00 1176.13,49.00              1176.13,49.00 1202.63,14.00 1202.63,14.00              1202.63,14.00 1214.17,0.60 1214.17,0.60              1214.17,0.60 1221.00,0.00 1221.00,0.00              1221.00,0.00 1449.00,0.00 1449.00,0.00              1449.00,0.00 1437.37,17.00 1437.37,17.00              1437.37,17.00 1417.37,44.00 1417.37,44.00              1417.37,44.00 1385.88,86.00 1385.88,86.00              1385.88,86.00 1361.00,119.00 1361.00,119.00              1361.00,119.00 1456.00,119.00 1456.00,119.00              1456.00,119.00 1463.70,117.98 1463.70,117.98              1463.70,117.98 1470.63,110.00 1470.63,110.00              1470.63,110.00 1483.37,93.00 1483.37,93.00              1483.37,93.00 1536.13,22.00 1536.13,22.00              1536.13,22.00 1553.09,1.02 1553.09,1.02              1553.09,1.02 1561.00,0.00 1561.00,0.00              1561.00,0.00 1789.00,0.00 1789.00,0.00              1789.00,0.00 1750.87,51.00 1750.87,51.00              1750.87,51.00 1668.13,160.00 1668.13,160.00              1668.13,160.00 1640.79,196.00 1640.79,196.00              1630.99,208.50 1632.56,208.98 1623.00,209.00              1623.00,209.00 1057.00,209.00 1057.00,209.00 Z            M 1706.00,209.00            C 1708.51,203.10 1715.10,195.37 1719.13,190.00              1719.13,190.00 1744.63,156.00 1744.63,156.00              1744.63,156.00 1825.87,48.00 1825.87,48.00              1825.87,48.00 1851.37,14.00 1851.37,14.00              1858.00,5.17 1858.70,0.02 1870.00,0.00              1870.00,0.00 2112.00,0.00 2112.00,0.00              2109.49,5.90 2102.90,13.63 2098.87,19.00              2098.87,19.00 2073.37,53.00 2073.37,53.00              2073.37,53.00 1992.37,161.00 1992.37,161.00              1992.37,161.00 1966.63,195.00 1966.63,195.00              1960.00,203.83 1959.30,208.98 1948.00,209.00              1948.00,209.00 1706.00,209.00 1706.00,209.00 Z            M 334.00,355.00            C 336.12,348.61 343.17,340.60 347.37,335.00              347.37,335.00 373.63,300.00 373.63,300.00              373.63,300.00 460.13,184.00 460.13,184.00              460.13,184.00 486.37,149.00 486.37,149.00              493.00,140.17 493.70,135.02 505.00,135.16              505.00,135.16 702.00,135.16 702.00,135.16              704.77,135.00 707.25,134.95 710.00,135.16              711.50,135.75 713.59,136.32 714.96,136.97              726.14,142.31 714.94,155.19 710.42,161.00              710.42,161.00 678.58,204.00 678.58,204.00              675.44,208.35 666.72,219.25 665.70,224.00              663.75,233.08 678.18,233.99 684.00,234.00              684.00,234.00 960.00,234.00 960.00,234.00              958.46,240.29 954.75,243.99 950.88,249.00              944.91,256.72 936.86,266.10 930.00,273.00              899.19,303.96 857.25,331.85 815.00,344.14              794.78,350.02 769.06,355.97 748.00,356.00              748.00,356.00 641.00,356.00 641.00,356.00              641.00,356.00 624.00,355.00 624.00,355.00              624.00,355.00 334.00,355.00 334.00,355.00 Z            M 0.00,236.00            C 0.00,236.00 381.00,236.00 381.00,236.00              381.00,236.00 368.88,253.00 368.88,253.00              368.88,253.00 361.71,260.98 361.71,260.98              361.71,260.98 354.00,262.00 354.00,262.00              354.00,262.00 284.00,262.00 284.00,262.00              284.00,262.00 0.00,262.00 0.00,262.00              0.00,262.00 0.00,236.00 0.00,236.00 Z            M 949.00,356.00            C 949.00,356.00 970.58,326.00 970.58,326.00              970.58,326.00 1017.37,263.00 1017.37,263.00              1017.37,263.00 1030.13,246.00 1030.13,246.00              1030.13,246.00 1038.09,237.02 1038.09,237.02              1038.09,237.02 1046.00,236.00 1046.00,236.00              1046.00,236.00 1272.00,236.00 1272.00,236.00              1272.00,236.00 1250.42,266.00 1250.42,266.00              1250.42,266.00 1203.63,329.00 1203.63,329.00              1203.63,329.00 1190.87,346.00 1190.87,346.00              1190.87,346.00 1182.91,354.98 1182.91,354.98              1182.91,354.98 1175.00,356.00 1175.00,356.00              1175.00,356.00 949.00,356.00 949.00,356.00 Z            M 1287.00,356.00            C 1287.00,356.00 1309.13,325.00 1309.13,325.00              1309.13,325.00 1355.15,263.00 1355.15,263.00              1355.15,263.00 1368.63,245.00 1368.63,245.00              1368.63,245.00 1375.46,236.99 1375.46,236.99              1375.46,236.99 1383.00,236.00 1383.00,236.00              1383.00,236.00 1611.00,236.00 1611.00,236.00              1608.44,242.58 1593.01,262.16 1587.87,269.00              1587.87,269.00 1543.13,329.00 1543.13,329.00              1543.13,329.00 1529.63,347.00 1529.63,347.00              1528.00,349.17 1524.92,353.68 1522.70,354.98              1520.58,356.22 1517.41,356.00 1515.00,356.00              1515.00,356.00 1287.00,356.00 1287.00,356.00 Z            M 2221.00,236.00            C 2217.94,243.17 2203.79,260.78 2198.37,268.00              2198.37,268.00 2152.87,329.00 2152.87,329.00              2152.87,329.00 2139.37,347.00 2139.37,347.00              2137.82,349.08 2134.60,353.75 2132.54,355.01              2130.51,356.24 2127.33,356.00 2125.00,356.00              2125.00,356.00 1740.00,356.00 1740.00,356.00              1720.65,355.97 1694.10,350.30 1677.00,341.22              1668.43,336.67 1658.00,327.91 1653.90,319.00              1642.40,294.03 1657.70,274.27 1672.13,255.00              1674.85,251.37 1683.97,237.99 1687.30,236.57              1688.96,235.86 1692.15,236.00 1694.00,236.00              1694.00,236.00 2221.00,236.00 2221.00,236.00 Z            M 2241.00,262.00            C 2241.00,262.00 2253.60,245.00 2253.60,245.00              2253.60,245.00 2261.09,237.02 2261.09,237.02              2261.09,237.02 2269.00,236.00 2269.00,236.00              2269.00,236.00 2329.00,236.00 2329.00,236.00              2329.00,236.00 2552.00,236.00 2552.00,236.00              2552.00,236.00 2552.00,262.00 2552.00,262.00              2552.00,262.00 2241.00,262.00 2241.00,262.00 Z            M 0.00,283.00            C 0.00,283.00 345.00,283.00 345.00,283.00              345.00,283.00 332.00,301.00 332.00,301.00              332.00,301.00 325.70,307.43 325.70,307.43              325.70,307.43 319.00,308.00 319.00,308.00              319.00,308.00 255.00,308.00 255.00,308.00              255.00,308.00 0.00,308.00 0.00,308.00              0.00,308.00 0.00,283.00 0.00,283.00 Z            M 2208.00,308.00            C 2208.00,308.00 2220.80,290.00 2220.80,290.00              2220.80,290.00 2227.29,283.57 2227.29,283.57              2227.29,283.57 2234.00,283.00 2234.00,283.00              2234.00,283.00 2297.00,283.00 2297.00,283.00              2297.00,283.00 2553.00,283.00 2553.00,283.00              2553.00,283.00 2553.00,308.00 2553.00,308.00              2553.00,308.00 2208.00,308.00 2208.00,308.00 Z            M 0.00,329.00            C 0.00,329.00 310.00,329.00 310.00,329.00              310.00,329.00 298.58,346.00 298.58,346.00              298.58,346.00 291.82,353.98 291.82,353.98              291.82,353.98 284.00,355.00 284.00,355.00              284.00,355.00 225.00,355.00 225.00,355.00              225.00,355.00 0.00,355.00 0.00,355.00              0.00,355.00 0.00,329.00 0.00,329.00 Z            M 2172.00,355.00            C 2172.00,355.00 2184.00,338.00 2184.00,338.00              2184.00,338.00 2191.17,330.02 2191.17,330.02              2191.17,330.02 2199.00,329.00 2199.00,329.00              2199.00,329.00 2269.00,329.00 2269.00,329.00              2269.00,329.00 2553.00,329.00 2553.00,329.00              2553.00,329.00 2553.00,355.00 2553.00,355.00              2553.00,355.00 2172.00,355.00 2172.00,355.00 Z" />
</svg>