<svg xmlns="http://www.w3.org/2000/svg" viewBox="255.5 242.5 1538 1420">
  <path id="diagrams-net" fill="#303030" stroke="none" stroke-width="1"
    d="M 810.00,756.00            C 800.48,755.20 790.38,750.82 782.00,746.36              758.79,734.02 739.74,712.81 730.69,688.00              721.97,664.06 723.00,640.04 723.00,615.00              723.00,615.00 723.00,521.00 723.00,521.00              723.00,521.00 723.00,400.00 723.00,400.00              723.00,374.27 721.34,345.75 728.43,321.00              741.76,274.46 787.34,243.07 835.00,243.00              835.00,243.00 1216.00,243.00 1216.00,243.00              1264.15,243.08 1306.00,273.39 1321.33,319.00              1324.64,328.83 1326.98,340.62 1327.00,351.00              1327.00,351.00 1327.00,651.00 1327.00,651.00              1326.94,689.58 1302.22,728.85 1268.00,746.24              1259.54,750.55 1248.55,755.53 1239.00,756.00              1239.00,756.00 1256.58,787.00 1256.58,787.00              1256.58,787.00 1296.58,855.00 1296.58,855.00              1296.58,855.00 1365.99,973.00 1365.99,973.00              1365.99,973.00 1413.60,1054.00 1413.60,1054.00              1413.60,1054.00 1454.20,1123.00 1454.20,1123.00              1456.68,1127.14 1463.79,1140.98 1467.21,1142.98              1469.31,1144.21 1472.61,1144.00 1475.00,1144.00              1475.00,1144.00 1682.00,1144.00 1682.00,1144.00              1729.70,1144.07 1772.13,1174.81 1787.33,1220.00              1790.73,1230.09 1792.98,1240.31 1793.00,1251.00              1793.00,1251.00 1793.00,1557.00 1793.00,1557.00              1792.98,1567.27 1790.59,1577.31 1787.33,1587.00              1771.76,1633.28 1728.12,1661.92 1680.00,1662.00              1680.00,1662.00 1304.00,1662.00 1304.00,1662.00              1254.70,1661.92 1211.47,1633.45 1195.67,1586.00              1192.35,1576.05 1190.02,1564.51 1190.00,1554.00              1190.00,1554.00 1190.00,1309.00 1190.00,1309.00              1190.00,1309.00 1190.00,1253.00 1190.00,1253.00              1190.04,1228.06 1201.04,1201.69 1217.29,1183.00              1234.76,1162.91 1260.60,1149.53 1287.00,1146.10              1287.00,1146.10 1296.00,1146.10 1296.00,1146.10              1296.00,1146.10 1307.00,1145.00 1307.00,1145.00              1307.00,1145.00 1339.00,1145.00 1339.00,1145.00              1339.00,1145.00 1314.58,1104.00 1314.58,1104.00              1314.58,1104.00 1283.99,1052.00 1283.99,1052.00              1283.99,1052.00 1166.20,852.00 1166.20,852.00              1166.20,852.00 1125.58,783.00 1125.58,783.00              1123.20,778.90 1115.08,763.89 1111.82,762.02              1109.67,760.80 1106.43,761.00 1104.00,761.00              1104.00,761.00 945.00,761.00 945.00,761.00              942.65,761.00 939.38,760.78 937.33,762.02              934.09,763.98 926.78,777.97 924.40,782.00              924.40,782.00 884.00,851.00 884.00,851.00              884.00,851.00 780.99,1027.00 780.99,1027.00              780.99,1027.00 733.58,1108.00 733.58,1108.00              733.58,1108.00 712.00,1145.00 712.00,1145.00              738.24,1145.00 765.15,1143.59 790.00,1153.45              828.58,1168.76 858.93,1208.78 859.00,1251.00              859.00,1251.00 859.00,1305.00 859.00,1305.00              859.00,1305.00 859.00,1464.00 859.00,1464.00              859.00,1464.00 859.00,1531.00 859.00,1531.00              859.00,1546.63 859.98,1561.66 856.35,1577.00              850.59,1601.34 835.88,1623.75 816.00,1638.87              805.19,1647.09 798.57,1650.42 786.00,1655.19              775.03,1659.34 757.75,1661.98 746.00,1662.00              746.00,1662.00 370.00,1662.00 370.00,1662.00              320.70,1661.92 277.47,1633.45 261.67,1586.00              258.35,1576.05 256.02,1564.51 256.00,1554.00              256.00,1554.00 256.00,1253.00 256.00,1253.00              256.06,1216.60 277.94,1179.97 309.00,1161.45              321.53,1153.98 339.43,1147.58 354.00,1146.04              354.00,1146.04 362.00,1146.04 362.00,1146.04              362.00,1146.04 374.00,1145.00 374.00,1145.00              374.00,1145.00 574.00,1145.00 574.00,1145.00              576.48,1145.00 579.69,1145.20 581.90,1143.98              585.82,1141.82 592.55,1128.45 595.20,1124.00              595.20,1124.00 635.01,1056.00 635.01,1056.00              635.01,1056.00 756.42,849.00 756.42,849.00              756.42,849.00 791.60,789.00 791.60,789.00              795.73,782.04 808.01,762.29 810.00,756.00 Z" />
</svg>