<svg xmlns="http://www.w3.org/2000/svg" viewBox="512.5 260.36 1023 1022.14">
  <path id="digitalocean" fill="#303030" stroke="none" stroke-width="1"
    d="M 513.00,772.00            C 513.00,772.00 514.00,741.00 514.00,741.00              514.00,741.00 514.91,731.00 514.91,731.00              516.58,707.13 520.06,683.36 525.35,660.00              540.55,592.87 565.76,535.64 604.98,479.00              644.58,421.80 699.29,370.23 759.00,334.40              821.65,296.81 888.46,273.32 961.00,264.28              990.25,260.64 1019.54,260.66 1049.00,261.00              1049.00,261.00 1071.00,262.83 1071.00,262.83              1113.46,266.94 1154.44,274.81 1195.00,288.33              1243.53,304.51 1291.04,328.76 1332.00,359.47              1386.35,400.23 1432.72,450.95 1466.57,510.00              1496.95,562.99 1517.11,621.80 1527.08,682.00              1527.08,682.00 1533.09,733.00 1533.09,733.00              1533.09,733.00 1534.04,745.00 1534.04,745.00              1534.04,745.00 1534.04,760.00 1534.04,760.00              1534.04,760.00 1535.00,773.00 1535.00,773.00              1535.00,773.00 1534.04,783.00 1534.04,783.00              1534.04,783.00 1534.04,799.00 1534.04,799.00              1534.04,799.00 1533.09,809.00 1533.09,809.00              1530.96,840.01 1526.03,870.89 1518.12,901.00              1503.17,957.86 1479.93,1008.13 1447.33,1057.00              1403.88,1122.16 1344.79,1176.03 1277.00,1215.00              1200.38,1259.05 1112.23,1282.00 1024.00,1282.00              1024.00,1282.00 1024.00,1085.00 1024.00,1085.00              1024.00,1085.00 828.00,1085.00 828.00,1085.00              828.00,1085.00 828.00,1236.00 828.00,1236.00              828.00,1236.00 676.00,1236.00 676.00,1236.00              676.00,1236.00 676.00,1085.00 676.00,1085.00              676.00,1085.00 549.00,1085.00 549.00,1085.00              549.00,1085.00 549.00,958.00 549.00,958.00              549.00,958.00 677.00,958.00 677.00,958.00              677.00,958.00 677.00,1084.00 677.00,1084.00              677.00,1084.00 827.00,1084.00 827.00,1084.00              827.00,1084.00 827.00,887.00 827.00,887.00              827.00,887.00 1025.00,887.00 1025.00,887.00              1025.00,887.00 1025.00,1083.00 1025.00,1083.00              1061.37,1083.00 1097.94,1076.27 1132.00,1063.42              1169.36,1049.33 1203.36,1028.63 1233.00,1001.83              1273.97,964.78 1305.57,915.79 1321.98,863.00              1352.59,764.52 1331.73,652.44 1267.00,572.00              1241.94,540.86 1210.10,515.29 1175.00,496.31              1149.11,482.31 1115.87,471.57 1087.00,465.80              1076.32,463.66 1054.45,460.13 1044.00,460.00              1044.00,460.00 1026.00,459.00 1026.00,459.00              1026.00,459.00 1022.00,459.00 1022.00,459.00              1022.00,459.00 1009.00,460.00 1009.00,460.00              991.89,460.20 974.70,462.89 958.00,466.58              882.04,483.33 815.03,527.68 769.71,591.00              743.86,627.12 726.31,667.45 717.60,711.00              715.15,723.24 712.02,743.77 712.00,756.00              712.00,756.00 712.00,772.00 712.00,772.00              712.00,772.00 513.00,772.00 513.00,772.00 Z" />
</svg>