<svg xmlns="http://www.w3.org/2000/svg" viewBox="3.5 260.36 2041.07 1526.14">
  <path id="digitalocean-wordmark" fill="#303030" stroke="none" stroke-width="1"
    d="M 513.00,772.00            C 513.00,772.00 514.00,741.00 514.00,741.00              514.00,741.00 514.91,731.00 514.91,731.00              516.58,707.13 520.06,683.36 525.35,660.00              540.55,592.87 565.76,535.64 604.98,479.00              644.58,421.80 699.29,370.23 759.00,334.40              821.65,296.81 888.46,273.32 961.00,264.28              990.25,260.64 1019.54,260.66 1049.00,261.00              1049.00,261.00 1071.00,262.83 1071.00,262.83              1113.46,266.94 1154.44,274.81 1195.00,288.33              1243.53,304.51 1291.04,328.76 1332.00,359.47              1386.35,400.23 1432.72,450.95 1466.57,510.00              1496.95,562.99 1517.11,621.80 1527.08,682.00              1527.08,682.00 1533.09,733.00 1533.09,733.00              1533.09,733.00 1534.04,745.00 1534.04,745.00              1534.04,745.00 1534.04,760.00 1534.04,760.00              1534.04,760.00 1535.00,773.00 1535.00,773.00              1535.00,773.00 1534.04,783.00 1534.04,783.00              1534.04,783.00 1534.04,799.00 1534.04,799.00              1534.04,799.00 1533.09,809.00 1533.09,809.00              1530.96,840.01 1526.03,870.89 1518.12,901.00              1503.17,957.86 1479.93,1008.13 1447.33,1057.00              1403.88,1122.16 1344.79,1176.03 1277.00,1215.00              1200.38,1259.05 1112.23,1282.00 1024.00,1282.00              1024.00,1282.00 1024.00,1085.00 1024.00,1085.00              1024.00,1085.00 828.00,1085.00 828.00,1085.00              828.00,1085.00 828.00,1236.00 828.00,1236.00              828.00,1236.00 676.00,1236.00 676.00,1236.00              676.00,1236.00 676.00,1085.00 676.00,1085.00              676.00,1085.00 549.00,1085.00 549.00,1085.00              549.00,1085.00 549.00,958.00 549.00,958.00              549.00,958.00 677.00,958.00 677.00,958.00              677.00,958.00 677.00,1084.00 677.00,1084.00              677.00,1084.00 827.00,1084.00 827.00,1084.00              827.00,1084.00 827.00,887.00 827.00,887.00              827.00,887.00 1025.00,887.00 1025.00,887.00              1025.00,887.00 1025.00,1083.00 1025.00,1083.00              1061.37,1083.00 1097.94,1076.27 1132.00,1063.42              1169.36,1049.33 1203.36,1028.63 1233.00,1001.83              1273.97,964.78 1305.57,915.79 1321.98,863.00              1352.59,764.52 1331.73,652.44 1267.00,572.00              1241.94,540.86 1210.10,515.29 1175.00,496.31              1149.11,482.31 1115.87,471.57 1087.00,465.80              1076.32,463.66 1054.45,460.13 1044.00,460.00              1044.00,460.00 1026.00,459.00 1026.00,459.00              1026.00,459.00 1022.00,459.00 1022.00,459.00              1022.00,459.00 1009.00,460.00 1009.00,460.00              991.89,460.20 974.70,462.89 958.00,466.58              882.04,483.33 815.03,527.68 769.71,591.00              743.86,627.12 726.31,667.45 717.60,711.00              715.15,723.24 712.02,743.77 712.00,756.00              712.00,756.00 712.00,772.00 712.00,772.00              712.00,772.00 513.00,772.00 513.00,772.00 Z            M 1156.00,1450.21            C 1156.00,1450.21 1175.00,1450.21 1175.00,1450.21              1189.89,1450.18 1208.33,1454.87 1222.00,1460.72              1236.98,1467.13 1251.33,1476.61 1262.99,1488.04              1303.67,1527.92 1314.19,1594.50 1287.68,1645.00              1273.56,1671.90 1254.08,1690.31 1227.00,1703.75              1206.24,1714.06 1185.93,1717.26 1163.00,1717.00              1152.57,1716.87 1140.03,1714.28 1130.00,1711.42              1053.77,1689.67 1014.58,1603.16 1045.43,1531.00              1059.76,1497.49 1086.87,1471.31 1121.00,1458.42              1135.17,1453.08 1141.49,1452.53 1156.00,1450.21 Z            M 276.00,1451.25            C 278.63,1451.10 280.32,1450.93 283.00,1451.25              301.39,1451.78 312.62,1466.08 310.13,1484.00              309.26,1490.25 307.40,1495.24 302.82,1499.82              296.52,1506.11 288.63,1508.18 280.00,1507.99              258.70,1507.50 245.88,1483.30 256.36,1465.00              260.67,1457.50 267.82,1453.41 276.00,1451.25 Z            M 572.00,1451.25            C 574.62,1451.10 576.32,1450.93 579.00,1451.25              596.16,1451.73 606.39,1464.37 605.99,1481.00              605.80,1488.82 602.84,1496.14 596.83,1501.32              590.84,1506.49 583.72,1508.16 576.00,1507.99              563.32,1507.69 552.27,1499.69 549.52,1487.00              548.87,1484.02 548.97,1480.09 549.00,1477.00              549.06,1472.66 549.35,1469.95 551.40,1466.00              555.92,1457.30 562.79,1453.51 572.00,1451.25 Z            M 956.00,1454.00            C 956.00,1454.00 1003.00,1454.00 1003.00,1454.00              1003.00,1454.00 1003.00,1713.00 1003.00,1713.00              1003.00,1713.00 956.00,1713.00 956.00,1713.00              956.00,1713.00 956.00,1454.00 956.00,1454.00 Z            M 4.00,1455.00            C 4.00,1455.00 71.00,1455.00 71.00,1455.00              71.00,1455.00 99.00,1455.00 99.00,1455.00              119.72,1455.03 148.80,1462.45 167.00,1472.31              181.36,1480.09 193.47,1488.71 203.25,1502.00              213.46,1515.90 219.69,1532.18 223.00,1549.00              232.23,1595.90 223.24,1654.91 182.00,1684.57              158.28,1701.63 132.98,1709.97 104.00,1712.09              104.00,1712.09 92.00,1713.00 92.00,1713.00              92.00,1713.00 63.00,1713.00 63.00,1713.00              63.00,1713.00 4.00,1713.00 4.00,1713.00              4.00,1713.00 4.00,1455.00 4.00,1455.00 Z            M 654.00,1481.00            C 654.00,1481.00 701.00,1481.00 701.00,1481.00              701.00,1481.00 701.00,1530.00 701.00,1530.00              701.00,1530.00 743.00,1530.00 743.00,1530.00              743.00,1530.00 743.00,1572.00 743.00,1572.00              743.00,1572.00 701.00,1572.00 701.00,1572.00              701.00,1572.00 701.00,1646.00 701.00,1646.00              701.03,1653.25 702.08,1660.71 708.04,1665.61              715.62,1671.83 733.21,1670.00 743.00,1670.00              743.00,1670.00 743.00,1712.00 743.00,1712.00              721.69,1713.73 687.15,1715.47 670.09,1700.53              657.73,1689.72 655.95,1671.23 654.91,1656.00              654.91,1656.00 654.00,1646.00 654.00,1646.00              654.00,1646.00 654.00,1573.00 654.00,1573.00              654.00,1573.00 628.00,1573.00 628.00,1573.00              628.00,1573.00 628.00,1530.00 628.00,1530.00              628.00,1530.00 654.00,1530.00 654.00,1530.00              654.00,1530.00 654.00,1481.00 654.00,1481.00 Z            M 1159.00,1498.29            C 1125.72,1503.37 1099.24,1522.57 1087.70,1555.00              1073.05,1596.17 1092.16,1640.83 1131.00,1660.25              1141.50,1665.49 1153.19,1668.86 1165.00,1669.00              1180.06,1669.17 1191.11,1667.39 1205.00,1661.14              1214.91,1656.68 1222.41,1650.66 1230.00,1643.00              1237.24,1635.68 1243.66,1626.59 1247.55,1617.00              1265.02,1573.90 1246.65,1523.57 1203.00,1504.87              1188.79,1498.78 1174.35,1496.85 1159.00,1498.29 Z            M 53.00,1669.00            C 83.96,1669.00 123.02,1669.56 149.00,1650.24              158.01,1643.54 164.77,1634.35 168.99,1624.00              178.35,1601.01 178.73,1562.59 168.11,1540.00              164.03,1531.32 157.70,1523.49 150.00,1517.76              122.60,1497.38 85.29,1499.00 53.00,1499.00              53.00,1499.00 53.00,1669.00 53.00,1669.00 Z            M 469.00,1695.00            C 448.80,1707.32 440.15,1708.27 417.00,1708.00              409.05,1707.90 400.51,1705.86 393.00,1703.33              320.65,1678.99 317.95,1566.51 385.00,1534.11              400.62,1526.56 412.10,1525.80 429.00,1526.00              445.48,1526.20 455.93,1534.74 469.00,1543.00              469.00,1543.00 469.00,1530.00 469.00,1530.00              469.00,1530.00 515.00,1530.00 515.00,1530.00              515.00,1530.00 515.00,1696.00 515.00,1696.00              514.98,1711.54 511.16,1730.31 503.69,1744.00              489.47,1770.05 461.54,1785.95 432.00,1786.00              432.00,1786.00 415.00,1786.00 415.00,1786.00              408.15,1785.92 397.53,1783.82 391.00,1781.65              378.35,1777.43 368.24,1770.81 358.00,1762.39              354.39,1759.41 342.19,1748.82 342.90,1744.01              343.32,1741.13 347.90,1737.88 350.00,1735.91              350.00,1735.91 366.00,1720.00 366.00,1720.00              368.02,1718.02 371.51,1713.88 374.70,1715.17              376.37,1715.84 381.34,1722.22 383.04,1724.00              388.86,1730.09 395.21,1736.01 403.00,1739.49              423.91,1748.82 450.44,1743.42 462.53,1723.00              467.05,1715.36 468.81,1703.81 469.00,1695.00 Z            M 801.00,1594.00            C 794.84,1592.19 781.11,1578.15 776.00,1573.00              773.79,1570.78 769.70,1567.46 770.15,1564.00              770.45,1561.76 773.59,1557.82 775.01,1556.00              780.58,1548.89 786.33,1544.15 794.00,1539.43              808.71,1530.37 827.79,1525.81 845.00,1526.00              852.02,1526.08 865.21,1527.86 872.00,1529.74              878.99,1531.68 885.80,1534.44 892.00,1538.20              926.41,1559.09 923.00,1596.29 923.00,1631.00              923.00,1631.00 923.00,1712.00 923.00,1712.00              923.00,1712.00 877.00,1712.00 877.00,1712.00              877.00,1712.00 877.00,1698.00 877.00,1698.00              869.82,1703.55 860.57,1709.24 852.00,1712.30              829.31,1720.40 800.06,1716.34 782.01,1699.83              760.66,1680.28 761.14,1641.41 779.46,1620.04              785.25,1613.28 794.78,1607.77 803.00,1604.45              816.79,1598.88 832.31,1597.83 847.00,1598.00              854.40,1598.09 868.05,1600.44 875.00,1603.00              875.00,1603.00 875.00,1596.00 875.00,1596.00              874.79,1578.55 857.62,1566.98 841.00,1568.18              823.36,1569.46 809.77,1578.76 801.00,1594.00 Z            M 1550.00,1637.00            C 1554.73,1662.10 1570.90,1674.29 1596.00,1674.00              1602.13,1673.92 1608.40,1672.67 1614.00,1670.10              1619.75,1667.46 1626.29,1662.08 1631.00,1657.83              1633.01,1656.01 1637.66,1650.92 1640.00,1650.34              1643.11,1649.56 1646.03,1653.07 1648.00,1655.00              1648.00,1655.00 1665.98,1672.01 1665.98,1672.01              1668.05,1674.13 1670.95,1676.73 1669.83,1680.00              1668.51,1683.88 1658.45,1693.07 1655.00,1695.92              1634.85,1712.53 1614.55,1717.30 1589.00,1717.00              1538.72,1716.41 1503.58,1675.99 1503.00,1627.00              1502.67,1598.51 1509.92,1570.17 1530.29,1549.17              1558.81,1519.76 1614.99,1518.19 1644.96,1546.17              1661.43,1561.55 1670.97,1591.80 1671.00,1614.00              1671.00,1614.00 1671.00,1637.00 1671.00,1637.00              1671.00,1637.00 1550.00,1637.00 1550.00,1637.00 Z            M 1697.00,1567.00            C 1699.95,1554.95 1715.48,1542.76 1726.00,1537.03              1757.64,1519.78 1812.44,1521.97 1835.98,1552.00              1851.25,1571.48 1851.00,1594.67 1851.00,1618.00              1851.00,1618.00 1851.00,1712.00 1851.00,1712.00              1851.00,1712.00 1805.00,1712.00 1805.00,1712.00              1805.00,1712.00 1805.00,1698.00 1805.00,1698.00              1797.82,1703.55 1788.57,1709.24 1780.00,1712.30              1756.77,1720.60 1727.16,1716.17 1709.01,1698.91              1690.44,1681.24 1689.32,1645.59 1703.57,1625.00              1710.33,1615.24 1720.12,1608.85 1731.00,1604.45              1744.79,1598.88 1760.31,1597.83 1775.00,1598.00              1782.40,1598.09 1796.05,1600.44 1803.00,1603.00              1803.00,1603.00 1803.00,1596.00 1803.00,1596.00              1802.79,1578.55 1785.62,1566.98 1769.00,1568.18              1751.36,1569.46 1737.77,1578.76 1729.00,1594.00              1723.10,1592.27 1721.42,1589.16 1717.00,1585.17              1710.60,1579.38 1703.82,1571.89 1697.00,1567.00 Z            M 1928.00,1540.00            C 1945.37,1527.82 1960.09,1524.60 1981.00,1526.84              2008.22,1529.75 2027.91,1542.60 2037.77,1569.00              2045.17,1588.81 2044.00,1608.33 2044.00,1629.00              2044.00,1629.00 2044.00,1713.00 2044.00,1713.00              2044.00,1713.00 1997.00,1713.00 1997.00,1713.00              1997.00,1713.00 1997.00,1606.00 1997.00,1606.00              1996.95,1594.86 1992.92,1582.58 1983.99,1575.39              1967.73,1562.30 1943.08,1570.09 1933.99,1588.00              1927.32,1601.15 1929.00,1617.61 1929.00,1632.00              1929.00,1632.00 1929.00,1713.00 1929.00,1713.00              1929.00,1713.00 1882.00,1713.00 1882.00,1713.00              1882.00,1713.00 1882.00,1531.00 1882.00,1531.00              1882.00,1531.00 1928.00,1531.00 1928.00,1531.00              1928.00,1531.00 1928.00,1540.00 1928.00,1540.00 Z            M 1465.00,1647.00            C 1465.00,1647.00 1487.00,1668.00 1487.00,1668.00              1489.05,1670.05 1493.65,1673.98 1493.68,1677.00              1493.70,1679.29 1491.12,1682.32 1489.70,1684.00              1485.67,1688.80 1478.97,1695.32 1474.00,1699.10              1450.27,1717.14 1416.32,1722.03 1388.00,1713.56              1379.05,1710.89 1369.51,1705.77 1362.00,1700.25              1334.24,1679.84 1321.57,1646.70 1324.83,1613.00              1326.41,1596.66 1328.87,1585.40 1337.45,1571.00              1346.79,1555.34 1361.56,1542.49 1378.00,1534.78              1387.43,1530.36 1400.57,1527.13 1411.00,1527.00              1438.10,1526.69 1455.74,1530.94 1477.00,1548.75              1480.12,1551.37 1488.63,1559.38 1489.84,1563.00              1491.05,1566.63 1487.25,1569.70 1485.00,1572.00              1485.00,1572.00 1469.00,1587.09 1469.00,1587.09              1467.34,1588.62 1464.12,1592.13 1462.00,1592.66              1459.16,1593.38 1456.85,1590.72 1455.00,1588.98              1449.92,1584.22 1447.91,1582.28 1442.00,1578.41              1426.13,1567.83 1407.51,1565.89 1392.00,1578.41              1359.05,1605.19 1368.65,1660.95 1404.00,1672.64              1408.78,1674.22 1413.96,1675.16 1419.00,1674.96              1442.75,1674.03 1451.98,1656.32 1465.00,1647.00 Z            M 258.00,1530.00            C 258.00,1530.00 305.00,1530.00 305.00,1530.00              305.00,1530.00 305.00,1713.00 305.00,1713.00              305.00,1713.00 258.00,1713.00 258.00,1713.00              258.00,1713.00 258.00,1530.00 258.00,1530.00 Z            M 554.00,1530.00            C 554.00,1530.00 600.00,1530.00 600.00,1530.00              600.00,1530.00 600.00,1713.00 600.00,1713.00              600.00,1713.00 554.00,1713.00 554.00,1713.00              554.00,1713.00 554.00,1530.00 554.00,1530.00 Z            M 427.00,1569.57            C 415.67,1570.14 406.61,1571.73 398.17,1580.17              386.28,1592.07 384.82,1607.27 385.00,1623.00              385.18,1637.79 392.06,1652.70 405.00,1660.52              413.35,1665.57 420.58,1666.11 430.00,1666.00              467.01,1665.56 478.98,1617.56 463.12,1590.00              454.80,1575.54 442.86,1570.37 427.00,1569.57 Z            M 1622.00,1599.00            C 1621.06,1578.82 1605.97,1568.79 1587.00,1569.00              1583.20,1569.05 1580.64,1569.26 1577.00,1570.55              1564.00,1575.13 1555.99,1585.88 1553.00,1599.00              1553.00,1599.00 1622.00,1599.00 1622.00,1599.00 Z            M 837.00,1638.28            C 828.69,1639.50 821.17,1640.04 815.28,1647.04              809.57,1653.83 811.25,1665.12 818.04,1670.44              822.66,1674.07 828.30,1675.02 834.00,1675.25              844.47,1675.69 854.61,1673.96 864.00,1669.24              867.16,1667.65 872.22,1664.96 873.98,1661.83              875.20,1659.64 875.00,1656.46 875.00,1654.00              875.00,1651.70 875.30,1647.38 873.98,1645.51              872.42,1643.28 867.55,1642.28 865.00,1641.63              857.47,1639.70 844.63,1637.58 837.00,1638.28 Z            M 1765.00,1638.28            C 1756.69,1639.50 1749.17,1640.04 1743.28,1647.04              1737.57,1653.83 1739.25,1665.12 1746.04,1670.44              1750.66,1674.07 1756.30,1675.02 1762.00,1675.25              1772.47,1675.69 1782.61,1673.96 1792.00,1669.24              1795.16,1667.65 1800.22,1664.96 1801.98,1661.83              1803.20,1659.64 1803.00,1656.46 1803.00,1654.00              1803.00,1651.70 1803.30,1647.38 1801.98,1645.51              1800.42,1643.28 1795.55,1642.28 1793.00,1641.63              1785.47,1639.70 1772.63,1637.58 1765.00,1638.28 Z" />
</svg>