<svg xmlns="http://www.w3.org/2000/svg" viewBox="-0.5 -0.5 620 471">
  <path id="discord" fill="#303030" stroke="none" stroke-width="1"
    d="M 160.00,470.00            C 160.00,470.00 126.00,458.68 126.00,458.68              96.44,447.75 67.97,433.67 41.00,417.40              41.00,417.40 14.00,399.86 14.00,399.86              11.16,397.84 4.59,393.62 3.02,390.83              1.93,388.89 1.88,385.30 1.58,383.00              1.58,383.00 0.00,359.00 0.00,359.00              0.00,359.00 0.00,315.00 0.00,315.00              0.00,315.00 0.91,303.00 0.91,303.00              0.91,303.00 3.85,270.00 3.85,270.00              10.42,214.98 28.01,159.49 52.75,110.00              52.75,110.00 79.80,61.00 79.80,61.00              82.51,56.53 90.97,42.46 94.32,39.65              96.58,37.75 103.01,35.27 106.00,34.00              106.00,34.00 128.00,25.19 128.00,25.19              153.70,15.42 195.90,3.59 223.00,0.00              223.00,0.00 234.69,23.00 234.69,23.00              235.96,25.76 237.40,30.45 240.21,31.89              242.62,33.12 250.10,31.64 253.00,31.28              253.00,31.28 283.00,29.00 283.00,29.00              283.00,29.00 297.00,28.00 297.00,28.00              297.00,28.00 322.00,28.00 322.00,28.00              322.00,28.00 335.00,29.00 335.00,29.00              335.00,29.00 364.00,31.16 364.00,31.16              366.71,31.45 375.74,33.04 377.79,32.31              380.62,31.31 381.74,27.51 382.86,25.00              382.86,25.00 391.25,8.00 391.25,8.00              392.81,4.91 394.16,1.18 398.04,0.74              400.00,0.52 406.74,1.95 409.00,2.40              409.00,2.40 429.00,6.63 429.00,6.63              451.39,12.20 473.53,18.46 495.00,27.00              501.32,29.51 520.51,36.48 524.68,40.39              527.85,43.37 537.09,58.42 539.95,63.00              551.96,82.18 562.55,102.54 572.22,123.00              605.38,193.18 619.12,268.86 619.00,346.00              619.00,346.00 618.04,358.00 618.04,358.00              618.04,358.00 618.04,368.00 618.04,368.00              618.04,368.00 617.09,378.00 617.09,378.00              616.82,381.87 617.31,388.18 615.05,391.49              613.51,393.74 607.47,397.65 605.00,399.34              605.00,399.34 586.00,412.00 586.00,412.00              561.91,427.71 523.99,446.86 497.00,456.95              497.00,456.95 470.00,466.58 470.00,466.58              467.37,467.34 461.51,469.53 459.09,468.65              455.64,467.41 450.19,458.28 448.00,455.00              440.09,443.13 430.61,428.03 425.00,415.00              425.00,415.00 453.00,402.69 453.00,402.69              453.00,402.69 477.00,390.00 477.00,390.00              474.24,388.04 467.95,382.68 465.00,382.34              462.46,382.05 458.37,384.14 456.00,385.15              456.00,385.15 441.00,391.19 441.00,391.19              425.30,397.27 406.45,402.94 390.00,406.58              332.59,419.25 270.81,418.21 214.00,402.85              214.00,402.85 173.00,389.40 173.00,389.40              169.72,388.10 156.38,382.08 154.00,382.19              149.89,382.39 144.40,387.93 142.00,391.00              149.49,393.36 176.18,409.46 193.00,414.00              191.82,420.26 187.23,427.35 184.00,433.00              184.00,433.00 160.00,470.00 160.00,470.00 Z            M 199.00,197.15            C 139.89,208.32 136.84,293.66 186.00,315.13              192.52,317.97 197.94,318.99 205.00,319.26              211.53,319.50 217.85,318.50 224.00,316.30              231.88,313.49 237.06,309.85 243.00,303.99              272.77,274.59 266.64,217.15 226.00,200.60              219.46,197.94 215.05,197.03 208.00,197.15              208.00,197.15 199.00,197.15 199.00,197.15 Z            M 404.00,197.30            C 350.40,207.42 341.30,282.21 383.00,310.25              387.71,313.42 394.48,316.76 400.00,318.10              406.26,319.62 414.63,319.65 421.00,318.70              426.50,317.88 431.13,315.80 436.00,313.22              465.42,297.60 474.49,258.08 460.68,229.00              449.77,206.02 428.96,194.82 404.00,197.30 Z" />
</svg>