<svg xmlns="http://www.w3.org/2000/svg" viewBox="-0.5 8.5 991.04 1000">
  <path id="discourse" fill="#303030" stroke="none" stroke-width="1"
    d="M 0.00,1008.00            C 0.00,1008.00 0.00,479.00 0.00,479.00              0.00,479.00 0.91,467.00 0.91,467.00              3.45,429.85 9.91,393.61 20.98,358.00              68.62,204.68 192.57,80.66 346.00,32.98              382.52,21.62 419.81,13.58 458.00,10.91              458.00,10.91 468.00,10.00 468.00,10.00              468.00,10.00 472.00,10.00 472.00,10.00              472.00,10.00 489.00,9.00 489.00,9.00              489.00,9.00 509.00,9.00 509.00,9.00              509.00,9.00 529.00,10.00 529.00,10.00              529.00,10.00 539.00,10.91 539.00,10.91              579.75,13.76 622.61,23.02 661.00,37.05              706.00,53.50 747.40,75.42 786.00,103.88              918.10,201.31 991.91,354.77 990.00,518.00              990.00,518.00 989.04,528.00 989.04,528.00              989.04,528.00 989.04,538.00 989.04,538.00              989.04,538.00 988.09,548.00 988.09,548.00              985.98,578.11 980.59,607.82 972.88,637.00              945.53,740.60 884.66,833.67 801.00,900.60              741.23,948.42 670.14,982.37 595.00,997.40              574.58,1001.48 547.66,1005.76 527.00,1006.00              527.00,1006.00 512.00,1007.00 512.00,1007.00              512.00,1007.00 320.00,1007.00 320.00,1007.00              320.00,1007.00 232.00,1007.00 232.00,1007.00              232.00,1007.00 217.00,1008.00 217.00,1008.00              217.00,1008.00 0.00,1008.00 0.00,1008.00 Z            M 182.00,824.00            C 182.00,824.00 230.00,813.42 230.00,813.42              230.00,813.42 323.00,792.58 323.00,792.58              323.00,792.58 361.00,784.00 361.00,784.00              361.00,784.00 378.00,780.63 378.00,780.63              381.29,780.73 389.45,784.58 393.00,786.00              393.00,786.00 419.00,794.98 419.00,794.98              439.72,801.39 461.45,804.61 483.00,806.09              483.00,806.09 493.00,807.00 493.00,807.00              548.99,807.65 603.00,796.46 652.00,768.42              694.63,744.03 728.55,713.99 756.00,673.00              785.86,628.40 803.41,577.50 807.09,524.00              807.09,524.00 808.00,512.00 808.00,512.00              808.00,512.00 808.00,492.00 808.00,492.00              808.00,492.00 807.09,482.00 807.09,482.00              805.12,453.42 799.56,424.88 789.42,398.00              775.85,362.00 756.71,328.65 730.83,300.00              707.48,274.14 679.67,251.89 649.00,235.31              562.89,188.74 455.67,186.43 368.00,230.27              355.90,236.32 344.24,243.47 333.00,251.00              298.92,273.83 268.46,305.12 246.81,340.00              220.73,382.01 204.37,428.55 200.91,478.00              200.91,478.00 200.00,488.00 200.00,488.00              200.00,488.00 200.00,517.00 200.00,517.00              200.00,517.00 200.91,527.00 200.91,527.00              202.81,554.21 208.65,581.36 218.05,607.00              218.05,607.00 230.31,636.00 230.31,636.00              231.85,639.34 235.45,644.62 235.45,648.00              235.45,648.00 230.33,666.00 230.33,666.00              230.33,666.00 220.00,699.00 220.00,699.00              220.00,699.00 195.98,777.00 195.98,777.00              195.98,777.00 182.00,824.00 182.00,824.00 Z" />
</svg>