<svg xmlns="http://www.w3.org/2000/svg" viewBox="-0.5 -0.5 2474 471">
  <path id="discord-wordmark" fill="#303030" stroke="none" stroke-width="1"
    d="M 160.00,470.00            C 160.00,470.00 126.00,458.68 126.00,458.68              96.44,447.75 67.97,433.67 41.00,417.40              41.00,417.40 14.00,399.86 14.00,399.86              11.16,397.84 4.59,393.62 3.02,390.83              1.93,388.89 1.88,385.30 1.58,383.00              1.58,383.00 0.00,359.00 0.00,359.00              0.00,359.00 0.00,315.00 0.00,315.00              0.00,315.00 0.91,303.00 0.91,303.00              0.91,303.00 3.85,270.00 3.85,270.00              10.42,214.98 28.01,159.49 52.75,110.00              52.75,110.00 79.80,61.00 79.80,61.00              82.51,56.53 90.97,42.46 94.32,39.65              96.58,37.75 103.01,35.27 106.00,34.00              106.00,34.00 128.00,25.19 128.00,25.19              153.70,15.42 195.90,3.59 223.00,0.00              223.00,0.00 234.69,23.00 234.69,23.00              235.96,25.76 237.40,30.45 240.21,31.89              242.62,33.12 250.10,31.64 253.00,31.28              253.00,31.28 283.00,29.00 283.00,29.00              283.00,29.00 297.00,28.00 297.00,28.00              297.00,28.00 322.00,28.00 322.00,28.00              322.00,28.00 335.00,29.00 335.00,29.00              335.00,29.00 364.00,31.16 364.00,31.16              366.71,31.45 375.74,33.04 377.79,32.31              380.62,31.31 381.74,27.51 382.86,25.00              382.86,25.00 391.25,8.00 391.25,8.00              392.81,4.91 394.16,1.18 398.04,0.74              400.00,0.52 406.74,1.95 409.00,2.40              409.00,2.40 429.00,6.63 429.00,6.63              451.39,12.20 473.53,18.46 495.00,27.00              501.32,29.51 520.51,36.48 524.68,40.39              527.85,43.37 537.09,58.42 539.95,63.00              551.96,82.18 562.55,102.54 572.22,123.00              605.38,193.18 619.12,268.86 619.00,346.00              619.00,346.00 618.04,358.00 618.04,358.00              618.04,358.00 618.04,368.00 618.04,368.00              618.04,368.00 617.09,378.00 617.09,378.00              616.82,381.87 617.31,388.18 615.05,391.49              613.51,393.74 607.47,397.65 605.00,399.34              605.00,399.34 586.00,412.00 586.00,412.00              561.91,427.71 523.99,446.86 497.00,456.95              497.00,456.95 470.00,466.58 470.00,466.58              467.37,467.34 461.51,469.53 459.09,468.65              455.64,467.41 450.19,458.28 448.00,455.00              440.09,443.13 430.61,428.03 425.00,415.00              425.00,415.00 453.00,402.69 453.00,402.69              453.00,402.69 477.00,390.00 477.00,390.00              474.24,388.04 467.95,382.68 465.00,382.34              462.46,382.05 458.37,384.14 456.00,385.15              456.00,385.15 441.00,391.19 441.00,391.19              425.30,397.27 406.45,402.94 390.00,406.58              332.59,419.25 270.81,418.21 214.00,402.85              214.00,402.85 173.00,389.40 173.00,389.40              169.72,388.10 156.38,382.08 154.00,382.19              149.89,382.39 144.40,387.93 142.00,391.00              149.49,393.36 176.18,409.46 193.00,414.00              191.82,420.26 187.23,427.35 184.00,433.00              184.00,433.00 160.00,470.00 160.00,470.00 Z            M 1174.00,84.44            C 1188.06,82.64 1202.35,86.22 1212.56,96.44              1229.23,113.11 1225.68,140.08 1206.00,152.75              1199.41,157.00 1193.63,158.48 1186.00,159.57              1161.72,163.06 1138.44,145.10 1139.01,120.00              1139.13,114.81 1140.39,109.56 1142.90,105.00              1145.40,100.47 1149.92,95.67 1154.00,92.53              1160.05,87.86 1166.62,85.82 1174.00,84.44 Z            M 2389.00,92.00            C 2389.00,92.00 2473.00,92.00 2473.00,92.00              2473.00,92.00 2473.00,338.00 2473.00,338.00              2473.00,338.00 2389.00,338.00 2389.00,338.00              2389.00,329.25 2389.91,302.72 2388.00,296.00              2386.72,302.31 2382.63,307.95 2378.76,313.00              2368.10,326.95 2352.98,336.37 2336.00,340.63              2319.27,344.81 2313.69,344.03 2297.00,344.00              2275.99,343.97 2253.86,333.81 2239.28,318.83              2231.02,310.34 2225.21,300.71 2220.31,290.00              2213.63,275.42 2212.32,263.58 2210.83,248.00              2210.83,248.00 2210.00,238.00 2210.00,238.00              2209.87,208.40 2218.95,177.54 2240.04,156.01              2256.28,139.44 2280.78,129.04 2304.00,129.00              2304.00,129.00 2318.00,129.00 2318.00,129.00              2332.41,129.17 2350.15,134.57 2362.00,142.77              2376.16,152.57 2381.24,162.48 2389.00,177.00              2389.00,177.00 2389.00,92.00 2389.00,92.00 Z            M 830.00,98.00            C 830.00,98.00 939.00,98.00 939.00,98.00              977.22,98.00 1015.98,98.45 1051.00,115.97              1061.78,121.36 1074.73,130.13 1082.83,139.00              1100.04,157.83 1110.96,184.38 1111.00,210.00              1111.00,210.00 1111.00,225.00 1111.00,225.00              1110.84,238.32 1105.58,257.10 1099.63,269.00              1089.80,288.66 1074.77,303.38 1056.00,314.55              1018.31,336.97 974.47,338.00 932.00,338.00              932.00,338.00 830.00,338.00 830.00,338.00              830.00,338.00 830.00,98.00 830.00,98.00 Z            M 1259.00,259.00            C 1259.00,259.00 1283.00,272.14 1283.00,272.14              1303.43,281.17 1326.68,287.03 1349.00,288.04              1349.00,288.04 1358.00,288.92 1358.00,288.92              1364.88,288.92 1377.24,287.09 1381.25,280.91              1384.30,276.20 1380.93,271.59 1376.98,268.85              1371.31,264.92 1358.08,262.75 1351.00,261.12              1319.08,253.77 1274.65,248.40 1263.35,212.00              1261.88,207.28 1261.06,201.94 1261.00,197.00              1261.00,197.00 1261.00,192.00 1261.00,192.00              1261.53,146.99 1317.74,129.06 1355.00,129.00              1355.00,129.00 1379.00,129.00 1379.00,129.00              1398.70,129.03 1421.54,134.28 1440.00,141.05              1443.92,142.49 1455.93,147.18 1457.98,150.39              1459.22,152.34 1459.00,155.73 1459.00,158.00              1459.00,158.00 1459.00,205.00 1459.00,205.00              1459.00,205.00 1443.00,197.43 1443.00,197.43              1425.05,189.75 1401.55,184.23 1382.00,184.00              1382.00,184.00 1378.00,184.00 1378.00,184.00              1371.24,184.01 1358.85,185.14 1353.03,188.41              1346.40,192.13 1346.52,197.78 1353.03,201.59              1359.32,205.25 1375.42,207.80 1383.00,209.08              1412.61,214.08 1454.00,218.97 1466.54,251.00              1469.25,257.94 1470.49,267.54 1470.91,275.00              1471.12,278.66 1470.57,280.53 1470.15,284.00              1467.20,308.68 1453.76,322.21 1432.00,332.74              1412.12,342.36 1389.69,344.00 1368.00,344.00              1349.59,344.00 1335.17,343.51 1317.00,339.35              1301.63,335.83 1287.15,331.30 1273.00,324.25              1258.67,317.10 1259.01,317.55 1259.00,309.00              1259.00,309.00 1259.00,259.00 1259.00,259.00 Z            M 1708.00,261.00            C 1708.00,261.00 1708.00,315.00 1708.00,315.00              1708.00,317.13 1708.25,320.58 1707.01,322.37              1705.87,323.99 1702.77,325.35 1701.00,326.25              1701.00,326.25 1685.00,333.58 1685.00,333.58              1656.24,344.43 1635.94,344.35 1606.00,344.00              1600.05,343.93 1589.01,342.18 1583.00,341.00              1545.34,333.59 1513.34,313.75 1498.45,277.00              1492.42,262.10 1490.82,246.90 1491.00,231.00              1491.10,222.60 1493.48,210.04 1496.03,202.00              1498.60,193.88 1502.30,186.10 1507.00,179.00              1528.80,146.10 1572.43,129.06 1611.00,129.00              1611.00,129.00 1636.00,129.00 1636.00,129.00              1652.69,129.20 1675.59,134.62 1691.00,141.01              1695.05,142.69 1705.70,147.26 1707.40,151.21              1708.12,152.89 1708.00,156.12 1708.00,158.00              1708.00,158.00 1708.00,213.00 1708.00,213.00              1708.00,213.00 1685.00,202.42 1685.00,202.42              1670.11,196.81 1656.83,194.82 1641.00,195.00              1623.95,195.20 1602.72,200.27 1590.04,212.17              1570.19,230.79 1578.89,256.79 1601.00,268.68              1621.72,279.82 1654.81,279.87 1677.00,273.28              1677.00,273.28 1708.00,261.00 1708.00,261.00 Z            M 1842.00,129.14            C 1842.00,129.14 1862.00,129.14 1862.00,129.14              1862.00,129.14 1873.00,129.14 1873.00,129.14              1901.02,129.04 1935.25,139.63 1957.00,157.46              1970.23,168.31 1980.57,182.88 1986.30,199.00              1999.33,235.62 1990.21,284.23 1961.00,310.83              1938.54,331.28 1904.37,343.95 1874.00,344.00              1874.00,344.00 1847.00,344.00 1847.00,344.00              1847.00,344.00 1830.00,342.08 1830.00,342.08              1800.77,337.25 1773.84,324.84 1754.30,302.00              1726.03,268.97 1723.36,213.84 1747.75,178.00              1763.48,154.87 1789.07,140.02 1816.00,133.65              1816.00,133.65 1842.00,129.14 1842.00,129.14 Z            M 2106.00,192.00            C 2106.52,185.75 2108.56,179.82 2110.81,174.00              2118.09,155.21 2130.42,139.12 2151.00,134.51              2161.83,132.09 2173.39,132.54 2184.00,135.72              2187.14,136.66 2193.18,138.57 2194.98,141.39              2196.22,143.34 2196.00,146.73 2196.00,149.00              2196.00,149.00 2196.00,216.00 2196.00,216.00              2184.72,211.14 2173.67,206.37 2161.00,207.09              2155.44,207.41 2146.21,208.85 2141.00,210.70              2100.06,225.20 2106.00,276.42 2106.00,311.00              2106.00,311.00 2106.00,338.00 2106.00,338.00              2106.00,338.00 2022.00,338.00 2022.00,338.00              2022.00,338.00 2022.00,138.00 2022.00,138.00              2022.00,138.00 2105.00,138.00 2105.00,138.00              2105.00,138.00 2105.00,172.00 2105.00,172.00              2105.00,172.00 2106.00,192.00 2106.00,192.00 Z            M 916.00,276.00            C 941.32,276.00 973.09,279.49 995.00,265.30              1002.38,260.52 1008.63,253.87 1012.63,246.00              1025.18,221.26 1020.15,183.57 995.00,168.48              975.60,156.84 938.75,160.00 916.00,160.00              916.00,160.00 916.00,276.00 916.00,276.00 Z            M 1139.00,184.00            C 1139.00,184.00 1152.00,188.57 1152.00,188.57              1177.19,195.79 1198.84,193.61 1223.00,184.00              1223.00,184.00 1223.00,339.00 1223.00,339.00              1223.00,339.00 1139.00,339.00 1139.00,339.00              1139.00,339.00 1139.00,184.00 1139.00,184.00 Z            M 1858.00,192.28            C 1844.39,194.28 1833.62,196.25 1824.53,208.00              1810.55,226.06 1813.25,256.96 1831.00,271.67              1838.48,277.87 1849.39,280.88 1859.00,281.00              1870.39,281.13 1880.38,280.10 1890.00,273.21              1895.37,269.37 1900.12,263.95 1903.02,258.00              1910.06,243.55 1908.84,220.72 1898.62,208.00              1889.28,196.37 1872.58,190.97 1858.00,192.28 Z            M 2340.00,193.28            C 2326.72,195.23 2315.54,197.80 2306.68,209.01              2293.95,225.13 2295.04,251.95 2309.30,266.83              2318.64,276.58 2334.73,281.35 2348.00,279.71              2356.17,278.71 2365.38,276.57 2372.00,271.47              2376.25,268.20 2381.49,262.71 2384.10,258.00              2391.50,244.60 2390.94,222.29 2381.47,210.00              2371.99,197.69 2355.22,191.92 2340.00,193.28 Z            M 199.00,197.15            C 139.89,208.32 136.84,293.66 186.00,315.13              192.52,317.97 197.94,318.99 205.00,319.26              211.53,319.50 217.85,318.50 224.00,316.30              231.88,313.49 237.06,309.85 243.00,303.99              272.77,274.59 266.64,217.15 226.00,200.60              219.46,197.94 215.05,197.03 208.00,197.15              208.00,197.15 199.00,197.15 199.00,197.15 Z            M 404.00,197.30            C 350.40,207.42 341.30,282.21 383.00,310.25              387.71,313.42 394.48,316.76 400.00,318.10              406.26,319.62 414.63,319.65 421.00,318.70              426.50,317.88 431.13,315.80 436.00,313.22              465.42,297.60 474.49,258.08 460.68,229.00              449.77,206.02 428.96,194.82 404.00,197.30 Z" />
</svg>