<svg xmlns="http://www.w3.org/2000/svg" viewBox="-0.5 -0.71 1317 1127.38">
  <path id="Selection #1" fill="#303030" stroke="none" stroke-width="1" d="M 669.14,1.02            C 674.53,-0.89 691.33,0.00 698.00,0.00              698.00,0.00 759.00,0.00 759.00,0.00              770.80,0.02 770.98,4.31 771.00,15.00              771.00,15.00 771.00,81.00 771.00,81.00              770.86,92.40 768.12,94.98 757.00,95.00              757.00,95.00 679.00,95.00 679.00,95.00              666.82,94.98 665.02,91.73 665.00,80.00              665.00,80.00 665.00,23.00 665.00,23.00              665.00,15.88 663.21,6.13 669.14,1.02 Z            M 424.04,113.74            C 429.72,112.34 447.11,113.00 454.00,113.00              454.00,113.00 511.00,113.00 511.00,113.00              521.47,113.02 523.98,115.53 524.00,126.00              524.00,126.00 524.00,195.00 524.00,195.00              523.98,205.32 522.75,207.98 512.00,208.00              512.00,208.00 431.00,208.00 431.00,208.00              420.25,207.98 419.02,205.32 419.00,195.00              419.00,195.00 419.00,135.00 419.00,135.00              419.00,127.68 416.87,117.92 424.04,113.74 Z            M 548.04,113.74            C 553.72,112.34 571.11,113.00 578.00,113.00              578.00,113.00 635.00,113.00 635.00,113.00              645.47,113.02 647.98,115.53 648.00,126.00              648.00,126.00 648.00,195.00 648.00,195.00              647.98,205.32 646.75,207.98 636.00,208.00              636.00,208.00 566.00,208.00 566.00,208.00              560.03,208.00 547.25,209.85 544.02,203.94              542.81,201.73 543.00,198.48 543.00,196.00              543.00,196.00 543.00,135.00 543.00,135.00              543.00,127.68 540.87,117.92 548.04,113.74 Z            M 671.02,113.74            C 676.71,112.35 693.18,113.00 700.00,113.00              700.00,113.00 757.00,113.00 757.00,113.00              769.81,113.02 770.98,117.01 771.00,129.00              771.00,129.00 771.00,195.00 771.00,195.00              770.86,205.91 768.46,207.98 758.00,208.00              758.00,208.00 678.00,208.00 678.00,208.00              665.66,207.98 665.02,204.63 665.00,193.00              665.00,193.00 665.00,128.00 665.00,128.00              665.01,121.38 664.60,117.33 671.02,113.74 Z            M 995.00,138.00            C 1003.09,140.31 1017.28,149.66 1024.00,155.00              1044.27,171.14 1058.23,187.79 1069.75,211.00              1074.34,220.23 1077.64,230.04 1080.27,240.00              1081.07,243.05 1081.68,250.35 1084.31,251.94              1086.73,253.40 1095.85,251.47 1099.00,251.17              1099.00,251.17 1133.00,250.00 1133.00,250.00              1152.13,250.03 1182.50,256.37 1199.00,266.01              1203.67,268.74 1216.69,276.11 1216.10,282.01              1215.10,291.85 1202.69,312.93 1196.63,321.00              1174.27,350.77 1141.53,369.27 1105.00,375.41              1098.93,376.43 1088.99,377.93 1083.00,378.00              1083.00,378.00 1070.00,378.00 1070.00,378.00              1060.01,378.07 1060.70,381.42 1056.40,392.00              1056.40,392.00 1040.24,429.00 1040.24,429.00              1040.24,429.00 1030.74,449.00 1030.74,449.00              1009.35,490.49 984.23,530.27 952.83,565.00              876.69,649.23 774.47,697.20 663.00,713.27              663.00,713.27 605.00,719.04 605.00,719.04              605.00,719.04 594.00,720.00 594.00,720.00              594.00,720.00 534.00,720.00 534.00,720.00              534.00,720.00 522.00,719.00 522.00,719.00              522.00,719.00 513.00,719.00 513.00,719.00              513.00,719.00 478.00,715.15 478.00,715.15              439.22,710.52 387.30,698.23 353.00,679.69              335.85,670.42 320.27,659.21 306.00,645.91              291.27,632.19 275.85,611.33 265.45,594.00              240.62,552.63 226.52,505.31 218.59,458.00              215.58,440.05 213.75,422.15 212.96,404.00              212.96,404.00 212.00,391.00 212.00,391.00              211.97,373.75 209.18,356.24 226.00,345.39              229.10,343.39 231.48,342.43 235.00,341.43              240.01,340.00 241.91,340.01 247.00,340.00              247.00,340.00 733.00,340.00 733.00,340.00              733.00,340.00 853.00,340.00 853.00,340.00              853.00,340.00 906.00,340.00 906.00,340.00              930.18,339.96 954.98,332.34 977.00,323.00              973.66,318.33 971.28,313.14 968.76,308.00              947.63,265.03 954.97,214.10 974.31,172.00              980.37,158.80 987.57,149.87 995.00,138.00 Z            M 301.19,227.74            C 306.60,226.33 324.31,227.00 331.00,227.00              331.00,227.00 390.00,227.00 390.00,227.00              400.75,227.02 401.98,229.68 402.00,240.00              402.00,240.00 402.00,309.00 402.00,309.00              401.98,319.47 399.47,321.98 389.00,322.00              389.00,322.00 320.00,322.00 320.00,322.00              313.61,322.00 300.63,324.07 297.74,316.96              296.87,314.82 297.00,311.34 297.00,309.00              297.00,309.00 297.00,249.00 297.00,249.00              297.00,242.26 294.80,231.94 301.19,227.74 Z            M 423.06,228.02            C 428.67,226.09 445.16,227.00 452.00,227.00              452.00,227.00 512.00,227.00 512.00,227.00              522.08,227.02 523.98,228.92 524.00,239.00              524.00,239.00 524.00,309.00 524.00,309.00              523.98,320.09 522.09,321.98 511.00,322.00              511.00,322.00 442.00,322.00 442.00,322.00              435.61,322.00 422.63,324.07 419.74,316.96              418.87,314.82 419.00,311.34 419.00,309.00              419.00,309.00 419.00,250.00 419.00,250.00              419.00,246.01 418.40,234.02 420.02,231.06              421.05,229.18 421.56,229.19 423.06,228.02 Z            M 547.06,228.02            C 552.67,226.09 569.16,227.00 576.00,227.00              576.00,227.00 636.00,227.00 636.00,227.00              645.53,227.02 647.98,229.47 648.00,239.00              648.00,239.00 648.00,309.00 648.00,309.00              647.98,319.80 645.80,321.98 635.00,322.00              635.00,322.00 566.00,322.00 566.00,322.00              559.61,322.00 546.63,324.07 543.74,316.96              542.87,314.82 543.00,311.34 543.00,309.00              543.00,309.00 543.00,250.00 543.00,250.00              543.00,246.01 542.40,234.02 544.02,231.06              545.05,229.18 545.56,229.19 547.06,228.02 Z            M 669.14,228.02            C 674.53,226.11 691.33,227.00 698.00,227.00              698.00,227.00 758.00,227.00 758.00,227.00              770.34,227.02 770.98,230.37 771.00,242.00              771.00,242.00 771.00,308.00 771.00,308.00              770.86,319.40 768.12,321.98 757.00,322.00              757.00,322.00 679.00,322.00 679.00,322.00              666.82,321.98 665.02,318.73 665.00,307.00              665.00,307.00 665.00,250.00 665.00,250.00              665.00,242.88 663.21,233.13 669.14,228.02 Z            M 793.11,228.02            C 798.59,226.10 815.26,227.00 822.00,227.00              822.00,227.00 882.00,227.00 882.00,227.00              892.05,227.02 893.98,228.95 894.00,239.00              894.00,239.00 894.00,309.00 894.00,309.00              893.98,320.06 892.06,321.98 881.00,322.00              881.00,322.00 812.00,322.00 812.00,322.00              805.61,322.00 792.63,324.07 789.74,316.96              788.87,314.82 789.00,311.34 789.00,309.00              789.00,309.00 789.00,250.00 789.00,250.00              789.00,242.82 786.96,233.00 793.11,228.02 Z            M 181.00,926.00            C 181.00,926.00 181.00,831.00 181.00,831.00              181.01,824.82 181.26,819.09 185.39,814.04              193.11,804.62 210.34,804.30 218.47,813.30              223.50,818.86 223.99,825.90 224.00,833.00              224.00,833.00 224.00,977.00 224.00,977.00              224.00,994.98 224.98,1020.97 221.55,1038.00              217.94,1055.94 210.68,1070.80 199.20,1085.00              179.61,1109.23 148.51,1125.95 117.00,1126.00              117.00,1126.00 104.00,1126.00 104.00,1126.00              93.82,1125.88 78.46,1122.38 69.00,1118.55              49.03,1110.46 31.95,1096.45 19.43,1079.00              7.92,1062.97 0.03,1041.87 0.00,1022.00              0.00,1022.00 0.00,1004.00 0.00,1004.00              0.11,995.14 2.84,984.39 5.67,976.00              10.82,960.70 19.66,947.40 31.00,936.00              52.37,914.53 78.46,902.36 109.00,902.00              134.80,901.70 161.18,908.98 181.00,926.00 Z            M 806.00,994.00            C 806.00,994.00 847.28,1040.00 847.28,1040.00              847.28,1040.00 880.16,1077.00 880.16,1077.00              885.25,1082.70 892.84,1089.98 895.53,1097.00              900.75,1110.56 892.00,1125.62 877.00,1125.99              865.26,1126.27 862.12,1122.44 854.72,1114.00              854.72,1114.00 843.98,1102.00 843.98,1102.00              843.98,1102.00 792.28,1044.00 792.28,1044.00              792.28,1044.00 777.07,1027.00 777.07,1027.00              775.70,1025.49 771.91,1020.70 770.39,1019.99              767.75,1018.75 763.24,1022.42 761.00,1023.81              757.32,1026.09 748.13,1031.27 746.60,1035.09              745.88,1036.88 746.00,1040.03 746.00,1042.00              746.00,1042.00 746.00,1102.00 746.00,1102.00              745.93,1116.82 738.55,1126.42 723.00,1125.98              708.30,1125.58 703.02,1113.92 703.00,1101.00              703.00,1101.00 703.00,875.00 703.00,875.00              703.00,875.00 703.00,830.00 703.00,830.00              703.18,815.18 710.97,806.65 726.00,807.01              739.47,807.34 745.85,817.48 746.00,830.00              746.00,830.00 746.00,982.00 746.00,982.00              746.00,982.00 774.00,963.66 774.00,963.66              774.00,963.66 838.00,922.00 838.00,922.00              847.88,915.48 866.26,900.90 878.00,902.19              890.11,903.51 897.44,913.14 896.96,925.00              896.42,938.27 886.00,942.87 876.00,949.31              876.00,949.31 830.00,979.05 830.00,979.05              830.00,979.05 806.00,994.00 806.00,994.00 Z            M 348.00,902.21            C 348.00,902.21 356.00,902.21 356.00,902.21              400.02,901.95 441.15,927.32 459.14,968.00              467.75,987.49 468.03,1001.35 468.00,1022.00              467.93,1065.69 434.30,1106.25 394.00,1120.31              378.10,1125.85 365.49,1126.19 349.00,1126.00              338.86,1125.88 328.56,1123.55 319.00,1120.33              274.49,1105.37 244.55,1062.66 244.00,1016.00              243.81,999.46 247.37,981.04 254.31,966.00              265.90,940.87 290.02,918.58 316.00,909.05              329.46,904.12 334.62,904.33 348.00,902.21 Z            M 592.00,902.63            C 599.28,901.54 604.83,902.12 612.00,902.63              631.28,904.76 645.67,909.18 662.00,920.00              670.97,925.95 680.19,932.30 680.91,944.00              681.89,959.89 668.11,970.42 653.00,966.06              646.75,964.26 640.98,958.34 635.00,954.87              622.56,947.67 612.32,944.84 598.00,945.00              560.54,945.44 530.58,979.45 531.00,1016.00              531.30,1041.33 548.36,1065.92 571.00,1076.68              579.85,1080.89 589.27,1082.95 599.00,1083.68              608.20,1084.37 624.02,1080.15 632.00,1075.54              641.98,1069.76 648.35,1061.31 661.00,1062.09              674.48,1062.92 680.33,1072.41 679.98,1085.00              679.67,1096.48 669.84,1103.41 661.00,1109.14              638.51,1123.71 619.06,1126.30 593.00,1126.00              577.70,1125.82 560.42,1120.45 547.00,1113.29              521.00,1099.43 500.45,1074.42 492.43,1046.00              489.72,1036.39 488.66,1025.94 488.09,1016.00              487.87,1012.14 488.50,1010.53 489.00,1007.00              489.00,1007.00 489.00,999.00 489.00,999.00              489.72,993.28 492.48,981.39 494.44,976.00              505.35,945.98 530.10,920.40 560.00,909.06              572.09,904.48 579.73,904.17 592.00,902.63 Z            M 947.00,1036.00            C 952.01,1046.61 955.66,1054.31 964.09,1062.96              982.00,1081.35 1010.72,1088.77 1035.00,1080.31              1060.55,1071.39 1057.17,1059.46 1077.00,1060.02              1089.46,1060.36 1096.48,1070.10 1095.96,1082.00              1095.46,1093.54 1087.79,1099.78 1079.00,1105.96              1062.45,1117.60 1042.52,1125.97 1022.00,1126.00              1022.00,1126.00 1005.00,1126.00 1005.00,1126.00              982.93,1125.97 958.72,1115.65 942.00,1101.56              926.58,1088.57 914.35,1072.00 907.44,1053.00              903.41,1041.93 900.87,1024.78 901.00,1013.00              901.50,968.80 927.71,929.47 968.00,911.31              981.23,905.35 992.81,903.86 1007.00,902.91              1049.28,900.09 1088.51,920.28 1110.40,957.00              1121.96,976.41 1125.29,993.75 1125.00,1016.00              1124.88,1024.45 1121.03,1030.77 1113.00,1034.02              1108.56,1035.82 1103.72,1035.99 1099.00,1036.00              1099.00,1036.00 947.00,1036.00 947.00,1036.00 Z            M 1190.00,925.00            C 1215.14,909.29 1230.68,901.95 1261.00,902.00              1275.50,902.02 1299.05,905.05 1309.96,915.18              1315.20,920.05 1316.00,923.17 1316.00,930.00              1316.00,943.28 1307.91,952.85 1294.00,951.90              1286.28,951.38 1276.97,945.18 1262.00,945.00              1253.01,944.90 1245.55,945.64 1237.00,948.70              1211.38,957.84 1190.13,983.13 1190.00,1011.00              1190.00,1011.00 1190.00,1099.00 1190.00,1099.00              1189.99,1106.63 1189.40,1114.09 1183.81,1119.90              1175.09,1128.96 1158.46,1128.11 1150.94,1117.96              1147.08,1112.75 1147.01,1108.17 1147.00,1102.00              1147.00,1102.00 1147.00,926.00 1147.00,926.00              1147.01,920.18 1147.11,916.00 1150.65,911.00              1158.50,899.91 1175.54,899.02 1184.47,909.18              1188.50,913.76 1189.52,919.13 1190.00,925.00 Z            M 103.00,945.29            C 91.71,947.16 82.57,950.07 73.00,956.52              36.05,981.41 31.39,1034.32 64.00,1064.91              76.84,1076.95 92.70,1082.59 110.00,1083.82              116.15,1084.25 129.08,1081.72 135.00,1079.56              184.52,1061.56 197.36,996.31 156.99,961.92              151.38,957.15 144.90,952.71 138.00,950.06              126.08,945.49 115.70,944.08 103.00,945.29 Z            M 348.00,945.29            C 332.70,947.62 318.07,953.77 307.09,965.04              276.46,996.48 281.28,1049.09 319.00,1072.77              330.27,1079.85 341.83,1082.88 355.00,1083.82              362.43,1084.35 376.11,1081.18 383.00,1078.14              390.89,1074.66 399.84,1069.11 405.83,1062.91              433.40,1034.42 432.10,991.52 404.00,964.01              397.73,957.88 390.17,953.00 382.00,949.81              370.55,945.34 360.20,944.15 348.00,945.29 Z            M 1079.00,993.00            C 1077.30,982.19 1069.61,972.48 1062.00,965.01              1035.33,938.88 992.27,938.52 965.00,964.09              956.09,972.45 950.95,981.60 947.00,993.00              947.00,993.00 1079.00,993.00 1079.00,993.00 Z"/>
</svg>