<svg xmlns="http://www.w3.org/2000/svg" viewBox="211.31 -0.71 1005.31 721.21">
  <path id="docker" fill="#303030" stroke="none" stroke-width="1"
    d="M 669.14,1.02            C 674.53,-0.89 691.33,0.00 698.00,0.00              698.00,0.00 759.00,0.00 759.00,0.00              770.80,0.02 770.98,4.31 771.00,15.00              771.00,15.00 771.00,81.00 771.00,81.00              770.86,92.40 768.12,94.98 757.00,95.00              757.00,95.00 679.00,95.00 679.00,95.00              666.82,94.98 665.02,91.73 665.00,80.00              665.00,80.00 665.00,23.00 665.00,23.00              665.00,15.88 663.21,6.13 669.14,1.02 Z            M 424.04,113.74            C 429.72,112.34 447.11,113.00 454.00,113.00              454.00,113.00 511.00,113.00 511.00,113.00              522.08,113.02 523.98,114.92 524.00,126.00              524.00,126.00 524.00,195.00 524.00,195.00              523.98,205.32 522.75,207.98 512.00,208.00              512.00,208.00 431.00,208.00 431.00,208.00              420.25,207.98 419.02,205.32 419.00,195.00              419.00,195.00 419.00,135.00 419.00,135.00              419.00,127.68 416.87,117.92 424.04,113.74 Z            M 548.04,113.74            C 553.72,112.34 571.11,113.00 578.00,113.00              578.00,113.00 635.00,113.00 635.00,113.00              646.09,113.02 647.98,114.91 648.00,126.00              648.00,126.00 648.00,195.00 648.00,195.00              647.98,205.32 646.75,207.98 636.00,208.00              636.00,208.00 566.00,208.00 566.00,208.00              560.03,208.00 547.25,209.85 544.02,203.94              542.81,201.73 543.00,198.48 543.00,196.00              543.00,196.00 543.00,135.00 543.00,135.00              543.00,127.68 540.87,117.92 548.04,113.74 Z            M 671.02,113.74            C 676.71,112.35 693.18,113.00 700.00,113.00              700.00,113.00 757.00,113.00 757.00,113.00              769.81,113.02 770.98,117.01 771.00,129.00              771.00,129.00 771.00,195.00 771.00,195.00              770.86,205.91 768.46,207.98 758.00,208.00              758.00,208.00 678.00,208.00 678.00,208.00              665.66,207.98 665.02,204.63 665.00,193.00              665.00,193.00 665.00,128.00 665.00,128.00              665.01,121.38 664.60,117.33 671.02,113.74 Z            M 995.00,138.00            C 1003.09,140.31 1017.28,149.66 1024.00,155.00              1044.27,171.14 1058.23,187.79 1069.75,211.00              1074.34,220.23 1077.64,230.04 1080.27,240.00              1081.07,243.05 1081.68,250.35 1084.31,251.94              1086.73,253.40 1095.85,251.47 1099.00,251.17              1099.00,251.17 1133.00,250.00 1133.00,250.00              1152.13,250.03 1182.50,256.37 1199.00,266.01              1203.67,268.74 1216.69,276.11 1216.10,282.01              1215.10,291.85 1202.69,312.93 1196.63,321.00              1174.27,350.77 1141.53,369.27 1105.00,375.41              1098.93,376.43 1088.99,377.93 1083.00,378.00              1083.00,378.00 1070.00,378.00 1070.00,378.00              1060.01,378.07 1060.70,381.42 1056.40,392.00              1056.40,392.00 1040.24,429.00 1040.24,429.00              1040.24,429.00 1030.74,449.00 1030.74,449.00              1009.35,490.49 984.23,530.27 952.83,565.00              876.69,649.23 774.47,697.20 663.00,713.27              663.00,713.27 605.00,719.04 605.00,719.04              605.00,719.04 594.00,720.00 594.00,720.00              594.00,720.00 534.00,720.00 534.00,720.00              534.00,720.00 522.00,719.00 522.00,719.00              522.00,719.00 513.00,719.00 513.00,719.00              513.00,719.00 478.00,715.15 478.00,715.15              439.22,710.52 387.30,698.23 353.00,679.69              335.85,670.42 320.27,659.21 306.00,645.91              291.27,632.19 275.85,611.33 265.45,594.00              240.62,552.63 226.52,505.31 218.59,458.00              215.58,440.05 213.75,422.15 212.96,404.00              212.96,404.00 212.00,391.00 212.00,391.00              211.97,373.75 209.18,356.24 226.00,345.39              229.10,343.39 231.48,342.43 235.00,341.43              240.01,340.00 241.91,340.01 247.00,340.00              247.00,340.00 733.00,340.00 733.00,340.00              733.00,340.00 853.00,340.00 853.00,340.00              853.00,340.00 906.00,340.00 906.00,340.00              930.18,339.96 954.98,332.34 977.00,323.00              973.66,318.33 971.28,313.14 968.76,308.00              947.63,265.03 954.97,214.10 974.31,172.00              980.37,158.80 987.57,149.87 995.00,138.00 Z            M 301.19,227.74            C 306.60,226.33 324.31,227.00 331.00,227.00              331.00,227.00 390.00,227.00 390.00,227.00              400.75,227.02 401.98,229.68 401.92,240.00              401.92,240.00 401.92,309.00 401.92,309.00              401.92,309.00 401.92,315.00 401.92,315.00              400.45,322.18 394.85,321.99 389.00,322.00              389.00,322.00 320.00,322.00 320.00,322.00              313.61,322.00 300.63,324.07 297.74,316.96              296.87,314.82 297.00,311.34 297.00,309.00              297.00,309.00 297.00,249.00 297.00,249.00              297.00,242.26 294.80,231.94 301.19,227.74 Z            M 423.06,228.02            C 428.67,226.09 445.16,227.00 452.00,227.00              452.00,227.00 512.00,227.00 512.00,227.00              521.82,227.02 523.98,229.18 524.00,239.00              524.00,239.00 524.00,309.00 524.00,309.00              523.98,320.06 522.06,321.98 511.00,322.00              511.00,322.00 442.00,322.00 442.00,322.00              435.61,322.00 422.63,324.07 419.74,316.96              418.87,314.82 419.00,311.34 419.00,309.00              419.00,309.00 419.00,250.00 419.00,250.00              419.00,246.01 418.40,234.02 420.02,231.06              421.05,229.18 421.56,229.19 423.06,228.02 Z            M 547.06,228.02            C 552.67,226.09 569.16,227.00 576.00,227.00              576.00,227.00 636.00,227.00 636.00,227.00              645.82,227.02 647.98,229.18 648.00,239.00              648.00,239.00 648.00,309.00 648.00,309.00              647.98,319.95 645.95,321.98 635.00,322.00              635.00,322.00 566.00,322.00 566.00,322.00              559.61,322.00 546.63,324.07 543.74,316.96              542.87,314.82 543.00,311.34 543.00,309.00              543.00,309.00 543.00,250.00 543.00,250.00              543.00,246.01 542.40,234.02 544.02,231.06              545.05,229.18 545.56,229.19 547.06,228.02 Z            M 669.14,228.02            C 674.53,226.11 691.33,227.00 698.00,227.00              698.00,227.00 758.00,227.00 758.00,227.00              770.34,227.02 770.98,230.37 771.00,242.00              771.00,242.00 771.00,308.00 771.00,308.00              770.86,319.40 768.12,321.98 757.00,322.00              757.00,322.00 679.00,322.00 679.00,322.00              666.82,321.98 665.02,318.73 665.00,307.00              665.00,307.00 665.00,250.00 665.00,250.00              665.00,242.88 663.21,233.13 669.14,228.02 Z            M 793.11,228.02            C 798.59,226.10 815.26,227.00 822.00,227.00              822.00,227.00 882.00,227.00 882.00,227.00              887.14,227.01 892.12,226.86 893.87,233.00              894.06,234.45 894.00,237.42 893.87,239.00              893.87,239.00 893.87,309.00 893.87,309.00              893.87,309.00 893.87,315.00 893.87,315.00              892.45,322.18 886.85,321.99 881.00,322.00              881.00,322.00 812.00,322.00 812.00,322.00              805.61,322.00 792.63,324.07 789.74,316.96              788.87,314.82 789.00,311.34 789.00,309.00              789.00,309.00 789.00,250.00 789.00,250.00              789.00,242.82 786.96,233.00 793.11,228.02 Z" />
</svg>