<svg xmlns="http://www.w3.org/2000/svg" viewBox="467.5 302.5 225 224">
  <path id="docusign" fill="#303030" stroke="none" stroke-width="1"
    d="M 468.00,303.00            C 468.00,303.00 692.00,303.00 692.00,303.00              692.00,303.00 692.00,526.00 692.00,526.00              692.00,526.00 468.00,526.00 468.00,526.00              468.00,526.00 468.00,303.00 468.00,303.00 Z            M 591.00,331.00            C 591.00,331.00 569.00,331.00 569.00,331.00              569.00,331.00 569.00,418.00 569.00,418.00              569.00,418.00 552.00,401.00 552.00,401.00              552.00,401.00 539.00,388.06 539.00,388.06              537.00,386.24 534.92,384.16 532.00,385.17              528.65,386.33 518.41,396.29 519.34,400.00              520.03,402.76 529.50,411.50 532.00,414.00              532.00,414.00 565.00,447.00 565.00,447.00              567.68,449.68 576.62,459.80 580.00,459.80              582.24,459.80 584.49,457.42 586.00,455.98              586.00,455.98 597.00,445.00 597.00,445.00              597.00,445.00 625.00,417.00 625.00,417.00              630.29,411.71 637.79,404.87 642.00,399.00              639.22,396.22 629.41,385.20 626.00,385.20              623.04,385.20 618.09,390.91 616.00,393.00              616.00,393.00 591.00,418.00 591.00,418.00              591.00,418.00 591.00,331.00 591.00,331.00 Z            M 660.00,473.00            C 660.00,473.00 499.00,473.00 499.00,473.00              499.00,473.00 499.00,495.00 499.00,495.00              499.00,495.00 660.00,495.00 660.00,495.00              660.00,495.00 660.00,473.00 660.00,473.00 Z" />
</svg>