<svg xmlns="http://www.w3.org/2000/svg" viewBox="467.5 302.5 1044.03 224">
  <path id="docusign-wordmark" fill="#303030" stroke="none" stroke-width="1"
    d="M 468.00,303.00            C 468.00,303.00 692.00,303.00 692.00,303.00              692.00,303.00 692.00,526.00 692.00,526.00              692.00,526.00 468.00,526.00 468.00,526.00              468.00,526.00 468.00,303.00 468.00,303.00 Z            M 591.00,331.00            C 591.00,331.00 569.00,331.00 569.00,331.00              569.00,331.00 569.00,418.00 569.00,418.00              569.00,418.00 552.00,401.00 552.00,401.00              552.00,401.00 539.00,388.06 539.00,388.06              537.00,386.24 534.92,384.16 532.00,385.17              528.65,386.33 518.41,396.29 519.34,400.00              520.03,402.76 529.50,411.50 532.00,414.00              532.00,414.00 565.00,447.00 565.00,447.00              567.68,449.68 576.62,459.80 580.00,459.80              582.24,459.80 584.49,457.42 586.00,455.98              586.00,455.98 597.00,445.00 597.00,445.00              597.00,445.00 625.00,417.00 625.00,417.00              630.29,411.71 637.79,404.87 642.00,399.00              639.22,396.22 629.41,385.20 626.00,385.20              623.04,385.20 618.09,390.91 616.00,393.00              616.00,393.00 591.00,418.00 591.00,418.00              591.00,418.00 591.00,331.00 591.00,331.00 Z            M 1196.00,440.00            C 1196.84,444.16 1197.79,448.38 1200.13,451.99              1205.99,460.99 1219.00,463.46 1229.00,462.28              1232.47,461.87 1234.60,461.83 1238.00,460.61              1245.01,458.11 1252.54,451.18 1250.18,443.00              1247.00,431.95 1229.81,428.90 1220.00,426.65              1203.22,422.80 1183.35,419.33 1175.32,402.00              1173.21,397.45 1173.02,393.86 1172.43,389.00              1171.95,385.11 1172.65,379.85 1173.51,376.00              1180.29,345.92 1222.52,341.12 1247.00,349.36              1252.56,351.23 1257.42,353.93 1261.96,357.67              1271.29,365.35 1273.88,375.74 1276.00,387.00              1276.00,387.00 1255.00,387.00 1255.00,387.00              1245.68,386.82 1249.98,383.62 1242.82,376.09              1237.89,370.91 1231.99,368.88 1225.00,368.32              1214.45,367.48 1193.06,376.51 1202.70,389.91              1207.78,396.98 1222.77,399.60 1231.00,401.42              1249.03,405.43 1271.92,410.54 1277.51,431.00              1278.74,435.49 1279.09,439.37 1278.99,444.00              1278.90,447.99 1277.98,453.19 1276.78,457.00              1270.86,475.73 1250.42,484.91 1232.00,485.00              1232.00,485.00 1219.00,485.00 1219.00,485.00              1191.29,484.67 1169.02,469.38 1169.00,440.00              1169.00,440.00 1196.00,440.00 1196.00,440.00 Z            M 756.00,348.00            C 756.00,348.00 795.00,348.00 795.00,348.00              820.32,348.00 838.92,347.51 856.67,369.00              869.23,384.20 871.22,404.15 871.00,423.00              870.62,454.81 847.74,481.95 815.00,482.00              815.00,482.00 756.00,482.00 756.00,482.00              756.00,482.00 756.00,348.00 756.00,348.00 Z            M 1286.00,349.00            C 1286.00,349.00 1312.00,349.00 1312.00,349.00              1312.00,349.00 1312.00,374.00 1312.00,374.00              1312.00,374.00 1286.00,374.00 1286.00,374.00              1286.00,374.00 1286.00,349.00 1286.00,349.00 Z            M 784.00,458.00            C 797.73,458.00 818.79,460.40 829.99,452.21              837.83,446.48 840.84,437.20 842.13,428.00              844.56,410.71 842.40,388.61 827.00,377.64              816.93,370.46 796.22,372.00 784.00,372.00              784.00,372.00 784.00,458.00 784.00,458.00 Z            M 922.00,383.43            C 926.41,382.99 933.64,383.85 938.00,384.90              980.21,395.02 986.38,450.41 957.00,474.67              946.60,483.26 934.99,485.15 922.00,485.00              894.07,484.67 875.10,463.22 874.04,436.00              873.71,427.45 876.36,415.49 880.51,408.00              887.17,396.00 898.62,387.51 912.00,384.67              912.00,384.67 922.00,383.43 922.00,383.43 Z            M 1072.00,448.00            C 1071.07,467.83 1057.30,481.52 1038.00,484.78              1034.22,485.16 1029.85,485.04 1026.00,484.78              1019.71,484.92 1011.71,483.33 1006.00,480.68              988.08,472.34 979.39,454.10 979.02,435.00              978.62,414.79 988.94,394.92 1008.00,386.87              1013.28,384.65 1020.28,383.59 1026.00,383.18              1029.17,382.96 1030.95,383.48 1034.00,383.85              1054.03,386.25 1069.23,397.88 1071.00,419.00              1071.00,419.00 1045.00,419.00 1045.00,419.00              1040.66,404.27 1024.88,400.17 1014.10,411.09              999.48,425.92 1004.66,465.33 1029.00,463.79              1034.71,463.43 1040.00,460.63 1043.35,455.98              1045.57,452.92 1045.97,449.75 1048.41,448.57              1050.50,447.57 1068.35,448.00 1072.00,448.00 Z            M 1387.00,467.00            C 1379.42,473.39 1375.67,475.07 1366.00,476.42              1360.80,477.14 1357.09,476.48 1352.00,475.34              1334.45,471.38 1322.57,456.52 1320.15,439.00              1320.15,439.00 1320.15,426.00 1320.15,426.00              1320.11,417.02 1323.23,406.25 1328.61,399.00              1336.38,388.53 1347.33,384.09 1360.00,383.18              1371.57,382.36 1380.08,387.16 1388.00,395.00              1388.00,395.00 1388.00,386.00 1388.00,386.00              1388.00,386.00 1413.00,386.00 1413.00,386.00              1413.00,386.00 1413.00,478.00 1413.00,478.00              1412.67,505.75 1390.14,515.04 1366.00,515.00              1346.21,514.97 1323.14,507.22 1322.00,484.00              1322.00,484.00 1340.00,484.00 1340.00,484.00              1341.79,484.00 1345.04,483.86 1346.63,484.57              1349.73,485.96 1350.65,490.23 1357.00,492.87              1371.38,498.85 1386.79,491.69 1387.00,475.00              1387.00,475.00 1387.00,467.00 1387.00,467.00 Z            M 1450.00,398.00            C 1459.30,378.33 1493.11,378.16 1505.07,398.00              1511.77,409.11 1511.00,420.65 1511.00,433.00              1511.00,433.00 1511.00,482.00 1511.00,482.00              1511.00,482.00 1484.00,482.00 1484.00,482.00              1484.00,482.00 1484.00,426.00 1484.00,426.00              1484.00,423.47 1484.11,420.41 1483.35,418.00              1481.28,411.39 1474.11,405.73 1467.00,406.56              1457.98,407.60 1451.58,415.49 1449.94,424.00              1449.94,424.00 1449.00,482.00 1449.00,482.00              1449.00,482.00 1423.00,482.00 1423.00,482.00              1423.00,482.00 1423.00,386.00 1423.00,386.00              1423.00,386.00 1449.00,386.00 1449.00,386.00              1449.00,386.00 1450.00,398.00 1450.00,398.00 Z            M 1077.00,386.00            C 1077.00,386.00 1103.00,386.00 1103.00,386.00              1103.00,386.00 1103.00,440.00 1103.00,440.00              1103.02,450.59 1106.20,464.04 1120.00,462.44              1131.71,461.09 1136.95,450.64 1137.00,440.00              1137.00,440.00 1137.00,386.00 1137.00,386.00              1137.00,386.00 1164.00,386.00 1164.00,386.00              1164.00,386.00 1164.00,482.00 1164.00,482.00              1164.00,482.00 1138.00,482.00 1138.00,482.00              1138.00,482.00 1138.00,473.00 1138.00,473.00              1134.23,476.73 1131.89,479.34 1127.00,481.67              1110.85,489.37 1087.36,484.70 1080.09,467.00              1076.18,457.47 1077.00,446.12 1077.00,436.00              1077.00,436.00 1077.00,386.00 1077.00,386.00 Z            M 1286.00,386.00            C 1286.00,386.00 1312.00,386.00 1312.00,386.00              1312.00,386.00 1312.00,482.00 1312.00,482.00              1312.00,482.00 1286.00,482.00 1286.00,482.00              1286.00,482.00 1286.00,386.00 1286.00,386.00 Z            M 919.00,404.33            C 891.35,411.22 895.36,470.84 929.00,464.53              951.85,460.25 952.64,422.87 940.67,410.18              934.61,403.76 927.22,403.41 919.00,404.33 Z            M 1362.00,405.33            C 1347.44,408.91 1345.85,420.15 1346.00,433.00              1346.14,444.57 1352.57,454.64 1365.00,454.98              1371.27,455.16 1377.10,454.46 1381.79,449.79              1393.27,438.36 1390.34,412.99 1375.00,406.36              1370.91,404.60 1366.33,404.85 1362.00,405.33 Z            M 660.00,473.00            C 660.00,473.00 499.00,473.00 499.00,473.00              499.00,473.00 499.00,495.00 499.00,495.00              499.00,495.00 660.00,495.00 660.00,495.00              660.00,495.00 660.00,473.00 660.00,473.00 Z" />
</svg>