<svg xmlns="http://www.w3.org/2000/svg" viewBox="-0.59 -0.3 1061.09 247.82">
  <path id="doi-foundation-wordmark" fill="#303030" stroke="none" stroke-width="1"
    d="M 110.00,0.21            C 110.00,0.21 128.00,0.21 128.00,0.21              141.79,0.02 156.14,3.52 169.00,8.32              182.00,13.17 197.00,22.48 207.00,32.04              217.80,42.37 227.01,53.56 233.73,67.00              255.79,111.11 250.00,167.85 216.83,205.00              206.51,216.55 194.70,225.99 181.00,233.22              159.27,244.69 140.14,247.28 116.00,247.00              106.09,246.88 92.44,243.81 83.00,240.67              45.47,228.15 15.35,197.12 4.43,159.00              -0.52,141.73 -0.20,131.55 0.00,114.00              0.12,103.91 3.57,89.50 7.05,80.00              20.65,42.90 51.14,15.23 89.00,4.43              97.02,2.14 101.97,1.64 110.00,0.21 Z            M 98.00,62.00            C 98.00,62.00 78.00,62.00 78.00,62.00              78.00,62.00 78.00,107.00 78.00,107.00              70.45,99.52 62.30,93.33 51.00,94.18              48.30,94.39 43.59,95.48 41.00,96.36              21.40,102.99 19.80,121.52 20.00,139.00              20.10,147.45 22.97,156.40 28.38,162.99              37.51,174.11 55.42,177.63 68.00,170.47              72.09,168.14 74.21,165.66 77.00,162.00              77.00,162.00 77.00,171.00 77.00,171.00              77.00,171.00 98.00,171.00 98.00,171.00              98.00,171.00 98.00,62.00 98.00,62.00 Z            M 199.00,63.43            C 183.19,69.71 192.08,90.96 206.00,87.44              215.30,85.09 218.56,72.97 211.78,66.23              208.10,62.57 203.75,62.71 199.00,63.43 Z            M 292.00,63.00            C 292.00,63.00 357.00,63.00 357.00,63.00              357.00,63.00 357.00,83.00 357.00,83.00              357.00,83.00 316.00,83.00 316.00,83.00              316.00,83.00 316.00,104.00 316.00,104.00              316.00,104.00 357.00,104.00 357.00,104.00              357.00,104.00 357.00,125.00 357.00,125.00              357.00,125.00 316.00,125.00 316.00,125.00              316.00,125.00 316.00,171.00 316.00,171.00              316.00,171.00 292.00,171.00 292.00,171.00              292.00,171.00 292.00,63.00 292.00,63.00 Z            M 682.00,63.00            C 682.00,63.00 703.00,63.00 703.00,63.00              703.00,63.00 703.00,171.00 703.00,171.00              703.00,171.00 682.00,171.00 682.00,171.00              682.00,171.00 682.00,163.00 682.00,163.00              677.37,167.59 674.42,170.77 668.00,172.78              664.09,174.01 661.03,174.04 657.00,174.00              620.77,173.63 618.54,122.63 634.21,105.04              639.39,99.23 644.61,97.22 652.00,95.91              657.34,94.78 659.67,94.84 665.00,95.91              673.10,97.81 676.29,101.34 682.00,107.00              682.00,107.00 682.00,63.00 682.00,63.00 Z            M 865.02,63.74            C 869.12,62.74 874.23,62.35 877.89,64.89              886.90,71.12 883.45,89.13 869.00,87.89              856.37,86.81 853.91,69.85 865.02,63.74 Z            M 815.00,74.00            C 815.00,74.00 837.00,74.00 837.00,74.00              837.00,74.00 837.00,98.00 837.00,98.00              837.00,98.00 847.00,98.00 847.00,98.00              847.00,98.00 847.00,115.00 847.00,115.00              847.00,115.00 837.00,115.00 837.00,115.00              837.00,115.00 837.00,171.00 837.00,171.00              837.00,171.00 815.00,171.00 815.00,171.00              815.00,171.00 815.00,115.00 815.00,115.00              815.00,115.00 805.00,115.00 805.00,115.00              805.00,115.00 805.00,98.00 805.00,98.00              805.00,98.00 815.00,98.00 815.00,98.00              815.00,98.00 815.00,74.00 815.00,74.00 Z            M 145.00,95.37            C 130.75,96.94 120.58,99.50 111.63,112.00              105.80,120.16 104.89,127.38 105.00,137.00              105.26,158.72 122.99,173.51 144.00,173.99              155.97,174.26 168.47,170.12 176.53,160.91              192.83,142.29 187.78,110.71 165.00,99.79              158.95,96.89 151.69,95.43 145.00,95.37 Z            M 401.00,95.42            C 414.57,93.81 430.30,99.74 438.37,111.00              444.58,119.68 445.12,127.83 445.00,138.00              444.85,150.37 437.54,162.16 427.00,168.52              419.81,172.86 411.25,174.09 403.00,174.00              378.62,173.72 363.72,156.84 364.00,133.00              364.10,124.36 367.24,115.78 372.68,109.04              380.03,99.93 390.04,97.08 401.00,95.42 Z            M 563.00,108.00            C 567.18,103.86 570.51,100.37 576.00,97.90              588.71,92.18 608.63,94.44 614.19,109.00              616.71,115.61 616.00,124.86 616.00,132.00              616.00,132.00 616.00,171.00 616.00,171.00              616.00,171.00 594.00,171.00 594.00,171.00              594.00,171.00 594.00,132.00 594.00,132.00              593.89,122.64 590.63,111.96 579.00,113.20              571.80,113.97 565.68,120.10 564.12,127.00              562.20,135.52 563.00,159.88 563.00,170.00              563.00,170.00 541.00,170.00 541.00,170.00              541.00,170.00 541.00,135.00 541.00,135.00              541.00,135.00 542.00,120.00 542.00,120.00              542.00,120.00 542.00,98.00 542.00,98.00              542.00,98.00 563.00,98.00 563.00,98.00              563.00,98.00 563.00,108.00 563.00,108.00 Z            M 930.00,95.42            C 943.83,93.78 959.07,99.69 967.39,111.00              978.11,125.58 976.40,151.29 962.91,163.70              954.38,171.54 943.27,174.12 932.00,174.00              909.35,173.74 893.00,157.77 893.00,135.00              893.00,126.59 894.81,119.04 899.60,112.00              907.15,100.90 917.40,97.33 930.00,95.42 Z            M 1009.00,108.00            C 1017.81,90.88 1059.85,87.66 1060.00,117.00              1060.00,117.00 1060.00,171.00 1060.00,171.00              1060.00,171.00 1039.00,171.00 1039.00,171.00              1039.00,171.00 1039.00,135.00 1039.00,135.00              1038.93,129.69 1038.28,121.23 1034.61,117.21              1027.00,108.89 1015.02,114.27 1010.44,123.00              1008.08,127.49 1008.01,132.09 1008.00,137.00              1008.00,137.00 1008.00,170.00 1008.00,170.00              1008.00,170.00 986.00,170.00 986.00,170.00              986.00,170.00 986.00,98.00 986.00,98.00              986.00,98.00 1008.00,98.00 1008.00,98.00              1008.00,98.00 1009.00,108.00 1009.00,108.00 Z            M 768.00,163.00            C 761.79,175.52 741.14,176.56 730.00,170.59              726.05,168.47 722.13,164.66 719.62,160.99              710.55,147.85 710.27,121.03 719.62,108.00              728.20,96.09 747.17,92.13 760.00,99.04              764.43,101.43 766.75,104.34 770.00,108.00              770.00,108.00 770.00,98.00 770.00,98.00              770.00,98.00 791.00,98.00 791.00,98.00              791.00,98.00 791.00,171.00 791.00,171.00              791.00,171.00 769.00,171.00 769.00,171.00              769.00,171.00 768.00,163.00 768.00,163.00 Z            M 214.00,171.00            C 214.00,171.00 214.00,115.00 214.00,115.00              214.00,100.02 215.30,98.16 207.00,98.00              203.97,97.95 194.90,97.23 193.02,99.60              191.77,101.19 192.00,105.01 192.00,107.00              192.00,107.00 192.00,171.00 192.00,171.00              192.00,171.00 214.00,171.00 214.00,171.00 Z            M 454.00,98.00            C 454.00,98.00 476.00,98.00 476.00,98.00              476.00,98.00 476.00,130.00 476.00,130.00              476.00,135.21 475.41,141.35 478.09,146.00              483.18,154.83 495.88,155.97 502.44,148.67              505.89,144.85 505.98,140.82 506.00,136.00              506.00,136.00 506.00,98.00 506.00,98.00              506.00,98.00 528.00,98.00 528.00,98.00              528.00,98.00 528.00,141.00 528.00,141.00              527.96,149.79 525.56,159.60 518.91,165.79              506.55,177.30 474.95,177.13 463.09,164.96              456.17,157.84 454.12,147.66 454.00,138.00              454.00,138.00 454.00,98.00 454.00,98.00 Z            M 859.00,98.00            C 859.00,98.00 881.00,98.00 881.00,98.00              881.00,98.00 881.00,171.00 881.00,171.00              881.00,171.00 859.00,171.00 859.00,171.00              859.00,171.00 859.00,98.00 859.00,98.00 Z            M 54.00,113.56            C 61.66,112.22 68.32,112.59 73.61,119.04              80.99,128.06 79.71,149.20 66.00,153.35              63.73,154.04 60.39,154.08 58.00,153.96              44.69,153.32 41.87,143.26 42.00,132.00              42.11,122.81 44.91,116.73 54.00,113.56 Z            M 660.00,114.39            C 638.98,121.17 644.23,159.52 670.00,153.61              684.63,150.25 686.15,127.52 676.79,118.21              672.06,113.50 666.18,113.55 660.00,114.39 Z            M 748.00,114.39            C 744.56,115.42 742.01,116.44 739.53,119.21              730.38,129.44 733.60,159.28 757.00,153.74              772.73,150.01 773.22,127.27 764.47,118.53              759.75,113.81 754.21,113.55 748.00,114.39 Z            M 400.00,116.33            C 379.56,121.36 381.61,151.87 403.00,153.24              424.44,154.62 428.87,128.16 414.98,118.70              410.51,115.65 405.15,115.76 400.00,116.33 Z            M 929.00,116.34            C 912.48,120.79 912.48,140.76 921.11,148.78              925.72,153.06 933.01,153.75 939.00,152.67              953.46,150.07 954.76,131.03 949.15,123.04              944.24,116.04 936.76,115.44 929.00,116.34 Z            M 139.00,116.53            C 145.76,115.41 153.28,115.34 158.47,120.53              167.05,129.10 165.92,148.88 151.00,152.75              142.98,154.83 134.65,153.05 129.65,145.98              124.55,138.78 124.43,121.20 139.00,116.53 Z" />
</svg>