<svg xmlns="http://www.w3.org/2000/svg" viewBox="-0.59 -0.3 247.96 247.82">
  <path id="doi-foundation" fill="#303030" stroke="none" stroke-width="1"
    d="M 110.00,0.21            C 110.00,0.21 128.00,0.21 128.00,0.21              141.79,0.02 156.14,3.52 169.00,8.32              182.00,13.17 197.00,22.48 207.00,32.04              217.80,42.37 227.01,53.56 233.73,67.00              255.79,111.11 250.00,167.85 216.83,205.00              206.51,216.55 194.70,225.99 181.00,233.22              159.27,244.69 140.14,247.28 116.00,247.00              106.09,246.88 92.44,243.81 83.00,240.67              45.47,228.15 15.35,197.12 4.43,159.00              -0.52,141.73 -0.20,131.55 0.00,114.00              0.12,103.91 3.57,89.50 7.05,80.00              20.65,42.90 51.14,15.23 89.00,4.43              97.02,2.14 101.97,1.64 110.00,0.21 Z            M 98.00,62.00            C 98.00,62.00 78.00,62.00 78.00,62.00              78.00,62.00 78.00,107.00 78.00,107.00              70.45,99.52 62.30,93.33 51.00,94.18              48.30,94.39 43.59,95.48 41.00,96.36              21.40,102.99 19.80,121.52 20.00,139.00              20.10,147.45 22.97,156.40 28.38,162.99              37.51,174.11 55.42,177.63 68.00,170.47              72.09,168.14 74.21,165.66 77.00,162.00              77.00,162.00 77.00,171.00 77.00,171.00              77.00,171.00 98.00,171.00 98.00,171.00              98.00,171.00 98.00,62.00 98.00,62.00 Z            M 199.00,63.43            C 183.19,69.71 192.08,90.96 206.00,87.44              215.30,85.09 218.56,72.97 211.78,66.23              208.10,62.57 203.75,62.71 199.00,63.43 Z            M 145.00,95.37            C 130.75,96.94 120.58,99.50 111.63,112.00              105.80,120.16 104.89,127.38 105.00,137.00              105.26,158.72 122.99,173.51 144.00,173.99              155.97,174.26 168.47,170.12 176.53,160.91              192.83,142.29 187.78,110.71 165.00,99.79              158.95,96.89 151.69,95.43 145.00,95.37 Z            M 214.00,171.00            C 214.00,171.00 214.00,115.00 214.00,115.00              214.00,100.02 215.30,98.16 207.00,98.00              203.97,97.95 194.90,97.23 193.02,99.60              191.77,101.19 192.00,105.01 192.00,107.00              192.00,107.00 192.00,171.00 192.00,171.00              192.00,171.00 214.00,171.00 214.00,171.00 Z            M 54.00,113.56            C 61.66,112.22 68.32,112.59 73.61,119.04              80.99,128.06 79.71,149.20 66.00,153.35              63.73,154.04 60.39,154.08 58.00,153.96              44.69,153.32 41.87,143.26 42.00,132.00              42.11,122.81 44.91,116.73 54.00,113.56 Z            M 139.00,116.53            C 145.76,115.41 153.28,115.34 158.47,120.53              167.05,129.10 165.92,148.88 151.00,152.75              142.98,154.83 134.65,153.05 129.65,145.98              124.55,138.78 124.43,121.20 139.00,116.53 Z" />
</svg>