<svg xmlns="http://www.w3.org/2000/svg" viewBox="-0.5 -0.42 1052 1025.92">
  <path id="Selection" fill="#303030" stroke="none" stroke-width="1" d="M 167.00,0.08            C 167.00,0.08 196.00,0.08 196.00,0.08              196.00,0.08 247.00,0.08 247.00,0.08              247.00,0.08 403.00,0.08 403.00,0.08              403.00,0.08 876.00,0.08 876.00,0.08              890.64,0.02 910.08,4.36 924.00,9.00              979.83,27.60 1023.02,70.05 1041.67,126.00              1046.49,140.48 1050.98,159.74 1051.00,175.00              1051.00,175.00 1051.00,850.00 1051.00,850.00              1050.98,864.64 1046.64,884.08 1042.00,898.00              1023.41,953.79 980.91,997.03 925.00,1015.67              910.52,1020.49 891.26,1024.98 876.00,1025.00              876.00,1025.00 175.00,1025.00 175.00,1025.00              160.38,1024.98 140.90,1020.64 127.00,1016.00              71.23,997.40 27.96,954.89 9.33,899.00              4.51,884.52 0.02,865.26 0.00,850.00              0.00,850.00 0.00,175.00 0.00,175.00              0.02,161.00 4.23,141.33 8.67,128.00              25.82,76.48 60.56,37.95 110.00,15.31              129.04,6.59 146.60,3.38 167.00,0.08 Z            M 207.00,263.14            C 207.00,263.14 166.00,264.00 166.00,264.00              166.00,264.00 152.00,264.00 152.00,264.00              152.00,264.00 137.00,265.00 137.00,265.00              137.00,265.00 116.00,265.00 116.00,265.00              112.25,265.01 103.27,264.91 101.02,268.31              99.79,270.17 100.00,273.80 100.00,276.00              100.00,276.00 100.00,617.00 100.00,617.00              100.00,617.00 100.00,717.00 100.00,717.00              100.02,728.47 104.30,727.98 115.00,728.00              115.00,728.00 143.00,728.00 143.00,728.00              143.00,728.00 160.00,729.00 160.00,729.00              160.00,729.00 238.00,729.00 238.00,729.00              238.00,729.00 250.00,727.96 250.00,727.96              250.00,727.96 259.00,727.96 259.00,727.96              305.92,723.36 348.10,709.17 386.00,680.63              400.42,669.76 411.91,658.97 423.39,645.00              454.06,607.66 469.74,561.83 473.09,514.00              473.09,514.00 474.00,502.00 474.00,502.00              474.00,502.00 474.00,478.00 474.00,478.00              474.00,478.00 473.09,466.00 473.09,466.00              469.16,408.83 448.96,355.83 405.00,317.29              371.38,287.80 330.76,272.95 287.00,266.87              287.00,266.87 259.00,263.96 259.00,263.96              259.00,263.96 245.00,263.96 245.00,263.96              245.00,263.96 233.00,263.14 233.00,263.14              233.00,263.14 207.00,263.14 207.00,263.14 Z            M 192.00,349.00            C 192.00,349.00 208.00,348.00 208.00,348.00              208.00,348.00 249.00,348.00 249.00,348.00              273.71,348.04 305.81,357.59 326.00,371.72              360.38,395.79 374.26,432.54 377.09,473.00              377.09,473.00 378.00,483.00 378.00,483.00              378.28,507.03 373.75,539.89 364.28,562.00              356.79,579.49 346.23,596.03 332.00,608.83              309.76,628.84 273.97,641.95 244.00,642.00              244.00,642.00 218.00,642.00 218.00,642.00              218.00,642.00 199.00,641.00 199.00,641.00              197.05,640.96 194.37,641.10 193.02,639.40              191.77,637.81 192.00,633.99 192.00,632.00              192.00,632.00 192.00,349.00 192.00,349.00 Z            M 728.00,475.00            C 728.00,475.00 734.39,514.00 734.39,514.00              734.39,514.00 748.60,587.00 748.60,587.00              748.60,587.00 765.65,667.00 765.65,667.00              765.65,667.00 774.37,705.00 774.37,705.00              775.35,708.94 777.05,717.83 779.65,720.57              782.34,723.40 786.42,722.99 790.00,723.00              790.00,723.00 862.00,723.00 862.00,723.00              863.89,723.00 867.11,723.12 868.81,722.40              873.41,720.45 875.45,710.53 876.63,706.00              876.63,706.00 888.42,664.00 888.42,664.00              888.42,664.00 943.86,466.00 943.86,466.00              943.86,466.00 963.71,395.00 963.71,395.00              964.96,390.66 970.43,376.05 967.25,372.74              965.25,370.66 960.69,371.00 958.00,371.00              958.00,371.00 891.00,371.00 891.00,371.00              888.55,371.05 886.28,371.02 884.23,372.60              881.52,374.68 881.08,377.91 880.35,381.00              880.35,381.00 876.13,399.00 876.13,399.00              876.13,399.00 866.58,442.00 866.58,442.00              866.58,442.00 855.61,493.00 855.61,493.00              855.61,493.00 839.41,580.00 839.41,580.00              837.40,591.98 834.15,619.24 830.00,629.00              830.00,629.00 822.27,579.00 822.27,579.00              814.96,529.34 804.25,480.01 793.42,431.00              793.42,431.00 784.37,391.00 784.37,391.00              783.53,387.58 781.50,376.56 779.86,374.31              777.83,371.52 774.07,372.01 771.00,372.00              771.00,372.00 694.00,372.00 694.00,372.00              691.87,372.00 688.27,371.77 686.51,373.02              683.96,374.83 682.24,384.67 681.29,388.00              681.29,388.00 670.37,431.00 670.37,431.00              670.37,431.00 657.79,489.00 657.79,489.00              657.79,489.00 641.40,568.00 641.40,568.00              641.40,568.00 633.61,607.00 633.61,607.00              632.41,613.69 632.14,620.51 630.00,627.00              630.00,627.00 620.42,572.00 620.42,572.00              620.42,572.00 609.20,508.00 609.20,508.00              609.20,508.00 593.00,430.00 593.00,430.00              593.00,430.00 584.21,391.00 584.21,391.00              583.42,387.33 581.68,376.84 579.44,374.43              576.82,371.61 572.51,372.01 569.00,372.00              569.00,372.00 496.00,372.00 496.00,372.00              493.15,372.00 487.94,371.52 486.34,374.43              484.78,377.27 488.22,388.58 489.15,392.00              489.15,392.00 500.87,438.00 500.87,438.00              500.87,438.00 554.13,649.00 554.13,649.00              554.13,649.00 568.13,705.00 568.13,705.00              570.51,714.52 570.26,722.84 582.00,723.00              582.00,723.00 657.00,723.00 657.00,723.00              660.58,722.99 664.77,723.38 667.49,720.57              670.02,717.96 671.90,707.91 672.87,704.00              672.87,704.00 682.63,665.00 682.63,665.00              682.63,665.00 713.58,536.00 713.58,536.00              713.58,536.00 722.35,495.00 722.35,495.00              723.84,488.42 724.64,480.85 728.00,475.00 Z"/>
</svg>