<svg xmlns="http://www.w3.org/2000/svg" viewBox="52.36 52.7 919.14 918.8">
  <path id="dribbble" fill="#303030" stroke="none" stroke-width="1"
    d="M 487.00,53.21            C 487.00,53.21 516.00,53.21 516.00,53.21              545.65,53.00 574.91,56.18 604.00,62.00              783.18,97.83 925.93,239.64 961.80,419.00              966.09,440.45 968.60,461.24 970.09,483.00              970.09,483.00 971.00,493.00 971.00,493.00              971.00,493.00 971.00,529.00 971.00,529.00              971.00,529.00 970.09,541.00 970.09,541.00              967.60,577.34 961.82,613.10 950.98,648.00              908.41,784.95 803.42,896.12 668.00,944.31              625.40,959.47 585.96,967.01 541.00,970.09              541.00,970.09 529.00,971.00 529.00,971.00              529.00,971.00 493.00,971.00 493.00,971.00              493.00,971.00 483.00,970.09 483.00,970.09              442.58,967.32 404.55,960.52 366.00,947.67              319.28,932.09 275.40,909.08 236.00,879.53              196.79,850.12 164.89,816.84 136.43,777.00              41.10,643.61 27.24,466.23 95.31,318.00              145.80,208.05 242.08,120.27 356.00,79.69              382.98,70.08 412.66,62.45 441.00,58.27              441.00,58.27 475.00,54.17 475.00,54.17              475.00,54.17 487.00,53.21 487.00,53.21 Z            M 773.00,216.00            C 773.00,216.00 751.00,198.37 751.00,198.37              734.77,186.15 717.88,174.98 700.00,165.31              656.73,141.90 605.05,125.07 556.00,120.17              556.00,120.17 527.00,118.00 527.00,118.00              527.00,118.00 497.00,118.00 497.00,118.00              497.00,118.00 485.00,118.91 485.00,118.91              485.00,118.91 450.00,122.73 450.00,122.73              441.51,123.98 423.64,127.19 416.00,130.00              416.00,130.00 430.58,151.00 430.58,151.00              430.58,151.00 454.00,185.00 454.00,185.00              480.05,223.89 504.93,263.51 528.42,304.00              528.42,304.00 560.00,361.00 560.00,361.00              569.20,359.33 595.21,346.80 605.00,342.31              649.03,322.09 690.19,295.94 727.00,264.42              738.81,254.30 749.77,243.55 760.17,232.00              764.92,226.72 769.60,222.36 773.00,216.00 Z            M 352.00,152.00            C 346.02,153.70 336.90,158.80 331.00,161.75              311.85,171.33 293.13,183.30 276.00,196.13              222.92,235.88 180.99,287.72 153.31,348.00              145.02,366.05 137.39,386.84 132.15,406.00              132.15,406.00 126.00,431.00 126.00,431.00              126.00,431.00 172.00,431.00 172.00,431.00              172.00,431.00 185.00,430.02 185.00,430.02              185.00,430.02 200.00,430.02 200.00,430.02              200.00,430.02 210.00,429.04 210.00,429.04              210.00,429.04 220.00,429.04 220.00,429.04              220.00,429.04 245.00,427.09 245.00,427.09              245.00,427.09 299.00,422.16 299.00,422.16              366.36,414.96 432.95,402.00 498.00,383.00              495.71,376.74 488.82,365.40 485.30,359.00              485.30,359.00 458.60,313.00 458.60,313.00              436.82,276.70 414.00,240.86 389.98,206.00              389.98,206.00 352.00,152.00 352.00,152.00 Z            M 819.00,264.00            C 819.00,264.00 804.96,279.00 804.96,279.00              793.19,291.30 780.94,303.51 768.00,314.57              728.81,348.07 682.87,377.78 636.00,399.31              636.00,399.31 591.00,419.00 591.00,419.00              591.00,419.00 600.22,439.00 600.22,439.00              600.22,439.00 616.31,474.00 616.31,474.00              616.31,474.00 628.00,501.00 628.00,501.00              628.00,501.00 666.00,495.28 666.00,495.28              666.00,495.28 710.00,490.91 710.00,490.91              710.00,490.91 721.00,490.00 721.00,490.00              721.00,490.00 741.00,489.00 741.00,489.00              741.00,489.00 780.00,489.00 780.00,489.00              780.00,489.00 799.00,490.00 799.00,490.00              799.00,490.00 810.00,490.91 810.00,490.91              810.00,490.91 841.00,493.84 841.00,493.84              858.58,495.72 889.20,500.55 906.00,505.00              906.00,443.32 887.97,378.14 858.69,324.00              858.69,324.00 837.28,289.00 837.28,289.00              837.28,289.00 819.00,264.00 819.00,264.00 Z            M 564.00,517.00            C 562.12,510.04 556.50,498.97 553.31,492.00              553.31,492.00 538.25,460.00 538.25,460.00              536.44,456.38 531.32,443.86 527.79,442.77              525.31,442.01 519.56,444.19 517.00,444.98              517.00,444.98 492.00,452.12 492.00,452.12              492.00,452.12 400.00,473.00 400.00,473.00              350.06,482.83 296.71,488.62 246.00,492.09              246.00,492.09 187.00,495.00 187.00,495.00              187.00,495.00 170.00,496.00 170.00,496.00              170.00,496.00 118.00,496.00 118.00,496.00              118.00,496.00 118.00,527.00 118.00,527.00              118.00,527.00 120.17,556.00 120.17,556.00              125.52,609.54 145.21,666.93 172.80,713.00              181.32,727.23 188.38,737.74 198.37,751.00              202.93,757.05 209.05,765.54 215.00,770.00              270.26,674.04 362.13,600.43 462.00,554.69              486.72,543.37 538.40,522.17 564.00,517.00 Z            M 902.00,571.00            C 889.50,566.40 851.58,560.62 837.00,558.72              837.00,558.72 798.00,555.00 798.00,555.00              798.00,555.00 780.00,554.00 780.00,554.00              780.00,554.00 741.00,554.00 741.00,554.00              741.00,554.00 726.00,555.00 726.00,555.00              711.55,555.17 667.44,559.61 654.00,563.00              654.00,563.00 682.65,642.00 682.65,642.00              682.65,642.00 713.42,746.00 713.42,746.00              713.42,746.00 726.88,801.00 726.88,801.00              726.88,801.00 734.00,836.00 734.00,836.00              741.09,834.26 750.13,826.42 756.00,821.79              771.75,809.38 786.74,795.87 800.17,781.00              837.29,739.90 864.66,697.37 883.31,645.00              883.31,645.00 896.58,599.00 896.58,599.00              896.58,599.00 902.00,571.00 902.00,571.00 Z            M 590.00,577.00            C 569.51,581.13 526.99,597.05 507.00,605.58              438.46,634.82 374.72,676.19 323.91,731.00              303.33,753.20 274.94,790.27 263.00,818.00              293.69,840.55 312.78,854.52 348.00,870.69              418.27,902.96 499.79,913.70 576.00,901.08              600.47,897.03 628.98,889.73 652.00,880.60              652.00,880.60 668.00,874.15 668.00,874.15              670.09,873.24 673.45,872.09 674.23,869.73              675.01,867.39 671.30,851.51 670.60,848.00              670.60,848.00 657.87,791.00 657.87,791.00              644.95,739.28 630.14,688.38 612.66,638.00              612.66,638.00 590.00,577.00 590.00,577.00 Z" />
</svg>