<svg xmlns="http://www.w3.org/2000/svg" viewBox="2924.5 20.5 9121 7017">
  <path id="duolingo" fill="#303030" stroke="none" stroke-width="1"
    d="M 4727.00,2139.00            C 4727.00,2139.00 4727.00,1381.00 4727.00,1381.00              4727.00,1381.00 4727.00,1075.00 4727.00,1075.00              4727.00,1075.00 4727.00,922.00 4727.00,922.00              4727.00,922.00 4728.00,907.00 4728.00,907.00              4728.00,907.00 4728.00,902.00 4728.00,902.00              4728.00,902.00 4728.91,892.00 4728.91,892.00              4728.91,892.00 4733.84,839.00 4733.84,839.00              4739.94,781.97 4755.85,714.44 4774.00,660.00              4840.28,461.15 4972.21,288.13 5148.00,173.34              5224.95,123.10 5306.03,85.67 5394.00,59.28              5445.28,43.90 5500.77,32.53 5554.00,26.84              5554.00,26.84 5600.00,22.91 5600.00,22.91              5600.00,22.91 5610.00,22.00 5610.00,22.00              5610.00,22.00 5632.00,21.00 5632.00,21.00              5632.00,21.00 5687.00,21.00 5687.00,21.00              5687.00,21.00 5699.00,21.96 5699.00,21.96              5699.00,21.96 5710.00,21.96 5710.00,21.96              5710.00,21.96 5720.00,23.00 5720.00,23.00              5720.00,23.00 5729.00,23.00 5729.00,23.00              5729.00,23.00 5766.00,26.84 5766.00,26.84              5801.54,30.64 5837.21,36.63 5872.00,44.88              5965.01,66.94 6014.80,90.40 6101.00,126.58              6101.00,126.58 6319.00,215.60 6319.00,215.60              6444.43,265.77 6570.74,313.41 6698.00,358.69              6798.07,394.30 6899.04,427.65 7001.00,457.42              7088.51,482.98 7176.57,506.32 7266.00,524.20              7311.68,533.33 7357.68,541.21 7404.00,546.16              7404.00,546.16 7462.00,551.04 7462.00,551.04              7462.00,551.04 7473.00,552.00 7473.00,552.00              7473.00,552.00 7489.00,552.00 7489.00,552.00              7489.00,552.00 7505.00,553.00 7505.00,553.00              7505.00,553.00 7510.00,553.00 7510.00,553.00              7510.00,553.00 7523.00,552.00 7523.00,552.00              7523.00,552.00 7540.00,552.00 7540.00,552.00              7540.00,552.00 7566.00,550.09 7566.00,550.09              7600.24,547.74 7634.02,543.28 7668.00,538.27              7758.49,524.94 7862.58,499.01 7951.00,474.42              8214.52,401.14 8470.29,302.29 8724.00,200.80              8724.00,200.80 8895.00,130.15 8895.00,130.15              8955.47,104.39 9011.44,79.55 9075.00,61.43              9131.04,45.45 9188.08,35.37 9246.00,29.83              9246.00,29.83 9287.00,27.00 9287.00,27.00              9287.00,27.00 9304.00,26.00 9304.00,26.00              9304.00,26.00 9357.00,26.00 9357.00,26.00              9357.00,26.00 9369.00,26.96 9369.00,26.96              9369.00,26.96 9380.00,26.96 9380.00,26.96              9380.00,26.96 9391.00,27.96 9391.00,27.96              9420.14,29.23 9449.16,33.10 9478.00,37.58              9548.49,48.52 9620.07,68.79 9686.00,95.99              9766.02,129.00 9842.29,172.52 9910.00,226.60              9933.63,245.48 9956.15,265.06 9978.00,285.96              9978.00,285.96 9994.99,302.00 9994.99,302.00              9994.99,302.00 10004.04,312.00 10004.04,312.00              10121.50,434.81 10200.70,580.75 10239.88,746.00              10249.50,786.54 10256.03,827.57 10260.17,869.00              10260.17,869.00 10262.09,893.00 10262.09,893.00              10262.09,893.00 10263.00,904.00 10263.00,904.00              10263.00,904.00 10264.00,922.00 10264.00,922.00              10264.00,922.00 10264.00,936.00 10264.00,936.00              10264.00,936.00 10265.00,952.00 10265.00,952.00              10265.00,952.00 10265.00,1343.00 10265.00,1343.00              10265.00,1343.00 10265.00,2133.00 10265.00,2133.00              10265.00,2133.00 10310.00,2121.87 10310.00,2121.87              10310.00,2121.87 10385.00,2103.37 10385.00,2103.37              10385.00,2103.37 10609.00,2047.37 10609.00,2047.37              10609.00,2047.37 11262.00,1884.63 11262.00,1884.63              11262.00,1884.63 11527.00,1818.63 11527.00,1818.63              11564.07,1809.36 11640.13,1788.74 11674.00,1784.28              11674.00,1784.28 11704.00,1782.00 11704.00,1782.00              11704.00,1782.00 11719.00,1781.04 11719.00,1781.04              11719.00,1781.04 11727.00,1781.96 11727.00,1781.96              11727.00,1781.96 11738.00,1781.96 11738.00,1781.96              11760.16,1782.26 11794.74,1789.84 11816.00,1796.66              11905.40,1825.31 11978.85,1890.00 12017.14,1976.00              12032.52,2010.55 12041.46,2047.34 12044.09,2085.00              12044.09,2085.00 12045.00,2097.00 12045.00,2097.00              12045.00,2097.00 12045.00,2123.00 12045.00,2123.00              12045.00,2123.00 12044.09,2133.00 12044.09,2133.00              12044.09,2133.00 12041.17,2172.00 12041.17,2172.00              12041.17,2172.00 12036.83,2220.00 12036.83,2220.00              12036.83,2220.00 12028.28,2290.00 12028.28,2290.00              12011.77,2415.44 11984.08,2543.83 11947.72,2665.00              11873.52,2912.31 11761.58,3148.28 11614.98,3361.00              11545.77,3461.41 11473.59,3550.63 11391.83,3641.00              11391.83,3641.00 11342.04,3693.00 11342.04,3693.00              11342.04,3693.00 11332.99,3703.00 11332.99,3703.00              11332.99,3703.00 11306.00,3729.96 11306.00,3729.96              11306.00,3729.96 11296.00,3739.01 11296.00,3739.01              11296.00,3739.01 11278.00,3756.96 11278.00,3756.96              11149.97,3879.41 11008.53,3987.15 10858.00,4080.42              10714.43,4169.38 10558.58,4244.05 10400.00,4302.05              10358.71,4317.16 10316.98,4330.98 10275.00,4344.02              10275.00,4344.02 10237.00,4355.42 10237.00,4355.42              10230.58,4357.25 10221.35,4360.43 10215.00,4361.00              10215.00,4361.00 10207.42,4401.00 10207.42,4401.00              10207.42,4401.00 10194.88,4459.00 10194.88,4459.00              10180.87,4518.12 10166.19,4576.78 10148.72,4635.00              10077.50,4872.36 9977.45,5094.60 9846.42,5305.00              9680.60,5571.28 9473.04,5804.26 9229.00,6001.20              8884.17,6279.48 8466.23,6474.81 8031.00,6558.80              7977.25,6569.18 7923.29,6578.57 7869.00,6585.72              7812.14,6593.20 7755.14,6599.18 7698.00,6603.09              7698.00,6603.09 7633.00,6607.00 7633.00,6607.00              7633.00,6607.00 7618.00,6608.04 7618.00,6608.04              7618.00,6608.04 7605.00,6608.04 7605.00,6608.04              7605.00,6608.04 7594.00,6609.00 7594.00,6609.00              7594.00,6609.00 7579.00,6609.00 7579.00,6609.00              7579.00,6609.00 7562.00,6610.00 7562.00,6610.00              7562.00,6610.00 7428.00,6610.00 7428.00,6610.00              7428.00,6610.00 7413.00,6609.00 7413.00,6609.00              7413.00,6609.00 7398.00,6609.00 7398.00,6609.00              7398.00,6609.00 7386.00,6608.04 7386.00,6608.04              7386.00,6608.04 7374.00,6608.04 7374.00,6608.04              7374.00,6608.04 7359.00,6607.00 7359.00,6607.00              7359.00,6607.00 7334.00,6606.00 7334.00,6606.00              7334.00,6606.00 7324.00,6605.09 7324.00,6605.09              7324.00,6605.09 7300.00,6603.91 7300.00,6603.91              7300.00,6603.91 7280.00,6602.09 7280.00,6602.09              7229.20,6598.60 7178.53,6592.93 7128.00,6586.28              6963.65,6564.65 6802.88,6528.12 6645.00,6477.66              6372.49,6390.56 6108.83,6255.94 5877.00,6088.58              5598.60,5887.59 5356.33,5633.78 5170.31,5345.00              5122.23,5270.36 5077.45,5193.90 5036.74,5115.00              5036.74,5115.00 4992.31,5026.00 4992.31,5026.00              4992.31,5026.00 4953.43,4940.00 4953.43,4940.00              4901.06,4817.25 4858.01,4695.86 4823.15,4567.00              4810.38,4519.77 4798.27,4471.97 4788.60,4424.00              4788.60,4424.00 4780.40,4384.00 4780.40,4384.00              4779.59,4379.93 4778.64,4371.24 4775.69,4368.51              4773.33,4366.33 4765.36,4364.50 4762.00,4363.63              4762.00,4363.63 4735.00,4356.00 4735.00,4356.00              4735.00,4356.00 4638.00,4325.67 4638.00,4325.67              4557.63,4298.88 4478.05,4268.59 4401.00,4233.31              4401.00,4233.31 4335.00,4202.75 4335.00,4202.75              4335.00,4202.75 4252.00,4160.69 4252.00,4160.69              4181.65,4122.65 4112.99,4082.39 4046.00,4038.66              3859.14,3916.65 3678.43,3758.30 3532.28,3590.00              3265.27,3282.52 3079.09,2923.22 2985.12,2527.00              2963.52,2435.95 2945.79,2339.04 2935.84,2246.00              2935.84,2246.00 2931.17,2204.00 2931.17,2204.00              2931.17,2204.00 2927.83,2165.00 2927.83,2165.00              2927.83,2165.00 2925.91,2139.00 2925.91,2139.00              2925.91,2139.00 2925.00,2127.00 2925.00,2127.00              2925.00,2127.00 2925.00,2092.00 2925.00,2092.00              2925.04,2064.32 2934.37,2024.17 2943.69,1998.00              2979.19,1898.32 3062.64,1822.32 3164.00,1793.43              3181.43,1788.46 3214.16,1782.21 3232.00,1781.96              3232.00,1781.96 3243.00,1781.96 3243.00,1781.96              3243.00,1781.96 3254.00,1781.04 3254.00,1781.04              3254.00,1781.04 3262.00,1781.96 3262.00,1781.96              3262.00,1781.96 3273.00,1781.96 3273.00,1781.96              3273.00,1781.96 3283.00,1782.92 3283.00,1782.92              3308.36,1784.95 3327.64,1790.04 3352.00,1796.13              3352.00,1796.13 3449.00,1820.13 3449.00,1820.13              3449.00,1820.13 3772.00,1900.63 3772.00,1900.63              3772.00,1900.63 4415.00,2061.13 4415.00,2061.13              4415.00,2061.13 4624.00,2113.13 4624.00,2113.13              4624.00,2113.13 4690.00,2129.63 4690.00,2129.63              4690.00,2129.63 4727.00,2139.00 4727.00,2139.00 Z            M 7899.00,3176.00            C 7901.08,3183.14 7911.53,3199.85 7915.80,3207.00              7915.80,3207.00 7954.00,3267.00 7954.00,3267.00              8013.03,3355.53 8093.01,3437.67 8177.00,3502.65              8298.10,3596.34 8437.61,3660.61 8587.00,3693.42              8634.07,3703.76 8681.96,3710.79 8730.00,3714.09              8730.00,3714.09 8764.00,3716.00 8764.00,3716.00              8764.00,3716.00 8779.00,3717.00 8779.00,3717.00              8779.00,3717.00 8912.00,3717.00 8912.00,3717.00              8912.00,3717.00 8927.00,3716.00 8927.00,3716.00              8927.00,3716.00 8934.00,3716.00 8934.00,3716.00              8934.00,3716.00 8944.00,3715.09 8944.00,3715.09              8944.00,3715.09 8982.00,3712.17 8982.00,3712.17              9020.05,3708.48 9057.55,3702.75 9095.00,3695.00              9253.29,3662.24 9401.85,3591.32 9528.00,3490.40              9549.61,3473.11 9571.00,3455.09 9591.00,3435.96              9734.49,3298.72 9837.93,3127.20 9885.63,2934.00              9898.58,2881.51 9906.96,2828.75 9912.17,2775.00              9912.17,2775.00 9915.00,2734.00 9915.00,2734.00              9915.00,2734.00 9916.00,2717.00 9916.00,2717.00              9916.00,2717.00 9916.00,2507.00 9916.00,2507.00              9916.00,2507.00 9916.00,1978.00 9916.00,1978.00              9916.00,1978.00 9915.00,1961.00 9915.00,1961.00              9915.00,1961.00 9912.17,1920.00 9912.17,1920.00              9908.10,1877.96 9902.50,1836.32 9893.42,1795.00              9883.67,1750.57 9871.57,1706.88 9856.31,1664.00              9799.58,1504.60 9701.48,1358.49 9576.00,1245.17              9525.72,1199.76 9471.10,1159.26 9413.00,1124.40              9413.00,1124.40 9355.00,1092.25 9355.00,1092.25              9355.00,1092.25 9335.00,1082.24 9335.00,1082.24              9332.40,1080.96 9327.36,1078.73 9325.58,1076.61              9323.08,1073.62 9321.44,1057.80 9320.58,1053.00              9320.58,1053.00 9309.13,1000.00 9309.13,1000.00              9296.77,950.56 9279.04,902.58 9256.25,857.00              9237.80,820.10 9222.10,784.97 9178.00,773.89              9165.38,770.73 9158.72,770.85 9146.00,771.00              9125.62,771.24 9103.01,781.77 9088.00,795.17              9088.00,795.17 9059.72,826.00 9059.72,826.00              9059.72,826.00 8970.72,925.00 8970.72,925.00              8970.72,925.00 8936.42,963.00 8936.42,963.00              8934.25,965.50 8924.64,976.98 8922.13,977.38              8918.45,977.97 8919.00,971.14 8919.00,969.00              8919.00,969.00 8919.00,937.00 8919.00,937.00              8919.00,937.00 8918.00,918.00 8918.00,918.00              8918.00,918.00 8917.09,908.00 8917.09,908.00              8915.45,884.20 8912.66,860.51 8908.42,837.00              8895.79,766.95 8875.13,701.77 8843.25,638.00              8836.29,624.08 8823.08,598.30 8813.56,587.00              8796.00,566.15 8769.36,553.32 8742.00,553.00              8718.24,552.73 8695.17,561.13 8677.00,576.44              8677.00,576.44 8627.92,630.00 8627.92,630.00              8627.92,630.00 8565.83,699.00 8565.83,699.00              8565.83,699.00 8422.83,858.00 8422.83,858.00              8422.83,858.00 8104.17,1212.00 8104.17,1212.00              8104.17,1212.00 7970.17,1361.00 7970.17,1361.00              7970.17,1361.00 7926.08,1410.00 7926.08,1410.00              7926.08,1410.00 7906.00,1431.68 7906.00,1431.68              7906.00,1431.68 7877.00,1450.81 7877.00,1450.81              7877.00,1450.81 7820.00,1482.25 7820.00,1482.25              7761.23,1511.63 7698.40,1531.38 7634.00,1543.80              7603.36,1549.72 7572.14,1553.68 7541.00,1555.04              7541.00,1555.04 7530.00,1556.00 7530.00,1556.00              7530.00,1556.00 7515.00,1556.00 7515.00,1556.00              7515.00,1556.00 7494.00,1557.00 7494.00,1557.00              7494.00,1557.00 7481.00,1556.00 7481.00,1556.00              7481.00,1556.00 7465.00,1556.00 7465.00,1556.00              7465.00,1556.00 7452.00,1555.04 7452.00,1555.04              7422.16,1553.74 7392.41,1549.73 7363.00,1544.42              7264.79,1526.71 7163.52,1486.50 7082.01,1428.65              7076.23,1424.55 7068.02,1414.48 7062.91,1409.00              7062.91,1409.00 7028.91,1372.00 7028.91,1372.00              7028.91,1372.00 6915.83,1249.00 6915.83,1249.00              6915.83,1249.00 6841.09,1168.00 6841.09,1168.00              6841.09,1168.00 6790.83,1113.00 6790.83,1113.00              6790.83,1113.00 6710.83,1026.00 6710.83,1026.00              6710.83,1026.00 6590.17,895.00 6590.17,895.00              6590.17,895.00 6464.17,758.00 6464.17,758.00              6464.17,758.00 6407.17,696.00 6407.17,696.00              6407.17,696.00 6352.04,636.00 6352.04,636.00              6352.04,636.00 6317.09,598.00 6317.09,598.00              6293.47,572.64 6276.30,553.57 6239.00,554.00              6229.77,554.11 6219.33,556.84 6211.00,560.78              6180.21,575.35 6165.26,606.00 6150.75,635.00              6117.95,700.61 6094.91,769.59 6082.92,842.00              6079.17,864.62 6076.48,887.15 6074.91,910.00              6074.91,910.00 6074.00,921.00 6074.00,921.00              6074.00,921.00 6074.00,925.00 6074.00,925.00              6074.00,925.00 6073.00,940.00 6073.00,940.00              6073.00,940.00 6073.00,990.00 6073.00,990.00              6073.00,990.00 6074.00,1001.00 6074.00,1001.00              6072.20,1000.98 6069.84,1001.08 6068.17,1000.40              6064.70,998.99 6056.87,989.21 6053.92,986.00              6053.92,986.00 6011.58,939.00 6011.58,939.00              6011.58,939.00 5979.17,903.00 5979.17,903.00              5979.17,903.00 5907.17,823.00 5907.17,823.00              5907.17,823.00 5883.83,797.42 5883.83,797.42              5868.77,783.05 5845.15,771.25 5824.00,771.00              5824.00,771.00 5813.00,771.00 5813.00,771.00              5790.74,771.03 5764.65,782.14 5749.17,798.09              5738.39,809.19 5731.56,822.63 5724.14,836.00              5692.05,893.84 5666.18,967.10 5653.20,1032.00              5653.20,1032.00 5642.42,1101.00 5642.42,1101.00              5642.42,1101.00 5640.26,1120.91 5640.26,1120.91              5639.36,1123.08 5637.87,1124.27 5635.96,1125.53              5635.96,1125.53 5612.00,1139.01 5612.00,1139.01              5612.00,1139.01 5550.00,1178.02 5550.00,1178.02              5484.86,1222.92 5426.03,1273.10 5372.09,1331.00              5250.59,1461.41 5163.21,1626.31 5123.35,1800.00              5112.11,1848.95 5105.66,1892.12 5100.83,1942.00              5100.83,1942.00 5098.00,1986.00 5098.00,1986.00              5098.00,1986.00 5097.00,2001.00 5097.00,2001.00              5097.00,2001.00 5097.00,2455.00 5097.00,2455.00              5097.00,2455.00 5097.00,2738.00 5097.00,2738.00              5097.00,2738.00 5098.00,2760.00 5098.00,2760.00              5098.00,2760.00 5098.91,2770.00 5098.91,2770.00              5098.91,2770.00 5100.83,2796.00 5100.83,2796.00              5103.93,2827.95 5107.87,2859.37 5113.58,2891.00              5146.42,3073.07 5229.72,3244.63 5351.28,3384.00              5509.44,3565.32 5723.96,3685.00 5961.00,3724.92              5993.15,3730.33 6025.53,3733.87 6058.00,3736.09              6058.00,3736.09 6084.00,3738.04 6084.00,3738.04              6084.00,3738.04 6099.00,3738.04 6099.00,3738.04              6099.00,3738.04 6111.00,3739.00 6111.00,3739.00              6111.00,3739.00 6232.00,3739.00 6232.00,3739.00              6232.00,3739.00 6247.00,3738.00 6247.00,3738.00              6247.00,3738.00 6258.00,3738.00 6258.00,3738.00              6258.00,3738.00 6284.00,3736.09 6284.00,3736.09              6284.00,3736.09 6360.00,3728.13 6360.00,3728.13              6470.07,3712.81 6583.28,3676.68 6682.00,3625.74              6811.69,3558.82 6927.35,3465.01 7018.55,3351.00              7046.81,3315.68 7071.77,3279.42 7095.58,3241.00              7095.58,3241.00 7115.00,3208.00 7115.00,3208.00              7115.00,3208.00 7115.00,3489.00 7115.00,3489.00              7115.00,3489.00 7115.00,3582.00 7115.00,3582.00              7115.00,3582.00 7116.49,3607.00 7116.49,3607.00              7115.52,3622.39 7121.90,3660.48 7125.84,3676.56              7127.06,3681.51 7129.56,3696.08 7133.00,3699.00              7133.00,3699.00 7139.00,3723.00 7139.00,3723.00              7139.00,3723.00 7141.00,3723.00 7141.00,3723.00              7140.97,3725.74 7140.78,3726.29 7143.00,3728.00              7143.00,3728.00 7142.00,3731.00 7142.00,3731.00              7142.00,3731.00 7145.00,3733.00 7145.00,3733.00              7145.00,3733.00 7144.00,3736.00 7144.00,3736.00              7144.00,3736.00 7145.00,3738.00 7145.00,3738.00              7145.00,3738.00 7147.00,3738.00 7147.00,3738.00              7147.00,3738.00 7147.00,3743.00 7147.00,3743.00              7147.00,3743.00 7149.00,3743.00 7149.00,3743.00              7149.00,3743.00 7148.00,3745.00 7148.00,3745.00              7148.00,3745.00 7150.00,3745.00 7150.00,3745.00              7150.00,3745.00 7151.00,3752.00 7151.00,3752.00              7151.00,3752.00 7153.00,3752.00 7153.00,3752.00              7153.00,3752.00 7152.00,3754.00 7152.00,3754.00              7152.00,3754.00 7154.00,3754.00 7154.00,3754.00              7154.00,3754.00 7153.00,3756.00 7153.00,3756.00              7153.00,3756.00 7155.00,3756.00 7155.00,3756.00              7155.00,3756.00 7154.00,3758.00 7154.00,3758.00              7154.00,3758.00 7156.00,3758.00 7156.00,3758.00              7156.00,3758.00 7155.00,3760.00 7155.00,3760.00              7155.00,3760.00 7157.00,3760.00 7157.00,3760.00              7157.00,3760.00 7156.00,3762.00 7156.00,3762.00              7156.00,3762.00 7158.00,3762.00 7158.00,3762.00              7158.00,3762.00 7157.00,3764.00 7157.00,3764.00              7157.00,3764.00 7159.00,3764.00 7159.00,3764.00              7159.00,3764.00 7158.00,3766.00 7158.00,3766.00              7158.00,3766.00 7160.00,3766.00 7160.00,3766.00              7160.00,3766.00 7159.00,3768.00 7159.00,3768.00              7159.00,3768.00 7161.00,3768.00 7161.00,3768.00              7161.00,3768.00 7160.00,3770.00 7160.00,3770.00              7160.00,3770.00 7162.00,3770.00 7162.00,3770.00              7162.00,3770.00 7161.00,3772.00 7161.00,3772.00              7161.00,3772.00 7163.00,3772.00 7163.00,3772.00              7163.23,3775.03 7163.47,3775.33 7166.00,3777.00              7166.00,3777.00 7165.00,3779.00 7165.00,3779.00              7165.00,3779.00 7167.00,3779.00 7167.00,3779.00              7167.00,3779.00 7166.00,3781.00 7166.00,3781.00              7166.00,3781.00 7168.00,3781.00 7168.00,3781.00              7168.00,3781.00 7170.00,3784.00 7170.00,3784.00              7170.00,3784.00 7169.00,3786.00 7169.00,3786.00              7169.00,3786.00 7171.00,3786.00 7171.00,3786.00              7171.36,3789.21 7171.26,3789.25 7174.00,3791.00              7174.00,3791.00 7173.00,3793.00 7173.00,3793.00              7173.00,3793.00 7176.00,3794.00 7176.00,3794.00              7176.00,3794.00 7175.00,3796.00 7175.00,3796.00              7175.00,3796.00 7178.00,3797.00 7178.00,3797.00              7178.00,3797.00 7177.00,3799.00 7177.00,3799.00              7177.00,3799.00 7183.00,3805.00 7183.00,3805.00              7183.00,3805.00 7182.00,3807.00 7182.00,3807.00              7182.00,3807.00 7188.00,3812.00 7188.00,3812.00              7188.00,3812.00 7187.00,3814.00 7187.00,3814.00              7187.00,3814.00 7193.00,3819.00 7193.00,3819.00              7193.00,3819.00 7192.00,3821.00 7192.00,3821.00              7192.00,3821.00 7196.00,3823.00 7196.00,3823.00              7196.00,3823.00 7195.00,3825.00 7195.00,3825.00              7195.00,3825.00 7199.00,3830.00 7199.00,3830.00              7199.00,3830.00 7203.00,3835.00 7203.00,3835.00              7203.00,3835.00 7214.30,3846.61 7214.30,3846.61              7214.30,3846.61 7217.35,3850.87 7217.35,3850.87              7217.35,3850.87 7226.00,3859.00 7226.00,3859.00              7226.00,3859.00 7242.39,3875.83 7242.39,3875.83              7242.39,3875.83 7259.00,3891.00 7259.00,3891.00              7259.00,3891.00 7264.00,3895.00 7264.00,3895.00              7264.00,3895.00 7269.00,3899.00 7269.00,3899.00              7269.00,3899.00 7271.00,3898.00 7271.00,3898.00              7271.00,3898.00 7273.00,3902.00 7273.00,3902.00              7273.00,3902.00 7275.00,3901.00 7275.00,3901.00              7275.00,3901.00 7279.00,3904.00 7279.00,3904.00              7279.00,3904.00 7280.00,3907.00 7280.00,3907.00              7280.00,3907.00 7282.00,3906.00 7282.00,3906.00              7282.00,3906.00 7283.00,3909.00 7283.00,3909.00              7283.00,3909.00 7287.00,3912.00 7287.00,3912.00              7287.00,3912.00 7289.00,3911.00 7289.00,3911.00              7291.19,3914.41 7295.93,3917.73 7300.00,3918.00              7300.00,3918.00 7301.00,3921.00 7301.00,3921.00              7301.00,3921.00 7303.00,3920.00 7303.00,3920.00              7303.00,3920.00 7306.00,3924.00 7306.00,3924.00              7306.00,3924.00 7308.00,3923.00 7308.00,3923.00              7308.00,3923.00 7311.00,3927.00 7311.00,3927.00              7311.00,3927.00 7313.00,3926.00 7313.00,3926.00              7313.00,3926.00 7313.00,3928.00 7313.00,3928.00              7313.00,3928.00 7320.00,3932.00 7320.00,3932.00              7320.00,3932.00 7322.00,3931.00 7322.00,3931.00              7322.00,3931.00 7322.00,3933.00 7322.00,3933.00              7322.00,3933.00 7324.00,3932.00 7324.00,3932.00              7324.00,3932.00 7324.00,3934.00 7324.00,3934.00              7324.00,3934.00 7326.00,3933.00 7326.00,3933.00              7326.00,3933.00 7326.00,3935.00 7326.00,3935.00              7326.00,3935.00 7328.00,3934.00 7328.00,3934.00              7328.00,3934.00 7328.00,3936.00 7328.00,3936.00              7328.00,3936.00 7330.00,3935.00 7330.00,3935.00              7330.00,3935.00 7330.00,3937.00 7330.00,3937.00              7330.00,3937.00 7332.00,3936.00 7332.00,3936.00              7332.00,3936.00 7332.00,3938.00 7332.00,3938.00              7332.00,3938.00 7334.00,3937.00 7334.00,3937.00              7334.00,3937.00 7334.00,3939.00 7334.00,3939.00              7334.00,3939.00 7336.00,3938.00 7336.00,3938.00              7336.00,3938.00 7336.00,3940.00 7336.00,3940.00              7336.00,3940.00 7338.00,3939.00 7338.00,3939.00              7338.00,3939.00 7338.00,3941.00 7338.00,3941.00              7338.00,3941.00 7340.00,3940.00 7340.00,3940.00              7340.00,3940.00 7340.00,3942.00 7340.00,3942.00              7340.00,3942.00 7342.00,3941.00 7342.00,3941.00              7342.00,3941.00 7342.00,3943.00 7342.00,3943.00              7342.00,3943.00 7344.00,3942.00 7344.00,3942.00              7344.00,3942.00 7344.00,3944.00 7344.00,3944.00              7344.00,3944.00 7351.00,3945.00 7351.00,3945.00              7351.00,3945.00 7351.00,3947.00 7351.00,3947.00              7351.00,3947.00 7358.00,3948.00 7358.00,3948.00              7358.00,3948.00 7358.00,3950.00 7358.00,3950.00              7358.00,3950.00 7363.00,3950.00 7363.00,3950.00              7363.00,3950.00 7363.00,3952.00 7363.00,3952.00              7363.00,3952.00 7368.00,3954.00 7368.00,3954.00              7368.00,3954.00 7371.00,3953.00 7371.00,3953.00              7371.00,3953.00 7379.00,3958.00 7379.00,3958.00              7379.00,3958.00 7382.00,3957.00 7382.00,3957.00              7384.05,3959.62 7393.08,3961.79 7396.57,3962.71              7396.57,3962.71 7433.00,3971.60 7433.00,3971.60              7445.88,3974.21 7458.93,3975.84 7472.00,3976.74              7472.00,3976.74 7480.00,3977.73 7480.00,3977.73              7480.00,3977.73 7487.00,3977.73 7487.00,3977.73              7487.00,3977.73 7502.00,3978.91 7502.00,3978.91              7502.00,3978.91 7515.00,3978.91 7515.00,3978.91              7515.00,3978.91 7526.00,3977.70 7526.00,3977.70              7526.00,3977.70 7534.00,3977.70 7534.00,3977.70              7534.00,3977.70 7541.00,3976.75 7541.00,3976.75              7541.00,3976.75 7577.01,3972.22 7577.01,3972.22              7577.01,3972.22 7600.00,3968.00 7600.00,3968.00              7600.00,3968.00 7600.00,3966.00 7600.00,3966.00              7603.79,3966.29 7612.49,3964.96 7615.00,3962.00              7618.45,3962.37 7625.71,3960.70 7628.00,3958.00              7628.00,3958.00 7631.00,3957.00 7631.00,3957.00              7631.00,3957.00 7634.00,3956.00 7634.00,3956.00              7634.00,3956.00 7637.00,3957.00 7637.00,3957.00              7637.00,3957.00 7642.00,3953.00 7642.00,3953.00              7642.00,3953.00 7645.00,3954.00 7645.00,3954.00              7645.00,3954.00 7650.00,3952.00 7650.00,3952.00              7650.00,3952.00 7650.00,3950.00 7650.00,3950.00              7650.00,3950.00 7655.00,3950.00 7655.00,3950.00              7655.00,3950.00 7655.00,3948.00 7655.00,3948.00              7655.00,3948.00 7660.00,3948.00 7660.00,3948.00              7660.00,3948.00 7660.00,3946.00 7660.00,3946.00              7660.00,3946.00 7662.00,3947.00 7662.00,3947.00              7662.00,3947.00 7662.00,3945.00 7662.00,3945.00              7662.00,3945.00 7667.00,3945.00 7667.00,3945.00              7667.00,3945.00 7667.00,3943.00 7667.00,3943.00              7667.00,3943.00 7669.00,3944.00 7669.00,3944.00              7669.00,3944.00 7669.00,3942.00 7669.00,3942.00              7669.00,3942.00 7671.00,3943.00 7671.00,3943.00              7671.00,3943.00 7671.00,3941.00 7671.00,3941.00              7671.00,3941.00 7673.00,3942.00 7673.00,3942.00              7673.00,3942.00 7673.00,3940.00 7673.00,3940.00              7673.00,3940.00 7675.00,3941.00 7675.00,3941.00              7675.00,3941.00 7675.00,3939.00 7675.00,3939.00              7675.00,3939.00 7677.00,3940.00 7677.00,3940.00              7677.00,3940.00 7677.00,3938.00 7677.00,3938.00              7677.00,3938.00 7679.00,3939.00 7679.00,3939.00              7679.00,3939.00 7679.00,3937.00 7679.00,3937.00              7679.00,3937.00 7681.00,3938.00 7681.00,3938.00              7681.00,3938.00 7681.00,3936.00 7681.00,3936.00              7681.00,3936.00 7683.00,3937.00 7683.00,3937.00              7683.00,3937.00 7683.00,3935.00 7683.00,3935.00              7683.00,3935.00 7685.00,3936.00 7685.00,3936.00              7685.00,3936.00 7685.00,3934.00 7685.00,3934.00              7685.00,3934.00 7687.00,3935.00 7687.00,3935.00              7687.00,3935.00 7687.00,3933.00 7687.00,3933.00              7687.00,3933.00 7689.00,3934.00 7689.00,3934.00              7689.00,3934.00 7689.00,3932.00 7689.00,3932.00              7689.00,3932.00 7691.00,3933.00 7691.00,3933.00              7691.00,3933.00 7691.00,3931.00 7691.00,3931.00              7691.00,3931.00 7693.00,3932.00 7693.00,3932.00              7693.00,3932.00 7693.00,3930.00 7693.00,3930.00              7696.03,3929.77 7696.33,3929.53 7698.00,3927.00              7698.00,3927.00 7700.00,3928.00 7700.00,3928.00              7700.00,3928.00 7700.00,3926.00 7700.00,3926.00              7703.03,3925.77 7703.33,3925.53 7705.00,3923.00              7705.00,3923.00 7707.00,3924.00 7707.00,3924.00              7707.00,3924.00 7712.00,3921.00 7712.00,3921.00              7712.00,3921.00 7713.00,3918.00 7713.00,3918.00              7713.00,3918.00 7715.00,3919.00 7715.00,3919.00              7715.00,3919.00 7718.00,3915.00 7718.00,3915.00              7718.00,3915.00 7720.00,3916.00 7720.00,3916.00              7720.00,3916.00 7721.00,3913.00 7721.00,3913.00              7721.00,3913.00 7724.00,3911.00 7724.00,3911.00              7724.00,3911.00 7727.00,3909.00 7727.00,3909.00              7730.90,3908.46 7731.92,3907.23 7734.00,3904.00              7734.00,3904.00 7736.00,3905.00 7736.00,3905.00              7736.00,3905.00 7738.00,3901.00 7738.00,3901.00              7738.00,3901.00 7740.00,3902.00 7740.00,3902.00              7740.00,3902.00 7742.00,3898.00 7742.00,3898.00              7742.00,3898.00 7744.00,3899.00 7744.00,3899.00              7744.00,3899.00 7746.00,3895.00 7746.00,3895.00              7749.42,3894.27 7749.22,3893.98 7751.00,3891.00              7756.02,3889.99 7760.38,3884.15 7764.46,3881.09              7770.96,3876.21 7770.62,3875.03 7775.84,3870.20              7775.84,3870.20 7782.85,3864.87 7782.85,3864.87              7782.85,3864.87 7788.20,3857.91 7788.20,3857.91              7788.20,3857.91 7797.65,3848.92 7797.65,3848.92              7797.65,3848.92 7800.70,3844.80 7800.70,3844.80              7803.86,3840.90 7809.00,3837.02 7810.00,3832.00              7812.98,3830.22 7813.27,3830.42 7814.00,3827.00              7814.00,3827.00 7818.00,3825.00 7818.00,3825.00              7818.00,3825.00 7817.00,3823.00 7817.00,3823.00              7817.00,3823.00 7821.00,3821.00 7821.00,3821.00              7821.00,3821.00 7820.00,3819.00 7820.00,3819.00              7820.00,3819.00 7824.00,3817.00 7824.00,3817.00              7824.00,3817.00 7823.00,3815.00 7823.00,3815.00              7823.00,3815.00 7826.00,3814.00 7826.00,3814.00              7826.00,3814.00 7830.00,3805.00 7830.00,3805.00              7830.00,3805.00 7832.00,3802.00 7832.00,3802.00              7832.00,3802.00 7835.00,3801.00 7835.00,3801.00              7835.00,3801.00 7834.00,3799.00 7834.00,3799.00              7834.00,3799.00 7838.00,3796.00 7838.00,3796.00              7838.00,3796.00 7837.00,3794.00 7837.00,3794.00              7837.00,3794.00 7840.00,3793.00 7840.00,3793.00              7840.00,3793.00 7843.00,3788.00 7843.00,3788.00              7843.00,3788.00 7842.00,3786.00 7842.00,3786.00              7842.00,3786.00 7844.00,3786.00 7844.00,3786.00              7844.00,3786.00 7846.00,3783.00 7846.00,3783.00              7846.00,3783.00 7847.00,3781.00 7847.00,3781.00              7847.00,3781.00 7846.00,3779.00 7846.00,3779.00              7846.00,3779.00 7847.00,3777.00 7847.00,3777.00              7847.00,3777.00 7850.00,3776.00 7850.00,3776.00              7850.00,3776.00 7849.00,3774.00 7849.00,3774.00              7849.00,3774.00 7851.00,3774.00 7851.00,3774.00              7851.00,3774.00 7850.00,3772.00 7850.00,3772.00              7850.00,3772.00 7852.00,3772.00 7852.00,3772.00              7852.00,3772.00 7851.00,3770.00 7851.00,3770.00              7851.00,3770.00 7853.00,3770.00 7853.00,3770.00              7853.00,3770.00 7852.00,3768.00 7852.00,3768.00              7852.00,3768.00 7854.00,3768.00 7854.00,3768.00              7854.00,3768.00 7857.00,3758.00 7857.00,3758.00              7857.00,3758.00 7859.00,3758.00 7859.00,3758.00              7859.00,3758.00 7858.00,3756.00 7858.00,3756.00              7858.00,3756.00 7860.00,3756.00 7860.00,3756.00              7860.00,3756.00 7859.00,3754.00 7859.00,3754.00              7859.00,3754.00 7861.00,3754.00 7861.00,3754.00              7861.00,3754.00 7860.00,3752.00 7860.00,3752.00              7860.00,3752.00 7862.00,3752.00 7862.00,3752.00              7862.00,3752.00 7861.00,3750.00 7861.00,3750.00              7861.00,3750.00 7863.00,3750.00 7863.00,3750.00              7863.00,3750.00 7864.00,3743.00 7864.00,3743.00              7864.00,3743.00 7866.00,3743.00 7866.00,3743.00              7866.00,3743.00 7865.00,3741.00 7865.00,3741.00              7865.00,3741.00 7867.00,3741.00 7867.00,3741.00              7867.00,3741.00 7867.00,3736.00 7867.00,3736.00              7867.00,3736.00 7869.00,3736.00 7869.00,3736.00              7869.00,3736.00 7869.00,3731.00 7869.00,3731.00              7869.00,3731.00 7871.00,3731.00 7871.00,3731.00              7871.00,3731.00 7873.00,3726.00 7873.00,3726.00              7873.00,3726.00 7872.00,3723.00 7872.00,3723.00              7872.00,3723.00 7878.00,3712.00 7878.00,3712.00              7877.97,3707.28 7880.05,3703.48 7881.31,3699.00              7881.31,3699.00 7888.54,3671.08 7888.54,3671.08              7891.13,3658.63 7895.59,3635.06 7895.74,3623.00              7895.74,3623.00 7896.70,3614.00 7896.70,3614.00              7896.70,3614.00 7896.70,3605.00 7896.70,3605.00              7896.70,3605.00 7898.00,3586.00 7898.00,3586.00              7898.00,3586.00 7898.00,3397.00 7898.00,3397.00              7898.00,3397.00 7898.00,3246.00 7898.00,3246.00              7898.00,3246.00 7898.00,3200.00 7898.00,3200.00              7898.00,3193.23 7897.25,3182.16 7899.00,3176.00 Z            M 6104.00,1861.00            C 6114.75,1854.88 6133.04,1847.99 6145.00,1844.00              6172.51,1834.82 6201.09,1828.93 6230.00,1826.91              6230.00,1826.91 6242.00,1826.00 6242.00,1826.00              6242.00,1826.00 6277.00,1826.00 6277.00,1826.00              6277.00,1826.00 6287.00,1826.91 6287.00,1826.91              6315.15,1828.88 6343.21,1834.40 6370.00,1843.33              6472.98,1877.66 6557.68,1957.16 6594.31,2060.00              6605.95,2092.70 6612.72,2125.43 6615.09,2160.00              6615.09,2160.00 6616.00,2172.00 6616.00,2172.00              6616.00,2172.00 6616.00,2287.00 6616.00,2287.00              6616.00,2287.00 6616.00,2489.00 6616.00,2489.00              6616.00,2489.00 6616.00,2590.00 6616.00,2590.00              6616.00,2590.00 6614.17,2612.00 6614.17,2612.00              6607.84,2675.33 6585.97,2733.14 6549.00,2785.00              6539.84,2797.85 6529.72,2809.33 6519.17,2821.00              6515.90,2824.61 6508.19,2834.07 6504.00,2835.64              6500.70,2836.88 6495.25,2834.17 6492.00,2832.95              6492.00,2832.95 6461.00,2821.00 6461.00,2821.00              6461.00,2821.00 6345.00,2777.42 6345.00,2777.42              6254.50,2743.57 6162.86,2712.28 6071.00,2682.33              6071.00,2682.33 5957.00,2645.98 5957.00,2645.98              5957.00,2645.98 5922.00,2635.28 5922.00,2635.28              5922.00,2635.28 5904.00,2630.00 5904.00,2630.00              5904.00,2630.00 5902.28,2615.00 5902.28,2615.00              5902.28,2615.00 5900.00,2585.00 5900.00,2585.00              5900.00,2585.00 5900.00,2254.00 5900.00,2254.00              5910.78,2254.50 5923.66,2259.74 5946.00,2260.17              5946.00,2260.17 5953.00,2260.17 5953.00,2260.17              5953.00,2260.17 5963.00,2260.17 5963.00,2260.17              5992.43,2259.66 6022.29,2251.95 6049.00,2239.69              6073.26,2228.55 6095.16,2212.84 6114.00,2194.00              6175.54,2132.46 6198.30,2043.95 6170.65,1961.00              6161.95,1934.93 6147.11,1909.08 6129.57,1888.00              6129.57,1888.00 6104.00,1861.00 6104.00,1861.00 Z            M 8530.00,1875.00            C 8530.00,1875.00 8559.00,1859.78 8559.00,1859.78              8592.35,1844.03 8628.46,1833.49 8665.00,1828.72              8665.00,1828.72 8693.00,1826.00 8693.00,1826.00              8693.00,1826.00 8728.00,1826.00 8728.00,1826.00              8728.00,1826.00 8740.00,1826.91 8740.00,1826.91              8782.13,1829.86 8823.61,1840.68 8862.00,1858.31              8958.67,1902.69 9032.55,1990.71 9058.37,2094.00              9063.03,2112.62 9068.77,2142.08 9069.00,2161.00              9069.00,2161.00 9070.00,2182.00 9070.00,2182.00              9070.00,2182.00 9070.00,2577.00 9070.00,2577.00              9070.00,2577.00 9069.00,2592.00 9069.00,2592.00              9069.00,2592.00 9066.13,2624.00 9066.13,2624.00              9065.71,2627.04 9065.24,2634.17 9063.26,2636.30              9061.31,2638.40 9055.79,2639.61 9053.00,2640.42              9053.00,2640.42 9032.00,2646.86 9032.00,2646.86              9032.00,2646.86 8958.00,2670.19 8958.00,2670.19              8958.00,2670.19 8801.00,2722.66 8801.00,2722.66              8801.00,2722.66 8617.00,2788.42 8617.00,2788.42              8617.00,2788.42 8510.00,2828.81 8510.00,2828.81              8510.00,2828.81 8484.00,2839.00 8484.00,2839.00              8480.47,2840.41 8475.76,2842.95 8472.00,2841.39              8468.99,2840.14 8464.39,2835.38 8462.00,2833.00              8462.00,2833.00 8443.95,2814.00 8443.95,2814.00              8418.61,2785.47 8397.83,2753.04 8382.72,2718.00              8367.28,2682.20 8357.63,2643.90 8354.91,2605.00              8354.91,2605.00 8354.00,2593.00 8354.00,2593.00              8354.00,2593.00 8354.00,2502.00 8354.00,2502.00              8354.00,2502.00 8354.00,2260.00 8354.00,2260.00              8354.00,2260.00 8373.00,2260.00 8373.00,2260.00              8397.81,2259.72 8422.88,2254.15 8446.00,2245.19              8512.10,2219.58 8563.96,2163.22 8583.42,2095.00              8587.23,2081.64 8591.84,2058.71 8592.00,2045.00              8592.00,2045.00 8592.00,2021.00 8592.00,2021.00              8591.95,1986.82 8577.58,1946.29 8560.58,1917.00              8555.89,1908.94 8549.36,1899.27 8543.55,1892.00              8539.04,1886.35 8533.65,1881.25 8530.00,1875.00 Z            M 7207.00,2949.00            C 7207.00,2949.00 7149.00,2939.41 7149.00,2939.41              7149.00,2939.41 7100.00,2930.42 7100.00,2930.42              7100.00,2930.42 7020.00,2916.92 7020.00,2916.92              7020.00,2916.92 6981.00,2910.25 6981.00,2910.25              6978.28,2909.79 6967.21,2908.15 6965.57,2906.83              6963.58,2905.23 6964.00,2901.33 6964.00,2899.00              6964.00,2899.00 6964.00,2878.00 6964.00,2878.00              6964.14,2866.64 6972.70,2834.94 6976.28,2823.00              6989.44,2779.14 7007.87,2736.78 7032.32,2698.00              7052.63,2665.79 7075.70,2635.54 7102.04,2608.00              7102.04,2608.00 7124.00,2586.91 7124.00,2586.91              7203.11,2513.33 7299.40,2466.57 7405.00,2445.45              7435.46,2439.35 7472.01,2435.05 7503.00,2435.00              7503.00,2435.00 7525.00,2434.00 7525.00,2434.00              7525.00,2434.00 7535.00,2434.96 7535.00,2434.96              7535.00,2434.96 7549.00,2434.96 7549.00,2434.96              7549.00,2434.96 7559.00,2435.91 7559.00,2435.91              7597.37,2438.55 7635.21,2445.66 7672.00,2456.98              7806.75,2498.43 7924.35,2593.23 7992.30,2717.00              8012.57,2753.91 8029.12,2793.24 8039.88,2834.00              8042.77,2844.93 8048.87,2867.42 8049.00,2878.00              8049.00,2878.00 8049.00,2899.00 8049.00,2899.00              8049.00,2901.36 8049.42,2905.20 8047.43,2906.84              8045.53,2908.40 8034.99,2909.75 8032.00,2910.25              8032.00,2910.25 7993.00,2916.92 7993.00,2916.92              7993.00,2916.92 7903.00,2932.26 7903.00,2932.26              7903.00,2932.26 7892.00,2934.74 7892.00,2934.74              7892.00,2934.74 7860.00,2940.08 7860.00,2940.08              7860.00,2940.08 7806.00,2949.00 7806.00,2949.00              7809.11,2959.61 7809.34,2971.06 7810.09,2982.00              7810.09,2982.00 7811.00,2994.00 7811.00,2994.00              7811.00,2994.00 7811.00,3040.00 7811.00,3040.00              7811.00,3040.00 7811.00,3199.00 7811.00,3199.00              7811.00,3199.00 7811.00,3375.00 7811.00,3375.00              7811.00,3416.40 7813.16,3458.28 7804.34,3499.00              7788.09,3574.02 7746.10,3637.74 7684.00,3682.85              7658.35,3701.48 7630.97,3714.68 7601.00,3724.67              7580.49,3731.50 7547.49,3738.74 7526.00,3739.00              7526.00,3739.00 7504.00,3740.00 7504.00,3740.00              7504.00,3740.00 7487.00,3739.00 7487.00,3739.00              7487.00,3739.00 7477.00,3738.08 7477.00,3738.08              7446.57,3735.65 7417.25,3727.54 7389.00,3716.20              7364.26,3706.27 7340.08,3691.60 7319.00,3675.35              7251.45,3623.28 7206.71,3539.39 7202.96,3454.00              7202.96,3454.00 7202.00,3441.00 7202.00,3441.00              7202.00,3441.00 7202.00,3352.00 7202.00,3352.00              7202.00,3352.00 7202.00,3178.00 7202.00,3178.00              7202.00,3178.00 7202.00,3034.00 7202.00,3034.00              7202.00,3034.00 7202.00,2994.00 7202.00,2994.00              7202.00,2994.00 7202.91,2982.00 7202.91,2982.00              7203.60,2971.97 7204.20,2958.55 7207.00,2949.00 Z            M 7215.00,3847.00            C 7215.00,3847.00 7214.00,3847.00 7214.00,3847.00              7214.00,3847.00 7215.00,3848.00 7215.00,3848.00              7215.00,3848.00 7215.00,3847.00 7215.00,3847.00 Z            M 7788.00,3859.00            C 7788.00,3859.00 7787.00,3859.00 7787.00,3859.00              7787.00,3859.00 7788.00,3860.00 7788.00,3860.00              7788.00,3860.00 7788.00,3859.00 7788.00,3859.00 Z            M 7787.00,3860.00            C 7787.00,3860.00 7786.00,3860.00 7786.00,3860.00              7786.00,3860.00 7787.00,3861.00 7787.00,3861.00              7787.00,3861.00 7787.00,3860.00 7787.00,3860.00 Z            M 7779.00,3868.00            C 7779.00,3868.00 7778.00,3868.00 7778.00,3868.00              7778.00,3868.00 7779.00,3869.00 7779.00,3869.00              7779.00,3869.00 7779.00,3868.00 7779.00,3868.00 Z            M 7247.00,3879.00            C 7247.00,3879.00 7246.00,3879.00 7246.00,3879.00              7246.00,3879.00 7247.00,3880.00 7247.00,3880.00              7247.00,3880.00 7247.00,3879.00 7247.00,3879.00 Z            M 6536.00,4653.07            C 6526.46,4654.74 6519.41,4656.34 6511.00,4661.46              6491.62,4673.26 6483.25,4694.08 6487.46,4716.00              6489.21,4725.10 6499.41,4749.02 6503.74,4758.00              6503.74,4758.00 6509.26,4770.00 6509.26,4770.00              6520.00,4790.97 6532.92,4811.22 6547.13,4830.00              6608.25,4910.73 6701.18,4965.44 6800.00,4985.20              6800.00,4985.20 6853.00,4992.96 6853.00,4992.96              6853.00,4992.96 6862.00,4992.96 6862.00,4992.96              6862.00,4992.96 6872.00,4994.00 6872.00,4994.00              6872.00,4994.00 6905.00,4994.00 6905.00,4994.00              6905.00,4994.00 6917.00,4993.09 6917.00,4993.09              6938.21,4991.64 6959.11,4989.25 6980.00,4985.00              7070.98,4966.45 7157.19,4917.89 7217.57,4847.00              7241.91,4818.43 7260.70,4789.08 7276.31,4755.00              7280.48,4745.88 7289.87,4724.18 7291.54,4715.00              7297.74,4680.88 7271.93,4653.05 7238.00,4653.07              7238.00,4653.07 6771.00,4653.07 6771.00,4653.07              6771.00,4653.07 6616.00,4653.07 6616.00,4653.07              6616.00,4653.07 6536.00,4653.07 6536.00,4653.07 Z            M 7752.00,4653.07            C 7724.74,4657.45 7703.75,4673.88 7702.09,4703.00              7701.43,4714.67 7709.20,4734.09 7713.85,4745.00              7726.89,4775.62 7743.03,4803.45 7763.13,4830.00              7824.29,4910.79 7917.11,4965.42 8016.00,4985.20              8016.00,4985.20 8069.00,4992.96 8069.00,4992.96              8069.00,4992.96 8078.00,4992.96 8078.00,4992.96              8078.00,4992.96 8088.00,4994.00 8088.00,4994.00              8088.00,4994.00 8121.00,4994.00 8121.00,4994.00              8121.00,4994.00 8133.00,4993.09 8133.00,4993.09              8154.21,4991.64 8175.11,4989.25 8196.00,4985.00              8287.19,4966.41 8372.94,4917.92 8433.57,4847.00              8457.59,4818.91 8476.12,4789.39 8491.78,4756.00              8496.24,4746.48 8506.30,4722.73 8507.85,4713.00              8507.85,4713.00 8507.85,4701.00 8507.85,4701.00              8507.66,4672.55 8480.76,4653.04 8454.00,4653.07              8454.00,4653.07 7987.00,4653.07 7987.00,4653.07              7987.00,4653.07 7832.00,4653.07 7832.00,4653.07              7832.00,4653.07 7752.00,4653.07 7752.00,4653.07 Z            M 7147.00,5240.07            C 7138.06,5241.58 7132.53,5241.86 7124.00,5245.89              7119.93,5247.81 7113.39,5252.27 7110.09,5255.30              7107.30,5257.87 7103.46,5262.75 7101.47,5266.00              7085.66,5291.81 7099.65,5318.51 7110.70,5343.00              7110.70,5343.00 7123.14,5368.00 7123.14,5368.00              7123.14,5368.00 7136.05,5390.00 7136.05,5390.00              7136.05,5390.00 7154.13,5416.00 7154.13,5416.00              7214.60,5496.00 7304.43,5550.16 7402.00,5571.21              7423.26,5575.80 7444.34,5578.60 7466.00,5580.09              7466.00,5580.09 7476.00,5581.00 7476.00,5581.00              7515.62,5581.46 7542.67,5580.76 7582.00,5573.39              7675.10,5555.94 7763.02,5506.95 7824.87,5435.00              7850.03,5405.74 7869.46,5375.14 7885.30,5340.00              7888.96,5331.89 7898.56,5308.92 7899.85,5301.00              7899.85,5301.00 7899.85,5288.00 7899.85,5288.00              7899.65,5258.50 7871.13,5240.04 7844.00,5240.07              7844.00,5240.07 7381.00,5240.07 7381.00,5240.07              7381.00,5240.07 7226.00,5240.07 7226.00,5240.07              7226.00,5240.07 7147.00,5240.07 7147.00,5240.07 Z            M 5094.00,5932.42            C 5102.46,5931.39 5106.89,5932.99 5115.00,5933.00              5130.44,5933.02 5145.78,5935.03 5161.00,5937.59              5213.84,5946.45 5264.38,5967.25 5308.00,5998.43              5332.67,6016.05 5351.07,6034.48 5373.00,6054.91              5373.00,6054.91 5419.00,6097.91 5419.00,6097.91              5419.00,6097.91 5646.00,6309.91 5646.00,6309.91              5646.00,6309.91 5737.00,6394.91 5737.00,6394.91              5763.44,6419.54 5780.19,6434.22 5802.12,6464.00              5842.05,6518.24 5870.68,6594.20 5871.00,6662.00              5871.00,6662.00 5872.00,6676.00 5872.00,6676.00              5872.00,6676.00 5871.00,6699.00 5871.00,6699.00              5871.00,6699.00 5870.09,6709.00 5870.09,6709.00              5868.08,6736.52 5862.39,6763.82 5853.67,6790.00              5822.17,6884.50 5754.94,6961.94 5664.00,7003.69              5621.86,7023.04 5573.46,7035.46 5527.00,7036.00              5527.00,7036.00 5514.00,7037.00 5514.00,7037.00              5514.00,7037.00 5502.00,7036.04 5502.00,7036.04              5502.00,7036.04 5491.00,7036.04 5491.00,7036.04              5475.85,7035.82 5451.04,7031.74 5436.00,7028.42              5392.34,7018.80 5351.32,7001.72 5314.00,6977.00              5282.29,6955.98 5255.69,6928.89 5228.00,6903.09              5228.00,6903.09 5137.00,6818.09 5137.00,6818.09              5137.00,6818.09 4925.00,6620.09 4925.00,6620.09              4925.00,6620.09 4864.00,6563.09 4864.00,6563.09              4864.00,6563.09 4835.17,6535.00 4835.17,6535.00              4814.36,6512.00 4796.26,6486.45 4781.78,6459.00              4720.81,6343.42 4728.93,6198.09 4802.34,6090.00              4828.92,6050.88 4863.34,6016.53 4903.00,5990.69              4942.57,5964.92 4987.51,5946.81 5034.00,5938.42              5046.33,5936.20 5067.83,5933.02 5080.00,5933.00              5085.21,5932.99 5088.75,5933.17 5094.00,5932.42 Z            M 9885.00,5932.42            C 9885.00,5932.42 9911.00,5933.00 9911.00,5933.00              9911.00,5933.00 9923.00,5933.91 9923.00,5933.91              9950.49,5935.92 9977.84,5941.61 10004.00,5950.33              10113.67,5986.89 10195.79,6069.38 10232.33,6179.00              10241.53,6206.58 10247.06,6235.03 10249.09,6264.00              10249.09,6264.00 10250.00,6274.00 10250.00,6274.00              10250.28,6298.36 10249.99,6318.74 10246.72,6343.00              10240.45,6389.53 10223.76,6435.62 10199.99,6476.00              10169.27,6528.18 10134.24,6556.81 10091.00,6597.09              10091.00,6597.09 9924.00,6753.09 9924.00,6753.09              9924.00,6753.09 9771.00,6896.09 9771.00,6896.09              9725.19,6938.77 9693.84,6972.75 9636.00,7000.74              9592.44,7021.82 9541.49,7035.44 9493.00,7036.00              9493.00,7036.00 9480.00,7037.00 9480.00,7037.00              9480.00,7037.00 9468.00,7036.04 9468.00,7036.04              9468.00,7036.04 9457.00,7036.04 9457.00,7036.04              9457.00,7036.04 9447.00,7035.09 9447.00,7035.09              9427.01,7033.63 9408.43,7030.23 9389.00,7025.37              9284.90,6999.34 9197.05,6925.44 9152.31,6828.00              9134.58,6789.38 9123.87,6747.34 9120.91,6705.00              9120.91,6705.00 9120.00,6693.00 9120.00,6693.00              9120.00,6693.00 9120.00,6662.00 9120.00,6662.00              9120.02,6646.66 9123.74,6621.31 9126.80,6606.00              9138.71,6546.47 9164.59,6492.68 9203.43,6446.00              9220.37,6425.65 9242.32,6405.64 9262.00,6387.83              9262.00,6387.83 9286.00,6365.09 9286.00,6365.09              9286.00,6365.09 9324.00,6329.91 9324.00,6329.91              9324.00,6329.91 9567.00,6102.91 9567.00,6102.91              9567.00,6102.91 9627.00,6046.91 9627.00,6046.91              9627.00,6046.91 9650.00,6025.17 9650.00,6025.17              9674.55,6002.96 9704.17,5982.70 9734.00,5968.26              9766.43,5952.56 9802.36,5941.52 9838.00,5936.27              9838.00,5936.27 9870.00,5933.00 9870.00,5933.00              9875.57,5932.94 9879.34,5933.23 9885.00,5932.42 Z" />
</svg>