<svg xmlns="http://www.w3.org/2000/svg" viewBox="-0.5 7706.48 15001 3573.02">
  <path id="duolingo-text" fill="#303030" stroke="none" stroke-width="1"
    d="M 1428.00,8628.00            C 1428.00,8628.00 1428.00,8385.00 1428.00,8385.00              1428.00,8385.00 1428.96,8373.00 1428.96,8373.00              1428.96,8373.00 1428.96,8360.00 1428.96,8360.00              1428.96,8360.00 1430.00,8341.00 1430.00,8341.00              1430.00,8341.00 1430.91,8331.00 1430.91,8331.00              1430.91,8331.00 1437.72,8263.00 1437.72,8263.00              1455.39,8128.76 1502.96,7989.32 1585.65,7881.00              1631.57,7820.86 1685.03,7771.74 1753.00,7737.75              1784.59,7721.96 1830.48,7707.06 1866.00,7707.00              1886.51,7706.97 1901.31,7706.48 1921.00,7714.45              1962.51,7731.26 1977.20,7772.66 1980.09,7814.00              1980.09,7814.00 1981.00,7826.00 1981.00,7826.00              1981.00,7826.00 1981.00,8485.00 1981.00,8485.00              1981.00,8485.00 1981.00,9804.00 1981.00,9804.00              1981.00,9804.00 1981.00,10272.00 1981.00,10272.00              1981.00,10272.00 1980.09,10284.00 1980.09,10284.00              1977.48,10321.96 1967.09,10363.63 1932.00,10384.55              1911.31,10396.88 1885.72,10400.27 1862.00,10400.00              1862.00,10400.00 1852.00,10399.09 1852.00,10399.09              1777.15,10393.86 1707.17,10351.92 1653.00,10302.08              1640.46,10290.55 1627.99,10278.81 1616.72,10266.00              1616.72,10266.00 1583.00,10226.00 1583.00,10226.00              1578.33,10220.06 1569.80,10209.60 1567.00,10203.00              1567.00,10203.00 1544.00,10224.16 1544.00,10224.16              1495.51,10267.47 1446.01,10300.48 1389.00,10331.31              1312.31,10372.78 1221.79,10402.95 1136.00,10418.42              1088.02,10427.08 1037.71,10433.43 989.00,10434.00              989.00,10434.00 976.00,10435.00 976.00,10435.00              976.00,10435.00 928.00,10435.00 928.00,10435.00              928.00,10435.00 918.00,10434.04 918.00,10434.04              918.00,10434.04 903.00,10434.04 903.00,10434.04              903.00,10434.04 893.00,10433.09 893.00,10433.09              893.00,10433.09 865.00,10431.17 865.00,10431.17              827.97,10427.63 791.55,10423.11 755.00,10415.80              687.31,10402.26 615.77,10380.51 553.00,10351.69              408.83,10285.51 292.27,10193.41 195.88,10067.00              97.01,9937.33 30.56,9772.65 9.28,9611.00              9.28,9611.00 1.91,9535.00 1.91,9535.00              1.91,9535.00 1.00,9525.00 1.00,9525.00              1.00,9525.00 0.00,9504.00 0.00,9504.00              0.00,9504.00 0.00,9430.00 0.00,9430.00              0.00,9430.00 1.00,9409.00 1.00,9409.00              1.00,9409.00 1.91,9399.00 1.91,9399.00              1.91,9399.00 5.84,9354.00 5.84,9354.00              10.51,9310.33 18.24,9266.62 28.89,9224.00              58.16,9106.93 109.02,8995.33 179.00,8897.00              262.89,8779.12 378.06,8675.28 507.00,8608.74              507.00,8608.74 535.00,8594.26 535.00,8594.26              617.37,8554.39 704.77,8526.73 795.00,8511.59              825.68,8506.44 874.41,8500.35 905.00,8500.00              905.00,8500.00 920.00,8499.00 920.00,8499.00              920.00,8499.00 995.00,8499.00 995.00,8499.00              995.00,8499.00 1017.00,8500.00 1017.00,8500.00              1017.00,8500.00 1028.00,8500.96 1028.00,8500.96              1055.79,8502.17 1083.45,8505.76 1111.00,8509.73              1201.32,8522.75 1292.73,8552.28 1373.00,8595.69              1373.00,8595.69 1428.00,8628.00 1428.00,8628.00 Z            M 7206.00,7707.21            C 7206.00,7707.21 7233.00,7707.21 7233.00,7707.21              7257.81,7707.04 7287.13,7716.33 7304.91,7734.09              7326.94,7756.09 7334.89,7789.94 7337.09,7820.00              7337.09,7820.00 7338.00,7832.00 7338.00,7832.00              7338.00,7832.00 7338.00,8268.00 7338.00,8268.00              7338.00,8268.00 7338.00,9883.00 7338.00,9883.00              7338.00,9883.00 7338.00,10138.00 7338.00,10138.00              7338.00,10189.58 7341.43,10248.59 7317.73,10296.00              7290.84,10349.78 7237.12,10366.59 7181.00,10369.04              7181.00,10369.04 7168.00,10370.00 7168.00,10370.00              7168.00,10370.00 7077.00,10370.00 7077.00,10370.00              7077.00,10370.00 7019.00,10370.00 7019.00,10370.00              6948.62,10370.00 6855.41,10376.92 6812.42,10308.00              6803.55,10293.77 6798.00,10279.15 6793.73,10263.00              6790.38,10250.27 6786.06,10222.93 6786.00,10210.00              6786.00,10210.00 6785.00,10191.00 6785.00,10191.00              6785.00,10191.00 6785.00,9293.00 6785.00,9293.00              6785.00,9293.00 6785.00,8395.00 6785.00,8395.00              6785.00,8395.00 6786.00,8378.00 6786.00,8378.00              6786.05,8345.53 6789.38,8313.26 6792.84,8281.00              6807.82,8140.97 6857.75,7993.17 6942.63,7880.00              6991.85,7814.37 7059.86,7751.70 7138.00,7723.05              7154.82,7716.89 7172.28,7712.01 7190.00,7709.27              7190.00,7709.27 7206.00,7707.21 7206.00,7707.21 Z            M 8014.00,7707.21            C 8014.00,7707.21 8032.00,7707.21 8032.00,7707.21              8055.46,7707.00 8072.82,7707.96 8096.00,7712.60              8205.35,7734.47 8293.70,7812.09 8329.00,7918.00              8336.61,7940.82 8343.88,7974.02 8344.00,7998.00              8344.00,7998.00 8345.00,8012.00 8345.00,8012.00              8345.00,8012.00 8344.00,8036.00 8344.00,8036.00              8343.75,8057.16 8335.82,8093.76 8329.00,8114.00              8297.19,8208.27 8221.40,8282.55 8126.00,8311.28              8106.54,8317.14 8075.14,8323.76 8055.00,8324.04              8055.00,8324.04 8044.00,8324.04 8044.00,8324.04              8040.13,8324.35 8038.29,8325.15 8034.00,8324.91              8034.00,8324.91 8016.00,8324.00 8016.00,8324.00              8016.00,8324.00 8006.00,8323.09 8006.00,8323.09              7981.53,8321.30 7957.25,8315.76 7934.00,8308.00              7906.86,8298.95 7879.40,8284.70 7856.00,8268.28              7837.62,8255.38 7817.01,8237.03 7802.43,8220.00              7723.07,8127.34 7704.59,7998.47 7753.86,7887.00              7787.20,7811.58 7852.53,7752.26 7930.00,7724.69              7951.43,7717.07 7972.47,7712.25 7995.00,7709.28              7995.00,7709.28 8014.00,7707.21 8014.00,7707.21 Z            M 11245.00,9813.00            C 11238.45,9810.21 11229.76,9802.61 11224.00,9798.00              11224.00,9798.00 11184.00,9763.04 11184.00,9763.04              11184.00,9763.04 11163.04,9743.00 11163.04,9743.00              11121.87,9699.96 11086.05,9651.72 11058.22,9599.00              11020.86,9528.23 10999.06,9458.29 10988.72,9379.00              10986.12,9359.10 10984.23,9339.06 10984.00,9319.00              10984.00,9319.00 10983.00,9304.00 10983.00,9304.00              10983.00,9304.00 10983.00,9280.00 10983.00,9280.00              10983.00,9280.00 10983.96,9268.00 10983.96,9268.00              10983.96,9268.00 10983.96,9254.00 10983.96,9254.00              10983.96,9254.00 10984.96,9243.00 10984.96,9243.00              10986.25,9213.50 10990.33,9184.07 10995.58,9155.00              11012.10,9063.39 11046.45,8976.95 11097.34,8899.00              11144.60,8826.63 11202.79,8770.90 11272.00,8719.88              11393.65,8630.21 11534.26,8573.99 11684.00,8554.28              11722.48,8549.22 11761.20,8546.06 11800.00,8546.00              11800.00,8546.00 11817.00,8545.00 11817.00,8545.00              11817.00,8545.00 11834.00,8545.00 11834.00,8545.00              11834.00,8545.00 11850.00,8546.00 11850.00,8546.00              11850.00,8546.00 11872.00,8546.00 11872.00,8546.00              11872.00,8546.00 11889.00,8547.00 11889.00,8547.00              11889.00,8547.00 11905.00,8548.00 11905.00,8548.00              11905.00,8548.00 11914.00,8548.00 11914.00,8548.00              11914.00,8548.00 11956.00,8551.83 11956.00,8551.83              12031.93,8559.18 12106.95,8572.89 12182.00,8586.42              12227.57,8594.64 12277.93,8604.03 12324.00,8606.04              12324.00,8606.04 12335.00,8607.00 12335.00,8607.00              12372.39,8607.43 12400.10,8605.93 12437.00,8598.55              12507.30,8584.49 12593.97,8547.52 12660.00,8518.14              12660.00,8518.14 12750.00,8477.22 12750.00,8477.22              12770.20,8467.68 12797.38,8454.27 12820.00,8454.00              12820.00,8454.00 12833.00,8454.00 12833.00,8454.00              12865.70,8454.05 12887.64,8476.34 12901.24,8504.00              12914.22,8530.38 12919.06,8562.92 12921.09,8592.00              12921.09,8592.00 12922.04,8603.00 12922.04,8603.00              12922.04,8603.00 12922.04,8620.00 12922.04,8620.00              12922.04,8620.00 12922.96,8631.00 12922.96,8631.00              12922.96,8631.00 12922.00,8644.00 12922.00,8644.00              12922.00,8644.00 12922.00,8657.00 12922.00,8657.00              12922.00,8657.00 12921.09,8667.00 12921.09,8667.00              12919.56,8689.28 12916.79,8711.06 12912.40,8733.00              12890.54,8842.27 12831.23,8940.19 12740.00,9005.42              12721.92,9018.35 12691.08,9038.35 12671.00,9047.00              12671.00,9047.00 12687.66,9089.00 12687.66,9089.00              12702.12,9130.68 12709.98,9162.34 12716.27,9206.00              12716.27,9206.00 12721.00,9254.00 12721.00,9254.00              12721.00,9254.00 12722.00,9272.00 12722.00,9272.00              12722.00,9272.00 12722.00,9314.00 12722.00,9314.00              12722.00,9314.00 12721.00,9329.00 12721.00,9329.00              12721.00,9329.00 12720.09,9342.00 12720.09,9342.00              12718.25,9368.92 12714.70,9395.50 12709.40,9422.00              12691.60,9511.00 12657.53,9589.34 12605.98,9664.00              12583.68,9696.29 12548.60,9737.27 12520.00,9763.91              12520.00,9763.91 12483.00,9796.39 12483.00,9796.39              12477.14,9801.15 12465.17,9809.66 12461.00,9815.00              12468.46,9817.13 12476.09,9822.12 12483.00,9825.75              12501.30,9835.34 12518.82,9846.55 12536.00,9858.00              12606.65,9905.10 12667.55,9965.32 12714.67,10036.00              12773.27,10123.91 12808.51,10220.37 12822.28,10325.00              12822.28,10325.00 12827.09,10373.00 12827.09,10373.00              12827.09,10373.00 12828.00,10383.00 12828.00,10383.00              12828.00,10383.00 12829.00,10404.00 12829.00,10404.00              12829.00,10404.00 12829.00,10460.00 12829.00,10460.00              12829.00,10460.00 12828.00,10482.00 12828.00,10482.00              12828.00,10482.00 12827.04,10493.00 12827.04,10493.00              12825.78,10521.83 12821.85,10550.47 12817.42,10579.00              12804.14,10664.55 12774.89,10753.82 12733.69,10830.00              12678.05,10932.90 12600.97,11022.01 12506.00,11090.58              12372.69,11186.82 12220.79,11240.44 12059.00,11264.27              12025.71,11269.17 11992.52,11272.80 11959.00,11275.09              11959.00,11275.09 11928.00,11277.00 11928.00,11277.00              11928.00,11277.00 11912.00,11278.04 11912.00,11278.04              11912.00,11278.04 11896.00,11278.04 11896.00,11278.04              11896.00,11278.04 11884.00,11279.00 11884.00,11279.00              11884.00,11279.00 11817.00,11279.00 11817.00,11279.00              11817.00,11279.00 11802.00,11278.00 11802.00,11278.00              11802.00,11278.00 11788.00,11278.00 11788.00,11278.00              11788.00,11278.00 11768.00,11277.00 11768.00,11277.00              11768.00,11277.00 11757.00,11276.04 11757.00,11276.04              11725.60,11274.67 11694.20,11271.35 11663.00,11267.28              11559.05,11253.72 11460.80,11229.20 11364.00,11188.58              11256.79,11143.59 11155.56,11077.30 11076.09,10992.00              10981.29,10890.25 10919.44,10768.20 10892.20,10632.00              10884.83,10595.14 10879.59,10557.52 10877.96,10520.00              10877.96,10520.00 10876.96,10509.00 10876.96,10509.00              10876.96,10509.00 10876.96,10495.00 10876.96,10495.00              10876.96,10495.00 10876.00,10483.00 10876.00,10483.00              10876.00,10483.00 10876.00,10447.00 10876.00,10447.00              10876.00,10447.00 10877.00,10434.00 10877.00,10434.00              10877.38,10401.11 10881.54,10365.52 10886.92,10333.00              10900.86,10248.81 10927.68,10168.12 10968.31,10093.00              11012.47,10011.33 11073.32,9936.87 11146.00,9879.00              11166.73,9862.50 11188.48,9847.38 11211.00,9833.42              11211.00,9833.42 11245.00,9813.00 11245.00,9813.00 Z            M 5452.00,8486.14            C 5452.00,8486.14 5479.00,8486.14 5479.00,8486.14              5479.00,8486.14 5515.00,8486.14 5515.00,8486.14              5515.00,8486.14 5527.00,8486.96 5527.00,8486.96              5527.00,8486.96 5540.00,8486.96 5540.00,8486.96              5540.00,8486.96 5550.00,8488.00 5550.00,8488.00              5550.00,8488.00 5559.00,8488.00 5559.00,8488.00              5559.00,8488.00 5590.00,8490.83 5590.00,8490.83              5626.01,8494.43 5661.48,8499.50 5697.00,8506.60              5795.29,8526.26 5890.37,8561.22 5978.00,8609.86              6045.85,8647.52 6108.28,8694.25 6165.00,8747.09              6191.90,8772.15 6216.91,8799.76 6240.41,8828.00              6345.75,8954.58 6415.23,9108.17 6444.42,9270.00              6450.76,9305.11 6455.64,9340.43 6458.09,9376.00              6458.09,9376.00 6460.00,9400.00 6460.00,9400.00              6460.00,9400.00 6461.12,9422.00 6461.12,9422.00              6461.12,9422.00 6461.12,9450.00 6461.12,9450.00              6461.12,9450.00 6461.12,9462.00 6461.12,9462.00              6461.12,9462.00 6461.12,9498.00 6461.12,9498.00              6461.12,9498.00 6460.00,9519.00 6460.00,9519.00              6460.00,9519.00 6459.09,9529.00 6459.09,9529.00              6459.09,9529.00 6452.28,9598.00 6452.28,9598.00              6444.42,9657.68 6430.80,9716.73 6412.26,9774.00              6368.53,9909.06 6293.12,10035.46 6195.04,10138.00              6195.04,10138.00 6170.00,10163.96 6170.00,10163.96              6075.97,10253.90 5966.71,10324.28 5845.00,10370.58              5783.51,10393.97 5719.84,10410.53 5655.00,10421.41              5627.24,10426.07 5576.34,10432.68 5549.00,10433.00              5549.00,10433.00 5536.00,10434.04 5536.00,10434.04              5536.00,10434.04 5521.00,10434.04 5521.00,10434.04              5521.00,10434.04 5509.00,10435.00 5509.00,10435.00              5509.00,10435.00 5464.00,10435.00 5464.00,10435.00              5464.00,10435.00 5449.00,10434.00 5449.00,10434.00              5449.00,10434.00 5438.00,10434.00 5438.00,10434.00              5438.00,10434.00 5420.00,10433.00 5420.00,10433.00              5420.00,10433.00 5410.00,10432.09 5410.00,10432.09              5410.00,10432.09 5350.00,10426.15 5350.00,10426.15              5286.55,10418.57 5220.59,10402.86 5160.00,10382.67              5065.87,10351.29 4976.86,10304.99 4897.00,10246.12              4835.62,10200.87 4779.76,10147.97 4731.42,10089.00              4681.58,10028.19 4638.15,9960.51 4605.31,9889.00              4564.58,9800.30 4535.47,9704.90 4522.72,9608.00              4519.35,9582.40 4516.09,9556.78 4514.96,9531.00              4514.96,9531.00 4514.00,9520.00 4514.00,9520.00              4514.00,9520.00 4513.00,9499.00 4513.00,9499.00              4513.00,9499.00 4512.32,9459.00 4512.32,9459.00              4512.32,9459.00 4513.00,9423.00 4513.00,9423.00              4513.00,9423.00 4514.00,9404.00 4514.00,9404.00              4514.00,9404.00 4514.91,9392.00 4514.91,9392.00              4514.91,9392.00 4519.85,9338.00 4519.85,9338.00              4524.79,9296.63 4532.27,9255.43 4542.37,9215.00              4557.61,9154.07 4579.11,9095.04 4605.31,9038.00              4626.40,8992.08 4652.26,8947.74 4680.66,8906.00              4806.47,8721.09 4986.30,8591.08 5200.00,8526.72              5247.32,8512.47 5313.91,8498.42 5363.00,8493.16              5363.00,8493.16 5416.00,8488.00 5416.00,8488.00              5416.00,8488.00 5425.00,8488.00 5425.00,8488.00              5425.00,8488.00 5436.00,8487.00 5436.00,8487.00              5441.47,8486.98 5446.56,8487.20 5452.00,8486.14 Z            M 13991.00,8486.14            C 13991.00,8486.14 14018.00,8486.14 14018.00,8486.14              14018.00,8486.14 14054.00,8486.14 14054.00,8486.14              14054.00,8486.14 14066.00,8486.96 14066.00,8486.96              14066.00,8486.96 14079.00,8486.96 14079.00,8486.96              14079.00,8486.96 14090.00,8487.96 14090.00,8487.96              14090.00,8487.96 14139.00,8491.83 14139.00,8491.83              14183.15,8496.25 14226.82,8503.88 14270.00,8514.12              14430.04,8552.07 14577.54,8629.69 14698.00,8741.91              14698.00,8741.91 14738.91,8782.00 14738.91,8782.00              14831.37,8881.25 14897.86,8990.29 14943.31,9118.00              14966.89,9184.27 14985.68,9265.04 14993.16,9335.00              14993.16,9335.00 14998.09,9391.00 14998.09,9391.00              14998.09,9391.00 14999.00,9401.00 14999.00,9401.00              14999.00,9401.00 15000.00,9422.00 15000.00,9422.00              15000.00,9422.00 15000.00,9497.00 15000.00,9497.00              15000.00,9497.00 14999.00,9514.00 14999.00,9514.00              14999.00,9514.00 14996.17,9554.00 14996.17,9554.00              14991.75,9599.68 14984.93,9644.22 14974.65,9689.00              14935.95,9857.63 14852.69,10013.90 14733.04,10139.00              14733.04,10139.00 14711.00,10161.99 14711.00,10161.99              14711.00,10161.99 14702.00,10170.09 14702.00,10170.09              14702.00,10170.09 14652.00,10214.75 14652.00,10214.75              14580.31,10273.99 14499.74,10322.60 14414.00,10358.58              14342.97,10388.38 14269.90,10408.68 14194.00,10421.41              14166.65,10426.00 14114.88,10432.69 14088.00,10433.00              14088.00,10433.00 14078.00,10433.96 14078.00,10433.96              14078.00,10433.96 14063.00,10433.96 14063.00,10433.96              14063.00,10433.96 14048.00,10435.00 14048.00,10435.00              14048.00,10435.00 14003.00,10435.00 14003.00,10435.00              14003.00,10435.00 13988.00,10434.00 13988.00,10434.00              13988.00,10434.00 13977.00,10434.00 13977.00,10434.00              13977.00,10434.00 13959.00,10433.00 13959.00,10433.00              13959.00,10433.00 13949.00,10432.09 13949.00,10432.09              13949.00,10432.09 13889.00,10426.15 13889.00,10426.15              13825.55,10418.57 13759.59,10402.86 13699.00,10382.67              13607.09,10352.03 13519.28,10306.96 13441.00,10249.85              13377.67,10203.65 13320.12,10149.63 13270.42,10089.00              13225.50,10034.20 13186.50,9974.39 13154.81,9911.00              13112.91,9827.20 13084.19,9737.11 13067.58,9645.00              13061.61,9611.92 13057.21,9578.51 13054.91,9545.00              13054.91,9545.00 13053.00,9515.00 13053.00,9515.00              13053.00,9515.00 13052.00,9502.00 13052.00,9502.00              13052.00,9502.00 13052.00,9477.00 13052.00,9477.00              13052.00,9477.00 13051.00,9459.00 13051.00,9459.00              13051.00,9459.00 13052.00,9445.00 13052.00,9445.00              13052.00,9445.00 13052.00,9420.00 13052.00,9420.00              13052.00,9420.00 13053.00,9407.00 13053.00,9407.00              13053.00,9407.00 13054.91,9377.00 13054.91,9377.00              13058.06,9331.92 13065.67,9284.16 13075.42,9240.00              13090.87,9170.06 13114.45,9103.03 13144.31,9038.00              13165.14,8992.62 13192.66,8945.09 13220.98,8904.00              13252.93,8857.63 13283.01,8820.72 13321.96,8780.00              13321.96,8780.00 13339.00,8762.01 13339.00,8762.01              13339.00,8762.01 13349.00,8752.96 13349.00,8752.96              13460.16,8646.64 13591.87,8571.03 13739.00,8526.72              13786.32,8512.47 13852.91,8498.42 13902.00,8493.16              13902.00,8493.16 13955.00,8488.00 13955.00,8488.00              13955.00,8488.00 13964.00,8488.00 13964.00,8488.00              13964.00,8488.00 13975.00,8487.00 13975.00,8487.00              13980.47,8486.98 13985.56,8487.20 13991.00,8486.14 Z            M 9193.00,8776.00            C 9199.27,8767.13 9207.35,8759.65 9215.00,8752.00              9215.00,8752.00 9255.00,8714.87 9255.00,8714.87              9311.08,8666.58 9373.71,8625.59 9441.00,8594.69              9516.37,8560.09 9587.90,8538.57 9670.00,8526.73              9692.92,8523.43 9715.89,8520.97 9739.00,8519.96              9739.00,8519.96 9752.00,8519.00 9752.00,8519.00              9752.00,8519.00 9772.00,8519.00 9772.00,8519.00              9772.00,8519.00 9788.00,8518.01 9788.00,8518.01              9788.00,8518.01 9801.00,8519.00 9801.00,8519.00              9801.00,8519.00 9828.00,8519.00 9828.00,8519.00              9828.00,8519.00 9848.00,8520.00 9848.00,8520.00              9848.00,8520.00 9859.00,8520.96 9859.00,8520.96              9859.00,8520.96 9922.00,8526.85 9922.00,8526.85              10014.15,8537.86 10113.85,8566.44 10196.00,8609.78              10292.60,8660.74 10374.58,8731.36 10438.58,8820.00              10537.86,8957.51 10591.40,9132.31 10608.17,9300.00              10608.17,9300.00 10611.83,9335.00 10611.83,9335.00              10611.83,9335.00 10614.09,9371.00 10614.09,9371.00              10614.09,9371.00 10615.00,9386.00 10615.00,9386.00              10615.00,9386.00 10616.04,9401.00 10616.04,9401.00              10616.04,9401.00 10616.04,9414.00 10616.04,9414.00              10616.04,9414.00 10617.00,9425.00 10617.00,9425.00              10617.00,9425.00 10617.00,9734.00 10617.00,9734.00              10617.00,9734.00 10617.00,10095.00 10617.00,10095.00              10617.00,10095.00 10617.00,10176.00 10617.00,10176.00              10617.00,10176.00 10617.00,10204.00 10617.00,10204.00              10617.00,10204.00 10616.09,10216.00 10616.09,10216.00              10614.38,10240.85 10610.44,10265.91 10600.57,10289.00              10594.18,10303.95 10583.90,10319.83 10572.00,10330.91              10544.30,10356.72 10505.53,10365.35 10469.00,10368.96              10469.00,10368.96 10460.00,10368.96 10460.00,10368.96              10460.00,10368.96 10448.00,10370.00 10448.00,10370.00              10448.00,10370.00 10361.00,10370.00 10361.00,10370.00              10361.00,10370.00 10302.00,10370.00 10302.00,10370.00              10238.24,10370.00 10154.12,10376.34 10106.85,10324.96              10100.93,10318.53 10095.77,10311.59 10091.43,10304.00              10083.64,10290.39 10079.16,10278.13 10075.37,10263.00              10071.76,10248.56 10069.58,10233.81 10068.04,10219.00              10068.04,10219.00 10068.04,10209.00 10068.04,10209.00              10068.04,10209.00 10067.00,10197.00 10067.00,10197.00              10067.00,10197.00 10067.00,9701.00 10067.00,9701.00              10067.00,9701.00 10067.00,9476.00 10067.00,9476.00              10067.00,9476.00 10066.00,9461.00 10066.00,9461.00              10066.00,9461.00 10066.00,9453.00 10066.00,9453.00              10066.00,9453.00 10065.04,9442.00 10065.04,9442.00              10063.97,9417.59 10061.07,9393.13 10057.08,9369.00              10042.16,9278.91 10009.28,9191.74 9940.00,9129.17              9897.19,9090.50 9840.60,9066.09 9784.00,9056.59              9770.93,9054.39 9749.90,9051.15 9737.00,9051.00              9737.00,9051.00 9717.00,9050.00 9717.00,9050.00              9717.00,9050.00 9697.00,9050.00 9697.00,9050.00              9697.00,9050.00 9678.00,9051.00 9678.00,9051.00              9659.98,9051.22 9626.91,9056.87 9609.00,9061.12              9522.48,9081.66 9447.94,9129.25 9397.02,9203.00              9356.07,9262.32 9332.97,9328.97 9322.73,9400.00              9319.73,9420.80 9317.24,9441.99 9317.00,9463.00              9317.00,9463.00 9316.00,9478.00 9316.00,9478.00              9316.00,9478.00 9316.00,9612.00 9316.00,9612.00              9316.00,9612.00 9316.00,10005.00 9316.00,10005.00              9316.00,10005.00 9316.00,10202.00 9316.00,10202.00              9316.00,10202.00 9315.09,10212.00 9315.09,10212.00              9312.27,10253.18 9304.33,10297.33 9273.83,10327.83              9244.19,10357.48 9199.48,10367.27 9159.00,10369.04              9159.00,10369.04 9146.00,10370.00 9146.00,10370.00              9146.00,10370.00 9060.00,10370.00 9060.00,10370.00              9060.00,10370.00 8999.00,10370.00 8999.00,10370.00              8956.35,10370.00 8909.21,10372.52 8868.00,10360.86              8846.30,10354.72 8824.02,10344.29 8808.04,10327.99              8800.99,10320.80 8794.43,10311.74 8789.43,10303.00              8782.67,10291.20 8777.19,10276.20 8773.89,10263.00              8769.88,10246.93 8766.03,10219.46 8766.00,10203.00              8766.00,10203.00 8766.00,8934.00 8766.00,8934.00              8766.00,8934.00 8766.00,8676.00 8766.00,8676.00              8766.00,8676.00 8766.91,8664.00 8766.91,8664.00              8769.81,8624.29 8782.90,8583.86 8821.00,8564.81              8838.35,8556.13 8862.73,8552.78 8882.00,8553.00              8882.00,8553.00 8892.00,8553.91 8892.00,8553.91              8892.00,8553.91 8917.00,8556.43 8917.00,8556.43              9004.45,8571.11 9079.91,8631.00 9135.73,8697.00              9150.05,8713.93 9162.94,8731.80 9175.57,8750.00              9175.57,8750.00 9193.00,8776.00 9193.00,8776.00 Z            M 3788.00,10184.00            C 3718.43,10259.71 3637.42,10318.79 3544.00,10361.69              3459.80,10400.36 3370.99,10422.26 3279.00,10431.17              3279.00,10431.17 3232.00,10434.00 3232.00,10434.00              3232.00,10434.00 3217.00,10435.00 3217.00,10435.00              3217.00,10435.00 3176.00,10435.00 3176.00,10435.00              3176.00,10435.00 3161.00,10434.00 3161.00,10434.00              3161.00,10434.00 3149.00,10434.00 3149.00,10434.00              3149.00,10434.00 3131.00,10433.00 3131.00,10433.00              3131.00,10433.00 3109.00,10431.17 3109.00,10431.17              3078.72,10428.27 3048.99,10424.83 3019.00,10419.42              2957.90,10408.40 2897.82,10390.98 2841.00,10365.86              2841.00,10365.86 2808.00,10350.74 2808.00,10350.74              2739.10,10315.43 2682.68,10274.81 2627.09,10220.83              2627.09,10220.83 2618.99,10212.00 2618.99,10212.00              2591.06,10183.38 2566.21,10152.75 2543.28,10120.00              2458.65,9999.10 2408.14,9847.32 2386.73,9702.00              2380.99,9663.05 2376.60,9624.23 2373.91,9585.00              2373.91,9585.00 2372.00,9555.00 2372.00,9555.00              2372.00,9555.00 2370.96,9541.00 2370.96,9541.00              2370.96,9541.00 2370.96,9526.00 2370.96,9526.00              2370.96,9526.00 2370.00,9514.00 2370.00,9514.00              2370.00,9514.00 2370.00,9180.00 2370.00,9180.00              2370.00,9180.00 2370.00,8749.00 2370.00,8749.00              2370.00,8749.00 2370.91,8737.00 2370.91,8737.00              2373.69,8697.24 2384.21,8651.01 2415.00,8623.17              2441.52,8599.19 2474.33,8589.99 2509.00,8585.85              2509.00,8585.85 2529.00,8584.00 2529.00,8584.00              2529.00,8584.00 2551.00,8583.00 2551.00,8583.00              2551.00,8583.00 2638.00,8583.00 2638.00,8583.00              2638.00,8583.00 2694.00,8583.00 2694.00,8583.00              2694.00,8583.00 2727.00,8583.00 2727.00,8583.00              2789.62,8583.00 2865.53,8586.61 2902.58,8646.00              2911.35,8660.07 2916.92,8675.03 2921.12,8691.00              2924.89,8705.37 2928.98,8735.24 2929.00,8750.00              2929.00,8750.00 2929.00,9242.00 2929.00,9242.00              2929.00,9242.00 2929.00,9465.00 2929.00,9465.00              2929.00,9465.00 2930.00,9480.00 2930.00,9480.00              2930.00,9480.00 2930.00,9495.00 2930.00,9495.00              2930.00,9495.00 2931.00,9508.00 2931.00,9508.00              2931.00,9508.00 2931.00,9512.00 2931.00,9512.00              2931.00,9512.00 2931.91,9522.00 2931.91,9522.00              2933.46,9544.48 2936.04,9566.74 2939.75,9589.00              2954.18,9675.55 2986.45,9762.64 3053.00,9822.83              3104.06,9869.01 3167.17,9892.91 3235.00,9900.16              3235.00,9900.16 3259.00,9902.09 3259.00,9902.09              3259.00,9902.09 3271.00,9903.00 3271.00,9903.00              3271.00,9903.00 3307.00,9903.00 3307.00,9903.00              3307.00,9903.00 3317.00,9902.09 3317.00,9902.09              3317.00,9902.09 3354.00,9898.27 3354.00,9898.27              3449.78,9884.46 3531.19,9834.72 3585.33,9754.00              3638.47,9674.77 3659.90,9574.25 3661.00,9480.00              3661.00,9480.00 3662.00,9465.00 3662.00,9465.00              3662.00,9465.00 3662.00,9352.00 3662.00,9352.00              3662.00,9352.00 3662.00,8949.00 3662.00,8949.00              3662.00,8949.00 3662.00,8747.00 3662.00,8747.00              3662.00,8747.00 3663.84,8726.00 3663.84,8726.00              3667.74,8689.48 3678.24,8650.07 3706.00,8624.09              3731.79,8599.96 3766.73,8589.94 3801.00,8585.85              3801.00,8585.85 3821.00,8584.00 3821.00,8584.00              3821.00,8584.00 3843.00,8583.00 3843.00,8583.00              3843.00,8583.00 3926.00,8583.00 3926.00,8583.00              3926.00,8583.00 3986.00,8583.00 3986.00,8583.00              3986.00,8583.00 4040.00,8583.00 4040.00,8583.00              4040.00,8583.00 4062.00,8584.00 4062.00,8584.00              4062.00,8584.00 4082.00,8585.85 4082.00,8585.85              4117.03,8590.03 4153.31,8600.38 4178.96,8626.04              4186.53,8633.61 4193.26,8643.71 4198.57,8653.00              4204.76,8663.81 4210.08,8678.88 4213.11,8691.00              4217.12,8707.07 4220.97,8734.54 4221.00,8751.00              4221.00,8751.00 4221.00,10020.00 4221.00,10020.00              4221.00,10020.00 4221.00,10102.00 4221.00,10102.00              4221.00,10102.00 4221.00,10162.00 4221.00,10162.00              4221.00,10162.00 4221.00,10208.00 4221.00,10208.00              4221.00,10208.00 4221.00,10275.00 4221.00,10275.00              4220.99,10283.93 4219.18,10297.16 4217.40,10306.00              4211.20,10336.80 4198.19,10364.60 4171.00,10382.31              4163.44,10387.23 4154.66,10391.67 4146.00,10394.28              4135.80,10397.36 4121.63,10399.95 4111.00,10400.00              4111.00,10400.00 4096.00,10400.00 4096.00,10400.00              4096.00,10400.00 4086.00,10399.09 4086.00,10399.09              4060.95,10397.26 4036.53,10391.38 4013.00,10382.68              3945.50,10357.73 3887.47,10311.11 3840.87,10257.00              3840.87,10257.00 3806.71,10213.00 3806.71,10213.00              3801.13,10205.16 3792.09,10192.39 3788.00,10184.00 Z            M 7931.00,8583.11            C 7931.00,8583.11 7975.00,8583.11 7975.00,8583.11              7975.00,8583.11 8058.00,8583.11 8058.00,8583.11              8058.00,8583.11 8098.00,8583.11 8098.00,8583.11              8157.18,8583.00 8229.19,8582.01 8272.91,8629.00              8278.07,8634.55 8285.03,8644.33 8288.69,8651.00              8295.53,8663.45 8300.83,8677.18 8304.12,8691.00              8307.98,8707.29 8309.94,8723.35 8311.09,8740.00              8311.09,8740.00 8312.00,8752.00 8312.00,8752.00              8312.00,8752.00 8312.00,9907.00 8312.00,9907.00              8312.00,9907.00 8312.00,10153.00 8312.00,10153.00              8312.00,10204.65 8314.31,10261.31 8285.94,10307.00              8257.50,10352.80 8204.62,10366.83 8154.00,10369.04              8154.00,10369.04 8141.00,10370.00 8141.00,10370.00              8141.00,10370.00 7928.00,10370.00 7928.00,10370.00              7928.00,10370.00 7918.00,10368.96 7918.00,10368.96              7918.00,10368.96 7909.00,10368.96 7909.00,10368.96              7893.19,10367.32 7877.35,10365.05 7862.00,10360.85              7849.92,10357.54 7835.75,10351.94 7825.00,10345.55              7785.30,10321.93 7768.98,10282.91 7762.87,10239.00              7762.87,10239.00 7760.00,10212.00 7760.00,10212.00              7760.00,10212.00 7759.00,10191.00 7759.00,10191.00              7759.00,10191.00 7759.00,10132.00 7759.00,10132.00              7759.00,10132.00 7759.00,10073.00 7759.00,10073.00              7759.00,10073.00 7759.00,9991.00 7759.00,9991.00              7759.00,9991.00 7759.00,8943.00 7759.00,8943.00              7759.00,8943.00 7759.00,8762.00 7759.00,8762.00              7759.00,8762.00 7760.00,8747.00 7760.00,8747.00              7760.56,8698.96 7774.73,8642.75 7816.00,8613.72              7841.05,8596.10 7871.82,8588.09 7902.00,8585.17              7902.00,8585.17 7917.00,8584.00 7917.00,8584.00              7922.42,8583.94 7925.46,8584.21 7931.00,8583.11 Z            M 979.00,9006.19            C 972.63,9007.20 969.28,9006.99 963.00,9007.00              963.00,9007.00 935.00,9009.17 935.00,9009.17              910.01,9011.67 885.29,9016.50 861.00,9022.88              761.66,9048.99 675.58,9112.40 621.81,9200.00              589.02,9253.43 567.67,9313.97 558.73,9376.00              558.73,9376.00 553.91,9421.00 553.91,9421.00              553.91,9421.00 553.00,9431.00 553.00,9431.00              553.00,9431.00 553.00,9446.00 553.00,9446.00              553.00,9446.00 552.01,9462.00 552.01,9462.00              552.01,9462.00 552.98,9472.00 552.98,9472.00              552.98,9472.00 552.98,9490.00 552.98,9490.00              552.98,9490.00 553.91,9500.00 553.91,9500.00              555.51,9523.26 558.42,9546.10 563.00,9569.00              586.28,9685.43 649.50,9788.40 752.00,9851.19              781.45,9869.23 815.83,9884.73 849.00,9894.42              883.61,9904.54 918.06,9910.63 954.00,9913.09              954.00,9913.09 964.00,9914.16 964.00,9914.16              964.00,9914.16 992.00,9914.16 992.00,9914.16              992.00,9914.16 1015.00,9914.16 1015.00,9914.16              1015.00,9914.16 1027.00,9913.09 1027.00,9913.09              1051.97,9911.37 1076.52,9907.98 1101.00,9902.58              1202.80,9880.09 1293.21,9820.22 1351.00,9733.00              1386.19,9679.89 1408.14,9621.54 1419.42,9559.00              1423.05,9538.92 1426.77,9513.25 1427.00,9493.00              1427.00,9493.00 1428.00,9478.00 1428.00,9478.00              1428.00,9478.00 1428.00,9443.00 1428.00,9443.00              1428.00,9443.00 1427.00,9424.00 1427.00,9424.00              1427.00,9424.00 1426.09,9414.00 1426.09,9414.00              1424.13,9386.05 1419.67,9358.20 1412.87,9331.00              1385.45,9221.32 1324.24,9127.14 1226.00,9068.20              1196.58,9050.55 1164.97,9036.21 1132.00,9026.58              1093.58,9015.34 1051.09,9007.19 1011.00,9007.00              1011.00,9007.00 1000.00,9006.19 1000.00,9006.19              1000.00,9006.19 979.00,9006.19 979.00,9006.19 Z            M 5508.00,9006.19            C 5501.79,9007.18 5499.09,9006.97 5493.00,9007.00              5493.00,9007.00 5476.00,9008.17 5476.00,9008.17              5447.22,9010.92 5418.75,9016.31 5391.00,9024.42              5287.98,9054.54 5206.17,9123.95 5155.31,9218.00              5126.74,9270.82 5108.22,9333.33 5101.84,9393.00              5101.84,9393.00 5099.00,9426.00 5099.00,9426.00              5099.00,9426.00 5098.00,9442.00 5098.00,9442.00              5098.00,9442.00 5098.00,9481.00 5098.00,9481.00              5098.00,9481.00 5099.00,9498.00 5099.00,9498.00              5099.00,9498.00 5099.91,9508.00 5099.91,9508.00              5101.51,9529.88 5104.70,9551.48 5109.00,9573.00              5125.78,9656.94 5164.88,9736.61 5225.04,9797.99              5225.04,9797.99 5234.00,9806.09 5234.00,9806.09              5249.67,9820.68 5264.34,9832.81 5282.00,9844.98              5312.36,9865.90 5346.08,9881.70 5381.00,9893.33              5414.59,9904.52 5449.77,9910.67 5485.00,9913.09              5485.00,9913.09 5495.00,9914.16 5495.00,9914.16              5495.00,9914.16 5521.00,9914.16 5521.00,9914.16              5521.00,9914.16 5543.00,9914.16 5543.00,9914.16              5543.00,9914.16 5555.00,9913.09 5555.00,9913.09              5579.60,9911.40 5603.97,9907.82 5628.00,9902.12              5724.44,9879.24 5808.13,9821.81 5863.00,9739.00              5902.22,9679.81 5925.18,9613.01 5935.27,9543.00              5935.27,9543.00 5940.00,9498.00 5940.00,9498.00              5940.00,9498.00 5941.00,9479.00 5941.00,9479.00              5941.00,9479.00 5941.00,9442.00 5941.00,9442.00              5941.00,9442.00 5940.00,9423.00 5940.00,9423.00              5940.00,9423.00 5939.09,9413.00 5939.09,9413.00              5937.28,9387.11 5933.38,9361.33 5927.65,9336.00              5901.69,9221.33 5840.13,9124.28 5738.00,9063.00              5713.55,9048.33 5681.42,9033.75 5654.00,9025.86              5616.58,9015.09 5578.03,9007.45 5539.00,9007.00              5539.00,9007.00 5529.00,9006.19 5529.00,9006.19              5529.00,9006.19 5508.00,9006.19 5508.00,9006.19 Z            M 11840.00,9006.19            C 11833.79,9007.18 11831.09,9006.97 11825.00,9007.00              11825.00,9007.00 11808.00,9008.17 11808.00,9008.17              11790.84,9009.81 11773.83,9012.71 11757.00,9016.42              11689.08,9031.42 11624.90,9070.76 11584.72,9128.00              11545.79,9183.45 11527.78,9250.75 11527.00,9318.00              11527.00,9318.00 11526.03,9330.00 11526.03,9330.00              11526.03,9330.00 11527.00,9342.00 11527.00,9342.00              11527.70,9402.21 11548.03,9463.02 11581.35,9513.00              11592.95,9530.39 11606.24,9546.24 11621.00,9561.00              11657.26,9597.26 11691.35,9618.12 11739.00,9636.19              11764.44,9645.84 11794.95,9651.25 11822.00,9653.96              11822.00,9653.96 11832.00,9653.96 11832.00,9653.96              11832.00,9653.96 11842.00,9655.00 11842.00,9655.00              11956.07,9656.33 12063.61,9601.88 12124.58,9504.00              12141.20,9477.30 12153.95,9449.26 12162.57,9419.00              12168.35,9398.74 12171.84,9377.94 12173.96,9357.00              12173.96,9357.00 12173.96,9348.00 12173.96,9348.00              12173.96,9348.00 12175.00,9336.00 12175.00,9336.00              12175.00,9336.00 12175.00,9319.00 12175.00,9319.00              12175.00,9319.00 12174.00,9299.00 12174.00,9299.00              12173.84,9286.06 12170.62,9264.12 12168.41,9251.00              12156.55,9180.34 12126.83,9117.71 12070.00,9072.20              12055.59,9060.66 12035.80,9048.02 12019.00,9040.31              11971.55,9018.52 11919.11,9007.61 11867.00,9007.00              11867.00,9007.00 11857.00,9006.19 11857.00,9006.19              11857.00,9006.19 11840.00,9006.19 11840.00,9006.19 Z            M 14015.00,9006.28            C 14008.79,9007.18 14006.09,9006.97 14000.00,9007.00              14000.00,9007.00 13983.00,9008.17 13983.00,9008.17              13957.83,9010.58 13932.40,9014.64 13908.00,9021.42              13800.13,9051.42 13715.75,9118.20 13662.31,9217.00              13625.30,9285.42 13605.90,9365.41 13605.00,9443.00              13605.00,9443.00 13604.00,9458.00 13604.00,9458.00              13604.00,9458.00 13605.00,9478.00 13605.00,9478.00              13605.00,9478.00 13605.00,9491.00 13605.00,9491.00              13605.00,9491.00 13605.91,9501.00 13605.91,9501.00              13607.35,9521.87 13609.86,9542.39 13613.58,9563.00              13633.86,9675.48 13691.79,9778.36 13787.00,9843.98              13817.83,9865.22 13851.55,9881.18 13887.00,9893.00              13920.66,9904.22 13955.66,9910.66 13991.00,9913.09              13991.00,9913.09 14001.00,9914.00 14001.00,9914.00              14044.47,9914.50 14075.79,9914.20 14119.00,9905.55              14230.72,9883.20 14325.16,9816.87 14382.58,9718.00              14414.38,9663.24 14434.03,9601.68 14442.28,9539.00              14442.28,9539.00 14446.09,9500.00 14446.09,9500.00              14446.09,9500.00 14447.00,9488.00 14447.00,9488.00              14447.00,9488.00 14447.00,9473.00 14447.00,9473.00              14447.00,9473.00 14447.91,9459.00 14447.91,9459.00              14447.91,9459.00 14447.02,9451.00 14447.02,9451.00              14447.02,9451.00 14447.02,9431.00 14447.02,9431.00              14447.02,9431.00 14446.09,9421.00 14446.09,9421.00              14444.43,9396.69 14441.59,9372.95 14436.80,9349.00              14415.66,9243.26 14361.95,9145.00 14273.00,9081.43              14240.05,9057.88 14205.35,9040.78 14167.00,9028.00              14133.77,9016.92 14098.90,9010.35 14064.00,9007.91              14064.00,9007.91 14052.00,9007.00 14052.00,9007.00              14052.00,9007.00 14015.00,9006.28 14015.00,9006.28 Z            M 11832.00,10110.14            C 11825.63,10111.20 11822.28,10110.99 11816.00,10111.00              11816.00,10111.00 11797.00,10112.09 11797.00,10112.09              11778.05,10113.38 11758.71,10116.05 11740.00,10119.42              11643.55,10136.82 11551.36,10180.27 11492.15,10261.00              11468.37,10293.43 11453.34,10326.53 11442.29,10365.00              11431.78,10401.61 11428.56,10440.08 11429.00,10478.00              11429.00,10478.00 11429.91,10488.00 11429.91,10488.00              11431.05,10504.60 11432.98,10520.70 11436.58,10537.00              11442.21,10562.52 11450.80,10587.49 11462.26,10611.00              11476.22,10639.65 11495.29,10666.67 11516.91,10690.00              11573.69,10751.25 11644.55,10788.76 11725.00,10808.87              11753.36,10815.96 11781.90,10820.09 11811.00,10822.09              11811.00,10822.09 11821.00,10823.00 11821.00,10823.00              11821.00,10823.00 11832.00,10823.00 11832.00,10823.00              11832.00,10823.00 11852.00,10824.00 11852.00,10824.00              11852.00,10824.00 11867.00,10823.00 11867.00,10823.00              11867.00,10823.00 11917.00,10819.72 11917.00,10819.72              12017.98,10807.13 12117.48,10766.68 12186.83,10690.00              12221.80,10651.33 12247.23,10605.34 12260.85,10555.00              12266.28,10534.91 12271.97,10501.63 12272.00,10481.00              12272.00,10481.00 12272.00,10448.00 12272.00,10448.00              12272.00,10448.00 12271.09,10438.00 12271.09,10438.00              12271.09,10438.00 12269.15,10417.00 12269.15,10417.00              12260.28,10342.73 12228.41,10273.08 12174.00,10221.04              12116.48,10166.02 12041.36,10134.87 11964.00,10120.39              11935.89,10115.13 11903.53,10111.13 11875.00,10111.00              11875.00,10111.00 11861.00,10110.14 11861.00,10110.14              11861.00,10110.14 11832.00,10110.14 11832.00,10110.14 Z" />
</svg>