<svg xmlns="http://www.w3.org/2000/svg" viewBox="-0.5 20.5 15001 11259">
  <path id="duolingo-wordmark" fill="#303030" stroke="none" stroke-width="1" d="M 4727.00,2139.00            C 4727.00,2139.00 4727.00,1381.00 4727.00,1381.00              4727.00,1381.00 4727.00,1075.00 4727.00,1075.00              4727.00,1075.00 4727.00,922.00 4727.00,922.00              4727.00,922.00 4728.00,907.00 4728.00,907.00              4728.00,907.00 4728.00,902.00 4728.00,902.00              4728.00,902.00 4728.91,892.00 4728.91,892.00              4728.91,892.00 4733.84,839.00 4733.84,839.00              4739.94,781.97 4755.85,714.44 4774.00,660.00              4840.28,461.15 4972.21,288.13 5148.00,173.34              5224.95,123.10 5306.03,85.67 5394.00,59.28              5445.28,43.90 5500.77,32.53 5554.00,26.84              5554.00,26.84 5600.00,22.91 5600.00,22.91              5600.00,22.91 5610.00,22.00 5610.00,22.00              5610.00,22.00 5632.00,21.00 5632.00,21.00              5632.00,21.00 5687.00,21.00 5687.00,21.00              5687.00,21.00 5699.00,21.96 5699.00,21.96              5699.00,21.96 5710.00,21.96 5710.00,21.96              5710.00,21.96 5720.00,23.00 5720.00,23.00              5720.00,23.00 5729.00,23.00 5729.00,23.00              5729.00,23.00 5766.00,26.84 5766.00,26.84              5801.54,30.64 5837.21,36.63 5872.00,44.88              5965.01,66.94 6014.80,90.40 6101.00,126.58              6101.00,126.58 6319.00,215.60 6319.00,215.60              6444.43,265.77 6570.74,313.41 6698.00,358.69              6798.07,394.30 6899.04,427.65 7001.00,457.42              7088.51,482.98 7176.57,506.32 7266.00,524.20              7311.68,533.33 7357.68,541.21 7404.00,546.16              7404.00,546.16 7462.00,551.04 7462.00,551.04              7462.00,551.04 7473.00,552.00 7473.00,552.00              7473.00,552.00 7489.00,552.00 7489.00,552.00              7489.00,552.00 7505.00,553.00 7505.00,553.00              7505.00,553.00 7510.00,553.00 7510.00,553.00              7510.00,553.00 7523.00,552.00 7523.00,552.00              7523.00,552.00 7540.00,552.00 7540.00,552.00              7540.00,552.00 7566.00,550.09 7566.00,550.09              7600.24,547.74 7634.02,543.28 7668.00,538.27              7758.49,524.94 7862.58,499.01 7951.00,474.42              8214.52,401.14 8470.29,302.29 8724.00,200.80              8724.00,200.80 8895.00,130.15 8895.00,130.15              8955.47,104.39 9011.44,79.55 9075.00,61.43              9131.04,45.45 9188.08,35.37 9246.00,29.83              9246.00,29.83 9287.00,27.00 9287.00,27.00              9287.00,27.00 9304.00,26.00 9304.00,26.00              9304.00,26.00 9357.00,26.00 9357.00,26.00              9357.00,26.00 9369.00,26.96 9369.00,26.96              9369.00,26.96 9380.00,26.96 9380.00,26.96              9380.00,26.96 9391.00,27.96 9391.00,27.96              9420.14,29.23 9449.16,33.10 9478.00,37.58              9548.49,48.52 9620.07,68.79 9686.00,95.99              9766.02,129.00 9842.29,172.52 9910.00,226.60              9933.63,245.48 9956.15,265.06 9978.00,285.96              9978.00,285.96 9994.99,302.00 9994.99,302.00              9994.99,302.00 10004.04,312.00 10004.04,312.00              10121.50,434.81 10200.70,580.75 10239.88,746.00              10249.50,786.54 10256.03,827.57 10260.17,869.00              10260.17,869.00 10262.09,893.00 10262.09,893.00              10262.09,893.00 10263.00,904.00 10263.00,904.00              10263.00,904.00 10264.00,922.00 10264.00,922.00              10264.00,922.00 10264.00,936.00 10264.00,936.00              10264.00,936.00 10265.00,952.00 10265.00,952.00              10265.00,952.00 10265.00,1343.00 10265.00,1343.00              10265.00,1343.00 10265.00,2133.00 10265.00,2133.00              10265.00,2133.00 10310.00,2121.87 10310.00,2121.87              10310.00,2121.87 10385.00,2103.37 10385.00,2103.37              10385.00,2103.37 10609.00,2047.37 10609.00,2047.37              10609.00,2047.37 11262.00,1884.63 11262.00,1884.63              11262.00,1884.63 11527.00,1818.63 11527.00,1818.63              11564.07,1809.36 11640.13,1788.74 11674.00,1784.28              11674.00,1784.28 11704.00,1782.00 11704.00,1782.00              11704.00,1782.00 11719.00,1781.04 11719.00,1781.04              11719.00,1781.04 11727.00,1781.96 11727.00,1781.96              11727.00,1781.96 11738.00,1781.96 11738.00,1781.96              11760.16,1782.26 11794.74,1789.84 11816.00,1796.66              11905.40,1825.31 11978.85,1890.00 12017.14,1976.00              12032.52,2010.55 12041.46,2047.34 12044.09,2085.00              12044.09,2085.00 12045.00,2097.00 12045.00,2097.00              12045.00,2097.00 12045.00,2123.00 12045.00,2123.00              12045.00,2123.00 12044.09,2133.00 12044.09,2133.00              12044.09,2133.00 12041.17,2172.00 12041.17,2172.00              12041.17,2172.00 12036.83,2220.00 12036.83,2220.00              12036.83,2220.00 12028.28,2290.00 12028.28,2290.00              12011.77,2415.44 11984.08,2543.83 11947.72,2665.00              11873.52,2912.31 11761.58,3148.28 11614.98,3361.00              11545.77,3461.41 11473.59,3550.63 11391.83,3641.00              11391.83,3641.00 11342.04,3693.00 11342.04,3693.00              11342.04,3693.00 11332.99,3703.00 11332.99,3703.00              11332.99,3703.00 11306.00,3729.96 11306.00,3729.96              11306.00,3729.96 11296.00,3739.01 11296.00,3739.01              11296.00,3739.01 11278.00,3756.96 11278.00,3756.96              11149.97,3879.41 11008.53,3987.15 10858.00,4080.42              10714.43,4169.38 10558.58,4244.05 10400.00,4302.05              10358.71,4317.16 10316.98,4330.98 10275.00,4344.02              10275.00,4344.02 10237.00,4355.42 10237.00,4355.42              10230.58,4357.25 10221.35,4360.43 10215.00,4361.00              10215.00,4361.00 10207.42,4401.00 10207.42,4401.00              10207.42,4401.00 10194.88,4459.00 10194.88,4459.00              10180.87,4518.12 10166.19,4576.78 10148.72,4635.00              10077.50,4872.36 9977.45,5094.60 9846.42,5305.00              9680.60,5571.28 9473.04,5804.26 9229.00,6001.20              8884.17,6279.48 8466.23,6474.81 8031.00,6558.80              7977.25,6569.18 7923.29,6578.57 7869.00,6585.72              7812.14,6593.20 7755.14,6599.18 7698.00,6603.09              7698.00,6603.09 7633.00,6607.00 7633.00,6607.00              7633.00,6607.00 7618.00,6608.04 7618.00,6608.04              7618.00,6608.04 7605.00,6608.04 7605.00,6608.04              7605.00,6608.04 7594.00,6609.00 7594.00,6609.00              7594.00,6609.00 7579.00,6609.00 7579.00,6609.00              7579.00,6609.00 7562.00,6610.00 7562.00,6610.00              7562.00,6610.00 7428.00,6610.00 7428.00,6610.00              7428.00,6610.00 7413.00,6609.00 7413.00,6609.00              7413.00,6609.00 7398.00,6609.00 7398.00,6609.00              7398.00,6609.00 7386.00,6608.04 7386.00,6608.04              7386.00,6608.04 7374.00,6608.04 7374.00,6608.04              7374.00,6608.04 7359.00,6607.00 7359.00,6607.00              7359.00,6607.00 7334.00,6606.00 7334.00,6606.00              7334.00,6606.00 7324.00,6605.09 7324.00,6605.09              7324.00,6605.09 7300.00,6603.91 7300.00,6603.91              7300.00,6603.91 7280.00,6602.09 7280.00,6602.09              7229.20,6598.60 7178.53,6592.93 7128.00,6586.28              6963.65,6564.65 6802.88,6528.12 6645.00,6477.66              6372.49,6390.56 6108.83,6255.94 5877.00,6088.58              5598.60,5887.59 5356.33,5633.78 5170.31,5345.00              5122.23,5270.36 5077.45,5193.90 5036.74,5115.00              5036.74,5115.00 4992.31,5026.00 4992.31,5026.00              4992.31,5026.00 4953.43,4940.00 4953.43,4940.00              4901.06,4817.25 4858.01,4695.86 4823.15,4567.00              4810.38,4519.77 4798.27,4471.97 4788.60,4424.00              4788.60,4424.00 4780.40,4384.00 4780.40,4384.00              4779.59,4379.93 4778.64,4371.24 4775.69,4368.51              4773.33,4366.33 4765.36,4364.50 4762.00,4363.63              4762.00,4363.63 4735.00,4356.00 4735.00,4356.00              4735.00,4356.00 4638.00,4325.67 4638.00,4325.67              4557.63,4298.88 4478.05,4268.59 4401.00,4233.31              4401.00,4233.31 4335.00,4202.75 4335.00,4202.75              4335.00,4202.75 4252.00,4160.69 4252.00,4160.69              4181.65,4122.65 4112.99,4082.39 4046.00,4038.66              3859.14,3916.65 3678.43,3758.30 3532.28,3590.00              3265.50,3282.78 3079.01,2922.90 2985.12,2527.00              2963.52,2435.95 2945.79,2339.04 2935.84,2246.00              2935.84,2246.00 2931.17,2204.00 2931.17,2204.00              2931.17,2204.00 2927.83,2165.00 2927.83,2165.00              2927.83,2165.00 2925.91,2139.00 2925.91,2139.00              2925.91,2139.00 2925.00,2127.00 2925.00,2127.00              2925.00,2127.00 2925.00,2092.00 2925.00,2092.00              2925.04,2064.32 2934.37,2024.17 2943.69,1998.00              2979.19,1898.32 3062.64,1822.32 3164.00,1793.43              3181.43,1788.46 3214.16,1782.21 3232.00,1781.96              3232.00,1781.96 3243.00,1781.96 3243.00,1781.96              3243.00,1781.96 3254.00,1781.04 3254.00,1781.04              3254.00,1781.04 3262.00,1781.96 3262.00,1781.96              3262.00,1781.96 3273.00,1781.96 3273.00,1781.96              3273.00,1781.96 3283.00,1782.92 3283.00,1782.92              3308.36,1784.95 3327.64,1790.04 3352.00,1796.13              3352.00,1796.13 3449.00,1820.13 3449.00,1820.13              3449.00,1820.13 3772.00,1900.63 3772.00,1900.63              3772.00,1900.63 4415.00,2061.13 4415.00,2061.13              4415.00,2061.13 4624.00,2113.13 4624.00,2113.13              4624.00,2113.13 4690.00,2129.63 4690.00,2129.63              4690.00,2129.63 4727.00,2139.00 4727.00,2139.00 Z            M 7899.00,3176.00            C 7901.08,3183.14 7911.53,3199.85 7915.80,3207.00              7915.80,3207.00 7954.00,3267.00 7954.00,3267.00              8013.03,3355.53 8093.01,3437.67 8177.00,3502.65              8298.10,3596.34 8437.61,3660.61 8587.00,3693.42              8634.07,3703.76 8681.96,3710.79 8730.00,3714.09              8730.00,3714.09 8764.00,3716.00 8764.00,3716.00              8764.00,3716.00 8779.00,3717.00 8779.00,3717.00              8779.00,3717.00 8912.00,3717.00 8912.00,3717.00              8912.00,3717.00 8927.00,3716.00 8927.00,3716.00              8927.00,3716.00 8934.00,3716.00 8934.00,3716.00              8934.00,3716.00 8944.00,3715.09 8944.00,3715.09              8944.00,3715.09 8982.00,3712.17 8982.00,3712.17              9020.05,3708.48 9057.55,3702.75 9095.00,3695.00              9253.29,3662.24 9401.85,3591.32 9528.00,3490.40              9549.61,3473.11 9571.00,3455.09 9591.00,3435.96              9734.49,3298.72 9837.93,3127.20 9885.63,2934.00              9898.58,2881.51 9906.96,2828.75 9912.17,2775.00              9912.17,2775.00 9915.00,2734.00 9915.00,2734.00              9915.00,2734.00 9916.00,2717.00 9916.00,2717.00              9916.00,2717.00 9916.00,2507.00 9916.00,2507.00              9916.00,2507.00 9916.00,1978.00 9916.00,1978.00              9916.00,1978.00 9915.00,1961.00 9915.00,1961.00              9915.00,1961.00 9912.17,1920.00 9912.17,1920.00              9908.10,1877.96 9902.50,1836.32 9893.42,1795.00              9883.67,1750.57 9871.57,1706.88 9856.31,1664.00              9799.58,1504.60 9701.48,1358.49 9576.00,1245.17              9525.72,1199.76 9471.10,1159.26 9413.00,1124.40              9413.00,1124.40 9355.00,1092.25 9355.00,1092.25              9355.00,1092.25 9335.00,1082.24 9335.00,1082.24              9332.40,1080.96 9327.36,1078.73 9325.58,1076.61              9323.08,1073.62 9321.44,1057.80 9320.58,1053.00              9320.58,1053.00 9309.13,1000.00 9309.13,1000.00              9296.77,950.56 9279.04,902.58 9256.25,857.00              9237.80,820.10 9222.10,784.97 9178.00,773.89              9165.38,770.73 9158.72,770.85 9146.00,771.00              9125.62,771.24 9103.01,781.77 9088.00,795.17              9088.00,795.17 9059.72,826.00 9059.72,826.00              9059.72,826.00 8970.72,925.00 8970.72,925.00              8970.72,925.00 8936.42,963.00 8936.42,963.00              8934.25,965.50 8924.64,976.98 8922.13,977.38              8918.45,977.97 8919.00,971.14 8919.00,969.00              8919.00,969.00 8919.00,937.00 8919.00,937.00              8919.00,937.00 8918.00,918.00 8918.00,918.00              8918.00,918.00 8917.09,908.00 8917.09,908.00              8915.45,884.20 8912.66,860.51 8908.42,837.00              8895.79,766.95 8875.13,701.77 8843.25,638.00              8836.29,624.08 8823.08,598.30 8813.56,587.00              8796.00,566.15 8769.36,553.32 8742.00,553.00              8718.24,552.73 8695.17,561.13 8677.00,576.44              8677.00,576.44 8627.92,630.00 8627.92,630.00              8627.92,630.00 8565.83,699.00 8565.83,699.00              8565.83,699.00 8422.83,858.00 8422.83,858.00              8422.83,858.00 8104.17,1212.00 8104.17,1212.00              8104.17,1212.00 7970.17,1361.00 7970.17,1361.00              7970.17,1361.00 7926.08,1410.00 7926.08,1410.00              7926.08,1410.00 7906.00,1431.68 7906.00,1431.68              7906.00,1431.68 7877.00,1450.81 7877.00,1450.81              7877.00,1450.81 7820.00,1482.25 7820.00,1482.25              7761.23,1511.63 7698.40,1531.38 7634.00,1543.80              7603.36,1549.72 7572.14,1553.68 7541.00,1555.04              7541.00,1555.04 7530.00,1556.00 7530.00,1556.00              7530.00,1556.00 7515.00,1556.00 7515.00,1556.00              7515.00,1556.00 7494.00,1557.00 7494.00,1557.00              7494.00,1557.00 7481.00,1556.00 7481.00,1556.00              7481.00,1556.00 7465.00,1556.00 7465.00,1556.00              7465.00,1556.00 7452.00,1555.04 7452.00,1555.04              7422.16,1553.74 7392.41,1549.73 7363.00,1544.42              7264.79,1526.71 7163.52,1486.50 7082.01,1428.65              7076.23,1424.55 7068.02,1414.48 7062.91,1409.00              7062.91,1409.00 7028.91,1372.00 7028.91,1372.00              7028.91,1372.00 6915.83,1249.00 6915.83,1249.00              6915.83,1249.00 6841.09,1168.00 6841.09,1168.00              6841.09,1168.00 6790.83,1113.00 6790.83,1113.00              6790.83,1113.00 6710.83,1026.00 6710.83,1026.00              6710.83,1026.00 6590.17,895.00 6590.17,895.00              6590.17,895.00 6464.17,758.00 6464.17,758.00              6464.17,758.00 6407.17,696.00 6407.17,696.00              6407.17,696.00 6352.04,636.00 6352.04,636.00              6352.04,636.00 6317.09,598.00 6317.09,598.00              6293.47,572.64 6276.30,553.57 6239.00,554.00              6229.77,554.11 6219.33,556.84 6211.00,560.78              6180.21,575.35 6165.26,606.00 6150.75,635.00              6117.95,700.61 6094.91,769.59 6082.92,842.00              6079.17,864.62 6076.48,887.15 6074.91,910.00              6074.91,910.00 6074.00,921.00 6074.00,921.00              6074.00,921.00 6074.00,925.00 6074.00,925.00              6074.00,925.00 6073.00,940.00 6073.00,940.00              6073.00,940.00 6073.00,990.00 6073.00,990.00              6073.00,990.00 6074.00,1001.00 6074.00,1001.00              6072.20,1000.98 6069.84,1001.08 6068.17,1000.40              6064.70,998.99 6056.87,989.21 6053.92,986.00              6053.92,986.00 6011.58,939.00 6011.58,939.00              6011.58,939.00 5979.17,903.00 5979.17,903.00              5979.17,903.00 5907.17,823.00 5907.17,823.00              5907.17,823.00 5883.83,797.42 5883.83,797.42              5868.77,783.05 5845.15,771.25 5824.00,771.00              5824.00,771.00 5813.00,771.00 5813.00,771.00              5790.74,771.03 5764.65,782.14 5749.17,798.09              5738.39,809.19 5731.56,822.63 5724.14,836.00              5692.05,893.84 5666.18,967.10 5653.20,1032.00              5653.20,1032.00 5642.42,1101.00 5642.42,1101.00              5642.42,1101.00 5640.26,1120.91 5640.26,1120.91              5639.36,1123.08 5637.87,1124.27 5635.96,1125.53              5635.96,1125.53 5612.00,1139.01 5612.00,1139.01              5612.00,1139.01 5550.00,1178.02 5550.00,1178.02              5484.86,1222.92 5426.03,1273.10 5372.09,1331.00              5250.59,1461.41 5163.21,1626.31 5123.35,1800.00              5112.11,1848.95 5105.66,1892.12 5100.83,1942.00              5100.83,1942.00 5098.00,1986.00 5098.00,1986.00              5098.00,1986.00 5097.00,2001.00 5097.00,2001.00              5097.00,2001.00 5097.00,2455.00 5097.00,2455.00              5097.00,2455.00 5097.00,2738.00 5097.00,2738.00              5097.00,2738.00 5098.00,2760.00 5098.00,2760.00              5098.00,2760.00 5098.91,2770.00 5098.91,2770.00              5098.91,2770.00 5100.83,2796.00 5100.83,2796.00              5103.93,2827.95 5107.87,2859.37 5113.58,2891.00              5146.42,3073.07 5229.72,3244.63 5351.28,3384.00              5509.44,3565.32 5723.96,3685.00 5961.00,3724.92              5993.15,3730.33 6025.53,3733.87 6058.00,3736.09              6058.00,3736.09 6084.00,3738.04 6084.00,3738.04              6084.00,3738.04 6099.00,3738.04 6099.00,3738.04              6099.00,3738.04 6111.00,3739.00 6111.00,3739.00              6111.00,3739.00 6232.00,3739.00 6232.00,3739.00              6232.00,3739.00 6247.00,3738.00 6247.00,3738.00              6247.00,3738.00 6258.00,3738.00 6258.00,3738.00              6258.00,3738.00 6284.00,3736.09 6284.00,3736.09              6284.00,3736.09 6360.00,3728.13 6360.00,3728.13              6470.07,3712.81 6583.28,3676.68 6682.00,3625.74              6811.69,3558.82 6927.35,3465.01 7018.55,3351.00              7046.81,3315.68 7071.77,3279.42 7095.58,3241.00              7095.58,3241.00 7115.00,3208.00 7115.00,3208.00              7115.00,3208.00 7115.00,3489.00 7115.00,3489.00              7115.00,3489.00 7115.00,3582.00 7115.00,3582.00              7115.00,3582.00 7116.49,3607.00 7116.49,3607.00              7115.52,3622.39 7121.90,3660.48 7125.84,3676.56              7127.06,3681.51 7129.56,3696.08 7133.00,3699.00              7133.00,3699.00 7139.00,3723.00 7139.00,3723.00              7139.00,3723.00 7141.00,3723.00 7141.00,3723.00              7140.97,3725.74 7140.78,3726.29 7143.00,3728.00              7143.00,3728.00 7142.00,3731.00 7142.00,3731.00              7142.00,3731.00 7145.00,3733.00 7145.00,3733.00              7145.00,3733.00 7144.00,3736.00 7144.00,3736.00              7144.00,3736.00 7145.00,3738.00 7145.00,3738.00              7145.00,3738.00 7147.00,3738.00 7147.00,3738.00              7147.00,3738.00 7147.00,3743.00 7147.00,3743.00              7147.00,3743.00 7149.00,3743.00 7149.00,3743.00              7149.00,3743.00 7148.00,3745.00 7148.00,3745.00              7148.00,3745.00 7150.00,3745.00 7150.00,3745.00              7150.00,3745.00 7151.00,3752.00 7151.00,3752.00              7151.00,3752.00 7153.00,3752.00 7153.00,3752.00              7153.00,3752.00 7152.00,3754.00 7152.00,3754.00              7152.00,3754.00 7154.00,3754.00 7154.00,3754.00              7154.00,3754.00 7153.00,3756.00 7153.00,3756.00              7153.00,3756.00 7155.00,3756.00 7155.00,3756.00              7155.00,3756.00 7154.00,3758.00 7154.00,3758.00              7154.00,3758.00 7156.00,3758.00 7156.00,3758.00              7156.00,3758.00 7155.00,3760.00 7155.00,3760.00              7155.00,3760.00 7157.00,3760.00 7157.00,3760.00              7157.00,3760.00 7156.00,3762.00 7156.00,3762.00              7156.00,3762.00 7158.00,3762.00 7158.00,3762.00              7158.00,3762.00 7157.00,3764.00 7157.00,3764.00              7157.00,3764.00 7159.00,3764.00 7159.00,3764.00              7159.00,3764.00 7158.00,3766.00 7158.00,3766.00              7158.00,3766.00 7160.00,3766.00 7160.00,3766.00              7160.00,3766.00 7159.00,3768.00 7159.00,3768.00              7159.00,3768.00 7161.00,3768.00 7161.00,3768.00              7161.00,3768.00 7160.00,3770.00 7160.00,3770.00              7160.00,3770.00 7162.00,3770.00 7162.00,3770.00              7162.00,3770.00 7161.00,3772.00 7161.00,3772.00              7161.00,3772.00 7163.00,3772.00 7163.00,3772.00              7163.23,3775.03 7163.47,3775.33 7166.00,3777.00              7166.00,3777.00 7165.00,3779.00 7165.00,3779.00              7165.00,3779.00 7167.00,3779.00 7167.00,3779.00              7167.00,3779.00 7166.00,3781.00 7166.00,3781.00              7166.00,3781.00 7168.00,3781.00 7168.00,3781.00              7168.00,3781.00 7170.00,3784.00 7170.00,3784.00              7170.00,3784.00 7169.00,3786.00 7169.00,3786.00              7169.00,3786.00 7171.00,3786.00 7171.00,3786.00              7171.36,3789.21 7171.26,3789.25 7174.00,3791.00              7174.00,3791.00 7173.00,3793.00 7173.00,3793.00              7173.00,3793.00 7176.00,3794.00 7176.00,3794.00              7176.00,3794.00 7175.00,3796.00 7175.00,3796.00              7175.00,3796.00 7178.00,3797.00 7178.00,3797.00              7178.00,3797.00 7177.00,3799.00 7177.00,3799.00              7177.00,3799.00 7183.00,3805.00 7183.00,3805.00              7183.00,3805.00 7182.00,3807.00 7182.00,3807.00              7182.00,3807.00 7188.00,3812.00 7188.00,3812.00              7188.00,3812.00 7187.00,3814.00 7187.00,3814.00              7187.00,3814.00 7193.00,3819.00 7193.00,3819.00              7193.00,3819.00 7192.00,3821.00 7192.00,3821.00              7192.00,3821.00 7196.00,3823.00 7196.00,3823.00              7196.00,3823.00 7195.00,3825.00 7195.00,3825.00              7195.00,3825.00 7199.00,3830.00 7199.00,3830.00              7199.00,3830.00 7203.00,3835.00 7203.00,3835.00              7203.00,3835.00 7214.30,3846.61 7214.30,3846.61              7214.30,3846.61 7217.35,3850.87 7217.35,3850.87              7217.35,3850.87 7226.00,3859.00 7226.00,3859.00              7226.00,3859.00 7242.39,3875.83 7242.39,3875.83              7242.39,3875.83 7259.00,3891.00 7259.00,3891.00              7259.00,3891.00 7264.00,3895.00 7264.00,3895.00              7264.00,3895.00 7269.00,3899.00 7269.00,3899.00              7269.00,3899.00 7271.00,3898.00 7271.00,3898.00              7271.00,3898.00 7273.00,3902.00 7273.00,3902.00              7273.00,3902.00 7275.00,3901.00 7275.00,3901.00              7275.00,3901.00 7279.00,3904.00 7279.00,3904.00              7279.00,3904.00 7280.00,3907.00 7280.00,3907.00              7280.00,3907.00 7282.00,3906.00 7282.00,3906.00              7282.00,3906.00 7283.00,3909.00 7283.00,3909.00              7283.00,3909.00 7287.00,3912.00 7287.00,3912.00              7287.00,3912.00 7289.00,3911.00 7289.00,3911.00              7291.19,3914.41 7295.93,3917.73 7300.00,3918.00              7300.00,3918.00 7301.00,3921.00 7301.00,3921.00              7301.00,3921.00 7303.00,3920.00 7303.00,3920.00              7303.00,3920.00 7306.00,3924.00 7306.00,3924.00              7306.00,3924.00 7308.00,3923.00 7308.00,3923.00              7308.00,3923.00 7311.00,3927.00 7311.00,3927.00              7311.00,3927.00 7313.00,3926.00 7313.00,3926.00              7313.00,3926.00 7313.00,3928.00 7313.00,3928.00              7313.00,3928.00 7320.00,3932.00 7320.00,3932.00              7320.00,3932.00 7322.00,3931.00 7322.00,3931.00              7322.00,3931.00 7322.00,3933.00 7322.00,3933.00              7322.00,3933.00 7324.00,3932.00 7324.00,3932.00              7324.00,3932.00 7324.00,3934.00 7324.00,3934.00              7324.00,3934.00 7326.00,3933.00 7326.00,3933.00              7326.00,3933.00 7326.00,3935.00 7326.00,3935.00              7326.00,3935.00 7328.00,3934.00 7328.00,3934.00              7328.00,3934.00 7328.00,3936.00 7328.00,3936.00              7328.00,3936.00 7330.00,3935.00 7330.00,3935.00              7330.00,3935.00 7330.00,3937.00 7330.00,3937.00              7330.00,3937.00 7332.00,3936.00 7332.00,3936.00              7332.00,3936.00 7332.00,3938.00 7332.00,3938.00              7332.00,3938.00 7334.00,3937.00 7334.00,3937.00              7334.00,3937.00 7334.00,3939.00 7334.00,3939.00              7334.00,3939.00 7336.00,3938.00 7336.00,3938.00              7336.00,3938.00 7336.00,3940.00 7336.00,3940.00              7336.00,3940.00 7338.00,3939.00 7338.00,3939.00              7338.00,3939.00 7338.00,3941.00 7338.00,3941.00              7338.00,3941.00 7340.00,3940.00 7340.00,3940.00              7340.00,3940.00 7340.00,3942.00 7340.00,3942.00              7340.00,3942.00 7342.00,3941.00 7342.00,3941.00              7342.00,3941.00 7342.00,3943.00 7342.00,3943.00              7342.00,3943.00 7344.00,3942.00 7344.00,3942.00              7344.00,3942.00 7344.00,3944.00 7344.00,3944.00              7344.00,3944.00 7351.00,3945.00 7351.00,3945.00              7351.00,3945.00 7351.00,3947.00 7351.00,3947.00              7351.00,3947.00 7358.00,3948.00 7358.00,3948.00              7358.00,3948.00 7358.00,3950.00 7358.00,3950.00              7358.00,3950.00 7363.00,3950.00 7363.00,3950.00              7363.00,3950.00 7363.00,3952.00 7363.00,3952.00              7363.00,3952.00 7368.00,3954.00 7368.00,3954.00              7368.00,3954.00 7371.00,3953.00 7371.00,3953.00              7371.00,3953.00 7379.00,3958.00 7379.00,3958.00              7379.00,3958.00 7382.00,3957.00 7382.00,3957.00              7384.05,3959.62 7393.08,3961.79 7396.57,3962.71              7396.57,3962.71 7433.00,3971.60 7433.00,3971.60              7445.88,3974.21 7458.93,3975.84 7472.00,3976.74              7472.00,3976.74 7480.00,3977.73 7480.00,3977.73              7480.00,3977.73 7487.00,3977.73 7487.00,3977.73              7487.00,3977.73 7502.00,3978.91 7502.00,3978.91              7502.00,3978.91 7515.00,3978.91 7515.00,3978.91              7515.00,3978.91 7526.00,3977.70 7526.00,3977.70              7526.00,3977.70 7534.00,3977.70 7534.00,3977.70              7534.00,3977.70 7541.00,3976.75 7541.00,3976.75              7541.00,3976.75 7577.01,3972.22 7577.01,3972.22              7577.01,3972.22 7600.00,3968.00 7600.00,3968.00              7600.00,3968.00 7600.00,3966.00 7600.00,3966.00              7603.79,3966.29 7612.49,3964.96 7615.00,3962.00              7618.45,3962.37 7625.71,3960.70 7628.00,3958.00              7628.00,3958.00 7631.00,3957.00 7631.00,3957.00              7631.00,3957.00 7634.00,3956.00 7634.00,3956.00              7634.00,3956.00 7637.00,3957.00 7637.00,3957.00              7637.00,3957.00 7642.00,3953.00 7642.00,3953.00              7642.00,3953.00 7645.00,3954.00 7645.00,3954.00              7645.00,3954.00 7650.00,3952.00 7650.00,3952.00              7650.00,3952.00 7650.00,3950.00 7650.00,3950.00              7650.00,3950.00 7655.00,3950.00 7655.00,3950.00              7655.00,3950.00 7655.00,3948.00 7655.00,3948.00              7655.00,3948.00 7660.00,3948.00 7660.00,3948.00              7660.00,3948.00 7660.00,3946.00 7660.00,3946.00              7660.00,3946.00 7662.00,3947.00 7662.00,3947.00              7662.00,3947.00 7662.00,3945.00 7662.00,3945.00              7662.00,3945.00 7667.00,3945.00 7667.00,3945.00              7667.00,3945.00 7667.00,3943.00 7667.00,3943.00              7667.00,3943.00 7669.00,3944.00 7669.00,3944.00              7669.00,3944.00 7669.00,3942.00 7669.00,3942.00              7669.00,3942.00 7671.00,3943.00 7671.00,3943.00              7671.00,3943.00 7671.00,3941.00 7671.00,3941.00              7671.00,3941.00 7673.00,3942.00 7673.00,3942.00              7673.00,3942.00 7673.00,3940.00 7673.00,3940.00              7673.00,3940.00 7675.00,3941.00 7675.00,3941.00              7675.00,3941.00 7675.00,3939.00 7675.00,3939.00              7675.00,3939.00 7677.00,3940.00 7677.00,3940.00              7677.00,3940.00 7677.00,3938.00 7677.00,3938.00              7677.00,3938.00 7679.00,3939.00 7679.00,3939.00              7679.00,3939.00 7679.00,3937.00 7679.00,3937.00              7679.00,3937.00 7681.00,3938.00 7681.00,3938.00              7681.00,3938.00 7681.00,3936.00 7681.00,3936.00              7681.00,3936.00 7683.00,3937.00 7683.00,3937.00              7683.00,3937.00 7683.00,3935.00 7683.00,3935.00              7683.00,3935.00 7685.00,3936.00 7685.00,3936.00              7685.00,3936.00 7685.00,3934.00 7685.00,3934.00              7685.00,3934.00 7687.00,3935.00 7687.00,3935.00              7687.00,3935.00 7687.00,3933.00 7687.00,3933.00              7687.00,3933.00 7689.00,3934.00 7689.00,3934.00              7689.00,3934.00 7689.00,3932.00 7689.00,3932.00              7689.00,3932.00 7691.00,3933.00 7691.00,3933.00              7691.00,3933.00 7691.00,3931.00 7691.00,3931.00              7691.00,3931.00 7693.00,3932.00 7693.00,3932.00              7693.00,3932.00 7693.00,3930.00 7693.00,3930.00              7696.03,3929.77 7696.33,3929.53 7698.00,3927.00              7698.00,3927.00 7700.00,3928.00 7700.00,3928.00              7700.00,3928.00 7700.00,3926.00 7700.00,3926.00              7703.03,3925.77 7703.33,3925.53 7705.00,3923.00              7705.00,3923.00 7707.00,3924.00 7707.00,3924.00              7707.00,3924.00 7712.00,3921.00 7712.00,3921.00              7712.00,3921.00 7713.00,3918.00 7713.00,3918.00              7713.00,3918.00 7715.00,3919.00 7715.00,3919.00              7715.00,3919.00 7718.00,3915.00 7718.00,3915.00              7718.00,3915.00 7720.00,3916.00 7720.00,3916.00              7720.00,3916.00 7721.00,3913.00 7721.00,3913.00              7721.00,3913.00 7724.00,3911.00 7724.00,3911.00              7724.00,3911.00 7727.00,3909.00 7727.00,3909.00              7730.90,3908.46 7731.92,3907.23 7734.00,3904.00              7734.00,3904.00 7736.00,3905.00 7736.00,3905.00              7736.00,3905.00 7738.00,3901.00 7738.00,3901.00              7738.00,3901.00 7740.00,3902.00 7740.00,3902.00              7740.00,3902.00 7742.00,3898.00 7742.00,3898.00              7742.00,3898.00 7744.00,3899.00 7744.00,3899.00              7744.00,3899.00 7746.00,3895.00 7746.00,3895.00              7749.42,3894.27 7749.22,3893.98 7751.00,3891.00              7756.02,3889.99 7760.38,3884.15 7764.46,3881.09              7770.96,3876.21 7770.62,3875.03 7775.84,3870.20              7775.84,3870.20 7782.85,3864.87 7782.85,3864.87              7782.85,3864.87 7788.20,3857.91 7788.20,3857.91              7788.20,3857.91 7797.65,3848.92 7797.65,3848.92              7797.65,3848.92 7800.70,3844.80 7800.70,3844.80              7803.86,3840.90 7809.00,3837.02 7810.00,3832.00              7812.98,3830.22 7813.27,3830.42 7814.00,3827.00              7814.00,3827.00 7818.00,3825.00 7818.00,3825.00              7818.00,3825.00 7817.00,3823.00 7817.00,3823.00              7817.00,3823.00 7821.00,3821.00 7821.00,3821.00              7821.00,3821.00 7820.00,3819.00 7820.00,3819.00              7820.00,3819.00 7824.00,3817.00 7824.00,3817.00              7824.00,3817.00 7823.00,3815.00 7823.00,3815.00              7823.00,3815.00 7826.00,3814.00 7826.00,3814.00              7826.00,3814.00 7830.00,3805.00 7830.00,3805.00              7830.00,3805.00 7832.00,3802.00 7832.00,3802.00              7832.00,3802.00 7835.00,3801.00 7835.00,3801.00              7835.00,3801.00 7834.00,3799.00 7834.00,3799.00              7834.00,3799.00 7838.00,3796.00 7838.00,3796.00              7838.00,3796.00 7837.00,3794.00 7837.00,3794.00              7837.00,3794.00 7840.00,3793.00 7840.00,3793.00              7840.00,3793.00 7843.00,3788.00 7843.00,3788.00              7843.00,3788.00 7842.00,3786.00 7842.00,3786.00              7842.00,3786.00 7844.00,3786.00 7844.00,3786.00              7844.00,3786.00 7846.00,3783.00 7846.00,3783.00              7846.00,3783.00 7847.00,3781.00 7847.00,3781.00              7847.00,3781.00 7846.00,3779.00 7846.00,3779.00              7846.00,3779.00 7847.00,3777.00 7847.00,3777.00              7847.00,3777.00 7850.00,3776.00 7850.00,3776.00              7850.00,3776.00 7849.00,3774.00 7849.00,3774.00              7849.00,3774.00 7851.00,3774.00 7851.00,3774.00              7851.00,3774.00 7850.00,3772.00 7850.00,3772.00              7850.00,3772.00 7852.00,3772.00 7852.00,3772.00              7852.00,3772.00 7851.00,3770.00 7851.00,3770.00              7851.00,3770.00 7853.00,3770.00 7853.00,3770.00              7853.00,3770.00 7852.00,3768.00 7852.00,3768.00              7852.00,3768.00 7854.00,3768.00 7854.00,3768.00              7854.00,3768.00 7857.00,3758.00 7857.00,3758.00              7857.00,3758.00 7859.00,3758.00 7859.00,3758.00              7859.00,3758.00 7858.00,3756.00 7858.00,3756.00              7858.00,3756.00 7860.00,3756.00 7860.00,3756.00              7860.00,3756.00 7859.00,3754.00 7859.00,3754.00              7859.00,3754.00 7861.00,3754.00 7861.00,3754.00              7861.00,3754.00 7860.00,3752.00 7860.00,3752.00              7860.00,3752.00 7862.00,3752.00 7862.00,3752.00              7862.00,3752.00 7861.00,3750.00 7861.00,3750.00              7861.00,3750.00 7863.00,3750.00 7863.00,3750.00              7863.00,3750.00 7864.00,3743.00 7864.00,3743.00              7864.00,3743.00 7866.00,3743.00 7866.00,3743.00              7866.00,3743.00 7865.00,3741.00 7865.00,3741.00              7865.00,3741.00 7867.00,3741.00 7867.00,3741.00              7867.00,3741.00 7867.00,3736.00 7867.00,3736.00              7867.00,3736.00 7869.00,3736.00 7869.00,3736.00              7869.00,3736.00 7869.00,3731.00 7869.00,3731.00              7869.00,3731.00 7871.00,3731.00 7871.00,3731.00              7871.00,3731.00 7873.00,3726.00 7873.00,3726.00              7873.00,3726.00 7872.00,3723.00 7872.00,3723.00              7872.00,3723.00 7878.00,3712.00 7878.00,3712.00              7877.97,3707.28 7880.05,3703.48 7881.31,3699.00              7881.31,3699.00 7888.54,3671.08 7888.54,3671.08              7891.13,3658.63 7895.59,3635.06 7895.74,3623.00              7895.74,3623.00 7896.70,3614.00 7896.70,3614.00              7896.70,3614.00 7896.70,3605.00 7896.70,3605.00              7896.70,3605.00 7898.00,3586.00 7898.00,3586.00              7898.00,3586.00 7898.00,3397.00 7898.00,3397.00              7898.00,3397.00 7898.00,3246.00 7898.00,3246.00              7898.00,3246.00 7898.00,3200.00 7898.00,3200.00              7898.00,3193.23 7897.25,3182.16 7899.00,3176.00 Z            M 6104.00,1861.00            C 6114.75,1854.88 6133.04,1847.99 6145.00,1844.00              6172.51,1834.82 6201.09,1828.93 6230.00,1826.91              6230.00,1826.91 6242.00,1826.00 6242.00,1826.00              6242.00,1826.00 6277.00,1826.00 6277.00,1826.00              6277.00,1826.00 6287.00,1826.91 6287.00,1826.91              6315.15,1828.88 6343.21,1834.40 6370.00,1843.33              6472.98,1877.66 6557.68,1957.16 6594.31,2060.00              6605.95,2092.70 6612.72,2125.43 6615.09,2160.00              6615.09,2160.00 6616.00,2172.00 6616.00,2172.00              6616.00,2172.00 6616.00,2287.00 6616.00,2287.00              6616.00,2287.00 6616.00,2489.00 6616.00,2489.00              6616.00,2489.00 6616.00,2590.00 6616.00,2590.00              6616.00,2590.00 6614.17,2612.00 6614.17,2612.00              6607.84,2675.33 6585.97,2733.14 6549.00,2785.00              6539.84,2797.85 6529.72,2809.33 6519.17,2821.00              6515.90,2824.61 6508.19,2834.07 6504.00,2835.64              6500.70,2836.88 6495.25,2834.17 6492.00,2832.95              6492.00,2832.95 6461.00,2821.00 6461.00,2821.00              6461.00,2821.00 6345.00,2777.42 6345.00,2777.42              6254.50,2743.57 6162.86,2712.28 6071.00,2682.33              6071.00,2682.33 5957.00,2645.98 5957.00,2645.98              5957.00,2645.98 5922.00,2635.28 5922.00,2635.28              5922.00,2635.28 5904.00,2630.00 5904.00,2630.00              5904.00,2630.00 5902.28,2615.00 5902.28,2615.00              5902.28,2615.00 5900.00,2585.00 5900.00,2585.00              5900.00,2585.00 5900.00,2254.00 5900.00,2254.00              5910.78,2254.50 5923.66,2259.74 5946.00,2260.00              5946.00,2260.00 5955.00,2260.55 5955.00,2260.55              5955.00,2260.55 5963.00,2260.00 5963.00,2260.00              5992.43,2259.66 6022.29,2251.95 6049.00,2239.69              6073.26,2228.55 6095.16,2212.84 6114.00,2194.00              6175.54,2132.46 6198.30,2043.95 6170.65,1961.00              6161.95,1934.93 6147.11,1909.08 6129.57,1888.00              6129.57,1888.00 6104.00,1861.00 6104.00,1861.00 Z            M 8530.00,1875.00            C 8530.00,1875.00 8559.00,1859.78 8559.00,1859.78              8592.35,1844.03 8628.46,1833.49 8665.00,1828.72              8665.00,1828.72 8693.00,1826.00 8693.00,1826.00              8693.00,1826.00 8728.00,1826.00 8728.00,1826.00              8728.00,1826.00 8740.00,1826.91 8740.00,1826.91              8782.13,1829.86 8823.61,1840.68 8862.00,1858.31              8958.67,1902.69 9032.55,1990.71 9058.37,2094.00              9063.03,2112.62 9068.77,2142.08 9069.00,2161.00              9069.00,2161.00 9070.00,2182.00 9070.00,2182.00              9070.00,2182.00 9070.00,2577.00 9070.00,2577.00              9070.00,2577.00 9069.00,2592.00 9069.00,2592.00              9069.00,2592.00 9066.13,2624.00 9066.13,2624.00              9065.71,2627.04 9065.24,2634.17 9063.26,2636.30              9061.31,2638.40 9055.79,2639.61 9053.00,2640.42              9053.00,2640.42 9032.00,2646.86 9032.00,2646.86              9032.00,2646.86 8958.00,2670.19 8958.00,2670.19              8958.00,2670.19 8801.00,2722.66 8801.00,2722.66              8801.00,2722.66 8617.00,2788.42 8617.00,2788.42              8617.00,2788.42 8510.00,2828.81 8510.00,2828.81              8510.00,2828.81 8484.00,2839.00 8484.00,2839.00              8480.47,2840.41 8475.76,2842.95 8472.00,2841.39              8468.99,2840.14 8464.39,2835.38 8462.00,2833.00              8462.00,2833.00 8443.95,2814.00 8443.95,2814.00              8418.61,2785.47 8397.83,2753.04 8382.72,2718.00              8367.28,2682.20 8357.63,2643.90 8354.91,2605.00              8354.91,2605.00 8354.00,2593.00 8354.00,2593.00              8354.00,2593.00 8354.00,2502.00 8354.00,2502.00              8354.00,2502.00 8354.00,2260.00 8354.00,2260.00              8354.00,2260.00 8373.00,2260.00 8373.00,2260.00              8397.81,2259.72 8422.88,2254.15 8446.00,2245.19              8512.10,2219.58 8563.96,2163.22 8583.42,2095.00              8587.23,2081.64 8591.84,2058.71 8592.00,2045.00              8592.00,2045.00 8592.00,2021.00 8592.00,2021.00              8591.95,1986.82 8577.58,1946.29 8560.58,1917.00              8555.89,1908.94 8549.36,1899.27 8543.55,1892.00              8539.04,1886.35 8533.65,1881.25 8530.00,1875.00 Z            M 7207.00,2949.00            C 7207.00,2949.00 7149.00,2939.41 7149.00,2939.41              7149.00,2939.41 7100.00,2930.42 7100.00,2930.42              7100.00,2930.42 7020.00,2916.92 7020.00,2916.92              7020.00,2916.92 6981.00,2910.25 6981.00,2910.25              6978.28,2909.79 6967.21,2908.15 6965.57,2906.83              6963.58,2905.23 6964.00,2901.33 6964.00,2899.00              6964.00,2899.00 6964.00,2878.00 6964.00,2878.00              6964.14,2866.64 6972.70,2834.94 6976.28,2823.00              6989.44,2779.14 7007.87,2736.78 7032.32,2698.00              7052.63,2665.79 7075.70,2635.54 7102.04,2608.00              7102.04,2608.00 7124.00,2586.91 7124.00,2586.91              7203.11,2513.33 7299.40,2466.57 7405.00,2445.45              7435.46,2439.35 7472.01,2435.05 7503.00,2435.00              7503.00,2435.00 7525.00,2434.00 7525.00,2434.00              7525.00,2434.00 7535.00,2434.96 7535.00,2434.96              7535.00,2434.96 7549.00,2434.96 7549.00,2434.96              7549.00,2434.96 7559.00,2435.91 7559.00,2435.91              7597.37,2438.55 7635.21,2445.66 7672.00,2456.98              7806.75,2498.43 7924.35,2593.23 7992.30,2717.00              8012.57,2753.91 8029.12,2793.24 8039.88,2834.00              8042.77,2844.93 8048.87,2867.42 8049.00,2878.00              8049.00,2878.00 8049.00,2899.00 8049.00,2899.00              8049.00,2901.36 8049.42,2905.20 8047.43,2906.84              8045.53,2908.40 8034.99,2909.75 8032.00,2910.25              8032.00,2910.25 7993.00,2916.92 7993.00,2916.92              7993.00,2916.92 7903.00,2932.26 7903.00,2932.26              7903.00,2932.26 7892.00,2934.74 7892.00,2934.74              7892.00,2934.74 7860.00,2940.08 7860.00,2940.08              7860.00,2940.08 7806.00,2949.00 7806.00,2949.00              7809.11,2959.61 7809.34,2971.06 7810.09,2982.00              7810.09,2982.00 7811.00,2994.00 7811.00,2994.00              7811.00,2994.00 7811.00,3040.00 7811.00,3040.00              7811.00,3040.00 7811.00,3199.00 7811.00,3199.00              7811.00,3199.00 7811.00,3375.00 7811.00,3375.00              7811.00,3416.40 7813.16,3458.28 7804.34,3499.00              7788.09,3574.02 7746.10,3637.74 7684.00,3682.85              7658.35,3701.48 7630.97,3714.68 7601.00,3724.67              7580.49,3731.50 7547.49,3738.74 7526.00,3739.00              7526.00,3739.00 7504.00,3740.00 7504.00,3740.00              7504.00,3740.00 7487.00,3739.00 7487.00,3739.00              7487.00,3739.00 7477.00,3738.08 7477.00,3738.08              7446.57,3735.65 7417.25,3727.54 7389.00,3716.20              7364.26,3706.27 7340.08,3691.60 7319.00,3675.35              7251.45,3623.28 7206.71,3539.39 7202.96,3454.00              7202.96,3454.00 7202.00,3441.00 7202.00,3441.00              7202.00,3441.00 7202.00,3352.00 7202.00,3352.00              7202.00,3352.00 7202.00,3178.00 7202.00,3178.00              7202.00,3178.00 7202.00,3034.00 7202.00,3034.00              7202.00,3034.00 7202.00,2994.00 7202.00,2994.00              7202.00,2994.00 7202.91,2982.00 7202.91,2982.00              7203.60,2971.97 7204.20,2958.55 7207.00,2949.00 Z            M 7215.00,3847.00            C 7215.00,3847.00 7214.00,3847.00 7214.00,3847.00              7214.00,3847.00 7215.00,3848.00 7215.00,3848.00              7215.00,3848.00 7215.00,3847.00 7215.00,3847.00 Z            M 7788.00,3859.00            C 7788.00,3859.00 7787.00,3859.00 7787.00,3859.00              7787.00,3859.00 7788.00,3860.00 7788.00,3860.00              7788.00,3860.00 7788.00,3859.00 7788.00,3859.00 Z            M 7787.00,3860.00            C 7787.00,3860.00 7786.00,3860.00 7786.00,3860.00              7786.00,3860.00 7787.00,3861.00 7787.00,3861.00              7787.00,3861.00 7787.00,3860.00 7787.00,3860.00 Z            M 7779.00,3868.00            C 7779.00,3868.00 7778.00,3868.00 7778.00,3868.00              7778.00,3868.00 7779.00,3869.00 7779.00,3869.00              7779.00,3869.00 7779.00,3868.00 7779.00,3868.00 Z            M 7247.00,3879.00            C 7247.00,3879.00 7246.00,3879.00 7246.00,3879.00              7246.00,3879.00 7247.00,3880.00 7247.00,3880.00              7247.00,3880.00 7247.00,3879.00 7247.00,3879.00 Z            M 6536.00,4653.07            C 6526.46,4654.74 6519.41,4656.34 6511.00,4661.46              6491.62,4673.26 6483.25,4694.08 6487.46,4716.00              6489.21,4725.10 6499.41,4749.02 6503.74,4758.00              6503.74,4758.00 6509.26,4770.00 6509.26,4770.00              6520.00,4790.97 6532.92,4811.22 6547.13,4830.00              6608.25,4910.73 6701.18,4965.44 6800.00,4985.20              6800.00,4985.20 6853.00,4992.96 6853.00,4992.96              6853.00,4992.96 6862.00,4992.96 6862.00,4992.96              6862.00,4992.96 6872.00,4994.00 6872.00,4994.00              6872.00,4994.00 6905.00,4994.00 6905.00,4994.00              6905.00,4994.00 6917.00,4993.09 6917.00,4993.09              6938.21,4991.64 6959.11,4989.25 6980.00,4985.00              7070.98,4966.45 7157.19,4917.89 7217.57,4847.00              7241.91,4818.43 7260.70,4789.08 7276.31,4755.00              7280.48,4745.88 7289.87,4724.18 7291.54,4715.00              7297.74,4680.88 7271.93,4653.05 7238.00,4653.07              7238.00,4653.07 6771.00,4653.07 6771.00,4653.07              6771.00,4653.07 6616.00,4653.07 6616.00,4653.07              6616.00,4653.07 6536.00,4653.07 6536.00,4653.07 Z            M 7752.00,4653.07            C 7724.74,4657.45 7703.75,4673.88 7702.09,4703.00              7701.43,4714.67 7709.20,4734.09 7713.85,4745.00              7726.89,4775.62 7743.03,4803.45 7763.13,4830.00              7824.29,4910.79 7917.11,4965.42 8016.00,4985.20              8016.00,4985.20 8069.00,4992.96 8069.00,4992.96              8069.00,4992.96 8078.00,4992.96 8078.00,4992.96              8078.00,4992.96 8088.00,4994.00 8088.00,4994.00              8088.00,4994.00 8121.00,4994.00 8121.00,4994.00              8121.00,4994.00 8133.00,4993.09 8133.00,4993.09              8154.21,4991.64 8175.11,4989.25 8196.00,4985.00              8287.19,4966.41 8372.94,4917.92 8433.57,4847.00              8457.59,4818.91 8476.12,4789.39 8491.78,4756.00              8496.24,4746.48 8506.30,4722.73 8507.85,4713.00              8507.85,4713.00 8507.85,4701.00 8507.85,4701.00              8507.66,4672.55 8480.76,4653.04 8454.00,4653.07              8454.00,4653.07 7987.00,4653.07 7987.00,4653.07              7987.00,4653.07 7832.00,4653.07 7832.00,4653.07              7832.00,4653.07 7752.00,4653.07 7752.00,4653.07 Z            M 7147.00,5240.07            C 7138.06,5241.58 7132.53,5241.86 7124.00,5245.89              7119.93,5247.81 7113.39,5252.27 7110.09,5255.30              7107.30,5257.87 7103.46,5262.75 7101.47,5266.00              7085.66,5291.81 7099.65,5318.51 7110.70,5343.00              7110.70,5343.00 7123.14,5368.00 7123.14,5368.00              7123.14,5368.00 7136.05,5390.00 7136.05,5390.00              7136.05,5390.00 7154.13,5416.00 7154.13,5416.00              7214.60,5496.00 7304.43,5550.16 7402.00,5571.21              7423.26,5575.80 7444.34,5578.60 7466.00,5580.09              7466.00,5580.09 7476.00,5581.00 7476.00,5581.00              7515.62,5581.46 7542.67,5580.76 7582.00,5573.39              7675.10,5555.94 7763.02,5506.95 7824.87,5435.00              7850.03,5405.74 7869.46,5375.14 7885.30,5340.00              7888.96,5331.89 7898.56,5308.92 7899.85,5301.00              7899.85,5301.00 7899.85,5288.00 7899.85,5288.00              7899.65,5258.50 7871.13,5240.04 7844.00,5240.07              7844.00,5240.07 7381.00,5240.07 7381.00,5240.07              7381.00,5240.07 7226.00,5240.07 7226.00,5240.07              7226.00,5240.07 7147.00,5240.07 7147.00,5240.07 Z            M 5094.00,5932.42            C 5102.46,5931.39 5106.89,5932.99 5115.00,5933.00              5130.44,5933.02 5145.78,5935.03 5161.00,5937.59              5213.84,5946.45 5264.38,5967.25 5308.00,5998.43              5332.67,6016.05 5351.07,6034.48 5373.00,6054.91              5373.00,6054.91 5419.00,6097.91 5419.00,6097.91              5419.00,6097.91 5646.00,6309.91 5646.00,6309.91              5646.00,6309.91 5737.00,6394.91 5737.00,6394.91              5763.44,6419.54 5780.19,6434.22 5802.12,6464.00              5842.05,6518.24 5870.68,6594.20 5871.00,6662.00              5871.00,6662.00 5872.00,6676.00 5872.00,6676.00              5872.00,6676.00 5871.00,6699.00 5871.00,6699.00              5871.00,6699.00 5870.09,6709.00 5870.09,6709.00              5868.08,6736.52 5862.39,6763.82 5853.67,6790.00              5822.17,6884.50 5754.94,6961.94 5664.00,7003.69              5621.86,7023.04 5573.46,7035.46 5527.00,7036.00              5527.00,7036.00 5514.00,7037.00 5514.00,7037.00              5514.00,7037.00 5502.00,7036.04 5502.00,7036.04              5502.00,7036.04 5491.00,7036.04 5491.00,7036.04              5475.85,7035.82 5451.04,7031.74 5436.00,7028.42              5392.34,7018.80 5351.32,7001.72 5314.00,6977.00              5282.29,6955.98 5255.69,6928.89 5228.00,6903.09              5228.00,6903.09 5137.00,6818.09 5137.00,6818.09              5137.00,6818.09 4925.00,6620.09 4925.00,6620.09              4925.00,6620.09 4864.00,6563.09 4864.00,6563.09              4864.00,6563.09 4835.17,6535.00 4835.17,6535.00              4814.36,6512.00 4796.26,6486.45 4781.78,6459.00              4720.81,6343.42 4728.93,6198.09 4802.34,6090.00              4828.92,6050.88 4863.34,6016.53 4903.00,5990.69              4942.57,5964.92 4987.51,5946.81 5034.00,5938.42              5046.33,5936.20 5067.83,5933.02 5080.00,5933.00              5085.21,5932.99 5088.75,5933.17 5094.00,5932.42 Z            M 9885.00,5932.42            C 9885.00,5932.42 9911.00,5933.00 9911.00,5933.00              9911.00,5933.00 9923.00,5933.91 9923.00,5933.91              9950.49,5935.92 9977.84,5941.61 10004.00,5950.33              10113.67,5986.89 10195.79,6069.38 10232.33,6179.00              10241.53,6206.58 10247.06,6235.03 10249.09,6264.00              10249.09,6264.00 10250.00,6274.00 10250.00,6274.00              10250.28,6298.36 10249.99,6318.74 10246.72,6343.00              10240.45,6389.53 10223.76,6435.62 10199.99,6476.00              10169.27,6528.18 10134.24,6556.81 10091.00,6597.09              10091.00,6597.09 9924.00,6753.09 9924.00,6753.09              9924.00,6753.09 9771.00,6896.09 9771.00,6896.09              9725.19,6938.77 9693.84,6972.75 9636.00,7000.74              9592.44,7021.82 9541.49,7035.44 9493.00,7036.00              9493.00,7036.00 9480.00,7037.00 9480.00,7037.00              9480.00,7037.00 9468.00,7036.04 9468.00,7036.04              9468.00,7036.04 9457.00,7036.04 9457.00,7036.04              9457.00,7036.04 9447.00,7035.09 9447.00,7035.09              9427.01,7033.63 9408.43,7030.23 9389.00,7025.37              9284.90,6999.34 9197.05,6925.44 9152.31,6828.00              9134.58,6789.38 9123.87,6747.34 9120.91,6705.00              9120.91,6705.00 9120.00,6693.00 9120.00,6693.00              9120.00,6693.00 9120.00,6662.00 9120.00,6662.00              9120.02,6646.66 9123.74,6621.31 9126.80,6606.00              9138.71,6546.47 9164.59,6492.68 9203.43,6446.00              9220.37,6425.65 9242.32,6405.64 9262.00,6387.83              9262.00,6387.83 9286.00,6365.09 9286.00,6365.09              9286.00,6365.09 9324.00,6329.91 9324.00,6329.91              9324.00,6329.91 9567.00,6102.91 9567.00,6102.91              9567.00,6102.91 9627.00,6046.91 9627.00,6046.91              9627.00,6046.91 9650.00,6025.17 9650.00,6025.17              9674.55,6002.96 9704.17,5982.70 9734.00,5968.26              9766.43,5952.56 9802.36,5941.52 9838.00,5936.27              9838.00,5936.27 9870.00,5933.00 9870.00,5933.00              9875.57,5932.94 9879.34,5933.23 9885.00,5932.42 Z            M 1428.00,8628.00            C 1428.00,8628.00 1428.00,8385.00 1428.00,8385.00              1428.00,8385.00 1428.96,8373.00 1428.96,8373.00              1428.96,8373.00 1428.96,8360.00 1428.96,8360.00              1428.96,8360.00 1430.00,8341.00 1430.00,8341.00              1430.00,8341.00 1430.91,8331.00 1430.91,8331.00              1430.91,8331.00 1437.72,8263.00 1437.72,8263.00              1455.39,8128.76 1502.96,7989.32 1585.65,7881.00              1631.57,7820.86 1685.03,7771.74 1753.00,7737.75              1784.59,7721.96 1830.48,7707.06 1866.00,7707.00              1886.51,7706.97 1901.31,7706.48 1921.00,7714.45              1962.51,7731.26 1977.20,7772.66 1980.09,7814.00              1980.09,7814.00 1981.00,7826.00 1981.00,7826.00              1981.00,7826.00 1981.00,8485.00 1981.00,8485.00              1981.00,8485.00 1981.00,9804.00 1981.00,9804.00              1981.00,9804.00 1981.00,10272.00 1981.00,10272.00              1981.00,10272.00 1980.09,10284.00 1980.09,10284.00              1977.48,10321.96 1967.09,10363.63 1932.00,10384.55              1911.31,10396.88 1885.72,10400.27 1862.00,10400.00              1862.00,10400.00 1852.00,10399.09 1852.00,10399.09              1777.15,10393.86 1707.17,10351.92 1653.00,10302.08              1640.46,10290.55 1627.99,10278.81 1616.72,10266.00              1616.72,10266.00 1583.00,10226.00 1583.00,10226.00              1578.33,10220.06 1569.80,10209.60 1567.00,10203.00              1567.00,10203.00 1544.00,10224.16 1544.00,10224.16              1495.51,10267.47 1446.01,10300.48 1389.00,10331.31              1312.31,10372.78 1221.79,10402.95 1136.00,10418.42              1088.02,10427.08 1037.71,10433.43 989.00,10434.00              989.00,10434.00 976.00,10435.00 976.00,10435.00              976.00,10435.00 928.00,10435.00 928.00,10435.00              928.00,10435.00 918.00,10434.04 918.00,10434.04              918.00,10434.04 903.00,10434.04 903.00,10434.04              903.00,10434.04 893.00,10433.09 893.00,10433.09              893.00,10433.09 865.00,10431.17 865.00,10431.17              827.97,10427.63 791.55,10423.11 755.00,10415.80              687.31,10402.26 615.77,10380.51 553.00,10351.69              408.83,10285.51 292.27,10193.41 195.88,10067.00              97.01,9937.33 30.56,9772.65 9.28,9611.00              9.28,9611.00 1.91,9535.00 1.91,9535.00              1.91,9535.00 1.00,9525.00 1.00,9525.00              1.00,9525.00 0.00,9504.00 0.00,9504.00              0.00,9504.00 0.00,9430.00 0.00,9430.00              0.00,9430.00 1.00,9409.00 1.00,9409.00              1.00,9409.00 1.91,9399.00 1.91,9399.00              1.91,9399.00 5.84,9354.00 5.84,9354.00              10.51,9310.33 18.24,9266.62 28.89,9224.00              58.16,9106.93 109.02,8995.33 179.00,8897.00              262.89,8779.12 378.06,8675.28 507.00,8608.74              507.00,8608.74 535.00,8594.26 535.00,8594.26              617.37,8554.39 704.77,8526.73 795.00,8511.59              825.68,8506.44 874.41,8500.35 905.00,8500.00              905.00,8500.00 920.00,8499.00 920.00,8499.00              920.00,8499.00 995.00,8499.00 995.00,8499.00              995.00,8499.00 1017.00,8500.00 1017.00,8500.00              1017.00,8500.00 1028.00,8500.96 1028.00,8500.96              1055.79,8502.17 1083.45,8505.76 1111.00,8509.73              1201.32,8522.75 1292.73,8552.28 1373.00,8595.69              1373.00,8595.69 1428.00,8628.00 1428.00,8628.00 Z            M 7206.00,7707.21            C 7206.00,7707.21 7233.00,7707.21 7233.00,7707.21              7257.81,7707.04 7287.13,7716.33 7304.91,7734.09              7326.94,7756.09 7334.89,7789.94 7337.09,7820.00              7337.09,7820.00 7338.00,7832.00 7338.00,7832.00              7338.00,7832.00 7338.00,8268.00 7338.00,8268.00              7338.00,8268.00 7338.00,9883.00 7338.00,9883.00              7338.00,9883.00 7338.00,10138.00 7338.00,10138.00              7338.00,10189.58 7341.43,10248.59 7317.73,10296.00              7290.84,10349.78 7237.12,10366.59 7181.00,10369.04              7181.00,10369.04 7168.00,10370.00 7168.00,10370.00              7168.00,10370.00 7077.00,10370.00 7077.00,10370.00              7077.00,10370.00 7019.00,10370.00 7019.00,10370.00              6948.62,10370.00 6855.41,10376.92 6812.42,10308.00              6803.55,10293.77 6798.00,10279.15 6793.73,10263.00              6790.38,10250.27 6786.06,10222.93 6786.00,10210.00              6786.00,10210.00 6785.00,10191.00 6785.00,10191.00              6785.00,10191.00 6785.00,9293.00 6785.00,9293.00              6785.00,9293.00 6785.00,8395.00 6785.00,8395.00              6785.00,8395.00 6786.00,8378.00 6786.00,8378.00              6786.05,8345.53 6789.38,8313.26 6792.84,8281.00              6807.82,8140.97 6857.75,7993.17 6942.63,7880.00              6991.85,7814.37 7059.86,7751.70 7138.00,7723.05              7154.82,7716.89 7172.28,7712.01 7190.00,7709.27              7190.00,7709.27 7206.00,7707.21 7206.00,7707.21 Z            M 8014.00,7707.21            C 8014.00,7707.21 8032.00,7707.21 8032.00,7707.21              8055.46,7707.00 8072.82,7707.96 8096.00,7712.60              8205.35,7734.47 8293.70,7812.09 8329.00,7918.00              8336.61,7940.82 8343.88,7974.02 8344.00,7998.00              8344.00,7998.00 8345.00,8012.00 8345.00,8012.00              8345.00,8012.00 8344.00,8036.00 8344.00,8036.00              8343.75,8057.16 8335.82,8093.76 8329.00,8114.00              8297.19,8208.27 8221.40,8282.55 8126.00,8311.28              8106.54,8317.14 8075.14,8323.76 8055.00,8324.04              8055.00,8324.04 8044.00,8324.04 8044.00,8324.04              8040.13,8324.35 8038.29,8325.15 8034.00,8324.91              8034.00,8324.91 8016.00,8324.00 8016.00,8324.00              8016.00,8324.00 8006.00,8323.09 8006.00,8323.09              7981.53,8321.30 7957.25,8315.76 7934.00,8308.00              7906.86,8298.95 7879.40,8284.70 7856.00,8268.28              7837.62,8255.38 7817.01,8237.03 7802.43,8220.00              7723.07,8127.34 7704.59,7998.47 7753.86,7887.00              7787.20,7811.58 7852.53,7752.26 7930.00,7724.69              7951.43,7717.07 7972.47,7712.25 7995.00,7709.28              7995.00,7709.28 8014.00,7707.21 8014.00,7707.21 Z            M 11245.00,9813.00            C 11238.45,9810.21 11229.76,9802.61 11224.00,9798.00              11224.00,9798.00 11184.00,9763.04 11184.00,9763.04              11184.00,9763.04 11163.04,9743.00 11163.04,9743.00              11121.87,9699.96 11086.05,9651.72 11058.22,9599.00              11020.86,9528.23 10999.06,9458.29 10988.72,9379.00              10986.12,9359.10 10984.23,9339.06 10984.00,9319.00              10984.00,9319.00 10983.00,9304.00 10983.00,9304.00              10983.00,9304.00 10983.00,9280.00 10983.00,9280.00              10983.00,9280.00 10983.96,9268.00 10983.96,9268.00              10983.96,9268.00 10983.96,9254.00 10983.96,9254.00              10983.96,9254.00 10984.96,9243.00 10984.96,9243.00              10986.25,9213.50 10990.33,9184.07 10995.58,9155.00              11012.10,9063.39 11046.45,8976.95 11097.34,8899.00              11144.60,8826.63 11202.79,8770.90 11272.00,8719.88              11393.65,8630.21 11534.26,8573.99 11684.00,8554.28              11722.48,8549.22 11761.20,8546.06 11800.00,8546.00              11800.00,8546.00 11817.00,8545.00 11817.00,8545.00              11817.00,8545.00 11834.00,8545.00 11834.00,8545.00              11834.00,8545.00 11850.00,8546.00 11850.00,8546.00              11850.00,8546.00 11872.00,8546.00 11872.00,8546.00              11872.00,8546.00 11889.00,8547.00 11889.00,8547.00              11889.00,8547.00 11905.00,8548.00 11905.00,8548.00              11905.00,8548.00 11914.00,8548.00 11914.00,8548.00              11914.00,8548.00 11956.00,8551.83 11956.00,8551.83              12031.93,8559.18 12106.95,8572.89 12182.00,8586.42              12227.57,8594.64 12277.93,8604.03 12324.00,8606.04              12324.00,8606.04 12335.00,8607.00 12335.00,8607.00              12372.39,8607.43 12400.10,8605.93 12437.00,8598.55              12507.30,8584.49 12593.97,8547.52 12660.00,8518.14              12660.00,8518.14 12750.00,8477.22 12750.00,8477.22              12770.20,8467.68 12797.38,8454.27 12820.00,8454.00              12820.00,8454.00 12833.00,8454.00 12833.00,8454.00              12865.70,8454.05 12887.64,8476.34 12901.24,8504.00              12914.22,8530.38 12919.06,8562.92 12921.09,8592.00              12921.09,8592.00 12922.04,8603.00 12922.04,8603.00              12922.04,8603.00 12922.04,8620.00 12922.04,8620.00              12922.04,8620.00 12922.96,8631.00 12922.96,8631.00              12922.96,8631.00 12922.00,8644.00 12922.00,8644.00              12922.00,8644.00 12922.00,8657.00 12922.00,8657.00              12922.00,8657.00 12921.09,8667.00 12921.09,8667.00              12919.56,8689.28 12916.79,8711.06 12912.40,8733.00              12890.54,8842.27 12831.23,8940.19 12740.00,9005.42              12721.92,9018.35 12691.08,9038.35 12671.00,9047.00              12671.00,9047.00 12687.66,9089.00 12687.66,9089.00              12702.12,9130.68 12709.98,9162.34 12716.27,9206.00              12716.27,9206.00 12721.00,9254.00 12721.00,9254.00              12721.00,9254.00 12722.00,9272.00 12722.00,9272.00              12722.00,9272.00 12722.00,9314.00 12722.00,9314.00              12722.00,9314.00 12721.00,9329.00 12721.00,9329.00              12721.00,9329.00 12720.09,9342.00 12720.09,9342.00              12718.25,9368.92 12714.70,9395.50 12709.40,9422.00              12691.60,9511.00 12657.53,9589.34 12605.98,9664.00              12583.68,9696.29 12548.60,9737.27 12520.00,9763.91              12520.00,9763.91 12483.00,9796.39 12483.00,9796.39              12477.14,9801.15 12465.17,9809.66 12461.00,9815.00              12468.46,9817.13 12476.09,9822.12 12483.00,9825.75              12501.30,9835.34 12518.82,9846.55 12536.00,9858.00              12606.65,9905.10 12667.55,9965.32 12714.67,10036.00              12773.27,10123.91 12808.51,10220.37 12822.28,10325.00              12822.28,10325.00 12827.09,10373.00 12827.09,10373.00              12827.09,10373.00 12828.00,10383.00 12828.00,10383.00              12828.00,10383.00 12829.00,10404.00 12829.00,10404.00              12829.00,10404.00 12829.00,10460.00 12829.00,10460.00              12829.00,10460.00 12828.00,10482.00 12828.00,10482.00              12828.00,10482.00 12827.04,10493.00 12827.04,10493.00              12825.78,10521.83 12821.85,10550.47 12817.42,10579.00              12804.14,10664.55 12774.89,10753.82 12733.69,10830.00              12678.05,10932.90 12600.97,11022.01 12506.00,11090.58              12372.69,11186.82 12220.79,11240.44 12059.00,11264.27              12025.71,11269.17 11992.52,11272.80 11959.00,11275.09              11959.00,11275.09 11928.00,11277.00 11928.00,11277.00              11928.00,11277.00 11912.00,11278.04 11912.00,11278.04              11912.00,11278.04 11896.00,11278.04 11896.00,11278.04              11896.00,11278.04 11884.00,11279.00 11884.00,11279.00              11884.00,11279.00 11817.00,11279.00 11817.00,11279.00              11817.00,11279.00 11802.00,11278.00 11802.00,11278.00              11802.00,11278.00 11788.00,11278.00 11788.00,11278.00              11788.00,11278.00 11768.00,11277.00 11768.00,11277.00              11768.00,11277.00 11757.00,11276.04 11757.00,11276.04              11725.60,11274.67 11694.20,11271.35 11663.00,11267.28              11559.05,11253.72 11460.80,11229.20 11364.00,11188.58              11256.79,11143.59 11155.56,11077.30 11076.09,10992.00              10981.29,10890.25 10919.44,10768.20 10892.20,10632.00              10884.83,10595.14 10879.59,10557.52 10877.96,10520.00              10877.96,10520.00 10876.96,10509.00 10876.96,10509.00              10876.96,10509.00 10876.96,10495.00 10876.96,10495.00              10876.96,10495.00 10876.00,10483.00 10876.00,10483.00              10876.00,10483.00 10876.00,10447.00 10876.00,10447.00              10876.00,10447.00 10877.00,10434.00 10877.00,10434.00              10877.38,10401.11 10881.54,10365.52 10886.92,10333.00              10900.86,10248.81 10927.68,10168.12 10968.31,10093.00              11012.47,10011.33 11073.32,9936.87 11146.00,9879.00              11166.73,9862.50 11188.48,9847.38 11211.00,9833.42              11211.00,9833.42 11245.00,9813.00 11245.00,9813.00 Z            M 5452.00,8486.14            C 5452.00,8486.14 5479.00,8486.14 5479.00,8486.14              5479.00,8486.14 5515.00,8486.14 5515.00,8486.14              5515.00,8486.14 5527.00,8486.96 5527.00,8486.96              5527.00,8486.96 5540.00,8486.96 5540.00,8486.96              5540.00,8486.96 5550.00,8488.00 5550.00,8488.00              5550.00,8488.00 5559.00,8488.00 5559.00,8488.00              5559.00,8488.00 5590.00,8490.83 5590.00,8490.83              5626.01,8494.43 5661.48,8499.50 5697.00,8506.60              5795.29,8526.26 5890.37,8561.22 5978.00,8609.86              6045.85,8647.52 6108.28,8694.25 6165.00,8747.09              6191.90,8772.15 6216.91,8799.76 6240.41,8828.00              6345.75,8954.58 6415.23,9108.17 6444.42,9270.00              6450.76,9305.11 6455.64,9340.43 6458.09,9376.00              6458.09,9376.00 6460.00,9400.00 6460.00,9400.00              6460.00,9400.00 6461.12,9422.00 6461.12,9422.00              6461.12,9422.00 6461.12,9450.00 6461.12,9450.00              6461.12,9450.00 6461.12,9462.00 6461.12,9462.00              6461.12,9462.00 6461.12,9498.00 6461.12,9498.00              6461.12,9498.00 6460.00,9519.00 6460.00,9519.00              6460.00,9519.00 6459.09,9529.00 6459.09,9529.00              6459.09,9529.00 6452.28,9598.00 6452.28,9598.00              6444.42,9657.68 6430.80,9716.73 6412.26,9774.00              6368.53,9909.06 6293.12,10035.46 6195.04,10138.00              6195.04,10138.00 6170.00,10163.96 6170.00,10163.96              6075.97,10253.90 5966.71,10324.28 5845.00,10370.58              5783.51,10393.97 5719.84,10410.53 5655.00,10421.41              5627.24,10426.07 5576.34,10432.68 5549.00,10433.00              5549.00,10433.00 5536.00,10434.04 5536.00,10434.04              5536.00,10434.04 5521.00,10434.04 5521.00,10434.04              5521.00,10434.04 5509.00,10435.00 5509.00,10435.00              5509.00,10435.00 5464.00,10435.00 5464.00,10435.00              5464.00,10435.00 5449.00,10434.00 5449.00,10434.00              5449.00,10434.00 5438.00,10434.00 5438.00,10434.00              5438.00,10434.00 5420.00,10433.00 5420.00,10433.00              5420.00,10433.00 5410.00,10432.09 5410.00,10432.09              5410.00,10432.09 5350.00,10426.15 5350.00,10426.15              5286.55,10418.57 5220.59,10402.86 5160.00,10382.67              5065.87,10351.29 4976.86,10304.99 4897.00,10246.12              4835.62,10200.87 4779.76,10147.97 4731.42,10089.00              4681.58,10028.19 4638.15,9960.51 4605.31,9889.00              4564.58,9800.30 4535.47,9704.90 4522.72,9608.00              4519.35,9582.40 4516.09,9556.78 4514.96,9531.00              4514.96,9531.00 4514.00,9520.00 4514.00,9520.00              4514.00,9520.00 4513.00,9499.00 4513.00,9499.00              4513.00,9499.00 4512.32,9459.00 4512.32,9459.00              4512.32,9459.00 4513.00,9423.00 4513.00,9423.00              4513.00,9423.00 4514.00,9404.00 4514.00,9404.00              4514.00,9404.00 4514.91,9392.00 4514.91,9392.00              4514.91,9392.00 4519.85,9338.00 4519.85,9338.00              4524.79,9296.63 4532.27,9255.43 4542.37,9215.00              4557.61,9154.07 4579.11,9095.04 4605.31,9038.00              4626.40,8992.08 4652.26,8947.74 4680.66,8906.00              4806.47,8721.09 4986.30,8591.08 5200.00,8526.72              5247.32,8512.47 5313.91,8498.42 5363.00,8493.16              5363.00,8493.16 5416.00,8488.00 5416.00,8488.00              5416.00,8488.00 5425.00,8488.00 5425.00,8488.00              5425.00,8488.00 5436.00,8487.00 5436.00,8487.00              5441.47,8486.98 5446.56,8487.20 5452.00,8486.14 Z            M 13991.00,8486.14            C 13991.00,8486.14 14018.00,8486.14 14018.00,8486.14              14018.00,8486.14 14054.00,8486.14 14054.00,8486.14              14054.00,8486.14 14066.00,8486.96 14066.00,8486.96              14066.00,8486.96 14079.00,8486.96 14079.00,8486.96              14079.00,8486.96 14090.00,8487.96 14090.00,8487.96              14090.00,8487.96 14139.00,8491.83 14139.00,8491.83              14183.15,8496.25 14226.82,8503.88 14270.00,8514.12              14430.04,8552.07 14577.54,8629.69 14698.00,8741.91              14698.00,8741.91 14738.91,8782.00 14738.91,8782.00              14831.37,8881.25 14897.86,8990.29 14943.31,9118.00              14966.89,9184.27 14985.68,9265.04 14993.16,9335.00              14993.16,9335.00 14998.09,9391.00 14998.09,9391.00              14998.09,9391.00 14999.00,9401.00 14999.00,9401.00              14999.00,9401.00 15000.00,9422.00 15000.00,9422.00              15000.00,9422.00 15000.00,9497.00 15000.00,9497.00              15000.00,9497.00 14999.00,9514.00 14999.00,9514.00              14999.00,9514.00 14996.17,9554.00 14996.17,9554.00              14991.75,9599.68 14984.93,9644.22 14974.65,9689.00              14935.95,9857.63 14852.69,10013.90 14733.04,10139.00              14733.04,10139.00 14711.00,10161.99 14711.00,10161.99              14711.00,10161.99 14702.00,10170.09 14702.00,10170.09              14702.00,10170.09 14652.00,10214.75 14652.00,10214.75              14580.31,10273.99 14499.74,10322.60 14414.00,10358.58              14342.97,10388.38 14269.90,10408.68 14194.00,10421.41              14166.65,10426.00 14114.88,10432.69 14088.00,10433.00              14088.00,10433.00 14078.00,10433.96 14078.00,10433.96              14078.00,10433.96 14063.00,10433.96 14063.00,10433.96              14063.00,10433.96 14048.00,10435.00 14048.00,10435.00              14048.00,10435.00 14003.00,10435.00 14003.00,10435.00              14003.00,10435.00 13988.00,10434.00 13988.00,10434.00              13988.00,10434.00 13977.00,10434.00 13977.00,10434.00              13977.00,10434.00 13959.00,10433.00 13959.00,10433.00              13959.00,10433.00 13949.00,10432.09 13949.00,10432.09              13949.00,10432.09 13889.00,10426.15 13889.00,10426.15              13825.55,10418.57 13759.59,10402.86 13699.00,10382.67              13607.09,10352.03 13519.28,10306.96 13441.00,10249.85              13377.67,10203.65 13320.12,10149.63 13270.42,10089.00              13225.50,10034.20 13186.50,9974.39 13154.81,9911.00              13112.91,9827.20 13084.19,9737.11 13067.58,9645.00              13061.61,9611.92 13057.21,9578.51 13054.91,9545.00              13054.91,9545.00 13053.00,9515.00 13053.00,9515.00              13053.00,9515.00 13052.00,9502.00 13052.00,9502.00              13052.00,9502.00 13052.00,9477.00 13052.00,9477.00              13052.00,9477.00 13051.00,9459.00 13051.00,9459.00              13051.00,9459.00 13052.00,9445.00 13052.00,9445.00              13052.00,9445.00 13052.00,9420.00 13052.00,9420.00              13052.00,9420.00 13053.00,9407.00 13053.00,9407.00              13053.00,9407.00 13054.91,9377.00 13054.91,9377.00              13058.06,9331.92 13065.67,9284.16 13075.42,9240.00              13090.87,9170.06 13114.45,9103.03 13144.31,9038.00              13165.14,8992.62 13192.66,8945.09 13220.98,8904.00              13252.93,8857.63 13283.01,8820.72 13321.96,8780.00              13321.96,8780.00 13339.00,8762.01 13339.00,8762.01              13339.00,8762.01 13349.00,8752.96 13349.00,8752.96              13460.16,8646.64 13591.87,8571.03 13739.00,8526.72              13786.32,8512.47 13852.91,8498.42 13902.00,8493.16              13902.00,8493.16 13955.00,8488.00 13955.00,8488.00              13955.00,8488.00 13964.00,8488.00 13964.00,8488.00              13964.00,8488.00 13975.00,8487.00 13975.00,8487.00              13980.47,8486.98 13985.56,8487.20 13991.00,8486.14 Z            M 9193.00,8776.00            C 9199.27,8767.13 9207.35,8759.65 9215.00,8752.00              9215.00,8752.00 9255.00,8714.87 9255.00,8714.87              9311.08,8666.58 9373.71,8625.59 9441.00,8594.69              9516.37,8560.09 9587.90,8538.57 9670.00,8526.73              9692.92,8523.43 9715.89,8520.97 9739.00,8519.96              9739.00,8519.96 9752.00,8519.00 9752.00,8519.00              9752.00,8519.00 9772.00,8519.00 9772.00,8519.00              9772.00,8519.00 9788.00,8518.01 9788.00,8518.01              9788.00,8518.01 9801.00,8519.00 9801.00,8519.00              9801.00,8519.00 9828.00,8519.00 9828.00,8519.00              9828.00,8519.00 9848.00,8520.00 9848.00,8520.00              9848.00,8520.00 9859.00,8520.96 9859.00,8520.96              9859.00,8520.96 9922.00,8526.85 9922.00,8526.85              10014.15,8537.86 10113.85,8566.44 10196.00,8609.78              10292.60,8660.74 10374.58,8731.36 10438.58,8820.00              10537.86,8957.51 10591.40,9132.31 10608.17,9300.00              10608.17,9300.00 10611.83,9335.00 10611.83,9335.00              10611.83,9335.00 10614.09,9371.00 10614.09,9371.00              10614.09,9371.00 10615.00,9386.00 10615.00,9386.00              10615.00,9386.00 10616.04,9401.00 10616.04,9401.00              10616.04,9401.00 10616.04,9414.00 10616.04,9414.00              10616.04,9414.00 10617.00,9425.00 10617.00,9425.00              10617.00,9425.00 10617.00,9734.00 10617.00,9734.00              10617.00,9734.00 10617.00,10095.00 10617.00,10095.00              10617.00,10095.00 10617.00,10176.00 10617.00,10176.00              10617.00,10176.00 10617.00,10204.00 10617.00,10204.00              10617.00,10204.00 10616.09,10216.00 10616.09,10216.00              10614.38,10240.85 10610.44,10265.91 10600.57,10289.00              10594.18,10303.95 10583.90,10319.83 10572.00,10330.91              10544.30,10356.72 10505.53,10365.35 10469.00,10368.96              10469.00,10368.96 10460.00,10368.96 10460.00,10368.96              10460.00,10368.96 10448.00,10370.00 10448.00,10370.00              10448.00,10370.00 10361.00,10370.00 10361.00,10370.00              10361.00,10370.00 10302.00,10370.00 10302.00,10370.00              10238.24,10370.00 10154.12,10376.34 10106.85,10324.96              10100.93,10318.53 10095.77,10311.59 10091.43,10304.00              10083.64,10290.39 10079.16,10278.13 10075.37,10263.00              10071.76,10248.56 10069.58,10233.81 10068.04,10219.00              10068.04,10219.00 10068.04,10209.00 10068.04,10209.00              10068.04,10209.00 10067.00,10197.00 10067.00,10197.00              10067.00,10197.00 10067.00,9701.00 10067.00,9701.00              10067.00,9701.00 10067.00,9476.00 10067.00,9476.00              10067.00,9476.00 10066.00,9461.00 10066.00,9461.00              10066.00,9461.00 10066.00,9453.00 10066.00,9453.00              10066.00,9453.00 10065.04,9442.00 10065.04,9442.00              10063.97,9417.59 10061.07,9393.13 10057.08,9369.00              10042.16,9278.91 10009.28,9191.74 9940.00,9129.17              9897.19,9090.50 9840.60,9066.09 9784.00,9056.59              9770.93,9054.39 9749.90,9051.15 9737.00,9051.00              9737.00,9051.00 9717.00,9050.00 9717.00,9050.00              9717.00,9050.00 9697.00,9050.00 9697.00,9050.00              9697.00,9050.00 9678.00,9051.00 9678.00,9051.00              9659.98,9051.22 9626.91,9056.87 9609.00,9061.12              9522.48,9081.66 9447.94,9129.25 9397.02,9203.00              9356.07,9262.32 9332.97,9328.97 9322.73,9400.00              9319.73,9420.80 9317.24,9441.99 9317.00,9463.00              9317.00,9463.00 9316.00,9478.00 9316.00,9478.00              9316.00,9478.00 9316.00,9612.00 9316.00,9612.00              9316.00,9612.00 9316.00,10005.00 9316.00,10005.00              9316.00,10005.00 9316.00,10202.00 9316.00,10202.00              9316.00,10202.00 9315.09,10212.00 9315.09,10212.00              9312.27,10253.18 9304.33,10297.33 9273.83,10327.83              9244.19,10357.48 9199.48,10367.27 9159.00,10369.04              9159.00,10369.04 9146.00,10370.00 9146.00,10370.00              9146.00,10370.00 9060.00,10370.00 9060.00,10370.00              9060.00,10370.00 8999.00,10370.00 8999.00,10370.00              8956.35,10370.00 8909.21,10372.52 8868.00,10360.86              8846.30,10354.72 8824.02,10344.29 8808.04,10327.99              8800.99,10320.80 8794.43,10311.74 8789.43,10303.00              8782.67,10291.20 8777.19,10276.20 8773.89,10263.00              8769.88,10246.93 8766.03,10219.46 8766.00,10203.00              8766.00,10203.00 8766.00,8934.00 8766.00,8934.00              8766.00,8934.00 8766.00,8676.00 8766.00,8676.00              8766.00,8676.00 8766.91,8664.00 8766.91,8664.00              8769.81,8624.29 8782.90,8583.86 8821.00,8564.81              8838.35,8556.13 8862.73,8552.78 8882.00,8553.00              8882.00,8553.00 8892.00,8553.91 8892.00,8553.91              8892.00,8553.91 8917.00,8556.43 8917.00,8556.43              9004.45,8571.11 9079.91,8631.00 9135.73,8697.00              9150.05,8713.93 9162.94,8731.80 9175.57,8750.00              9175.57,8750.00 9193.00,8776.00 9193.00,8776.00 Z            M 3788.00,10184.00            C 3718.43,10259.71 3637.42,10318.79 3544.00,10361.69              3459.80,10400.36 3370.99,10422.26 3279.00,10431.17              3279.00,10431.17 3232.00,10434.00 3232.00,10434.00              3232.00,10434.00 3217.00,10435.00 3217.00,10435.00              3217.00,10435.00 3176.00,10435.00 3176.00,10435.00              3176.00,10435.00 3161.00,10434.00 3161.00,10434.00              3161.00,10434.00 3149.00,10434.00 3149.00,10434.00              3149.00,10434.00 3131.00,10433.00 3131.00,10433.00              3131.00,10433.00 3109.00,10431.17 3109.00,10431.17              3078.72,10428.27 3048.99,10424.83 3019.00,10419.42              2957.90,10408.40 2897.82,10390.98 2841.00,10365.86              2841.00,10365.86 2808.00,10350.74 2808.00,10350.74              2739.10,10315.43 2682.68,10274.81 2627.09,10220.83              2627.09,10220.83 2618.99,10212.00 2618.99,10212.00              2591.06,10183.38 2566.21,10152.75 2543.28,10120.00              2458.65,9999.10 2408.14,9847.32 2386.73,9702.00              2380.99,9663.05 2376.60,9624.23 2373.91,9585.00              2373.91,9585.00 2372.00,9555.00 2372.00,9555.00              2372.00,9555.00 2370.96,9541.00 2370.96,9541.00              2370.96,9541.00 2370.96,9526.00 2370.96,9526.00              2370.96,9526.00 2370.00,9514.00 2370.00,9514.00              2370.00,9514.00 2370.00,9180.00 2370.00,9180.00              2370.00,9180.00 2370.00,8749.00 2370.00,8749.00              2370.00,8749.00 2370.91,8737.00 2370.91,8737.00              2373.69,8697.24 2384.21,8651.01 2415.00,8623.17              2441.52,8599.19 2474.33,8589.99 2509.00,8585.85              2509.00,8585.85 2529.00,8584.00 2529.00,8584.00              2529.00,8584.00 2551.00,8583.00 2551.00,8583.00              2551.00,8583.00 2638.00,8583.00 2638.00,8583.00              2638.00,8583.00 2694.00,8583.00 2694.00,8583.00              2694.00,8583.00 2727.00,8583.00 2727.00,8583.00              2789.62,8583.00 2865.53,8586.61 2902.58,8646.00              2911.35,8660.07 2916.92,8675.03 2921.12,8691.00              2924.89,8705.37 2928.98,8735.24 2929.00,8750.00              2929.00,8750.00 2929.00,9242.00 2929.00,9242.00              2929.00,9242.00 2929.00,9465.00 2929.00,9465.00              2929.00,9465.00 2930.00,9480.00 2930.00,9480.00              2930.00,9480.00 2930.00,9495.00 2930.00,9495.00              2930.00,9495.00 2931.00,9508.00 2931.00,9508.00              2931.00,9508.00 2931.00,9512.00 2931.00,9512.00              2931.00,9512.00 2931.91,9522.00 2931.91,9522.00              2933.46,9544.48 2936.04,9566.74 2939.75,9589.00              2954.18,9675.55 2986.45,9762.64 3053.00,9822.83              3104.06,9869.01 3167.17,9892.91 3235.00,9900.16              3235.00,9900.16 3259.00,9902.09 3259.00,9902.09              3259.00,9902.09 3271.00,9903.00 3271.00,9903.00              3271.00,9903.00 3307.00,9903.00 3307.00,9903.00              3307.00,9903.00 3317.00,9902.09 3317.00,9902.09              3317.00,9902.09 3354.00,9898.27 3354.00,9898.27              3449.78,9884.46 3531.19,9834.72 3585.33,9754.00              3638.47,9674.77 3659.90,9574.25 3661.00,9480.00              3661.00,9480.00 3662.00,9465.00 3662.00,9465.00              3662.00,9465.00 3662.00,9352.00 3662.00,9352.00              3662.00,9352.00 3662.00,8949.00 3662.00,8949.00              3662.00,8949.00 3662.00,8747.00 3662.00,8747.00              3662.00,8747.00 3663.84,8726.00 3663.84,8726.00              3667.74,8689.48 3678.24,8650.07 3706.00,8624.09              3731.79,8599.96 3766.73,8589.94 3801.00,8585.85              3801.00,8585.85 3821.00,8584.00 3821.00,8584.00              3821.00,8584.00 3843.00,8583.00 3843.00,8583.00              3843.00,8583.00 3926.00,8583.00 3926.00,8583.00              3926.00,8583.00 3986.00,8583.00 3986.00,8583.00              3986.00,8583.00 4040.00,8583.00 4040.00,8583.00              4040.00,8583.00 4062.00,8584.00 4062.00,8584.00              4062.00,8584.00 4082.00,8585.85 4082.00,8585.85              4117.03,8590.03 4153.31,8600.38 4178.96,8626.04              4186.53,8633.61 4193.26,8643.71 4198.57,8653.00              4204.76,8663.81 4210.08,8678.88 4213.11,8691.00              4217.12,8707.07 4220.97,8734.54 4221.00,8751.00              4221.00,8751.00 4221.00,10020.00 4221.00,10020.00              4221.00,10020.00 4221.00,10102.00 4221.00,10102.00              4221.00,10102.00 4221.00,10162.00 4221.00,10162.00              4221.00,10162.00 4221.00,10208.00 4221.00,10208.00              4221.00,10208.00 4221.00,10275.00 4221.00,10275.00              4220.99,10283.93 4219.18,10297.16 4217.40,10306.00              4211.20,10336.80 4198.19,10364.60 4171.00,10382.31              4163.44,10387.23 4154.66,10391.67 4146.00,10394.28              4135.80,10397.36 4121.63,10399.95 4111.00,10400.00              4111.00,10400.00 4096.00,10400.00 4096.00,10400.00              4096.00,10400.00 4086.00,10399.09 4086.00,10399.09              4060.95,10397.26 4036.53,10391.38 4013.00,10382.68              3945.50,10357.73 3887.47,10311.11 3840.87,10257.00              3840.87,10257.00 3806.71,10213.00 3806.71,10213.00              3801.13,10205.16 3792.09,10192.39 3788.00,10184.00 Z            M 7931.00,8583.11            C 7931.00,8583.11 7975.00,8583.11 7975.00,8583.11              7975.00,8583.11 8058.00,8583.11 8058.00,8583.11              8058.00,8583.11 8098.00,8583.11 8098.00,8583.11              8157.18,8583.00 8229.19,8582.01 8272.91,8629.00              8278.07,8634.55 8285.03,8644.33 8288.69,8651.00              8295.53,8663.45 8300.83,8677.18 8304.12,8691.00              8307.98,8707.29 8309.94,8723.35 8311.09,8740.00              8311.09,8740.00 8312.00,8752.00 8312.00,8752.00              8312.00,8752.00 8312.00,9907.00 8312.00,9907.00              8312.00,9907.00 8312.00,10153.00 8312.00,10153.00              8312.00,10204.65 8314.31,10261.31 8285.94,10307.00              8257.50,10352.80 8204.62,10366.83 8154.00,10369.04              8154.00,10369.04 8141.00,10370.00 8141.00,10370.00              8141.00,10370.00 7928.00,10370.00 7928.00,10370.00              7928.00,10370.00 7918.00,10368.96 7918.00,10368.96              7918.00,10368.96 7909.00,10368.96 7909.00,10368.96              7893.19,10367.32 7877.35,10365.05 7862.00,10360.85              7849.92,10357.54 7835.75,10351.94 7825.00,10345.55              7785.30,10321.93 7768.98,10282.91 7762.87,10239.00              7762.87,10239.00 7760.00,10212.00 7760.00,10212.00              7760.00,10212.00 7759.00,10191.00 7759.00,10191.00              7759.00,10191.00 7759.00,10132.00 7759.00,10132.00              7759.00,10132.00 7759.00,10073.00 7759.00,10073.00              7759.00,10073.00 7759.00,9991.00 7759.00,9991.00              7759.00,9991.00 7759.00,8943.00 7759.00,8943.00              7759.00,8943.00 7759.00,8762.00 7759.00,8762.00              7759.00,8762.00 7760.00,8747.00 7760.00,8747.00              7760.56,8698.96 7774.73,8642.75 7816.00,8613.72              7841.05,8596.10 7871.82,8588.09 7902.00,8585.17              7902.00,8585.17 7917.00,8584.00 7917.00,8584.00              7922.42,8583.94 7925.46,8584.21 7931.00,8583.11 Z            M 979.00,9006.19            C 972.63,9007.20 969.28,9006.99 963.00,9007.00              963.00,9007.00 935.00,9009.17 935.00,9009.17              910.01,9011.67 885.29,9016.50 861.00,9022.88              761.66,9048.99 675.58,9112.40 621.81,9200.00              589.02,9253.43 567.67,9313.97 558.73,9376.00              558.73,9376.00 553.91,9421.00 553.91,9421.00              553.91,9421.00 553.00,9431.00 553.00,9431.00              553.00,9431.00 553.00,9446.00 553.00,9446.00              553.00,9446.00 552.01,9462.00 552.01,9462.00              552.01,9462.00 552.98,9472.00 552.98,9472.00              552.98,9472.00 552.98,9490.00 552.98,9490.00              552.98,9490.00 553.91,9500.00 553.91,9500.00              555.51,9523.26 558.42,9546.10 563.00,9569.00              586.28,9685.43 649.50,9788.40 752.00,9851.19              781.45,9869.23 815.83,9884.73 849.00,9894.42              883.61,9904.54 918.06,9910.63 954.00,9913.09              954.00,9913.09 964.00,9914.16 964.00,9914.16              964.00,9914.16 992.00,9914.16 992.00,9914.16              992.00,9914.16 1015.00,9914.16 1015.00,9914.16              1015.00,9914.16 1027.00,9913.09 1027.00,9913.09              1051.97,9911.37 1076.52,9907.98 1101.00,9902.58              1202.80,9880.09 1293.21,9820.22 1351.00,9733.00              1386.19,9679.89 1408.14,9621.54 1419.42,9559.00              1423.05,9538.92 1426.77,9513.25 1427.00,9493.00              1427.00,9493.00 1428.00,9478.00 1428.00,9478.00              1428.00,9478.00 1428.00,9443.00 1428.00,9443.00              1428.00,9443.00 1427.00,9424.00 1427.00,9424.00              1427.00,9424.00 1426.09,9414.00 1426.09,9414.00              1424.13,9386.05 1419.67,9358.20 1412.87,9331.00              1385.45,9221.32 1324.24,9127.14 1226.00,9068.20              1196.58,9050.55 1164.97,9036.21 1132.00,9026.58              1093.58,9015.34 1051.09,9007.19 1011.00,9007.00              1011.00,9007.00 1000.00,9006.19 1000.00,9006.19              1000.00,9006.19 979.00,9006.19 979.00,9006.19 Z            M 5508.00,9006.19            C 5501.79,9007.18 5499.09,9006.97 5493.00,9007.00              5493.00,9007.00 5476.00,9008.17 5476.00,9008.17              5447.22,9010.92 5418.75,9016.31 5391.00,9024.42              5287.98,9054.54 5206.17,9123.95 5155.31,9218.00              5126.74,9270.82 5108.22,9333.33 5101.84,9393.00              5101.84,9393.00 5099.00,9426.00 5099.00,9426.00              5099.00,9426.00 5098.00,9442.00 5098.00,9442.00              5098.00,9442.00 5098.00,9481.00 5098.00,9481.00              5098.00,9481.00 5099.00,9498.00 5099.00,9498.00              5099.00,9498.00 5099.91,9508.00 5099.91,9508.00              5101.51,9529.88 5104.70,9551.48 5109.00,9573.00              5125.78,9656.94 5164.88,9736.61 5225.04,9797.99              5225.04,9797.99 5234.00,9806.09 5234.00,9806.09              5249.67,9820.68 5264.34,9832.81 5282.00,9844.98              5312.36,9865.90 5346.08,9881.70 5381.00,9893.33              5414.59,9904.52 5449.77,9910.67 5485.00,9913.09              5485.00,9913.09 5495.00,9914.16 5495.00,9914.16              5495.00,9914.16 5521.00,9914.16 5521.00,9914.16              5521.00,9914.16 5543.00,9914.16 5543.00,9914.16              5543.00,9914.16 5555.00,9913.09 5555.00,9913.09              5579.60,9911.40 5603.97,9907.82 5628.00,9902.12              5724.44,9879.24 5808.13,9821.81 5863.00,9739.00              5902.22,9679.81 5925.18,9613.01 5935.27,9543.00              5935.27,9543.00 5940.00,9498.00 5940.00,9498.00              5940.00,9498.00 5941.00,9479.00 5941.00,9479.00              5941.00,9479.00 5941.00,9442.00 5941.00,9442.00              5941.00,9442.00 5940.00,9423.00 5940.00,9423.00              5940.00,9423.00 5939.09,9413.00 5939.09,9413.00              5937.28,9387.11 5933.38,9361.33 5927.65,9336.00              5901.69,9221.33 5840.13,9124.28 5738.00,9063.00              5713.55,9048.33 5681.42,9033.75 5654.00,9025.86              5616.58,9015.09 5578.03,9007.45 5539.00,9007.00              5539.00,9007.00 5529.00,9006.19 5529.00,9006.19              5529.00,9006.19 5508.00,9006.19 5508.00,9006.19 Z            M 11840.00,9006.19            C 11833.79,9007.18 11831.09,9006.97 11825.00,9007.00              11825.00,9007.00 11808.00,9008.17 11808.00,9008.17              11790.84,9009.81 11773.83,9012.71 11757.00,9016.42              11689.08,9031.42 11624.90,9070.76 11584.72,9128.00              11545.79,9183.45 11527.78,9250.75 11527.00,9318.00              11527.00,9318.00 11526.03,9330.00 11526.03,9330.00              11526.03,9330.00 11527.00,9342.00 11527.00,9342.00              11527.70,9402.21 11548.03,9463.02 11581.35,9513.00              11592.95,9530.39 11606.24,9546.24 11621.00,9561.00              11657.26,9597.26 11691.35,9618.12 11739.00,9636.19              11764.44,9645.84 11794.95,9651.25 11822.00,9653.96              11822.00,9653.96 11832.00,9653.96 11832.00,9653.96              11832.00,9653.96 11842.00,9655.00 11842.00,9655.00              11956.07,9656.33 12063.61,9601.88 12124.58,9504.00              12141.20,9477.30 12153.95,9449.26 12162.57,9419.00              12168.35,9398.74 12171.84,9377.94 12173.96,9357.00              12173.96,9357.00 12173.96,9348.00 12173.96,9348.00              12173.96,9348.00 12175.00,9336.00 12175.00,9336.00              12175.00,9336.00 12175.00,9319.00 12175.00,9319.00              12175.00,9319.00 12174.00,9299.00 12174.00,9299.00              12173.84,9286.06 12170.62,9264.12 12168.41,9251.00              12156.55,9180.34 12126.83,9117.71 12070.00,9072.20              12055.59,9060.66 12035.80,9048.02 12019.00,9040.31              11971.55,9018.52 11919.11,9007.61 11867.00,9007.00              11867.00,9007.00 11857.00,9006.19 11857.00,9006.19              11857.00,9006.19 11840.00,9006.19 11840.00,9006.19 Z            M 14015.00,9006.28            C 14008.79,9007.18 14006.09,9006.97 14000.00,9007.00              14000.00,9007.00 13983.00,9008.17 13983.00,9008.17              13957.83,9010.58 13932.40,9014.64 13908.00,9021.42              13800.13,9051.42 13715.75,9118.20 13662.31,9217.00              13625.30,9285.42 13605.90,9365.41 13605.00,9443.00              13605.00,9443.00 13604.00,9458.00 13604.00,9458.00              13604.00,9458.00 13605.00,9478.00 13605.00,9478.00              13605.00,9478.00 13605.00,9491.00 13605.00,9491.00              13605.00,9491.00 13605.91,9501.00 13605.91,9501.00              13607.35,9521.87 13609.86,9542.39 13613.58,9563.00              13633.86,9675.48 13691.79,9778.36 13787.00,9843.98              13817.83,9865.22 13851.55,9881.18 13887.00,9893.00              13920.66,9904.22 13955.66,9910.66 13991.00,9913.09              13991.00,9913.09 14001.00,9914.00 14001.00,9914.00              14044.47,9914.50 14075.79,9914.20 14119.00,9905.55              14230.72,9883.20 14325.16,9816.87 14382.58,9718.00              14414.38,9663.24 14434.03,9601.68 14442.28,9539.00              14442.28,9539.00 14446.09,9500.00 14446.09,9500.00              14446.09,9500.00 14447.00,9488.00 14447.00,9488.00              14447.00,9488.00 14447.00,9473.00 14447.00,9473.00              14447.00,9473.00 14447.91,9459.00 14447.91,9459.00              14447.91,9459.00 14447.02,9451.00 14447.02,9451.00              14447.02,9451.00 14447.02,9431.00 14447.02,9431.00              14447.02,9431.00 14446.09,9421.00 14446.09,9421.00              14444.43,9396.69 14441.59,9372.95 14436.80,9349.00              14415.66,9243.26 14361.95,9145.00 14273.00,9081.43              14240.05,9057.88 14205.35,9040.78 14167.00,9028.00              14133.77,9016.92 14098.90,9010.35 14064.00,9007.91              14064.00,9007.91 14052.00,9007.00 14052.00,9007.00              14052.00,9007.00 14015.00,9006.28 14015.00,9006.28 Z            M 11832.00,10110.14            C 11825.63,10111.20 11822.28,10110.99 11816.00,10111.00              11816.00,10111.00 11797.00,10112.09 11797.00,10112.09              11778.05,10113.38 11758.71,10116.05 11740.00,10119.42              11643.55,10136.82 11551.36,10180.27 11492.15,10261.00              11468.37,10293.43 11453.34,10326.53 11442.29,10365.00              11431.78,10401.61 11428.56,10440.08 11429.00,10478.00              11429.00,10478.00 11429.91,10488.00 11429.91,10488.00              11431.05,10504.60 11432.98,10520.70 11436.58,10537.00              11442.21,10562.52 11450.80,10587.49 11462.26,10611.00              11476.22,10639.65 11495.29,10666.67 11516.91,10690.00              11573.69,10751.25 11644.55,10788.76 11725.00,10808.87              11753.36,10815.96 11781.90,10820.09 11811.00,10822.09              11811.00,10822.09 11821.00,10823.00 11821.00,10823.00              11821.00,10823.00 11832.00,10823.00 11832.00,10823.00              11832.00,10823.00 11852.00,10824.00 11852.00,10824.00              11852.00,10824.00 11867.00,10823.00 11867.00,10823.00              11867.00,10823.00 11917.00,10819.72 11917.00,10819.72              12017.98,10807.13 12117.48,10766.68 12186.83,10690.00              12221.80,10651.33 12247.23,10605.34 12260.85,10555.00              12266.28,10534.91 12271.97,10501.63 12272.00,10481.00              12272.00,10481.00 12272.00,10448.00 12272.00,10448.00              12272.00,10448.00 12271.09,10438.00 12271.09,10438.00              12271.09,10438.00 12269.15,10417.00 12269.15,10417.00              12260.28,10342.73 12228.41,10273.08 12174.00,10221.04              12116.48,10166.02 12041.36,10134.87 11964.00,10120.39              11935.89,10115.13 11903.53,10111.13 11875.00,10111.00              11875.00,10111.00 11861.00,10110.14 11861.00,10110.14              11861.00,10110.14 11832.00,10110.14 11832.00,10110.14 Z"/>
</svg>