<svg xmlns="http://www.w3.org/2000/svg" viewBox="-0.53 -0.5 1281.03 513">
  <path id="ebay" fill="#303030" stroke="none" stroke-width="1"
    d="M 321.00,0.00            C 321.00,0.00 388.00,0.00 388.00,0.00              388.00,0.00 388.00,107.00 388.00,107.00              388.00,107.00 388.00,139.00 388.00,139.00              388.00,139.00 389.00,158.00 389.00,158.00              392.50,151.48 398.27,146.57 404.00,142.00              418.44,130.49 435.16,123.09 453.00,118.63              476.86,112.66 491.83,112.72 516.00,113.00              554.24,113.45 595.98,132.86 620.56,162.00              640.77,185.96 654.95,221.42 655.00,253.00              655.00,253.00 655.00,287.00 655.00,287.00              661.75,263.86 691.60,247.79 713.00,240.67              730.71,234.77 761.40,229.22 780.00,229.00              780.00,229.00 801.00,228.00 801.00,228.00              801.00,228.00 887.00,228.00 887.00,228.00              887.00,228.00 887.00,212.00 887.00,212.00              886.94,198.78 880.61,185.19 870.96,176.17              864.59,170.22 855.23,164.79 847.00,161.86              829.10,155.50 817.46,155.79 799.00,156.00              771.98,156.32 743.36,171.11 737.00,199.00              737.00,199.00 669.00,199.00 669.00,199.00              669.00,160.89 699.15,136.49 732.00,123.81              749.15,117.19 780.58,112.03 799.00,112.00              799.00,112.00 826.00,112.00 826.00,112.00              826.00,112.00 838.00,112.91 838.00,112.91              872.93,115.35 903.12,124.31 929.00,149.00              929.00,149.00 916.00,123.00 916.00,123.00              916.00,123.00 985.00,123.00 985.00,123.00              994.51,123.02 993.36,123.22 1000.25,137.00              1000.25,137.00 1018.25,173.00 1018.25,173.00              1018.25,173.00 1073.25,283.00 1073.25,283.00              1073.25,283.00 1091.25,319.00 1091.25,319.00              1094.20,324.90 1099.29,334.02 1101.00,340.00              1101.00,340.00 1103.00,340.00 1103.00,340.00              1104.71,334.02 1109.80,324.90 1112.75,319.00              1112.75,319.00 1130.75,283.00 1130.75,283.00              1130.75,283.00 1185.75,172.00 1185.75,172.00              1185.75,172.00 1203.25,137.00 1203.25,137.00              1210.24,123.02 1208.82,123.02 1218.00,123.00              1218.00,123.00 1280.00,123.00 1280.00,123.00              1280.00,123.00 1263.25,158.00 1263.25,158.00              1263.25,158.00 1227.26,228.00 1227.26,228.00              1227.26,228.00 1179.74,322.00 1179.74,322.00              1179.74,322.00 1128.75,422.00 1128.75,422.00              1128.75,422.00 1093.26,491.00 1093.26,491.00              1093.26,491.00 1082.37,511.01 1082.37,511.01              1082.37,511.01 1075.00,512.00 1075.00,512.00              1075.00,512.00 1009.00,512.00 1009.00,512.00              1009.00,512.00 1025.69,480.00 1025.69,480.00              1025.69,480.00 1050.26,433.00 1050.26,433.00              1050.26,433.00 1060.31,414.00 1060.31,414.00              1060.31,414.00 1064.77,404.58 1064.77,404.58              1064.77,404.58 1055.58,386.00 1055.58,386.00              1055.58,386.00 1034.25,346.00 1034.25,346.00              1034.25,346.00 1020.31,320.00 1020.31,320.00              1020.31,320.00 988.31,260.00 988.31,260.00              988.31,260.00 949.00,186.00 949.00,186.00              951.52,198.56 953.98,211.13 954.00,224.00              954.00,224.00 954.00,291.00 954.00,291.00              954.00,291.00 954.00,376.00 954.00,376.00              954.00,376.00 956.00,406.00 956.00,406.00              956.00,406.00 895.00,406.00 895.00,406.00              895.00,406.00 894.04,395.00 894.04,395.00              894.04,395.00 894.04,380.00 894.04,380.00              894.04,380.00 893.00,368.00 893.00,368.00              883.35,378.50 880.20,382.50 868.00,390.81              844.28,406.95 808.68,416.96 780.00,417.00              780.00,417.00 759.00,417.00 759.00,417.00              729.52,416.95 692.00,405.39 671.17,383.91              658.66,371.02 651.63,355.58 648.75,338.00              648.75,338.00 647.00,317.00 647.00,317.00              645.94,323.89 642.34,331.72 639.24,338.00              630.92,354.89 619.50,370.02 605.00,382.08              583.85,399.67 557.34,411.22 530.00,414.72              516.74,416.41 503.35,416.15 490.00,416.00              483.27,415.92 471.75,414.14 465.00,412.80              434.25,406.69 407.20,393.61 387.00,369.00              387.00,369.00 385.00,406.00 385.00,406.00              385.00,406.00 320.00,406.00 320.00,406.00              320.00,406.00 321.00,383.00 321.00,383.00              321.00,383.00 321.00,282.00 321.00,282.00              321.00,282.00 67.00,282.00 67.00,282.00              67.10,315.38 85.54,345.48 115.00,361.11              129.16,368.62 147.06,372.34 163.00,372.96              167.57,373.14 168.89,372.57 173.00,372.17              197.80,369.77 218.08,363.41 235.13,343.99              240.28,338.12 244.84,331.57 247.00,324.00              247.00,324.00 315.00,324.00 315.00,324.00              314.67,339.09 304.32,357.59 294.92,369.00              268.51,401.03 221.36,414.94 181.00,415.00              181.00,415.00 168.00,415.92 168.00,415.92              168.00,415.92 155.00,415.00 155.00,415.00              155.00,415.00 148.00,415.00 148.00,415.00              148.00,415.00 129.00,413.15 129.00,413.15              81.49,407.48 37.17,386.96 15.26,342.00              1.88,314.56 -0.35,285.97 0.00,256.00              0.00,256.00 0.91,246.00 0.91,246.00              3.63,208.81 15.64,174.70 44.00,149.17              60.87,133.99 83.13,124.07 105.00,118.63              131.48,112.04 152.07,111.69 179.00,112.00              179.00,112.00 189.00,112.92 189.00,112.92              219.14,115.33 247.47,124.06 272.00,142.16              289.02,154.72 303.99,174.31 311.80,194.00              311.80,194.00 317.85,212.00 317.85,212.00              317.85,212.00 321.00,225.00 321.00,225.00              321.00,225.00 321.00,0.00 321.00,0.00 Z            M 931.00,151.00            C 931.00,151.00 930.00,151.00 930.00,151.00              930.00,151.00 931.00,152.00 931.00,152.00              931.00,152.00 931.00,151.00 931.00,151.00 Z            M 254.00,238.00            C 253.97,228.82 252.41,218.71 249.48,210.00              230.40,153.27 154.62,142.66 108.00,170.45              91.09,180.54 77.45,195.94 71.72,215.00              67.87,227.82 69.97,229.88 68.00,238.00              68.00,238.00 254.00,238.00 254.00,238.00 Z            M 475.00,158.28            C 443.59,162.90 420.25,174.82 403.45,203.00              394.59,217.87 388.03,239.64 388.00,257.00              388.00,257.00 388.00,274.00 388.00,274.00              388.07,279.73 389.27,285.39 390.40,291.00              397.54,326.48 421.99,358.06 458.00,367.37              465.19,369.23 472.54,370.91 480.00,371.00              499.62,371.23 515.09,370.10 533.00,360.68              597.65,326.68 605.56,225.99 551.00,179.30              530.42,161.69 501.44,155.82 475.00,158.28 Z            M 940.00,166.00            C 940.00,166.00 939.00,166.00 939.00,166.00              939.00,166.00 940.00,167.00 940.00,167.00              940.00,167.00 940.00,166.00 940.00,166.00 Z            M 948.00,182.00            C 948.00,182.00 947.00,182.00 947.00,182.00              947.00,182.00 948.00,183.00 948.00,183.00              948.00,183.00 948.00,182.00 948.00,182.00 Z            M 322.00,232.00            C 322.00,232.00 322.00,238.00 322.00,238.00              322.00,238.00 322.00,232.00 322.00,232.00 Z            M 887.00,271.00            C 887.00,271.00 842.00,271.00 842.00,271.00              842.00,271.00 830.00,271.96 830.00,271.96              830.00,271.96 816.00,271.96 816.00,271.96              816.00,271.96 791.00,273.83 791.00,273.83              772.04,275.67 749.22,278.30 733.00,289.10              709.08,305.02 711.91,340.08 732.00,357.82              744.85,369.16 761.48,372.32 778.00,373.04              778.00,373.04 785.00,373.66 785.00,373.66              785.00,373.66 792.00,373.04 792.00,373.04              823.18,371.69 852.45,363.58 871.84,337.00              888.18,314.60 887.00,296.81 887.00,271.00 Z            M 322.00,281.00            C 322.00,281.00 321.00,281.00 321.00,281.00              321.00,281.00 322.00,282.00 322.00,282.00              322.00,282.00 322.00,281.00 322.00,281.00 Z            M 653.00,293.00            C 653.00,293.00 652.00,293.00 652.00,293.00              652.00,293.00 653.00,294.00 653.00,294.00              653.00,294.00 653.00,293.00 653.00,293.00 Z" />
</svg>