<svg xmlns="http://www.w3.org/2000/svg" viewBox="1.5 1.71 764.82 764.79">
  <path id="edge-alt" fill="#303030" stroke="none" stroke-width="1"
    d="M 356.00,2.21            C 356.00,2.21 405.00,2.21 405.00,2.21              425.61,2.03 465.36,8.61 486.00,13.35              586.03,36.31 678.05,96.41 727.69,188.00              739.00,208.86 749.90,232.11 756.26,255.00              773.01,315.37 769.18,379.06 733.33,432.00              723.85,446.00 713.83,456.79 701.00,467.73              686.93,479.73 669.17,490.75 652.00,497.69              635.67,504.29 610.56,510.97 593.00,511.00              593.00,511.00 553.00,511.00 553.00,511.00              553.00,511.00 529.00,508.28 529.00,508.28              510.09,505.93 490.21,501.71 473.00,493.24              464.25,488.94 454.36,483.43 448.97,475.00              438.16,458.12 452.06,449.70 460.48,437.00              469.13,423.98 477.81,403.80 478.00,388.00              478.19,371.72 476.09,360.99 469.58,346.00              464.81,335.04 457.51,325.33 449.00,317.01              439.79,308.02 428.94,301.10 417.00,296.31              357.07,272.23 291.50,318.50 289.04,382.00              288.86,386.57 289.43,387.89 289.83,392.00              291.88,413.16 293.85,425.79 301.32,446.00              328.82,520.43 399.94,572.44 475.00,592.25              490.24,596.26 522.62,601.98 538.00,602.00              538.00,602.00 569.00,602.00 569.00,602.00              569.00,602.00 586.00,600.15 586.00,600.15              611.13,597.15 635.26,591.54 659.00,582.58              659.00,582.58 691.00,568.47 691.00,568.47              700.79,565.41 709.89,571.24 708.89,582.00              708.28,588.56 698.99,600.41 695.00,606.00              680.77,625.97 666.56,642.16 648.91,659.17              603.11,703.30 548.27,734.76 487.00,751.74              487.00,751.74 455.00,759.54 455.00,759.54              443.16,761.69 408.34,765.98 397.00,766.00              397.00,766.00 368.00,766.00 368.00,766.00              368.00,766.00 341.00,763.28 341.00,763.28              341.00,763.28 332.00,762.71 332.00,762.71              310.41,759.90 288.76,754.68 268.00,748.19              227.30,735.47 192.64,717.34 158.00,692.57              82.24,638.40 28.81,553.91 10.00,463.00              7.22,449.57 2.06,416.94 2.00,404.00              2.00,404.00 2.00,362.00 2.00,362.00              2.00,362.00 4.83,334.00 4.83,334.00              8.10,301.32 19.90,261.20 32.87,231.00              74.09,135.04 156.64,58.35 255.00,23.54              278.59,15.19 303.31,9.30 328.00,5.44              328.00,5.44 356.00,2.21 356.00,2.21 Z" />
</svg>