<svg xmlns="http://www.w3.org/2000/svg" viewBox="3.5 -0.5 954 1025">
  <path id="edge-old" fill="#303030" stroke="none" stroke-width="1"
    d="M 4.00,457.00            C 4.01,444.88 7.37,427.24 9.58,415.00              15.41,382.63 24.26,350.96 35.31,320.00              70.02,222.78 134.99,135.36 221.00,77.67              261.06,50.80 313.28,27.15 360.00,14.88              390.62,6.85 422.53,3.06 454.00,0.91              454.00,0.91 466.00,0.00 466.00,0.00              466.00,0.00 512.00,0.00 512.00,0.00              512.00,0.00 524.00,0.91 524.00,0.91              548.66,2.61 572.92,6.41 597.00,12.12              650.71,24.85 699.42,43.69 746.00,73.69              852.14,142.06 919.15,245.38 945.21,368.00              950.27,391.82 955.72,426.91 956.00,451.00              956.00,451.00 957.00,466.00 957.00,466.00              957.00,466.00 957.00,608.00 957.00,608.00              957.00,608.00 302.00,608.00 302.00,608.00              304.29,636.32 304.90,655.13 316.86,682.00              351.17,759.06 431.60,798.09 511.00,811.41              511.00,811.41 553.00,816.09 553.00,816.09              553.00,816.09 565.00,817.00 565.00,817.00              565.00,817.00 592.00,817.00 592.00,817.00              592.00,817.00 605.00,816.04 605.00,816.04              635.81,814.70 666.23,808.90 696.00,800.85              738.21,789.43 774.63,773.82 814.00,755.22              814.00,755.22 843.00,740.74 843.00,740.74              843.00,740.74 860.00,732.00 860.00,732.00              860.00,732.00 860.00,951.00 860.00,951.00              854.02,952.71 848.69,956.10 843.00,958.58              843.00,958.58 807.00,973.99 807.00,973.99              782.17,984.20 740.21,997.55 714.00,1004.11              680.51,1012.48 647.31,1017.85 613.00,1021.17              613.00,1021.17 588.00,1023.00 588.00,1023.00              588.00,1023.00 574.00,1024.00 574.00,1024.00              574.00,1024.00 520.00,1024.00 520.00,1024.00              520.00,1024.00 508.00,1023.09 508.00,1023.09              489.86,1021.84 471.91,1019.75 454.00,1016.39              395.10,1005.35 340.80,982.92 291.00,949.67              269.88,935.56 249.05,918.87 231.09,900.91              231.09,900.91 224.91,894.00 224.91,894.00              224.91,894.00 201.00,867.00 201.00,867.00              170.86,829.14 146.72,782.59 133.43,736.00              122.13,696.42 117.52,655.06 118.00,614.00              118.00,614.00 119.00,596.00 119.00,596.00              119.00,596.00 119.91,586.00 119.91,586.00              121.47,564.63 125.17,543.84 130.12,523.00              147.63,449.26 187.62,380.58 244.00,329.83              271.95,304.68 292.56,290.91 325.00,272.58              333.98,267.50 361.83,253.66 371.00,252.00              371.00,252.00 358.13,267.00 358.13,267.00              352.73,273.30 347.64,280.06 343.08,287.00              325.76,313.36 312.44,347.27 305.35,378.00              302.88,388.68 299.24,404.22 299.00,415.00              299.00,415.00 662.00,415.00 662.00,415.00              662.00,383.14 658.41,344.48 648.98,314.00              644.39,299.19 637.71,284.04 629.31,271.00              622.69,260.72 615.85,252.50 607.00,244.04              575.01,213.44 529.13,200.93 486.00,197.91              486.00,197.91 474.00,197.00 474.00,197.00              474.00,197.00 463.00,197.00 463.00,197.00              463.00,197.00 454.00,196.34 454.00,196.34              454.00,196.34 447.00,196.98 447.00,196.98              447.00,196.98 432.00,196.98 432.00,196.98              432.00,196.98 422.00,197.91 422.00,197.91              395.55,199.76 369.74,204.19 344.00,210.63              270.02,229.12 200.57,263.70 140.00,309.88              105.40,336.27 73.21,366.32 45.61,400.00              45.61,400.00 17.72,437.00 17.72,437.00              13.40,443.18 8.81,451.83 4.00,457.00 Z" />
</svg>