<svg xmlns="http://www.w3.org/2000/svg" viewBox="-0.5 -0.5 885.08 885">
  <path id="edge" fill="#303030" stroke="none" stroke-width="1"
    d="M 49.00,246.00            C 50.53,237.82 60.42,221.62 65.00,214.00              79.85,189.30 97.40,166.21 116.92,145.00              142.00,117.73 169.25,92.77 199.00,70.63              199.00,70.63 211.04,61.46 211.04,61.46              211.04,61.46 240.00,45.75 240.00,45.75              277.56,26.97 314.62,14.04 356.00,6.58              356.00,6.58 400.00,0.91 400.00,0.91              400.00,0.91 410.00,0.00 410.00,0.00              410.00,0.00 466.00,0.00 466.00,0.00              466.00,0.00 501.00,2.83 501.00,2.83              548.74,7.61 595.85,19.59 640.00,38.43              728.88,76.34 803.92,144.35 847.25,231.00              859.80,256.11 870.06,282.58 876.35,310.00              883.76,342.34 884.38,360.27 884.00,393.00              883.81,409.19 878.47,431.59 873.33,447.00              851.30,513.10 801.97,561.51 736.00,583.49              718.66,589.26 692.24,593.97 674.00,594.00              674.00,594.00 658.00,594.00 658.00,594.00              658.00,594.00 639.00,593.00 639.00,593.00              639.00,593.00 629.00,592.09 629.00,592.09              600.21,590.08 564.04,584.29 539.00,569.40              527.02,562.27 513.24,551.40 514.04,536.00              514.45,528.16 518.27,525.69 522.54,520.00              522.54,520.00 537.80,498.00 537.80,498.00              548.52,480.21 552.24,459.50 552.00,439.00              552.00,439.00 550.13,420.00 550.13,420.00              543.33,371.06 519.69,329.69 485.00,295.00              440.15,250.15 381.49,222.16 320.00,208.58              303.80,205.00 274.22,200.19 258.00,199.96              258.00,199.96 248.00,199.96 248.00,199.96              248.00,199.96 238.00,199.00 238.00,199.00              238.00,199.00 210.00,200.00 210.00,200.00              210.00,200.00 200.00,200.91 200.00,200.91              167.34,203.30 134.84,210.72 104.00,221.69              104.00,221.69 73.00,234.31 73.00,234.31              73.00,234.31 49.00,246.00 49.00,246.00 Z            M 361.00,884.00            C 350.37,883.77 327.75,877.33 317.00,874.02              285.89,864.45 260.58,854.00 232.00,838.30              128.39,781.42 52.21,687.10 18.28,574.00              8.97,542.98 3.13,511.29 0.91,479.00              0.91,479.00 0.00,469.00 0.00,469.00              0.00,469.00 0.00,438.00 0.00,438.00              0.05,403.52 24.78,366.58 50.00,344.87              91.66,309.01 144.78,289.64 199.00,283.84              199.00,283.84 222.00,282.00 222.00,282.00              222.00,282.00 254.00,282.00 254.00,282.00              254.00,282.00 264.00,282.91 264.00,282.91              302.56,285.73 337.54,296.48 372.00,313.75              381.20,318.36 404.93,331.83 411.00,339.00              411.00,339.00 396.00,344.87 396.00,344.87              385.08,349.52 371.64,357.03 362.00,363.91              335.56,382.77 315.38,404.69 296.58,431.00              268.27,470.62 245.92,522.74 238.42,571.00              236.14,585.71 235.02,600.13 235.00,615.00              235.00,615.00 234.09,630.00 234.09,630.00              234.09,630.00 235.00,647.00 235.00,647.00              235.00,647.00 235.91,657.00 235.91,657.00              238.30,689.70 247.99,727.85 260.85,758.00              272.93,786.32 301.78,826.78 323.04,849.00              323.04,849.00 347.00,871.85 347.00,871.85              347.00,871.85 361.00,884.00 361.00,884.00 Z            M 342.00,513.00            C 342.00,513.00 344.00,513.00 344.00,513.00              352.52,534.31 365.52,556.54 379.12,575.00              424.04,636.01 487.98,678.23 562.00,694.58              588.40,700.41 613.09,702.04 640.00,702.00              640.00,702.00 659.00,701.00 659.00,701.00              659.00,701.00 669.00,700.09 669.00,700.09              702.93,697.61 743.89,686.88 775.00,673.14              775.00,673.14 789.00,666.74 789.00,666.74              797.42,662.67 807.93,656.24 815.43,666.04              819.41,671.24 818.75,677.31 816.32,683.00              813.80,688.90 811.12,691.01 807.67,696.01              807.67,696.01 792.35,718.00 792.35,718.00              757.75,763.32 713.91,802.75 663.00,828.89              627.10,847.33 577.62,863.47 537.00,863.00              537.00,863.00 527.00,862.09 527.00,862.09              500.92,860.18 480.81,854.45 457.00,843.86              443.18,837.71 433.97,833.66 421.00,825.31              373.16,794.49 336.07,743.55 322.88,688.00              319.48,673.68 316.02,652.60 316.00,638.00              316.00,638.00 316.00,623.00 316.00,623.00              316.00,623.00 317.00,610.00 317.00,610.00              317.00,610.00 317.00,600.00 317.00,600.00              317.02,584.33 322.20,561.87 327.34,547.00              327.34,547.00 342.00,513.00 342.00,513.00 Z" />
</svg>