<svg xmlns="http://www.w3.org/2000/svg" viewBox="-0.5 -0.36 2049 2048.86">
  <path id="electron-framework-alt" fill="#303030" stroke="none" stroke-width="1"
    d="M 979.00,0.14            C 979.00,0.14 1012.00,0.14 1012.00,0.14              1012.00,0.14 1061.00,0.14 1061.00,0.14              1061.00,0.14 1082.00,1.00 1082.00,1.00              1082.00,1.00 1092.00,1.91 1092.00,1.91              1092.00,1.91 1138.00,5.84 1138.00,5.84              1183.89,10.74 1229.22,18.93 1274.00,30.13              1444.62,72.78 1597.37,157.25 1726.00,277.09              1726.00,277.09 1754.01,305.00 1754.01,305.00              1874.88,427.42 1964.30,580.13 2010.42,746.00              2025.45,800.02 2036.20,854.24 2042.16,910.00              2042.16,910.00 2046.09,956.00 2046.09,956.00              2046.09,956.00 2047.00,966.00 2047.00,966.00              2047.00,966.00 2048.00,987.00 2048.00,987.00              2048.00,987.00 2048.00,1063.00 2048.00,1063.00              2048.00,1063.00 2047.00,1082.00 2047.00,1082.00              2047.00,1082.00 2046.04,1093.00 2046.04,1093.00              2046.04,1093.00 2039.28,1162.00 2039.28,1162.00              2030.27,1230.45 2013.46,1300.94 1990.31,1366.00              1942.45,1500.50 1868.22,1621.55 1770.91,1726.00              1770.91,1726.00 1743.00,1754.01 1743.00,1754.01              1622.52,1872.97 1472.02,1962.10 1309.00,2008.57              1253.07,2024.52 1195.82,2035.98 1138.00,2042.16              1138.00,2042.16 1092.00,2046.09 1092.00,2046.09              1092.00,2046.09 1081.00,2047.00 1081.00,2047.00              1081.00,2047.00 1061.00,2048.00 1061.00,2048.00              1061.00,2048.00 987.00,2048.00 987.00,2048.00              987.00,2048.00 966.00,2047.00 966.00,2047.00              966.00,2047.00 955.00,2046.04 955.00,2046.04              955.00,2046.04 893.00,2040.15 893.00,2040.15              827.11,2032.28 760.92,2016.64 698.00,1995.67              588.62,1959.21 479.10,1900.52 389.00,1828.55              269.94,1733.45 174.55,1617.36 106.37,1481.00              59.43,1387.13 27.67,1285.65 11.58,1182.00              6.93,1152.05 3.97,1122.18 1.91,1092.00              1.91,1092.00 1.00,1082.00 1.00,1082.00              1.00,1082.00 0.00,1061.00 0.00,1061.00              0.00,1061.00 0.00,987.00 0.00,987.00              0.00,987.00 1.00,966.00 1.00,966.00              1.00,966.00 1.91,956.00 1.91,956.00              3.97,925.82 6.93,895.95 11.58,866.00              23.76,787.53 45.68,706.26 76.42,633.00              125.51,516.03 190.51,414.93 277.09,322.00              277.09,322.00 305.00,293.99 305.00,293.99              411.77,188.57 540.65,107.99 682.00,57.69              743.33,35.87 816.44,17.78 881.00,9.28              881.00,9.28 948.00,2.00 948.00,2.00              948.00,2.00 956.00,2.00 956.00,2.00              956.00,2.00 966.00,1.00 966.00,1.00              971.14,0.94 973.73,1.17 979.00,0.14 Z            M 1111.00,381.00            C 1127.49,388.36 1148.70,406.54 1162.00,418.91              1203.12,457.15 1229.89,500.16 1256.31,549.00              1280.92,594.52 1300.83,649.38 1315.72,699.00              1338.81,775.97 1352.44,855.14 1360.17,935.00              1360.17,935.00 1363.09,972.00 1363.09,972.00              1363.09,972.00 1364.00,982.00 1364.00,982.00              1364.00,982.00 1365.00,1007.00 1365.00,1007.00              1365.00,1007.00 1366.00,1024.00 1366.00,1024.00              1366.00,1024.00 1366.00,1112.00 1366.00,1112.00              1366.00,1112.00 1365.00,1129.00 1365.00,1129.00              1365.00,1129.00 1363.09,1163.00 1363.09,1163.00              1363.09,1163.00 1359.17,1211.00 1359.17,1211.00              1353.18,1272.81 1342.37,1339.03 1326.15,1399.00              1326.15,1399.00 1316.28,1435.00 1316.28,1435.00              1314.05,1442.44 1310.83,1450.20 1311.02,1458.00              1311.31,1470.16 1321.78,1479.59 1334.00,1478.47              1349.36,1477.07 1352.57,1465.41 1356.14,1453.00              1356.14,1453.00 1376.42,1376.00 1376.42,1376.00              1386.40,1330.82 1394.91,1285.03 1399.84,1239.00              1399.84,1239.00 1404.17,1194.00 1404.17,1194.00              1404.17,1194.00 1407.00,1161.00 1407.00,1161.00              1407.00,1161.00 1407.00,1152.00 1407.00,1152.00              1407.00,1152.00 1408.00,1135.00 1408.00,1135.00              1408.00,1135.00 1409.00,1118.00 1409.00,1118.00              1409.00,1118.00 1409.00,1092.00 1409.00,1092.00              1409.00,1092.00 1410.00,1078.00 1410.00,1078.00              1410.00,1078.00 1410.00,1053.00 1410.00,1053.00              1410.00,1053.00 1409.00,1038.00 1409.00,1038.00              1409.00,1038.00 1409.00,1017.00 1409.00,1017.00              1409.00,1017.00 1408.00,1002.00 1408.00,1002.00              1408.00,1002.00 1407.00,977.00 1407.00,977.00              1407.00,977.00 1406.09,967.00 1406.09,967.00              1406.09,967.00 1403.17,930.00 1403.17,930.00              1399.95,896.81 1395.94,863.92 1390.41,831.00              1372.32,723.19 1340.86,613.45 1288.69,517.00              1261.17,466.12 1225.01,414.96 1181.00,377.13              1169.42,367.18 1156.01,356.79 1143.00,348.81              1139.45,346.63 1125.65,339.23 1124.02,336.62              1122.62,334.38 1123.03,329.67 1123.00,327.00              1122.90,319.13 1120.48,308.50 1118.00,301.00              1104.70,260.76 1066.78,231.50 1024.00,231.00              1002.96,230.76 983.95,235.69 966.00,246.81              950.77,256.26 938.30,270.01 930.25,286.00              926.55,293.35 924.70,296.94 922.43,305.00              918.63,318.45 918.84,327.35 919.00,341.00              919.41,375.68 945.27,411.12 976.00,425.68              1013.54,443.47 1057.75,437.65 1088.99,410.13              1096.57,403.45 1107.95,390.67 1111.00,381.00 Z            M 1016.00,274.42            C 1022.34,273.65 1029.82,274.53 1036.00,276.16              1078.66,287.36 1094.08,338.84 1066.08,371.99              1061.85,376.98 1056.74,381.51 1051.00,384.69              1044.94,388.04 1037.90,390.93 1031.00,391.84              1031.00,391.84 1021.00,392.92 1021.00,392.92              1006.04,392.92 989.79,386.22 979.09,375.83              955.27,352.70 956.14,309.76 982.00,288.46              993.03,279.38 1002.22,276.50 1016.00,274.42 Z            M 647.00,559.14            C 640.47,560.22 635.50,559.99 629.00,560.00              612.90,560.03 577.33,564.55 561.00,567.61              482.47,582.33 411.32,614.84 367.68,685.00              360.54,696.48 353.78,711.21 349.34,724.00              328.12,785.16 335.90,850.71 356.00,911.00              356.00,911.00 372.78,954.00 372.78,954.00              372.78,954.00 396.00,1000.00 396.00,1000.00              401.23,1009.15 405.20,1016.44 417.00,1016.96              430.22,1017.54 440.45,1008.54 439.96,995.00              439.76,989.61 437.68,985.67 435.22,981.00              435.22,981.00 419.26,951.00 419.26,951.00              388.02,886.46 366.50,810.43 390.00,740.00              394.33,727.03 398.90,717.67 406.00,706.00              414.09,692.71 424.47,680.59 436.00,670.17              475.04,634.86 525.86,617.39 577.00,608.92              577.00,608.92 623.00,603.91 623.00,603.91              623.00,603.91 635.00,603.00 635.00,603.00              635.00,603.00 688.00,603.00 688.00,603.00              688.00,603.00 698.00,604.00 698.00,604.00              698.00,604.00 707.00,604.00 707.00,604.00              707.00,604.00 733.00,606.72 733.00,606.72              733.00,606.72 776.00,612.41 776.00,612.41              782.55,613.51 797.13,616.54 803.00,615.82              814.98,614.34 821.30,604.39 820.98,593.00              820.41,572.30 796.34,571.53 781.00,569.27              755.46,565.51 729.77,562.08 704.00,560.96              704.00,560.96 691.00,559.96 691.00,559.96              691.00,559.96 679.00,559.96 679.00,559.96              679.00,559.96 669.00,559.14 669.00,559.14              669.00,559.14 647.00,559.14 647.00,559.14 Z            M 1385.00,561.33            C 1368.63,565.36 1363.06,586.24 1375.18,597.67              1383.74,605.74 1396.24,603.88 1407.00,604.00              1407.00,604.00 1417.00,604.91 1417.00,604.91              1448.35,607.06 1478.70,611.26 1509.00,620.00              1533.71,627.12 1558.52,637.42 1580.00,651.67              1594.84,661.51 1610.06,674.24 1621.39,688.00              1629.48,697.84 1636.92,708.58 1642.63,720.00              1684.39,803.51 1648.71,907.50 1605.42,983.00              1587.38,1014.46 1567.04,1044.65 1544.40,1073.00              1544.40,1073.00 1534.92,1085.00 1534.92,1085.00              1527.95,1093.45 1518.28,1102.06 1519.10,1114.00              1519.91,1125.95 1530.06,1134.74 1542.00,1133.90              1552.46,1133.18 1557.29,1126.36 1563.41,1119.00              1563.41,1119.00 1588.13,1088.00 1588.13,1088.00              1624.97,1038.90 1658.54,984.70 1680.05,927.00              1703.61,863.79 1715.03,791.13 1692.31,726.00              1687.09,711.05 1680.46,697.48 1672.19,684.00              1627.26,610.80 1543.68,577.24 1462.00,565.87              1442.28,563.13 1404.07,559.21 1385.00,561.33 Z            M 381.00,1340.00            C 379.43,1328.10 380.95,1328.32 381.00,1317.00              381.06,1303.69 385.81,1279.26 389.13,1266.00              403.17,1209.80 430.70,1157.94 462.67,1110.00              489.02,1070.46 519.74,1033.73 552.09,999.00              552.09,999.00 579.00,972.00 579.00,972.00              672.62,878.38 787.42,798.41 905.00,737.74              905.00,737.74 937.00,721.26 937.00,721.26              996.07,692.67 1057.30,667.51 1120.00,648.02              1120.00,648.02 1164.00,635.29 1164.00,635.29              1164.00,635.29 1202.00,625.88 1202.00,625.88              1207.48,624.62 1217.28,622.81 1222.00,620.33              1229.91,616.16 1233.34,608.66 1232.96,600.00              1232.40,587.27 1222.30,579.54 1210.00,580.04              1210.00,580.04 1188.00,584.58 1188.00,584.58              1188.00,584.58 1134.00,598.58 1134.00,598.58              1076.50,614.97 1014.35,637.80 960.00,662.69              960.00,662.69 886.00,698.26 886.00,698.26              727.01,780.29 569.81,898.52 459.58,1040.00              419.09,1091.96 384.01,1149.12 360.95,1211.00              348.91,1243.31 341.44,1274.68 338.04,1309.00              338.04,1309.00 338.04,1318.00 338.04,1318.00              338.04,1318.00 337.20,1328.00 337.20,1328.00              337.20,1328.00 337.20,1350.91 337.20,1350.91              336.05,1354.30 330.96,1356.95 328.00,1359.04              322.56,1362.86 317.62,1367.13 313.09,1372.00              298.27,1387.90 286.26,1412.97 286.00,1435.00              285.75,1456.42 287.18,1470.49 297.26,1490.00              304.12,1503.28 315.04,1515.72 327.00,1524.62              337.54,1532.46 348.44,1537.40 361.00,1541.00              368.28,1543.09 380.46,1544.82 388.00,1544.82              388.00,1544.82 395.00,1544.09 395.00,1544.09              407.93,1543.19 418.09,1541.14 430.00,1535.69              488.65,1508.83 508.09,1437.08 472.33,1384.00              464.15,1371.86 453.58,1361.94 441.00,1354.45              420.59,1342.31 404.14,1340.00 381.00,1340.00 Z            M 1011.00,994.29            C 998.30,996.23 986.30,1000.65 976.00,1008.50              935.49,1039.40 937.59,1101.50 980.00,1129.64              986.84,1134.19 994.99,1137.88 1003.00,1139.76              1010.00,1141.41 1019.87,1142.57 1027.00,1141.72              1038.90,1140.29 1049.72,1137.31 1060.00,1130.94              1105.96,1102.42 1106.80,1035.88 1062.00,1005.75              1046.68,995.44 1029.10,992.60 1011.00,994.29 Z            M 1563.00,1493.00            C 1563.00,1493.00 1542.00,1502.57 1542.00,1502.57              1523.86,1510.31 1505.20,1515.95 1486.00,1520.35              1468.96,1524.25 1432.07,1529.80 1415.00,1530.00              1415.00,1530.00 1393.00,1531.00 1393.00,1531.00              1393.00,1531.00 1369.00,1531.00 1369.00,1531.00              1369.00,1531.00 1352.00,1530.00 1352.00,1530.00              1317.65,1529.95 1257.33,1520.51 1223.00,1513.21              1038.18,1473.93 856.78,1385.46 706.00,1272.37              668.40,1244.18 632.37,1213.94 598.00,1181.91              598.00,1181.91 574.00,1158.00 574.00,1158.00              574.00,1158.00 550.17,1134.00 550.17,1134.00              542.15,1125.14 535.38,1115.16 522.00,1116.10              510.42,1116.91 501.21,1127.37 502.19,1139.00              503.04,1149.18 509.55,1154.05 515.83,1161.00              515.83,1161.00 552.00,1198.00 552.00,1198.00              603.28,1249.28 664.25,1297.84 724.00,1339.02              850.78,1426.41 1002.73,1501.65 1152.00,1540.88              1197.48,1552.84 1243.27,1562.57 1290.00,1568.15              1290.00,1568.15 1333.00,1572.09 1333.00,1572.09              1333.00,1572.09 1343.00,1573.00 1343.00,1573.00              1343.00,1573.00 1365.00,1574.00 1365.00,1574.00              1365.00,1574.00 1399.00,1574.00 1399.00,1574.00              1399.00,1574.00 1416.00,1573.00 1416.00,1573.00              1416.00,1573.00 1427.00,1572.09 1427.00,1572.09              1454.55,1570.19 1482.23,1566.32 1509.00,1559.27              1531.40,1553.36 1544.69,1548.84 1566.00,1539.58              1566.00,1539.58 1591.00,1527.20 1591.00,1527.20              1595.27,1526.26 1600.30,1530.67 1604.00,1532.69              1611.36,1536.70 1621.80,1540.22 1630.00,1542.11              1663.20,1549.76 1697.96,1539.72 1723.00,1516.83              1727.57,1512.65 1732.81,1506.10 1736.41,1501.00              1767.29,1457.21 1758.32,1396.34 1717.00,1362.46              1696.20,1345.41 1673.33,1339.70 1647.00,1340.00              1636.76,1340.12 1624.53,1343.12 1615.00,1346.81              1574.07,1362.67 1549.50,1401.68 1550.00,1445.00              1550.22,1463.83 1555.81,1476.30 1563.00,1493.00 Z            M 381.00,1383.43            C 399.10,1381.19 418.30,1387.74 430.91,1401.01              450.77,1421.91 452.86,1456.41 434.53,1479.00              429.67,1485.00 423.74,1490.33 417.00,1494.13              405.86,1500.40 396.38,1501.14 384.00,1501.00              360.45,1500.72 338.81,1483.11 331.75,1461.00              329.11,1452.76 328.90,1447.47 329.00,1439.00              329.26,1417.04 344.12,1396.55 364.00,1387.87              369.89,1385.31 374.77,1384.45 381.00,1383.43 Z            M 1645.00,1383.22            C 1645.00,1383.22 1654.00,1383.22 1654.00,1383.22              1702.56,1383.55 1727.90,1439.54 1699.84,1478.00              1695.16,1484.42 1689.87,1489.14 1683.00,1493.13              1670.16,1500.56 1662.34,1501.16 1648.00,1501.00              1633.64,1500.83 1621.34,1494.30 1611.58,1484.17              1608.72,1481.20 1606.16,1479.39 1603.61,1476.00              1592.85,1461.69 1590.71,1440.75 1596.03,1424.00              1603.38,1400.87 1621.57,1387.26 1645.00,1383.22 Z            M 718.00,1473.33            C 714.83,1474.09 712.74,1474.71 710.00,1476.65              694.55,1487.57 702.19,1503.12 707.32,1517.00              721.17,1554.47 739.76,1595.36 759.58,1630.00              802.28,1704.63 867.33,1784.85 952.00,1812.26              972.14,1818.77 989.00,1821.65 1010.00,1823.09              1010.00,1823.09 1018.00,1823.96 1018.00,1823.96              1023.90,1824.21 1025.05,1823.43 1030.00,1823.00              1030.00,1823.00 1039.00,1823.00 1039.00,1823.00              1039.00,1823.00 1059.00,1820.20 1059.00,1820.20              1131.58,1806.42 1192.99,1756.85 1236.63,1699.00              1236.63,1699.00 1266.00,1657.00 1266.00,1657.00              1271.43,1648.67 1277.42,1641.43 1276.96,1631.00              1276.40,1618.31 1266.29,1610.50 1254.00,1611.04              1240.86,1611.62 1237.01,1621.43 1230.95,1631.00              1219.27,1649.44 1206.55,1667.22 1192.59,1684.00              1164.11,1718.22 1130.26,1748.13 1089.00,1765.85              1072.62,1772.88 1048.86,1779.79 1031.00,1780.00              1031.00,1780.00 1012.00,1780.00 1012.00,1780.00              983.59,1779.87 950.04,1766.45 926.00,1752.00              869.63,1718.11 824.61,1658.01 793.30,1601.00              775.84,1569.20 760.76,1535.98 748.05,1502.00              742.12,1486.15 739.28,1470.98 718.00,1473.33 Z" />
</svg>