<svg xmlns="http://www.w3.org/2000/svg" viewBox="285.61 231.46 1468.91 1592.07">
  <path id="electron-framework" fill="#303030" stroke="none" stroke-width="1"
    d="M 1111.00,380.00            C 1107.91,390.58 1095.41,404.46 1087.00,411.39              1058.82,434.58 1019.42,441.88 985.00,428.94              929.43,408.04 904.46,345.89 927.72,292.00              934.61,276.03 946.77,260.73 961.00,250.72              976.23,240.00 996.17,232.03 1015.00,232.00              1024.83,231.98 1032.19,231.61 1042.00,233.66              1074.38,240.45 1100.75,261.71 1114.14,292.00              1117.94,300.60 1121.18,311.63 1122.00,321.00              1122.45,326.18 1122.24,335.90 1126.15,339.21              1126.15,339.21 1140.00,347.42 1140.00,347.42              1140.00,347.42 1168.00,366.89 1168.00,366.89              1193.94,386.86 1216.50,411.23 1236.58,437.00              1285.21,499.42 1321.38,578.15 1346.33,653.00              1377.23,745.69 1393.78,838.02 1403.17,935.00              1403.17,935.00 1406.00,966.00 1406.00,966.00              1406.00,966.00 1406.00,975.00 1406.00,975.00              1406.00,975.00 1408.00,1015.00 1408.00,1015.00              1408.00,1015.00 1409.00,1032.00 1409.00,1032.00              1409.00,1032.00 1409.00,1103.00 1409.00,1103.00              1409.00,1103.00 1408.00,1120.00 1408.00,1120.00              1408.00,1120.00 1407.00,1149.00 1407.00,1149.00              1407.00,1149.00 1406.00,1163.00 1406.00,1163.00              1406.00,1163.00 1404.00,1188.00 1404.00,1188.00              1404.00,1188.00 1404.00,1196.00 1404.00,1196.00              1404.00,1196.00 1398.15,1248.00 1398.15,1248.00              1392.18,1297.97 1383.31,1348.17 1371.11,1397.00              1371.11,1397.00 1357.72,1446.00 1357.72,1446.00              1356.19,1451.08 1352.75,1464.09 1350.47,1467.99              1344.52,1478.14 1329.58,1481.21 1320.01,1474.35              1307.54,1465.41 1311.26,1453.06 1314.98,1441.00              1322.54,1416.41 1329.36,1391.14 1334.79,1366.00              1358.75,1255.07 1368.32,1151.32 1367.00,1038.00              1367.00,1038.00 1366.00,1023.00 1366.00,1023.00              1366.00,1023.00 1366.00,1010.00 1366.00,1010.00              1366.00,1010.00 1365.00,992.00 1365.00,992.00              1365.00,992.00 1363.09,965.00 1363.09,965.00              1363.09,965.00 1356.15,893.00 1356.15,893.00              1342.52,778.93 1313.43,665.58 1263.26,562.00              1229.53,492.36 1179.18,419.27 1111.00,380.00 Z            M 1013.00,274.29            C 990.79,277.96 972.43,291.33 964.70,313.00              954.37,341.92 967.15,373.83 995.00,387.22              1002.28,390.71 1009.89,392.90 1018.00,393.00              1028.54,393.12 1036.26,392.11 1046.00,387.69              1087.25,368.95 1092.48,313.02 1057.00,285.68              1044.30,275.89 1028.69,272.80 1013.00,274.29 Z            M 631.00,560.21            C 631.00,560.21 666.00,560.21 666.00,560.21              702.94,560.00 739.42,563.98 776.00,569.00              776.00,569.00 793.00,571.75 793.00,571.75              806.32,573.98 819.75,576.40 820.90,593.00              821.77,605.38 812.36,615.32 800.00,615.29              800.00,615.29 760.00,609.42 760.00,609.42              744.16,606.96 706.52,603.07 691.00,603.00              691.00,603.00 675.00,602.00 675.00,602.00              675.00,602.00 645.00,602.00 645.00,602.00              645.00,602.00 625.00,603.00 625.00,603.00              625.00,603.00 576.00,608.59 576.00,608.59              523.33,617.43 471.60,636.02 432.00,673.09              422.51,681.97 410.97,696.79 404.20,708.00              390.54,730.62 382.67,756.76 380.04,783.00              380.04,783.00 380.04,793.00 380.04,793.00              380.04,793.00 379.01,803.00 379.01,803.00              379.01,803.00 379.96,814.00 379.96,814.00              381.80,856.23 394.75,897.57 411.86,936.00              411.86,936.00 434.74,981.00 434.74,981.00              436.89,985.16 439.56,990.25 439.74,995.00              440.22,1007.41 429.40,1017.86 417.00,1016.81              405.80,1015.87 401.43,1008.85 396.42,1000.00              396.42,1000.00 379.75,968.00 379.75,968.00              353.51,915.37 336.91,855.96 337.00,797.00              337.00,797.00 337.91,785.00 337.91,785.00              339.17,766.75 341.89,749.55 347.28,732.00              373.96,645.20 447.23,595.57 532.00,574.37              555.62,568.47 579.77,564.49 604.00,562.17              604.00,562.17 631.00,560.21 631.00,560.21 Z            M 1386.00,561.47            C 1397.25,559.89 1408.72,561.87 1420.00,562.00              1420.00,562.00 1465.00,566.73 1465.00,566.73              1550.00,578.98 1632.20,614.44 1676.57,692.00              1684.99,706.72 1691.04,722.75 1695.71,739.00              1699.98,753.87 1703.98,778.62 1704.00,794.00              1704.00,794.00 1704.00,814.00 1704.00,814.00              1703.98,825.54 1701.27,844.37 1699.25,856.00              1691.93,898.08 1676.31,941.08 1656.74,979.00              1631.35,1028.21 1600.00,1074.45 1564.59,1117.00              1559.93,1122.59 1555.08,1129.48 1548.00,1132.03              1533.91,1137.12 1518.18,1126.34 1519.53,1111.00              1520.32,1102.01 1524.94,1097.58 1530.41,1091.00              1530.41,1091.00 1545.79,1072.00 1545.79,1072.00              1566.50,1045.69 1585.77,1017.96 1602.58,989.00              1648.08,910.60 1685.29,808.61 1643.52,721.00              1638.81,711.14 1631.79,700.65 1625.11,692.00              1614.91,678.79 1602.50,667.21 1589.00,657.42              1564.60,639.73 1541.38,629.92 1513.00,620.67              1486.11,611.90 1453.21,606.88 1425.00,604.91              1425.00,604.91 1415.00,604.00 1415.00,604.00              1415.00,604.00 1396.00,603.00 1396.00,603.00              1396.00,603.00 1391.00,603.00 1391.00,603.00              1386.41,602.94 1383.01,602.50 1379.00,600.01              1363.56,590.39 1366.16,566.20 1386.00,561.47 Z            M 339.00,1353.00            C 337.36,1346.26 338.00,1337.10 338.00,1330.00              338.00,1311.83 339.65,1293.85 343.20,1276.00              355.97,1211.73 383.01,1153.90 418.31,1099.00              451.20,1047.85 490.05,1000.90 532.04,957.00              532.04,957.00 564.00,925.96 564.00,925.96              658.90,835.19 768.04,760.95 884.00,699.78              884.00,699.78 942.00,671.26 942.00,671.26              1006.26,640.16 1091.76,609.43 1161.00,591.63              1161.00,591.63 1196.00,583.21 1196.00,583.21              1200.52,582.23 1208.73,579.95 1213.00,580.33              1224.66,581.35 1233.82,591.02 1232.81,603.00              1232.15,610.85 1227.19,617.60 1220.00,620.79              1220.00,620.79 1196.00,626.65 1196.00,626.65              1196.00,626.65 1156.00,637.00 1156.00,637.00              1073.32,660.64 992.48,691.79 916.00,731.26              796.58,792.88 695.49,862.15 597.00,953.91              553.23,994.69 512.63,1039.45 477.58,1088.00              442.57,1136.49 411.64,1189.58 393.98,1247.00              387.34,1268.59 382.49,1290.45 380.91,1313.00              380.91,1313.00 380.00,1325.00 380.00,1325.00              380.00,1325.00 380.00,1341.00 380.00,1341.00              389.86,1339.23 403.25,1340.95 413.00,1343.37              456.95,1354.31 489.47,1394.50 490.00,1440.00              490.49,1482.10 466.44,1520.57 427.00,1536.55              411.67,1542.76 399.33,1544.19 383.00,1544.00              374.03,1543.89 363.49,1541.50 355.00,1538.67              340.23,1533.74 324.78,1524.35 314.05,1513.00              277.59,1474.21 276.02,1410.42 314.05,1372.00              321.60,1364.32 329.02,1357.46 339.00,1353.00 Z            M 1013.00,994.21            C 1013.00,994.21 1022.00,994.21 1022.00,994.21              1030.41,994.04 1040.15,996.06 1048.00,999.06              1055.76,1002.03 1064.85,1007.62 1071.00,1013.17              1107.92,1046.52 1100.19,1108.04 1057.00,1132.14              1042.97,1139.96 1031.63,1141.18 1016.00,1141.00              1006.76,1140.89 997.32,1138.16 989.00,1134.22              955.53,1118.38 939.10,1078.92 951.08,1044.00              961.19,1014.51 983.16,999.31 1013.00,994.21 Z            M 1564.00,1493.00            C 1552.16,1472.19 1550.73,1458.29 1551.00,1435.00              1551.10,1426.55 1553.31,1416.99 1556.00,1409.00              1573.68,1356.60 1629.57,1329.07 1682.00,1344.59              1694.95,1348.42 1706.52,1354.59 1717.00,1363.09              1729.05,1372.87 1736.88,1383.17 1743.75,1397.00              1752.94,1415.50 1754.23,1428.79 1754.00,1449.00              1753.91,1456.71 1751.47,1467.66 1749.00,1475.00              1735.93,1513.74 1698.57,1543.51 1657.00,1544.00              1643.14,1544.16 1629.01,1542.70 1616.00,1537.55              1610.82,1535.50 1605.79,1533.23 1601.00,1530.40              1598.52,1528.93 1594.94,1526.24 1592.00,1526.50              1592.00,1526.50 1573.00,1535.75 1573.00,1535.75              1561.70,1541.36 1549.96,1546.01 1538.00,1550.00              1499.90,1562.70 1460.12,1570.29 1420.00,1572.04              1420.00,1572.04 1409.00,1573.00 1409.00,1573.00              1409.00,1573.00 1353.00,1573.00 1353.00,1573.00              1353.00,1573.00 1340.00,1572.04 1340.00,1572.04              1299.77,1570.29 1259.51,1564.30 1220.00,1556.40              1114.40,1535.28 1013.74,1498.08 917.00,1451.26              852.43,1420.01 782.55,1379.99 724.00,1338.58              656.92,1291.13 598.26,1244.26 540.00,1186.00              540.00,1186.00 525.91,1171.00 525.91,1171.00              525.91,1171.00 512.58,1157.00 512.58,1157.00              507.30,1150.88 503.42,1147.62 503.04,1139.00              502.42,1124.88 511.11,1116.68 525.00,1117.01              536.26,1117.29 540.73,1124.64 548.00,1132.00              548.00,1132.00 558.04,1143.00 558.04,1143.00              558.04,1143.00 589.00,1173.96 589.00,1173.96              640.83,1223.54 697.50,1269.23 757.00,1309.33              899.21,1405.17 1072.39,1486.83 1242.00,1517.42              1320.83,1531.64 1410.42,1538.75 1489.00,1520.12              1506.02,1516.08 1524.94,1510.44 1541.00,1503.57              1541.00,1503.57 1564.00,1493.00 1564.00,1493.00 Z            M 378.00,1383.30            C 368.43,1385.11 359.77,1388.57 352.00,1394.50              311.49,1425.43 325.60,1489.44 374.00,1500.34              380.40,1501.78 387.46,1502.52 394.00,1501.71              406.78,1500.14 418.33,1495.49 428.00,1486.83              452.22,1465.14 454.18,1427.52 433.08,1403.04              428.38,1397.59 422.36,1392.70 416.00,1389.32              404.07,1382.97 391.23,1381.98 378.00,1383.30 Z            M 1643.00,1383.29            C 1634.47,1384.71 1626.28,1387.83 1619.00,1392.55              1613.19,1396.31 1607.23,1402.27 1603.36,1408.00              1591.28,1425.90 1589.06,1450.71 1599.32,1470.00              1603.64,1478.12 1605.05,1478.13 1610.83,1484.09              1613.15,1486.47 1614.28,1488.25 1617.04,1490.47              1625.30,1497.13 1640.41,1501.75 1651.00,1501.99              1702.82,1503.16 1731.18,1442.08 1697.70,1403.00              1691.77,1396.08 1684.27,1391.02 1676.00,1387.31              1665.74,1382.72 1654.05,1382.24 1643.00,1383.29 Z            M 720.00,1473.48            C 739.41,1472.37 742.16,1487.65 747.58,1502.00              760.55,1536.38 775.22,1567.51 792.25,1600.00              792.25,1600.00 819.00,1644.00 819.00,1644.00              865.29,1713.44 935.94,1782.04 1025.00,1781.00              1025.00,1781.00 1035.00,1780.08 1035.00,1780.08              1097.85,1775.05 1152.21,1732.72 1191.41,1686.00              1206.72,1667.75 1219.99,1649.21 1232.58,1629.00              1238.42,1619.63 1244.36,1610.12 1257.00,1611.19              1268.85,1612.18 1277.83,1621.94 1276.81,1634.00              1276.16,1641.76 1269.70,1650.41 1265.58,1657.00              1255.60,1672.93 1243.22,1690.42 1231.39,1705.00              1187.65,1758.91 1134.16,1803.32 1065.00,1818.58              1046.93,1822.56 1029.41,1823.21 1011.00,1823.00              985.86,1822.70 955.98,1814.19 933.00,1804.28              868.96,1776.66 814.08,1717.31 777.58,1659.00              777.58,1659.00 750.25,1612.00 750.25,1612.00              734.04,1579.61 718.51,1547.16 706.31,1513.00              702.55,1502.48 698.03,1495.00 703.82,1484.00              705.86,1480.13 708.08,1477.83 712.00,1475.84              714.80,1474.42 716.98,1474.01 720.00,1473.48 Z" />
</svg>