<svg xmlns="http://www.w3.org/2000/svg" viewBox="805.4 -0.61 453.69 457.11">
  <path id="elgato" fill="#303030" stroke="none" stroke-width="1"
    d="M 1103.00,274.00            C 1103.00,274.00 1022.00,321.00 1022.00,321.00              1022.00,321.00 999.00,334.28 999.00,334.28              996.23,335.85 991.03,339.20 988.00,339.48              984.53,339.80 979.95,336.72 977.00,334.99              977.00,334.99 956.00,322.80 956.00,322.80              953.86,321.52 948.20,318.61 947.04,316.61              946.22,314.98 947.00,307.46 947.04,305.00              947.04,305.00 947.04,144.00 947.04,144.00              947.00,141.69 946.78,138.37 948.02,136.38              949.48,134.04 954.53,131.57 957.00,130.15              957.00,130.15 975.00,119.60 975.00,119.60              978.50,117.53 984.94,112.91 989.00,113.80              991.35,114.32 999.48,119.30 1002.00,120.80              1002.00,120.80 1026.00,134.58 1026.00,134.58              1026.00,134.58 1106.00,180.42 1106.00,180.42              1106.00,180.42 1219.00,245.15 1219.00,245.15              1219.00,245.15 1248.00,261.72 1248.00,261.72              1250.72,263.27 1257.27,266.34 1258.36,269.21              1259.32,271.73 1257.02,280.12 1256.27,283.00              1252.66,296.69 1250.02,304.92 1244.42,318.00              1222.30,369.71 1182.93,411.16 1132.00,435.22              1111.11,445.09 1075.05,455.96 1052.00,456.00              1052.00,456.00 1015.00,456.00 1015.00,456.00              1002.04,455.84 979.59,450.90 967.00,447.02              933.76,436.80 903.51,419.68 878.00,395.91              851.80,371.50 831.71,340.52 819.32,307.00              812.61,288.84 806.23,261.33 806.00,242.00              805.69,214.92 805.68,198.78 812.37,172.00              828.61,107.04 874.89,49.37 936.00,21.31              958.60,10.93 994.13,0.04 1019.00,0.00              1043.45,-0.04 1054.33,-1.03 1079.00,3.80              1136.97,15.17 1190.10,49.86 1223.00,99.00              1232.17,112.69 1238.22,123.97 1244.86,139.00              1247.82,145.69 1251.71,153.84 1253.00,161.00              1253.00,161.00 1226.00,176.60 1226.00,176.60              1226.00,176.60 1211.00,184.00 1211.00,184.00              1205.77,168.01 1200.17,152.58 1191.55,138.00              1169.20,100.23 1135.43,71.45 1094.00,56.69              1077.69,50.88 1055.31,46.21 1038.00,46.00              941.39,44.87 859.66,119.45 852.91,216.00              852.91,216.00 852.00,226.00 852.00,226.00              852.00,226.00 852.00,230.00 852.00,230.00              852.00,230.00 852.91,241.00 852.91,241.00              857.98,310.41 903.20,371.84 968.00,397.55              984.45,404.08 1009.32,409.97 1027.00,410.00              1027.00,410.00 1043.00,410.00 1043.00,410.00              1052.56,409.95 1064.64,407.78 1074.00,405.65              1118.25,395.58 1154.44,370.27 1181.37,334.00              1189.42,323.16 1195.47,312.18 1201.22,300.00              1202.53,297.22 1206.55,288.96 1205.60,286.18              1204.51,283.00 1194.22,277.99 1191.00,276.15              1191.00,276.15 1149.00,252.15 1149.00,252.15              1149.00,252.15 1043.00,191.42 1043.00,191.42              1043.00,191.42 987.00,159.00 987.00,159.00              987.00,159.00 987.00,294.00 987.00,294.00              987.00,294.00 1039.00,263.80 1039.00,263.80              1043.33,261.22 1057.92,251.64 1062.00,251.48              1065.31,251.36 1070.95,255.11 1074.00,256.77              1080.43,260.27 1098.67,269.66 1103.00,274.00 Z" />
</svg>