<svg xmlns="http://www.w3.org/2000/svg" viewBox="-0.5 -0.61 1259.59 457.11">
  <path id="elgato-wordmark" fill="#303030" stroke="none" stroke-width="1" d="M 1103.00,274.00            C 1103.00,274.00 1022.00,321.00 1022.00,321.00              1022.00,321.00 999.00,334.28 999.00,334.28              996.23,335.85 991.03,339.20 988.00,339.48              984.53,339.80 979.95,336.72 977.00,334.99              977.00,334.99 956.00,322.80 956.00,322.80              953.86,321.52 948.20,318.61 947.04,316.61              946.22,314.98 947.00,307.46 947.04,305.00              947.04,305.00 947.04,144.00 947.04,144.00              947.00,141.69 946.78,138.37 948.02,136.38              949.48,134.04 954.53,131.57 957.00,130.15              957.00,130.15 975.00,119.60 975.00,119.60              978.50,117.53 984.94,112.91 989.00,113.80              991.35,114.32 999.48,119.30 1002.00,120.80              1002.00,120.80 1026.00,134.58 1026.00,134.58              1026.00,134.58 1106.00,180.42 1106.00,180.42              1106.00,180.42 1219.00,245.15 1219.00,245.15              1219.00,245.15 1248.00,261.72 1248.00,261.72              1250.72,263.27 1257.27,266.34 1258.36,269.21              1259.32,271.73 1257.02,280.12 1256.27,283.00              1252.66,296.69 1250.02,304.92 1244.42,318.00              1222.30,369.71 1182.93,411.16 1132.00,435.22              1111.11,445.09 1075.05,455.96 1052.00,456.00              1052.00,456.00 1015.00,456.00 1015.00,456.00              1002.04,455.84 979.59,450.90 967.00,447.02              933.76,436.80 903.51,419.68 878.00,395.91              851.80,371.50 831.71,340.52 819.32,307.00              812.61,288.84 806.23,261.33 806.00,242.00              805.69,214.92 805.68,198.78 812.37,172.00              828.61,107.04 874.89,49.37 936.00,21.31              958.60,10.93 994.13,0.04 1019.00,0.00              1043.45,-0.04 1054.33,-1.03 1079.00,3.80              1136.97,15.17 1190.10,49.86 1223.00,99.00              1232.17,112.69 1238.22,123.97 1244.86,139.00              1247.82,145.69 1251.71,153.84 1253.00,161.00              1253.00,161.00 1226.00,176.60 1226.00,176.60              1226.00,176.60 1211.00,184.00 1211.00,184.00              1205.77,168.01 1200.17,152.58 1191.55,138.00              1169.20,100.23 1135.43,71.45 1094.00,56.69              1077.69,50.88 1055.31,46.21 1038.00,46.00              941.39,44.87 859.66,119.45 852.91,216.00              852.91,216.00 852.00,226.00 852.00,226.00              852.00,226.00 852.00,230.00 852.00,230.00              852.00,230.00 852.91,241.00 852.91,241.00              857.98,310.41 903.20,371.84 968.00,397.55              984.45,404.08 1009.32,409.97 1027.00,410.00              1027.00,410.00 1043.00,410.00 1043.00,410.00              1052.56,409.95 1064.64,407.78 1074.00,405.65              1118.25,395.58 1154.44,370.27 1181.37,334.00              1189.42,323.16 1195.47,312.18 1201.22,300.00              1202.53,297.22 1206.55,288.96 1205.60,286.18              1204.51,283.00 1194.22,277.99 1191.00,276.15              1191.00,276.15 1149.00,252.15 1149.00,252.15              1149.00,252.15 1043.00,191.42 1043.00,191.42              1043.00,191.42 987.00,159.00 987.00,159.00              987.00,159.00 987.00,294.00 987.00,294.00              987.00,294.00 1039.00,263.80 1039.00,263.80              1043.33,261.22 1057.92,251.64 1062.00,251.48              1065.31,251.36 1070.95,255.11 1074.00,256.77              1080.43,260.27 1098.67,269.66 1103.00,274.00 Z            M 521.00,159.00            C 521.00,159.00 520.04,147.00 520.04,147.00              520.04,147.00 520.04,132.00 520.04,132.00              520.04,132.00 520.99,125.53 520.99,125.53              520.99,125.53 529.00,119.80 529.00,119.80              529.00,119.80 549.00,109.00 549.00,109.00              549.00,109.00 549.00,159.00 549.00,159.00              549.00,159.00 569.00,160.00 569.00,160.00              569.00,160.00 583.00,160.00 583.00,160.00              583.00,160.00 582.00,185.00 582.00,185.00              582.00,185.00 549.00,186.00 549.00,186.00              549.00,186.00 549.00,274.00 549.00,274.00              549.00,274.00 549.72,296.00 549.72,296.00              550.26,300.49 549.53,303.26 553.15,306.78              559.29,312.76 567.55,309.88 575.00,309.08              575.00,309.08 582.96,309.08 582.96,309.08              582.96,309.08 582.96,324.00 582.96,324.00              582.96,324.00 582.00,334.00 582.00,334.00              566.44,336.80 542.89,340.61 530.09,328.79              522.34,321.64 520.12,309.13 520.00,299.00              520.00,299.00 520.00,227.00 520.00,227.00              520.00,215.71 519.17,195.20 521.00,185.00              521.00,185.00 493.00,185.00 493.00,185.00              493.00,185.00 492.00,160.00 492.00,160.00              492.00,160.00 521.00,159.00 521.00,159.00 Z            M 152.00,116.00            C 152.00,116.00 181.00,116.00 181.00,116.00              181.00,116.00 181.00,314.00 181.00,314.00              181.00,314.00 179.98,321.79 179.98,321.79              179.98,321.79 172.00,327.80 172.00,327.80              172.00,327.80 152.00,339.00 152.00,339.00              152.00,339.00 152.00,116.00 152.00,116.00 Z            M 125.00,278.00            C 124.30,293.23 118.26,314.26 106.99,324.91              90.53,340.44 57.67,342.28 37.00,335.66              29.21,333.16 22.09,329.79 16.29,323.83              6.25,313.53 0.07,297.32 0.00,283.00              0.00,283.00 0.00,265.00 0.00,265.00              0.00,265.00 0.00,220.00 0.00,220.00              0.02,204.02 6.39,182.39 18.04,171.09              23.45,165.84 32.76,160.60 40.00,158.44              59.14,152.73 89.53,155.87 104.96,169.32              127.04,188.59 124.00,230.29 124.00,257.00              124.00,257.00 70.00,257.00 70.00,257.00              70.00,257.00 54.00,258.00 54.00,258.00              54.00,258.00 28.00,258.00 28.00,258.00              29.69,263.96 28.63,266.31 29.17,272.00              30.24,283.24 31.97,295.02 39.67,303.83              52.09,318.04 74.75,317.13 86.79,303.00              92.53,296.26 94.84,285.61 96.00,277.00              96.00,277.00 125.00,278.00 125.00,278.00 Z            M 302.00,324.00            C 293.11,329.33 287.41,332.58 277.00,334.54              269.17,336.02 263.91,336.40 256.00,335.27              249.14,334.29 246.38,333.84 240.00,330.74              219.10,320.58 210.27,300.41 210.00,278.00              210.00,278.00 209.00,258.00 209.00,258.00              209.00,258.00 209.00,236.00 209.00,236.00              209.00,236.00 210.04,224.00 210.04,224.00              210.04,224.00 210.04,214.00 210.04,214.00              211.35,201.64 214.76,187.39 221.75,177.00              231.24,162.89 246.56,157.02 263.00,156.09              266.66,155.88 268.53,156.43 272.00,156.85              286.33,158.56 291.07,161.69 303.00,169.00              303.00,169.00 302.00,160.00 302.00,160.00              302.00,160.00 316.00,160.00 316.00,160.00              316.00,160.00 331.00,159.00 331.00,159.00              331.00,159.00 331.00,351.00 331.00,351.00              330.98,365.55 328.72,381.26 319.48,393.00              300.42,417.24 258.88,421.37 235.00,401.67              218.32,387.91 216.62,371.88 214.00,352.00              214.00,352.00 237.00,352.00 237.00,352.00              246.76,352.19 242.35,355.80 247.07,368.00              250.00,375.57 254.68,380.52 262.00,384.02              276.31,390.85 294.29,381.45 299.45,367.00              302.38,358.82 302.00,333.72 302.00,324.00 Z            M 361.00,210.00            C 361.15,192.90 366.82,177.27 381.00,166.93              396.22,155.82 416.94,154.69 435.00,156.85              446.77,158.25 457.25,161.43 465.91,170.09              474.85,179.03 477.85,190.71 478.00,203.00              478.00,203.00 478.00,336.00 478.00,336.00              478.00,336.00 450.00,336.00 450.00,336.00              450.00,336.00 451.00,324.00 451.00,324.00              433.65,335.56 423.83,339.24 403.00,339.00              395.34,338.91 387.73,336.86 381.00,333.20              350.86,316.82 348.18,265.27 373.00,243.18              392.53,225.81 425.28,226.00 450.00,226.00              447.59,212.56 451.02,198.06 439.70,187.34              429.75,177.92 406.32,179.90 397.34,190.09              392.93,195.10 390.92,203.51 390.00,210.00              390.00,210.00 361.00,210.00 361.00,210.00 Z            M 647.00,156.21            C 647.00,156.21 655.00,156.21 655.00,156.21              663.61,155.99 669.66,156.39 678.00,159.03              683.39,160.73 688.29,162.93 693.00,166.09              717.59,182.55 718.00,213.58 718.00,240.00              718.00,240.00 718.00,273.00 718.00,273.00              717.61,306.26 702.37,334.11 667.00,338.62              661.14,339.47 648.76,339.56 643.00,338.62              637.58,337.58 629.84,335.25 625.00,332.68              604.47,321.75 597.29,301.95 595.04,280.00              595.04,280.00 595.04,270.00 595.04,270.00              595.04,270.00 594.00,257.00 594.00,257.00              594.00,257.00 595.00,242.00 595.00,242.00              595.00,242.00 595.00,220.00 595.00,220.00              595.03,198.10 604.38,172.69 625.00,162.37              631.86,158.94 639.51,157.65 647.00,156.21 Z            M 304.00,169.00            C 304.00,169.00 303.00,169.00 303.00,169.00              303.00,169.00 304.00,170.00 304.00,170.00              304.00,170.00 304.00,169.00 304.00,169.00 Z            M 95.00,232.00            C 95.00,219.79 94.54,202.16 87.21,192.00              77.07,177.94 47.42,176.91 36.79,191.04              28.01,202.71 29.00,218.23 29.00,232.00              29.00,232.00 95.00,232.00 95.00,232.00 Z            M 266.00,181.30            C 240.03,186.20 239.00,210.65 239.00,232.00              239.00,232.00 239.00,255.00 239.00,255.00              239.00,266.63 238.48,272.31 241.24,284.00              244.86,299.38 253.15,312.32 271.00,310.53              274.27,310.21 277.98,309.42 281.00,308.12              299.40,300.21 300.80,279.26 301.22,262.00              301.22,262.00 301.22,252.00 301.22,252.00              301.34,249.58 300.99,248.66 301.22,246.00              301.22,246.00 302.00,237.00 302.00,237.00              302.11,226.89 300.74,211.44 297.31,202.00              292.12,187.76 281.38,179.91 266.00,181.30 Z            M 653.00,181.29            C 648.89,181.91 644.71,182.40 641.00,184.41              633.29,188.61 628.53,197.70 626.66,206.00              623.34,220.75 624.00,235.99 624.00,251.00              624.00,251.00 624.00,269.00 624.00,269.00              624.07,274.73 625.63,285.46 627.16,291.00              631.10,305.33 639.84,313.64 655.00,313.99              658.46,314.07 661.63,313.99 665.00,313.07              690.97,306.05 689.00,268.36 689.00,247.00              689.00,247.00 689.00,232.00 689.00,232.00              688.98,221.89 686.96,206.14 682.68,197.00              676.98,184.83 665.98,180.11 653.00,181.29 Z            M 449.00,252.00            C 449.00,252.00 428.00,252.00 428.00,252.00              421.45,252.01 412.10,253.12 406.00,255.47              376.58,266.77 381.76,312.78 411.00,313.96              418.43,314.26 425.82,312.01 432.00,307.90              437.21,304.43 441.26,299.48 444.21,294.00              448.06,286.81 448.99,282.03 449.00,274.00              449.00,274.00 449.00,252.00 449.00,252.00 Z"/>
</svg>