<svg xmlns="http://www.w3.org/2000/svg" viewBox="155.68 395.71 2418.82 2729.79">
  <path id="envato" fill="#303030" stroke="none" stroke-width="1"
    d="M 1988.00,396.21            C 1988.00,396.21 2007.00,396.21 2007.00,396.21              2007.00,396.21 2020.00,397.00 2020.00,397.00              2112.37,398.08 2204.67,433.79 2268.96,501.00              2287.27,520.14 2302.90,541.87 2317.34,564.00              2346.66,608.90 2371.39,658.70 2392.42,708.00              2469.74,889.23 2518.19,1094.22 2546.27,1289.00              2554.93,1349.07 2561.93,1409.52 2566.09,1470.00              2566.09,1470.00 2569.00,1505.00 2569.00,1505.00              2569.00,1505.00 2569.00,1514.00 2569.00,1514.00              2569.00,1514.00 2570.00,1524.00 2570.00,1524.00              2570.00,1524.00 2571.00,1543.00 2571.00,1543.00              2571.00,1543.00 2572.04,1563.00 2572.04,1563.00              2572.04,1563.00 2572.04,1575.00 2572.04,1575.00              2572.04,1575.00 2573.00,1585.00 2573.00,1585.00              2573.00,1585.00 2573.00,1600.00 2573.00,1600.00              2573.00,1600.00 2574.00,1617.00 2574.00,1617.00              2574.00,1617.00 2574.00,1742.00 2574.00,1742.00              2574.00,1742.00 2573.00,1757.00 2573.00,1757.00              2573.00,1757.00 2573.00,1772.00 2573.00,1772.00              2573.00,1772.00 2572.00,1788.00 2572.00,1788.00              2572.00,1788.00 2571.00,1810.00 2571.00,1810.00              2571.00,1810.00 2570.00,1827.00 2570.00,1827.00              2570.00,1827.00 2568.09,1855.00 2568.09,1855.00              2564.17,1912.29 2557.65,1969.12 2549.27,2026.00              2517.58,2241.16 2445.60,2463.31 2322.66,2644.00              2290.28,2691.58 2254.28,2735.93 2215.09,2778.00              2215.09,2778.00 2179.00,2814.96 2179.00,2814.96              2104.81,2885.93 2021.11,2943.73 1930.00,2990.74              1930.00,2990.74 1912.00,2999.26 1912.00,2999.26              1787.81,3059.37 1652.70,3095.41 1516.00,3112.28              1516.00,3112.28 1426.00,3121.09 1426.00,3121.09              1426.00,3121.09 1397.00,3123.00 1397.00,3123.00              1397.00,3123.00 1381.00,3124.00 1381.00,3124.00              1381.00,3124.00 1358.00,3125.00 1358.00,3125.00              1358.00,3125.00 1286.00,3125.00 1286.00,3125.00              1286.00,3125.00 1265.00,3124.00 1265.00,3124.00              1265.00,3124.00 1254.00,3123.04 1254.00,3123.04              1254.00,3123.04 1205.00,3119.17 1205.00,3119.17              1137.89,3112.46 1071.97,3099.49 1007.00,3081.42              853.07,3038.62 708.84,2962.52 585.00,2861.74              585.00,2861.74 535.00,2818.17 535.00,2818.17              535.00,2818.17 485.04,2770.00 485.04,2770.00              374.42,2654.35 287.93,2518.79 231.42,2369.00              200.35,2286.62 176.30,2191.46 165.85,2104.00              165.85,2104.00 158.91,2029.00 158.91,2029.00              158.91,2029.00 158.00,2019.00 158.00,2019.00              158.00,2019.00 157.00,1997.00 157.00,1997.00              157.00,1997.00 157.00,1956.00 157.00,1956.00              157.00,1956.00 156.18,1944.00 156.18,1944.00              156.18,1944.00 157.00,1933.00 157.00,1933.00              157.00,1933.00 157.00,1905.00 157.00,1905.00              157.00,1905.00 158.00,1890.00 158.00,1890.00              158.00,1890.00 159.00,1865.00 159.00,1865.00              159.00,1865.00 159.91,1855.00 159.91,1855.00              159.91,1855.00 163.83,1813.00 163.83,1813.00              167.93,1772.05 175.26,1729.15 184.35,1689.00              202.29,1609.73 227.36,1531.93 261.31,1458.00              261.31,1458.00 279.74,1420.00 279.74,1420.00              300.91,1376.30 327.06,1331.18 354.34,1291.00              380.51,1252.47 408.47,1215.31 438.87,1180.00              438.87,1180.00 463.83,1152.00 463.83,1152.00              469.52,1145.71 474.89,1139.15 482.00,1134.36              488.15,1130.22 494.69,1127.92 502.00,1126.87              532.66,1122.47 557.34,1145.28 557.00,1176.00              556.89,1185.45 554.33,1190.35 551.72,1199.00              551.72,1199.00 541.00,1234.00 541.00,1234.00              530.82,1269.32 522.10,1304.93 515.00,1341.00              506.78,1382.79 501.88,1424.69 497.83,1467.00              497.83,1467.00 495.91,1495.00 495.91,1495.00              495.91,1495.00 495.00,1507.00 495.00,1507.00              495.00,1507.00 494.00,1526.00 494.00,1526.00              494.00,1526.00 494.00,1602.00 494.00,1602.00              494.00,1602.00 494.96,1614.00 494.96,1614.00              494.96,1614.00 494.96,1625.00 494.96,1625.00              494.96,1625.00 496.91,1650.00 496.91,1650.00              496.91,1650.00 503.72,1718.00 503.72,1718.00              515.83,1810.03 537.16,1892.99 569.32,1980.00              569.32,1980.00 588.58,2028.00 588.58,2028.00              588.58,2028.00 602.25,2058.00 602.25,2058.00              611.85,2072.56 628.39,2082.39 646.00,2081.99              672.67,2081.38 694.96,2057.29 695.00,2031.00              695.00,2031.00 695.00,2010.00 695.00,2010.00              695.00,2010.00 696.00,1994.00 696.00,1994.00              696.00,1994.00 696.00,1970.00 696.00,1970.00              696.00,1970.00 697.00,1955.00 697.00,1955.00              697.00,1955.00 698.00,1928.00 698.00,1928.00              698.00,1928.00 698.91,1918.00 698.91,1918.00              698.91,1918.00 700.83,1892.00 700.83,1892.00              700.83,1892.00 711.73,1797.00 711.73,1797.00              730.17,1669.07 765.63,1543.91 813.60,1424.00              928.38,1137.05 1123.15,875.29 1361.00,678.75              1484.14,576.99 1637.13,481.20 1790.00,432.34              1836.58,417.46 1884.43,406.19 1933.00,400.28              1933.00,400.28 1972.00,397.00 1972.00,397.00              1977.47,396.98 1982.56,397.20 1988.00,396.21 Z" />
</svg>