<svg xmlns="http://www.w3.org/2000/svg" viewBox="-0.5 -0.82 883 1025.09">
  <path id="epic-games" fill="#303030" stroke="none" stroke-width="1" d="M 60.00,0.07            C 60.00,0.07 132.00,0.07 132.00,0.07              132.00,0.07 271.00,0.07 271.00,0.07              271.00,0.07 696.00,0.07 696.00,0.07              696.00,0.07 737.00,0.07 737.00,0.07              737.00,0.07 774.00,0.07 774.00,0.07              805.59,0.00 850.76,-5.25 870.90,25.00              874.51,30.43 877.16,37.70 878.85,44.00              880.75,51.16 881.99,58.60 882.00,66.00              882.00,66.00 882.00,801.00 882.00,801.00              881.98,815.66 879.22,832.39 869.48,843.91              861.36,853.53 848.31,859.19 837.00,864.00              837.00,864.00 792.00,882.85 792.00,882.85              792.00,882.85 552.00,983.42 552.00,983.42              552.00,983.42 491.00,1009.01 491.00,1009.01              479.50,1013.76 464.82,1021.45 453.00,1023.77              453.00,1023.77 435.00,1023.77 435.00,1023.77              421.95,1023.84 404.27,1014.56 392.00,1009.28              392.00,1009.28 323.00,980.42 323.00,980.42              323.00,980.42 83.00,879.85 83.00,879.85              83.00,879.85 39.00,861.30 39.00,861.30              28.01,856.35 16.72,850.25 9.75,840.00              2.41,829.20 0.02,811.89 0.00,799.00              0.00,799.00 0.00,399.00 0.00,399.00              0.00,399.00 0.00,177.00 0.00,177.00              0.00,177.00 0.00,66.00 0.00,66.00              0.26,43.99 8.78,19.91 29.00,8.90              38.52,3.72 49.44,2.02 60.00,0.07 Z            M 751.00,286.00            C 751.00,286.00 751.00,216.00 751.00,216.00              751.00,190.07 751.42,165.97 730.00,147.18              721.24,139.51 705.55,134.29 694.00,133.04              694.00,133.04 685.00,133.04 685.00,133.04              685.00,133.04 678.00,132.05 678.00,132.05              678.00,132.05 654.00,132.05 654.00,132.05              654.00,132.05 644.00,132.91 644.00,132.91              628.77,133.95 616.22,135.30 603.00,144.10              583.41,157.14 577.03,181.73 577.00,204.00              577.00,204.00 577.00,371.00 577.00,371.00              577.00,371.00 577.00,463.00 577.00,463.00              577.09,470.20 578.75,481.01 580.64,488.00              582.10,493.41 585.02,500.22 587.93,505.00              599.53,524.07 622.62,531.97 644.00,532.00              644.00,532.00 659.00,532.00 659.00,532.00              659.00,532.00 688.00,532.00 688.00,532.00              702.95,531.82 721.81,525.91 732.91,515.70              745.07,504.51 751.81,484.28 752.00,468.00              752.00,468.00 752.00,367.00 752.00,367.00              752.00,367.00 701.00,367.00 701.00,367.00              692.87,367.06 693.02,368.27 693.00,376.00              693.00,376.00 693.00,455.00 693.00,455.00              692.97,471.82 685.82,478.97 669.00,479.00              663.92,479.01 656.75,479.38 652.00,478.07              638.87,474.46 637.02,462.69 637.00,451.00              637.00,451.00 637.00,247.00 637.00,247.00              637.00,247.00 637.00,234.00 637.00,234.00              637.00,224.98 635.98,204.49 639.57,197.00              641.91,192.11 646.83,188.28 652.00,186.79              655.07,185.90 657.85,186.00 661.00,186.00              674.39,185.98 687.01,184.62 691.24,201.00              692.10,204.31 691.99,206.65 692.00,210.00              692.00,210.00 692.00,267.00 692.00,267.00              692.00,270.48 691.08,282.99 693.60,284.98              695.19,286.23 699.01,286.00 701.00,286.00              701.00,286.00 751.00,286.00 751.00,286.00 Z            M 263.00,136.00            C 263.00,136.00 130.00,136.00 130.00,136.00              130.00,136.00 130.00,529.00 130.00,529.00              130.00,529.00 264.00,529.00 264.00,529.00              264.00,529.00 264.00,474.00 264.00,474.00              264.00,474.00 190.00,474.00 190.00,474.00              190.00,474.00 190.00,356.00 190.00,356.00              190.00,356.00 260.00,356.00 260.00,356.00              260.00,356.00 260.00,301.00 260.00,301.00              260.00,301.00 190.00,301.00 190.00,301.00              190.00,301.00 190.00,191.00 190.00,191.00              190.00,191.00 263.00,191.00 263.00,191.00              263.00,191.00 263.00,136.00 263.00,136.00 Z            M 353.00,386.00            C 377.20,386.00 409.93,389.30 431.00,376.54              449.26,365.48 458.75,343.93 459.00,323.00              459.00,323.00 459.00,199.00 459.00,199.00              458.67,171.24 443.39,147.19 416.00,139.43              399.93,134.87 383.50,136.00 367.00,136.00              367.00,136.00 293.00,136.00 293.00,136.00              293.00,136.00 293.00,529.00 293.00,529.00              293.00,529.00 353.00,529.00 353.00,529.00              353.00,529.00 353.00,386.00 353.00,386.00 Z            M 546.00,136.00            C 546.00,136.00 486.00,136.00 486.00,136.00              486.00,136.00 486.00,529.00 486.00,529.00              486.00,529.00 546.00,529.00 546.00,529.00              546.00,529.00 546.00,136.00 546.00,136.00 Z            M 353.00,189.00            C 362.89,189.00 384.20,187.26 391.91,192.85              397.38,196.82 398.92,203.63 399.00,210.00              399.00,210.00 399.00,273.00 399.00,273.00              399.00,273.00 399.00,311.00 399.00,311.00              398.97,316.22 398.56,321.58 395.35,325.96              390.69,332.31 384.20,332.99 377.00,333.00              377.00,333.00 353.00,333.00 353.00,333.00              353.00,333.00 353.00,189.00 353.00,189.00 Z            M 239.00,638.00            C 230.03,631.65 221.84,626.55 211.00,623.90              179.65,616.24 145.23,628.76 132.60,660.00              129.79,666.97 128.09,674.46 128.00,682.00              127.56,720.10 153.77,744.25 191.00,745.90              194.28,746.04 195.95,745.47 199.00,745.17              211.95,743.87 218.28,742.43 230.00,736.22              238.92,731.49 242.98,730.24 243.00,720.00              243.00,720.00 243.00,674.00 243.00,674.00              243.00,674.00 189.00,674.00 189.00,674.00              189.00,674.00 189.00,698.00 189.00,698.00              189.00,698.00 213.00,698.00 213.00,698.00              213.00,701.12 213.50,709.23 211.98,711.61              210.27,714.29 205.01,716.09 202.00,716.69              193.37,718.41 185.88,717.90 178.00,713.68              157.71,702.79 155.06,671.95 173.01,657.52              178.70,652.95 183.77,651.09 191.00,651.00              206.61,650.82 208.35,654.90 221.00,662.00              225.92,655.98 236.41,644.61 239.00,638.00 Z            M 735.00,661.00            C 735.00,661.00 746.28,645.00 746.28,645.00              747.48,643.23 749.55,640.43 749.13,638.17              748.66,635.65 745.04,633.53 743.00,632.31              736.57,628.48 728.34,625.28 721.00,623.81              700.37,619.67 672.45,621.78 661.81,643.00              659.19,648.21 658.07,652.18 658.00,658.00              657.95,662.56 657.84,666.58 659.22,671.00              664.28,687.19 680.15,692.39 695.00,696.11              701.73,697.79 719.04,700.44 721.16,708.02              723.25,715.51 713.30,717.94 708.00,718.00              690.64,718.18 684.07,711.90 670.00,704.00              665.35,709.38 654.77,720.76 653.00,727.00              659.43,731.29 663.63,734.87 671.00,737.99              695.75,748.45 739.57,751.20 751.74,721.00              753.51,716.63 753.94,713.66 754.00,709.00              754.05,703.90 753.91,698.83 752.05,694.00              746.54,679.71 730.56,674.27 717.00,670.87              710.56,669.26 696.61,666.69 692.43,661.79              687.01,655.43 694.07,649.51 702.00,649.10              713.83,648.50 725.17,655.51 735.00,661.00 Z            M 386.00,743.00            C 386.00,743.00 347.58,651.00 347.58,651.00              347.58,651.00 339.43,632.00 339.43,632.00              339.43,632.00 335.30,623.99 335.30,623.99              335.30,623.99 328.00,623.00 328.00,623.00              328.00,623.00 311.00,623.00 311.00,623.00              311.00,623.00 305.65,623.99 305.65,623.99              305.65,623.99 301.40,632.00 301.40,632.00              301.40,632.00 293.42,651.00 293.42,651.00              293.42,651.00 266.58,715.00 266.58,715.00              266.58,715.00 255.00,743.00 255.00,743.00              255.00,743.00 282.00,743.00 282.00,743.00              294.63,742.76 290.47,728.71 297.50,722.60              299.71,720.67 303.24,721.01 306.00,721.00              306.00,721.00 344.00,721.00 344.00,721.00              344.00,721.00 349.19,736.00 349.19,736.00              349.19,736.00 352.51,741.98 352.51,741.98              352.51,741.98 359.00,743.00 359.00,743.00              359.00,743.00 386.00,743.00 386.00,743.00 Z            M 460.00,670.00            C 460.00,670.00 443.00,641.00 443.00,641.00              443.00,641.00 433.10,625.57 433.10,625.57              433.10,625.57 425.00,624.00 425.00,624.00              425.00,624.00 399.00,624.00 399.00,624.00              399.00,624.00 399.00,743.00 399.00,743.00              399.00,743.00 430.00,743.00 430.00,743.00              430.00,743.00 430.00,699.00 430.00,699.00              430.00,699.00 431.00,675.00 431.00,675.00              431.00,675.00 447.31,701.00 447.31,701.00              447.31,701.00 461.00,721.00 461.00,721.00              461.00,721.00 491.00,675.00 491.00,675.00              491.00,675.00 491.00,743.00 491.00,743.00              491.00,743.00 523.00,743.00 523.00,743.00              523.00,743.00 523.00,624.00 523.00,624.00              523.00,624.00 497.00,624.00 497.00,624.00              497.00,624.00 488.90,625.57 488.90,625.57              488.90,625.57 479.58,640.00 479.58,640.00              479.58,640.00 462.00,670.00 462.00,670.00              462.00,670.00 460.00,670.00 460.00,670.00 Z            M 641.00,624.00            C 641.00,624.00 547.00,624.00 547.00,624.00              547.00,624.00 547.00,743.00 547.00,743.00              547.00,743.00 642.00,743.00 642.00,743.00              642.00,743.00 642.00,716.00 642.00,716.00              642.00,716.00 578.00,716.00 578.00,716.00              578.00,716.00 578.00,696.00 578.00,696.00              578.00,696.00 635.00,696.00 635.00,696.00              635.00,696.00 635.00,678.00 635.00,678.00              635.00,678.00 633.98,671.60 633.98,671.60              633.98,671.60 628.00,670.00 628.00,670.00              628.00,670.00 578.00,670.00 578.00,670.00              578.00,670.00 578.00,652.00 578.00,652.00              578.00,652.00 632.00,652.00 632.00,652.00              640.64,651.98 640.98,651.64 641.00,643.00              641.00,643.00 641.00,624.00 641.00,624.00 Z            M 320.00,662.00            C 320.00,662.00 333.00,695.00 333.00,695.00              333.00,695.00 307.00,695.00 307.00,695.00              307.00,695.00 320.00,662.00 320.00,662.00 Z            M 612.00,883.00            C 612.00,883.00 373.00,883.00 373.00,883.00              373.00,883.00 303.00,883.00 303.00,883.00              303.00,883.00 272.00,884.00 272.00,884.00              272.00,884.00 311.00,897.69 311.00,897.69              311.00,897.69 392.00,925.67 392.00,925.67              392.00,925.67 424.00,936.67 424.00,936.67              428.34,938.11 435.63,941.15 440.00,940.64              440.00,940.64 475.00,929.67 475.00,929.67              475.00,929.67 541.00,907.67 541.00,907.67              541.00,907.67 590.00,891.67 590.00,891.67              595.94,889.69 607.60,886.79 612.00,883.00 Z"/>
</svg>