<svg xmlns="http://www.w3.org/2000/svg" viewBox="44.5 42.33 1971 710.56">
  <path id="esa-wordmark" fill="#303030" stroke="none" stroke-width="1"
    d="M 670.00,627.00            C 663.80,636.77 650.61,649.08 642.00,657.09              615.88,681.39 589.86,699.32 558.00,715.25              458.28,765.10 336.31,764.95 237.00,713.74              188.17,688.56 146.50,653.22 113.88,609.00              92.60,580.13 74.68,546.05 63.33,512.00              54.23,484.70 48.01,456.72 45.91,428.00              45.91,428.00 45.00,418.00 45.00,418.00              45.00,418.00 45.00,380.00 45.00,380.00              45.00,380.00 45.91,368.00 45.91,368.00              47.84,341.57 53.16,315.31 61.02,290.00              93.13,186.71 173.03,103.51 274.00,65.42              408.45,14.71 565.04,51.01 661.83,158.00              695.45,195.16 720.17,237.52 736.00,285.00              745.21,312.62 751.06,340.97 753.09,370.00              753.09,370.00 754.00,382.00 754.00,382.00              754.00,382.00 754.00,408.00 754.00,408.00              753.94,447.25 736.25,490.50 707.00,516.83              693.42,529.05 676.32,538.87 659.00,544.65              604.79,562.72 531.03,551.53 492.29,507.00              471.80,483.45 460.05,448.12 460.00,417.00              460.00,417.00 460.00,400.00 460.00,400.00              460.28,376.16 468.90,346.85 480.23,326.00              486.51,314.44 496.52,301.57 508.00,294.88              553.59,268.28 615.00,287.59 633.77,338.00              637.37,347.65 638.00,356.84 638.00,367.00              638.00,367.00 494.00,367.00 494.00,367.00              494.00,367.00 494.00,437.00 494.00,437.00              494.00,437.00 683.00,437.00 683.00,437.00              683.00,437.00 733.00,437.00 733.00,437.00              742.23,436.83 741.14,433.28 741.00,421.00              741.00,421.00 740.09,411.00 740.09,411.00              736.13,353.08 718.97,297.97 677.00,256.00              664.16,243.16 654.85,235.31 639.00,226.28              625.63,218.67 613.80,213.76 599.00,209.58              586.04,205.92 568.44,203.16 555.00,203.00              536.26,202.78 512.83,206.86 495.00,212.67              454.31,225.94 417.79,252.75 394.69,289.00              385.59,303.29 379.13,318.83 374.28,335.00              356.04,395.81 361.88,462.98 394.60,518.00              425.12,569.29 473.92,604.31 530.00,623.00              544.29,627.76 557.04,631.36 572.00,633.57              586.70,635.75 599.20,636.17 614.00,636.00              636.20,635.74 658.60,627.96 670.00,627.00 Z            M 1230.00,472.00            C 1228.57,489.64 1221.35,505.55 1213.25,521.00              1203.50,539.61 1188.05,560.04 1172.00,573.56              1144.45,596.77 1102.75,611.48 1067.00,614.09              1067.00,614.09 1057.00,615.00 1057.00,615.00              1038.66,615.21 1022.93,613.95 1005.00,609.77              970.06,601.61 930.48,579.19 906.09,553.00              882.67,527.86 866.90,497.23 858.63,464.00              855.94,453.21 852.13,431.84 852.00,421.00              852.00,421.00 852.00,394.00 852.00,394.00              852.03,376.95 857.26,353.23 862.67,337.00              871.80,309.56 884.15,284.01 903.29,262.00              917.71,245.42 935.31,231.22 955.00,221.37              1017.80,189.97 1103.47,197.72 1157.00,244.29              1195.82,278.06 1222.25,340.42 1228.72,391.00              1228.72,391.00 1230.09,411.00 1230.09,411.00              1230.09,411.00 1230.96,419.00 1230.96,419.00              1230.96,419.00 1230.00,438.00 1230.00,438.00              1230.00,438.00 983.00,438.00 983.00,438.00              983.00,438.00 983.00,366.00 983.00,366.00              983.00,366.00 1125.00,366.00 1125.00,366.00              1125.00,352.04 1123.78,343.86 1117.68,331.00              1095.84,284.93 1035.55,269.82 994.00,298.35              969.78,314.97 958.92,340.97 954.25,369.00              953.10,375.90 952.01,384.04 952.00,391.00              952.00,391.00 952.00,415.00 952.00,415.00              952.00,415.00 952.91,425.00 952.91,425.00              955.82,464.77 969.08,499.81 1006.00,519.69              1045.51,540.97 1093.64,535.04 1118.58,495.00              1122.75,488.29 1126.79,479.85 1128.00,472.00              1128.00,472.00 1230.00,472.00 1230.00,472.00 Z            M 1674.00,337.00            C 1674.00,320.14 1675.69,308.29 1680.15,292.00              1682.88,282.04 1687.64,271.88 1692.86,263.00              1713.11,228.56 1751.89,211.15 1790.00,205.27              1790.00,205.27 1816.00,202.91 1816.00,202.91              1816.00,202.91 1828.00,202.00 1828.00,202.00              1828.00,202.00 1847.00,202.00 1847.00,202.00              1847.00,202.00 1869.00,203.00 1869.00,203.00              1869.00,203.00 1879.00,203.92 1879.00,203.92              1915.20,206.81 1951.41,221.03 1974.55,250.00              1995.54,276.27 1997.74,301.82 2000.09,334.00              2000.09,334.00 2002.00,368.00 2002.00,368.00              2002.00,368.00 2003.00,385.00 2003.00,385.00              2003.00,385.00 2003.00,510.00 2003.00,510.00              2003.00,510.00 2002.01,525.00 2002.01,525.00              2002.01,525.00 2003.00,538.00 2003.00,538.00              2003.05,549.63 2004.07,560.53 2006.08,572.00              2006.08,572.00 2010.69,590.00 2010.69,590.00              2010.69,590.00 2015.00,602.00 2015.00,602.00              2015.00,602.00 1927.00,602.00 1927.00,602.00              1927.00,602.00 1919.39,600.98 1919.39,600.98              1919.39,600.98 1914.81,593.00 1914.81,593.00              1914.81,593.00 1909.00,571.00 1909.00,571.00              1909.00,571.00 1893.00,582.25 1893.00,582.25              1885.56,587.31 1875.20,592.93 1867.00,596.69              1828.44,614.40 1778.76,618.43 1738.00,606.28              1713.12,598.86 1688.68,583.80 1672.90,563.00              1642.33,522.73 1641.94,462.35 1676.17,424.00              1700.44,396.82 1734.79,382.79 1770.00,376.42              1770.00,376.42 1847.00,365.80 1847.00,365.80              1871.35,360.93 1900.67,350.88 1899.99,321.00              1899.23,288.21 1858.32,274.69 1831.00,275.00              1801.70,275.34 1775.55,289.64 1767.04,319.00              1765.17,325.43 1765.00,330.42 1765.00,337.00              1765.00,337.00 1674.00,337.00 1674.00,337.00 Z            M 1363.00,474.00            C 1365.27,490.86 1372.89,510.81 1385.04,522.96              1397.98,535.90 1419.91,542.78 1438.00,543.00              1438.00,543.00 1450.00,543.00 1450.00,543.00              1472.03,542.97 1502.16,532.88 1512.62,512.00              1514.98,507.29 1515.55,503.09 1516.27,498.00              1517.12,492.00 1516.51,485.75 1514.45,480.00              1510.90,470.06 1501.46,463.51 1492.00,459.81              1476.92,453.92 1450.59,450.21 1434.00,447.00              1395.88,439.62 1340.88,429.08 1312.00,401.91              1300.30,390.90 1290.95,374.43 1286.58,359.00              1284.07,350.14 1282.11,338.19 1282.00,329.00              1281.87,317.03 1284.75,298.31 1288.69,287.00              1307.61,232.78 1368.63,204.64 1423.00,204.00              1423.00,204.00 1438.00,203.04 1438.00,203.04              1438.00,203.04 1446.00,204.04 1446.00,204.04              1446.00,204.04 1456.00,204.04 1456.00,204.04              1481.99,206.65 1505.64,213.07 1529.00,224.75              1541.15,230.83 1553.30,238.38 1562.96,248.04              1568.36,253.44 1574.81,262.40 1578.80,269.00              1584.18,277.91 1588.30,287.02 1591.28,297.00              1595.77,312.06 1597.00,323.41 1597.00,339.00              1597.00,339.00 1521.00,339.00 1521.00,339.00              1518.70,339.00 1514.59,339.38 1513.02,337.40              1513.02,337.40 1510.35,324.00 1510.35,324.00              1508.36,315.60 1505.23,308.08 1500.28,301.00              1486.79,281.72 1463.95,273.27 1441.00,273.00              1423.51,272.80 1401.73,276.88 1388.00,288.32              1372.44,301.29 1365.43,321.32 1380.18,338.00              1395.20,354.96 1430.43,358.22 1452.00,361.75              1500.98,369.78 1570.67,378.60 1596.22,427.00              1599.54,433.28 1602.61,440.16 1604.57,447.00              1607.08,455.74 1608.99,464.89 1609.00,474.00              1609.00,474.00 1609.00,491.00 1609.00,491.00              1608.96,519.57 1593.86,552.80 1573.83,572.83              1546.24,600.42 1507.92,611.44 1470.00,614.09              1470.00,614.09 1458.00,615.00 1458.00,615.00              1439.85,615.03 1424.12,615.26 1406.00,612.57              1363.78,606.31 1322.05,586.48 1298.08,550.00              1290.74,538.83 1285.23,527.67 1281.00,515.00              1276.14,500.42 1274.00,489.40 1274.00,474.00              1274.00,474.00 1363.00,474.00 1363.00,474.00 Z            M 210.00,362.29            C 190.33,365.56 173.90,382.13 175.09,403.00              176.14,421.46 188.82,436.86 207.00,440.79              211.08,441.67 213.79,442.21 218.00,441.71              224.23,440.98 230.64,439.23 236.00,435.87              258.27,421.92 261.75,389.94 241.99,372.18              232.95,364.07 221.87,361.16 210.00,362.29 Z            M 1905.00,407.00            C 1894.39,413.64 1892.56,415.92 1880.00,420.31              1852.49,429.90 1820.46,430.68 1792.00,441.42              1768.93,450.13 1752.42,468.31 1753.01,494.00              1753.47,513.97 1769.22,527.66 1787.00,533.64              1813.70,542.63 1855.03,536.18 1878.00,519.96              1896.76,506.70 1903.74,487.18 1904.00,465.00              1904.00,465.00 1905.00,445.00 1905.00,445.00              1905.00,445.00 1905.00,407.00 1905.00,407.00 Z" />
</svg>