<svg xmlns="http://www.w3.org/2000/svg" viewBox="44.5 42.33 710 710.56">
  <path id="esa" fill="#303030" stroke="none" stroke-width="1"
    d="M 670.00,627.00            C 663.80,636.77 650.61,649.08 642.00,657.09              615.88,681.39 589.86,699.32 558.00,715.25              458.28,765.10 336.31,764.95 237.00,713.74              188.17,688.56 146.50,653.22 113.88,609.00              92.60,580.13 74.68,546.05 63.33,512.00              54.23,484.70 48.01,456.72 45.91,428.00              45.91,428.00 45.00,418.00 45.00,418.00              45.00,418.00 45.00,380.00 45.00,380.00              45.00,380.00 45.91,368.00 45.91,368.00              47.84,341.57 53.16,315.31 61.02,290.00              93.13,186.71 173.03,103.51 274.00,65.42              408.45,14.71 565.04,51.01 661.83,158.00              695.45,195.16 720.17,237.52 736.00,285.00              745.21,312.62 751.06,340.97 753.09,370.00              753.09,370.00 754.00,382.00 754.00,382.00              754.00,382.00 754.00,408.00 754.00,408.00              753.94,447.25 736.25,490.50 707.00,516.83              693.42,529.05 676.32,538.87 659.00,544.65              604.79,562.72 531.03,551.53 492.29,507.00              471.80,483.45 460.05,448.12 460.00,417.00              460.00,417.00 460.00,400.00 460.00,400.00              460.28,376.16 468.90,346.85 480.23,326.00              486.51,314.44 496.52,301.57 508.00,294.88              553.59,268.28 615.00,287.59 633.77,338.00              637.37,347.65 638.00,356.84 638.00,367.00              638.00,367.00 494.00,367.00 494.00,367.00              494.00,367.00 494.00,437.00 494.00,437.00              494.00,437.00 683.00,437.00 683.00,437.00              683.00,437.00 733.00,437.00 733.00,437.00              742.23,436.83 741.14,433.28 741.00,421.00              741.00,421.00 740.09,411.00 740.09,411.00              736.13,353.08 718.97,297.97 677.00,256.00              664.16,243.16 654.85,235.31 639.00,226.28              625.63,218.67 613.80,213.76 599.00,209.58              586.04,205.92 568.44,203.16 555.00,203.00              536.26,202.78 512.83,206.86 495.00,212.67              454.31,225.94 417.79,252.75 394.69,289.00              385.59,303.29 379.13,318.83 374.28,335.00              356.04,395.81 361.88,462.98 394.60,518.00              425.12,569.29 473.92,604.31 530.00,623.00              544.29,627.76 557.04,631.36 572.00,633.57              586.70,635.75 599.20,636.17 614.00,636.00              636.20,635.74 658.60,627.96 670.00,627.00 Z            M 210.00,362.29            C 190.33,365.56 173.90,382.13 175.09,403.00              176.14,421.46 188.82,436.86 207.00,440.79              211.08,441.67 213.79,442.21 218.00,441.71              224.23,440.98 230.64,439.23 236.00,435.87              258.27,421.92 261.75,389.94 241.99,372.18              232.95,364.07 221.87,361.16 210.00,362.29 Z" />
</svg>