<svg xmlns="http://www.w3.org/2000/svg" viewBox="45.5 39.5 1194 566.99">
  <path id="etsy" fill="#303030" stroke="none" stroke-width="1"
    d="M 46.00,44.00            C 46.00,44.00 68.00,44.00 68.00,44.00              68.00,44.00 85.00,45.00 85.00,45.00              85.00,45.00 117.00,45.00 117.00,45.00              117.00,45.00 134.00,46.00 134.00,46.00              134.00,46.00 318.00,46.00 318.00,46.00              318.00,46.00 333.00,45.00 333.00,45.00              333.00,45.00 337.00,45.00 337.00,45.00              337.00,45.00 347.00,44.09 347.00,44.09              347.00,44.09 369.00,42.83 369.00,42.83              369.00,42.83 405.00,40.00 405.00,40.00              405.00,40.00 404.00,57.00 404.00,57.00              404.00,57.00 403.04,69.00 403.04,69.00              403.04,69.00 403.04,84.00 403.04,84.00              403.04,84.00 402.00,99.00 402.00,99.00              402.00,99.00 401.00,148.00 401.00,148.00              401.00,148.00 400.00,164.00 400.00,164.00              400.00,164.00 375.00,164.00 375.00,164.00              375.00,164.00 367.42,136.00 367.42,136.00              361.93,116.25 356.64,88.14 336.00,78.33              327.23,74.15 317.43,75.00 308.00,75.00              308.00,75.00 262.00,75.00 262.00,75.00              262.00,75.00 189.00,75.00 189.00,75.00              177.62,75.02 175.02,76.24 175.00,88.00              175.00,88.00 175.00,243.00 175.00,243.00              175.00,243.00 209.00,243.00 209.00,243.00              209.00,243.00 224.00,242.00 224.00,242.00              224.00,242.00 241.00,242.00 241.00,242.00              250.90,241.95 272.87,240.08 281.00,234.87              283.93,232.99 285.88,231.00 287.64,228.00              291.31,221.75 295.80,200.30 297.87,192.00              301.76,176.46 300.57,176.05 309.00,176.00              309.00,176.00 329.00,176.00 329.00,176.00              329.00,176.00 328.04,186.00 328.04,186.00              328.04,186.00 328.04,194.00 328.04,194.00              328.04,194.00 327.00,211.00 327.00,211.00              327.00,211.00 325.00,242.00 325.00,242.00              325.00,242.00 325.00,261.00 325.00,261.00              325.00,261.00 326.00,312.00 326.00,312.00              326.00,312.00 327.00,331.00 327.00,331.00              327.00,331.00 308.00,331.00 308.00,331.00              306.01,331.00 302.33,331.26 300.72,330.01              298.39,328.19 296.88,317.32 296.12,314.00              293.04,300.62 290.93,285.06 278.00,277.21              267.53,270.85 246.23,271.14 234.00,271.00              234.00,271.00 219.00,270.00 219.00,270.00              219.00,270.00 175.00,270.00 175.00,270.00              175.00,270.00 175.00,402.00 175.00,402.00              175.01,407.74 175.60,413.55 177.55,419.00              183.47,435.58 200.08,439.98 216.00,440.00              216.00,440.00 299.00,440.00 299.00,440.00              318.43,440.00 337.61,441.12 355.00,430.54              375.39,418.13 382.90,394.55 392.31,374.00              392.31,374.00 405.00,345.00 405.00,345.00              405.00,345.00 429.00,345.00 429.00,345.00              429.00,345.00 424.72,375.00 424.72,375.00              424.72,375.00 416.72,443.00 416.72,443.00              416.72,443.00 414.42,464.00 414.42,464.00              414.42,464.00 412.40,471.98 412.40,471.98              412.40,471.98 405.00,473.00 405.00,473.00              405.00,473.00 382.00,473.00 382.00,473.00              382.00,473.00 365.00,472.00 365.00,472.00              365.00,472.00 325.00,472.00 325.00,472.00              325.00,472.00 308.00,471.00 308.00,471.00              308.00,471.00 138.00,471.00 138.00,471.00              138.00,471.00 123.00,472.00 123.00,472.00              123.00,472.00 95.00,472.00 95.00,472.00              95.00,472.00 78.00,473.00 78.00,473.00              78.00,473.00 46.00,473.00 46.00,473.00              46.00,473.00 46.00,456.00 46.00,456.00              46.05,447.63 46.45,448.79 61.00,445.58              72.05,443.14 89.85,440.68 97.96,432.90              106.53,424.66 104.98,413.82 105.00,403.00              105.00,403.00 106.00,386.00 106.00,386.00              106.00,386.00 106.00,354.00 106.00,354.00              106.00,354.00 107.00,337.00 107.00,337.00              107.00,337.00 107.00,178.00 107.00,178.00              107.00,178.00 106.00,163.00 106.00,163.00              106.00,163.00 106.00,131.00 106.00,131.00              106.00,131.00 105.00,116.00 105.00,116.00              104.91,107.93 105.97,95.04 101.91,88.00              98.69,82.41 92.94,79.52 87.00,77.72              87.00,77.72 46.00,69.00 46.00,69.00              46.00,69.00 46.00,44.00 46.00,44.00 Z            M 436.00,202.00            C 436.00,202.00 450.00,199.53 450.00,199.53              473.57,193.67 490.15,181.46 503.30,161.00              511.59,148.11 517.68,130.85 521.37,116.00              525.15,100.82 522.89,100.05 532.00,100.00              532.00,100.00 552.00,100.00 552.00,100.00              552.00,100.00 552.00,191.00 552.00,191.00              552.00,191.00 574.00,190.00 574.00,190.00              574.00,190.00 590.00,189.00 590.00,189.00              590.00,189.00 609.00,188.00 609.00,188.00              609.00,188.00 641.00,187.00 641.00,187.00              641.00,187.00 637.00,229.00 637.00,229.00              637.00,229.00 616.00,227.17 616.00,227.17              616.00,227.17 590.00,225.17 590.00,225.17              590.00,225.17 550.00,222.00 550.00,222.00              550.00,222.00 550.00,388.00 550.00,388.00              550.02,403.19 553.98,423.84 565.17,434.82              578.86,448.24 603.46,445.88 619.00,437.13              626.44,432.93 631.86,427.79 637.00,421.00              641.45,423.12 650.43,431.82 650.56,437.00              650.69,442.07 641.61,453.39 637.96,456.83              621.74,472.12 595.23,481.74 573.00,482.00              559.06,482.16 548.41,481.90 535.00,477.14              504.25,466.21 488.05,440.00 488.00,408.00              488.00,408.00 488.00,224.00 488.00,224.00              488.00,224.00 436.00,224.00 436.00,224.00              436.00,224.00 436.00,202.00 436.00,202.00 Z            M 690.00,379.00            C 690.00,379.00 704.00,379.00 704.00,379.00              706.22,379.00 709.70,378.78 711.59,380.02              713.80,381.49 715.91,387.43 717.00,390.00              717.00,390.00 727.01,414.00 727.01,414.00              734.15,431.30 740.57,443.10 759.00,450.55              770.65,455.26 778.83,455.14 791.00,455.00              811.05,454.76 829.63,444.03 835.25,424.00              836.46,419.72 837.14,415.45 836.96,411.00              835.88,383.31 812.08,369.51 790.00,358.74              754.14,341.26 706.35,327.43 694.64,284.00              693.19,278.62 692.07,272.57 692.00,267.00              691.87,255.82 691.79,246.93 695.04,236.00              697.09,229.09 699.53,223.09 703.44,217.00              720.60,190.29 757.42,178.05 788.00,178.00              788.00,178.00 807.00,178.00 807.00,178.00              821.01,178.02 848.21,181.61 862.00,184.88              865.99,185.83 877.88,188.11 879.96,191.42              881.67,194.11 879.30,203.62 878.75,207.00              878.75,207.00 875.00,245.00 875.00,245.00              874.97,247.96 875.40,259.63 874.43,261.57              873.35,263.72 871.10,263.79 869.00,263.97              865.00,264.32 854.85,266.34 851.99,263.43              850.05,261.44 847.09,251.20 846.00,248.00              846.00,248.00 841.67,236.00 841.67,236.00              837.43,223.41 835.85,216.22 823.00,209.32              799.59,196.75 754.52,201.71 744.55,230.00              742.92,234.61 742.95,238.22 743.00,243.00              743.29,267.83 769.71,281.63 789.00,291.25              814.61,304.02 845.73,314.34 867.00,334.09              875.35,341.84 882.26,351.41 886.55,362.00              897.59,389.26 892.53,425.47 871.96,447.00              860.15,459.37 848.99,466.06 833.00,471.78              812.66,479.06 794.32,480.25 773.00,480.00              754.70,479.78 728.71,474.47 711.00,469.42              707.18,468.33 692.96,464.94 690.85,462.30              689.31,460.06 690.41,455.59 690.85,453.00              690.85,453.00 692.00,435.00 692.00,435.00              692.00,435.00 692.00,418.00 692.00,418.00              692.00,418.00 691.09,406.00 691.09,406.00              691.09,406.00 690.00,379.00 690.00,379.00 Z            M 913.00,187.00            C 913.00,187.00 931.00,187.00 931.00,187.00              931.00,187.00 943.00,187.96 943.00,187.96              943.00,187.96 960.00,187.96 960.00,187.96              960.00,187.96 978.00,189.00 978.00,189.00              978.00,189.00 992.00,188.00 992.00,188.00              992.00,188.00 1011.00,187.00 1011.00,187.00              1011.00,187.00 1028.00,186.00 1028.00,186.00              1028.00,186.00 1059.00,185.00 1059.00,185.00              1059.00,185.00 1059.00,201.00 1059.00,201.00              1058.87,208.32 1057.73,207.47 1045.00,210.35              1033.59,212.93 1016.69,216.19 1018.20,232.00              1018.63,236.50 1022.70,246.15 1024.33,251.00              1024.33,251.00 1039.31,293.00 1039.31,293.00              1039.31,293.00 1069.80,375.00 1069.80,375.00              1069.80,375.00 1085.00,413.00 1085.00,413.00              1085.00,413.00 1102.58,372.00 1102.58,372.00              1102.58,372.00 1139.20,284.00 1139.20,284.00              1139.20,284.00 1152.66,250.00 1152.66,250.00              1154.49,244.72 1156.97,238.57 1156.97,233.00              1156.97,219.79 1146.07,214.67 1135.00,211.42              1132.35,210.65 1124.29,208.77 1122.60,207.15              1120.63,205.26 1121.01,201.53 1121.00,199.00              1121.00,199.00 1121.00,185.00 1121.00,185.00              1121.00,185.00 1141.00,185.00 1141.00,185.00              1141.00,185.00 1156.00,186.00 1156.00,186.00              1156.00,186.00 1171.00,186.00 1171.00,186.00              1171.00,186.00 1182.00,186.66 1182.00,186.66              1182.00,186.66 1192.00,185.96 1192.00,185.96              1192.00,185.96 1208.00,185.96 1208.00,185.96              1208.00,185.96 1219.00,185.00 1219.00,185.00              1219.00,185.00 1239.00,185.00 1239.00,185.00              1239.00,185.00 1239.00,201.00 1239.00,201.00              1238.85,208.64 1235.15,210.76 1229.00,214.76              1220.58,220.23 1211.71,220.19 1202.39,232.00              1197.53,238.16 1193.85,247.75 1190.72,255.00              1190.72,255.00 1174.42,293.00 1174.42,293.00              1174.42,293.00 1113.85,435.00 1113.85,435.00              1094.15,480.90 1077.36,521.77 1043.72,560.00              1029.54,576.11 1011.95,589.49 992.00,597.55              980.06,602.37 967.71,604.21 955.00,605.09              955.00,605.09 946.00,605.99 946.00,605.99              946.00,605.99 933.00,605.09 933.00,605.09              913.21,603.71 896.78,598.92 880.00,588.00              880.00,588.00 890.41,537.00 890.41,537.00              890.41,537.00 895.00,505.00 895.00,505.00              895.00,505.00 914.00,503.17 914.00,503.17              922.02,502.55 920.86,506.14 923.00,517.00              923.00,517.00 927.80,542.00 927.80,542.00              928.72,546.67 929.94,553.11 932.65,557.06              945.66,575.71 975.86,566.33 992.00,557.06              992.00,557.06 1003.00,550.08 1003.00,550.08              1017.49,539.56 1032.03,522.89 1042.00,508.00              1044.28,504.60 1051.43,494.42 1052.12,491.00              1052.89,487.18 1047.08,475.21 1045.40,471.00              1045.40,471.00 1026.20,423.00 1026.20,423.00              1026.20,423.00 963.42,271.00 963.42,271.00              963.42,271.00 950.86,243.00 950.86,243.00              947.35,235.12 943.61,225.99 936.98,220.21              932.03,215.89 919.55,211.77 913.00,210.00              913.00,210.00 913.00,187.00 913.00,187.00 Z" />
</svg>