<svg xmlns="http://www.w3.org/2000/svg" viewBox="45.5 39.5 384 434">
  <path id="etsy-e" fill="#303030" stroke="none" stroke-width="1"
    d="M 46.00,44.00            C 46.00,44.00 68.00,44.00 68.00,44.00              68.00,44.00 85.00,45.00 85.00,45.00              85.00,45.00 117.00,45.00 117.00,45.00              117.00,45.00 134.00,46.00 134.00,46.00              134.00,46.00 318.00,46.00 318.00,46.00              318.00,46.00 333.00,45.00 333.00,45.00              333.00,45.00 337.00,45.00 337.00,45.00              337.00,45.00 347.00,44.09 347.00,44.09              347.00,44.09 369.00,42.83 369.00,42.83              369.00,42.83 405.00,40.00 405.00,40.00              405.00,40.00 404.00,57.00 404.00,57.00              404.00,57.00 403.04,69.00 403.04,69.00              403.04,69.00 403.04,84.00 403.04,84.00              403.04,84.00 402.00,99.00 402.00,99.00              402.00,99.00 401.00,148.00 401.00,148.00              401.00,148.00 400.00,164.00 400.00,164.00              400.00,164.00 375.00,164.00 375.00,164.00              375.00,164.00 367.42,136.00 367.42,136.00              361.93,116.25 356.64,88.14 336.00,78.33              327.23,74.15 317.43,75.00 308.00,75.00              308.00,75.00 262.00,75.00 262.00,75.00              262.00,75.00 189.00,75.00 189.00,75.00              177.62,75.02 175.02,76.24 175.00,88.00              175.00,88.00 175.00,243.00 175.00,243.00              175.00,243.00 209.00,243.00 209.00,243.00              209.00,243.00 224.00,242.00 224.00,242.00              224.00,242.00 241.00,242.00 241.00,242.00              250.90,241.95 272.87,240.08 281.00,234.87              283.93,232.99 285.88,231.00 287.64,228.00              291.31,221.75 295.80,200.30 297.87,192.00              301.76,176.46 300.57,176.05 309.00,176.00              309.00,176.00 329.00,176.00 329.00,176.00              329.00,176.00 328.04,186.00 328.04,186.00              328.04,186.00 328.04,194.00 328.04,194.00              328.04,194.00 327.00,211.00 327.00,211.00              327.00,211.00 325.00,242.00 325.00,242.00              325.00,242.00 325.00,261.00 325.00,261.00              325.00,261.00 326.00,312.00 326.00,312.00              326.00,312.00 327.00,331.00 327.00,331.00              327.00,331.00 308.00,331.00 308.00,331.00              306.01,331.00 302.33,331.26 300.72,330.01              298.39,328.19 296.88,317.32 296.12,314.00              293.04,300.62 290.93,285.06 278.00,277.21              267.53,270.85 246.23,271.14 234.00,271.00              234.00,271.00 219.00,270.00 219.00,270.00              219.00,270.00 175.00,270.00 175.00,270.00              175.00,270.00 175.00,402.00 175.00,402.00              175.01,407.74 175.60,413.55 177.55,419.00              183.47,435.58 200.08,439.98 216.00,440.00              216.00,440.00 299.00,440.00 299.00,440.00              318.43,440.00 337.61,441.12 355.00,430.54              375.39,418.13 382.90,394.55 392.31,374.00              392.31,374.00 405.00,345.00 405.00,345.00              405.00,345.00 429.00,345.00 429.00,345.00              429.00,345.00 424.72,375.00 424.72,375.00              424.72,375.00 416.72,443.00 416.72,443.00              416.72,443.00 414.42,464.00 414.42,464.00              414.42,464.00 412.40,471.98 412.40,471.98              412.40,471.98 405.00,473.00 405.00,473.00              405.00,473.00 382.00,473.00 382.00,473.00              382.00,473.00 365.00,472.00 365.00,472.00              365.00,472.00 325.00,472.00 325.00,472.00              325.00,472.00 308.00,471.00 308.00,471.00              308.00,471.00 138.00,471.00 138.00,471.00              138.00,471.00 123.00,472.00 123.00,472.00              123.00,472.00 95.00,472.00 95.00,472.00              95.00,472.00 78.00,473.00 78.00,473.00              78.00,473.00 46.00,473.00 46.00,473.00              46.00,473.00 46.00,456.00 46.00,456.00              46.05,447.63 46.45,448.79 61.00,445.58              72.05,443.14 89.85,440.68 97.96,432.90              106.53,424.66 104.98,413.82 105.00,403.00              105.00,403.00 106.00,386.00 106.00,386.00              106.00,386.00 106.00,354.00 106.00,354.00              106.00,354.00 107.00,337.00 107.00,337.00              107.00,337.00 107.00,178.00 107.00,178.00              107.00,178.00 106.00,163.00 106.00,163.00              106.00,163.00 106.00,131.00 106.00,131.00              106.00,131.00 105.00,116.00 105.00,116.00              104.91,107.93 105.97,95.04 101.91,88.00              98.69,82.41 92.94,79.52 87.00,77.72              87.00,77.72 46.00,69.00 46.00,69.00              46.00,69.00 46.00,44.00 46.00,44.00 Z" />
</svg>