<svg xmlns="http://www.w3.org/2000/svg" viewBox="430.65 102.55 138.99 162.94">
  <path id="evernote" fill="#303030" stroke="none" stroke-width="1"
    d="M 501.00,196.00            C 499.97,202.66 495.63,214.41 489.96,218.28              480.44,224.76 458.39,217.94 450.00,211.47              439.44,203.34 436.59,194.49 434.00,182.00              432.15,173.03 426.58,156.15 439.00,152.57              441.27,151.92 444.60,152.00 447.00,152.00              447.00,152.00 466.00,152.00 466.00,152.00              477.88,151.83 479.88,144.32 480.00,134.00              480.00,134.00 480.00,115.00 480.00,115.00              480.04,112.68 480.01,110.20 481.17,108.11              483.62,103.73 489.44,102.83 494.00,103.09              498.49,103.35 504.38,104.30 507.79,107.39              510.90,110.20 511.06,113.30 515.10,114.85              515.10,114.85 523.00,116.42 523.00,116.42              535.45,118.67 552.45,119.35 560.58,130.00              565.46,136.40 566.23,149.95 567.28,158.00              569.48,174.89 569.20,191.98 569.00,209.00              568.83,222.85 566.11,241.25 556.79,252.00              549.16,260.80 536.68,265.98 525.00,264.83              512.09,263.56 501.43,255.95 502.04,242.00              502.41,233.50 507.80,226.67 516.00,224.30              520.52,223.00 529.31,223.85 527.16,230.89              525.64,235.84 517.59,234.79 516.19,240.59              515.22,244.60 519.80,248.13 523.00,249.45              531.72,253.07 542.32,244.64 543.66,236.00              544.49,230.60 541.30,224.04 537.67,220.18              529.67,211.69 520.67,214.32 512.00,209.59              505.77,206.18 503.86,202.02 501.00,196.00 Z            M 473.00,110.00            C 474.81,114.55 474.08,131.19 474.00,137.00              473.95,140.36 474.04,143.74 470.77,145.69              468.62,146.97 465.44,146.97 463.00,147.00              463.00,147.00 438.00,147.00 438.00,147.00              438.00,147.00 456.00,128.00 456.00,128.00              456.00,128.00 473.00,110.00 473.00,110.00 Z            M 537.04,172.51            C 536.15,172.93 535.61,172.87 534.43,173.89              526.47,180.76 547.70,183.99 549.15,179.69              549.79,178.52 549.52,177.17 549.15,176.10              546.63,171.67 541.25,171.76 537.04,172.51 Z" />
</svg>