<svg xmlns="http://www.w3.org/2000/svg" viewBox="232.5 102.55 559 296.25">
  <path id="evernote-wordmark" fill="#303030" stroke="none" stroke-width="1"
    d="M 501.00,196.00            C 499.97,202.66 495.63,214.41 489.96,218.28              480.44,224.76 458.39,217.94 450.00,211.47              439.44,203.34 436.59,194.49 434.00,182.00              432.15,173.03 426.58,156.15 439.00,152.57              441.27,151.92 444.60,152.00 447.00,152.00              447.00,152.00 466.00,152.00 466.00,152.00              477.88,151.83 479.88,144.32 480.00,134.00              480.00,134.00 480.00,115.00 480.00,115.00              480.04,112.68 480.01,110.20 481.17,108.11              483.62,103.73 489.44,102.83 494.00,103.09              498.49,103.35 504.38,104.30 507.79,107.39              510.90,110.20 511.06,113.30 515.10,114.85              515.10,114.85 523.00,116.42 523.00,116.42              535.45,118.67 552.45,119.35 560.58,130.00              565.46,136.40 566.23,149.95 567.28,158.00              569.48,174.89 569.20,191.98 569.00,209.00              568.83,222.85 566.11,241.25 556.79,252.00              549.16,260.80 536.68,265.98 525.00,264.83              512.09,263.56 501.43,255.95 502.04,242.00              502.41,233.50 507.80,226.67 516.00,224.30              520.52,223.00 529.31,223.85 527.16,230.89              525.64,235.84 517.59,234.79 516.19,240.59              515.22,244.60 519.80,248.13 523.00,249.45              531.72,253.07 542.32,244.64 543.66,236.00              544.49,230.60 541.30,224.04 537.67,220.18              529.67,211.69 520.67,214.32 512.00,209.59              505.77,206.18 503.86,202.02 501.00,196.00 Z            M 473.00,110.00            C 474.81,114.55 474.08,131.19 474.00,137.00              473.95,140.36 474.04,143.74 470.77,145.69              468.62,146.97 465.44,146.97 463.00,147.00              463.00,147.00 438.00,147.00 438.00,147.00              438.00,147.00 456.00,128.00 456.00,128.00              456.00,128.00 473.00,110.00 473.00,110.00 Z            M 537.04,172.51            C 536.15,172.93 535.61,172.87 534.43,173.89              526.47,180.76 547.70,183.99 549.15,179.69              549.79,178.52 549.52,177.17 549.15,176.10              546.63,171.67 541.25,171.76 537.04,172.51 Z            M 233.00,305.00            C 233.00,305.00 305.00,305.00 305.00,305.00              305.00,305.00 305.96,318.00 305.96,318.00              305.96,318.00 305.96,331.00 305.96,331.00              304.68,330.77 303.84,330.87 302.63,330.01              299.55,327.81 296.60,316.96 289.98,312.74              287.10,310.90 281.39,310.30 278.00,310.51              275.37,310.68 269.44,310.93 267.60,312.74              265.95,314.35 266.04,316.87 266.00,319.00              266.00,319.00 266.00,347.00 266.00,347.00              270.70,346.99 278.00,346.95 281.61,343.57              286.29,339.20 284.18,334.26 291.00,332.00              291.00,332.00 291.00,367.00 291.00,367.00              283.90,364.65 286.48,359.21 281.47,354.43              277.93,351.06 270.65,352.00 266.00,352.00              266.00,352.00 266.00,378.00 266.00,378.00              266.02,381.18 265.90,385.08 267.85,387.77              270.84,391.88 277.46,391.05 282.00,391.00              284.79,390.96 287.42,390.95 290.00,389.69              297.16,386.19 302.90,373.43 305.00,366.00              305.00,366.00 310.00,366.00 310.00,366.00              310.00,366.00 308.00,397.00 308.00,397.00              308.00,397.00 233.00,397.00 233.00,397.00              233.00,397.00 233.00,393.00 233.00,393.00              240.49,391.75 241.90,389.39 242.00,382.00              242.00,382.00 242.00,322.00 242.00,322.00              241.99,313.99 241.90,310.49 233.00,309.00              233.00,309.00 233.00,305.00 233.00,305.00 Z            M 677.00,332.00            C 682.61,329.93 687.45,326.42 691.38,321.91              699.44,312.67 694.76,311.04 706.00,311.00              706.00,311.00 706.00,328.00 706.00,328.00              706.00,328.00 723.00,328.00 723.00,328.00              723.00,328.00 722.00,336.00 722.00,336.00              722.00,336.00 706.00,336.00 706.00,336.00              706.00,336.00 706.00,375.00 706.00,375.00              706.01,378.65 705.67,382.84 708.43,385.69              711.87,389.24 719.66,388.06 724.00,387.00              723.68,388.92 723.72,389.98 722.40,391.78              715.98,399.56 693.82,401.02 687.84,391.78              685.09,387.78 685.01,382.80 685.00,378.00              685.00,378.00 685.00,336.00 685.00,336.00              685.00,336.00 677.00,336.00 677.00,336.00              677.00,336.00 677.00,332.00 677.00,332.00 Z            M 482.00,336.00            C 488.51,332.26 494.96,326.13 503.00,326.18              511.34,326.24 516.04,334.46 512.55,340.91              509.50,346.53 502.22,347.28 497.17,343.99              494.99,342.58 493.16,340.03 490.96,339.36              484.54,337.38 483.03,344.53 483.00,349.00              483.00,349.00 483.00,382.00 483.00,382.00              483.01,384.76 482.69,388.35 484.60,390.57              487.60,394.07 490.01,391.28 492.00,397.00              492.00,397.00 454.00,397.00 454.00,397.00              456.24,390.44 459.64,393.88 461.85,387.95              463.37,383.89 463.00,375.55 463.00,371.00              463.00,364.07 464.01,344.27 461.02,339.04              459.33,336.09 456.82,334.65 454.00,333.00              455.72,328.08 458.22,329.22 463.00,328.58              471.27,327.46 474.56,327.00 483.00,327.00              483.00,327.00 482.00,336.00 482.00,336.00 Z            M 445.00,383.00            C 444.09,394.02 428.26,397.87 419.00,398.25              395.27,399.23 382.05,384.29 383.04,361.00              383.42,352.10 386.54,342.45 393.09,336.18              405.20,324.60 431.26,322.27 441.78,337.04              446.48,343.64 446.99,351.20 447.00,359.00              447.00,359.00 404.00,359.00 404.00,359.00              404.00,363.74 403.77,367.37 405.22,372.00              411.26,391.31 429.98,388.96 445.00,383.00 Z            M 518.00,333.00            C 519.65,328.30 521.49,329.28 526.00,328.72              526.00,328.72 547.00,327.00 547.00,327.00              547.00,327.00 546.00,336.00 546.00,336.00              555.06,330.93 560.06,327.13 571.00,327.00              574.65,326.96 578.66,326.74 581.98,328.45              587.13,331.10 588.70,335.65 589.78,341.00              589.78,341.00 589.78,373.00 589.78,373.00              590.00,381.50 587.37,390.73 598.00,393.00              598.00,393.00 598.00,397.00 598.00,397.00              598.00,397.00 562.00,397.00 562.00,397.00              562.00,397.00 562.00,393.00 562.00,393.00              564.12,392.54 565.86,392.34 567.40,390.57              569.97,387.61 569.00,372.52 569.00,368.00              569.00,359.72 571.89,341.59 561.98,338.84              558.43,337.85 550.91,339.48 547.00,340.00              547.00,340.00 547.00,382.00 547.00,382.00              547.00,382.00 548.74,390.57 548.74,390.57              548.74,390.57 555.00,397.00 555.00,397.00              555.00,397.00 518.00,397.00 518.00,397.00              518.00,397.00 525.97,387.95 525.97,387.95              525.97,387.95 527.00,372.00 527.00,372.00              527.00,372.00 527.00,349.00 527.00,349.00              527.00,349.00 525.07,339.04 525.07,339.04              525.07,339.04 518.00,333.00 518.00,333.00 Z            M 628.00,327.47            C 638.76,325.96 651.07,326.69 660.00,333.53              676.17,345.92 677.17,374.73 662.83,388.82              655.11,396.40 645.32,398.12 635.00,398.00              628.74,397.92 621.33,396.25 616.00,392.87              598.96,382.05 596.59,354.31 608.53,339.00              613.51,332.61 620.26,329.29 628.00,327.47 Z            M 789.00,383.00            C 788.09,394.02 772.26,397.87 763.00,398.25              739.19,399.24 726.05,384.35 727.04,361.00              727.42,352.10 730.54,342.45 737.09,336.18              749.20,324.60 775.26,322.27 785.78,337.04              790.73,343.99 791.00,350.87 791.00,359.00              791.00,359.00 748.00,359.00 748.00,359.00              748.00,363.74 747.77,367.37 749.22,372.00              755.26,391.31 773.98,388.96 789.00,383.00 Z            M 311.00,328.00            C 311.00,328.00 350.00,328.00 350.00,328.00              350.00,328.00 350.00,332.00 350.00,332.00              342.11,333.70 342.08,338.23 344.44,345.00              347.28,353.17 353.81,368.32 355.00,376.00              359.12,371.67 364.48,353.58 366.67,347.00              367.72,343.83 369.56,339.38 368.25,336.11              366.99,332.96 363.86,332.15 361.00,331.00              361.00,331.00 361.00,329.00 361.00,329.00              361.00,329.00 386.00,328.00 386.00,328.00              383.95,334.10 380.72,332.37 376.90,340.00              376.90,340.00 360.20,382.00 360.20,382.00              358.09,387.38 356.92,396.36 349.99,396.94              341.49,397.65 342.00,393.90 336.80,381.00              336.80,381.00 322.99,347.00 322.99,347.00              320.16,340.14 318.56,334.60 311.00,332.00              311.00,332.00 311.00,328.00 311.00,328.00 Z            M 404.00,355.00            C 404.00,355.00 419.00,354.00 419.00,354.00              420.82,353.99 423.92,354.15 425.40,352.98              427.63,351.21 426.93,346.47 426.57,344.00              425.42,336.04 420.65,326.56 411.10,332.85              409.43,333.96 408.37,335.32 407.36,337.02              406.08,339.19 405.35,341.55 404.82,344.00              403.89,348.30 404.00,350.70 404.00,355.00 Z            M 635.00,331.35            C 626.65,333.57 625.30,338.18 624.03,346.00              622.23,354.22 622.67,371.70 624.03,380.00              625.73,387.68 629.94,394.96 639.00,393.62              646.75,392.48 648.90,385.69 650.08,379.00              651.60,370.32 651.54,351.51 649.48,343.00              647.59,335.24 643.19,330.78 635.00,331.35 Z            M 747.00,354.00            C 751.33,355.03 757.15,354.01 762.00,354.00              763.99,354.00 767.81,354.23 769.40,352.98              771.11,351.63 770.98,348.95 770.83,347.00              770.30,340.33 768.79,330.56 760.00,331.23              757.44,331.43 755.19,332.45 753.39,334.28              751.87,335.81 750.73,338.01 749.93,340.00              748.11,344.50 748.14,349.34 747.00,354.00 Z" />
</svg>