<svg xmlns="http://www.w3.org/2000/svg" viewBox="176.5 176.64 1696 1695.86">
  <path id="evrimagaci" fill="#303030" stroke="none" stroke-width="1"
    d="M 977.00,177.14            C 977.00,177.14 1032.00,177.14 1032.00,177.14              1032.00,177.14 1064.00,177.14 1064.00,177.14              1064.00,177.14 1076.00,177.91 1076.00,177.91              1076.00,177.91 1102.00,179.83 1102.00,179.83              1135.72,183.06 1168.82,187.74 1202.00,194.79              1354.46,227.19 1497.26,302.21 1610.00,410.04              1710.38,506.04 1785.77,625.31 1829.67,757.00              1844.45,801.36 1855.25,846.80 1862.42,893.00              1862.42,893.00 1870.09,960.00 1870.09,960.00              1870.09,960.00 1871.00,970.00 1871.00,970.00              1871.00,970.00 1872.00,991.00 1872.00,991.00              1872.00,991.00 1872.00,1058.00 1872.00,1058.00              1872.00,1058.00 1871.00,1079.00 1871.00,1079.00              1871.00,1079.00 1870.09,1089.00 1870.09,1089.00              1870.09,1089.00 1866.28,1128.00 1866.28,1128.00              1861.07,1170.26 1852.99,1211.96 1841.58,1253.00              1787.72,1446.68 1667.36,1612.06 1502.00,1725.98              1434.59,1772.41 1357.89,1808.76 1280.00,1833.66              1230.56,1849.46 1179.47,1859.93 1128.00,1866.28              1128.00,1866.28 1088.00,1870.09 1088.00,1870.09              1088.00,1870.09 1078.00,1871.00 1078.00,1871.00              1078.00,1871.00 1058.00,1872.00 1058.00,1872.00              1058.00,1872.00 991.00,1872.00 991.00,1872.00              991.00,1872.00 970.00,1871.00 970.00,1871.00              970.00,1871.00 960.00,1870.09 960.00,1870.09              960.00,1870.09 893.00,1862.42 893.00,1862.42              834.16,1853.29 776.55,1838.33 721.00,1816.81              695.23,1806.83 669.72,1796.09 645.00,1783.73              569.64,1746.05 498.88,1696.19 438.00,1637.96              339.17,1543.44 263.72,1424.55 220.00,1295.00              203.15,1245.04 190.24,1189.31 183.72,1137.00              183.72,1137.00 180.17,1109.00 180.17,1109.00              180.17,1109.00 177.91,1076.00 177.91,1076.00              177.91,1076.00 177.00,1064.00 177.00,1064.00              177.00,1064.00 177.00,983.00 177.00,983.00              177.00,983.00 177.96,972.00 177.96,972.00              179.06,946.88 182.06,921.89 185.73,897.00              195.82,828.48 214.62,760.87 241.42,697.00              335.02,473.95 518.53,301.64 747.00,222.34              796.85,205.04 853.69,191.33 906.00,184.28              906.00,184.28 952.00,179.17 952.00,179.17              952.00,179.17 977.00,177.14 977.00,177.14 Z            M 668.00,1299.00            C 728.79,1238.21 803.71,1190.42 879.00,1149.69              909.86,1133.00 959.79,1108.33 992.00,1095.45              992.00,1095.45 1056.00,1071.58 1056.00,1071.58              1056.00,1071.58 1145.00,1038.31 1145.00,1038.31              1145.00,1038.31 1154.00,1034.37 1154.00,1034.37              1154.00,1034.37 1169.00,1029.31 1169.00,1029.31              1169.00,1029.31 1213.00,1012.80 1213.00,1012.80              1269.32,990.66 1336.99,958.84 1388.00,926.68              1459.73,881.47 1532.77,825.65 1574.30,750.00              1590.24,720.98 1601.43,689.15 1604.08,656.00              1604.08,656.00 1605.00,644.00 1605.00,644.00              1605.00,644.00 1605.00,626.00 1605.00,626.00              1605.00,626.00 1602.28,601.00 1602.28,601.00              1602.28,601.00 1597.11,570.00 1597.11,570.00              1583.47,515.43 1550.93,465.20 1510.00,427.09              1492.09,410.41 1471.32,396.55 1451.00,383.00              1369.75,328.83 1273.89,289.70 1178.00,271.20              1153.89,266.55 1129.45,262.50 1105.00,260.00              1105.00,260.00 1096.00,260.00 1096.00,260.00              1096.00,260.00 1071.00,258.00 1071.00,258.00              1071.00,258.00 1056.00,257.00 1056.00,257.00              1056.00,257.00 1002.00,257.00 1002.00,257.00              1002.00,257.00 983.00,258.00 983.00,258.00              983.00,258.00 962.00,260.00 962.00,260.00              962.00,260.00 953.00,260.00 953.00,260.00              953.00,260.00 925.00,263.72 925.00,263.72              891.24,267.92 857.83,274.96 825.00,283.85              659.43,328.68 511.59,431.03 409.88,569.00              365.04,629.84 331.86,693.15 305.95,764.00              288.80,810.88 275.23,864.50 268.72,914.00              268.72,914.00 264.00,949.00 264.00,949.00              264.00,949.00 264.00,958.00 264.00,958.00              264.00,958.00 262.00,979.00 262.00,979.00              262.00,979.00 261.00,998.00 261.00,998.00              261.00,998.00 261.00,1051.00 261.00,1051.00              261.00,1051.00 261.96,1064.00 261.96,1064.00              261.96,1064.00 264.04,1092.00 264.04,1092.00              264.04,1092.00 264.04,1100.00 264.04,1100.00              268.70,1147.61 278.93,1199.22 292.72,1245.00              292.72,1245.00 305.00,1282.00 305.00,1282.00              312.86,1305.06 324.90,1334.23 335.75,1356.00              339.10,1362.72 346.39,1379.38 351.00,1384.00              351.00,1384.00 336.67,1342.00 336.67,1342.00              328.38,1316.56 321.19,1290.13 315.42,1264.00              304.05,1212.48 293.61,1146.50 293.00,1094.00              293.00,1094.00 292.00,1079.00 292.00,1079.00              292.00,1079.00 292.00,1035.00 292.00,1035.00              292.00,1035.00 292.96,1023.00 292.96,1023.00              292.96,1023.00 292.96,1008.00 292.96,1008.00              292.96,1008.00 294.83,987.00 294.83,987.00              294.83,987.00 304.58,914.00 304.58,914.00              323.77,807.58 367.84,705.46 434.42,620.00              466.26,579.13 502.72,542.00 542.00,508.28              542.00,508.28 565.00,489.57 565.00,489.57              565.00,489.57 593.00,466.42 593.00,466.42              638.07,431.31 687.79,401.09 740.00,377.86              923.79,296.09 1131.05,295.82 1315.00,377.14              1335.37,386.15 1356.68,399.29 1375.00,411.98              1420.12,443.22 1466.50,489.20 1480.52,544.00              1484.68,560.24 1485.19,571.46 1485.00,588.00              1485.00,588.00 1483.00,605.00 1483.00,605.00              1483.00,605.00 1428.00,608.72 1428.00,608.72              1428.00,608.72 1409.41,610.57 1409.41,610.57              1409.41,610.57 1405.40,617.00 1405.40,617.00              1405.40,617.00 1399.25,631.00 1399.25,631.00              1399.25,631.00 1379.33,666.00 1379.33,666.00              1379.33,666.00 1365.00,688.00 1365.00,688.00              1365.00,688.00 1379.00,687.00 1379.00,687.00              1379.00,687.00 1409.00,685.09 1409.00,685.09              1409.00,685.09 1449.00,682.00 1449.00,682.00              1446.37,688.18 1439.90,695.62 1435.60,701.00              1424.80,714.50 1413.21,726.79 1401.00,739.00              1354.89,785.11 1301.62,822.36 1245.00,854.42              1178.23,892.24 1119.75,916.17 1049.00,944.20              1049.00,944.20 947.00,985.40 947.00,985.40              947.00,985.40 905.00,1002.22 905.00,1002.22              905.00,1002.22 834.00,1034.74 834.00,1034.74              767.36,1067.00 705.78,1099.48 644.00,1140.67              589.45,1177.03 537.35,1218.63 496.20,1270.00              471.10,1301.33 449.43,1338.61 440.23,1378.00              435.77,1397.13 434.78,1413.49 435.00,1433.00              435.21,1450.90 441.96,1478.86 447.67,1496.00              465.78,1550.37 499.50,1599.92 542.00,1638.17              631.72,1718.92 753.18,1759.96 871.00,1777.43              871.00,1777.43 934.00,1786.28 934.00,1786.28              934.00,1786.28 969.00,1790.00 969.00,1790.00              969.00,1790.00 992.00,1791.00 992.00,1791.00              992.00,1791.00 1007.00,1792.00 1007.00,1792.00              1007.00,1792.00 1047.00,1792.00 1047.00,1792.00              1047.00,1792.00 1069.00,1791.00 1069.00,1791.00              1069.00,1791.00 1082.00,1790.00 1082.00,1790.00              1110.86,1789.67 1164.08,1780.81 1193.00,1774.42              1270.32,1757.35 1342.24,1730.00 1411.00,1690.57              1510.61,1633.46 1596.85,1553.50 1661.98,1459.00              1728.32,1362.74 1775.23,1243.23 1789.71,1127.00              1792.19,1107.15 1794.97,1084.89 1795.00,1065.00              1795.00,1065.00 1796.00,1048.00 1796.00,1048.00              1796.00,1048.00 1796.00,1000.00 1796.00,1000.00              1796.00,1000.00 1795.04,988.00 1795.04,988.00              1795.04,988.00 1795.04,976.00 1795.04,976.00              1795.04,976.00 1794.09,966.00 1794.09,966.00              1791.98,935.83 1787.85,905.70 1782.00,876.00              1766.47,797.07 1738.87,719.96 1699.00,650.00              1698.04,651.56 1697.53,652.04 1697.55,654.04              1697.55,654.04 1705.81,678.00 1705.81,678.00              1714.78,701.68 1720.87,726.61 1727.58,751.00              1738.34,790.18 1748.95,854.27 1753.00,895.00              1753.00,895.00 1753.00,904.00 1753.00,904.00              1753.00,904.00 1756.00,945.00 1756.00,945.00              1756.00,945.00 1757.00,962.00 1757.00,962.00              1757.00,962.00 1757.00,1000.00 1757.00,1000.00              1757.00,1000.00 1756.00,1017.00 1756.00,1017.00              1756.00,1017.00 1755.09,1032.00 1755.09,1032.00              1755.09,1032.00 1752.83,1064.00 1752.83,1064.00              1752.83,1064.00 1748.28,1098.00 1748.28,1098.00              1738.33,1173.59 1712.65,1251.35 1677.74,1319.00              1665.00,1343.70 1649.71,1366.69 1634.69,1390.00              1613.73,1422.54 1597.60,1446.91 1572.57,1477.00              1460.69,1611.43 1306.49,1697.80 1134.00,1724.58              1134.00,1724.58 1074.00,1731.00 1074.00,1731.00              1074.00,1731.00 1053.00,1732.00 1053.00,1732.00              1053.00,1732.00 1027.00,1732.00 1027.00,1732.00              1027.00,1732.00 1004.00,1731.00 1004.00,1731.00              1004.00,1731.00 993.00,1730.09 993.00,1730.09              993.00,1730.09 916.00,1722.28 916.00,1722.28              830.43,1711.12 731.17,1686.08 662.00,1632.65              622.24,1601.94 594.59,1564.39 583.35,1515.00              581.29,1505.93 579.01,1491.19 579.00,1482.00              578.98,1466.68 578.91,1453.24 581.61,1438.00              581.61,1438.00 586.43,1416.00 586.43,1416.00              586.43,1416.00 591.00,1400.00 591.00,1400.00              591.00,1400.00 635.91,1396.93 635.91,1396.93              635.91,1396.93 652.00,1396.00 652.00,1396.00              652.00,1396.00 663.00,1395.00 663.00,1395.00              663.00,1395.00 671.00,1395.00 671.00,1395.00              671.00,1395.00 700.00,1392.91 700.00,1392.91              700.00,1392.91 710.00,1392.00 710.00,1392.00              710.00,1392.00 756.00,1389.09 756.00,1389.09              756.00,1389.09 813.00,1385.91 813.00,1385.91              813.00,1385.91 842.00,1383.91 842.00,1383.91              842.00,1383.91 852.00,1383.00 852.00,1383.00              852.00,1383.00 923.00,1379.00 923.00,1379.00              923.00,1379.00 933.00,1378.09 933.00,1378.09              933.00,1378.09 963.00,1376.09 963.00,1376.09              963.00,1376.09 1020.00,1372.91 1020.00,1372.91              1020.00,1372.91 1049.00,1370.91 1049.00,1370.91              1049.00,1370.91 1059.00,1370.00 1059.00,1370.00              1059.00,1370.00 1084.00,1368.91 1084.00,1368.91              1084.00,1368.91 1094.00,1368.00 1094.00,1368.00              1094.00,1384.99 1091.53,1403.33 1088.20,1420.00              1075.06,1485.69 1045.11,1543.06 1003.20,1595.00              989.87,1611.51 975.33,1627.30 960.00,1641.96              954.58,1647.14 941.06,1657.39 938.00,1663.00              962.71,1654.43 987.23,1644.19 1011.00,1633.31              1120.75,1583.05 1241.56,1505.18 1269.42,1379.00              1272.00,1367.33 1273.70,1356.89 1274.96,1345.00              1274.96,1345.00 1274.96,1335.00 1274.96,1335.00              1274.96,1335.00 1276.00,1325.00 1276.00,1325.00              1276.00,1325.00 1275.04,1311.00 1275.04,1311.00              1272.12,1243.96 1246.89,1183.40 1213.58,1126.00              1213.58,1126.00 1192.98,1093.00 1192.98,1093.00              1192.98,1093.00 1176.00,1068.00 1176.00,1068.00              1176.00,1068.00 1152.00,1076.19 1152.00,1076.19              1152.00,1076.19 1115.00,1089.95 1115.00,1089.95              1115.00,1089.95 1053.00,1112.95 1053.00,1112.95              1053.00,1112.95 1014.00,1128.00 1014.00,1128.00              1014.00,1128.00 1027.95,1149.00 1027.95,1149.00              1045.19,1176.18 1060.51,1204.76 1071.68,1235.00              1071.68,1235.00 1080.34,1261.00 1080.34,1261.00              1081.17,1263.65 1083.42,1269.02 1081.31,1271.40              1079.35,1273.62 1072.95,1272.89 1070.00,1273.17              1070.00,1273.17 1040.00,1275.00 1040.00,1275.00              1040.00,1275.00 1030.00,1275.91 1030.00,1275.91              1030.00,1275.91 993.00,1278.09 993.00,1278.09              993.00,1278.09 966.00,1280.00 966.00,1280.00              966.00,1280.00 922.00,1282.91 922.00,1282.91              922.00,1282.91 865.00,1286.09 865.00,1286.09              865.00,1286.09 819.00,1289.00 819.00,1289.00              819.00,1289.00 795.00,1291.00 795.00,1291.00              795.00,1291.00 787.00,1291.00 787.00,1291.00              787.00,1291.00 758.00,1293.00 758.00,1293.00              758.00,1293.00 731.00,1294.91 731.00,1294.91              731.00,1294.91 694.00,1297.09 694.00,1297.09              694.00,1297.09 682.00,1298.00 682.00,1298.00              675.40,1298.01 674.67,1297.80 668.00,1299.00 Z            M 1144.00,376.00            C 1144.00,376.00 1098.00,394.15 1098.00,394.15              1069.56,406.36 1041.23,418.96 1014.00,433.69              954.45,465.90 901.41,498.89 853.91,548.04              829.50,573.29 810.52,597.47 794.75,629.00              781.97,654.57 773.81,678.64 769.87,707.00              769.87,707.00 768.00,725.00 768.00,725.00              768.00,725.00 768.00,756.00 768.00,756.00              768.15,768.37 772.55,791.68 775.63,804.00              787.13,850.01 808.37,889.64 835.86,928.00              843.60,938.80 854.14,952.27 863.08,962.00              865.60,964.73 871.76,972.46 875.00,973.19              877.82,973.83 885.09,970.36 888.00,969.20              888.00,969.20 919.00,956.80 919.00,956.80              919.00,956.80 996.00,926.00 996.00,926.00              996.00,926.00 1037.00,910.00 1037.00,910.00              1034.32,904.06 1028.48,898.33 1024.35,893.00              1024.35,893.00 1002.43,863.00 1002.43,863.00              985.11,838.03 968.95,805.78 959.08,777.00              948.76,746.91 943.63,714.75 944.00,683.00              944.00,683.00 945.04,673.00 945.04,673.00              945.04,673.00 945.04,663.00 945.04,663.00              952.67,584.53 996.47,514.48 1049.09,458.00              1066.78,439.01 1089.68,418.65 1110.00,402.40              1110.00,402.40 1144.00,376.00 1144.00,376.00 Z            M 1448.00,568.00            C 1446.70,552.07 1437.39,524.94 1429.58,511.00              1427.36,507.05 1422.91,497.23 1418.90,495.60              1417.20,494.91 1413.88,494.97 1412.00,495.01              1412.00,495.01 1403.00,495.96 1403.00,495.96              1403.00,495.96 1393.00,495.96 1393.00,495.96              1393.00,495.96 1383.00,496.91 1383.00,496.91              1383.00,496.91 1361.00,498.09 1361.00,498.09              1361.00,498.09 1330.00,500.00 1330.00,500.00              1330.00,500.00 1306.00,501.91 1306.00,501.91              1306.00,501.91 1284.00,503.09 1284.00,503.09              1284.00,503.09 1253.00,505.00 1253.00,505.00              1253.00,505.00 1229.00,506.91 1229.00,506.91              1229.00,506.91 1159.00,511.09 1159.00,511.09              1159.00,511.09 1130.00,513.09 1130.00,513.09              1130.00,513.09 1120.00,514.00 1120.00,514.00              1120.00,514.00 1089.00,515.91 1089.00,515.91              1089.00,515.91 1067.00,517.09 1067.00,517.09              1067.00,517.09 1057.00,518.00 1057.00,518.00              1052.52,518.05 1037.47,518.18 1034.09,520.02              1030.03,522.23 1023.46,534.56 1020.80,539.00              1012.24,553.29 998.25,581.21 994.00,597.00              994.00,597.00 1032.00,595.00 1032.00,595.00              1032.00,595.00 1056.00,593.09 1056.00,593.09              1056.00,593.09 1078.00,591.91 1078.00,591.91              1078.00,591.91 1109.00,590.00 1109.00,590.00              1109.00,590.00 1119.00,589.09 1119.00,589.09              1119.00,589.09 1171.00,586.00 1171.00,586.00              1171.00,586.00 1195.00,584.09 1195.00,584.09              1195.00,584.09 1217.00,582.91 1217.00,582.91              1217.00,582.91 1248.00,581.00 1248.00,581.00              1248.00,581.00 1258.00,580.09 1258.00,580.09              1258.00,580.09 1286.00,577.99 1286.00,577.99              1286.00,577.99 1294.83,577.99 1294.83,577.99              1294.83,577.99 1306.00,577.00 1306.00,577.00              1306.00,577.00 1349.00,574.09 1349.00,574.09              1349.00,574.09 1390.00,571.91 1390.00,571.91              1390.00,571.91 1432.00,569.00 1432.00,569.00              1432.00,569.00 1448.00,568.00 1448.00,568.00 Z            M 1365.00,613.00            C 1365.00,613.00 1315.00,615.91 1315.00,615.91              1315.00,615.91 1293.00,617.17 1293.00,617.17              1293.00,617.17 1269.00,619.00 1269.00,619.00              1269.00,619.00 1248.00,620.09 1248.00,620.09              1248.00,620.09 1220.00,622.09 1220.00,622.09              1220.00,622.09 1210.00,623.00 1210.00,623.00              1210.00,623.00 1181.00,624.91 1181.00,624.91              1181.00,624.91 1159.00,626.17 1159.00,626.17              1159.00,626.17 1137.00,628.00 1137.00,628.00              1137.00,628.00 1101.00,630.09 1101.00,630.09              1101.00,630.09 1091.00,631.00 1091.00,631.00              1091.00,631.00 1061.00,632.91 1061.00,632.91              1061.00,632.91 1039.00,634.17 1039.00,634.17              1039.00,634.17 1012.00,636.00 1012.00,636.00              1012.00,636.00 991.00,637.42 991.00,637.42              991.00,637.42 983.59,639.02 983.59,639.02              983.59,639.02 980.92,648.00 980.92,648.00              980.92,648.00 978.00,676.00 978.00,676.00              978.00,676.00 978.00,700.00 978.00,700.00              978.00,700.00 979.00,713.00 979.00,713.00              979.00,713.00 1052.00,709.00 1052.00,709.00              1052.00,709.00 1062.00,708.09 1062.00,708.09              1062.00,708.09 1083.00,706.91 1083.00,706.91              1083.00,706.91 1110.00,704.91 1110.00,704.91              1110.00,704.91 1120.00,704.00 1120.00,704.00              1120.00,704.00 1149.00,702.00 1149.00,702.00              1149.00,702.00 1158.00,702.00 1158.00,702.00              1158.00,702.00 1180.00,700.00 1180.00,700.00              1180.00,700.00 1210.00,698.09 1210.00,698.09              1210.00,698.09 1231.00,696.83 1231.00,696.83              1231.00,696.83 1256.00,695.00 1256.00,695.00              1256.00,695.00 1290.00,692.91 1290.00,692.91              1290.00,692.91 1299.00,692.01 1299.00,692.01              1299.00,692.01 1313.00,691.01 1313.00,691.01              1315.72,690.95 1319.42,691.32 1321.83,689.98              1325.25,688.06 1333.19,675.84 1335.81,672.00              1344.05,659.89 1351.29,647.35 1357.30,634.00              1360.19,627.60 1363.92,619.89 1365.00,613.00 Z            M 1367.00,729.00            C 1367.00,729.00 1356.00,729.91 1356.00,729.91              1356.00,729.91 1334.00,731.09 1334.00,731.09              1334.00,731.09 1303.00,733.00 1303.00,733.00              1303.00,733.00 1293.00,733.91 1293.00,733.91              1293.00,733.91 1256.00,736.00 1256.00,736.00              1256.00,736.00 1246.00,737.00 1246.00,737.00              1246.00,737.00 1237.00,737.00 1237.00,737.00              1237.00,737.00 1216.00,738.91 1216.00,738.91              1216.00,738.91 1145.00,743.09 1145.00,743.09              1145.00,743.09 1121.00,745.00 1121.00,745.00              1121.00,745.00 1090.00,746.91 1090.00,746.91              1090.00,746.91 1068.00,748.09 1068.00,748.09              1068.00,748.09 1044.00,750.00 1044.00,750.00              1044.00,750.00 1013.00,751.83 1013.00,751.83              1013.00,751.83 1002.00,752.42 1002.00,752.42              999.28,752.78 990.07,752.84 988.60,754.02              985.41,756.60 990.18,768.54 991.33,772.00              995.89,785.73 1001.30,800.05 1007.75,813.00              1009.42,816.35 1012.89,825.00 1016.21,826.20              1018.38,827.31 1026.74,826.02 1030.00,826.20              1030.00,826.20 1042.00,825.09 1042.00,825.09              1042.00,825.09 1063.00,823.91 1063.00,823.91              1063.00,823.91 1073.00,823.00 1073.00,823.00              1073.00,823.00 1133.00,819.09 1133.00,819.09              1133.00,819.09 1175.00,816.91 1175.00,816.91              1175.00,816.91 1204.00,814.91 1204.00,814.91              1204.00,814.91 1214.00,814.00 1214.00,814.00              1214.00,814.00 1245.00,812.09 1245.00,812.09              1250.17,811.73 1257.05,812.10 1262.00,810.16              1262.00,810.16 1281.00,798.33 1281.00,798.33              1281.00,798.33 1319.00,771.13 1319.00,771.13              1319.00,771.13 1352.00,744.28 1352.00,744.28              1356.63,740.25 1364.36,734.34 1367.00,729.00 Z            M 1031.00,1242.00            C 1029.90,1234.96 1026.40,1229.30 1023.25,1223.00              1023.25,1223.00 1009.19,1197.00 1009.19,1197.00              1002.11,1185.42 1002.74,1184.02 993.00,1184.00              993.00,1184.00 922.00,1188.00 922.00,1188.00              922.00,1188.00 912.00,1188.91 912.00,1188.91              912.00,1188.91 884.00,1190.91 884.00,1190.91              884.00,1190.91 859.00,1192.65 859.00,1192.65              854.58,1193.98 834.18,1207.88 829.00,1211.33              829.00,1211.33 784.00,1242.63 784.00,1242.63              778.37,1246.85 769.28,1252.86 765.00,1258.00              765.00,1258.00 790.00,1256.91 790.00,1256.91              790.00,1256.91 802.00,1256.00 802.00,1256.00              802.00,1256.00 846.00,1253.09 846.00,1253.09              846.00,1253.09 868.00,1251.91 868.00,1251.91              868.00,1251.91 880.00,1251.00 880.00,1251.00              880.00,1251.00 934.00,1248.00 934.00,1248.00              934.00,1248.00 944.00,1247.09 944.00,1247.09              944.00,1247.09 967.00,1245.91 967.00,1245.91              967.00,1245.91 996.00,1243.91 996.00,1243.91              996.00,1243.91 1008.00,1243.00 1008.00,1243.00              1008.00,1243.00 1031.00,1242.00 1031.00,1242.00 Z            M 1054.00,1406.04            C 1054.00,1406.04 1041.00,1406.04 1041.00,1406.04              1041.00,1406.04 1029.00,1407.00 1029.00,1407.00              1029.00,1407.00 1000.00,1408.91 1000.00,1408.91              1000.00,1408.91 977.00,1410.09 977.00,1410.09              977.00,1410.09 951.00,1412.00 951.00,1412.00              951.00,1412.00 914.00,1414.09 914.00,1414.09              914.00,1414.09 902.00,1415.00 902.00,1415.00              902.00,1415.00 872.00,1416.91 872.00,1416.91              872.00,1416.91 835.00,1419.09 835.00,1419.09              835.00,1419.09 825.00,1420.00 825.00,1420.00              825.00,1420.00 794.00,1421.91 794.00,1421.91              794.00,1421.91 772.00,1423.09 772.00,1423.09              772.00,1423.09 762.00,1424.00 762.00,1424.00              762.00,1424.00 730.00,1425.91 730.00,1425.91              730.00,1425.91 708.00,1427.09 708.00,1427.09              708.00,1427.09 681.00,1429.00 681.00,1429.00              681.00,1429.00 641.00,1431.42 641.00,1431.42              641.00,1431.42 628.70,1432.99 628.70,1432.99              628.70,1432.99 624.42,1445.00 624.42,1445.00              624.42,1445.00 620.04,1479.00 620.04,1479.00              620.04,1479.00 620.04,1495.00 620.04,1495.00              620.04,1495.00 621.00,1506.00 621.00,1506.00              621.00,1506.00 668.00,1503.09 668.00,1503.09              668.00,1503.09 688.00,1502.00 688.00,1502.00              688.00,1502.00 717.00,1500.09 717.00,1500.09              717.00,1500.09 740.00,1498.91 740.00,1498.91              740.00,1498.91 769.00,1497.00 769.00,1497.00              769.00,1497.00 781.00,1496.09 781.00,1496.09              781.00,1496.09 818.00,1493.91 818.00,1493.91              818.00,1493.91 828.00,1493.00 828.00,1493.00              828.00,1493.00 860.00,1491.09 860.00,1491.09              860.00,1491.09 882.00,1489.91 882.00,1489.91              882.00,1489.91 906.00,1488.00 906.00,1488.00              906.00,1488.00 938.00,1486.09 938.00,1486.09              938.00,1486.09 960.00,1484.91 960.00,1484.91              960.00,1484.91 975.00,1484.00 975.00,1484.00              975.00,1484.00 1000.00,1482.28 1000.00,1482.28              1000.00,1482.28 1019.00,1481.00 1019.00,1481.00              1022.44,1480.96 1028.74,1481.06 1031.59,1479.02              1034.56,1476.88 1038.32,1464.91 1039.81,1461.00              1045.59,1445.80 1051.83,1422.10 1054.00,1406.04 Z" />
</svg>