<svg xmlns="http://www.w3.org/2000/svg" viewBox="261.5 256.5 1534.7 1536">
  <path id="evrimagaci-alt" fill="#303030" stroke="none" stroke-width="1"
    d="M 347.00,1378.00            C 347.00,1378.00 330.31,1343.00 330.31,1343.00              330.31,1343.00 313.81,1304.00 313.81,1304.00              292.10,1247.97 278.38,1195.38 269.57,1136.00              269.57,1136.00 262.91,1071.00 262.91,1071.00              262.91,1071.00 262.00,1061.00 262.00,1061.00              262.00,1061.00 262.00,990.00 262.00,990.00              262.00,990.00 262.91,978.00 262.91,978.00              262.91,978.00 265.83,943.00 265.83,943.00              270.79,891.75 281.75,841.16 297.02,792.00              308.78,754.18 324.05,717.40 341.75,682.00              431.12,503.27 584.85,367.64 773.00,300.69              843.77,275.51 929.92,258.87 1005.00,258.00              1005.00,258.00 1020.00,257.00 1020.00,257.00              1020.00,257.00 1040.00,257.00 1040.00,257.00              1040.00,257.00 1052.00,257.96 1052.00,257.96              1052.00,257.96 1066.00,257.96 1066.00,257.96              1066.00,257.96 1089.00,259.83 1089.00,259.83              1089.00,259.83 1117.00,262.17 1117.00,262.17              1117.00,262.17 1136.00,264.87 1136.00,264.87              1136.00,264.87 1191.00,274.58 1191.00,274.58              1291.62,296.68 1383.48,336.12 1468.00,395.28              1481.82,404.95 1495.47,414.85 1508.00,426.17              1556.64,470.10 1592.07,530.75 1601.13,596.00              1601.13,596.00 1604.00,622.00 1604.00,622.00              1604.00,622.00 1604.00,650.00 1604.00,650.00              1603.87,678.22 1590.80,715.89 1578.25,741.00              1539.01,819.47 1462.79,878.80 1390.00,924.68              1336.52,958.39 1269.94,989.63 1211.00,1012.80              1211.00,1012.80 1155.00,1033.37 1155.00,1033.37              1155.00,1033.37 1137.00,1040.58 1137.00,1040.58              1137.00,1040.58 1054.00,1071.58 1054.00,1071.58              1054.00,1071.58 989.00,1096.01 989.00,1096.01              939.42,1116.46 880.30,1146.79 834.00,1173.99              793.09,1198.02 754.06,1224.75 717.00,1254.40              717.00,1254.40 685.00,1281.83 685.00,1281.83              678.67,1287.53 671.99,1293.04 667.00,1300.00              667.00,1300.00 695.00,1297.91 695.00,1297.91              695.00,1297.91 725.00,1295.91 725.00,1295.91              725.00,1295.91 735.00,1295.00 735.00,1295.00              735.00,1295.00 766.00,1292.96 766.00,1292.96              766.00,1292.96 775.00,1292.96 775.00,1292.96              775.00,1292.96 800.00,1291.00 800.00,1291.00              800.00,1291.00 823.00,1289.91 823.00,1289.91              823.00,1289.91 852.00,1287.91 852.00,1287.91              852.00,1287.91 863.00,1287.00 863.00,1287.00              863.00,1287.00 908.00,1284.09 908.00,1284.09              908.00,1284.09 965.00,1280.91 965.00,1280.91              965.00,1280.91 994.00,1278.91 994.00,1278.91              994.00,1278.91 1006.00,1278.00 1006.00,1278.00              1006.00,1278.00 1035.00,1276.09 1035.00,1276.09              1035.00,1276.09 1073.00,1273.91 1073.00,1273.91              1073.00,1273.91 1084.00,1273.00 1084.00,1273.00              1082.66,1264.28 1075.73,1243.77 1072.42,1235.00              1062.14,1207.73 1048.43,1180.83 1033.19,1156.00              1033.19,1156.00 1015.00,1128.00 1015.00,1128.00              1015.00,1128.00 1053.00,1113.58 1053.00,1113.58              1053.00,1113.58 1133.00,1083.95 1133.00,1083.95              1133.00,1083.95 1162.00,1073.19 1162.00,1073.19              1164.70,1072.17 1172.13,1068.85 1174.68,1069.68              1177.00,1070.43 1179.70,1074.98 1181.14,1077.00              1181.14,1077.00 1195.33,1098.00 1195.33,1098.00              1213.66,1125.50 1231.45,1157.60 1244.42,1188.00              1259.65,1223.70 1268.54,1254.42 1273.15,1293.00              1273.15,1293.00 1275.00,1315.00 1275.00,1315.00              1275.00,1315.00 1275.00,1334.00 1275.00,1334.00              1274.88,1344.29 1273.00,1354.84 1271.42,1365.00              1254.99,1470.79 1166.53,1550.15 1077.00,1599.30              1077.00,1599.30 1022.00,1627.69 1022.00,1627.69              1022.00,1627.69 978.00,1646.85 978.00,1646.85              978.00,1646.85 952.00,1657.19 952.00,1657.19              948.27,1658.63 944.00,1661.01 940.00,1660.00              955.64,1648.95 979.32,1623.88 992.13,1609.00              1032.94,1561.61 1064.66,1509.40 1082.00,1449.00              1087.26,1430.69 1090.89,1411.91 1093.15,1393.00              1093.89,1386.88 1095.32,1372.49 1094.00,1367.00              1089.08,1368.40 1086.00,1367.98 1081.00,1368.00              1081.00,1368.00 1070.00,1368.91 1070.00,1368.91              1070.00,1368.91 1048.00,1370.09 1048.00,1370.09              1048.00,1370.09 1021.00,1372.00 1021.00,1372.00              1021.00,1372.00 992.00,1374.00 992.00,1374.00              992.00,1374.00 984.00,1374.00 984.00,1374.00              984.00,1374.00 960.00,1376.00 960.00,1376.00              960.00,1376.00 913.00,1378.91 913.00,1378.91              913.00,1378.91 856.00,1382.09 856.00,1382.09              856.00,1382.09 812.00,1385.00 812.00,1385.00              812.00,1385.00 785.00,1386.91 785.00,1386.91              785.00,1386.91 747.00,1389.09 747.00,1389.09              747.00,1389.09 737.00,1390.00 737.00,1390.00              737.00,1390.00 706.00,1391.91 706.00,1391.91              706.00,1391.91 684.00,1393.09 684.00,1393.09              684.00,1393.09 674.00,1394.00 674.00,1394.00              674.00,1394.00 642.00,1395.91 642.00,1395.91              642.00,1395.91 620.00,1397.09 620.00,1397.09              620.00,1397.09 610.00,1398.00 610.00,1398.00              605.59,1398.05 595.93,1397.46 592.41,1399.98              589.22,1402.28 585.65,1415.78 584.65,1420.00              580.05,1439.45 577.77,1458.02 578.00,1478.00              578.00,1478.00 578.91,1488.00 578.91,1488.00              579.75,1500.20 581.14,1509.09 584.13,1521.00              609.67,1622.72 716.88,1678.18 811.00,1702.37              811.00,1702.37 861.00,1714.00 861.00,1714.00              895.62,1720.92 930.88,1725.49 966.00,1729.00              966.00,1729.00 975.00,1729.00 975.00,1729.00              975.00,1729.00 1007.00,1732.00 1007.00,1732.00              1007.00,1732.00 1016.00,1732.00 1016.00,1732.00              1016.00,1732.00 1026.00,1733.00 1026.00,1733.00              1026.00,1733.00 1052.00,1733.00 1052.00,1733.00              1052.00,1733.00 1065.00,1732.04 1065.00,1732.04              1103.97,1730.34 1142.88,1724.84 1181.00,1716.42              1301.88,1689.73 1417.28,1630.43 1508.00,1545.91              1508.00,1545.91 1529.00,1525.00 1529.00,1525.00              1529.00,1525.00 1548.91,1505.00 1548.91,1505.00              1565.39,1487.31 1581.02,1468.34 1595.53,1449.00              1595.53,1449.00 1636.69,1388.00 1636.69,1388.00              1636.69,1388.00 1652.58,1364.00 1652.58,1364.00              1672.25,1332.41 1689.79,1298.41 1703.99,1264.00              1738.40,1180.59 1756.86,1085.11 1757.00,995.00              1757.00,995.00 1757.97,981.00 1757.97,981.00              1757.97,981.00 1757.00,969.00 1757.00,969.00              1757.00,969.00 1757.00,949.00 1757.00,949.00              1757.00,949.00 1756.00,931.00 1756.00,931.00              1756.00,931.00 1755.00,917.00 1755.00,917.00              1755.00,917.00 1751.17,877.00 1751.17,877.00              1746.78,831.75 1737.14,787.06 1726.13,743.00              1721.79,725.65 1712.72,694.43 1706.58,678.00              1704.34,672.03 1697.01,656.49 1699.00,651.00              1699.00,651.00 1723.69,699.00 1723.69,699.00              1751.08,758.64 1771.72,821.35 1783.39,886.00              1818.90,1082.77 1777.13,1288.23 1664.34,1454.00              1632.37,1500.99 1595.63,1545.13 1554.00,1583.91              1497.00,1637.02 1432.15,1681.79 1362.00,1715.74              1283.19,1753.89 1192.18,1779.52 1105.00,1787.83              1105.00,1787.83 1043.00,1791.00 1043.00,1791.00              1043.00,1791.00 1028.00,1792.00 1028.00,1792.00              1028.00,1792.00 1013.00,1791.00 1013.00,1791.00              1013.00,1791.00 995.00,1791.00 995.00,1791.00              995.00,1791.00 970.00,1789.09 970.00,1789.09              970.00,1789.09 951.00,1787.83 951.00,1787.83              951.00,1787.83 888.00,1779.28 888.00,1779.28              765.66,1763.18 636.06,1721.92 543.00,1638.17              501.88,1601.16 471.09,1556.74 451.58,1505.00              444.06,1485.07 436.25,1455.24 436.00,1434.00              435.74,1411.72 436.40,1395.86 441.89,1374.00              452.02,1333.71 475.53,1295.63 501.92,1264.00              546.54,1210.53 602.67,1167.81 661.00,1130.31              723.54,1090.10 789.50,1055.69 857.00,1024.69              857.00,1024.69 906.00,1002.43 906.00,1002.43              906.00,1002.43 968.00,977.60 968.00,977.60              1035.95,950.42 1104.49,924.24 1171.00,893.69              1171.00,893.69 1234.00,861.31 1234.00,861.31              1293.74,828.93 1351.87,789.13 1400.00,741.00              1413.57,727.43 1441.57,698.37 1450.00,682.00              1450.00,682.00 1422.00,683.91 1422.00,683.91              1422.00,683.91 1401.00,685.00 1401.00,685.00              1401.00,685.00 1366.00,687.00 1366.00,687.00              1368.35,681.48 1374.36,674.44 1378.00,669.00              1385.50,657.80 1392.83,646.13 1398.74,634.00              1398.74,634.00 1405.40,619.00 1405.40,619.00              1406.30,616.76 1407.53,612.54 1409.48,611.17              1411.73,609.61 1419.65,610.02 1423.00,609.58              1423.00,609.58 1448.00,608.00 1448.00,608.00              1448.00,608.00 1463.00,607.00 1463.00,607.00              1466.91,606.94 1480.93,606.63 1482.99,603.69              1484.33,601.77 1484.79,596.41 1485.00,594.00              1485.00,594.00 1486.00,577.00 1486.00,577.00              1486.00,577.00 1485.07,567.00 1485.07,567.00              1481.12,524.34 1457.83,485.83 1428.00,456.00              1428.00,456.00 1412.00,440.17 1412.00,440.17              1365.27,397.91 1313.18,372.39 1254.00,352.67              1074.95,292.98 885.83,306.06 716.00,388.26              672.22,409.45 630.34,436.55 592.00,466.42              592.00,466.42 564.00,489.57 564.00,489.57              564.00,489.57 533.00,515.28 533.00,515.28              425.46,608.66 348.51,728.53 313.89,867.00              305.58,900.25 298.42,938.90 295.00,973.00              295.00,973.00 295.00,981.00 295.00,981.00              295.00,981.00 292.00,1019.00 292.00,1019.00              292.00,1019.00 291.00,1036.00 291.00,1036.00              291.00,1036.00 291.00,1078.00 291.00,1078.00              291.00,1078.00 292.00,1095.00 292.00,1095.00              292.00,1095.00 295.00,1135.00 295.00,1135.00              295.00,1135.00 295.00,1143.00 295.00,1143.00              299.86,1192.19 308.89,1241.08 320.87,1289.00              320.87,1289.00 339.33,1352.00 339.33,1352.00              341.12,1357.37 348.11,1373.58 347.00,1378.00 Z            M 1036.00,909.00            C 1036.00,909.00 992.00,926.81 992.00,926.81              992.00,926.81 956.00,941.40 956.00,941.40              956.00,941.40 920.00,955.72 920.00,955.72              920.00,955.72 888.00,968.58 888.00,968.58              885.05,969.70 877.82,972.91 875.00,972.22              871.19,971.29 864.94,963.17 862.15,960.00              851.53,947.91 841.63,935.10 832.29,922.00              807.52,887.25 787.97,848.33 777.12,807.00              773.21,792.12 769.08,771.29 769.00,756.00              769.00,756.00 768.03,741.00 768.03,741.00              768.03,741.00 769.00,729.00 769.00,729.00              769.59,677.82 791.22,627.82 821.15,587.00              830.29,574.54 840.41,563.27 850.91,552.00              850.91,552.00 858.04,544.04 858.04,544.04              858.04,544.04 866.00,536.91 866.00,536.91              866.00,536.91 876.00,527.17 876.00,527.17              898.63,506.70 923.56,488.78 949.00,472.00              949.00,472.00 993.00,445.72 993.00,445.72              1027.40,426.17 1063.61,409.47 1100.00,394.00              1100.00,394.00 1127.00,382.81 1127.00,382.81              1130.73,381.37 1135.00,378.99 1139.00,380.00              1139.00,380.00 1092.00,416.58 1092.00,416.58              1020.34,477.62 959.12,558.60 945.87,654.00              945.87,654.00 943.83,675.00 943.83,675.00              943.83,675.00 943.00,684.00 943.00,684.00              942.74,706.95 947.13,738.90 953.43,761.00              964.23,798.90 982.22,834.48 1004.34,867.00              1004.34,867.00 1022.00,891.00 1022.00,891.00              1022.00,891.00 1036.00,909.00 1036.00,909.00 Z            M 995.00,597.00            C 996.10,590.91 1000.18,581.89 1002.72,576.00              1008.19,563.31 1014.55,550.89 1021.60,539.00              1023.58,535.66 1031.02,522.62 1033.53,520.99              1036.00,519.39 1049.43,519.12 1053.00,518.96              1053.00,518.96 1097.00,516.00 1097.00,516.00              1097.00,516.00 1123.00,514.09 1123.00,514.09              1123.00,514.09 1145.00,512.91 1145.00,512.91              1145.00,512.91 1176.00,511.00 1176.00,511.00              1176.00,511.00 1186.00,510.09 1186.00,510.09              1186.00,510.09 1208.00,508.91 1208.00,508.91              1208.00,508.91 1239.00,507.00 1239.00,507.00              1239.00,507.00 1249.00,506.09 1249.00,506.09              1249.00,506.09 1278.00,504.09 1278.00,504.09              1278.00,504.09 1300.00,503.00 1300.00,503.00              1300.00,503.00 1325.00,501.17 1325.00,501.17              1325.00,501.17 1348.00,499.91 1348.00,499.91              1348.00,499.91 1372.00,498.00 1372.00,498.00              1372.00,498.00 1396.00,496.91 1396.00,496.91              1396.00,496.91 1407.00,495.84 1407.00,495.84              1407.00,495.84 1417.91,495.84 1417.91,495.84              1422.20,497.09 1427.20,507.92 1429.25,512.00              1436.57,526.61 1446.25,550.71 1447.00,567.00              1447.00,567.00 1403.00,570.04 1403.00,570.04              1403.00,570.04 1392.00,571.00 1392.00,571.00              1392.00,571.00 1341.00,574.09 1341.00,574.09              1341.00,574.09 1331.00,575.00 1331.00,575.00              1331.00,575.00 1300.00,576.91 1300.00,576.91              1300.00,576.91 1278.00,578.09 1278.00,578.09              1278.00,578.09 1268.00,579.00 1268.00,579.00              1268.00,579.00 1223.00,581.91 1223.00,581.91              1223.00,581.91 1168.00,585.09 1168.00,585.09              1168.00,585.09 1123.00,588.00 1123.00,588.00              1123.00,588.00 1112.00,588.96 1112.00,588.96              1112.00,588.96 1046.00,593.00 1046.00,593.00              1046.00,593.00 1022.00,594.91 1022.00,594.91              1022.00,594.91 995.00,597.00 995.00,597.00 Z            M 983.00,639.00            C 983.00,639.00 1014.00,636.91 1014.00,636.91              1014.00,636.91 1041.00,634.91 1041.00,634.91              1041.00,634.91 1051.00,634.00 1051.00,634.00              1051.00,634.00 1101.00,630.91 1101.00,630.91              1101.00,630.91 1111.00,630.00 1111.00,630.00              1111.00,630.00 1191.00,625.00 1191.00,625.00              1191.00,625.00 1201.00,624.09 1201.00,624.09              1201.00,624.09 1251.00,621.00 1251.00,621.00              1251.00,621.00 1261.00,620.09 1261.00,620.09              1261.00,620.09 1288.00,618.09 1288.00,618.09              1288.00,618.09 1328.00,615.91 1328.00,615.91              1328.00,615.91 1364.00,613.00 1364.00,613.00              1363.39,619.68 1360.61,624.92 1358.00,631.00              1351.98,645.03 1344.13,658.32 1335.67,671.00              1333.17,674.74 1325.10,687.14 1321.83,688.98              1319.12,690.50 1308.51,690.88 1305.00,691.04              1305.00,691.04 1280.00,693.00 1280.00,693.00              1280.00,693.00 1200.00,698.00 1200.00,698.00              1200.00,698.00 1178.00,700.00 1178.00,700.00              1178.00,700.00 1169.00,700.00 1169.00,700.00              1169.00,700.00 1140.00,702.00 1140.00,702.00              1140.00,702.00 1130.00,702.91 1130.00,702.91              1130.00,702.91 1103.00,704.91 1103.00,704.91              1103.00,704.91 1050.00,708.09 1050.00,708.09              1050.00,708.09 1022.00,710.09 1022.00,710.09              1022.00,710.09 1012.00,711.00 1012.00,711.00              1012.00,711.00 980.08,713.00 980.08,713.00              978.50,694.44 978.36,675.56 980.08,657.00              980.08,657.00 983.00,639.00 983.00,639.00 Z            M 987.00,754.00            C 987.00,754.00 1022.00,752.00 1022.00,752.00              1022.00,752.00 1046.00,750.04 1046.00,750.04              1046.00,750.04 1054.00,750.04 1054.00,750.04              1054.00,750.04 1086.00,748.00 1086.00,748.00              1086.00,748.00 1096.00,747.09 1096.00,747.09              1096.00,747.09 1124.00,745.09 1124.00,745.09              1124.00,745.09 1180.00,741.91 1180.00,741.91              1180.00,741.91 1225.00,739.00 1225.00,739.00              1225.00,739.00 1236.00,738.09 1236.00,738.09              1236.00,738.09 1272.00,735.91 1272.00,735.91              1272.00,735.91 1282.00,735.00 1282.00,735.00              1282.00,735.00 1313.00,733.09 1313.00,733.09              1313.00,733.09 1351.00,730.91 1351.00,730.91              1351.00,730.91 1366.00,730.00 1366.00,730.00              1360.43,737.62 1339.34,754.30 1331.00,761.00              1331.00,761.00 1285.00,794.72 1285.00,794.72              1280.61,797.79 1264.07,809.13 1260.00,810.35              1260.00,810.35 1235.00,812.00 1235.00,812.00              1235.00,812.00 1225.00,812.91 1225.00,812.91              1225.00,812.91 1188.00,815.09 1188.00,815.09              1188.00,815.09 1178.00,816.00 1178.00,816.00              1178.00,816.00 1133.00,818.91 1133.00,818.91              1133.00,818.91 1110.00,820.00 1110.00,820.00              1110.00,820.00 1085.00,821.83 1085.00,821.83              1085.00,821.83 1062.00,823.09 1062.00,823.09              1062.00,823.09 1037.00,824.99 1037.00,824.99              1032.88,825.04 1017.72,826.46 1015.39,824.99              1012.27,822.99 1007.43,810.85 1005.70,807.00              998.86,791.84 990.26,770.18 987.00,754.00 Z            M 766.00,1258.00            C 770.55,1252.54 781.85,1245.02 788.00,1240.58              788.00,1240.58 830.00,1211.33 830.00,1211.33              835.03,1207.98 854.62,1194.72 859.00,1193.49              863.42,1192.26 872.33,1192.23 877.00,1191.91              877.00,1191.91 902.00,1190.00 902.00,1190.00              902.00,1190.00 971.00,1186.00 971.00,1186.00              971.00,1186.00 981.00,1184.84 981.00,1184.84              981.00,1184.84 990.00,1184.84 990.00,1184.84              992.72,1184.57 996.29,1183.58 998.90,1184.84              1002.54,1186.04 1007.46,1195.44 1009.60,1199.00              1017.69,1212.48 1024.78,1226.56 1031.00,1241.00              1031.00,1241.00 988.00,1243.91 988.00,1243.91              988.00,1243.91 965.00,1245.00 965.00,1245.00              965.00,1245.00 953.00,1245.91 953.00,1245.91              953.00,1245.91 924.00,1247.91 924.00,1247.91              924.00,1247.91 901.00,1249.09 901.00,1249.09              901.00,1249.09 891.00,1250.00 891.00,1250.00              891.00,1250.00 846.00,1253.00 846.00,1253.00              846.00,1253.00 837.00,1253.00 837.00,1253.00              837.00,1253.00 826.00,1254.00 826.00,1254.00              826.00,1254.00 796.00,1255.91 796.00,1255.91              796.00,1255.91 766.00,1258.00 766.00,1258.00 Z            M 628.00,1433.00            C 628.00,1433.00 657.00,1431.00 657.00,1431.00              657.00,1431.00 694.00,1428.91 694.00,1428.91              694.00,1428.91 726.00,1427.00 726.00,1427.00              726.00,1427.00 750.00,1425.09 750.00,1425.09              750.00,1425.09 788.00,1422.91 788.00,1422.91              788.00,1422.91 798.00,1422.00 798.00,1422.00              798.00,1422.00 829.00,1420.09 829.00,1420.09              829.00,1420.09 851.00,1418.91 851.00,1418.91              851.00,1418.91 861.00,1418.00 861.00,1418.00              861.00,1418.00 930.00,1413.96 930.00,1413.96              930.00,1413.96 941.00,1413.00 941.00,1413.00              941.00,1413.00 986.00,1410.09 986.00,1410.09              986.00,1410.09 1028.00,1407.91 1028.00,1407.91              1028.00,1407.91 1053.00,1406.00 1053.00,1406.00              1051.66,1422.51 1044.67,1444.21 1039.33,1460.00              1038.00,1463.95 1033.72,1476.97 1030.61,1478.98              1028.62,1480.26 1025.33,1479.92 1023.00,1480.09              1023.00,1480.09 1016.00,1481.04 1016.00,1481.04              1016.00,1481.04 1006.00,1481.04 1006.00,1481.04              1006.00,1481.04 959.00,1484.09 959.00,1484.09              959.00,1484.09 934.00,1486.00 934.00,1486.00              934.00,1486.00 865.00,1490.00 865.00,1490.00              865.00,1490.00 854.00,1490.91 854.00,1490.91              854.00,1490.91 831.00,1492.09 831.00,1492.09              831.00,1492.09 802.00,1494.09 802.00,1494.09              802.00,1494.09 792.00,1495.00 792.00,1495.00              792.00,1495.00 761.00,1496.91 761.00,1496.91              761.00,1496.91 738.00,1498.09 738.00,1498.09              738.00,1498.09 728.00,1499.00 728.00,1499.00              728.00,1499.00 697.00,1500.91 697.00,1500.91              697.00,1500.91 660.00,1503.04 660.00,1503.04              660.00,1503.04 648.00,1504.00 648.00,1504.00              648.00,1504.00 622.00,1505.00 622.00,1505.00              621.02,1499.51 621.01,1499.61 621.00,1494.00              621.00,1494.00 621.00,1475.00 621.00,1475.00              621.02,1460.72 625.21,1446.88 628.00,1433.00 Z" />
</svg>