<svg xmlns="http://www.w3.org/2000/svg" viewBox="0.7 -0.5 1077.6 1025">
  <path id="f-sharp" fill="#303030" stroke="none" stroke-width="1"
    d="M 513.00,1024.00            C 507.02,1021.17 502.63,1015.63 498.00,1011.00              498.00,1011.00 475.00,988.00 475.00,988.00              475.00,988.00 394.00,907.00 394.00,907.00              394.00,907.00 121.00,634.00 121.00,634.00              121.00,634.00 31.00,544.00 31.00,544.00              31.00,544.00 9.00,522.00 9.00,522.00              6.91,519.91 1.20,514.96 1.20,512.00              1.20,509.04 6.91,504.09 9.00,502.00              9.00,502.00 31.00,480.00 31.00,480.00              31.00,480.00 121.00,390.00 121.00,390.00              121.00,390.00 394.00,117.00 394.00,117.00              394.00,117.00 475.00,36.00 475.00,36.00              475.00,36.00 498.00,13.00 498.00,13.00              502.63,8.37 507.02,2.83 513.00,0.00              513.00,0.00 513.00,248.00 513.00,248.00              513.00,250.09 513.12,253.06 512.40,255.00              510.98,258.85 502.26,266.74 499.00,270.00              499.00,270.00 464.00,305.00 464.00,305.00              464.00,305.00 315.00,454.00 315.00,454.00              315.00,454.00 273.00,496.00 273.00,496.00              270.30,498.70 259.04,508.79 259.04,512.00              259.04,515.21 270.30,525.30 273.00,528.00              273.00,528.00 315.00,570.00 315.00,570.00              315.00,570.00 464.00,719.00 464.00,719.00              464.00,719.00 499.00,754.00 499.00,754.00              502.26,757.26 510.98,765.15 512.40,769.00              513.12,770.94 513.00,773.91 513.00,776.00              513.00,776.00 513.00,1024.00 513.00,1024.00 Z            M 548.00,0.00            C 548.00,0.00 561.00,10.83 561.00,10.83              561.00,10.83 588.00,36.96 588.00,36.96              588.00,36.96 655.00,101.04 655.00,101.04              655.00,101.04 675.00,120.96 675.00,120.96              675.00,120.96 799.00,240.04 799.00,240.04              799.00,240.04 848.00,287.96 848.00,287.96              848.00,287.96 886.00,324.04 886.00,324.04              886.00,324.04 906.00,343.96 906.00,343.96              906.00,343.96 955.00,391.00 955.00,391.00              955.00,391.00 973.00,408.04 973.00,408.04              973.00,408.04 993.00,427.96 993.00,427.96              993.00,427.96 1048.00,481.00 1048.00,481.00              1048.00,481.00 1071.00,503.00 1071.00,503.00              1071.00,503.00 1077.80,512.00 1077.80,512.00              1077.80,512.00 1071.00,521.00 1071.00,521.00              1071.00,521.00 1048.00,543.00 1048.00,543.00              1048.00,543.00 993.00,596.04 993.00,596.04              993.00,596.04 973.00,615.96 973.00,615.96              973.00,615.96 955.00,633.00 955.00,633.00              955.00,633.00 906.00,680.04 906.00,680.04              906.00,680.04 886.00,699.96 886.00,699.96              886.00,699.96 848.00,736.04 848.00,736.04              848.00,736.04 799.00,783.96 799.00,783.96              799.00,783.96 675.00,903.04 675.00,903.04              675.00,903.04 655.00,922.96 655.00,922.96              655.00,922.96 588.00,987.04 588.00,987.04              588.00,987.04 561.00,1013.17 561.00,1013.17              561.00,1013.17 548.00,1024.00 548.00,1024.00              548.00,1024.00 548.00,775.00 548.00,775.00              548.00,772.91 547.88,769.94 548.60,768.00              550.02,764.15 558.74,756.26 562.00,753.00              562.00,753.00 597.00,718.00 597.00,718.00              597.00,718.00 745.00,570.00 745.00,570.00              745.00,570.00 787.00,528.00 787.00,528.00              789.70,525.30 800.96,515.21 800.96,512.00              800.96,508.79 789.70,498.70 787.00,496.00              787.00,496.00 745.00,454.00 745.00,454.00              745.00,454.00 597.00,306.00 597.00,306.00              597.00,306.00 562.00,271.00 562.00,271.00              558.74,267.74 550.02,259.85 548.60,256.00              547.88,254.06 548.00,251.09 548.00,249.00              548.00,249.00 548.00,0.00 548.00,0.00 Z            M 513.00,695.00            C 506.93,692.13 501.77,685.77 497.00,681.00              497.00,681.00 469.00,653.00 469.00,653.00              469.00,653.00 373.00,557.00 373.00,557.00              373.00,557.00 341.00,525.00 341.00,525.00              338.55,522.55 330.20,515.22 330.20,512.00              330.20,508.78 338.55,501.45 341.00,499.00              341.00,499.00 373.00,467.00 373.00,467.00              373.00,467.00 469.00,371.00 469.00,371.00              469.00,371.00 497.00,343.00 497.00,343.00              501.77,338.23 506.93,331.87 513.00,329.00              513.00,329.00 513.00,695.00 513.00,695.00 Z" />
</svg>