<svg xmlns="http://www.w3.org/2000/svg" viewBox="302.5 201.5 437.03 821.96">
  <path id="facebook-f" fill="#303030" stroke="none" stroke-width="1"
    d="M 433.00,512.00            C 433.00,512.00 433.00,430.00 433.00,430.00              433.00,430.00 433.00,386.00 433.00,386.00              433.00,386.00 433.91,374.00 433.91,374.00              437.05,331.04 452.09,286.05 483.00,255.00              491.83,246.13 496.51,241.48 507.00,234.34              534.62,215.58 567.84,205.33 601.00,202.91              601.00,202.91 613.00,202.00 613.00,202.00              613.00,202.00 645.00,202.00 645.00,202.00              645.00,202.00 657.00,202.91 657.00,202.91              657.00,202.91 683.00,204.72 683.00,204.72              683.00,204.72 722.00,209.13 722.00,209.13              724.73,209.51 735.78,210.71 737.40,212.02              739.38,213.62 739.00,217.67 739.00,220.00              739.00,220.00 739.00,309.00 739.00,309.00              739.00,309.00 739.00,330.00 739.00,330.00              738.96,331.95 739.10,334.63 737.40,335.98              735.81,337.23 731.99,337.00 730.00,337.00              730.00,337.00 688.00,337.00 688.00,337.00              688.00,337.00 668.00,337.00 668.00,337.00              643.00,337.04 616.82,348.06 603.46,370.00              599.98,375.72 596.92,382.54 595.15,389.00              592.61,398.30 591.02,411.37 591.00,421.00              591.00,421.00 591.00,490.00 591.00,490.00              591.00,494.37 589.75,508.60 593.31,510.98              595.16,512.21 598.81,512.00 601.00,512.00              601.00,512.00 733.00,512.00 733.00,512.00              733.00,512.00 715.58,625.00 715.58,625.00              715.58,625.00 711.92,649.00 711.92,649.00              711.92,649.00 709.40,657.98 709.40,657.98              709.40,657.98 702.00,659.00 702.00,659.00              702.00,659.00 617.00,659.00 617.00,659.00              617.00,659.00 599.00,659.00 599.00,659.00              599.00,659.00 592.60,660.60 592.60,660.60              592.60,660.60 591.00,669.00 591.00,669.00              591.00,669.00 591.00,1017.00 591.00,1017.00              591.00,1017.00 568.00,1019.83 568.00,1019.83              568.00,1019.83 535.00,1022.00 535.00,1022.00              535.00,1022.00 523.00,1022.96 523.00,1022.96              523.00,1022.96 506.00,1022.96 506.00,1022.96              506.00,1022.96 490.00,1022.00 490.00,1022.00              490.00,1022.00 433.00,1017.00 433.00,1017.00              433.00,1017.00 433.00,659.00 433.00,659.00              433.00,659.00 303.00,659.00 303.00,659.00              303.00,659.00 303.00,512.00 303.00,512.00              303.00,512.00 433.00,512.00 433.00,512.00 Z" />
</svg>