<svg xmlns="http://www.w3.org/2000/svg" viewBox="1.5 1.34 1021.7 1016.16">
  <path id="facebook" fill="#303030" stroke="none" stroke-width="1"
    d="M 432.00,1016.00            C 421.57,1015.77 399.84,1010.46 389.00,1007.88              352.64,999.25 317.41,985.95 284.00,969.25              152.01,903.25 55.40,784.73 17.88,642.00              9.78,611.16 5.09,579.74 2.91,548.00              2.91,548.00 2.00,536.00 2.00,536.00              2.00,536.00 2.00,488.00 2.00,488.00              2.00,488.00 3.83,464.00 3.83,464.00              7.56,425.50 13.85,392.93 25.66,356.00              68.28,222.64 167.33,107.93 295.00,49.31              345.30,26.21 401.78,9.45 457.00,4.17              483.91,1.59 510.95,1.69 538.00,2.00              538.00,2.00 560.00,3.83 560.00,3.83              596.84,7.36 628.53,13.59 664.00,24.28              709.90,38.11 753.88,59.56 794.00,85.69              885.01,144.98 956.90,237.78 993.13,340.00              1032.25,449.34 1032.85,575.81 993.13,685.00              956.32,785.22 893.90,867.32 807.00,929.42              788.87,942.38 769.80,954.04 750.00,964.26              750.00,964.26 740.00,969.68 740.00,969.68              706.03,985.82 676.43,997.25 640.00,1006.85              640.00,1006.85 611.00,1013.39 611.00,1013.39              611.00,1013.39 592.00,1017.00 592.00,1017.00              592.00,1017.00 592.00,660.00 592.00,660.00              592.00,660.00 711.00,660.00 711.00,660.00              711.00,660.00 715.73,628.00 715.73,628.00              715.73,628.00 727.27,552.00 727.27,552.00              727.27,552.00 733.00,512.00 733.00,512.00              733.00,512.00 592.00,512.00 592.00,512.00              592.00,512.00 592.00,435.00 592.00,435.00              592.00,435.00 592.00,415.00 592.00,415.00              592.04,390.10 601.29,364.01 623.00,350.09              642.49,337.59 665.66,337.00 688.00,337.00              688.00,337.00 739.00,337.00 739.00,337.00              739.00,337.00 739.00,211.00 739.00,211.00              739.00,211.00 668.00,202.91 668.00,202.91              668.00,202.91 658.00,202.00 658.00,202.00              658.00,202.00 638.00,201.00 638.00,201.00              638.00,201.00 618.00,201.00 618.00,201.00              618.00,201.00 606.00,201.91 606.00,201.91              576.05,204.01 546.24,211.15 520.00,226.15              508.96,232.46 498.06,240.05 489.00,249.00              479.62,258.27 473.09,264.94 465.67,276.00              456.41,289.81 447.97,307.10 443.02,323.00              431.51,360.00 432.00,388.16 432.00,426.00              432.00,426.00 432.00,512.00 432.00,512.00              432.00,512.00 303.00,512.00 303.00,512.00              303.00,512.00 303.00,660.00 303.00,660.00              303.00,660.00 432.00,660.00 432.00,660.00              432.00,660.00 432.00,1016.00 432.00,1016.00 Z" />
</svg>