<svg xmlns="http://www.w3.org/2000/svg" viewBox="-0.5 -0.3 295.08 288.8">
  <path id="fedora" fill="#303030" stroke="none" stroke-width="1"
    d="M 130.00,0.21            C 130.00,0.21 155.00,0.21 155.00,0.21              170.87,0.02 189.32,4.91 204.00,10.80              221.48,17.81 233.89,26.39 248.00,38.72              255.14,44.96 261.28,52.33 266.85,60.00              297.73,102.52 302.79,159.71 279.74,207.00              265.39,236.44 242.13,258.72 213.00,273.25              197.06,281.20 173.87,287.97 156.00,288.00              156.00,288.00 33.00,288.00 33.00,288.00              12.97,287.97 0.03,275.01 0.00,255.00              0.00,255.00 0.00,178.00 0.00,178.00              0.00,178.00 0.00,136.00 0.00,136.00              0.06,99.51 21.48,58.80 49.00,35.59              58.36,27.69 68.93,20.11 80.00,14.78              97.67,6.29 110.83,3.20 130.00,0.21 Z            M 155.00,140.00            C 155.00,140.00 155.00,114.00 155.00,114.00              155.00,108.64 154.61,103.10 156.56,98.00              161.82,84.22 180.57,79.31 191.98,88.39              196.66,92.11 199.29,97.06 199.81,103.00              200.30,108.40 198.09,115.05 205.18,119.77              207.73,121.47 210.98,122.15 214.00,121.65              223.65,120.04 225.17,111.18 224.99,103.00              224.42,77.91 202.41,59.28 178.00,59.00              161.95,58.82 148.43,65.15 138.53,78.00              128.57,90.93 130.00,104.82 130.00,120.00              130.00,120.00 130.00,191.00 130.00,191.00              129.99,197.45 129.65,202.27 126.24,208.00              120.90,216.96 110.68,223.39 100.00,222.79              80.35,221.69 65.13,201.87 73.53,183.00              75.20,179.24 78.01,175.89 81.01,173.10              84.64,169.74 89.22,167.22 94.00,165.93              98.49,164.71 114.75,164.00 120.00,164.00              120.00,164.00 120.00,140.00 120.00,140.00              120.00,140.00 102.00,140.00 102.00,140.00              90.52,140.02 79.57,143.07 70.00,149.52              62.58,154.52 55.83,161.98 51.81,170.00              48.47,176.67 46.08,185.54 46.00,193.00              45.92,200.85 47.39,208.88 50.78,216.00              70.86,258.15 133.50,257.83 151.18,214.00              154.11,206.73 154.99,202.79 155.00,195.00              155.00,195.00 155.00,164.00 155.00,164.00              155.00,164.00 174.00,164.00 174.00,164.00              177.91,163.98 181.49,164.05 184.66,161.35              190.44,156.44 190.12,146.34 183.81,142.01              179.16,138.81 161.36,140.00 155.00,140.00 Z" />
</svg>