<svg xmlns="http://www.w3.org/2000/svg" viewBox="46.5 59.28 178.03 188.06">
  <path id="fedora-alt" fill="#303030" stroke="none" stroke-width="1"
    d="M 119.00,164.00            C 102.61,164.00 87.91,162.28 76.53,177.00              60.86,197.27 77.82,223.54 102.00,222.99              120.23,222.57 130.79,208.34 131.00,191.00              131.00,191.00 131.00,119.00 131.00,119.00              131.00,100.46 129.22,86.51 144.17,72.30              171.62,46.20 223.54,63.23 224.00,102.00              224.04,106.07 224.29,111.28 222.43,114.96              219.31,121.12 210.67,122.70 205.11,118.99              198.38,114.52 200.65,106.63 199.82,100.00              199.24,95.46 197.34,92.26 193.96,89.21              182.36,78.75 162.43,82.15 156.23,97.00              154.54,101.04 155.00,107.54 155.00,112.00              155.00,112.00 155.00,140.00 155.00,140.00              161.59,140.00 177.74,139.02 182.90,142.14              189.63,146.20 189.63,157.80 182.90,161.86              177.74,164.98 161.59,164.00 155.00,164.00              155.00,164.00 155.00,188.00 155.00,188.00              154.98,198.92 153.13,210.41 147.66,220.00              143.89,226.63 137.31,233.38 131.00,237.64              103.84,255.98 65.35,245.98 51.32,216.00              47.58,208.00 46.96,201.65 47.00,193.00              47.05,181.50 51.20,169.95 58.47,161.00              63.06,155.33 68.52,150.64 75.00,147.26              86.26,141.39 91.72,141.06 104.00,141.00              104.00,141.00 119.00,140.00 119.00,140.00              119.00,140.00 119.00,164.00 119.00,164.00 Z" />
</svg>