<svg xmlns="http://www.w3.org/2000/svg" viewBox="351.5 57.49 673.25 184.01">
  <path id="fedora-text" fill="#303030" stroke="none" stroke-width="1"
    d="M 377.00,145.00            C 377.00,145.00 377.00,185.00 377.00,185.00              377.00,185.00 377.00,226.00 377.00,226.00              376.75,244.24 359.66,241.30 355.28,236.77              351.73,233.11 352.01,228.70 352.00,224.00              352.00,224.00 352.00,105.00 352.00,105.00              352.03,83.41 366.17,65.63 387.00,59.92              394.58,57.84 398.36,57.99 406.00,58.00              414.97,58.01 425.96,60.28 432.89,66.39              438.70,71.51 438.17,80.80 431.90,85.28              423.30,91.40 414.92,82.54 406.00,82.10              394.85,81.56 381.22,87.64 377.80,99.00              376.50,103.32 377.00,117.66 377.00,123.00              382.64,123.00 402.01,122.12 405.98,124.17              413.97,128.30 413.62,139.81 406.90,143.55              402.53,145.97 383.06,145.00 377.00,145.00 Z            M 654.00,126.00            C 654.00,126.00 654.00,75.00 654.00,75.00              654.01,71.62 653.73,68.03 655.74,65.10              660.34,58.41 671.66,58.41 676.26,65.10              678.27,68.03 677.99,71.62 678.00,75.00              678.00,75.00 678.00,122.00 678.00,122.00              678.00,122.00 679.00,139.00 679.00,139.00              679.00,139.00 679.00,188.00 679.00,188.00              679.00,188.00 679.00,220.00 679.00,220.00              678.99,224.18 679.02,229.22 676.86,232.96              672.02,241.36 654.93,242.68 654.00,226.00              639.72,237.02 627.73,240.20 610.00,240.00              601.88,239.90 593.24,237.35 586.00,233.73              552.35,216.91 539.57,176.74 558.34,144.00              561.72,138.09 567.83,131.71 573.00,127.30              578.68,122.46 586.84,118.35 594.00,116.21              602.15,113.76 611.59,112.63 620.00,113.72              636.32,115.84 639.87,117.38 654.00,126.00 Z            M 752.00,112.42            C 781.39,108.84 810.95,127.22 820.91,155.00              824.20,164.17 824.11,171.50 824.00,181.00              823.89,190.51 820.39,200.87 815.55,209.00              811.62,215.59 805.14,222.67 799.00,227.24              783.81,238.54 771.16,240.21 753.00,240.00              729.82,239.73 706.05,222.21 697.45,201.00              692.81,189.56 692.86,183.96 693.00,172.00              693.11,163.29 695.38,155.73 699.25,148.00              710.41,125.67 728.17,116.02 752.00,112.42 Z            M 453.00,201.00            C 464.14,215.59 483.89,220.80 501.00,214.07              510.52,210.33 512.71,204.98 519.00,203.42              527.89,201.21 535.83,206.34 534.89,216.00              534.29,222.17 528.79,226.41 524.00,229.64              513.25,236.90 498.94,240.84 486.00,241.00              467.85,241.21 451.35,237.17 438.09,223.91              431.28,217.10 425.68,207.13 422.67,198.00              411.52,164.16 425.83,128.10 461.00,116.52              487.50,107.79 509.96,115.82 526.63,138.00              530.11,142.64 536.18,151.23 536.80,157.00              537.96,167.84 528.05,170.67 520.00,173.99              520.00,173.99 478.00,191.42 478.00,191.42              471.50,194.15 459.33,199.86 453.00,201.00 Z            M 865.00,121.00            C 877.56,114.05 885.21,113.84 899.00,114.00              903.88,114.06 910.02,115.01 913.78,118.42              922.47,126.30 915.37,139.94 904.00,138.64              898.88,138.05 895.32,135.25 889.00,136.52              874.11,139.52 866.18,151.37 866.00,166.00              866.00,166.00 866.00,223.00 866.00,223.00              865.99,226.72 866.22,230.67 864.15,233.96              859.79,240.85 848.92,242.01 843.43,235.78              840.09,231.99 840.01,224.82 840.00,220.00              840.00,220.00 840.00,133.00 840.00,133.00              840.01,128.06 840.10,121.09 843.43,117.13              848.97,110.55 861.12,111.59 865.00,121.00 Z            M 1000.00,225.00            C 994.81,228.45 987.69,233.23 982.00,235.55              964.28,242.76 941.20,242.12 927.04,227.96              923.89,224.81 921.12,221.21 919.56,217.00              917.67,211.89 917.94,206.36 918.00,201.00              918.33,173.65 950.81,166.67 972.00,161.37              972.00,161.37 992.00,156.28 992.00,156.28              994.56,155.46 998.34,154.28 998.26,150.95              998.14,146.21 990.93,141.61 987.00,140.07              978.36,136.69 966.73,136.11 958.00,139.47              953.29,141.28 948.44,145.21 944.00,145.77              933.53,147.09 925.74,134.54 932.43,126.09              939.37,117.33 958.23,113.02 969.00,113.00              978.72,112.98 982.32,112.68 992.00,115.43              996.56,116.72 1000.90,118.49 1005.00,120.88              1027.89,134.21 1024.00,155.64 1024.00,178.00              1024.00,178.00 1024.00,227.00 1024.00,227.00              1023.78,242.65 1007.94,242.07 1002.43,235.78              999.66,232.62 1000.01,228.90 1000.00,225.00 Z            M 753.00,137.30            C 745.17,138.78 738.22,141.31 732.01,146.47              717.18,158.81 713.44,182.08 724.79,198.00              732.56,208.90 743.82,214.67 757.00,215.68              760.92,215.98 768.25,214.62 772.00,213.30              806.57,201.12 808.39,153.49 774.00,139.93              767.09,137.20 760.33,136.57 753.00,137.30 Z            M 506.00,153.00            C 499.22,138.67 477.17,134.37 464.00,141.95              454.91,147.19 445.73,158.61 443.52,169.00              442.84,172.17 443.00,175.75 443.00,179.00              443.00,179.00 467.00,169.60 467.00,169.60              467.00,169.60 506.00,153.00 506.00,153.00 Z            M 607.00,138.30            C 600.98,139.44 596.04,141.18 591.00,144.79              560.33,166.74 575.66,213.50 613.00,214.96              644.67,216.20 666.66,178.41 645.67,153.00              642.15,148.74 637.88,144.94 633.00,142.32              624.33,137.67 616.59,137.35 607.00,138.30 Z            M 1000.00,178.00            C 1000.00,178.00 975.00,183.63 975.00,183.63              969.51,185.04 964.11,186.78 959.00,189.26              952.02,192.65 942.11,198.73 943.62,208.00              945.00,216.43 955.92,218.36 963.00,217.91              973.58,217.23 991.97,212.49 997.77,202.96              999.81,199.62 999.95,196.78 1000.00,193.00              1000.00,193.00 1000.00,178.00 1000.00,178.00 Z" />
</svg>