<svg xmlns="http://www.w3.org/2000/svg" viewBox="25.48 7.5 1081.02 1117.66">
  <path id="Selection" fill="#303030" stroke="none" stroke-width="1" d="M 801.00,443.00            C 790.87,424.07 774.12,405.12 759.00,390.00              719.79,350.79 674.68,324.53 620.00,313.80              598.61,309.61 578.69,308.75 557.00,309.00              557.00,309.00 547.00,309.91 547.00,309.91              522.02,311.74 497.33,317.77 474.00,326.81              464.67,330.43 450.20,339.83 441.21,331.61              435.30,326.21 435.73,315.73 441.21,310.21              444.54,306.86 451.53,304.30 456.00,302.42              477.48,293.41 499.01,287.29 522.00,283.59              522.00,283.59 542.00,281.09 542.00,281.09              544.62,280.90 548.27,281.40 550.27,279.40              552.00,277.67 552.51,273.39 552.92,271.00              552.92,271.00 556.37,255.00 556.37,255.00              561.61,233.78 566.88,217.30 575.00,197.00              598.12,139.20 636.08,83.18 684.00,43.25              695.15,33.95 706.67,25.25 719.00,17.58              724.77,13.98 730.40,9.89 737.00,8.00              746.98,38.49 765.50,66.01 784.00,92.00              818.73,140.80 856.66,182.02 895.72,227.00              927.54,263.65 956.15,299.91 980.58,342.00              980.58,342.00 998.69,376.00 998.69,376.00              998.69,376.00 1011.00,403.00 1011.00,403.00              1010.25,393.84 1005.73,376.42 1003.37,367.00              996.81,340.75 988.05,314.95 977.58,290.00              977.58,290.00 966.22,264.00 966.22,264.00              963.44,258.11 959.78,252.24 958.00,246.00              967.07,248.65 980.11,259.44 987.00,266.00              987.00,266.00 995.83,274.09 995.83,274.09              1007.26,285.86 1017.88,298.65 1027.42,312.00              1067.12,367.55 1087.20,426.17 1098.41,493.00              1098.41,493.00 1105.00,545.00 1105.00,545.00              1105.00,545.00 1105.00,553.00 1105.00,553.00              1105.00,553.00 1106.00,563.00 1106.00,563.00              1106.00,563.00 1106.00,611.00 1106.00,611.00              1106.00,611.00 1105.04,624.00 1105.04,624.00              1102.77,676.06 1091.89,728.06 1073.95,777.00              1014.65,938.73 875.47,1061.09 710.00,1105.85              675.26,1115.25 639.82,1120.64 604.00,1123.09              604.00,1123.09 592.00,1124.00 592.00,1124.00              592.00,1124.00 576.00,1124.00 576.00,1124.00              576.00,1124.00 567.00,1124.66 567.00,1124.66              567.00,1124.66 560.00,1124.02 560.00,1124.02              560.00,1124.02 540.00,1124.02 540.00,1124.02              540.00,1124.02 530.00,1123.09 530.00,1123.09              497.46,1120.86 468.77,1116.43 437.00,1108.88              255.52,1065.79 108.25,926.08 51.66,749.00              40.01,712.57 32.63,676.03 28.83,638.00              28.83,638.00 27.00,617.00 27.00,617.00              27.00,617.00 26.00,599.00 26.00,599.00              25.72,574.36 27.93,552.37 30.85,528.00              42.69,428.95 74.33,348.22 138.59,271.00              157.05,248.81 177.45,228.44 200.00,210.40              209.10,203.12 224.92,191.16 236.00,188.00              236.00,188.00 235.00,204.00 235.00,204.00              235.00,204.00 235.00,223.00 235.00,223.00              235.00,223.00 236.00,240.00 236.00,240.00              236.02,253.01 237.87,266.13 239.73,279.00              241.83,293.59 245.32,311.51 255.00,323.00              262.44,312.28 282.79,292.96 293.00,283.84              312.54,266.39 333.25,250.63 356.00,237.58              365.18,232.31 375.00,226.49 385.00,223.00              385.00,223.00 380.25,246.00 380.25,246.00              376.08,270.02 375.69,295.86 379.00,320.00              379.86,326.30 383.85,349.18 386.42,353.82              388.05,356.76 392.28,359.32 395.00,361.42              395.00,361.42 409.00,373.28 409.00,373.28              424.55,386.99 436.89,402.57 454.00,414.99              480.91,434.52 510.38,448.94 540.00,463.75              540.00,463.75 561.00,474.31 561.00,474.31              564.07,476.02 567.65,478.03 567.64,482.01              567.64,487.64 557.79,498.79 554.05,503.00              543.65,514.71 523.25,534.88 508.00,539.21              504.17,540.30 499.96,539.96 496.00,540.00              496.00,540.00 485.00,540.96 485.00,540.96              438.45,542.99 392.39,555.08 357.00,586.84              346.53,596.23 337.16,607.41 330.76,620.00              328.93,623.59 325.93,629.12 325.34,633.00              324.81,636.54 326.29,643.23 326.92,647.00              328.86,658.63 333.37,674.10 337.86,685.00              359.94,738.55 401.77,784.28 454.00,809.74              519.98,841.90 606.36,841.45 672.00,808.63              710.06,789.60 742.46,757.33 762.69,720.00              777.62,692.46 789.95,651.45 790.00,620.00              790.00,620.00 790.00,598.00 790.00,598.00              789.90,589.60 787.49,573.48 785.80,565.00              776.67,519.10 756.50,482.70 723.00,450.01              713.27,440.52 702.36,432.72 691.00,425.34              686.60,422.48 676.49,417.87 674.00,414.00              674.00,414.00 695.00,412.00 695.00,412.00              731.49,411.58 770.43,423.10 801.00,443.00 Z            M 1012.00,404.00            C 1012.00,404.00 1011.00,404.00 1011.00,404.00              1011.00,404.00 1012.00,405.00 1012.00,405.00              1012.00,405.00 1012.00,404.00 1012.00,404.00 Z            M 802.00,443.00            C 802.00,443.00 801.00,443.00 801.00,443.00              801.00,443.00 802.00,444.00 802.00,444.00              802.00,444.00 802.00,443.00 802.00,443.00 Z"/>
</svg>