<svg xmlns="http://www.w3.org/2000/svg" viewBox="-0.51 -0.51 1601.2 312.98">
  <path id="flaticon-wordmark" fill="#303030" stroke="none" stroke-width="1"
    d="M 189.00,108.00            C 189.00,108.00 161.15,157.00 161.15,157.00              158.90,160.93 150.71,173.19 150.89,177.00              151.00,179.50 153.71,183.78 155.01,186.00              155.01,186.00 164.85,203.00 164.85,203.00              164.85,203.00 196.01,257.00 196.01,257.00              198.56,261.34 209.60,279.48 210.26,283.00              211.02,287.05 207.67,291.77 205.48,295.00              198.26,305.68 185.03,312.65 172.00,311.91              148.77,310.58 141.95,296.99 131.72,279.00              131.72,279.00 118.42,256.00 118.42,256.00              118.42,256.00 34.20,110.00 34.20,110.00              34.20,110.00 14.58,76.00 14.58,76.00              5.34,59.89 -0.22,55.25 0.00,36.00              0.17,22.21 9.24,8.84 22.00,3.46              28.25,0.83 36.25,0.01 43.00,0.00              43.00,0.00 251.00,0.00 251.00,0.00              251.00,0.00 222.85,50.00 222.85,50.00              213.67,65.99 215.39,65.98 206.00,66.00              206.00,66.00 86.00,66.00 86.00,66.00              86.00,66.00 101.99,94.00 101.99,94.00              110.11,107.83 108.31,107.98 118.00,108.00              118.00,108.00 189.00,108.00 189.00,108.00 Z            M 236.00,242.00            C 231.26,237.82 228.01,230.54 224.85,225.00              224.85,225.00 206.99,194.00 206.99,194.00              204.56,189.86 197.98,180.59 198.49,176.00              198.88,172.56 203.13,166.17 204.99,163.00              204.99,163.00 218.20,140.00 218.20,140.00              218.20,140.00 263.20,62.00 263.20,62.00              263.20,62.00 289.72,16.00 289.72,16.00              291.67,12.57 296.96,2.01 300.21,0.60              301.82,-0.10 305.19,-0.03 307.00,0.01              312.50,0.14 320.01,1.48 325.00,3.79              329.48,5.87 333.45,8.39 336.82,12.04              346.37,22.38 349.63,37.62 345.25,51.00              343.18,57.33 337.84,66.04 334.42,72.00              334.42,72.00 321.15,95.00 321.15,95.00              321.15,95.00 287.01,154.00 287.01,154.00              287.01,154.00 255.85,208.00 255.85,208.00              255.85,208.00 236.00,242.00 236.00,242.00 Z            M 468.00,112.00            C 468.00,95.37 466.78,81.22 471.43,65.00              473.00,59.51 475.95,52.74 479.10,48.00              488.39,34.05 505.31,25.20 522.00,25.00              522.00,25.00 536.00,25.00 536.00,25.00              549.68,25.02 554.77,28.21 567.00,31.00              567.00,31.00 567.00,74.00 567.00,74.00              567.00,74.00 554.00,69.89 554.00,69.89              541.18,66.67 522.29,66.00 516.56,81.00              514.10,87.44 515.00,104.36 515.00,112.00              515.00,112.00 567.00,112.00 567.00,112.00              567.00,112.00 567.00,153.00 567.00,153.00              567.00,153.00 515.00,153.00 515.00,153.00              515.00,153.00 515.00,283.00 515.00,283.00              515.00,283.00 468.00,283.00 468.00,283.00              468.00,283.00 468.00,153.00 468.00,153.00              468.00,153.00 436.00,153.00 436.00,153.00              436.00,153.00 436.00,112.00 436.00,112.00              436.00,112.00 468.00,112.00 468.00,112.00 Z            M 1028.00,27.52            C 1031.53,26.96 1034.45,26.96 1038.00,27.00              1063.36,27.31 1074.35,58.76 1058.48,76.83              1051.77,84.47 1043.63,86.11 1034.00,86.00              1000.77,85.61 995.00,36.41 1028.00,27.52 Z            M 589.00,29.00            C 589.00,29.00 636.00,29.00 636.00,29.00              636.00,29.00 636.00,283.00 636.00,283.00              636.00,283.00 589.00,283.00 589.00,283.00              589.00,283.00 589.00,29.00 589.00,29.00 Z            M 882.00,61.00            C 882.00,61.00 929.00,61.00 929.00,61.00              929.00,61.00 929.00,112.00 929.00,112.00              929.00,112.00 991.00,112.00 991.00,112.00              991.00,112.00 991.00,154.00 991.00,154.00              991.00,154.00 929.00,154.00 929.00,154.00              929.00,154.00 929.00,213.00 929.00,213.00              929.04,220.56 930.36,229.00 935.34,234.98              942.21,243.24 950.96,244.81 961.00,242.91              963.78,242.38 970.42,239.87 972.61,240.67              975.12,241.58 977.59,247.60 978.69,250.00              978.69,250.00 991.00,277.00 991.00,277.00              978.89,283.87 967.66,286.13 954.00,287.09              950.56,287.33 948.60,288.07 945.00,287.82              934.09,287.04 923.03,285.84 913.00,281.11              876.55,263.91 882.00,216.31 882.00,183.00              882.00,183.00 882.00,154.00 882.00,154.00              882.00,154.00 859.00,154.00 859.00,154.00              859.00,154.00 859.00,112.00 859.00,112.00              859.00,112.00 882.00,112.00 882.00,112.00              882.00,112.00 882.00,61.00 882.00,61.00 Z            M 792.00,266.00            C 777.13,280.83 767.57,285.18 747.00,287.17              733.60,288.46 720.46,286.17 708.00,280.99              652.67,257.97 644.22,179.73 678.67,136.00              697.97,111.50 735.52,100.48 765.00,110.86              776.95,115.07 783.15,120.18 792.00,129.00              792.00,129.00 792.00,112.00 792.00,112.00              792.00,112.00 837.00,112.00 837.00,112.00              837.00,112.00 837.00,283.00 837.00,283.00              837.00,283.00 792.00,283.00 792.00,283.00              792.00,283.00 792.00,266.00 792.00,266.00 Z            M 1210.00,168.00            C 1204.80,165.56 1200.85,161.19 1196.00,158.09              1188.94,153.57 1179.42,150.70 1171.00,151.04              1146.93,152.01 1128.76,175.59 1130.09,199.00              1131.28,219.77 1143.61,238.85 1165.00,242.91              1167.93,243.46 1171.02,244.03 1174.00,243.82              1182.91,243.17 1192.80,239.31 1200.00,234.07              1202.61,232.18 1207.31,226.74 1210.61,228.74              1212.62,229.96 1218.56,241.24 1220.20,244.00              1220.20,244.00 1228.85,259.00 1228.85,259.00              1229.95,260.98 1231.68,263.60 1231.18,265.96              1230.38,269.77 1222.28,274.45 1219.00,276.40              1205.56,284.36 1190.31,286.73 1175.00,287.82              1171.40,288.07 1169.44,287.33 1166.00,287.09              1137.11,285.07 1111.80,273.36 1096.06,248.00              1070.43,206.69 1080.71,143.64 1125.00,119.31              1140.24,110.94 1157.62,106.81 1175.00,107.00              1189.23,107.16 1206.73,111.16 1219.00,118.45              1222.23,120.38 1230.52,125.11 1230.91,129.01              1231.18,131.75 1226.70,138.48 1225.20,141.00              1225.20,141.00 1210.00,168.00 1210.00,168.00 Z            M 1316.00,107.21            C 1316.00,107.21 1325.00,107.21 1325.00,107.21              1338.89,107.06 1355.48,110.76 1368.00,116.78              1421.78,142.64 1432.29,217.21 1392.83,259.99              1381.93,271.80 1365.48,280.41 1350.00,284.37              1344.10,285.88 1327.71,288.22 1322.00,287.82              1295.78,285.95 1273.87,279.62 1255.04,260.00              1220.09,223.57 1224.01,159.43 1263.00,127.46              1280.04,113.50 1295.06,110.41 1316.00,107.21 Z            M 1485.00,130.00            C 1492.08,116.81 1508.68,109.57 1523.00,107.95              1549.00,105.00 1576.04,112.47 1590.53,136.00              1602.35,155.18 1600.00,171.69 1600.00,193.00              1600.00,193.00 1600.00,283.00 1600.00,283.00              1600.00,283.00 1554.00,283.00 1554.00,283.00              1554.00,283.00 1554.00,193.00 1554.00,193.00              1553.94,181.22 1551.60,168.61 1542.96,160.04              1527.47,144.69 1500.72,150.78 1490.36,169.00              1484.00,180.18 1485.00,196.47 1485.00,209.00              1485.00,209.00 1485.00,283.00 1485.00,283.00              1485.00,283.00 1438.00,283.00 1438.00,283.00              1438.00,283.00 1438.00,112.00 1438.00,112.00              1438.00,112.00 1484.00,112.00 1484.00,112.00              1484.00,112.00 1485.00,130.00 1485.00,130.00 Z            M 1013.00,112.00            C 1013.00,112.00 1060.00,112.00 1060.00,112.00              1060.00,112.00 1060.00,283.00 1060.00,283.00              1060.00,283.00 1013.00,283.00 1013.00,283.00              1013.00,283.00 1013.00,112.00 1013.00,112.00 Z            M 744.00,151.29            C 733.80,152.98 725.36,156.24 718.18,164.04              694.62,189.64 705.71,242.30 748.00,243.96              799.26,245.97 809.47,169.45 765.00,153.70              757.82,151.15 751.54,150.57 744.00,151.29 Z            M 1318.00,151.29            C 1304.16,153.59 1293.21,159.69 1285.76,172.00              1269.29,199.19 1283.09,237.53 1316.00,243.08              1320.60,243.86 1323.27,244.30 1328.00,243.71              1338.29,242.45 1348.52,238.51 1355.83,230.91              1378.49,207.36 1370.35,164.65 1339.00,153.44              1332.03,150.94 1325.31,150.60 1318.00,151.29 Z" />
</svg>