<svg xmlns="http://www.w3.org/2000/svg" viewBox="-0.51 -0.51 348.17 312.98">
  <path id="flaticon" fill="#303030" stroke="none" stroke-width="1"
    d="M 189.00,108.00            C 189.00,108.00 161.15,157.00 161.15,157.00              158.90,160.93 150.71,173.19 150.89,177.00              151.00,179.50 153.71,183.78 155.01,186.00              155.01,186.00 164.85,203.00 164.85,203.00              164.85,203.00 196.01,257.00 196.01,257.00              198.56,261.34 209.60,279.48 210.26,283.00              211.02,287.05 207.67,291.77 205.48,295.00              198.26,305.68 185.03,312.65 172.00,311.91              148.77,310.58 141.95,296.99 131.72,279.00              131.72,279.00 118.42,256.00 118.42,256.00              118.42,256.00 34.20,110.00 34.20,110.00              34.20,110.00 14.58,76.00 14.58,76.00              5.34,59.89 -0.22,55.25 0.00,36.00              0.17,22.21 9.24,8.84 22.00,3.46              28.25,0.83 36.25,0.01 43.00,0.00              43.00,0.00 251.00,0.00 251.00,0.00              251.00,0.00 222.85,50.00 222.85,50.00              213.67,65.99 215.39,65.98 206.00,66.00              206.00,66.00 86.00,66.00 86.00,66.00              86.00,66.00 101.99,94.00 101.99,94.00              110.11,107.83 108.31,107.98 118.00,108.00              118.00,108.00 189.00,108.00 189.00,108.00 Z            M 236.00,242.00            C 231.26,237.82 228.01,230.54 224.85,225.00              224.85,225.00 206.99,194.00 206.99,194.00              204.56,189.86 197.98,180.59 198.49,176.00              198.88,172.56 203.13,166.17 204.99,163.00              204.99,163.00 218.20,140.00 218.20,140.00              218.20,140.00 263.20,62.00 263.20,62.00              263.20,62.00 289.72,16.00 289.72,16.00              291.67,12.57 296.96,2.01 300.21,0.60              301.82,-0.10 305.19,-0.03 307.00,0.01              312.50,0.14 320.01,1.48 325.00,3.79              329.48,5.87 333.45,8.39 336.82,12.04              346.37,22.38 349.63,37.62 345.25,51.00              343.18,57.33 337.84,66.04 334.42,72.00              334.42,72.00 321.15,95.00 321.15,95.00              321.15,95.00 287.01,154.00 287.01,154.00              287.01,154.00 255.85,208.00 255.85,208.00              255.85,208.00 236.00,242.00 236.00,242.00 Z" />
</svg>