<svg xmlns="http://www.w3.org/2000/svg" viewBox="-0.5 -0.42 1025 1024.92">
  <path id="Selection" fill="#303030" stroke="none" stroke-width="1" d="M 136.00,0.08            C 136.00,0.08 166.00,0.08 166.00,0.08              166.00,0.08 219.00,0.08 219.00,0.08              219.00,0.08 383.00,0.08 383.00,0.08              383.00,0.08 880.00,0.08 880.00,0.08              890.58,0.02 903.81,2.67 914.00,5.58              964.83,20.08 1004.17,60.38 1018.71,111.00              1021.50,120.71 1023.98,133.93 1024.00,144.00              1024.00,144.00 1024.00,880.00 1024.00,880.00              1023.99,888.76 1022.33,897.48 1020.42,906.00              1007.84,962.25 962.25,1007.84 906.00,1020.42              897.48,1022.33 888.76,1023.99 880.00,1024.00              880.00,1024.00 144.00,1024.00 144.00,1024.00              135.24,1023.99 126.52,1022.33 118.00,1020.42              64.52,1008.46 20.60,966.65 5.58,914.00              2.67,903.81 0.02,890.58 0.00,880.00              0.00,880.00 0.00,405.00 0.00,405.00              0.00,405.00 0.00,230.00 0.00,230.00              0.00,230.00 0.00,142.00 0.00,142.00              0.10,133.73 2.97,119.08 5.29,111.00              16.51,71.94 43.12,37.76 79.00,18.31              99.23,7.34 113.63,3.80 136.00,0.08 Z            M 303.00,354.28            C 282.55,357.23 271.70,358.41 252.00,366.45              214.75,381.66 185.00,412.48 168.86,449.00              143.36,506.69 156.58,576.64 200.04,622.00              217.29,640.01 240.43,654.04 264.00,662.00              276.24,666.13 296.12,669.85 309.00,670.00              333.95,670.29 359.50,665.93 382.00,654.75              399.54,646.05 416.64,634.61 429.83,620.00              442.97,605.45 454.63,587.39 461.58,569.00              485.70,505.09 467.07,432.84 414.00,389.42              398.47,376.72 381.09,367.44 362.00,361.34              344.85,355.87 320.94,352.62 303.00,354.28 Z            M 699.00,354.28            C 678.55,357.23 667.70,358.41 648.00,366.45              610.75,381.66 581.00,412.48 564.86,449.00              539.36,506.69 552.58,576.64 596.04,622.00              613.29,640.01 636.43,654.04 660.00,662.00              672.24,666.13 692.12,669.85 705.00,670.00              729.95,670.29 755.50,665.93 778.00,654.75              795.54,646.05 812.64,634.61 825.83,620.00              838.97,605.45 850.63,587.39 857.58,569.00              881.70,505.09 863.07,432.84 810.00,389.42              794.47,376.72 777.09,367.44 758.00,361.34              740.85,355.87 716.94,352.62 699.00,354.28 Z"/>
</svg>