<svg xmlns="http://www.w3.org/2000/svg" viewBox="-0.5 -0.54 513 161.08">
  <path id="Selection" fill="#303030" stroke="none" stroke-width="1" d="M 22.00,49.00            C 22.00,35.30 22.30,19.39 33.17,9.33              43.52,-0.25 58.85,-0.15 72.00,0.00              74.80,0.04 83.25,0.39 84.98,2.60              86.26,4.23 86.02,8.02 85.83,10.00              85.83,10.00 84.00,27.93 84.00,27.93              79.36,27.39 71.36,26.04 67.02,27.93              59.03,31.18 59.01,41.71 59.00,49.00              59.00,49.00 78.00,49.00 78.00,49.00              78.00,49.00 84.40,50.02 84.40,50.02              84.40,50.02 86.00,58.00 86.00,58.00              86.00,58.00 86.00,76.00 86.00,76.00              86.00,76.00 59.00,76.00 59.00,76.00              59.00,76.00 59.00,158.00 59.00,158.00              59.00,158.00 21.00,158.00 21.00,158.00              21.00,158.00 21.00,76.00 21.00,76.00              21.00,76.00 0.00,76.00 0.00,76.00              0.00,76.00 0.00,49.00 0.00,49.00              0.00,49.00 22.00,49.00 22.00,49.00 Z            M 99.00,2.00            C 99.00,2.00 137.00,2.00 137.00,2.00              137.00,2.00 137.00,158.00 137.00,158.00              137.00,158.00 99.00,158.00 99.00,158.00              99.00,158.00 99.00,2.00 99.00,2.00 Z            M 311.00,2.00            C 311.00,2.00 349.00,2.00 349.00,2.00              349.00,2.00 349.00,62.00 349.00,62.00              349.00,62.00 350.00,93.00 350.00,93.00              350.00,93.00 370.33,62.00 370.33,62.00              376.11,53.36 376.55,49.02 387.00,49.00              387.00,49.00 420.00,49.00 420.00,49.00              417.20,56.19 399.92,77.56 394.23,85.00              392.65,87.07 384.87,96.92 384.56,98.58              384.05,101.28 392.48,112.26 394.42,115.00              394.42,115.00 413.02,142.00 413.02,142.00              416.60,147.19 420.73,152.07 423.00,158.00              423.00,158.00 386.00,158.00 386.00,158.00              376.48,157.98 377.83,157.77 370.14,144.00              370.14,144.00 349.00,106.00 349.00,106.00              349.00,106.00 349.00,158.00 349.00,158.00              349.00,158.00 311.00,158.00 311.00,158.00              311.00,158.00 311.00,2.00 311.00,2.00 Z            M 154.00,5.00            C 154.00,5.00 192.00,5.00 192.00,5.00              192.00,5.00 192.00,33.00 192.00,33.00              192.00,33.00 154.00,33.00 154.00,33.00              154.00,33.00 154.00,5.00 154.00,5.00 Z            M 296.00,156.00            C 287.47,157.72 281.06,159.89 272.00,160.00              258.24,160.16 247.87,160.25 235.00,154.22              224.77,149.42 219.06,145.43 212.44,136.00              198.11,115.60 200.24,83.35 217.29,65.09              224.31,57.57 233.31,53.03 243.00,50.02              254.58,46.44 269.12,46.03 281.00,48.26              284.35,48.89 292.06,50.53 293.98,53.42              295.42,55.58 295.01,60.47 294.72,63.00              294.72,63.00 293.00,81.00 293.00,81.00              279.62,76.18 268.71,70.63 255.00,79.55              233.88,93.29 239.99,124.57 264.00,131.07              276.02,134.33 284.98,130.11 296.00,127.00              296.00,127.00 296.00,156.00 296.00,156.00 Z            M 469.00,67.00            C 478.30,46.18 492.61,46.43 512.00,48.00              512.00,48.00 511.00,80.00 511.00,80.00              504.70,79.17 504.65,78.93 498.00,79.00              494.71,79.04 492.17,79.19 489.00,80.22              484.84,81.57 482.09,83.79 479.18,87.02              470.12,97.08 471.00,109.48 471.00,122.00              471.00,122.00 471.00,142.00 471.00,142.00              471.00,142.00 471.00,158.00 471.00,158.00              471.00,158.00 433.00,158.00 433.00,158.00              433.00,158.00 433.00,49.00 433.00,49.00              433.00,49.00 468.00,49.00 468.00,49.00              468.00,49.00 469.00,67.00 469.00,67.00 Z            M 154.00,49.00            C 154.00,49.00 192.00,49.00 192.00,49.00              192.00,49.00 192.00,158.00 192.00,158.00              192.00,158.00 154.00,158.00 154.00,158.00              154.00,158.00 154.00,49.00 154.00,49.00 Z"/>
</svg>