<svg xmlns="http://www.w3.org/2000/svg" viewBox="0.7 -0.51 138.8 171.01">
  <path id="flutter" fill="#303030" stroke="none" stroke-width="1"
    d="M 139.00,0.00            C 134.32,6.54 116.75,23.25 110.00,30.00              110.00,30.00 55.00,85.00 55.00,85.00              55.00,85.00 35.00,105.00 35.00,105.00              32.89,107.09 29.32,111.49 26.00,110.66              23.46,110.03 17.13,103.13 15.00,101.00              12.22,98.22 1.20,88.41 1.20,85.00              1.20,82.04 6.91,77.09 9.00,75.00              9.00,75.00 32.00,52.00 32.00,52.00              32.00,52.00 70.00,14.00 70.00,14.00              73.26,10.74 81.15,2.02 85.00,0.60              86.94,-0.12 89.91,0.00 92.00,0.00              92.00,0.00 139.00,0.00 139.00,0.00 Z            M 39.00,124.00            C 39.00,124.00 72.00,91.00 72.00,91.00              79.72,83.28 81.78,78.02 93.00,78.00              93.00,78.00 139.00,78.00 139.00,78.00              134.24,84.65 114.08,103.92 107.00,111.00              104.61,113.39 96.04,120.90 96.04,124.00              96.04,127.10 104.61,134.61 107.00,137.00              114.08,144.08 134.24,163.35 139.00,170.00              139.00,170.00 92.00,170.00 92.00,170.00              81.03,169.98 79.55,165.55 72.00,158.00              64.80,150.80 43.79,130.70 39.00,124.00 Z" />
</svg>