<svg xmlns="http://www.w3.org/2000/svg" viewBox="0.7 -0.51 585.89 171.01">
  <path id="flutter-wordmark" fill="#303030" stroke="none" stroke-width="1"
    d="M 139.00,0.00            C 134.32,6.54 116.75,23.25 110.00,30.00              110.00,30.00 55.00,85.00 55.00,85.00              55.00,85.00 35.00,105.00 35.00,105.00              32.89,107.09 29.32,111.49 26.00,110.66              23.46,110.03 17.13,103.13 15.00,101.00              12.22,98.22 1.20,88.41 1.20,85.00              1.20,82.04 6.91,77.09 9.00,75.00              9.00,75.00 32.00,52.00 32.00,52.00              32.00,52.00 70.00,14.00 70.00,14.00              73.26,10.74 81.15,2.02 85.00,0.60              86.94,-0.12 89.91,0.00 92.00,0.00              92.00,0.00 139.00,0.00 139.00,0.00 Z            M 208.00,37.00            C 208.00,37.00 266.00,37.00 266.00,37.00              266.00,37.00 266.00,49.00 266.00,49.00              266.00,49.00 220.00,49.00 220.00,49.00              220.00,49.00 220.00,82.00 220.00,82.00              220.00,82.00 261.00,82.00 261.00,82.00              261.00,82.00 261.00,94.00 261.00,94.00              261.00,94.00 220.00,94.00 220.00,94.00              220.00,94.00 220.00,137.00 220.00,137.00              220.00,137.00 208.00,137.00 208.00,137.00              208.00,137.00 208.00,37.00 208.00,37.00 Z            M 277.00,37.00            C 277.00,37.00 290.00,37.00 290.00,37.00              290.00,37.00 290.00,137.00 290.00,137.00              290.00,137.00 277.00,137.00 277.00,137.00              277.00,137.00 277.00,37.00 277.00,37.00 Z            M 386.00,45.00            C 386.00,45.00 398.00,45.00 398.00,45.00              398.00,45.00 398.00,65.00 398.00,65.00              398.00,65.00 416.00,65.00 416.00,65.00              416.00,65.00 416.00,77.00 416.00,77.00              416.00,77.00 398.00,77.00 398.00,77.00              398.00,77.00 398.00,107.00 398.00,107.00              398.01,112.12 398.02,120.83 402.23,124.35              406.80,128.18 410.97,126.13 416.00,125.00              416.00,127.69 416.44,134.44 414.98,136.49              413.08,139.14 407.94,139.08 405.00,138.96              397.46,138.66 391.37,136.02 387.84,129.00              385.24,123.83 386.00,116.74 386.00,111.00              386.00,111.00 386.00,77.00 386.00,77.00              386.00,77.00 373.00,77.00 373.00,77.00              373.00,77.00 373.00,65.00 373.00,65.00              373.00,65.00 386.00,65.00 386.00,65.00              386.00,65.00 386.00,45.00 386.00,45.00 Z            M 434.00,45.00            C 434.00,45.00 447.00,45.00 447.00,45.00              447.00,45.00 447.00,65.00 447.00,65.00              447.00,65.00 464.00,65.00 464.00,65.00              464.00,65.00 464.00,77.00 464.00,77.00              464.00,77.00 447.00,77.00 447.00,77.00              447.00,77.00 447.00,112.00 447.00,112.00              447.07,117.22 447.84,123.13 453.04,125.82              456.82,127.78 461.10,125.69 465.00,125.00              465.00,128.06 465.67,135.00 463.40,137.15              461.35,139.08 456.68,139.07 454.00,138.96              446.75,138.67 439.89,135.78 436.45,129.00              434.69,125.52 434.05,118.94 434.00,115.00              434.00,115.00 434.00,77.00 434.00,77.00              434.00,77.00 422.00,77.00 422.00,77.00              422.00,77.00 422.00,65.00 422.00,65.00              422.00,65.00 434.00,65.00 434.00,65.00              434.00,65.00 434.00,45.00 434.00,45.00 Z            M 482.00,104.00            C 483.18,116.96 493.46,127.85 507.00,126.90              517.52,126.17 521.84,117.61 525.17,116.12              528.13,114.80 535.31,117.34 535.26,121.11              535.23,123.82 531.71,127.90 529.83,129.70              522.44,136.77 512.98,139.22 503.00,138.99              482.85,138.52 469.23,122.61 469.00,103.00              468.87,91.36 470.79,81.79 479.09,73.02              492.65,58.68 518.28,59.35 530.61,75.00              537.65,83.93 538.00,93.26 538.00,104.00              538.00,104.00 482.00,104.00 482.00,104.00 Z            M 558.00,74.00            C 561.62,66.42 568.87,63.18 577.00,63.02              579.30,62.97 583.43,62.78 585.01,64.74              586.52,66.61 586.00,75.29 586.00,78.00              582.05,77.11 578.12,75.62 574.00,76.21              566.04,77.36 560.18,84.64 558.16,92.00              556.07,99.59 557.00,127.37 557.00,137.00              557.00,137.00 545.00,137.00 545.00,137.00              545.00,137.00 545.00,65.00 545.00,65.00              545.00,65.00 557.00,65.00 557.00,65.00              557.00,65.00 558.00,74.00 558.00,74.00 Z            M 302.00,65.00            C 302.00,65.00 315.00,65.00 315.00,65.00              315.00,65.00 315.00,108.00 315.00,108.00              315.04,111.40 315.14,113.80 316.53,117.00              322.69,131.14 339.67,129.71 348.00,116.00              350.66,111.61 350.98,106.97 351.00,102.00              351.00,102.00 351.00,65.00 351.00,65.00              351.00,65.00 364.00,65.00 364.00,65.00              364.00,65.00 364.00,137.00 364.00,137.00              364.00,137.00 352.00,137.00 352.00,137.00              352.00,137.00 351.00,127.00 351.00,127.00              343.29,143.15 315.20,142.75 306.21,128.00              302.62,122.11 302.01,115.71 302.00,109.00              302.00,109.00 302.00,65.00 302.00,65.00 Z            M 524.00,93.00            C 521.79,68.66 486.92,68.12 483.00,93.00              483.00,93.00 524.00,93.00 524.00,93.00 Z            M 39.00,124.00            C 39.00,124.00 72.00,91.00 72.00,91.00              79.72,83.28 81.78,78.02 93.00,78.00              93.00,78.00 139.00,78.00 139.00,78.00              134.24,84.65 114.08,103.92 107.00,111.00              104.61,113.39 96.04,120.90 96.04,124.00              96.04,127.10 104.61,134.61 107.00,137.00              114.08,144.08 134.24,163.35 139.00,170.00              139.00,170.00 92.00,170.00 92.00,170.00              81.03,169.98 79.55,165.55 72.00,158.00              64.80,150.80 43.79,130.70 39.00,124.00 Z" />
</svg>