<svg xmlns="http://www.w3.org/2000/svg" viewBox="-0.5 70.49 1001.02 1002.01">
  <path id="font-awesome" fill="#303030" stroke="none" stroke-width="1"
    d="M 857.00,302.00            C 857.00,302.00 833.00,308.58 833.00,308.58              833.00,308.58 804.00,315.55 804.00,315.55              776.53,321.05 748.92,322.13 721.00,322.00              721.00,322.00 709.00,321.04 709.00,321.04              674.81,319.55 641.54,312.06 609.00,301.66              609.00,301.66 508.00,266.42 508.00,266.42              482.59,258.99 456.41,253.76 430.00,251.91              430.00,251.91 418.00,251.00 418.00,251.00              418.00,251.00 382.00,251.00 382.00,251.00              382.00,251.00 359.00,252.84 359.00,252.84              295.57,259.62 256.95,280.02 199.00,299.33              199.00,299.33 163.00,310.13 163.00,310.13              159.87,310.91 147.09,313.58 145.31,314.93              142.55,317.04 143.01,320.91 143.00,324.00              143.00,324.00 143.00,900.00 143.00,900.00              143.00,900.00 143.00,969.00 143.00,969.00              143.00,969.00 143.00,1005.00 143.00,1005.00              142.66,1034.09 121.08,1059.81 94.00,1068.64              85.95,1071.27 77.42,1072.09 69.00,1072.00              32.58,1071.57 0.06,1040.88 0.00,1004.00              0.00,1004.00 0.00,286.00 0.00,286.00              0.00,286.00 0.00,139.00 0.00,139.00              0.02,128.28 2.47,119.55 7.25,110.00              20.34,83.82 45.34,70.67 74.00,71.00              109.47,71.42 142.83,101.78 143.00,138.00              143.00,138.00 143.00,171.00 143.00,171.00              143.00,171.00 172.00,163.57 172.00,163.57              172.00,163.57 218.00,148.31 218.00,148.31              269.95,129.82 303.46,114.49 360.00,108.83              360.00,108.83 381.00,107.00 381.00,107.00              417.47,106.58 447.09,107.42 483.00,115.65              536.53,127.92 586.01,152.21 639.00,166.12              661.63,172.06 684.71,175.49 708.00,177.09              708.00,177.09 720.00,178.00 720.00,178.00              720.00,178.00 749.00,178.00 749.00,178.00              749.00,178.00 759.00,177.09 759.00,177.09              805.41,173.90 841.48,163.18 885.00,147.69              885.00,147.69 925.00,133.58 925.00,133.58              925.00,133.58 969.00,117.58 969.00,117.58              969.00,117.58 1000.00,107.00 1000.00,107.00              1000.00,107.00 1000.00,850.00 1000.00,850.00              1000.00,852.06 1000.26,855.62 999.01,857.30              997.46,859.39 990.61,861.43 988.00,862.34              988.00,862.34 962.00,871.69 962.00,871.69              920.14,886.64 878.76,902.72 836.00,915.00              765.02,935.38 691.63,933.23 621.00,912.58              621.00,912.58 516.00,876.02 516.00,876.02              490.83,868.20 465.21,862.64 439.00,859.84              439.00,859.84 416.00,858.00 416.00,858.00              388.14,857.96 369.98,857.74 342.00,862.43              342.00,862.43 304.00,870.88 304.00,870.88              304.00,870.88 285.00,876.00 285.00,876.00              285.00,876.00 285.00,732.00 285.00,732.00              285.00,732.00 299.00,727.88 299.00,727.88              315.42,723.55 332.15,719.55 349.00,717.28              397.43,710.75 444.47,713.60 492.00,724.88              492.00,724.88 537.00,738.66 537.00,738.66              587.94,756.34 625.36,773.32 680.00,781.42              680.00,781.42 717.00,785.00 717.00,785.00              748.62,785.05 767.27,785.34 799.00,779.39              799.00,779.39 828.00,772.85 828.00,772.85              828.00,772.85 857.00,765.00 857.00,765.00              857.00,765.00 857.00,302.00 857.00,302.00 Z" />
</svg>