<svg xmlns="http://www.w3.org/2000/svg" viewBox="-0.5 -0.41 1025 1024.91">
  <path id="fortran" fill="#303030" stroke="none" stroke-width="1"
    d="M 142.00,0.09            C 142.00,0.09 171.00,0.09 171.00,0.09              171.00,0.09 224.00,0.09 224.00,0.09              224.00,0.09 386.00,0.09 386.00,0.09              386.00,0.09 879.00,0.09 879.00,0.09              896.58,0.03 913.36,7.78 928.00,16.95              957.23,35.26 985.76,65.80 1004.05,95.00              1013.66,110.35 1023.97,129.49 1024.00,148.00              1024.00,148.00 1024.00,881.00 1024.00,881.00              1023.97,898.38 1016.01,917.29 1007.20,932.00              989.01,962.38 956.66,993.15 925.00,1009.24              910.06,1016.84 894.07,1023.97 877.00,1024.00              877.00,1024.00 147.00,1024.00 147.00,1024.00              130.53,1023.97 114.83,1016.15 101.00,1007.80              70.36,989.29 38.77,955.15 19.59,925.00              10.25,910.32 0.03,891.79 0.00,874.00              0.00,874.00 0.00,147.00 0.00,147.00              0.03,127.27 10.30,108.96 21.00,93.00              37.08,69.03 63.52,44.36 87.00,27.58              103.24,15.98 122.37,4.82 142.00,0.09 Z            M 888.00,109.00            C 888.00,109.00 315.00,109.00 315.00,109.00              315.00,109.00 181.00,109.00 181.00,109.00              181.00,109.00 153.00,109.00 153.00,109.00              150.46,109.00 143.45,108.56 141.60,110.02              139.62,111.59 140.00,115.70 140.00,118.00              140.00,118.00 140.00,190.00 140.00,190.00              140.14,197.49 142.26,196.99 149.00,197.00              149.00,197.00 202.00,197.00 202.00,197.00              202.00,197.00 212.00,197.91 212.00,197.91              227.38,199.04 250.67,201.91 257.79,218.00              261.04,225.34 259.91,237.77 260.00,246.00              260.00,246.00 261.00,260.00 261.00,260.00              261.00,260.00 261.00,294.00 261.00,294.00              261.00,294.00 262.00,311.00 262.00,311.00              262.00,311.00 262.00,367.00 262.00,367.00              262.00,367.00 263.00,384.00 263.00,384.00              263.00,384.00 263.00,473.00 263.00,473.00              263.00,473.00 264.00,488.00 264.00,488.00              264.00,488.00 264.00,644.00 264.00,644.00              264.00,644.00 264.00,731.00 264.00,731.00              264.00,731.00 263.00,746.00 263.00,746.00              262.98,759.31 261.98,772.81 260.13,786.00              259.00,794.03 256.96,802.88 250.82,808.67              242.13,816.85 228.23,817.90 217.00,819.28              217.00,819.28 152.00,824.00 152.00,824.00              145.93,824.01 146.04,823.92 140.00,825.00              140.00,825.00 140.00,892.00 140.00,892.00              140.00,895.68 139.05,909.96 141.60,911.98              143.19,913.23 147.01,913.00 149.00,913.00              149.00,913.00 432.00,913.00 432.00,913.00              432.00,913.00 539.00,913.00 539.00,913.00              539.00,913.00 563.00,913.00 563.00,913.00              564.82,912.99 567.92,913.15 569.40,911.98              571.38,910.41 571.00,906.30 571.00,904.00              571.00,904.00 571.00,825.00 571.00,825.00              562.51,823.88 561.28,824.09 553.00,824.00              553.00,824.00 539.00,823.00 539.00,823.00              539.00,823.00 490.00,819.16 490.00,819.16              479.69,818.06 461.43,816.25 453.00,810.35              440.13,801.36 437.18,786.77 437.00,772.00              437.00,772.00 436.00,754.00 436.00,754.00              436.00,754.00 436.00,731.00 436.00,731.00              436.00,731.00 435.00,714.00 435.00,714.00              435.00,714.00 435.00,651.00 435.00,651.00              435.00,651.00 434.00,634.00 434.00,634.00              434.00,634.00 434.00,569.00 434.00,569.00              434.00,569.00 433.00,554.00 433.00,554.00              433.00,554.00 433.00,534.00 433.00,534.00              433.00,534.00 453.00,536.17 453.00,536.17              477.36,538.60 514.70,541.69 536.00,553.31              558.08,565.36 564.19,584.28 569.87,607.00              574.44,625.26 581.97,662.90 582.00,681.00              582.00,681.00 582.00,700.00 582.00,700.00              582.00,700.00 671.00,700.00 671.00,700.00              671.00,700.00 671.00,302.00 671.00,302.00              671.00,302.00 585.00,302.00 585.00,302.00              581.33,329.78 577.63,364.08 567.95,390.00              562.53,404.51 553.85,420.06 541.00,429.21              533.84,434.31 517.85,438.16 509.00,440.00              479.25,446.16 463.69,446.00 434.00,446.00              434.00,446.00 434.00,197.00 434.00,197.00              434.00,197.00 614.00,197.00 614.00,197.00              614.00,197.00 629.00,198.00 629.00,198.00              629.00,198.00 639.00,198.00 639.00,198.00              639.00,198.00 649.00,198.91 649.00,198.91              649.00,198.91 663.00,199.83 663.00,199.83              693.36,202.87 715.31,205.33 738.99,227.17              756.95,243.73 767.75,268.24 775.33,291.00              788.83,331.49 792.09,373.87 796.17,416.00              796.17,416.00 799.00,442.00 799.00,442.00              799.00,442.00 834.00,442.00 834.00,442.00              834.00,442.00 851.00,443.00 851.00,443.00              851.00,443.00 888.00,443.00 888.00,443.00              888.00,443.00 888.00,109.00 888.00,109.00 Z" />
</svg>