<svg xmlns="http://www.w3.org/2000/svg" viewBox="6.5 6.61 699 470.77">
  <path id="freecodecamp" fill="#303030" stroke="none" stroke-width="1"
    d="M 122.00,7.31            C 124.20,7.17 125.73,6.93 128.00,7.31              136.31,7.70 143.06,14.45 140.03,23.00              137.12,31.21 126.15,41.85 120.00,48.00              91.76,76.24 70.76,106.30 57.05,144.00              45.67,175.32 41.95,208.90 42.00,242.00              42.00,242.00 43.04,254.00 43.04,254.00              43.04,254.00 43.04,263.00 43.04,263.00              46.36,296.51 54.22,330.73 69.25,361.00              78.58,379.79 89.58,398.03 103.28,414.00              103.28,414.00 115.00,427.00 115.00,427.00              120.64,432.70 129.53,440.96 134.10,447.00              139.44,454.05 143.85,461.46 138.52,469.96              136.64,472.96 134.32,474.82 131.00,476.03              118.44,480.62 101.18,465.27 93.09,456.96              66.87,430.04 44.91,396.48 30.15,362.00              15.85,328.59 9.54,290.10 7.96,254.00              7.96,254.00 7.00,241.00 7.00,241.00              6.97,220.45 7.68,196.15 11.46,176.00              18.68,137.46 31.97,107.53 53.67,75.00              64.15,59.29 78.66,41.32 92.00,28.00              100.34,19.67 110.50,10.93 122.00,7.31 Z            M 581.00,7.56            C 594.19,5.26 607.08,15.31 616.00,24.01              636.36,43.87 653.98,66.62 668.60,91.00              690.40,127.35 701.20,164.94 704.09,207.00              704.09,207.00 705.00,219.00 705.00,219.00              705.00,219.00 705.00,241.00 705.00,241.00              705.00,241.00 704.00,261.00 704.00,261.00              704.00,261.00 701.28,287.00 701.28,287.00              695.96,327.78 684.13,364.67 662.80,400.00              651.94,417.99 627.61,449.91 612.00,463.27              605.29,469.01 594.42,477.75 585.00,476.80              582.10,476.51 579.35,475.44 577.09,473.58              561.09,460.44 581.62,442.38 591.00,433.00              612.03,411.97 630.28,387.91 643.22,361.00              655.27,335.92 664.36,301.66 667.72,274.00              667.72,274.00 669.09,254.00 669.09,254.00              669.09,254.00 670.00,242.00 670.00,242.00              670.00,242.00 670.00,226.00 670.00,226.00              670.00,226.00 669.09,214.00 669.09,214.00              666.23,173.17 654.48,131.54 632.00,97.00              623.73,84.30 615.02,72.27 604.83,61.00              604.83,61.00 578.30,33.00 578.30,33.00              570.55,23.78 566.41,12.67 581.00,7.56 Z            M 333.00,34.00            C 343.47,40.65 362.88,59.42 371.28,69.00              396.86,98.16 419.94,135.88 420.00,176.00              420.04,199.36 419.43,207.91 414.12,231.00              413.00,235.84 409.63,246.56 415.23,249.56              420.40,252.33 427.23,248.33 431.00,244.90              441.99,234.87 445.08,220.72 453.00,214.00              473.91,241.01 489.86,275.40 490.96,310.00              490.96,310.00 489.96,320.00 489.96,320.00              489.96,320.00 489.96,328.00 489.96,328.00              488.81,338.55 483.76,355.20 479.57,365.00              473.83,378.44 465.09,391.60 456.00,403.00              448.14,412.85 441.54,419.77 432.00,428.00              427.32,432.04 422.73,436.55 417.00,439.00              417.00,439.00 427.80,424.00 427.80,424.00              437.20,410.43 443.85,396.37 446.41,380.00              447.69,371.81 445.70,356.89 438.67,351.80              435.02,348.85 422.99,351.94 418.00,351.80              408.31,352.11 398.86,351.44 390.00,347.01              375.77,339.89 371.61,327.73 369.85,313.00              369.43,309.53 368.88,307.67 369.09,304.00              369.09,304.00 374.00,257.00 374.00,257.00              374.04,234.32 372.50,216.21 361.00,196.00              359.22,202.23 351.86,216.00 348.42,222.00              348.42,222.00 322.33,264.00 322.33,264.00              297.57,301.14 272.82,342.11 271.04,388.00              270.88,392.17 271.32,394.02 271.87,398.00              274.49,416.80 277.33,418.06 285.00,434.00              275.87,429.88 261.47,414.87 254.92,407.00              226.68,373.04 214.56,334.50 224.88,291.00              232.00,261.01 247.72,238.89 264.66,214.00              264.66,214.00 284.58,183.00 284.58,183.00              307.91,145.32 329.59,97.47 333.83,53.00              333.83,53.00 333.00,34.00 333.00,34.00 Z" />
</svg>