<svg xmlns="http://www.w3.org/2000/svg" viewBox="17.44 17.71 520.1 519.79">
  <path id="gatsby" fill="#303030" stroke="none" stroke-width="1" d="M 261.00,18.21            C 261.00,18.21 286.00,18.21 286.00,18.21              286.00,18.21 298.00,18.91 298.00,18.91              318.47,20.34 338.50,24.17 358.00,30.67              446.45,60.12 513.42,133.12 531.80,225.00              534.08,236.37 536.86,254.59 537.00,266.00              537.33,294.56 535.47,320.33 527.57,348.00              507.62,417.92 461.81,473.18 398.00,507.69              367.94,523.95 332.00,533.71 298.00,536.09              298.00,536.09 286.00,537.00 286.00,537.00              286.00,537.00 267.00,537.00 267.00,537.00              267.00,537.00 257.00,536.09 257.00,536.09              235.71,534.60 215.26,530.42 195.00,523.67              168.62,514.87 144.26,502.24 122.00,485.53              99.24,468.43 79.17,447.44 63.02,424.00              10.05,347.10 3.71,246.73 44.26,163.00              72.67,104.34 125.85,56.47 187.00,34.05              204.79,27.53 223.21,22.81 242.00,20.28              242.00,20.28 261.00,18.21 261.00,18.21 Z            M 440.00,315.00            C 440.00,315.00 434.95,332.00 434.95,332.00              422.34,366.40 400.34,395.25 370.00,415.97              362.62,421.01 352.21,426.51 344.00,430.14              341.10,431.42 336.09,433.96 333.00,432.79              330.25,431.76 324.34,425.34 322.00,423.00              322.00,423.00 298.00,399.00 298.00,399.00              298.00,399.00 215.00,316.00 215.00,316.00              215.00,316.00 145.00,246.00 145.00,246.00              145.00,246.00 128.00,229.00 128.00,229.00              125.67,226.65 121.90,223.58 121.92,220.00              121.94,217.55 125.83,209.71 127.00,207.00              132.78,193.65 143.26,178.89 152.85,168.00              200.13,114.27 276.06,96.21 342.00,124.43              357.75,131.17 376.49,142.45 389.00,154.09              389.00,154.09 404.83,170.00 404.83,170.00              406.64,172.01 411.24,178.21 413.17,179.18              416.28,180.73 418.82,177.92 421.00,176.04              421.00,176.04 436.00,163.05 436.00,163.05              437.96,161.27 441.32,158.98 440.75,155.96              440.11,152.55 429.36,141.21 426.58,138.00              411.45,120.58 386.73,103.95 366.00,93.76              344.62,83.24 310.87,74.04 287.00,74.00              287.00,74.00 267.00,74.00 267.00,74.00              258.45,74.10 242.56,76.69 234.00,78.58              187.83,88.76 147.08,114.93 117.80,152.00              104.54,168.79 92.91,189.72 86.00,210.00              84.52,214.35 79.70,228.04 80.40,232.00              81.05,235.69 85.41,239.41 88.00,242.00              88.00,242.00 107.00,261.00 107.00,261.00              107.00,261.00 179.00,333.00 179.00,333.00              179.00,333.00 281.00,435.00 281.00,435.00              281.00,435.00 309.00,463.00 309.00,463.00              311.85,465.85 318.51,473.23 322.00,474.36              325.62,475.53 335.22,472.25 339.00,471.00              355.59,465.52 365.80,460.97 381.00,452.28              395.83,443.80 408.95,433.05 421.00,421.00              451.60,390.40 471.24,353.76 478.41,311.00              479.72,303.23 480.99,294.87 481.00,287.00              481.00,287.00 481.00,277.00 481.00,277.00              481.00,277.00 381.00,277.00 381.00,277.00              381.00,277.00 359.00,277.00 359.00,277.00              359.00,277.00 352.60,278.02 352.60,278.02              352.60,278.02 351.00,286.00 351.00,286.00              351.00,286.00 351.00,308.00 351.00,308.00              351.00,308.00 352.60,313.98 352.60,313.98              352.60,313.98 360.00,315.00 360.00,315.00              360.00,315.00 440.00,315.00 440.00,315.00 Z            M 74.96,282.00            C 72.84,287.43 74.40,295.27 74.96,301.00              76.62,319.25 81.35,337.03 88.20,354.00              118.28,428.56 193.48,480.00 274.00,480.00              274.00,480.00 248.00,453.00 248.00,453.00              248.00,453.00 208.00,413.04 208.00,413.04              208.00,413.04 199.00,404.96 199.00,404.96              199.00,404.96 133.00,339.00 133.00,339.00              133.00,339.00 100.00,306.04 100.00,306.04              100.00,306.04 74.96,282.00 74.96,282.00 Z"/>
</svg>