<svg xmlns="http://www.w3.org/2000/svg" viewBox="17.44 17.71 1965.06 519.79">
  <path id="gatsby-wordmark" fill="#303030" stroke="none" stroke-width="1" d="M 261.00,18.21            C 261.00,18.21 286.00,18.21 286.00,18.21              286.00,18.21 298.00,18.91 298.00,18.91              318.47,20.34 338.50,24.17 358.00,30.67              446.45,60.12 513.42,133.12 531.80,225.00              534.08,236.37 536.86,254.59 537.00,266.00              537.33,294.56 535.47,320.33 527.57,348.00              507.62,417.92 461.81,473.18 398.00,507.69              367.94,523.95 332.00,533.71 298.00,536.09              298.00,536.09 286.00,537.00 286.00,537.00              286.00,537.00 267.00,537.00 267.00,537.00              267.00,537.00 257.00,536.09 257.00,536.09              235.71,534.60 215.26,530.42 195.00,523.67              168.62,514.87 144.26,502.24 122.00,485.53              99.24,468.43 79.17,447.44 63.02,424.00              10.05,347.10 3.71,246.73 44.26,163.00              72.67,104.34 125.85,56.47 187.00,34.05              204.79,27.53 223.21,22.81 242.00,20.28              242.00,20.28 261.00,18.21 261.00,18.21 Z            M 440.00,315.00            C 440.00,315.00 434.95,332.00 434.95,332.00              422.34,366.40 400.34,395.25 370.00,415.97              362.62,421.01 352.21,426.51 344.00,430.14              341.10,431.42 336.09,433.96 333.00,432.79              330.25,431.76 324.34,425.34 322.00,423.00              322.00,423.00 298.00,399.00 298.00,399.00              298.00,399.00 215.00,316.00 215.00,316.00              215.00,316.00 145.00,246.00 145.00,246.00              145.00,246.00 128.00,229.00 128.00,229.00              125.67,226.65 121.90,223.58 121.92,220.00              121.94,217.55 125.83,209.71 127.00,207.00              132.78,193.65 143.26,178.89 152.85,168.00              200.13,114.27 276.06,96.21 342.00,124.43              357.75,131.17 376.49,142.45 389.00,154.09              389.00,154.09 404.83,170.00 404.83,170.00              406.64,172.01 411.24,178.21 413.17,179.18              416.28,180.73 418.82,177.92 421.00,176.04              421.00,176.04 436.00,163.05 436.00,163.05              437.96,161.27 441.32,158.98 440.75,155.96              440.11,152.55 429.36,141.21 426.58,138.00              411.45,120.58 386.73,103.95 366.00,93.76              344.62,83.24 310.87,74.04 287.00,74.00              287.00,74.00 267.00,74.00 267.00,74.00              258.45,74.10 242.56,76.69 234.00,78.58              187.83,88.76 147.08,114.93 117.80,152.00              104.54,168.79 92.91,189.72 86.00,210.00              84.52,214.35 79.70,228.04 80.40,232.00              81.05,235.69 85.41,239.41 88.00,242.00              88.00,242.00 107.00,261.00 107.00,261.00              107.00,261.00 179.00,333.00 179.00,333.00              179.00,333.00 281.00,435.00 281.00,435.00              281.00,435.00 309.00,463.00 309.00,463.00              311.85,465.85 318.51,473.23 322.00,474.36              325.62,475.53 335.22,472.25 339.00,471.00              355.59,465.52 365.80,460.97 381.00,452.28              395.83,443.80 408.95,433.05 421.00,421.00              451.60,390.40 471.24,353.76 478.41,311.00              479.72,303.23 480.99,294.87 481.00,287.00              481.00,287.00 481.00,277.00 481.00,277.00              481.00,277.00 381.00,277.00 381.00,277.00              381.00,277.00 359.00,277.00 359.00,277.00              359.00,277.00 352.60,278.02 352.60,278.02              352.60,278.02 351.00,286.00 351.00,286.00              351.00,286.00 351.00,308.00 351.00,308.00              351.00,308.00 352.60,313.98 352.60,313.98              352.60,313.98 360.00,315.00 360.00,315.00              360.00,315.00 440.00,315.00 440.00,315.00 Z            M 1554.00,114.00            C 1554.00,114.00 1606.00,114.00 1606.00,114.00              1606.00,114.00 1606.00,215.00 1606.00,215.00              1606.00,215.00 1606.00,245.00 1606.00,245.00              1606.00,245.00 1607.00,263.00 1607.00,263.00              1611.84,252.77 1625.65,243.78 1636.00,239.60              1644.99,235.97 1654.40,234.86 1664.00,234.18              1667.55,233.93 1669.58,234.66 1673.00,234.91              1696.59,236.64 1718.31,246.42 1733.54,265.00              1747.36,281.86 1755.97,305.14 1756.00,327.00              1756.00,327.00 1756.00,341.00 1756.00,341.00              1755.73,363.89 1745.27,388.31 1729.83,404.99              1706.44,430.25 1661.22,439.29 1630.00,424.68              1620.28,420.13 1611.44,412.51 1605.00,404.00              1605.00,404.00 1605.00,426.00 1605.00,426.00              1605.00,426.00 1554.00,426.00 1554.00,426.00              1554.00,426.00 1554.00,114.00 1554.00,114.00 Z            M 1018.00,271.00            C 1019.79,284.56 1017.33,305.41 1014.60,319.00              1011.15,336.13 1003.76,354.32 994.30,369.00              971.16,404.92 935.87,426.83 894.00,433.56              882.74,435.37 871.37,435.13 860.00,435.00              842.30,434.79 816.81,427.64 801.00,419.73              773.73,406.09 752.05,383.87 737.89,357.00              725.18,332.91 720.69,305.96 721.00,279.00              721.43,242.70 739.20,202.35 765.01,177.04              780.60,161.76 801.35,149.16 822.00,142.08              843.65,134.65 858.69,134.74 881.00,135.00              911.66,135.36 944.93,150.98 968.00,170.44              973.80,175.33 979.24,181.17 984.08,187.00              985.60,188.84 988.93,192.52 989.13,194.91              989.40,198.30 983.47,201.35 981.00,203.00              981.00,203.00 957.00,218.67 957.00,218.67              954.58,220.27 950.07,223.82 947.09,223.18              944.67,222.66 935.73,212.66 933.00,210.29              924.80,203.15 914.09,196.54 904.00,192.45              870.84,179.02 833.08,186.12 808.04,212.00              796.25,224.19 788.01,239.75 783.43,256.00              770.78,300.82 789.60,353.11 833.00,373.68              849.29,381.40 860.53,382.03 878.00,382.00              894.54,381.97 912.58,376.21 926.00,366.57              943.30,354.15 947.58,342.10 956.00,324.00              956.00,324.00 888.00,324.00 888.00,324.00              888.00,324.00 888.00,271.00 888.00,271.00              888.00,271.00 1018.00,271.00 1018.00,271.00 Z            M 1283.00,177.00            C 1283.00,177.00 1336.00,177.00 1336.00,177.00              1336.00,177.00 1336.00,240.00 1336.00,240.00              1336.00,240.00 1371.00,240.00 1371.00,240.00              1371.00,240.00 1371.00,285.00 1371.00,285.00              1371.00,285.00 1336.00,285.00 1336.00,285.00              1336.00,285.00 1336.00,426.00 1336.00,426.00              1336.00,426.00 1283.00,426.00 1283.00,426.00              1283.00,426.00 1283.00,285.00 1283.00,285.00              1283.00,285.00 1263.00,285.00 1263.00,285.00              1263.00,285.00 1263.00,240.00 1263.00,240.00              1263.00,240.00 1283.00,240.00 1283.00,240.00              1283.00,240.00 1283.00,177.00 1283.00,177.00 Z            M 1182.00,404.00            C 1176.51,410.32 1171.97,415.88 1165.00,420.79              1152.53,429.57 1133.97,433.06 1119.00,431.28              1119.00,431.28 1110.00,430.71 1110.00,430.71              1094.64,428.71 1078.23,421.98 1066.00,412.49              1021.12,377.66 1017.93,300.30 1057.09,260.04              1072.42,244.27 1092.44,236.42 1114.00,234.91              1114.00,234.91 1122.00,234.08 1122.00,234.08              1122.00,234.08 1130.00,234.91 1130.00,234.91              1140.75,235.70 1150.46,237.43 1160.00,242.88              1168.88,247.95 1174.16,253.79 1180.00,262.00              1180.00,262.00 1180.00,240.00 1180.00,240.00              1180.00,240.00 1235.00,240.00 1235.00,240.00              1235.00,240.00 1235.00,426.00 1235.00,426.00              1235.00,426.00 1182.00,426.00 1182.00,426.00              1182.00,426.00 1182.00,404.00 1182.00,404.00 Z            M 1455.00,234.63            C 1461.44,233.64 1461.11,234.26 1467.00,234.63              1482.77,236.36 1490.61,237.82 1505.00,245.26              1508.51,247.07 1519.46,252.27 1517.85,257.04              1517.00,259.54 1508.02,269.35 1505.72,272.00              1503.45,274.60 1496.77,282.85 1494.00,283.83              1490.57,285.05 1486.81,281.19 1484.00,279.47              1477.98,275.77 1470.15,272.61 1463.00,272.71              1454.44,272.83 1442.91,277.58 1444.23,288.00              1445.20,295.71 1453.49,299.99 1460.00,302.54              1460.00,302.54 1473.00,306.43 1473.00,306.43              1483.32,309.59 1501.55,316.27 1510.00,322.49              1533.84,340.03 1533.88,379.62 1517.24,402.00              1505.64,417.61 1484.31,428.87 1465.00,430.83              1440.72,433.30 1417.41,429.56 1397.00,415.28              1392.94,412.44 1379.34,403.47 1381.16,398.00              1381.76,396.21 1385.87,391.63 1387.28,390.00              1387.28,390.00 1400.58,375.00 1400.58,375.00              1402.33,372.99 1405.10,369.25 1408.00,369.18              1410.99,369.11 1418.31,376.07 1421.00,378.10              1428.92,384.09 1437.89,389.05 1448.00,389.82              1463.75,391.01 1481.40,375.20 1470.58,361.00              1464.30,352.76 1455.15,351.63 1446.00,348.31              1434.53,344.14 1417.82,336.18 1409.00,327.91              1402.19,321.52 1397.09,314.01 1394.44,305.00              1388.88,286.14 1396.45,258.82 1412.01,246.53              1419.80,240.38 1434.14,236.12 1444.00,235.17              1444.00,235.17 1455.00,234.63 1455.00,234.63 Z            M 1752.00,240.00            C 1752.00,240.00 1806.00,240.00 1806.00,240.00              1806.00,240.00 1813.47,240.99 1813.47,240.99              1813.47,240.99 1818.78,249.00 1818.78,249.00              1818.78,249.00 1827.00,264.00 1827.00,264.00              1827.00,264.00 1850.31,307.00 1850.31,307.00              1850.31,307.00 1870.00,344.00 1870.00,344.00              1870.00,344.00 1882.25,320.00 1882.25,320.00              1882.25,320.00 1909.25,265.00 1909.25,265.00              1909.25,265.00 1917.75,248.00 1917.75,248.00              1917.75,248.00 1922.39,241.02 1922.39,241.02              1922.39,241.02 1930.00,240.00 1930.00,240.00              1930.00,240.00 1982.00,240.00 1982.00,240.00              1979.96,247.17 1975.58,253.39 1972.25,260.00              1972.25,260.00 1950.25,302.00 1950.25,302.00              1950.25,302.00 1928.26,344.00 1928.26,344.00              1928.26,344.00 1887.22,423.00 1887.22,423.00              1887.22,423.00 1868.25,459.00 1868.25,459.00              1868.25,459.00 1842.75,508.00 1842.75,508.00              1841.00,511.48 1836.07,521.98 1832.79,523.40              1831.13,524.12 1827.86,524.00 1826.00,524.00              1826.00,524.00 1774.00,524.00 1774.00,524.00              1775.87,517.43 1788.15,495.20 1792.14,488.00              1792.14,488.00 1807.31,459.00 1807.31,459.00              1807.31,459.00 1822.25,431.00 1822.25,431.00              1822.25,431.00 1833.78,409.00 1833.78,409.00              1835.31,406.11 1838.73,401.13 1838.73,398.00              1838.73,394.82 1834.30,388.01 1832.58,385.00              1832.58,385.00 1816.28,356.00 1816.28,356.00              1816.28,356.00 1771.70,277.00 1771.70,277.00              1767.19,268.80 1753.78,247.50 1752.00,240.00 Z            M 74.96,282.00            C 72.84,287.43 74.40,295.27 74.96,301.00              76.62,319.25 81.35,337.03 88.20,354.00              118.28,428.56 193.48,480.00 274.00,480.00              274.00,480.00 248.00,453.00 248.00,453.00              248.00,453.00 208.00,413.04 208.00,413.04              208.00,413.04 199.00,404.96 199.00,404.96              199.00,404.96 133.00,339.00 133.00,339.00              133.00,339.00 100.00,306.04 100.00,306.04              100.00,306.04 74.96,282.00 74.96,282.00 Z            M 1130.00,282.29            C 1110.89,285.46 1096.18,296.43 1089.55,315.00              1086.65,323.10 1086.91,328.64 1087.00,337.00              1087.30,362.53 1108.45,383.70 1134.00,384.00              1144.94,384.12 1151.93,383.84 1162.00,378.73              1192.21,363.40 1197.84,320.28 1175.91,297.01              1163.64,284.00 1147.17,280.66 1130.00,282.29 Z            M 1644.00,282.29            C 1630.94,284.45 1619.88,289.22 1611.53,300.00              1603.52,310.34 1600.85,322.19 1601.00,335.00              1601.32,362.21 1621.47,383.67 1649.00,384.00              1664.30,384.18 1678.87,380.65 1689.70,368.91              1713.05,343.62 1705.88,298.73 1673.00,285.45              1663.83,281.75 1653.75,281.36 1644.00,282.29 Z"/>
</svg>