<svg xmlns="http://www.w3.org/2000/svg" viewBox="74.5 74.44 407 406.06">
  <path id="gatsby-alt" fill="#303030" stroke="none" stroke-width="1"
    d="M 481.00,278.00            C 479.56,295.75 478.88,310.49 474.27,328.00              460.58,379.88 426.76,425.54 380.00,452.28              366.58,459.96 351.90,466.90 337.00,471.14              333.72,472.07 324.99,475.01 322.00,474.23              318.51,473.32 311.79,465.79 309.00,463.00              309.00,463.00 282.00,436.00 282.00,436.00              282.00,436.00 182.00,336.00 182.00,336.00              182.00,336.00 109.00,263.00 109.00,263.00              109.00,263.00 89.00,243.00 89.00,243.00              86.61,240.60 81.60,236.19 80.77,233.00              79.96,229.91 83.16,220.43 84.14,217.00              88.19,202.88 95.85,186.59 103.40,174.00              131.44,127.26 175.01,93.88 228.00,80.63              238.82,77.92 253.93,75.02 265.00,75.00              278.72,74.98 292.37,74.54 306.00,76.28              339.74,80.60 374.02,95.06 401.00,115.65              412.21,124.21 423.18,134.18 432.25,145.00              434.36,147.52 440.31,153.71 439.97,157.00              439.67,160.03 435.20,163.23 433.00,165.13              426.78,170.49 420.74,176.32 414.00,181.00              406.79,170.24 396.79,160.28 387.00,151.87              326.16,99.57 236.68,96.14 174.00,147.42              154.65,163.26 142.92,177.43 130.58,199.00              128.46,202.70 120.80,217.33 121.21,221.00              121.56,224.20 125.79,227.79 128.00,230.00              128.00,230.00 145.00,247.00 145.00,247.00              145.00,247.00 214.00,316.00 214.00,316.00              214.00,316.00 298.00,400.00 298.00,400.00              298.00,400.00 322.00,424.00 322.00,424.00              324.35,426.35 330.15,432.72 333.00,433.65              335.98,434.62 341.19,431.93 344.00,430.72              353.44,426.66 362.59,421.80 371.00,415.86              409.34,388.77 428.08,358.23 441.00,314.00              441.00,314.00 352.00,314.00 352.00,314.00              352.00,314.00 352.00,278.00 352.00,278.00              352.00,278.00 481.00,278.00 481.00,278.00 Z            M 75.00,283.00            C 80.97,287.27 88.56,295.56 94.00,301.00              94.00,301.00 125.00,332.00 125.00,332.00              125.00,332.00 145.00,351.96 145.00,351.96              145.00,351.96 155.00,361.01 155.00,361.01              155.00,361.01 215.00,421.00 215.00,421.00              215.00,421.00 253.00,458.96 253.00,458.96              259.28,464.96 269.33,472.24 273.00,480.00              273.00,480.00 262.00,479.09 262.00,479.09              180.75,473.50 110.56,420.73 84.67,343.00              79.82,328.44 75.02,308.32 75.00,293.00              75.00,293.00 75.00,283.00 75.00,283.00 Z" />
</svg>