<svg xmlns="http://www.w3.org/2000/svg" viewBox="-0.6 67.68 1001.1 864.82">
  <path id="gimp" fill="#303030" stroke="none" stroke-width="1"
    d="M 584.00,264.00            C 602.89,260.20 633.07,249.54 651.00,241.85              701.15,220.33 743.12,192.09 777.40,149.00              793.36,128.94 804.57,108.15 813.00,84.00              815.17,77.78 819.35,66.26 827.96,68.45              831.94,69.46 834.00,73.41 835.24,77.00              837.18,82.60 838.41,95.70 838.92,102.00              838.92,102.00 843.09,155.00 843.09,155.00              843.09,155.00 844.00,165.00 844.00,165.00              844.00,165.00 845.00,191.00 845.00,191.00              845.00,191.00 846.00,208.00 846.00,208.00              846.00,208.00 846.00,272.00 846.00,272.00              846.00,272.00 845.04,284.00 845.04,284.00              845.04,284.00 845.04,295.00 845.04,295.00              845.04,295.00 844.04,306.00 844.04,306.00              844.04,306.00 839.28,359.00 839.28,359.00              832.03,414.62 819.76,467.79 796.31,519.00              784.96,543.79 770.99,567.80 753.74,589.00              749.82,593.82 738.48,607.67 734.00,610.58              729.84,613.29 726.67,610.38 723.00,608.20              723.00,608.20 701.00,595.58 701.00,595.58              701.00,595.58 669.00,577.42 669.00,577.42              665.98,575.72 656.49,571.03 654.57,569.05              652.50,566.91 651.32,555.51 649.54,551.00              645.40,540.55 626.64,524.84 615.00,525.00              622.61,527.91 632.51,535.61 636.00,543.00              625.98,549.74 616.01,556.63 605.00,561.69              564.77,580.17 528.38,582.50 485.00,582.00              485.00,582.00 449.00,578.72 449.00,578.72              442.71,577.89 434.03,575.56 428.00,577.00              428.00,577.00 471.00,587.39 471.00,587.39              500.72,593.00 515.13,593.35 545.00,593.00              553.62,592.90 571.41,590.15 580.00,588.12              583.77,587.22 593.80,583.90 597.00,584.83              599.62,585.59 603.76,589.21 606.00,591.00              606.00,591.00 622.00,603.80 622.00,603.80              622.00,603.80 681.00,651.00 681.00,651.00              681.00,651.00 681.00,653.00 681.00,653.00              673.08,658.16 664.58,662.38 656.00,666.31              604.83,689.74 557.63,695.65 502.00,695.00              502.00,695.00 491.00,694.04 491.00,694.04              423.35,691.09 351.70,670.59 290.00,643.14              263.58,631.39 233.51,615.84 209.00,600.58              209.00,600.58 184.00,584.14 184.00,584.14              181.75,582.54 172.52,575.77 170.58,575.28              168.78,574.84 161.32,576.26 159.00,576.79              154.44,577.20 149.61,577.05 145.00,576.79              120.82,576.71 94.29,564.27 75.00,550.42              38.87,524.49 11.25,482.77 2.45,439.00              -0.46,424.55 -0.17,414.52 0.00,400.00              0.34,371.43 17.68,341.27 44.00,329.31              62.84,320.75 88.37,320.89 108.00,326.72              132.24,333.92 156.17,349.20 173.99,367.01              173.99,367.01 196.00,393.00 196.00,393.00              196.00,393.00 201.26,378.00 201.26,378.00              204.90,364.84 205.98,346.70 206.00,333.00              206.00,333.00 207.00,317.00 207.00,317.00              207.00,317.00 207.00,289.00 207.00,289.00              207.00,289.00 208.00,272.00 208.00,272.00              208.00,272.00 208.00,246.00 208.00,246.00              208.00,246.00 209.00,229.00 209.00,229.00              209.00,229.00 209.00,203.00 209.00,203.00              209.00,203.00 210.00,186.00 210.00,186.00              210.00,186.00 210.00,153.00 210.00,153.00              214.15,155.66 219.44,166.38 222.51,171.00              230.28,182.64 239.37,194.90 249.04,205.00              261.92,218.47 274.80,230.71 290.00,241.57              324.13,265.96 357.80,277.57 399.00,283.00              399.00,283.00 387.48,302.00 387.48,302.00              380.61,315.11 376.98,329.32 375.91,344.00              375.69,347.11 375.08,348.76 375.32,352.00              376.89,372.92 380.54,388.69 391.45,407.00              396.65,415.72 402.86,422.86 410.00,430.00              460.34,480.28 542.54,478.66 591.99,428.00              600.44,419.33 609.79,406.17 614.57,395.00              622.51,376.47 624.23,364.91 624.00,345.00              623.77,326.02 614.36,302.10 603.10,287.00              598.04,280.20 586.46,269.19 584.00,264.00 Z            M 279.00,296.28            C 272.59,297.23 267.30,297.83 261.00,299.72              238.22,306.56 220.34,323.00 211.45,345.00              192.59,391.71 232.46,442.43 281.00,443.00              298.18,443.20 308.45,441.58 324.00,433.75              333.58,428.93 339.65,424.04 346.83,416.00              352.24,409.94 356.04,403.47 359.14,396.00              364.11,384.03 364.14,377.54 364.00,365.00              363.89,356.23 361.14,346.81 357.24,339.00              342.97,310.45 310.72,293.33 279.00,296.28 Z            M 521.00,315.42            C 527.16,314.67 533.97,315.44 540.00,316.90              588.41,328.57 596.59,393.39 556.00,418.38              550.32,421.88 543.63,424.71 537.00,425.70              520.23,428.20 503.21,424.97 490.00,413.70              462.73,390.42 464.63,345.89 494.00,325.21              503.44,318.56 509.94,317.09 521.00,315.42 Z            M 65.00,343.30            C 44.86,347.11 31.77,362.48 32.00,383.00              32.25,404.80 53.12,423.55 75.00,420.71              88.73,418.93 99.72,412.36 106.48,400.00              116.77,381.21 108.56,355.91 89.00,346.90              81.05,343.24 73.61,342.44 65.00,343.30 Z            M 296.00,347.46            C 307.66,345.85 319.33,348.67 327.83,357.17              347.90,377.25 337.11,412.31 309.00,417.38              271.55,424.14 253.65,378.62 278.04,356.18              283.27,351.37 289.18,348.98 296.00,347.46 Z            M 612.00,522.00            C 612.00,522.00 611.00,522.00 611.00,522.00              611.00,522.00 612.00,523.00 612.00,523.00              612.00,523.00 612.00,522.00 612.00,522.00 Z            M 592.00,573.00            C 592.00,573.00 613.00,562.75 613.00,562.75              613.00,562.75 623.00,558.66 623.00,558.66              623.00,558.66 635.00,563.86 635.00,563.86              635.00,563.86 661.00,578.14 661.00,578.14              661.00,578.14 724.00,613.58 724.00,613.58              724.00,613.58 759.00,634.67 759.00,634.67              759.00,634.67 790.00,656.88 790.00,656.88              790.00,656.88 803.42,666.72 803.42,666.72              803.42,666.72 809.00,666.00 809.00,666.00              809.01,669.04 808.68,673.11 810.74,675.57              812.84,678.09 815.62,677.62 820.00,681.22              820.00,681.22 838.00,697.99 838.00,697.99              838.00,697.99 861.00,719.09 861.00,719.09              861.00,719.09 885.00,741.42 885.00,741.42              889.13,745.01 898.37,755.05 903.00,756.18              905.12,756.91 908.61,756.13 911.00,756.18              925.05,755.50 942.70,764.19 952.91,773.44              963.95,783.44 970.58,799.81 974.13,814.00              974.13,814.00 986.80,884.00 986.80,884.00              986.80,884.00 992.72,908.00 992.72,908.00              992.72,908.00 1000.00,932.00 1000.00,932.00              989.14,930.04 973.93,921.46 964.00,916.25              936.08,901.62 908.37,879.03 891.81,852.00              883.81,838.93 877.19,822.53 877.00,807.00              877.00,807.00 877.94,789.00 877.94,789.00              878.69,781.97 870.04,778.73 865.00,775.58              865.00,775.58 822.00,748.31 822.00,748.31              822.00,748.31 790.00,727.95 790.00,727.95              790.00,727.95 776.91,717.88 776.91,717.88              776.91,717.88 768.00,717.88 768.00,717.88              766.82,710.71 760.56,707.80 755.00,703.63              755.00,703.63 722.00,678.21 722.00,678.21              722.00,678.21 635.00,608.80 635.00,608.80              635.00,608.80 608.00,587.00 608.00,587.00              602.72,582.76 596.12,578.28 592.00,573.00 Z" />
</svg>