<svg xmlns="http://www.w3.org/2000/svg" viewBox="-0.5 -0.5 429 535">
  <path id="giphy" fill="#303030" stroke="none" stroke-width="1"
    d="M 0.00,0.00            C 0.00,0.00 306.00,0.00 306.00,0.00              306.00,0.00 306.00,61.00 306.00,61.00              306.00,61.00 367.00,61.00 367.00,61.00              367.00,61.00 367.00,122.00 367.00,122.00              367.00,122.00 428.00,122.00 428.00,122.00              428.00,122.00 428.00,534.00 428.00,534.00              428.00,534.00 0.00,534.00 0.00,534.00              0.00,534.00 0.00,0.00 0.00,0.00 Z            M 245.00,61.00            C 245.00,61.00 62.00,61.00 62.00,61.00              62.00,61.00 62.00,473.00 62.00,473.00              62.00,473.00 296.00,473.00 296.00,473.00              296.00,473.00 349.00,473.00 349.00,473.00              352.39,473.00 364.00,473.90 365.98,471.40              367.23,469.81 367.00,465.99 367.00,464.00              367.00,464.00 367.00,328.00 367.00,328.00              367.00,328.00 367.00,250.00 367.00,250.00              367.00,250.00 366.00,235.00 366.00,235.00              366.00,235.00 366.00,183.00 366.00,183.00              366.00,183.00 245.00,183.00 245.00,183.00              245.00,183.00 245.00,61.00 245.00,61.00 Z" />
</svg>