<svg xmlns="http://www.w3.org/2000/svg" viewBox="579.42 47.5 1921.08 440">
  <path id="giphy-text" fill="#303030" stroke="none" stroke-width="1"
    d="M 985.00,221.00            C 985.00,221.00 985.00,399.00 985.00,399.00              985.00,401.67 985.10,404.40 984.37,407.00              980.12,421.95 958.66,442.06 946.00,450.66              912.48,473.44 871.96,483.30 832.00,486.09              832.00,486.09 820.00,487.00 820.00,487.00              820.00,487.00 790.00,487.00 790.00,487.00              790.00,487.00 769.00,485.16 769.00,485.16              724.69,480.42 681.99,465.28 648.00,435.71              609.56,402.27 587.82,352.97 581.85,303.00              581.85,303.00 580.00,284.00 580.00,284.00              579.71,258.68 579.96,237.94 585.88,213.00              602.20,144.26 646.83,88.69 714.00,64.05              733.62,56.86 765.19,49.25 786.00,49.00              786.00,49.00 812.00,48.00 812.00,48.00              812.00,48.00 830.00,49.00 830.00,49.00              830.00,49.00 848.00,50.87 848.00,50.87              884.00,55.87 911.66,67.12 941.00,88.73              946.86,93.05 957.82,102.08 963.00,107.04              964.74,108.70 969.11,112.77 969.66,115.00              970.69,119.09 959.01,128.99 956.00,132.00              956.00,132.00 917.00,170.00 917.00,170.00              914.26,172.74 905.53,182.71 902.00,182.66              899.28,182.63 895.14,178.22 893.00,176.46              887.39,171.88 881.37,167.76 875.00,164.31              856.09,154.06 832.63,147.03 811.00,147.00              795.42,146.98 783.02,148.15 768.00,152.72              760.51,155.00 750.57,159.48 744.00,163.70              712.80,183.76 697.06,222.80 697.00,259.00              697.00,259.00 697.00,277.00 697.00,277.00              697.10,284.96 699.17,296.22 701.13,304.00              708.63,333.88 725.10,360.00 753.00,374.68              771.40,384.37 792.49,387.24 813.00,387.00              829.73,386.80 853.71,381.90 869.00,375.14              873.69,373.06 883.52,368.82 885.40,363.96              886.12,362.12 886.00,359.01 886.00,357.00              886.00,357.00 886.00,313.00 886.00,313.00              886.00,313.00 781.00,313.00 781.00,313.00              781.00,313.00 781.00,221.00 781.00,221.00              781.00,221.00 985.00,221.00 985.00,221.00 Z            M 1040.00,61.00            C 1040.00,61.00 1157.00,61.00 1157.00,61.00              1157.00,61.00 1157.00,476.00 1157.00,476.00              1157.00,476.00 1040.00,476.00 1040.00,476.00              1040.00,476.00 1040.00,61.00 1040.00,61.00 Z            M 1230.00,61.00            C 1230.00,61.00 1399.00,61.00 1399.00,61.00              1399.00,61.00 1446.00,61.00 1446.00,61.00              1475.38,61.05 1513.96,72.92 1538.00,89.72              1566.49,109.63 1585.86,138.13 1593.77,172.00              1598.38,191.80 1598.23,204.05 1598.00,224.00              1597.89,232.89 1595.54,246.28 1593.37,255.00              1584.38,291.15 1564.94,319.22 1533.00,338.94              1511.51,352.20 1475.32,362.70 1450.00,363.00              1450.00,363.00 1429.00,364.00 1429.00,364.00              1429.00,364.00 1348.00,364.00 1348.00,364.00              1348.00,364.00 1348.00,475.00 1348.00,475.00              1348.00,475.00 1230.00,475.00 1230.00,475.00              1230.00,475.00 1230.00,61.00 1230.00,61.00 Z            M 1640.00,61.00            C 1640.00,61.00 1759.00,61.00 1759.00,61.00              1759.00,61.00 1759.00,218.00 1759.00,218.00              1759.00,218.00 1907.00,218.00 1907.00,218.00              1907.00,218.00 1907.00,61.00 1907.00,61.00              1907.00,61.00 2024.00,61.00 2024.00,61.00              2024.00,61.00 2024.00,476.00 2024.00,476.00              2024.00,476.00 1907.00,476.00 1907.00,476.00              1907.00,476.00 1907.00,319.00 1907.00,319.00              1907.00,319.00 1759.00,319.00 1759.00,319.00              1759.00,319.00 1759.00,476.00 1759.00,476.00              1759.00,476.00 1640.00,476.00 1640.00,476.00              1640.00,476.00 1640.00,61.00 1640.00,61.00 Z            M 2060.00,61.00            C 2060.00,61.00 2186.00,61.00 2186.00,61.00              2186.00,61.00 2193.61,62.02 2193.61,62.02              2193.61,62.02 2199.80,71.00 2199.80,71.00              2199.80,71.00 2212.80,93.00 2212.80,93.00              2212.80,93.00 2253.60,162.00 2253.60,162.00              2253.60,162.00 2276.00,201.00 2276.00,201.00              2276.00,201.00 2278.00,201.00 2278.00,201.00              2278.00,201.00 2298.58,167.00 2298.58,167.00              2298.58,167.00 2346.05,92.00 2346.05,92.00              2346.05,92.00 2358.81,72.00 2358.81,72.00              2358.81,72.00 2366.21,62.02 2366.21,62.02              2366.21,62.02 2374.00,61.00 2374.00,61.00              2374.00,61.00 2500.00,61.00 2500.00,61.00              2499.74,69.31 2494.82,74.27 2490.33,81.00              2490.33,81.00 2466.67,116.00 2466.67,116.00              2466.67,116.00 2397.02,219.00 2397.02,219.00              2397.02,219.00 2372.86,255.00 2372.86,255.00              2372.86,255.00 2347.28,293.00 2347.28,293.00              2340.75,302.35 2335.02,307.21 2335.00,319.00              2335.00,319.00 2335.00,475.00 2335.00,475.00              2335.00,475.00 2217.00,475.00 2217.00,475.00              2217.00,475.00 2217.00,319.00 2217.00,319.00              2216.98,307.55 2212.69,304.31 2206.69,295.00              2206.69,295.00 2185.42,262.00 2185.42,262.00              2185.42,262.00 2092.19,117.00 2092.19,117.00              2092.19,117.00 2069.66,82.00 2069.66,82.00              2064.95,74.79 2060.23,69.91 2060.00,61.00 Z            M 1348.00,263.00            C 1348.00,263.00 1434.00,263.00 1434.00,263.00              1482.43,262.92 1493.93,198.70 1462.00,172.33              1448.51,161.18 1433.28,162.00 1417.00,162.00              1417.00,162.00 1348.00,162.00 1348.00,162.00              1348.00,162.00 1348.00,263.00 1348.00,263.00 Z" />
</svg>