<svg xmlns="http://www.w3.org/2000/svg" viewBox="452.17 -0.85 457.84 370.35">
  <path id="git-text" fill="#303030" stroke="none" stroke-width="1" d="M 699.00,0.52            C 710.37,-1.28 725.92,-0.89 734.70,7.47              746.58,18.77 746.14,46.73 733.91,57.67              726.92,63.92 716.97,65.10 708.00,65.00              699.58,64.90 690.32,62.16 684.47,55.82              677.14,47.88 676.88,39.10 677.00,29.00              677.18,14.04 684.47,4.42 699.00,0.52 Z            M 811.00,34.00            C 811.00,34.00 847.00,34.00 847.00,34.00              847.00,34.00 847.00,89.00 847.00,89.00              847.00,89.00 901.00,89.00 901.00,89.00              901.00,89.00 901.00,126.00 901.00,126.00              901.00,126.00 847.00,126.00 847.00,126.00              847.00,126.00 847.00,216.00 847.00,216.00              847.02,231.35 852.44,240.94 869.00,241.91              880.58,242.58 890.47,237.63 901.00,236.00              901.00,236.00 907.72,259.00 907.72,259.00              908.52,261.68 910.46,266.00 908.94,268.61              907.82,270.53 904.96,271.58 903.00,272.40              903.00,272.40 886.00,278.28 886.00,278.28              863.92,284.86 823.19,287.35 805.09,270.70              795.54,261.92 791.15,245.66 791.00,233.00              791.00,233.00 791.00,172.00 791.00,172.00              791.00,172.00 791.00,141.00 791.00,141.00              791.00,137.59 791.61,130.94 789.40,128.31              787.13,125.62 783.18,126.01 780.00,126.00              780.00,126.00 763.00,126.00 763.00,126.00              763.00,126.00 763.00,93.00 763.00,93.00              771.09,91.91 780.00,89.86 787.00,85.53              804.09,74.99 809.48,52.74 811.00,34.00 Z            M 489.00,218.00            C 482.32,215.44 476.47,210.53 472.01,204.99              458.84,188.59 458.77,175.81 459.00,156.00              459.13,145.54 463.05,133.89 468.46,125.00              473.98,115.94 480.94,109.82 490.00,104.45              507.71,93.96 529.01,92.97 549.00,93.00              549.00,93.00 585.00,97.00 585.00,97.00              585.00,97.00 647.00,97.00 647.00,97.00              647.00,97.00 647.00,122.00 647.00,122.00              647.00,122.00 645.43,127.83 645.43,127.83              645.43,127.83 636.00,129.09 636.00,129.09              636.00,129.09 614.00,131.00 614.00,131.00              622.59,141.18 627.48,155.63 626.96,169.00              625.42,208.79 593.73,230.94 556.00,230.86              556.00,230.86 534.00,230.86 534.00,230.86              530.81,230.33 523.90,228.64 521.18,230.06              518.20,231.62 512.04,242.62 510.00,246.00              510.00,246.00 540.00,248.04 540.00,248.04              540.00,248.04 548.00,248.91 548.00,248.91              548.00,248.91 590.00,252.28 590.00,252.28              603.92,254.11 622.56,257.76 632.70,268.18              646.81,282.68 646.85,311.54 638.68,329.00              635.21,336.42 629.42,343.44 623.00,348.48              599.34,367.10 564.88,369.05 536.00,369.00              536.00,369.00 524.00,368.09 524.00,368.09              510.72,367.18 497.81,366.05 485.00,361.97              477.62,359.62 467.51,354.53 462.18,348.91              452.23,338.42 450.26,320.15 455.46,307.00              458.87,298.38 465.60,292.40 472.00,286.00              460.18,281.40 456.87,272.83 457.00,261.00              457.05,257.01 457.23,254.73 458.90,251.00              464.00,239.65 479.74,226.51 489.00,218.00 Z            M 663.00,124.00            C 663.00,124.00 665.28,102.00 665.28,102.00              665.28,102.00 667.60,94.02 667.60,94.02              667.60,94.02 675.00,93.00 675.00,93.00              675.00,93.00 743.00,93.00 743.00,93.00              743.00,93.00 743.00,240.00 743.00,240.00              743.01,242.69 742.68,246.36 744.60,248.49              747.35,251.54 762.54,252.80 767.00,253.00              767.00,253.00 767.00,283.00 767.00,283.00              767.00,283.00 663.00,283.00 663.00,283.00              663.00,283.00 663.00,253.00 663.00,253.00              668.11,252.77 682.32,251.76 685.40,247.77              687.29,245.33 686.99,241.92 687.00,239.00              687.00,239.00 687.00,143.00 687.00,143.00              686.99,139.77 687.29,135.95 685.26,133.22              682.78,129.89 667.50,125.05 663.00,124.00 Z            M 538.00,130.30            C 530.29,131.75 523.64,133.90 518.40,140.04              508.79,151.04 508.04,172.98 518.40,183.68              524.14,189.49 533.09,191.90 541.00,192.00              550.85,192.11 557.44,191.95 566.00,186.09              581.36,175.56 581.68,149.17 567.98,137.21              559.75,130.02 548.38,129.27 538.00,130.30 Z            M 507.04,296.88            C 498.99,300.65 490.06,318.93 505.00,327.64              516.70,334.46 538.53,333.02 552.00,333.00              564.07,332.98 586.91,330.10 588.77,315.00              589.98,305.17 580.95,302.11 573.00,301.17              573.00,301.17 549.00,298.96 549.00,298.96              549.00,298.96 540.00,298.96 540.00,298.96              540.00,298.96 507.04,296.88 507.04,296.88 Z"/>
</svg>