<svg xmlns="http://www.w3.org/2000/svg" viewBox="-0.52 -0.5 381.02 381.03">
  <path id="git" fill="#303030" stroke="none" stroke-width="1"
    d="M 203.00,141.00            C 209.40,145.58 223.60,160.60 230.00,167.00              232.66,169.66 240.62,177.11 241.94,180.00              243.48,183.37 241.63,187.48 241.33,191.00              240.08,205.71 256.29,221.93 271.00,220.67              293.54,218.75 309.34,190.62 288.00,171.10              283.45,166.94 278.21,164.33 272.00,163.99              268.39,163.87 261.56,165.11 259.00,163.99              256.17,162.65 249.54,155.54 247.00,153.00              247.00,153.00 223.02,129.00 223.02,129.00              214.55,120.15 220.33,120.08 218.70,109.00              217.60,101.50 212.87,95.00 207.00,90.39              202.11,86.54 197.15,85.01 191.00,84.97              187.76,85.01 182.64,86.15 180.00,84.97              177.11,83.62 169.66,75.66 167.00,73.00              167.00,73.00 139.37,45.00 139.37,45.00              135.64,39.39 145.35,32.65 149.00,29.00              149.00,29.00 163.00,15.00 163.00,15.00              172.34,5.66 176.99,-0.33 191.00,0.01              202.09,0.28 207.66,6.66 215.00,14.00              215.00,14.00 238.00,37.00 238.00,37.00              238.00,37.00 344.00,143.00 344.00,143.00              344.00,143.00 366.00,165.00 366.00,165.00              373.34,172.34 379.72,177.91 379.99,189.00              380.38,205.23 370.57,211.43 360.00,222.00              360.00,222.00 307.00,275.00 307.00,275.00              307.00,275.00 229.00,353.00 229.00,353.00              222.57,359.43 207.64,376.07 200.00,378.87              196.48,380.16 192.69,380.04 189.00,380.00              176.79,379.85 173.11,374.11 165.00,366.00              165.00,366.00 142.00,343.00 142.00,343.00              142.00,343.00 35.00,236.00 35.00,236.00              35.00,236.00 14.00,215.00 14.00,215.00              5.89,206.89 0.15,203.21 0.00,191.00              -0.03,188.18 -0.13,184.69 0.63,182.00              3.26,172.77 16.07,161.93 23.00,155.00              23.00,155.00 90.00,88.00 90.00,88.00              90.00,88.00 112.00,66.00 112.00,66.00              113.96,64.05 118.16,59.20 121.00,59.20              124.07,59.20 129.79,65.79 132.00,68.00              132.00,68.00 154.00,90.00 154.00,90.00              156.59,92.59 162.30,97.70 163.36,101.00              164.43,104.30 162.45,108.17 162.21,112.00              161.99,115.63 163.41,120.70 164.90,124.00              172.16,140.00 179.97,132.51 180.00,147.00              180.00,147.00 180.00,237.00 180.00,237.00              179.98,249.33 177.00,244.20 169.47,253.04              162.95,260.68 160.60,269.39 163.75,279.00              167.46,290.33 178.73,299.82 191.00,299.82              206.28,299.82 219.57,284.98 218.96,270.00              218.71,263.73 216.69,258.82 212.67,254.00              205.06,244.88 203.02,249.29 203.00,238.00              203.00,238.00 203.00,141.00 203.00,141.00 Z" />
</svg>