<svg xmlns="http://www.w3.org/2000/svg" viewBox="100.64 195.84 285.34 204.48">
  <path id="gitbook" fill="#303030" stroke="none" stroke-width="1" d="M 248.00,362.00            C 248.00,362.00 269.00,351.31 269.00,351.31              269.00,351.31 304.00,332.78 304.00,332.78              304.00,332.78 322.00,323.26 322.00,323.26              324.05,322.20 330.28,319.30 331.65,318.04              335.11,314.84 331.58,312.92 334.04,303.00              337.01,291.00 348.48,282.15 361.00,283.19              382.35,284.96 394.81,310.45 376.91,325.47              371.48,330.03 363.06,332.69 356.00,331.70              346.09,330.32 346.83,325.87 338.00,330.26              338.00,330.26 291.00,355.69 291.00,355.69              291.00,355.69 258.14,373.35 258.14,373.35              253.49,376.59 255.01,380.36 252.16,386.00              247.93,394.38 239.22,399.27 230.00,399.79              221.59,400.26 213.45,395.73 208.64,389.00              203.96,382.47 206.43,379.52 198.00,374.80              198.00,374.80 181.00,366.22 181.00,366.22              181.00,366.22 145.00,347.26 145.00,347.26              137.30,343.28 123.06,337.00 117.00,331.79              103.97,320.58 98.31,300.58 102.51,284.00              105.78,271.11 112.10,268.20 123.00,262.75              123.00,262.75 137.00,255.75 137.00,255.75              137.00,255.75 223.00,212.75 223.00,212.75              223.00,212.75 248.00,200.72 248.00,200.72              251.99,199.00 257.66,196.38 262.00,196.34              269.50,196.28 276.44,200.68 283.00,203.69              283.00,203.69 317.00,219.69 317.00,219.69              317.00,219.69 360.00,240.25 360.00,240.25              364.11,242.29 372.61,245.11 373.46,250.04              374.57,256.47 363.60,260.45 359.00,262.75              359.00,262.75 306.00,290.25 306.00,290.25              306.00,290.25 250.00,319.25 250.00,319.25              243.76,322.37 231.35,329.97 225.00,329.92              218.85,329.87 204.36,320.95 198.00,317.75              198.00,317.75 150.00,292.74 150.00,292.74              150.00,292.74 130.00,282.47 130.00,282.47              118.83,278.39 115.82,290.59 116.01,299.00              116.20,307.27 119.86,317.08 126.09,322.67              130.61,326.73 142.88,331.97 149.00,335.42              149.00,335.42 206.00,365.00 206.00,365.00              211.66,348.44 240.28,346.46 248.00,362.00 Z            M 357.02,301.45            C 346.19,305.88 351.97,318.81 360.98,316.55              369.32,314.47 369.37,300.23 357.02,301.45 Z            M 226.02,368.45            C 215.19,372.88 220.97,385.81 229.98,383.55              238.32,381.47 238.37,367.23 226.02,368.45 Z"/>
</svg>