<svg xmlns="http://www.w3.org/2000/svg" viewBox="100.64 195.84 998.86 204.48">
  <path id="gitbook-wordmark" fill="#303030" stroke="none" stroke-width="1" d="M 248.00,362.00            C 248.00,362.00 269.00,351.31 269.00,351.31              269.00,351.31 304.00,332.78 304.00,332.78              304.00,332.78 322.00,323.26 322.00,323.26              324.05,322.20 330.28,319.30 331.65,318.04              335.11,314.84 331.58,312.92 334.04,303.00              337.01,291.00 348.48,282.15 361.00,283.19              382.35,284.96 394.81,310.45 376.91,325.47              371.48,330.03 363.06,332.69 356.00,331.70              346.09,330.32 346.83,325.87 338.00,330.26              338.00,330.26 291.00,355.69 291.00,355.69              291.00,355.69 258.14,373.35 258.14,373.35              253.49,376.59 255.01,380.36 252.16,386.00              247.93,394.38 239.22,399.27 230.00,399.79              221.59,400.26 213.45,395.73 208.64,389.00              203.96,382.47 206.43,379.52 198.00,374.80              198.00,374.80 181.00,366.22 181.00,366.22              181.00,366.22 145.00,347.26 145.00,347.26              137.30,343.28 123.06,337.00 117.00,331.79              103.97,320.58 98.31,300.58 102.51,284.00              105.78,271.11 112.10,268.20 123.00,262.75              123.00,262.75 137.00,255.75 137.00,255.75              137.00,255.75 223.00,212.75 223.00,212.75              223.00,212.75 248.00,200.72 248.00,200.72              251.99,199.00 257.66,196.38 262.00,196.34              269.50,196.28 276.44,200.68 283.00,203.69              283.00,203.69 317.00,219.69 317.00,219.69              317.00,219.69 360.00,240.25 360.00,240.25              364.11,242.29 372.61,245.11 373.46,250.04              374.57,256.47 363.60,260.45 359.00,262.75              359.00,262.75 306.00,290.25 306.00,290.25              306.00,290.25 250.00,319.25 250.00,319.25              243.76,322.37 231.35,329.97 225.00,329.92              218.85,329.87 204.36,320.95 198.00,317.75              198.00,317.75 150.00,292.74 150.00,292.74              150.00,292.74 130.00,282.47 130.00,282.47              118.83,278.39 115.82,290.59 116.01,299.00              116.20,307.27 119.86,317.08 126.09,322.67              130.61,326.73 142.88,331.97 149.00,335.42              149.00,335.42 206.00,365.00 206.00,365.00              211.66,348.44 240.28,346.46 248.00,362.00 Z            M 584.00,231.47            C 590.21,230.62 596.26,231.26 600.78,236.11              609.04,244.97 603.48,258.33 592.00,260.53              573.38,264.11 564.40,244.69 577.09,234.43              579.45,232.52 581.19,232.16 584.00,231.47 Z            M 1006.00,231.00            C 1006.00,231.00 1036.00,231.00 1036.00,231.00              1036.00,231.00 1036.00,278.00 1036.00,278.00              1036.00,278.00 1037.00,303.00 1037.00,303.00              1039.72,296.64 1048.87,286.83 1053.61,281.00              1058.41,275.10 1059.99,271.15 1068.00,271.00              1068.00,271.00 1097.00,271.00 1097.00,271.00              1093.39,277.77 1080.10,292.21 1074.41,299.00              1072.26,301.56 1066.05,307.99 1065.68,311.00              1065.30,314.08 1072.38,323.99 1074.34,327.00              1074.34,327.00 1091.05,353.00 1091.05,353.00              1094.12,357.84 1097.24,361.46 1099.00,367.00              1099.00,367.00 1073.00,367.00 1073.00,367.00              1073.00,367.00 1065.61,365.40 1065.61,365.40              1065.61,365.40 1058.80,355.00 1058.80,355.00              1058.80,355.00 1046.00,332.00 1046.00,332.00              1046.00,332.00 1037.02,340.17 1037.02,340.17              1037.02,340.17 1036.00,347.00 1036.00,347.00              1036.00,347.00 1036.00,367.00 1036.00,367.00              1036.00,367.00 1006.00,367.00 1006.00,367.00              1006.00,367.00 1006.00,231.00 1006.00,231.00 Z            M 555.00,299.00            C 555.00,299.00 555.00,343.00 555.00,343.00              554.98,352.66 551.27,354.74 543.00,359.54              533.11,365.28 513.46,369.25 502.00,368.99              496.74,368.87 488.02,367.57 483.00,365.97              474.29,363.20 468.41,359.58 462.04,353.00              446.90,337.34 445.76,318.50 446.00,298.00              446.21,280.37 452.08,260.17 466.01,248.46              485.68,231.94 524.25,231.61 542.56,250.30              550.47,258.37 552.98,269.28 555.00,280.00              555.00,280.00 525.00,280.00 525.00,280.00              521.79,259.25 500.78,255.58 490.04,264.39              481.75,271.20 478.12,287.64 478.00,298.00              477.85,310.97 476.90,325.64 486.18,335.99              493.28,343.89 502.66,346.48 513.00,344.53              516.05,343.96 521.23,342.34 522.98,339.61              524.68,336.95 524.00,323.84 524.00,320.00              524.00,320.00 502.00,320.00 502.00,320.00              502.00,320.00 502.00,299.00 502.00,299.00              502.00,299.00 555.00,299.00 555.00,299.00 Z            M 685.00,238.00            C 685.00,238.00 704.00,238.00 704.00,238.00              704.00,238.00 718.00,238.00 718.00,238.00              740.48,238.00 775.70,236.81 781.79,265.00              782.53,268.41 783.11,271.48 782.91,275.00              782.50,281.96 779.90,289.86 774.82,294.79              771.40,298.10 768.87,298.14 765.00,302.00              791.62,307.00 790.06,346.70 770.00,359.89              759.31,366.92 744.44,368.02 732.00,368.00              732.00,368.00 715.00,367.00 715.00,367.00              715.00,367.00 685.00,367.00 685.00,367.00              685.00,367.00 685.00,238.00 685.00,238.00 Z            M 626.00,247.00            C 626.00,247.00 656.00,247.00 656.00,247.00              656.00,247.00 656.00,271.00 656.00,271.00              656.00,271.00 672.00,271.00 672.00,271.00              672.00,271.00 672.00,292.00 672.00,292.00              672.00,292.00 656.00,292.00 656.00,292.00              656.00,292.00 656.00,327.00 656.00,327.00              656.00,331.47 655.30,339.11 658.01,342.72              661.33,347.16 668.34,346.13 673.00,345.00              673.00,345.00 673.00,360.00 673.00,360.00              672.97,361.64 673.07,363.91 672.01,365.28              670.12,367.71 660.15,368.84 657.00,368.96              647.40,369.33 635.37,366.73 630.00,358.00              627.27,353.56 626.07,344.24 626.00,339.00              626.00,339.00 626.00,292.00 626.00,292.00              626.00,292.00 614.00,292.00 614.00,292.00              614.00,292.00 614.00,271.00 614.00,271.00              614.00,271.00 626.00,271.00 626.00,271.00              626.00,271.00 626.00,247.00 626.00,247.00 Z            M 716.00,292.00            C 723.28,292.00 739.08,293.14 744.94,289.72              753.53,284.78 753.05,269.33 744.94,264.08              738.20,259.78 724.04,261.00 716.00,261.00              716.00,261.00 716.00,292.00 716.00,292.00 Z            M 838.00,269.43            C 852.56,267.63 868.88,271.79 878.82,283.00              891.24,297.02 892.89,326.22 885.66,343.00              882.67,349.94 877.99,355.86 872.00,360.47              864.70,366.10 857.83,367.31 849.00,368.57              834.28,370.69 816.94,365.60 807.33,354.00              791.76,335.21 793.85,298.21 811.09,281.09              819.10,273.14 827.32,271.18 838.00,269.43 Z            M 941.00,269.43            C 955.56,267.63 971.88,271.79 981.82,283.00              994.24,297.02 995.89,326.22 988.66,343.00              985.67,349.94 980.99,355.86 975.00,360.47              967.70,366.10 960.83,367.31 952.00,368.57              937.28,370.69 919.94,365.60 910.33,354.00              894.76,335.21 896.85,298.21 914.09,281.09              922.10,273.14 930.32,271.18 941.00,269.43 Z            M 572.00,271.00            C 572.00,271.00 602.00,271.00 602.00,271.00              602.00,271.00 602.00,367.00 602.00,367.00              602.00,367.00 572.00,367.00 572.00,367.00              572.00,367.00 572.00,271.00 572.00,271.00 Z            M 838.00,292.30            C 824.47,296.77 826.15,310.88 826.91,322.00              827.55,331.26 827.43,342.96 839.00,345.52              841.35,346.15 845.68,346.10 848.00,345.52              857.67,342.66 858.99,331.45 859.00,323.00              859.02,312.02 859.44,294.46 845.00,292.30              842.64,291.84 840.34,292.07 838.00,292.30 Z            M 941.00,292.30            C 927.47,296.77 929.15,310.88 929.91,322.00              930.55,331.26 930.43,342.96 942.00,345.52              944.35,346.15 948.68,346.10 951.00,345.52              960.67,342.66 961.99,331.45 962.00,323.00              962.02,312.02 962.44,294.46 948.00,292.30              945.64,291.84 943.34,292.07 941.00,292.30 Z            M 357.02,301.45            C 346.19,305.88 351.97,318.81 360.98,316.55              369.32,314.47 369.37,300.23 357.02,301.45 Z            M 716.00,343.00            C 722.89,343.00 740.56,344.10 745.99,341.31              755.38,336.49 757.66,319.95 747.96,314.09              742.51,310.79 723.18,312.00 716.00,312.00              716.00,312.00 716.00,343.00 716.00,343.00 Z            M 226.02,368.45            C 215.19,372.88 220.97,385.81 229.98,383.55              238.32,381.47 238.37,367.23 226.02,368.45 Z"/>
</svg>