<svg xmlns="http://www.w3.org/2000/svg" viewBox="-0.5 -0.5 1025 1000.27">
  <path id="Selection" fill="#303030" stroke="none" stroke-width="1" d="M 385.00,878.00            C 385.00,878.00 385.00,933.00 385.00,933.00              385.00,933.00 386.00,948.00 386.00,948.00              386.00,948.00 386.00,970.00 386.00,970.00              385.97,989.34 376.70,999.43 357.00,998.99              348.64,998.80 336.91,994.15 329.00,991.00              329.00,991.00 292.00,975.25 292.00,975.25              232.89,945.77 198.23,921.27 150.09,875.72              150.09,875.72 142.96,868.00 142.96,868.00              129.70,854.14 117.38,840.15 105.58,825.00              57.96,763.89 22.20,685.38 8.42,609.00              4.83,589.06 2.30,569.18 0.91,549.00              0.91,549.00 0.00,537.00 0.00,537.00              0.00,537.00 0.00,486.00 0.00,486.00              0.00,486.00 1.83,464.00 1.83,464.00              6.05,420.43 14.88,378.18 29.95,337.00              54.73,269.25 91.03,210.20 140.96,158.00              140.96,158.00 149.04,149.04 149.04,149.04              149.04,149.04 158.00,140.96 158.00,140.96              230.89,71.25 321.80,25.32 421.00,7.42              421.00,7.42 476.00,0.91 476.00,0.91              476.00,0.91 488.00,0.00 488.00,0.00              488.00,0.00 538.00,0.00 538.00,0.00              538.00,0.00 560.00,1.83 560.00,1.83              602.37,5.93 643.81,14.39 684.00,28.69              834.18,82.13 953.57,204.48 1000.98,357.00              1011.87,392.05 1018.64,427.52 1022.17,464.00              1022.17,464.00 1024.00,488.00 1024.00,488.00              1024.00,488.00 1024.00,538.00 1024.00,538.00              1024.00,538.00 1023.09,548.00 1023.09,548.00              1021.51,570.99 1018.53,593.37 1014.00,616.00              990.59,733.08 924.87,838.54 832.00,913.20              790.56,946.51 743.65,972.92 694.00,991.81              688.52,993.89 680.52,997.16 675.00,998.33              661.64,1001.17 646.81,997.89 641.47,984.00              639.87,979.85 640.01,977.32 640.00,973.00              640.00,973.00 640.00,866.00 640.00,866.00              640.00,836.62 641.84,813.84 633.57,785.00              630.52,774.33 625.30,763.10 618.96,754.00              615.07,748.41 608.50,742.29 606.00,737.00              616.63,736.77 643.93,731.87 655.00,729.42              712.92,716.65 763.32,693.03 798.28,643.00              825.07,604.67 834.95,557.81 838.09,512.00              838.09,512.00 839.00,502.00 839.00,502.00              839.00,502.00 839.00,477.00 839.00,477.00              838.96,451.27 830.24,417.97 818.75,395.00              813.32,384.13 806.82,373.72 799.53,364.00              797.10,360.77 788.50,350.96 787.69,348.00              786.86,345.00 790.91,333.84 791.87,330.00              794.59,319.19 796.98,304.10 797.00,293.00              797.03,275.78 795.29,258.76 791.11,242.00              791.11,242.00 782.00,212.00 782.00,212.00              776.22,211.73 773.17,210.67 767.00,211.09              737.56,213.09 708.75,226.20 683.00,239.78              683.00,239.78 654.00,257.00 654.00,257.00              650.35,259.41 644.35,264.35 640.00,264.32              640.00,264.32 621.00,259.88 621.00,259.88              621.00,259.88 587.00,253.27 587.00,253.27              573.05,251.22 548.61,248.02 535.00,248.00              535.00,248.00 492.00,248.00 492.00,248.00              492.00,248.00 480.00,248.91 480.00,248.91              459.09,250.35 438.58,253.08 418.00,257.20              418.00,257.20 398.00,261.71 398.00,261.71              394.86,262.60 388.00,264.86 385.00,264.32              381.86,263.75 375.02,258.64 372.00,256.69              372.00,256.69 347.00,241.86 347.00,241.86              321.62,227.78 286.30,212.18 257.00,211.04              253.87,210.92 248.89,211.07 246.27,212.93              242.89,215.34 239.26,228.62 238.00,233.00              230.36,259.61 229.68,272.75 230.00,300.00              230.10,308.62 232.87,323.55 235.15,332.00              236.09,335.47 239.80,345.17 239.08,348.00              238.38,350.74 230.19,359.97 227.88,363.00              220.65,372.48 212.99,384.22 207.89,395.00              197.96,415.99 188.28,446.70 188.00,470.00              188.00,470.00 187.01,489.00 187.01,489.00              187.01,489.00 187.96,498.00 187.96,498.00              187.96,498.00 187.96,509.00 187.96,509.00              187.96,509.00 189.84,530.00 189.84,530.00              195.08,579.07 210.58,625.81 244.17,663.00              278.15,700.62 327.23,720.64 376.00,730.40              386.74,732.55 409.77,736.91 420.00,737.00              417.46,742.38 412.68,746.22 409.16,751.00              403.15,759.14 399.69,765.72 395.86,775.00              393.24,781.35 391.12,789.26 389.66,796.00              389.09,798.63 388.52,804.43 387.05,806.36              384.83,809.27 374.77,812.10 371.00,813.33              352.07,819.50 341.58,820.23 322.00,820.00              298.60,819.72 271.95,807.03 256.17,789.99              244.95,777.87 241.66,770.03 232.85,758.00              226.54,749.40 217.95,740.27 210.00,733.17              197.13,721.68 177.55,712.01 160.00,712.01              155.20,712.01 146.15,713.08 142.02,715.41              132.54,720.76 139.40,728.68 145.01,733.83              145.01,733.83 168.00,750.30 168.00,750.30              179.11,759.77 187.46,771.82 195.31,784.00              201.06,792.93 206.68,803.38 211.22,813.00              217.87,827.09 218.53,833.05 229.44,846.00              249.96,870.36 285.64,882.95 317.00,883.00              317.00,883.00 338.00,883.00 338.00,883.00              338.00,883.00 385.00,878.00 385.00,878.00 Z"/>
</svg>