<svg xmlns="http://www.w3.org/2000/svg" viewBox="67.39 85.37 865.11 233.23">
  <path id="github-text" fill="#303030" stroke="none" stroke-width="1"
    d="M 190.00,228.00            C 190.00,228.00 166.00,228.00 166.00,228.00              163.86,227.96 161.23,228.04 159.60,226.40              157.81,224.61 158.02,221.35 158.00,219.00              158.00,219.00 158.00,194.00 158.00,194.00              158.00,192.01 157.77,188.19 159.02,186.60              160.59,184.62 164.70,185.00 167.00,185.00              167.00,185.00 220.00,185.00 220.00,185.00              223.39,185.00 235.00,184.10 236.98,186.60              238.23,188.19 238.00,192.01 238.00,194.00              238.00,194.00 238.00,293.00 238.00,293.00              237.98,303.91 234.47,303.91 225.00,308.23              214.33,313.10 195.72,317.86 184.00,318.00              184.00,318.00 161.00,318.00 161.00,318.00              131.33,317.95 101.10,305.52 84.70,280.00              67.11,252.64 67.64,219.20 68.00,188.00              68.10,179.36 70.51,164.50 72.63,156.00              81.08,122.04 98.59,97.77 134.00,89.13              140.08,87.65 147.78,86.08 154.00,86.00              171.10,85.80 188.13,85.43 205.00,88.61              210.26,89.60 221.63,92.46 225.85,95.36              229.92,98.15 229.03,101.80 228.12,106.00              228.12,106.00 223.21,127.00 223.21,127.00              222.57,129.96 221.95,135.96 218.75,137.17              216.57,137.99 213.18,136.73 211.00,136.15              211.00,136.15 197.00,133.00 197.00,133.00              176.41,130.09 150.08,128.96 134.29,145.17              126.80,152.86 122.93,161.75 120.37,172.00              113.47,199.76 114.50,247.12 140.00,265.37              155.70,276.60 172.84,271.79 190.00,271.00              190.00,271.00 190.00,228.00 190.00,228.00 Z            M 498.00,220.00            C 498.00,220.00 498.00,291.00 498.00,291.00              498.00,295.19 499.03,309.78 496.40,312.40              494.48,314.32 490.54,313.99 488.00,314.00              488.00,314.00 459.00,314.00 459.00,314.00              456.46,313.99 452.52,314.32 450.60,312.40              448.68,310.48 449.01,306.54 449.00,304.00              449.00,304.00 449.00,143.00 449.00,143.00              449.00,143.00 449.00,110.00 449.00,110.00              449.00,106.97 448.51,98.58 450.02,96.31              451.86,93.55 456.09,94.01 459.00,94.00              459.00,94.00 488.00,94.00 488.00,94.00              490.54,94.01 494.48,93.68 496.40,95.60              498.32,97.52 497.99,101.46 498.00,104.00              498.00,104.00 498.00,176.00 498.00,176.00              498.00,176.00 560.00,176.00 560.00,176.00              560.00,176.00 560.00,114.00 560.00,114.00              560.00,109.73 558.81,97.51 562.43,95.02              564.24,93.78 567.84,94.00 570.00,94.00              570.00,94.00 597.00,94.00 597.00,94.00              599.41,94.00 605.60,93.60 607.40,95.02              609.38,96.59 609.00,100.70 609.00,103.00              609.00,103.00 609.00,265.00 609.00,265.00              609.00,265.00 609.00,299.00 609.00,299.00              609.00,301.77 609.50,310.48 607.98,312.40              606.41,314.38 602.30,314.00 600.00,314.00              600.00,314.00 568.00,314.00 568.00,314.00              557.98,313.81 560.00,309.43 560.00,292.00              560.00,292.00 560.00,220.00 560.00,220.00              560.00,220.00 498.00,220.00 498.00,220.00 Z            M 825.00,303.00            C 824.93,305.94 824.89,311.05 822.30,313.01              820.76,314.17 817.86,313.99 816.00,314.00              816.00,314.00 795.00,314.00 795.00,314.00              793.38,313.97 790.94,314.04 789.60,312.98              787.62,311.41 788.00,307.30 788.00,305.00              788.00,305.00 788.00,143.00 788.00,143.00              788.00,143.00 788.00,109.00 788.00,109.00              788.00,106.23 787.50,97.52 789.02,95.60              790.59,93.62 794.70,94.00 797.00,94.00              797.00,94.00 828.00,94.00 828.00,94.00              830.35,94.02 833.61,93.81 835.40,95.60              837.32,97.52 836.99,101.46 837.00,104.00              837.00,104.00 837.00,168.00 837.00,168.00              852.75,161.23 860.62,158.80 878.00,159.00              883.41,159.07 889.82,160.17 895.00,161.72              921.75,169.75 931.96,197.30 932.00,223.00              932.00,223.00 932.00,251.00 932.00,251.00              932.00,251.00 930.08,268.00 930.08,268.00              925.36,296.04 910.89,317.63 880.00,318.00              859.91,318.23 841.12,316.59 825.00,303.00 Z            M 279.00,99.47            C 286.20,98.46 292.55,98.62 299.00,102.36              322.76,116.15 311.87,154.88 284.00,152.68              279.58,152.33 274.77,151.26 271.00,148.87              251.05,136.22 254.86,105.22 279.00,99.47 Z            M 348.00,165.00            C 348.00,165.00 348.00,134.00 348.00,134.00              348.00,131.46 347.56,124.45 349.02,122.60              350.59,120.62 354.70,121.00 357.00,121.00              357.00,121.00 382.00,121.00 382.00,121.00              384.39,121.00 391.89,120.72 393.69,121.60              396.15,122.81 395.95,125.65 396.00,128.00              396.00,128.00 396.00,163.00 396.00,163.00              396.00,163.00 420.00,163.00 420.00,163.00              422.29,163.01 425.73,162.87 427.69,164.17              430.07,165.77 429.95,168.45 430.00,171.00              430.00,171.00 430.00,195.00 430.00,195.00              429.98,197.35 430.19,200.61 428.40,202.40              426.48,204.32 422.54,203.99 420.00,204.00              420.00,204.00 396.00,204.00 396.00,204.00              396.00,204.00 396.00,258.00 396.00,258.00              396.01,266.74 397.47,274.10 407.00,277.20              410.04,278.19 414.82,278.82 418.00,278.54              421.17,278.26 426.77,277.05 429.26,279.60              431.20,281.58 430.99,285.42 431.00,288.00              431.02,292.58 431.79,309.44 429.69,312.49              428.28,314.52 425.25,315.06 423.00,315.63              416.80,317.19 410.39,317.99 404.00,318.00              395.28,318.01 386.40,317.53 378.00,314.96              356.85,308.51 348.10,289.83 348.00,269.00              348.00,269.00 348.00,257.00 348.00,257.00              348.00,257.00 348.00,230.00 348.00,230.00              348.00,230.00 348.00,204.00 348.00,204.00              348.00,204.00 333.00,204.00 333.00,204.00              333.00,204.00 324.60,202.40 324.60,202.40              324.60,202.40 323.00,194.00 323.00,194.00              323.00,194.00 323.00,178.00 323.00,178.00              323.00,178.00 324.60,171.56 324.60,171.56              324.60,171.56 332.00,168.63 332.00,168.63              332.00,168.63 348.00,165.00 348.00,165.00 Z            M 264.11,163.74            C 269.74,162.31 290.81,162.99 298.00,163.00              300.48,163.00 304.59,162.78 306.69,164.17              309.47,166.03 308.99,170.06 309.00,173.00              309.00,173.00 309.00,271.00 309.00,271.00              309.00,271.00 309.00,304.00 309.00,304.00              308.99,306.54 309.32,310.48 307.40,312.40              305.48,314.32 301.54,313.99 299.00,314.00              299.00,314.00 269.00,314.00 269.00,314.00              266.73,313.95 264.31,314.03 262.51,312.40              259.69,309.86 260.01,304.49 260.00,301.00              260.00,301.00 260.00,283.00 260.00,283.00              260.00,283.00 260.00,194.00 260.00,194.00              260.00,189.38 259.45,170.10 260.74,167.11              261.67,164.93 262.32,164.88 264.11,163.74 Z            M 733.00,305.00            C 733.00,305.00 715.00,313.00 715.00,313.00              698.31,318.70 692.19,318.20 675.00,318.00              658.61,317.80 641.79,311.23 633.98,296.00              626.09,280.62 628.00,254.37 628.00,237.00              628.00,237.00 628.00,182.00 628.00,182.00              628.00,178.47 627.09,167.14 629.74,164.99              631.28,163.75 635.06,164.00 637.00,164.00              637.00,164.00 668.00,164.00 668.00,164.00              669.99,164.00 673.81,163.77 675.40,165.02              677.38,166.59 677.00,170.70 677.00,173.00              677.00,173.00 677.00,218.00 677.00,218.00              677.00,218.00 677.00,258.00 677.00,258.00              677.09,265.52 678.75,273.01 686.00,276.84              693.50,280.80 713.28,277.63 718.40,270.79              720.29,268.27 719.99,264.97 720.00,262.00              720.00,262.00 720.00,187.00 720.00,187.00              720.00,187.00 720.00,171.00 720.00,171.00              720.04,169.05 719.90,166.37 721.60,165.02              723.19,163.77 727.01,164.00 729.00,164.00              729.00,164.00 756.00,164.00 756.00,164.00              758.36,164.00 764.51,163.58 766.26,164.99              768.38,166.70 768.00,171.50 768.00,174.00              768.00,174.00 768.00,281.00 768.00,281.00              768.00,281.00 768.00,305.00 768.00,305.00              767.98,307.35 768.19,310.61 766.40,312.40              764.48,314.32 760.54,313.99 758.00,314.00              758.00,314.00 742.00,314.00 742.00,314.00              740.10,313.99 737.14,314.15 735.56,312.98              733.38,311.36 733.21,307.47 733.00,305.00 Z            M 853.00,199.41            C 849.11,200.03 839.26,202.40 836.99,205.64              835.94,207.14 836.03,209.25 836.00,211.00              836.00,211.00 836.00,264.00 836.00,264.00              836.00,266.27 835.78,269.66 837.02,271.61              839.93,276.17 853.75,278.61 859.00,278.91              879.32,280.07 883.80,265.10 884.00,248.00              884.17,232.73 886.59,204.20 867.00,199.41              863.43,198.68 856.73,198.93 853.00,199.41 Z" />
</svg>