<svg xmlns="http://www.w3.org/2000/svg" viewBox="194.47 9.67 501.17 134.86">
  <path id="Selection" fill="#303030" stroke="none" stroke-width="1" d="M 327.00,10.38            C 328.97,10.23 329.93,9.99 332.00,10.38              349.59,11.96 346.56,36.68 329.00,34.80              315.97,33.40 313.13,15.45 327.00,10.38 Z            M 305.00,76.00            C 305.00,91.49 306.63,107.22 297.91,121.00              280.12,149.11 233.81,151.42 211.17,127.91              195.93,112.09 194.76,93.51 195.00,73.00              195.37,41.57 217.89,16.15 250.00,16.00              270.54,15.90 289.16,22.82 299.22,42.00              302.11,47.52 303.69,51.75 304.00,58.00              304.00,58.00 280.00,58.00 280.00,58.00              274.32,38.15 250.30,30.95 234.00,42.93              222.39,51.46 217.70,67.09 218.01,81.00              218.23,90.35 221.30,102.72 227.33,110.00              239.89,125.16 262.45,127.53 275.79,112.00              281.10,105.81 280.84,102.05 283.00,95.00              283.00,95.00 254.00,95.00 254.00,95.00              254.00,95.00 254.00,76.00 254.00,76.00              254.00,76.00 305.00,76.00 305.00,76.00 Z            M 423.00,18.00            C 423.00,18.00 447.00,18.00 447.00,18.00              447.00,18.00 447.00,122.00 447.00,122.00              447.00,122.00 501.00,122.00 501.00,122.00              501.00,122.00 501.00,142.00 501.00,142.00              501.00,142.00 423.00,142.00 423.00,142.00              423.00,142.00 423.00,18.00 423.00,18.00 Z            M 607.00,18.00            C 607.00,18.00 630.00,18.00 630.00,18.00              630.00,18.00 630.00,45.00 630.00,45.00              630.00,45.00 631.00,62.00 631.00,62.00              638.77,42.16 671.87,41.99 686.21,62.00              697.99,78.43 698.03,111.24 686.90,128.00              677.62,141.96 657.25,148.25 642.00,140.62              635.19,137.21 633.42,133.70 629.00,128.00              629.00,128.00 629.00,142.00 629.00,142.00              629.00,142.00 607.00,142.00 607.00,142.00              607.00,142.00 607.00,18.00 607.00,18.00 Z            M 366.00,26.00            C 366.00,26.00 389.00,26.00 389.00,26.00              389.00,26.00 389.00,48.00 389.00,48.00              389.00,48.00 407.00,48.00 407.00,48.00              407.00,48.00 407.00,66.00 407.00,66.00              407.00,66.00 389.00,66.00 389.00,66.00              389.00,66.00 389.00,108.00 389.00,108.00              389.01,112.70 388.73,117.12 392.28,120.77              396.47,125.10 400.79,123.42 406.00,123.00              406.29,126.52 409.43,138.23 407.94,140.44              405.87,143.51 397.38,143.01 394.00,143.00              384.21,142.99 375.57,140.96 369.99,132.00              366.82,126.91 366.03,119.89 366.00,114.00              366.00,114.00 366.00,66.00 366.00,66.00              366.00,66.00 353.00,66.00 353.00,66.00              353.00,66.00 353.00,48.00 353.00,48.00              353.00,48.00 366.00,48.00 366.00,48.00              366.00,48.00 366.00,26.00 366.00,26.00 Z            M 514.00,74.00            C 519.05,41.83 571.10,39.98 586.06,60.04              590.40,65.85 591.91,74.87 592.00,82.00              592.00,82.00 592.00,142.00 592.00,142.00              592.00,142.00 570.00,142.00 570.00,142.00              570.00,142.00 569.00,130.00 569.00,130.00              560.80,147.33 530.99,147.86 518.18,135.68              513.06,130.81 511.08,123.87 511.00,117.00              510.75,95.55 524.66,88.89 544.00,87.07              549.92,86.52 563.93,85.96 567.36,80.87              570.56,76.13 566.14,66.99 556.00,65.33              546.27,63.74 539.81,69.31 535.00,77.00              535.00,77.00 514.00,74.00 514.00,74.00 Z            M 319.00,48.00            C 319.00,48.00 342.00,48.00 342.00,48.00              342.00,48.00 342.00,142.00 342.00,142.00              342.00,142.00 319.00,142.00 319.00,142.00              319.00,142.00 319.00,48.00 319.00,48.00 Z            M 648.00,66.30            C 629.07,69.97 626.70,91.24 630.50,107.00              632.94,117.10 640.83,125.81 652.00,124.66              679.21,121.87 679.65,63.83 648.00,66.30 Z            M 570.00,99.00            C 570.00,99.00 550.00,102.61 550.00,102.61              547.33,103.11 544.46,103.74 542.00,104.92              533.26,109.10 532.24,118.37 538.22,123.35              546.48,130.23 564.23,126.80 568.85,115.00              570.45,110.92 570.00,103.55 570.00,99.00 Z"/>
</svg>