<svg xmlns="http://www.w3.org/2000/svg" viewBox="-0.45 0.32 157.95 151.08">
  <path id="Selection" fill="#303030" stroke="none" stroke-width="1" d="M 30.01,0.82            C 36.99,1.87 37.44,8.10 39.14,14.00              39.14,14.00 46.67,37.00 46.67,37.00              47.48,39.43 48.94,44.74 50.70,46.40              52.62,48.22 55.55,47.98 58.00,48.00              58.00,48.00 98.00,48.00 98.00,48.00              100.72,47.99 104.33,48.32 106.49,46.40              108.45,44.66 109.81,39.57 110.67,37.00              110.67,37.00 118.33,14.00 118.33,14.00              119.78,9.66 120.96,2.37 126.02,1.08              133.37,-0.80 135.88,11.02 137.81,16.00              137.81,16.00 150.42,49.00 150.42,49.00              153.67,57.52 156.89,63.59 157.00,73.00              157.25,95.51 146.51,102.99 130.00,115.37              130.00,115.37 105.00,134.12 105.00,134.12              99.59,138.25 85.15,150.78 79.00,150.90              74.09,151.00 70.70,147.89 67.00,145.13              67.00,145.13 47.00,129.87 47.00,129.87              47.00,129.87 27.00,114.87 27.00,114.87              14.18,105.26 4.82,99.73 1.21,83.00              0.47,79.57 -0.11,76.54 0.09,73.00              0.68,62.77 6.55,49.70 10.40,40.00              10.40,40.00 21.05,12.00 21.05,12.00              23.08,6.58 23.73,1.96 30.01,0.82 Z"/>
</svg>