<svg xmlns="http://www.w3.org/2000/svg" viewBox="-0.5 -0.69 1281 961.19">
  <path id="Selection" fill="#303030" stroke="none" stroke-width="1" d="M 291.00,960.00            C 291.00,960.00 82.00,960.00 82.00,960.00              39.29,959.93 0.07,920.71 0.00,878.00              0.00,878.00 0.00,398.00 0.00,398.00              0.00,398.00 0.00,122.00 0.00,122.00              0.02,111.02 2.56,99.41 6.00,89.00              18.78,50.33 48.43,20.15 87.00,6.69              108.77,-0.90 120.63,-0.26 143.00,0.00              160.03,0.20 183.45,8.79 198.00,17.45              207.47,23.09 216.20,30.03 225.00,36.63              225.00,36.63 273.00,72.63 273.00,72.63              273.00,72.63 540.00,272.87 540.00,272.87              540.00,272.87 610.00,325.37 610.00,325.37              610.00,325.37 630.00,340.37 630.00,340.37              632.02,341.89 636.73,345.75 639.00,346.19              642.37,346.84 646.44,343.04 649.00,341.13              649.00,341.13 671.00,324.63 671.00,324.63              671.00,324.63 762.00,256.37 762.00,256.37              762.00,256.37 1001.00,77.13 1001.00,77.13              1001.00,77.13 1053.00,38.13 1053.00,38.13              1072.34,23.62 1086.34,12.36 1110.00,5.02              1129.97,-1.16 1140.60,-0.23 1161.00,0.00              1174.55,0.16 1194.87,6.70 1207.00,12.75              1239.82,29.13 1262.46,54.07 1274.00,89.00              1277.44,99.41 1279.98,111.02 1280.00,122.00              1280.00,122.00 1280.00,768.00 1280.00,768.00              1280.00,768.00 1280.00,878.00 1280.00,878.00              1279.93,920.80 1240.80,959.93 1198.00,960.00              1198.00,960.00 989.00,960.00 989.00,960.00              989.00,960.00 989.00,467.00 989.00,467.00              989.00,467.00 957.00,490.63 957.00,490.63              957.00,490.63 901.00,532.63 901.00,532.63              901.00,532.63 732.00,659.37 732.00,659.37              732.00,659.37 665.00,709.63 665.00,709.63              665.00,709.63 648.00,722.37 648.00,722.37              648.00,722.37 640.00,726.88 640.00,726.88              640.00,726.88 632.00,722.37 632.00,722.37              632.00,722.37 615.00,709.63 615.00,709.63              615.00,709.63 548.00,659.37 548.00,659.37              548.00,659.37 379.00,532.63 379.00,532.63              379.00,532.63 323.00,490.63 323.00,490.63              323.00,490.63 291.00,467.00 291.00,467.00              291.00,467.00 291.00,960.00 291.00,960.00 Z"/>
</svg>