<svg xmlns="http://www.w3.org/2000/svg" viewBox="80.27 19 340.07 462.09">
  <path id="Selection" fill="#303030" stroke="none" stroke-width="1" d="M 111.00,273.00            C 104.77,277.05 93.47,283.83 86.56,277.35              84.93,275.82 83.74,273.01 82.68,271.00              81.60,268.95 80.54,267.39 80.32,265.00              79.40,255.14 91.89,248.05 100.00,245.92              105.01,244.61 111.72,246.10 111.85,238.98              111.85,238.98 110.17,219.00 110.17,219.00              110.17,219.00 107.00,175.00 107.00,175.00              107.00,175.00 107.00,141.00 107.00,141.00              107.01,135.26 107.83,127.69 108.75,122.00              108.75,122.00 110.40,111.10 110.40,111.10              109.91,107.40 101.35,103.46 98.30,100.54              91.33,93.86 89.79,87.25 90.01,78.00              90.47,59.17 108.19,43.23 127.00,44.51              127.00,44.51 145.00,48.44 145.00,48.44              147.56,48.08 153.50,43.64 156.00,42.05              162.86,37.71 167.48,35.43 175.00,32.45              192.42,25.54 224.31,19.03 243.00,19.00              267.71,18.96 292.31,19.15 316.00,27.34              323.17,29.82 330.45,33.03 337.00,36.86              337.00,36.86 347.58,43.54 347.58,43.54              349.89,44.17 352.84,42.30 355.00,41.46              359.07,39.89 362.64,39.12 367.00,39.01              387.93,38.51 405.23,54.54 403.91,76.00              403.46,83.33 400.13,90.63 394.83,95.70              389.38,100.91 384.14,101.41 383.61,106.04              383.61,106.04 386.39,122.00 386.39,122.00              386.39,122.00 389.96,150.00 389.96,150.00              389.96,150.00 389.96,159.00 389.96,159.00              389.96,159.00 391.00,171.00 391.00,171.00              391.00,171.00 391.00,212.00 391.00,212.00              391.00,212.00 392.00,243.00 392.00,243.00              402.42,243.48 415.20,247.62 419.63,258.00              422.34,264.33 416.97,276.50 410.00,277.77              403.76,278.91 399.46,276.35 394.00,274.00              394.00,274.00 395.00,305.00 395.00,305.00              395.00,305.00 396.00,323.00 396.00,323.00              396.00,323.00 395.00,340.00 395.00,340.00              394.97,357.40 390.83,378.51 385.33,395.00              381.73,405.81 371.90,428.44 362.00,434.00              368.16,442.20 387.17,456.31 376.57,469.96              375.31,471.59 373.67,473.01 372.00,474.21              360.07,482.81 352.18,473.94 344.28,465.00              341.02,461.30 337.65,455.95 332.00,457.21              332.00,457.21 301.00,468.11 301.00,468.11              279.87,473.39 259.59,474.03 238.00,474.00              226.86,473.98 204.87,470.71 194.00,467.85              188.77,466.47 173.90,460.86 170.00,461.37              157.07,463.05 145.82,484.96 131.01,480.49              128.50,479.73 126.74,478.13 124.75,476.50              109.31,463.76 123.74,445.54 138.00,440.00              127.66,425.37 123.10,423.56 116.06,405.00              104.11,373.47 106.83,335.00 109.09,302.00              109.09,302.00 111.00,273.00 111.00,273.00 Z            M 246.00,24.19            C 246.00,24.19 226.00,26.28 226.00,26.28              191.57,30.57 156.11,40.89 134.48,70.00              121.49,87.48 115.21,112.57 113.04,134.00              113.04,134.00 113.04,144.00 113.04,144.00              113.04,144.00 112.00,157.00 112.00,157.00              112.00,157.00 113.00,177.00 113.00,177.00              113.00,177.00 113.91,188.00 113.91,188.00              113.91,188.00 115.83,212.00 115.83,212.00              115.83,212.00 118.00,263.00 118.00,263.00              118.00,263.00 117.09,273.00 117.09,273.00              117.09,273.00 115.04,300.00 115.04,300.00              115.04,300.00 115.04,308.00 115.04,308.00              115.04,308.00 113.00,335.00 113.00,335.00              113.00,335.00 113.00,352.00 113.00,352.00              113.00,352.00 113.91,364.00 113.91,364.00              115.83,390.20 121.84,413.83 141.00,433.00              146.74,438.74 151.03,442.34 158.00,446.55              168.15,452.68 179.55,457.71 191.00,460.85              203.70,464.32 221.91,467.84 235.00,468.00              260.49,468.29 276.91,467.98 302.00,461.63              313.86,458.62 325.43,454.17 336.00,447.99              344.53,442.99 351.07,438.18 357.96,431.00              378.68,409.41 386.08,376.92 388.96,348.00              388.96,348.00 388.96,338.00 388.96,338.00              388.96,338.00 389.96,326.00 389.96,326.00              389.96,326.00 389.96,311.00 389.96,311.00              389.96,311.00 389.00,301.00 389.00,301.00              389.00,301.00 387.00,267.00 387.00,267.00              387.00,267.00 387.00,258.00 387.00,258.00              387.00,258.00 386.00,246.00 386.00,246.00              386.00,246.00 386.00,226.00 386.00,226.00              386.00,226.00 385.00,211.00 385.00,211.00              385.00,211.00 385.00,169.00 385.00,169.00              385.00,169.00 384.00,159.00 384.00,159.00              384.00,159.00 384.00,150.00 384.00,150.00              383.06,137.57 381.05,125.21 378.60,113.00              376.64,103.22 371.81,85.50 367.14,77.00              363.09,69.64 357.84,62.01 351.96,56.01              332.61,36.27 304.88,28.07 278.00,25.92              278.00,25.92 268.00,25.00 268.00,25.00              268.00,25.00 251.00,24.19 251.00,24.19              251.00,24.19 246.00,24.19 246.00,24.19 Z            M 293.00,43.44            C 306.24,41.74 319.69,44.36 329.96,53.32              344.73,66.21 348.53,92.84 337.23,109.00              326.50,124.34 310.60,128.20 293.00,128.00              260.42,127.61 241.84,94.10 257.31,66.00              264.93,52.16 278.15,46.18 293.00,43.44 Z            M 381.00,97.00            C 402.24,90.23 402.33,64.31 386.99,51.33              380.11,45.51 370.78,43.55 362.00,45.53              362.00,45.53 354.00,48.00 354.00,48.00              354.00,48.00 363.00,61.00 363.00,61.00              369.76,60.54 375.88,63.16 375.95,71.00              375.97,73.93 374.46,75.79 374.81,79.00              375.07,81.30 379.83,94.34 381.00,97.00 Z            M 183.00,48.44            C 197.78,46.54 212.64,48.72 223.96,59.18              240.66,74.61 240.27,105.89 222.99,120.68              214.61,127.84 204.72,131.03 194.00,132.57              188.45,133.37 185.42,132.87 180.00,131.92              157.28,127.92 144.75,111.70 145.00,89.00              145.07,83.53 146.01,78.00 148.32,73.00              155.00,58.61 167.93,51.26 183.00,48.44 Z            M 293.00,49.29            C 283.17,50.92 273.05,55.29 266.47,63.04              251.74,80.37 254.82,105.52 275.00,117.12              281.05,120.60 288.08,122.15 295.00,122.68              308.64,123.72 325.33,116.50 332.89,105.00              343.86,88.32 336.69,62.05 319.00,52.99              311.00,48.90 301.77,48.46 293.00,49.29 Z            M 140.00,54.00            C 125.58,46.66 110.04,50.80 100.64,64.00              90.54,78.16 95.80,96.98 113.00,102.00              114.37,98.87 117.71,91.22 116.65,88.00              115.35,84.02 108.78,80.78 112.18,74.00              116.88,64.63 124.64,68.94 127.91,67.68              130.92,66.52 137.94,56.97 140.00,54.00 Z            M 188.00,53.29            C 174.10,55.41 161.96,59.99 154.53,73.00              152.11,77.23 150.54,84.13 150.18,89.00              149.98,91.85 150.43,94.22 150.92,97.00              154.16,115.44 168.46,126.78 187.00,127.00              200.39,127.15 213.65,123.64 222.67,112.99              234.05,99.54 233.42,76.60 220.91,64.09              212.73,55.92 199.33,52.24 188.00,53.29 Z            M 275.00,75.57            C 293.53,75.25 292.07,103.55 275.00,101.89              262.48,100.67 258.49,79.40 275.00,75.57 Z            M 165.00,79.65            C 167.88,79.05 170.05,78.72 173.00,79.65              187.17,83.63 183.39,107.66 168.00,105.63              155.78,104.02 152.31,86.53 165.00,79.65 Z            M 281.26,88.74            C 277.23,91.89 280.08,96.11 282.74,95.26              284.95,94.55 286.49,89.01 281.26,88.74 Z            M 174.30,92.74            C 170.41,95.73 173.33,98.99 175.91,98.26              178.57,97.49 179.80,93.00 174.30,92.74 Z            M 246.00,181.00            C 244.62,182.70 244.00,183.74 241.96,184.83              231.76,190.23 225.95,179.24 224.46,171.00              224.00,168.45 224.20,164.27 222.98,162.27              220.96,158.98 214.43,158.43 213.19,149.00              212.28,142.13 214.46,135.10 220.09,130.80              220.09,130.80 227.79,126.31 227.79,126.31              231.68,123.21 231.12,119.63 238.00,116.53              245.20,113.28 256.65,112.93 262.87,118.39              266.02,121.17 266.17,123.65 269.22,126.47              272.65,129.64 277.82,131.03 282.47,137.01              290.87,147.82 283.15,164.32 269.00,161.00              269.00,161.00 268.13,162.00 268.13,162.00              269.13,165.99 269.77,175.12 268.13,179.00              265.87,185.17 257.96,188.24 252.00,185.43              249.54,184.27 247.99,182.77 246.00,181.00 Z            M 230.00,132.89            C 218.78,134.58 213.76,150.32 223.10,154.26              230.58,157.42 241.95,149.31 251.00,150.18              260.63,151.09 267.92,157.58 274.00,155.40              276.14,154.63 278.05,152.89 279.26,150.98              283.91,143.62 274.15,135.50 268.00,133.10              262.05,130.77 258.88,135.78 249.00,136.83              239.12,137.87 236.89,134.47 230.00,132.89 Z            M 244.00,156.00            C 240.66,157.11 232.07,159.09 230.60,162.27              227.44,169.14 234.70,186.72 242.40,176.77              244.96,173.47 244.00,160.60 244.00,156.00 Z            M 251.00,156.00            C 251.00,156.00 250.02,170.00 250.02,170.00              250.31,180.21 257.73,182.26 261.40,178.35              263.50,176.12 263.03,170.94 263.00,168.00              262.88,158.54 260.24,156.83 251.00,156.00 Z            M 415.00,264.00            C 412.69,253.15 401.92,249.46 392.00,249.00              392.02,251.41 392.89,263.13 393.60,264.82              396.15,270.87 405.41,272.57 411.00,271.00              409.82,268.60 403.21,260.38 412.02,262.91              412.02,262.91 415.00,264.00 415.00,264.00 Z            M 111.00,250.00            C 100.55,251.90 89.50,253.17 86.00,265.00              91.31,264.04 97.58,263.84 90.00,270.00              90.54,271.55 90.57,272.61 92.31,273.39              96.18,275.12 107.72,268.99 110.26,266.23              113.15,263.10 112.08,253.82 111.00,250.00 Z            M 372.00,466.00            C 376.04,458.88 369.90,451.04 364.96,446.02              363.07,444.09 359.93,440.78 357.00,441.02              357.00,441.02 341.00,451.00 341.00,451.00              343.25,455.75 345.42,457.23 348.83,461.00              354.48,467.26 357.63,473.04 367.00,471.00              367.00,471.00 362.15,458.16 362.15,458.16              362.31,455.92 364.51,455.54 366.62,457.37              368.24,458.78 370.79,463.88 372.00,466.00 Z            M 163.00,456.00            C 163.00,456.00 144.00,444.21 144.00,444.21              140.76,443.49 137.39,446.57 135.00,448.42              127.40,454.33 124.10,457.13 124.00,467.00              129.13,464.04 131.11,456.92 134.72,458.34              136.54,459.13 135.44,461.73 134.72,463.00              133.50,465.83 129.25,470.35 131.70,473.34              134.09,476.68 138.35,474.62 141.00,473.34              141.00,473.34 163.00,456.00 163.00,456.00 Z"/>
</svg>