<svg xmlns="http://www.w3.org/2000/svg" viewBox="102.5 324.5 857.06 321">
  <path id="go-lang" fill="#303030" stroke="none" stroke-width="1"
    d="M 633.00,547.00            C 621.35,564.90 618.06,572.16 602.83,589.00              582.24,611.77 553.49,629.16 524.00,637.57              460.15,655.79 387.55,637.76 351.06,579.00              344.92,569.11 340.04,558.21 336.86,547.00              334.12,537.32 331.12,521.97 331.00,512.00              330.72,488.01 331.49,472.06 339.69,449.00              353.94,408.97 386.19,370.50 423.00,349.43              438.53,340.54 454.69,334.45 472.00,330.13              481.84,327.67 496.95,325.02 507.00,325.00              507.00,325.00 526.00,325.00 526.00,325.00              553.62,325.04 584.87,338.08 606.00,355.46              606.00,355.46 618.00,367.00 618.00,367.00              626.06,375.16 630.63,382.26 636.40,392.00              638.52,395.59 642.71,403.06 643.45,407.00              644.99,415.13 632.78,415.97 627.00,417.58              627.00,417.58 586.00,428.42 586.00,428.42              586.00,428.42 564.00,433.72 564.00,433.72              558.24,433.70 555.33,428.78 551.83,425.01              548.47,421.40 544.22,418.03 540.00,415.46              522.43,404.76 503.57,402.52 484.00,408.44              476.24,410.78 468.75,414.93 462.00,419.34              437.67,435.27 423.30,457.13 419.85,486.00              419.20,491.43 418.63,495.43 419.17,501.00              419.99,509.50 422.45,519.37 426.27,527.00              436.89,548.25 455.78,560.38 479.00,563.15              482.47,563.57 484.33,564.12 488.00,563.91              500.35,563.21 512.20,559.66 523.00,553.69              538.57,545.09 545.60,534.43 556.00,521.00              556.00,521.00 480.00,521.00 480.00,521.00              474.54,520.99 468.21,521.11 467.51,514.00              467.08,509.57 472.10,499.43 474.00,495.00              474.00,495.00 486.25,469.00 486.25,469.00              488.46,464.57 490.54,459.55 495.02,456.93              498.54,454.87 503.05,455.01 507.00,455.00              507.00,455.00 625.00,455.00 625.00,455.00              627.21,455.00 630.71,455.22 632.58,453.98              634.78,452.52 635.87,448.42 636.81,446.00              636.81,446.00 644.44,429.00 644.44,429.00              657.67,404.84 675.08,382.55 697.00,365.65              719.51,348.30 745.26,337.95 773.00,332.40              818.62,323.27 863.17,326.75 902.00,354.58              913.96,363.15 923.94,372.25 932.87,384.00              940.27,393.73 946.27,404.55 950.58,416.00              955.10,428.03 958.85,448.15 959.00,461.00              959.22,480.28 959.11,494.05 954.12,513.00              942.29,557.86 908.87,596.75 869.00,619.57              842.73,634.61 814.98,641.90 785.00,644.09              785.00,644.09 774.00,645.00 774.00,645.00              726.69,645.22 680.05,623.25 651.88,585.00              642.87,572.76 637.78,561.31 633.00,547.00 Z            M 801.00,405.16            C 761.47,411.09 735.03,427.20 720.42,466.00              717.57,473.59 715.10,483.89 715.00,492.00              715.00,492.00 715.00,497.00 715.00,497.00              715.06,533.81 746.58,563.57 783.00,564.00              824.65,564.48 864.19,532.92 872.55,492.00              875.18,479.15 875.28,465.60 871.25,453.00              861.97,423.94 837.18,406.21 807.00,405.16              807.00,405.16 801.00,405.16 801.00,405.16 Z            M 165.00,421.00            C 167.13,416.01 172.82,407.72 178.00,405.74              181.28,404.48 199.24,405.00 204.00,405.00              204.00,405.00 289.00,405.00 289.00,405.00              297.75,405.00 324.28,404.09 331.00,406.00              329.58,410.46 325.17,418.60 320.96,420.83              317.14,422.85 298.43,422.00 293.00,422.00              293.00,422.00 207.00,422.00 207.00,422.00              198.25,422.00 171.72,422.91 165.00,421.00 Z            M 103.00,460.00            C 104.06,454.95 109.16,446.76 114.09,444.74              116.60,443.71 123.03,444.00 126.00,444.00              126.00,444.00 150.00,444.00 150.00,444.00              150.00,444.00 280.00,444.00 280.00,444.00              280.00,444.00 295.00,443.00 295.00,443.00              298.01,442.97 306.35,442.35 308.32,444.60              309.88,446.40 308.94,449.01 308.32,451.00              305.74,459.38 304.36,459.98 296.00,460.00              296.00,460.00 103.00,460.00 103.00,460.00 Z            M 203.00,497.00            C 207.08,487.53 207.92,482.06 219.00,482.00              219.00,482.00 292.00,482.00 292.00,482.00              294.27,482.00 298.45,481.63 299.97,483.60              301.74,485.89 300.40,496.07 297.69,497.40              296.21,498.13 292.71,498.00 291.00,498.00              291.00,498.00 267.00,498.00 267.00,498.00              267.00,498.00 241.00,498.00 241.00,498.00              232.60,498.00 209.72,498.91 203.00,497.00 Z" />
</svg>