<svg xmlns="http://www.w3.org/2000/svg" viewBox="89.49 42.21 1004.57 211.33">
  <path id="godaddy-wordmark" fill="#303030" stroke="none" stroke-width="1"
    d="M 146.00,43.44            C 159.65,41.69 174.05,43.08 187.00,47.69              192.63,49.70 196.69,51.58 202.00,54.26              204.64,55.59 206.92,57.20 210.00,56.52              210.00,56.52 221.00,51.26 221.00,51.26              225.73,48.98 231.93,46.85 237.00,45.43              247.06,42.60 253.82,42.95 264.00,43.00              279.65,43.07 296.23,50.52 306.83,62.01              320.45,76.78 326.77,98.16 327.00,118.00              327.61,172.54 288.06,233.30 235.00,249.28              222.27,253.11 216.00,253.15 203.00,253.00              185.77,252.79 166.06,244.21 152.00,234.66              114.65,209.28 89.47,162.32 90.00,117.00              90.42,81.05 108.97,50.28 146.00,43.44 Z            M 189.00,73.00            C 166.74,60.38 137.75,60.11 121.90,83.00              118.32,88.17 116.03,93.93 114.48,100.00              108.17,124.66 115.16,153.30 127.58,175.00              131.75,182.30 137.39,191.83 144.00,197.00              137.79,162.34 147.22,129.06 166.52,100.00              174.93,87.33 180.01,83.63 189.00,73.00 Z            M 273.00,197.00            C 278.90,192.12 284.85,182.71 288.72,176.00              291.81,170.63 294.72,164.79 296.94,159.00              301.49,147.09 305.27,130.76 304.99,118.00              304.54,98.23 296.38,76.20 277.00,67.88              272.42,65.91 265.98,64.70 261.00,64.32              246.92,63.25 228.49,71.39 217.00,79.00              184.01,100.86 163.54,140.65 164.00,180.00              164.33,207.51 180.58,231.33 210.00,231.00              215.06,230.94 218.21,230.29 223.00,228.64              246.22,220.64 253.03,196.00 253.00,174.00              252.98,162.61 250.57,152.73 247.00,142.00              247.00,142.00 226.00,154.68 226.00,154.68              223.53,156.24 217.74,160.19 215.04,160.44              209.94,160.92 201.84,147.67 204.78,143.33              206.26,141.13 214.34,136.46 217.00,134.81              217.00,134.81 242.00,119.19 242.00,119.19              244.83,117.44 251.85,112.40 254.96,112.59              260.28,112.90 265.08,127.46 266.66,132.00              275.38,157.13 276.45,170.85 273.00,197.00 Z            M 473.00,194.00            C 469.58,197.39 467.16,199.95 463.00,202.53              437.78,218.18 401.70,212.26 383.29,189.00              367.03,168.46 366.72,134.57 381.09,113.00              387.05,104.06 393.67,98.62 403.00,93.44              412.19,88.33 424.55,86.02 435.00,86.00              452.52,85.97 471.82,91.07 483.54,105.01              487.51,109.75 497.19,121.58 488.94,126.10              485.45,128.01 473.81,132.57 470.10,131.67              466.82,130.87 465.39,127.45 463.47,125.00              460.82,121.61 457.67,118.55 454.00,116.27              435.59,104.84 411.41,112.46 402.32,132.00              397.05,143.33 397.53,159.62 404.80,170.00              417.90,188.72 445.91,192.23 461.00,174.00              457.39,174.00 447.02,174.82 444.60,172.40              442.26,170.06 442.26,156.94 444.60,154.60              446.52,152.68 450.46,153.01 453.00,153.00              453.00,153.00 483.00,153.00 483.00,153.00              485.54,153.00 492.55,152.56 494.40,154.02              496.38,155.59 496.00,159.70 496.00,162.00              496.00,162.00 496.00,195.00 496.00,195.00              496.00,198.13 496.64,205.17 494.40,207.40              492.20,209.60 485.09,209.04 482.00,209.00              471.58,208.85 473.00,205.52 473.00,194.00 Z            M 601.31,89.02            C 606.45,87.07 623.52,88.00 630.00,88.00              630.00,88.00 652.00,88.00 652.00,88.00              672.76,88.03 692.60,96.98 703.77,115.00              711.64,127.70 712.16,138.63 712.00,153.00              711.80,170.08 703.47,186.05 690.00,196.47              679.26,204.79 663.46,208.94 650.00,209.00              650.00,209.00 607.00,209.00 607.00,209.00              598.85,208.85 599.01,206.22 599.00,199.00              599.00,199.00 599.00,118.00 599.00,118.00              599.00,118.00 599.00,97.00 599.00,97.00              599.03,93.10 598.59,91.94 601.31,89.02 Z            M 879.00,131.00            C 879.00,131.00 879.00,97.00 879.00,97.00              879.07,86.88 881.23,87.90 896.00,88.00              898.35,88.02 901.61,87.81 903.40,89.60              905.32,91.52 904.99,95.46 905.00,98.00              905.00,98.00 905.00,178.00 905.00,178.00              905.00,178.00 905.00,201.00 905.00,201.00              904.96,203.14 905.04,205.77 903.40,207.40              901.77,209.04 899.14,208.96 897.00,209.00              893.33,209.06 883.26,209.78 880.74,207.26              879.25,205.78 879.23,203.92 879.00,202.00              861.79,217.61 834.93,212.36 821.79,194.00              813.89,182.97 813.85,174.82 814.00,162.00              814.17,147.59 823.06,132.91 836.00,126.38              842.43,123.13 849.86,121.85 857.00,122.01              865.87,122.22 872.44,125.13 879.00,131.00 Z            M 976.00,130.00            C 976.00,130.00 976.00,97.00 976.00,97.00              976.15,86.46 979.37,87.97 993.00,88.00              994.99,88.00 998.81,87.77 1000.40,89.02              1002.38,90.59 1002.00,94.70 1002.00,97.00              1002.00,97.00 1002.00,183.00 1002.00,183.00              1002.00,183.00 1002.00,201.00 1002.00,201.00              1001.96,203.14 1002.04,205.77 1000.40,207.40              998.48,209.32 994.54,208.99 992.00,209.00              980.99,209.02 977.33,210.47 977.00,201.00              974.42,203.51 972.21,205.84 969.00,207.59              953.09,216.26 930.19,209.00 919.76,195.00              904.13,174.02 908.95,139.24 933.00,126.63              939.66,123.14 946.54,121.84 954.00,122.01              963.84,122.24 968.07,124.78 976.00,130.00 Z            M 626.00,184.00            C 637.96,184.00 656.68,185.79 667.00,180.10              688.03,168.50 690.43,133.05 670.99,119.04              658.49,110.04 640.72,112.00 626.00,112.00              626.00,112.00 626.00,184.00 626.00,184.00 Z            M 540.00,122.44            C 555.08,120.51 571.13,124.63 581.70,136.09              591.44,146.64 593.16,156.31 593.00,170.00              592.80,186.35 582.53,200.02 568.00,206.88              559.72,210.79 553.92,211.10 545.00,211.00              525.74,210.77 508.31,197.73 503.29,179.00              501.84,173.61 501.94,169.48 502.00,164.00              502.07,158.16 503.41,152.27 505.98,147.00              512.95,132.68 524.72,125.30 540.00,122.44 Z            M 782.00,202.00            C 773.67,209.55 768.01,211.12 757.00,211.00              749.92,210.92 743.10,209.19 737.00,205.52              715.86,192.83 709.72,161.37 723.11,141.00              735.95,121.46 763.90,114.82 782.00,131.00              783.11,121.62 791.35,123.90 799.00,124.00              801.36,124.04 804.46,123.94 806.26,125.74              808.35,127.82 808.00,132.24 808.00,135.00              808.00,135.00 808.00,200.00 808.00,200.00              807.96,202.37 808.04,205.58 806.26,207.40              804.65,209.05 802.13,208.96 800.00,209.00              796.09,209.07 785.29,210.08 783.02,206.69              782.09,205.28 782.13,203.60 782.00,202.00 Z            M 1045.00,209.00            C 1045.00,209.00 1040.00,209.00 1040.00,209.00              1030.05,208.95 1030.18,206.83 1026.42,194.00              1026.42,194.00 1013.00,151.00 1013.00,151.00              1011.66,146.94 1006.80,132.41 1007.18,129.04              1007.83,123.32 1013.68,124.01 1018.00,124.00              1021.37,123.99 1030.00,123.46 1032.58,125.17              1035.07,126.82 1036.07,131.26 1036.86,134.00              1036.86,134.00 1042.58,154.00 1042.58,154.00              1042.58,154.00 1052.00,186.00 1052.00,186.00              1052.00,186.00 1064.15,139.00 1064.15,139.00              1066.58,130.01 1065.99,124.15 1077.00,124.00              1077.00,124.00 1083.00,124.00 1083.00,124.00              1085.70,124.00 1090.37,123.68 1092.48,125.74              1094.48,127.87 1093.25,131.50 1092.48,134.00              1092.48,134.00 1087.02,153.00 1087.02,153.00              1087.02,153.00 1070.71,209.00 1070.71,209.00              1067.21,221.16 1064.45,232.66 1053.00,240.03              1043.61,246.08 1029.40,246.14 1019.00,242.96              1015.13,241.78 1008.15,239.13 1006.84,234.91              1005.64,231.03 1010.36,223.97 1012.90,221.23              1019.48,214.13 1023.37,222.86 1032.00,222.82              1040.75,222.77 1042.15,215.46 1045.00,209.00 Z            M 545.00,146.26            C 538.09,147.88 533.31,150.40 530.00,157.00              523.68,169.58 531.46,185.89 546.00,186.90              572.25,188.73 574.84,148.67 549.00,146.26              547.38,146.04 546.56,146.19 545.00,146.26 Z            M 761.00,146.30            C 755.65,147.34 752.00,148.66 748.39,153.04              738.64,164.90 745.03,189.40 766.00,186.82              790.38,183.82 787.85,144.23 761.00,146.30 Z            M 857.00,146.33            C 833.46,151.98 837.38,186.01 859.00,186.96              883.96,188.06 886.20,154.93 868.00,147.48              864.08,145.88 861.11,145.88 857.00,146.33 Z            M 954.00,146.33            C 930.72,152.06 934.86,186.01 956.00,186.96              980.83,188.08 983.70,155.12 965.00,147.48              961.08,145.88 958.11,145.88 954.00,146.33 Z" />
</svg>