<svg xmlns="http://www.w3.org/2000/svg" viewBox="89.49 42.21 238.02 211.33">
  <path id="go-daddy" fill="#303030" stroke="none" stroke-width="1"
    d="M 146.00,43.44            C 159.65,41.69 174.05,43.08 187.00,47.69              192.63,49.70 196.69,51.58 202.00,54.26              204.64,55.59 206.92,57.20 210.00,56.52              210.00,56.52 221.00,51.26 221.00,51.26              225.73,48.98 231.93,46.85 237.00,45.43              247.06,42.60 253.82,42.95 264.00,43.00              279.65,43.07 296.23,50.52 306.83,62.01              320.45,76.78 326.77,98.16 327.00,118.00              327.61,172.54 288.06,233.30 235.00,249.28              222.27,253.11 216.00,253.15 203.00,253.00              185.77,252.79 166.06,244.21 152.00,234.66              114.65,209.28 89.47,162.32 90.00,117.00              90.42,81.05 108.97,50.28 146.00,43.44 Z            M 189.00,73.00            C 166.74,60.38 137.75,60.11 121.90,83.00              118.32,88.17 116.03,93.93 114.48,100.00              108.17,124.66 115.16,153.30 127.58,175.00              131.75,182.30 137.39,191.83 144.00,197.00              137.79,162.34 147.22,129.06 166.52,100.00              174.93,87.33 180.01,83.63 189.00,73.00 Z            M 273.00,197.00            C 278.90,192.12 284.85,182.71 288.72,176.00              291.81,170.63 294.72,164.79 296.94,159.00              301.49,147.09 305.27,130.76 304.99,118.00              304.54,98.23 296.38,76.20 277.00,67.88              272.42,65.91 265.98,64.70 261.00,64.32              246.92,63.25 228.49,71.39 217.00,79.00              184.01,100.86 163.54,140.65 164.00,180.00              164.33,207.51 180.58,231.33 210.00,231.00              215.06,230.94 218.21,230.29 223.00,228.64              246.22,220.64 253.03,196.00 253.00,174.00              252.98,162.61 250.57,152.73 247.00,142.00              247.00,142.00 226.00,154.68 226.00,154.68              223.53,156.24 217.74,160.19 215.04,160.44              209.94,160.92 201.84,147.67 204.78,143.33              206.26,141.13 214.34,136.46 217.00,134.81              217.00,134.81 242.00,119.19 242.00,119.19              244.83,117.44 251.85,112.40 254.96,112.59              260.28,112.90 265.08,127.46 266.66,132.00              275.38,157.13 276.45,170.85 273.00,197.00 Z" />
</svg>