<svg xmlns="http://www.w3.org/2000/svg" viewBox="-0.5 0.12 1025 1024.38">
  <path id="google-scholar" fill="#303030" stroke="none" stroke-width="1"
    d="M 0.00,407.00            C 1.62,401.95 4.95,400.21 9.00,397.00              9.00,397.00 28.00,382.00 28.00,382.00              28.00,382.00 104.00,321.80 104.00,321.80              104.00,321.80 281.00,181.79 281.00,181.79              281.00,181.79 396.00,90.65 396.00,90.65              396.00,90.65 480.00,24.20 480.00,24.20              480.00,24.20 502.00,6.80 502.00,6.80              504.35,4.92 509.00,0.62 512.00,0.62              515.02,0.62 519.62,4.92 522.00,6.79              522.00,6.79 544.00,24.20 544.00,24.20              544.00,24.20 629.00,91.40 629.00,91.40              629.00,91.40 920.00,321.80 920.00,321.80              920.00,321.80 996.00,382.00 996.00,382.00              996.00,382.00 1015.00,397.00 1015.00,397.00              1019.05,400.24 1022.37,401.92 1024.00,407.00              1024.00,407.00 964.00,455.39 964.00,455.39              964.00,455.39 847.00,550.61 847.00,550.61              847.00,550.61 805.00,584.80 805.00,584.80              805.00,584.80 784.00,601.00 784.00,601.00              789.72,611.09 794.58,625.80 798.02,637.00              804.57,658.28 808.54,679.82 810.09,702.00              810.09,702.00 811.00,714.00 811.00,714.00              811.00,714.00 811.00,737.00 811.00,737.00              810.98,747.45 808.81,764.47 807.08,775.00              794.80,849.70 753.68,918.59 693.00,964.11              652.40,994.56 606.23,1014.03 556.00,1021.27              547.12,1022.55 536.92,1023.99 528.00,1024.00              528.00,1024.00 496.00,1024.00 496.00,1024.00              479.34,1023.97 454.34,1019.46 438.00,1015.37              353.83,994.33 282.60,936.58 243.81,859.00              226.83,825.04 216.56,786.82 213.91,749.00              213.91,749.00 213.00,737.00 213.00,737.00              213.00,737.00 213.00,712.00 213.00,712.00              213.00,712.00 213.91,702.00 213.91,702.00              215.63,677.38 220.21,655.57 227.43,632.00              227.43,632.00 235.60,610.00 235.60,610.00              236.58,607.60 238.75,603.70 237.77,601.17              236.79,598.66 223.00,588.05 220.00,585.61              220.00,585.61 173.00,547.39 173.00,547.39              173.00,547.39 59.00,454.58 59.00,454.58              59.00,454.58 0.00,407.00 0.00,407.00 Z" />
</svg>