<svg xmlns="http://www.w3.org/2000/svg" viewBox="-0.5 -0.5 2008 2049">
  <path id="google" fill="#303030" stroke="none" stroke-width="1"
    d="M 1989.00,837.00            C 1989.00,837.00 1992.59,860.00 1992.59,860.00              1992.59,860.00 1996.73,888.00 1996.73,888.00              1996.73,888.00 2003.00,941.00 2003.00,941.00              2003.00,941.00 2003.00,949.00 2003.00,949.00              2003.00,949.00 2005.00,970.00 2005.00,970.00              2005.00,970.00 2006.00,995.00 2006.00,995.00              2006.00,995.00 2007.00,1012.00 2007.00,1012.00              2007.00,1012.00 2007.00,1086.00 2007.00,1086.00              2007.00,1086.00 2006.00,1101.00 2006.00,1101.00              2006.00,1101.00 2005.00,1127.00 2005.00,1127.00              2005.00,1127.00 2004.09,1137.00 2004.09,1137.00              2004.09,1137.00 2002.17,1161.00 2002.17,1161.00              1998.65,1197.31 1993.91,1233.07 1987.42,1269.00              1959.33,1424.76 1894.85,1574.47 1796.79,1699.00              1719.06,1797.72 1618.66,1880.13 1507.00,1937.74              1406.06,1989.82 1300.16,2021.10 1188.00,2037.27              1158.17,2041.57 1128.06,2044.73 1098.00,2046.04              1098.00,2046.04 1087.00,2047.00 1087.00,2047.00              1087.00,2047.00 1065.00,2048.00 1065.00,2048.00              1065.00,2048.00 987.00,2048.00 987.00,2048.00              987.00,2048.00 966.00,2047.00 966.00,2047.00              966.00,2047.00 956.00,2046.09 956.00,2046.09              956.00,2046.09 920.00,2043.17 920.00,2043.17              873.83,2038.55 828.17,2030.83 783.00,2020.12              606.47,1978.25 443.78,1886.05 313.00,1760.96              313.00,1760.96 280.96,1728.00 280.96,1728.00              142.00,1582.71 46.70,1391.25 13.43,1193.00              7.81,1159.47 4.23,1125.85 1.91,1092.00              1.91,1092.00 1.00,1082.00 1.00,1082.00              1.00,1082.00 0.00,1061.00 0.00,1061.00              0.00,1061.00 0.00,987.00 0.00,987.00              0.00,987.00 1.00,966.00 1.00,966.00              1.00,966.00 1.91,956.00 1.91,956.00              1.91,956.00 6.84,902.00 6.84,902.00              13.40,840.69 27.69,778.82 45.98,720.00              94.48,563.96 183.50,416.50 299.00,301.00              299.00,301.00 322.00,278.09 322.00,278.09              413.84,192.53 515.25,126.00 631.00,77.42              706.94,45.56 797.32,20.47 879.00,9.72              904.30,6.39 929.52,3.07 955.00,1.96              955.00,1.96 966.00,1.00 966.00,1.00              966.00,1.00 987.00,0.00 987.00,0.00              987.00,0.00 1063.00,0.00 1063.00,0.00              1063.00,0.00 1083.00,1.00 1083.00,1.00              1083.00,1.00 1094.00,1.96 1094.00,1.96              1132.38,3.63 1172.15,8.75 1210.00,15.58              1343.85,39.71 1466.69,88.10 1580.00,163.67              1614.87,186.92 1648.24,212.53 1680.00,239.87              1680.00,239.87 1702.00,259.42 1702.00,259.42              1704.55,261.66 1709.19,265.08 1707.83,269.00              1706.83,271.91 1693.10,284.90 1690.00,288.00              1690.00,288.00 1645.00,333.00 1645.00,333.00              1645.00,333.00 1485.00,493.00 1485.00,493.00              1485.00,493.00 1435.00,543.00 1435.00,543.00              1435.00,543.00 1422.00,555.98 1422.00,555.98              1420.46,557.44 1418.28,559.78 1416.00,559.81              1413.09,559.84 1407.16,553.99 1405.00,551.98              1405.00,551.98 1380.00,530.61 1380.00,530.61              1351.59,507.56 1317.73,485.61 1285.00,469.25              1229.87,441.68 1174.07,423.53 1113.00,414.73              1113.00,414.73 1067.00,409.91 1067.00,409.91              1067.00,409.91 1057.00,408.96 1057.00,408.96              1057.00,408.96 1045.00,408.96 1045.00,408.96              1045.00,408.96 1033.00,408.00 1033.00,408.00              1033.00,408.00 1016.00,408.00 1016.00,408.00              1016.00,408.00 1004.00,408.96 1004.00,408.96              1004.00,408.96 992.00,408.96 992.00,408.96              992.00,408.96 982.00,409.91 982.00,409.91              982.00,409.91 952.00,412.85 952.00,412.85              913.79,417.41 876.48,426.17 840.00,438.33              655.06,499.98 513.99,646.53 451.08,830.00              438.93,865.42 430.07,902.95 424.73,940.00              424.73,940.00 419.91,987.00 419.91,987.00              419.91,987.00 419.00,999.00 419.00,999.00              419.00,999.00 419.00,1013.00 419.00,1013.00              419.00,1013.00 418.08,1024.00 418.08,1024.00              418.08,1024.00 418.98,1033.00 418.98,1033.00              418.98,1033.00 418.98,1051.00 418.98,1051.00              418.98,1051.00 420.83,1074.00 420.83,1074.00              425.47,1121.92 433.99,1164.08 448.66,1210.00              457.75,1238.48 468.21,1266.05 481.26,1293.00              543.03,1420.63 649.94,1527.43 779.00,1586.69              831.84,1610.96 888.34,1627.69 946.00,1635.28              946.00,1635.28 983.00,1639.09 983.00,1639.09              983.00,1639.09 993.00,1640.04 993.00,1640.04              993.00,1640.04 1006.00,1640.04 1006.00,1640.04              1006.00,1640.04 1017.00,1641.00 1017.00,1641.00              1017.00,1641.00 1059.00,1640.00 1059.00,1640.00              1059.00,1640.00 1070.00,1639.04 1070.00,1639.04              1098.18,1637.81 1126.27,1633.81 1154.00,1628.61              1267.14,1607.39 1376.98,1552.73 1455.91,1468.00              1488.70,1432.81 1515.34,1393.23 1536.26,1350.00              1551.02,1319.51 1569.50,1268.36 1574.00,1235.00              1574.00,1235.00 1023.00,1235.00 1023.00,1235.00              1023.00,1235.00 1023.00,837.00 1023.00,837.00              1023.00,837.00 1989.00,837.00 1989.00,837.00 Z" />
</svg>