<svg xmlns="http://www.w3.org/2000/svg" viewBox="0.5 1.5 1271 419">
  <path id="Selection" fill="#303030" stroke="none" stroke-width="1" d="M 316.00,150.00            C 316.00,150.00 317.96,167.00 317.96,167.00              317.96,167.00 317.96,183.00 317.96,183.00              317.96,211.72 308.48,243.51 291.96,267.00              283.49,279.05 268.23,293.34 256.00,301.66              239.72,312.72 223.24,319.29 204.00,323.20              174.35,329.22 142.84,328.26 114.00,318.65              52.17,298.04 7.14,243.27 1.92,178.00              1.92,178.00 1.00,166.00 1.00,166.00              0.89,96.74 43.36,36.77 108.00,12.19              121.07,7.22 142.07,2.17 156.00,2.00              156.00,2.00 175.00,2.00 175.00,2.00              195.19,2.03 223.28,9.71 241.00,19.31              250.51,24.46 259.64,30.60 268.00,37.46              268.00,37.46 278.00,46.00 278.00,46.00              278.00,46.00 262.00,63.00 262.00,63.00              262.00,63.00 245.00,79.00 245.00,79.00              235.87,69.96 225.70,62.67 214.00,57.31              149.49,27.74 71.68,64.79 54.37,134.00              52.44,141.72 49.74,158.30 50.04,166.00              52.06,218.04 84.60,262.32 135.00,277.28              142.30,279.45 158.47,281.92 166.00,281.92              166.00,281.92 174.00,281.09 174.00,281.09              184.78,280.35 193.57,279.28 204.00,275.97              240.63,264.36 267.83,233.81 271.00,195.00              271.00,195.00 166.00,195.00 166.00,195.00              166.00,195.00 166.00,150.00 166.00,150.00              166.00,150.00 316.00,150.00 316.00,150.00 Z            M 1014.00,14.00            C 1014.00,14.00 1059.00,14.00 1059.00,14.00              1059.00,14.00 1059.00,321.00 1059.00,321.00              1059.00,321.00 1014.00,321.00 1014.00,321.00              1014.00,321.00 1014.00,14.00 1014.00,14.00 Z            M 432.00,117.42            C 442.36,116.16 457.87,118.04 468.00,120.63              481.41,124.06 493.97,129.80 505.00,138.24              564.56,183.78 556.88,280.47 490.00,315.22              473.42,323.83 454.52,327.21 436.00,327.00              426.65,326.89 413.91,324.26 405.00,321.33              371.26,310.22 346.54,283.44 337.89,249.00              334.76,236.53 334.86,227.62 335.00,215.00              335.19,198.71 342.04,178.83 350.46,165.00              364.63,141.73 388.72,125.94 415.00,119.89              415.00,119.89 432.00,117.42 432.00,117.42 Z            M 658.00,117.21            C 658.00,117.21 668.00,117.21 668.00,117.21              680.46,117.15 696.52,120.43 708.00,125.28              721.84,131.14 733.62,138.95 743.91,150.00              775.10,183.48 779.80,237.92 756.55,277.00              746.34,294.15 732.59,306.45 715.00,315.68              699.16,323.99 679.72,327.20 662.00,327.00              653.16,326.89 640.41,324.47 632.00,321.67              613.35,315.46 598.21,306.06 585.30,291.00              558.06,259.22 552.85,209.02 572.32,172.00              585.19,147.53 606.72,130.17 633.00,122.02              642.89,118.96 648.22,118.82 658.00,117.21 Z            M 943.00,303.00            C 927.57,318.42 911.17,326.74 889.00,327.00              870.29,327.21 851.93,321.95 836.00,312.19              779.54,277.59 770.66,200.00 813.29,151.00              837.74,122.89 879.37,108.99 915.00,122.05              926.46,126.25 934.99,131.69 943.00,141.00              943.00,141.00 943.00,124.00 943.00,124.00              943.00,124.00 988.00,124.00 988.00,124.00              988.00,124.00 988.00,280.00 988.00,280.00              988.00,280.00 988.00,306.00 988.00,306.00              988.00,306.00 987.00,325.00 987.00,325.00              986.80,341.91 980.07,364.67 971.19,379.00              955.45,404.39 925.78,419.95 896.00,420.00              896.00,420.00 879.00,420.00 879.00,420.00              868.08,419.87 852.86,415.35 843.00,410.68              833.47,406.16 823.37,398.50 816.01,391.00              808.05,382.88 798.01,369.06 795.00,358.00              795.00,358.00 836.00,341.00 836.00,341.00              841.36,353.44 849.23,363.53 861.00,370.55              883.82,384.15 913.64,379.65 930.67,359.00              943.66,343.25 943.00,322.16 943.00,303.00 Z            M 1269.00,279.00            C 1265.59,289.28 1251.72,301.46 1243.00,307.70              1211.73,330.08 1167.27,333.30 1133.00,315.74              1106.53,302.17 1087.51,277.97 1080.65,249.00              1077.55,235.89 1077.85,226.25 1078.00,213.00              1078.09,205.37 1080.13,195.34 1082.29,188.00              1095.24,144.04 1132.38,116.79 1178.00,117.00              1188.33,117.05 1201.42,119.57 1211.00,123.45              1229.87,131.09 1244.66,145.10 1255.66,162.00              1260.57,169.56 1269.43,188.32 1271.00,197.00              1271.00,197.00 1228.00,214.40 1228.00,214.40              1228.00,214.40 1132.00,254.00 1132.00,254.00              1137.57,263.24 1143.58,271.36 1153.00,277.07              1180.51,293.78 1215.33,282.26 1232.00,256.00              1232.00,256.00 1269.00,279.00 1269.00,279.00 Z            M 1216.00,180.00            C 1205.45,156.70 1173.23,153.46 1153.00,165.45              1132.94,177.35 1124.02,195.09 1124.00,218.00              1124.00,218.00 1162.00,202.42 1162.00,202.42              1162.00,202.42 1216.00,180.00 1216.00,180.00 Z            M 437.00,159.29            C 431.57,160.08 427.34,160.51 422.00,162.22              405.75,167.41 392.81,180.28 386.45,196.00              381.89,207.28 381.87,215.19 382.00,227.00              382.28,250.46 398.18,272.88 420.00,281.19              426.96,283.83 436.57,285.55 444.00,284.83              467.03,282.60 486.47,267.94 494.30,246.00              498.24,234.98 498.13,228.37 498.00,217.00              497.63,185.43 469.20,156.58 437.00,159.29 Z            M 662.00,159.19            C 653.26,160.57 649.30,160.96 641.00,164.89              621.08,174.31 608.03,196.18 608.00,218.00              607.98,230.61 607.51,235.80 612.45,248.00              621.67,270.76 645.87,287.81 671.00,284.71              687.25,282.71 702.52,274.38 712.22,261.00              734.17,230.69 725.64,182.10 691.00,165.26              683.58,161.65 675.25,159.56 667.00,159.19              667.00,159.19 662.00,159.19 662.00,159.19 Z            M 887.00,159.29            C 880.18,160.33 874.35,161.36 868.00,164.32              846.20,174.49 833.18,198.28 833.18,222.00              833.18,222.00 833.83,228.00 833.83,228.00              836.35,253.30 849.02,273.57 874.00,282.00              880.95,284.34 888.67,285.62 896.00,284.71              926.68,280.94 945.95,255.01 946.00,225.00              946.00,225.00 946.00,220.00 946.00,220.00              945.95,187.97 921.37,156.10 887.00,159.29 Z"/>
</svg>