<svg xmlns="http://www.w3.org/2000/svg" viewBox="-0.9 -0.51 873.4 348.01">
  <path id="google-pay" fill="#303030" stroke="none" stroke-width="1"
    d="M 144.00,118.00            C 144.00,118.00 272.00,118.00 272.00,118.00              274.00,118.00 277.80,117.76 279.40,119.02              281.16,120.40 281.62,125.80 281.83,128.00              281.83,128.00 283.00,153.00 283.00,153.00              283.00,153.00 282.09,163.00 282.09,163.00              278.61,210.59 253.47,255.17 209.00,275.69              183.44,287.48 164.50,289.04 137.00,289.00              121.49,288.98 102.36,284.21 88.00,278.40              72.74,272.21 59.46,263.24 47.00,252.57              40.77,247.24 37.39,243.22 32.25,237.00              -3.31,193.95 -10.37,131.24 13.78,81.00              27.80,51.84 52.82,27.56 82.00,13.78              99.44,5.55 121.70,0.23 141.00,0.00              167.17,-0.30 193.20,5.84 216.00,18.87              216.00,18.87 241.00,37.00 241.00,37.00              238.48,42.32 234.12,45.88 230.00,50.00              230.00,50.00 212.00,68.00 212.00,68.00              209.73,70.27 202.64,78.00 200.00,78.66              196.96,79.43 188.99,72.29 186.00,70.34              177.17,64.60 166.43,60.76 156.00,59.28              156.00,59.28 143.00,58.04 143.00,58.04              97.57,59.49 57.98,100.25 59.01,146.00              60.00,189.47 97.52,230.93 142.00,231.00              157.32,231.02 172.43,228.77 186.00,221.13              194.24,216.48 201.62,210.27 207.68,203.00              214.88,194.35 217.92,185.54 221.00,175.00              221.00,175.00 144.00,175.00 144.00,175.00              144.00,175.00 144.00,118.00 144.00,118.00 Z            M 380.00,20.00            C 380.00,20.00 446.00,20.00 446.00,20.00              470.18,20.00 488.59,18.87 510.00,32.70              520.98,39.79 531.15,50.25 537.03,62.00              544.61,77.17 544.19,86.75 544.00,103.00              543.72,126.51 526.79,148.81 507.00,160.13              487.78,171.12 474.94,170.00 454.00,170.00              454.00,170.00 413.00,170.00 413.00,170.00              413.00,170.00 413.00,272.00 413.00,272.00              413.00,272.00 380.00,272.00 380.00,272.00              380.00,272.00 380.00,20.00 380.00,20.00 Z            M 413.00,139.00            C 413.00,139.00 451.00,139.00 451.00,139.00              468.18,139.00 483.41,139.48 496.96,126.83              515.04,109.95 515.02,81.05 496.96,64.17              487.12,54.97 477.20,52.02 464.00,52.00              464.00,52.00 413.00,52.00 413.00,52.00              413.00,52.00 413.00,139.00 413.00,139.00 Z            M 548.00,127.00            C 555.96,117.29 561.72,110.50 573.00,104.31              591.21,94.31 605.92,93.77 626.00,94.00              653.07,94.32 679.25,108.58 690.13,134.00              697.11,150.31 696.00,170.56 696.00,188.00              696.00,188.00 696.00,272.00 696.00,272.00              696.00,272.00 664.00,272.00 664.00,272.00              664.00,272.00 663.00,248.00 663.00,248.00              660.65,253.51 657.28,256.86 653.00,260.96              636.83,276.47 622.92,277.24 602.00,277.00              572.73,276.65 543.36,252.30 543.00,222.00              542.84,207.96 543.81,197.93 552.21,186.00              557.97,177.83 565.11,172.59 574.00,168.26              583.35,163.70 596.58,160.13 607.00,160.00              607.00,160.00 628.00,160.00 628.00,160.00              640.73,160.15 652.37,164.35 664.00,169.00              664.00,161.76 663.85,155.74 660.67,149.00              650.91,128.27 624.23,118.31 603.00,126.47              596.78,128.85 590.84,132.50 586.01,137.09              583.76,139.23 579.84,144.58 576.96,145.01              574.24,145.42 570.25,142.46 568.00,141.05              561.83,137.19 552.55,132.37 548.00,127.00 Z            M 700.00,99.00            C 700.00,99.00 728.00,99.00 728.00,99.00              730.10,99.00 733.61,98.75 735.35,99.99              737.16,101.28 738.80,105.87 739.72,108.00              739.72,108.00 748.40,129.00 748.40,129.00              748.40,129.00 774.58,192.00 774.58,192.00              777.46,198.87 783.54,216.33 788.00,221.00              788.00,221.00 802.58,183.00 802.58,183.00              802.58,183.00 823.80,130.00 823.80,130.00              823.80,130.00 836.00,99.00 836.00,99.00              836.00,99.00 872.00,99.00 872.00,99.00              871.34,105.20 867.49,112.15 865.00,118.00              865.00,118.00 848.00,157.00 848.00,157.00              848.00,157.00 789.72,291.00 789.72,291.00              789.72,291.00 771.86,332.00 771.86,332.00              765.47,346.46 767.13,346.98 757.00,347.00              757.00,347.00 731.00,347.00 731.00,347.00              731.00,347.00 742.74,320.00 742.74,320.00              742.74,320.00 758.31,286.00 758.31,286.00              758.31,286.00 765.76,270.00 765.76,270.00              765.76,270.00 769.29,260.00 769.29,260.00              769.29,260.00 763.77,246.00 763.77,246.00              763.77,246.00 751.86,219.00 751.86,219.00              751.86,219.00 717.14,140.00 717.14,140.00              717.14,140.00 700.00,99.00 700.00,99.00 Z            M 612.00,187.29            C 599.57,189.35 586.03,195.20 579.99,207.00              567.92,230.60 593.82,250.44 616.00,247.71              634.79,245.41 651.69,234.56 659.69,217.00              661.43,213.16 665.15,202.11 662.96,198.33              661.26,195.37 654.21,192.28 651.00,191.06              639.55,186.72 624.15,186.14 612.00,187.29 Z" />
</svg>