<svg xmlns="http://www.w3.org/2000/svg" viewBox="309.72 111.65 548.01 130.84">
  <path id="grammarly-wordmark" fill="#303030" stroke="none" stroke-width="1"
    d="M 369.00,112.42            C 376.17,111.55 386.10,112.89 393.00,115.02              439.64,129.46 453.79,190.11 418.96,223.91              413.27,229.44 405.39,234.30 398.00,237.19              390.75,240.02 380.79,242.26 373.00,241.96              359.68,241.44 345.51,236.75 335.00,228.48              307.53,206.88 301.73,164.70 323.52,137.00              335.92,121.23 349.82,115.32 369.00,112.42 Z            M 397.00,194.00            C 393.60,198.39 391.14,200.76 386.00,203.10              356.98,216.26 332.23,179.47 354.04,157.02              356.80,154.17 359.37,152.01 363.00,150.35              367.15,148.46 371.47,147.84 376.00,148.04              382.11,148.31 388.37,151.38 392.96,155.33              395.31,157.35 398.28,161.51 401.02,162.34              404.63,163.44 408.03,160.29 405.42,155.00              403.13,150.36 397.47,145.83 393.00,143.35              367.83,129.35 334.41,148.50 336.09,178.00              337.38,200.66 353.54,215.25 376.00,215.00              387.43,214.87 394.02,210.80 402.00,203.00              402.00,203.00 402.00,207.00 402.00,207.00              402.08,218.56 408.31,215.45 409.98,212.77              411.63,210.11 411.07,195.88 411.00,192.00              410.96,190.05 411.10,187.37 409.40,186.02              407.42,184.45 396.05,184.97 393.00,185.00              389.87,185.04 384.93,185.05 383.18,188.27              382.62,189.44 382.57,190.66 383.18,191.86              385.26,196.39 393.22,195.07 397.00,194.00 Z            M 804.31,142.03            C 812.46,139.25 812.99,146.01 813.00,152.00              813.00,152.00 813.00,187.00 813.00,187.00              812.99,189.76 813.29,193.45 811.40,195.69              809.04,198.48 802.19,200.20 802.00,190.00              802.00,190.00 802.00,156.00 802.00,156.00              802.00,151.28 800.93,145.65 804.31,142.03 Z            M 504.00,188.00            C 501.11,190.42 498.75,192.46 495.00,193.44              470.72,199.81 463.89,165.28 482.00,157.36              485.26,155.94 489.49,155.76 493.00,156.10              497.66,156.56 500.14,158.65 504.00,161.01              506.27,154.16 512.92,155.25 514.79,161.01              515.19,163.19 515.00,170.34 514.79,173.00              515.00,180.89 516.06,195.40 511.99,201.98              506.73,210.50 497.70,210.10 489.00,210.00              485.06,209.95 472.38,208.69 474.66,202.13              476.43,197.01 484.25,200.55 488.00,201.04              498.28,202.39 503.08,198.16 504.00,188.00 Z            M 534.00,163.00            C 539.33,153.20 545.62,155.92 546.51,160.10              547.83,166.29 540.05,166.27 535.73,173.00              531.43,179.72 533.96,191.31 532.40,194.77              530.82,198.28 526.11,198.55 523.74,195.69              521.71,193.24 522.00,189.01 522.21,186.00              522.21,186.00 522.21,161.02 522.21,161.02              523.99,155.56 529.90,153.01 534.00,163.00 Z            M 573.00,173.90            C 571.36,166.36 567.15,165.40 560.00,166.04              557.08,166.30 553.00,167.65 551.03,164.69              547.63,159.59 554.27,157.17 558.00,156.47              565.17,155.11 576.46,155.49 581.01,162.10              585.17,168.15 584.10,181.58 584.00,189.00              583.85,199.39 577.19,200.15 573.00,194.00              566.93,197.74 557.68,200.42 551.19,195.85              543.40,190.38 544.72,177.04 555.00,173.90              560.09,172.20 567.80,173.07 573.00,173.90 Z            M 627.00,162.00            C 633.27,154.18 647.70,152.81 652.35,163.00              654.69,168.13 654.01,179.99 654.00,186.00              654.00,188.67 654.21,192.52 652.83,194.85              650.71,198.43 645.98,198.62 644.02,195.69              642.46,193.35 643.03,184.19 643.00,181.00              642.96,177.76 642.69,172.88 641.02,170.06              638.04,165.06 632.87,165.44 629.74,170.06              627.07,174.00 628.09,184.05 628.00,189.00              627.79,200.13 619.92,198.53 618.02,195.69              616.79,193.85 617.00,190.18 616.84,188.00              616.84,188.00 616.84,182.00 616.84,182.00              617.00,179.45 617.06,176.48 616.84,174.00              614.76,165.97 607.97,163.81 603.74,170.06              601.23,173.77 602.01,182.42 602.00,187.00              601.99,190.75 602.62,196.39 597.90,197.53              590.79,199.24 591.01,191.54 591.21,187.00              591.21,187.00 591.21,160.11 591.21,160.11              592.91,155.28 599.59,154.08 602.00,162.00              611.09,153.88 618.07,153.59 627.00,162.00 Z            M 697.00,162.00            C 698.68,159.91 699.53,158.73 702.02,157.45              708.15,154.29 718.10,155.54 721.55,162.02              724.64,167.82 724.01,178.41 724.00,185.00              724.00,187.94 724.18,192.26 722.69,194.85              720.46,198.73 715.42,198.65 713.17,194.85              711.44,191.93 712.01,182.73 712.00,179.00              712.00,176.23 712.21,172.57 710.83,170.11              708.09,165.25 701.91,165.25 699.17,170.11              696.57,174.73 699.25,189.19 697.26,193.94              695.33,198.57 690.05,198.72 688.02,195.69              686.79,193.85 687.00,190.18 687.00,188.00              686.99,183.12 687.49,174.21 685.02,170.06              681.42,164.01 675.00,166.19 672.74,172.00              671.60,174.93 672.02,184.36 672.00,188.00              671.98,190.15 672.10,192.96 670.98,194.85              668.98,198.22 664.09,198.79 662.02,195.69              660.79,193.85 661.00,190.18 661.00,188.00              661.00,188.00 661.00,164.00 661.00,164.00              661.19,154.11 669.08,153.73 672.00,162.00              680.88,153.64 688.12,153.64 697.00,162.00 Z            M 755.00,174.00            C 751.41,161.82 741.96,167.15 736.04,166.61              733.09,166.34 730.84,164.22 731.84,161.12              733.45,156.13 743.71,155.92 748.00,156.01              762.80,156.36 765.98,164.83 766.00,178.00              766.01,181.84 766.58,191.88 764.83,194.85              762.05,199.54 757.38,198.21 755.00,194.00              748.77,197.27 740.92,200.19 734.04,196.55              726.02,192.29 725.67,179.10 735.00,174.57              740.68,171.82 748.97,173.20 755.00,174.00 Z            M 785.00,163.00            C 786.01,160.12 786.89,157.90 790.04,156.76              794.37,155.18 797.68,158.55 796.67,162.89              795.72,166.95 791.91,166.57 788.21,170.22              784.24,174.15 784.03,177.79 784.00,183.00              783.98,186.21 784.41,192.17 782.83,194.85              780.71,198.43 775.98,198.62 774.02,195.69              772.79,193.85 773.00,190.18 773.00,188.00              773.00,188.00 773.00,164.00 773.00,164.00              773.09,159.63 775.10,153.83 780.78,157.04              782.88,158.22 783.96,160.94 785.00,163.00 Z            M 838.00,184.00            C 838.00,184.00 845.58,164.00 845.58,164.00              846.68,161.19 847.82,157.65 851.05,156.66              857.44,154.70 858.05,161.67 856.56,166.00              856.56,166.00 844.20,196.00 844.20,196.00              842.41,200.45 840.33,206.22 835.91,208.69              832.19,210.77 821.27,211.11 819.71,205.91              817.08,197.15 832.38,203.77 831.60,195.83              831.60,195.83 821.42,171.00 821.42,171.00              820.27,168.30 818.07,163.92 818.33,161.04              818.79,155.87 824.80,154.60 828.16,159.15              828.16,159.15 838.00,184.00 838.00,184.00 Z            M 490.02,165.51            C 477.15,171.22 484.25,187.63 496.00,184.57              503.51,182.61 506.65,173.03 500.61,167.65              497.51,164.89 493.84,164.86 490.02,165.51 Z            M 564.00,179.36            C 552.80,182.59 557.38,192.15 566.00,190.64              570.09,189.93 575.62,184.86 571.40,180.85              569.44,178.99 566.46,179.18 564.00,179.36 Z            M 746.00,179.37            C 743.77,179.90 741.54,180.30 740.18,182.42              737.05,187.29 742.35,191.19 747.00,190.75              753.73,190.10 756.48,183.76 753.40,180.93              751.50,179.19 748.38,179.28 746.00,179.37 Z" />
</svg>