<svg xmlns="http://www.w3.org/2000/svg" viewBox="309.72 111.65 129.13 130.84">
  <path id="grammarly" fill="#303030" stroke="none" stroke-width="1"
    d="M 369.00,112.42            C 376.17,111.55 386.10,112.89 393.00,115.02              439.64,129.46 453.79,190.11 418.96,223.91              413.27,229.44 405.39,234.30 398.00,237.19              390.75,240.02 380.79,242.26 373.00,241.96              359.68,241.44 345.51,236.75 335.00,228.48              307.53,206.88 301.73,164.70 323.52,137.00              335.92,121.23 349.82,115.32 369.00,112.42 Z            M 397.00,194.00            C 393.60,198.39 391.14,200.76 386.00,203.10              356.98,216.26 332.23,179.47 354.04,157.02              356.80,154.17 359.37,152.01 363.00,150.35              367.15,148.46 371.47,147.84 376.00,148.04              382.11,148.31 388.37,151.38 392.96,155.33              395.31,157.35 398.28,161.51 401.02,162.34              404.63,163.44 408.03,160.29 405.42,155.00              403.13,150.36 397.47,145.83 393.00,143.35              367.83,129.35 334.41,148.50 336.09,178.00              337.38,200.66 353.54,215.25 376.00,215.00              387.43,214.87 394.02,210.80 402.00,203.00              402.00,203.00 402.00,207.00 402.00,207.00              402.08,218.56 408.31,215.45 409.98,212.77              411.63,210.11 411.07,195.88 411.00,192.00              410.96,190.05 411.10,187.37 409.40,186.02              407.42,184.45 396.05,184.97 393.00,185.00              389.87,185.04 384.93,185.05 383.18,188.27              382.62,189.44 382.57,190.66 383.18,191.86              385.26,196.39 393.22,195.07 397.00,194.00 Z" />
</svg>