<svg xmlns="http://www.w3.org/2000/svg" viewBox="95.5 98.5 859 189.71">
  <path id="Selection #1" fill="#303030" stroke="none" stroke-width="1" d="M 96.00,99.00            C 96.00,99.00 312.00,99.00 312.00,99.00              312.00,99.00 312.00,117.00 312.00,117.00              312.00,117.00 310.00,142.00 310.00,142.00              310.00,142.00 144.00,142.00 144.00,142.00              146.47,172.47 157.81,202.26 180.04,223.91              185.05,228.79 191.10,233.54 197.00,237.31              198.85,238.49 202.21,240.80 204.42,240.78              206.59,240.77 210.14,238.52 212.00,237.39              218.03,233.72 223.71,229.38 229.00,224.71              234.11,220.22 238.58,214.88 242.00,209.00              242.00,209.00 208.00,209.00 208.00,209.00              205.35,208.99 202.43,209.19 200.00,207.98              188.27,202.11 178.59,177.75 178.00,165.00              178.00,165.00 307.00,165.00 307.00,165.00              298.71,206.10 275.39,245.44 241.00,269.71              233.75,274.82 214.44,286.58 206.00,287.63              201.14,288.24 196.33,285.32 192.00,283.42              180.59,278.42 167.69,270.03 158.00,262.20              120.24,231.66 103.44,185.82 97.85,139.00              97.85,139.00 96.00,117.00 96.00,117.00              96.00,117.00 96.00,99.00 96.00,99.00 Z            M 596.01,132.70            C 600.50,131.68 605.85,131.38 609.82,134.15              619.40,140.82 615.98,160.41 600.00,158.80              586.21,157.42 583.12,138.79 596.01,132.70 Z            M 474.00,188.00            C 474.00,188.00 474.00,227.00 474.00,227.00              473.98,236.98 471.16,238.29 463.00,243.96              453.09,250.85 441.10,254.94 429.00,255.00              429.00,255.00 421.00,255.00 421.00,255.00              396.36,254.96 373.54,239.78 365.75,216.00              362.57,206.31 362.89,198.95 363.00,189.00              363.29,165.02 380.75,144.86 403.00,137.75              412.97,134.56 419.79,134.88 430.00,135.00              445.80,135.19 468.00,146.31 473.00,162.00              468.79,163.83 455.62,172.01 452.17,171.19              450.33,170.76 444.49,164.93 442.00,163.22              434.28,157.91 426.11,156.53 417.00,158.45              409.83,159.97 404.09,163.72 399.09,169.01              382.11,187.02 387.30,219.84 411.00,229.33              419.89,233.16 430.24,232.89 439.00,229.33              442.04,227.82 446.33,225.88 447.98,222.90              449.41,220.31 449.00,214.11 449.00,211.00              449.00,211.00 418.00,211.00 418.00,211.00              418.00,211.00 418.00,188.00 418.00,188.00              418.00,188.00 474.00,188.00 474.00,188.00 Z            M 636.00,135.00            C 636.00,135.00 657.00,135.00 657.00,135.00              657.00,135.00 657.00,252.00 657.00,252.00              657.00,252.00 636.00,252.00 636.00,252.00              636.00,252.00 636.00,135.00 636.00,135.00 Z            M 737.00,135.00            C 737.00,135.00 759.00,135.00 759.00,135.00              759.00,135.00 759.00,253.00 759.00,253.00              759.00,253.00 737.00,253.00 737.00,253.00              737.00,253.00 737.00,244.00 737.00,244.00              727.08,253.44 722.33,255.15 709.00,255.00              687.80,254.75 675.23,235.73 675.00,216.00              675.00,216.00 675.00,205.00 675.00,205.00              675.24,184.59 688.17,165.52 710.00,165.01              722.48,164.73 728.31,168.39 737.00,177.00              737.00,177.00 737.00,135.00 737.00,135.00 Z            M 932.00,135.00            C 932.00,135.00 954.00,135.00 954.00,135.00              954.00,135.00 954.00,253.00 954.00,253.00              954.00,253.00 932.00,253.00 932.00,253.00              932.00,253.00 932.00,244.00 932.00,244.00              922.08,253.44 917.33,255.15 904.00,255.00              882.80,254.75 870.23,235.73 870.00,216.00              870.00,216.00 870.00,205.00 870.00,205.00              870.24,184.59 883.17,165.52 905.00,165.01              917.48,164.73 923.31,168.39 932.00,177.00              932.00,177.00 932.00,135.00 932.00,135.00 Z            M 794.00,216.00            C 799.28,227.20 805.26,234.75 819.00,233.91              823.26,233.65 828.20,232.10 832.00,230.18              834.14,229.10 837.41,226.55 839.82,227.32              841.95,228.00 844.46,232.13 845.65,234.00              846.50,235.33 847.87,237.42 848.16,238.96              848.98,243.32 843.18,245.70 840.00,247.22              829.37,252.29 822.36,252.13 811.00,252.00              789.42,251.74 771.26,234.89 771.00,213.00              770.83,198.58 771.94,188.30 782.30,177.09              798.45,159.60 830.57,160.78 845.67,179.00              855.15,190.43 855.00,202.16 855.00,216.00              855.00,216.00 794.00,216.00 794.00,216.00 Z            M 590.00,167.00            C 590.00,167.00 613.00,167.00 613.00,167.00              613.00,167.00 613.00,252.00 613.00,252.00              613.00,252.00 590.00,252.00 590.00,252.00              590.00,252.00 590.00,167.00 590.00,167.00 Z            M 492.00,168.00            C 492.00,168.00 514.00,168.00 514.00,168.00              514.00,168.00 514.00,213.00 514.00,213.00              514.07,218.62 514.58,224.69 519.11,228.61              527.44,235.83 543.84,230.65 547.40,221.00              548.11,219.07 548.00,216.09 548.00,214.00              548.00,214.00 548.00,168.00 548.00,168.00              548.00,168.00 570.00,168.00 570.00,168.00              570.00,168.00 570.00,250.00 570.00,250.00              570.00,250.00 548.00,250.00 548.00,250.00              548.00,250.00 548.00,241.00 548.00,241.00              543.67,244.94 540.51,247.36 535.00,249.54              528.03,252.29 523.28,252.08 516.00,252.00              505.59,251.87 497.51,248.16 493.48,238.00              491.87,233.96 492.01,231.21 492.00,227.00              492.00,227.00 492.00,168.00 492.00,168.00 Z            M 833.00,200.00            C 831.52,186.03 816.32,178.38 804.00,185.28              798.01,188.63 795.50,193.60 794.00,200.00              794.00,200.00 833.00,200.00 833.00,200.00 Z            M 715.00,186.33            C 689.98,192.34 693.64,232.74 717.00,234.24              719.24,234.38 721.82,234.19 724.00,233.65              733.81,231.20 736.98,226.57 737.00,217.00              737.00,217.00 737.00,201.00 737.00,201.00              736.78,189.34 725.02,185.25 715.00,186.33 Z            M 910.00,186.33            C 884.98,192.34 888.64,232.74 912.00,234.24              914.24,234.38 916.82,234.19 919.00,233.65              928.81,231.20 931.98,226.57 932.00,217.00              932.00,217.00 932.00,201.00 932.00,201.00              931.78,189.34 920.02,185.25 910.00,186.33 Z"/>
</svg>