<svg xmlns="http://www.w3.org/2000/svg" viewBox="95.5 98.5 217 189.71">
  <path id="guilded" fill="#303030" stroke="none" stroke-width="1"
    d="M 96.00,99.00            C 96.00,99.00 312.00,99.00 312.00,99.00              312.00,99.00 312.00,117.00 312.00,117.00              312.00,117.00 310.00,142.00 310.00,142.00              310.00,142.00 144.00,142.00 144.00,142.00              146.47,172.47 157.81,202.26 180.04,223.91              185.05,228.79 191.10,233.54 197.00,237.31              198.85,238.49 202.21,240.80 204.42,240.78              206.59,240.77 210.14,238.52 212.00,237.39              218.03,233.72 223.71,229.38 229.00,224.71              234.11,220.22 238.58,214.88 242.00,209.00              242.00,209.00 208.00,209.00 208.00,209.00              205.35,208.99 202.43,209.19 200.00,207.98              188.27,202.11 178.59,177.75 178.00,165.00              178.00,165.00 307.00,165.00 307.00,165.00              298.71,206.10 275.39,245.44 241.00,269.71              233.75,274.82 214.44,286.58 206.00,287.63              201.14,288.24 196.33,285.32 192.00,283.42              180.59,278.42 167.69,270.03 158.00,262.20              120.24,231.66 103.44,185.82 97.85,139.00              97.85,139.00 96.00,117.00 96.00,117.00              96.00,117.00 96.00,99.00 96.00,99.00 Z" />
</svg>