<svg xmlns="http://www.w3.org/2000/svg" viewBox="19.5 19.5 1961.29 357.33">
  <path id="hantek" fill="#303030" stroke="none" stroke-width="1"
    d="M 20.00,20.00            C 20.00,20.00 112.00,20.00 112.00,20.00              112.00,20.00 112.00,153.00 112.00,153.00              112.00,153.00 214.00,153.00 214.00,153.00              214.00,153.00 214.00,20.00 214.00,20.00              214.00,20.00 304.00,20.00 304.00,20.00              304.00,20.00 304.00,376.00 304.00,376.00              304.00,376.00 214.00,376.00 214.00,376.00              214.00,376.00 214.00,226.00 214.00,226.00              214.00,226.00 111.00,226.00 111.00,226.00              111.00,226.00 111.00,376.00 111.00,376.00              111.00,376.00 20.00,376.00 20.00,376.00              20.00,376.00 20.00,20.00 20.00,20.00 Z            M 993.00,20.00            C 993.00,20.00 1086.00,20.00 1086.00,20.00              1086.00,20.00 1086.00,92.00 1086.00,92.00              1086.00,92.00 1170.00,92.00 1170.00,92.00              1170.00,92.00 1170.00,165.00 1170.00,165.00              1170.00,165.00 1085.00,165.00 1085.00,165.00              1085.00,165.00 1085.00,257.00 1085.00,257.00              1085.00,271.89 1082.86,285.84 1096.04,296.47              1106.99,305.31 1118.86,305.00 1132.00,305.00              1132.00,305.00 1170.00,305.00 1170.00,305.00              1170.00,305.00 1170.00,376.00 1170.00,376.00              1170.00,376.00 1061.00,376.00 1061.00,376.00              1061.00,376.00 1052.00,375.17 1052.00,375.17              1036.03,373.62 1020.02,371.15 1008.30,358.83              996.15,346.05 993.03,323.03 993.00,306.00              993.00,306.00 993.00,20.00 993.00,20.00 Z            M 1534.00,20.00            C 1534.00,20.00 1626.00,20.00 1626.00,20.00              1626.00,20.00 1626.00,197.00 1626.00,197.00              1626.00,197.00 1651.04,171.00 1651.04,171.00              1651.04,171.00 1700.91,118.00 1700.91,118.00              1700.91,118.00 1715.83,102.00 1715.83,102.00              1715.83,102.00 1725.00,93.02 1725.00,93.02              1725.00,93.02 1733.00,92.00 1733.00,92.00              1733.00,92.00 1815.00,92.00 1815.00,92.00              1808.87,100.59 1790.22,119.44 1782.04,128.00              1782.04,128.00 1759.91,152.00 1759.91,152.00              1759.91,152.00 1730.83,183.00 1730.83,183.00              1730.83,183.00 1710.00,205.00 1710.00,205.00              1707.62,207.40 1701.96,212.60 1701.63,216.00              1701.34,219.12 1706.52,225.36 1708.42,228.00              1708.42,228.00 1730.29,258.00 1730.29,258.00              1730.29,258.00 1783.88,332.00 1783.88,332.00              1783.88,332.00 1815.00,376.00 1815.00,376.00              1815.00,376.00 1732.00,376.00 1732.00,376.00              1732.00,376.00 1724.18,374.98 1724.18,374.98              1724.18,374.98 1716.14,365.00 1716.14,365.00              1716.14,365.00 1699.67,341.00 1699.67,341.00              1699.67,341.00 1652.34,272.00 1652.34,272.00              1652.34,272.00 1626.00,235.00 1626.00,235.00              1626.00,235.00 1626.00,376.00 1626.00,376.00              1626.00,376.00 1396.00,376.00 1396.00,376.00              1396.00,376.00 1280.00,376.00 1280.00,376.00              1240.91,375.54 1211.06,350.26 1211.00,310.00              1211.00,310.00 1211.00,157.00 1211.00,157.00              1211.06,115.80 1244.25,92.06 1283.00,92.00              1283.00,92.00 1420.00,92.00 1420.00,92.00              1443.21,92.28 1467.23,100.81 1480.30,121.00              1491.14,137.74 1490.00,156.99 1490.00,176.00              1490.00,176.00 1490.00,262.00 1490.00,262.00              1490.00,262.00 1301.00,262.00 1301.00,262.00              1301.00,278.94 1299.08,301.77 1320.00,307.51              1324.83,308.84 1328.07,308.99 1333.00,309.00              1333.00,309.00 1534.00,309.00 1534.00,309.00              1534.00,309.00 1534.00,20.00 1534.00,20.00 Z            M 1906.00,44.44            C 1915.24,43.25 1926.07,44.04 1935.00,46.72              1943.62,49.31 1951.48,53.83 1958.00,60.04              1964.90,66.61 1970.68,73.19 1974.56,82.00              1988.51,113.67 1976.24,151.09 1946.00,167.96              1933.70,174.82 1923.57,175.16 1910.00,175.00              1899.02,174.87 1886.82,170.28 1878.00,163.84              1859.32,150.22 1851.57,133.55 1850.74,111.00              1850.45,102.86 1851.43,94.72 1854.08,87.00              1862.28,63.10 1881.78,48.91 1906.00,44.44 Z            M 1914.00,53.37            C 1914.00,53.37 1903.00,54.67 1903.00,54.67              1888.79,57.69 1875.45,67.64 1867.93,80.00              1845.86,116.27 1870.87,165.01 1914.00,165.99              1920.94,166.14 1928.53,164.92 1935.00,162.39              1980.39,144.63 1983.15,81.39 1940.00,59.26              1931.95,55.13 1923.00,53.45 1914.00,53.37 Z            M 1891.00,76.00            C 1891.00,76.00 1921.00,76.00 1921.00,76.00              1925.87,76.01 1930.58,76.03 1934.96,78.56              1945.88,84.85 1947.49,107.15 1927.00,111.00              1934.81,118.81 1944.03,130.59 1948.00,141.00              1945.22,141.00 1938.80,141.47 1936.61,140.01              1934.82,138.81 1932.03,133.97 1930.81,132.00              1927.81,127.17 1922.23,118.09 1917.83,114.85              1912.96,111.27 1906.71,112.00 1901.00,112.00              1901.00,112.00 1901.00,141.00 1901.00,141.00              1901.00,141.00 1891.00,141.00 1891.00,141.00              1891.00,141.00 1891.00,76.00 1891.00,76.00 Z            M 1901.00,104.00            C 1907.61,104.00 1922.69,105.10 1927.96,101.91              1934.34,98.04 1934.79,89.09 1927.96,85.45              1923.46,83.05 1906.90,84.00 1901.00,84.00              1901.00,84.00 1901.00,104.00 1901.00,104.00 Z            M 350.00,180.00            C 350.00,156.31 346.56,123.50 366.00,106.18              377.23,96.18 391.60,93.92 406.00,92.91              406.00,92.91 416.00,92.00 416.00,92.00              416.00,92.00 492.00,92.00 492.00,92.00              492.00,92.00 569.00,92.00 569.00,92.00              569.00,92.00 579.00,92.91 579.00,92.91              590.99,93.74 602.66,94.57 613.00,101.60              626.94,111.08 629.95,127.39 631.09,143.00              631.09,143.00 632.00,155.00 632.00,155.00              632.00,155.00 632.00,268.00 632.00,268.00              632.00,268.00 632.00,282.00 632.00,282.00              632.00,291.45 632.08,299.78 643.00,303.20              645.89,304.10 649.01,304.00 652.00,304.00              652.00,304.00 677.00,304.00 677.00,304.00              677.00,304.00 677.00,180.00 677.00,180.00              677.00,158.75 674.78,133.51 687.10,115.00              698.26,98.24 716.52,94.62 735.00,92.83              735.00,92.83 745.00,92.00 745.00,92.00              745.00,92.00 845.00,92.00 845.00,92.00              864.94,92.00 890.03,90.76 909.00,96.44              936.10,104.54 946.96,127.30 947.00,154.00              947.00,154.00 947.00,376.00 947.00,376.00              947.00,376.00 857.00,376.00 857.00,376.00              857.00,376.00 857.00,213.00 857.00,213.00              857.00,213.00 857.00,181.00 857.00,181.00              856.94,176.04 856.46,171.95 852.78,168.21              847.96,163.32 840.44,163.01 834.00,163.00              834.00,163.00 789.00,163.00 789.00,163.00              783.88,163.01 778.53,163.14 774.04,166.00              767.47,170.20 767.01,176.00 767.00,183.00              767.00,183.00 767.00,376.00 767.00,376.00              767.00,376.00 570.00,376.00 570.00,376.00              554.79,375.98 540.18,373.29 540.00,355.00              540.00,355.00 538.00,355.00 538.00,355.00              535.67,380.68 504.27,376.00 486.00,376.00              486.00,376.00 472.00,376.00 472.00,376.00              472.00,376.00 413.00,376.00 413.00,376.00              397.52,375.93 374.21,372.93 363.32,360.91              353.26,349.80 350.02,328.59 350.00,314.00              350.00,314.00 350.00,292.00 350.00,292.00              350.00,263.86 346.01,221.89 377.00,207.87              393.68,200.32 415.94,201.00 434.00,201.00              434.00,201.00 521.00,201.00 521.00,201.00              523.84,201.00 527.33,201.13 530.00,200.11              541.62,195.67 540.11,182.00 540.00,172.00              539.90,164.19 538.02,157.29 530.00,154.15              525.52,152.39 513.36,153.00 508.00,153.00              508.00,153.00 463.00,153.00 463.00,153.00              460.56,153.03 458.35,153.05 456.00,153.85              444.60,157.75 447.00,170.52 447.00,180.00              447.00,180.00 350.00,180.00 350.00,180.00 Z            M 1410.00,198.00            C 1410.00,190.68 1411.41,173.69 1407.30,168.10              1404.09,163.73 1400.03,163.07 1395.00,163.00              1395.00,163.00 1351.00,163.00 1351.00,163.00              1351.00,163.00 1320.00,163.00 1320.00,163.00              1316.01,163.02 1312.44,162.91 1309.10,165.51              1304.07,169.43 1304.01,174.23 1304.00,180.00              1304.00,180.00 1304.00,198.00 1304.00,198.00              1304.00,198.00 1410.00,198.00 1410.00,198.00 Z            M 448.00,255.16            C 434.55,258.68 437.00,270.03 437.00,281.00              437.00,281.00 437.00,295.00 437.00,295.00              437.00,304.22 435.95,313.73 447.00,317.20              449.88,318.10 453.01,318.00 456.00,318.00              456.00,318.00 522.00,318.00 522.00,318.00              535.35,317.83 537.98,311.01 538.00,299.00              538.00,299.00 538.00,273.00 538.00,273.00              537.94,268.40 537.36,263.91 534.35,260.19              530.23,255.06 524.97,255.01 519.00,255.16              519.00,255.16 448.00,255.16 448.00,255.16 Z" />
</svg>