<svg xmlns="http://www.w3.org/2000/svg" viewBox="1.5 1.15 2045 2045.35">
  <path id="hp" fill="#303030" stroke="none" stroke-width="1"
    d="M 977.00,3.00            C 1004.47,0.77 1032.42,1.96 1060.00,2.00              1060.00,2.00 1082.00,3.00 1082.00,3.00              1082.00,3.00 1092.00,3.91 1092.00,3.91              1092.00,3.91 1169.00,11.73 1169.00,11.73              1235.84,21.36 1302.51,36.74 1366.00,59.95              1399.62,72.23 1432.61,85.48 1465.00,100.78              1552.70,142.22 1638.09,200.23 1710.00,265.17              1798.75,345.33 1876.82,445.55 1931.74,552.00              1984.33,653.93 2020.31,764.32 2036.13,878.00              2036.13,878.00 2042.83,935.00 2042.83,935.00              2042.83,935.00 2044.09,957.00 2044.09,957.00              2044.09,957.00 2045.00,967.00 2045.00,967.00              2045.00,967.00 2046.00,987.00 2046.00,987.00              2046.00,987.00 2046.00,1060.00 2046.00,1060.00              2046.00,1060.00 2045.00,1081.00 2045.00,1081.00              2045.00,1081.00 2043.09,1106.00 2043.09,1106.00              2040.62,1141.24 2035.70,1176.21 2029.42,1211.00              2003.30,1355.82 1943.11,1497.31 1857.57,1617.00              1791.10,1710.03 1710.02,1791.10 1617.00,1857.57              1577.41,1885.87 1536.71,1909.59 1494.00,1932.69              1494.00,1932.69 1459.00,1949.78 1459.00,1949.78              1375.72,1989.13 1286.89,2017.03 1196.00,2032.08              1166.14,2037.02 1136.17,2041.02 1106.00,2043.09              1106.00,2043.09 1075.00,2045.00 1075.00,2045.00              1075.00,2045.00 1060.00,2046.00 1060.00,2046.00              1060.00,2046.00 993.00,2046.00 993.00,2046.00              993.00,2046.00 1014.58,1986.00 1014.58,1986.00              1014.58,1986.00 1046.95,1897.00 1046.95,1897.00              1046.95,1897.00 1153.05,1605.00 1153.05,1605.00              1153.05,1605.00 1190.66,1502.00 1190.66,1502.00              1190.66,1502.00 1198.31,1481.00 1198.31,1481.00              1199.20,1478.50 1200.50,1473.53 1202.65,1471.99              1204.39,1470.75 1207.90,1471.00 1210.00,1471.00              1210.00,1471.00 1491.00,1471.00 1491.00,1471.00              1534.22,1470.93 1584.22,1438.26 1604.69,1401.00              1612.68,1386.46 1619.02,1366.88 1624.69,1351.00              1624.69,1351.00 1649.05,1284.00 1649.05,1284.00              1649.05,1284.00 1705.95,1128.00 1705.95,1128.00              1705.95,1128.00 1737.19,1042.00 1737.19,1042.00              1737.19,1042.00 1768.05,957.00 1768.05,957.00              1768.05,957.00 1814.69,829.00 1814.69,829.00              1814.69,829.00 1835.05,773.00 1835.05,773.00              1842.32,753.12 1849.97,730.36 1850.00,709.00              1850.00,709.00 1850.00,697.00 1850.00,697.00              1849.89,688.11 1847.37,674.51 1844.66,666.00              1827.02,610.75 1779.59,582.97 1724.00,578.91              1724.00,578.91 1712.00,578.00 1712.00,578.00              1712.00,578.00 1311.00,578.00 1311.00,578.00              1311.00,578.00 1303.42,601.00 1303.42,601.00              1303.42,601.00 1291.05,635.00 1291.05,635.00              1291.05,635.00 1252.05,742.00 1252.05,742.00              1252.05,742.00 1125.05,1091.00 1125.05,1091.00              1125.05,1091.00 900.05,1709.00 900.05,1709.00              900.05,1709.00 825.05,1915.00 825.05,1915.00              825.05,1915.00 801.05,1981.00 801.05,1981.00              801.05,1981.00 787.00,2019.00 787.00,2019.00              787.00,2019.00 759.00,2011.85 759.00,2011.85              759.00,2011.85 702.00,1994.97 702.00,1994.97              656.60,1980.53 602.34,1957.59 560.00,1935.74              371.18,1838.31 218.47,1689.13 119.22,1501.00              107.13,1478.08 95.60,1454.85 85.43,1431.00              49.48,1346.75 24.51,1260.81 11.87,1170.00              7.75,1140.41 3.34,1104.64 3.00,1075.00              3.00,1075.00 2.00,1060.00 2.00,1060.00              2.00,1060.00 2.00,987.00 2.00,987.00              2.00,987.00 3.00,966.00 3.00,966.00              3.00,966.00 3.91,956.00 3.91,956.00              3.91,956.00 6.83,920.00 6.83,920.00              10.80,880.35 16.98,840.93 25.58,802.00              63.71,629.32 146.52,469.20 265.17,338.00              331.41,264.76 408.54,201.06 493.00,149.80              548.47,116.13 603.30,89.47 664.00,66.58              685.48,58.47 727.43,43.87 749.00,39.00              749.00,39.00 728.05,97.00 728.05,97.00              728.05,97.00 693.05,193.00 693.05,193.00              693.05,193.00 617.05,402.00 617.05,402.00              617.05,402.00 361.95,1103.00 361.95,1103.00              361.95,1103.00 274.95,1342.00 274.95,1342.00              274.95,1342.00 228.00,1471.00 228.00,1471.00              228.00,1471.00 434.00,1471.00 434.00,1471.00              434.00,1471.00 442.49,1469.40 442.49,1469.40              442.49,1469.40 447.68,1458.00 447.68,1458.00              447.68,1458.00 457.95,1430.00 457.95,1430.00              457.95,1430.00 507.42,1294.00 507.42,1294.00              507.42,1294.00 543.05,1196.00 543.05,1196.00              543.05,1196.00 645.05,916.00 645.05,916.00              645.05,916.00 692.42,786.00 692.42,786.00              692.42,786.00 710.69,736.00 710.69,736.00              710.69,736.00 719.00,712.00 719.00,712.00              719.00,712.00 883.00,712.00 883.00,712.00              883.00,712.00 871.42,746.00 871.42,746.00              871.42,746.00 850.69,803.00 850.69,803.00              850.69,803.00 781.05,994.00 781.05,994.00              781.05,994.00 667.05,1307.00 667.05,1307.00              667.05,1307.00 628.05,1414.00 628.05,1414.00              628.05,1414.00 607.00,1471.00 607.00,1471.00              607.00,1471.00 823.00,1471.00 823.00,1471.00              823.93,1465.05 827.76,1455.97 829.95,1450.00              829.95,1450.00 842.31,1416.00 842.31,1416.00              842.31,1416.00 886.31,1295.00 886.31,1295.00              886.31,1295.00 1026.69,909.00 1026.69,909.00              1026.69,909.00 1070.05,790.00 1070.05,790.00              1078.97,765.61 1090.96,736.21 1091.00,710.00              1091.03,691.39 1090.27,676.78 1083.58,659.00              1064.52,608.37 1016.73,582.53 965.00,578.91              965.00,578.91 953.00,578.00 953.00,578.00              953.00,578.00 769.00,578.00 769.00,578.00              769.00,578.00 786.31,528.00 786.31,528.00              786.31,528.00 824.95,422.00 824.95,422.00              824.95,422.00 927.05,141.00 927.05,141.00              927.05,141.00 959.05,53.00 959.05,53.00              959.05,53.00 977.00,3.00 977.00,3.00 Z            M 1251.00,1337.00            C 1251.00,1337.00 1278.95,1260.00 1278.95,1260.00              1278.95,1260.00 1332.95,1112.00 1332.95,1112.00              1332.95,1112.00 1395.95,939.00 1395.95,939.00              1395.95,939.00 1425.81,857.00 1425.81,857.00              1425.81,857.00 1445.05,804.00 1445.05,804.00              1445.05,804.00 1466.66,745.00 1466.66,745.00              1466.66,745.00 1475.00,722.00 1475.00,722.00              1475.00,722.00 1479.70,711.99 1479.70,711.99              1479.70,711.99 1487.00,711.00 1487.00,711.00              1487.00,711.00 1643.00,711.00 1643.00,711.00              1643.00,711.00 1625.05,761.00 1625.05,761.00              1625.05,761.00 1590.05,857.00 1590.05,857.00              1590.05,857.00 1520.95,1047.00 1520.95,1047.00              1520.95,1047.00 1468.34,1191.00 1468.34,1191.00              1468.34,1191.00 1427.58,1303.00 1427.58,1303.00              1427.58,1303.00 1418.81,1327.00 1418.81,1327.00              1418.81,1327.00 1414.49,1335.98 1414.49,1335.98              1414.49,1335.98 1407.00,1337.00 1407.00,1337.00              1407.00,1337.00 1251.00,1337.00 1251.00,1337.00 Z" />
</svg>