<svg xmlns="http://www.w3.org/2000/svg" viewBox="148.5 200.5 727 823.82">
  <path id="html5" fill="#303030" stroke="none" stroke-width="1"
    d="M 149.00,201.00            C 149.00,201.00 875.00,201.00 875.00,201.00              875.00,201.00 874.09,212.00 874.09,212.00              874.09,212.00 870.17,256.00 870.17,256.00              870.17,256.00 861.17,357.00 861.17,357.00              861.17,357.00 841.83,577.00 841.83,577.00              841.83,577.00 832.83,678.00 832.83,678.00              832.83,678.00 828.09,728.00 828.09,728.00              828.09,728.00 824.17,772.00 824.17,772.00              824.17,772.00 814.17,884.00 814.17,884.00              814.17,884.00 810.42,927.00 810.42,927.00              810.42,927.00 808.60,940.57 808.60,940.57              808.60,940.57 799.00,944.85 799.00,944.85              799.00,944.85 775.00,951.42 775.00,951.42              775.00,951.42 676.00,978.88 676.00,978.88              676.00,978.88 562.00,1010.42 562.00,1010.42              562.00,1010.42 528.00,1019.88 528.00,1019.88              528.00,1019.88 511.00,1023.82 511.00,1023.82              511.00,1023.82 493.00,1019.37 493.00,1019.37              493.00,1019.37 450.00,1007.42 450.00,1007.42              450.00,1007.42 327.00,973.42 327.00,973.42              327.00,973.42 245.00,950.71 245.00,950.71              245.00,950.71 225.00,945.14 225.00,945.14              225.00,945.14 215.93,941.44 215.93,941.44              215.93,941.44 213.58,928.00 213.58,928.00              213.58,928.00 211.83,907.00 211.83,907.00              211.83,907.00 209.97,887.00 209.97,887.00              209.97,887.00 208.17,869.00 208.17,869.00              208.17,869.00 205.17,835.00 205.17,835.00              205.17,835.00 197.83,750.00 197.83,750.00              197.83,750.00 172.17,465.00 172.17,465.00              172.17,465.00 166.83,402.00 166.83,402.00              166.83,402.00 155.83,279.00 155.83,279.00              155.83,279.00 149.00,201.00 149.00,201.00 Z            M 739.00,352.00            C 739.00,352.00 284.00,352.00 284.00,352.00              284.00,352.00 290.83,431.00 290.83,431.00              290.83,431.00 303.17,570.00 303.17,570.00              303.17,570.00 308.00,627.00 308.00,627.00              308.00,627.00 505.00,627.00 505.00,627.00              505.00,627.00 520.00,628.00 520.00,628.00              520.00,628.00 623.00,628.00 623.00,628.00              623.00,628.00 620.17,660.00 620.17,660.00              620.17,660.00 615.28,715.00 615.28,715.00              615.28,715.00 613.42,736.00 613.42,736.00              613.09,738.51 613.20,742.45 611.40,744.28              609.69,746.02 603.58,747.26 601.00,748.00              601.00,748.00 573.00,755.42 573.00,755.42              573.00,755.42 533.00,766.15 533.00,766.15              528.87,767.27 515.29,771.40 512.00,771.40              508.43,771.41 498.18,768.18 494.00,767.13              494.00,767.13 455.00,756.71 455.00,756.71              455.00,756.71 425.00,748.63 425.00,748.63              421.32,747.68 414.13,746.49 411.74,743.58              409.50,740.86 409.20,727.14 408.91,723.00              408.91,723.00 404.00,672.00 404.00,672.00              404.00,672.00 313.00,672.00 313.00,672.00              313.00,672.00 315.83,709.00 315.83,709.00              315.83,709.00 321.83,776.00 321.83,776.00              321.83,776.00 324.00,801.00 324.00,801.00              324.12,803.43 324.86,812.85 326.02,814.49              327.42,816.46 330.78,817.05 333.00,817.63              333.00,817.63 347.00,821.58 347.00,821.58              347.00,821.58 406.00,838.00 406.00,838.00              406.00,838.00 481.00,858.88 481.00,858.88              487.88,860.70 507.19,867.24 513.00,866.66              513.00,866.66 548.00,857.15 548.00,857.15              548.00,857.15 627.00,835.29 627.00,835.29              627.00,835.29 677.00,821.42 677.00,821.42              680.62,820.39 694.38,817.11 696.41,815.16              699.31,812.36 698.88,802.15 699.42,798.00              699.42,798.00 704.17,745.00 704.17,745.00              704.17,745.00 716.17,611.00 716.17,611.00              716.17,611.00 720.17,566.00 720.17,566.00              720.17,566.00 723.00,536.00 723.00,536.00              723.00,536.00 392.00,536.00 392.00,536.00              392.00,536.00 390.17,514.00 390.17,514.00              390.17,514.00 386.83,474.00 386.83,474.00              386.83,474.00 384.00,444.00 384.00,444.00              384.00,444.00 731.00,444.00 731.00,444.00              731.00,444.00 737.17,377.00 737.17,377.00              737.17,377.00 739.00,352.00 739.00,352.00 Z" />
</svg>