<svg xmlns="http://www.w3.org/2000/svg" viewBox="149 0 726 1023.86">
  <path id="Selection" fill="#303030" stroke="none" stroke-width="1" d="M 216.00,0.00            C 216.00,0.00 263.00,0.00 263.00,0.00              263.00,0.00 263.00,45.00 263.00,45.00              263.00,45.00 305.00,45.00 305.00,45.00              305.00,45.00 305.00,0.00 305.00,0.00              305.00,0.00 352.00,0.00 352.00,0.00              352.00,0.00 352.00,138.00 352.00,138.00              352.00,138.00 305.00,138.00 305.00,138.00              305.00,138.00 305.00,92.00 305.00,92.00              305.00,92.00 264.00,92.00 264.00,92.00              264.00,92.00 264.00,138.00 264.00,138.00              264.00,138.00 216.00,138.00 216.00,138.00              216.00,138.00 216.00,0.00 216.00,0.00 Z            M 371.00,0.00            C 371.00,0.00 499.00,0.00 499.00,0.00              499.00,0.00 499.00,46.00 499.00,46.00              499.00,46.00 458.00,46.00 458.00,46.00              458.00,46.00 458.00,138.00 458.00,138.00              458.00,138.00 412.00,138.00 412.00,138.00              412.00,138.00 412.00,46.00 412.00,46.00              412.00,46.00 371.00,46.00 371.00,46.00              371.00,46.00 371.00,0.00 371.00,0.00 Z            M 519.00,0.00            C 519.00,0.00 560.00,0.00 560.00,0.00              560.00,0.00 568.48,1.60 568.48,1.60              568.48,1.60 578.00,16.00 578.00,16.00              578.00,16.00 596.00,47.00 596.00,47.00              596.00,47.00 616.80,14.00 616.80,14.00              625.02,0.30 624.02,0.02 633.00,0.00              633.00,0.00 675.00,0.00 675.00,0.00              675.00,0.00 675.00,138.00 675.00,138.00              675.00,138.00 628.00,138.00 628.00,138.00              628.00,138.00 628.00,95.00 628.00,95.00              628.00,95.00 627.00,72.00 627.00,72.00              627.00,72.00 616.42,90.00 616.42,90.00              616.42,90.00 596.00,120.00 596.00,120.00              596.00,120.00 565.00,73.00 565.00,73.00              565.00,73.00 565.00,138.00 565.00,138.00              565.00,138.00 519.00,138.00 519.00,138.00              519.00,138.00 519.00,0.00 519.00,0.00 Z            M 697.00,0.00            C 697.00,0.00 744.00,0.00 744.00,0.00              744.00,0.00 744.00,92.00 744.00,92.00              744.00,92.00 809.00,92.00 809.00,92.00              809.00,92.00 809.00,138.00 809.00,138.00              809.00,138.00 697.00,138.00 697.00,138.00              697.00,138.00 697.00,0.00 697.00,0.00 Z            M 149.00,201.00            C 149.00,201.00 875.00,201.00 875.00,201.00              875.00,201.00 869.17,269.00 869.17,269.00              869.17,269.00 859.17,381.00 859.17,381.00              859.17,381.00 853.83,444.00 853.83,444.00              853.83,444.00 825.17,763.00 825.17,763.00              825.17,763.00 813.17,897.00 813.17,897.00              813.17,897.00 810.28,930.00 810.28,930.00              809.85,933.66 810.57,939.55 807.49,942.07              805.92,943.35 798.38,945.18 796.00,945.86              796.00,945.86 769.00,953.37 769.00,953.37              769.00,953.37 684.00,976.88 684.00,976.88              684.00,976.88 564.00,1010.14 564.00,1010.14              564.00,1010.14 527.00,1020.37 527.00,1020.37              521.96,1021.68 515.04,1024.23 510.00,1023.81              510.00,1023.81 488.00,1018.15 488.00,1018.15              488.00,1018.15 440.00,1004.88 440.00,1004.88              440.00,1004.88 287.00,962.58 287.00,962.58              287.00,962.58 240.00,949.58 240.00,949.58              240.00,949.58 215.00,943.00 215.00,943.00              215.00,943.00 211.83,909.00 211.83,909.00              211.83,909.00 204.83,830.00 204.83,830.00              204.83,830.00 187.17,635.00 187.17,635.00              187.17,635.00 182.83,583.00 182.83,583.00              182.83,583.00 165.17,388.00 165.17,388.00              165.17,388.00 159.83,325.00 159.83,325.00              159.83,325.00 152.83,247.00 152.83,247.00              152.83,247.00 149.00,201.00 149.00,201.00 Z            M 739.00,352.00            C 739.00,352.00 284.00,352.00 284.00,352.00              284.00,352.00 290.83,431.00 290.83,431.00              290.83,431.00 303.17,570.00 303.17,570.00              303.17,570.00 308.00,627.00 308.00,627.00              308.00,627.00 505.00,627.00 505.00,627.00              505.00,627.00 520.00,628.00 520.00,628.00              520.00,628.00 623.00,628.00 623.00,628.00              623.00,628.00 620.17,660.00 620.17,660.00              620.17,660.00 615.28,715.00 615.28,715.00              615.28,715.00 613.42,736.00 613.42,736.00              613.09,738.51 613.20,742.45 611.40,744.28              609.69,746.02 603.58,747.26 601.00,748.00              601.00,748.00 573.00,755.42 573.00,755.42              573.00,755.42 533.00,766.15 533.00,766.15              528.87,767.27 515.29,771.40 512.00,771.40              508.43,771.41 498.18,768.18 494.00,767.13              494.00,767.13 455.00,756.71 455.00,756.71              455.00,756.71 425.00,748.63 425.00,748.63              421.32,747.68 414.13,746.49 411.74,743.58              409.50,740.86 409.20,727.14 408.91,723.00              408.91,723.00 404.00,672.00 404.00,672.00              404.00,672.00 313.00,672.00 313.00,672.00              313.00,672.00 315.83,709.00 315.83,709.00              315.83,709.00 321.83,776.00 321.83,776.00              321.83,776.00 324.00,801.00 324.00,801.00              324.12,803.43 324.86,812.85 326.02,814.49              327.42,816.46 330.78,817.05 333.00,817.63              333.00,817.63 347.00,821.58 347.00,821.58              347.00,821.58 406.00,838.00 406.00,838.00              406.00,838.00 481.00,858.88 481.00,858.88              487.88,860.70 507.19,867.24 513.00,866.66              513.00,866.66 548.00,857.15 548.00,857.15              548.00,857.15 627.00,835.29 627.00,835.29              627.00,835.29 677.00,821.42 677.00,821.42              680.62,820.39 694.38,817.11 696.41,815.16              699.31,812.36 698.88,802.15 699.42,798.00              699.42,798.00 704.17,745.00 704.17,745.00              704.17,745.00 716.17,611.00 716.17,611.00              716.17,611.00 720.17,566.00 720.17,566.00              720.17,566.00 723.00,536.00 723.00,536.00              723.00,536.00 392.00,536.00 392.00,536.00              392.00,536.00 390.17,514.00 390.17,514.00              390.17,514.00 386.83,474.00 386.83,474.00              386.83,474.00 384.00,444.00 384.00,444.00              384.00,444.00 731.00,444.00 731.00,444.00              731.00,444.00 737.17,377.00 737.17,377.00              737.17,377.00 739.00,352.00 739.00,352.00 Z"/>
</svg>