<svg xmlns="http://www.w3.org/2000/svg" viewBox="-0.5 -0.47 1009 1024.99">
  <path id="huawei-wordmark" fill="#303030" stroke="none" stroke-width="1"
    d="M 423.00,0.51            C 425.41,0.13 428.59,-0.34 430.90,0.51              435.44,2.44 441.03,15.36 443.22,20.00              453.66,42.09 460.46,66.36 466.37,90.00              474.45,122.32 480.51,159.82 483.83,193.00              483.83,193.00 486.17,221.00 486.17,221.00              486.17,221.00 489.00,267.00 489.00,267.00              489.00,267.00 490.00,280.00 490.00,280.00              490.00,280.00 490.00,298.00 490.00,298.00              490.00,298.00 491.00,315.00 491.00,315.00              491.00,315.00 491.00,362.00 491.00,362.00              491.00,362.00 490.00,377.00 490.00,377.00              490.00,377.00 490.00,400.00 490.00,400.00              490.00,400.00 489.00,415.00 489.00,415.00              489.00,415.00 488.00,445.00 488.00,445.00              488.00,445.00 486.09,471.00 486.09,471.00              486.09,471.00 484.91,494.00 484.91,494.00              484.91,494.00 481.96,530.00 481.96,530.00              481.96,530.00 478.98,561.00 478.98,561.00              478.72,564.42 477.93,569.86 473.02,568.34              469.50,567.26 466.03,561.04 464.00,558.00              464.00,558.00 447.00,533.00 447.00,533.00              447.00,533.00 380.40,426.00 380.40,426.00              380.40,426.00 346.14,365.00 346.14,365.00              346.14,365.00 322.75,319.00 322.75,319.00              322.75,319.00 302.99,275.00 302.99,275.00              276.63,211.11 255.14,136.77 293.60,73.00              299.88,62.58 305.39,55.62 314.00,47.00              325.71,35.28 335.35,28.15 350.00,20.48              370.87,9.57 399.68,4.24 423.00,0.51 Z            M 578.21,1.02            C 583.27,-0.80 588.84,0.81 594.00,1.80              594.00,1.80 623.00,7.79 623.00,7.79              676.46,19.33 717.64,57.07 732.57,110.00              736.79,124.96 737.18,140.58 737.00,156.00              737.00,156.00 736.09,166.00 736.09,166.00              733.36,203.31 721.63,238.57 707.60,273.00              684.49,329.76 646.80,398.74 614.42,451.00              614.42,451.00 556.67,542.00 556.67,542.00              556.67,542.00 542.33,563.00 542.33,563.00              540.53,565.60 537.93,569.63 534.14,568.34              530.76,567.20 530.47,561.07 530.17,558.00              530.17,558.00 527.58,528.00 527.58,528.00              527.58,528.00 523.91,478.00 523.91,478.00              523.91,478.00 520.00,395.00 520.00,395.00              520.00,395.00 519.00,380.00 519.00,380.00              519.00,380.00 519.00,300.00 519.00,300.00              519.00,300.00 519.98,287.00 519.98,287.00              519.98,287.00 519.98,272.00 519.98,272.00              519.98,272.00 521.00,259.00 521.00,259.00              521.00,259.00 523.83,217.00 523.83,217.00              527.85,175.01 531.76,145.53 540.20,104.00              544.89,80.90 554.00,49.56 563.28,28.00              566.42,20.71 572.44,5.88 578.21,1.02 Z            M 152.96,135.17            C 153.50,135.12 154.10,134.53 155.71,135.17              158.25,136.18 168.56,149.98 170.88,153.00              170.88,153.00 216.29,214.00 216.29,214.00              263.96,280.90 308.55,349.73 349.42,421.00              349.42,421.00 384.24,484.00 384.24,484.00              384.24,484.00 425.78,567.00 425.78,567.00              425.78,567.00 435.04,587.00 435.04,587.00              435.82,589.31 436.59,593.15 433.69,594.36              430.77,595.57 425.61,592.55 423.00,591.25              423.00,591.25 397.00,578.25 397.00,578.25              397.00,578.25 339.00,547.31 339.00,547.31              339.00,547.31 289.00,519.20 289.00,519.20              246.53,493.90 204.60,468.58 165.00,438.87              152.12,429.21 139.78,419.05 128.00,408.09              128.00,408.09 109.17,390.00 109.17,390.00              93.92,373.06 81.46,350.15 75.89,328.00              72.20,313.29 71.98,301.91 72.00,287.00              72.05,256.99 88.23,222.27 103.40,197.00              112.51,181.82 123.40,167.56 134.75,154.00              138.80,149.17 148.07,138.19 152.96,135.17 Z            M 854.17,135.17            C 859.43,134.69 862.23,139.32 865.42,143.00              865.42,143.00 886.87,168.00 886.87,168.00              914.90,204.87 938.07,247.49 938.00,295.00              937.94,331.87 922.32,365.89 897.83,393.00              891.18,400.36 874.07,415.34 866.00,422.08              814.27,465.25 737.64,510.56 678.00,543.30              678.00,543.30 635.00,566.69 635.00,566.69              635.00,566.69 616.00,576.31 616.00,576.31              616.00,576.31 581.00,594.02 581.00,594.02              576.10,595.52 573.57,592.90 574.63,588.00              574.63,588.00 584.78,565.00 584.78,565.00              584.78,565.00 612.74,509.00 612.74,509.00              612.74,509.00 631.42,473.00 631.42,473.00              631.42,473.00 676.01,394.00 676.01,394.00              709.58,336.86 745.84,280.96 784.29,227.00              784.29,227.00 832.79,161.00 832.79,161.00              837.64,154.81 848.62,139.07 854.17,135.17 Z            M 1002.00,391.00            C 1003.82,402.84 1007.98,409.77 1008.00,423.00              1008.00,423.00 1008.00,472.00 1008.00,472.00              1007.98,485.02 1003.77,498.74 999.67,511.00              983.21,560.18 940.17,604.25 891.00,621.00              875.12,626.41 853.76,631.97 837.00,632.00              837.00,632.00 772.00,632.00 772.00,632.00              772.00,632.00 608.00,632.00 608.00,632.00              603.65,631.99 594.39,631.22 600.43,624.52              600.43,624.52 619.00,611.67 619.00,611.67              619.00,611.67 692.00,566.00 692.00,566.00              761.70,524.18 832.03,483.76 903.00,444.14              903.00,444.14 971.00,406.69 971.00,406.69              978.32,402.72 994.89,392.69 1002.00,391.00 Z            M 8.00,392.00            C 14.21,393.17 19.47,396.85 25.00,399.78              25.00,399.78 56.00,416.69 56.00,416.69              56.00,416.69 163.00,476.00 163.00,476.00              226.13,512.09 289.17,548.11 351.00,586.42              351.00,586.42 399.00,617.05 399.00,617.05              401.26,618.49 407.96,622.71 409.40,624.52              413.63,629.83 408.67,631.91 404.00,632.00              404.00,632.00 400.00,632.00 400.00,632.00              400.00,632.00 385.00,633.00 385.00,633.00              385.00,633.00 250.00,633.00 250.00,633.00              250.00,633.00 181.00,633.00 181.00,633.00              181.00,633.00 169.00,632.09 169.00,632.09              122.24,628.67 76.25,606.81 45.58,571.00              32.54,555.77 25.64,544.81 16.75,527.00              8.08,509.62 0.09,480.44 0.00,461.00              0.00,461.00 0.00,435.00 0.00,435.00              0.18,420.18 4.78,406.25 8.00,392.00 Z            M 91.00,665.00            C 91.00,665.00 105.00,665.00 105.00,665.00              105.00,665.00 121.00,664.00 121.00,664.00              121.00,664.00 135.00,664.00 135.00,664.00              135.00,664.00 150.00,663.00 150.00,663.00              150.00,663.00 191.00,662.00 191.00,662.00              191.00,662.00 206.00,661.00 206.00,661.00              206.00,661.00 246.00,660.00 246.00,660.00              246.00,660.00 261.00,659.00 261.00,659.00              261.00,659.00 275.00,659.00 275.00,659.00              275.00,659.00 291.00,658.00 291.00,658.00              291.00,658.00 305.00,658.00 305.00,658.00              305.00,658.00 320.00,656.96 320.00,656.96              320.00,656.96 336.00,656.96 336.00,656.96              336.00,656.96 347.00,656.00 347.00,656.00              347.00,656.00 362.00,656.00 362.00,656.00              362.00,656.00 375.00,655.00 375.00,655.00              375.00,655.00 398.00,654.32 398.00,654.32              401.40,654.09 407.22,655.23 405.60,660.00              404.15,664.26 391.15,672.17 387.00,675.02              387.00,675.02 337.00,708.66 337.00,708.66              316.68,721.93 295.71,734.39 274.00,745.25              257.78,753.36 241.55,760.91 223.00,761.00              208.68,761.07 198.67,759.98 185.00,755.14              173.03,750.90 163.37,745.57 153.00,738.28              141.11,729.92 130.34,720.00 120.87,709.00              112.77,699.59 94.56,676.28 91.00,665.00 Z            M 919.00,665.00            C 914.05,678.41 892.02,706.15 881.91,717.00              873.15,726.40 860.88,736.15 850.00,743.05              835.76,752.06 814.01,760.80 797.00,761.00              797.00,761.00 783.00,761.00 783.00,761.00              763.47,760.91 738.98,747.51 722.00,738.31              695.09,723.72 669.45,706.97 644.00,690.00              644.00,690.00 610.00,666.34 610.00,666.34              600.73,659.83 601.20,655.02 613.00,655.00              613.00,655.00 628.00,655.00 628.00,655.00              628.00,655.00 641.00,656.00 641.00,656.00              641.00,656.00 657.00,656.00 657.00,656.00              657.00,656.00 672.00,657.00 672.00,657.00              672.00,657.00 714.00,658.00 714.00,658.00              714.00,658.00 729.00,659.04 729.00,659.04              729.00,659.04 746.00,659.04 746.00,659.04              746.00,659.04 757.00,660.00 757.00,660.00              757.00,660.00 772.00,660.00 772.00,660.00              772.00,660.00 785.00,661.00 785.00,661.00              785.00,661.00 800.00,661.00 800.00,661.00              800.00,661.00 816.00,662.00 816.00,662.00              816.00,662.00 830.00,662.00 830.00,662.00              830.00,662.00 845.00,663.00 845.00,663.00              845.00,663.00 859.00,663.00 859.00,663.00              859.00,663.00 874.00,664.00 874.00,664.00              874.00,664.00 919.00,665.00 919.00,665.00 Z            M 7.00,856.00            C 7.00,856.00 42.00,856.00 42.00,856.00              42.00,856.00 42.00,924.00 42.00,924.00              42.00,924.00 118.00,924.00 118.00,924.00              118.00,924.00 118.00,856.00 118.00,856.00              118.00,856.00 153.00,856.00 153.00,856.00              153.00,856.00 153.00,1024.00 153.00,1024.00              153.00,1024.00 118.00,1024.00 118.00,1024.00              118.00,1024.00 118.00,957.00 118.00,957.00              118.00,957.00 42.00,957.00 42.00,957.00              42.00,957.00 42.00,1024.00 42.00,1024.00              42.00,1024.00 7.00,1024.00 7.00,1024.00              7.00,1024.00 7.00,856.00 7.00,856.00 Z            M 199.00,856.00            C 199.00,856.00 234.00,856.00 234.00,856.00              234.00,856.00 234.00,950.00 234.00,950.00              234.02,962.29 236.83,975.96 246.17,984.68              261.85,999.31 291.75,996.62 303.07,978.00              308.62,968.88 309.95,956.54 310.00,946.00              310.00,946.00 310.00,856.00 310.00,856.00              310.00,856.00 345.00,856.00 345.00,856.00              345.00,856.00 345.00,946.00 345.00,946.00              345.00,946.00 344.09,958.00 344.09,958.00              342.81,976.54 339.53,992.57 326.56,1006.91              317.97,1016.41 304.99,1023.94 292.00,1024.00              292.00,1024.00 252.00,1024.00 252.00,1024.00              242.55,1023.99 237.04,1021.94 229.00,1016.94              207.86,1003.79 199.04,979.00 199.00,955.00              199.00,955.00 199.00,856.00 199.00,856.00 Z            M 361.00,1024.00            C 361.00,1024.00 377.72,985.00 377.72,985.00              377.72,985.00 417.42,895.00 417.42,895.00              417.42,895.00 429.77,867.00 429.77,867.00              433.36,859.14 432.96,856.15 441.00,856.00              441.00,856.00 458.00,856.00 458.00,856.00              460.06,856.00 463.61,855.74 465.30,856.99              467.04,858.28 470.02,865.71 471.00,868.00              471.00,868.00 482.42,894.00 482.42,894.00              482.42,894.00 521.42,983.00 521.42,983.00              521.42,983.00 539.00,1024.00 539.00,1024.00              539.00,1024.00 510.00,1024.00 510.00,1024.00              510.00,1024.00 502.64,1023.01 502.64,1023.01              502.64,1023.01 498.58,1016.00 498.58,1016.00              498.58,1016.00 491.28,999.00 491.28,999.00              491.28,999.00 486.61,991.02 486.61,991.02              486.61,991.02 479.00,990.00 479.00,990.00              479.00,990.00 411.00,990.00 411.00,990.00              411.00,990.00 401.42,1014.00 401.42,1014.00              401.42,1014.00 396.37,1023.01 396.37,1023.01              396.37,1023.01 390.00,1024.00 390.00,1024.00              390.00,1024.00 361.00,1024.00 361.00,1024.00 Z            M 526.00,856.00            C 526.00,856.00 563.00,856.00 563.00,856.00              563.00,856.00 577.33,901.00 577.33,901.00              577.33,901.00 599.00,969.00 599.00,969.00              599.00,969.00 628.00,883.00 628.00,883.00              628.00,883.00 633.72,865.00 633.72,865.00              633.72,865.00 637.51,857.02 637.51,857.02              637.51,857.02 645.00,856.00 645.00,856.00              645.00,856.00 666.00,856.00 666.00,856.00              666.00,856.00 678.33,894.00 678.33,894.00              678.33,894.00 703.00,969.00 703.00,969.00              703.00,969.00 711.33,944.00 711.33,944.00              711.33,944.00 731.00,883.00 731.00,883.00              731.00,883.00 736.98,865.00 736.98,865.00              736.98,865.00 740.51,857.02 740.51,857.02              740.51,857.02 748.00,856.00 748.00,856.00              748.00,856.00 776.00,856.00 776.00,856.00              776.00,856.00 762.67,896.00 762.67,896.00              762.67,896.00 731.34,986.00 731.34,986.00              731.34,986.00 722.33,1012.00 722.33,1012.00              718.76,1022.68 719.24,1023.86 712.00,1024.00              712.00,1024.00 696.00,1024.00 696.00,1024.00              693.96,1024.00 690.37,1024.26 688.70,1023.01              687.07,1021.79 685.93,1017.93 685.19,1016.00              685.19,1016.00 679.33,999.00 679.33,999.00              679.33,999.00 651.00,917.00 651.00,917.00              651.00,917.00 630.66,975.00 630.66,975.00              630.66,975.00 614.00,1024.00 614.00,1024.00              614.00,1024.00 592.00,1024.00 592.00,1024.00              592.00,1024.00 583.70,1022.40 583.70,1022.40              583.70,1022.40 579.00,1011.00 579.00,1011.00              579.00,1011.00 570.33,986.00 570.33,986.00              570.33,986.00 539.00,896.00 539.00,896.00              539.00,896.00 526.00,856.00 526.00,856.00 Z            M 802.00,856.00            C 802.00,856.00 927.00,856.00 927.00,856.00              927.00,856.00 927.00,888.00 927.00,888.00              927.00,888.00 837.00,888.00 837.00,888.00              837.00,888.00 837.00,921.00 837.00,921.00              837.00,921.00 899.00,921.00 899.00,921.00              899.00,921.00 899.00,953.00 899.00,953.00              899.00,953.00 837.00,953.00 837.00,953.00              837.00,953.00 837.00,993.00 837.00,993.00              837.00,993.00 930.00,993.00 930.00,993.00              930.00,993.00 930.00,1024.00 930.00,1024.00              930.00,1024.00 802.00,1024.00 802.00,1024.00              802.00,1024.00 802.00,856.00 802.00,856.00 Z            M 970.00,856.00            C 970.00,856.00 1004.00,856.00 1004.00,856.00              1004.00,856.00 1004.00,1024.00 1004.00,1024.00              1004.00,1024.00 970.00,1024.00 970.00,1024.00              970.00,1024.00 970.00,856.00 970.00,856.00 Z            M 450.00,901.00            C 450.00,901.00 438.58,926.00 438.58,926.00              438.58,926.00 425.00,959.00 425.00,959.00              425.00,959.00 474.00,959.00 474.00,959.00              474.00,959.00 465.85,938.00 465.85,938.00              465.85,938.00 450.00,901.00 450.00,901.00 Z" />
</svg>