<svg xmlns="http://www.w3.org/2000/svg" viewBox="6.5 855.48 998 169.04">
  <path id="huawei-text" fill="#303030" stroke="none" stroke-width="1"
    d="M 7.00,856.00            C 7.00,856.00 42.00,856.00 42.00,856.00              42.00,856.00 42.00,924.00 42.00,924.00              42.00,924.00 118.00,924.00 118.00,924.00              118.00,924.00 118.00,856.00 118.00,856.00              118.00,856.00 153.00,856.00 153.00,856.00              153.00,856.00 153.00,1024.00 153.00,1024.00              153.00,1024.00 118.00,1024.00 118.00,1024.00              118.00,1024.00 118.00,957.00 118.00,957.00              118.00,957.00 42.00,957.00 42.00,957.00              42.00,957.00 42.00,1024.00 42.00,1024.00              42.00,1024.00 7.00,1024.00 7.00,1024.00              7.00,1024.00 7.00,856.00 7.00,856.00 Z            M 199.00,856.00            C 199.00,856.00 234.00,856.00 234.00,856.00              234.00,856.00 234.00,950.00 234.00,950.00              234.02,962.29 236.83,975.96 246.17,984.68              261.85,999.31 291.75,996.62 303.07,978.00              308.62,968.88 309.95,956.54 310.00,946.00              310.00,946.00 310.00,856.00 310.00,856.00              310.00,856.00 345.00,856.00 345.00,856.00              345.00,856.00 345.00,946.00 345.00,946.00              345.00,946.00 344.09,958.00 344.09,958.00              342.81,976.54 339.53,992.57 326.56,1006.91              317.97,1016.41 304.99,1023.94 292.00,1024.00              292.00,1024.00 252.00,1024.00 252.00,1024.00              242.55,1023.99 237.04,1021.94 229.00,1016.94              207.86,1003.79 199.04,979.00 199.00,955.00              199.00,955.00 199.00,856.00 199.00,856.00 Z            M 361.00,1024.00            C 361.00,1024.00 377.72,985.00 377.72,985.00              377.72,985.00 417.42,895.00 417.42,895.00              417.42,895.00 429.77,867.00 429.77,867.00              433.36,859.14 432.96,856.15 441.00,856.00              441.00,856.00 458.00,856.00 458.00,856.00              460.06,856.00 463.61,855.74 465.30,856.99              467.04,858.28 470.02,865.71 471.00,868.00              471.00,868.00 482.42,894.00 482.42,894.00              482.42,894.00 521.42,983.00 521.42,983.00              521.42,983.00 539.00,1024.00 539.00,1024.00              539.00,1024.00 510.00,1024.00 510.00,1024.00              510.00,1024.00 502.64,1023.01 502.64,1023.01              502.64,1023.01 498.58,1016.00 498.58,1016.00              498.58,1016.00 491.28,999.00 491.28,999.00              491.28,999.00 486.61,991.02 486.61,991.02              486.61,991.02 479.00,990.00 479.00,990.00              479.00,990.00 411.00,990.00 411.00,990.00              411.00,990.00 401.42,1014.00 401.42,1014.00              401.42,1014.00 396.37,1023.01 396.37,1023.01              396.37,1023.01 390.00,1024.00 390.00,1024.00              390.00,1024.00 361.00,1024.00 361.00,1024.00 Z            M 526.00,856.00            C 526.00,856.00 563.00,856.00 563.00,856.00              563.00,856.00 577.33,901.00 577.33,901.00              577.33,901.00 599.00,969.00 599.00,969.00              599.00,969.00 628.00,883.00 628.00,883.00              628.00,883.00 633.72,865.00 633.72,865.00              633.72,865.00 637.51,857.02 637.51,857.02              637.51,857.02 645.00,856.00 645.00,856.00              645.00,856.00 666.00,856.00 666.00,856.00              666.00,856.00 678.33,894.00 678.33,894.00              678.33,894.00 703.00,969.00 703.00,969.00              703.00,969.00 711.33,944.00 711.33,944.00              711.33,944.00 731.00,883.00 731.00,883.00              731.00,883.00 736.98,865.00 736.98,865.00              736.98,865.00 740.51,857.02 740.51,857.02              740.51,857.02 748.00,856.00 748.00,856.00              748.00,856.00 776.00,856.00 776.00,856.00              776.00,856.00 762.67,896.00 762.67,896.00              762.67,896.00 731.34,986.00 731.34,986.00              731.34,986.00 722.33,1012.00 722.33,1012.00              718.76,1022.68 719.24,1023.86 712.00,1024.00              712.00,1024.00 696.00,1024.00 696.00,1024.00              693.96,1024.00 690.37,1024.26 688.70,1023.01              687.07,1021.79 685.93,1017.93 685.19,1016.00              685.19,1016.00 679.33,999.00 679.33,999.00              679.33,999.00 651.00,917.00 651.00,917.00              651.00,917.00 630.66,975.00 630.66,975.00              630.66,975.00 614.00,1024.00 614.00,1024.00              614.00,1024.00 592.00,1024.00 592.00,1024.00              592.00,1024.00 583.70,1022.40 583.70,1022.40              583.70,1022.40 579.00,1011.00 579.00,1011.00              579.00,1011.00 570.33,986.00 570.33,986.00              570.33,986.00 539.00,896.00 539.00,896.00              539.00,896.00 526.00,856.00 526.00,856.00 Z            M 802.00,856.00            C 802.00,856.00 927.00,856.00 927.00,856.00              927.00,856.00 927.00,888.00 927.00,888.00              927.00,888.00 837.00,888.00 837.00,888.00              837.00,888.00 837.00,921.00 837.00,921.00              837.00,921.00 899.00,921.00 899.00,921.00              899.00,921.00 899.00,953.00 899.00,953.00              899.00,953.00 837.00,953.00 837.00,953.00              837.00,953.00 837.00,993.00 837.00,993.00              837.00,993.00 930.00,993.00 930.00,993.00              930.00,993.00 930.00,1024.00 930.00,1024.00              930.00,1024.00 802.00,1024.00 802.00,1024.00              802.00,1024.00 802.00,856.00 802.00,856.00 Z            M 970.00,856.00            C 970.00,856.00 1004.00,856.00 1004.00,856.00              1004.00,856.00 1004.00,1024.00 1004.00,1024.00              1004.00,1024.00 970.00,1024.00 970.00,1024.00              970.00,1024.00 970.00,856.00 970.00,856.00 Z            M 450.00,901.00            C 450.00,901.00 438.58,926.00 438.58,926.00              438.58,926.00 425.00,959.00 425.00,959.00              425.00,959.00 474.00,959.00 474.00,959.00              474.00,959.00 465.85,938.00 465.85,938.00              465.85,938.00 450.00,901.00 450.00,901.00 Z" />
</svg>