<svg xmlns="http://www.w3.org/2000/svg" viewBox="-0.5 -0.55 2561 728.05">
  <path id="hubspot-wordmark" fill="#303030" stroke="none" stroke-width="1"
    d="M 2027.00,569.00            C 2022.73,574.97 2014.44,582.56 2009.00,588.00              2009.00,588.00 1978.00,619.00 1978.00,619.00              1974.94,622.06 1962.16,634.38 1960.84,637.00              1958.82,640.31 1960.98,649.35 1960.84,654.00              1961.10,675.29 1952.21,694.31 1934.00,706.14              1895.43,731.17 1839.56,705.89 1839.00,658.00              1839.00,658.00 1839.00,653.00 1839.00,653.00              1839.04,628.01 1855.54,605.51 1879.00,597.09              1887.92,593.89 1892.83,593.99 1902.00,594.00              1902.00,594.00 1917.00,594.81 1917.00,594.81              1920.07,593.60 1929.12,583.88 1932.00,581.00              1932.00,581.00 1963.00,550.00 1963.00,550.00              1963.00,550.00 1977.00,536.00 1977.00,536.00              1978.73,534.27 1983.26,530.02 1984.13,528.00              1985.61,524.56 1982.15,520.82 1980.45,518.00              1976.19,510.94 1972.25,503.58 1969.00,496.00              1957.19,468.43 1952.95,444.87 1953.00,415.00              1953.04,392.41 1959.91,363.52 1969.31,343.00              1969.31,343.00 1979.20,324.00 1979.20,324.00              1980.54,321.70 1982.62,318.99 1981.18,316.29              1979.95,313.99 1965.13,303.02 1962.00,300.58              1962.00,300.58 1917.00,265.58 1917.00,265.58              1917.00,265.58 1803.00,176.79 1803.00,176.79              1803.00,176.79 1770.00,151.12 1770.00,151.12              1767.13,148.91 1757.81,141.04 1755.00,140.37              1752.30,139.73 1746.02,142.97 1743.00,144.00              1735.12,146.66 1729.35,147.99 1721.00,148.00              1710.17,148.02 1704.61,147.98 1694.00,144.48              1664.63,134.81 1644.05,106.96 1644.00,76.00              1644.00,76.00 1644.00,70.00 1644.00,70.00              1644.31,43.68 1662.01,17.08 1686.00,6.44              1701.13,-0.27 1709.01,-0.18 1725.00,0.00              1757.05,0.38 1785.34,28.44 1791.20,59.00              1793.08,68.86 1792.63,72.41 1792.21,82.00              1791.72,85.75 1789.97,89.95 1792.21,93.08              1792.21,93.08 1810.00,107.21 1810.00,107.21              1810.00,107.21 1848.00,136.88 1848.00,136.88              1848.00,136.88 1961.00,224.88 1961.00,224.88              1961.00,224.88 2004.00,258.42 2004.00,258.42              2007.03,260.78 2019.33,270.95 2022.00,271.56              2025.52,272.38 2030.17,267.98 2033.00,266.02              2041.26,260.32 2050.80,254.43 2060.00,250.42              2070.93,245.66 2080.41,241.94 2092.00,238.88              2092.00,238.88 2108.69,234.83 2108.69,234.83              2111.48,232.92 2110.99,228.98 2111.00,226.00              2111.00,226.00 2111.00,160.00 2111.00,160.00              2110.97,145.04 2103.95,151.25 2090.17,136.00              2079.52,124.21 2073.19,107.88 2073.00,92.00              2072.66,62.24 2088.35,36.84 2117.00,26.70              2147.92,15.75 2183.09,28.23 2199.14,57.00              2203.72,65.21 2206.89,75.56 2207.00,85.00              2207.22,103.80 2204.93,117.88 2192.54,133.00              2189.03,137.28 2184.53,141.60 2180.00,144.79              2177.28,146.71 2171.56,149.58 2170.02,152.21              2168.79,154.31 2169.00,157.61 2169.00,160.00              2169.00,160.00 2169.00,235.00 2169.00,235.00              2196.18,238.67 2226.72,250.96 2249.00,266.86              2271.85,283.16 2288.82,301.79 2302.99,326.00              2352.74,411.01 2326.50,522.81 2244.00,576.92              2218.75,593.48 2181.43,606.95 2151.00,607.00              2151.00,607.00 2131.00,607.00 2131.00,607.00              2096.54,606.95 2053.73,590.34 2027.00,569.00 Z            M 0.00,120.00            C 0.00,120.00 90.00,120.00 90.00,120.00              90.00,120.00 90.00,324.00 90.00,324.00              90.00,324.00 277.00,324.00 277.00,324.00              277.00,324.00 277.00,120.00 277.00,120.00              277.00,120.00 367.00,120.00 367.00,120.00              367.00,120.00 367.00,609.00 367.00,609.00              367.00,609.00 277.00,609.00 277.00,609.00              277.00,609.00 277.00,411.00 277.00,411.00              277.00,411.00 90.00,411.00 90.00,411.00              90.00,411.00 90.00,609.00 90.00,609.00              90.00,609.00 0.00,609.00 0.00,609.00              0.00,609.00 0.00,120.00 0.00,120.00 Z            M 1241.00,472.00            C 1244.81,477.34 1249.47,482.11 1253.84,487.00              1275.98,511.80 1296.60,522.39 1330.00,522.00              1354.09,521.71 1378.50,504.04 1385.65,481.00              1386.81,477.27 1388.09,470.86 1387.82,467.00              1386.18,444.12 1372.59,430.12 1353.00,419.78              1330.28,407.79 1296.15,398.48 1271.00,387.58              1259.44,382.56 1247.34,376.81 1237.00,369.56              1229.99,364.65 1221.89,358.32 1216.17,352.00              1197.25,331.09 1186.04,302.29 1186.00,274.00              1186.00,274.00 1186.00,251.00 1186.00,251.00              1186.13,240.04 1189.84,223.47 1193.33,213.00              1197.16,201.53 1201.32,193.08 1208.00,183.00              1231.98,146.82 1270.89,127.72 1313.00,121.87              1319.60,120.95 1326.33,120.01 1333.00,120.00              1333.00,120.00 1350.00,120.00 1350.00,120.00              1374.85,120.04 1406.57,130.90 1428.00,143.15              1439.36,149.64 1456.12,161.48 1464.83,171.00              1467.07,173.45 1473.12,179.84 1473.27,183.00              1473.45,186.72 1466.36,194.10 1463.87,197.00              1463.87,197.00 1436.73,229.00 1436.73,229.00              1436.73,229.00 1424.00,243.98 1424.00,243.98              1422.16,246.02 1420.06,248.95 1416.96,247.83              1414.54,246.96 1406.80,238.80 1404.00,236.44              1396.43,230.07 1386.69,223.64 1378.00,218.86              1366.75,212.68 1348.94,206.54 1336.00,207.04              1312.95,207.93 1291.17,217.79 1283.36,241.00              1281.42,246.75 1280.07,253.94 1280.00,260.00              1279.70,286.46 1297.48,297.44 1320.00,306.19              1358.54,321.17 1403.57,328.92 1436.00,356.29              1472.39,387.01 1482.21,427.26 1482.00,473.00              1481.84,506.38 1467.26,542.68 1442.91,565.72              1414.14,592.93 1373.50,608.54 1334.00,609.00              1334.00,609.00 1326.00,609.68 1326.00,609.68              1326.00,609.68 1310.00,609.00 1310.00,609.00              1302.95,608.91 1293.96,607.39 1287.00,606.00              1255.19,599.64 1229.67,586.70 1205.00,565.57              1205.00,565.57 1186.09,547.00 1186.09,547.00              1184.46,545.25 1179.82,540.07 1179.15,538.00              1177.93,534.18 1183.07,529.71 1185.42,527.00              1185.42,527.00 1211.28,500.00 1211.28,500.00              1211.28,500.00 1229.99,481.00 1229.99,481.00              1233.96,476.93 1235.42,473.67 1241.00,472.00 Z            M 790.00,123.00            C 790.00,123.00 875.00,123.00 875.00,123.00              875.00,123.00 875.00,283.00 875.00,283.00              887.76,270.25 900.37,261.01 917.00,253.87              940.31,243.86 960.32,243.71 985.00,244.00              990.60,244.07 1001.32,245.71 1007.00,246.80              1040.89,253.34 1072.16,270.13 1096.91,294.17              1128.27,324.62 1146.93,367.72 1150.09,411.00              1150.09,411.00 1151.00,421.00 1151.00,421.00              1151.42,456.90 1143.32,491.42 1123.95,522.00              1072.63,603.02 962.36,635.67 878.00,587.15              859.77,576.66 843.91,562.38 830.81,546.00              810.55,520.68 797.93,489.85 792.59,458.00              791.28,450.23 790.01,441.87 790.00,434.00              790.00,434.00 790.00,366.00 790.00,366.00              790.00,366.00 790.00,123.00 790.00,123.00 Z            M 2465.00,156.00            C 2466.93,160.87 2466.00,179.62 2466.00,186.00              2466.00,186.00 2466.00,254.00 2466.00,254.00              2466.00,254.00 2544.00,254.00 2544.00,254.00              2544.00,254.00 2544.00,330.00 2544.00,330.00              2544.00,330.00 2466.00,330.00 2466.00,330.00              2466.00,330.00 2466.00,470.00 2466.00,470.00              2466.00,470.00 2466.91,480.00 2466.91,480.00              2468.01,496.00 2470.36,507.96 2484.00,518.47              2500.85,531.46 2522.99,530.03 2543.00,530.00              2543.00,530.00 2560.00,529.00 2560.00,529.00              2560.00,529.00 2555.37,549.00 2555.37,549.00              2555.37,549.00 2540.00,607.00 2540.00,607.00              2490.06,615.99 2428.60,606.81 2398.03,562.00              2392.61,554.05 2388.28,544.16 2385.34,535.00              2382.27,525.41 2380.02,512.06 2380.00,502.00              2380.00,502.00 2380.00,203.00 2380.00,203.00              2380.00,200.73 2379.78,197.34 2381.02,195.39              2382.96,192.36 2396.98,187.10 2401.00,185.22              2401.00,185.22 2465.00,156.00 2465.00,156.00 Z            M 1534.00,727.00            C 1534.00,727.00 1534.00,485.00 1534.00,485.00              1534.00,485.00 1534.00,423.00 1534.00,423.00              1534.00,423.00 1534.91,411.00 1534.91,411.00              1537.65,371.88 1550.80,333.86 1575.45,303.00              1589.34,285.61 1607.38,269.94 1627.00,259.31              1652.96,245.23 1681.56,238.66 1711.00,239.00              1711.00,239.00 1721.00,239.91 1721.00,239.91              1769.29,243.44 1816.17,264.84 1848.83,301.00              1871.72,326.34 1887.14,357.30 1892.75,391.00              1893.86,397.66 1894.99,404.23 1895.00,411.00              1895.00,411.00 1895.00,436.00 1895.00,436.00              1894.84,448.99 1890.14,469.57 1886.00,482.00              1869.66,531.02 1834.87,571.10 1787.00,591.57              1756.73,604.51 1737.07,605.37 1705.00,605.00              1690.87,604.83 1670.84,599.58 1658.00,593.69              1644.35,587.44 1630.82,577.33 1620.00,567.00              1620.00,567.00 1620.00,727.00 1620.00,727.00              1620.00,727.00 1534.00,727.00 1534.00,727.00 Z            M 419.00,241.00            C 419.00,241.00 505.00,241.00 505.00,241.00              505.00,241.00 505.00,451.00 505.00,451.00              505.06,488.19 536.94,523.82 575.00,524.00              585.53,524.05 590.77,523.93 601.00,520.48              633.50,509.55 651.95,479.36 652.00,446.00              652.00,446.00 652.00,241.00 652.00,241.00              652.00,241.00 737.00,241.00 737.00,241.00              737.00,241.00 737.00,454.00 737.00,454.00              736.97,470.82 732.95,490.17 727.31,506.00              721.41,522.57 712.96,537.26 702.00,551.00              692.88,562.43 680.15,574.14 668.00,582.33              602.57,626.43 515.05,616.94 461.09,559.00              437.75,533.93 424.35,502.80 420.28,469.00              418.01,450.10 419.00,419.12 419.00,399.00              419.00,399.00 419.00,241.00 419.00,241.00 Z            M 2127.00,325.29            C 2089.94,330.95 2059.78,352.57 2047.52,389.00              2031.71,435.98 2052.57,484.40 2097.00,506.24              2106.50,510.91 2120.39,514.87 2131.00,515.00              2149.65,515.21 2162.94,513.72 2180.00,505.19              2190.69,499.85 2201.81,491.21 2209.39,482.00              2244.99,438.74 2238.22,376.60 2193.00,342.90              2184.18,336.32 2174.50,331.85 2164.00,328.72              2151.95,325.13 2139.51,324.12 2127.00,325.29 Z            M 1706.00,326.14            C 1686.35,329.29 1670.13,336.13 1655.00,349.29              1609.30,389.04 1613.21,461.67 1661.00,497.87              1669.52,504.32 1676.88,508.29 1687.00,511.67              1695.49,514.50 1706.03,516.89 1715.00,517.00              1729.71,517.17 1744.50,514.78 1758.00,508.69              1789.20,494.62 1813.84,460.81 1814.00,426.00              1814.09,407.71 1812.38,394.69 1804.03,378.00              1789.42,348.77 1757.27,326.05 1724.00,326.14              1724.00,326.14 1706.00,326.14 1706.00,326.14 Z            M 966.00,332.28            C 944.25,335.48 928.11,340.63 911.00,355.30              901.72,363.26 894.27,373.12 888.76,384.00              862.38,436.02 887.04,499.83 943.00,518.64              957.18,523.41 972.26,524.55 987.00,522.71              999.35,521.18 1011.14,516.65 1022.00,510.69              1031.62,505.40 1040.51,497.37 1047.56,489.00              1078.73,452.00 1076.15,394.33 1041.91,360.09              1029.87,348.05 1014.39,339.52 998.00,335.15              987.90,332.46 976.42,331.32 966.00,332.28 Z" />
</svg>