<svg xmlns="http://www.w3.org/2000/svg" viewBox="1643.5 -0.55 685.16 717.01">
  <path id="hubspot" fill="#303030" stroke="none" stroke-width="1"
    d="M 2027.00,569.00            C 2022.73,574.97 2014.44,582.56 2009.00,588.00              2009.00,588.00 1978.00,619.00 1978.00,619.00              1974.94,622.06 1962.16,634.38 1960.84,637.00              1958.82,640.31 1960.98,649.35 1960.84,654.00              1961.10,675.29 1952.21,694.31 1934.00,706.14              1895.43,731.17 1839.56,705.89 1839.00,658.00              1839.00,658.00 1839.00,653.00 1839.00,653.00              1839.04,628.01 1855.54,605.51 1879.00,597.09              1887.92,593.89 1892.83,593.99 1902.00,594.00              1902.00,594.00 1917.00,594.81 1917.00,594.81              1920.07,593.60 1929.12,583.88 1932.00,581.00              1932.00,581.00 1963.00,550.00 1963.00,550.00              1963.00,550.00 1977.00,536.00 1977.00,536.00              1978.73,534.27 1983.26,530.02 1984.13,528.00              1985.61,524.56 1982.15,520.82 1980.45,518.00              1976.19,510.94 1972.25,503.58 1969.00,496.00              1957.19,468.43 1952.95,444.87 1953.00,415.00              1953.04,392.41 1959.91,363.52 1969.31,343.00              1969.31,343.00 1979.20,324.00 1979.20,324.00              1980.54,321.70 1982.62,318.99 1981.18,316.29              1979.95,313.99 1965.13,303.02 1962.00,300.58              1962.00,300.58 1917.00,265.58 1917.00,265.58              1917.00,265.58 1803.00,176.79 1803.00,176.79              1803.00,176.79 1770.00,151.12 1770.00,151.12              1767.13,148.91 1757.81,141.04 1755.00,140.37              1752.30,139.73 1746.02,142.97 1743.00,144.00              1735.12,146.66 1729.35,147.99 1721.00,148.00              1710.17,148.02 1704.61,147.98 1694.00,144.48              1664.63,134.81 1644.05,106.96 1644.00,76.00              1644.00,76.00 1644.00,70.00 1644.00,70.00              1644.31,43.68 1662.01,17.08 1686.00,6.44              1701.13,-0.27 1709.01,-0.18 1725.00,0.00              1757.05,0.38 1785.34,28.44 1791.20,59.00              1793.08,68.86 1792.63,72.41 1792.21,82.00              1791.72,85.75 1789.97,89.95 1792.21,93.08              1792.21,93.08 1810.00,107.21 1810.00,107.21              1810.00,107.21 1848.00,136.88 1848.00,136.88              1848.00,136.88 1961.00,224.88 1961.00,224.88              1961.00,224.88 2004.00,258.42 2004.00,258.42              2007.03,260.78 2019.33,270.95 2022.00,271.56              2025.52,272.38 2030.17,267.98 2033.00,266.02              2041.26,260.32 2050.80,254.43 2060.00,250.42              2070.93,245.66 2080.41,241.94 2092.00,238.88              2092.00,238.88 2108.69,234.83 2108.69,234.83              2111.48,232.92 2110.99,228.98 2111.00,226.00              2111.00,226.00 2111.00,160.00 2111.00,160.00              2110.97,145.04 2103.95,151.25 2090.17,136.00              2079.52,124.21 2073.19,107.88 2073.00,92.00              2072.66,62.24 2088.35,36.84 2117.00,26.70              2147.92,15.75 2183.09,28.23 2199.14,57.00              2203.72,65.21 2206.89,75.56 2207.00,85.00              2207.22,103.80 2204.93,117.88 2192.54,133.00              2189.03,137.28 2184.53,141.60 2180.00,144.79              2177.28,146.71 2171.56,149.58 2170.02,152.21              2168.79,154.31 2169.00,157.61 2169.00,160.00              2169.00,160.00 2169.00,235.00 2169.00,235.00              2196.18,238.67 2226.72,250.96 2249.00,266.86              2271.85,283.16 2288.82,301.79 2302.99,326.00              2352.74,411.01 2326.50,522.81 2244.00,576.92              2218.75,593.48 2181.43,606.95 2151.00,607.00              2151.00,607.00 2131.00,607.00 2131.00,607.00              2096.54,606.95 2053.73,590.34 2027.00,569.00 Z            M 2127.00,325.29            C 2089.94,330.95 2059.78,352.57 2047.52,389.00              2031.71,435.98 2052.57,484.40 2097.00,506.24              2106.50,510.91 2120.39,514.87 2131.00,515.00              2149.65,515.21 2162.94,513.72 2180.00,505.19              2190.69,499.85 2201.81,491.21 2209.39,482.00              2244.99,438.74 2238.22,376.60 2193.00,342.90              2184.18,336.32 2174.50,331.85 2164.00,328.72              2151.95,325.13 2139.51,324.12 2127.00,325.29 Z" />
</svg>