<svg xmlns="http://www.w3.org/2000/svg" viewBox="-0.5 493.5 3457.29 1013">
  <path id="hyperx" fill="#303030" stroke="none" stroke-width="1"
    d="M 3342.04,494.00            C 3343.52,497.96 3342.37,499.99 3342.04,504.00              3342.04,504.00 3340.08,526.00 3340.08,526.00              3337.84,554.10 3330.56,595.19 3324.42,623.00              3305.13,710.38 3271.65,792.96 3222.66,868.00              3194.07,911.79 3159.93,952.07 3123.00,989.00              3132.01,995.04 3154.60,1016.60 3163.00,1025.00              3163.00,1025.00 3214.17,1078.00 3214.17,1078.00              3281.74,1153.08 3338.11,1237.72 3383.25,1328.00              3383.25,1328.00 3405.42,1374.00 3405.42,1374.00              3405.42,1374.00 3444.42,1469.00 3444.42,1469.00              3444.42,1469.00 3453.34,1494.00 3453.34,1494.00              3454.71,1497.95 3457.12,1501.84 3456.00,1506.00              3406.74,1432.04 3353.44,1361.00 3293.83,1295.00              3263.14,1261.01 3231.12,1227.71 3198.00,1196.04              3198.00,1196.04 3162.00,1162.92 3162.00,1162.92              3133.47,1136.67 3103.56,1111.43 3073.00,1087.58              3073.00,1087.58 3049.00,1068.87 3049.00,1068.87              3047.14,1067.48 3040.19,1061.89 3038.42,1061.56              3036.07,1061.12 3032.84,1063.99 3031.00,1065.29              3031.00,1065.29 3014.00,1077.28 3014.00,1077.28              2992.50,1092.31 2969.77,1105.98 2947.00,1119.00              2869.34,1163.40 2781.65,1198.58 2696.00,1224.28              2588.03,1256.68 2474.09,1279.17 2362.00,1291.16              2362.00,1291.16 2255.00,1301.09 2255.00,1301.09              2255.00,1301.09 2233.00,1303.00 2233.00,1303.00              2233.00,1303.00 2224.00,1303.00 2224.00,1303.00              2224.00,1303.00 2211.00,1304.00 2211.00,1304.00              2211.00,1304.00 2189.00,1305.00 2189.00,1305.00              2189.00,1305.00 2174.00,1306.00 2174.00,1306.00              2174.00,1306.00 2151.00,1307.00 2151.00,1307.00              2151.00,1307.00 2136.00,1307.00 2136.00,1307.00              2136.00,1307.00 2117.00,1308.00 2117.00,1308.00              2117.00,1308.00 2076.00,1308.00 2076.00,1308.00              2076.00,1308.00 2059.37,1308.72 2059.37,1308.72              2059.37,1308.72 1976.00,1308.00 1976.00,1308.00              1976.00,1308.00 1955.00,1307.00 1955.00,1307.00              1955.00,1307.00 1940.00,1307.00 1940.00,1307.00              1940.00,1307.00 1929.00,1306.04 1929.00,1306.04              1929.00,1306.04 1917.00,1306.04 1917.00,1306.04              1917.00,1306.04 1900.00,1305.00 1900.00,1305.00              1900.00,1305.00 1857.00,1303.00 1857.00,1303.00              1857.00,1303.00 1847.00,1302.00 1847.00,1302.00              1847.00,1302.00 1838.00,1302.00 1838.00,1302.00              1838.00,1302.00 1817.00,1300.09 1817.00,1300.09              1817.00,1300.09 1725.00,1292.17 1725.00,1292.17              1725.00,1292.17 1681.00,1287.28 1681.00,1287.28              1676.14,1286.65 1663.92,1285.57 1660.00,1284.00              1660.00,1284.00 1676.00,1284.00 1676.00,1284.00              1676.00,1284.00 1697.00,1283.00 1697.00,1283.00              1697.00,1283.00 1724.00,1283.00 1724.00,1283.00              1724.00,1283.00 1738.04,1282.03 1738.04,1282.03              1738.04,1282.03 1758.00,1282.03 1758.00,1282.03              1758.00,1282.03 1771.09,1281.05 1771.09,1281.05              1771.09,1281.05 1786.00,1281.05 1786.00,1281.05              1786.00,1281.05 1802.00,1280.00 1802.00,1280.00              1802.00,1280.00 1829.00,1279.00 1829.00,1279.00              1829.00,1279.00 1843.00,1278.00 1843.00,1278.00              1843.00,1278.00 1875.00,1276.00 1875.00,1276.00              1875.00,1276.00 1884.00,1276.00 1884.00,1276.00              1884.00,1276.00 1931.00,1272.17 1931.00,1272.17              1931.00,1272.17 1963.00,1269.83 1963.00,1269.83              1963.00,1269.83 2072.00,1258.28 2072.00,1258.28              2256.46,1235.51 2431.57,1199.12 2607.00,1136.69              2682.27,1109.91 2760.75,1076.30 2831.00,1038.31              2831.00,1038.31 2893.00,1003.42 2893.00,1003.42              2901.25,998.64 2920.30,987.49 2927.00,982.00              2927.00,982.00 2882.00,953.81 2882.00,953.81              2882.00,953.81 2799.00,906.31 2799.00,906.31              2697.80,851.58 2570.37,801.16 2459.00,771.88              2389.53,753.62 2325.14,740.47 2254.00,730.42              2254.00,730.42 2190.00,723.08 2190.00,723.08              2190.00,723.08 2169.00,721.09 2169.00,721.09              2163.76,720.73 2160.01,721.31 2155.00,719.00              2155.00,719.00 2192.00,715.17 2192.00,715.17              2216.51,712.79 2241.37,711.26 2266.00,711.00              2266.00,711.00 2283.00,710.00 2283.00,710.00              2283.00,710.00 2345.00,710.00 2345.00,710.00              2345.00,710.00 2365.00,711.00 2365.00,711.00              2365.00,711.00 2377.28,668.00 2377.28,668.00              2377.28,668.00 2399.66,593.00 2399.66,593.00              2399.66,593.00 2407.02,568.00 2407.02,568.00              2407.02,568.00 2410.72,558.99 2410.72,558.99              2410.72,558.99 2418.00,558.00 2418.00,558.00              2418.00,558.00 2940.00,558.00 2940.00,558.00              2940.00,558.00 2928.42,599.00 2928.42,599.00              2928.42,599.00 2903.66,682.00 2903.66,682.00              2903.66,682.00 2895.02,711.00 2895.02,711.00              2893.83,714.88 2892.88,720.64 2889.73,723.30              2887.84,724.90 2881.62,727.15 2879.00,728.28              2879.00,728.28 2853.00,738.85 2853.00,738.85              2853.00,738.85 2790.00,764.60 2790.00,764.60              2790.00,764.60 2753.00,780.00 2753.00,780.00              2759.67,781.03 2765.66,783.83 2772.00,786.00              2772.00,786.00 2815.00,802.20 2815.00,802.20              2862.19,821.08 2907.63,843.09 2952.00,867.86              2952.00,867.86 3005.00,900.00 3005.00,900.00              3005.00,900.00 3019.00,909.33 3019.00,909.33              3020.56,910.38 3023.53,912.71 3025.42,912.62              3027.52,912.52 3031.28,909.20 3033.00,907.88              3033.00,907.88 3052.00,892.59 3052.00,892.59              3076.15,872.49 3099.55,851.99 3122.00,830.01              3122.00,830.01 3135.92,817.00 3135.92,817.00              3135.92,817.00 3145.04,807.00 3145.04,807.00              3145.04,807.00 3158.91,793.00 3158.91,793.00              3213.63,734.27 3266.27,663.95 3302.25,592.00              3312.93,570.64 3322.99,549.37 3331.42,527.00              3334.31,519.34 3340.85,501.43 3342.04,494.00 Z            M 672.00,557.17            C 672.00,557.17 726.00,557.17 726.00,557.17              726.00,557.17 766.67,557.17 766.67,557.17              766.67,557.17 789.00,557.17 789.00,557.17              788.37,563.99 782.14,582.07 779.86,590.00              778.99,593.00 776.11,600.33 776.78,602.99              777.56,606.07 782.58,609.80 785.00,611.95              785.00,611.95 807.00,631.00 807.00,631.00              807.00,631.00 865.00,681.13 865.00,681.13              865.00,681.13 881.00,694.95 881.00,694.95              882.97,696.70 887.60,701.00 890.00,701.60              893.12,702.39 900.09,697.77 903.00,696.14              903.00,696.14 936.00,677.42 936.00,677.42              936.00,677.42 1020.00,629.86 1020.00,629.86              1020.00,629.86 1068.96,602.22 1068.96,602.22              1070.69,601.16 1071.74,600.51 1072.92,598.79              1074.93,595.85 1080.25,575.90 1081.72,571.00              1085.40,558.71 1084.29,558.02 1094.00,558.00              1094.00,558.00 1204.00,558.00 1204.00,558.00              1204.00,558.00 1184.67,619.00 1184.67,619.00              1183.16,623.54 1178.69,639.77 1176.30,642.37              1174.36,644.48 1161.35,651.66 1158.00,653.58              1158.00,653.58 1118.00,676.42 1118.00,676.42              1118.00,676.42 991.00,749.15 991.00,749.15              991.00,749.15 950.00,772.58 950.00,772.58              950.00,772.58 931.28,783.63 931.28,783.63              927.78,786.81 925.21,799.04 923.66,804.00              923.66,804.00 907.98,856.00 907.98,856.00              907.98,856.00 903.42,871.00 903.42,871.00              902.81,873.09 902.10,876.65 900.30,878.01              898.64,879.26 895.03,879.00 893.00,879.00              893.00,879.00 783.00,879.00 783.00,879.00              783.00,879.00 804.42,808.00 804.42,808.00              804.42,808.00 809.66,791.00 809.66,791.00              809.66,791.00 811.23,782.17 811.23,782.17              811.23,782.17 801.00,771.73 801.00,771.73              801.00,771.73 777.00,750.85 777.00,750.85              777.00,750.85 685.00,670.28 685.00,670.28              685.00,670.28 659.00,647.58 659.00,647.58              659.00,647.58 648.78,636.96 648.78,636.96              648.78,636.96 654.42,615.00 654.42,615.00              654.42,615.00 672.00,557.17 672.00,557.17 Z            M 1828.00,557.28            C 1828.00,557.28 1872.00,557.28 1872.00,557.28              1872.00,557.28 1958.67,557.28 1958.67,557.28              1958.67,557.28 2226.67,557.28 2226.67,557.28              2226.67,557.28 2315.33,557.28 2315.33,557.28              2315.33,557.28 2342.67,557.28 2342.67,557.28              2342.67,557.28 2358.00,558.00 2358.00,558.00              2358.00,558.00 2337.66,623.00 2337.66,623.00              2336.53,626.53 2332.85,640.32 2330.49,641.98              2328.71,643.23 2325.14,643.00 2323.00,643.00              2323.00,643.00 2048.00,643.00 2048.00,643.00              2048.00,643.00 1964.00,643.00 1964.00,643.00              1955.37,643.00 1929.68,642.10 1923.00,644.00              1923.00,644.00 1944.00,654.70 1944.00,654.70              1944.00,654.70 1979.00,674.14 1979.00,674.14              1979.00,674.14 2032.00,703.70 2032.00,703.70              2032.00,703.70 2060.00,720.00 2060.00,720.00              2060.00,720.00 2014.00,739.42 2014.00,739.42              2014.00,739.42 1939.00,770.99 1939.00,770.99              1939.00,770.99 1885.00,794.00 1885.00,794.00              1885.00,794.00 2286.00,794.00 2286.00,794.00              2286.00,794.00 2277.67,822.00 2277.67,822.00              2277.67,822.00 2260.00,879.00 2260.00,879.00              2260.00,879.00 1730.00,879.00 1730.00,879.00              1730.63,872.01 1737.54,850.93 1739.98,843.00              1739.98,843.00 1757.66,784.00 1757.66,784.00              1757.66,784.00 1764.42,761.00 1764.42,761.00              1765.23,758.24 1767.09,751.38 1768.72,749.39              1771.23,746.35 1785.59,740.98 1790.00,739.20              1790.00,739.20 1823.00,725.58 1823.00,725.58              1828.75,723.16 1837.13,719.10 1843.00,718.00              1839.24,713.73 1833.89,711.38 1829.00,708.58              1829.00,708.58 1804.00,694.28 1804.00,694.28              1800.83,692.48 1790.53,687.35 1789.06,684.67              1787.56,681.93 1789.44,677.76 1790.33,675.00              1790.33,675.00 1797.28,653.00 1797.28,653.00              1797.28,653.00 1814.98,597.00 1814.98,597.00              1814.98,597.00 1828.00,557.28 1828.00,557.28 Z            M 0.00,879.00            C 0.00,879.00 8.58,849.00 8.58,849.00              8.58,849.00 24.98,794.00 24.98,794.00              24.98,794.00 73.58,632.00 73.58,632.00              73.58,632.00 90.34,576.00 90.34,576.00              90.34,576.00 96.56,559.02 96.56,559.02              96.56,559.02 104.00,558.00 104.00,558.00              104.00,558.00 212.00,558.00 212.00,558.00              212.00,558.00 203.02,590.00 203.02,590.00              203.02,590.00 187.72,641.00 187.72,641.00              187.72,641.00 138.66,805.00 138.66,805.00              138.66,805.00 121.86,861.00 121.86,861.00              120.88,864.40 117.96,876.24 115.49,877.98              113.71,879.23 110.14,879.00 108.00,879.00              108.00,879.00 0.00,879.00 0.00,879.00 Z            M 473.00,675.00            C 473.00,675.00 481.28,646.00 481.28,646.00              481.28,646.00 499.72,585.00 499.72,585.00              499.72,585.00 505.14,567.00 505.14,567.00              505.14,567.00 508.70,558.99 508.70,558.99              508.70,558.99 516.00,558.00 516.00,558.00              516.00,558.00 625.00,558.00 625.00,558.00              625.00,558.00 616.02,590.00 616.02,590.00              616.02,590.00 601.42,639.00 601.42,639.00              601.42,639.00 552.02,805.00 552.02,805.00              552.02,805.00 535.42,861.00 535.42,861.00              535.42,861.00 529.30,878.01 529.30,878.01              529.30,878.01 522.00,879.00 522.00,879.00              522.00,879.00 411.00,879.00 411.00,879.00              411.00,879.00 416.28,859.00 416.28,859.00              416.28,859.00 425.28,829.00 425.28,829.00              425.28,829.00 446.00,761.00 446.00,761.00              446.00,761.00 265.00,761.00 265.00,761.00              265.00,761.00 210.00,761.00 210.00,761.00              210.00,761.00 181.00,760.00 181.00,760.00              181.00,760.00 201.33,695.00 201.33,695.00              202.58,691.26 205.89,677.86 208.51,676.02              210.29,674.77 213.86,675.00 216.00,675.00              216.00,675.00 473.00,675.00 473.00,675.00 Z            M 1146.00,879.00            C 1146.00,879.00 1170.28,797.00 1170.28,797.00              1170.28,797.00 1219.72,632.00 1219.72,632.00              1219.72,632.00 1236.58,576.00 1236.58,576.00              1236.58,576.00 1242.70,558.99 1242.70,558.99              1242.70,558.99 1250.00,558.00 1250.00,558.00              1250.00,558.00 1772.00,558.00 1772.00,558.00              1772.00,558.00 1761.72,593.00 1761.72,593.00              1761.72,593.00 1737.42,672.00 1737.42,672.00              1737.42,672.00 1727.86,703.00 1727.86,703.00              1727.86,703.00 1722.28,718.36 1722.28,718.36              1722.28,718.36 1713.00,723.20 1713.00,723.20              1713.00,723.20 1696.00,730.40 1696.00,730.40              1696.00,730.40 1636.00,755.60 1636.00,755.60              1636.00,755.60 1569.00,783.85 1569.00,783.85              1569.00,783.85 1540.00,795.87 1540.00,795.87              1540.00,795.87 1533.00,795.87 1533.00,795.87              1533.00,795.87 1317.00,795.87 1317.00,795.87              1317.00,795.87 1328.66,758.00 1328.66,758.00              1328.66,758.00 1336.34,733.00 1336.34,733.00              1336.34,733.00 1343.00,710.87 1343.00,710.87              1343.00,710.87 1514.00,710.87 1514.00,710.87              1514.00,710.87 1521.00,710.87 1521.00,710.87              1521.00,710.87 1561.00,694.20 1561.00,694.20              1561.00,694.20 1604.00,676.15 1604.00,676.15              1604.00,676.15 1621.16,667.61 1621.16,667.61              1621.16,667.61 1630.00,643.00 1630.00,643.00              1630.00,643.00 1343.00,643.00 1343.00,643.00              1343.00,643.00 1334.72,644.60 1334.72,644.60              1334.72,644.60 1330.14,657.00 1330.14,657.00              1330.14,657.00 1321.34,686.00 1321.34,686.00              1321.34,686.00 1278.72,828.00 1278.72,828.00              1278.72,828.00 1268.28,863.00 1268.28,863.00              1268.28,863.00 1263.16,877.40 1263.16,877.40              1263.16,877.40 1255.00,879.00 1255.00,879.00              1255.00,879.00 1146.00,879.00 1146.00,879.00 Z            M 2797.00,643.00            C 2797.00,643.00 2502.00,643.00 2502.00,643.00              2502.00,643.00 2496.72,661.00 2496.72,661.00              2496.72,661.00 2486.58,695.00 2486.58,695.00              2486.58,695.00 2482.00,711.00 2482.00,711.00              2482.00,711.00 2621.00,711.00 2621.00,711.00              2621.00,711.00 2690.00,711.00 2690.00,711.00              2690.00,711.00 2698.00,710.47 2698.00,710.47              2698.00,710.47 2729.00,697.85 2729.00,697.85              2729.00,697.85 2770.00,680.42 2770.00,680.42              2770.00,680.42 2788.30,671.61 2788.30,671.61              2788.30,671.61 2792.02,662.00 2792.02,662.00              2792.02,662.00 2797.00,643.00 2797.00,643.00 Z            M 2377.00,711.00            C 2377.00,711.00 2376.00,711.00 2376.00,711.00              2376.00,711.00 2377.00,712.00 2377.00,712.00              2377.00,712.00 2377.00,711.00 2377.00,711.00 Z            M 2387.00,711.00            C 2387.00,711.00 2378.00,712.00 2378.00,712.00              2378.00,712.00 2387.00,711.00 2387.00,711.00 Z            M 2389.00,711.00            C 2389.00,711.00 2388.00,711.00 2388.00,711.00              2388.00,711.00 2389.00,712.00 2389.00,712.00              2389.00,712.00 2389.00,711.00 2389.00,711.00 Z            M 2397.00,712.00            C 2397.00,712.00 2396.00,712.00 2396.00,712.00              2396.00,712.00 2397.00,713.00 2397.00,713.00              2397.00,713.00 2397.00,712.00 2397.00,712.00 Z            M 2404.00,712.00            C 2404.00,712.00 2398.00,713.00 2398.00,713.00              2398.00,713.00 2404.00,712.00 2404.00,712.00 Z            M 2406.00,712.00            C 2406.00,712.00 2405.00,712.00 2405.00,712.00              2405.00,712.00 2406.00,713.00 2406.00,713.00              2406.00,713.00 2406.00,712.00 2406.00,712.00 Z            M 2420.00,713.00            C 2420.00,713.00 2413.00,714.00 2413.00,714.00              2413.00,714.00 2420.00,713.00 2420.00,713.00 Z            M 2432.00,714.00            C 2432.00,714.00 2426.00,715.00 2426.00,715.00              2426.00,715.00 2432.00,714.00 2432.00,714.00 Z            M 2434.00,714.00            C 2434.00,714.00 2433.00,714.00 2433.00,714.00              2433.00,714.00 2434.00,715.00 2434.00,715.00              2434.00,715.00 2434.00,714.00 2434.00,714.00 Z            M 2445.00,715.00            C 2445.00,715.00 2439.00,716.00 2439.00,716.00              2439.00,716.00 2445.00,715.00 2445.00,715.00 Z            M 2450.00,716.00            C 2450.00,716.00 2449.00,716.00 2449.00,716.00              2449.00,716.00 2450.00,717.00 2450.00,717.00              2450.00,717.00 2450.00,716.00 2450.00,716.00 Z            M 2465.00,717.00            C 2465.00,717.00 2460.00,718.00 2460.00,718.00              2460.00,718.00 2465.00,717.00 2465.00,717.00 Z            M 2470.00,718.00            C 2470.00,718.00 2469.00,718.00 2469.00,718.00              2469.00,718.00 2470.00,719.00 2470.00,719.00              2470.00,719.00 2470.00,718.00 2470.00,718.00 Z            M 2650.00,749.00            C 2650.00,749.00 2649.00,749.00 2649.00,749.00              2649.00,749.00 2650.00,750.00 2650.00,750.00              2650.00,750.00 2650.00,749.00 2650.00,749.00 Z            M 2654.00,750.00            C 2654.00,750.00 2653.00,750.00 2653.00,750.00              2653.00,750.00 2654.00,751.00 2654.00,751.00              2654.00,751.00 2654.00,750.00 2654.00,750.00 Z            M 2681.00,757.00            C 2681.00,757.00 2680.00,757.00 2680.00,757.00              2680.00,757.00 2681.00,758.00 2681.00,758.00              2681.00,758.00 2681.00,757.00 2681.00,757.00 Z            M 2699.00,762.00            C 2699.00,762.00 2698.00,762.00 2698.00,762.00              2698.00,762.00 2699.00,763.00 2699.00,763.00              2699.00,763.00 2699.00,762.00 2699.00,762.00 Z            M 2706.00,764.00            C 2706.00,764.00 2705.00,764.00 2705.00,764.00              2705.00,764.00 2706.00,765.00 2706.00,765.00              2706.00,765.00 2706.00,764.00 2706.00,764.00 Z            M 2716.00,767.00            C 2716.00,767.00 2715.00,767.00 2715.00,767.00              2715.00,767.00 2716.00,768.00 2716.00,768.00              2716.00,768.00 2716.00,767.00 2716.00,767.00 Z            M 2726.00,770.00            C 2726.00,770.00 2725.00,770.00 2725.00,770.00              2725.00,770.00 2726.00,771.00 2726.00,771.00              2726.00,771.00 2726.00,770.00 2726.00,770.00 Z            M 2729.00,771.00            C 2729.00,771.00 2728.00,771.00 2728.00,771.00              2728.00,771.00 2729.00,772.00 2729.00,772.00              2729.00,772.00 2729.00,771.00 2729.00,771.00 Z            M 2347.00,771.00            C 2347.00,771.00 2367.00,775.42 2367.00,775.42              2367.00,775.42 2400.00,782.88 2400.00,782.88              2400.00,782.88 2426.00,789.15 2426.00,789.15              2426.00,789.15 2456.00,797.00 2456.00,797.00              2456.00,797.00 2432.00,879.00 2432.00,879.00              2432.00,879.00 2314.00,879.00 2314.00,879.00              2314.00,879.00 2319.58,860.00 2319.58,860.00              2319.58,860.00 2332.28,818.00 2332.28,818.00              2332.28,818.00 2347.00,771.00 2347.00,771.00 Z            M 2732.00,772.00            C 2732.00,772.00 2731.00,772.00 2731.00,772.00              2731.00,772.00 2732.00,773.00 2732.00,773.00              2732.00,773.00 2732.00,772.00 2732.00,772.00 Z" />
</svg>