<svg xmlns="http://www.w3.org/2000/svg" viewBox="-0.5 -0.5 2561 1028">
  <path id="Selection" fill="#303030" stroke="none" stroke-width="1" d="M 0.00,0.00            C 0.00,0.00 498.00,0.00 498.00,0.00              498.00,0.00 498.00,72.00 498.00,72.00              498.00,72.00 0.00,72.00 0.00,72.00              0.00,72.00 0.00,0.00 0.00,0.00 Z            M 568.00,0.00            C 568.00,0.00 933.00,0.00 933.00,0.00              933.00,0.00 1116.00,0.00 1116.00,0.00              1116.00,0.00 1142.00,2.92 1142.00,2.92              1179.86,9.14 1212.55,21.50 1245.00,42.05              1254.49,48.06 1261.28,53.21 1270.00,60.20              1274.32,63.66 1279.27,67.12 1282.00,72.00              1282.00,72.00 568.00,72.00 568.00,72.00              568.00,72.00 568.00,0.00 568.00,0.00 Z            M 1422.00,0.00            C 1422.00,0.00 1822.00,0.00 1822.00,0.00              1822.00,0.00 1829.49,1.02 1829.49,1.02              1829.49,1.02 1836.00,17.00 1836.00,17.00              1836.00,17.00 1847.69,51.00 1847.69,51.00              1847.69,51.00 1854.00,72.00 1854.00,72.00              1854.00,72.00 1422.00,72.00 1422.00,72.00              1422.00,72.00 1422.00,0.00 1422.00,0.00 Z            M 2128.00,72.00            C 2128.00,72.00 2136.31,46.00 2136.31,46.00              2136.31,46.00 2146.58,16.00 2146.58,16.00              2146.58,16.00 2152.70,0.99 2152.70,0.99              2152.70,0.99 2160.00,0.00 2160.00,0.00              2160.00,0.00 2560.00,0.00 2560.00,0.00              2560.00,0.00 2560.00,72.00 2560.00,72.00              2560.00,72.00 2128.00,72.00 2128.00,72.00 Z            M 0.00,136.00            C 0.00,136.00 498.00,136.00 498.00,136.00              498.00,136.00 498.00,191.00 498.00,191.00              498.00,194.39 498.90,206.00 496.40,207.98              494.81,209.23 490.99,209.00 489.00,209.00              489.00,209.00 0.00,209.00 0.00,209.00              0.00,209.00 0.00,136.00 0.00,136.00 Z            M 568.00,136.00            C 568.00,136.00 1166.00,136.00 1166.00,136.00              1166.00,136.00 1327.00,136.00 1327.00,136.00              1328.80,136.00 1332.07,135.86 1333.67,136.57              1337.30,138.18 1341.91,149.17 1343.58,153.00              1349.73,167.12 1360.73,193.28 1363.00,208.00              1363.00,208.00 568.00,208.00 568.00,208.00              568.00,208.00 568.00,136.00 568.00,136.00 Z            M 1422.00,136.00            C 1422.00,136.00 1869.00,136.00 1869.00,136.00              1869.00,136.00 1876.49,137.02 1876.49,137.02              1876.49,137.02 1883.33,154.00 1883.33,154.00              1883.33,154.00 1902.00,208.00 1902.00,208.00              1902.00,208.00 1422.00,208.00 1422.00,208.00              1422.00,208.00 1422.00,136.00 1422.00,136.00 Z            M 2081.00,208.00            C 2081.00,208.00 2099.00,153.00 2099.00,153.00              2099.00,153.00 2105.51,137.02 2105.51,137.02              2105.51,137.02 2113.00,136.00 2113.00,136.00              2113.00,136.00 2560.00,136.00 2560.00,136.00              2560.00,136.00 2560.00,208.00 2560.00,208.00              2560.00,208.00 2081.00,208.00 2081.00,208.00 Z            M 142.00,272.00            C 142.00,272.00 356.00,272.00 356.00,272.00              356.00,272.00 356.00,345.00 356.00,345.00              356.00,345.00 142.00,345.00 142.00,345.00              142.00,345.00 142.00,272.00 142.00,272.00 Z            M 711.00,272.00            C 711.00,272.00 875.00,272.00 875.00,272.00              875.00,272.00 910.00,272.00 910.00,272.00              910.00,272.00 923.40,273.02 923.40,273.02              923.40,273.02 925.00,281.00 925.00,281.00              925.00,281.00 925.00,345.00 925.00,345.00              925.00,345.00 711.00,345.00 711.00,345.00              711.00,345.00 711.00,272.00 711.00,272.00 Z            M 1137.00,272.00            C 1137.00,272.00 1371.00,272.00 1371.00,272.00              1371.00,290.84 1369.20,308.47 1365.74,327.00              1365.10,330.42 1362.96,342.13 1360.44,343.98              1358.73,345.23 1355.09,345.00 1353.00,345.00              1353.00,345.00 1137.00,345.00 1137.00,345.00              1137.00,345.00 1137.00,272.00 1137.00,272.00 Z            M 1564.00,272.00            C 1564.00,272.00 1916.00,272.00 1916.00,272.00              1916.00,272.00 1923.49,273.02 1923.49,273.02              1923.49,273.02 1930.33,290.00 1930.33,290.00              1930.33,290.00 1949.00,345.00 1949.00,345.00              1949.00,345.00 1564.00,345.00 1564.00,345.00              1564.00,345.00 1564.00,272.00 1564.00,272.00 Z            M 2033.00,345.00            C 2033.00,345.00 2051.67,290.00 2051.67,290.00              2051.67,290.00 2058.51,273.02 2058.51,273.02              2058.51,273.02 2066.00,272.00 2066.00,272.00              2066.00,272.00 2418.00,272.00 2418.00,272.00              2418.00,272.00 2418.00,345.00 2418.00,345.00              2418.00,345.00 2033.00,345.00 2033.00,345.00 Z            M 142.00,409.00            C 142.00,409.00 356.00,409.00 356.00,409.00              356.00,409.00 356.00,482.00 356.00,482.00              356.00,482.00 142.00,482.00 142.00,482.00              142.00,482.00 142.00,409.00 142.00,409.00 Z            M 711.00,409.00            C 711.00,409.00 1335.00,409.00 1335.00,409.00              1327.86,425.01 1303.00,457.00 1289.99,468.58              1281.14,476.45 1279.21,481.98 1267.00,482.00              1267.00,482.00 1151.00,482.00 1151.00,482.00              1151.00,482.00 711.00,482.00 711.00,482.00              711.00,482.00 711.00,409.00 711.00,409.00 Z            M 1564.00,409.00            C 1564.00,409.00 1963.00,409.00 1963.00,409.00              1966.17,409.01 1969.76,408.52 1971.92,411.31              1973.42,413.25 1976.93,424.86 1978.00,428.00              1978.00,428.00 1990.00,464.00 1990.00,464.00              1993.67,460.15 1994.68,454.97 1996.33,450.00              1996.33,450.00 2005.00,425.00 2005.00,425.00              2006.14,421.57 2008.65,411.86 2011.42,410.02              2013.29,408.78 2016.79,409.00 2019.00,409.00              2019.00,409.00 2418.00,409.00 2418.00,409.00              2418.00,409.00 2418.00,482.00 2418.00,482.00              2418.00,482.00 2204.00,482.00 2204.00,482.00              2204.00,482.00 2204.00,441.00 2204.00,441.00              2204.00,441.00 2203.00,419.00 2203.00,419.00              2203.00,419.00 2187.33,467.00 2187.33,467.00              2187.33,467.00 2181.49,480.98 2181.49,480.98              2181.49,480.98 2174.00,482.00 2174.00,482.00              2174.00,482.00 1808.00,482.00 1808.00,482.00              1808.00,482.00 1800.51,480.98 1800.51,480.98              1800.51,480.98 1794.00,465.00 1794.00,465.00              1794.00,465.00 1778.00,419.00 1778.00,419.00              1778.00,419.00 1778.00,482.00 1778.00,482.00              1778.00,482.00 1564.00,482.00 1564.00,482.00              1564.00,482.00 1564.00,409.00 1564.00,409.00 Z            M 142.00,546.00            C 142.00,546.00 356.00,546.00 356.00,546.00              356.00,546.00 356.00,618.00 356.00,618.00              356.00,618.00 142.00,618.00 142.00,618.00              142.00,618.00 142.00,546.00 142.00,546.00 Z            M 711.00,546.00            C 711.00,546.00 1147.00,546.00 1147.00,546.00              1147.00,546.00 1268.00,546.00 1268.00,546.00              1270.13,546.00 1273.01,545.88 1275.00,546.59              1279.55,548.22 1288.36,557.35 1292.00,561.00              1305.06,574.08 1327.05,601.50 1335.00,618.00              1335.00,618.00 711.00,618.00 711.00,618.00              711.00,618.00 711.00,546.00 711.00,546.00 Z            M 1564.00,546.00            C 1564.00,546.00 1778.00,546.00 1778.00,546.00              1778.00,546.00 1778.00,618.00 1778.00,618.00              1778.00,618.00 1564.00,618.00 1564.00,618.00              1564.00,618.00 1564.00,546.00 1564.00,546.00 Z            M 1823.00,546.00            C 1823.00,546.00 2159.00,546.00 2159.00,546.00              2159.00,546.00 2144.66,589.00 2144.66,589.00              2144.66,589.00 2135.00,618.00 2135.00,618.00              2135.00,618.00 1856.00,618.00 1856.00,618.00              1856.00,618.00 1848.51,616.98 1848.51,616.98              1848.51,616.98 1841.33,600.00 1841.33,600.00              1841.33,600.00 1823.00,546.00 1823.00,546.00 Z            M 2204.00,546.00            C 2204.00,546.00 2418.00,546.00 2418.00,546.00              2418.00,546.00 2418.00,618.00 2418.00,618.00              2418.00,618.00 2204.00,618.00 2204.00,618.00              2204.00,618.00 2204.00,546.00 2204.00,546.00 Z            M 142.00,682.00            C 142.00,682.00 356.00,682.00 356.00,682.00              356.00,682.00 356.00,755.00 356.00,755.00              356.00,755.00 142.00,755.00 142.00,755.00              142.00,755.00 142.00,682.00 142.00,682.00 Z            M 711.00,682.00            C 711.00,682.00 925.00,682.00 925.00,682.00              925.00,682.00 925.00,755.00 925.00,755.00              925.00,755.00 711.00,755.00 711.00,755.00              711.00,755.00 711.00,682.00 711.00,682.00 Z            M 1137.00,682.00            C 1137.00,682.00 1353.00,682.00 1353.00,682.00              1355.08,682.00 1358.74,681.77 1360.44,683.02              1362.77,684.74 1365.13,696.75 1365.74,700.00              1369.15,718.30 1371.00,736.40 1371.00,755.00              1371.00,755.00 1137.00,755.00 1137.00,755.00              1137.00,755.00 1137.00,682.00 1137.00,682.00 Z            M 1564.00,682.00            C 1564.00,682.00 1778.00,682.00 1778.00,682.00              1778.00,682.00 1778.00,755.00 1778.00,755.00              1778.00,755.00 1564.00,755.00 1564.00,755.00              1564.00,755.00 1564.00,682.00 1564.00,682.00 Z            M 1870.00,682.00            C 1870.00,682.00 2112.00,682.00 2112.00,682.00              2112.00,682.00 2087.00,755.00 2087.00,755.00              2087.00,755.00 1895.00,755.00 1895.00,755.00              1895.00,755.00 1870.00,682.00 1870.00,682.00 Z            M 2204.00,682.00            C 2204.00,682.00 2418.00,682.00 2418.00,682.00              2418.00,682.00 2418.00,755.00 2418.00,755.00              2418.00,755.00 2204.00,755.00 2204.00,755.00              2204.00,755.00 2204.00,682.00 2204.00,682.00 Z            M 0.00,819.00            C 0.00,819.00 498.00,819.00 498.00,819.00              498.00,819.00 498.00,891.00 498.00,891.00              498.00,891.00 0.00,891.00 0.00,891.00              0.00,891.00 0.00,819.00 0.00,819.00 Z            M 568.00,819.00            C 568.00,819.00 1363.00,819.00 1363.00,819.00              1360.65,835.69 1351.07,858.48 1344.14,874.00              1342.54,877.59 1337.11,888.96 1333.79,890.40              1332.13,891.12 1328.86,891.00 1327.00,891.00              1327.00,891.00 1167.00,891.00 1167.00,891.00              1167.00,891.00 568.00,891.00 568.00,891.00              568.00,891.00 568.00,819.00 568.00,819.00 Z            M 1422.00,819.00            C 1422.00,819.00 1778.00,819.00 1778.00,819.00              1778.00,819.00 1778.00,891.00 1778.00,891.00              1778.00,891.00 1422.00,891.00 1422.00,891.00              1422.00,891.00 1422.00,819.00 1422.00,819.00 Z            M 1918.00,819.00            C 1918.00,819.00 2064.00,819.00 2064.00,819.00              2064.00,819.00 2044.81,874.00 2044.81,874.00              2044.81,874.00 2038.30,890.01 2038.30,890.01              2038.30,890.01 2031.00,891.00 2031.00,891.00              2031.00,891.00 1943.00,891.00 1943.00,891.00              1943.00,891.00 1934.69,867.00 1934.69,867.00              1934.69,867.00 1918.00,819.00 1918.00,819.00 Z            M 2204.00,819.00            C 2204.00,819.00 2560.00,819.00 2560.00,819.00              2560.00,819.00 2560.00,891.00 2560.00,891.00              2560.00,891.00 2204.00,891.00 2204.00,891.00              2204.00,891.00 2204.00,819.00 2204.00,819.00 Z            M 0.00,955.00            C 0.00,955.00 498.00,955.00 498.00,955.00              498.00,955.00 498.00,1027.00 498.00,1027.00              498.00,1027.00 0.00,1027.00 0.00,1027.00              0.00,1027.00 0.00,955.00 0.00,955.00 Z            M 568.00,955.00            C 568.00,955.00 1282.00,955.00 1282.00,955.00              1279.37,960.51 1274.67,963.60 1270.00,967.39              1262.00,973.88 1253.74,979.98 1245.00,985.42              1211.48,1006.30 1177.23,1019.68 1138.00,1025.13              1138.00,1025.13 1120.00,1027.00 1120.00,1027.00              1120.00,1027.00 936.00,1027.00 936.00,1027.00              936.00,1027.00 568.00,1027.00 568.00,1027.00              568.00,1027.00 568.00,955.00 568.00,955.00 Z            M 1422.00,955.00            C 1422.00,955.00 1778.00,955.00 1778.00,955.00              1778.00,955.00 1778.00,1027.00 1778.00,1027.00              1778.00,1027.00 1422.00,1027.00 1422.00,1027.00              1422.00,1027.00 1422.00,955.00 1422.00,955.00 Z            M 1966.00,955.00            C 1966.00,955.00 2016.00,955.00 2016.00,955.00              2016.00,955.00 2003.34,993.00 2003.34,993.00              2003.34,993.00 1991.00,1027.00 1991.00,1027.00              1991.00,1027.00 1978.66,993.00 1978.66,993.00              1978.66,993.00 1966.00,955.00 1966.00,955.00 Z            M 2204.00,955.00            C 2204.00,955.00 2560.00,955.00 2560.00,955.00              2560.00,955.00 2560.00,1027.00 2560.00,1027.00              2560.00,1027.00 2204.00,1027.00 2204.00,1027.00              2204.00,1027.00 2204.00,955.00 2204.00,955.00 Z"/>
</svg>