<svg xmlns="http://www.w3.org/2000/svg" viewBox="-0.5 -0.42 1052 1025.92">
  <path id="illustrator" fill="#303030" stroke="none" stroke-width="1"
    d="M 167.00,0.08            C 167.00,0.08 196.00,0.08 196.00,0.08              196.00,0.08 247.00,0.08 247.00,0.08              247.00,0.08 403.00,0.08 403.00,0.08              403.00,0.08 876.00,0.08 876.00,0.08              886.69,0.02 900.59,2.51 911.00,5.13              971.36,20.29 1019.91,64.27 1040.69,123.00              1046.00,138.01 1050.98,159.10 1051.00,175.00              1051.00,175.00 1051.00,850.00 1051.00,850.00              1050.98,865.90 1046.00,886.99 1040.69,902.00              1019.93,960.69 971.32,1004.73 911.00,1019.87              900.59,1022.49 886.69,1024.98 876.00,1025.00              876.00,1025.00 175.00,1025.00 175.00,1025.00              159.97,1024.98 138.20,1020.14 124.00,1015.05              70.43,995.85 29.36,955.85 10.31,902.00              5.26,887.73 0.02,866.06 0.00,851.00              0.00,851.00 0.00,174.00 0.00,174.00              0.02,164.15 2.70,149.65 5.13,140.00              17.21,91.87 48.78,49.17 92.00,24.43              118.02,9.53 137.86,4.65 167.00,0.08 Z            M 736.00,228.29            C 718.06,231.27 702.21,241.94 694.88,259.00              690.68,268.78 690.88,276.70 691.00,287.00              691.32,314.09 713.91,336.68 741.00,337.00              757.85,337.19 771.09,335.34 783.71,322.71              791.19,315.23 797.69,302.60 798.91,292.00              798.91,292.00 798.91,276.00 798.91,276.00              798.79,258.48 788.49,241.64 773.00,233.49              762.04,227.73 748.11,227.14 736.00,228.29 Z            M 367.24,261.58            C 365.96,262.46 365.67,262.21 364.85,263.86              363.80,265.99 364.01,272.44 364.00,275.00              363.98,279.58 363.42,283.49 362.73,288.00              360.93,299.62 347.63,337.20 342.95,350.00              342.95,350.00 326.31,398.00 326.31,398.00              326.31,398.00 273.34,550.00 273.34,550.00              273.34,550.00 249.05,620.00 249.05,620.00              249.05,620.00 235.66,659.00 235.66,659.00              235.66,659.00 222.33,697.00 222.33,697.00              222.33,697.00 217.04,713.00 217.04,713.00              216.37,715.39 215.63,718.39 217.60,720.40              219.48,722.32 223.49,722.00 226.00,722.00              226.00,722.00 301.00,722.00 301.00,722.00              303.72,721.96 306.48,721.98 308.78,720.26              312.27,717.64 316.07,702.80 317.67,698.00              317.67,698.00 338.67,633.00 338.67,633.00              339.97,629.08 343.44,616.00 346.42,614.02              348.29,612.78 351.79,613.00 354.00,613.00              354.00,613.00 499.00,613.00 499.00,613.00              501.28,613.00 504.76,612.79 506.73,614.02              510.09,616.13 513.49,629.73 515.05,634.00              515.05,634.00 537.19,698.00 537.19,698.00              539.00,702.77 542.96,717.78 546.27,720.40              548.29,721.99 550.58,721.95 553.00,722.00              553.00,722.00 638.00,722.00 638.00,722.00              640.27,722.00 644.45,722.37 645.97,720.40              647.75,718.10 646.13,713.46 645.33,711.00              645.33,711.00 637.42,689.00 637.42,689.00              637.42,689.00 616.31,629.00 616.31,629.00              616.31,629.00 600.67,585.00 600.67,585.00              600.67,585.00 574.69,512.00 574.69,512.00              574.69,512.00 512.69,337.00 512.69,337.00              512.69,337.00 492.66,280.00 492.66,280.00              491.36,276.26 487.63,263.84 484.73,262.02              482.76,260.79 479.28,261.00 477.00,261.00              477.00,261.00 404.00,261.00 404.00,261.00              404.00,261.00 367.24,261.58 367.24,261.58 Z            M 424.00,342.00            C 428.11,344.83 428.68,351.42 430.00,356.00              430.00,356.00 439.72,390.00 439.72,390.00              439.72,390.00 457.98,448.00 457.98,448.00              457.98,448.00 482.00,524.00 482.00,524.00              475.33,525.89 453.28,525.00 445.00,525.00              445.00,525.00 371.00,525.00 371.00,525.00              371.00,525.00 383.98,482.00 383.98,482.00              383.98,482.00 408.02,403.00 408.02,403.00              412.40,388.92 422.87,355.40 424.00,342.00 Z            M 700.06,374.14            C 695.22,376.66 696.01,379.18 696.00,384.00              696.00,384.00 696.00,441.00 696.00,441.00              696.00,441.00 696.00,651.00 696.00,651.00              696.00,651.00 696.00,714.00 696.00,714.00              696.02,722.63 697.37,723.98 706.00,724.00              706.00,724.00 772.00,724.00 772.00,724.00              776.27,724.00 789.62,725.23 791.98,721.69              793.21,719.84 793.00,716.19 793.00,714.00              793.00,714.00 793.00,453.00 793.00,453.00              793.00,453.00 793.00,384.00 793.00,384.00              792.98,374.25 791.52,374.02 782.00,374.14              782.00,374.14 729.00,374.14 729.00,374.14              729.00,374.14 700.06,374.14 700.06,374.14 Z" />
</svg>