<svg xmlns="http://www.w3.org/2000/svg" viewBox="-0.5 -0.43 2561 1291.93">
  <path id="idmb" fill="#303030" stroke="none" stroke-width="1"
    d="M 98.00,0.07            C 98.00,0.07 123.00,0.07 123.00,0.07              123.00,0.07 167.00,0.07 167.00,0.07              167.00,0.07 303.00,0.07 303.00,0.07              303.00,0.07 719.00,0.07 719.00,0.07              719.00,0.07 1995.00,0.07 1995.00,0.07              1995.00,0.07 2455.00,0.07 2455.00,0.07              2467.93,0.02 2480.57,5.04 2492.00,10.75              2524.08,26.79 2548.15,57.25 2556.87,92.00              2558.89,100.02 2559.99,103.57 2560.00,112.00              2560.00,112.00 2560.00,1020.00 2560.00,1020.00              2560.00,1020.00 2560.00,1177.00 2560.00,1177.00              2559.98,1187.41 2557.26,1196.23 2554.00,1206.00              2542.31,1241.03 2514.12,1271.40 2479.00,1283.66              2465.93,1288.22 2450.85,1290.98 2437.00,1291.00              2437.00,1291.00 1813.00,1291.00 1813.00,1291.00              1813.00,1291.00 565.00,1291.00 565.00,1291.00              565.00,1291.00 124.00,1291.00 124.00,1291.00              69.92,1290.92 23.68,1256.08 6.67,1205.00              2.93,1193.78 0.02,1181.88 0.00,1170.00              0.00,1170.00 0.00,284.00 0.00,284.00              0.00,284.00 0.00,119.00 0.00,119.00              0.01,109.75 1.88,100.93 4.13,92.00              15.57,46.44 51.97,10.40 98.00,0.07 Z            M 2007.00,247.00            C 2007.00,247.00 1810.00,247.00 1810.00,247.00              1810.00,247.00 1810.00,847.00 1810.00,847.00              1810.00,847.00 1810.00,987.00 1810.00,987.00              1810.00,987.00 1810.00,1017.00 1810.00,1017.00              1810.00,1017.00 1811.02,1028.40 1811.02,1028.40              1811.02,1028.40 1819.00,1030.00 1819.00,1030.00              1819.00,1030.00 1985.00,1030.00 1985.00,1030.00              1985.00,1030.00 1993.28,1028.40 1993.28,1028.40              1993.28,1028.40 1997.87,1014.00 1997.87,1014.00              1997.87,1014.00 2007.00,980.00 2007.00,980.00              2012.41,990.07 2032.31,1006.87 2042.00,1013.71              2047.31,1017.45 2056.18,1022.92 2062.00,1025.68              2082.87,1035.57 2114.95,1040.27 2138.00,1040.00              2138.00,1040.00 2148.00,1039.09 2148.00,1039.09              2180.79,1036.69 2211.50,1023.32 2234.91,999.91              2259.13,975.70 2264.67,949.63 2268.16,917.00              2268.16,917.00 2270.00,894.00 2270.00,894.00              2270.00,894.00 2271.00,875.00 2271.00,875.00              2271.00,875.00 2271.00,587.00 2271.00,587.00              2271.00,587.00 2270.00,572.00 2270.00,572.00              2269.77,551.68 2269.22,531.90 2260.69,513.00              2256.76,504.29 2250.60,494.37 2244.54,487.00              2222.78,460.56 2180.65,446.05 2147.00,446.00              2147.00,446.00 2121.00,446.00 2121.00,446.00              2103.37,446.21 2074.02,452.92 2058.00,460.31              2036.84,470.07 2023.13,483.87 2007.00,500.00              2007.00,500.00 2007.00,247.00 2007.00,247.00 Z            M 843.00,254.00            C 843.00,254.00 579.00,254.00 579.00,254.00              579.00,254.00 579.00,1036.00 579.00,1036.00              579.00,1036.00 757.00,1036.00 757.00,1036.00              757.00,1036.00 757.00,807.00 757.00,807.00              757.00,807.00 758.00,792.00 758.00,792.00              758.00,792.00 758.00,689.00 758.00,689.00              758.00,689.00 758.00,580.00 758.00,580.00              758.00,580.00 758.00,547.00 758.00,547.00              758.00,547.00 759.00,528.00 759.00,528.00              759.00,528.00 765.87,580.00 765.87,580.00              765.87,580.00 781.73,689.00 781.73,689.00              781.73,689.00 815.27,921.00 815.27,921.00              815.27,921.00 832.00,1036.00 832.00,1036.00              832.00,1036.00 960.00,1036.00 960.00,1036.00              960.00,1036.00 963.87,1004.00 963.87,1004.00              963.87,1004.00 971.72,946.00 971.72,946.00              971.72,946.00 999.72,738.00 999.72,738.00              999.72,738.00 1019.87,588.00 1019.87,588.00              1019.87,588.00 1026.73,537.00 1026.73,537.00              1026.73,537.00 1030.00,516.00 1030.00,516.00              1030.00,516.00 1030.00,831.00 1030.00,831.00              1030.00,831.00 1030.00,989.00 1030.00,989.00              1030.00,989.00 1031.00,1004.00 1031.00,1004.00              1031.00,1004.00 1031.00,1036.00 1031.00,1036.00              1031.00,1036.00 1209.00,1036.00 1209.00,1036.00              1209.00,1036.00 1209.00,254.00 1209.00,254.00              1209.00,254.00 951.00,254.00 951.00,254.00              951.00,254.00 943.60,255.02 943.60,255.02              943.60,255.02 941.58,261.00 941.58,261.00              941.58,261.00 939.85,275.00 939.85,275.00              939.85,275.00 931.58,339.00 931.58,339.00              931.58,339.00 918.72,439.00 918.72,439.00              918.72,439.00 908.15,520.00 908.15,520.00              908.15,520.00 900.28,581.00 900.28,581.00              900.28,581.00 895.00,616.00 895.00,616.00              895.00,616.00 891.27,586.00 891.27,586.00              891.27,586.00 883.27,532.00 883.27,532.00              883.27,532.00 856.73,346.00 856.73,346.00              856.73,346.00 848.58,291.00 848.58,291.00              848.58,291.00 843.00,254.00 843.00,254.00 Z            M 1280.00,1036.00            C 1280.00,1036.00 1456.00,1036.00 1456.00,1036.00              1456.00,1036.00 1545.00,1036.00 1545.00,1036.00              1545.00,1036.00 1560.00,1035.00 1560.00,1035.00              1560.00,1035.00 1566.00,1035.00 1566.00,1035.00              1566.00,1035.00 1583.00,1034.00 1583.00,1034.00              1583.00,1034.00 1606.00,1032.17 1606.00,1032.17              1606.00,1032.17 1630.00,1029.57 1630.00,1029.57              1656.63,1025.09 1687.35,1011.93 1705.91,992.00              1727.28,969.06 1733.94,940.18 1737.16,910.00              1737.16,910.00 1739.09,887.00 1739.09,887.00              1739.09,887.00 1740.00,875.00 1740.00,875.00              1740.00,875.00 1741.00,856.00 1741.00,856.00              1741.00,856.00 1741.00,839.00 1741.00,839.00              1741.00,839.00 1742.00,823.00 1742.00,823.00              1742.00,823.00 1742.00,618.00 1742.00,618.00              1742.00,618.00 1742.00,504.00 1742.00,504.00              1742.00,504.00 1741.00,489.00 1741.00,489.00              1741.00,489.00 1741.00,463.00 1741.00,463.00              1741.00,463.00 1740.04,451.00 1740.04,451.00              1740.04,451.00 1740.04,439.00 1740.04,439.00              1740.04,439.00 1738.09,414.00 1738.09,414.00              1737.06,399.26 1735.72,384.39 1732.11,370.00              1725.51,343.73 1707.86,315.63 1687.00,298.46              1651.45,269.20 1601.58,261.03 1557.00,257.91              1557.00,257.91 1528.00,256.00 1528.00,256.00              1528.00,256.00 1512.00,255.00 1512.00,255.00              1512.00,255.00 1497.00,255.00 1497.00,255.00              1497.00,255.00 1481.00,254.00 1481.00,254.00              1481.00,254.00 1280.00,254.00 1280.00,254.00              1280.00,254.00 1280.00,1036.00 1280.00,1036.00 Z            M 512.00,259.00            C 512.00,259.00 355.00,259.00 355.00,259.00              355.00,259.00 322.00,259.00 322.00,259.00              319.34,259.00 311.49,258.52 309.60,260.02              307.62,261.59 308.00,265.70 308.00,268.00              308.00,268.00 308.00,750.00 308.00,750.00              308.00,750.00 308.00,974.00 308.00,974.00              308.00,974.00 308.00,1033.00 308.00,1033.00              308.02,1041.64 308.36,1041.98 317.00,1042.00              317.00,1042.00 467.00,1042.00 467.00,1042.00              467.00,1042.00 498.00,1042.00 498.00,1042.00              500.66,1042.00 508.51,1042.48 510.40,1040.98              512.38,1039.41 512.00,1035.30 512.00,1033.00              512.00,1033.00 512.00,804.00 512.00,804.00              512.00,804.00 512.00,592.00 512.00,592.00              512.00,592.00 512.00,259.00 512.00,259.00 Z            M 1483.00,388.00            C 1497.35,388.00 1523.21,388.98 1533.91,399.18              1546.80,411.47 1545.97,438.26 1546.00,455.00              1546.00,455.00 1547.00,472.00 1547.00,472.00              1547.00,472.00 1547.00,684.00 1547.00,684.00              1547.00,684.00 1547.00,801.00 1547.00,801.00              1547.00,801.00 1546.00,816.00 1546.00,816.00              1546.00,816.00 1546.00,828.00 1546.00,828.00              1545.89,837.12 1543.11,863.40 1540.84,872.00              1539.45,877.30 1537.46,883.78 1533.67,887.82              1523.11,899.07 1497.69,901.00 1483.00,901.00              1483.00,901.00 1483.00,388.00 1483.00,388.00 Z            M 2027.00,560.47            C 2039.02,558.79 2058.29,560.69 2066.20,571.09              2070.24,576.40 2071.34,585.49 2072.27,592.00              2073.84,603.01 2073.98,613.90 2074.00,625.00              2074.00,625.00 2075.00,642.00 2075.00,642.00              2075.00,642.00 2075.00,835.00 2075.00,835.00              2075.00,835.00 2074.00,850.00 2074.00,850.00              2074.00,850.00 2074.00,858.00 2074.00,858.00              2074.00,858.00 2073.00,873.00 2073.00,873.00              2073.00,873.00 2071.15,899.00 2071.15,899.00              2070.57,903.89 2070.14,909.81 2067.30,913.99              2058.85,926.41 2026.49,931.78 2015.64,916.98              2009.21,908.23 2007.02,883.08 2007.00,872.00              2007.00,872.00 2007.00,703.00 2007.00,703.00              2007.00,703.00 2007.00,609.00 2007.00,609.00              2007.00,609.00 2007.96,598.00 2007.96,598.00              2008.64,582.90 2009.35,564.68 2027.00,560.47 Z" />
</svg>