<svg xmlns="http://www.w3.org/2000/svg" viewBox="308.5 247.5 1963 794">
  <path id="imdb-text" fill="#303030" stroke="none" stroke-width="1"
    d="M 1811.00,248.00            C 1811.00,248.00 2006.00,248.00 2006.00,248.00              2006.00,248.00 2006.00,502.00 2006.00,502.00              2024.05,482.36 2037.51,470.52 2062.00,459.31              2083.19,449.60 2114.77,445.96 2138.00,446.00              2138.00,446.00 2150.00,446.91 2150.00,446.91              2195.72,450.11 2236.51,465.63 2258.19,509.00              2265.18,522.97 2268.81,539.41 2269.00,555.00              2269.00,555.00 2270.00,574.00 2270.00,574.00              2270.00,574.00 2270.00,617.00 2270.00,617.00              2270.00,617.00 2271.00,634.00 2271.00,634.00              2271.00,634.00 2271.00,847.00 2271.00,847.00              2271.00,847.00 2270.00,862.00 2270.00,862.00              2270.00,862.00 2270.00,883.00 2270.00,883.00              2270.00,883.00 2269.00,895.00 2269.00,895.00              2269.00,895.00 2269.00,904.00 2269.00,904.00              2269.00,904.00 2267.16,920.00 2267.16,920.00              2265.71,933.60 2263.73,948.06 2259.14,961.00              2245.70,998.83 2208.22,1026.32 2170.00,1035.35              2154.06,1039.11 2142.06,1039.03 2126.00,1039.00              2109.68,1038.97 2081.98,1033.55 2067.00,1027.13              2050.00,1019.85 2033.13,1007.95 2020.00,994.99              2020.00,994.99 2006.00,980.00 2006.00,980.00              2006.00,980.00 1997.37,1013.00 1997.37,1013.00              1997.37,1013.00 1993.07,1027.40 1993.07,1027.40              1993.07,1027.40 1985.00,1029.00 1985.00,1029.00              1985.00,1029.00 1811.00,1029.00 1811.00,1029.00              1811.00,1029.00 1811.00,248.00 1811.00,248.00 Z            M 579.00,254.00            C 579.00,254.00 842.00,254.00 842.00,254.00              842.00,254.00 849.42,301.00 849.42,301.00              849.42,301.00 863.28,398.00 863.28,398.00              863.28,398.00 878.73,504.00 878.73,504.00              878.73,504.00 890.58,585.00 890.58,585.00              890.58,585.00 896.00,619.00 896.00,619.00              896.00,619.00 926.28,384.00 926.28,384.00              926.28,384.00 938.15,292.00 938.15,292.00              938.15,292.00 943.00,254.00 943.00,254.00              943.00,254.00 1208.00,254.00 1208.00,254.00              1208.00,254.00 1208.00,1036.00 1208.00,1036.00              1208.00,1036.00 1031.00,1036.00 1031.00,1036.00              1031.00,1036.00 1031.00,677.00 1031.00,677.00              1031.00,677.00 1031.00,567.00 1031.00,567.00              1031.00,553.61 1032.30,522.26 1029.00,511.00              1029.00,511.00 1022.28,565.00 1022.28,565.00              1022.28,565.00 1010.28,654.00 1010.28,654.00              1010.28,654.00 975.72,912.00 975.72,912.00              975.72,912.00 963.72,1001.00 963.72,1001.00              963.72,1001.00 959.00,1036.00 959.00,1036.00              959.00,1036.00 841.00,1036.00 841.00,1036.00              841.00,1036.00 833.60,1034.98 833.60,1034.98              833.60,1034.98 831.42,1028.00 831.42,1028.00              831.42,1028.00 828.58,1008.00 828.58,1008.00              828.58,1008.00 815.13,915.00 815.13,915.00              815.13,915.00 794.27,772.00 794.27,772.00              794.27,772.00 775.42,642.00 775.42,642.00              775.42,642.00 763.42,559.00 763.42,559.00              763.42,559.00 757.00,521.00 757.00,521.00              757.00,521.00 757.00,1036.00 757.00,1036.00              757.00,1036.00 579.00,1036.00 579.00,1036.00              579.00,1036.00 579.00,254.00 579.00,254.00 Z            M 1280.00,254.00            C 1280.00,254.00 1429.00,254.00 1429.00,254.00              1429.00,254.00 1444.00,255.00 1444.00,255.00              1444.00,255.00 1496.00,255.00 1496.00,255.00              1496.00,255.00 1508.00,255.96 1508.00,255.96              1508.00,255.96 1522.00,255.96 1522.00,255.96              1522.00,255.96 1535.00,257.00 1535.00,257.00              1535.00,257.00 1572.00,259.83 1572.00,259.83              1615.72,264.20 1662.29,274.50 1694.91,306.17              1702.50,313.53 1712.82,327.70 1718.13,337.00              1731.96,361.24 1734.55,382.97 1737.17,410.00              1737.17,410.00 1739.00,433.00 1739.00,433.00              1739.00,433.00 1740.00,452.00 1740.00,452.00              1740.00,452.00 1740.00,467.00 1740.00,467.00              1740.00,467.00 1741.00,483.00 1741.00,483.00              1741.00,483.00 1741.00,705.00 1741.00,705.00              1741.00,705.00 1741.00,842.00 1741.00,842.00              1741.00,842.00 1740.00,857.00 1740.00,857.00              1740.00,857.00 1740.00,868.00 1740.00,868.00              1740.00,868.00 1739.09,878.00 1739.09,878.00              1739.09,878.00 1737.17,904.00 1737.17,904.00              1734.14,934.28 1729.59,962.64 1709.54,987.00              1691.33,1009.12 1659.85,1023.54 1632.00,1028.58              1632.00,1028.58 1599.00,1032.17 1599.00,1032.17              1599.00,1032.17 1584.00,1033.09 1584.00,1033.09              1584.00,1033.09 1572.00,1034.00 1572.00,1034.00              1572.00,1034.00 1552.00,1035.04 1552.00,1035.04              1552.00,1035.04 1538.00,1035.04 1538.00,1035.04              1538.00,1035.04 1526.00,1036.00 1526.00,1036.00              1526.00,1036.00 1280.00,1036.00 1280.00,1036.00              1280.00,1036.00 1280.00,254.00 1280.00,254.00 Z            M 309.00,260.00            C 309.00,260.00 512.00,260.00 512.00,260.00              512.00,260.00 512.00,1041.00 512.00,1041.00              512.00,1041.00 309.00,1041.00 309.00,1041.00              309.00,1041.00 309.00,260.00 309.00,260.00 Z            M 1483.00,901.00            C 1498.13,901.00 1518.75,900.87 1531.00,890.67              1538.28,884.61 1539.75,878.78 1541.87,870.00              1545.04,856.85 1545.17,843.38 1546.09,830.00              1546.09,830.00 1547.00,820.00 1547.00,820.00              1547.00,820.00 1547.00,634.00 1547.00,634.00              1547.00,634.00 1547.00,449.00 1547.00,449.00              1547.00,449.00 1546.09,439.00 1546.09,439.00              1545.16,425.40 1545.73,410.93 1535.68,400.17              1526.58,390.44 1508.76,388.02 1496.00,388.00              1496.00,388.00 1483.00,388.00 1483.00,388.00              1483.00,388.00 1483.00,901.00 1483.00,901.00 Z            M 2030.00,559.30            C 2025.43,560.16 2020.73,561.32 2017.09,564.39              2008.91,571.30 2007.12,589.71 2007.00,600.00              2007.00,600.00 2006.00,619.00 2006.00,619.00              2006.00,619.00 2006.00,863.00 2006.00,863.00              2006.00,863.00 2007.00,878.00 2007.00,878.00              2007.00,878.00 2007.00,882.00 2007.00,882.00              2007.00,882.00 2008.75,898.00 2008.75,898.00              2010.74,910.18 2013.57,921.33 2027.00,925.21              2029.91,926.05 2034.94,926.37 2038.00,926.26              2047.76,925.90 2059.95,923.83 2066.61,915.91              2071.02,910.66 2071.56,901.61 2072.08,895.00              2072.08,895.00 2074.00,863.00 2074.00,863.00              2074.00,863.00 2075.00,848.00 2075.00,848.00              2075.00,848.00 2075.00,700.00 2075.00,700.00              2075.00,700.00 2075.00,618.00 2075.00,618.00              2075.00,618.00 2072.08,587.00 2072.08,587.00              2071.31,582.45 2069.88,575.82 2067.30,572.00              2059.97,561.14 2042.20,558.09 2030.00,559.30 Z" />
</svg>