<svg xmlns="http://www.w3.org/2000/svg" viewBox="-0.51 -0.32 2561.05 922.82">
  <path id="imgur" fill="#303030" stroke="none" stroke-width="1"
    d="M 73.00,0.22            C 73.00,0.22 81.00,0.22 81.00,0.22              102.26,-0.03 115.30,0.62 134.00,12.70              161.09,30.20 174.90,58.14 173.08,90.00              172.20,105.49 169.77,116.48 161.54,130.00              153.87,142.59 142.76,152.85 130.00,160.13              112.77,169.96 98.05,170.22 79.00,170.00              47.94,169.63 16.94,146.37 5.45,118.00              -0.29,103.81 -0.02,94.73 0.00,80.00              0.05,46.97 24.16,17.54 54.00,5.45              60.68,2.75 66.01,1.72 73.00,0.22 Z            M 1434.00,653.00            C 1434.00,653.00 1419.83,670.00 1419.83,670.00              1408.33,682.72 1392.29,694.91 1377.00,702.74              1326.40,728.68 1253.48,724.51 1204.00,697.69              1169.67,679.08 1140.85,649.84 1120.05,617.00              1089.20,568.28 1078.34,511.94 1079.00,455.00              1079.00,455.00 1080.04,445.00 1080.04,445.00              1080.04,445.00 1080.04,436.00 1080.04,436.00              1082.37,412.91 1086.57,390.02 1094.00,368.00              1111.18,317.10 1147.99,267.79 1193.00,238.34              1230.65,213.72 1274.24,202.48 1319.00,203.00              1319.00,203.00 1329.00,203.91 1329.00,203.91              1357.27,205.89 1382.34,212.86 1406.00,229.03              1421.78,239.81 1426.21,247.71 1435.00,254.00              1443.39,235.22 1464.26,217.04 1484.00,211.04              1492.41,208.48 1498.41,208.96 1507.00,209.00              1523.49,209.08 1540.28,215.29 1551.99,227.01              1570.15,245.20 1574.41,272.51 1576.09,297.00              1576.09,297.00 1577.00,309.00 1577.00,309.00              1577.00,309.00 1577.00,521.00 1577.00,521.00              1577.00,521.00 1577.00,638.00 1577.00,638.00              1577.00,638.00 1576.00,653.00 1576.00,653.00              1576.00,653.00 1576.00,666.00 1576.00,666.00              1576.00,666.00 1575.00,683.00 1575.00,683.00              1575.00,683.00 1574.09,693.00 1574.09,693.00              1574.09,693.00 1571.28,722.00 1571.28,722.00              1566.97,755.05 1559.04,788.70 1540.66,817.00              1531.99,830.34 1524.84,840.27 1513.91,852.00              1487.09,880.79 1448.64,901.90 1411.00,912.71              1397.83,916.49 1375.39,921.98 1362.00,922.00              1362.00,922.00 1253.00,922.00 1253.00,922.00              1242.15,921.98 1226.87,918.78 1216.00,916.60              1184.74,910.34 1149.45,897.23 1124.00,877.87              1104.96,863.39 1091.04,843.58 1091.00,819.00              1090.99,810.35 1091.22,803.35 1094.08,795.00              1103.42,767.72 1127.80,752.68 1156.00,753.00              1165.64,753.12 1177.82,756.94 1187.00,760.00              1187.00,760.00 1231.00,775.66 1231.00,775.66              1287.50,795.27 1365.43,806.39 1408.38,754.00              1418.15,742.08 1424.47,728.74 1428.71,714.00              1432.41,701.14 1433.47,690.24 1434.04,677.00              1434.04,677.00 1434.66,670.00 1434.66,670.00              1434.66,670.00 1434.00,653.00 1434.00,653.00 Z            M 2381.00,255.00            C 2390.05,245.95 2399.41,237.27 2410.00,230.03              2439.85,209.63 2482.45,197.30 2517.00,212.86              2523.16,215.64 2530.83,221.06 2536.00,225.44              2543.38,231.68 2550.98,242.06 2554.77,251.00              2560.18,263.77 2560.15,269.57 2560.00,283.00              2559.65,312.13 2526.79,333.08 2503.00,343.42              2503.00,343.42 2430.00,372.75 2430.00,372.75              2417.24,379.13 2403.16,387.54 2395.47,400.00              2389.06,410.39 2386.02,431.77 2386.00,444.00              2386.00,444.00 2386.00,613.00 2386.00,613.00              2386.00,613.00 2385.00,630.00 2385.00,630.00              2384.78,648.28 2378.92,673.29 2369.55,689.00              2365.61,695.60 2358.37,703.65 2352.00,707.90              2325.37,725.62 2279.29,723.02 2257.09,699.00              2241.37,681.98 2236.47,655.32 2234.91,633.00              2234.91,633.00 2234.00,621.00 2234.00,621.00              2234.00,621.00 2234.00,306.00 2234.00,306.00              2234.00,306.00 2234.91,294.00 2234.91,294.00              2236.84,267.61 2242.66,240.10 2264.00,222.32              2278.74,210.05 2296.75,208.79 2315.00,209.00              2338.32,209.28 2358.93,222.73 2372.52,241.00              2375.74,245.32 2379.07,249.96 2381.00,255.00 Z            M 687.00,276.00            C 706.36,253.70 734.43,231.58 762.00,220.45              781.52,212.57 808.95,207.03 830.00,207.00              830.00,207.00 848.00,207.00 848.00,207.00              848.00,207.00 860.00,207.91 860.00,207.91              887.16,209.90 914.05,217.75 937.00,232.69              959.50,247.34 978.52,270.66 989.69,295.00              1012.11,343.82 1010.00,391.88 1010.00,444.00              1010.00,444.00 1010.00,618.00 1010.00,618.00              1010.00,618.00 1009.09,628.00 1009.09,628.00              1006.63,663.90 998.42,705.33 958.00,716.12              950.98,717.99 945.28,718.99 938.00,719.00              923.08,719.02 911.78,718.63 898.00,711.73              873.13,699.29 864.45,672.69 860.87,647.00              859.95,640.40 859.01,633.67 859.00,627.00              859.00,627.00 859.00,448.00 859.00,448.00              859.00,448.00 858.00,433.00 858.00,433.00              858.00,433.00 858.00,425.00 858.00,425.00              858.00,425.00 856.28,408.00 856.28,408.00              853.59,387.29 848.25,365.28 832.96,350.04              814.06,331.20 777.77,329.51 755.00,341.90              743.40,348.21 735.80,356.56 729.44,368.00              719.17,386.46 716.03,413.14 716.00,434.00              716.00,434.00 715.00,449.00 715.00,449.00              715.00,449.00 715.00,629.00 715.00,629.00              715.00,629.00 713.13,647.00 713.13,647.00              709.14,675.66 697.85,703.26 669.00,714.54              657.86,718.89 645.78,719.13 634.00,719.00              627.82,718.92 619.96,717.52 614.00,715.85              582.65,707.04 569.94,676.46 565.73,647.00              565.73,647.00 564.00,631.00 564.00,631.00              564.00,631.00 563.00,610.00 563.00,610.00              563.00,610.00 563.00,428.00 563.00,428.00              563.00,428.00 562.09,418.00 562.09,418.00              560.39,394.78 555.75,368.37 538.96,351.00              519.28,330.64 482.84,329.27 459.00,342.88              449.81,348.12 441.43,356.74 436.31,366.00              419.94,395.63 421.00,434.08 421.00,467.00              421.00,467.00 421.00,625.00 421.00,625.00              421.00,625.00 420.09,635.00 420.09,635.00              417.91,664.75 408.63,699.23 379.00,712.69              365.14,718.98 353.80,719.17 339.00,719.00              333.79,718.94 326.03,717.67 321.00,716.25              288.49,707.14 276.14,677.70 271.87,647.00              270.95,640.40 270.01,633.67 270.00,627.00              270.00,627.00 270.00,300.00 270.00,300.00              270.04,276.03 278.22,240.99 296.01,224.09              316.49,204.63 353.26,201.90 378.00,214.27              393.65,222.09 409.36,239.34 417.00,255.00              432.91,238.68 444.08,229.75 465.00,220.31              491.69,208.28 520.25,206.67 549.00,207.00              549.00,207.00 559.00,207.91 559.00,207.91              583.83,209.73 606.68,215.59 629.00,226.75              645.77,235.14 658.74,244.74 672.00,258.00              677.39,263.38 683.76,269.02 687.00,276.00 Z            M 74.00,209.21            C 74.00,209.21 92.00,209.21 92.00,209.21              98.91,209.01 105.35,210.00 112.00,211.91              150.25,222.87 158.72,262.48 161.09,297.00              161.09,297.00 162.00,309.00 162.00,309.00              162.00,309.00 162.00,618.00 162.00,618.00              162.00,618.00 161.09,630.00 161.09,630.00              159.04,659.98 152.86,696.48 123.00,711.63              108.97,718.75 96.26,719.17 81.00,719.00              75.56,718.93 67.22,717.55 62.00,715.96              23.14,704.15 14.36,665.62 11.91,630.00              11.91,630.00 11.00,618.00 11.00,618.00              11.00,618.00 11.00,310.00 11.00,310.00              11.00,310.00 11.91,298.00 11.91,298.00              13.83,269.92 19.28,236.21 45.00,219.55              54.34,213.50 63.20,211.20 74.00,209.21 Z            M 1740.00,209.21            C 1740.00,209.21 1758.00,209.21 1758.00,209.21              1764.44,209.01 1770.79,210.00 1777.00,211.75              1816.01,222.68 1824.68,262.91 1827.09,298.00              1827.09,298.00 1828.00,310.00 1828.00,310.00              1828.00,310.00 1828.00,494.00 1828.00,494.00              1828.00,494.00 1828.91,506.00 1828.91,506.00              1830.45,527.10 1835.26,552.99 1850.17,568.96              1862.47,582.14 1877.79,586.32 1895.00,588.16              1900.40,588.74 1902.27,589.21 1908.00,588.96              1915.79,588.62 1927.67,586.72 1935.00,584.14              1962.39,574.49 1972.49,553.72 1977.80,527.00              1979.14,520.25 1980.92,508.73 1981.00,502.00              1981.00,502.00 1982.00,482.00 1982.00,482.00              1982.00,482.00 1982.00,424.00 1982.00,424.00              1982.00,424.00 1982.00,336.00 1982.00,336.00              1982.00,314.87 1981.06,293.85 1985.20,273.00              1989.98,248.90 1999.34,226.36 2023.00,215.32              2037.14,208.72 2049.87,208.83 2065.00,209.00              2070.41,209.07 2076.81,210.17 2082.00,211.72              2114.83,221.56 2125.81,249.92 2130.13,281.00              2131.05,287.60 2131.99,294.33 2132.00,301.00              2132.00,301.00 2132.00,452.00 2132.00,452.00              2132.00,452.00 2132.00,528.00 2132.00,528.00              2132.00,528.00 2131.09,540.00 2131.09,540.00              2127.71,588.34 2111.29,636.50 2076.00,670.99              2066.85,679.93 2053.19,690.45 2042.00,696.69              2024.67,706.36 2008.21,713.07 1989.00,718.12              1959.14,725.96 1925.80,728.36 1895.00,728.00              1895.00,728.00 1878.00,727.00 1878.00,727.00              1859.22,726.78 1828.08,720.64 1810.00,715.02              1791.44,709.26 1773.14,701.17 1757.00,690.26              1747.57,683.88 1734.73,673.46 1727.28,665.00              1697.62,631.30 1684.12,595.14 1678.85,551.00              1678.85,551.00 1677.00,529.00 1677.00,529.00              1677.00,529.00 1677.00,484.00 1677.00,484.00              1677.00,484.00 1677.00,397.00 1677.00,397.00              1677.00,397.00 1677.00,359.00 1677.00,359.00              1677.00,359.00 1677.00,332.00 1677.00,332.00              1677.00,332.00 1677.00,302.00 1677.00,302.00              1677.00,302.00 1677.92,290.00 1677.92,290.00              1680.19,261.64 1689.59,229.67 1717.00,215.97              1725.01,211.97 1731.35,210.84 1740.00,209.21 Z            M 1326.00,344.28            C 1315.01,345.87 1307.47,346.59 1297.00,351.31              1261.37,367.37 1241.96,403.51 1237.29,441.00              1236.03,451.03 1235.95,460.90 1236.00,471.00              1236.00,471.00 1236.92,482.00 1236.92,482.00              1241.10,534.27 1273.37,586.32 1331.00,587.00              1341.46,587.12 1351.96,585.88 1362.00,582.80              1397.19,571.99 1419.52,539.37 1428.11,505.00              1430.50,495.40 1431.41,485.81 1432.09,476.00              1432.09,476.00 1433.00,466.00 1433.00,466.00              1433.18,449.96 1430.15,428.18 1424.92,413.00              1410.21,370.25 1372.28,339.98 1326.00,344.28 Z" />
</svg>