<svg xmlns="http://www.w3.org/2000/svg" viewBox="-0.5 -0.42 1052 1025.92">
  <path id="Selection" fill="#303030" stroke="none" stroke-width="1" d="M 167.00,0.08            C 167.00,0.08 196.00,0.08 196.00,0.08              196.00,0.08 247.00,0.08 247.00,0.08              247.00,0.08 403.00,0.08 403.00,0.08              403.00,0.08 876.00,0.08 876.00,0.08              886.69,0.02 900.59,2.51 911.00,5.13              971.36,20.29 1019.91,64.27 1040.69,123.00              1046.00,138.01 1050.98,159.10 1051.00,175.00              1051.00,175.00 1051.00,850.00 1051.00,850.00              1050.98,865.90 1046.00,886.99 1040.69,902.00              1019.93,960.69 971.32,1004.73 911.00,1019.87              900.59,1022.49 886.69,1024.98 876.00,1025.00              876.00,1025.00 175.00,1025.00 175.00,1025.00              159.97,1024.98 138.20,1020.14 124.00,1015.05              70.43,995.85 29.36,955.85 10.31,902.00              5.26,887.73 0.02,866.06 0.00,851.00              0.00,851.00 0.00,174.00 0.00,174.00              0.02,164.15 2.70,149.65 5.13,140.00              17.21,91.87 48.78,49.17 92.00,24.43              118.02,9.53 137.86,4.65 167.00,0.08 Z            M 329.15,263.60            C 327.77,264.56 327.41,264.29 326.60,266.15              325.61,268.42 326.00,282.54 326.00,286.00              326.00,286.00 326.00,352.00 326.00,352.00              326.00,352.00 326.00,625.00 326.00,625.00              326.00,625.00 326.00,700.00 326.00,700.00              326.00,700.00 326.00,716.00 326.00,716.00              326.04,718.14 325.96,720.77 327.60,722.40              329.52,724.32 333.46,723.99 336.00,724.00              336.00,724.00 401.00,724.00 401.00,724.00              405.27,724.00 418.62,725.23 420.98,721.69              422.21,719.84 422.00,716.19 422.00,714.00              422.00,714.00 422.00,368.00 422.00,368.00              422.00,368.00 422.00,288.00 422.00,288.00              422.00,288.00 422.00,271.00 422.00,271.00              421.96,268.86 422.04,266.23 420.40,264.60              418.48,262.68 414.54,263.01 412.00,263.00              412.00,263.00 357.00,263.00 357.00,263.00              350.62,263.00 334.39,262.41 329.15,263.60 Z            M 674.00,366.28            C 674.00,366.28 662.00,367.17 662.00,367.17              651.28,368.19 640.48,370.18 630.00,372.65              596.90,380.48 560.08,399.68 537.17,425.00              525.15,438.29 514.80,452.68 507.31,469.00              475.39,538.51 487.94,632.39 546.00,684.83              559.30,696.84 574.60,706.89 591.00,714.14              612.19,723.50 634.99,728.48 658.00,730.09              658.00,730.09 670.00,731.00 670.00,731.00              670.00,731.00 684.00,731.00 684.00,731.00              684.00,731.00 701.00,730.00 701.00,730.00              713.20,729.94 730.14,727.63 742.00,724.63              745.49,723.74 753.92,721.66 756.35,719.30              759.31,716.43 758.99,711.79 759.00,708.00              759.00,708.00 759.00,647.00 759.00,647.00              758.97,641.09 758.65,635.87 751.00,636.76              751.00,636.76 727.00,640.83 727.00,640.83              698.62,643.68 664.05,643.13 638.00,630.19              622.64,622.56 608.57,610.12 600.31,595.00              590.30,576.66 589.77,558.24 590.00,538.00              590.25,516.73 599.39,494.32 614.17,479.09              632.11,460.59 662.48,450.04 688.00,450.00              688.00,450.00 721.00,451.95 721.00,451.95              729.81,452.94 736.51,454.58 745.00,457.00              747.47,457.70 753.04,459.70 755.26,457.99              757.37,456.37 757.00,451.43 757.00,449.00              757.00,449.00 757.00,412.00 757.00,412.00              757.00,412.00 757.96,402.00 757.96,402.00              757.96,402.00 757.96,386.00 757.96,386.00              758.00,383.23 758.21,379.57 756.83,377.11              753.99,372.05 742.41,370.85 737.00,369.80              719.35,366.40 691.83,364.63 674.00,366.28 Z"/>
</svg>