<svg xmlns="http://www.w3.org/2000/svg" viewBox="-0.5 -0.42 1052 1025.92">
  <path id="Selection" fill="#303030" stroke="none" stroke-width="1" d="M 167.00,0.08            C 167.00,0.08 196.00,0.08 196.00,0.08              196.00,0.08 247.00,0.08 247.00,0.08              247.00,0.08 403.00,0.08 403.00,0.08              403.00,0.08 876.00,0.08 876.00,0.08              886.69,0.02 900.59,2.51 911.00,5.13              971.36,20.29 1019.91,64.27 1040.69,123.00              1046.00,138.01 1050.98,159.10 1051.00,175.00              1051.00,175.00 1051.00,850.00 1051.00,850.00              1050.98,865.90 1046.00,886.99 1040.69,902.00              1019.93,960.69 971.32,1004.73 911.00,1019.87              900.59,1022.49 886.69,1024.98 876.00,1025.00              876.00,1025.00 175.00,1025.00 175.00,1025.00              159.97,1024.98 138.20,1020.14 124.00,1015.05              70.43,995.85 29.36,955.85 10.31,902.00              5.26,887.73 0.02,866.06 0.00,851.00              0.00,851.00 0.00,174.00 0.00,174.00              0.02,164.15 2.70,149.65 5.13,140.00              17.21,91.87 48.78,49.17 92.00,24.43              118.02,9.53 137.86,4.65 167.00,0.08 Z            M 678.00,368.00            C 678.00,368.00 661.00,367.00 661.00,367.00              661.00,367.00 644.00,367.00 644.00,367.00              644.00,367.00 632.00,367.91 632.00,367.91              604.22,369.82 577.04,375.72 552.00,388.25              518.21,405.14 493.00,428.03 474.15,461.00              460.89,484.20 451.04,516.14 451.00,543.00              451.00,543.00 451.00,563.00 451.00,563.00              451.00,563.00 451.91,575.00 451.91,575.00              455.41,622.91 475.07,667.86 515.00,696.57              542.52,716.36 586.99,730.95 621.00,731.00              621.00,731.00 652.00,731.00 652.00,731.00              652.00,731.00 662.00,730.09 662.00,730.09              690.83,728.11 718.27,722.69 746.00,714.58              746.00,714.58 768.00,706.60 768.00,706.60              771.25,705.30 775.01,704.15 777.00,700.89              779.01,696.99 777.57,691.20 777.00,687.00              777.00,687.00 776.00,661.00 776.00,661.00              776.00,661.00 775.00,646.00 775.00,646.00              775.00,646.00 775.00,327.00 775.00,327.00              775.00,327.00 775.00,249.00 775.00,249.00              775.00,249.00 775.00,232.00 775.00,232.00              774.96,230.05 775.10,227.37 773.40,226.02              771.81,224.77 767.99,225.00 766.00,225.00              766.00,225.00 699.00,225.00 699.00,225.00              694.73,225.00 681.38,223.77 679.02,227.31              677.79,229.16 678.00,232.81 678.00,235.00              678.00,235.00 678.00,368.00 678.00,368.00 Z            M 288.12,263.14            C 286.74,264.11 286.29,263.93 285.29,265.43              283.36,268.33 284.00,280.96 284.00,285.00              284.00,285.00 284.00,351.00 284.00,351.00              284.00,351.00 284.00,628.00 284.00,628.00              284.00,628.00 284.00,712.00 284.00,712.00              284.02,722.42 283.82,725.98 295.00,726.00              295.00,726.00 370.00,726.00 370.00,726.00              381.27,725.98 381.98,723.97 382.00,713.00              382.00,713.00 382.00,368.00 382.00,368.00              382.00,368.00 382.00,288.00 382.00,288.00              382.00,282.85 383.34,267.88 379.57,264.60              377.38,262.69 373.74,263.01 371.00,263.14              371.00,263.14 317.00,263.14 317.00,263.14              317.00,263.14 288.12,263.14 288.12,263.14 Z            M 639.00,448.42            C 648.24,447.30 657.79,447.92 667.00,448.95              669.58,449.24 675.33,449.62 677.01,451.73              678.26,453.31 678.00,457.03 678.00,459.00              678.00,459.00 678.00,636.00 678.00,636.00              678.00,638.07 678.23,641.74 676.98,643.44              675.56,645.36 672.20,645.74 670.00,645.91              670.00,645.91 652.00,647.00 652.00,647.00              652.00,647.00 636.00,647.00 636.00,647.00              615.70,646.76 590.31,637.58 576.09,622.96              556.47,602.79 549.96,573.25 550.00,546.00              550.02,533.10 553.01,514.76 558.31,503.00              569.08,479.13 592.29,460.86 617.00,453.03              624.37,450.69 631.41,449.57 639.00,448.42 Z"/>
</svg>