<svg xmlns="http://www.w3.org/2000/svg" viewBox="-0.57 5.27 1001.15 989.24">
  <path id="inkscape" fill="#303030" stroke="none" stroke-width="1"
    d="M 481.00,6.42            C 508.38,3.09 542.88,12.94 565.00,29.15              581.16,41.00 594.27,56.60 608.04,71.00              608.04,71.00 628.00,91.00 628.00,91.00              628.00,91.00 654.01,118.00 654.01,118.00              654.01,118.00 689.96,154.00 689.96,154.00              689.96,154.00 698.04,163.00 698.04,163.00              698.04,163.00 733.00,198.00 733.00,198.00              733.00,198.00 744.01,210.00 744.01,210.00              744.01,210.00 778.99,245.00 778.99,245.00              778.99,245.00 788.04,255.00 788.04,255.00              788.04,255.00 823.96,291.00 823.96,291.00              823.96,291.00 832.04,300.00 832.04,300.00              832.04,300.00 867.99,336.00 867.99,336.00              867.99,336.00 877.04,346.00 877.04,346.00              877.04,346.00 896.00,365.00 896.00,365.00              896.00,365.00 913.96,383.00 913.96,383.00              913.96,383.00 923.01,393.00 923.01,393.00              923.01,393.00 957.96,428.00 957.96,428.00              957.96,428.00 966.04,437.00 966.04,437.00              980.81,452.52 999.73,477.57 1000.00,500.00              1000.11,509.49 1000.53,514.75 997.48,524.00              990.08,546.47 967.58,563.85 948.00,575.60              903.78,602.13 831.22,624.42 781.00,641.00              757.80,648.66 735.41,656.80 713.00,666.58              705.98,669.64 692.78,675.40 694.43,685.00              695.68,692.23 706.20,700.15 712.00,704.00              712.00,704.00 768.00,736.89 768.00,736.89              776.29,743.10 786.81,752.42 785.66,764.00              785.23,768.39 782.00,776.86 780.14,781.00              761.32,822.78 719.54,821.40 682.00,833.02              660.46,839.69 643.12,847.86 625.00,861.47              625.00,861.47 610.00,874.09 610.00,874.09              610.00,874.09 600.33,884.00 600.33,884.00              593.10,892.82 596.10,898.77 605.00,904.56              605.00,904.56 632.00,919.53 632.00,919.53              636.41,922.98 639.71,927.10 638.46,933.00              635.93,944.94 614.38,955.97 604.00,961.24              568.56,979.25 524.11,994.47 484.00,994.00              470.85,993.84 453.56,990.56 444.04,980.96              435.10,971.94 436.30,963.97 432.65,953.00              428.70,941.15 422.06,930.52 412.00,922.90              390.89,906.91 361.33,908.21 337.00,900.00              326.08,896.31 312.06,889.18 309.04,877.00              306.93,868.45 310.61,860.88 315.44,854.00              315.44,854.00 346.50,819.00 346.50,819.00              356.67,805.66 359.18,795.15 345.00,783.46              330.24,771.30 300.48,760.30 282.00,754.00              282.00,754.00 242.00,740.34 242.00,740.34              242.00,740.34 179.00,719.19 179.00,719.19              164.53,713.71 148.33,707.79 135.00,699.99              129.27,696.63 121.73,692.07 118.69,686.00              113.22,675.11 123.98,666.92 132.00,661.69              132.00,661.69 197.00,628.69 197.00,628.69              205.36,624.03 223.85,612.28 213.61,601.22              211.01,598.42 204.66,596.08 201.00,594.60              201.00,594.60 169.00,584.00 169.00,584.00              129.46,572.65 83.69,566.62 46.00,550.99              29.39,544.10 9.31,532.70 2.71,515.00              -0.51,506.37 -0.10,500.94 0.00,492.00              0.18,476.64 11.05,455.70 19.34,443.00              37.87,414.63 45.36,410.19 67.99,387.00              67.99,387.00 77.04,377.00 77.04,377.00              77.04,377.00 98.00,356.00 98.00,356.00              98.00,356.00 120.04,333.00 120.04,333.00              120.04,333.00 153.99,299.00 153.99,299.00              153.99,299.00 163.04,289.00 163.04,289.00              163.04,289.00 196.99,255.00 196.99,255.00              196.99,255.00 206.04,245.00 206.04,245.00              206.04,245.00 239.99,211.00 239.99,211.00              239.99,211.00 249.04,201.00 249.04,201.00              249.04,201.00 282.99,167.00 282.99,167.00              282.99,167.00 300.00,149.00 300.00,149.00              300.00,149.00 328.83,120.00 328.83,120.00              328.83,120.00 370.91,77.00 370.91,77.00              370.91,77.00 397.00,50.00 397.00,50.00              412.59,34.41 420.32,25.64 441.00,16.31              455.57,9.74 465.66,8.61 481.00,6.42 Z            M 707.00,264.00            C 711.51,255.75 711.10,252.07 711.00,243.00              710.79,225.58 702.52,217.52 691.00,206.00              691.00,206.00 675.01,190.00 675.01,190.00              675.01,190.00 665.96,180.00 665.96,180.00              665.96,180.00 613.00,127.00 613.00,127.00              613.00,127.00 601.96,115.00 601.96,115.00              601.96,115.00 576.00,89.00 576.00,89.00              576.00,89.00 546.00,59.90 546.00,59.90              532.41,49.61 514.09,43.20 497.00,43.00              481.12,42.82 464.77,46.24 451.00,54.45              437.43,62.54 417.00,85.00 405.00,97.00              405.00,97.00 326.04,176.00 326.04,176.00              326.04,176.00 317.96,185.00 317.96,185.00              317.96,185.00 289.29,215.00 289.29,215.00              286.68,218.00 283.85,221.66 281.70,225.00              271.36,241.01 264.32,272.15 288.00,280.61              292.15,282.10 294.72,281.99 299.00,282.00              299.00,282.00 370.00,282.00 370.00,282.00              372.31,282.00 375.63,282.22 377.62,280.98              380.33,279.28 388.71,263.74 390.85,260.00              390.85,260.00 414.58,219.00 414.58,219.00              418.98,211.32 425.74,198.47 431.00,192.00              431.00,192.00 438.63,225.00 438.63,225.00              438.63,225.00 453.87,286.00 453.87,286.00              453.87,286.00 462.00,320.00 462.00,320.00              468.59,318.66 478.86,311.00 485.00,307.19              485.00,307.19 535.00,275.58 535.00,275.58              535.00,275.58 551.00,265.42 551.00,265.42              553.02,264.16 556.69,261.68 559.00,261.47              562.74,261.13 574.29,268.08 578.00,270.14              578.00,270.14 620.00,292.00 620.00,292.00              620.00,292.00 626.59,250.00 626.59,250.00              626.59,250.00 634.00,206.00 634.00,206.00              634.00,206.00 677.00,240.60 677.00,240.60              677.00,240.60 707.00,264.00 707.00,264.00 Z            M 312.00,622.00            C 320.03,633.11 343.19,642.20 356.00,647.72              382.49,659.12 419.13,672.40 447.00,679.37              458.29,682.20 477.72,686.87 489.00,687.00              500.08,687.13 506.73,684.92 514.90,676.83              517.60,674.15 521.80,668.35 518.40,664.70              516.10,662.23 508.39,661.32 505.00,660.75              505.00,660.75 472.00,654.58 472.00,654.58              472.00,654.58 430.00,646.00 430.00,646.00              430.00,646.00 356.00,630.12 356.00,630.12              356.00,630.12 329.00,623.29 329.00,623.29              321.88,621.26 319.09,618.74 312.00,622.00 Z            M 892.00,723.42            C 913.28,720.83 937.25,725.82 954.00,739.62              961.42,745.73 973.85,760.65 968.55,770.99              964.37,779.13 949.50,783.29 941.00,784.72              934.55,785.79 925.46,786.99 919.00,787.00              894.48,787.04 881.55,787.19 857.00,782.20              850.81,780.94 837.44,777.62 833.44,772.79              828.88,767.27 836.03,755.86 839.44,751.00              851.74,733.48 871.72,726.49 892.00,723.42 Z            M 257.00,804.42            C 269.11,802.95 286.26,804.93 297.00,810.90              300.48,812.84 307.30,817.86 307.87,822.00              308.47,826.29 300.54,838.29 297.98,842.00              284.70,861.22 264.50,875.91 241.00,878.72              215.08,881.81 186.59,855.92 199.53,833.00              210.55,813.47 236.63,807.38 257.00,804.42 Z            M 813.00,808.03            C 818.99,806.15 825.39,808.98 831.00,811.20              846.31,817.27 863.55,829.93 863.99,848.00              864.05,850.72 864.16,854.49 862.83,856.90              858.74,864.26 839.88,867.16 832.00,866.99              807.61,866.43 788.71,845.71 801.32,822.00              804.24,816.51 807.80,811.51 813.00,808.03 Z" />
</svg>