<svg xmlns="http://www.w3.org/2000/svg" viewBox="-0.5 -0.39 1025 1024.89">
  <path id="instagram" fill="#303030" stroke="none" stroke-width="1"
    d="M 229.00,0.11            C 229.00,0.11 297.00,0.11 297.00,0.11              297.00,0.11 430.00,0.11 430.00,0.11              430.00,0.11 778.00,0.11 778.00,0.11              778.00,0.11 793.00,1.00 793.00,1.00              831.04,1.44 871.02,9.74 905.00,27.26              973.32,62.49 1010.78,124.43 1021.13,199.00              1021.13,199.00 1024.00,230.00 1024.00,230.00              1024.00,230.00 1024.00,794.00 1024.00,794.00              1024.00,794.00 1021.28,823.00 1021.28,823.00              1019.29,838.30 1016.56,853.24 1011.98,868.00              995.91,919.68 960.48,965.65 913.00,992.14              876.03,1012.77 846.30,1018.22 805.00,1022.17              805.00,1022.17 790.00,1023.09 790.00,1023.09              790.00,1023.09 778.00,1024.00 778.00,1024.00              778.00,1024.00 435.00,1024.00 435.00,1024.00              435.00,1024.00 245.00,1024.00 245.00,1024.00              245.00,1024.00 234.00,1023.04 234.00,1023.04              196.04,1021.39 158.54,1015.47 124.00,998.74              67.27,971.27 27.60,921.18 10.43,861.00              6.68,847.88 4.46,833.54 2.85,820.00              2.85,820.00 0.91,798.00 0.91,798.00              0.91,798.00 0.00,786.00 0.00,786.00              0.00,786.00 0.00,393.00 0.00,393.00              0.00,393.00 0.00,278.00 0.00,278.00              0.00,222.78 0.87,171.79 26.27,121.00              39.04,95.47 57.50,72.88 79.00,54.28              94.28,41.06 111.67,30.72 130.00,22.31              149.58,13.32 170.70,7.41 192.00,4.27              192.00,4.27 218.00,1.17 218.00,1.17              218.00,1.17 229.00,0.11 229.00,0.11 Z            M 408.00,132.07            C 408.00,132.07 379.00,133.00 379.00,133.00              379.00,133.00 359.00,134.00 359.00,134.00              359.00,134.00 334.00,135.83 334.00,135.83              278.08,141.42 229.27,158.95 190.09,201.00              152.14,241.73 138.61,291.93 134.91,346.00              134.91,346.00 133.96,356.00 133.96,356.00              133.96,356.00 133.96,368.00 133.96,368.00              133.96,368.00 133.00,380.00 133.00,380.00              133.00,380.00 133.00,396.00 133.00,396.00              133.00,396.00 132.00,413.00 132.00,413.00              132.00,413.00 132.00,613.00 132.00,613.00              132.00,613.00 133.00,628.00 133.00,628.00              133.00,628.00 133.00,644.00 133.00,644.00              133.00,644.00 133.96,656.00 133.96,656.00              133.96,656.00 133.96,667.00 133.96,667.00              133.96,667.00 134.96,678.00 134.96,678.00              137.32,731.70 154.26,785.51 192.04,825.00              233.67,868.52 289.09,886.47 348.00,889.04              348.00,889.04 359.00,890.04 359.00,890.04              359.00,890.04 372.00,890.04 372.00,890.04              372.00,890.04 384.00,891.00 384.00,891.00              384.00,891.00 406.00,891.00 406.00,891.00              406.00,891.00 423.00,892.00 423.00,892.00              423.00,892.00 601.00,892.00 601.00,892.00              601.00,892.00 618.00,891.00 618.00,891.00              618.00,891.00 640.00,891.00 640.00,891.00              640.00,891.00 652.00,890.04 652.00,890.04              652.00,890.04 665.00,890.04 665.00,890.04              665.00,890.04 675.00,888.96 675.00,888.96              675.00,888.96 684.00,888.96 684.00,888.96              707.22,886.62 729.81,882.88 752.00,875.49              768.43,870.01 789.08,860.32 803.00,850.12              820.79,837.08 835.77,822.83 848.85,805.00              872.76,772.40 883.92,732.71 888.16,693.00              888.16,693.00 890.00,672.00 890.00,672.00              890.00,672.00 891.00,654.00 891.00,654.00              891.00,654.00 891.00,639.00 891.00,639.00              891.00,639.00 892.00,623.00 892.00,623.00              892.00,623.00 892.00,517.00 892.00,517.00              892.00,517.00 892.00,398.00 892.00,398.00              892.00,398.00 891.02,387.00 891.02,387.00              891.02,387.00 891.02,370.00 891.02,370.00              891.02,370.00 890.00,351.00 890.00,351.00              890.00,351.00 888.17,331.00 888.17,331.00              883.84,287.69 870.55,245.19 842.74,211.00              833.98,200.24 821.00,187.35 810.00,178.89              770.67,148.62 725.46,138.23 677.00,134.91              677.00,134.91 667.00,133.96 667.00,133.96              667.00,133.96 655.00,133.96 655.00,133.96              655.00,133.96 643.00,133.00 643.00,133.00              643.00,133.00 626.00,133.00 626.00,133.00              626.00,133.00 610.00,132.07 610.00,132.07              610.00,132.07 538.00,132.07 538.00,132.07              538.00,132.07 453.00,132.07 453.00,132.07              453.00,132.07 408.00,132.07 408.00,132.07 Z            M 472.00,199.43            C 472.00,199.43 497.00,200.00 497.00,200.00              497.00,200.00 557.00,200.00 557.00,200.00              557.00,200.00 625.00,200.00 625.00,200.00              625.00,200.00 640.00,201.00 640.00,201.00              640.00,201.00 654.00,201.00 654.00,201.00              654.00,201.00 672.00,202.00 672.00,202.00              672.00,202.00 691.00,203.85 691.00,203.85              728.26,208.30 762.64,220.46 787.56,250.00              813.30,280.51 819.46,314.51 822.09,353.00              822.09,353.00 823.04,363.00 823.04,363.00              823.04,363.00 823.04,376.00 823.04,376.00              823.04,376.00 824.00,388.00 824.00,388.00              824.00,388.00 824.00,420.00 824.00,420.00              824.00,420.00 825.00,435.00 825.00,435.00              825.00,435.00 825.00,591.00 825.00,591.00              825.00,591.00 824.00,606.00 824.00,606.00              824.00,606.00 824.00,636.00 824.00,636.00              824.00,636.00 823.04,648.00 823.04,648.00              823.04,648.00 823.04,661.00 823.04,661.00              823.04,661.00 822.09,671.00 822.09,671.00              819.24,712.67 812.30,747.19 782.83,778.99              755.45,808.53 714.67,818.43 676.00,821.09              676.00,821.09 666.00,822.04 666.00,822.04              666.00,822.04 655.00,822.04 655.00,822.04              655.00,822.04 643.00,823.00 643.00,823.00              643.00,823.00 627.00,823.00 627.00,823.00              627.00,823.00 611.00,824.00 611.00,824.00              611.00,824.00 411.00,824.00 411.00,824.00              411.00,824.00 396.00,823.00 396.00,823.00              396.00,823.00 380.00,823.00 380.00,823.00              380.00,823.00 361.00,822.00 361.00,822.00              361.00,822.00 349.00,821.09 349.00,821.09              308.91,818.33 272.34,809.43 243.00,780.00              232.68,769.65 224.40,758.31 218.31,745.00              208.97,724.60 204.54,702.25 202.91,680.00              202.91,680.00 202.00,670.00 202.00,670.00              202.00,670.00 201.00,640.00 201.00,640.00              201.00,640.00 200.00,625.00 200.00,625.00              200.00,625.00 200.00,511.00 200.00,511.00              200.00,511.00 200.00,398.00 200.00,398.00              200.00,398.00 201.00,383.00 201.00,383.00              201.00,383.00 202.00,353.00 202.00,353.00              202.00,353.00 202.91,343.00 202.91,343.00              204.94,315.28 211.85,285.37 227.52,262.00              231.74,255.71 239.51,246.22 245.00,241.09              275.90,212.18 315.07,203.74 356.00,201.96              356.00,201.96 367.00,200.96 367.00,200.96              367.00,200.96 382.00,200.96 382.00,200.96              382.00,200.96 394.00,200.00 394.00,200.00              394.00,200.00 420.00,200.00 420.00,200.00              420.00,200.00 472.00,199.43 472.00,199.43 Z            M 708.00,264.30            C 699.54,265.90 692.65,268.72 686.00,274.32              654.69,300.72 672.89,353.05 714.00,353.99              753.85,354.89 775.88,307.44 748.82,278.04              744.65,273.51 738.67,269.62 733.00,267.23              724.70,263.74 716.86,263.42 708.00,264.30 Z            M 500.00,317.28            C 480.11,320.14 470.13,320.21 450.00,327.00              401.07,343.51 360.48,378.77 337.37,425.00              300.10,499.54 315.38,592.54 375.00,650.99              396.01,671.58 422.15,687.35 450.00,696.67              465.75,701.94 481.46,704.93 498.00,706.09              498.00,706.09 508.00,707.00 508.00,707.00              538.59,707.35 564.96,701.42 593.00,689.42              613.69,680.57 634.14,665.86 650.00,650.00              702.69,597.31 721.36,517.41 696.31,447.00              685.29,416.05 666.36,388.17 642.00,366.17              621.78,347.91 597.75,334.89 572.00,326.33              551.63,319.57 521.36,315.30 500.00,317.28 Z            M 497.00,385.21            C 497.00,385.21 520.00,385.21 520.00,385.21              528.88,385.04 540.43,387.43 549.00,389.86              619.49,409.84 656.80,488.22 631.95,556.00              627.37,568.48 619.46,582.88 610.87,593.00              598.90,607.09 586.49,617.29 570.00,625.74              548.34,636.84 528.88,639.28 505.00,639.00              497.55,638.91 488.25,637.18 481.00,635.37              439.42,625.03 406.70,595.28 392.05,555.00              385.83,537.88 384.79,522.94 385.00,505.00              385.51,461.49 414.37,419.58 452.00,399.31              466.17,391.68 481.22,387.81 497.00,385.21 Z" />
</svg>