<svg xmlns="http://www.w3.org/2000/svg" viewBox="131.5 131.61 762 760.89">
  <path id="Selection" fill="#303030" stroke="none" stroke-width="1" d="M 401.00,132.11            C 401.00,132.11 446.00,132.11 446.00,132.11              446.00,132.11 531.00,132.11 531.00,132.11              531.00,132.11 616.00,132.11 616.00,132.11              616.00,132.11 631.00,133.00 631.00,133.00              631.00,133.00 649.00,133.00 649.00,133.00              649.00,133.00 659.00,133.96 659.00,133.96              659.00,133.96 670.00,133.96 670.00,133.96              670.00,133.96 692.00,135.83 692.00,135.83              753.21,141.95 805.79,163.48 844.79,213.00              871.05,246.34 883.70,287.31 888.16,329.00              888.16,329.00 890.00,349.00 890.00,349.00              890.00,349.00 891.00,366.00 891.00,366.00              891.00,366.00 891.00,379.00 891.00,379.00              891.00,379.00 892.00,394.00 892.00,394.00              892.00,394.00 892.00,452.00 892.00,452.00              892.00,452.00 893.00,469.00 893.00,469.00              893.00,469.00 893.00,555.00 893.00,555.00              893.00,555.00 892.00,572.00 892.00,572.00              892.00,572.00 892.00,630.00 892.00,630.00              892.00,630.00 891.02,643.00 891.02,643.00              891.02,643.00 891.02,658.00 891.02,658.00              891.02,658.00 890.00,675.00 890.00,675.00              890.00,675.00 888.16,695.00 888.16,695.00              882.73,745.76 865.50,792.16 828.83,828.83              817.52,840.15 804.71,849.99 791.00,858.20              773.96,868.40 754.19,875.79 735.00,880.85              713.34,886.55 682.41,889.97 660.00,890.00              660.00,890.00 645.00,891.00 645.00,891.00              645.00,891.00 626.00,891.00 626.00,891.00              626.00,891.00 610.00,892.00 610.00,892.00              610.00,892.00 412.00,892.00 412.00,892.00              412.00,892.00 397.00,891.00 397.00,891.00              397.00,891.00 380.00,891.00 380.00,891.00              380.00,891.00 364.00,890.00 364.00,890.00              364.00,890.00 359.00,890.00 359.00,890.00              359.00,890.00 334.00,888.17 334.00,888.17              276.34,882.40 229.47,865.35 189.09,822.00              155.80,786.27 140.61,739.76 135.83,692.00              135.83,692.00 134.00,670.00 134.00,670.00              134.00,670.00 133.00,648.00 133.00,648.00              133.00,648.00 133.00,634.00 133.00,634.00              133.00,634.00 132.00,618.00 132.00,618.00              132.00,618.00 132.00,405.00 132.00,405.00              132.00,405.00 133.00,389.00 133.00,389.00              133.00,389.00 134.00,354.00 134.00,354.00              134.00,354.00 135.83,332.00 135.83,332.00              140.53,285.00 154.96,239.66 187.17,204.00              224.47,162.70 273.20,141.65 328.00,136.17              328.00,136.17 360.00,134.00 360.00,134.00              360.00,134.00 377.00,133.00 377.00,133.00              377.00,133.00 401.00,132.11 401.00,132.11 Z            M 393.00,200.09            C 386.01,201.29 379.04,200.97 372.00,201.00              372.00,201.00 358.00,202.00 358.00,202.00              311.49,202.54 265.10,215.81 234.62,253.00              213.19,279.14 205.22,312.98 202.91,346.00              202.91,346.00 202.00,356.00 202.00,356.00              202.00,356.00 201.00,377.00 201.00,377.00              201.00,377.00 201.00,392.00 201.00,392.00              201.00,392.00 200.00,405.00 200.00,405.00              200.00,405.00 200.00,512.00 200.00,512.00              200.00,512.00 200.00,618.00 200.00,618.00              200.00,618.00 201.00,633.00 201.00,633.00              201.00,633.00 202.00,668.00 202.00,668.00              202.00,668.00 203.84,688.00 203.84,688.00              208.37,730.42 223.18,767.86 259.00,793.57              286.22,813.11 318.38,818.85 351.00,821.09              351.00,821.09 361.00,822.04 361.00,822.04              361.00,822.04 373.00,822.04 373.00,822.04              373.00,822.04 385.00,823.00 385.00,823.00              385.00,823.00 403.00,823.00 403.00,823.00              403.00,823.00 419.00,824.00 419.00,824.00              419.00,824.00 607.00,824.00 607.00,824.00              607.00,824.00 622.00,823.00 622.00,823.00              622.00,823.00 641.00,823.00 641.00,823.00              641.00,823.00 655.00,822.00 655.00,822.00              691.48,821.58 729.59,816.56 761.00,796.56              768.34,791.89 774.86,786.14 781.00,780.00              811.68,749.32 820.22,709.84 822.04,668.00              822.04,668.00 823.04,656.00 823.04,656.00              823.04,656.00 823.04,643.00 823.04,643.00              823.04,643.00 824.00,631.00 824.00,631.00              824.00,631.00 824.00,586.00 824.00,586.00              824.00,586.00 825.00,569.00 825.00,569.00              825.00,569.00 825.00,452.00 825.00,452.00              825.00,452.00 824.00,437.00 824.00,437.00              824.00,437.00 824.00,392.00 824.00,392.00              824.00,392.00 823.04,380.00 823.04,380.00              823.04,380.00 823.04,366.00 823.04,366.00              823.04,366.00 821.96,356.00 821.96,356.00              821.96,356.00 821.96,346.00 821.96,346.00              818.78,313.97 811.70,280.86 791.33,255.00              751.94,204.97 692.48,201.68 634.00,201.00              634.00,201.00 619.00,200.09 619.00,200.09              619.00,200.09 472.00,200.09 472.00,200.09              472.00,200.09 393.00,200.09 393.00,200.09 Z            M 706.00,264.23            C 710.04,263.90 713.93,263.98 718.00,264.23              747.58,264.14 767.16,294.49 758.96,322.00              752.81,342.62 735.04,354.23 714.00,354.00              708.21,353.93 702.36,352.79 697.00,350.54              674.14,340.92 663.79,312.38 673.90,290.00              679.87,276.79 692.03,267.57 706.00,264.23 Z            M 497.00,317.21            C 497.00,317.21 519.00,317.21 519.00,317.21              540.79,317.03 565.85,323.08 586.00,331.20              609.31,340.60 630.86,354.61 649.00,372.04              710.23,430.88 724.99,529.50 684.69,604.00              664.87,640.64 636.19,668.16 599.00,686.75              568.78,701.86 538.55,707.39 505.00,707.00              490.80,706.83 470.72,703.04 457.00,699.14              438.50,693.88 420.00,685.31 404.00,674.65              324.61,621.72 294.55,517.81 334.31,431.00              355.21,385.37 393.89,347.93 441.00,330.06              452.94,325.54 468.39,321.22 481.00,319.27              481.00,319.27 497.00,317.21 497.00,317.21 Z            M 500.00,385.28            C 491.12,386.59 483.71,387.54 475.00,390.20              440.00,400.91 410.68,426.47 395.86,460.00              375.27,506.59 384.31,561.63 419.09,599.00              432.49,613.40 448.81,623.65 467.00,630.80              477.80,635.04 495.42,638.86 507.00,639.00              527.20,639.23 547.69,636.24 566.00,627.24              583.35,618.72 599.21,607.24 611.33,592.00              657.16,534.37 645.57,451.40 586.00,408.15              575.72,400.69 562.21,394.01 550.00,390.42              533.88,385.69 516.78,383.72 500.00,385.28 Z"/>
</svg>