<svg xmlns="http://www.w3.org/2000/svg" viewBox="-0.5 0.5 2561.31 995">
  <path id="intel" fill="#303030" stroke="none" stroke-width="1"
    d="M 2178.00,1.00            C 2178.00,1.00 2355.00,1.00 2355.00,1.00              2355.00,1.00 2355.00,981.00 2355.00,981.00              2355.00,981.00 2178.00,981.00 2178.00,981.00              2178.00,981.00 2178.00,1.00 2178.00,1.00 Z            M 0.00,15.00            C 0.00,15.00 186.00,15.00 186.00,15.00              186.00,15.00 186.00,201.00 186.00,201.00              186.00,201.00 0.00,201.00 0.00,201.00              0.00,201.00 0.00,15.00 0.00,15.00 Z            M 1043.00,53.00            C 1043.00,53.00 1220.00,53.00 1220.00,53.00              1220.00,53.00 1220.00,313.00 1220.00,313.00              1220.00,313.00 1347.00,313.00 1347.00,313.00              1347.00,313.00 1347.00,464.00 1347.00,464.00              1347.00,464.00 1220.00,464.00 1220.00,464.00              1220.00,464.00 1220.00,634.00 1220.00,634.00              1220.00,634.00 1220.00,719.00 1220.00,719.00              1220.00,719.00 1220.96,730.00 1220.96,730.00              1222.02,754.26 1224.06,781.62 1242.04,799.99              1255.47,813.71 1272.59,817.95 1291.00,820.15              1309.76,822.40 1328.11,823.00 1347.00,823.00              1347.00,823.00 1347.00,988.00 1347.00,988.00              1347.00,988.00 1319.00,988.00 1319.00,988.00              1319.00,988.00 1304.00,987.00 1304.00,987.00              1304.00,987.00 1287.00,987.00 1287.00,987.00              1287.00,987.00 1277.00,986.00 1277.00,986.00              1277.00,986.00 1268.00,986.00 1268.00,986.00              1268.00,986.00 1242.00,983.15 1242.00,983.15              1190.92,977.05 1135.84,961.49 1100.17,922.00              1061.66,879.37 1051.18,824.22 1045.83,769.00              1045.83,769.00 1044.00,742.00 1044.00,742.00              1044.00,742.00 1043.00,728.00 1043.00,728.00              1043.00,728.00 1043.00,503.00 1043.00,503.00              1043.00,503.00 1043.00,53.00 1043.00,53.00 Z            M 457.00,407.00            C 457.00,407.00 483.04,376.00 483.04,376.00              502.43,355.72 530.41,335.06 556.00,323.31              585.97,309.55 616.20,302.17 649.00,299.91              649.00,299.91 661.00,299.00 661.00,299.00              661.00,299.00 680.00,299.00 680.00,299.00              680.00,299.00 693.00,299.96 693.00,299.96              746.80,302.31 800.56,317.85 844.00,350.47              880.76,378.09 907.07,415.44 923.80,458.00              937.01,491.62 943.62,527.09 946.09,563.00              946.09,563.00 947.00,575.00 947.00,575.00              947.00,575.00 947.00,675.00 947.00,675.00              947.00,675.00 947.00,980.00 947.00,980.00              947.00,980.00 769.00,980.00 769.00,980.00              769.00,980.00 769.00,616.00 769.00,616.00              769.00,616.00 768.09,604.00 768.09,604.00              764.90,558.41 749.88,509.71 712.00,480.90              686.62,461.60 659.13,455.05 628.00,452.91              628.00,452.91 618.00,452.00 618.00,452.00              618.00,452.00 605.00,452.91 605.00,452.91              554.82,456.58 509.58,484.05 484.43,528.00              468.57,555.70 462.11,589.49 459.91,621.00              459.91,621.00 459.00,632.00 459.00,632.00              459.00,632.00 459.00,981.00 459.00,981.00              459.00,981.00 283.00,981.00 283.00,981.00              283.00,981.00 283.00,313.00 283.00,313.00              283.00,313.00 457.00,313.00 457.00,313.00              457.00,313.00 457.00,407.00 457.00,407.00 Z            M 1564.00,709.00            C 1574.59,741.37 1583.82,763.73 1608.28,788.83              1641.09,822.49 1683.08,836.88 1729.00,840.09              1729.00,840.09 1741.00,841.00 1741.00,841.00              1774.35,841.05 1800.69,837.04 1832.00,824.94              1853.98,816.44 1876.93,803.36 1895.00,788.25              1895.00,788.25 1910.91,774.00 1910.91,774.00              1912.98,771.82 1915.72,767.67 1919.01,767.82              1921.58,767.94 1925.91,771.56 1928.00,773.13              1928.00,773.13 1946.00,786.87 1946.00,786.87              1946.00,786.87 2017.00,840.87 2017.00,840.87              2017.00,840.87 2038.00,856.87 2038.00,856.87              2040.46,858.75 2045.16,861.36 2043.83,865.04              2043.09,867.09 2032.20,878.77 2030.00,881.00              2017.47,893.67 2004.05,905.47 1990.00,916.42              1944.15,952.16 1891.88,975.22 1835.00,986.60              1819.98,989.61 1792.93,993.82 1778.00,994.00              1778.00,994.00 1759.00,995.00 1759.00,995.00              1759.00,995.00 1738.00,995.00 1738.00,995.00              1738.00,995.00 1725.00,994.04 1725.00,994.04              1672.63,991.76 1621.61,977.79 1575.00,953.74              1546.78,939.18 1517.48,918.40 1495.04,895.96              1495.04,895.96 1487.91,888.00 1487.91,888.00              1446.75,843.75 1417.62,789.08 1404.58,730.00              1400.77,712.76 1398.14,695.60 1396.91,678.00              1396.91,678.00 1396.00,668.00 1396.00,668.00              1395.62,635.46 1395.58,612.41 1401.42,580.00              1412.46,518.80 1443.57,458.00 1485.17,412.00              1532.93,359.18 1601.20,320.76 1671.00,306.80              1685.61,303.88 1700.15,301.95 1715.00,300.91              1715.00,300.91 1725.00,300.00 1725.00,300.00              1759.19,299.60 1785.09,300.21 1819.00,306.61              1875.29,317.23 1931.04,344.48 1974.00,382.28              2031.30,432.71 2069.98,507.00 2082.57,582.00              2089.58,623.81 2088.00,666.72 2088.00,709.00              2088.00,709.00 1564.00,709.00 1564.00,709.00 Z            M 5.00,313.00            C 5.00,313.00 181.00,313.00 181.00,313.00              181.00,313.00 181.00,981.00 181.00,981.00              181.00,981.00 5.00,981.00 5.00,981.00              5.00,981.00 5.00,313.00 5.00,313.00 Z            M 1918.00,583.00            C 1917.20,546.31 1890.20,509.45 1862.00,488.13              1832.30,465.68 1798.79,454.67 1762.00,451.04              1762.00,451.04 1752.00,451.04 1752.00,451.04              1752.00,451.04 1743.00,450.01 1743.00,450.01              1743.00,450.01 1730.00,450.96 1730.00,450.96              1695.02,452.48 1660.50,461.55 1631.00,481.00              1597.89,502.84 1565.01,542.31 1565.00,584.00              1565.00,584.00 1771.00,584.00 1771.00,584.00              1771.00,584.00 1786.00,583.00 1786.00,583.00              1786.00,583.00 1918.00,583.00 1918.00,583.00 Z            M 2484.00,854.23            C 2488.65,853.82 2493.32,853.99 2498.00,854.23              2507.18,854.01 2514.68,855.87 2523.00,859.78              2566.46,880.21 2573.04,937.86 2537.00,968.70              2530.35,974.39 2524.25,977.61 2516.00,980.33              2510.24,982.23 2499.98,984.25 2494.00,983.91              2481.28,983.19 2468.46,979.33 2458.00,971.96              2430.36,952.48 2422.14,915.30 2438.87,886.00              2443.02,878.73 2449.39,871.79 2456.00,866.68              2464.80,859.86 2473.27,856.78 2484.00,854.23 Z            M 2486.00,866.30            C 2474.97,868.36 2465.32,872.25 2457.09,880.17              2437.07,899.45 2436.93,936.07 2456.09,955.96              2465.93,966.18 2479.11,970.74 2493.00,971.26              2511.67,971.95 2528.00,964.65 2538.78,949.00              2555.85,924.21 2547.98,886.35 2521.00,872.12              2509.92,866.28 2498.31,865.07 2486.00,866.30 Z            M 2469.00,881.00            C 2469.00,881.00 2501.00,881.00 2501.00,881.00              2507.12,881.03 2512.89,881.82 2517.96,885.64              2529.07,894.02 2529.93,921.67 2508.00,924.00              2508.00,924.00 2527.00,956.00 2527.00,956.00              2523.07,956.00 2513.63,956.88 2510.76,954.43              2508.46,952.46 2499.99,937.65 2497.80,934.00              2496.57,931.95 2494.62,928.27 2492.62,927.02              2490.52,925.70 2486.48,926.00 2484.00,926.00              2484.00,926.00 2484.00,956.00 2484.00,956.00              2484.00,956.00 2469.00,956.00 2469.00,956.00              2469.00,956.00 2469.00,881.00 2469.00,881.00 Z            M 2484.00,913.00            C 2489.54,913.00 2501.50,913.80 2505.94,911.07              2511.97,907.37 2512.44,897.75 2505.94,894.31              2502.14,892.30 2488.91,893.00 2484.00,893.00              2484.00,893.00 2484.00,913.00 2484.00,913.00 Z" />
</svg>