<svg xmlns="http://www.w3.org/2000/svg" viewBox="83.5 82.5 1433 1396">
  <path id="internet-archive-wordmark" fill="#303030" stroke="none" stroke-width="1"
    d="M 883.00,87.00            C 883.00,87.00 927.00,83.00 927.00,83.00              927.00,83.00 927.00,147.00 927.00,147.00              927.00,147.00 984.00,147.00 984.00,147.00              984.00,147.00 984.00,85.00 984.00,85.00              984.00,85.00 1007.00,85.00 1007.00,85.00              1007.00,85.00 1007.00,225.00 1007.00,225.00              1007.00,225.00 984.00,225.00 984.00,225.00              984.00,225.00 984.00,157.00 984.00,157.00              984.00,157.00 927.00,157.00 927.00,157.00              927.00,157.00 927.00,225.00 927.00,225.00              927.00,225.00 904.00,225.00 904.00,225.00              904.00,225.00 904.00,111.00 904.00,111.00              903.98,95.55 897.80,92.13 883.00,92.00              883.00,92.00 883.00,87.00 883.00,87.00 Z            M 811.00,206.00            C 811.00,206.00 811.00,212.00 811.00,212.00              811.00,214.06 811.26,217.62 810.01,219.30              807.65,222.49 794.16,225.22 790.00,225.92              771.39,229.05 743.77,227.90 729.00,214.82              722.11,208.71 716.81,199.75 714.03,191.00              711.42,182.80 709.10,166.62 709.00,158.00              708.74,135.30 711.26,106.91 732.00,93.10              749.08,81.74 775.63,82.96 795.00,86.61              795.00,86.61 809.00,90.00 809.00,90.00              809.00,90.00 810.00,110.00 810.00,110.00              810.00,110.00 810.00,125.00 810.00,125.00              800.92,124.24 805.90,119.94 797.47,109.00              788.59,97.47 774.43,90.65 760.00,95.36              745.76,100.00 739.79,111.30 736.37,125.00              734.36,133.10 734.46,136.04 733.91,144.00              733.91,144.00 733.03,153.00 733.03,153.00              733.03,153.00 733.83,161.00 733.83,161.00              735.43,177.51 738.52,196.25 752.01,207.67              764.68,218.40 782.17,217.60 797.00,212.30              797.00,212.30 811.00,206.00 811.00,206.00 Z            M 363.00,85.00            C 363.00,85.00 403.00,85.00 403.00,85.00              403.00,85.00 415.31,120.00 415.31,120.00              415.31,120.00 438.05,183.00 438.05,183.00              438.05,183.00 453.00,225.00 453.00,225.00              453.00,225.00 431.00,225.00 431.00,225.00              431.00,225.00 421.00,196.00 421.00,196.00              421.00,196.00 415.49,183.60 415.49,183.60              415.49,183.60 408.00,182.00 408.00,182.00              408.00,182.00 371.00,182.00 371.00,182.00              371.00,182.00 363.42,183.02 363.42,183.02              363.42,183.02 359.00,192.00 359.00,192.00              359.00,192.00 351.00,214.00 351.00,214.00              351.00,214.00 346.35,224.01 346.35,224.01              346.35,224.01 334.00,225.00 334.00,225.00              334.00,225.00 370.58,125.00 370.58,125.00              372.45,119.99 379.52,102.29 378.65,98.00              377.95,94.57 375.12,92.15 372.00,90.88              369.65,89.92 365.57,89.35 363.00,89.00              363.00,89.00 363.00,85.00 363.00,85.00 Z            M 520.00,85.00            C 520.00,85.00 580.00,85.00 580.00,85.00              591.72,85.02 607.36,87.85 617.00,94.79              631.94,105.53 634.11,130.91 622.47,144.91              616.87,151.64 606.60,155.58 598.00,156.00              598.00,156.00 606.70,172.00 606.70,172.00              606.70,172.00 636.00,225.00 636.00,225.00              636.00,225.00 620.00,225.00 620.00,225.00              618.12,225.00 614.89,225.12 613.21,224.40              609.59,222.85 603.81,210.85 601.70,207.00              601.70,207.00 582.85,174.00 582.85,174.00              580.88,170.56 577.18,162.84 573.90,161.02              571.31,159.59 565.11,160.00 562.00,160.00              562.00,160.00 562.00,225.00 562.00,225.00              562.00,225.00 539.00,225.00 539.00,225.00              539.00,225.00 539.00,107.00 539.00,107.00              538.98,91.92 533.11,91.47 520.00,89.00              520.00,89.00 520.00,85.00 520.00,85.00 Z            M 1216.00,85.00            C 1216.00,85.00 1249.00,85.00 1249.00,85.00              1249.00,85.00 1256.30,85.99 1256.30,85.99              1256.30,85.99 1260.05,94.00 1260.05,94.00              1260.05,94.00 1266.58,112.00 1266.58,112.00              1266.58,112.00 1286.31,167.00 1286.31,167.00              1286.31,167.00 1298.00,199.00 1298.00,199.00              1298.00,199.00 1308.69,169.00 1308.69,169.00              1308.69,169.00 1328.00,114.00 1328.00,114.00              1328.00,114.00 1335.00,94.00 1335.00,94.00              1335.00,94.00 1338.70,85.99 1338.70,85.99              1338.70,85.99 1351.00,85.00 1351.00,85.00              1351.00,85.00 1336.42,127.00 1336.42,127.00              1336.42,127.00 1312.19,194.00 1312.19,194.00              1312.19,194.00 1304.19,216.00 1304.19,216.00              1304.19,216.00 1300.30,224.01 1300.30,224.01              1300.30,224.01 1293.00,225.00 1293.00,225.00              1293.00,225.00 1282.00,225.00 1282.00,225.00              1282.00,225.00 1270.69,193.00 1270.69,193.00              1270.69,193.00 1247.00,127.00 1247.00,127.00              1244.13,118.57 1238.52,99.65 1231.96,94.42              1227.82,91.11 1221.13,89.97 1216.00,89.00              1216.00,89.00 1216.00,85.00 1216.00,85.00 Z            M 1413.00,85.00            C 1413.00,85.00 1489.00,85.00 1489.00,85.00              1489.00,85.00 1506.00,85.00 1506.00,85.00              1506.00,85.00 1511.83,86.57 1511.83,86.57              1511.83,86.57 1513.00,95.00 1513.00,95.00              1513.00,95.00 1513.00,115.00 1513.00,115.00              1505.19,114.38 1508.24,110.87 1505.43,105.00              1503.74,101.48 1500.52,98.27 1497.00,96.57              1492.46,94.38 1485.98,94.01 1481.00,94.00              1475.14,93.99 1462.79,92.92 1458.39,96.70              1455.24,99.41 1455.05,103.17 1455.00,107.00              1455.00,107.00 1455.00,146.81 1455.00,146.81              1455.00,146.81 1485.00,146.81 1485.00,146.81              1487.69,146.03 1490.68,144.53 1492.66,142.61              1495.83,139.55 1497.05,135.16 1498.00,131.00              1498.00,131.00 1503.00,131.00 1503.00,131.00              1503.00,131.00 1503.00,175.00 1503.00,175.00              1503.00,175.00 1498.00,175.00 1498.00,175.00              1497.33,161.39 1490.85,157.02 1478.00,157.00              1478.00,157.00 1455.00,157.00 1455.00,157.00              1455.00,157.00 1455.00,194.00 1455.00,194.00              1455.00,198.70 1454.43,206.86 1456.57,210.90              1459.02,215.53 1463.31,215.93 1468.00,216.00              1474.69,216.09 1493.64,216.71 1499.00,214.74              1502.09,213.60 1504.55,211.64 1506.49,208.98              1509.23,205.25 1510.15,199.51 1511.00,195.00              1511.00,195.00 1516.00,195.00 1516.00,195.00              1516.00,195.00 1516.00,225.00 1516.00,225.00              1516.00,225.00 1432.00,225.00 1432.00,225.00              1432.00,225.00 1432.00,107.00 1432.00,107.00              1431.98,91.92 1426.11,91.47 1413.00,89.00              1413.00,89.00 1413.00,85.00 1413.00,85.00 Z            M 1087.00,86.00            C 1087.00,86.00 1145.00,86.00 1145.00,86.00              1145.00,86.00 1145.00,91.00 1145.00,91.00              1132.31,91.29 1129.12,95.00 1127.84,107.00              1127.27,112.27 1127.01,112.28 1127.00,118.00              1127.00,118.00 1127.00,183.00 1127.00,183.00              1127.00,189.44 1126.85,207.87 1129.45,213.00              1132.87,219.71 1138.47,219.81 1145.00,221.00              1145.00,221.00 1145.00,225.00 1145.00,225.00              1145.00,225.00 1087.00,225.00 1087.00,225.00              1087.00,225.00 1087.00,221.00 1087.00,221.00              1093.07,219.91 1099.16,220.07 1102.56,213.96              1106.14,207.53 1105.00,190.85 1105.00,183.00              1105.00,183.00 1105.00,112.00 1105.00,112.00              1104.98,97.87 1102.48,91.34 1087.00,91.00              1087.00,91.00 1087.00,86.00 1087.00,86.00 Z            M 562.00,151.00            C 562.00,151.00 573.00,151.00 573.00,151.00              578.88,150.97 586.59,150.00 592.00,147.66              613.96,138.19 609.51,106.46 595.99,98.53              589.42,94.68 570.41,91.06 564.70,97.43              561.83,100.63 562.01,105.98 562.00,110.00              562.00,110.00 562.00,151.00 562.00,151.00 Z            M 84.00,104.00            C 84.00,104.00 114.00,104.00 114.00,104.00              114.00,104.00 114.00,109.00 114.00,109.00              110.94,109.07 108.98,109.11 106.00,110.06              90.17,115.10 93.00,132.91 93.00,146.00              93.00,146.00 224.00,146.00 224.00,146.00              224.00,146.00 224.00,169.00 224.00,169.00              224.00,169.00 93.00,169.00 93.00,169.00              93.00,181.66 89.85,199.54 105.00,204.75              107.76,205.70 110.13,205.87 113.00,206.00              113.00,206.00 113.00,212.00 113.00,212.00              113.00,212.00 84.00,211.00 84.00,211.00              84.00,211.00 84.00,104.00 84.00,104.00 Z            M 389.00,112.00            C 389.00,112.00 381.19,130.00 381.19,130.00              381.19,130.00 366.00,172.00 366.00,172.00              366.00,172.00 412.00,172.00 412.00,172.00              412.00,172.00 402.60,146.00 402.60,146.00              402.60,146.00 389.00,112.00 389.00,112.00 Z            M 194.00,290.00            C 194.00,290.00 224.00,290.00 224.00,290.00              224.00,290.00 224.00,373.00 224.00,373.00              224.00,373.00 115.00,373.00 115.00,373.00              108.90,373.08 96.43,373.42 92.43,378.13              89.52,381.55 88.60,388.59 88.00,393.00              88.00,393.00 84.00,393.00 84.00,393.00              84.00,393.00 84.00,293.00 84.00,293.00              84.00,293.00 114.00,293.00 114.00,293.00              114.00,293.00 114.00,298.00 114.00,298.00              98.45,300.93 93.08,305.37 93.00,322.00              93.00,322.00 93.00,337.00 93.00,337.00              93.05,347.25 95.21,350.87 106.00,351.00              106.00,351.00 146.00,351.00 146.00,351.00              146.00,343.65 146.96,323.78 144.35,318.00              139.23,306.68 130.78,312.85 130.00,303.00              130.00,303.00 173.00,303.00 173.00,303.00              173.00,303.00 173.00,308.00 173.00,308.00              159.16,309.16 155.15,317.07 155.00,330.00              154.96,333.94 154.05,346.86 156.60,349.40              158.39,351.19 161.65,350.98 164.00,351.00              164.00,351.00 199.00,351.00 199.00,351.00              203.56,350.99 208.23,351.28 211.70,347.72              215.19,344.15 214.99,338.63 215.00,334.00              215.01,325.58 216.29,309.81 211.35,303.04              207.13,297.27 200.54,296.23 194.00,295.00              194.00,295.00 194.00,290.00 194.00,290.00 Z            M 426.00,439.00            C 426.00,439.00 460.00,431.42 460.00,431.42              460.00,431.42 540.00,412.65 540.00,412.65              540.00,412.65 782.00,356.12 782.00,356.12              782.00,356.12 874.00,334.58 874.00,334.58              874.00,334.58 904.00,327.58 904.00,327.58              904.00,327.58 917.00,325.08 917.00,325.08              917.00,325.08 957.00,333.58 957.00,333.58              957.00,333.58 1038.00,351.58 1038.00,351.58              1038.00,351.58 1284.00,406.42 1284.00,406.42              1284.00,406.42 1361.00,423.65 1361.00,423.65              1361.00,423.65 1405.00,433.00 1405.00,433.00              1405.00,433.00 1389.32,459.00 1389.32,459.00              1389.32,459.00 1381.82,468.98 1381.82,468.98              1381.82,468.98 1374.00,470.00 1374.00,470.00              1374.00,470.00 1191.00,470.00 1191.00,470.00              1191.00,470.00 625.00,470.00 625.00,470.00              625.00,470.00 464.00,470.00 464.00,470.00              464.00,470.00 457.00,469.40 457.00,469.40              457.00,469.40 442.00,456.00 442.00,456.00              442.00,456.00 426.00,439.00 426.00,439.00 Z            M 84.00,477.00            C 84.00,477.00 224.00,477.00 224.00,477.00              224.00,477.00 224.00,489.00 224.00,489.00              224.00,489.00 222.98,496.67 222.98,496.67              222.98,496.67 214.00,503.01 214.00,503.01              214.00,503.01 195.00,514.01 195.00,514.01              195.00,514.01 139.00,546.58 139.00,546.58              139.00,546.58 105.00,567.00 105.00,567.00              105.00,567.00 224.00,567.00 224.00,567.00              224.00,567.00 224.00,579.00 224.00,579.00              224.00,579.00 139.00,579.00 139.00,579.00              130.74,579.00 104.38,578.42 98.00,580.89              90.63,583.74 88.98,593.06 88.00,600.00              88.00,600.00 84.00,600.00 84.00,600.00              84.00,600.00 84.00,564.00 84.00,564.00              84.00,564.00 85.02,556.38 85.02,556.38              85.02,556.38 94.00,550.15 94.00,550.15              94.00,550.15 112.00,539.72 112.00,539.72              112.00,539.72 170.00,506.01 170.00,506.01              170.00,506.01 197.00,490.00 197.00,490.00              197.00,490.00 84.00,490.00 84.00,490.00              84.00,490.00 84.00,477.00 84.00,477.00 Z            M 450.00,498.00            C 450.00,498.00 1381.00,498.00 1381.00,498.00              1381.00,498.00 1381.00,599.00 1381.00,599.00              1381.00,599.00 450.00,599.00 450.00,599.00              450.00,599.00 450.00,498.00 450.00,498.00 Z            M 477.00,624.00            C 477.00,624.00 497.00,620.44 497.00,620.44              497.00,620.44 518.00,619.00 518.00,619.00              518.00,619.00 540.00,620.10 540.00,620.10              540.00,620.10 548.00,620.10 548.00,620.10              548.00,620.10 569.00,624.00 569.00,624.00              569.00,624.00 569.96,635.00 569.96,635.00              569.96,635.00 569.96,643.00 569.96,643.00              569.96,643.00 571.00,662.00 571.00,662.00              571.00,662.00 572.00,678.00 572.00,678.00              572.00,678.00 573.00,693.00 573.00,693.00              573.00,693.00 574.00,721.00 574.00,721.00              574.00,721.00 575.00,736.00 575.00,736.00              575.00,736.00 576.00,768.00 576.00,768.00              576.00,768.00 577.00,785.00 577.00,785.00              577.00,785.00 578.00,833.00 578.00,833.00              578.00,833.00 579.00,850.00 579.00,850.00              579.00,850.00 579.00,886.00 579.00,886.00              579.00,886.00 580.00,901.00 580.00,901.00              580.00,901.00 580.00,1037.00 580.00,1037.00              580.00,1037.00 579.00,1052.00 579.00,1052.00              579.00,1052.00 579.00,1078.00 579.00,1078.00              579.00,1078.00 578.00,1095.00 578.00,1095.00              578.00,1095.00 577.00,1139.00 577.00,1139.00              577.00,1139.00 576.00,1156.00 576.00,1156.00              576.00,1156.00 575.00,1186.00 575.00,1186.00              575.00,1186.00 574.00,1200.00 574.00,1200.00              574.00,1200.00 573.00,1218.00 573.00,1218.00              573.00,1218.00 572.09,1233.00 572.09,1233.00              572.09,1233.00 569.91,1270.00 569.91,1270.00              569.91,1270.00 569.00,1283.00 569.00,1283.00              569.00,1283.00 552.00,1286.55 552.00,1286.55              552.00,1286.55 526.00,1289.00 526.00,1289.00              526.00,1289.00 496.00,1286.54 496.00,1286.54              496.00,1286.54 477.00,1283.00 477.00,1283.00              477.00,1283.00 474.00,1240.00 474.00,1240.00              474.00,1240.00 474.00,1231.00 474.00,1231.00              474.00,1231.00 473.00,1218.00 473.00,1218.00              473.00,1218.00 471.00,1187.00 471.00,1187.00              471.00,1187.00 470.00,1159.00 470.00,1159.00              470.00,1159.00 469.00,1143.00 469.00,1143.00              469.00,1143.00 468.00,1104.00 468.00,1104.00              468.00,1104.00 467.00,1087.00 467.00,1087.00              467.00,1087.00 467.00,1065.00 467.00,1065.00              467.00,1065.00 466.00,1048.00 466.00,1048.00              466.00,1048.00 466.00,1010.00 466.00,1010.00              466.00,1010.00 465.00,993.00 465.00,993.00              465.00,993.00 465.00,932.00 465.00,932.00              465.00,932.00 466.00,917.00 466.00,917.00              466.00,917.00 466.00,875.00 466.00,875.00              466.00,875.00 467.00,860.00 467.00,860.00              467.00,860.00 467.00,837.00 467.00,837.00              467.00,837.00 468.00,820.00 468.00,820.00              468.00,820.00 468.00,805.00 468.00,805.00              468.00,805.00 469.00,789.00 469.00,789.00              469.00,789.00 470.00,754.00 470.00,754.00              470.00,754.00 471.00,739.00 471.00,739.00              471.00,739.00 472.00,711.00 472.00,711.00              472.00,711.00 473.00,696.00 473.00,696.00              473.00,696.00 474.00,679.00 474.00,679.00              474.00,679.00 476.00,641.00 476.00,641.00              476.00,641.00 477.00,624.00 477.00,624.00 Z            M 775.00,619.42            C 784.51,618.27 804.47,620.96 814.00,623.37              816.64,624.04 824.46,625.73 826.01,627.72              827.29,629.38 826.95,632.95 827.04,635.00              827.04,635.00 828.00,648.00 828.00,648.00              828.00,648.00 830.00,702.00 830.00,702.00              830.00,702.00 831.04,718.00 831.04,718.00              831.04,718.00 831.04,730.00 831.04,730.00              831.04,730.00 832.00,742.00 832.00,742.00              832.00,742.00 833.00,777.00 833.00,777.00              833.00,777.00 834.00,794.00 834.00,794.00              834.00,794.00 834.00,839.00 834.00,839.00              834.00,839.00 835.00,856.00 835.00,856.00              835.00,856.00 835.00,901.00 835.00,901.00              835.00,901.00 836.00,918.00 836.00,918.00              836.00,918.00 836.00,983.00 836.00,983.00              836.00,983.00 835.00,1000.00 835.00,1000.00              835.00,1000.00 835.00,1033.00 835.00,1033.00              835.00,1033.00 834.00,1050.00 834.00,1050.00              834.00,1050.00 834.00,1086.00 834.00,1086.00              834.00,1086.00 833.00,1102.00 833.00,1102.00              833.00,1102.00 833.00,1119.00 833.00,1119.00              833.00,1119.00 832.00,1135.00 832.00,1135.00              832.00,1135.00 832.00,1150.00 832.00,1150.00              832.00,1150.00 831.00,1166.00 831.00,1166.00              831.00,1166.00 831.00,1181.00 831.00,1181.00              831.00,1181.00 830.04,1193.00 830.04,1193.00              830.04,1193.00 830.04,1205.00 830.04,1205.00              830.04,1205.00 829.00,1222.00 829.00,1222.00              829.00,1222.00 827.00,1275.00 827.00,1275.00              827.00,1277.95 827.32,1282.14 825.26,1284.49              823.15,1286.90 816.21,1288.04 813.00,1288.88              802.92,1291.53 789.42,1293.11 779.00,1293.00              769.91,1292.89 756.84,1291.09 748.00,1288.87              745.51,1288.25 738.29,1286.62 736.60,1285.07              734.01,1282.70 734.04,1268.84 734.00,1265.00              734.00,1265.00 733.00,1251.00 733.00,1251.00              733.00,1251.00 731.00,1211.00 731.00,1211.00              731.00,1211.00 730.00,1196.00 730.00,1196.00              730.00,1196.00 729.00,1176.00 729.00,1176.00              729.00,1176.00 729.00,1162.00 729.00,1162.00              729.00,1162.00 728.00,1147.00 728.00,1147.00              728.00,1147.00 727.00,1110.00 727.00,1110.00              727.00,1110.00 726.00,1095.00 726.00,1095.00              726.00,1095.00 726.00,1076.00 726.00,1076.00              726.00,1076.00 725.00,1059.00 725.00,1059.00              725.00,1059.00 725.00,1022.00 725.00,1022.00              725.00,1022.00 724.00,1005.00 724.00,1005.00              724.00,1005.00 724.00,875.00 724.00,875.00              724.00,875.00 725.00,860.00 725.00,860.00              725.00,860.00 725.00,834.00 725.00,834.00              725.00,834.00 726.00,817.00 726.00,817.00              726.00,817.00 726.00,799.00 726.00,799.00              726.00,799.00 726.96,787.00 726.96,787.00              726.96,787.00 726.96,773.00 726.96,773.00              726.96,773.00 728.00,757.00 728.00,757.00              728.00,757.00 730.00,704.00 730.00,704.00              730.00,704.00 731.00,690.00 731.00,690.00              731.00,690.00 732.00,673.00 732.00,673.00              732.00,673.00 734.00,637.00 734.00,637.00              734.02,634.13 733.85,629.84 735.85,627.56              737.68,625.49 743.26,624.59 746.00,623.85              760.47,619.93 761.91,621.28 775.00,619.42 Z            M 1067.00,619.42            C 1076.63,618.25 1096.49,620.93 1106.00,623.58              1108.72,624.33 1116.44,625.70 1118.01,627.72              1119.56,629.72 1118.97,638.18 1119.00,641.00              1119.00,641.00 1120.00,655.00 1120.00,655.00              1120.00,655.00 1121.00,688.00 1121.00,688.00              1121.00,688.00 1122.00,701.00 1122.00,701.00              1122.00,701.00 1123.00,733.00 1123.00,733.00              1123.00,733.00 1123.96,745.00 1123.96,745.00              1123.96,745.00 1123.96,757.00 1123.96,757.00              1123.96,757.00 1125.00,773.00 1125.00,773.00              1125.00,773.00 1125.00,797.00 1125.00,797.00              1125.00,797.00 1126.00,814.00 1126.00,814.00              1126.00,814.00 1126.00,860.00 1126.00,860.00              1126.00,860.00 1127.00,877.00 1127.00,877.00              1127.00,877.00 1127.00,1017.00 1127.00,1017.00              1127.00,1017.00 1126.00,1032.00 1126.00,1032.00              1126.00,1032.00 1126.00,1069.00 1126.00,1069.00              1126.00,1069.00 1125.00,1084.00 1125.00,1084.00              1125.00,1084.00 1125.00,1107.00 1125.00,1107.00              1125.00,1107.00 1124.00,1122.00 1124.00,1122.00              1124.00,1122.00 1124.00,1140.00 1124.00,1140.00              1124.00,1140.00 1123.00,1156.00 1123.00,1156.00              1123.00,1156.00 1123.00,1171.00 1123.00,1171.00              1123.00,1171.00 1122.00,1187.00 1122.00,1187.00              1122.00,1187.00 1121.00,1222.00 1121.00,1222.00              1121.00,1222.00 1120.00,1236.00 1120.00,1236.00              1120.00,1236.00 1119.00,1269.00 1119.00,1269.00              1118.97,1271.49 1118.14,1282.86 1116.98,1284.44              1115.35,1286.66 1107.79,1288.17 1105.00,1288.87              1095.29,1291.31 1080.98,1293.11 1071.00,1293.00              1060.28,1292.87 1049.36,1291.29 1039.00,1288.63              1035.95,1287.85 1029.85,1286.86 1027.85,1284.49              1025.61,1281.83 1026.01,1276.34 1026.00,1273.00              1026.00,1273.00 1025.00,1254.00 1025.00,1254.00              1025.00,1254.00 1024.00,1239.00 1024.00,1239.00              1024.00,1239.00 1022.00,1199.00 1022.00,1199.00              1022.00,1199.00 1020.96,1183.00 1020.96,1183.00              1020.96,1183.00 1020.96,1168.00 1020.96,1168.00              1020.96,1168.00 1019.96,1156.00 1019.96,1156.00              1019.96,1156.00 1019.96,1141.00 1019.96,1141.00              1019.96,1141.00 1019.00,1129.00 1019.00,1129.00              1019.00,1129.00 1018.00,1088.00 1018.00,1088.00              1018.00,1088.00 1017.00,1071.00 1017.00,1071.00              1017.00,1071.00 1017.00,1047.00 1017.00,1047.00              1017.00,1047.00 1016.00,1030.00 1016.00,1030.00              1016.00,1030.00 1016.00,988.00 1016.00,988.00              1016.00,988.00 1015.00,971.00 1015.00,971.00              1015.00,971.00 1015.00,930.00 1015.00,930.00              1015.00,930.00 1016.00,913.00 1016.00,913.00              1016.00,913.00 1016.00,857.00 1016.00,857.00              1016.00,857.00 1017.00,840.00 1017.00,840.00              1017.00,840.00 1018.00,788.00 1018.00,788.00              1018.00,788.00 1018.96,776.00 1018.96,776.00              1018.96,776.00 1018.96,764.00 1018.96,764.00              1018.96,764.00 1020.00,748.00 1020.00,748.00              1020.00,748.00 1021.00,719.00 1021.00,719.00              1021.00,719.00 1022.00,703.00 1022.00,703.00              1022.00,703.00 1023.00,685.00 1023.00,685.00              1023.00,685.00 1025.00,647.00 1025.00,647.00              1025.00,647.00 1026.00,633.00 1026.00,633.00              1026.05,630.94 1025.85,628.62 1027.57,627.14              1029.07,625.85 1035.80,624.19 1038.00,623.63              1044.89,621.86 1049.88,620.85 1057.00,620.17              1057.00,620.17 1067.00,619.42 1067.00,619.42 Z            M 1274.00,624.00            C 1274.00,624.00 1290.00,621.25 1290.00,621.25              1290.00,621.25 1315.00,619.00 1315.00,619.00              1315.00,619.00 1337.00,620.10 1337.00,620.10              1337.00,620.10 1345.00,620.10 1345.00,620.10              1345.00,620.10 1366.00,624.00 1366.00,624.00              1366.00,624.00 1367.00,638.00 1367.00,638.00              1367.00,638.00 1368.00,658.00 1368.00,658.00              1368.00,658.00 1369.00,671.00 1369.00,671.00              1369.00,671.00 1370.00,693.00 1370.00,693.00              1370.00,693.00 1371.00,709.00 1371.00,709.00              1371.00,709.00 1372.00,741.00 1372.00,741.00              1372.00,741.00 1373.04,755.00 1373.04,755.00              1373.04,755.00 1373.04,768.00 1373.04,768.00              1373.04,768.00 1374.00,780.00 1374.00,780.00              1374.00,780.00 1375.00,826.00 1375.00,826.00              1375.00,826.00 1376.00,843.00 1376.00,843.00              1376.00,843.00 1376.00,871.00 1376.00,871.00              1376.00,871.00 1377.00,888.00 1377.00,888.00              1377.00,888.00 1377.00,955.00 1377.00,955.00              1377.00,955.00 1378.00,970.00 1378.00,970.00              1378.00,970.00 1378.00,986.00 1378.00,986.00              1378.00,986.00 1377.00,1002.00 1377.00,1002.00              1377.00,1002.00 1377.00,1046.00 1377.00,1046.00              1377.00,1046.00 1376.00,1062.00 1376.00,1062.00              1376.00,1062.00 1376.00,1086.00 1376.00,1086.00              1376.00,1086.00 1375.00,1102.00 1375.00,1102.00              1375.00,1102.00 1375.00,1118.00 1375.00,1118.00              1375.00,1118.00 1374.00,1133.00 1374.00,1133.00              1374.00,1133.00 1372.00,1191.00 1372.00,1191.00              1372.00,1191.00 1370.00,1223.00 1370.00,1223.00              1370.00,1223.00 1368.91,1245.00 1368.91,1245.00              1368.91,1245.00 1366.91,1273.00 1366.91,1273.00              1366.91,1273.00 1366.00,1283.00 1366.00,1283.00              1366.00,1283.00 1342.00,1287.90 1342.00,1287.90              1342.00,1287.90 1333.00,1287.90 1333.00,1287.90              1333.00,1287.90 1323.00,1289.00 1323.00,1289.00              1323.00,1289.00 1297.00,1287.08 1297.00,1287.08              1297.00,1287.08 1281.00,1284.00 1281.00,1284.00              1281.00,1284.00 1275.02,1281.44 1275.02,1281.44              1275.02,1281.44 1273.99,1274.00 1273.99,1274.00              1273.99,1274.00 1273.00,1261.00 1273.00,1261.00              1273.00,1261.00 1272.09,1251.00 1272.09,1251.00              1272.09,1251.00 1270.91,1228.00 1270.91,1228.00              1270.91,1228.00 1270.00,1214.00 1270.00,1214.00              1270.00,1214.00 1269.00,1198.00 1269.00,1198.00              1269.00,1198.00 1268.00,1183.00 1268.00,1183.00              1268.00,1183.00 1267.00,1153.00 1267.00,1153.00              1267.00,1153.00 1266.00,1140.00 1266.00,1140.00              1266.00,1140.00 1266.00,1126.00 1266.00,1126.00              1266.00,1126.00 1265.00,1110.00 1265.00,1110.00              1265.00,1110.00 1265.00,1095.00 1265.00,1095.00              1265.00,1095.00 1264.00,1079.00 1264.00,1079.00              1264.00,1079.00 1264.00,1055.00 1264.00,1055.00              1264.00,1055.00 1263.00,1038.00 1263.00,1038.00              1263.00,1038.00 1263.00,886.00 1263.00,886.00              1263.00,886.00 1264.00,871.00 1264.00,871.00              1264.00,871.00 1264.00,844.00 1264.00,844.00              1264.00,844.00 1265.00,827.00 1265.00,827.00              1265.00,827.00 1266.00,783.00 1266.00,783.00              1266.00,783.00 1267.00,766.00 1267.00,766.00              1267.00,766.00 1268.00,738.00 1268.00,738.00              1268.00,738.00 1269.04,724.00 1269.04,724.00              1269.04,724.00 1269.04,712.00 1269.04,712.00              1269.04,712.00 1270.00,700.00 1270.00,700.00              1270.00,700.00 1271.00,679.00 1271.00,679.00              1271.00,679.00 1272.00,665.00 1272.00,665.00              1272.00,665.00 1274.00,624.00 1274.00,624.00 Z            M 223.00,671.00            C 224.67,675.20 224.03,683.25 224.00,688.00              223.94,696.22 223.12,695.50 212.00,701.85              212.00,701.85 178.00,721.23 178.00,721.23              174.18,723.31 161.10,729.75 159.60,733.21              158.88,734.88 159.00,738.13 159.00,740.00              159.00,740.00 159.00,745.00 159.00,745.00              159.00,745.00 224.00,745.00 224.00,745.00              224.00,745.00 224.00,768.00 224.00,768.00              224.00,768.00 106.00,768.00 106.00,768.00              91.13,768.02 89.11,774.40 88.00,788.00              88.00,788.00 84.00,788.00 84.00,788.00              84.00,788.00 84.00,734.00 84.00,734.00              84.00,720.17 84.05,705.15 91.71,693.00              94.65,688.34 98.17,684.29 103.00,681.53              112.98,675.83 131.53,675.88 141.00,682.64              149.91,688.98 153.53,698.55 155.00,709.00              155.00,709.00 223.00,671.00 223.00,671.00 Z            M 150.00,745.00            C 150.00,738.52 149.65,727.15 148.33,721.00              147.28,716.06 145.18,710.90 141.67,707.18              130.98,695.84 104.31,697.79 96.82,712.00              93.43,718.43 90.00,737.07 96.28,742.30              99.69,745.14 104.83,744.99 109.00,745.00              109.00,745.00 150.00,745.00 150.00,745.00 Z            M 194.00,864.00            C 194.00,864.00 224.00,864.00 224.00,864.00              224.00,864.00 224.00,948.00 224.00,948.00              224.00,948.00 106.00,948.00 106.00,948.00              91.38,948.02 89.79,953.75 88.00,967.00              88.00,967.00 84.00,967.00 84.00,967.00              84.00,967.00 84.00,868.00 84.00,868.00              84.00,868.00 114.00,867.00 114.00,867.00              113.34,874.92 110.40,871.74 104.00,874.53              99.80,876.36 97.27,878.85 95.35,883.00              93.48,887.07 93.06,890.60 93.00,895.00              92.94,900.64 92.00,916.70 94.85,920.87              97.53,924.78 101.73,924.94 106.00,925.00              106.00,925.00 146.00,925.00 146.00,925.00              146.00,917.65 146.96,897.78 144.35,892.00              139.23,880.68 130.78,886.85 130.00,877.00              130.00,877.00 173.00,877.00 173.00,877.00              173.00,877.00 173.00,882.00 173.00,882.00              159.20,883.24 155.15,891.12 155.00,904.00              155.00,904.00 155.00,925.00 155.00,925.00              155.00,925.00 200.00,925.00 200.00,925.00              204.30,924.99 209.22,925.27 212.28,921.61              216.16,916.96 215.07,898.54 215.00,892.00              214.92,885.10 213.89,878.04 207.96,873.65              199.77,867.58 194.73,873.13 194.00,864.00 Z            M 84.00,1034.00            C 84.00,1034.00 114.00,1033.00 114.00,1033.00              114.00,1033.00 114.00,1039.00 114.00,1039.00              111.12,1039.03 108.83,1038.97 106.00,1039.79              90.17,1044.36 93.00,1063.22 93.00,1076.00              93.00,1076.00 224.00,1076.00 224.00,1076.00              224.00,1076.00 224.00,1099.00 224.00,1099.00              224.00,1099.00 93.00,1099.00 93.00,1099.00              93.00,1111.72 90.15,1128.77 105.00,1134.44              107.60,1135.43 110.25,1135.77 113.00,1136.00              113.00,1136.00 113.00,1141.00 113.00,1141.00              113.00,1141.00 84.00,1141.00 84.00,1141.00              84.00,1141.00 84.00,1034.00 84.00,1034.00 Z            M 84.00,1227.00            C 84.00,1227.00 224.00,1227.00 224.00,1227.00              224.00,1227.00 224.00,1239.00 224.00,1239.00              224.00,1239.00 222.98,1246.62 222.98,1246.62              222.98,1246.62 215.00,1252.40 215.00,1252.40              215.00,1252.40 195.00,1263.99 195.00,1263.99              195.00,1263.99 137.00,1297.58 137.00,1297.58              137.00,1297.58 105.00,1317.00 105.00,1317.00              105.00,1317.00 224.00,1317.00 224.00,1317.00              224.00,1317.00 224.00,1329.00 224.00,1329.00              224.00,1329.00 113.00,1329.00 113.00,1329.00              106.74,1329.01 97.77,1329.23 93.27,1334.13              89.72,1338.00 88.68,1344.93 88.00,1350.00              88.00,1350.00 84.00,1350.00 84.00,1350.00              84.00,1350.00 84.00,1314.00 84.00,1314.00              84.00,1314.00 85.02,1306.33 85.02,1306.33              85.02,1306.33 93.00,1300.58 93.00,1300.58              93.00,1300.58 111.00,1290.15 111.00,1290.15              111.00,1290.15 164.00,1259.42 164.00,1259.42              164.00,1259.42 197.00,1240.00 197.00,1240.00              197.00,1240.00 84.00,1240.00 84.00,1240.00              84.00,1240.00 84.00,1227.00 84.00,1227.00 Z            M 457.00,1320.00            C 457.00,1320.00 1395.00,1320.00 1395.00,1320.00              1395.00,1320.00 1395.00,1390.00 1395.00,1390.00              1395.00,1390.00 457.00,1390.00 457.00,1390.00              457.00,1390.00 457.00,1320.00 457.00,1320.00 Z            M 416.00,1418.00            C 416.00,1418.00 1433.00,1418.00 1433.00,1418.00              1433.00,1418.00 1433.00,1470.00 1433.00,1470.00              1433.00,1470.00 416.00,1470.00 416.00,1470.00              416.00,1470.00 416.00,1418.00 416.00,1418.00 Z            M 85.00,1420.00            C 85.00,1420.00 90.00,1420.00 90.00,1420.00              90.11,1431.81 93.64,1436.85 106.00,1437.00              106.00,1437.00 201.00,1437.00 201.00,1437.00              214.16,1436.98 218.87,1433.67 219.00,1420.00              219.00,1420.00 224.00,1420.00 224.00,1420.00              224.00,1420.00 224.00,1478.00 224.00,1478.00              224.00,1478.00 219.00,1478.00 219.00,1478.00              218.96,1463.50 214.26,1460.02 200.00,1460.00              200.00,1460.00 107.00,1460.00 107.00,1460.00              93.51,1460.17 90.04,1465.31 90.00,1478.00              90.00,1478.00 85.00,1478.00 85.00,1478.00              85.00,1478.00 85.00,1420.00 85.00,1420.00 Z" />
</svg>