<svg xmlns="http://www.w3.org/2000/svg" viewBox="-0.5 0.5 768 768">
  <path id="javascript" fill="#303030" stroke="none" stroke-width="1"
    d="M 0.00,1.00            C 0.00,1.00 767.00,1.00 767.00,1.00              767.00,1.00 767.00,768.00 767.00,768.00              767.00,768.00 0.00,768.00 0.00,768.00              0.00,768.00 0.00,1.00 0.00,1.00 Z            M 686.00,407.00            C 683.57,399.30 677.04,391.21 671.92,385.00              648.22,356.26 615.85,347.58 580.00,348.00              552.68,348.32 523.87,357.80 504.04,377.09              486.41,394.24 477.34,419.69 477.34,444.00              477.34,444.00 478.04,450.00 478.04,450.00              478.04,450.00 478.04,458.00 478.04,458.00              479.90,476.09 486.90,494.90 498.46,509.00              513.85,527.77 537.89,541.52 560.00,551.00              560.00,551.00 606.00,571.75 606.00,571.75              622.17,579.86 634.43,589.51 633.99,609.00              633.41,634.11 604.90,643.23 584.00,643.00              564.94,642.78 546.75,635.00 533.01,621.91              528.93,618.02 524.03,611.67 520.72,607.00              519.32,605.02 517.29,601.42 514.82,600.81              511.37,599.96 502.25,606.28 499.00,608.15              499.00,608.15 456.00,633.00 456.00,633.00              458.19,640.49 464.40,648.78 469.13,655.00              484.69,675.47 505.01,689.28 529.00,698.05              541.30,702.54 552.07,704.61 565.00,706.15              565.00,706.15 589.00,707.96 589.00,707.96              589.00,707.96 597.00,707.09 597.00,707.09              597.00,707.09 620.00,704.74 620.00,704.74              649.23,699.30 678.77,684.52 694.13,658.00              705.79,637.85 707.26,621.60 707.00,599.00              706.93,593.16 705.48,583.74 704.12,578.00              693.12,531.67 652.32,510.64 612.00,493.28              596.96,486.81 577.05,479.39 564.00,469.84              555.07,463.31 548.23,452.50 549.19,441.00              551.44,413.74 582.42,405.89 604.00,416.12              615.42,421.53 622.33,431.80 629.00,442.00              629.00,442.00 648.00,431.05 648.00,431.05              648.00,431.05 686.00,407.00 686.00,407.00 Z            M 201.00,641.00            C 213.93,671.02 239.59,693.61 271.00,702.57              281.70,705.63 291.12,706.13 302.00,707.17              302.00,707.17 310.00,707.97 310.00,707.97              310.00,707.97 320.00,707.04 320.00,707.04              347.64,705.79 375.22,696.59 393.70,675.00              408.26,657.99 414.74,636.94 416.96,615.00              416.96,615.00 416.96,606.00 416.96,606.00              416.96,606.00 418.00,596.00 418.00,596.00              418.00,596.00 418.00,430.00 418.00,430.00              418.00,430.00 418.00,371.00 418.00,371.00              418.00,367.52 418.92,355.01 416.40,353.02              414.81,351.77 410.99,352.00 409.00,352.00              409.00,352.00 345.00,352.00 345.00,352.00              345.00,352.00 345.00,515.00 345.00,515.00              345.00,515.00 345.00,597.00 345.00,597.00              344.79,614.51 340.87,634.07 322.00,640.25              315.59,642.36 310.61,642.07 304.00,642.00              289.89,641.83 278.98,633.11 271.04,622.00              269.11,619.30 262.73,608.14 260.62,607.15              257.34,605.62 248.07,612.36 245.00,614.20              245.00,614.20 201.00,641.00 201.00,641.00 Z" />
</svg>