<svg xmlns="http://www.w3.org/2000/svg" viewBox="-0.5 -0.5 981 771">
  <path id="Selection" fill="#303030" stroke="none" stroke-width="1" d="M 523.00,586.00            C 529.66,587.90 540.20,594.01 547.00,597.22              547.00,597.22 581.00,610.95 581.00,610.95              628.43,628.28 694.39,638.72 744.00,627.35              772.32,620.86 799.64,604.61 809.91,576.00              813.55,565.87 814.12,556.60 814.00,546.00              813.70,521.04 798.32,501.38 779.00,487.16              747.96,464.30 707.61,451.86 672.00,437.60              594.66,406.64 518.60,357.22 496.15,272.00              493.71,262.72 492.08,252.55 491.04,243.00              491.04,243.00 491.04,234.00 491.04,234.00              491.04,234.00 490.00,224.00 490.00,224.00              490.00,224.00 490.91,211.00 490.91,211.00              491.97,195.59 493.71,180.94 498.00,166.00              502.77,149.38 509.10,133.94 517.86,119.00              554.27,56.92 616.66,23.57 685.00,8.58              698.58,5.60 727.50,1.16 741.00,0.96              741.00,0.96 753.00,0.96 753.00,0.96              753.00,0.96 763.00,0.00 763.00,0.00              763.00,0.00 798.00,1.00 798.00,1.00              798.00,1.00 808.00,1.91 808.00,1.91              841.85,4.24 873.30,9.25 906.00,18.58              906.00,18.58 939.00,29.80 939.00,29.80              941.62,30.85 948.58,33.09 949.89,35.41              951.31,37.94 949.16,43.37 948.34,46.00              948.34,46.00 940.98,71.00 940.98,71.00              940.98,71.00 910.00,174.00 910.00,174.00              903.49,172.14 897.21,168.16 891.00,165.31              891.00,165.31 860.00,152.69 860.00,152.69              816.50,137.23 755.17,129.87 711.00,145.34              683.15,155.10 657.82,179.56 659.04,211.00              660.12,238.86 676.54,256.84 699.00,271.31              730.67,291.71 772.98,306.57 808.00,321.01              878.25,349.99 946.26,393.50 969.98,470.00              974.60,484.93 977.35,500.46 978.96,516.00              978.96,516.00 978.96,526.00 978.96,526.00              978.96,526.00 980.00,536.00 980.00,536.00              980.00,536.00 979.00,553.00 979.00,553.00              978.93,567.14 975.32,587.35 971.42,601.00              965.55,621.58 959.41,636.68 948.19,655.00              908.93,719.08 839.79,751.36 768.00,763.41              768.00,763.41 728.00,768.09 728.00,768.09              728.00,768.09 718.00,769.04 718.00,769.04              718.00,769.04 706.00,769.04 706.00,769.04              706.00,769.04 696.00,770.00 696.00,770.00              696.00,770.00 664.00,769.00 664.00,769.00              664.00,769.00 654.00,768.09 654.00,768.09              654.00,768.09 608.00,762.42 608.00,762.42              586.54,758.55 557.21,751.85 537.00,744.19              537.00,744.19 504.00,730.74 504.00,730.74              501.15,729.36 493.53,725.95 492.01,723.47              490.41,720.89 492.17,715.85 492.79,713.00              492.79,713.00 498.79,688.00 498.79,688.00              498.79,688.00 514.37,623.00 514.37,623.00              514.37,623.00 523.00,586.00 523.00,586.00 Z            M 210.00,18.00            C 210.00,18.00 385.00,18.00 385.00,18.00              385.00,18.00 385.00,333.00 385.00,333.00              385.00,333.00 385.00,490.00 385.00,490.00              385.00,490.00 384.00,505.00 384.00,505.00              384.00,505.00 384.00,513.00 384.00,513.00              384.00,513.00 383.09,524.00 383.09,524.00              383.09,524.00 379.27,560.00 379.27,560.00              372.09,609.79 353.67,661.68 318.91,699.00              282.54,738.04 233.98,757.78 182.00,765.27              182.00,765.27 146.00,769.04 146.00,769.04              146.00,769.04 135.00,769.04 135.00,769.04              135.00,769.04 123.00,770.00 123.00,770.00              123.00,770.00 118.00,770.00 118.00,770.00              118.00,770.00 108.00,769.04 108.00,769.04              108.00,769.04 96.00,769.04 96.00,769.04              96.00,769.04 76.00,767.16 76.00,767.16              50.09,764.39 24.79,760.26 0.00,752.00              0.00,752.00 4.28,722.00 4.28,722.00              4.28,722.00 10.15,678.00 10.15,678.00              10.15,678.00 18.00,617.00 18.00,617.00              18.00,617.00 48.00,624.34 48.00,624.34              61.30,627.18 74.51,628.17 88.00,629.09              88.00,629.09 98.00,630.00 98.00,630.00              117.41,630.22 141.80,627.08 159.00,617.69              196.89,597.00 206.38,551.47 209.09,512.00              209.09,512.00 210.00,500.00 210.00,500.00              210.00,500.00 210.00,18.00 210.00,18.00 Z"/>
</svg>