<svg xmlns="http://www.w3.org/2000/svg" viewBox="23.5 15.5 1085 2016">
  <path id="java-wordmark" fill="#303030" stroke="none" stroke-width="1"
    d="M 701.00,16.00            C 705.64,18.39 708.59,22.78 711.56,27.00              717.54,35.48 723.33,46.36 727.20,56.00              745.54,101.72 741.60,149.92 723.40,195.00              694.27,267.12 634.10,326.14 575.00,374.58              575.00,374.58 537.00,406.17 537.00,406.17              495.65,443.58 453.32,495.11 454.00,554.00              454.69,613.05 500.60,669.34 532.34,716.00              532.34,716.00 557.30,756.00 557.30,756.00              560.90,762.55 564.26,767.57 566.00,775.00              556.58,768.46 546.64,757.99 538.00,750.17              517.06,731.23 496.57,711.42 477.04,691.00              477.04,691.00 467.99,681.00 467.99,681.00              448.32,660.75 427.19,633.89 412.05,610.00              402.52,594.96 394.59,578.92 389.00,562.00              383.81,546.29 381.81,532.50 382.00,516.00              382.31,490.15 393.82,466.57 408.58,446.00              430.25,415.81 456.02,393.09 484.00,369.13              484.00,369.13 536.00,327.58 536.00,327.58              568.25,302.41 600.05,276.95 629.00,248.00              663.52,213.48 690.64,176.85 703.27,129.00              705.99,118.66 707.82,107.64 708.96,97.00              708.96,97.00 708.96,87.00 708.96,87.00              708.96,87.00 709.92,79.00 709.92,79.00              709.92,79.00 709.00,64.00 709.00,64.00              708.86,52.38 704.07,27.59 701.00,16.00 Z            M 610.00,823.00            C 610.00,823.00 627.58,803.00 627.58,803.00              641.13,785.61 651.39,765.31 652.91,743.00              655.57,704.18 626.90,679.56 606.15,651.00              583.14,619.31 565.54,579.77 566.00,540.00              566.00,540.00 566.83,531.00 566.83,531.00              570.73,492.02 585.23,466.30 610.72,437.00              626.89,418.41 646.78,402.91 667.00,388.98              707.25,361.23 751.55,340.80 797.00,323.19              815.50,316.02 856.47,301.74 875.00,298.00              870.26,303.43 858.57,309.15 852.00,313.01              852.00,313.01 810.00,338.81 810.00,338.81              772.94,361.81 730.83,391.31 699.00,420.91              678.72,439.77 659.81,460.71 649.81,487.00              632.68,532.08 667.55,577.52 692.88,612.00              698.61,619.80 704.42,627.54 709.14,636.00              729.78,672.99 726.37,707.84 703.78,743.00              693.61,758.84 679.23,773.88 665.00,786.13              654.04,795.56 643.02,803.36 631.00,811.33              625.27,815.14 616.43,821.12 610.00,823.00 Z            M 884.00,790.00            C 888.88,779.68 900.56,773.78 911.00,770.59              930.30,764.68 944.87,762.77 965.00,763.00              971.39,763.08 980.67,764.52 987.00,765.80              1034.84,775.52 1073.59,812.07 1073.00,863.00              1072.58,898.64 1051.28,929.83 1026.00,953.08              990.46,985.79 937.84,1010.00 892.00,1024.66              892.00,1024.66 853.00,1036.00 853.00,1036.00              857.24,1026.07 866.16,1023.57 875.00,1018.58              875.00,1018.58 922.00,989.33 922.00,989.33              955.97,966.40 996.28,929.65 1009.92,890.00              1012.46,882.61 1014.91,871.79 1015.00,864.00              1015.57,814.77 973.33,780.45 926.00,781.00              911.34,781.18 898.08,787.82 884.00,790.00 Z            M 859.00,828.00            C 859.00,828.00 818.00,848.42 818.00,848.42              818.00,848.42 794.00,862.08 794.00,862.08              794.00,862.08 754.00,871.21 754.00,871.21              725.63,877.24 696.79,881.71 668.00,885.15              668.00,885.15 588.00,893.09 588.00,893.09              588.00,893.09 563.00,895.00 563.00,895.00              563.00,895.00 545.00,896.00 545.00,896.00              545.00,896.00 525.00,897.04 525.00,897.04              525.00,897.04 512.00,897.04 512.00,897.04              512.00,897.04 500.00,898.00 500.00,898.00              500.00,898.00 471.00,898.00 471.00,898.00              471.00,898.00 454.00,899.00 454.00,899.00              454.00,899.00 430.00,899.00 430.00,899.00              430.00,899.00 415.00,898.00 415.00,898.00              415.00,898.00 388.00,898.00 388.00,898.00              388.00,898.00 371.00,897.00 371.00,897.00              371.00,897.00 320.00,894.09 320.00,894.09              285.68,891.73 247.37,887.97 214.00,879.63              200.92,876.36 187.74,872.98 176.00,866.12              169.68,862.44 164.38,857.93 165.11,850.00              165.75,843.09 171.63,838.36 177.00,834.75              185.33,829.15 207.14,819.35 217.00,815.40              264.18,796.51 304.39,784.89 355.00,778.85              355.00,778.85 379.00,776.91 379.00,776.91              379.00,776.91 389.00,776.00 389.00,776.00              393.98,775.95 403.69,775.29 408.00,777.00              408.00,777.00 370.00,787.43 370.00,787.43              345.20,794.50 320.72,802.43 297.00,812.58              288.72,816.12 277.77,821.55 271.17,827.62              268.85,829.75 265.29,833.61 265.54,837.00              265.76,840.01 268.77,842.74 271.00,844.47              277.09,849.19 286.57,851.35 294.00,853.12              315.33,858.17 337.24,859.60 359.00,861.09              359.00,861.09 370.00,862.00 370.00,862.00              370.00,862.00 393.00,863.00 393.00,863.00              393.00,863.00 493.00,863.00 493.00,863.00              493.00,863.00 508.00,862.00 508.00,862.00              508.00,862.00 522.00,862.00 522.00,862.00              522.00,862.00 533.00,861.04 533.00,861.04              533.00,861.04 544.00,861.04 544.00,861.04              544.00,861.04 563.00,860.00 563.00,860.00              563.00,860.00 581.00,859.00 581.00,859.00              581.00,859.00 592.00,858.00 592.00,858.00              592.00,858.00 601.00,858.00 601.00,858.00              601.00,858.00 622.00,856.09 622.00,856.09              655.62,853.79 689.56,851.09 723.00,846.58              723.00,846.58 821.00,832.87 821.00,832.87              821.00,832.87 846.00,828.75 846.00,828.75              850.21,828.05 854.89,826.49 859.00,828.00 Z            M 807.00,1004.00            C 768.18,1016.70 707.90,1028.37 667.00,1034.27              639.36,1038.25 611.82,1041.19 584.00,1043.09              584.00,1043.09 574.00,1044.00 574.00,1044.00              574.00,1044.00 556.00,1045.04 556.00,1045.04              556.00,1045.04 541.00,1045.04 541.00,1045.04              541.00,1045.04 529.00,1046.00 529.00,1046.00              529.00,1046.00 490.00,1046.00 490.00,1046.00              490.00,1046.00 474.00,1045.00 474.00,1045.00              447.93,1044.88 421.88,1041.95 396.00,1038.85              368.00,1035.49 320.04,1025.30 296.00,1011.38              291.20,1008.61 287.00,1005.87 283.02,1001.96              280.82,999.81 278.90,997.69 277.36,995.00              268.34,979.17 281.66,965.98 294.00,957.67              303.39,951.34 306.99,949.80 317.00,945.23              325.84,941.20 340.71,935.12 350.00,933.00              343.43,941.43 328.66,951.43 331.40,964.00              334.31,977.40 356.53,982.32 368.00,984.39              368.00,984.39 425.00,990.09 425.00,990.09              425.00,990.09 473.00,993.00 473.00,993.00              473.00,993.00 490.00,994.00 490.00,994.00              490.00,994.00 538.00,994.00 538.00,994.00              538.00,994.00 555.00,993.00 555.00,993.00              585.09,992.95 634.27,986.86 665.00,982.72              665.00,982.72 724.00,973.08 724.00,973.08              728.66,972.29 745.60,968.58 749.00,969.33              752.75,970.15 765.56,981.24 770.00,984.25              777.57,989.40 785.77,993.76 794.00,997.74              798.33,999.84 803.09,1001.17 807.00,1004.00 Z            M 782.00,1152.00            C 782.00,1152.00 766.00,1158.19 766.00,1158.19              766.00,1158.19 742.00,1166.92 742.00,1166.92              742.00,1166.92 684.00,1183.12 684.00,1183.12              610.30,1200.59 517.81,1204.19 443.00,1192.58              409.39,1187.36 365.73,1177.27 337.00,1158.95              333.02,1156.41 327.51,1152.22 324.30,1148.83              322.21,1146.63 319.35,1142.72 318.00,1140.00              306.57,1117.01 334.87,1101.76 352.00,1094.43              361.25,1090.47 373.22,1086.23 383.00,1084.00              378.74,1089.15 367.53,1096.05 367.97,1103.42              368.64,1114.50 389.19,1119.92 398.00,1121.79              398.00,1121.79 448.00,1128.17 448.00,1128.17              448.00,1128.17 500.00,1132.00 500.00,1132.00              500.00,1132.00 515.00,1133.00 515.00,1133.00              515.00,1133.00 551.00,1133.00 551.00,1133.00              551.00,1133.00 566.00,1132.00 566.00,1132.00              585.17,1131.78 604.97,1129.22 624.00,1126.72              624.00,1126.72 681.00,1117.75 681.00,1117.75              681.00,1117.75 703.00,1113.67 703.00,1113.67              707.99,1113.15 710.85,1115.81 715.00,1118.14              715.00,1118.14 733.00,1127.75 733.00,1127.75              733.00,1127.75 767.00,1143.85 767.00,1143.85              771.73,1145.88 779.17,1147.63 782.00,1152.00 Z            M 985.00,1196.00            C 990.42,1197.89 993.20,1199.28 998.00,1202.52              1001.54,1204.91 1004.94,1207.70 1007.67,1211.00              1021.20,1227.31 1004.44,1243.51 991.00,1252.30              972.12,1264.66 946.56,1274.32 925.00,1281.02              904.28,1287.47 883.27,1293.59 862.00,1298.00              808.97,1308.98 755.89,1317.44 702.00,1322.83              702.00,1322.83 674.00,1325.17 674.00,1325.17              674.00,1325.17 633.00,1328.09 633.00,1328.09              633.00,1328.09 597.00,1330.00 597.00,1330.00              597.00,1330.00 584.00,1331.00 584.00,1331.00              584.00,1331.00 569.00,1331.00 569.00,1331.00              569.00,1331.00 553.00,1332.00 553.00,1332.00              553.00,1332.00 444.00,1332.00 444.00,1332.00              444.00,1332.00 429.00,1331.00 429.00,1331.00              429.00,1331.00 415.00,1331.00 415.00,1331.00              415.00,1331.00 404.00,1330.04 404.00,1330.04              404.00,1330.04 393.00,1330.04 393.00,1330.04              393.00,1330.04 373.00,1329.00 373.00,1329.00              373.00,1329.00 360.00,1328.00 360.00,1328.00              360.00,1328.00 331.00,1326.09 331.00,1326.09              331.00,1326.09 283.00,1322.17 283.00,1322.17              229.15,1316.95 175.42,1310.66 122.00,1301.75              105.21,1298.96 86.20,1295.00 71.00,1287.24              61.13,1282.20 53.42,1276.01 54.04,1264.00              54.37,1257.71 58.25,1251.65 62.30,1247.01              69.93,1238.27 86.46,1228.04 97.00,1222.75              126.46,1207.98 157.64,1196.88 190.00,1190.40              201.72,1188.05 217.19,1185.02 229.00,1185.00              229.00,1185.00 248.00,1185.00 248.00,1185.00              256.96,1185.01 269.17,1186.85 276.00,1193.00              242.21,1193.00 204.92,1203.35 174.00,1216.58              165.95,1220.02 156.70,1224.67 150.00,1230.32              147.30,1232.60 143.52,1236.43 142.75,1240.00              141.76,1244.62 145.53,1248.51 149.02,1250.90              155.91,1255.62 167.00,1259.33 175.00,1262.00              213.52,1274.84 253.97,1279.22 294.00,1284.58              294.00,1284.58 362.00,1290.09 362.00,1290.09              362.00,1290.09 373.00,1291.00 373.00,1291.00              373.00,1291.00 397.00,1292.00 397.00,1292.00              397.00,1292.00 413.00,1293.00 413.00,1293.00              413.00,1293.00 427.00,1293.00 427.00,1293.00              427.00,1293.00 442.00,1294.00 442.00,1294.00              442.00,1294.00 487.00,1294.00 487.00,1294.00              487.00,1294.00 499.00,1294.95 499.00,1294.95              499.00,1294.95 513.00,1294.95 513.00,1294.95              513.00,1294.95 528.00,1294.00 528.00,1294.00              528.00,1294.00 573.00,1294.00 573.00,1294.00              573.00,1294.00 590.00,1293.00 590.00,1293.00              590.00,1293.00 605.00,1293.00 605.00,1293.00              605.00,1293.00 617.00,1292.04 617.00,1292.04              617.00,1292.04 629.00,1292.04 629.00,1292.04              629.00,1292.04 641.00,1291.04 641.00,1291.04              641.00,1291.04 652.00,1291.04 652.00,1291.04              652.00,1291.04 662.00,1290.00 662.00,1290.00              662.00,1290.00 672.00,1290.00 672.00,1290.00              672.00,1290.00 679.00,1289.09 679.00,1289.09              679.00,1289.09 717.00,1286.91 717.00,1286.91              717.00,1286.91 800.00,1278.93 800.00,1278.93              828.36,1276.30 856.97,1271.48 885.00,1266.42              904.87,1262.84 934.44,1256.58 953.00,1249.58              967.33,1244.17 995.93,1231.81 993.81,1213.00              993.06,1206.36 988.43,1201.42 985.00,1196.00 Z            M 1072.00,1267.00            C 1074.01,1272.11 1071.80,1278.08 1069.94,1283.00              1064.73,1296.72 1054.56,1308.08 1043.00,1316.87              1004.90,1345.85 947.45,1360.92 901.00,1370.79              855.46,1380.47 809.24,1385.69 763.00,1390.17              763.00,1390.17 711.00,1394.04 711.00,1394.04              711.00,1394.04 696.00,1395.00 696.00,1395.00              696.00,1395.00 681.00,1396.00 681.00,1396.00              681.00,1396.00 661.00,1397.00 661.00,1397.00              661.00,1397.00 647.00,1397.00 647.00,1397.00              647.00,1397.00 630.00,1398.00 630.00,1398.00              630.00,1398.00 517.00,1398.00 517.00,1398.00              517.00,1398.00 502.00,1397.00 502.00,1397.00              502.00,1397.00 488.00,1397.00 488.00,1397.00              488.00,1397.00 472.00,1396.00 472.00,1396.00              472.00,1396.00 452.00,1395.00 452.00,1395.00              452.00,1395.00 437.00,1394.09 437.00,1394.09              437.00,1394.09 397.00,1391.17 397.00,1391.17              361.23,1387.70 326.22,1383.54 291.00,1376.00              278.06,1373.23 265.39,1369.58 253.00,1364.95              247.66,1362.95 241.00,1361.15 238.00,1356.00              270.43,1361.91 314.02,1366.78 347.00,1369.09              347.00,1369.09 406.00,1373.00 406.00,1373.00              406.00,1373.00 421.00,1374.04 421.00,1374.04              421.00,1374.04 432.00,1374.04 432.00,1374.04              432.00,1374.04 443.00,1375.00 443.00,1375.00              443.00,1375.00 461.00,1375.00 461.00,1375.00              461.00,1375.00 478.00,1376.00 478.00,1376.00              478.00,1376.00 559.00,1376.00 559.00,1376.00              559.00,1376.00 574.00,1375.00 574.00,1375.00              574.00,1375.00 595.00,1375.00 595.00,1375.00              595.00,1375.00 608.00,1374.00 608.00,1374.00              608.00,1374.00 638.00,1373.00 638.00,1373.00              638.00,1373.00 648.00,1372.09 648.00,1372.09              648.00,1372.09 672.00,1370.91 672.00,1370.91              672.00,1370.91 692.00,1369.09 692.00,1369.09              748.95,1365.18 805.78,1357.56 862.00,1347.42              912.69,1338.28 963.11,1326.16 1011.00,1307.00              1030.87,1299.05 1059.69,1284.69 1072.00,1267.00 Z            M 92.00,1487.00            C 92.00,1487.00 162.00,1487.00 162.00,1487.00              162.00,1487.00 162.00,1859.00 162.00,1859.00              162.00,1859.00 161.00,1876.00 161.00,1876.00              160.96,1899.24 157.73,1929.58 148.57,1951.00              136.95,1978.19 115.09,1999.92 90.00,2015.00              80.97,2020.43 65.19,2029.16 55.00,2031.00              55.00,2031.00 24.00,1992.00 24.00,1992.00              46.18,1980.27 71.22,1959.32 81.56,1936.00              87.28,1923.12 90.98,1900.13 91.00,1886.00              91.00,1886.00 92.00,1869.00 92.00,1869.00              92.00,1869.00 92.00,1741.00 92.00,1741.00              92.00,1741.00 92.00,1487.00 92.00,1487.00 Z            M 224.00,1620.00            C 253.99,1606.06 289.06,1597.32 322.00,1594.91              322.00,1594.91 334.00,1594.00 334.00,1594.00              334.00,1594.00 354.00,1594.00 354.00,1594.00              381.11,1594.04 415.49,1603.02 434.57,1623.17              449.88,1639.33 455.57,1658.34 457.09,1680.00              457.09,1680.00 458.00,1692.00 458.00,1692.00              458.00,1692.00 458.00,1917.00 458.00,1917.00              458.00,1917.00 406.00,1917.00 406.00,1917.00              406.00,1917.00 401.00,1884.00 401.00,1884.00              401.00,1884.00 390.00,1892.53 390.00,1892.53              381.05,1899.25 372.08,1904.99 362.00,1909.89              336.78,1922.15 320.32,1923.32 293.00,1923.00              283.71,1922.89 267.71,1919.85 259.00,1916.58              247.81,1912.36 236.25,1905.94 228.17,1897.00              215.25,1882.69 208.03,1861.16 208.00,1842.00              208.00,1842.00 208.00,1827.00 208.00,1827.00              208.30,1801.78 221.71,1776.28 241.00,1760.46              268.21,1738.15 305.74,1730.31 340.00,1727.91              340.00,1727.91 352.00,1727.00 352.00,1727.00              352.00,1727.00 392.00,1727.00 392.00,1727.00              392.00,1710.86 393.56,1687.77 387.55,1673.00              378.74,1651.37 355.82,1643.03 334.00,1643.00              307.85,1642.96 294.65,1644.06 269.00,1650.47              269.00,1650.47 246.00,1657.19 246.00,1657.19              246.00,1657.19 234.00,1661.00 234.00,1661.00              234.00,1661.00 224.00,1620.00 224.00,1620.00 Z            M 824.00,1661.00            C 824.00,1661.00 817.42,1632.00 817.42,1632.00              816.84,1629.35 814.85,1622.65 816.11,1620.41              817.49,1617.97 826.13,1615.14 829.00,1614.00              841.01,1609.21 853.47,1605.51 866.00,1602.37              866.00,1602.37 895.00,1596.73 895.00,1596.73              938.30,1590.54 997.85,1590.95 1028.70,1627.00              1051.81,1654.00 1048.00,1689.11 1048.00,1722.00              1048.00,1722.00 1048.00,1917.00 1048.00,1917.00              1048.00,1917.00 1005.00,1917.00 1005.00,1917.00              1005.00,1917.00 997.59,1915.98 997.59,1915.98              997.59,1915.98 995.00,1907.00 995.00,1907.00              995.00,1907.00 992.00,1883.00 992.00,1883.00              974.00,1900.17 946.55,1915.61 922.00,1920.55              907.37,1923.50 900.49,1923.02 886.00,1923.00              865.64,1922.97 840.63,1916.08 825.00,1902.70              807.09,1887.37 800.58,1867.77 798.91,1845.00              798.91,1845.00 798.02,1836.00 798.02,1836.00              797.92,1831.13 798.40,1830.33 798.83,1826.00              800.54,1808.94 803.61,1795.71 813.09,1781.00              824.27,1763.66 842.10,1750.85 861.00,1743.01              883.33,1733.75 907.03,1729.59 931.00,1727.91              931.00,1727.91 943.00,1727.00 943.00,1727.00              943.00,1727.00 983.00,1727.00 983.00,1727.00              983.00,1711.95 983.87,1690.08 979.25,1676.00              971.80,1653.28 948.45,1643.11 926.00,1643.00              926.00,1643.00 893.00,1644.15 893.00,1644.15              893.00,1644.15 875.00,1647.00 875.00,1647.00              875.00,1647.00 853.00,1652.29 853.00,1652.29              853.00,1652.29 824.00,1661.00 824.00,1661.00 Z            M 495.00,1600.00            C 495.00,1600.00 567.00,1600.00 567.00,1600.00              567.00,1600.00 579.98,1643.00 579.98,1643.00              579.98,1643.00 606.98,1730.00 606.98,1730.00              606.98,1730.00 618.02,1766.00 618.02,1766.00              618.02,1766.00 627.63,1798.00 627.63,1798.00              627.63,1798.00 640.00,1850.00 640.00,1850.00              656.85,1799.45 673.07,1749.11 684.58,1697.00              684.58,1697.00 697.92,1627.00 697.92,1627.00              697.92,1627.00 702.00,1600.00 702.00,1600.00              702.00,1600.00 772.00,1600.00 772.00,1600.00              772.00,1600.00 767.00,1625.00 767.00,1625.00              767.00,1625.00 756.12,1676.00 756.12,1676.00              742.51,1733.36 725.54,1789.90 704.58,1845.00              704.58,1845.00 681.75,1900.00 681.75,1900.00              680.15,1903.34 675.85,1914.27 673.37,1916.01              671.58,1917.25 668.13,1917.00 666.00,1917.00              666.00,1917.00 600.00,1917.00 600.00,1917.00              597.96,1917.00 594.37,1917.26 592.70,1916.01              590.52,1914.37 587.39,1902.29 586.34,1899.00              586.34,1899.00 569.58,1844.00 569.58,1844.00              569.58,1844.00 517.28,1674.00 517.28,1674.00              517.28,1674.00 502.28,1625.00 502.28,1625.00              502.28,1625.00 495.00,1600.00 495.00,1600.00 Z            M 1053.00,1600.00            C 1053.00,1600.00 1075.00,1600.00 1075.00,1600.00              1075.00,1600.00 1075.00,1605.00 1075.00,1605.00              1075.00,1605.00 1067.00,1605.00 1067.00,1605.00              1067.00,1605.00 1067.00,1626.00 1067.00,1626.00              1067.00,1626.00 1061.00,1626.00 1061.00,1626.00              1061.00,1626.00 1061.00,1605.00 1061.00,1605.00              1061.00,1605.00 1053.00,1605.00 1053.00,1605.00              1053.00,1605.00 1053.00,1600.00 1053.00,1600.00 Z            M 1078.00,1600.00            C 1078.00,1600.00 1087.00,1600.00 1087.00,1600.00              1087.00,1600.00 1093.00,1616.00 1093.00,1616.00              1094.30,1612.76 1097.61,1601.93 1100.42,1600.57              1101.97,1599.82 1106.15,1600.00 1108.00,1600.00              1108.00,1600.00 1108.00,1626.00 1108.00,1626.00              1108.00,1626.00 1102.00,1626.00 1102.00,1626.00              1102.00,1626.00 1101.00,1609.00 1101.00,1609.00              1100.44,1612.57 1097.52,1623.02 1094.58,1624.98              1093.15,1625.93 1091.62,1625.87 1090.00,1626.00              1090.00,1626.00 1084.00,1610.00 1084.00,1610.00              1084.00,1610.00 1084.00,1626.00 1084.00,1626.00              1084.00,1626.00 1078.00,1626.00 1078.00,1626.00              1078.00,1626.00 1078.00,1600.00 1078.00,1600.00 Z            M 392.00,1769.00            C 392.00,1769.00 354.00,1769.00 354.00,1769.00              341.82,1769.02 323.77,1771.85 312.00,1775.15              300.08,1778.50 288.06,1785.53 281.10,1796.00              269.24,1813.86 271.38,1849.15 288.04,1863.68              308.20,1881.26 339.30,1875.10 361.00,1864.25              369.01,1860.24 375.91,1856.08 383.00,1850.58              385.45,1848.67 389.56,1845.66 390.98,1842.96              392.19,1840.64 391.99,1837.57 392.00,1835.00              392.00,1835.00 392.00,1769.00 392.00,1769.00 Z            M 983.00,1769.00            C 983.00,1769.00 945.00,1769.00 945.00,1769.00              933.18,1769.02 913.24,1771.74 902.00,1775.34              891.46,1778.72 880.76,1784.04 873.90,1793.00              857.00,1815.06 861.15,1857.11 888.00,1869.68              907.89,1878.99 930.94,1874.24 950.00,1865.22              957.84,1861.51 967.10,1855.61 974.00,1850.35              976.34,1848.56 980.62,1845.43 981.98,1842.91              983.20,1840.64 982.99,1837.53 983.00,1835.00              983.00,1835.00 983.00,1769.00 983.00,1769.00 Z" />
</svg>