<svg xmlns="http://www.w3.org/2000/svg" viewBox="53.55 16.5 1019.75 1382">
  <path id="java" fill="#303030" stroke="none" stroke-width="1"
    d="M 702.00,17.00            C 712.93,25.21 723.56,47.11 728.42,60.00              746.99,109.18 739.71,160.25 717.78,207.00              686.85,272.94 633.48,325.90 578.00,371.75              578.00,371.75 529.00,413.09 529.00,413.09              488.89,450.46 453.34,498.97 454.00,556.00              454.32,583.08 465.84,611.59 478.70,635.00              503.65,680.45 547.00,729.90 566.00,774.00              559.30,770.83 539.48,751.23 533.00,745.04              533.00,745.04 505.00,718.96 505.00,718.96              505.00,718.96 478.91,692.00 478.91,692.00              478.91,692.00 467.17,680.00 467.17,680.00              442.72,652.98 420.04,625.20 402.69,593.00              391.60,572.41 382.28,546.62 382.00,523.00              381.54,483.05 400.29,454.02 425.85,425.00              465.00,380.53 513.96,345.84 560.00,309.00              624.84,257.13 692.65,198.38 706.92,112.00              708.58,101.96 710.11,87.09 710.00,77.00              710.00,77.00 709.09,67.00 709.09,67.00              709.09,67.00 705.58,36.00 705.58,36.00              705.58,36.00 702.00,17.00 702.00,17.00 Z            M 611.00,822.00            C 611.00,822.00 631.11,799.00 631.11,799.00              645.12,780.28 653.27,759.50 653.00,736.00              652.59,701.14 628.93,681.49 610.15,656.00              586.83,624.33 569.64,590.74 566.91,551.00              566.61,546.63 565.84,545.03 566.04,540.00              567.78,495.05 588.76,459.24 620.00,428.00              657.15,390.85 703.54,364.43 751.00,342.69              780.06,329.38 809.70,318.43 840.00,308.33              840.00,308.33 863.00,301.42 863.00,301.42              866.84,300.33 870.12,298.73 874.00,300.00              850.91,312.21 807.41,339.72 785.00,354.67              754.13,375.25 718.11,400.89 692.00,427.00              667.26,451.74 644.57,479.20 645.00,516.00              645.26,537.66 658.60,562.37 670.33,580.00              684.66,601.52 708.44,630.40 716.94,653.00              720.56,662.65 721.91,672.80 722.68,683.00              723.26,690.73 720.48,705.51 718.00,713.00              713.33,727.14 708.62,735.85 700.00,748.00              689.11,763.33 678.24,774.40 664.00,786.57              653.57,795.49 642.45,803.45 631.00,811.00              625.47,814.64 617.20,820.19 611.00,822.00 Z            M 884.00,790.00            C 892.86,773.50 916.87,768.10 934.00,765.25              985.05,756.74 1043.82,775.13 1065.57,826.00              1083.65,868.28 1065.69,912.95 1035.00,944.00              998.84,980.59 951.92,1003.25 904.00,1020.31              904.00,1020.31 853.00,1036.00 853.00,1036.00              854.38,1032.95 855.77,1030.68 858.29,1028.39              858.29,1028.39 888.00,1011.40 888.00,1011.40              914.09,995.74 939.67,978.71 962.00,957.91              990.14,931.70 1015.47,898.08 1015.00,858.00              1014.60,824.26 987.03,794.86 956.00,785.03              944.10,781.26 937.26,780.86 925.00,781.00              911.48,781.16 897.10,787.01 884.00,790.00 Z            M 859.00,828.00            C 846.72,832.91 827.61,842.67 816.00,849.28              809.93,852.74 798.85,860.34 793.00,862.09              761.75,871.42 700.38,881.16 667.00,885.15              667.00,885.15 586.00,893.09 586.00,893.09              586.00,893.09 562.00,895.00 562.00,895.00              562.00,895.00 542.00,896.00 542.00,896.00              542.00,896.00 522.00,897.04 522.00,897.04              522.00,897.04 508.00,897.04 508.00,897.04              508.00,897.04 496.00,898.00 496.00,898.00              496.00,898.00 392.00,898.00 392.00,898.00              392.00,898.00 375.00,897.00 375.00,897.00              375.00,897.00 322.00,894.09 322.00,894.09              286.01,891.62 250.33,887.46 215.00,879.79              203.65,877.32 184.58,871.51 175.00,865.30              169.53,861.75 164.30,857.22 165.23,850.00              166.00,843.96 172.23,838.34 177.00,835.09              186.00,828.95 206.43,819.90 217.00,815.60              262.41,797.12 308.14,784.06 357.00,778.84              357.00,778.84 379.00,777.00 379.00,777.00              386.37,776.96 400.48,774.41 407.00,777.00              407.00,777.00 379.00,784.71 379.00,784.71              354.13,791.78 318.96,802.01 296.00,812.78              288.22,816.43 277.36,821.63 271.04,827.30              268.41,829.66 265.16,833.21 265.36,837.00              265.58,841.29 269.63,844.17 273.00,846.12              280.25,850.31 291.73,852.95 300.00,854.60              336.88,861.98 380.34,862.94 418.00,863.00              418.00,863.00 430.00,863.95 430.00,863.95              430.00,863.95 444.00,863.95 444.00,863.95              444.00,863.95 459.00,863.00 459.00,863.00              459.00,863.00 496.00,863.00 496.00,863.00              496.00,863.00 508.00,862.04 508.00,862.04              508.00,862.04 524.00,862.04 524.00,862.04              524.00,862.04 541.00,861.00 541.00,861.00              541.00,861.00 594.00,858.00 594.00,858.00              594.00,858.00 603.00,858.00 603.00,858.00              643.27,855.16 683.95,851.98 724.00,846.58              724.00,846.58 822.00,832.87 822.00,832.87              822.00,832.87 847.00,828.75 847.00,828.75              850.91,828.10 855.17,826.72 859.00,828.00 Z            M 348.00,933.00            C 348.00,936.45 343.37,939.54 341.09,942.00              335.23,948.30 327.91,957.96 332.31,967.00              338.26,979.21 358.83,983.07 371.00,985.08              371.00,985.08 390.00,987.17 390.00,987.17              390.00,987.17 437.00,991.09 437.00,991.09              437.00,991.09 470.00,993.00 470.00,993.00              470.00,993.00 487.00,994.00 487.00,994.00              487.00,994.00 541.00,994.00 541.00,994.00              541.00,994.00 562.00,993.00 562.00,993.00              562.00,993.00 574.00,992.09 574.00,992.09              604.82,989.98 635.33,986.85 666.00,982.72              666.00,982.72 724.00,973.25 724.00,973.25              728.27,972.51 746.12,968.76 749.00,969.35              752.12,969.99 764.23,980.40 768.00,983.09              773.72,987.17 784.66,993.65 791.00,996.74              795.98,999.17 801.59,1000.58 806.00,1004.00              806.00,1004.00 770.00,1013.87 770.00,1013.87              770.00,1013.87 703.00,1028.25 703.00,1028.25              703.00,1028.25 641.00,1037.72 641.00,1037.72              641.00,1037.72 595.00,1042.17 595.00,1042.17              595.00,1042.17 568.00,1044.00 568.00,1044.00              568.00,1044.00 554.00,1045.00 554.00,1045.00              554.00,1045.00 538.00,1045.00 538.00,1045.00              538.00,1045.00 522.00,1046.00 522.00,1046.00              522.00,1046.00 497.00,1046.00 497.00,1046.00              497.00,1046.00 485.00,1045.04 485.00,1045.04              485.00,1045.04 469.00,1045.04 469.00,1045.04              469.00,1045.04 451.00,1044.00 451.00,1044.00              451.00,1044.00 440.00,1043.09 440.00,1043.09              440.00,1043.09 408.00,1040.15 408.00,1040.15              379.27,1036.72 345.11,1030.89 318.00,1020.95              303.19,1015.52 275.84,1004.27 275.04,986.00              274.51,973.87 282.64,965.80 292.00,959.21              304.49,950.41 318.82,944.29 333.00,938.81              333.00,938.81 348.00,933.00 348.00,933.00 Z            M 782.00,1151.00            C 759.21,1162.82 710.86,1176.72 685.00,1182.65              600.84,1201.97 510.97,1204.78 426.00,1189.42              398.88,1184.52 362.36,1174.44 339.00,1159.94              327.46,1152.77 315.39,1142.81 316.04,1128.00              316.38,1120.21 320.49,1115.23 326.00,1110.09              334.97,1101.75 351.36,1094.38 363.00,1090.34              368.00,1088.61 376.97,1084.59 382.00,1086.00              379.06,1087.87 376.55,1089.63 374.04,1092.09              372.49,1093.61 371.13,1095.15 369.99,1097.00              361.19,1111.30 382.87,1118.14 393.00,1120.85              408.14,1124.88 430.09,1126.58 446.00,1128.17              446.00,1128.17 497.00,1132.00 497.00,1132.00              497.00,1132.00 512.00,1133.00 512.00,1133.00              512.00,1133.00 554.00,1133.00 554.00,1133.00              554.00,1133.00 567.00,1132.04 567.00,1132.04              588.75,1131.09 610.42,1128.84 632.00,1125.73              632.00,1125.73 683.00,1117.58 683.00,1117.58              687.49,1116.77 702.49,1113.30 706.00,1113.98              706.00,1113.98 732.00,1127.74 732.00,1127.74              732.00,1127.74 766.00,1143.70 766.00,1143.70              766.00,1143.70 782.00,1151.00 782.00,1151.00 Z            M 986.00,1197.00            C 990.75,1198.36 993.88,1200.19 998.00,1202.86              1001.16,1204.92 1004.20,1207.17 1006.67,1210.04              1021.60,1227.32 1003.28,1244.11 989.00,1253.30              954.93,1275.25 894.07,1290.77 854.00,1299.58              804.93,1310.36 754.93,1317.17 705.00,1322.17              705.00,1322.17 646.00,1327.09 646.00,1327.09              646.00,1327.09 617.00,1329.00 617.00,1329.00              617.00,1329.00 600.00,1330.00 600.00,1330.00              600.00,1330.00 580.00,1331.00 580.00,1331.00              580.00,1331.00 565.00,1331.00 565.00,1331.00              565.00,1331.00 548.00,1332.00 548.00,1332.00              548.00,1332.00 448.00,1332.00 448.00,1332.00              448.00,1332.00 434.00,1331.00 434.00,1331.00              434.00,1331.00 418.00,1331.00 418.00,1331.00              418.00,1331.00 402.00,1330.00 402.00,1330.00              402.00,1330.00 376.00,1329.00 376.00,1329.00              376.00,1329.00 362.00,1328.00 362.00,1328.00              362.00,1328.00 333.00,1326.09 333.00,1326.09              333.00,1326.09 285.00,1322.17 285.00,1322.17              230.49,1316.89 176.07,1310.66 122.00,1301.59              106.09,1298.92 82.80,1294.09 69.00,1285.98              60.51,1280.99 53.35,1274.68 54.10,1264.00              54.61,1256.64 59.06,1251.06 64.01,1246.00              73.25,1236.57 82.67,1230.98 94.00,1224.58              116.54,1211.84 144.07,1202.51 169.00,1195.58              185.59,1190.96 214.07,1185.03 231.00,1185.00              231.00,1185.00 247.00,1185.00 247.00,1185.00              255.54,1185.04 268.80,1186.81 275.00,1193.00              243.65,1193.00 199.07,1203.95 171.00,1217.76              162.93,1221.72 144.45,1230.63 142.47,1240.00              141.55,1244.39 144.85,1247.96 148.02,1250.47              153.85,1255.11 167.62,1259.92 175.00,1262.33              208.72,1273.33 259.37,1281.27 295.00,1284.83              295.00,1284.83 360.00,1290.09 360.00,1290.09              360.00,1290.09 367.00,1291.00 367.00,1291.00              367.00,1291.00 377.00,1291.00 377.00,1291.00              377.00,1291.00 387.00,1292.04 387.00,1292.04              387.00,1292.04 398.00,1292.04 398.00,1292.04              398.00,1292.04 410.00,1293.04 410.00,1293.04              410.00,1293.04 425.00,1293.04 425.00,1293.04              425.00,1293.04 437.00,1294.00 437.00,1294.00              437.00,1294.00 470.00,1294.00 470.00,1294.00              470.00,1294.00 485.00,1295.00 485.00,1295.00              485.00,1295.00 529.00,1295.00 529.00,1295.00              529.00,1295.00 546.00,1294.00 546.00,1294.00              546.00,1294.00 580.00,1294.00 580.00,1294.00              580.00,1294.00 595.00,1293.00 595.00,1293.00              595.00,1293.00 634.00,1292.00 634.00,1292.00              634.00,1292.00 644.00,1291.04 644.00,1291.04              644.00,1291.04 654.00,1291.04 654.00,1291.04              654.00,1291.04 667.00,1290.00 667.00,1290.00              667.00,1290.00 697.00,1288.09 697.00,1288.09              697.00,1288.09 801.00,1278.95 801.00,1278.95              845.46,1273.98 913.79,1264.06 955.00,1248.95              969.51,1243.62 996.63,1230.81 993.79,1212.00              992.98,1206.61 988.85,1201.55 986.00,1197.00 Z            M 1072.00,1267.00            C 1073.94,1272.06 1071.30,1279.13 1069.38,1284.00              1063.69,1298.44 1052.30,1309.82 1040.00,1318.85              1000.73,1347.65 934.81,1364.43 887.00,1373.39              842.17,1381.79 796.46,1387.91 751.00,1391.09              751.00,1391.09 732.00,1392.91 732.00,1392.91              732.00,1392.91 708.00,1394.09 708.00,1394.09              708.00,1394.09 694.00,1395.00 694.00,1395.00              694.00,1395.00 679.00,1396.04 679.00,1396.04              679.00,1396.04 668.00,1396.04 668.00,1396.04              668.00,1396.04 658.00,1397.00 658.00,1397.00              658.00,1397.00 641.00,1397.00 641.00,1397.00              641.00,1397.00 624.00,1398.00 624.00,1398.00              624.00,1398.00 523.00,1398.00 523.00,1398.00              523.00,1398.00 509.00,1397.00 509.00,1397.00              509.00,1397.00 492.00,1397.00 492.00,1397.00              492.00,1397.00 476.00,1396.00 476.00,1396.00              476.00,1396.00 424.00,1393.09 424.00,1393.09              384.25,1390.37 344.17,1386.63 305.00,1378.80              290.38,1375.88 275.14,1372.38 261.00,1367.67              253.81,1365.27 243.89,1361.68 238.00,1357.00              238.00,1357.00 267.00,1360.73 267.00,1360.73              267.00,1360.73 309.00,1365.83 309.00,1365.83              309.00,1365.83 372.00,1371.09 372.00,1371.09              372.00,1371.09 398.00,1373.00 398.00,1373.00              398.00,1373.00 418.00,1374.00 418.00,1374.00              418.00,1374.00 441.00,1375.00 441.00,1375.00              441.00,1375.00 456.00,1375.00 456.00,1375.00              456.00,1375.00 472.00,1376.00 472.00,1376.00              472.00,1376.00 565.00,1376.00 565.00,1376.00              565.00,1376.00 580.00,1375.00 580.00,1375.00              580.00,1375.00 598.00,1375.00 598.00,1375.00              598.00,1375.00 611.00,1374.00 611.00,1374.00              611.00,1374.00 640.00,1373.00 640.00,1373.00              640.00,1373.00 666.00,1371.09 666.00,1371.09              666.00,1371.09 705.00,1368.17 705.00,1368.17              705.00,1368.17 760.00,1362.84 760.00,1362.84              794.44,1359.15 828.91,1353.57 863.00,1347.42              913.59,1338.30 970.87,1324.62 1018.00,1304.28              1035.15,1296.88 1062.48,1283.29 1072.00,1267.00 Z" />
</svg>