<svg xmlns="http://www.w3.org/2000/svg" viewBox="-0.27 -0.5 1168.77 154">
  <path id="jira-software-wordmark" fill="#303030" stroke="none" stroke-width="1"
    d="M 73.00,0.00            C 79.09,4.36 88.31,14.31 94.00,20.00              94.00,20.00 131.00,57.00 131.00,57.00              135.43,61.43 148.04,71.38 146.67,78.00              145.67,82.83 132.07,94.93 128.00,99.00              128.00,99.00 93.00,134.00 93.00,134.00              87.45,139.55 79.01,148.70 73.00,153.00              73.00,153.00 17.00,97.00 17.00,97.00              12.46,92.46 -1.05,81.69 0.33,75.00              1.00,71.79 3.80,69.25 6.00,67.00              6.00,67.00 20.00,53.00 20.00,53.00              20.00,53.00 73.00,0.00 73.00,0.00 Z            M 676.00,46.00            C 676.00,35.46 674.94,24.28 683.10,16.10              690.10,9.10 697.81,8.88 707.00,9.00              709.15,9.03 712.52,8.89 714.01,10.74              715.54,12.63 715.00,22.18 715.00,25.00              711.47,24.71 707.47,23.75 704.00,24.19              691.55,25.76 692.00,36.57 692.00,46.00              692.00,46.00 714.00,46.00 714.00,46.00              714.00,46.00 714.00,61.00 714.00,61.00              714.00,61.00 692.00,61.00 692.00,61.00              692.00,61.00 692.00,135.00 692.00,135.00              692.00,135.00 676.00,135.00 676.00,135.00              676.00,135.00 676.00,61.00 676.00,61.00              676.00,61.00 662.00,61.00 662.00,61.00              662.00,61.00 662.00,46.00 662.00,46.00              662.00,46.00 676.00,46.00 676.00,46.00 Z            M 259.00,12.74            C 263.06,11.76 267.40,11.45 270.78,14.43              276.74,19.70 275.80,32.84 265.00,33.89              251.70,35.18 247.43,18.99 259.00,12.74 Z            M 473.00,110.00            C 488.33,116.13 508.36,122.78 525.00,118.98              536.15,116.43 544.00,105.49 536.35,95.04              532.31,89.52 523.37,86.62 517.00,84.72              498.56,79.22 474.30,75.68 474.00,51.00              473.95,46.66 473.70,42.16 475.10,38.00              481.50,18.97 504.42,14.61 522.00,16.72              528.71,17.52 546.11,19.33 549.98,25.39              551.22,27.34 551.00,30.73 551.00,33.00              551.00,33.00 551.00,42.00 551.00,42.00              551.00,42.00 538.00,36.69 538.00,36.69              528.69,33.45 513.57,31.52 504.00,34.16              494.08,36.89 486.14,46.68 494.22,55.96              499.38,61.87 508.60,64.47 516.00,66.37              530.20,70.02 547.73,74.12 554.12,89.00              555.77,92.83 555.95,94.92 556.00,99.00              556.06,104.26 556.36,109.95 554.78,115.00              549.63,131.49 536.09,134.66 521.00,136.17              521.00,136.17 515.00,136.82 515.00,136.82              515.00,136.82 507.00,136.04 507.00,136.04              497.03,135.60 492.67,135.27 483.00,132.00              480.46,131.14 475.55,129.58 473.99,127.36              472.75,125.59 473.00,122.12 473.00,120.00              473.00,120.00 473.00,110.00 473.00,110.00 Z            M 218.00,18.00            C 218.00,18.00 235.00,18.00 235.00,18.00              235.00,18.00 235.00,102.00 235.00,102.00              234.88,111.73 231.86,123.15 223.96,129.47              213.55,137.81 196.17,135.29 184.00,133.00              184.00,133.00 184.00,116.00 184.00,116.00              190.53,117.48 193.95,119.27 201.00,118.96              214.08,118.38 217.98,109.62 218.00,98.00              218.00,98.00 218.00,18.00 218.00,18.00 Z            M 736.00,27.00            C 736.00,27.00 752.00,27.00 752.00,27.00              752.00,27.00 752.00,46.00 752.00,46.00              752.00,46.00 775.00,46.00 775.00,46.00              775.00,46.00 775.00,61.00 775.00,61.00              775.00,61.00 752.00,61.00 752.00,61.00              752.00,61.00 752.00,103.00 752.00,103.00              752.03,108.47 752.27,112.60 757.10,116.15              762.99,120.47 768.47,118.30 775.00,118.00              775.00,118.00 775.00,134.00 775.00,134.00              775.00,134.00 763.00,134.96 763.00,134.96              751.28,134.50 741.47,129.71 737.60,118.00              735.43,111.45 736.00,102.94 736.00,96.00              736.00,96.00 736.00,61.00 736.00,61.00              736.00,61.00 722.00,61.00 722.00,61.00              722.00,61.00 722.00,46.00 722.00,46.00              722.00,46.00 736.00,46.00 736.00,46.00              736.00,46.00 736.00,27.00 736.00,27.00 Z            M 310.00,58.00            C 314.81,49.06 321.40,46.20 331.00,44.87              333.33,44.55 337.26,43.47 338.98,45.60              340.54,47.54 340.00,57.14 340.00,60.00              331.09,60.00 322.16,59.39 315.19,66.21              310.35,70.94 309.08,77.50 309.00,84.00              309.00,84.00 309.00,135.00 309.00,135.00              309.00,135.00 293.00,135.00 293.00,135.00              293.00,135.00 293.00,46.00 293.00,46.00              293.00,46.00 309.00,46.00 309.00,46.00              309.00,46.00 310.00,58.00 310.00,58.00 Z            M 409.00,122.00            C 398.66,141.26 365.59,141.90 353.03,122.00              342.48,105.52 342.24,75.34 353.03,59.00              363.10,43.95 385.70,38.96 401.00,48.96              404.96,51.55 407.06,54.43 410.00,58.00              410.00,58.00 410.00,46.00 410.00,46.00              410.00,46.00 426.00,46.00 426.00,46.00              426.00,46.00 426.00,135.00 426.00,135.00              426.00,135.00 410.00,135.00 410.00,135.00              410.00,135.00 409.00,122.00 409.00,122.00 Z            M 604.00,44.44            C 618.66,42.56 633.89,45.95 643.48,58.00              652.38,69.19 653.16,80.39 653.00,94.00              652.77,113.37 641.18,132.21 621.00,135.68              608.42,137.84 594.09,136.09 584.00,127.67              564.91,111.73 563.71,74.12 580.30,56.09              586.97,48.84 594.65,46.17 604.00,44.44 Z            M 997.00,121.00            C 988.99,139.72 954.37,143.60 940.39,122.00              929.75,105.58 930.08,73.99 941.44,58.00              951.40,43.98 973.35,39.22 988.00,48.56              992.73,51.58 994.82,54.55 998.00,59.00              998.00,59.00 998.00,46.00 998.00,46.00              998.00,46.00 1014.00,46.00 1014.00,46.00              1014.00,46.00 1014.00,135.00 1014.00,135.00              1014.00,135.00 998.00,135.00 998.00,135.00              998.00,135.00 997.00,121.00 997.00,121.00 Z            M 1052.00,59.00            C 1055.91,49.87 1063.62,46.21 1073.00,44.87              1075.53,44.51 1080.13,43.28 1081.98,45.60              1083.54,47.56 1083.00,57.12 1083.00,60.00              1075.77,60.00 1067.32,59.49 1061.00,63.70              1051.88,69.78 1051.02,78.97 1051.00,89.00              1051.00,89.00 1051.00,135.00 1051.00,135.00              1051.00,135.00 1036.00,135.00 1036.00,135.00              1036.00,135.00 1036.00,46.00 1036.00,46.00              1036.00,46.00 1051.00,46.00 1051.00,46.00              1051.00,46.00 1052.00,59.00 1052.00,59.00 Z            M 1163.00,132.00            C 1150.83,135.20 1149.89,135.71 1137.00,136.68              1129.91,137.21 1117.58,135.00 1111.00,132.13              1093.31,124.40 1088.40,109.81 1087.74,92.00              1087.19,76.75 1091.07,60.77 1104.01,51.30              1115.64,42.79 1137.45,41.36 1150.00,48.53              1156.27,52.11 1161.33,58.30 1163.93,65.00              1166.56,71.77 1167.97,79.75 1168.00,87.00              1168.00,87.00 1168.00,97.00 1168.00,97.00              1168.00,97.00 1104.00,97.00 1104.00,97.00              1104.88,100.84 1105.99,104.64 1108.13,108.00              1119.82,126.34 1145.68,121.66 1163.00,116.00              1163.00,116.00 1163.00,132.00 1163.00,132.00 Z            M 255.00,46.00            C 255.00,46.00 271.00,46.00 271.00,46.00              271.00,46.00 271.00,135.00 271.00,135.00              271.00,135.00 255.00,135.00 255.00,135.00              255.00,135.00 255.00,46.00 255.00,46.00 Z            M 778.00,46.00            C 778.00,46.00 788.00,46.00 788.00,46.00              788.00,46.00 795.49,47.02 795.49,47.02              795.49,47.02 802.31,63.00 802.31,63.00              802.31,63.00 821.00,118.00 821.00,118.00              821.00,118.00 840.00,63.00 840.00,63.00              840.00,63.00 846.70,46.99 846.70,46.99              846.70,46.99 852.00,46.00 852.00,46.00              852.00,46.00 861.30,46.99 861.30,46.99              861.30,46.99 868.67,66.00 868.67,66.00              868.67,66.00 887.00,118.00 887.00,118.00              887.00,118.00 911.00,46.00 911.00,46.00              911.00,46.00 929.00,46.00 929.00,46.00              927.89,53.16 924.18,61.03 921.69,68.00              921.69,68.00 904.42,115.00 904.42,115.00              903.05,118.67 898.93,132.16 896.35,134.01              894.88,135.06 892.72,134.97 891.00,135.00              891.00,135.00 885.00,135.00 885.00,135.00              882.79,135.00 879.29,135.22 877.42,133.98              874.58,132.09 871.92,121.59 870.58,118.00              870.58,118.00 860.72,90.00 860.72,90.00              858.63,83.06 856.72,74.03 853.00,68.00              852.08,78.15 840.57,108.71 836.66,120.00              835.66,122.86 832.62,132.48 830.49,133.98              828.99,135.03 826.76,134.96 825.00,135.00              825.00,135.00 819.00,135.00 819.00,135.00              816.85,135.00 813.29,135.23 811.51,133.98              809.10,132.29 804.24,117.56 803.00,114.00              803.00,114.00 778.00,46.00 778.00,46.00 Z            M 74.00,55.00            C 68.47,58.96 55.96,71.47 52.00,77.00              52.00,77.00 74.00,98.00 74.00,98.00              74.00,98.00 95.00,76.00 95.00,76.00              95.00,76.00 74.00,55.00 74.00,55.00 Z            M 383.00,59.30            C 378.71,60.11 374.64,61.10 371.09,63.80              361.32,71.23 360.31,86.89 361.87,98.00              362.76,104.36 364.33,111.07 369.19,115.67              374.86,121.05 383.56,121.98 391.00,120.67              408.73,117.56 410.17,100.36 410.00,86.00              409.80,69.34 400.58,57.61 383.00,59.30 Z            M 607.00,59.30            C 588.67,62.88 584.81,76.56 585.00,93.00              585.14,104.31 590.70,115.98 602.00,119.89              605.75,121.19 613.08,121.36 617.00,120.67              634.27,117.64 637.17,101.55 637.00,87.00              636.79,69.20 625.00,57.52 607.00,59.30 Z            M 970.00,59.30            C 964.64,60.35 960.06,62.00 956.21,66.10              946.11,76.86 946.11,105.62 957.09,115.79              962.74,121.02 970.64,121.92 978.00,120.68              1003.54,116.38 1000.46,77.79 991.61,67.04              986.15,60.41 978.22,58.50 970.00,59.30 Z            M 1152.00,83.00            C 1150.54,75.27 1149.52,68.62 1142.98,63.39              1134.46,56.57 1119.03,57.63 1111.33,65.33              1106.84,69.82 1104.56,76.81 1104.00,83.00              1104.00,83.00 1152.00,83.00 1152.00,83.00 Z" />
</svg>