<svg xmlns="http://www.w3.org/2000/svg" viewBox="-0.27 -0.5 147.54 154">
  <path id="jira-software" fill="#303030" stroke="none" stroke-width="1"
    d="M 73.00,0.00            C 79.09,4.36 88.31,14.31 94.00,20.00              94.00,20.00 131.00,57.00 131.00,57.00              135.43,61.43 148.04,71.38 146.67,78.00              145.67,82.83 132.07,94.93 128.00,99.00              128.00,99.00 93.00,134.00 93.00,134.00              87.45,139.55 79.01,148.70 73.00,153.00              73.00,153.00 17.00,97.00 17.00,97.00              12.46,92.46 -1.05,81.69 0.33,75.00              1.00,71.79 3.80,69.25 6.00,67.00              6.00,67.00 20.00,53.00 20.00,53.00              20.00,53.00 73.00,0.00 73.00,0.00 Z            M 74.00,55.00            C 68.47,58.96 55.96,71.47 52.00,77.00              52.00,77.00 74.00,98.00 74.00,98.00              74.00,98.00 95.00,76.00 95.00,76.00              95.00,76.00 74.00,55.00 74.00,55.00 Z" />
</svg>