<svg xmlns="http://www.w3.org/2000/svg" viewBox="-0.57 -0.29 2558.71 578.79">
  <path id="jquery-wordmark" fill="#303030" stroke="none" stroke-width="1"
    d="M 1007.00,0.21            C 1007.00,0.21 1049.00,0.21 1049.00,0.21              1059.37,0.13 1077.79,3.09 1088.00,5.63              1132.87,16.79 1171.33,42.17 1191.68,85.00              1200.81,104.22 1207.97,130.67 1208.00,152.00              1208.00,152.00 1208.00,168.00 1208.00,168.00              1207.98,183.94 1201.88,210.37 1197.42,226.00              1197.42,226.00 1170.31,308.00 1170.31,308.00              1170.31,308.00 1159.80,335.00 1159.80,335.00              1158.69,337.77 1155.64,344.11 1156.54,346.89              1157.80,350.82 1162.62,350.95 1166.00,351.00              1166.00,351.00 1191.00,351.00 1191.00,351.00              1193.77,351.00 1198.29,350.68 1200.40,352.74              1202.55,354.84 1202.01,359.31 1201.54,362.00              1201.54,362.00 1195.63,385.00 1195.63,385.00              1195.63,385.00 1186.15,421.00 1186.15,421.00              1184.88,425.71 1183.87,433.27 1179.79,436.26              1177.06,438.26 1161.11,438.99 1157.00,439.00              1157.00,439.00 973.00,439.00 973.00,439.00              973.00,439.00 934.00,439.00 934.00,439.00              934.00,439.00 922.00,438.08 922.00,438.08              887.39,435.31 852.71,424.07 827.04,399.83              802.48,376.65 788.05,334.41 788.00,301.00              788.00,301.00 788.00,272.00 788.00,272.00              788.03,253.24 794.48,221.59 799.13,203.00              814.83,140.20 844.62,76.28 899.00,38.04              925.24,19.59 953.51,8.72 985.00,3.25              985.00,3.25 1007.00,0.21 1007.00,0.21 Z            M 2298.00,255.00            C 2298.00,255.00 2376.00,141.00 2376.00,141.00              2376.00,141.00 2427.14,66.00 2427.14,66.00              2431.23,60.25 2438.39,47.55 2444.01,44.41              2448.40,41.97 2452.18,42.01 2457.00,42.00              2457.00,42.00 2549.00,42.00 2549.00,42.00              2550.70,42.00 2554.22,41.87 2555.69,42.60              2558.30,43.89 2557.84,46.75 2556.91,49.00              2555.68,51.99 2550.02,59.16 2547.79,62.00              2547.79,62.00 2505.63,118.00 2505.63,118.00              2505.63,118.00 2406.12,250.00 2406.12,250.00              2406.12,250.00 2355.63,317.00 2355.63,317.00              2355.63,317.00 2332.15,348.00 2332.15,348.00              2325.06,357.88 2323.02,368.42 2320.13,380.00              2320.13,380.00 2311.13,415.00 2311.13,415.00              2308.29,426.34 2308.65,437.80 2294.00,438.00              2294.00,438.00 2214.00,438.00 2214.00,438.00              2208.61,437.99 2202.31,438.29 2202.28,431.00              2202.27,427.77 2205.64,416.89 2206.63,413.00              2206.63,413.00 2215.87,377.00 2215.87,377.00              2217.21,371.69 2220.17,360.99 2220.40,356.00              2220.72,349.17 2215.78,334.19 2213.71,327.00              2213.71,327.00 2186.00,230.00 2186.00,230.00              2186.00,230.00 2180.30,210.00 2180.30,210.00              2179.42,206.76 2178.44,203.30 2181.43,200.74              2183.82,198.69 2188.02,199.00 2191.00,199.00              2191.00,199.00 2270.00,199.00 2270.00,199.00              2272.50,199.00 2275.62,198.90 2278.00,199.65              2285.84,202.14 2286.10,211.17 2287.65,218.00              2287.65,218.00 2295.02,250.00 2295.02,250.00              2295.88,252.29 2296.61,253.09 2298.00,255.00 Z            M 274.00,45.00            C 274.49,48.66 270.01,57.64 268.72,62.00              265.60,72.51 265.98,76.42 266.00,87.00              266.02,101.17 270.48,114.45 276.75,127.00              297.51,168.52 340.77,194.20 387.00,194.00              402.17,193.93 419.99,188.93 432.00,179.48              432.00,179.48 448.00,164.00 448.00,164.00              445.89,170.69 440.06,179.39 435.76,185.00              415.28,211.77 389.55,220.30 357.00,219.04              339.17,218.35 328.38,216.44 312.00,208.68              266.72,187.22 236.13,135.91 250.15,86.00              254.36,71.02 264.40,57.03 274.00,45.00 Z            M 178.00,66.00            C 178.00,66.00 180.00,66.00 180.00,66.00              180.00,66.00 173.43,80.00 173.43,80.00              168.12,92.41 163.16,110.49 163.00,124.00              162.77,144.28 163.79,157.40 170.03,177.00              192.23,246.79 261.55,298.79 334.00,304.09              334.00,304.09 344.00,305.00 344.00,305.00              344.00,305.00 357.00,304.09 357.00,304.09              383.93,302.12 410.40,293.29 432.00,276.76              445.69,266.29 454.21,253.82 460.00,249.00              457.29,266.25 439.10,289.90 427.00,302.00              401.45,327.55 368.82,341.22 333.00,344.08              333.00,344.08 321.00,345.00 321.00,345.00              321.00,345.00 306.00,345.00 306.00,345.00              297.48,344.99 276.19,342.62 268.00,340.52              259.06,338.24 239.17,330.11 231.00,325.69              211.20,314.99 191.22,299.73 176.17,283.00              140.51,243.38 123.65,185.79 138.43,134.00              144.55,112.53 155.03,98.79 167.71,81.00              167.71,81.00 178.00,66.00 178.00,66.00 Z            M 1769.00,87.21            C 1769.00,87.21 1792.00,87.21 1792.00,87.21              1792.00,87.21 1804.00,87.91 1804.00,87.91              1836.06,90.10 1872.89,96.61 1894.54,123.00              1912.24,144.59 1916.31,172.95 1916.00,200.00              1916.00,200.00 1915.09,210.00 1915.09,210.00              1913.60,231.66 1910.00,252.88 1904.87,274.00              1903.21,280.84 1901.62,294.33 1894.98,297.69              1892.03,299.18 1888.23,298.99 1885.00,299.00              1885.00,299.00 1723.00,299.00 1723.00,299.00              1723.00,299.00 1687.00,299.00 1687.00,299.00              1676.35,299.20 1673.80,306.74 1674.01,316.00              1674.73,346.98 1705.71,353.96 1731.00,354.00              1731.00,354.00 1869.00,354.00 1869.00,354.00              1873.56,354.01 1879.08,353.48 1880.56,359.04              1881.49,362.56 1878.44,374.80 1877.60,379.00              1877.60,379.00 1869.80,417.00 1869.80,417.00              1869.04,420.78 1866.69,433.29 1865.07,435.96              1861.88,441.21 1857.39,440.99 1852.00,441.00              1852.00,441.00 1818.00,441.00 1818.00,441.00              1818.00,441.00 1796.00,442.00 1796.00,442.00              1758.65,442.04 1704.30,443.97 1669.00,438.08              1642.41,433.65 1617.91,425.30 1599.09,405.00              1583.80,388.51 1578.93,368.64 1576.83,347.00              1576.83,347.00 1576.00,338.00 1576.00,338.00              1575.70,312.04 1579.99,286.30 1585.58,261.00              1597.08,208.89 1614.65,155.42 1659.00,121.90              1682.23,104.34 1710.47,94.85 1739.00,90.42              1739.00,90.42 1758.00,88.09 1758.00,88.09              1758.00,88.09 1769.00,87.21 1769.00,87.21 Z            M 1012.00,91.14            C 990.75,94.34 976.31,96.52 958.00,109.44              924.11,133.35 909.15,178.17 900.58,217.00              897.77,229.71 894.06,250.23 894.00,263.00              893.89,285.60 895.19,310.16 911.17,328.00              929.55,348.52 952.94,348.00 978.00,348.00              978.00,348.00 1046.00,348.00 1046.00,348.00              1049.29,347.99 1052.92,348.20 1055.90,346.55              1061.35,343.52 1063.31,331.85 1065.00,326.00              1065.00,326.00 1081.42,268.00 1081.42,268.00              1081.42,268.00 1089.00,241.00 1089.00,241.00              1089.00,241.00 1101.56,192.00 1101.56,192.00              1106.46,161.55 1104.14,125.32 1077.00,105.49              1070.70,100.88 1065.32,98.47 1058.00,96.00              1049.21,93.04 1037.27,91.01 1028.00,91.14              1028.00,91.14 1012.00,91.14 1012.00,91.14 Z            M 687.00,91.57            C 687.00,91.57 715.00,91.00 715.00,91.00              715.00,91.00 766.00,91.00 766.00,91.00              770.56,91.01 776.08,90.48 777.56,96.04              778.54,99.76 775.37,111.72 774.42,116.00              774.42,116.00 765.88,155.00 765.88,155.00              764.89,159.29 763.38,168.48 761.00,171.79              757.77,176.27 752.90,175.99 748.00,176.00              748.00,176.00 675.00,176.00 675.00,176.00              670.48,175.99 665.71,176.45 664.31,170.98              663.22,166.72 666.47,154.70 667.63,150.00              667.63,150.00 676.88,109.00 676.88,109.00              678.71,101.04 678.37,94.98 687.00,91.57 Z            M 1287.00,92.74            C 1292.65,91.37 1306.48,92.00 1313.00,92.00              1313.00,92.00 1362.00,92.00 1362.00,92.00              1365.36,92.01 1369.87,91.60 1372.43,94.43              1374.85,97.50 1373.31,102.46 1372.43,106.00              1372.43,106.00 1367.00,134.00 1367.00,134.00              1367.00,134.00 1346.40,235.00 1346.40,235.00              1346.40,235.00 1339.79,270.00 1339.79,270.00              1334.20,296.44 1321.24,339.30 1356.00,350.64              1360.54,352.12 1366.22,352.94 1371.00,353.00              1371.00,353.00 1422.00,353.00 1422.00,353.00              1425.48,352.99 1428.91,353.27 1431.96,351.26              1436.74,348.11 1437.55,343.16 1438.60,338.00              1438.60,338.00 1444.00,313.00 1444.00,313.00              1444.00,313.00 1472.60,181.00 1472.60,181.00              1472.60,181.00 1487.35,113.00 1487.35,113.00              1489.88,101.81 1488.68,92.19 1503.00,92.00              1503.00,92.00 1569.00,92.00 1569.00,92.00              1573.27,92.01 1578.48,91.61 1580.79,96.11              1582.45,99.35 1580.17,107.38 1579.35,111.00              1579.35,111.00 1571.65,147.00 1571.65,147.00              1571.65,147.00 1555.58,223.00 1555.58,223.00              1555.58,223.00 1533.60,326.00 1533.60,326.00              1533.60,326.00 1515.65,410.00 1515.65,410.00              1514.12,416.79 1512.82,432.15 1506.89,435.91              1503.39,438.14 1498.99,437.99 1495.00,438.00              1495.00,438.00 1341.00,438.00 1341.00,438.00              1341.00,438.00 1331.00,437.09 1331.00,437.09              1318.49,436.23 1310.30,435.66 1298.00,432.14              1290.82,430.08 1281.26,425.92 1275.00,421.91              1249.94,405.84 1239.99,378.39 1237.91,350.00              1237.91,350.00 1237.00,338.00 1237.00,338.00              1236.94,301.25 1244.12,273.40 1251.20,238.00              1251.20,238.00 1260.35,195.00 1260.35,195.00              1260.35,195.00 1276.35,119.00 1276.35,119.00              1278.36,110.10 1278.08,97.54 1287.00,92.74 Z            M 1997.02,93.74            C 2002.47,92.41 2011.14,93.00 2017.00,93.00              2017.00,93.00 2052.00,93.00 2052.00,93.00              2052.00,93.00 2165.00,93.00 2165.00,93.00              2188.51,93.00 2220.68,90.81 2242.00,100.89              2265.77,112.13 2267.56,131.74 2273.13,154.00              2274.55,159.68 2280.10,174.28 2273.85,177.98              2271.80,179.19 2268.35,179.00 2266.00,179.00              2266.00,179.00 2081.00,179.00 2081.00,179.00              2078.48,179.00 2075.40,178.89 2073.00,179.65              2063.39,182.67 2063.43,195.58 2061.58,204.00              2061.58,204.00 2044.80,282.00 2044.80,282.00              2044.80,282.00 2020.42,401.00 2020.42,401.00              2020.42,401.00 2015.80,424.00 2015.80,424.00              2014.96,428.20 2014.51,432.61 2010.87,435.44              2007.37,438.16 2002.21,437.99 1998.00,438.00              1998.00,438.00 1932.00,438.00 1932.00,438.00              1930.14,437.97 1927.80,437.96 1926.02,437.43              1917.90,435.00 1921.77,423.95 1923.00,418.00              1923.00,418.00 1935.00,362.00 1935.00,362.00              1935.00,362.00 1962.58,233.00 1962.58,233.00              1962.58,233.00 1978.12,160.00 1978.12,160.00              1978.12,160.00 1988.35,112.00 1988.35,112.00              1990.03,104.57 1989.63,97.81 1997.02,93.74 Z            M 60.00,108.00            C 60.97,111.89 58.95,114.47 57.42,118.00              57.42,118.00 50.14,137.00 50.14,137.00              43.27,160.40 41.72,175.79 42.00,200.00              42.32,227.06 52.70,261.90 64.75,286.00              97.61,351.72 158.19,402.37 229.00,422.57              242.35,426.38 270.27,430.98 284.00,431.00              284.00,431.00 308.00,431.00 308.00,431.00              314.67,430.99 321.40,430.05 328.00,429.13              360.68,424.59 390.41,414.02 417.00,394.11              431.97,382.89 442.80,368.65 449.00,364.00              447.01,372.46 440.45,383.66 435.66,391.00              425.94,405.88 419.69,414.31 407.00,427.00              374.37,459.63 335.58,478.82 290.00,485.57              272.18,488.21 254.96,488.21 237.00,488.00              237.00,488.00 227.00,487.09 227.00,487.09              197.49,484.93 179.12,480.21 152.00,468.14              79.14,435.70 21.69,369.30 4.42,291.00              -0.64,268.04 -0.11,255.92 0.00,233.00              0.12,206.95 12.18,172.41 26.75,151.00              26.75,151.00 60.00,108.00 60.00,108.00 Z            M 1752.00,171.14            C 1741.82,172.84 1729.84,175.65 1721.00,181.07              1715.31,184.55 1709.66,188.93 1705.30,194.00              1699.95,200.22 1695.89,207.41 1692.80,215.00              1691.76,217.77 1690.27,221.75 1692.80,224.26              1694.78,226.34 1699.28,226.00 1702.00,226.00              1702.00,226.00 1803.00,226.00 1803.00,226.00              1815.54,225.98 1817.98,223.55 1818.00,211.00              1818.00,211.00 1818.00,207.00 1818.00,207.00              1817.95,202.73 1817.59,200.09 1816.25,196.00              1810.28,177.80 1790.60,171.08 1773.00,171.14              1773.00,171.14 1752.00,171.14 1752.00,171.14 Z            M 660.04,199.85            C 665.79,198.25 681.20,199.00 688.00,199.00              688.00,199.00 743.00,199.00 743.00,199.00              745.76,199.00 750.18,198.65 752.26,200.74              754.54,203.01 753.88,207.16 753.39,210.00              753.39,210.00 748.88,231.00 748.88,231.00              748.88,231.00 726.65,334.00 726.65,334.00              726.65,334.00 708.21,419.00 708.21,419.00              702.40,446.34 697.20,471.70 687.19,498.00              675.21,529.49 659.95,555.29 628.00,569.69              611.67,577.05 587.80,578.03 570.00,578.00              570.00,578.00 553.00,577.00 553.00,577.00              553.00,577.00 517.00,577.00 517.00,577.00              510.51,576.88 507.55,575.02 508.18,568.00              508.18,568.00 521.00,513.00 521.00,513.00              522.13,507.71 524.25,494.97 528.22,491.65              532.79,487.84 545.02,488.93 551.00,488.92              556.69,489.07 559.21,490.38 565.00,488.92              580.20,484.80 591.42,467.69 597.42,454.00              604.95,436.82 606.41,425.87 610.21,408.00              610.21,408.00 621.79,354.00 621.79,354.00              621.79,354.00 647.00,240.00 647.00,240.00              647.00,240.00 653.12,213.00 653.12,213.00              654.52,206.93 654.25,203.31 660.04,199.85 Z" />
</svg>