<svg xmlns="http://www.w3.org/2000/svg" viewBox="-0.57 44.5 461.07 444.08">
  <path id="jquery" fill="#303030" stroke="none" stroke-width="1"
    d="M 274.00,45.00            C 274.49,48.66 270.01,57.64 268.72,62.00              265.60,72.51 265.98,76.42 266.00,87.00              266.02,101.17 270.48,114.45 276.75,127.00              297.51,168.52 340.77,194.20 387.00,194.00              402.17,193.93 419.99,188.93 432.00,179.48              432.00,179.48 448.00,164.00 448.00,164.00              445.89,170.69 440.06,179.39 435.76,185.00              415.28,211.77 389.55,220.30 357.00,219.04              339.17,218.35 328.38,216.44 312.00,208.68              266.72,187.22 236.13,135.91 250.15,86.00              254.36,71.02 264.40,57.03 274.00,45.00 Z            M 178.00,66.00            C 178.00,66.00 180.00,66.00 180.00,66.00              180.00,66.00 173.43,80.00 173.43,80.00              168.12,92.41 163.16,110.49 163.00,124.00              162.77,144.28 163.79,157.40 170.03,177.00              192.23,246.79 261.55,298.79 334.00,304.09              334.00,304.09 344.00,305.00 344.00,305.00              344.00,305.00 357.00,304.09 357.00,304.09              383.93,302.12 410.40,293.29 432.00,276.76              445.69,266.29 454.21,253.82 460.00,249.00              457.29,266.25 439.10,289.90 427.00,302.00              401.45,327.55 368.82,341.22 333.00,344.08              333.00,344.08 321.00,345.00 321.00,345.00              321.00,345.00 306.00,345.00 306.00,345.00              297.48,344.99 276.19,342.62 268.00,340.52              259.06,338.24 239.17,330.11 231.00,325.69              211.20,314.99 191.22,299.73 176.17,283.00              140.51,243.38 123.65,185.79 138.43,134.00              144.55,112.53 155.03,98.79 167.71,81.00              167.71,81.00 178.00,66.00 178.00,66.00 Z            M 60.00,108.00            C 60.97,111.89 58.95,114.47 57.42,118.00              57.42,118.00 50.14,137.00 50.14,137.00              43.27,160.40 41.72,175.79 42.00,200.00              42.32,227.06 52.70,261.90 64.75,286.00              97.61,351.72 158.19,402.37 229.00,422.57              242.35,426.38 270.27,430.98 284.00,431.00              284.00,431.00 308.00,431.00 308.00,431.00              314.67,430.99 321.40,430.05 328.00,429.13              360.68,424.59 390.41,414.02 417.00,394.11              431.97,382.89 442.80,368.65 449.00,364.00              447.01,372.46 440.45,383.66 435.66,391.00              425.94,405.88 419.69,414.31 407.00,427.00              374.37,459.63 335.58,478.82 290.00,485.57              272.18,488.21 254.96,488.21 237.00,488.00              237.00,488.00 227.00,487.09 227.00,487.09              197.49,484.93 179.12,480.21 152.00,468.14              79.14,435.70 21.69,369.30 4.42,291.00              -0.64,268.04 -0.11,255.92 0.00,233.00              0.12,206.95 12.18,172.41 26.75,151.00              26.75,151.00 60.00,108.00 60.00,108.00 Z" />
</svg>