<svg xmlns="http://www.w3.org/2000/svg" viewBox="-0.57 -0.29 2558.71 625.79">
  <path id="Selection" fill="#303030" stroke="none" stroke-width="1" d="M 1007.00,0.21            C 1007.00,0.21 1049.00,0.21 1049.00,0.21              1059.37,0.13 1077.79,3.09 1088.00,5.63              1132.87,16.79 1171.33,42.17 1191.68,85.00              1200.81,104.22 1207.97,130.67 1208.00,152.00              1208.00,152.00 1208.00,168.00 1208.00,168.00              1207.98,183.94 1201.88,210.37 1197.42,226.00              1197.42,226.00 1170.31,308.00 1170.31,308.00              1170.31,308.00 1159.80,335.00 1159.80,335.00              1158.69,337.77 1155.64,344.11 1156.54,346.89              1157.80,350.82 1162.62,350.95 1166.00,351.00              1166.00,351.00 1191.00,351.00 1191.00,351.00              1193.77,351.00 1198.29,350.68 1200.40,352.74              1202.55,354.84 1202.01,359.31 1201.54,362.00              1201.54,362.00 1195.63,385.00 1195.63,385.00              1195.63,385.00 1186.15,421.00 1186.15,421.00              1184.88,425.71 1183.87,433.27 1179.79,436.26              1177.06,438.26 1161.11,438.99 1157.00,439.00              1157.00,439.00 973.00,439.00 973.00,439.00              973.00,439.00 934.00,439.00 934.00,439.00              934.00,439.00 922.00,438.08 922.00,438.08              887.39,435.31 852.71,424.07 827.04,399.83              802.48,376.65 788.05,334.41 788.00,301.00              788.00,301.00 788.00,272.00 788.00,272.00              788.03,253.24 794.48,221.59 799.13,203.00              814.83,140.20 844.62,76.28 899.00,38.04              925.24,19.59 953.51,8.72 985.00,3.25              985.00,3.25 1007.00,0.21 1007.00,0.21 Z            M 2298.00,255.00            C 2298.00,255.00 2376.00,141.00 2376.00,141.00              2376.00,141.00 2427.14,66.00 2427.14,66.00              2431.23,60.25 2438.39,47.55 2444.01,44.41              2448.40,41.97 2452.18,42.01 2457.00,42.00              2457.00,42.00 2549.00,42.00 2549.00,42.00              2550.70,42.00 2554.22,41.87 2555.69,42.60              2558.30,43.89 2557.84,46.75 2556.91,49.00              2555.68,51.99 2550.02,59.16 2547.79,62.00              2547.79,62.00 2505.63,118.00 2505.63,118.00              2505.63,118.00 2406.12,250.00 2406.12,250.00              2406.12,250.00 2355.63,317.00 2355.63,317.00              2355.63,317.00 2332.15,348.00 2332.15,348.00              2325.06,357.88 2323.02,368.42 2320.13,380.00              2320.13,380.00 2311.13,415.00 2311.13,415.00              2308.29,426.34 2308.65,437.80 2294.00,438.00              2294.00,438.00 2214.00,438.00 2214.00,438.00              2208.61,437.99 2202.31,438.29 2202.28,431.00              2202.27,427.77 2205.64,416.89 2206.63,413.00              2206.63,413.00 2215.87,377.00 2215.87,377.00              2217.21,371.69 2220.17,360.99 2220.40,356.00              2220.72,349.17 2215.78,334.19 2213.71,327.00              2213.71,327.00 2186.00,230.00 2186.00,230.00              2186.00,230.00 2180.30,210.00 2180.30,210.00              2179.42,206.76 2178.44,203.30 2181.43,200.74              2183.82,198.69 2188.02,199.00 2191.00,199.00              2191.00,199.00 2270.00,199.00 2270.00,199.00              2272.50,199.00 2275.62,198.90 2278.00,199.65              2285.84,202.14 2286.10,211.17 2287.65,218.00              2287.65,218.00 2295.02,250.00 2295.02,250.00              2295.88,252.29 2296.61,253.09 2298.00,255.00 Z            M 274.00,45.00            C 274.49,48.66 270.01,57.64 268.72,62.00              265.60,72.51 265.98,76.42 266.00,87.00              266.02,101.17 270.48,114.45 276.75,127.00              297.51,168.52 340.77,194.20 387.00,194.00              402.17,193.93 419.99,188.93 432.00,179.48              432.00,179.48 448.00,164.00 448.00,164.00              445.89,170.69 440.06,179.39 435.76,185.00              415.28,211.77 389.55,220.30 357.00,219.04              339.17,218.35 328.38,216.44 312.00,208.68              266.72,187.22 236.13,135.91 250.15,86.00              254.36,71.02 264.40,57.03 274.00,45.00 Z            M 178.00,66.00            C 178.00,66.00 180.00,66.00 180.00,66.00              180.00,66.00 173.43,80.00 173.43,80.00              168.12,92.41 163.16,110.49 163.00,124.00              162.77,144.28 163.79,157.40 170.03,177.00              192.23,246.79 261.55,298.79 334.00,304.09              334.00,304.09 344.00,305.00 344.00,305.00              344.00,305.00 357.00,304.09 357.00,304.09              383.93,302.12 410.40,293.29 432.00,276.76              445.69,266.29 454.21,253.82 460.00,249.00              457.29,266.25 439.10,289.90 427.00,302.00              401.45,327.55 368.82,341.22 333.00,344.08              333.00,344.08 321.00,345.00 321.00,345.00              321.00,345.00 306.00,345.00 306.00,345.00              297.48,344.99 276.19,342.62 268.00,340.52              259.06,338.24 239.17,330.11 231.00,325.69              211.20,314.99 191.22,299.73 176.17,283.00              140.51,243.38 123.65,185.79 138.43,134.00              144.55,112.53 155.03,98.79 167.71,81.00              167.71,81.00 178.00,66.00 178.00,66.00 Z            M 1769.00,87.21            C 1769.00,87.21 1792.00,87.21 1792.00,87.21              1792.00,87.21 1804.00,87.91 1804.00,87.91              1836.06,90.10 1872.89,96.61 1894.54,123.00              1912.24,144.59 1916.31,172.95 1916.00,200.00              1916.00,200.00 1915.09,210.00 1915.09,210.00              1913.60,231.66 1910.00,252.88 1904.87,274.00              1903.21,280.84 1901.62,294.33 1894.98,297.69              1892.03,299.18 1888.23,298.99 1885.00,299.00              1885.00,299.00 1723.00,299.00 1723.00,299.00              1723.00,299.00 1687.00,299.00 1687.00,299.00              1676.35,299.20 1673.80,306.74 1674.01,316.00              1674.73,346.98 1705.71,353.96 1731.00,354.00              1731.00,354.00 1869.00,354.00 1869.00,354.00              1873.56,354.01 1879.08,353.48 1880.56,359.04              1881.49,362.56 1878.44,374.80 1877.60,379.00              1877.60,379.00 1869.80,417.00 1869.80,417.00              1869.04,420.78 1866.69,433.29 1865.07,435.96              1861.88,441.21 1857.39,440.99 1852.00,441.00              1852.00,441.00 1818.00,441.00 1818.00,441.00              1818.00,441.00 1796.00,442.00 1796.00,442.00              1758.65,442.04 1704.30,443.97 1669.00,438.08              1642.41,433.65 1617.91,425.30 1599.09,405.00              1583.80,388.51 1578.93,368.64 1576.83,347.00              1576.83,347.00 1576.00,338.00 1576.00,338.00              1575.70,312.04 1579.99,286.30 1585.58,261.00              1597.08,208.89 1614.65,155.42 1659.00,121.90              1682.23,104.34 1710.47,94.85 1739.00,90.42              1739.00,90.42 1758.00,88.09 1758.00,88.09              1758.00,88.09 1769.00,87.21 1769.00,87.21 Z            M 1012.00,91.14            C 990.75,94.34 976.31,96.52 958.00,109.44              924.11,133.35 909.15,178.17 900.58,217.00              897.77,229.71 894.06,250.23 894.00,263.00              893.89,285.60 895.19,310.16 911.17,328.00              929.55,348.52 952.94,348.00 978.00,348.00              978.00,348.00 1046.00,348.00 1046.00,348.00              1049.29,347.99 1052.92,348.20 1055.90,346.55              1061.35,343.52 1063.31,331.85 1065.00,326.00              1065.00,326.00 1081.42,268.00 1081.42,268.00              1081.42,268.00 1089.00,241.00 1089.00,241.00              1089.00,241.00 1101.56,192.00 1101.56,192.00              1106.46,161.55 1104.14,125.32 1077.00,105.49              1070.70,100.88 1065.32,98.47 1058.00,96.00              1049.21,93.04 1037.27,91.01 1028.00,91.14              1028.00,91.14 1012.00,91.14 1012.00,91.14 Z            M 687.00,91.57            C 687.00,91.57 715.00,91.00 715.00,91.00              715.00,91.00 766.00,91.00 766.00,91.00              770.56,91.01 776.08,90.48 777.56,96.04              778.54,99.76 775.37,111.72 774.42,116.00              774.42,116.00 765.88,155.00 765.88,155.00              764.89,159.29 763.38,168.48 761.00,171.79              757.77,176.27 752.90,175.99 748.00,176.00              748.00,176.00 675.00,176.00 675.00,176.00              670.48,175.99 665.71,176.45 664.31,170.98              663.22,166.72 666.47,154.70 667.63,150.00              667.63,150.00 676.88,109.00 676.88,109.00              678.71,101.04 678.37,94.98 687.00,91.57 Z            M 1287.00,92.74            C 1292.65,91.37 1306.48,92.00 1313.00,92.00              1313.00,92.00 1362.00,92.00 1362.00,92.00              1365.36,92.01 1369.87,91.60 1372.43,94.43              1374.85,97.50 1373.31,102.46 1372.43,106.00              1372.43,106.00 1367.00,134.00 1367.00,134.00              1367.00,134.00 1346.40,235.00 1346.40,235.00              1346.40,235.00 1339.79,270.00 1339.79,270.00              1334.20,296.44 1321.24,339.30 1356.00,350.64              1360.54,352.12 1366.22,352.94 1371.00,353.00              1371.00,353.00 1422.00,353.00 1422.00,353.00              1425.48,352.99 1428.91,353.27 1431.96,351.26              1436.74,348.11 1437.55,343.16 1438.60,338.00              1438.60,338.00 1444.00,313.00 1444.00,313.00              1444.00,313.00 1472.60,181.00 1472.60,181.00              1472.60,181.00 1487.35,113.00 1487.35,113.00              1489.88,101.81 1488.68,92.19 1503.00,92.00              1503.00,92.00 1569.00,92.00 1569.00,92.00              1573.27,92.01 1578.48,91.61 1580.79,96.11              1582.45,99.35 1580.17,107.38 1579.35,111.00              1579.35,111.00 1571.65,147.00 1571.65,147.00              1571.65,147.00 1555.58,223.00 1555.58,223.00              1555.58,223.00 1533.60,326.00 1533.60,326.00              1533.60,326.00 1515.65,410.00 1515.65,410.00              1514.12,416.79 1512.82,432.15 1506.89,435.91              1503.39,438.14 1498.99,437.99 1495.00,438.00              1495.00,438.00 1341.00,438.00 1341.00,438.00              1341.00,438.00 1331.00,437.09 1331.00,437.09              1318.49,436.23 1310.30,435.66 1298.00,432.14              1290.82,430.08 1281.26,425.92 1275.00,421.91              1249.94,405.84 1239.99,378.39 1237.91,350.00              1237.91,350.00 1237.00,338.00 1237.00,338.00              1236.94,301.25 1244.12,273.40 1251.20,238.00              1251.20,238.00 1260.35,195.00 1260.35,195.00              1260.35,195.00 1276.35,119.00 1276.35,119.00              1278.36,110.10 1278.08,97.54 1287.00,92.74 Z            M 1997.02,93.74            C 2002.47,92.41 2011.14,93.00 2017.00,93.00              2017.00,93.00 2052.00,93.00 2052.00,93.00              2052.00,93.00 2165.00,93.00 2165.00,93.00              2188.51,93.00 2220.68,90.81 2242.00,100.89              2265.77,112.13 2267.56,131.74 2273.13,154.00              2274.55,159.68 2280.10,174.28 2273.85,177.98              2271.80,179.19 2268.35,179.00 2266.00,179.00              2266.00,179.00 2081.00,179.00 2081.00,179.00              2078.48,179.00 2075.40,178.89 2073.00,179.65              2063.39,182.67 2063.43,195.58 2061.58,204.00              2061.58,204.00 2044.80,282.00 2044.80,282.00              2044.80,282.00 2020.42,401.00 2020.42,401.00              2020.42,401.00 2015.80,424.00 2015.80,424.00              2014.96,428.20 2014.51,432.61 2010.87,435.44              2007.37,438.16 2002.21,437.99 1998.00,438.00              1998.00,438.00 1932.00,438.00 1932.00,438.00              1930.14,437.97 1927.80,437.96 1926.02,437.43              1917.90,435.00 1921.77,423.95 1923.00,418.00              1923.00,418.00 1935.00,362.00 1935.00,362.00              1935.00,362.00 1962.58,233.00 1962.58,233.00              1962.58,233.00 1978.12,160.00 1978.12,160.00              1978.12,160.00 1988.35,112.00 1988.35,112.00              1990.03,104.57 1989.63,97.81 1997.02,93.74 Z            M 60.00,108.00            C 60.97,111.89 58.95,114.47 57.42,118.00              57.42,118.00 50.14,137.00 50.14,137.00              43.27,160.40 41.72,175.79 42.00,200.00              42.32,227.06 52.70,261.90 64.75,286.00              97.61,351.72 158.19,402.37 229.00,422.57              242.35,426.38 270.27,430.98 284.00,431.00              284.00,431.00 308.00,431.00 308.00,431.00              314.67,430.99 321.40,430.05 328.00,429.13              360.68,424.59 390.41,414.02 417.00,394.11              431.97,382.89 442.80,368.65 449.00,364.00              447.01,372.46 440.45,383.66 435.66,391.00              425.94,405.88 419.69,414.31 407.00,427.00              374.37,459.63 335.58,478.82 290.00,485.57              272.18,488.21 254.96,488.21 237.00,488.00              237.00,488.00 227.00,487.09 227.00,487.09              197.49,484.93 179.12,480.21 152.00,468.14              79.14,435.70 21.69,369.30 4.42,291.00              -0.64,268.04 -0.11,255.92 0.00,233.00              0.12,206.95 12.18,172.41 26.75,151.00              26.75,151.00 60.00,108.00 60.00,108.00 Z            M 1752.00,171.14            C 1741.82,172.84 1729.84,175.65 1721.00,181.07              1715.31,184.55 1709.66,188.93 1705.30,194.00              1699.95,200.22 1695.89,207.41 1692.80,215.00              1691.76,217.77 1690.27,221.75 1692.80,224.26              1694.78,226.34 1699.28,226.00 1702.00,226.00              1702.00,226.00 1803.00,226.00 1803.00,226.00              1815.54,225.98 1817.98,223.55 1818.00,211.00              1818.00,211.00 1818.00,207.00 1818.00,207.00              1817.95,202.73 1817.59,200.09 1816.25,196.00              1810.28,177.80 1790.60,171.08 1773.00,171.14              1773.00,171.14 1752.00,171.14 1752.00,171.14 Z            M 660.04,199.85            C 665.79,198.25 681.20,199.00 688.00,199.00              688.00,199.00 743.00,199.00 743.00,199.00              745.76,199.00 750.18,198.65 752.26,200.74              754.54,203.01 753.88,207.16 753.39,210.00              753.39,210.00 748.88,231.00 748.88,231.00              748.88,231.00 726.65,334.00 726.65,334.00              726.65,334.00 708.21,419.00 708.21,419.00              702.40,446.34 697.20,471.70 687.19,498.00              675.21,529.49 659.95,555.29 628.00,569.69              611.67,577.05 587.80,578.03 570.00,578.00              570.00,578.00 553.00,577.00 553.00,577.00              553.00,577.00 517.00,577.00 517.00,577.00              510.51,576.88 507.55,575.02 508.18,568.00              508.18,568.00 521.00,513.00 521.00,513.00              522.13,507.71 524.25,494.97 528.22,491.65              532.79,487.84 545.02,488.93 551.00,488.92              556.69,489.07 559.21,490.38 565.00,488.92              580.20,484.80 591.42,467.69 597.42,454.00              604.95,436.82 606.41,425.87 610.21,408.00              610.21,408.00 621.79,354.00 621.79,354.00              621.79,354.00 647.00,240.00 647.00,240.00              647.00,240.00 653.12,213.00 653.12,213.00              654.52,206.93 654.25,203.31 660.04,199.85 Z            M 1299.00,517.57            C 1302.62,516.91 1309.59,516.20 1312.57,518.74              1316.54,522.12 1317.07,537.27 1302.00,538.24              1299.18,538.42 1294.66,538.17 1292.43,536.26              1287.84,532.33 1289.69,521.25 1299.00,517.57 Z            M 1476.00,536.00            C 1476.07,532.69 1476.75,524.02 1478.93,521.60              1480.72,519.62 1484.55,520.00 1487.00,520.00              1487.00,520.00 1509.00,520.00 1509.00,520.00              1509.00,520.00 1494.58,589.00 1494.58,589.00              1494.58,589.00 1489.00,616.00 1489.00,616.00              1489.00,616.00 1472.00,616.00 1472.00,616.00              1472.00,616.00 1475.30,588.00 1475.30,588.00              1475.30,588.00 1480.60,563.00 1480.60,563.00              1481.33,559.37 1485.45,542.44 1484.94,540.14              1484.11,536.46 1479.01,536.26 1476.00,536.00 Z            M 1845.00,520.00            C 1845.00,520.00 1862.00,520.00 1862.00,520.00              1862.00,520.00 1849.58,579.00 1849.58,579.00              1849.58,579.00 1842.00,615.85 1842.00,615.85              1842.00,615.85 1829.09,615.85 1829.09,615.85              1826.09,614.96 1825.09,613.00 1821.96,613.07              1816.68,613.18 1804.71,620.06 1793.00,614.43              1785.16,610.66 1782.63,601.10 1783.09,593.00              1783.79,580.67 1788.57,562.31 1797.44,553.44              1804.41,546.47 1813.37,544.21 1823.00,545.17              1825.89,545.46 1833.54,547.67 1835.70,546.68              1837.92,545.66 1838.66,542.15 1839.29,540.00              1839.29,540.00 1845.00,520.00 1845.00,520.00 Z            M 1312.00,562.00            C 1312.08,558.47 1312.85,548.27 1316.31,546.60              1318.77,545.41 1322.75,546.84 1325.49,544.40              1328.23,541.98 1330.01,532.84 1332.08,530.57              1334.39,528.05 1345.39,529.00 1349.00,529.00              1349.00,529.00 1345.00,546.00 1345.00,546.00              1345.00,546.00 1364.00,546.00 1364.00,546.00              1364.00,546.00 1361.00,562.00 1361.00,562.00              1361.00,562.00 1341.00,564.00 1341.00,564.00              1341.00,564.00 1336.52,587.00 1336.52,587.00              1335.81,589.79 1334.48,594.07 1336.52,596.44              1339.51,599.66 1348.86,599.00 1353.00,599.00              1352.85,602.18 1352.20,610.11 1350.15,612.44              1348.48,614.33 1344.42,615.04 1342.00,615.58              1334.17,617.31 1321.25,618.27 1316.69,609.91              1312.78,602.76 1317.64,584.11 1319.42,576.00              1319.93,573.70 1321.49,568.24 1320.96,566.14              1320.08,562.61 1314.96,562.40 1312.00,562.00 Z            M 1239.00,550.00            C 1247.29,545.76 1264.62,541.41 1269.11,553.00              1271.47,559.10 1268.86,570.52 1268.00,577.00              1268.00,577.00 1249.20,577.00 1249.20,577.00              1249.48,574.31 1250.53,569.78 1249.20,567.23              1247.69,563.38 1240.52,562.94 1238.16,566.31              1236.88,568.14 1235.14,577.32 1234.60,580.00              1234.60,580.00 1228.00,604.00 1228.00,604.00              1227.11,606.70 1225.63,613.46 1223.49,614.98              1221.23,616.58 1211.20,616.00 1208.00,616.00              1208.00,616.00 1222.00,546.00 1222.00,546.00              1222.00,546.00 1237.28,546.99 1237.28,546.99              1237.28,546.99 1239.00,550.00 1239.00,550.00 Z            M 1422.00,598.00            C 1421.86,601.08 1421.10,609.02 1419.10,611.28              1417.05,613.58 1409.15,614.56 1406.00,615.08              1394.24,617.02 1373.68,618.92 1365.65,607.96              1360.34,600.72 1361.88,589.21 1363.66,581.00              1365.44,572.78 1367.79,563.55 1373.33,557.01              1383.19,545.37 1403.98,542.06 1418.00,547.10              1430.67,551.66 1431.24,562.58 1429.95,574.00              1429.58,577.28 1428.74,585.86 1425.57,587.43              1424.24,588.08 1421.51,587.99 1420.00,588.00              1420.00,588.00 1392.00,588.00 1392.00,588.00              1389.17,588.01 1382.51,587.41 1383.20,592.04              1383.46,593.74 1384.77,595.20 1386.13,596.15              1389.15,598.23 1393.48,597.99 1397.00,598.00              1397.00,598.00 1422.00,598.00 1422.00,598.00 Z            M 1566.00,598.00            C 1565.86,601.08 1565.10,609.02 1563.10,611.28              1560.96,613.68 1552.31,614.71 1549.00,615.25              1536.77,617.23 1515.43,618.72 1508.41,606.00              1504.59,599.05 1505.91,589.44 1507.40,582.00              1509.31,572.44 1511.43,563.50 1518.18,556.02              1528.13,544.99 1553.20,540.95 1566.00,548.99              1575.31,554.84 1575.09,567.25 1573.56,577.00              1572.09,586.41 1571.57,587.89 1565.00,588.00              1565.00,588.00 1526.00,588.00 1526.00,588.00              1526.98,596.43 1531.24,597.90 1539.00,598.00              1539.00,598.00 1566.00,598.00 1566.00,598.00 Z            M 1583.00,587.00            C 1582.64,579.15 1581.69,572.90 1584.22,565.00              1585.98,559.51 1589.31,555.34 1594.00,552.05              1608.84,541.68 1628.49,545.99 1645.00,549.00              1645.00,549.00 1642.00,563.00 1642.00,563.00              1642.00,563.00 1619.00,563.83 1619.00,563.83              1610.44,564.65 1606.03,562.77 1603.00,573.00              1603.00,573.00 1639.00,576.00 1639.00,576.00              1639.00,591.69 1638.96,604.56 1623.00,612.73              1612.25,618.23 1600.54,617.50 1589.00,615.57              1586.54,615.15 1579.45,614.17 1578.01,612.27              1576.39,610.13 1578.61,601.91 1579.00,599.00              1579.00,599.00 1603.00,599.00 1603.00,599.00              1606.70,598.95 1611.76,598.65 1614.77,596.28              1617.41,594.21 1617.64,592.07 1618.00,589.00              1618.00,589.00 1583.00,587.00 1583.00,587.00 Z            M 1650.00,587.00            C 1650.00,579.52 1649.44,571.09 1652.13,564.00              1661.25,539.90 1692.58,545.35 1712.00,549.00              1712.00,549.00 1710.00,563.00 1710.00,563.00              1710.00,563.00 1686.00,563.83 1686.00,563.83              1678.20,564.58 1673.11,563.09 1671.00,573.00              1671.00,573.00 1707.00,576.00 1707.00,576.00              1706.86,582.50 1705.85,595.37 1703.00,601.00              1692.54,621.72 1662.41,617.88 1644.00,613.00              1644.38,610.27 1645.71,601.60 1647.73,599.99              1649.07,598.93 1651.38,599.03 1653.00,599.00              1660.54,598.88 1677.29,600.71 1682.73,595.58              1684.86,593.57 1685.30,591.70 1686.00,589.00              1686.00,589.00 1650.00,587.00 1650.00,587.00 Z            M 1901.00,545.51            C 1909.37,545.35 1919.73,546.55 1925.61,553.18              1930.62,558.84 1930.08,565.99 1930.00,573.00              1929.87,583.44 1925.32,597.00 1918.53,604.96              1911.70,612.98 1900.19,616.21 1890.00,616.91              1880.28,617.58 1868.56,615.47 1862.65,607.00              1855.08,596.15 1860.89,572.28 1867.55,562.00              1876.43,548.28 1886.31,547.09 1901.00,545.51 Z            M 1970.00,616.00            C 1970.00,616.00 1980.20,567.00 1980.20,567.00              1980.82,563.91 1983.57,549.23 1984.98,547.60              1986.74,545.55 1991.47,545.96 1994.00,546.00              2001.50,546.13 2000.02,548.44 2003.32,548.54              2006.00,548.63 2013.30,544.60 2020.00,545.19              2027.01,545.80 2029.05,549.57 2032.28,549.51              2032.28,549.51 2043.00,546.24 2043.00,546.24              2053.91,543.67 2066.29,545.30 2069.32,558.00              2070.02,560.94 2070.05,563.99 2069.99,567.00              2069.99,567.00 2061.00,616.00 2061.00,616.00              2061.00,616.00 2044.00,616.00 2044.00,616.00              2044.00,616.00 2048.23,582.00 2048.23,582.00              2049.04,577.75 2051.22,571.09 2048.23,567.39              2045.04,563.36 2038.62,564.00 2034.00,564.00              2034.00,581.33 2028.42,599.01 2025.00,616.00              2025.00,616.00 2008.00,616.00 2008.00,616.00              2008.00,616.00 2012.20,584.00 2012.20,584.00              2013.03,579.83 2015.16,571.93 2012.98,568.13              2010.40,563.65 2004.44,564.01 2000.00,564.00              2000.00,564.00 1991.88,603.00 1991.88,603.00              1989.23,614.52 1990.55,615.87 1983.00,616.00              1983.00,616.00 1970.00,616.00 1970.00,616.00 Z            M 2118.00,545.51            C 2125.85,545.36 2135.95,546.48 2141.81,552.21              2153.18,563.33 2146.40,590.61 2138.21,602.00              2130.37,612.91 2116.03,617.47 2103.00,616.96              2096.10,616.69 2087.18,614.90 2082.21,609.81              2071.32,598.67 2077.82,572.44 2085.60,561.00              2094.37,548.12 2104.03,547.01 2118.00,545.51 Z            M 2182.00,550.00            C 2190.35,545.73 2207.27,541.48 2211.85,553.00              2214.40,559.40 2211.90,570.17 2211.00,577.00              2211.00,577.00 2192.20,577.00 2192.20,577.00              2192.34,574.39 2193.43,569.58 2192.20,567.23              2190.70,563.32 2183.39,563.00 2180.98,566.31              2179.78,567.97 2178.45,575.52 2177.88,578.00              2177.88,578.00 2171.00,604.00 2171.00,604.00              2170.18,606.48 2168.34,613.58 2166.44,614.98              2164.26,616.58 2154.13,616.00 2151.00,616.00              2151.00,616.00 2165.00,546.00 2165.00,546.00              2171.29,546.00 2178.28,544.19 2182.00,550.00 Z            M 2275.00,598.00            C 2274.58,601.14 2273.59,609.15 2271.42,611.28              2268.77,613.87 2256.93,615.60 2253.00,615.92              2237.04,617.20 2215.27,617.87 2215.00,596.00              2214.83,581.34 2218.33,562.75 2230.17,552.90              2239.08,545.49 2253.89,543.90 2265.00,545.75              2271.63,546.86 2277.17,548.63 2280.56,555.00              2285.64,564.56 2281.88,578.03 2280.00,588.00              2280.00,588.00 2235.00,588.00 2235.00,588.00              2235.36,592.49 2236.40,595.47 2241.00,597.26              2243.65,598.29 2249.93,598.00 2253.00,598.00              2253.00,598.00 2275.00,598.00 2275.00,598.00 Z            M 1112.96,616.00            C 1112.96,616.00 1112.96,600.00 1112.96,600.00              1112.96,600.00 1112.00,588.00 1112.00,588.00              1112.00,588.00 1112.00,566.00 1112.00,566.00              1112.01,562.18 1112.80,549.32 1115.73,546.99              1117.31,545.74 1121.03,546.00 1123.00,546.00              1123.00,546.00 1134.00,546.00 1134.00,546.00              1134.00,546.00 1132.00,583.00 1132.00,583.00              1132.00,583.00 1132.00,596.00 1132.00,596.00              1132.00,596.00 1145.42,558.00 1145.42,558.00              1149.55,547.07 1149.07,546.12 1156.00,546.00              1156.00,546.00 1177.00,546.00 1177.00,546.00              1175.80,555.08 1176.01,561.96 1176.00,571.00              1175.99,579.64 1173.59,588.50 1176.00,597.00              1176.00,597.00 1188.69,560.00 1188.69,560.00              1188.69,560.00 1194.51,547.02 1194.51,547.02              1194.51,547.02 1211.00,546.00 1211.00,546.00              1208.48,563.89 1198.77,582.45 1191.30,599.00              1189.94,602.04 1185.47,613.49 1183.35,615.01              1181.61,616.25 1178.10,616.00 1176.00,616.00              1176.00,616.00 1156.00,616.00 1156.00,616.00              1156.00,616.00 1157.00,591.00 1157.00,591.00              1157.00,591.00 1157.00,570.00 1157.00,570.00              1157.00,570.00 1140.00,616.00 1140.00,616.00              1140.00,616.00 1112.96,616.00 1112.96,616.00 Z            M 1275.00,562.00            C 1275.15,558.71 1276.13,549.01 1278.72,546.99              1280.09,545.93 1282.36,546.03 1284.00,546.00              1284.00,546.00 1308.00,546.00 1308.00,546.00              1308.00,546.00 1305.21,561.00 1305.21,561.00              1305.21,561.00 1294.00,616.00 1294.00,616.00              1294.00,616.00 1277.00,616.00 1277.00,616.00              1277.42,606.89 1279.87,589.01 1281.79,580.00              1282.38,577.21 1284.95,567.57 1283.81,565.43              1282.44,562.86 1277.58,562.37 1275.00,562.00 Z            M 1410.00,573.00            C 1409.97,570.87 1410.13,568.10 1408.98,566.23              1407.22,563.35 1404.03,563.09 1401.00,563.02              1392.83,562.81 1387.79,565.59 1386.00,574.00              1386.00,574.00 1410.00,573.00 1410.00,573.00 Z            M 1554.00,573.00            C 1553.93,570.42 1554.05,567.53 1552.26,565.43              1550.39,563.23 1547.67,563.08 1545.00,563.02              1536.60,562.80 1531.76,565.37 1530.00,574.00              1530.00,574.00 1554.00,573.00 1554.00,573.00 Z            M 1897.00,563.33            C 1886.68,564.90 1882.62,568.77 1879.92,579.00              1876.99,590.14 1879.26,600.16 1893.00,598.82              1904.95,597.67 1908.61,589.73 1910.54,579.00              1911.24,575.11 1911.58,569.45 1908.57,566.43              1905.77,563.61 1900.73,563.24 1897.00,563.33 Z            M 2114.00,563.34            C 2103.04,565.24 2099.71,569.38 2097.13,580.00              2094.46,591.01 2096.26,600.15 2110.00,598.82              2121.89,597.68 2126.65,588.99 2127.83,578.00              2128.22,574.31 2128.36,569.24 2125.57,566.43              2122.78,563.62 2117.73,563.23 2114.00,563.34 Z            M 2263.00,573.00            C 2262.91,570.49 2263.00,568.29 2261.40,566.15              2258.07,561.68 2248.33,562.30 2244.04,565.01              2240.04,567.54 2238.84,570.59 2238.00,575.00              2238.00,575.00 2263.00,573.00 2263.00,573.00 Z            M 1833.00,564.00            C 1827.20,564.00 1816.94,563.06 1812.18,566.23              1805.83,570.45 1799.73,590.70 1806.42,595.99              1810.10,598.91 1821.13,598.00 1826.00,598.00              1826.00,598.00 1833.00,564.00 1833.00,564.00 Z            M 1386.00,574.00            C 1386.00,574.00 1385.00,574.00 1385.00,574.00              1385.00,574.00 1386.00,575.00 1386.00,575.00              1386.00,575.00 1386.00,574.00 1386.00,574.00 Z            M 1530.00,574.00            C 1530.00,574.00 1529.00,574.00 1529.00,574.00              1529.00,574.00 1530.00,575.00 1530.00,575.00              1530.00,575.00 1530.00,574.00 1530.00,574.00 Z            M 2294.00,595.53            C 2298.01,594.87 2303.37,594.42 2306.57,597.51              2311.20,601.97 2308.60,613.98 2299.00,616.32              2295.23,617.24 2288.61,617.37 2285.74,614.30              2282.11,610.42 2284.71,601.59 2288.22,598.42              2290.13,596.69 2291.66,596.28 2294.00,595.53 Z            M 1717.00,617.00            C 1714.94,616.15 1713.18,615.59 1711.74,613.73              1708.16,609.09 1711.31,600.11 1716.10,597.45              1718.93,595.88 1722.83,595.92 1726.00,596.02              1730.49,596.15 1734.09,596.88 1734.85,602.02              1735.24,604.69 1734.52,608.35 1734.00,611.00              1734.00,611.00 1731.00,625.00 1731.00,625.00              1731.00,625.00 1716.00,625.00 1716.00,625.00              1716.00,625.00 1717.00,617.00 1717.00,617.00 Z"/>
</svg>