<svg xmlns="http://www.w3.org/2000/svg" viewBox="84.81 70.71 2390.69 569.36">
  <path id="Selection #1" fill="#303030" stroke="none" stroke-width="1" d="M 616.00,164.00            C 616.00,164.00 612.28,199.00 612.28,199.00              612.28,199.00 606.28,250.00 606.28,250.00              606.28,250.00 594.16,353.00 594.16,353.00              594.16,353.00 589.42,394.00 589.42,394.00              589.42,394.00 579.16,480.00 579.16,480.00              579.16,480.00 576.28,505.00 576.28,505.00              575.91,507.81 575.73,513.14 574.05,515.37              572.62,517.25 561.73,522.82 559.00,524.25              559.00,524.25 526.00,542.42 526.00,542.42              526.00,542.42 457.00,580.31 457.00,580.31              457.00,580.31 401.00,611.22 401.00,611.22              401.00,611.22 364.00,631.58 364.00,631.58              360.64,633.47 350.25,639.61 347.00,639.57              343.56,639.52 334.42,633.77 331.00,631.86              331.00,631.86 293.00,610.77 293.00,610.77              293.00,610.77 173.00,543.86 173.00,543.86              173.00,543.86 138.00,524.42 138.00,524.42              135.04,522.75 124.55,517.44 122.90,515.37              120.82,512.74 120.23,499.15 119.72,495.00              119.72,495.00 113.83,439.00 113.83,439.00              113.83,439.00 98.83,298.00 98.83,298.00              98.83,298.00 93.00,244.00 93.00,244.00              93.00,244.00 86.92,186.00 86.92,186.00              86.60,182.08 84.11,169.25 86.02,166.51              87.78,163.98 98.67,160.82 102.00,159.58              102.00,159.58 147.00,143.19 147.00,143.19              147.00,143.19 286.00,92.58 286.00,92.58              286.00,92.58 328.00,77.31 328.00,77.31              332.79,75.60 343.41,70.92 348.00,71.22              348.00,71.22 372.00,79.00 372.00,79.00              372.00,79.00 427.00,98.31 427.00,98.31              427.00,98.31 546.00,139.69 546.00,139.69              546.00,139.69 616.00,164.00 616.00,164.00 Z            M 410.00,194.00            C 393.11,188.14 377.08,182.33 359.00,181.13              352.11,180.62 339.79,180.52 333.00,181.13              333.00,181.13 317.00,183.00 317.00,183.00              317.63,190.76 319.29,198.45 321.13,206.00              322.77,212.71 325.66,221.57 328.20,228.00              329.14,230.35 330.79,234.76 332.64,236.40              333.46,237.13 334.06,237.40 335.10,237.69              335.10,237.69 349.00,239.17 349.00,239.17              350.27,239.11 350.88,238.93 352.00,238.31              352.00,238.31 368.00,224.25 368.00,224.25              378.98,215.18 397.15,201.73 410.00,196.00              410.00,196.00 410.00,194.00 410.00,194.00 Z            M 302.00,188.00            C 288.29,189.93 270.41,199.59 259.00,207.34              252.24,211.94 239.60,222.23 234.09,228.01              228.87,233.49 224.66,239.73 220.49,246.00              204.57,269.87 193.93,294.14 191.04,323.00              191.04,323.00 191.04,331.00 191.04,331.00              191.04,331.00 190.25,341.00 190.25,341.00              189.98,343.35 189.89,346.78 190.25,349.00              191.15,351.40 192.71,353.79 193.89,356.00              202.10,371.42 216.66,383.32 232.00,391.36              236.43,393.69 249.54,400.70 254.00,398.30              254.00,398.30 263.00,390.63 263.00,390.63              265.16,389.08 268.56,387.75 269.99,385.61              271.32,383.63 271.92,377.61 272.45,375.00              272.45,375.00 277.02,358.00 277.02,358.00              281.00,345.21 286.45,333.14 292.03,321.00              295.43,313.59 301.64,302.97 306.05,296.00              307.79,293.25 312.55,286.71 313.20,284.00              314.30,279.39 309.54,273.86 310.19,266.00              310.49,262.28 312.08,257.19 313.99,254.00              315.55,251.38 318.00,249.24 317.90,246.00              317.90,246.00 311.00,227.00 311.00,227.00              306.70,214.36 303.08,201.36 302.00,188.00 Z            M 429.00,205.66            C 424.13,206.69 416.47,211.50 412.00,214.20              400.16,221.35 389.75,228.52 379.00,237.26              376.01,239.69 365.32,248.05 364.23,251.04              362.84,254.85 367.35,258.88 366.89,267.00              366.42,275.47 360.69,281.13 361.27,285.00              361.75,288.26 368.90,296.25 371.28,299.00              380.51,309.67 390.28,320.08 401.00,329.27              403.54,331.45 410.01,337.61 413.00,338.18              416.70,338.90 420.27,334.63 429.00,334.09              438.80,333.49 443.00,338.71 448.00,336.47              451.35,334.97 456.32,328.88 458.93,326.00              467.94,316.06 476.53,302.60 483.40,291.00              485.48,287.47 491.24,276.79 491.23,273.00              491.21,268.83 483.79,256.85 481.31,253.00              471.77,238.19 460.23,225.59 446.00,215.15              441.27,211.68 434.80,206.53 429.00,205.66 Z            M 888.00,463.00            C 894.77,465.14 903.74,472.61 921.00,477.98              933.31,481.81 941.12,483.06 954.00,483.00              978.05,482.89 1005.46,472.81 1013.64,448.00              1015.19,443.31 1015.94,438.93 1016.00,434.00              1016.18,417.97 1013.27,404.81 1000.91,393.43              983.91,377.77 952.34,360.63 932.00,347.00              915.33,335.83 900.31,323.76 893.75,304.00              890.36,293.80 889.98,288.54 890.00,278.00              890.02,262.53 895.53,246.49 906.09,235.00              914.66,225.68 922.20,219.58 934.00,214.80              949.40,208.57 963.50,206.81 980.00,207.00              988.59,207.10 1003.57,209.29 1012.00,211.37              1012.00,211.37 1027.00,215.00 1027.00,215.00              1027.00,215.00 1027.00,236.00 1027.00,236.00              1027.00,236.00 1009.00,230.43 1009.00,230.43              998.40,227.40 983.99,224.88 973.00,225.00              959.75,225.15 944.93,228.32 934.00,236.04              911.45,251.97 905.65,280.53 919.93,304.00              926.97,315.58 940.87,323.92 952.00,331.33              973.76,345.84 1012.48,365.50 1026.96,386.00              1034.57,396.77 1038.45,410.88 1038.96,424.00              1039.14,428.62 1037.62,440.34 1036.58,445.00              1035.27,450.84 1033.00,456.84 1029.98,462.00              1015.56,486.69 986.60,497.96 959.00,498.00              959.00,498.00 945.00,498.00 945.00,498.00              945.00,498.00 918.00,494.29 918.00,494.29              910.79,493.35 907.68,494.91 899.00,492.23              891.27,489.84 888.05,488.17 888.00,480.00              888.00,480.00 888.00,463.00 888.00,463.00 Z            M 809.00,213.00            C 809.00,213.00 830.00,213.00 830.00,213.00              830.00,213.00 830.00,400.00 830.00,400.00              830.00,400.00 829.00,415.00 829.00,415.00              828.96,436.34 822.13,465.74 807.82,482.00              797.15,494.12 781.25,501.81 765.00,502.00              765.00,502.00 755.00,502.00 755.00,502.00              755.00,502.00 736.00,500.00 736.00,500.00              736.00,500.00 736.00,480.00 736.00,480.00              743.49,481.69 748.00,483.90 756.00,484.00              762.62,484.07 767.58,484.05 774.00,481.91              798.94,473.59 805.61,447.26 807.96,424.00              807.96,424.00 807.96,415.00 807.96,415.00              807.96,415.00 809.00,403.00 809.00,403.00              809.00,403.00 809.00,213.00 809.00,213.00 Z            M 1093.00,213.00            C 1093.00,213.00 1182.00,213.00 1182.00,213.00              1182.00,213.00 1207.00,213.00 1207.00,213.00              1207.00,213.00 1219.00,213.91 1219.00,213.91              1242.87,215.66 1269.23,221.09 1290.00,233.45              1297.37,237.83 1307.04,244.86 1312.91,251.01              1339.95,279.38 1346.44,319.32 1346.00,357.00              1346.00,357.00 1345.09,367.00 1345.09,367.00              1341.75,412.67 1321.14,450.37 1282.00,475.31              1260.77,488.84 1229.23,497.96 1204.00,498.00              1204.00,498.00 1172.00,498.00 1172.00,498.00              1172.00,498.00 1093.00,498.00 1093.00,498.00              1093.00,498.00 1093.00,213.00 1093.00,213.00 Z            M 1396.00,213.00            C 1396.00,213.00 1561.00,213.00 1561.00,213.00              1561.00,213.00 1561.00,266.00 1561.00,266.00              1561.00,266.00 1461.00,266.00 1461.00,266.00              1461.00,266.00 1461.00,328.00 1461.00,328.00              1461.00,328.00 1554.00,328.00 1554.00,328.00              1554.00,328.00 1554.00,380.00 1554.00,380.00              1554.00,380.00 1461.00,380.00 1461.00,380.00              1461.00,380.00 1461.00,445.00 1461.00,445.00              1461.00,445.00 1568.00,445.00 1568.00,445.00              1568.00,445.00 1568.00,498.00 1568.00,498.00              1568.00,498.00 1396.00,498.00 1396.00,498.00              1396.00,498.00 1396.00,213.00 1396.00,213.00 Z            M 1621.00,213.00            C 1621.00,213.00 1686.00,213.00 1686.00,213.00              1686.00,213.00 1686.00,445.00 1686.00,445.00              1686.00,445.00 1791.00,445.00 1791.00,445.00              1791.00,445.00 1791.00,498.00 1791.00,498.00              1791.00,498.00 1621.00,498.00 1621.00,498.00              1621.00,498.00 1621.00,213.00 1621.00,213.00 Z            M 1830.00,213.00            C 1830.00,213.00 1895.00,213.00 1895.00,213.00              1895.00,213.00 1895.00,498.00 1895.00,498.00              1895.00,498.00 1830.00,498.00 1830.00,498.00              1830.00,498.00 1830.00,213.00 1830.00,213.00 Z            M 1932.00,213.00            C 1932.00,213.00 2002.00,213.00 2002.00,213.00              2002.00,213.00 2012.28,248.00 2012.28,248.00              2012.28,248.00 2032.28,314.00 2032.28,314.00              2032.28,314.00 2061.57,411.00 2061.57,411.00              2061.57,411.00 2065.55,427.00 2065.55,427.00              2065.55,427.00 2068.00,439.00 2068.00,439.00              2068.37,421.94 2078.53,392.26 2083.58,375.00              2083.58,375.00 2114.72,270.00 2114.72,270.00              2114.72,270.00 2131.00,214.00 2131.00,214.00              2131.00,214.00 2174.00,214.00 2174.00,214.00              2174.00,214.00 2199.00,213.00 2199.00,213.00              2199.00,213.00 2191.33,237.00 2191.33,237.00              2191.33,237.00 2175.00,285.00 2175.00,285.00              2175.00,285.00 2128.00,424.00 2128.00,424.00              2128.00,424.00 2111.00,474.00 2111.00,474.00              2111.00,474.00 2103.00,498.00 2103.00,498.00              2103.00,498.00 2037.00,498.00 2037.00,498.00              2035.30,498.00 2031.89,498.14 2030.41,497.43              2027.27,495.91 2024.49,485.46 2023.33,482.00              2023.33,482.00 2006.33,432.00 2006.33,432.00              2006.33,432.00 1932.00,213.00 1932.00,213.00 Z            M 2235.00,213.00            C 2235.00,213.00 2325.00,213.00 2325.00,213.00              2351.79,213.00 2379.38,212.93 2404.00,225.27              2416.20,231.38 2426.68,240.90 2433.11,253.00              2437.20,260.69 2438.94,268.47 2440.13,277.00              2443.37,300.25 2438.62,322.60 2423.54,341.00              2409.86,357.68 2397.06,360.60 2379.00,369.00              2402.71,380.19 2413.16,398.81 2426.42,420.00              2426.42,420.00 2446.69,452.00 2446.69,452.00              2446.69,452.00 2465.05,481.00 2465.05,481.00              2468.49,486.42 2472.71,492.01 2475.00,498.00              2475.00,498.00 2408.00,498.00 2408.00,498.00              2405.65,498.00 2402.38,498.22 2400.33,496.98              2397.78,495.43 2394.26,488.77 2392.60,486.00              2392.60,486.00 2376.80,460.00 2376.80,460.00              2376.80,460.00 2347.15,413.00 2347.15,413.00              2342.04,405.99 2336.91,397.97 2329.00,393.82              2319.65,388.92 2310.16,390.00 2300.00,390.00              2300.00,390.00 2300.00,498.00 2300.00,498.00              2300.00,498.00 2235.00,498.00 2235.00,498.00              2235.00,498.00 2235.00,213.00 2235.00,213.00 Z            M 335.00,252.34            C 317.47,257.07 319.68,282.05 337.00,282.96              357.47,284.02 357.65,260.99 346.91,254.01              343.27,251.64 339.11,251.86 335.00,252.34 Z            M 2302.00,339.00            C 2320.21,339.00 2339.93,341.86 2356.00,331.56              2376.27,318.56 2380.40,282.90 2359.00,268.96              2344.87,259.76 2318.73,262.00 2302.00,262.00              2302.00,262.00 2302.00,339.00 2302.00,339.00 Z            M 1158.00,445.00            C 1191.33,445.00 1222.39,447.28 1250.00,424.54              1261.76,414.85 1270.62,397.65 1274.37,383.00              1283.44,347.58 1278.05,303.30 1246.00,281.04              1220.75,263.49 1187.31,266.00 1158.00,266.00              1158.00,266.00 1158.00,445.00 1158.00,445.00 Z            M 404.00,355.00            C 393.59,348.02 371.67,327.53 363.28,318.00              360.12,314.40 347.63,298.43 344.91,296.91              342.20,295.65 339.79,296.65 337.00,296.91              331.13,297.08 327.58,293.94 322.90,299.15              319.78,302.61 312.26,315.43 309.77,320.00              301.99,334.32 295.05,350.21 290.88,366.00              289.86,369.88 285.80,385.84 286.40,388.90              287.19,392.87 291.08,393.11 295.70,398.09              300.60,403.37 300.71,410.47 309.00,409.83              319.99,408.98 331.55,407.47 342.00,403.79              347.47,401.87 347.55,400.10 352.04,398.10              352.04,398.10 362.00,394.58 362.00,394.58              362.00,394.58 378.00,387.86 378.00,387.86              382.58,385.83 398.71,378.13 401.67,375.21              404.86,372.07 402.77,367.98 402.60,364.00              402.46,360.89 403.21,357.98 404.00,355.00 Z            M 501.00,296.00            C 501.00,296.00 490.97,311.00 490.97,311.00              490.97,311.00 475.55,332.00 475.55,332.00              475.55,332.00 459.20,352.00 459.20,352.00              459.20,352.00 461.99,369.37 461.99,369.37              461.99,369.37 473.00,375.40 473.00,375.40              473.00,375.40 502.00,385.00 502.00,385.00              504.52,374.99 508.58,347.83 507.91,338.00              507.91,338.00 505.20,315.00 505.20,315.00              505.20,315.00 501.00,296.00 501.00,296.00 Z            M 429.00,350.32            C 423.55,351.56 419.04,353.46 416.70,359.00              412.49,368.94 421.70,380.97 432.00,379.63              446.76,377.71 450.97,358.60 439.98,351.85              436.54,349.74 432.84,349.91 429.00,350.32 Z            M 496.00,402.00            C 486.07,399.76 476.41,396.23 467.00,392.40              463.98,391.17 454.49,386.74 452.00,386.52              447.98,386.17 444.27,389.70 439.00,391.21              430.44,393.68 422.76,391.66 415.00,388.00              407.55,394.06 398.54,397.98 390.00,402.25              365.54,414.48 340.27,421.18 313.00,423.09              313.00,423.09 302.00,424.00 302.00,424.00              300.64,428.25 299.10,430.71 295.91,433.90              293.78,436.02 289.92,438.07 289.50,441.10              288.95,445.08 295.55,458.25 297.73,462.00              308.28,480.12 331.01,499.74 353.00,500.00              399.37,500.54 446.30,476.42 474.58,440.00              482.20,430.18 492.77,413.96 496.00,402.00 Z            M 196.00,387.00            C 195.19,391.04 197.01,395.23 198.42,399.00              200.89,405.55 205.94,415.91 209.43,422.00              223.50,446.59 244.51,465.85 269.00,479.85              276.94,484.39 290.22,490.94 299.00,493.00              291.69,482.65 286.46,478.63 280.86,466.00              280.86,466.00 275.72,452.00 275.72,452.00              275.09,449.87 274.13,444.96 273.02,443.41              270.77,440.29 264.27,439.71 258.09,433.82              251.23,427.27 250.46,419.76 248.28,417.59              248.28,417.59 233.00,411.87 233.00,411.87              222.12,406.30 204.72,395.32 196.00,387.00 Z            M 274.00,398.34            C 253.29,403.37 261.27,434.15 280.00,430.66              292.65,428.29 296.83,412.45 288.58,403.21              285.00,399.20 279.13,397.99 274.00,398.34 Z"/>
</svg>