<svg xmlns="http://www.w3.org/2000/svg" viewBox="735.5 206.49 1740 296.01">
  <path id="Selection" fill="#303030" stroke="none" stroke-width="1" d="M 888.00,463.00            C 896.57,466.16 903.45,472.88 925.00,479.28              942.95,484.61 969.86,484.51 987.00,476.51              993.39,473.53 999.09,469.05 1003.96,464.00              1011.60,456.07 1015.87,446.03 1016.00,435.00              1016.18,419.07 1013.95,405.90 1001.91,394.17              987.04,379.68 951.93,360.32 933.00,347.67              913.14,334.40 899.13,322.75 892.43,299.00              889.93,290.15 889.99,286.94 890.00,278.00              890.02,262.53 895.53,246.49 906.09,235.00              915.07,225.24 921.94,220.19 934.00,214.86              948.39,208.50 964.41,206.82 980.00,207.00              988.59,207.10 1003.57,209.29 1012.00,211.37              1012.00,211.37 1027.00,215.00 1027.00,215.00              1027.00,215.00 1027.00,236.00 1027.00,236.00              1027.00,236.00 1009.00,230.43 1009.00,230.43              997.25,227.07 984.23,224.86 972.00,225.00              960.50,225.14 945.72,228.26 936.00,234.55              911.96,250.11 905.08,279.61 919.93,304.00              927.03,315.67 942.57,325.34 954.00,332.69              975.02,346.21 1011.86,365.72 1026.08,385.00              1034.28,396.12 1038.43,410.27 1038.96,424.00              1039.15,428.82 1037.56,441.28 1036.26,446.00              1034.51,452.30 1032.05,458.45 1028.56,464.00              1013.91,487.31 985.65,497.96 959.00,498.00              959.00,498.00 945.00,498.00 945.00,498.00              945.00,498.00 918.00,494.29 918.00,494.29              910.79,493.35 907.68,494.91 899.00,492.23              891.27,489.84 888.05,488.17 888.00,480.00              888.00,480.00 888.00,463.00 888.00,463.00 Z            M 809.00,213.00            C 809.00,213.00 830.00,213.00 830.00,213.00              830.00,213.00 830.00,399.00 830.00,399.00              830.00,399.00 829.00,414.00 829.00,414.00              828.96,435.76 822.46,465.36 807.82,482.00              797.15,494.12 781.25,501.81 765.00,502.00              765.00,502.00 755.00,502.00 755.00,502.00              755.00,502.00 736.00,500.00 736.00,500.00              736.00,500.00 736.00,480.00 736.00,480.00              744.15,481.86 746.84,483.89 756.00,484.00              763.81,484.09 767.41,484.26 775.00,481.64              802.57,472.14 806.39,440.77 808.09,416.00              808.09,416.00 809.00,404.00 809.00,404.00              809.00,404.00 809.00,213.00 809.00,213.00 Z            M 1093.00,213.00            C 1093.00,213.00 1180.00,213.00 1180.00,213.00              1180.00,213.00 1207.00,213.00 1207.00,213.00              1207.00,213.00 1219.00,213.91 1219.00,213.91              1244.70,215.79 1270.91,221.64 1293.00,235.42              1336.26,262.40 1346.55,309.43 1346.00,357.00              1346.00,357.00 1345.09,367.00 1345.09,367.00              1341.76,412.57 1320.46,451.56 1281.00,475.94              1259.36,489.30 1228.46,497.96 1203.00,498.00              1203.00,498.00 1171.00,498.00 1171.00,498.00              1171.00,498.00 1093.00,498.00 1093.00,498.00              1093.00,498.00 1093.00,213.00 1093.00,213.00 Z            M 1396.00,213.00            C 1396.00,213.00 1561.00,213.00 1561.00,213.00              1561.00,213.00 1561.00,266.00 1561.00,266.00              1561.00,266.00 1461.00,266.00 1461.00,266.00              1461.00,266.00 1461.00,328.00 1461.00,328.00              1461.00,328.00 1554.00,328.00 1554.00,328.00              1554.00,328.00 1554.00,380.00 1554.00,380.00              1554.00,380.00 1461.00,380.00 1461.00,380.00              1461.00,380.00 1461.00,445.00 1461.00,445.00              1461.00,445.00 1568.00,445.00 1568.00,445.00              1568.00,445.00 1568.00,498.00 1568.00,498.00              1568.00,498.00 1396.00,498.00 1396.00,498.00              1396.00,498.00 1396.00,213.00 1396.00,213.00 Z            M 1621.00,213.00            C 1621.00,213.00 1686.00,213.00 1686.00,213.00              1686.00,213.00 1686.00,445.00 1686.00,445.00              1686.00,445.00 1791.00,445.00 1791.00,445.00              1791.00,445.00 1791.00,498.00 1791.00,498.00              1791.00,498.00 1621.00,498.00 1621.00,498.00              1621.00,498.00 1621.00,213.00 1621.00,213.00 Z            M 1830.00,213.00            C 1830.00,213.00 1895.00,213.00 1895.00,213.00              1895.00,213.00 1895.00,498.00 1895.00,498.00              1895.00,498.00 1830.00,498.00 1830.00,498.00              1830.00,498.00 1830.00,213.00 1830.00,213.00 Z            M 1932.00,213.00            C 1932.00,213.00 2002.00,213.00 2002.00,213.00              2002.00,213.00 2011.98,247.00 2011.98,247.00              2011.98,247.00 2028.28,301.00 2028.28,301.00              2028.28,301.00 2060.58,408.00 2060.58,408.00              2060.58,408.00 2064.79,424.00 2064.79,424.00              2064.79,424.00 2068.00,439.00 2068.00,439.00              2068.37,422.13 2078.38,393.10 2083.29,376.00              2083.29,376.00 2117.42,261.00 2117.42,261.00              2117.42,261.00 2131.00,214.00 2131.00,214.00              2131.00,214.00 2174.00,214.00 2174.00,214.00              2174.00,214.00 2199.00,213.00 2199.00,213.00              2199.00,213.00 2191.67,236.00 2191.67,236.00              2191.67,236.00 2175.67,283.00 2175.67,283.00              2175.67,283.00 2129.66,419.00 2129.66,419.00              2129.66,419.00 2112.66,469.00 2112.66,469.00              2112.66,469.00 2103.00,498.00 2103.00,498.00              2103.00,498.00 2037.00,498.00 2037.00,498.00              2037.00,498.00 2029.70,497.01 2029.70,497.01              2029.70,497.01 2023.34,482.00 2023.34,482.00              2023.34,482.00 2006.34,432.00 2006.34,432.00              2006.34,432.00 1977.00,345.00 1977.00,345.00              1977.00,345.00 1932.00,213.00 1932.00,213.00 Z            M 2235.00,213.00            C 2235.00,213.00 2325.00,213.00 2325.00,213.00              2351.68,213.00 2379.50,212.99 2404.00,225.27              2415.92,231.24 2426.01,240.29 2432.49,252.00              2442.86,270.76 2443.47,300.15 2435.94,320.00              2433.29,326.96 2428.93,334.16 2424.33,340.00              2410.87,357.08 2397.37,360.46 2379.00,369.00              2402.25,379.97 2413.39,399.08 2426.42,420.00              2426.42,420.00 2450.42,458.00 2450.42,458.00              2450.42,458.00 2475.00,498.00 2475.00,498.00              2475.00,498.00 2408.00,498.00 2408.00,498.00              2405.69,498.00 2402.37,498.22 2400.38,496.98              2398.08,495.54 2394.15,488.57 2392.60,486.00              2392.60,486.00 2376.80,460.00 2376.80,460.00              2376.80,460.00 2347.15,413.00 2347.15,413.00              2341.92,405.79 2337.20,398.14 2329.00,393.82              2319.27,388.71 2310.59,390.00 2300.00,390.00              2300.00,390.00 2300.00,498.00 2300.00,498.00              2300.00,498.00 2235.00,498.00 2235.00,498.00              2235.00,498.00 2235.00,213.00 2235.00,213.00 Z            M 2302.00,339.00            C 2318.51,339.00 2339.59,341.47 2354.00,332.91              2374.63,320.65 2381.93,284.11 2359.99,269.55              2344.82,259.48 2319.82,262.00 2302.00,262.00              2302.00,262.00 2302.00,339.00 2302.00,339.00 Z            M 1158.00,445.00            C 1188.06,445.00 1220.55,447.02 1246.00,427.76              1279.53,402.40 1286.89,343.22 1268.73,307.00              1263.54,296.64 1255.52,287.36 1246.00,280.77              1221.22,263.63 1186.77,266.00 1158.00,266.00              1158.00,266.00 1158.00,445.00 1158.00,445.00 Z"/>
</svg>