<svg xmlns="http://www.w3.org/2000/svg" viewBox="343.5 248.69 512 171.81">
  <path id="katex" fill="#303030" stroke="none" stroke-width="1"
    d="M 476.00,258.00            C 461.78,256.80 454.78,262.91 445.01,271.83              445.01,271.83 430.00,286.00 430.00,286.00              426.72,289.28 416.72,297.18 418.11,302.00              418.11,302.00 433.00,325.00 433.00,325.00              435.78,329.17 443.75,343.06 448.04,344.03              449.57,344.65 451.51,344.24 453.00,344.03              460.24,341.78 461.83,337.47 464.00,331.00              464.00,331.00 484.00,271.00 484.00,271.00              484.00,271.00 490.25,253.06 490.25,253.06              491.70,250.13 494.29,247.91 497.59,250.03              500.05,251.61 502.04,258.18 503.00,261.00              505.31,267.78 509.98,285.34 514.00,290.00              514.00,290.00 516.00,251.00 516.00,251.00              516.00,251.00 632.00,251.00 632.00,251.00              632.00,251.00 635.00,291.00 635.00,291.00              635.00,291.00 725.00,291.00 725.00,291.00              725.00,291.00 726.72,310.00 726.72,310.00              726.72,310.00 730.00,336.00 730.00,336.00              730.00,336.00 723.00,336.00 723.00,336.00              720.52,322.22 719.93,308.31 705.00,301.88              695.60,297.83 680.45,299.00 670.00,299.00              666.59,299.00 659.94,298.39 657.31,300.60              654.62,302.87 655.01,306.82 655.00,310.00              655.00,310.00 655.00,349.00 655.00,349.00              666.32,349.00 684.82,351.47 689.36,338.00              690.46,334.75 690.92,329.46 691.00,326.00              691.00,326.00 697.00,326.00 697.00,326.00              697.00,326.00 697.00,359.00 697.00,359.00              697.00,359.00 698.00,379.00 698.00,379.00              698.00,379.00 691.00,379.00 691.00,379.00              690.92,375.20 690.69,372.73 689.76,369.00              685.90,353.48 667.24,357.00 655.00,357.00              655.00,357.00 655.00,401.00 655.00,401.00              655.00,403.19 654.79,406.84 656.02,408.69              657.52,410.94 660.57,411.05 663.00,411.42              668.62,412.27 674.33,412.01 680.00,412.00              680.00,412.00 691.00,411.17 691.00,411.17              703.89,409.92 713.36,408.54 720.64,396.00              723.32,391.38 724.94,384.28 726.00,379.00              726.00,379.00 722.00,379.00 722.00,379.00              722.00,379.00 722.00,371.00 722.00,371.00              726.34,370.33 731.36,365.94 735.00,370.00              739.01,368.60 742.54,367.31 745.83,364.47              749.43,361.37 752.35,356.02 755.00,352.00              755.00,352.00 768.69,331.00 768.69,331.00              770.85,327.66 777.75,318.44 777.94,315.00              778.15,311.11 769.16,298.82 766.69,295.00              766.69,295.00 750.67,270.00 750.67,270.00              748.26,266.37 745.92,261.57 741.96,259.57              737.54,257.34 729.93,257.87 725.00,258.00              725.00,258.00 725.00,250.00 725.00,250.00              725.00,250.00 780.00,250.00 780.00,250.00              779.89,258.30 779.21,257.55 767.00,260.00              767.00,260.00 789.00,297.00 789.00,297.00              789.00,297.00 792.00,297.00 792.00,297.00              794.70,289.69 800.96,281.81 805.19,275.00              806.65,272.65 810.31,267.68 809.99,265.00              809.36,259.89 801.94,258.21 800.60,257.02              798.72,255.35 799.03,252.29 799.00,250.00              799.00,250.00 848.00,250.00 848.00,250.00              848.00,250.00 847.00,258.00 847.00,258.00              823.89,256.05 817.96,271.38 807.00,288.00              804.77,291.39 796.88,302.57 797.06,306.00              797.25,309.39 807.51,324.16 809.95,328.00              809.95,328.00 827.31,355.00 827.31,355.00              830.15,359.41 833.54,366.23 838.04,368.91              842.63,371.65 849.74,371.00 855.00,371.00              855.00,371.00 855.00,379.00 855.00,379.00              855.00,379.00 839.00,378.00 839.00,378.00              839.00,378.00 819.00,378.00 819.00,378.00              819.00,378.00 800.00,379.00 800.00,379.00              800.00,379.00 800.00,371.00 800.00,371.00              800.00,371.00 813.00,368.00 813.00,368.00              813.00,368.00 784.00,323.00 784.00,323.00              784.00,323.00 766.00,351.00 766.00,351.00              764.19,353.71 759.62,359.85 759.70,363.00              759.83,368.03 765.94,370.23 770.00,371.00              770.00,371.00 771.00,379.00 771.00,379.00              771.00,379.00 757.00,378.04 757.00,378.04              757.00,378.04 742.00,378.04 742.00,378.04              742.00,378.04 734.58,379.60 734.58,379.60              734.58,379.60 731.42,391.00 731.42,391.00              731.42,391.00 727.00,420.00 727.00,420.00              727.00,420.00 616.00,420.00 616.00,420.00              616.00,420.00 616.00,412.00 616.00,412.00              620.75,411.99 632.28,412.19 634.98,407.77              636.20,405.77 636.00,402.32 636.00,400.00              636.00,400.00 636.00,329.00 636.00,329.00              636.00,329.00 636.00,309.00 636.00,309.00              635.94,306.08 635.95,303.62 633.69,301.43              630.84,298.67 626.65,299.01 623.00,299.00              623.00,299.00 616.00,299.00 616.00,299.00              616.00,299.00 616.00,291.00 616.00,291.00              616.00,291.00 628.00,291.00 628.00,291.00              627.97,280.30 626.18,267.93 616.00,262.09              609.65,258.44 600.16,258.87 593.00,259.00              590.68,259.05 588.20,259.01 586.31,260.60              583.62,262.87 584.01,266.82 584.00,270.00              584.00,270.00 584.00,346.00 584.00,346.00              584.00,351.16 582.66,365.08 586.31,368.49              589.11,371.10 593.44,370.98 597.00,371.00              597.00,371.00 612.00,371.00 612.00,371.00              612.00,371.00 612.00,379.00 612.00,379.00              612.00,379.00 589.00,378.00 589.00,378.00              589.00,378.00 558.00,378.00 558.00,378.00              558.00,378.00 548.00,378.96 548.00,378.96              548.00,378.96 537.00,378.96 537.00,378.96              537.00,378.96 537.00,371.00 537.00,371.00              543.52,371.00 560.35,372.91 563.98,366.79              565.20,364.72 565.00,361.36 565.00,359.00              565.00,359.00 565.00,283.00 565.00,283.00              565.00,278.10 566.30,263.64 562.69,260.60              560.44,258.71 556.77,259.01 554.00,259.00              554.00,259.00 546.00,259.00 546.00,259.00              523.56,259.27 520.17,277.57 520.00,296.00              520.00,296.00 515.00,296.00 515.00,296.00              515.00,296.00 525.86,329.00 525.86,329.00              527.23,332.88 529.12,339.92 532.22,342.44              535.39,345.02 540.13,344.97 544.00,345.00              544.00,345.00 544.00,351.00 544.00,351.00              544.00,351.00 503.00,351.00 503.00,351.00              503.00,351.00 503.00,345.00 503.00,345.00              505.70,344.87 510.45,344.71 512.32,342.44              513.87,340.53 512.96,338.08 512.32,336.00              510.70,330.63 508.88,326.70 508.00,321.00              508.00,321.00 482.00,321.00 482.00,321.00              473.55,321.16 473.36,324.77 471.00,332.00              470.21,334.42 468.95,337.42 470.11,339.89              471.67,343.21 475.77,344.23 479.00,345.00              479.00,345.00 479.00,351.00 479.00,351.00              479.00,351.00 450.00,351.00 450.00,351.00              454.81,357.23 459.53,366.93 467.00,369.85              470.65,371.28 475.12,371.00 479.00,371.00              479.00,371.00 479.00,378.96 479.00,378.96              479.00,378.96 466.00,378.96 466.00,378.96              466.00,378.96 454.00,378.00 454.00,378.00              454.00,378.00 427.00,379.00 427.00,379.00              427.00,379.00 427.00,371.00 427.00,371.00              431.06,370.76 437.17,369.57 436.16,364.00              435.66,361.26 428.31,351.01 426.34,348.00              426.34,348.00 402.00,312.00 402.00,312.00              402.00,312.00 384.02,332.00 384.02,332.00              383.02,334.00 383.04,335.83 383.00,338.00              383.00,338.00 383.00,361.00 383.00,361.00              383.02,363.44 382.78,366.40 384.60,368.30              387.91,371.77 397.41,371.00 402.00,371.00              402.00,371.00 402.00,379.00 402.00,379.00              402.00,379.00 384.00,378.00 384.00,378.00              384.00,378.00 362.00,378.00 362.00,378.00              362.00,378.00 344.00,379.00 344.00,379.00              344.00,379.00 344.00,371.00 344.00,371.00              349.80,371.00 360.79,372.51 363.40,365.95              364.11,364.15 364.00,360.97 364.00,359.00              364.00,359.00 364.00,270.00 364.00,270.00              364.00,268.01 364.11,264.86 363.40,263.04              360.77,256.33 349.91,257.85 344.00,258.00              344.00,258.00 344.00,250.00 344.00,250.00              344.00,250.00 402.00,250.00 402.00,250.00              402.00,250.00 402.00,258.00 402.00,258.00              393.27,257.98 383.22,255.10 383.00,267.00              383.00,267.00 383.00,321.00 383.00,321.00              383.00,321.00 398.00,306.96 398.00,306.96              398.00,306.96 428.00,277.00 428.00,277.00              433.09,271.91 446.68,262.07 433.00,258.00              433.00,258.00 432.00,250.00 432.00,250.00              432.00,250.00 476.00,250.00 476.00,250.00              476.00,250.00 476.00,258.00 476.00,258.00 Z            M 491.00,273.00            C 491.00,273.00 484.67,290.00 484.67,290.00              484.67,290.00 477.00,315.00 477.00,315.00              477.00,315.00 505.00,315.00 505.00,315.00              505.00,315.00 497.33,290.00 497.33,290.00              497.33,290.00 491.00,273.00 491.00,273.00 Z" />
</svg>