<svg xmlns="http://www.w3.org/2000/svg" viewBox="87.5 87.56 272 208.94">
  <path id="keysight" fill="#303030" stroke="none" stroke-width="1"
    d="M 88.00,195.00            C 98.60,195.00 115.06,197.72 122.47,188.91              127.00,183.52 128.95,175.69 130.63,169.00              130.63,169.00 138.67,139.00 138.67,139.00              141.04,131.95 144.90,122.34 153.00,120.42              162.89,118.08 168.48,128.42 171.55,136.00              171.55,136.00 185.04,182.00 185.04,182.00              187.61,187.75 193.01,194.87 200.00,194.79              207.67,194.70 214.77,183.28 217.56,177.00              217.56,177.00 233.67,111.00 233.67,111.00              236.88,101.46 242.84,87.07 255.00,88.11              266.75,89.11 271.85,103.46 275.00,113.00              275.00,113.00 287.87,168.00 287.87,168.00              289.60,174.90 292.98,187.87 298.33,192.57              304.90,198.35 310.69,190.96 312.91,185.00              312.91,185.00 322.79,153.00 322.79,153.00              324.90,148.63 328.24,143.23 333.99,144.47              339.72,145.72 342.44,154.01 343.85,159.00              348.31,174.89 347.11,183.26 359.00,196.00              352.80,196.00 332.61,195.33 328.00,197.03              324.92,198.17 322.53,200.31 320.70,203.00              320.70,203.00 306.56,242.00 306.56,242.00              303.99,247.78 299.97,254.69 293.00,255.35              285.54,256.05 281.46,249.90 278.64,244.00              273.01,232.21 270.00,217.45 262.91,207.00              258.01,199.78 250.94,193.00 242.00,198.23              235.28,202.15 230.45,210.95 227.60,218.00              227.60,218.00 213.28,271.00 213.28,271.00              209.73,282.80 206.07,296.79 191.00,295.96              180.96,295.40 177.21,286.28 174.34,278.00              174.34,278.00 159.57,219.00 159.57,219.00              157.53,211.85 151.94,194.38 142.00,196.47              137.63,197.40 133.80,202.24 131.82,206.00              128.24,212.83 125.90,226.95 123.25,235.00              121.53,240.22 117.81,248.12 111.02,246.67              105.48,245.49 103.43,237.76 102.15,233.00              102.15,233.00 96.47,206.00 96.47,206.00              94.47,201.40 91.17,198.68 88.00,195.00 Z" />
</svg>