<svg xmlns="http://www.w3.org/2000/svg" viewBox="87.5 87.56 900 208.94">
  <path id="keysight-wordmark" fill="#303030" stroke="none" stroke-width="1"
    d="M 88.00,195.00            C 98.60,195.00 115.06,197.72 122.47,188.91              127.00,183.52 128.95,175.69 130.63,169.00              130.63,169.00 138.67,139.00 138.67,139.00              141.04,131.95 144.90,122.34 153.00,120.42              162.89,118.08 168.48,128.42 171.55,136.00              171.55,136.00 185.04,182.00 185.04,182.00              187.61,187.75 193.01,194.87 200.00,194.79              207.67,194.70 214.77,183.28 217.56,177.00              217.56,177.00 233.67,111.00 233.67,111.00              236.88,101.46 242.84,87.07 255.00,88.11              266.75,89.11 271.85,103.46 275.00,113.00              275.00,113.00 287.87,168.00 287.87,168.00              289.60,174.90 292.98,187.87 298.33,192.57              304.90,198.35 310.69,190.96 312.91,185.00              312.91,185.00 322.79,153.00 322.79,153.00              324.90,148.63 328.24,143.23 333.99,144.47              339.72,145.72 342.44,154.01 343.85,159.00              348.31,174.89 347.11,183.26 359.00,196.00              352.80,196.00 332.61,195.33 328.00,197.03              324.92,198.17 322.53,200.31 320.70,203.00              320.70,203.00 306.56,242.00 306.56,242.00              303.99,247.78 299.97,254.69 293.00,255.35              285.54,256.05 281.46,249.90 278.64,244.00              273.01,232.21 270.00,217.45 262.91,207.00              258.01,199.78 250.94,193.00 242.00,198.23              235.28,202.15 230.45,210.95 227.60,218.00              227.60,218.00 213.28,271.00 213.28,271.00              209.73,282.80 206.07,296.79 191.00,295.96              180.96,295.40 177.21,286.28 174.34,278.00              174.34,278.00 159.57,219.00 159.57,219.00              157.53,211.85 151.94,194.38 142.00,196.47              137.63,197.40 133.80,202.24 131.82,206.00              128.24,212.83 125.90,226.95 123.25,235.00              121.53,240.22 117.81,248.12 111.02,246.67              105.48,245.49 103.43,237.76 102.15,233.00              102.15,233.00 96.47,206.00 96.47,206.00              94.47,201.40 91.17,198.68 88.00,195.00 Z            M 819.00,149.00            C 819.00,149.00 819.00,185.00 819.00,185.00              819.00,187.03 819.26,190.64 818.01,192.30              816.56,194.22 812.27,195.07 810.00,195.58              805.28,196.63 793.80,197.94 789.00,198.00              767.20,198.24 746.37,192.53 739.92,169.00              737.91,161.68 737.92,157.44 738.00,150.00              738.20,133.16 746.36,116.90 762.00,109.49              776.71,102.52 803.27,102.69 814.47,116.09              818.93,121.42 820.45,128.25 821.00,135.00              821.00,135.00 801.00,135.00 801.00,135.00              797.47,117.78 780.17,114.31 768.04,125.21              755.66,136.34 754.68,165.33 767.09,176.79              773.87,183.05 780.45,183.04 789.00,183.00              794.50,182.97 794.81,182.69 800.00,182.00              800.00,182.00 800.00,164.00 800.00,164.00              796.71,164.00 785.98,164.88 784.02,162.40              782.50,160.48 783.00,151.77 783.00,149.00              783.00,149.00 819.00,149.00 819.00,149.00 Z            M 643.00,167.00            C 644.56,175.30 646.27,181.96 656.00,183.67              663.98,185.07 677.61,179.77 674.94,170.00              672.96,162.78 662.18,161.29 656.00,159.58              642.18,155.73 627.18,150.99 627.00,134.00              626.97,130.97 626.94,127.94 627.79,125.00              633.97,103.60 672.45,99.98 686.67,114.32              692.15,119.85 692.98,125.67 693.00,133.00              689.73,133.00 677.87,133.66 675.72,132.01              674.17,130.81 673.83,128.30 672.28,126.02              669.73,122.26 666.48,120.43 662.00,120.10              650.78,119.26 643.65,129.07 648.57,135.97              652.34,141.25 659.15,142.16 665.00,143.63              679.61,147.28 697.40,151.96 695.81,171.00              693.23,202.12 645.88,203.54 631.18,189.67              624.72,183.57 624.01,175.31 624.00,167.00              624.00,167.00 643.00,167.00 643.00,167.00 Z            M 419.00,144.00            C 422.40,137.39 433.74,123.75 438.88,117.00              443.48,110.98 444.99,107.15 453.00,107.00              453.00,107.00 469.00,107.00 469.00,107.00              465.63,113.31 452.35,128.65 447.08,135.00              445.06,137.44 439.02,144.08 438.83,147.00              438.64,150.06 445.31,158.21 447.29,161.00              452.70,168.59 468.58,188.70 471.00,196.00              471.00,196.00 454.00,196.00 454.00,196.00              445.61,195.84 443.97,190.44 439.67,184.00              439.67,184.00 418.00,153.00 418.00,153.00              418.00,153.00 418.00,187.00 418.00,187.00              418.00,188.99 418.23,192.81 416.98,194.40              415.09,196.79 400.91,196.79 399.02,194.40              397.77,192.81 398.00,188.99 398.00,187.00              398.00,187.00 398.00,108.00 398.00,108.00              398.00,108.00 418.00,108.00 418.00,108.00              418.00,108.00 419.00,144.00 419.00,144.00 Z            M 480.00,107.00            C 480.00,107.00 539.00,107.00 539.00,107.00              539.00,107.00 539.00,122.00 539.00,122.00              539.00,122.00 499.00,122.00 499.00,122.00              499.00,122.00 499.00,143.00 499.00,143.00              499.00,143.00 537.00,143.00 537.00,143.00              537.00,143.00 537.00,157.00 537.00,157.00              537.00,157.00 508.00,157.00 508.00,157.00              505.27,157.02 501.75,156.73 500.02,159.31              498.32,161.87 499.00,177.06 499.00,181.00              499.00,181.00 541.00,181.00 541.00,181.00              541.00,194.27 542.01,195.85 534.00,196.00              534.00,196.00 480.00,196.00 480.00,196.00              480.00,196.00 480.00,107.00 480.00,107.00 Z            M 707.00,107.00            C 707.00,107.00 726.00,107.00 726.00,107.00              726.00,107.00 726.00,196.00 726.00,196.00              726.00,196.00 707.00,196.00 707.00,196.00              707.00,196.00 707.00,107.00 707.00,107.00 Z            M 835.00,196.00            C 835.00,196.00 835.00,128.00 835.00,128.00              835.00,124.32 834.05,110.04 836.60,108.02              838.19,106.77 842.01,107.00 844.00,107.00              844.00,107.00 854.00,107.00 854.00,107.00              854.00,107.00 854.00,134.00 854.00,134.00              854.00,134.00 855.60,141.40 855.60,141.40              855.60,141.40 862.00,143.00 862.00,143.00              862.00,143.00 887.00,143.00 887.00,143.00              887.00,143.00 887.00,115.00 887.00,115.00              887.02,112.87 886.74,109.49 888.60,108.02              890.79,106.29 904.20,106.36 905.98,108.60              907.23,110.19 907.00,114.01 907.00,116.00              907.00,116.00 907.00,196.00 907.00,196.00              907.00,196.00 888.60,194.98 888.60,194.98              888.60,194.98 887.00,189.00 887.00,189.00              887.00,189.00 887.00,157.00 887.00,157.00              887.00,157.00 854.00,157.00 854.00,157.00              854.00,157.00 854.00,196.00 854.00,196.00              854.00,196.00 835.00,196.00 835.00,196.00 Z            M 916.00,107.00            C 916.00,107.00 987.00,107.00 987.00,107.00              987.00,107.00 987.00,122.00 987.00,122.00              987.00,122.00 961.00,122.00 961.00,122.00              961.00,122.00 961.00,196.00 961.00,196.00              961.00,196.00 942.00,196.00 942.00,196.00              942.00,196.00 942.00,140.00 942.00,140.00              942.00,124.49 943.46,122.07 933.00,122.00              933.00,122.00 916.00,122.00 916.00,122.00              916.00,122.00 916.00,107.00 916.00,107.00 Z            M 547.00,108.00            C 547.00,108.00 563.00,108.00 563.00,108.00              571.63,108.05 570.12,109.21 575.25,120.00              575.25,120.00 588.00,147.00 588.00,147.00              588.00,147.00 600.00,120.00 600.00,120.00              600.00,120.00 606.39,109.02 606.39,109.02              606.39,109.02 625.00,108.00 625.00,108.00              625.00,108.00 605.00,147.00 605.00,147.00              600.93,154.16 596.05,161.59 596.00,170.00              596.00,170.00 596.00,196.00 596.00,196.00              596.00,196.00 577.00,196.00 577.00,196.00              577.00,196.00 577.00,172.00 577.00,172.00              576.98,160.36 573.35,157.85 568.26,148.00              568.26,148.00 547.00,108.00 547.00,108.00 Z            M 670.00,224.47            C 678.68,223.26 687.46,225.31 692.52,233.09              699.11,243.21 698.72,271.33 680.00,274.67              673.22,275.89 664.55,275.14 659.18,270.47              649.80,262.29 649.60,240.29 657.53,231.18              660.94,227.27 665.11,225.63 670.00,224.47 Z            M 766.00,224.47            C 773.92,223.36 782.05,224.59 787.47,231.09              796.31,241.71 795.98,271.16 776.00,274.67              770.77,275.59 762.50,275.32 758.00,272.30              744.00,262.91 742.80,230.00 766.00,224.47 Z            M 941.00,260.00            C 942.79,266.84 946.85,269.59 954.00,268.89              958.65,268.44 964.46,264.31 962.50,259.04              961.01,255.04 956.64,254.10 953.00,253.12              945.33,251.05 935.63,249.55 934.37,240.00              932.42,225.27 954.11,221.12 963.96,227.09              968.31,229.72 969.06,233.39 970.00,238.00              970.00,238.00 962.00,238.00 962.00,238.00              960.19,232.00 956.10,230.12 950.00,231.05              946.21,231.63 941.48,234.46 942.71,238.99              943.90,243.41 949.18,244.65 953.00,245.63              962.32,248.01 974.35,251.18 970.35,264.00              965.98,278.01 944.11,277.37 937.39,270.61              934.26,267.46 934.10,264.14 934.00,260.00              934.00,260.00 941.00,260.00 941.00,260.00 Z            M 396.00,231.00            C 396.18,228.84 396.04,226.72 398.31,225.60              399.79,224.87 403.29,225.00 405.00,225.00              405.00,225.00 429.00,225.00 429.00,225.00              434.48,225.11 435.54,225.44 436.00,231.00              432.50,231.00 422.99,230.21 420.60,232.60              418.81,234.39 419.02,237.65 419.00,240.00              419.00,240.00 419.00,274.00 419.00,274.00              419.00,274.00 412.00,274.00 412.00,274.00              412.00,274.00 412.00,231.00 412.00,231.00              412.00,231.00 396.00,231.00 396.00,231.00 Z            M 447.00,225.00            C 447.00,225.00 477.00,225.00 477.00,225.00              477.00,225.00 477.00,231.00 477.00,231.00              477.00,231.00 454.00,231.00 454.00,231.00              454.00,231.00 454.00,246.00 454.00,246.00              454.00,246.00 476.00,246.00 476.00,246.00              476.00,246.00 476.00,252.00 476.00,252.00              476.00,252.00 454.00,252.00 454.00,252.00              454.00,252.00 454.00,268.00 454.00,268.00              454.00,268.00 478.00,268.00 478.00,268.00              478.00,268.00 478.00,274.00 478.00,274.00              478.00,274.00 447.00,274.00 447.00,274.00              447.00,274.00 447.00,225.00 447.00,225.00 Z            M 528.00,261.00            C 524.25,276.74 505.87,278.06 497.18,271.20              490.42,265.86 488.50,255.15 489.09,247.00              489.65,239.26 493.00,231.09 500.00,227.09              503.70,224.97 507.86,224.91 512.00,225.01              521.56,225.25 526.52,229.60 528.00,239.00              528.00,239.00 520.00,239.00 520.00,239.00              516.87,229.85 507.69,227.88 501.39,235.11              494.00,243.59 494.94,267.41 509.00,268.75              515.56,269.37 518.14,263.56 520.59,261.99              522.55,260.74 525.73,261.01 528.00,261.00 Z            M 541.00,225.00            C 542.69,225.06 545.00,224.91 546.40,226.02              548.95,228.04 548.00,242.32 548.00,246.00              548.00,246.00 570.00,246.00 570.00,246.00              570.00,242.32 569.05,228.04 571.60,226.02              573.00,224.91 575.31,225.06 577.00,225.00              577.00,225.00 577.00,274.00 577.00,274.00              577.00,274.00 570.00,274.00 570.00,274.00              570.00,274.00 570.00,252.00 570.00,252.00              570.00,252.00 548.00,252.00 548.00,252.00              548.00,252.00 548.00,274.00 548.00,274.00              548.00,274.00 541.00,274.00 541.00,274.00              541.00,274.00 541.00,225.00 541.00,225.00 Z            M 597.00,274.00            C 597.00,274.00 597.00,232.00 597.00,232.00              597.10,226.88 598.08,224.30 603.96,225.15              608.64,225.83 610.80,231.33 613.00,235.00              613.00,235.00 630.00,263.00 630.00,263.00              630.00,263.00 630.00,237.00 630.00,237.00              630.00,237.00 631.02,226.60 631.02,226.60              631.02,226.60 637.00,225.00 637.00,225.00              637.00,225.00 637.00,274.00 637.00,274.00              637.00,274.00 628.33,272.98 628.33,272.98              628.33,272.98 620.60,262.00 620.60,262.00              620.60,262.00 604.00,235.00 604.00,235.00              604.00,235.00 604.00,274.00 604.00,274.00              604.00,274.00 597.00,274.00 597.00,274.00 Z            M 712.00,225.00            C 712.00,225.00 719.00,225.00 719.00,225.00              719.00,225.00 719.00,268.00 719.00,268.00              719.00,268.00 742.00,268.00 742.00,268.00              742.00,268.00 742.00,274.00 742.00,274.00              742.00,274.00 712.00,274.00 712.00,274.00              712.00,274.00 712.00,225.00 712.00,225.00 Z            M 848.00,248.00            C 848.00,248.00 848.00,265.00 848.00,265.00              847.99,266.94 848.14,269.86 846.98,271.49              844.40,275.11 833.17,275.05 829.00,275.00              813.18,274.81 805.42,264.23 806.04,249.00              806.37,240.84 809.88,232.06 817.04,227.61              821.57,224.79 825.88,224.94 831.00,225.00              840.80,225.12 845.67,228.19 848.00,238.00              846.18,237.99 842.99,238.14 841.37,237.43              838.42,236.12 835.32,229.21 827.00,230.52              810.97,233.04 809.71,259.56 821.09,266.67              824.81,269.13 837.13,270.71 839.98,266.67              841.22,264.76 841.00,261.16 841.00,259.00              841.00,259.00 841.00,254.00 841.00,254.00              841.00,254.00 830.00,254.00 830.00,254.00              830.00,254.00 830.00,248.00 830.00,248.00              830.00,248.00 848.00,248.00 848.00,248.00 Z            M 865.00,225.00            C 871.83,225.24 871.96,226.41 872.00,233.00              872.00,233.00 872.00,274.00 872.00,274.00              872.00,274.00 865.00,274.00 865.00,274.00              865.00,274.00 865.00,225.00 865.00,225.00 Z            M 890.00,274.00            C 890.00,274.00 890.00,232.00 890.00,232.00              890.13,225.16 891.57,225.04 898.00,225.00              898.00,225.00 921.00,225.00 921.00,225.00              921.00,225.00 921.00,231.00 921.00,231.00              921.00,231.00 905.00,231.00 905.00,231.00              902.48,231.05 899.60,230.95 898.02,233.31              896.55,235.53 897.00,243.10 897.00,246.00              897.00,246.00 920.00,246.00 920.00,246.00              920.00,246.00 920.00,252.00 920.00,252.00              920.00,252.00 897.00,252.00 897.00,252.00              897.00,252.00 897.00,268.00 897.00,268.00              897.00,268.00 922.00,268.00 922.00,268.00              922.00,268.00 922.00,274.00 922.00,274.00              922.00,274.00 890.00,274.00 890.00,274.00 Z            M 672.00,230.33            C 668.28,231.25 666.01,232.07 663.39,235.11              656.36,243.26 656.04,272.05 677.00,268.79              684.94,267.55 687.67,261.16 688.70,254.00              690.47,241.74 686.87,229.01 672.00,230.33 Z            M 768.00,230.33            C 764.81,231.12 762.75,231.70 760.39,234.22              753.42,241.68 751.73,273.21 774.00,268.66              784.57,266.50 785.10,255.63 785.00,247.00              784.86,235.86 779.75,229.13 768.00,230.33 Z" />
</svg>