<svg xmlns="http://www.w3.org/2000/svg" viewBox="466.41 84.48 2094.03 322.03">
  <path id="Selection #1" fill="#303030" stroke="none" stroke-width="1" d="M 1344.21,86.02            C 1346.81,85.08 1348.18,84.83 1351.00,85.06              1357.95,85.62 1359.42,92.51 1361.86,98.00              1361.86,98.00 1380.24,138.00 1380.24,138.00              1380.24,138.00 1394.31,169.00 1394.31,169.00              1394.31,169.00 1445.22,280.00 1445.22,280.00              1445.22,280.00 1458.42,309.00 1458.42,309.00              1459.91,312.41 1462.77,317.18 1461.39,320.95              1459.42,326.32 1452.65,325.99 1448.00,326.00              1448.00,326.00 1431.00,326.00 1431.00,326.00              1427.21,325.95 1422.34,325.65 1419.21,323.28              1415.28,320.30 1407.91,301.59 1405.25,296.00              1399.99,284.94 1401.41,282.02 1390.00,282.00              1390.00,282.00 1308.00,282.00 1308.00,282.00              1297.38,282.02 1297.81,284.65 1292.42,297.00              1290.11,302.32 1282.71,320.46 1278.87,323.28              1275.66,325.63 1270.84,325.95 1267.00,326.00              1267.00,326.00 1250.00,326.00 1250.00,326.00              1245.87,325.99 1238.76,326.32 1236.74,321.78              1234.82,317.46 1238.83,309.94 1240.76,306.00              1240.76,306.00 1257.86,269.00 1257.86,269.00              1257.86,269.00 1316.69,142.00 1316.69,142.00              1316.69,142.00 1334.74,103.00 1334.74,103.00              1337.51,97.27 1339.28,90.26 1344.21,86.02 Z            M 514.00,216.00            C 514.00,216.00 514.00,299.00 514.00,299.00              514.00,307.25 516.67,322.07 506.98,325.20              504.70,325.93 502.37,325.97 500.00,326.00              492.73,326.08 473.00,327.83 468.60,321.86              466.72,319.31 467.01,315.99 467.00,313.00              467.00,313.00 467.00,140.00 467.00,140.00              467.00,140.00 467.00,106.00 467.00,106.00              467.00,101.97 466.32,94.42 468.74,91.23              471.47,87.61 475.97,88.01 480.00,88.00              480.00,88.00 502.00,88.00 502.00,88.00              506.21,88.06 509.62,88.31 512.26,92.11              514.27,95.00 513.99,98.66 514.00,102.00              514.00,102.00 514.00,157.00 514.00,157.00              514.00,164.35 513.20,179.65 515.00,186.00              517.97,179.71 531.50,165.97 536.84,160.00              536.84,160.00 582.00,109.00 582.00,109.00              586.19,104.41 597.08,90.62 602.00,88.74              604.28,87.87 607.55,88.00 610.00,88.08              610.00,88.08 634.00,88.08 634.00,88.08              634.00,88.08 640.00,88.08 640.00,88.08              644.71,89.10 647.74,93.27 646.23,98.00              644.95,101.98 636.66,110.44 633.58,114.00              633.58,114.00 576.72,178.00 576.72,178.00              576.72,178.00 562.43,194.00 562.43,194.00              560.86,195.90 558.55,198.34 559.02,201.00              559.42,203.23 563.07,207.17 564.59,209.00              564.59,209.00 579.73,227.00 579.73,227.00              579.73,227.00 634.08,292.00 634.08,292.00              637.26,295.81 649.27,309.69 650.84,313.00              653.95,319.54 650.94,324.58 644.00,325.90              644.00,325.90 637.00,325.90 637.00,325.90              637.00,325.90 615.00,325.90 615.00,325.90              611.43,325.99 607.31,326.11 604.00,324.57              599.92,322.67 596.97,318.43 594.20,315.00              594.20,315.00 581.20,299.00 581.20,299.00              581.20,299.00 540.58,249.00 540.58,249.00              540.58,249.00 514.00,216.00 514.00,216.00 Z            M 718.00,177.00            C 720.93,175.05 723.81,173.01 727.00,171.49              745.59,162.63 775.10,162.46 793.00,173.09              802.78,178.90 809.07,186.76 813.69,197.00              823.41,218.56 821.00,246.60 821.00,270.00              821.00,270.00 821.00,307.00 821.00,307.00              821.00,311.21 821.78,319.34 819.11,322.58              816.11,326.23 810.27,325.99 806.00,326.00              799.53,326.01 782.76,327.73 779.17,321.78              777.78,319.46 778.00,315.66 778.00,313.00              778.00,313.00 778.00,239.00 778.00,239.00              777.86,227.44 774.22,215.10 763.99,208.56              758.92,205.32 753.84,204.88 748.00,205.01              730.95,205.41 718.20,220.42 718.00,237.00              718.00,237.00 718.00,313.00 718.00,313.00              718.00,316.06 718.29,320.19 716.26,322.69              712.52,327.30 695.02,326.03 689.00,326.00              677.75,325.95 675.02,324.30 675.00,313.00              675.00,313.00 675.00,140.00 675.00,140.00              675.00,140.00 675.00,105.00 675.00,105.00              675.00,101.27 674.33,94.17 676.60,91.23              679.37,87.64 683.96,88.01 688.00,88.00              688.00,88.00 707.00,88.00 707.00,88.00              716.33,88.13 717.95,91.20 718.00,100.00              718.00,100.00 718.00,177.00 718.00,177.00 Z            M 1904.00,171.00            C 1904.00,171.00 1904.00,101.00 1904.00,101.00              1904.02,90.92 1905.32,88.06 1916.00,88.00              1916.00,88.00 1936.00,88.00 1936.00,88.00              1939.55,88.05 1942.90,88.10 1945.26,91.23              1947.29,93.91 1946.99,97.81 1947.00,101.00              1947.00,101.00 1947.00,313.00 1947.00,313.00              1946.99,316.22 1947.29,319.94 1945.11,322.58              1941.51,326.96 1927.55,327.10 1923.11,324.15              1918.74,321.24 1916.66,311.97 1915.00,307.00              1901.43,320.53 1886.57,328.97 1867.00,329.00              1847.93,329.03 1833.29,326.20 1818.00,313.69              1775.34,278.78 1778.92,198.87 1830.00,173.27              1843.79,166.36 1855.83,164.83 1871.00,165.00              1881.61,165.13 1893.83,168.03 1904.00,171.00 Z            M 936.00,230.00            C 936.00,225.04 936.29,220.82 934.78,216.00              929.72,199.83 914.72,201.07 901.00,202.72              901.00,202.72 888.00,204.25 888.00,204.25              876.87,206.10 865.33,211.98 861.94,201.00              860.60,196.65 857.07,179.75 859.18,176.22              860.77,173.55 864.19,172.57 867.00,171.72              867.00,171.72 886.00,167.61 886.00,167.61              911.35,163.04 952.51,160.63 967.74,186.00              974.32,196.95 976.85,215.30 977.00,228.00              977.00,228.00 977.00,293.00 977.00,293.00              977.00,293.00 977.00,314.00 977.00,314.00              976.95,317.74 976.86,320.85 973.77,323.49              970.61,326.20 965.93,326.08 962.00,325.99              951.53,325.74 948.77,320.77 947.00,311.00              937.78,316.36 937.88,318.62 925.00,324.13              913.14,329.20 904.49,329.14 892.00,329.00              847.59,328.48 832.85,276.05 851.77,249.00              869.42,223.78 908.98,222.19 936.00,230.00 Z            M 1043.00,186.00            C 1054.67,177.75 1057.21,173.15 1072.00,168.08              1089.03,162.24 1118.04,164.41 1133.00,174.77              1141.57,180.71 1146.45,187.61 1150.69,197.00              1159.06,215.56 1157.00,241.74 1157.00,262.00              1157.00,262.00 1157.00,306.00 1157.00,306.00              1157.00,310.12 1157.81,319.49 1155.26,322.58              1152.30,326.18 1146.22,325.99 1142.00,326.00              1134.78,326.01 1119.07,328.17 1115.17,320.95              1113.79,318.39 1114.00,314.84 1114.00,312.00              1114.00,312.00 1114.00,265.00 1114.00,265.00              1114.00,265.00 1114.00,237.00 1114.00,237.00              1113.98,225.63 1111.38,214.43 1101.00,207.99              1085.56,198.41 1054.12,210.01 1054.00,236.00              1054.00,236.00 1054.00,314.00 1054.00,314.00              1054.00,316.46 1054.24,320.50 1052.83,322.57              1050.44,326.07 1041.87,325.99 1038.00,326.00              1038.00,326.00 1025.00,326.00 1025.00,326.00              1013.59,325.94 1011.02,323.25 1011.00,312.00              1011.00,312.00 1011.00,202.00 1011.00,202.00              1011.00,202.00 1011.00,179.00 1011.00,179.00              1011.06,175.88 1011.09,173.00 1013.57,170.70              1016.49,167.99 1021.27,168.02 1025.00,168.00              1027.97,167.99 1032.28,167.72 1034.90,169.17              1039.43,171.69 1042.23,181.11 1043.00,186.00 Z            M 1539.00,165.42            C 1559.05,162.98 1578.84,168.35 1595.00,180.38              1599.50,183.73 1609.13,190.78 1608.55,197.00              1608.03,202.58 1597.32,212.83 1593.28,216.89              1590.82,219.38 1588.78,221.23 1585.00,220.68              1580.62,220.05 1575.77,214.69 1572.00,212.04              1565.47,207.46 1558.98,205.09 1551.00,205.00              1525.02,204.71 1508.71,223.76 1509.00,249.00              1509.32,276.48 1536.79,297.64 1563.00,286.91              1578.72,280.47 1581.40,265.15 1593.00,272.14              1597.79,275.03 1610.78,285.44 1611.51,291.00              1611.98,294.62 1609.54,298.18 1607.56,301.00              1603.00,307.51 1597.60,312.82 1591.00,317.25              1574.29,328.49 1560.26,329.22 1541.00,329.00              1531.39,328.88 1519.60,325.47 1511.00,321.24              1470.08,301.13 1453.68,253.30 1472.31,212.00              1481.55,191.52 1499.62,175.82 1521.00,169.03              1527.32,167.02 1532.55,166.40 1539.00,165.42 Z            M 1723.00,230.00            C 1722.91,226.11 1722.14,218.57 1720.89,215.00              1714.44,196.53 1688.90,201.98 1674.00,204.27              1674.00,204.27 1663.00,206.42 1663.00,206.42              1656.74,207.80 1651.46,209.71 1648.61,201.98              1648.61,201.98 1644.49,181.00 1644.49,181.00              1644.48,179.21 1644.85,177.63 1645.86,176.13              1649.33,170.96 1666.72,168.60 1673.00,167.59              1697.73,163.61 1738.26,160.38 1753.53,185.00              1762.83,199.98 1763.00,217.99 1763.00,235.00              1763.00,235.00 1763.00,292.00 1763.00,292.00              1763.00,292.00 1763.00,315.00 1763.00,315.00              1762.96,317.62 1763.02,320.44 1761.26,322.58              1758.37,326.10 1752.16,326.09 1748.00,325.99              1737.63,325.73 1734.69,319.33 1733.00,310.00              1727.69,315.05 1721.64,319.53 1715.00,322.68              1694.19,332.56 1662.59,332.33 1645.29,315.56              1628.34,299.15 1624.95,267.32 1638.79,248.00              1644.69,239.76 1653.59,234.12 1663.00,230.69              1674.79,226.40 1684.64,225.86 1697.00,226.00              1705.86,226.11 1714.38,228.27 1723.00,230.00 Z            M 2017.00,256.00            C 2017.45,275.87 2037.39,292.22 2057.00,290.82              2060.99,290.53 2066.20,289.56 2070.00,288.33              2076.07,286.36 2078.63,285.12 2084.00,281.66              2087.13,279.64 2091.03,276.60 2095.00,277.36              2097.85,277.90 2099.57,279.90 2101.33,282.02              2103.72,284.89 2112.26,296.06 2113.27,299.00              2116.04,307.07 2106.73,312.38 2101.00,315.94              2090.11,322.69 2072.88,328.85 2060.00,329.00              2060.00,329.00 2049.00,329.00 2049.00,329.00              2040.04,328.99 2031.34,327.27 2023.00,324.00              1960.88,299.66 1955.65,207.61 2013.00,174.87              2025.95,167.48 2040.25,164.83 2055.00,165.00              2083.98,165.34 2108.69,182.12 2119.55,209.00              2123.03,217.63 2125.65,232.81 2124.42,242.00              2123.87,246.19 2124.32,250.45 2120.77,253.49              2117.52,256.27 2113.00,255.99 2109.00,256.00              2109.00,256.00 2017.00,256.00 2017.00,256.00 Z            M 2182.00,187.00            C 2184.87,180.95 2190.47,177.24 2196.00,173.70              2211.89,163.54 2238.08,161.81 2255.00,170.27              2263.82,174.68 2269.12,181.12 2276.00,188.00              2297.37,158.43 2357.58,155.83 2377.53,188.00              2391.30,210.19 2388.00,246.34 2388.00,272.00              2388.00,272.00 2388.00,308.00 2388.00,308.00              2388.00,311.86 2388.71,319.61 2386.26,322.58              2383.30,326.18 2377.22,325.99 2373.00,326.00              2366.43,326.01 2350.02,327.76 2346.31,321.78              2344.78,319.30 2345.01,315.82 2345.00,313.00              2345.00,313.00 2345.00,266.00 2345.00,266.00              2345.00,266.00 2345.00,246.00 2345.00,246.00              2345.00,233.41 2345.92,220.62 2335.96,211.10              2324.16,199.83 2297.15,204.45 2290.85,220.00              2289.85,222.47 2290.01,225.37 2290.00,228.00              2290.00,228.00 2290.00,302.00 2290.00,302.00              2290.00,307.08 2291.31,319.89 2287.57,323.30              2284.86,325.77 2280.46,325.95 2277.00,326.00              2277.00,326.00 2261.00,326.00 2261.00,326.00              2249.75,325.95 2247.02,324.30 2247.00,313.00              2247.00,313.00 2247.00,266.00 2247.00,266.00              2247.00,266.00 2247.00,238.00 2247.00,238.00              2246.99,229.35 2245.79,218.72 2239.79,212.04              2229.07,200.12 2207.79,203.75 2198.79,216.01              2190.11,227.84 2192.00,235.36 2192.00,249.00              2192.00,249.00 2192.00,297.00 2192.00,297.00              2192.00,301.39 2192.51,316.84 2191.26,319.98              2190.41,322.14 2189.01,323.62 2186.96,324.69              2184.08,326.18 2180.17,326.00 2177.00,326.00              2177.00,326.00 2163.00,326.00 2163.00,326.00              2151.75,325.95 2149.02,324.30 2149.00,313.00              2149.00,313.00 2149.00,203.00 2149.00,203.00              2149.00,203.00 2149.00,179.00 2149.00,179.00              2149.05,175.90 2149.01,172.84 2151.43,170.51              2154.58,167.48 2160.89,167.95 2165.00,168.00              2177.88,168.18 2175.76,175.73 2182.00,187.00 Z            M 2478.00,265.00            C 2478.00,265.00 2488.42,238.00 2488.42,238.00              2488.42,238.00 2505.95,192.00 2505.95,192.00              2507.61,187.55 2512.32,173.27 2515.39,170.72              2518.30,168.31 2523.37,168.05 2527.00,168.00              2527.00,168.00 2547.00,168.00 2547.00,168.00              2551.58,168.01 2557.94,167.61 2559.57,173.10              2561.20,178.58 2557.08,185.98 2555.01,191.00              2555.01,191.00 2538.01,232.00 2538.01,232.00              2538.01,232.00 2482.42,366.00 2482.42,366.00              2482.42,366.00 2471.60,392.00 2471.60,392.00              2470.08,395.74 2468.08,401.86 2464.79,404.26              2462.00,406.29 2458.28,405.99 2455.00,406.00              2455.00,406.00 2431.00,406.00 2431.00,406.00              2425.52,405.92 2420.11,404.78 2420.16,398.00              2420.19,394.83 2422.39,390.03 2423.60,387.00              2423.60,387.00 2431.00,368.00 2431.00,368.00              2431.00,368.00 2445.00,333.00 2445.00,333.00              2446.38,329.54 2451.01,319.02 2451.10,316.00              2451.17,313.46 2448.91,307.67 2448.00,305.00              2448.00,305.00 2439.69,282.00 2439.69,282.00              2439.69,282.00 2413.81,209.00 2413.81,209.00              2413.81,209.00 2404.59,183.00 2404.59,183.00              2403.33,179.38 2401.92,174.64 2404.59,171.28              2407.45,167.69 2412.88,168.01 2417.00,168.00              2417.00,168.00 2439.00,168.00 2439.00,168.00              2441.50,168.03 2444.57,168.03 2446.79,169.31              2450.50,171.46 2451.76,178.05 2452.98,182.00              2452.98,182.00 2462.98,215.00 2462.98,215.00              2462.98,215.00 2478.00,265.00 2478.00,265.00 Z            M 1349.00,171.00            C 1349.00,171.00 1336.70,197.00 1336.70,197.00              1336.70,197.00 1316.00,244.00 1316.00,244.00              1316.00,244.00 1382.00,244.00 1382.00,244.00              1382.00,244.00 1368.86,214.00 1368.86,214.00              1368.86,214.00 1349.00,171.00 1349.00,171.00 Z            M 2081.00,227.00            C 2077.85,192.02 2024.42,191.95 2019.00,227.00              2019.00,227.00 2081.00,227.00 2081.00,227.00 Z            M 1864.00,205.30            C 1838.43,210.30 1828.99,238.10 1835.16,261.00              1839.93,278.70 1854.84,292.30 1874.00,289.57              1888.18,287.55 1903.78,279.12 1904.00,263.00              1904.00,263.00 1904.00,221.00 1904.00,221.00              1904.00,218.79 1904.24,215.41 1903.01,213.53              1901.42,211.11 1896.67,209.43 1894.00,208.42              1884.42,204.81 1874.13,204.29 1864.00,205.30 Z            M 912.00,253.57            C 903.35,254.01 894.41,255.30 889.11,263.04              886.18,267.31 885.50,271.92 885.75,277.00              886.35,289.07 894.91,296.91 907.00,296.92              916.02,296.93 930.60,290.72 934.15,282.00              935.45,278.80 935.02,268.92 935.00,265.00              934.99,263.09 935.17,260.25 934.01,258.65              931.04,254.54 916.93,253.82 912.00,253.57 Z            M 1698.00,253.45            C 1689.45,254.19 1681.06,255.49 1675.65,263.02              1672.60,267.24 1671.82,271.91 1672.04,277.00              1672.59,289.52 1681.83,296.94 1694.00,296.92              1703.03,296.91 1717.95,289.69 1721.26,281.00              1722.37,278.10 1722.02,268.58 1722.00,265.00              1721.99,263.14 1722.17,260.24 1721.01,258.70              1718.23,255.02 1702.71,253.63 1698.00,253.45 Z"/>
</svg>