<svg xmlns="http://www.w3.org/2000/svg" viewBox="42.5 87.58 281 238.95">
  <path id="Selection" fill="#303030" stroke="none" stroke-width="1" d="M 178.00,88.43            C 184.61,87.61 188.59,88.26 195.00,89.90              232.98,99.57 238.86,151.58 206.00,171.37              201.89,173.84 195.75,176.14 191.00,176.83              175.67,179.06 161.17,175.35 150.17,163.91              131.99,145.01 134.83,112.39 156.00,96.93              163.09,91.75 169.51,89.82 178.00,88.43 Z            M 43.00,169.00            C 91.24,169.04 136.65,196.21 160.57,238.00              173.81,261.13 180.00,287.47 180.00,314.00              180.00,314.00 186.00,314.00 186.00,314.00              186.00,293.51 189.85,270.76 198.31,252.00              220.69,202.38 268.04,169.01 323.00,169.00              323.00,169.00 323.00,190.00 323.00,190.00              322.95,224.63 305.44,262.74 280.83,286.72              231.95,334.33 152.38,339.38 98.00,298.10              82.49,286.33 69.59,271.12 60.31,254.00              50.89,236.62 43.03,212.89 43.00,193.00              43.00,193.00 43.00,169.00 43.00,169.00 Z"/>
</svg>