<svg xmlns="http://www.w3.org/2000/svg" viewBox="-0.5 -0.84 961 103.64">
  <path id="Selection" fill="#303030" stroke="none" stroke-width="1" d="M 43.00,86.00            C 39.94,100.39 21.31,104.30 10.00,97.03              1.65,91.67 0.01,85.24 0.00,76.00              0.00,76.00 0.00,24.00 0.00,24.00              0.02,8.26 7.93,-0.38 24.00,0.01              27.40,0.10 29.88,0.44 33.00,1.92              39.40,4.95 41.32,9.49 45.00,15.00              48.70,7.82 53.86,2.40 62.00,0.53              76.31,-2.78 92.01,7.34 90.67,23.00              90.05,30.32 87.56,34.20 83.42,40.00              81.77,42.31 77.69,47.23 77.78,50.00              77.87,52.59 82.10,57.73 83.71,60.00              87.72,65.69 90.69,70.79 90.66,78.00              90.60,95.22 72.38,105.32 57.00,98.47              49.70,95.22 48.50,90.65 43.00,86.00 Z            M 114.00,0.53            C 132.42,-2.48 145.77,6.58 146.00,26.00              146.00,26.00 146.00,73.00 146.00,73.00              145.93,87.22 139.45,97.31 125.00,100.33              114.35,102.56 102.62,95.95 98.48,86.00              95.18,78.07 96.00,69.39 96.00,61.00              96.00,61.00 96.00,38.00 96.00,38.00              96.00,22.18 95.20,6.15 114.00,0.53 Z            M 225.00,51.00            C 241.71,56.69 243.14,79.38 231.91,90.96              221.59,101.59 201.50,102.54 188.00,98.56              143.68,85.52 141.13,21.41 182.00,3.87              187.63,1.46 192.87,0.08 199.00,0.00              211.26,-0.14 223.87,0.04 232.79,10.04              243.12,21.62 241.20,43.83 225.00,49.00              225.00,49.00 225.00,51.00 225.00,51.00 Z            M 291.00,86.00            C 288.97,90.54 287.26,94.01 282.96,96.87              269.32,105.95 247.25,98.67 247.00,78.00              247.00,78.00 247.00,24.00 247.00,24.00              247.01,15.66 248.04,9.96 255.02,4.39              266.90,-5.11 286.68,0.35 291.00,15.00              296.39,8.63 298.45,4.04 307.00,1.11              321.60,-3.90 337.77,6.05 337.82,22.00              337.84,29.10 334.54,34.43 330.57,40.00              328.86,42.40 324.68,47.10 324.78,50.00              324.88,52.75 329.17,57.66 330.85,60.00              334.80,65.51 338.40,71.96 337.81,79.00              336.42,95.87 319.15,105.23 304.00,98.47              297.71,95.67 295.10,91.13 291.00,86.00 Z            M 360.00,61.00            C 353.76,55.58 348.78,51.67 344.99,44.00              338.01,29.85 344.09,11.69 358.00,4.40              369.26,-1.50 393.31,-1.71 405.00,3.09              422.80,10.41 425.11,36.18 405.00,40.00              410.92,45.44 416.54,49.39 420.09,57.00              421.70,60.46 422.83,65.18 422.96,69.00              423.08,72.60 422.58,75.56 421.56,79.00              414.98,101.08 393.11,102.22 374.00,102.00              368.21,101.93 360.27,100.49 355.00,98.10              338.39,90.57 338.72,70.72 349.04,63.99              352.59,61.68 355.90,61.20 360.00,61.00 Z            M 548.00,85.00            C 544.89,94.20 536.52,99.85 527.00,100.67              512.82,101.90 499.60,90.52 500.37,76.00              500.77,68.64 503.86,62.62 506.72,56.00              506.72,56.00 519.28,27.00 519.28,27.00              522.25,20.12 525.51,11.32 531.04,6.18              537.72,-0.01 542.47,-0.10 551.00,0.00              560.71,0.12 567.34,3.60 572.53,12.00              572.53,12.00 587.15,45.00 587.15,45.00              592.15,56.66 601.36,72.16 596.89,85.00              590.39,103.71 560.56,108.17 550.00,85.00              550.00,85.00 548.00,85.00 548.00,85.00 Z            M 442.23,45.00            C 419.76,42.98 415.91,15.49 431.04,5.11              435.77,1.86 441.39,1.07 447.00,1.00              447.00,1.00 485.00,1.00 485.00,1.00              493.28,1.01 500.90,2.14 506.47,9.04              517.68,22.91 508.52,43.41 491.00,45.00              491.00,45.00 491.00,76.00 491.00,76.00              490.99,83.30 490.06,89.29 484.79,94.86              475.68,104.59 457.42,104.51 448.33,94.86              445.03,91.31 443.31,86.67 442.23,82.00              442.23,82.00 442.23,45.00 442.23,45.00 Z            M 647.00,89.00            C 642.16,103.21 623.05,105.93 612.17,97.07              605.02,91.24 604.01,84.63 604.00,76.00              604.00,76.00 604.00,26.00 604.00,26.00              604.10,18.01 605.60,11.19 612.17,5.94              617.33,1.82 624.61,1.03 631.00,1.00              651.89,0.90 681.30,-3.29 688.51,23.00              689.43,26.35 690.12,30.53 689.91,34.00              689.65,38.17 688.11,43.35 686.10,47.00              685.11,48.80 681.87,52.92 681.65,54.42              681.30,56.87 684.99,61.87 686.32,64.00              689.52,69.16 692.22,74.73 691.67,81.00              690.33,96.50 675.84,106.05 661.00,100.89              654.49,98.63 651.31,93.97 647.00,89.00 Z            M 713.00,45.00            C 690.04,42.92 686.21,15.47 702.00,4.85              706.81,1.62 712.37,1.03 718.00,1.00              718.00,1.00 755.00,1.00 755.00,1.00              764.55,1.01 772.57,2.40 778.30,11.00              787.17,24.29 779.24,44.11 761.00,45.00              761.00,45.00 761.00,78.00 761.00,78.00              760.99,84.74 760.76,88.34 756.24,93.91              746.94,105.11 727.66,104.85 718.21,93.91              713.72,88.82 713.03,84.56 713.00,78.00              713.00,78.00 713.00,45.00 713.00,45.00 Z            M 854.00,64.00            C 871.33,71.90 869.76,91.00 858.91,98.75              852.51,103.32 841.71,102.00 834.00,102.00              834.00,102.00 818.00,102.00 818.00,102.00              805.91,102.00 793.75,101.96 789.22,88.00              788.19,84.82 788.04,82.29 788.00,79.00              788.00,79.00 788.00,24.00 788.00,24.00              788.09,17.03 790.20,10.12 796.04,5.80              805.32,-1.07 830.98,0.98 843.00,1.00              851.26,1.01 857.90,1.81 863.20,9.04              870.55,19.05 867.21,36.19 854.00,39.00              859.00,48.52 860.64,54.58 854.00,64.00 Z            M 916.00,88.00            C 912.24,103.16 892.27,105.88 881.09,97.21              874.33,91.97 873.01,84.99 873.00,77.00              873.00,77.00 873.00,33.00 873.00,33.00              873.00,24.74 872.22,16.08 877.64,9.09              882.57,2.73 891.39,1.09 899.00,1.00              919.78,0.76 948.85,-3.13 956.74,22.00              959.30,29.27 959.38,36.83 956.74,44.00              954.32,49.53 951.03,52.09 950.82,55.00              950.63,57.61 953.80,61.73 955.19,64.00              958.40,69.28 959.83,71.70 959.99,78.00              960.31,91.43 953.25,101.68 939.00,101.98              935.41,102.06 932.38,101.90 929.00,100.52              922.86,98.01 919.39,93.42 916.00,88.00 Z"/>
</svg>