<svg xmlns="http://www.w3.org/2000/svg" viewBox="-0.5 -0.78 257.02 290.69">
  <path id="kickstarter" fill="#303030" stroke="none" stroke-width="1"
    d="M 127.00,260.00            C 122.49,267.72 115.50,273.80 108.00,278.56              63.89,306.59 0.09,277.52 0.00,223.00              0.00,223.00 0.00,66.00 0.00,66.00              0.05,36.95 20.68,11.48 48.00,2.75              58.03,-0.46 63.83,-0.02 74.00,0.00              97.26,0.04 113.39,12.17 128.00,29.00              155.45,-9.34 213.73,-10.06 242.49,27.00              254.43,42.39 256.21,56.33 256.00,75.00              255.64,105.68 229.81,125.19 210.00,145.00              215.87,149.21 222.71,156.71 228.00,162.00              244.40,178.40 255.96,191.45 256.00,216.00              256.02,227.25 256.23,233.01 252.30,244.00              243.14,269.67 217.45,288.96 190.00,289.00              190.00,289.00 183.00,289.00 183.00,289.00              157.76,288.96 143.86,276.86 127.00,260.00 Z" />
</svg>