<svg xmlns="http://www.w3.org/2000/svg" viewBox="11.5 11.5 1221.96 829">
  <path id="ko-fi" fill="#303030" stroke="none" stroke-width="1"
    d="M 923.00,668.00            C 920.58,685.95 913.13,706.37 906.00,723.00              885.57,770.66 845.62,806.01 798.00,825.00              780.66,831.92 758.73,837.78 740.00,838.00              740.00,838.00 687.00,838.00 687.00,838.00              687.00,838.00 670.00,839.00 670.00,839.00              670.00,839.00 520.00,839.00 520.00,839.00              520.00,839.00 505.00,840.00 505.00,840.00              505.00,840.00 267.00,840.00 267.00,840.00              267.00,840.00 195.00,840.00 195.00,840.00              184.83,839.98 172.03,837.81 162.00,835.80              107.70,824.94 59.46,793.37 34.27,743.00              11.50,697.46 14.57,658.63 14.00,610.00              14.00,610.00 13.00,595.00 13.00,595.00              13.00,595.00 13.00,517.00 13.00,517.00              13.00,517.00 12.00,502.00 12.00,502.00              12.00,502.00 12.00,126.00 12.00,126.00              12.07,79.11 39.08,32.64 85.00,17.33              94.43,14.19 103.00,12.02 113.00,12.00              113.00,12.00 919.00,12.00 919.00,12.00              940.04,12.03 972.48,18.29 993.00,23.85              1052.85,40.06 1110.18,73.88 1151.83,120.00              1202.44,176.04 1231.12,257.88 1232.00,333.00              1232.00,333.00 1232.96,347.00 1232.96,347.00              1232.96,347.00 1232.00,359.00 1232.00,359.00              1231.82,397.78 1220.86,442.79 1204.69,478.00              1163.81,567.05 1088.82,625.87 996.00,653.72              976.92,659.44 942.56,667.10 923.00,668.00 Z            M 888.00,630.00            C 909.47,630.00 930.94,627.41 952.00,623.20              1023.98,608.81 1089.93,573.56 1135.58,515.00              1159.54,484.25 1176.64,447.99 1185.35,410.00              1192.42,379.15 1192.36,357.15 1192.00,326.00              1191.82,310.64 1186.68,282.23 1182.87,267.00              1167.86,206.92 1138.44,154.96 1089.00,116.42              1047.99,84.46 1000.47,63.22 949.00,55.27              922.96,51.26 904.87,52.00 879.00,52.00              879.00,52.00 796.00,52.00 796.00,52.00              796.00,52.00 395.00,52.00 395.00,52.00              395.00,52.00 117.00,52.00 117.00,52.00              76.36,52.06 52.06,90.63 52.00,128.00              52.00,128.00 52.00,369.00 52.00,369.00              52.00,369.00 52.00,503.00 52.00,503.00              52.00,503.00 53.00,518.00 53.00,518.00              53.00,518.00 53.00,596.00 53.00,596.00              53.00,596.00 54.00,611.00 54.00,611.00              54.00,611.00 54.00,649.00 54.00,649.00              54.00,649.00 55.04,661.00 55.04,661.00              55.04,661.00 55.04,671.00 55.04,671.00              56.88,688.84 62.77,711.25 71.31,727.00              91.24,763.79 124.13,785.16 164.00,795.13              173.93,797.61 186.80,799.98 197.00,800.00              197.00,800.00 396.00,800.00 396.00,800.00              396.00,800.00 506.00,800.00 506.00,800.00              506.00,800.00 521.00,799.00 521.00,799.00              521.00,799.00 671.00,799.00 671.00,799.00              671.00,799.00 686.00,798.00 686.00,798.00              686.00,798.00 736.00,798.00 736.00,798.00              749.49,797.98 763.27,794.61 776.00,790.33              833.22,771.09 867.02,728.41 881.37,671.00              884.13,659.96 887.48,641.22 888.00,630.00 Z            M 118.02,110.74            C 123.69,109.36 138.36,110.00 145.00,110.00              145.00,110.00 198.00,110.00 198.00,110.00              198.00,110.00 368.00,110.00 368.00,110.00              368.00,110.00 908.00,110.00 908.00,110.00              908.00,110.00 920.00,110.91 920.00,110.91              991.06,115.88 1063.63,153.75 1100.55,216.00              1125.23,257.62 1134.56,306.12 1134.00,354.00              1134.00,354.00 1133.09,364.00 1133.09,364.00              1129.25,418.96 1105.03,469.78 1064.00,506.83              1039.73,528.75 1007.99,546.16 977.00,556.49              951.46,565.00 925.75,569.26 899.00,571.09              899.00,571.09 887.00,572.00 887.00,572.00              887.00,572.00 860.00,572.00 860.00,572.00              855.94,572.05 853.87,572.28 850.00,573.71              840.64,577.17 832.98,586.10 831.12,596.00              831.12,596.00 831.12,607.00 831.12,607.00              831.12,607.00 830.00,621.00 830.00,621.00              829.86,632.70 826.26,651.64 823.00,663.00              813.89,694.73 795.19,719.67 764.00,732.40              751.54,737.48 747.42,738.85 734.00,739.00              734.00,739.00 719.00,740.00 719.00,740.00              719.00,740.00 621.00,740.00 621.00,740.00              621.00,740.00 606.00,741.00 606.00,741.00              606.00,741.00 427.00,741.00 427.00,741.00              427.00,741.00 346.00,741.00 346.00,741.00              346.00,741.00 331.00,742.00 331.00,742.00              331.00,742.00 205.00,742.00 205.00,742.00              167.97,741.94 130.77,725.01 118.08,688.00              112.59,671.99 113.03,659.41 113.00,643.00              113.00,643.00 112.00,626.00 112.00,626.00              112.00,626.00 112.00,574.00 112.00,574.00              112.00,574.00 111.00,557.00 111.00,557.00              111.00,557.00 111.00,421.00 111.00,421.00              111.00,421.00 110.00,406.00 110.00,406.00              110.00,406.00 110.00,242.00 110.00,242.00              110.00,242.00 111.00,227.00 111.00,227.00              111.00,227.00 111.00,141.00 111.00,141.00              111.00,131.23 108.24,116.13 118.02,110.74 Z            M 859.00,183.10            C 855.44,183.97 852.27,184.74 849.00,186.38              831.73,195.04 833.00,210.77 833.00,227.00              833.00,227.00 833.00,252.00 833.00,252.00              833.00,252.00 833.00,467.00 833.00,467.00              833.21,484.61 845.04,497.78 863.00,498.00              863.00,498.00 887.00,499.00 887.00,499.00              887.00,499.00 902.00,498.00 902.00,498.00              902.00,498.00 923.00,497.09 923.00,497.09              930.34,496.58 937.79,496.46 945.00,494.76              963.38,490.44 988.12,477.13 1003.00,465.58              1030.62,444.13 1045.53,417.40 1053.87,384.00              1056.15,374.88 1058.89,359.26 1059.00,350.00              1059.00,350.00 1059.96,332.00 1059.96,332.00              1059.96,332.00 1058.96,324.00 1058.96,324.00              1058.96,324.00 1058.96,315.00 1058.96,315.00              1057.17,297.55 1052.21,278.84 1044.68,263.00              1035.67,244.04 1018.48,224.46 1002.00,211.66              979.10,193.89 945.97,183.05 917.00,183.10              917.00,183.10 894.00,183.10 894.00,183.10              894.00,183.10 859.00,183.10 859.00,183.10 Z            M 576.00,243.28            C 576.00,243.28 560.00,245.26 560.00,245.26              539.76,249.03 521.21,257.60 504.00,268.69              495.88,273.92 488.26,279.92 481.00,286.29              478.97,288.07 474.62,292.96 472.00,292.96              469.80,292.96 467.48,290.41 466.00,288.99              461.57,284.74 459.97,282.97 455.00,279.00              441.95,268.60 427.60,259.86 412.00,253.81              365.13,235.65 301.12,241.99 268.51,284.00              261.53,292.99 256.56,303.24 253.00,314.00              250.02,323.01 248.01,334.51 248.00,344.00              248.00,344.00 248.00,357.00 248.00,357.00              248.04,379.58 257.59,410.22 268.31,430.00              281.38,454.11 295.50,466.70 313.96,486.00              313.96,486.00 323.01,496.00 323.01,496.00              323.01,496.00 337.00,509.01 337.00,509.01              337.00,509.01 357.00,528.96 357.00,528.96              357.00,528.96 398.00,567.09 398.00,567.09              398.00,567.09 450.00,614.72 450.00,614.72              455.57,619.63 464.15,629.49 472.00,628.88              478.75,628.35 490.74,615.81 496.00,610.91              496.00,610.91 551.00,559.00 551.00,559.00              551.00,559.00 567.00,543.99 567.00,543.99              567.00,543.99 636.09,474.00 636.09,474.00              658.11,450.36 675.51,433.20 686.95,402.00              696.98,374.63 699.52,343.88 689.92,316.00              685.23,302.36 676.15,287.22 665.96,277.04              646.60,257.68 619.90,246.71 593.00,243.84              586.25,243.11 582.96,242.64 576.00,243.28 Z            M 892.00,242.00            C 921.77,242.00 941.25,239.35 967.00,258.48              988.98,274.81 1000.96,300.85 1001.00,328.00              1001.00,328.00 1001.00,341.00 1001.00,341.00              1000.96,367.31 992.62,396.51 973.00,414.91              964.12,423.24 943.95,434.88 932.00,437.48              923.90,439.25 901.00,440.00 892.00,440.00              892.00,440.00 892.00,242.00 892.00,242.00 Z            M 932.00,394.00            C 961.01,383.29 961.30,353.74 961.00,328.00              960.79,310.41 949.65,290.15 932.00,285.00              932.00,285.00 932.00,394.00 932.00,394.00 Z" />
</svg>