<svg xmlns="http://www.w3.org/2000/svg" viewBox="10.19 8.5 1217.41 386">
  <path id="ko-fi-wordmark" fill="#303030" stroke="none" stroke-width="1"
    d="M 424.00,322.00            C 422.72,330.18 415.99,342.08 411.33,349.00              392.40,377.10 358.72,393.95 325.00,394.00              325.00,394.00 107.00,394.00 107.00,394.00              96.37,393.98 84.93,391.31 75.00,387.58              65.88,384.14 58.92,380.39 51.00,374.70              32.63,361.53 19.58,340.98 14.66,319.00              10.95,302.38 12.19,285.86 12.00,269.00              12.00,269.00 11.00,254.00 11.00,254.00              11.00,254.00 11.00,173.00 11.00,173.00              11.00,173.00 11.00,118.00 11.00,118.00              11.00,89.10 7.07,57.73 27.30,34.00              30.55,30.18 35.97,24.90 40.00,21.92              45.82,17.63 51.16,14.92 58.00,12.67              65.57,10.18 72.03,9.01 80.00,9.00              80.00,9.00 399.00,9.00 399.00,9.00              433.80,9.05 469.66,22.76 497.00,43.89              506.81,51.47 511.70,56.54 519.57,66.00              522.49,69.52 526.65,76.51 531.01,77.67              537.22,79.31 541.67,72.16 549.00,67.88              560.21,61.33 571.12,58.85 584.00,59.00              606.68,59.27 633.60,75.53 638.00,99.00              649.69,87.31 665.93,68.61 681.00,62.45              718.91,46.96 761.07,71.00 763.00,113.00              804.61,96.45 853.83,101.69 889.00,130.26              898.03,137.59 907.64,147.59 913.00,158.00              921.90,154.27 928.67,155.00 938.00,155.00              938.00,155.00 972.00,155.00 972.00,155.00              974.19,155.00 977.73,155.22 979.57,153.98              981.69,152.55 982.68,148.37 983.61,146.00              985.67,140.78 987.84,136.55 991.16,132.00              995.06,126.65 998.50,123.23 1004.00,119.52              1006.63,117.74 1012.43,114.83 1014.07,112.61              1014.07,112.61 1019.26,100.00 1019.26,100.00              1023.83,90.54 1027.79,83.76 1035.09,76.00              1051.26,58.82 1078.49,48.04 1102.00,48.00              1102.00,48.00 1116.00,48.00 1116.00,48.00              1122.57,48.01 1128.68,48.85 1135.00,50.72              1135.00,50.72 1148.00,54.93 1148.00,54.93              1148.00,54.93 1162.00,54.00 1162.00,54.00              1170.41,53.99 1177.70,53.54 1186.00,55.50              1204.54,59.89 1219.09,72.53 1224.56,91.00              1227.62,101.32 1227.12,109.42 1227.00,120.00              1226.87,130.80 1222.82,138.67 1222.70,142.00              1222.56,145.85 1225.98,151.78 1226.00,163.00              1226.00,163.00 1226.00,287.00 1226.00,287.00              1225.96,313.34 1207.70,336.42 1182.00,342.50              1175.44,344.05 1170.63,344.07 1164.00,344.00              1153.53,343.87 1141.62,340.19 1133.00,334.23              1130.06,332.19 1126.71,329.43 1124.17,326.92              1122.85,325.62 1120.96,323.05 1118.95,323.04              1116.93,323.04 1115.04,325.54 1113.72,326.84              1110.19,330.29 1106.19,333.34 1102.00,335.94              1091.37,342.53 1080.24,344.14 1068.00,344.00              1042.47,343.70 1019.83,325.72 1013.48,301.00              1011.11,291.77 1012.00,276.02 1012.00,266.00              1001.87,270.36 996.43,272.95 985.00,273.00              985.00,273.00 932.00,273.00 932.00,273.00              929.74,273.00 926.32,272.78 924.39,274.02              922.05,275.53 920.87,279.53 919.63,282.00              917.03,287.20 913.28,293.21 909.98,298.00              899.48,313.20 883.50,326.48 867.00,334.73              841.30,347.58 806.66,350.58 779.00,342.99              771.57,340.95 765.99,339.12 759.00,335.74              759.00,335.74 746.00,329.38 746.00,329.38              742.54,328.81 735.72,334.80 732.00,336.74              723.62,341.10 714.49,343.89 705.00,344.00              686.29,344.22 672.35,339.77 659.04,326.00              659.04,326.00 639.00,301.00 639.00,301.00              637.98,307.47 634.89,313.59 631.25,319.00              610.19,350.31 560.24,352.64 536.30,325.00              530.93,318.80 526.94,311.77 524.35,304.00              524.35,304.00 520.78,291.00 520.78,291.00              518.95,286.75 514.85,282.23 510.00,281.72              506.03,281.30 502.91,284.12 500.00,286.40              500.00,286.40 483.00,299.00 483.00,299.00              468.68,308.44 441.14,321.20 424.00,322.00 Z            M 390.00,284.00            C 428.33,284.00 466.91,267.90 490.50,237.00              526.25,190.17 518.08,113.34 471.00,76.89              451.46,61.75 424.95,51.04 400.00,51.00              400.00,51.00 353.00,51.00 353.00,51.00              353.00,51.00 191.00,51.00 191.00,51.00              191.00,51.00 82.00,51.00 82.00,51.00              63.11,51.03 53.03,63.78 53.00,82.00              53.00,82.00 53.00,276.00 53.00,276.00              53.00,276.00 54.00,291.00 54.00,291.00              54.13,302.25 54.38,310.44 59.32,321.00              69.49,342.74 93.02,352.96 116.00,353.00              116.00,353.00 253.00,353.00 253.00,353.00              253.00,353.00 268.00,352.00 268.00,352.00              268.00,352.00 326.00,352.00 326.00,352.00              363.79,351.94 388.36,319.68 390.00,284.00 Z            M 79.43,76.02            C 84.37,74.07 102.58,75.00 109.00,75.00              109.00,75.00 174.00,75.00 174.00,75.00              174.00,75.00 398.00,75.00 398.00,75.00              424.43,75.04 453.13,88.21 469.55,109.00              494.82,141.01 495.39,196.12 467.83,227.00              450.61,246.29 420.96,259.69 395.00,260.00              387.40,260.09 375.97,258.38 370.34,264.22              365.02,269.74 366.38,276.24 365.91,283.00              365.91,283.00 364.75,291.00 364.75,291.00              361.25,311.12 347.65,327.74 326.00,328.00              326.00,328.00 230.00,328.00 230.00,328.00              230.00,328.00 215.00,329.00 215.00,329.00              215.00,329.00 118.00,329.00 118.00,329.00              94.85,328.96 78.04,319.09 77.96,294.00              77.96,294.00 77.96,279.00 77.96,279.00              77.96,279.00 77.00,267.00 77.00,267.00              77.00,267.00 77.00,133.00 77.00,133.00              77.00,133.00 77.00,92.00 77.00,92.00              77.00,86.81 75.72,80.09 79.43,76.02 Z            M 1089.00,151.00            C 1089.00,138.27 1086.99,121.52 1105.00,121.02              1115.90,120.71 1129.73,128.24 1136.08,115.00              1136.94,113.20 1137.61,110.99 1137.80,109.00              1138.72,99.67 1132.25,93.84 1124.00,91.22              1111.95,87.40 1095.83,89.37 1084.00,93.36              1080.10,94.67 1076.36,96.38 1073.00,98.79              1053.18,112.97 1053.00,129.14 1053.00,151.00              1046.08,151.00 1034.72,149.85 1029.00,153.70              1019.36,160.19 1019.21,176.21 1030.00,181.43              1034.88,183.79 1047.16,183.00 1053.00,183.00              1053.00,183.00 1053.00,280.00 1053.00,280.00              1053.02,294.20 1060.27,305.22 1076.00,301.61              1086.13,299.29 1088.89,289.03 1089.00,280.00              1089.00,280.00 1089.00,183.00 1089.00,183.00              1089.00,183.00 1112.00,183.00 1112.00,183.00              1116.68,182.99 1119.94,183.22 1123.98,180.35              1132.63,174.22 1133.12,161.29 1124.90,154.56              1118.15,149.03 1098.03,151.00 1089.00,151.00 Z            M 1163.00,95.29            C 1158.70,96.01 1154.46,96.72 1151.43,100.21              1146.67,105.70 1146.89,121.49 1152.28,126.58              1155.49,129.62 1159.83,129.95 1164.00,130.00              1169.62,130.06 1177.35,130.73 1181.72,126.58              1187.56,121.06 1187.27,103.55 1180.89,98.51              1176.62,95.14 1168.23,94.80 1163.00,95.29 Z            M 627.00,214.00            C 629.95,219.59 639.33,231.27 643.63,237.00              643.63,237.00 677.12,281.00 677.12,281.00              683.55,289.43 689.17,301.44 701.00,301.96              712.23,302.45 723.36,294.03 721.66,282.00              720.47,273.57 712.45,264.77 707.37,258.00              707.37,258.00 672.63,212.00 672.63,212.00              672.63,212.00 659.87,195.00 659.87,195.00              658.64,193.35 655.30,189.68 655.67,187.58              655.96,185.84 658.78,183.25 660.01,182.00              660.01,182.00 672.00,170.91 672.00,170.91              672.00,170.91 707.00,137.01 707.00,137.01              711.71,132.42 718.94,127.64 720.58,121.00              723.09,110.91 715.92,99.35 705.00,99.34              699.32,99.34 695.17,102.32 691.00,105.76              691.00,105.76 653.00,143.00 653.00,143.00              653.00,143.00 600.00,195.00 600.00,195.00              600.00,195.00 600.00,121.00 600.00,121.00              599.94,116.29 599.54,111.91 596.57,108.02              590.02,99.42 575.75,98.28 568.19,106.11              563.15,111.31 563.01,116.24 563.00,123.00              563.00,123.00 563.00,261.00 563.00,261.00              563.00,261.00 563.00,276.00 563.00,276.00              563.00,286.31 562.83,297.54 575.00,301.35              577.26,302.06 580.61,302.05 583.00,301.98              596.37,301.61 599.98,291.45 600.00,280.00              600.00,280.00 600.00,246.00 600.00,246.00              600.14,238.58 602.94,237.04 608.00,232.00              608.00,232.00 627.00,214.00 627.00,214.00 Z            M 377.00,104.17            C 368.80,106.74 367.10,112.13 367.00,120.00              367.00,120.00 367.00,215.00 367.00,215.00              367.13,225.74 370.89,230.86 382.00,231.00              402.57,231.25 414.95,232.67 433.00,220.48              453.96,206.33 459.27,184.79 459.00,161.00              458.90,152.43 456.51,142.65 452.63,135.00              448.87,127.58 441.55,119.72 435.00,114.68              421.69,104.43 408.84,104.00 393.00,104.17              393.00,104.17 377.00,104.17 377.00,104.17 Z            M 222.00,149.00            C 204.19,124.67 158.85,119.95 139.53,145.00              131.65,155.21 131.86,163.91 132.00,176.00              132.30,201.50 149.37,217.37 166.00,234.00              166.00,234.00 204.00,270.01 204.00,270.01              207.13,273.02 217.16,282.93 221.00,283.43              225.21,283.98 230.23,278.68 233.00,275.99              233.00,275.99 258.00,252.04 258.00,252.04              258.00,252.04 267.00,243.96 267.00,243.96              267.00,243.96 287.09,223.00 287.09,223.00              300.56,208.54 309.69,199.60 312.15,179.00              312.52,175.95 313.04,174.17 312.82,171.00              312.41,165.27 310.86,158.22 308.48,153.00              306.22,148.03 302.16,142.83 298.00,139.32              273.43,118.61 242.70,128.36 222.00,149.00 Z            M 392.00,128.00            C 404.04,128.00 411.66,127.20 421.99,134.93              440.00,148.40 439.08,183.35 422.99,197.82              412.64,207.11 403.92,207.00 391.00,207.00              391.00,207.00 391.00,183.00 391.00,183.00              391.00,183.00 392.00,166.00 392.00,166.00              392.00,166.00 392.00,128.00 392.00,128.00 Z            M 805.00,145.28            C 776.85,149.42 755.27,160.40 741.97,187.00              736.95,197.04 732.46,215.80 733.09,227.00              735.02,260.97 751.44,289.67 785.00,301.00              791.76,303.28 798.84,304.91 806.00,305.00              828.61,305.26 844.88,302.39 863.00,287.54              895.58,260.82 899.10,206.52 873.48,174.00              857.50,153.71 830.60,142.90 805.00,145.28 Z            M 1164.00,148.33            C 1152.62,151.06 1149.13,157.89 1149.00,169.00              1149.00,169.00 1149.00,280.00 1149.00,280.00              1149.01,285.43 1149.12,290.37 1152.51,294.98              1159.48,304.49 1174.45,304.67 1181.35,294.98              1184.81,290.13 1184.99,284.69 1185.00,279.00              1185.00,279.00 1185.00,170.00 1185.00,170.00              1184.84,156.55 1178.70,146.83 1164.00,148.33 Z            M 803.00,178.23            C 806.88,177.93 810.11,177.98 814.00,178.23              862.09,178.23 869.97,254.99 827.00,270.30              822.20,272.01 815.09,273.16 810.00,272.96              758.51,270.94 754.16,189.34 803.00,178.23 Z            M 927.00,197.17            C 910.29,201.84 910.14,222.93 923.00,229.55              927.03,231.62 932.54,231.98 937.00,232.00              937.00,232.00 976.00,232.00 976.00,232.00              983.18,231.99 990.31,231.43 995.47,225.70              1002.77,217.57 1000.15,204.53 991.00,199.01              987.31,196.78 984.11,197.01 980.00,197.17              980.00,197.17 927.00,197.17 927.00,197.17 Z" />
</svg>