<svg xmlns="http://www.w3.org/2000/svg" viewBox="16.49 10.5 244.49 228.79">
  <path id="kreosus" fill="#303030" stroke="none" stroke-width="1"
    d="M 201.00,214.00            C 161.28,248.09 97.35,246.42 58.00,212.70              31.03,189.59 16.59,157.43 17.00,122.00              17.50,79.91 43.73,38.85 82.00,21.31              101.96,12.16 114.55,10.97 136.00,11.00              152.45,11.03 172.88,17.09 187.00,25.45              191.15,27.91 202.44,33.00 199.05,38.98              194.47,47.08 188.12,39.73 183.00,36.61              163.47,24.72 148.39,21.97 126.00,22.00              112.64,22.02 98.93,25.87 87.00,31.76              32.47,58.64 10.99,125.90 43.42,178.00              48.21,185.69 54.29,193.74 61.00,199.83              69.78,207.80 81.02,215.44 92.00,219.99              116.05,229.96 142.75,230.40 167.00,220.80              173.50,218.22 179.10,215.31 185.00,211.56              187.18,210.18 191.36,206.73 193.91,207.02              196.83,207.36 199.50,211.76 201.00,214.00 Z            M 230.00,121.00            C 230.00,121.00 178.00,121.00 178.00,121.00              173.05,120.99 165.35,120.93 165.36,114.00              165.36,110.06 174.18,96.19 176.58,92.00              176.58,92.00 205.15,42.00 205.15,42.00              207.36,38.13 214.39,24.69 217.21,22.60              218.84,21.39 220.96,20.90 222.96,21.33              226.41,22.08 228.07,25.20 229.72,28.00              229.72,28.00 239.42,45.00 239.42,45.00              239.42,45.00 255.42,73.00 255.42,73.00              257.19,76.09 260.88,81.43 260.45,85.00              260.09,88.06 251.90,101.41 249.85,105.00              246.80,110.34 244.24,117.99 238.00,120.00              234.63,115.29 225.46,106.12 221.00,102.04              219.81,100.95 214.04,96.33 214.04,101.11              214.04,103.38 217.49,106.47 219.00,108.00              223.16,112.22 227.44,115.58 230.00,121.00 Z            M 91.11,44.65            C 92.89,44.43 93.01,44.12 95.00,44.65              98.14,45.20 115.94,55.99 120.00,58.40              120.00,58.40 144.00,72.28 144.00,72.28              147.14,74.07 153.06,77.09 154.83,80.18              156.22,82.63 156.00,86.24 156.00,89.00              156.00,89.00 156.00,159.00 156.00,159.00              155.98,169.24 154.81,168.47 142.00,175.99              142.00,175.99 110.00,194.58 110.00,194.58              106.18,196.77 96.96,202.94 93.00,202.75              86.78,202.44 87.01,196.61 87.00,192.00              87.00,192.00 87.00,82.00 87.00,82.00              87.00,82.00 87.00,54.00 87.00,54.00              87.07,49.30 86.92,47.37 91.11,44.65 Z            M 229.00,127.00            C 226.14,133.06 221.46,136.17 217.04,141.00              215.83,142.32 212.71,145.46 214.63,147.37              216.77,149.52 220.61,145.33 222.00,143.99              224.95,141.15 235.07,130.21 237.98,129.17              241.59,127.89 243.33,131.46 244.85,134.00              244.85,134.00 255.72,153.00 255.72,153.00              257.68,156.44 261.03,160.93 260.26,165.00              259.72,167.87 254.18,176.93 252.42,180.00              252.42,180.00 235.28,210.00 235.28,210.00              232.33,215.18 227.25,228.13 220.04,226.53              216.63,225.77 214.92,222.77 213.28,220.00              213.28,220.00 204.15,204.00 204.15,204.00              204.15,204.00 176.15,155.00 176.15,155.00              173.84,150.94 165.55,137.76 165.33,134.00              164.91,126.82 171.95,127.01 177.00,127.00              177.00,127.00 229.00,127.00 229.00,127.00 Z" />
</svg>