<svg xmlns="http://www.w3.org/2000/svg" viewBox="16.49 10.5 922.05 228.79">
  <path id="kreosus-wordmark" fill="#303030" stroke="none" stroke-width="1"
    d="M 201.00,214.00            C 161.28,248.09 97.35,246.42 58.00,212.70              31.03,189.59 16.59,157.43 17.00,122.00              17.50,79.91 43.73,38.85 82.00,21.31              101.96,12.16 114.55,10.97 136.00,11.00              152.45,11.03 172.88,17.09 187.00,25.45              191.15,27.91 202.44,33.00 199.05,38.98              194.47,47.08 188.12,39.73 183.00,36.61              163.47,24.72 148.39,21.97 126.00,22.00              112.64,22.02 98.93,25.87 87.00,31.76              32.47,58.64 10.99,125.90 43.42,178.00              48.21,185.69 54.29,193.74 61.00,199.83              69.78,207.80 81.02,215.44 92.00,219.99              116.05,229.96 142.75,230.40 167.00,220.80              173.50,218.22 179.10,215.31 185.00,211.56              187.18,210.18 191.36,206.73 193.91,207.02              196.83,207.36 199.50,211.76 201.00,214.00 Z            M 230.00,121.00            C 230.00,121.00 178.00,121.00 178.00,121.00              173.05,120.99 165.35,120.93 165.36,114.00              165.36,110.06 174.18,96.19 176.58,92.00              176.58,92.00 205.15,42.00 205.15,42.00              207.36,38.13 214.39,24.69 217.21,22.60              218.84,21.39 220.96,20.90 222.96,21.33              226.41,22.08 228.07,25.20 229.72,28.00              229.72,28.00 239.42,45.00 239.42,45.00              239.42,45.00 255.42,73.00 255.42,73.00              257.19,76.09 260.88,81.43 260.45,85.00              260.09,88.06 251.90,101.41 249.85,105.00              246.80,110.34 244.24,117.99 238.00,120.00              234.63,115.29 225.46,106.12 221.00,102.04              219.81,100.95 214.04,96.33 214.04,101.11              214.04,103.38 217.49,106.47 219.00,108.00              223.16,112.22 227.44,115.58 230.00,121.00 Z            M 91.11,44.65            C 92.89,44.43 93.01,44.12 95.00,44.65              98.14,45.20 115.94,55.99 120.00,58.40              120.00,58.40 144.00,72.28 144.00,72.28              147.14,74.07 153.06,77.09 154.83,80.18              156.22,82.63 156.00,86.24 156.00,89.00              156.00,89.00 156.00,159.00 156.00,159.00              155.98,169.24 154.81,168.47 142.00,175.99              142.00,175.99 110.00,194.58 110.00,194.58              106.18,196.77 96.96,202.94 93.00,202.75              86.78,202.44 87.01,196.61 87.00,192.00              87.00,192.00 87.00,82.00 87.00,82.00              87.00,82.00 87.00,54.00 87.00,54.00              87.07,49.30 86.92,47.37 91.11,44.65 Z            M 392.00,171.00            C 392.00,171.00 392.00,93.00 392.00,93.00              392.01,89.39 391.74,85.41 394.01,82.34              396.78,78.58 400.79,78.32 405.00,77.93              405.00,77.93 426.00,77.00 426.00,77.00              436.76,77.13 451.11,80.00 458.67,88.17              467.92,98.17 468.42,115.48 459.47,125.83              456.49,129.28 453.07,131.16 449.00,133.00              454.41,140.07 467.65,162.76 470.00,171.00              470.00,171.00 450.00,171.00 450.00,171.00              448.43,165.51 440.44,151.40 437.20,146.00              434.63,141.73 433.48,138.31 428.00,137.99              428.00,137.99 420.00,137.99 420.00,137.99              420.00,137.99 409.00,137.00 409.00,137.00              409.00,137.00 409.00,171.00 409.00,171.00              409.00,171.00 392.00,171.00 392.00,171.00 Z            M 597.00,77.23            C 597.00,77.23 615.00,77.23 615.00,77.23              636.07,77.10 653.90,94.81 657.77,115.00              658.19,118.63 658.02,124.17 657.77,128.00              657.89,151.83 636.81,172.72 613.00,173.00              613.00,173.00 606.00,173.00 606.00,173.00              599.82,172.92 593.67,171.60 588.00,169.13              546.77,151.13 551.59,87.57 597.00,77.23 Z            M 673.00,149.00            C 682.37,151.23 689.84,158.21 709.00,158.00              713.94,157.94 719.82,157.17 723.89,154.15              730.53,149.22 729.72,141.33 722.98,136.99              711.45,129.57 674.98,134.61 669.31,111.00              668.92,108.36 668.87,102.75 669.31,100.00              669.49,95.13 671.81,89.71 675.21,86.18              684.91,76.13 696.37,77.00 709.00,77.00              716.56,77.00 722.72,76.67 730.00,79.47              743.77,84.76 746.26,95.54 735.00,101.00              727.35,92.82 709.77,89.36 699.00,91.67              692.42,93.08 683.55,97.78 686.86,105.98              689.76,113.20 700.28,114.46 707.00,115.80              725.21,119.42 747.95,121.45 746.96,146.00              745.73,176.40 704.10,176.42 683.00,169.66              675.19,167.15 673.98,166.01 667.00,163.00              667.00,163.00 673.00,149.00 673.00,149.00 Z            M 866.00,149.00            C 866.00,149.00 875.00,152.93 875.00,152.93              884.72,156.72 897.65,159.55 908.00,157.33              916.68,155.48 925.72,147.72 917.72,139.21              913.35,134.55 905.97,133.79 900.00,132.75              888.58,130.76 873.12,128.66 865.53,118.98              861.56,113.92 861.00,110.19 861.00,104.00              861.00,87.17 873.87,77.20 890.00,77.00              902.43,76.85 915.72,75.58 927.00,81.80              936.18,86.87 936.62,96.33 927.00,101.00              919.71,92.72 901.55,89.41 891.00,91.67              884.37,93.09 875.75,97.75 879.02,105.96              882.12,113.75 894.76,114.99 902.00,116.25              913.95,118.33 931.83,121.25 936.99,134.00              938.33,137.30 938.01,142.38 938.00,146.00              938.00,148.65 938.11,151.43 937.36,154.00              935.07,161.94 927.48,167.63 920.00,170.30              907.52,174.76 887.56,173.68 875.00,169.66              867.19,167.15 865.98,166.01 859.00,163.00              859.00,163.00 866.00,149.00 866.00,149.00 Z            M 321.00,171.00            C 317.82,171.00 307.96,171.85 306.02,169.40              304.77,167.81 305.00,163.99 305.00,162.00              305.00,162.00 305.00,91.00 305.00,91.00              305.01,87.51 304.62,83.16 307.43,80.65              310.12,78.08 317.66,77.77 320.01,80.65              321.07,82.07 320.97,84.38 321.00,86.00              321.00,86.00 321.00,116.00 321.00,116.00              327.77,109.29 353.05,85.99 360.00,81.48              366.82,77.05 375.91,77.16 380.00,85.00              380.00,85.00 356.00,105.85 356.00,105.85              356.00,105.85 338.00,123.00 338.00,123.00              344.64,126.56 349.71,132.71 355.00,138.00              362.65,145.65 379.25,161.40 383.00,171.00              383.00,171.00 369.00,171.00 369.00,171.00              359.13,170.94 357.46,164.79 350.96,158.00              341.46,148.07 331.62,138.71 321.00,130.00              321.00,130.00 321.00,171.00 321.00,171.00 Z            M 482.00,171.00            C 482.00,171.00 482.00,92.00 482.00,92.00              482.02,78.63 486.81,78.02 499.00,78.00              499.00,78.00 529.00,78.00 529.00,78.00              533.62,78.00 541.81,77.62 545.96,78.94              554.10,81.53 552.07,90.91 549.30,93.01              547.65,94.26 544.03,94.00 542.00,94.00              542.00,94.00 499.00,94.00 499.00,94.00              499.00,94.00 499.00,116.00 499.00,116.00              499.00,116.00 538.00,116.00 538.00,116.00              541.39,116.01 544.99,115.65 547.42,118.31              550.36,121.19 550.49,128.51 547.42,131.01              545.78,132.17 542.83,131.99 541.00,132.00              532.31,132.05 505.73,132.91 499.00,131.00              499.00,131.00 499.00,155.00 499.00,155.00              499.00,155.00 551.00,155.00 551.00,155.00              551.00,155.00 551.00,171.00 551.00,171.00              551.00,171.00 482.00,171.00 482.00,171.00 Z            M 769.00,78.65            C 776.05,78.60 778.86,79.59 779.00,87.00              779.00,87.00 779.00,131.00 779.00,131.00              779.03,137.15 779.95,143.85 783.65,148.98              791.76,160.27 813.84,160.53 822.61,149.96              828.18,143.25 828.99,130.51 829.00,122.00              829.00,122.00 829.00,90.00 829.00,90.00              829.01,87.17 828.71,83.62 830.60,81.30              834.15,76.95 843.09,78.32 845.01,80.73              846.26,82.31 846.00,86.03 846.00,88.00              846.00,88.00 846.00,117.00 846.00,117.00              846.00,139.17 845.68,163.31 820.00,171.23              813.03,173.38 806.20,173.08 799.00,173.00              794.34,172.94 791.47,172.41 787.00,171.09              759.61,163.02 761.00,133.89 761.00,111.00              761.00,104.99 759.90,86.40 762.85,82.14              764.61,79.61 766.23,79.29 769.00,78.65 Z            M 409.00,122.00            C 417.57,123.53 433.17,124.04 440.98,120.00              449.89,115.40 450.45,102.37 442.95,96.50              435.32,90.53 418.52,92.00 409.00,92.00              409.00,92.00 409.00,122.00 409.00,122.00 Z            M 604.00,92.30            C 594.70,94.06 587.54,97.61 582.48,106.00              578.55,112.50 577.92,118.62 578.00,126.00              578.20,142.95 589.43,156.79 607.00,157.00              613.50,157.07 618.00,157.07 624.00,154.01              642.56,144.51 645.74,115.70 631.82,101.09              624.12,93.02 614.63,91.24 604.00,92.30 Z            M 229.00,127.00            C 226.14,133.06 221.46,136.17 217.04,141.00              215.83,142.32 212.71,145.46 214.63,147.37              216.77,149.52 220.61,145.33 222.00,143.99              224.95,141.15 235.07,130.21 237.98,129.17              241.59,127.89 243.33,131.46 244.85,134.00              244.85,134.00 255.72,153.00 255.72,153.00              257.68,156.44 261.03,160.93 260.26,165.00              259.72,167.87 254.18,176.93 252.42,180.00              252.42,180.00 235.28,210.00 235.28,210.00              232.33,215.18 227.25,228.13 220.04,226.53              216.63,225.77 214.92,222.77 213.28,220.00              213.28,220.00 204.15,204.00 204.15,204.00              204.15,204.00 176.15,155.00 176.15,155.00              173.84,150.94 165.55,137.76 165.33,134.00              164.91,126.82 171.95,127.01 177.00,127.00              177.00,127.00 229.00,127.00 229.00,127.00 Z" />
</svg>