<svg xmlns="http://www.w3.org/2000/svg" viewBox="5.5 4.81 1268 577.18">
  <path id="krisp-wordmark" fill="#303030" stroke="none" stroke-width="1"
    d="M 620.00,5.43            C 625.17,4.91 634.97,6.21 640.00,7.72              647.03,9.83 654.36,13.62 660.00,18.32              692.25,45.23 684.07,97.40 646.00,114.27              638.62,117.54 630.07,119.17 622.00,118.99              597.51,118.43 576.20,102.47 569.04,79.00              566.68,71.26 566.91,65.91 567.00,58.00              567.11,48.79 570.55,38.71 575.55,31.00              586.82,13.59 600.58,8.21 620.00,5.43 Z            M 97.00,377.00            C 97.00,377.00 97.00,444.00 97.00,444.00              96.99,449.85 97.18,455.45 90.00,456.92              90.00,456.92 84.00,456.92 84.00,456.92              84.00,456.92 18.00,456.92 18.00,456.92              7.48,456.95 6.02,455.14 6.00,445.00              6.00,445.00 6.00,66.00 6.00,66.00              6.02,55.76 6.68,57.38 22.00,50.85              22.00,50.85 72.00,30.60 72.00,30.60              76.03,28.99 89.45,22.75 92.89,23.41              97.62,24.30 96.99,30.39 97.00,34.00              97.00,34.00 97.00,223.00 97.00,223.00              97.00,223.00 153.00,167.00 153.00,167.00              156.84,163.16 168.88,150.11 173.00,148.60              174.94,147.88 177.91,148.00 180.00,148.00              180.00,148.00 232.00,148.00 232.00,148.00              232.00,148.00 286.00,148.00 286.00,148.00              289.87,148.03 295.75,148.23 294.16,154.00              293.19,157.51 285.80,164.20 283.00,167.00              283.00,167.00 254.00,196.00 254.00,196.00              254.00,196.00 150.00,300.00 150.00,300.00              150.00,300.00 190.00,339.00 190.00,339.00              190.00,339.00 267.00,416.00 267.00,416.00              267.00,416.00 294.00,443.00 294.00,443.00              295.35,444.37 297.40,446.40 298.40,448.00              303.60,456.30 294.58,456.99 289.00,457.00              289.00,457.00 186.00,457.00 186.00,457.00              183.55,457.00 180.28,457.13 178.00,456.26              173.52,454.55 161.12,441.12 157.00,437.00              157.00,437.00 97.00,377.00 97.00,377.00 Z            M 474.00,148.21            C 474.00,148.21 537.00,148.21 537.00,148.21              539.84,148.01 544.22,147.56 545.96,150.31              547.69,153.04 545.84,157.31 544.80,160.00              544.80,160.00 535.40,183.00 535.40,183.00              535.40,183.00 518.20,225.00 518.20,225.00              513.00,238.01 513.62,238.94 505.00,239.00              505.00,239.00 488.00,239.00 488.00,239.00              450.42,239.44 422.06,267.26 422.00,305.00              422.00,305.00 422.00,421.00 422.00,421.00              422.00,421.00 422.00,446.00 422.00,446.00              421.98,449.18 422.17,452.16 419.69,454.57              416.84,457.33 412.65,456.99 409.00,457.00              409.00,457.00 342.00,457.00 342.00,457.00              333.92,456.89 331.11,454.08 331.00,446.00              331.00,446.00 331.00,429.00 331.00,429.00              331.00,429.00 331.00,338.00 331.00,338.00              331.00,308.23 329.08,286.25 337.43,257.00              350.59,210.88 387.30,173.44 432.00,157.05              447.29,151.45 458.38,150.64 474.00,148.21 Z            M 582.11,148.74            C 587.51,147.37 600.75,148.00 607.00,148.00              607.00,148.00 656.00,148.00 656.00,148.00              667.09,148.02 668.98,149.91 669.00,161.00              669.00,161.00 669.00,368.00 669.00,368.00              669.00,368.00 669.00,444.00 669.00,444.00              668.99,449.85 669.18,455.45 662.00,456.92              662.00,456.92 656.00,456.92 656.00,456.92              656.00,456.92 589.00,456.92 589.00,456.92              580.83,456.89 578.12,455.44 578.00,447.00              578.00,447.00 578.00,392.00 578.00,392.00              578.00,392.00 578.00,209.00 578.00,209.00              578.00,209.00 578.00,160.00 578.00,160.00              578.01,154.80 577.30,151.79 582.11,148.74 Z            M 810.00,148.21            C 810.00,148.21 824.00,148.21 824.00,148.21              854.93,148.15 891.02,162.25 913.00,184.00              920.34,191.27 931.78,204.76 934.17,215.00              936.16,223.50 928.00,225.14 922.00,227.72              922.00,227.72 883.00,243.40 883.00,243.40              879.14,244.95 868.59,249.77 865.00,249.48              859.57,249.03 855.51,241.78 851.91,238.01              845.86,231.66 838.47,226.82 830.00,224.43              826.10,223.33 823.07,222.82 819.00,223.09              809.29,223.72 792.45,230.44 792.37,242.00              792.29,253.72 809.19,259.08 818.00,262.60              844.37,273.14 878.47,281.22 901.00,297.43              929.54,317.96 942.83,355.47 930.91,389.00              925.62,403.88 915.68,416.40 904.00,426.83              880.16,448.11 843.36,457.36 812.00,457.00              812.00,457.00 802.00,456.09 802.00,456.09              770.84,453.81 739.23,442.08 718.29,418.00              712.54,411.39 706.41,402.03 702.86,394.00              701.33,390.53 699.38,385.86 700.32,382.02              701.71,376.30 710.07,374.17 715.00,372.20              715.00,372.20 752.00,357.00 752.00,357.00              755.54,355.58 764.78,351.22 768.00,351.41              773.39,351.72 777.65,359.19 781.05,363.00              787.98,370.75 795.71,377.70 806.00,380.51              808.97,381.32 812.93,382.03 816.00,381.90              826.43,381.43 844.48,374.78 843.85,362.00              843.35,351.80 830.26,346.39 822.00,343.67              822.00,343.67 806.00,339.29 806.00,339.29              785.51,333.46 765.12,326.82 747.00,315.31              735.86,308.23 725.97,300.61 717.90,290.00              712.59,283.02 707.93,275.32 705.08,267.00              692.58,230.55 708.73,194.62 739.00,172.74              754.02,161.89 774.70,153.51 793.00,150.43              793.00,150.43 810.00,148.21 810.00,148.21 Z            M 1057.00,444.00            C 1057.00,444.00 1057.00,536.00 1057.00,536.00              1057.00,538.88 1057.21,542.36 1055.83,544.96              1053.19,549.91 1043.16,552.73 1038.00,554.80              1038.00,554.80 992.00,573.60 992.00,573.60              988.26,575.10 972.96,581.81 970.06,581.48              965.43,580.94 966.01,575.39 966.00,572.00              966.00,572.00 966.00,355.00 966.00,355.00              966.00,355.00 966.00,293.00 966.00,293.00              966.05,263.41 980.52,228.96 998.66,206.00              1043.80,148.89 1124.17,131.85 1189.00,164.27              1207.27,173.41 1224.42,187.41 1237.56,203.00              1257.78,226.98 1272.95,262.29 1273.00,294.00              1273.00,294.00 1273.00,313.00 1273.00,313.00              1272.85,325.12 1269.17,340.49 1265.33,352.00              1245.87,410.43 1193.41,451.60 1132.00,456.09              1132.00,456.09 1120.00,457.00 1120.00,457.00              1096.47,457.03 1078.86,451.58 1057.00,444.00 Z            M 1118.00,239.32            C 1118.00,239.32 1106.00,240.89 1106.00,240.89              1087.67,245.05 1071.82,257.12 1063.37,274.00              1049.29,302.14 1058.36,336.33 1084.00,354.28              1093.27,360.77 1104.61,364.86 1116.00,365.00              1127.87,365.14 1137.25,364.21 1148.00,358.51              1187.70,337.45 1194.33,283.58 1160.00,254.30              1154.55,249.65 1147.76,245.71 1141.00,243.34              1133.67,240.78 1125.80,239.15 1118.00,239.32 Z" />
</svg>