<svg xmlns="http://www.w3.org/2000/svg" viewBox="280.29 280.5 939.94 940.11">
  <path id="krisp" fill="#303030" stroke="none" stroke-width="1"
    d="M 422.72,281.54            C 422.72,281.54 443.00,281.00 443.00,281.00              460.46,281.03 479.77,285.50 496.00,291.81              510.54,297.46 528.38,307.83 540.00,318.17              560.78,336.65 576.01,357.80 585.56,384.00              606.25,440.72 591.66,506.34 549.00,549.00              536.28,561.72 521.39,572.54 505.00,580.08              482.18,590.57 458.06,595.29 433.00,595.00              416.04,594.80 395.71,590.26 380.00,584.00              360.37,576.17 342.12,564.85 327.07,549.92              259.00,482.38 266.89,367.20 345.00,310.74              369.47,293.06 393.08,285.14 422.72,281.54 Z            M 595.00,755.00            C 595.00,755.00 595.00,1112.00 595.00,1112.00              595.00,1112.00 595.00,1200.00 595.00,1200.00              594.98,1214.65 591.02,1219.98 576.00,1220.00              576.00,1220.00 349.00,1220.00 349.00,1220.00              349.00,1220.00 307.00,1220.00 307.00,1220.00              301.47,1220.00 291.97,1220.80 287.32,1218.00              281.25,1214.35 281.01,1208.28 281.00,1202.00              281.00,1202.00 281.00,855.00 281.00,855.00              281.00,855.00 281.00,766.00 281.00,766.00              281.06,754.13 285.32,750.02 297.00,750.00              297.00,750.00 584.00,750.00 584.00,750.00              586.47,750.00 589.70,750.20 591.90,748.98              596.09,746.66 603.20,730.92 606.00,726.00              606.00,726.00 648.92,647.00 648.92,647.00              648.92,647.00 738.31,482.00 738.31,482.00              738.31,482.00 800.78,367.00 800.78,367.00              800.78,367.00 831.84,310.00 831.84,310.00              840.93,293.07 844.03,281.03 866.00,281.00              866.00,281.00 1202.00,281.00 1202.00,281.00              1204.41,281.00 1207.72,280.91 1210.00,281.57              1211.92,282.12 1213.40,282.95 1214.89,284.28              1225.98,294.12 1215.34,306.69 1209.58,316.00              1209.58,316.00 1143.69,420.00 1143.69,420.00              1143.69,420.00 1029.05,601.00 1029.05,601.00              1029.05,601.00 991.54,660.00 991.54,660.00              987.83,665.77 980.33,679.57 975.82,683.61              975.82,683.61 945.00,700.55 945.00,700.55              945.00,700.55 886.00,731.74 886.00,731.74              876.93,736.42 858.32,745.31 851.00,751.00              851.00,751.00 893.00,772.70 893.00,772.70              893.00,772.70 933.00,793.70 933.00,793.70              933.00,793.70 962.00,809.00 962.00,809.00              965.91,811.11 972.90,814.40 975.90,817.21              979.60,820.68 991.48,840.37 995.05,846.00              995.05,846.00 1030.42,902.00 1030.42,902.00              1030.42,902.00 1140.05,1075.00 1140.05,1075.00              1140.05,1075.00 1208.58,1183.00 1208.58,1183.00              1213.86,1191.44 1222.98,1201.51 1218.20,1212.00              1216.49,1215.74 1213.92,1217.97 1210.00,1219.20              1207.12,1220.10 1203.99,1220.00 1201.00,1220.00              1201.00,1220.00 867.00,1220.00 867.00,1220.00              862.76,1219.99 860.17,1220.03 856.00,1218.83              841.96,1214.79 838.04,1201.46 831.58,1190.00              831.58,1190.00 788.14,1110.00 788.14,1110.00              788.14,1110.00 729.46,1002.00 729.46,1002.00              729.46,1002.00 658.29,871.00 658.29,871.00              658.29,871.00 622.31,805.00 622.31,805.00              622.31,805.00 595.00,755.00 595.00,755.00 Z" />
</svg>