<svg xmlns="http://www.w3.org/2000/svg" viewBox="59.56 57.5 872.34 877">
  <path id="kurzgesagt" fill="#303030" stroke="none" stroke-width="1"
    d="M 188.00,186.00            C 190.27,181.58 203.01,171.09 207.48,167.04              226.43,149.86 247.42,135.13 269.27,121.92              310.63,96.95 355.71,78.67 403.00,68.45              403.00,68.45 408.91,67.74 408.91,67.74              408.91,67.74 414.17,65.99 414.17,65.99              414.17,65.99 420.00,65.99 420.00,65.99              420.00,65.99 426.00,64.26 426.00,64.26              426.00,64.26 432.91,63.74 432.91,63.74              432.91,63.74 439.09,61.95 439.09,61.95              439.09,61.95 449.00,61.95 449.00,61.95              455.45,60.90 452.34,60.02 462.00,60.00              462.00,60.00 480.00,60.00 480.00,60.00              488.03,59.86 485.39,57.98 498.00,58.00              498.00,58.00 508.28,59.01 508.28,59.01              508.28,59.01 534.00,60.00 534.00,60.00              544.10,60.12 580.31,66.09 591.00,68.59              591.00,68.59 613.00,74.00 613.00,74.00              612.16,76.83 610.21,82.32 610.21,85.00              610.20,87.41 611.12,89.68 611.65,92.00              615.61,109.54 629.72,121.96 648.00,122.00              648.00,122.00 702.00,122.00 702.00,122.00              712.19,121.98 715.30,118.72 720.00,119.94              723.87,120.95 736.01,129.65 740.00,132.33              756.33,143.33 772.30,155.04 787.00,168.16              790.96,171.70 804.27,183.20 806.11,187.00              807.21,188.93 805.99,200.61 806.11,204.00              806.03,223.47 819.61,241.27 838.00,247.48              841.05,248.51 845.80,249.68 849.00,249.91              851.85,250.12 856.26,249.57 858.68,251.02              860.77,252.28 862.96,255.91 864.26,258.00              867.45,263.15 872.62,270.35 874.00,276.00              874.00,276.00 787.00,276.00 787.00,276.00              784.18,275.99 780.70,276.22 778.22,274.69              773.99,272.07 773.47,265.90 777.39,262.74              780.22,260.46 784.58,261.16 788.00,260.91              794.47,260.43 800.34,257.80 802.20,251.00              802.61,249.32 802.64,247.69 802.20,246.00              801.79,244.10 800.94,242.54 799.70,241.04              795.82,236.34 792.65,236.03 787.00,236.00              787.00,236.00 737.00,236.00 737.00,236.00              734.86,236.00 732.02,235.90 730.00,236.56              721.28,239.43 718.92,250.24 725.34,256.66              731.07,262.39 737.61,259.47 741.69,263.43              745.20,266.84 744.02,272.50 739.89,274.83              738.13,275.82 723.28,276.73 720.00,277.00              720.00,277.00 720.00,266.00 720.00,266.00              719.89,247.92 702.85,232.11 685.00,232.00              685.00,232.00 594.00,232.00 594.00,232.00              578.05,232.03 564.59,241.28 558.78,256.28              553.87,268.97 557.39,269.85 558.00,281.00              545.80,281.00 536.94,279.79 528.21,290.00              524.58,294.26 523.40,298.46 523.76,304.00              524.56,316.50 535.17,323.85 547.00,324.00              547.00,324.00 593.00,324.00 593.00,324.00              604.40,323.86 613.80,317.60 616.00,306.00              616.00,306.00 682.00,306.00 682.00,306.00              682.00,306.00 698.00,304.00 698.00,304.00              698.00,308.80 697.80,311.30 699.36,316.00              702.66,325.88 712.73,335.26 723.00,337.48              726.80,338.31 737.51,338.00 742.00,338.00              742.00,338.00 767.00,338.00 767.00,338.00              767.00,338.00 896.00,338.00 896.00,338.00              898.75,338.01 902.30,337.67 904.50,339.60              907.00,341.77 908.25,347.81 909.38,351.00              909.38,351.00 918.00,378.00 918.00,378.00              918.00,378.00 668.00,378.00 668.00,378.00              658.67,378.02 661.56,378.92 656.83,379.76              650.69,380.86 649.22,380.16 642.28,382.73              618.95,391.38 599.46,409.84 591.63,433.73              589.48,440.26 588.01,445.04 588.00,452.00              588.00,452.00 588.00,466.00 588.00,466.00              588.05,498.28 615.31,528.31 645.17,537.58              653.85,540.27 653.08,539.40 661.00,540.17              661.00,540.17 677.00,542.00 677.00,542.00              677.00,542.00 717.00,542.00 717.00,542.00              717.00,542.00 840.00,542.00 840.00,542.00              840.00,542.00 897.00,542.00 897.00,542.00              907.25,542.00 921.26,542.74 931.00,541.00              932.41,546.91 929.67,559.48 928.73,566.00              928.39,568.32 928.06,572.76 926.40,574.40              924.59,576.20 921.36,575.98 919.00,576.00              919.00,576.00 876.00,576.00 876.00,576.00              876.00,576.00 797.00,576.00 797.00,576.00              778.17,576.03 759.70,588.33 750.10,604.16              747.87,607.85 746.49,611.93 745.14,615.99              742.63,623.55 742.02,621.32 742.00,630.00              742.00,630.00 742.00,641.00 742.00,641.00              742.15,649.79 745.94,656.21 749.00,664.00              749.00,664.00 731.00,664.00 731.00,664.00              717.18,664.00 708.74,663.89 698.52,675.29              691.90,682.65 689.89,689.38 690.00,699.00              690.24,718.81 707.06,731.97 726.00,732.00              726.00,732.00 804.00,732.00 804.00,732.00              825.15,731.97 841.92,715.55 840.00,694.00              848.56,696.08 875.69,695.23 885.00,694.00              885.66,699.89 882.92,702.99 880.17,708.00              880.17,708.00 865.74,732.00 865.74,732.00              843.97,767.57 814.56,800.96 783.00,828.13              732.78,871.37 675.80,901.29 612.00,918.70              612.00,918.70 575.00,927.54 575.00,927.54              575.00,927.54 566.00,928.26 566.00,928.26              557.74,929.61 549.44,931.89 541.00,932.08              541.00,932.08 532.00,932.08 532.00,932.08              524.99,932.92 526.93,933.98 517.00,934.00              517.00,934.00 476.00,934.00 476.00,934.00              466.37,933.98 468.90,932.79 463.00,932.06              463.00,932.06 453.00,932.06 453.00,932.06              444.97,931.96 446.72,931.00 441.00,929.99              441.00,929.99 432.17,929.99 432.17,929.99              432.17,929.99 426.91,928.01 426.91,928.01              426.91,928.01 420.17,928.01 420.17,928.01              420.17,928.01 414.91,926.26 414.91,926.26              414.91,926.26 399.00,923.55 399.00,923.55              399.00,923.55 387.83,920.46 387.83,920.46              367.71,915.21 348.25,909.17 329.01,901.11              318.59,896.74 294.37,886.83 287.00,880.00              287.00,880.00 433.00,880.00 433.00,880.00              433.00,880.00 505.00,880.00 505.00,880.00              512.25,880.14 511.62,879.51 518.00,878.31              522.81,877.41 525.21,877.27 530.00,875.33              539.73,871.39 549.12,860.68 552.87,851.00              561.23,829.46 551.49,806.70 531.00,796.51              524.67,793.36 521.06,792.01 514.00,791.96              514.00,791.96 499.00,791.96 499.00,791.96              499.00,791.96 487.00,791.00 487.00,791.00              487.00,791.00 430.00,791.00 430.00,791.00              420.68,790.88 414.72,787.22 412.00,778.00              412.00,778.00 433.00,778.00 433.00,778.00              445.17,777.98 456.24,773.78 465.27,765.48              465.27,765.48 475.37,754.08 475.37,754.08              475.37,754.08 489.00,747.55 489.00,747.55              494.24,744.41 505.73,733.61 509.67,728.68              515.92,720.84 521.72,708.88 523.63,699.00              523.63,699.00 524.32,693.00 524.32,693.00              524.89,689.57 525.91,687.85 525.92,684.00              525.93,680.52 525.05,678.25 524.46,675.00              521.61,659.17 519.49,651.28 508.98,638.41              506.74,635.68 504.58,632.84 501.91,630.51              493.49,623.16 489.61,619.74 479.00,615.45              479.00,615.45 463.09,610.87 463.09,610.87              459.45,609.56 455.44,604.67 451.96,602.03              445.60,597.19 440.79,596.01 433.00,596.00              433.00,596.00 294.00,596.00 294.00,596.00              288.91,595.99 282.55,595.73 278.18,592.78              270.71,587.72 270.64,576.25 278.18,571.23              282.73,568.20 287.90,569.27 293.00,568.91              299.84,568.43 305.82,566.32 310.32,560.91              320.88,548.19 314.14,530.94 299.00,526.63              296.40,525.90 293.67,526.00 291.00,526.00              291.00,526.00 160.00,526.00 160.00,526.00              162.59,518.08 163.09,516.38 163.00,508.00              162.81,491.54 150.80,476.30 135.00,471.67              126.40,469.14 116.00,470.00 107.00,470.00              107.00,470.00 60.06,470.00 60.06,470.00              60.06,470.00 60.06,455.00 60.06,455.00              60.06,455.00 62.00,447.00 62.00,447.00              62.00,447.00 62.00,439.00 62.00,439.00              62.00,439.00 63.99,432.00 63.99,432.00              63.99,432.00 63.99,424.17 63.99,424.17              63.99,424.17 65.74,418.91 65.74,418.91              65.74,418.91 68.37,403.00 68.37,403.00              68.37,403.00 71.57,391.00 71.57,391.00              75.71,374.52 79.66,357.66 86.46,342.00              86.46,342.00 96.46,318.00 96.46,318.00              97.72,315.10 98.86,309.91 101.45,308.17              103.57,306.76 107.50,307.00 110.00,307.00              110.00,307.00 149.00,307.00 149.00,307.00              153.42,307.01 157.01,306.82 160.96,309.23              170.31,314.92 171.42,328.17 163.79,335.79              156.78,342.79 143.25,340.89 134.00,341.00              127.69,341.08 122.82,342.47 117.00,344.82              109.58,347.82 102.93,352.94 97.75,359.01              75.50,385.12 83.48,425.01 115.00,439.33              121.05,442.08 127.33,443.92 134.00,444.00              134.00,444.00 262.00,444.00 262.00,444.00              286.99,443.96 308.51,424.64 312.00,400.00              312.42,397.02 313.03,394.03 312.82,391.00              311.17,367.80 297.58,349.49 275.00,342.72              270.52,341.38 264.69,340.58 260.00,340.57              260.00,340.57 250.83,340.57 250.83,340.57              241.92,339.82 235.11,334.20 234.20,325.00              233.45,317.45 238.64,309.59 246.00,307.57              248.37,306.91 251.52,307.00 254.00,307.00              254.00,307.00 324.00,307.00 324.00,307.00              345.79,307.00 364.09,307.93 382.00,292.86              396.16,280.93 404.82,263.68 404.82,245.00              404.82,213.90 376.87,186.05 346.00,186.00              346.00,186.00 241.00,186.00 241.00,186.00              241.00,186.00 188.00,186.00 188.00,186.00 Z            M 471.00,128.16            C 445.56,134.59 442.90,167.88 464.00,179.35              476.16,185.96 491.92,182.02 505.00,182.00              505.00,182.00 543.00,182.00 543.00,182.00              572.87,181.95 578.08,145.83 559.00,132.76              549.75,126.43 540.61,128.00 530.00,128.16              530.00,128.16 471.00,128.16 471.00,128.16 Z            M 405.00,432.11            C 393.97,434.70 384.70,438.46 377.79,448.00              358.51,474.62 376.64,511.95 410.00,512.00              410.00,512.00 504.00,512.00 504.00,512.00              516.85,511.98 527.63,507.90 536.10,497.83              550.82,480.33 547.21,451.87 528.00,439.10              515.26,430.64 500.49,432.00 486.00,432.11              486.00,432.11 434.00,432.11 434.00,432.11              434.00,432.11 405.00,432.11 405.00,432.11 Z            M 62.00,548.00            C 62.00,548.00 121.00,548.00 121.00,548.00              122.98,561.74 132.46,568.84 146.00,569.00              146.00,569.00 203.00,569.00 203.00,569.00              206.72,569.01 210.67,568.78 213.96,570.85              220.73,575.13 221.87,584.69 216.70,590.67              211.77,596.37 204.80,595.97 198.00,596.00              189.89,596.04 183.34,598.07 177.00,603.33              159.27,618.02 160.30,641.98 179.00,655.37              186.77,660.93 196.72,661.99 206.00,662.00              204.78,667.71 201.73,680.62 202.10,686.00              202.10,686.00 203.68,694.00 203.68,694.00              204.93,701.15 206.10,707.25 209.11,713.98              218.34,734.55 239.03,750.81 261.00,755.55              261.00,755.55 278.00,757.00 278.00,757.00              281.20,757.03 286.18,756.60 288.99,758.02              291.95,759.53 294.56,763.27 297.04,765.65              300.42,768.90 304.76,771.63 309.00,773.61              321.60,779.49 332.52,778.00 346.00,778.00              343.54,795.32 319.38,792.00 307.00,792.00              307.00,792.00 180.00,792.00 180.00,792.00              169.12,791.98 167.97,787.29 161.24,779.09              161.24,779.09 133.75,742.72 133.75,742.72              104.39,700.11 84.09,653.10 71.57,603.00              71.57,603.00 65.74,575.00 65.74,575.00              65.74,575.00 64.26,569.00 64.26,569.00              64.26,569.00 63.74,562.00 63.74,562.00              62.45,554.13 62.00,557.87 62.00,548.00 Z            M 651.00,771.14            C 625.40,775.77 623.92,806.95 641.01,817.52              647.06,821.26 654.06,821.99 661.00,822.00              661.00,822.00 710.00,822.00 710.00,822.00              718.77,821.99 727.37,820.32 733.81,813.82              743.90,803.63 741.89,783.61 729.96,775.55              721.55,769.87 712.58,771.00 703.00,771.14              703.00,771.14 651.00,771.14 651.00,771.14 Z" />
</svg>