<svg xmlns="http://www.w3.org/2000/svg" viewBox="-0.5 -0.46 726 741.82">
  <path id="laravel" fill="#303030" stroke="none" stroke-width="1"
    d="M 304.00,388.00            C 304.00,388.00 331.00,372.86 331.00,372.86              331.00,372.86 393.00,337.42 393.00,337.42              393.00,337.42 411.00,327.15 411.00,327.15              413.16,325.92 417.71,323.62 418.98,321.61              420.22,319.65 420.00,316.28 420.00,314.00              420.00,314.00 420.00,175.00 420.00,175.00              420.00,172.48 419.89,169.40 420.65,167.00              422.98,159.60 435.45,154.33 442.00,150.58              442.00,150.58 511.00,111.15 511.00,111.15              511.00,111.15 554.00,86.42 554.00,86.42              559.32,83.37 567.77,77.58 574.00,78.37              578.39,78.92 584.10,82.62 588.00,84.85              588.00,84.85 612.00,98.58 612.00,98.58              612.00,98.58 694.00,145.42 694.00,145.42              694.00,145.42 713.00,156.42 713.00,156.42              716.61,158.49 720.69,160.35 722.91,164.04              725.13,167.72 724.99,171.88 725.00,176.00              725.00,176.00 725.00,324.00 725.00,324.00              724.99,328.12 725.13,332.28 722.91,335.96              720.01,340.78 704.57,348.38 699.00,351.58              699.00,351.58 617.00,398.58 617.00,398.58              617.00,398.58 595.00,411.15 595.00,411.15              592.54,412.55 587.47,415.06 586.02,417.38              584.78,419.37 585.00,422.69 585.00,425.00              585.00,425.00 585.00,562.00 585.00,562.00              584.99,566.42 585.06,571.01 582.72,574.96              579.84,579.85 567.33,585.81 562.00,588.85              562.00,588.85 519.00,613.42 519.00,613.42              519.00,613.42 374.00,696.42 374.00,696.42              374.00,696.42 325.00,724.42 325.00,724.42              325.00,724.42 300.00,738.68 300.00,738.68              290.00,743.79 284.60,738.95 276.00,734.00              276.00,734.00 237.00,711.72 237.00,711.72              237.00,711.72 61.00,611.15 61.00,611.15              61.00,611.15 17.00,586.00 17.00,586.00              6.49,579.96 0.03,579.23 0.00,566.00              0.00,566.00 0.00,95.00 0.00,95.00              0.02,81.05 6.94,80.01 18.00,73.72              18.00,73.72 63.00,48.00 63.00,48.00              63.00,48.00 123.00,13.72 123.00,13.72              129.81,9.85 143.75,0.36 151.00,0.05              159.78,-0.34 173.18,9.38 181.00,13.85              181.00,13.85 247.00,51.58 247.00,51.58              247.00,51.58 284.00,72.72 284.00,72.72              289.25,75.70 300.06,80.78 302.69,86.02              304.18,88.99 303.99,92.74 304.00,96.00              304.00,96.00 304.00,388.00 304.00,388.00 Z            M 267.00,92.00            C 267.00,92.00 237.00,74.15 237.00,74.15              237.00,74.15 182.00,42.72 182.00,42.72              182.00,42.72 162.00,31.20 162.00,31.20              158.96,29.39 154.66,26.35 151.00,26.85              148.26,27.22 141.71,31.31 139.00,32.85              139.00,32.85 116.00,46.00 116.00,46.00              116.00,46.00 37.00,91.00 37.00,91.00              41.64,96.27 57.17,103.95 64.00,107.85              64.00,107.85 122.00,141.00 122.00,141.00              122.00,141.00 142.00,152.42 142.00,152.42              144.56,153.89 149.09,156.92 152.00,156.87              154.80,156.82 159.48,153.71 162.00,152.28              162.00,152.28 185.00,139.15 185.00,139.15              185.00,139.15 237.00,109.42 237.00,109.42              237.00,109.42 267.00,92.00 267.00,92.00 Z            M 688.00,170.00            C 688.00,170.00 660.00,154.28 660.00,154.28              660.00,154.28 603.00,121.72 603.00,121.72              603.00,121.72 582.00,109.72 582.00,109.72              578.71,107.85 574.94,105.00 571.00,105.74              568.29,106.25 561.72,110.30 559.00,111.85              559.00,111.85 535.00,125.58 535.00,125.58              535.00,125.58 484.00,154.72 484.00,154.72              477.68,158.31 461.59,166.83 457.00,171.00              457.00,171.00 573.00,237.00 573.00,237.00              573.00,237.00 601.00,220.58 601.00,220.58              601.00,220.58 657.00,188.42 657.00,188.42              657.00,188.42 688.00,170.00 688.00,170.00 Z            M 25.00,113.00            C 23.36,117.12 24.00,122.56 24.00,127.00              24.00,127.00 24.00,153.00 24.00,153.00              24.00,153.00 24.00,243.00 24.00,243.00              24.00,243.00 24.00,554.00 24.00,554.00              24.02,563.21 24.08,561.80 39.00,570.28              39.00,570.28 84.00,596.00 84.00,596.00              84.00,596.00 213.00,669.85 213.00,669.85              213.00,669.85 280.00,708.00 280.00,708.00              280.00,708.00 280.00,584.00 280.00,584.00              280.00,581.62 280.20,578.29 278.98,576.21              277.48,573.67 272.63,571.50 270.00,570.00              270.00,570.00 249.00,558.15 249.00,558.15              249.00,558.15 166.00,511.42 166.00,511.42              159.72,507.87 144.56,500.87 141.45,494.96              139.81,491.84 140.01,488.41 140.00,485.00              140.00,485.00 140.00,187.00 140.00,187.00              140.00,184.69 140.22,181.37 138.98,179.38              137.60,177.18 133.29,175.02 131.00,173.72              131.00,173.72 113.00,163.58 113.00,163.58              113.00,163.58 25.00,113.00 25.00,113.00 Z            M 280.00,113.00            C 280.00,113.00 249.00,130.15 249.00,130.15              249.00,130.15 191.00,163.28 191.00,163.28              191.00,163.28 173.00,173.72 173.00,173.72              173.00,173.72 165.02,179.38 165.02,179.38              165.02,179.38 164.00,187.00 164.00,187.00              164.00,187.00 164.00,468.00 164.00,468.00              164.00,468.00 195.00,451.28 195.00,451.28              195.00,451.28 254.00,417.58 254.00,417.58              254.00,417.58 271.00,407.85 271.00,407.85              271.00,407.85 279.01,402.39 279.01,402.39              279.01,402.39 280.00,395.00 280.00,395.00              280.00,395.00 280.00,113.00 280.00,113.00 Z            M 560.00,388.00            C 560.00,388.00 560.00,265.00 560.00,265.00              560.00,265.00 559.01,257.63 559.01,257.63              559.01,257.63 551.00,252.28 551.00,252.28              551.00,252.28 534.00,242.58 534.00,242.58              534.00,242.58 475.00,208.85 475.00,208.85              475.00,208.85 444.00,192.00 444.00,192.00              444.00,192.00 444.00,314.00 444.00,314.00              444.00,314.00 445.02,321.79 445.02,321.79              445.02,321.79 453.00,327.58 453.00,327.58              453.00,327.58 470.00,337.28 470.00,337.28              470.00,337.28 528.00,370.42 528.00,370.42              528.00,370.42 560.00,388.00 560.00,388.00 Z            M 700.00,192.00            C 700.00,192.00 670.00,208.72 670.00,208.72              670.00,208.72 612.00,241.85 612.00,241.85              612.00,241.85 594.00,252.15 594.00,252.15              594.00,252.15 585.99,257.61 585.99,257.61              585.99,257.61 585.00,265.00 585.00,265.00              585.00,265.00 585.00,388.00 585.00,388.00              585.00,388.00 616.00,370.85 616.00,370.85              616.00,370.85 673.00,338.28 673.00,338.28              673.00,338.28 691.00,328.00 691.00,328.00              691.00,328.00 699.01,322.47 699.01,322.47              699.01,322.47 700.00,315.00 700.00,315.00              700.00,315.00 700.00,192.00 700.00,192.00 Z            M 547.00,409.00            C 547.00,409.00 467.00,363.15 467.00,363.15              467.00,363.15 444.00,350.00 444.00,350.00              441.47,348.54 435.66,344.87 433.00,344.63              428.90,344.25 418.00,351.45 414.00,353.72              414.00,353.72 367.00,380.58 367.00,380.58              367.00,380.58 240.00,453.15 240.00,453.15              240.00,453.15 196.00,478.40 196.00,478.40              190.37,481.73 181.71,486.06 177.00,490.00              177.00,490.00 260.00,536.77 260.00,536.77              260.00,536.77 281.00,548.58 281.00,548.58              281.00,548.58 292.00,553.51 292.00,553.51              292.00,553.51 311.00,544.00 311.00,544.00              311.00,544.00 357.00,517.86 357.00,517.86              357.00,517.86 484.00,445.86 484.00,445.86              484.00,445.86 526.00,422.15 526.00,422.15              526.00,422.15 547.00,409.00 547.00,409.00 Z            M 560.00,431.00            C 560.00,431.00 490.00,470.15 490.00,470.15              490.00,470.15 363.00,542.15 363.00,542.15              363.00,542.15 319.00,567.00 319.00,567.00              304.91,575.06 304.02,573.88 304.00,584.00              304.00,584.00 304.00,708.00 304.00,708.00              304.00,708.00 371.00,669.85 371.00,669.85              371.00,669.85 500.00,596.15 500.00,596.15              500.00,596.15 545.00,570.28 545.00,570.28              559.92,561.80 559.98,563.21 560.00,554.00              560.00,554.00 560.00,431.00 560.00,431.00 Z" />
</svg>