<svg xmlns="http://www.w3.org/2000/svg" viewBox="-0.5 -0.46 2561 741.82">
  <path id="laravel-wordmark" fill="#303030" stroke="none" stroke-width="1"
    d="M 304.00,388.00            C 304.00,388.00 331.00,372.86 331.00,372.86              331.00,372.86 393.00,337.42 393.00,337.42              393.00,337.42 411.00,327.15 411.00,327.15              413.16,325.92 417.71,323.62 418.98,321.61              420.22,319.65 420.00,316.28 420.00,314.00              420.00,314.00 420.00,175.00 420.00,175.00              420.00,172.48 419.89,169.40 420.65,167.00              422.98,159.60 435.45,154.33 442.00,150.58              442.00,150.58 511.00,111.15 511.00,111.15              511.00,111.15 554.00,86.42 554.00,86.42              559.32,83.37 567.77,77.58 574.00,78.37              578.39,78.92 584.10,82.62 588.00,84.85              588.00,84.85 612.00,98.58 612.00,98.58              612.00,98.58 694.00,145.42 694.00,145.42              694.00,145.42 713.00,156.42 713.00,156.42              716.61,158.49 720.69,160.35 722.91,164.04              725.13,167.72 724.99,171.88 725.00,176.00              725.00,176.00 725.00,324.00 725.00,324.00              724.99,328.12 725.13,332.28 722.91,335.96              720.01,340.78 704.57,348.38 699.00,351.58              699.00,351.58 617.00,398.58 617.00,398.58              617.00,398.58 595.00,411.15 595.00,411.15              592.54,412.55 587.47,415.06 586.02,417.38              584.78,419.37 585.00,422.69 585.00,425.00              585.00,425.00 585.00,562.00 585.00,562.00              584.99,566.42 585.06,571.01 582.72,574.96              579.84,579.85 567.33,585.81 562.00,588.85              562.00,588.85 519.00,613.42 519.00,613.42              519.00,613.42 374.00,696.42 374.00,696.42              374.00,696.42 325.00,724.42 325.00,724.42              325.00,724.42 300.00,738.68 300.00,738.68              290.00,743.79 284.60,738.95 276.00,734.00              276.00,734.00 237.00,711.72 237.00,711.72              237.00,711.72 61.00,611.15 61.00,611.15              61.00,611.15 17.00,586.00 17.00,586.00              6.49,579.96 0.03,579.23 0.00,566.00              0.00,566.00 0.00,95.00 0.00,95.00              0.02,81.05 6.94,80.01 18.00,73.72              18.00,73.72 63.00,48.00 63.00,48.00              63.00,48.00 123.00,13.72 123.00,13.72              129.81,9.85 143.75,0.36 151.00,0.05              159.78,-0.34 173.18,9.38 181.00,13.85              181.00,13.85 247.00,51.58 247.00,51.58              247.00,51.58 284.00,72.72 284.00,72.72              289.25,75.70 300.06,80.78 302.69,86.02              304.18,88.99 303.99,92.74 304.00,96.00              304.00,96.00 304.00,388.00 304.00,388.00 Z            M 267.00,92.00            C 267.00,92.00 237.00,74.15 237.00,74.15              237.00,74.15 182.00,42.72 182.00,42.72              182.00,42.72 162.00,31.20 162.00,31.20              158.96,29.39 154.66,26.35 151.00,26.85              148.26,27.22 141.71,31.31 139.00,32.85              139.00,32.85 116.00,46.00 116.00,46.00              116.00,46.00 37.00,91.00 37.00,91.00              41.64,96.27 57.17,103.95 64.00,107.85              64.00,107.85 122.00,141.00 122.00,141.00              122.00,141.00 142.00,152.42 142.00,152.42              144.56,153.89 149.09,156.92 152.00,156.87              154.80,156.82 159.48,153.71 162.00,152.28              162.00,152.28 185.00,139.15 185.00,139.15              185.00,139.15 237.00,109.42 237.00,109.42              237.00,109.42 267.00,92.00 267.00,92.00 Z            M 688.00,170.00            C 688.00,170.00 660.00,154.28 660.00,154.28              660.00,154.28 603.00,121.72 603.00,121.72              603.00,121.72 582.00,109.72 582.00,109.72              578.71,107.85 574.94,105.00 571.00,105.74              568.29,106.25 561.72,110.30 559.00,111.85              559.00,111.85 535.00,125.58 535.00,125.58              535.00,125.58 484.00,154.72 484.00,154.72              477.68,158.31 461.59,166.83 457.00,171.00              457.00,171.00 573.00,237.00 573.00,237.00              573.00,237.00 601.00,220.58 601.00,220.58              601.00,220.58 657.00,188.42 657.00,188.42              657.00,188.42 688.00,170.00 688.00,170.00 Z            M 25.00,113.00            C 23.36,117.12 24.00,122.56 24.00,127.00              24.00,127.00 24.00,153.00 24.00,153.00              24.00,153.00 24.00,243.00 24.00,243.00              24.00,243.00 24.00,554.00 24.00,554.00              24.02,563.21 24.08,561.80 39.00,570.28              39.00,570.28 84.00,596.00 84.00,596.00              84.00,596.00 213.00,669.85 213.00,669.85              213.00,669.85 280.00,708.00 280.00,708.00              280.00,708.00 280.00,584.00 280.00,584.00              280.00,581.62 280.20,578.29 278.98,576.21              277.48,573.67 272.63,571.50 270.00,570.00              270.00,570.00 249.00,558.15 249.00,558.15              249.00,558.15 166.00,511.42 166.00,511.42              159.72,507.87 144.56,500.87 141.45,494.96              139.81,491.84 140.01,488.41 140.00,485.00              140.00,485.00 140.00,187.00 140.00,187.00              140.00,184.69 140.22,181.37 138.98,179.38              137.60,177.18 133.29,175.02 131.00,173.72              131.00,173.72 113.00,163.58 113.00,163.58              113.00,163.58 25.00,113.00 25.00,113.00 Z            M 280.00,113.00            C 280.00,113.00 249.00,130.15 249.00,130.15              249.00,130.15 191.00,163.28 191.00,163.28              191.00,163.28 173.00,173.72 173.00,173.72              173.00,173.72 165.02,179.38 165.02,179.38              165.02,179.38 164.00,187.00 164.00,187.00              164.00,187.00 164.00,468.00 164.00,468.00              164.00,468.00 195.00,451.28 195.00,451.28              195.00,451.28 254.00,417.58 254.00,417.58              254.00,417.58 271.00,407.85 271.00,407.85              271.00,407.85 279.01,402.39 279.01,402.39              279.01,402.39 280.00,395.00 280.00,395.00              280.00,395.00 280.00,113.00 280.00,113.00 Z            M 910.00,170.00            C 910.00,170.00 976.00,170.00 976.00,170.00              976.00,170.00 976.00,504.00 976.00,504.00              976.00,504.00 1098.00,504.00 1098.00,504.00              1098.00,504.00 1098.00,562.00 1098.00,562.00              1098.00,562.00 910.00,562.00 910.00,562.00              910.00,562.00 910.00,170.00 910.00,170.00 Z            M 2497.00,170.00            C 2497.00,170.00 2560.00,170.00 2560.00,170.00              2560.00,170.00 2560.00,562.00 2560.00,562.00              2560.00,562.00 2497.00,562.00 2497.00,562.00              2497.00,562.00 2497.00,170.00 2497.00,170.00 Z            M 560.00,388.00            C 560.00,388.00 560.00,265.00 560.00,265.00              560.00,265.00 559.01,257.63 559.01,257.63              559.01,257.63 551.00,252.28 551.00,252.28              551.00,252.28 534.00,242.58 534.00,242.58              534.00,242.58 475.00,208.85 475.00,208.85              475.00,208.85 444.00,192.00 444.00,192.00              444.00,192.00 444.00,314.00 444.00,314.00              444.00,314.00 445.02,321.79 445.02,321.79              445.02,321.79 453.00,327.58 453.00,327.58              453.00,327.58 470.00,337.28 470.00,337.28              470.00,337.28 528.00,370.42 528.00,370.42              528.00,370.42 560.00,388.00 560.00,388.00 Z            M 700.00,192.00            C 700.00,192.00 670.00,208.72 670.00,208.72              670.00,208.72 612.00,241.85 612.00,241.85              612.00,241.85 594.00,252.15 594.00,252.15              594.00,252.15 585.99,257.61 585.99,257.61              585.99,257.61 585.00,265.00 585.00,265.00              585.00,265.00 585.00,388.00 585.00,388.00              585.00,388.00 616.00,370.85 616.00,370.85              616.00,370.85 673.00,338.28 673.00,338.28              673.00,338.28 691.00,328.00 691.00,328.00              691.00,328.00 699.01,322.47 699.01,322.47              699.01,322.47 700.00,315.00 700.00,315.00              700.00,315.00 700.00,192.00 700.00,192.00 Z            M 1325.00,530.00            C 1318.78,537.17 1313.69,543.28 1306.00,549.10              1290.74,560.65 1267.20,568.97 1248.00,569.00              1248.00,569.00 1236.00,569.00 1236.00,569.00              1213.63,568.73 1187.48,559.72 1169.00,547.33              1097.22,499.20 1089.97,393.07 1149.17,332.09              1194.94,284.94 1283.47,277.50 1325.00,334.00              1325.00,334.00 1325.00,301.00 1325.00,301.00              1325.00,301.00 1387.00,301.00 1387.00,301.00              1387.00,301.00 1387.00,562.00 1387.00,562.00              1387.00,562.00 1325.00,562.00 1325.00,562.00              1325.00,562.00 1325.00,530.00 1325.00,530.00 Z            M 1823.00,529.00            C 1816.57,544.07 1793.19,557.81 1778.00,563.00              1730.38,579.27 1673.77,562.33 1641.44,524.00              1597.98,472.48 1596.95,394.40 1639.46,342.00              1665.38,310.05 1704.17,293.53 1745.00,294.00              1761.03,294.19 1782.25,300.27 1796.00,308.45              1809.57,316.52 1814.38,321.95 1824.00,334.00              1824.00,334.00 1824.00,301.00 1824.00,301.00              1824.00,301.00 1886.00,301.00 1886.00,301.00              1886.00,301.00 1886.00,562.00 1886.00,562.00              1886.00,562.00 1824.00,562.00 1824.00,562.00              1824.00,562.00 1823.00,529.00 1823.00,529.00 Z            M 2451.00,510.00            C 2448.68,517.90 2437.18,526.32 2431.00,531.93              2406.77,553.90 2376.24,568.95 2343.00,569.00              2313.82,569.05 2292.08,567.10 2265.00,554.69              2227.67,537.59 2203.60,503.76 2195.80,464.00              2194.71,458.43 2193.07,447.50 2193.00,442.00              2192.64,411.05 2195.24,390.79 2210.31,363.00              2218.58,347.75 2229.64,334.94 2243.00,323.92              2255.40,313.70 2269.77,306.03 2285.00,301.00              2323.09,288.42 2367.53,293.02 2401.00,315.75              2437.38,340.45 2457.16,381.81 2459.04,425.00              2459.04,425.00 2459.82,433.00 2459.82,433.00              2459.82,433.00 2458.00,455.00 2458.00,455.00              2458.00,455.00 2255.00,455.00 2255.00,455.00              2255.24,465.77 2259.72,476.03 2265.44,485.00              2269.42,491.26 2274.36,496.88 2280.00,501.70              2312.51,529.53 2356.01,522.77 2388.00,498.35              2394.91,493.07 2402.96,486.05 2408.00,479.00              2408.00,479.00 2423.00,488.87 2423.00,488.87              2423.00,488.87 2451.00,510.00 2451.00,510.00 Z            M 1435.00,301.00            C 1435.00,301.00 1603.00,301.00 1603.00,301.00              1603.00,301.00 1603.00,362.00 1603.00,362.00              1603.00,362.00 1497.00,362.00 1497.00,362.00              1497.00,362.00 1497.00,562.00 1497.00,562.00              1497.00,562.00 1435.00,562.00 1435.00,562.00              1435.00,562.00 1435.00,301.00 1435.00,301.00 Z            M 1915.00,301.00            C 1915.00,301.00 1970.00,301.00 1970.00,301.00              1970.00,301.00 1978.19,302.60 1978.19,302.60              1978.19,302.60 1984.19,316.00 1984.19,316.00              1984.19,316.00 1996.42,348.00 1996.42,348.00              1996.42,348.00 2030.58,436.00 2030.58,436.00              2030.58,436.00 2047.19,479.00 2047.19,479.00              2047.19,479.00 2055.00,499.00 2055.00,499.00              2055.00,499.00 2075.58,445.00 2075.58,445.00              2075.58,445.00 2113.80,346.00 2113.80,346.00              2113.80,346.00 2126.20,314.00 2126.20,314.00              2126.20,314.00 2131.70,301.99 2131.70,301.99              2131.70,301.99 2139.00,301.00 2139.00,301.00              2139.00,301.00 2195.00,301.00 2195.00,301.00              2195.00,301.00 2166.42,375.00 2166.42,375.00              2166.42,375.00 2117.40,502.00 2117.40,502.00              2117.40,502.00 2100.00,547.00 2100.00,547.00              2100.00,547.00 2093.49,560.98 2093.49,560.98              2093.49,560.98 2086.00,562.00 2086.00,562.00              2086.00,562.00 2015.00,562.00 2015.00,562.00              2015.00,562.00 1989.42,495.00 1989.42,495.00              1989.42,495.00 1940.80,369.00 1940.80,369.00              1940.80,369.00 1924.19,326.00 1924.19,326.00              1924.19,326.00 1915.00,301.00 1915.00,301.00 Z            M 547.00,409.00            C 547.00,409.00 467.00,363.15 467.00,363.15              467.00,363.15 444.00,350.00 444.00,350.00              441.47,348.54 435.66,344.87 433.00,344.63              428.90,344.25 418.00,351.45 414.00,353.72              414.00,353.72 367.00,380.58 367.00,380.58              367.00,380.58 240.00,453.15 240.00,453.15              240.00,453.15 196.00,478.40 196.00,478.40              190.37,481.73 181.71,486.06 177.00,490.00              177.00,490.00 260.00,536.77 260.00,536.77              260.00,536.77 281.00,548.58 281.00,548.58              281.00,548.58 292.00,553.51 292.00,553.51              292.00,553.51 311.00,544.00 311.00,544.00              311.00,544.00 357.00,517.86 357.00,517.86              357.00,517.86 484.00,445.86 484.00,445.86              484.00,445.86 526.00,422.15 526.00,422.15              526.00,422.15 547.00,409.00 547.00,409.00 Z            M 2401.00,409.00            C 2396.86,386.28 2387.74,365.82 2367.00,353.45              2343.64,339.52 2305.00,340.40 2283.00,356.76              2267.30,368.43 2256.59,389.58 2255.00,409.00              2255.00,409.00 2401.00,409.00 2401.00,409.00 Z            M 1245.00,349.29            C 1236.23,350.53 1231.95,350.35 1223.00,353.36              1206.00,359.08 1190.86,372.33 1182.31,388.00              1173.55,404.04 1171.79,419.12 1172.00,437.00              1172.38,468.98 1192.88,499.03 1223.00,509.95              1229.07,512.15 1238.54,513.92 1245.00,514.00              1257.86,514.15 1270.41,511.99 1282.00,506.19              1344.46,474.96 1337.95,371.05 1269.00,352.16              1263.37,350.61 1250.68,348.88 1245.00,349.29 Z            M 1744.00,349.29            C 1734.95,350.57 1730.13,350.44 1721.00,353.70              1701.95,360.50 1686.56,375.71 1678.31,394.00              1671.45,409.21 1670.81,421.76 1671.00,438.00              1671.37,469.71 1692.34,499.20 1722.00,509.95              1728.07,512.15 1737.54,513.92 1744.00,514.00              1756.78,514.15 1769.49,511.98 1781.00,506.19              1843.01,474.99 1836.95,372.70 1769.00,352.59              1762.55,350.68 1750.60,348.82 1744.00,349.29 Z            M 560.00,431.00            C 560.00,431.00 490.00,470.15 490.00,470.15              490.00,470.15 363.00,542.15 363.00,542.15              363.00,542.15 319.00,567.00 319.00,567.00              304.91,575.06 304.02,573.88 304.00,584.00              304.00,584.00 304.00,708.00 304.00,708.00              304.00,708.00 371.00,669.85 371.00,669.85              371.00,669.85 500.00,596.15 500.00,596.15              500.00,596.15 545.00,570.28 545.00,570.28              559.92,561.80 559.98,563.21 560.00,554.00              560.00,554.00 560.00,431.00 560.00,431.00 Z" />
</svg>