<svg xmlns="http://www.w3.org/2000/svg" viewBox="60.5 59.25 2442.96 485.25">
  <path id="libreoffice-wordmark" fill="#303030" stroke="none" stroke-width="1"
    d="M 1841.00,160.00            C 1841.00,127.94 1843.63,91.50 1873.00,71.75              1889.33,60.77 1911.82,57.99 1931.00,60.73              1934.52,61.23 1947.03,63.17 1949.22,65.72              1950.55,67.72 1949.74,71.69 1949.22,74.00              1949.22,74.00 1947.00,92.00 1947.00,92.00              1934.67,87.89 1930.07,86.85 1917.00,87.00              1912.44,87.06 1909.32,87.53 1905.00,89.09              1875.98,99.53 1876.00,134.48 1876.00,160.00              1876.00,160.00 1955.00,160.00 1955.00,160.00              1955.00,160.00 1955.00,140.00 1955.00,140.00              1955.04,113.77 1965.27,85.38 1988.00,70.70              1993.01,67.46 1999.26,64.77 2005.00,63.15              2017.41,59.67 2023.42,59.86 2036.00,60.00              2045.91,60.12 2054.52,62.86 2064.00,65.00              2064.00,65.00 2061.00,92.00 2061.00,92.00              2051.46,89.82 2046.73,87.13 2036.00,87.00              2029.43,86.93 2026.43,86.79 2020.00,88.72              1997.80,95.38 1990.03,118.90 1990.00,140.00              1990.00,140.00 1990.00,160.00 1990.00,160.00              1990.00,160.00 2040.00,160.00 2040.00,160.00              2040.00,160.00 2040.00,187.00 2040.00,187.00              2040.00,187.00 1990.00,187.00 1990.00,187.00              1990.00,187.00 1990.00,358.00 1990.00,358.00              1990.00,358.00 1955.00,358.00 1955.00,358.00              1955.00,358.00 1955.00,187.00 1955.00,187.00              1955.00,187.00 1876.00,187.00 1876.00,187.00              1876.00,187.00 1876.00,358.00 1876.00,358.00              1876.00,358.00 1841.00,358.00 1841.00,358.00              1841.00,358.00 1841.00,187.00 1841.00,187.00              1841.00,187.00 1809.00,187.00 1809.00,187.00              1809.00,187.00 1809.00,160.00 1809.00,160.00              1809.00,160.00 1841.00,160.00 1841.00,160.00 Z            M 940.00,64.00            C 940.00,64.00 995.00,64.00 995.00,64.00              995.00,64.00 995.00,181.00 995.00,181.00              1010.63,165.51 1025.87,156.69 1048.00,154.92              1063.59,153.67 1077.13,154.05 1092.00,159.81              1127.79,173.67 1142.58,208.11 1145.09,244.00              1145.09,244.00 1145.99,256.00 1145.99,256.00              1145.99,256.00 1145.09,265.00 1145.09,265.00              1144.06,279.78 1141.54,293.25 1135.72,307.00              1130.81,318.60 1123.91,330.01 1114.96,338.96              1101.50,352.42 1081.19,361.91 1062.00,362.00              1062.00,362.00 1051.00,362.00 1051.00,362.00              1027.24,361.96 1011.39,352.38 995.00,336.00              995.00,336.00 994.00,358.00 994.00,358.00              994.00,358.00 940.00,358.00 940.00,358.00              940.00,358.00 940.00,64.00 940.00,64.00 Z            M 61.00,540.00            C 61.00,540.00 61.00,501.00 61.00,501.00              61.00,501.00 61.00,422.00 61.00,422.00              61.00,422.00 61.00,183.00 61.00,183.00              61.00,183.00 61.00,90.00 61.00,90.00              61.02,77.01 65.80,75.02 78.00,75.00              78.00,75.00 273.00,75.00 273.00,75.00              276.41,75.01 279.76,74.88 283.00,76.15              288.81,78.42 303.72,94.72 309.00,100.00              309.00,100.00 368.99,160.00 368.99,160.00              368.99,160.00 380.00,172.00 380.00,172.00              380.00,172.00 430.00,222.00 430.00,222.00              433.91,225.91 445.58,236.60 447.26,241.00              448.13,243.28 448.00,246.55 448.00,249.00              448.00,249.00 448.00,475.00 448.00,475.00              448.00,475.00 448.00,522.00 448.00,522.00              448.00,526.80 448.77,537.03 446.01,540.81              443.55,544.18 436.75,543.99 433.00,544.00              433.00,544.00 201.00,544.00 201.00,544.00              201.00,544.00 74.00,544.00 74.00,544.00              74.00,544.00 64.00,543.00 64.00,543.00              64.00,543.00 61.00,540.00 61.00,540.00 Z            M 335.02,75.65            C 335.02,75.65 369.00,75.00 369.00,75.00              369.00,75.00 434.00,75.00 434.00,75.00              445.72,75.02 448.98,78.28 449.00,90.00              449.00,90.00 449.00,180.00 449.00,180.00              449.00,182.50 449.10,185.62 448.35,188.00              446.29,194.47 439.25,197.49 433.00,195.11              428.93,193.56 424.15,188.15 421.00,185.00              421.00,185.00 346.00,110.00 346.00,110.00              342.40,106.40 331.03,95.71 329.17,92.00              325.98,85.61 328.58,78.50 335.02,75.65 Z            M 1642.00,77.21            C 1642.00,77.21 1665.00,77.21 1665.00,77.21              1701.90,77.44 1740.06,97.83 1762.10,127.00              1778.90,149.22 1789.96,182.08 1790.00,210.00              1790.00,210.00 1790.00,231.00 1790.00,231.00              1789.54,269.86 1769.79,311.78 1739.00,335.50              1718.91,350.98 1689.52,361.96 1664.00,362.00              1664.00,362.00 1647.00,362.00 1647.00,362.00              1637.28,361.88 1621.34,358.37 1612.00,355.33              1602.36,352.19 1591.50,347.18 1583.00,341.66              1547.09,318.29 1527.29,280.17 1523.92,238.00              1523.92,238.00 1523.00,226.00 1523.00,226.00              1523.00,226.00 1523.00,211.00 1523.00,211.00              1523.26,188.67 1530.58,161.53 1541.31,142.00              1557.03,113.39 1583.75,92.03 1615.00,82.72              1623.90,80.07 1632.85,78.75 1642.00,77.21 Z            M 873.00,78.71            C 879.64,78.87 885.37,79.75 890.99,83.60              915.81,100.59 905.89,141.24 875.00,141.99              864.92,142.23 856.27,139.71 849.33,131.91              836.48,117.48 840.32,92.47 857.00,82.88              863.09,79.38 866.20,79.06 873.00,78.71 Z            M 634.00,81.00            C 634.00,81.00 690.00,81.00 690.00,81.00              690.00,81.00 690.00,315.00 690.00,315.00              690.00,315.00 814.00,315.00 814.00,315.00              814.00,315.00 814.00,358.00 814.00,358.00              814.00,358.00 634.00,358.00 634.00,358.00              634.00,358.00 634.00,81.00 634.00,81.00 Z            M 2090.00,89.53            C 2099.44,87.98 2107.28,89.06 2113.61,97.02              2122.97,108.79 2116.72,127.81 2102.00,131.32              2074.08,137.97 2063.52,97.78 2090.00,89.53 Z            M 426.00,522.00            C 426.00,522.00 426.00,258.00 426.00,258.00              426.00,255.91 426.12,252.94 425.40,251.00              423.82,246.71 409.10,233.10 405.00,229.00              405.00,229.00 344.00,167.00 344.00,167.00              344.00,167.00 293.00,116.00 293.00,116.00              289.27,112.27 278.08,100.10 274.00,98.60              272.06,97.88 269.09,98.00 267.00,98.00              267.00,98.00 83.00,98.00 83.00,98.00              83.00,98.00 83.00,522.00 83.00,522.00              83.00,522.00 426.00,522.00 426.00,522.00 Z            M 1644.00,106.14            C 1634.40,107.75 1624.78,109.99 1616.00,114.26              1579.29,132.11 1564.61,168.43 1561.91,207.00              1561.91,207.00 1561.00,217.00 1561.00,217.00              1561.00,217.00 1561.91,232.00 1561.91,232.00              1563.81,259.15 1571.63,286.91 1591.04,307.00              1608.01,324.56 1631.05,332.55 1655.00,333.91              1655.00,333.91 1674.00,332.08 1674.00,332.08              1726.57,323.23 1751.92,273.39 1752.00,224.00              1752.06,184.94 1742.77,143.43 1708.00,120.36              1701.49,116.04 1694.39,112.80 1687.00,110.33              1679.01,107.67 1671.44,106.01 1663.00,106.14              1663.00,106.14 1644.00,106.14 1644.00,106.14 Z            M 1230.00,192.00            C 1232.37,185.90 1236.45,181.59 1241.00,177.00              1256.60,161.29 1270.76,156.80 1292.00,154.00              1292.00,154.00 1291.00,170.00 1291.00,170.00              1291.00,170.00 1291.00,198.00 1291.00,198.00              1291.00,200.36 1291.25,204.54 1289.83,206.47              1288.21,208.66 1284.48,208.78 1282.00,209.00              1276.94,209.45 1271.88,210.27 1267.00,211.72              1253.74,215.65 1242.72,222.29 1236.27,235.00              1228.70,249.93 1229.00,269.64 1229.00,286.00              1229.00,286.00 1229.00,358.00 1229.00,358.00              1229.00,358.00 1173.00,358.00 1173.00,358.00              1173.00,358.00 1173.00,158.00 1173.00,158.00              1173.00,158.00 1220.00,158.00 1220.00,158.00              1227.33,158.05 1227.95,158.67 1228.00,166.00              1228.06,174.68 1226.98,183.72 1230.00,192.00 Z            M 1473.00,308.00            C 1473.00,308.00 1476.42,336.00 1476.42,336.00              1476.86,338.98 1478.47,346.16 1476.96,348.61              1475.03,351.76 1462.88,355.12 1459.00,356.28              1439.45,362.11 1420.15,362.23 1400.00,362.00              1373.39,361.68 1343.51,349.80 1326.46,329.00              1313.32,312.96 1306.24,288.59 1306.00,268.00              1305.68,240.12 1311.68,209.75 1330.30,188.00              1339.30,177.48 1350.38,169.00 1363.00,163.31              1374.02,158.34 1386.02,155.79 1398.00,154.91              1398.00,154.91 1411.00,154.01 1411.00,154.01              1431.95,154.51 1453.21,162.46 1467.57,178.09              1485.53,197.63 1492.04,223.05 1492.00,249.00              1492.00,249.00 1490.00,274.00 1490.00,274.00              1490.00,274.00 1361.00,274.00 1361.00,274.00              1361.31,280.72 1362.86,286.93 1365.79,293.00              1379.54,321.55 1417.21,322.47 1444.00,316.12              1444.00,316.12 1473.00,308.00 1473.00,308.00 Z            M 2304.00,324.00            C 2304.00,324.00 2306.07,343.00 2306.07,343.00              2306.41,345.19 2307.30,348.43 2306.07,350.35              2304.75,352.18 2300.11,353.80 2298.00,354.56              2290.28,357.37 2282.10,359.14 2274.00,360.41              2274.00,360.41 2257.00,362.00 2257.00,362.00              2257.00,362.00 2239.00,362.00 2239.00,362.00              2216.40,361.96 2192.58,353.40 2176.00,337.91              2156.89,320.05 2148.04,291.68 2148.00,266.00              2147.94,228.92 2158.59,193.08 2192.00,172.46              2219.57,155.44 2253.78,152.56 2285.00,159.21              2285.00,159.21 2309.00,167.00 2309.00,167.00              2309.00,167.00 2306.00,195.00 2306.00,195.00              2306.00,195.00 2281.00,186.47 2281.00,186.47              2255.13,180.04 2226.09,181.39 2206.01,201.04              2181.05,225.47 2178.10,278.26 2196.70,307.00              2208.59,325.37 2227.32,334.97 2249.00,335.00              2260.78,335.02 2269.50,334.30 2281.00,331.27              2281.00,331.27 2304.00,324.00 2304.00,324.00 Z            M 2484.00,324.00            C 2484.00,324.00 2486.13,342.00 2486.13,342.00              2486.61,344.52 2487.54,348.25 2486.13,350.49              2484.29,352.91 2473.22,355.97 2470.00,356.85              2450.97,362.06 2438.29,362.03 2419.00,362.00              2396.98,361.97 2371.96,353.40 2356.04,337.91              2340.31,322.61 2330.26,295.84 2330.00,274.00              2330.00,274.00 2330.00,254.00 2330.00,254.00              2330.04,229.48 2341.75,201.97 2358.17,184.00              2388.76,150.52 2453.62,143.24 2483.10,182.00              2496.69,199.86 2502.00,221.91 2502.96,244.00              2502.96,244.00 2502.00,267.00 2502.00,267.00              2502.00,267.00 2365.00,267.00 2365.00,267.00              2365.00,277.47 2365.62,282.96 2369.00,293.00              2371.50,300.40 2373.83,305.74 2378.68,312.00              2399.48,338.87 2433.12,337.93 2463.00,330.77              2463.00,330.77 2484.00,324.00 2484.00,324.00 Z            M 846.00,158.00            C 846.00,158.00 901.00,158.00 901.00,158.00              901.00,158.00 901.00,358.00 901.00,358.00              901.00,358.00 846.00,358.00 846.00,358.00              846.00,358.00 846.00,158.00 846.00,158.00 Z            M 2079.00,160.00            C 2079.00,160.00 2114.00,160.00 2114.00,160.00              2114.00,160.00 2114.00,358.00 2114.00,358.00              2114.00,358.00 2079.00,358.00 2079.00,358.00              2079.00,358.00 2079.00,160.00 2079.00,160.00 Z            M 2468.00,239.00            C 2467.95,223.81 2463.25,204.94 2451.91,194.18              2434.22,177.40 2403.31,180.46 2386.09,196.30              2375.75,205.81 2367.31,224.93 2367.00,239.00              2367.00,239.00 2468.00,239.00 2468.00,239.00 Z            M 1035.00,197.29            C 1028.93,198.21 1024.60,198.94 1019.00,201.82              995.99,213.65 994.96,241.54 995.00,264.00              995.04,289.62 1007.40,318.65 1037.00,319.00              1049.34,319.14 1059.07,317.96 1069.00,309.67              1086.60,294.98 1087.24,270.95 1087.00,250.00              1086.64,219.34 1067.79,194.23 1035.00,197.29 Z            M 1438.00,236.00            C 1437.98,229.00 1437.46,225.63 1434.94,219.00              1426.63,197.19 1401.96,191.04 1383.00,203.25              1372.05,210.30 1364.80,223.25 1363.00,236.00              1363.00,236.00 1438.00,236.00 1438.00,236.00 Z" />
</svg>