<svg xmlns="http://www.w3.org/2000/svg" viewBox="60.5 74.5 389 470">
  <path id="libreoffice" fill="#303030" stroke="none" stroke-width="1"
    d="M 61.00,540.00            C 61.00,540.00 61.00,501.00 61.00,501.00              61.00,501.00 61.00,422.00 61.00,422.00              61.00,422.00 61.00,183.00 61.00,183.00              61.00,183.00 61.00,90.00 61.00,90.00              61.02,77.01 65.80,75.02 78.00,75.00              78.00,75.00 273.00,75.00 273.00,75.00              276.41,75.01 279.76,74.88 283.00,76.15              288.81,78.42 303.72,94.72 309.00,100.00              309.00,100.00 368.99,160.00 368.99,160.00              368.99,160.00 380.00,172.00 380.00,172.00              380.00,172.00 430.00,222.00 430.00,222.00              433.91,225.91 445.58,236.60 447.26,241.00              448.13,243.28 448.00,246.55 448.00,249.00              448.00,249.00 448.00,475.00 448.00,475.00              448.00,475.00 448.00,522.00 448.00,522.00              448.00,526.80 448.77,537.03 446.01,540.81              443.55,544.18 436.75,543.99 433.00,544.00              433.00,544.00 201.00,544.00 201.00,544.00              201.00,544.00 74.00,544.00 74.00,544.00              74.00,544.00 64.00,543.00 64.00,543.00              64.00,543.00 61.00,540.00 61.00,540.00 Z            M 335.02,75.65            C 335.02,75.65 369.00,75.00 369.00,75.00              369.00,75.00 434.00,75.00 434.00,75.00              445.72,75.02 448.98,78.28 449.00,90.00              449.00,90.00 449.00,180.00 449.00,180.00              449.00,182.50 449.10,185.62 448.35,188.00              446.29,194.47 439.25,197.49 433.00,195.11              428.93,193.56 424.15,188.15 421.00,185.00              421.00,185.00 346.00,110.00 346.00,110.00              342.40,106.40 331.03,95.71 329.17,92.00              325.98,85.61 328.58,78.50 335.02,75.65 Z            M 426.00,522.00            C 426.00,522.00 426.00,258.00 426.00,258.00              426.00,255.91 426.12,252.94 425.40,251.00              423.82,246.71 409.10,233.10 405.00,229.00              405.00,229.00 344.00,167.00 344.00,167.00              344.00,167.00 293.00,116.00 293.00,116.00              289.27,112.27 278.08,100.10 274.00,98.60              272.06,97.88 269.09,98.00 267.00,98.00              267.00,98.00 83.00,98.00 83.00,98.00              83.00,98.00 83.00,522.00 83.00,522.00              83.00,522.00 426.00,522.00 426.00,522.00 Z" />
</svg>