<svg xmlns="http://www.w3.org/2000/svg" viewBox="-0.5 -0.42 1052 1026.92">
  <path id="lightroom" fill="#303030" stroke="none" stroke-width="1"
    d="M 179.00,0.08            C 179.00,0.08 207.00,0.08 207.00,0.08              207.00,0.08 256.00,0.08 256.00,0.08              256.00,0.08 407.00,0.08 407.00,0.08              407.00,0.08 864.00,0.08 864.00,0.08              864.00,0.08 876.00,0.91 876.00,0.91              876.00,0.91 901.00,3.61 901.00,3.61              964.02,15.50 1014.88,58.70 1038.60,118.00              1044.97,133.92 1050.97,157.87 1051.00,175.00              1051.00,175.00 1051.00,851.00 1051.00,851.00              1050.97,868.13 1044.97,892.08 1038.60,908.00              1014.97,967.07 964.62,1009.91 902.00,1022.20              902.00,1022.20 876.00,1025.09 876.00,1025.09              876.00,1025.09 864.00,1026.00 864.00,1026.00              864.00,1026.00 187.00,1026.00 187.00,1026.00              187.00,1026.00 175.00,1025.09 175.00,1025.09              164.77,1024.39 155.08,1023.52 145.00,1021.34              84.12,1008.15 35.44,965.59 12.40,908.00              6.03,892.08 0.03,868.13 0.00,851.00              0.00,851.00 0.00,175.00 0.00,175.00              0.02,165.14 2.16,153.64 4.35,144.00              16.60,90.15 54.52,41.50 105.00,18.31              121.95,10.52 138.59,5.40 157.00,2.44              157.00,2.44 179.00,0.08 179.00,0.08 Z            M 364.00,636.00            C 364.00,636.00 364.00,475.00 364.00,475.00              364.00,475.00 364.00,368.00 364.00,368.00              364.00,368.00 364.00,289.00 364.00,289.00              364.00,289.00 364.00,271.00 364.00,271.00              363.96,269.05 364.10,266.37 362.40,265.02              360.81,263.77 356.99,264.00 355.00,264.00              355.00,264.00 278.00,264.00 278.00,264.00              267.70,264.02 267.02,266.06 267.00,276.00              267.00,276.00 267.00,621.00 267.00,621.00              267.00,621.00 267.00,710.00 267.00,710.00              267.02,721.63 267.66,724.98 280.00,725.00              280.00,725.00 545.00,725.00 545.00,725.00              549.61,724.99 555.10,725.41 557.84,720.87              559.44,718.21 561.12,705.82 561.75,702.00              561.75,702.00 568.41,662.00 568.41,662.00              568.41,662.00 571.60,640.06 571.60,640.06              570.68,635.41 565.63,636.01 562.00,636.00              562.00,636.00 364.00,636.00 364.00,636.00 Z            M 714.00,420.00            C 713.99,411.51 712.42,397.21 710.33,389.00              709.37,385.21 707.01,379.09 703.79,376.74              701.00,374.71 697.28,375.01 694.00,375.00              694.00,375.00 627.00,375.00 627.00,375.00              623.23,375.01 618.48,374.40 617.33,379.06              616.87,380.92 618.24,391.43 618.58,394.00              618.58,394.00 620.00,417.00 620.00,417.00              620.00,417.00 620.00,442.00 620.00,442.00              620.00,442.00 621.00,459.00 621.00,459.00              621.00,459.00 621.00,663.00 621.00,663.00              621.00,663.00 621.00,716.00 621.00,716.00              621.13,725.13 623.82,724.99 632.00,725.00              632.00,725.00 697.00,725.00 697.00,725.00              701.27,725.00 714.62,726.23 716.98,722.69              718.21,720.84 718.00,717.19 718.00,715.00              718.00,715.00 718.00,505.00 718.00,505.00              718.00,502.91 717.88,499.94 718.60,498.00              721.08,491.25 732.70,484.40 739.00,481.25              759.16,471.16 790.44,464.04 813.00,464.00              817.07,463.99 828.65,465.18 830.98,461.69              832.21,459.84 832.00,456.19 832.00,454.00              832.00,454.00 832.00,389.00 832.00,389.00              832.00,384.63 833.23,371.54 829.57,369.02              827.76,367.78 824.16,368.00 822.00,368.00              822.00,368.00 813.00,368.00 813.00,368.00              806.50,368.08 797.36,369.79 791.00,371.37              758.79,379.43 737.00,397.00 714.00,420.00 Z" />
</svg>