<svg xmlns="http://www.w3.org/2000/svg" viewBox="-0.5 -0.42 1052 1026.92">
  <path id="lightroom-classic" fill="#303030" stroke="none" stroke-width="1"
    d="M 179.00,0.08            C 179.00,0.08 207.00,0.08 207.00,0.08              207.00,0.08 256.00,0.08 256.00,0.08              256.00,0.08 407.00,0.08 407.00,0.08              407.00,0.08 864.00,0.08 864.00,0.08              864.00,0.08 876.00,0.91 876.00,0.91              876.00,0.91 901.00,3.61 901.00,3.61              964.02,15.50 1014.88,58.70 1038.60,118.00              1044.97,133.92 1050.97,157.87 1051.00,175.00              1051.00,175.00 1051.00,851.00 1051.00,851.00              1050.97,868.13 1044.97,892.08 1038.60,908.00              1014.97,967.07 964.62,1009.91 902.00,1022.20              902.00,1022.20 876.00,1025.09 876.00,1025.09              876.00,1025.09 864.00,1026.00 864.00,1026.00              864.00,1026.00 187.00,1026.00 187.00,1026.00              187.00,1026.00 175.00,1025.09 175.00,1025.09              164.77,1024.39 155.08,1023.52 145.00,1021.34              84.12,1008.15 35.44,965.59 12.40,908.00              6.03,892.08 0.03,868.13 0.00,851.00              0.00,851.00 0.00,175.00 0.00,175.00              0.02,165.14 2.16,153.64 4.35,144.00              16.60,90.15 54.52,41.50 105.00,18.31              121.95,10.52 138.59,5.40 157.00,2.44              157.00,2.44 179.00,0.08 179.00,0.08 Z            M 200.00,636.00            C 200.00,636.00 200.00,476.00 200.00,476.00              200.00,476.00 200.00,370.00 200.00,370.00              200.00,370.00 200.00,289.00 200.00,289.00              200.00,289.00 200.00,271.00 200.00,271.00              199.96,269.05 200.10,266.37 198.40,265.02              196.81,263.77 192.99,264.00 191.00,264.00              191.00,264.00 133.00,264.00 133.00,264.00              128.83,264.00 116.37,262.80 114.02,266.31              112.79,268.16 113.00,271.81 113.00,274.00              113.00,274.00 113.00,603.00 113.00,603.00              113.00,603.00 113.00,696.00 113.00,696.00              113.00,696.00 113.00,715.00 113.00,715.00              113.04,717.94 112.98,721.17 115.43,723.26              117.84,725.31 122.01,725.00 125.00,725.00              125.00,725.00 362.00,725.00 362.00,725.00              366.49,724.99 371.94,725.53 374.35,720.87              375.67,718.31 377.60,703.78 378.13,700.00              378.13,700.00 384.00,661.00 384.00,661.00              384.52,657.22 387.24,642.70 386.65,640.06              385.60,635.41 380.70,636.01 377.00,636.00              377.00,636.00 200.00,636.00 200.00,636.00 Z            M 843.00,300.28            C 843.00,300.28 830.00,301.17 830.00,301.17              830.00,301.17 801.00,305.66 801.00,305.66              765.78,313.29 732.60,330.43 707.01,356.01              675.74,387.29 658.01,427.84 650.92,471.00              649.60,479.04 648.01,490.98 648.00,499.00              648.00,499.00 647.00,519.00 647.00,519.00              647.00,519.00 648.00,540.00 648.00,540.00              648.12,550.03 650.79,565.96 652.80,576.00              661.95,621.75 684.11,665.05 722.00,693.53              750.34,714.83 779.11,725.29 814.00,730.13              814.00,730.13 835.00,732.00 835.00,732.00              835.00,732.00 866.00,732.00 866.00,732.00              879.15,731.98 901.16,728.88 914.00,725.63              918.70,724.43 928.30,722.00 931.58,718.61              935.15,714.93 934.99,709.74 935.00,705.00              935.00,705.00 935.00,647.00 935.00,647.00              934.94,642.78 934.55,637.42 928.98,637.35              926.82,637.33 920.50,639.85 918.00,640.66              912.58,642.39 906.62,643.62 901.00,644.57              884.66,647.31 867.55,647.19 851.00,647.00              842.31,646.89 830.45,644.16 822.00,641.85              809.25,638.36 796.97,632.87 786.00,625.48              757.90,606.55 741.39,570.91 737.29,538.00              735.96,527.34 735.88,516.74 736.00,506.00              736.30,480.27 745.66,447.87 760.74,427.00              781.04,398.93 815.22,381.05 850.00,381.00              868.06,380.97 885.31,381.60 903.00,385.90              909.93,387.58 914.51,389.37 921.00,392.15              923.36,393.16 928.60,395.72 930.98,395.48              936.33,394.92 935.99,388.95 936.00,385.00              936.00,385.00 936.00,324.00 936.00,324.00              935.99,320.62 936.19,317.13 934.55,314.04              931.14,307.63 919.58,305.72 913.00,304.40              901.26,302.05 889.86,301.72 878.00,300.91              866.43,300.12 854.62,299.20 843.00,300.28 Z            M 513.00,420.00            C 513.00,406.76 513.45,403.47 511.08,390.00              509.30,379.91 507.94,375.06 497.00,375.00              497.00,375.00 436.00,375.00 436.00,375.00              433.39,375.00 429.06,374.43 427.78,377.29              426.72,379.65 428.81,391.55 428.96,395.00              428.96,395.00 430.00,410.00 430.00,410.00              430.00,410.00 430.00,429.00 430.00,429.00              430.00,429.00 431.00,446.00 431.00,446.00              431.00,446.00 431.00,569.00 431.00,569.00              431.00,569.00 431.00,688.00 431.00,688.00              431.00,688.00 431.00,715.00 431.00,715.00              431.04,717.37 430.96,720.58 432.74,722.40              434.64,724.34 438.47,723.99 441.00,724.00              441.00,724.00 499.00,724.00 499.00,724.00              503.07,724.00 514.65,725.17 516.98,721.69              518.21,719.84 518.00,716.19 518.00,714.00              518.00,714.00 518.00,504.00 518.00,504.00              518.00,501.91 517.88,498.94 518.60,497.00              520.39,492.13 528.68,485.98 533.00,483.03              547.61,473.06 572.28,464.89 590.00,464.04              596.00,463.75 601.99,462.61 608.00,463.17              611.15,463.46 615.65,464.69 618.26,462.18              620.36,460.16 620.00,455.71 620.00,453.00              620.00,453.00 620.00,389.00 620.00,389.00              620.00,384.63 621.23,371.54 617.57,369.02              615.76,367.78 612.16,368.00 610.00,368.00              610.00,368.00 604.00,368.00 604.00,368.00              580.88,368.27 554.29,381.56 537.00,396.30              537.00,396.30 526.17,406.09 526.17,406.09              521.71,410.68 517.96,415.91 513.00,420.00 Z" />
</svg>