<svg xmlns="http://www.w3.org/2000/svg" viewBox="-0.5 -0.41 2115 537.05">
  <path id="linkedin-wordmark" fill="#303030" stroke="none" stroke-width="1"
    d="M 1609.00,0.09            C 1609.00,0.09 1654.00,0.09 1654.00,0.09              1654.00,0.09 1739.00,0.09 1739.00,0.09              1739.00,0.09 2000.00,0.09 2000.00,0.09              2000.00,0.09 2075.00,0.09 2075.00,0.09              2099.72,0.04 2113.96,18.31 2114.00,42.00              2114.00,42.00 2114.00,422.00 2114.00,422.00              2114.00,422.00 2114.00,495.00 2114.00,495.00              2113.88,519.30 2097.31,535.96 2073.00,536.00              2073.00,536.00 1692.00,536.00 1692.00,536.00              1692.00,536.00 1635.00,536.00 1635.00,536.00              1623.95,536.00 1611.32,537.13 1601.00,532.91              1582.57,525.36 1577.03,508.30 1577.00,490.00              1577.00,490.00 1577.00,118.00 1577.00,118.00              1577.00,118.00 1577.00,60.00 1577.00,60.00              1577.00,39.00 1575.38,16.65 1597.00,4.80              1601.15,2.52 1604.43,1.48 1609.00,0.09 Z            M 307.00,73.43            C 348.92,68.25 374.06,116.19 349.10,149.00              344.96,154.44 341.04,157.59 335.00,160.74              325.52,165.68 320.45,166.12 310.00,166.00              276.79,165.61 256.49,129.41 269.90,100.00              277.04,84.33 290.54,76.13 307.00,73.43 Z            M 1695.00,74.30            C 1675.26,77.07 1661.14,85.33 1654.09,105.00              1644.43,131.95 1664.61,164.65 1694.00,165.00              1705.21,165.13 1711.09,164.64 1721.00,158.53              1753.43,138.56 1748.18,89.56 1712.00,76.86              1707.30,75.22 1699.96,74.05 1695.00,74.30 Z            M 0.00,79.00            C 0.00,79.00 84.00,79.00 84.00,79.00              84.00,79.00 84.00,380.00 84.00,380.00              84.00,380.00 237.00,380.00 237.00,380.00              237.00,380.00 237.00,457.00 237.00,457.00              237.00,457.00 0.00,457.00 0.00,457.00              0.00,457.00 0.00,79.00 0.00,79.00 Z            M 683.00,79.00            C 683.00,79.00 764.00,79.00 764.00,79.00              764.00,79.00 764.00,302.00 764.00,302.00              764.00,302.00 793.42,268.00 793.42,268.00              793.42,268.00 830.72,225.00 830.72,225.00              830.72,225.00 845.28,208.00 845.28,208.00              845.28,208.00 853.17,200.60 853.17,200.60              853.17,200.60 860.00,200.00 860.00,200.00              860.00,200.00 951.00,200.00 951.00,200.00              951.00,200.00 941.72,212.00 941.72,212.00              941.72,212.00 924.07,232.00 924.07,232.00              924.07,232.00 874.85,288.00 874.85,288.00              874.85,288.00 855.42,310.00 855.42,310.00              855.42,310.00 849.16,319.00 849.16,319.00              849.16,319.00 855.71,330.00 855.71,330.00              855.71,330.00 875.12,356.00 875.12,356.00              875.12,356.00 925.42,424.00 925.42,424.00              925.42,424.00 949.00,457.00 949.00,457.00              949.00,457.00 856.00,457.00 856.00,457.00              856.00,457.00 848.18,455.98 848.18,455.98              848.18,455.98 841.00,447.00 841.00,447.00              841.00,447.00 827.67,427.00 827.67,427.00              827.67,427.00 787.00,366.00 787.00,366.00              787.00,366.00 764.00,332.00 764.00,332.00              764.00,332.00 764.00,457.00 764.00,457.00              764.00,457.00 683.00,457.00 683.00,457.00              683.00,457.00 683.00,79.00 683.00,79.00 Z            M 1419.00,79.00            C 1419.00,79.00 1499.00,79.00 1499.00,79.00              1499.00,79.00 1499.00,457.00 1499.00,457.00              1499.00,457.00 1425.00,457.00 1425.00,457.00              1425.00,457.00 1424.00,423.00 1424.00,423.00              1418.61,434.96 1401.58,446.46 1390.00,452.25              1346.02,474.24 1284.91,461.37 1252.17,425.00              1204.29,371.82 1208.87,274.88 1258.17,224.09              1280.13,201.47 1309.12,191.95 1340.00,192.00              1369.73,192.05 1400.50,201.56 1419.00,226.00              1419.00,226.00 1419.00,79.00 1419.00,79.00 Z            M 1185.00,411.00            C 1181.38,419.47 1172.08,426.99 1165.00,432.74              1144.41,449.47 1111.78,462.87 1085.00,463.00              1085.00,463.00 1067.00,463.00 1067.00,463.00              1047.40,462.97 1022.66,456.07 1005.00,447.68              970.22,431.16 946.13,400.02 936.87,363.00              935.07,355.77 933.09,344.38 933.00,337.00              933.00,337.00 933.00,321.00 933.00,321.00              933.05,291.73 945.17,260.97 964.29,239.00              987.60,212.20 1022.97,196.52 1058.00,193.04              1058.00,193.04 1066.00,193.04 1066.00,193.04              1066.00,193.04 1077.00,192.02 1077.00,192.02              1077.00,192.02 1086.00,192.91 1086.00,192.91              1110.82,194.62 1134.75,201.80 1154.00,218.30              1181.86,242.18 1196.94,281.65 1197.00,318.00              1197.00,318.00 1197.00,353.00 1197.00,353.00              1197.00,353.00 1013.00,353.00 1013.00,353.00              1016.82,363.37 1017.04,368.50 1024.52,378.00              1042.58,400.97 1072.57,408.50 1099.00,395.74              1108.13,391.34 1113.91,387.51 1120.91,380.00              1123.05,377.71 1126.84,371.62 1130.09,371.87              1132.69,372.08 1143.31,380.36 1146.00,382.37              1146.00,382.37 1185.00,411.00 1185.00,411.00 Z            M 474.00,234.00            C 478.66,222.01 495.56,208.48 507.00,202.76              525.41,193.55 537.18,193.77 557.00,194.00              584.25,194.32 612.14,205.20 626.94,229.00              644.19,256.76 644.00,291.50 644.00,323.00              644.00,323.00 644.00,457.00 644.00,457.00              644.00,457.00 564.00,457.00 564.00,457.00              564.00,457.00 564.00,324.00 564.00,324.00              564.00,324.00 563.17,313.00 563.17,313.00              561.52,295.94 558.77,276.65 541.00,268.52              533.69,265.17 527.82,264.91 520.00,265.00              486.86,265.39 476.04,295.77 476.00,324.00              476.00,324.00 476.00,457.00 476.00,457.00              476.00,457.00 396.00,457.00 396.00,457.00              396.00,457.00 396.00,200.00 396.00,200.00              396.00,200.00 473.00,200.00 473.00,200.00              473.00,200.00 474.00,234.00 474.00,234.00 Z            M 2034.00,456.00            C 2034.00,456.00 2034.00,402.00 2034.00,402.00              2034.00,402.00 2034.00,361.00 2034.00,361.00              2034.00,361.00 2034.00,333.00 2034.00,333.00              2034.00,333.00 2034.00,314.00 2034.00,314.00              2034.00,314.00 2033.00,293.00 2033.00,293.00              2033.00,293.00 2031.13,275.00 2031.13,275.00              2027.22,246.91 2017.79,221.55 1992.00,206.62              1985.84,203.05 1979.82,200.88 1973.00,199.01              1966.55,197.24 1952.61,195.08 1946.00,195.00              1946.00,195.00 1934.00,195.00 1934.00,195.00              1914.59,195.03 1895.72,203.02 1881.00,215.44              1874.30,221.09 1866.48,233.49 1862.00,236.00              1862.00,236.00 1862.00,201.00 1862.00,201.00              1862.00,201.00 1787.00,201.00 1787.00,201.00              1787.00,201.00 1787.00,456.00 1787.00,456.00              1787.00,456.00 1865.00,456.00 1865.00,456.00              1865.00,456.00 1865.00,367.00 1865.00,367.00              1865.00,346.70 1864.16,326.12 1867.00,306.00              1870.39,282.06 1884.41,264.30 1910.00,264.00              1917.82,263.91 1924.68,264.05 1932.00,267.35              1950.28,275.60 1954.97,298.87 1955.00,317.00              1955.00,317.00 1955.00,456.00 1955.00,456.00              1955.00,456.00 2034.00,456.00 2034.00,456.00 Z            M 272.00,200.00            C 272.00,200.00 353.00,200.00 353.00,200.00              353.00,200.00 353.00,457.00 353.00,457.00              353.00,457.00 272.00,457.00 272.00,457.00              272.00,457.00 272.00,200.00 272.00,200.00 Z            M 1736.00,201.00            C 1736.00,201.00 1658.00,201.00 1658.00,201.00              1658.00,201.00 1658.00,456.00 1658.00,456.00              1658.00,456.00 1736.00,456.00 1736.00,456.00              1736.00,456.00 1736.00,201.00 1736.00,201.00 Z            M 1117.00,298.00            C 1116.52,275.93 1102.07,256.38 1080.00,251.67              1076.04,250.82 1074.70,251.15 1071.00,250.71              1068.15,250.73 1067.04,250.32 1064.00,250.71              1055.80,251.04 1049.43,252.24 1042.00,255.97              1023.99,265.00 1016.57,279.06 1013.00,298.00              1013.00,298.00 1117.00,298.00 1117.00,298.00 Z            M 1354.00,263.29            C 1336.14,266.01 1321.75,271.69 1310.79,287.00              1293.42,311.26 1295.39,353.20 1316.29,374.83              1326.47,385.37 1343.43,391.83 1358.00,392.00              1371.26,392.15 1384.30,390.84 1396.00,383.91              1404.31,378.98 1410.50,373.28 1415.54,365.00              1430.43,340.53 1428.14,301.01 1407.83,280.09              1394.34,266.19 1372.71,261.54 1354.00,263.29 Z" />
</svg>