<svg xmlns="http://www.w3.org/2000/svg" viewBox="-0.61 -0.41 538.11 536.91">
  <path id="Selection" fill="#303030" stroke="none" stroke-width="1" d="M 32.00,0.09            C 32.00,0.09 77.00,0.09 77.00,0.09              77.00,0.09 162.00,0.09 162.00,0.09              162.00,0.09 423.00,0.09 423.00,0.09              423.00,0.09 497.00,0.09 497.00,0.09              522.50,0.04 536.96,18.57 537.00,43.00              537.00,43.00 537.00,422.00 537.00,422.00              537.00,422.00 537.00,495.00 537.00,495.00              536.72,518.49 520.90,535.96 497.00,536.00              497.00,536.00 115.00,536.00 115.00,536.00              115.00,536.00 40.00,536.00 40.00,536.00              14.56,535.96 0.04,517.39 0.00,493.00              0.00,493.00 0.00,119.00 0.00,119.00              0.00,119.00 0.00,61.00 0.00,61.00              0.00,51.38 -0.79,36.91 1.78,28.00              5.98,13.44 17.45,3.70 32.00,0.09 Z            M 112.00,75.30            C 105.51,76.52 100.58,78.51 95.00,82.09              71.17,97.38 67.64,131.61 87.17,151.91              95.11,160.16 106.70,164.81 118.00,165.68              121.54,165.95 129.51,164.59 133.00,163.56              171.29,152.28 176.93,99.55 142.00,80.31              132.12,74.87 123.04,74.20 112.00,75.30 Z            M 456.00,456.00            C 456.00,456.00 456.00,372.00 456.00,372.00              456.00,372.00 457.00,359.00 457.00,359.00              457.00,359.00 457.00,322.00 457.00,322.00              457.00,322.00 456.04,310.00 456.04,310.00              456.04,310.00 456.04,295.00 456.04,295.00              456.04,295.00 454.13,276.00 454.13,276.00              449.12,239.91 435.50,210.85 398.00,199.72              389.97,197.33 374.37,195.10 366.00,195.00              340.71,194.71 322.64,199.79 303.00,216.44              296.57,221.89 289.75,233.34 285.00,236.00              285.00,236.00 285.00,202.00 285.00,202.00              285.00,202.00 210.00,202.00 210.00,202.00              210.00,202.00 210.00,456.00 210.00,456.00              210.00,456.00 288.00,456.00 288.00,456.00              288.00,456.00 288.00,328.00 288.00,328.00              288.00,328.00 288.91,316.00 288.91,316.00              290.47,294.73 296.74,272.56 320.00,266.16              324.62,264.89 329.20,264.06 334.00,264.00              340.06,263.93 345.17,264.08 351.00,266.10              372.49,273.54 377.97,297.70 378.00,318.00              378.00,318.00 378.00,456.00 378.00,456.00              378.00,456.00 456.00,456.00 456.00,456.00 Z            M 159.00,202.00            C 159.00,202.00 81.00,202.00 81.00,202.00              81.00,202.00 81.00,456.00 81.00,456.00              81.00,456.00 159.00,456.00 159.00,456.00              159.00,456.00 159.00,202.00 159.00,202.00 Z"/>
</svg>