<svg xmlns="http://www.w3.org/2000/svg" viewBox="-0.5 -0.5 329 329">
  <path id="linux-foundation" fill="#303030" stroke="none" stroke-width="1"
    d="M 0.00,0.00            C 0.00,0.00 328.00,0.00 328.00,0.00              328.00,0.00 328.00,328.00 328.00,328.00              328.00,328.00 229.00,328.00 229.00,328.00              229.00,328.00 229.00,262.00 229.00,262.00              229.00,262.00 261.00,262.00 261.00,262.00              261.00,262.00 261.00,66.00 261.00,66.00              261.00,66.00 66.00,66.00 66.00,66.00              66.00,66.00 66.00,99.00 66.00,99.00              66.00,99.00 0.00,99.00 0.00,99.00              0.00,99.00 0.00,0.00 0.00,0.00 Z            M 0.00,131.00            C 0.00,131.00 66.00,131.00 66.00,131.00              66.00,131.00 66.00,262.00 66.00,262.00              66.00,262.00 197.00,262.00 197.00,262.00              197.00,262.00 197.00,328.00 197.00,328.00              197.00,328.00 0.00,328.00 0.00,328.00              0.00,328.00 0.00,131.00 0.00,131.00 Z" />
</svg>