<svg xmlns="http://www.w3.org/2000/svg" viewBox="-0.5 -0.5 1001 330.35">
  <path id="linux-foundation-wordmark" fill="#303030" stroke="none" stroke-width="1"
    d="M 0.00,0.00            C 0.00,0.00 328.00,0.00 328.00,0.00              328.00,0.00 328.00,328.00 328.00,328.00              328.00,328.00 229.00,328.00 229.00,328.00              229.00,328.00 229.00,262.00 229.00,262.00              229.00,262.00 261.00,262.00 261.00,262.00              261.00,262.00 261.00,66.00 261.00,66.00              261.00,66.00 66.00,66.00 66.00,66.00              66.00,66.00 66.00,99.00 66.00,99.00              66.00,99.00 0.00,99.00 0.00,99.00              0.00,99.00 0.00,0.00 0.00,0.00 Z            M 384.00,1.00            C 384.00,1.00 442.00,1.00 442.00,1.00              442.00,1.00 442.00,8.00 442.00,8.00              442.00,8.00 417.00,8.00 417.00,8.00              417.00,8.00 417.00,75.00 417.00,75.00              417.00,75.00 409.00,75.00 409.00,75.00              409.00,75.00 409.00,8.00 409.00,8.00              409.00,8.00 384.00,8.00 384.00,8.00              384.00,8.00 384.00,1.00 384.00,1.00 Z            M 448.00,1.00            C 448.00,1.00 456.00,1.00 456.00,1.00              456.00,1.00 456.00,32.00 456.00,32.00              456.00,32.00 498.00,32.00 498.00,32.00              498.00,32.00 498.00,1.00 498.00,1.00              498.00,1.00 506.00,1.00 506.00,1.00              506.00,1.00 506.00,75.00 506.00,75.00              506.00,75.00 498.00,75.00 498.00,75.00              498.00,75.00 498.00,39.00 498.00,39.00              498.00,39.00 456.00,39.00 456.00,39.00              456.00,39.00 456.00,75.00 456.00,75.00              456.00,75.00 448.00,75.00 448.00,75.00              448.00,75.00 448.00,1.00 448.00,1.00 Z            M 520.00,1.00            C 520.00,1.00 571.00,1.00 571.00,1.00              571.00,1.00 571.00,8.00 571.00,8.00              571.00,8.00 528.00,8.00 528.00,8.00              528.00,8.00 528.00,33.00 528.00,33.00              528.00,33.00 568.00,33.00 568.00,33.00              568.00,33.00 568.00,40.00 568.00,40.00              568.00,40.00 528.00,40.00 528.00,40.00              528.00,40.00 528.00,68.00 528.00,68.00              528.00,68.00 572.00,68.00 572.00,68.00              572.00,68.00 572.00,75.00 572.00,75.00              572.00,75.00 520.00,75.00 520.00,75.00              520.00,75.00 520.00,1.00 520.00,1.00 Z            M 384.00,95.00            C 384.00,95.00 425.00,95.00 425.00,95.00              425.00,95.00 425.00,192.00 425.00,192.00              425.00,192.00 482.00,192.00 482.00,192.00              482.00,192.00 482.00,227.00 482.00,227.00              482.00,227.00 384.00,227.00 384.00,227.00              384.00,227.00 384.00,95.00 384.00,95.00 Z            M 508.00,95.00            C 508.00,95.00 549.00,95.00 549.00,95.00              549.00,95.00 549.00,227.00 549.00,227.00              549.00,227.00 508.00,227.00 508.00,227.00              508.00,227.00 508.00,95.00 508.00,95.00 Z            M 578.00,95.00            C 578.00,95.00 612.00,95.00 612.00,95.00              621.71,95.02 619.57,95.03 628.58,111.00              628.58,111.00 657.00,163.00 657.00,163.00              657.00,163.00 657.00,95.00 657.00,95.00              657.00,95.00 696.00,95.00 696.00,95.00              696.00,95.00 696.00,227.00 696.00,227.00              696.00,227.00 664.00,227.00 664.00,227.00              662.13,227.00 658.88,227.12 657.21,226.40              653.83,224.93 647.78,212.69 645.77,209.00              645.77,209.00 617.00,158.00 617.00,158.00              617.00,158.00 617.00,227.00 617.00,227.00              617.00,227.00 578.00,227.00 578.00,227.00              578.00,227.00 578.00,95.00 578.00,95.00 Z            M 724.00,95.00            C 724.00,95.00 765.00,95.00 765.00,95.00              765.00,95.00 765.00,158.00 765.00,158.00              765.00,158.00 766.14,171.00 766.14,171.00              766.14,171.00 766.14,180.00 766.14,180.00              767.84,188.64 774.05,195.28 783.00,195.90              799.33,197.05 802.98,182.01 803.00,169.00              803.00,169.00 803.00,95.00 803.00,95.00              803.00,95.00 844.00,95.00 844.00,95.00              844.00,95.00 844.00,180.00 844.00,180.00              843.99,186.39 843.50,189.80 841.85,196.00              834.60,223.16 810.81,229.00 786.00,229.96              781.43,230.14 780.11,229.57 776.00,229.17              760.93,227.71 747.14,225.92 736.18,213.96              727.11,204.07 724.16,188.04 724.00,175.00              724.00,175.00 724.00,95.00 724.00,95.00 Z            M 864.00,95.00            C 864.00,95.00 904.00,95.00 904.00,95.00              904.00,95.00 911.67,96.02 911.67,96.02              911.67,96.02 918.42,106.00 918.42,106.00              918.42,106.00 932.00,130.00 932.00,130.00              932.00,130.00 944.69,105.00 944.69,105.00              944.69,105.00 950.53,95.99 950.53,95.99              950.53,95.99 958.00,95.00 958.00,95.00              958.00,95.00 996.00,95.00 996.00,95.00              993.94,100.31 989.86,105.21 986.67,110.00              986.67,110.00 966.33,140.00 966.33,140.00              964.22,143.17 956.04,153.99 956.02,157.00              955.99,160.30 965.05,172.58 967.33,176.00              967.33,176.00 989.67,209.00 989.67,209.00              993.31,214.47 998.44,220.64 1000.00,227.00              1000.00,227.00 959.00,227.00 959.00,227.00              949.77,226.98 950.93,226.68 943.72,214.00              943.72,214.00 929.00,189.00 929.00,189.00              929.00,189.00 915.28,213.00 915.28,213.00              915.28,213.00 907.39,225.40 907.39,225.40              907.39,225.40 900.00,227.00 900.00,227.00              900.00,227.00 860.00,227.00 860.00,227.00              862.41,219.42 871.01,208.98 875.67,202.00              875.67,202.00 893.33,176.00 893.33,176.00              893.33,176.00 907.00,156.00 907.00,156.00              907.00,156.00 883.28,124.00 883.28,124.00              883.28,124.00 864.00,95.00 864.00,95.00 Z            M 0.00,131.00            C 0.00,131.00 66.00,131.00 66.00,131.00              66.00,131.00 66.00,262.00 66.00,262.00              66.00,262.00 197.00,262.00 197.00,262.00              197.00,262.00 197.00,328.00 197.00,328.00              197.00,328.00 0.00,328.00 0.00,328.00              0.00,328.00 0.00,131.00 0.00,131.00 Z            M 461.00,253.47            C 471.74,251.97 483.46,252.79 491.99,260.21              509.77,275.69 508.18,313.37 487.00,325.47              479.91,329.52 473.81,329.09 466.00,329.00              449.58,328.80 437.96,316.82 435.16,301.00              435.16,301.00 435.16,287.00 435.16,287.00              435.20,270.39 444.56,257.34 461.00,253.47 Z            M 884.00,253.52            C 895.39,251.71 908.16,253.01 916.83,261.30              932.86,276.62 931.58,312.45 912.00,324.53              904.17,329.37 898.78,329.10 890.00,329.00              854.99,328.58 849.62,279.75 869.09,261.18              873.46,257.02 878.29,255.05 884.00,253.52 Z            M 384.00,254.00            C 384.00,254.00 431.00,254.00 431.00,254.00              431.00,254.00 431.00,261.00 431.00,261.00              431.00,261.00 392.00,261.00 392.00,261.00              392.00,261.00 392.00,286.00 392.00,286.00              392.00,286.00 426.00,286.00 426.00,286.00              426.00,286.00 426.00,293.00 426.00,293.00              426.00,293.00 392.00,293.00 392.00,293.00              392.00,293.00 392.00,328.00 392.00,328.00              392.00,328.00 384.00,328.00 384.00,328.00              384.00,328.00 384.00,254.00 384.00,254.00 Z            M 513.00,254.00            C 513.00,254.00 521.00,254.00 521.00,254.00              521.00,254.00 521.00,298.00 521.00,298.00              521.08,304.88 522.21,311.76 527.19,316.89              535.51,325.48 552.47,323.99 559.03,313.99              562.33,308.96 562.97,302.85 563.00,297.00              563.00,297.00 563.00,254.00 563.00,254.00              563.00,254.00 571.00,254.00 571.00,254.00              571.00,254.00 571.00,299.00 571.00,299.00              570.96,306.53 569.57,314.98 564.61,320.96              555.76,331.63 531.02,331.99 521.09,322.79              514.69,316.86 513.04,308.34 513.00,300.00              513.00,300.00 513.00,254.00 513.00,254.00 Z            M 584.00,254.00            C 584.00,254.00 591.68,254.57 591.68,254.57              591.68,254.57 603.66,270.00 603.66,270.00              603.66,270.00 634.00,314.00 634.00,314.00              634.00,314.00 634.00,254.00 634.00,254.00              634.00,254.00 642.00,254.00 642.00,254.00              642.00,254.00 642.00,328.00 642.00,328.00              642.00,328.00 633.18,326.98 633.18,326.98              633.18,326.98 621.86,312.00 621.86,312.00              621.86,312.00 592.00,269.00 592.00,269.00              592.00,269.00 592.00,328.00 592.00,328.00              592.00,328.00 584.00,328.00 584.00,328.00              584.00,328.00 584.00,254.00 584.00,254.00 Z            M 656.00,254.00            C 670.35,254.00 690.89,251.86 702.99,260.10              719.94,271.66 719.39,311.78 702.00,322.87              690.91,329.94 669.20,328.00 656.00,328.00              656.00,328.00 656.00,254.00 656.00,254.00 Z            M 717.00,328.00            C 717.00,328.00 738.99,273.00 738.99,273.00              738.99,273.00 747.41,255.02 747.41,255.02              747.41,255.02 756.00,254.00 756.00,254.00              756.00,254.00 763.80,275.00 763.80,275.00              763.80,275.00 777.00,309.00 777.00,309.00              777.00,309.00 784.00,328.00 784.00,328.00              784.00,328.00 775.00,328.00 775.00,328.00              775.00,328.00 767.00,305.00 767.00,305.00              767.00,305.00 734.00,305.00 734.00,305.00              734.00,305.00 728.60,321.00 728.60,321.00              728.60,321.00 725.30,327.01 725.30,327.01              725.30,327.01 717.00,328.00 717.00,328.00 Z            M 775.00,254.00            C 775.00,254.00 833.00,254.00 833.00,254.00              833.00,254.00 833.00,261.00 833.00,261.00              833.00,261.00 808.00,261.00 808.00,261.00              808.00,261.00 808.00,328.00 808.00,328.00              808.00,328.00 800.00,328.00 800.00,328.00              800.00,328.00 800.00,261.00 800.00,261.00              800.00,261.00 775.00,261.00 775.00,261.00              775.00,261.00 775.00,254.00 775.00,254.00 Z            M 840.00,254.00            C 840.00,254.00 848.00,254.00 848.00,254.00              848.00,254.00 848.00,328.00 848.00,328.00              848.00,328.00 840.00,328.00 840.00,328.00              840.00,328.00 840.00,254.00 840.00,254.00 Z            M 937.00,254.00            C 937.00,254.00 945.82,255.02 945.82,255.02              945.82,255.02 958.00,271.00 958.00,271.00              958.00,271.00 975.98,297.00 975.98,297.00              975.98,297.00 988.00,314.00 988.00,314.00              988.00,314.00 988.00,254.00 988.00,254.00              988.00,254.00 996.00,254.00 996.00,254.00              996.00,254.00 996.00,328.00 996.00,328.00              996.00,328.00 987.09,326.98 987.09,326.98              987.09,326.98 975.58,312.00 975.58,312.00              975.58,312.00 945.00,268.00 945.00,268.00              945.00,268.00 945.00,328.00 945.00,328.00              945.00,328.00 937.00,328.00 937.00,328.00              937.00,328.00 937.00,254.00 937.00,254.00 Z            M 463.00,260.33            C 446.19,264.37 442.83,279.06 443.00,294.00              443.22,312.25 456.39,325.47 475.00,321.91              499.07,317.30 501.13,282.35 488.67,268.04              481.81,260.16 472.74,259.25 463.00,260.33 Z            M 887.00,260.33            C 854.40,268.16 861.19,328.05 897.00,322.24              923.89,317.87 925.19,280.26 910.70,266.47              903.70,259.81 896.11,259.32 887.00,260.33 Z            M 663.00,321.00            C 674.60,321.00 689.25,322.73 698.91,315.21              708.42,307.80 709.15,285.17 704.64,275.00              702.99,271.28 700.32,268.00 697.00,265.65              688.74,259.80 672.90,261.00 663.00,261.00              663.00,261.00 663.00,321.00 663.00,321.00 Z            M 751.00,264.00            C 751.00,264.00 737.00,299.00 737.00,299.00              737.00,299.00 764.00,299.00 764.00,299.00              764.00,299.00 751.00,264.00 751.00,264.00 Z" />
</svg>