<svg xmlns="http://www.w3.org/2000/svg" viewBox="-0.5 -0.49 1001 61.37">
  <path id="linux-foundation-wordmark-alt" fill="#303030" stroke="none" stroke-width="1"
    d="M 581.00,0.47            C 589.71,-0.75 599.08,0.25 605.82,6.47              619.13,18.75 617.70,47.26 602.00,57.01              596.50,60.42 591.17,60.07 585.00,60.00              555.99,59.65 555.02,21.61 567.21,8.04              571.21,3.60 575.34,1.81 581.00,0.47 Z            M 914.00,0.46            C 922.60,-0.73 931.23,0.16 937.93,6.21              950.04,17.07 950.59,43.85 937.93,54.47              931.12,60.16 925.29,60.10 917.00,60.00              891.24,59.69 885.49,24.41 899.53,8.17              903.68,3.37 908.04,1.79 914.00,0.46 Z            M 0.00,1.00            C 0.00,1.00 58.00,1.00 58.00,1.00              58.00,1.00 58.00,59.00 58.00,59.00              58.00,59.00 40.00,59.00 40.00,59.00              40.00,59.00 40.00,47.00 40.00,47.00              40.00,47.00 45.00,47.00 45.00,47.00              45.00,47.00 45.00,14.00 45.00,14.00              45.00,14.00 12.00,14.00 12.00,14.00              12.00,14.00 12.00,19.00 12.00,19.00              12.00,19.00 0.00,19.00 0.00,19.00              0.00,19.00 0.00,1.00 0.00,1.00 Z            M 71.00,1.00            C 71.00,1.00 118.00,1.00 118.00,1.00              118.00,1.00 118.00,7.00 118.00,7.00              118.00,7.00 98.00,7.00 98.00,7.00              98.00,7.00 98.00,59.00 98.00,59.00              98.00,59.00 91.00,59.00 91.00,59.00              91.00,59.00 91.00,7.00 91.00,7.00              91.00,7.00 71.00,7.00 71.00,7.00              71.00,7.00 71.00,1.00 71.00,1.00 Z            M 122.00,1.00            C 122.00,1.00 128.00,1.00 128.00,1.00              128.00,1.00 128.00,26.00 128.00,26.00              128.00,26.00 161.00,26.00 161.00,26.00              161.00,26.00 161.00,1.00 161.00,1.00              161.00,1.00 168.00,1.00 168.00,1.00              168.00,1.00 168.00,59.00 168.00,59.00              168.00,59.00 161.00,59.00 161.00,59.00              161.00,59.00 161.00,32.00 161.00,32.00              161.00,32.00 128.00,32.00 128.00,32.00              128.00,32.00 128.00,59.00 128.00,59.00              128.00,59.00 122.00,59.00 122.00,59.00              122.00,59.00 122.00,1.00 122.00,1.00 Z            M 178.00,1.00            C 178.00,1.00 219.00,1.00 219.00,1.00              219.00,1.00 219.00,7.00 219.00,7.00              219.00,7.00 185.00,7.00 185.00,7.00              185.00,7.00 185.00,26.00 185.00,26.00              185.00,26.00 217.00,26.00 217.00,26.00              217.00,26.00 217.00,32.00 217.00,32.00              217.00,32.00 185.00,32.00 185.00,32.00              185.00,32.00 185.00,54.00 185.00,54.00              185.00,54.00 219.00,54.00 219.00,54.00              219.00,54.00 219.00,59.00 219.00,59.00              219.00,59.00 178.00,59.00 178.00,59.00              178.00,59.00 178.00,1.00 178.00,1.00 Z            M 233.00,1.00            C 233.00,1.00 252.00,1.00 252.00,1.00              252.00,1.00 252.00,44.00 252.00,44.00              252.00,44.00 277.00,44.00 277.00,44.00              277.00,44.00 277.00,59.00 277.00,59.00              277.00,59.00 233.00,59.00 233.00,59.00              233.00,59.00 233.00,1.00 233.00,1.00 Z            M 287.00,1.00            C 287.00,1.00 306.00,1.00 306.00,1.00              306.00,1.00 306.00,59.00 306.00,59.00              306.00,59.00 287.00,59.00 287.00,59.00              287.00,59.00 287.00,1.00 287.00,1.00 Z            M 318.00,1.00            C 318.00,1.00 335.79,1.60 335.79,1.60              335.79,1.60 341.42,9.00 341.42,9.00              341.42,9.00 353.00,30.00 353.00,30.00              353.00,30.00 353.00,1.00 353.00,1.00              353.00,1.00 370.00,1.00 370.00,1.00              370.00,1.00 370.00,59.00 370.00,59.00              370.00,59.00 353.21,58.40 353.21,58.40              353.21,58.40 346.85,50.00 346.85,50.00              346.85,50.00 335.00,29.00 335.00,29.00              335.00,29.00 335.00,59.00 335.00,59.00              335.00,59.00 318.00,59.00 318.00,59.00              318.00,59.00 318.00,1.00 318.00,1.00 Z            M 382.00,1.00            C 382.00,1.00 401.00,1.00 401.00,1.00              401.00,1.00 401.00,32.00 401.00,32.00              401.01,37.52 401.91,46.29 409.99,44.53              416.21,43.17 415.99,37.00 416.00,32.00              416.00,32.00 416.00,1.00 416.00,1.00              416.00,1.00 435.00,1.00 435.00,1.00              435.00,1.00 435.00,36.00 435.00,36.00              434.97,42.21 434.16,49.07 429.66,53.73              421.27,62.60 395.74,62.47 387.39,53.73              383.23,49.29 382.07,42.81 382.00,37.00              382.00,37.00 382.00,1.00 382.00,1.00 Z            M 443.00,1.00            C 443.00,1.00 464.39,1.99 464.39,1.99              464.39,1.99 473.00,15.00 473.00,15.00              473.00,15.00 480.63,1.99 480.63,1.99              480.63,1.99 501.00,1.00 501.00,1.00              501.00,1.00 483.00,29.00 483.00,29.00              487.37,33.06 500.85,53.37 503.00,59.00              498.81,59.00 484.22,59.73 481.33,57.98              478.15,56.05 474.13,47.58 473.00,44.00              473.00,44.00 471.00,44.00 471.00,44.00              471.00,44.00 462.47,58.01 462.47,58.01              462.47,58.01 441.00,59.00 441.00,59.00              444.82,51.16 450.51,44.25 455.33,37.00              457.20,34.19 460.39,30.57 459.45,27.00              458.10,21.89 445.99,8.70 443.00,1.00 Z            M 520.00,1.00            C 520.00,1.00 557.00,1.00 557.00,1.00              557.00,1.00 557.00,7.00 557.00,7.00              557.00,7.00 526.00,7.00 526.00,7.00              526.00,7.00 526.00,26.00 526.00,26.00              526.00,26.00 554.00,26.00 554.00,26.00              554.00,26.00 554.00,32.00 554.00,32.00              554.00,32.00 526.00,32.00 526.00,32.00              526.00,32.00 526.00,59.00 526.00,59.00              526.00,59.00 520.00,59.00 520.00,59.00              520.00,59.00 520.00,1.00 520.00,1.00 Z            M 622.00,1.00            C 622.00,1.00 628.00,1.00 628.00,1.00              628.00,1.00 628.00,33.00 628.00,33.00              628.01,38.09 628.14,43.51 631.00,47.96              637.53,58.10 653.28,56.47 658.55,46.00              660.39,42.34 660.99,32.31 661.00,28.00              661.00,28.00 661.00,1.00 661.00,1.00              661.00,1.00 667.00,1.00 667.00,1.00              667.00,1.00 667.00,37.00 667.00,37.00              666.97,42.94 666.47,48.14 662.61,52.98              660.58,55.54 658.06,57.66 655.00,58.85              647.61,61.75 632.99,60.59 627.21,54.79              622.36,49.92 622.01,44.41 622.00,38.00              622.00,38.00 622.00,1.00 622.00,1.00 Z            M 677.00,1.00            C 687.18,1.13 687.42,5.97 693.14,14.00              693.14,14.00 717.00,48.00 717.00,48.00              717.00,48.00 717.00,1.00 717.00,1.00              717.00,1.00 723.00,1.00 723.00,1.00              723.00,1.00 723.00,59.00 723.00,59.00              721.14,58.99 717.96,59.14 716.30,58.43              712.89,56.97 707.91,48.31 705.66,45.00              705.66,45.00 683.00,12.00 683.00,12.00              683.00,12.00 683.00,59.00 683.00,59.00              683.00,59.00 677.00,59.00 677.00,59.00              677.00,59.00 677.00,1.00 677.00,1.00 Z            M 733.00,1.00            C 744.66,1.00 761.12,-0.69 770.96,6.11              781.35,13.28 782.46,35.46 777.65,46.00              775.74,50.18 772.96,53.42 769.00,55.78              760.82,60.66 742.82,59.00 733.00,59.00              733.00,59.00 733.00,1.00 733.00,1.00 Z            M 782.00,59.00            C 782.00,59.00 799.00,15.00 799.00,15.00              800.67,10.84 802.82,1.62 808.00,1.20              813.54,0.74 815.59,9.88 817.19,14.00              817.19,14.00 834.00,59.00 834.00,59.00              832.45,58.98 829.79,59.09 828.41,58.43              824.67,56.62 823.54,46.63 820.30,43.60              817.70,41.16 807.74,41.99 804.00,42.00              801.33,42.01 797.77,41.65 795.70,43.60              792.46,46.63 791.33,56.62 787.59,58.43              786.21,59.09 783.55,58.98 782.00,59.00 Z            M 827.00,1.00            C 827.00,1.00 873.00,1.00 873.00,1.00              873.00,1.00 873.00,7.00 873.00,7.00              873.00,7.00 853.00,7.00 853.00,7.00              853.00,7.00 853.00,59.00 853.00,59.00              853.00,59.00 847.00,59.00 847.00,59.00              847.00,59.00 847.00,7.00 847.00,7.00              847.00,7.00 827.00,7.00 827.00,7.00              827.00,7.00 827.00,1.00 827.00,1.00 Z            M 878.00,1.00            C 878.00,1.00 884.00,1.00 884.00,1.00              884.00,1.00 884.00,59.00 884.00,59.00              884.00,59.00 878.00,59.00 878.00,59.00              878.00,59.00 878.00,1.00 878.00,1.00 Z            M 955.00,1.00            C 964.79,1.11 965.41,6.40 970.72,14.00              970.72,14.00 994.00,47.00 994.00,47.00              994.00,47.00 994.00,1.00 994.00,1.00              994.00,1.00 1000.00,1.00 1000.00,1.00              1000.00,1.00 1000.00,59.00 1000.00,59.00              989.83,58.87 989.47,53.97 983.98,46.00              983.98,46.00 961.00,13.00 961.00,13.00              961.00,13.00 961.00,59.00 961.00,59.00              961.00,59.00 955.00,59.00 955.00,59.00              955.00,59.00 955.00,1.00 955.00,1.00 Z            M 583.00,6.33            C 556.38,12.72 563.17,59.75 591.00,54.53              611.11,50.76 613.87,19.35 598.00,8.70              593.45,5.65 588.21,5.75 583.00,6.33 Z            M 915.00,6.33            C 889.96,12.57 895.06,59.45 923.00,54.67              943.09,51.24 945.26,22.63 933.79,11.21              928.63,6.07 921.82,5.57 915.00,6.33 Z            M 740.00,54.00            C 748.27,54.00 760.08,54.74 766.90,49.36              776.92,41.46 776.38,18.06 765.98,10.65              759.21,5.82 748.06,7.00 740.00,7.00              740.00,7.00 740.00,54.00 740.00,54.00 Z            M 809.00,10.00            C 804.71,14.49 799.45,29.65 798.00,36.00              798.00,36.00 818.00,36.00 818.00,36.00              818.00,36.00 809.00,10.00 809.00,10.00 Z            M 0.00,24.00            C 0.00,24.00 12.00,24.00 12.00,24.00              12.00,24.00 12.00,47.00 12.00,47.00              12.00,47.00 35.00,47.00 35.00,47.00              35.00,47.00 35.00,59.00 35.00,59.00              35.00,59.00 0.00,59.00 0.00,59.00              0.00,59.00 0.00,24.00 0.00,24.00 Z" />
</svg>