<svg xmlns="http://www.w3.org/2000/svg" viewBox="21.5 2.49 357.16 395.04">
  <path id="livescience" fill="#303030" stroke="none" stroke-width="1"
    d="M 345.00,319.00            C 346.00,314.92 346.95,307.21 347.00,303.00              347.10,293.77 346.74,285.92 343.98,277.00              332.95,241.40 296.29,234.23 265.00,225.03              256.60,222.57 240.33,218.57 234.09,212.79              225.45,204.79 225.62,190.87 235.02,183.53              240.98,178.87 251.56,177.04 259.00,177.51              275.08,178.53 285.73,182.09 300.00,189.41              300.00,189.41 311.99,196.39 311.99,196.39              313.44,197.33 315.49,199.00 317.33,198.47              319.86,197.74 323.59,191.27 325.05,189.00              325.05,189.00 338.86,169.00 338.86,169.00              341.77,164.52 344.93,161.76 339.98,157.24              339.98,157.24 325.00,148.14 325.00,148.14              304.73,136.32 279.35,130.73 256.00,131.00              238.55,131.21 216.49,138.11 203.00,149.29              198.51,153.00 194.02,156.78 190.29,161.28              180.52,173.10 183.18,174.98 172.00,175.00              172.00,175.00 134.00,175.00 134.00,175.00              131.58,174.98 123.23,175.22 121.60,173.97              119.62,172.44 120.00,168.27 120.00,166.00              120.00,166.00 120.00,53.00 120.00,53.00              120.00,51.03 119.88,47.88 120.60,46.09              122.14,42.25 134.02,35.82 138.00,33.63              138.00,33.63 169.00,15.55 169.00,15.55              179.82,9.06 187.87,3.16 201.00,3.00              217.64,2.81 222.58,7.35 236.28,15.40              236.28,15.40 257.00,27.20 257.00,27.20              257.00,27.20 299.00,51.43 299.00,51.43              299.00,51.43 354.00,83.31 354.00,83.31              368.52,91.41 377.97,104.06 378.00,121.00              378.00,121.00 378.00,208.00 378.00,208.00              378.00,208.00 378.00,263.00 378.00,263.00              378.00,272.93 379.18,284.91 375.10,294.00              369.29,306.93 358.36,314.05 346.00,320.00              346.00,320.00 345.00,319.00 345.00,319.00 Z            M 259.00,372.00            C 242.48,379.37 221.84,396.79 204.00,397.00              199.43,397.05 195.48,397.19 191.00,396.10              181.85,393.88 155.68,377.97 146.00,372.42              146.00,372.42 72.00,330.42 72.00,330.42              72.00,330.42 42.00,313.30 42.00,313.30              28.38,304.46 22.02,292.03 22.00,276.00              22.00,276.00 22.00,124.00 22.00,124.00              22.03,101.87 32.60,91.67 51.00,81.69              56.23,78.86 59.09,76.69 65.00,75.00              65.00,75.00 65.00,111.00 65.00,111.00              65.00,111.00 65.00,184.00 65.00,184.00              65.00,184.00 65.00,212.00 65.00,212.00              65.00,212.00 64.00,229.00 64.00,229.00              71.47,230.82 92.15,230.00 101.00,230.00              101.00,230.00 172.00,230.00 172.00,230.00              182.90,230.02 179.42,231.65 187.09,240.00              192.12,245.48 197.65,250.62 204.00,254.54              223.97,266.87 242.07,270.70 264.00,277.00              273.42,279.71 289.79,283.75 296.96,290.21              305.33,297.76 304.82,310.48 295.96,317.39              288.14,323.48 275.65,325.11 266.00,325.00              251.58,324.83 232.60,319.49 220.00,312.56              215.07,309.86 210.56,307.15 206.00,303.85              204.19,302.53 200.11,299.16 198.04,298.90              194.73,298.48 191.32,303.73 189.41,306.00              189.41,306.00 172.25,326.00 172.25,326.00              169.17,329.73 165.88,332.33 170.11,336.54              170.11,336.54 177.00,341.87 177.00,341.87              192.79,353.69 210.88,361.77 230.00,366.53              230.00,366.53 248.00,369.71 248.00,369.71              252.67,370.30 254.67,369.48 259.00,372.00 Z" />
</svg>