<svg xmlns="http://www.w3.org/2000/svg" viewBox="-0.5 -0.5 1281 157.16">
  <path id="livescience-wordmark" fill="#303030" stroke="none" stroke-width="1"
    d="M 436.00,131.00            C 436.00,131.00 450.08,114.00 450.08,114.00              451.78,112.00 454.11,108.68 457.04,108.82              459.64,108.95 467.15,114.85 470.00,116.55              480.65,122.90 495.62,127.71 508.00,124.98              514.10,123.64 520.49,120.75 521.97,114.00              524.84,100.81 503.11,95.96 494.00,93.42              477.89,88.94 455.45,84.13 446.98,68.00              444.02,62.36 442.45,54.35 442.09,48.00              441.91,44.85 442.83,38.19 443.46,35.00              449.91,2.64 486.80,-3.33 514.00,1.61              524.23,3.47 534.12,7.20 543.00,12.61              545.40,14.08 550.65,17.02 550.89,20.09              551.08,22.47 548.06,26.07 546.72,28.00              546.72,28.00 535.00,45.00 535.00,45.00              524.51,41.13 514.33,31.49 497.00,30.18              489.33,29.60 478.02,33.32 476.62,42.00              475.72,47.60 479.46,51.67 484.00,54.20              491.77,58.52 502.43,60.81 511.00,63.15              528.97,68.07 548.98,75.35 554.79,95.00              556.43,100.54 556.06,107.20 556.00,113.00              555.75,133.62 541.20,148.18 522.00,153.36              501.33,158.93 479.42,155.79 460.00,147.42              452.02,143.98 441.35,137.85 436.00,131.00 Z            M 707.00,130.00            C 691.47,145.19 674.38,155.89 652.00,156.00              652.00,156.00 637.00,156.00 637.00,156.00              628.96,155.90 619.38,153.29 612.00,150.13              586.31,139.13 567.13,112.28 567.00,84.00              567.00,84.00 567.00,71.00 567.00,71.00              567.15,58.14 573.63,41.31 581.16,31.00              594.22,13.10 616.52,0.11 639.00,0.00              639.00,0.00 655.00,0.00 655.00,0.00              659.50,0.06 664.62,0.83 669.00,1.90              679.22,4.39 688.55,8.91 697.00,15.16              699.90,17.30 705.22,20.74 703.85,25.00              703.18,27.07 698.60,32.14 697.00,34.00              694.89,36.45 687.33,45.92 684.83,46.68              681.56,47.67 674.86,41.38 672.00,39.55              664.69,34.85 655.71,31.59 647.00,31.09              622.07,29.67 600.72,54.94 602.09,79.00              602.93,93.65 609.26,107.42 621.00,116.47              635.19,127.41 653.73,127.09 669.00,118.69              672.64,116.69 682.56,108.16 685.00,108.19              687.51,108.22 690.31,111.35 692.00,113.00              695.86,116.81 703.93,125.71 707.00,130.00 Z            M 1131.00,107.00            C 1131.00,107.00 1146.00,122.00 1146.00,122.00              1147.63,123.67 1150.80,126.51 1150.80,129.00              1150.80,132.39 1143.60,138.29 1141.00,140.33              1129.54,149.35 1113.71,155.82 1099.00,156.00              1099.00,156.00 1085.00,156.00 1085.00,156.00              1062.00,155.96 1038.55,143.00 1025.75,124.00              1005.05,93.28 1008.06,48.80 1034.09,22.04              1041.70,14.21 1051.83,8.25 1062.00,4.42              1069.63,1.56 1077.86,0.01 1086.00,0.00              1105.82,-0.03 1119.38,0.17 1137.00,11.23              1140.23,13.25 1150.51,19.92 1149.95,24.04              1149.63,26.35 1146.67,29.27 1145.15,31.00              1145.15,31.00 1134.83,42.98 1134.83,42.98              1133.34,44.54 1131.34,46.67 1129.00,46.67              1126.39,46.66 1119.67,40.80 1117.00,39.09              1110.25,34.76 1103.87,32.67 1096.00,31.44              1089.53,30.43 1083.08,31.50 1077.00,33.82              1055.93,41.83 1044.49,65.26 1048.81,87.00              1054.08,113.51 1077.33,130.39 1104.00,123.08              1116.23,119.73 1121.24,113.54 1131.00,107.00 Z            M 0.00,2.00            C 0.00,2.00 17.00,2.00 17.00,2.00              17.00,2.00 17.00,137.00 17.00,137.00              17.00,137.00 102.00,137.00 102.00,137.00              102.00,137.00 102.00,153.00 102.00,153.00              102.00,153.00 0.00,153.00 0.00,153.00              0.00,153.00 0.00,2.00 0.00,2.00 Z            M 119.00,2.00            C 119.00,2.00 137.00,2.00 137.00,2.00              137.00,2.00 137.00,153.00 137.00,153.00              137.00,153.00 119.00,153.00 119.00,153.00              119.00,153.00 119.00,2.00 119.00,2.00 Z            M 153.00,2.00            C 153.00,2.00 165.00,2.00 165.00,2.00              165.00,2.00 172.35,2.99 172.35,2.99              172.35,2.99 176.72,11.00 176.72,11.00              176.72,11.00 185.40,32.00 185.40,32.00              185.40,32.00 210.58,93.00 210.58,93.00              210.58,93.00 226.00,130.00 226.00,130.00              226.00,130.00 241.58,92.00 241.58,92.00              241.58,92.00 266.40,32.00 266.40,32.00              266.40,32.00 274.60,12.00 274.60,12.00              274.60,12.00 279.49,3.02 279.49,3.02              279.49,3.02 287.00,2.00 287.00,2.00              287.00,2.00 298.00,2.00 298.00,2.00              298.00,2.00 280.85,44.00 280.85,44.00              280.85,44.00 248.85,119.00 248.85,119.00              248.85,119.00 238.15,144.00 238.15,144.00              234.24,153.11 234.57,153.89 228.00,154.00              225.56,154.04 219.57,154.40 217.70,153.01              215.91,151.68 213.55,145.27 212.58,143.00              212.58,143.00 202.72,120.00 202.72,120.00              202.72,120.00 171.15,46.00 171.15,46.00              171.15,46.00 153.00,2.00 153.00,2.00 Z            M 315.00,2.00            C 315.00,2.00 425.00,2.00 425.00,2.00              425.00,2.00 425.00,18.00 425.00,18.00              425.00,18.00 333.00,18.00 333.00,18.00              333.00,18.00 333.00,69.00 333.00,69.00              333.00,69.00 415.00,69.00 415.00,69.00              415.00,69.00 415.00,85.00 415.00,85.00              415.00,85.00 333.00,85.00 333.00,85.00              333.00,85.00 333.00,137.00 333.00,137.00              333.00,137.00 426.00,137.00 426.00,137.00              426.00,137.00 426.00,153.00 426.00,153.00              426.00,153.00 315.00,153.00 315.00,153.00              315.00,153.00 315.00,2.00 315.00,2.00 Z            M 720.00,2.00            C 720.00,2.00 754.00,2.00 754.00,2.00              754.00,2.00 754.00,154.00 754.00,154.00              754.00,154.00 720.00,154.00 720.00,154.00              720.00,154.00 720.00,2.00 720.00,2.00 Z            M 864.00,2.00            C 864.00,2.00 888.00,2.00 888.00,2.00              888.00,2.00 895.83,3.02 895.83,3.02              895.83,3.02 912.87,24.00 912.87,24.00              912.87,24.00 966.00,94.00 966.00,94.00              966.00,94.00 966.00,2.00 966.00,2.00              966.00,2.00 999.00,2.00 999.00,2.00              999.00,2.00 999.00,154.00 999.00,154.00              999.00,154.00 978.00,154.00 978.00,154.00              978.00,154.00 970.17,152.98 970.17,152.98              970.17,152.98 963.12,145.00 963.12,145.00              963.12,145.00 952.37,131.00 952.37,131.00              952.37,131.00 921.88,91.00 921.88,91.00              921.88,91.00 898.00,60.00 898.00,60.00              898.00,60.00 898.00,154.00 898.00,154.00              898.00,154.00 864.00,154.00 864.00,154.00              864.00,154.00 864.00,124.00 864.00,124.00              864.00,124.00 785.00,124.00 785.00,124.00              785.00,124.00 785.00,92.00 785.00,92.00              785.00,92.00 864.00,92.00 864.00,92.00              864.00,92.00 864.00,63.00 864.00,63.00              864.00,63.00 785.00,63.00 785.00,63.00              785.00,63.00 785.00,32.00 785.00,32.00              785.00,32.00 864.00,32.00 864.00,32.00              864.00,32.00 864.00,2.00 864.00,2.00 Z            M 1165.00,2.00            C 1165.00,2.00 1280.00,2.00 1280.00,2.00              1280.00,2.00 1280.00,33.00 1280.00,33.00              1280.00,33.00 1199.00,33.00 1199.00,33.00              1199.00,33.00 1199.00,62.00 1199.00,62.00              1199.00,62.00 1278.00,62.00 1278.00,62.00              1278.00,62.00 1278.00,93.00 1278.00,93.00              1278.00,93.00 1199.00,93.00 1199.00,93.00              1199.00,93.00 1199.00,123.00 1199.00,123.00              1199.00,123.00 1280.00,123.00 1280.00,123.00              1280.00,123.00 1280.00,154.00 1280.00,154.00              1280.00,154.00 1165.00,154.00 1165.00,154.00              1165.00,154.00 1165.00,2.00 1165.00,2.00 Z" />
</svg>