<svg xmlns="http://www.w3.org/2000/svg" viewBox="-0.5 -0.5 2049 2049">
  <path id="manjaro" fill="#303030" stroke="none" stroke-width="1"
    d="M 0.00,0.00            C 0.00,0.00 1312.00,0.00 1312.00,0.00              1312.00,0.00 1312.00,576.00 1312.00,576.00              1312.00,576.00 576.00,576.00 576.00,576.00              576.00,576.00 576.00,2048.00 576.00,2048.00              576.00,2048.00 0.00,2048.00 0.00,2048.00              0.00,2048.00 0.00,0.00 0.00,0.00 Z            M 1472.00,0.00            C 1472.00,0.00 2048.00,0.00 2048.00,0.00              2048.00,0.00 2048.00,2048.00 2048.00,2048.00              2048.00,2048.00 1472.00,2048.00 1472.00,2048.00              1472.00,2048.00 1472.00,0.00 1472.00,0.00 Z            M 736.00,736.00            C 736.00,736.00 1312.00,736.00 1312.00,736.00              1312.00,736.00 1312.00,2048.00 1312.00,2048.00              1312.00,2048.00 736.00,2048.00 736.00,2048.00              736.00,2048.00 736.00,736.00 736.00,736.00 Z" />
</svg>