<svg xmlns="http://www.w3.org/2000/svg" viewBox="-0.5 -0.43 1281 788.93">
  <path id="markdown" fill="#303030" stroke="none" stroke-width="1"
    d="M 79.00,0.07            C 79.00,0.07 115.00,0.07 115.00,0.07              115.00,0.07 182.00,0.07 182.00,0.07              182.00,0.07 385.00,0.07 385.00,0.07              385.00,0.07 1007.00,0.07 1007.00,0.07              1007.00,0.07 1193.00,0.07 1193.00,0.07              1238.34,0.07 1279.93,41.66 1280.00,87.00              1280.00,87.00 1280.00,701.00 1280.00,701.00              1279.93,746.29 1238.29,787.93 1193.00,788.00              1193.00,788.00 275.00,788.00 275.00,788.00              275.00,788.00 87.00,788.00 87.00,788.00              42.53,787.93 0.07,746.71 0.00,702.00              0.00,702.00 0.00,172.00 0.00,172.00              0.00,172.00 0.00,116.00 0.00,116.00              0.00,116.00 0.00,86.00 0.00,86.00              0.04,62.24 12.91,38.93 30.00,23.09              34.73,18.70 43.26,12.79 49.00,9.78              58.65,4.74 68.33,2.17 79.00,0.07 Z            M 88.00,62.06            C 70.99,65.63 62.03,78.15 62.00,95.00              62.00,95.00 62.00,205.00 62.00,205.00              62.00,205.00 62.00,605.00 62.00,605.00              62.00,605.00 62.00,693.00 62.00,693.00              62.03,713.23 74.77,725.97 95.00,725.94              95.00,725.94 957.00,725.94 957.00,725.94              957.00,725.94 1158.00,725.94 1158.00,725.94              1158.00,725.94 1178.00,725.94 1178.00,725.94              1178.00,725.94 1192.00,725.94 1192.00,725.94              1203.28,724.03 1212.70,715.63 1216.45,705.00              1218.02,700.55 1217.99,697.59 1218.00,693.00              1218.00,693.00 1218.00,208.00 1218.00,208.00              1218.00,208.00 1218.00,95.00 1218.00,95.00              1217.97,74.77 1205.23,62.03 1185.00,62.06              1185.00,62.06 454.00,62.06 454.00,62.06              454.00,62.06 211.00,62.06 211.00,62.06              211.00,62.06 131.00,62.06 131.00,62.06              131.00,62.06 88.00,62.06 88.00,62.06 Z            M 184.00,184.00            C 184.00,184.00 300.00,184.00 300.00,184.00              311.28,184.02 311.98,188.48 318.80,197.00              318.80,197.00 338.80,222.00 338.80,222.00              338.80,222.00 400.40,299.00 400.40,299.00              406.67,306.84 425.81,332.17 432.00,337.00              434.51,331.44 439.00,326.75 442.80,322.00              442.80,322.00 462.00,298.00 462.00,298.00              462.00,298.00 525.20,219.00 525.20,219.00              525.20,219.00 543.60,196.00 543.60,196.00              550.11,187.86 550.39,184.02 561.00,184.00              561.00,184.00 677.00,184.00 677.00,184.00              677.00,184.00 677.00,604.00 677.00,604.00              677.00,604.00 553.00,604.00 553.00,604.00              553.00,604.00 553.00,366.00 553.00,366.00              553.00,366.00 519.20,408.00 519.20,408.00              519.20,408.00 470.42,469.00 470.42,469.00              470.42,469.00 445.80,500.00 445.80,500.00              445.80,500.00 430.00,518.00 430.00,518.00              430.00,518.00 397.40,477.00 397.40,477.00              397.40,477.00 335.00,399.00 335.00,399.00              335.00,399.00 308.00,365.00 308.00,365.00              308.00,365.00 308.00,604.00 308.00,604.00              308.00,604.00 184.00,604.00 184.00,604.00              184.00,604.00 184.00,184.00 184.00,184.00 Z            M 892.00,184.00            C 892.00,184.00 1016.00,184.00 1016.00,184.00              1016.00,184.00 1016.00,400.00 1016.00,400.00              1016.00,400.00 1139.00,400.00 1139.00,400.00              1139.00,400.00 1097.17,447.00 1097.17,447.00              1097.17,447.00 1002.83,551.00 1002.83,551.00              1002.83,551.00 972.83,584.00 972.83,584.00              972.83,584.00 955.00,604.00 955.00,604.00              948.87,601.04 940.86,590.34 935.91,585.00              935.91,585.00 898.72,544.00 898.72,544.00              898.72,544.00 872.17,515.00 872.17,515.00              872.17,515.00 807.83,444.00 807.83,444.00              807.83,444.00 785.97,420.00 785.97,420.00              781.36,415.12 771.91,405.42 769.00,400.00              769.00,400.00 892.00,400.00 892.00,400.00              892.00,400.00 892.00,184.00 892.00,184.00 Z" />
</svg>