<svg xmlns="http://www.w3.org/2000/svg" viewBox="61.5 61.6 1157 664.84">
  <path id="Selection" fill="#303030" stroke="none" stroke-width="1" d="M 87.00,62.10            C 87.00,62.10 121.00,62.10 121.00,62.10              121.00,62.10 183.00,62.10 183.00,62.10              183.00,62.10 373.00,62.10 373.00,62.10              373.00,62.10 956.00,62.10 956.00,62.10              956.00,62.10 1157.00,62.10 1157.00,62.10              1157.00,62.10 1177.00,62.10 1177.00,62.10              1177.00,62.10 1192.00,62.10 1192.00,62.10              1203.68,63.98 1213.14,71.58 1216.56,83.00              1217.99,87.77 1217.99,90.14 1218.00,95.00              1218.00,95.00 1218.00,580.00 1218.00,580.00              1218.00,580.00 1218.00,693.00 1218.00,693.00              1217.97,713.98 1205.98,725.97 1185.00,725.94              1185.00,725.94 323.00,725.94 323.00,725.94              323.00,725.94 123.00,725.94 123.00,725.94              123.00,725.94 103.00,725.94 103.00,725.94              103.00,725.94 88.00,725.94 88.00,725.94              76.32,724.02 66.86,716.42 63.44,705.00              62.01,700.23 62.01,697.86 62.00,693.00              62.00,693.00 62.00,212.00 62.00,212.00              62.00,212.00 62.00,95.00 62.00,95.00              62.03,77.77 69.68,66.32 87.00,62.10 Z            M 430.00,338.00            C 427.49,332.44 423.00,327.75 419.20,323.00              419.20,323.00 399.20,298.00 399.20,298.00              399.20,298.00 336.00,219.00 336.00,219.00              336.00,219.00 318.40,197.00 318.40,197.00              311.61,188.51 311.02,184.02 300.00,184.00              300.00,184.00 184.00,184.00 184.00,184.00              184.00,184.00 184.00,604.00 184.00,604.00              184.00,604.00 308.00,604.00 308.00,604.00              308.00,604.00 308.00,365.00 308.00,365.00              308.00,365.00 339.40,404.00 339.40,404.00              339.40,404.00 394.60,473.00 394.60,473.00              394.60,473.00 418.60,503.00 418.60,503.00              422.56,507.95 426.21,514.13 432.00,517.00              432.00,517.00 455.80,487.00 455.80,487.00              455.80,487.00 499.00,433.00 499.00,433.00              499.00,433.00 532.60,391.00 532.60,391.00              532.60,391.00 553.00,366.00 553.00,366.00              553.00,366.00 553.00,549.00 553.00,549.00              553.00,549.00 553.00,597.00 553.00,597.00              553.14,604.49 555.26,603.99 562.00,604.00              562.00,604.00 677.00,604.00 677.00,604.00              677.00,604.00 677.00,184.00 677.00,184.00              677.00,184.00 561.00,184.00 561.00,184.00              550.54,184.02 550.27,187.91 543.80,196.00              543.80,196.00 523.00,222.00 523.00,222.00              523.00,222.00 473.42,284.00 473.42,284.00              473.42,284.00 430.00,338.00 430.00,338.00 Z            M 1016.00,184.00            C 1016.00,184.00 892.00,184.00 892.00,184.00              892.00,184.00 892.00,400.00 892.00,400.00              892.00,400.00 769.00,400.00 769.00,400.00              774.35,407.71 784.28,417.85 790.91,425.00              790.91,425.00 821.83,459.00 821.83,459.00              821.83,459.00 880.83,524.00 880.83,524.00              880.83,524.00 908.00,554.00 908.00,554.00              908.00,554.00 940.83,590.00 940.83,590.00              943.41,592.86 950.17,601.80 954.00,601.80              957.53,601.80 964.39,592.74 967.00,590.00              967.00,590.00 1001.58,552.00 1001.58,552.00              1001.58,552.00 1029.83,521.00 1029.83,521.00              1029.83,521.00 1093.17,451.00 1093.17,451.00              1093.17,451.00 1139.00,400.00 1139.00,400.00              1139.00,400.00 1016.00,400.00 1016.00,400.00              1016.00,400.00 1016.00,184.00 1016.00,184.00 Z"/>
</svg>