<svg xmlns="http://www.w3.org/2000/svg" viewBox="-0.64 -0.5 954.14 1025">
  <path id="Selection" fill="#303030" stroke="none" stroke-width="1" d="M 656.00,897.00            C 656.00,897.00 656.00,911.00 656.00,911.00              656.00,911.00 657.00,926.00 657.00,926.00              657.00,926.00 658.00,956.00 658.00,956.00              658.00,956.00 659.00,970.00 659.00,970.00              659.03,972.82 659.41,979.36 657.98,981.61              656.44,984.02 651.61,985.88 649.00,987.00              649.00,987.00 629.00,994.81 629.00,994.81              600.25,1005.70 561.56,1013.86 531.00,1018.27              531.00,1018.27 482.00,1023.09 482.00,1023.09              482.00,1023.09 470.00,1024.00 470.00,1024.00              470.00,1024.00 442.00,1024.00 442.00,1024.00              442.00,1024.00 412.00,1024.00 412.00,1024.00              412.00,1024.00 399.00,1023.04 399.00,1023.04              363.43,1021.49 327.93,1016.39 293.00,1009.40              256.67,1002.13 218.30,993.38 185.00,976.73              169.11,968.79 154.06,958.94 140.00,948.11              68.63,893.17 36.65,803.22 19.60,718.00              14.84,694.21 11.24,670.12 8.83,646.00              8.83,646.00 3.91,588.00 3.91,588.00              3.91,588.00 2.00,559.00 2.00,559.00              2.00,559.00 1.00,539.00 1.00,539.00              1.00,539.00 1.00,522.00 1.00,522.00              1.00,522.00 0.00,507.00 0.00,507.00              0.00,507.00 0.00,384.00 0.00,384.00              0.00,351.64 -0.95,319.20 2.17,287.00              8.98,216.68 34.53,150.97 81.84,98.00              96.64,81.42 113.94,66.72 133.00,55.20              162.41,37.44 205.28,26.94 239.00,20.20              281.30,11.74 324.05,6.85 367.00,3.91              367.00,3.91 398.00,2.00 398.00,2.00              398.00,2.00 411.00,0.96 411.00,0.96              411.00,0.96 425.00,0.96 425.00,0.96              425.00,0.96 437.00,0.00 437.00,0.00              437.00,0.00 518.00,0.00 518.00,0.00              518.00,0.00 530.00,0.96 530.00,0.96              530.00,0.96 545.00,0.96 545.00,0.96              545.00,0.96 558.00,2.00 558.00,2.00              558.00,2.00 588.00,3.91 588.00,3.91              623.22,6.32 658.12,10.15 693.00,15.92              731.06,22.22 788.22,34.78 821.00,54.45              875.73,87.29 915.37,145.13 935.33,205.00              942.79,227.38 952.96,269.85 953.00,293.00              953.00,293.00 953.00,444.00 953.00,444.00              953.00,444.00 952.00,459.00 952.00,459.00              952.00,459.00 952.00,463.00 952.00,463.00              952.00,463.00 950.09,489.00 950.09,489.00              950.09,489.00 946.17,535.00 946.17,535.00              946.17,535.00 938.41,595.00 938.41,595.00              935.11,614.70 933.47,626.96 923.69,645.00              911.98,666.60 894.69,684.73 876.00,700.41              838.06,732.24 790.45,754.90 743.00,768.42              706.31,778.88 672.69,782.40 635.00,786.17              635.00,786.17 600.00,790.00 600.00,790.00              600.00,790.00 592.00,790.00 592.00,790.00              592.00,790.00 570.00,792.00 570.00,792.00              570.00,792.00 557.00,792.96 557.00,792.96              557.00,792.96 544.00,792.96 544.00,792.96              544.00,792.96 528.00,794.00 528.00,794.00              528.00,794.00 497.00,794.00 497.00,794.00              497.00,794.00 485.00,793.04 485.00,793.04              485.00,793.04 473.00,793.04 473.00,793.04              473.00,793.04 463.00,792.00 463.00,792.00              463.00,792.00 454.00,792.00 454.00,792.00              454.00,792.00 423.00,789.17 423.00,789.17              382.70,785.27 342.83,779.86 303.00,772.39              303.00,772.39 273.00,766.00 273.00,766.00              273.00,766.00 273.00,777.00 273.00,777.00              273.02,787.78 276.10,807.46 278.88,818.00              281.52,828.01 286.34,841.14 291.60,850.00              321.69,900.60 376.28,913.26 431.00,917.09              431.00,917.09 463.00,919.00 463.00,919.00              463.00,919.00 479.00,920.00 479.00,920.00              479.00,920.00 511.00,920.00 511.00,920.00              511.00,920.00 528.00,919.00 528.00,919.00              528.00,919.00 584.00,912.58 584.00,912.58              584.00,912.58 627.00,904.12 627.00,904.12              627.00,904.12 656.00,897.00 656.00,897.00 Z            M 477.00,280.00            C 477.00,280.00 461.60,253.00 461.60,253.00              444.26,224.08 431.78,205.89 401.00,189.31              378.15,177.00 348.68,172.70 323.00,173.00              323.00,173.00 313.00,173.91 313.00,173.91              259.71,177.81 217.28,205.44 192.32,253.00              168.28,298.81 171.00,350.98 171.00,401.00              171.00,401.00 171.00,623.00 171.00,623.00              171.00,623.00 253.00,623.00 253.00,623.00              253.00,623.00 272.00,623.00 272.00,623.00              273.95,622.96 276.63,623.10 277.98,621.40              279.23,619.81 279.00,615.99 279.00,614.00              279.00,614.00 279.00,352.00 279.00,352.00              279.04,328.06 288.97,299.44 311.00,287.31              325.21,279.49 337.28,278.82 353.00,279.00              389.37,279.43 412.30,304.11 420.11,338.00              425.52,361.46 424.00,387.00 424.00,411.00              424.00,411.00 424.00,520.00 424.00,520.00              424.00,520.00 531.00,520.00 531.00,520.00              531.00,520.00 531.00,394.00 531.00,394.00              531.00,364.26 529.94,334.07 547.08,308.00              554.74,296.34 565.01,288.45 578.00,283.46              599.25,275.30 633.07,277.39 651.00,292.32              668.79,307.14 675.96,331.45 676.00,354.00              676.00,354.00 676.00,623.00 676.00,623.00              676.00,623.00 758.00,623.00 758.00,623.00              758.00,623.00 777.00,623.00 777.00,623.00              778.95,622.96 781.63,623.10 782.98,621.40              784.23,619.81 784.00,615.99 784.00,614.00              784.00,614.00 784.00,449.00 784.00,449.00              784.00,449.00 784.00,354.00 784.00,354.00              784.00,354.00 783.00,339.00 783.00,339.00              783.00,339.00 783.00,334.00 783.00,334.00              783.00,334.00 781.13,316.00 781.13,316.00              775.71,276.95 761.43,239.50 732.00,212.09              701.79,183.95 664.55,172.94 624.00,173.00              603.84,173.03 578.35,177.90 560.00,186.31              539.95,195.49 523.11,209.38 509.89,227.00              509.89,227.00 477.00,280.00 477.00,280.00 Z"/>
</svg>