<svg xmlns="http://www.w3.org/2000/svg" viewBox="9.5 55.48 2021.03 1993.23">
  <path id="mathjax-wordmark" fill="#303030" stroke="none" stroke-width="1"
    d="M 557.00,1117.00            C 543.51,1119.54 529.79,1122.83 516.00,1123.00              494.44,1123.25 464.89,1121.60 456.75,1097.00              455.41,1092.95 455.05,1090.23 455.00,1086.00              454.82,1070.03 462.41,1057.04 471.00,1044.00              483.81,1024.58 498.51,1006.69 513.58,989.00              569.20,923.69 659.11,837.61 723.00,778.09              723.00,778.09 783.00,723.28 783.00,723.28              783.00,723.28 800.00,708.07 800.00,708.07              802.01,706.24 805.52,703.70 806.08,700.96              806.56,698.58 804.51,694.29 803.60,692.00              803.60,692.00 794.42,671.00 794.42,671.00              782.19,642.94 759.77,606.99 741.86,582.00              718.90,549.96 679.84,501.21 649.00,477.90              636.05,468.11 621.73,460.07 607.00,453.31              574.31,438.30 528.21,426.68 493.00,417.15              493.00,417.15 449.00,404.95 449.00,404.95              413.40,391.89 377.60,367.28 357.05,335.00              349.75,323.52 344.66,313.95 340.33,301.00              335.55,286.69 332.02,271.15 332.00,256.00              332.00,256.00 332.00,245.00 332.00,245.00              332.07,200.80 356.41,154.52 383.61,121.00              406.48,92.81 435.05,68.42 471.00,59.47              483.27,56.42 494.45,55.86 507.00,56.00              526.26,56.23 549.36,63.33 567.00,70.85              599.81,84.83 633.89,107.32 656.54,135.00              695.59,182.72 710.94,253.61 741.86,309.00              767.28,354.53 799.48,382.88 841.00,413.15              871.37,435.30 906.79,456.49 943.00,467.28              956.00,471.15 968.59,472.89 982.00,474.17              982.00,474.17 989.00,474.92 989.00,474.92              989.00,474.92 997.00,474.09 997.00,474.09              1036.35,471.34 1068.93,451.19 1090.31,418.00              1113.44,382.08 1117.46,332.26 1126.00,291.00              1131.89,262.53 1139.54,234.27 1152.26,208.00              1171.85,167.55 1205.93,132.23 1248.00,115.40              1267.06,107.78 1287.47,103.76 1308.00,104.00              1333.80,104.31 1360.79,113.87 1383.00,126.58              1420.48,148.02 1448.69,174.88 1471.00,212.00              1481.56,229.57 1494.75,257.27 1495.00,278.00              1495.00,278.00 1495.00,289.00 1495.00,289.00              1494.94,325.02 1469.58,363.60 1445.91,389.00              1445.91,389.00 1416.00,417.00 1416.00,417.00              1457.73,403.09 1513.11,382.93 1557.00,383.00              1562.72,383.01 1568.54,383.53 1574.00,385.36              1578.92,387.01 1582.30,389.30 1585.91,393.04              1604.54,412.32 1591.34,432.82 1577.79,450.00              1577.79,450.00 1559.91,471.00 1559.91,471.00              1559.91,471.00 1506.04,526.00 1506.04,526.00              1506.04,526.00 1375.91,663.00 1375.91,663.00              1375.91,663.00 1330.83,711.00 1330.83,711.00              1330.83,711.00 1275.83,770.00 1275.83,770.00              1275.83,770.00 1263.58,783.00 1263.58,783.00              1263.58,783.00 1247.97,800.00 1247.97,800.00              1245.84,802.30 1243.01,804.53 1243.87,808.00              1244.46,810.39 1250.55,818.55 1252.29,821.00              1252.29,821.00 1272.92,848.00 1272.92,848.00              1302.11,882.98 1335.73,916.67 1374.00,941.66              1426.03,975.63 1487.95,991.03 1548.00,1003.79              1571.24,1008.73 1607.70,1016.15 1629.00,1024.60              1641.81,1029.68 1653.94,1035.33 1664.00,1045.04              1672.32,1053.08 1683.38,1069.06 1690.00,1079.00              1709.35,1108.04 1724.98,1140.35 1730.75,1175.00              1730.75,1175.00 1733.00,1194.00 1733.00,1194.00              1733.23,1213.74 1733.25,1226.54 1728.12,1246.00              1713.97,1299.63 1674.78,1338.16 1630.00,1368.00              1594.51,1391.65 1557.23,1407.50 1514.00,1407.00              1494.03,1406.76 1472.25,1400.69 1454.00,1392.85              1442.67,1387.98 1433.45,1382.93 1423.00,1376.42              1400.08,1362.15 1388.25,1350.95 1375.31,1327.00              1367.20,1312.00 1361.06,1292.35 1355.98,1276.00              1348.73,1252.69 1341.18,1229.46 1331.57,1207.00              1304.77,1144.34 1264.14,1101.69 1215.00,1055.91              1215.00,1055.91 1202.00,1043.09 1202.00,1043.09              1202.00,1043.09 1144.00,992.20 1144.00,992.20              1117.27,970.82 1076.68,939.57 1041.00,940.00              1015.28,940.31 999.77,970.91 989.75,991.00              974.85,1020.88 964.70,1059.01 959.58,1092.00              957.78,1103.58 955.02,1122.65 955.00,1134.00              955.00,1134.00 955.00,1158.00 955.00,1158.00              955.00,1158.00 954.00,1178.00 954.00,1178.00              954.00,1178.00 952.15,1197.00 952.15,1197.00              948.06,1231.27 937.48,1268.02 922.24,1299.00              903.99,1336.13 873.18,1378.54 835.00,1396.68              814.92,1406.22 805.02,1406.45 784.00,1409.42              784.00,1409.42 732.00,1415.00 732.00,1415.00              732.00,1415.00 708.00,1415.00 708.00,1415.00              701.33,1414.99 694.60,1414.05 688.00,1413.13              639.59,1406.39 602.33,1380.26 568.00,1347.04              549.39,1329.03 533.41,1313.00 524.69,1288.00              510.68,1247.82 520.64,1196.51 536.00,1158.00              541.12,1145.16 548.69,1127.86 557.00,1117.00 Z            M 520.00,89.29            C 514.42,90.21 509.11,91.25 504.00,93.81              500.26,95.68 496.99,97.99 494.10,101.04              489.10,106.31 487.08,111.83 487.00,119.00              486.81,137.37 496.95,145.27 509.00,157.01              516.11,163.94 528.29,176.86 539.00,175.80              544.30,175.28 550.52,171.37 555.00,168.58              567.18,160.98 588.28,144.50 588.96,129.00              589.47,117.30 583.56,112.10 574.00,106.58              563.45,100.49 548.83,94.66 537.00,91.63              531.09,90.12 526.15,88.76 520.00,89.29 Z            M 1340.00,148.28            C 1327.63,150.06 1316.39,150.91 1307.33,161.09              1298.92,170.53 1299.00,180.31 1299.00,192.00              1299.00,197.15 1298.83,200.82 1299.58,206.00              1300.38,211.53 1301.10,217.60 1305.22,221.79              1310.69,227.35 1329.16,229.90 1337.00,230.00              1351.29,230.16 1361.47,229.39 1373.00,219.68              1383.94,210.45 1389.07,197.03 1389.00,183.00              1388.98,179.53 1389.05,177.29 1387.64,174.00              1383.84,165.21 1367.23,152.27 1358.00,149.63              1354.23,148.56 1344.08,147.91 1340.00,148.28 Z            M 1547.00,407.00            C 1541.03,407.62 1535.61,410.31 1530.00,412.31              1530.00,412.31 1502.00,422.58 1502.00,422.58              1502.00,422.58 1415.00,455.19 1415.00,455.19              1415.00,455.19 1283.00,505.42 1283.00,505.42              1283.00,505.42 1153.00,555.58 1153.00,555.58              1153.00,555.58 1049.00,596.72 1049.00,596.72              1036.10,602.27 1013.73,610.42 1004.18,620.17              1002.82,621.57 1001.48,623.27 1000.57,625.00              991.94,641.43 1018.13,649.94 1030.00,650.00              1030.00,650.00 1034.00,650.00 1034.00,650.00              1047.69,649.81 1048.75,642.26 1054.31,632.00              1057.98,625.23 1062.41,618.41 1068.01,613.09              1083.35,598.51 1114.75,589.43 1135.00,581.40              1135.00,581.40 1242.00,540.19 1242.00,540.19              1242.00,540.19 1438.00,462.80 1438.00,462.80              1438.00,462.80 1512.00,431.86 1512.00,431.86              1518.25,429.10 1536.53,421.48 1540.73,417.47              1542.97,415.34 1545.46,409.93 1547.00,407.00 Z            M 746.23,554.64            C 742.15,557.50 742.64,561.63 744.10,566.00              746.51,573.17 752.49,579.17 757.20,585.00              768.56,599.09 777.47,613.72 787.05,629.00              787.05,629.00 814.75,676.00 814.75,676.00              829.16,704.63 844.62,744.67 845.00,777.00              845.00,777.00 845.00,784.00 845.00,784.00              844.78,802.81 830.26,822.79 819.00,837.00              819.00,837.00 756.28,907.00 756.28,907.00              748.66,915.65 734.47,931.54 730.47,942.00              728.79,946.38 727.66,958.63 736.00,955.96              738.52,955.15 750.05,946.08 753.00,943.87              753.00,943.87 793.00,912.61 793.00,912.61              809.23,899.42 825.21,885.79 840.00,871.00              848.17,862.83 856.54,854.71 862.92,845.00              869.00,835.75 872.38,823.65 875.42,813.00              879.35,799.23 881.12,788.22 882.09,774.00              882.30,770.85 882.92,769.31 882.68,766.00              882.68,766.00 880.19,743.00 880.19,743.00              875.83,721.20 860.38,687.31 850.25,667.00              832.78,631.98 810.67,602.79 782.00,576.09              776.49,570.95 765.44,562.27 759.00,558.45              754.91,556.03 751.05,553.94 746.23,554.64 Z            M 801.00,735.00            C 801.00,735.00 777.00,756.83 777.00,756.83              777.00,756.83 724.00,805.83 724.00,805.83              724.00,805.83 665.00,859.83 665.00,859.83              665.00,859.83 613.04,909.00 613.04,909.00              613.04,909.00 563.73,965.00 563.73,965.00              563.73,965.00 510.41,1028.00 510.41,1028.00              504.78,1034.77 489.13,1052.26 486.00,1059.00              496.33,1051.61 511.62,1033.63 521.01,1024.00              521.01,1024.00 566.96,977.00 566.96,977.00              566.96,977.00 601.00,942.04 601.00,942.04              601.00,942.04 647.00,899.17 647.00,899.17              647.00,899.17 676.00,872.96 676.00,872.96              700.92,849.12 724.12,823.61 747.17,798.00              747.17,798.00 783.28,757.00 783.28,757.00              788.22,751.31 798.03,741.33 801.00,735.00 Z            M 1381.00,981.29            C 1376.72,982.01 1372.61,982.87 1369.10,985.64              1359.98,992.84 1363.30,1007.42 1368.48,1016.00              1373.52,1024.35 1384.03,1031.71 1392.00,1037.28              1438.93,1070.08 1526.54,1110.67 1580.00,1138.26              1594.12,1145.54 1607.39,1154.50 1620.00,1164.12              1624.70,1167.70 1631.71,1174.18 1638.00,1172.57              1641.18,1171.75 1643.67,1169.33 1645.83,1166.98              1653.06,1159.12 1654.74,1153.04 1650.94,1143.00              1644.34,1125.60 1620.32,1104.99 1606.00,1093.08              1606.00,1093.08 1561.00,1058.51 1561.00,1058.51              1531.09,1038.56 1485.28,1015.15 1452.00,1001.00              1432.20,992.58 1402.55,979.25 1381.00,981.29 Z            M 486.00,1059.00            C 486.00,1059.00 485.00,1059.00 485.00,1059.00              485.00,1059.00 486.00,1060.00 486.00,1060.00              486.00,1060.00 486.00,1059.00 486.00,1059.00 Z            M 485.00,1060.00            C 485.00,1060.00 484.00,1060.00 484.00,1060.00              484.00,1060.00 485.00,1061.00 485.00,1061.00              485.00,1061.00 485.00,1060.00 485.00,1060.00 Z            M 484.00,1061.00            C 484.00,1061.00 483.00,1061.00 483.00,1061.00              483.00,1061.00 484.00,1062.00 484.00,1062.00              484.00,1062.00 484.00,1061.00 484.00,1061.00 Z            M 483.00,1062.00            C 483.00,1062.00 482.00,1062.00 482.00,1062.00              482.00,1062.00 483.00,1063.00 483.00,1063.00              483.00,1063.00 483.00,1062.00 483.00,1062.00 Z            M 612.65,1097.32            C 606.60,1096.35 600.53,1101.10 596.00,1104.67              584.64,1113.60 572.82,1128.74 565.05,1141.00              549.29,1165.88 546.22,1182.20 544.96,1211.00              544.96,1211.00 544.04,1219.00 544.04,1219.00              544.04,1219.00 544.04,1237.00 544.04,1237.00              544.04,1237.00 544.91,1249.00 544.91,1249.00              546.65,1273.85 552.50,1300.74 569.44,1319.96              579.18,1331.02 601.25,1340.89 616.00,1341.91              633.63,1343.14 641.97,1331.84 639.25,1315.00              638.47,1310.22 637.42,1305.48 635.54,1301.00              635.54,1301.00 613.01,1266.00 613.01,1266.00              599.32,1242.74 597.96,1237.88 589.67,1213.00              585.75,1201.26 582.02,1190.53 582.00,1178.00              582.00,1178.00 582.00,1171.00 582.00,1171.00              582.23,1151.85 596.03,1132.87 605.60,1117.00              607.74,1113.46 615.01,1103.08 614.08,1099.18              613.71,1097.66 612.87,1097.55 612.65,1097.32 Z            M 936.00,1469.00            C 936.00,1469.00 1033.00,1469.00 1033.00,1469.00              1033.00,1469.00 1033.00,1566.00 1033.00,1566.00              1033.00,1566.00 1033.00,1595.00 1033.00,1595.00              1033.00,1595.00 1034.00,1613.00 1034.00,1613.00              1039.73,1602.33 1055.04,1592.63 1066.00,1587.73              1082.96,1580.14 1093.93,1579.79 1112.00,1580.00              1140.04,1580.33 1164.70,1595.35 1179.19,1619.00              1189.46,1635.76 1193.98,1656.60 1195.96,1676.00              1195.96,1676.00 1195.96,1685.00 1195.96,1685.00              1195.96,1685.00 1197.00,1697.00 1197.00,1697.00              1197.00,1697.00 1197.00,1755.00 1197.00,1755.00              1197.00,1755.00 1197.00,1811.00 1197.00,1811.00              1197.00,1823.33 1197.61,1835.77 1196.00,1848.00              1196.00,1848.00 1100.00,1848.00 1100.00,1848.00              1100.00,1848.00 1100.00,1741.00 1100.00,1741.00              1100.00,1724.94 1101.07,1695.39 1095.91,1681.00              1094.28,1676.46 1091.14,1670.58 1087.82,1667.09              1074.25,1652.86 1052.08,1656.11 1040.39,1671.00              1034.73,1678.21 1033.01,1686.06 1033.00,1695.00              1033.00,1695.00 1033.00,1793.00 1033.00,1793.00              1033.00,1793.00 1032.00,1848.00 1032.00,1848.00              1032.00,1848.00 936.00,1848.00 936.00,1848.00              936.00,1848.00 936.00,1469.00 936.00,1469.00 Z            M 32.00,1488.00            C 32.00,1488.00 154.00,1488.00 154.00,1488.00              154.00,1488.00 162.07,1489.60 162.07,1489.60              162.07,1489.60 166.37,1504.00 166.37,1504.00              166.37,1504.00 175.63,1541.00 175.63,1541.00              175.63,1541.00 204.20,1664.00 204.20,1664.00              204.20,1664.00 214.00,1717.00 214.00,1717.00              214.00,1717.00 216.00,1717.00 216.00,1717.00              216.00,1717.00 219.79,1698.00 219.79,1698.00              219.79,1698.00 229.63,1656.00 229.63,1656.00              229.63,1656.00 260.29,1540.00 260.29,1540.00              260.29,1540.00 270.29,1504.00 270.29,1504.00              270.29,1504.00 274.93,1489.60 274.93,1489.60              274.93,1489.60 283.00,1488.00 283.00,1488.00              283.00,1488.00 374.00,1488.00 374.00,1488.00              374.00,1488.00 396.00,1488.00 396.00,1488.00              396.00,1488.00 401.98,1489.60 401.98,1489.60              401.98,1489.60 403.00,1499.00 403.00,1499.00              403.00,1499.00 404.00,1517.00 404.00,1517.00              404.00,1517.00 405.00,1534.00 405.00,1534.00              405.00,1534.00 406.00,1552.00 406.00,1552.00              406.00,1552.00 407.00,1578.00 407.00,1578.00              407.00,1578.00 408.00,1591.00 408.00,1591.00              408.00,1591.00 409.00,1617.00 409.00,1617.00              409.00,1617.00 410.00,1633.00 410.00,1633.00              410.00,1633.00 411.00,1651.00 411.00,1651.00              411.00,1651.00 412.00,1677.00 412.00,1677.00              412.00,1677.00 413.00,1690.00 413.00,1690.00              413.00,1690.00 414.00,1717.00 414.00,1717.00              414.00,1717.00 415.00,1730.00 415.00,1730.00              415.00,1730.00 416.00,1757.00 416.00,1757.00              416.00,1757.00 417.00,1775.00 417.00,1775.00              417.00,1775.00 418.00,1792.00 418.00,1792.00              418.00,1792.00 419.00,1810.00 419.00,1810.00              419.00,1810.00 419.98,1840.00 419.98,1840.00              419.98,1840.00 419.98,1861.00 419.98,1861.00              419.98,1861.00 419.00,1876.00 419.00,1876.00              419.00,1876.00 418.09,1886.00 418.09,1886.00              418.09,1886.00 417.00,1909.00 417.00,1909.00              417.00,1909.00 416.00,1922.00 416.00,1922.00              416.00,1922.00 414.00,1959.00 414.00,1959.00              414.00,1959.00 413.00,1969.00 413.00,1969.00              413.00,1969.00 413.00,1979.00 413.00,1979.00              413.00,1979.00 412.00,1993.00 412.00,1993.00              412.00,1993.00 411.00,2003.00 411.00,2003.00              411.00,2003.00 411.00,2012.00 411.00,2012.00              411.00,2012.00 409.00,2048.00 409.00,2048.00              409.00,2048.00 320.00,2048.00 320.00,2048.00              320.00,2048.00 320.00,2003.00 320.00,2003.00              320.00,2003.00 321.00,1987.00 321.00,1987.00              321.00,1987.00 321.00,1964.00 321.00,1964.00              321.00,1964.00 322.00,1948.00 322.00,1948.00              322.00,1948.00 323.00,1910.00 323.00,1910.00              323.00,1910.00 324.04,1897.00 324.04,1897.00              324.04,1897.00 324.04,1882.00 324.04,1882.00              324.04,1882.00 325.00,1870.00 325.00,1870.00              325.00,1870.00 326.00,1849.00 326.00,1849.00              326.00,1849.00 388.00,1849.00 388.00,1849.00              388.00,1849.00 420.00,1848.00 420.00,1848.00              420.00,1848.00 326.00,1848.00 326.00,1848.00              326.00,1848.00 325.00,1829.00 325.00,1829.00              325.00,1829.00 324.00,1786.00 324.00,1786.00              324.00,1786.00 323.00,1770.00 323.00,1770.00              323.00,1770.00 323.00,1755.00 323.00,1755.00              323.00,1755.00 322.00,1739.00 322.00,1739.00              322.00,1739.00 322.00,1723.00 322.00,1723.00              322.00,1723.00 321.00,1707.00 321.00,1707.00              321.00,1707.00 321.00,1678.00 321.00,1678.00              321.00,1678.00 320.00,1661.00 320.00,1661.00              320.00,1661.00 320.00,1604.00 320.00,1604.00              320.00,1604.00 319.00,1575.00 319.00,1575.00              319.00,1575.00 313.37,1600.00 313.37,1600.00              313.37,1600.00 301.88,1644.00 301.88,1644.00              301.88,1644.00 262.58,1783.00 262.58,1783.00              262.58,1783.00 246.00,1842.00 246.00,1842.00              246.00,1842.00 178.00,1842.00 178.00,1842.00              175.92,1842.00 172.26,1842.23 170.56,1840.98              168.23,1839.26 166.41,1829.15 165.63,1826.00              165.63,1826.00 154.63,1781.00 154.63,1781.00              144.06,1738.55 133.78,1695.90 125.20,1653.00              125.20,1653.00 116.42,1608.00 116.42,1608.00              116.42,1608.00 111.00,1579.00 111.00,1579.00              111.00,1579.00 110.00,1598.00 110.00,1598.00              110.00,1598.00 109.04,1610.00 109.04,1610.00              109.04,1610.00 109.04,1622.00 109.04,1622.00              109.04,1622.00 108.00,1639.00 108.00,1639.00              108.00,1639.00 107.00,1674.00 107.00,1674.00              107.00,1674.00 106.00,1688.00 106.00,1688.00              106.00,1688.00 105.00,1721.00 105.00,1721.00              105.00,1721.00 103.96,1738.00 103.96,1738.00              103.96,1738.00 103.96,1750.00 103.96,1750.00              103.96,1750.00 103.00,1762.00 103.00,1762.00              103.00,1762.00 102.00,1795.00 102.00,1795.00              102.00,1795.00 100.96,1808.00 100.96,1808.00              100.96,1808.00 100.96,1823.00 100.96,1823.00              100.96,1823.00 100.00,1834.00 100.00,1834.00              100.00,1834.00 99.00,1848.00 99.00,1848.00              99.00,1848.00 41.00,1848.00 41.00,1848.00              41.00,1848.00 10.00,1849.00 10.00,1849.00              10.00,1849.00 12.09,1810.00 12.09,1810.00              12.09,1810.00 14.00,1784.00 14.00,1784.00              14.00,1784.00 15.00,1770.00 15.00,1770.00              15.00,1770.00 15.00,1761.00 15.00,1761.00              15.00,1761.00 16.00,1748.00 16.00,1748.00              16.00,1748.00 16.91,1737.00 16.91,1737.00              16.91,1737.00 18.00,1714.00 18.00,1714.00              18.00,1714.00 20.00,1688.00 20.00,1688.00              20.00,1688.00 20.00,1679.00 20.00,1679.00              20.00,1679.00 21.00,1666.00 21.00,1666.00              21.00,1666.00 21.91,1655.00 21.91,1655.00              21.91,1655.00 23.00,1632.00 23.00,1632.00              23.00,1632.00 23.91,1622.00 23.91,1622.00              23.91,1622.00 25.00,1599.00 25.00,1599.00              25.00,1599.00 25.91,1589.00 25.91,1589.00              25.91,1589.00 27.00,1566.00 27.00,1566.00              27.00,1566.00 27.96,1555.00 27.96,1555.00              27.96,1555.00 29.09,1531.00 29.09,1531.00              29.09,1531.00 30.00,1520.00 30.00,1520.00              30.00,1520.00 32.00,1488.00 32.00,1488.00 Z            M 1327.00,1488.00            C 1327.00,1488.00 1425.00,1488.00 1425.00,1488.00              1425.00,1488.00 1425.00,1672.00 1425.00,1672.00              1425.00,1723.27 1429.12,1785.49 1388.00,1823.91              1375.13,1835.94 1366.16,1838.95 1351.00,1846.00              1364.04,1850.35 1374.86,1854.46 1386.00,1862.90              1411.10,1881.91 1421.65,1910.61 1424.08,1941.00              1424.08,1941.00 1425.00,1953.00 1425.00,1953.00              1425.00,1953.00 1425.00,1983.00 1425.00,1983.00              1425.00,1983.00 1425.00,2048.00 1425.00,2048.00              1425.00,2048.00 1327.00,2048.00 1327.00,2048.00              1327.00,2048.00 1327.00,1952.00 1327.00,1952.00              1326.82,1937.22 1320.57,1922.45 1308.00,1914.10              1295.93,1906.09 1280.85,1906.84 1267.00,1907.00              1259.18,1907.10 1241.72,1909.95 1234.00,1912.00              1234.00,1912.00 1226.92,1868.00 1226.92,1868.00              1226.92,1868.00 1223.57,1846.00 1223.57,1846.00              1223.57,1846.00 1226.87,1820.00 1226.87,1820.00              1226.87,1820.00 1234.00,1768.00 1234.00,1768.00              1234.00,1768.00 1246.00,1770.55 1246.00,1770.55              1254.73,1772.31 1267.16,1774.01 1276.00,1774.00              1285.15,1773.99 1295.97,1772.23 1304.00,1767.66              1320.59,1758.23 1326.97,1737.09 1327.00,1719.00              1327.00,1719.00 1327.00,1488.00 1327.00,1488.00 Z            M 743.00,1586.00            C 743.00,1586.00 743.00,1544.00 743.00,1544.00              743.00,1544.00 744.02,1536.56 744.02,1536.56              744.02,1536.56 750.00,1533.87 750.00,1533.87              750.00,1533.87 765.00,1529.87 765.00,1529.87              765.00,1529.87 813.00,1517.12 813.00,1517.12              813.00,1517.12 838.00,1511.00 838.00,1511.00              838.00,1511.00 838.00,1586.00 838.00,1586.00              838.00,1586.00 892.00,1586.00 892.00,1586.00              892.00,1586.00 892.00,1657.00 892.00,1657.00              892.00,1657.00 838.00,1657.00 838.00,1657.00              838.00,1657.00 838.00,1729.00 838.00,1729.00              838.00,1740.50 837.33,1755.27 844.56,1765.00              850.76,1773.35 860.92,1776.13 871.00,1775.49              878.25,1775.03 883.87,1774.89 891.00,1773.00              891.00,1773.00 891.00,1907.00 891.00,1907.00              877.62,1905.92 861.16,1901.91 849.01,1910.11              841.15,1915.41 838.11,1925.92 838.00,1935.00              838.00,1935.00 838.00,2005.00 838.00,2005.00              838.00,2005.00 892.00,2005.00 892.00,2005.00              892.00,2005.00 892.00,2048.00 892.00,2048.00              892.00,2048.00 710.00,2048.00 710.00,2048.00              710.00,2048.00 710.00,2005.00 710.00,2005.00              710.00,2005.00 743.00,2005.00 743.00,2005.00              743.00,2005.00 743.00,1961.00 743.00,1961.00              743.00,1924.13 737.46,1878.90 772.00,1854.72              777.97,1850.54 782.14,1848.39 789.00,1846.00              779.24,1840.44 774.29,1838.74 766.09,1830.00              750.09,1812.93 743.04,1783.98 743.00,1761.00              743.00,1761.00 743.00,1733.00 743.00,1733.00              743.00,1733.00 743.00,1657.00 743.00,1657.00              743.00,1657.00 710.00,1657.00 710.00,1657.00              710.00,1657.00 710.00,1586.00 710.00,1586.00              710.00,1586.00 743.00,1586.00 743.00,1586.00 Z            M 1737.00,1800.00            C 1737.00,1800.00 1729.00,1800.71 1729.00,1800.71              1726.85,1801.04 1724.09,1800.98 1722.00,1800.71              1703.55,1795.97 1721.63,1775.06 1727.59,1768.00              1740.32,1752.91 1754.58,1739.34 1769.00,1725.91              1769.00,1725.91 1779.00,1716.17 1779.00,1716.17              1779.00,1716.17 1791.99,1704.42 1791.99,1704.42              1794.31,1702.37 1797.02,1700.44 1796.90,1697.00              1796.75,1692.75 1787.99,1678.97 1785.33,1675.00              1776.79,1662.27 1765.04,1646.99 1751.00,1640.32              1728.01,1629.40 1697.31,1632.44 1686.47,1604.00              1685.30,1600.95 1684.28,1595.28 1684.09,1592.00              1683.13,1575.16 1696.84,1553.38 1712.00,1546.52              1717.52,1544.02 1721.11,1543.94 1727.00,1544.00              1743.06,1544.19 1759.50,1555.51 1767.55,1569.00              1767.55,1569.00 1781.81,1601.00 1781.81,1601.00              1789.41,1616.10 1805.21,1629.38 1820.00,1637.22              1827.37,1641.12 1835.53,1644.33 1844.00,1643.96              1861.89,1643.18 1869.73,1627.34 1872.80,1612.00              1874.81,1601.96 1876.63,1590.30 1880.90,1581.00              1887.64,1566.33 1903.28,1554.12 1920.00,1555.09              1940.08,1556.26 1965.96,1579.14 1964.79,1600.00              1964.13,1611.83 1956.64,1621.56 1948.00,1629.00              1957.99,1626.72 1967.54,1622.32 1978.00,1622.13              1983.29,1622.03 1989.05,1624.92 1988.55,1631.00              1987.98,1638.03 1974.98,1650.02 1970.00,1655.00              1970.00,1655.00 1933.91,1693.00 1933.91,1693.00              1933.91,1693.00 1921.58,1706.00 1921.58,1706.00              1921.58,1706.00 1909.43,1718.99 1909.43,1718.99              1908.39,1720.20 1905.91,1722.87 1905.70,1724.42              1905.36,1726.97 1910.01,1732.05 1911.61,1734.00              1917.93,1741.67 1928.47,1752.06 1937.00,1757.14              1950.56,1765.20 1960.97,1767.66 1976.00,1771.12              1983.46,1772.83 1995.80,1774.96 2002.00,1778.97              2007.28,1782.38 2010.64,1787.70 2013.79,1793.00              2016.58,1797.68 2018.78,1802.75 2020.25,1808.00              2027.80,1834.93 2010.40,1853.29 1988.00,1865.00              1995.44,1865.36 1999.48,1867.49 2006.00,1870.75              2021.26,1878.38 2034.96,1890.28 2028.30,1909.00              2027.03,1912.57 2025.74,1914.93 2023.51,1918.00              2021.21,1921.17 2018.06,1925.07 2014.99,1927.47              2007.26,1933.50 1993.55,1934.80 1984.00,1936.27              1970.34,1938.38 1956.51,1941.20 1944.00,1947.26              1934.29,1951.96 1929.23,1955.85 1921.00,1962.75              1919.15,1964.31 1914.97,1967.46 1914.62,1969.92              1914.30,1972.12 1916.56,1973.75 1918.02,1975.00              1918.02,1975.00 1930.00,1984.60 1930.00,1984.60              1930.00,1984.60 1983.00,2025.88 1983.00,2025.88              1987.03,2028.96 1998.97,2036.85 1995.93,2042.87              1994.81,2045.11 1992.32,2046.18 1990.00,2046.78              1988.50,2046.96 1986.53,2046.99 1985.00,2046.78              1985.00,2046.78 1957.00,2043.00 1957.00,2043.00              1957.00,2043.00 1964.00,2048.00 1964.00,2048.00              1964.00,2048.00 1887.00,2048.00 1887.00,2048.00              1874.33,2047.98 1880.69,2044.53 1870.00,2036.79              1862.21,2031.15 1854.31,2030.28 1845.00,2031.08              1836.95,2031.77 1825.21,2036.54 1818.00,2040.26              1808.43,2045.20 1808.26,2047.98 1797.00,2048.00              1797.00,2048.00 1736.00,2048.00 1736.00,2048.00              1729.86,2048.00 1712.78,2048.90 1708.00,2047.00              1724.84,2038.96 1743.72,2039.15 1761.00,2032.39              1771.94,2028.10 1779.80,2021.19 1788.00,2013.00              1793.71,2007.29 1797.19,2003.76 1801.79,1997.00              1803.22,1994.90 1805.51,1991.95 1804.13,1989.32              1803.24,1987.63 1799.65,1985.44 1798.00,1984.33              1798.00,1984.33 1784.00,1974.67 1784.00,1974.67              1784.00,1974.67 1740.00,1942.20 1740.00,1942.20              1735.12,1938.23 1720.93,1926.90 1722.47,1920.04              1724.24,1912.16 1739.20,1913.59 1745.00,1915.00              1739.86,1905.27 1732.64,1892.49 1740.43,1882.00              1742.61,1879.06 1746.02,1876.17 1749.00,1874.04              1752.30,1871.68 1755.36,1869.78 1759.00,1868.00              1753.02,1864.56 1749.30,1862.56 1744.00,1857.83              1740.38,1854.59 1734.91,1849.18 1732.53,1845.00              1724.48,1830.82 1731.18,1813.54 1737.00,1800.00 Z            M 1728.00,1552.43            C 1713.80,1558.20 1728.98,1574.02 1736.00,1572.24              1740.72,1571.05 1748.81,1563.58 1745.22,1558.33              1742.03,1553.66 1733.24,1551.75 1728.00,1552.43 Z            M 1925.00,1566.34            C 1914.43,1569.45 1916.23,1580.70 1918.74,1583.44              1921.01,1585.92 1926.90,1586.31 1930.00,1585.61              1936.84,1584.06 1941.11,1576.49 1937.40,1571.09              1934.30,1566.58 1930.02,1565.81 1925.00,1566.34 Z            M 457.00,1603.00            C 457.00,1603.00 482.00,1592.69 482.00,1592.69              500.71,1586.17 533.25,1580.03 553.00,1580.00              553.00,1580.00 578.00,1580.00 578.00,1580.00              599.24,1580.03 627.13,1587.15 645.00,1598.70              672.02,1616.16 684.86,1645.90 687.96,1677.00              687.96,1677.00 687.96,1685.00 687.96,1685.00              687.96,1685.00 689.00,1697.00 689.00,1697.00              689.00,1697.00 689.00,1811.00 689.00,1811.00              689.00,1811.00 690.28,1831.00 690.28,1831.00              690.28,1831.00 692.36,1847.09 692.36,1847.09              692.36,1847.09 689.00,1875.00 689.00,1875.00              689.00,1875.00 689.00,1951.00 689.00,1951.00              689.00,1970.80 689.45,1991.02 682.92,2010.00              679.11,2021.08 673.26,2030.68 665.00,2039.00              662.34,2041.68 658.49,2045.73 655.00,2047.15              652.53,2048.15 649.63,2047.99 647.00,2048.00              647.00,2048.00 458.00,2048.00 458.00,2048.00              458.00,2048.00 474.00,1998.00 474.00,1998.00              474.00,1998.00 497.00,2006.28 497.00,2006.28              514.56,2011.52 528.78,2013.59 547.00,2014.26              561.45,2014.78 589.01,2013.61 591.00,1995.00              591.00,1995.00 566.00,1994.00 566.00,1994.00              566.00,1994.00 535.00,1990.41 535.00,1990.41              509.93,1986.21 484.01,1978.95 464.00,1962.54              437.93,1941.16 430.72,1902.64 449.09,1874.00              457.76,1860.49 469.50,1852.24 484.00,1846.00              469.17,1837.46 459.43,1830.05 450.45,1815.00              435.38,1789.72 435.26,1752.75 449.31,1727.00              454.74,1717.06 462.28,1708.49 471.00,1701.32              493.92,1682.48 530.83,1673.25 560.00,1670.92              560.00,1670.92 570.00,1670.00 570.00,1670.00              570.00,1670.00 591.00,1669.00 591.00,1669.00              590.06,1650.03 568.35,1646.02 553.00,1646.00              532.16,1645.97 519.82,1648.00 500.00,1654.67              500.00,1654.67 474.00,1665.00 474.00,1665.00              474.00,1665.00 457.00,1603.00 457.00,1603.00 Z            M 1461.00,1603.00            C 1490.18,1590.45 1513.06,1583.25 1545.00,1580.91              1545.00,1580.91 1557.00,1580.00 1557.00,1580.00              1557.00,1580.00 1582.00,1580.00 1582.00,1580.00              1606.23,1580.04 1636.90,1588.33 1656.00,1603.51              1679.25,1621.99 1689.78,1650.18 1692.08,1679.00              1692.08,1679.00 1693.00,1689.00 1693.00,1689.00              1693.00,1689.00 1693.00,1806.00 1693.00,1806.00              1693.00,1806.00 1693.91,1818.00 1693.91,1818.00              1693.91,1818.00 1695.16,1836.00 1695.16,1836.00              1695.16,1836.00 1696.53,1847.00 1696.53,1847.00              1696.53,1847.00 1694.28,1861.00 1694.28,1861.00              1694.28,1861.00 1693.00,1879.00 1693.00,1879.00              1693.00,1879.00 1693.00,1952.00 1693.00,1952.00              1693.00,1973.31 1694.09,1989.25 1687.00,2010.00              1683.06,2021.52 1670.67,2042.95 1659.00,2047.27              1656.65,2048.14 1653.51,2048.00 1651.00,2048.00              1651.00,2048.00 1462.00,2048.00 1462.00,2048.00              1462.00,2048.00 1478.00,1998.00 1478.00,1998.00              1478.00,1998.00 1506.00,2007.57 1506.00,2007.57              1522.29,2012.22 1535.22,2013.64 1552.00,2014.26              1566.40,2014.78 1593.25,2013.65 1595.00,1995.00              1595.00,1995.00 1571.00,1994.00 1571.00,1994.00              1571.00,1994.00 1561.00,1993.09 1561.00,1993.09              1529.57,1990.79 1491.54,1982.27 1467.00,1961.56              1443.77,1941.97 1435.87,1906.10 1450.32,1879.00              1458.76,1863.18 1471.78,1852.99 1488.00,1846.00              1474.33,1838.13 1465.34,1831.52 1456.54,1818.00              1438.12,1789.71 1438.90,1749.22 1457.09,1721.00              1461.20,1714.62 1468.24,1707.23 1474.00,1702.30              1497.32,1682.34 1534.95,1673.32 1565.00,1670.92              1565.00,1670.92 1575.00,1670.00 1575.00,1670.00              1575.00,1670.00 1595.00,1669.00 1595.00,1669.00              1594.06,1649.88 1572.49,1646.02 1557.00,1646.00              1538.35,1645.97 1523.78,1648.01 1506.00,1654.00              1506.00,1654.00 1478.00,1665.00 1478.00,1665.00              1478.00,1665.00 1461.00,1603.00 1461.00,1603.00 Z            M 1977.00,1628.00            C 1977.00,1628.00 1944.00,1639.95 1944.00,1639.95              1944.00,1639.95 1875.00,1666.40 1875.00,1666.40              1875.00,1666.40 1851.00,1676.27 1851.00,1676.27              1848.31,1677.68 1844.19,1680.09 1846.08,1683.78              1847.51,1686.57 1852.09,1687.50 1854.82,1686.40              1857.97,1685.12 1859.36,1681.02 1862.21,1678.34              1865.58,1675.15 1871.64,1673.14 1876.00,1671.40              1876.00,1671.40 1949.00,1642.80 1949.00,1642.80              1953.65,1640.94 1970.77,1634.35 1973.78,1632.03              1975.59,1630.64 1975.89,1629.85 1977.00,1628.00 Z            M 1948.00,1629.00            C 1948.00,1629.00 1947.00,1629.00 1947.00,1629.00              1947.00,1629.00 1948.00,1630.00 1948.00,1630.00              1948.00,1630.00 1948.00,1629.00 1948.00,1629.00 Z            M 1780.00,1760.00            C 1786.63,1758.36 1791.85,1753.20 1797.00,1748.92              1801.41,1745.25 1808.13,1739.61 1811.35,1735.00              1813.36,1732.13 1814.65,1728.38 1815.52,1725.00              1819.35,1710.12 1814.13,1699.97 1807.22,1687.00              1802.87,1678.83 1793.22,1666.28 1784.00,1664.00              1784.95,1670.80 1788.62,1673.34 1792.19,1679.00              1798.36,1688.77 1809.25,1707.13 1807.81,1719.00              1806.04,1733.61 1782.77,1746.38 1780.00,1760.00 Z            M 1796.00,1709.00            C 1796.00,1709.00 1795.00,1709.00 1795.00,1709.00              1795.00,1709.00 1796.00,1710.00 1796.00,1710.00              1796.00,1710.00 1796.00,1709.00 1796.00,1709.00 Z            M 1795.00,1710.00            C 1795.00,1710.00 1794.00,1710.00 1794.00,1710.00              1794.00,1710.00 1795.00,1711.00 1795.00,1711.00              1795.00,1711.00 1795.00,1710.00 1795.00,1710.00 Z            M 1794.00,1711.00            C 1794.00,1711.00 1793.00,1711.00 1793.00,1711.00              1793.00,1711.00 1794.00,1712.00 1794.00,1712.00              1794.00,1712.00 1794.00,1711.00 1794.00,1711.00 Z            M 1793.00,1712.00            C 1793.00,1712.00 1792.00,1712.00 1792.00,1712.00              1792.00,1712.00 1793.00,1713.00 1793.00,1713.00              1793.00,1713.00 1793.00,1712.00 1793.00,1712.00 Z            M 1792.00,1713.00            C 1792.00,1713.00 1770.00,1731.96 1770.00,1731.96              1770.00,1731.96 1739.58,1763.00 1739.58,1763.00              1739.58,1763.00 1729.00,1777.00 1729.00,1777.00              1736.43,1771.68 1748.46,1758.12 1756.00,1751.09              1765.33,1742.40 1786.37,1723.48 1792.00,1713.00 Z            M 594.00,1729.00            C 584.24,1729.00 574.54,1729.68 565.00,1731.89              559.30,1733.21 551.89,1735.78 547.00,1738.96              530.35,1749.80 530.13,1773.08 543.02,1782.35              557.39,1792.70 579.61,1785.72 589.20,1772.00              593.32,1766.11 593.99,1760.93 594.00,1754.00              594.00,1754.00 594.00,1729.00 594.00,1729.00 Z            M 1599.00,1729.00            C 1576.71,1729.00 1536.20,1733.14 1538.09,1764.00              1539.72,1790.49 1571.34,1792.59 1587.00,1778.82              1597.13,1769.91 1597.01,1766.16 1598.17,1754.00              1598.17,1754.00 1599.00,1729.00 1599.00,1729.00 Z            M 1958.00,1867.00            C 1950.48,1863.94 1943.60,1860.47 1938.38,1854.00              1932.82,1847.10 1930.92,1838.23 1928.26,1830.00              1926.37,1824.19 1922.66,1816.37 1919.69,1811.00              1912.69,1798.33 1898.73,1785.86 1888.00,1776.17              1882.08,1770.82 1871.19,1762.10 1864.00,1758.90              1860.26,1757.24 1854.89,1756.11 1851.09,1758.17              1846.50,1760.67 1842.64,1769.21 1840.81,1774.00              1832.77,1795.15 1836.75,1803.15 1833.39,1822.00              1831.55,1832.28 1828.02,1842.42 1821.96,1851.00              1821.96,1851.00 1811.00,1864.00 1811.00,1864.00              1814.38,1865.60 1817.87,1867.02 1821.00,1869.10              1830.34,1875.31 1838.89,1887.01 1841.50,1898.00              1843.40,1905.98 1842.49,1908.19 1843.17,1915.00              1844.06,1923.94 1849.03,1937.82 1856.09,1943.58              1865.70,1951.44 1882.33,1941.15 1891.00,1935.68              1902.40,1928.50 1919.15,1917.23 1927.54,1907.00              1937.19,1895.22 1937.82,1885.47 1944.53,1877.02              1949.03,1871.34 1952.88,1871.07 1958.00,1867.00 Z            M 1937.06,1766.52            C 1928.73,1770.02 1935.25,1777.22 1940.00,1780.48              1940.00,1780.48 1984.00,1804.26 1984.00,1804.26              1987.13,1805.88 1996.04,1812.40 1998.85,1811.56              2001.63,1810.73 2002.00,1807.36 2001.26,1805.00              1999.80,1800.40 1993.65,1795.33 1990.00,1792.28              1979.56,1783.57 1966.56,1776.22 1954.00,1771.01              1948.68,1768.81 1942.89,1766.27 1937.06,1766.52 Z            M 1729.00,1777.00            C 1729.00,1777.00 1728.00,1777.00 1728.00,1777.00              1728.00,1777.00 1729.00,1778.00 1729.00,1778.00              1729.00,1778.00 1729.00,1777.00 1729.00,1777.00 Z            M 1728.00,1778.00            C 1728.00,1778.00 1727.00,1778.00 1727.00,1778.00              1727.00,1778.00 1728.00,1779.00 1728.00,1779.00              1728.00,1779.00 1728.00,1778.00 1728.00,1778.00 Z            M 1727.00,1779.00            C 1727.00,1779.00 1726.00,1779.00 1726.00,1779.00              1726.00,1779.00 1727.00,1780.00 1727.00,1780.00              1727.00,1780.00 1727.00,1779.00 1727.00,1779.00 Z            M 1726.00,1780.00            C 1726.00,1780.00 1725.00,1780.00 1725.00,1780.00              1725.00,1780.00 1726.00,1781.00 1726.00,1781.00              1726.00,1781.00 1726.00,1780.00 1726.00,1780.00 Z            M 1724.00,1783.00            C 1724.00,1783.00 1723.00,1783.00 1723.00,1783.00              1723.00,1783.00 1724.00,1784.00 1724.00,1784.00              1724.00,1784.00 1724.00,1783.00 1724.00,1783.00 Z            M 1753.00,1794.00            C 1744.79,1796.80 1737.81,1806.51 1736.17,1815.00              1736.17,1815.00 1736.17,1831.00 1736.17,1831.00              1736.06,1835.94 1736.94,1840.66 1739.53,1844.96              1742.15,1849.33 1753.75,1857.10 1757.81,1850.69              1759.45,1848.10 1758.22,1844.50 1757.01,1842.00              1753.76,1835.32 1750.64,1833.77 1747.36,1824.00              1742.00,1808.10 1747.11,1807.59 1753.00,1794.00 Z            M 600.00,1826.00            C 600.00,1826.00 587.00,1836.84 587.00,1836.84              587.00,1836.84 573.00,1846.00 573.00,1846.00              573.00,1846.00 588.00,1854.08 588.00,1854.08              588.00,1854.08 600.00,1863.00 600.00,1863.00              600.00,1863.00 606.00,1846.00 606.00,1846.00              606.00,1846.00 600.00,1826.00 600.00,1826.00 Z            M 1605.00,1826.00            C 1605.00,1826.00 1592.00,1836.33 1592.00,1836.33              1592.00,1836.33 1577.00,1846.00 1577.00,1846.00              1577.00,1846.00 1588.00,1851.45 1588.00,1851.45              1588.00,1851.45 1605.00,1862.00 1605.00,1862.00              1605.00,1862.00 1608.94,1846.00 1608.94,1846.00              1608.94,1846.00 1605.00,1826.00 1605.00,1826.00 Z            M 488.00,1846.00            C 488.00,1846.00 487.00,1846.00 487.00,1846.00              487.00,1846.00 488.00,1847.00 488.00,1847.00              488.00,1847.00 488.00,1846.00 488.00,1846.00 Z            M 570.00,1846.00            C 570.00,1846.00 569.00,1846.00 569.00,1846.00              569.00,1846.00 570.00,1847.00 570.00,1847.00              570.00,1847.00 570.00,1846.00 570.00,1846.00 Z            M 793.00,1846.00            C 793.00,1846.00 792.00,1846.00 792.00,1846.00              792.00,1846.00 793.00,1847.00 793.00,1847.00              793.00,1847.00 793.00,1846.00 793.00,1846.00 Z            M 1347.00,1846.00            C 1347.00,1846.00 1346.00,1846.00 1346.00,1846.00              1346.00,1846.00 1347.00,1847.00 1347.00,1847.00              1347.00,1847.00 1347.00,1846.00 1347.00,1846.00 Z            M 1492.00,1846.00            C 1492.00,1846.00 1491.00,1846.00 1491.00,1846.00              1491.00,1846.00 1492.00,1847.00 1492.00,1847.00              1492.00,1847.00 1492.00,1846.00 1492.00,1846.00 Z            M 1574.00,1846.00            C 1574.00,1846.00 1573.00,1846.00 1573.00,1846.00              1573.00,1846.00 1574.00,1847.00 1574.00,1847.00              1574.00,1847.00 1574.00,1846.00 1574.00,1846.00 Z            M 490.00,1847.00            C 490.00,1847.00 489.00,1847.00 489.00,1847.00              489.00,1847.00 490.00,1848.00 490.00,1848.00              490.00,1848.00 490.00,1847.00 490.00,1847.00 Z            M 795.00,1847.00            C 795.00,1847.00 794.00,1847.00 794.00,1847.00              794.00,1847.00 795.00,1848.00 795.00,1848.00              795.00,1848.00 795.00,1847.00 795.00,1847.00 Z            M 889.00,1847.00            C 889.00,1847.00 888.00,1847.00 888.00,1847.00              888.00,1847.00 889.00,1848.00 889.00,1848.00              889.00,1848.00 889.00,1847.00 889.00,1847.00 Z            M 1230.00,1847.00            C 1230.00,1847.00 1229.00,1847.00 1229.00,1847.00              1229.00,1847.00 1230.00,1848.00 1230.00,1848.00              1230.00,1848.00 1230.00,1847.00 1230.00,1847.00 Z            M 1494.00,1847.00            C 1494.00,1847.00 1493.00,1847.00 1493.00,1847.00              1493.00,1847.00 1494.00,1848.00 1494.00,1848.00              1494.00,1848.00 1494.00,1847.00 1494.00,1847.00 Z            M 1572.00,1847.00            C 1572.00,1847.00 1571.00,1847.00 1571.00,1847.00              1571.00,1847.00 1572.00,1848.00 1572.00,1848.00              1572.00,1848.00 1572.00,1847.00 1572.00,1847.00 Z            M 493.00,1848.00            C 493.00,1848.00 492.00,1848.00 492.00,1848.00              492.00,1848.00 493.00,1849.00 493.00,1849.00              493.00,1849.00 493.00,1848.00 493.00,1848.00 Z            M 565.00,1848.00            C 565.00,1848.00 564.00,1848.00 564.00,1848.00              564.00,1848.00 565.00,1849.00 565.00,1849.00              565.00,1849.00 565.00,1848.00 565.00,1848.00 Z            M 691.00,1848.00            C 691.00,1848.00 633.00,1848.00 633.00,1848.00              633.00,1848.00 606.00,1849.00 606.00,1849.00              606.00,1849.00 664.00,1849.00 664.00,1849.00              664.00,1849.00 691.00,1848.00 691.00,1848.00 Z            M 798.00,1848.00            C 798.00,1848.00 797.00,1848.00 797.00,1848.00              797.00,1848.00 798.00,1849.00 798.00,1849.00              798.00,1849.00 798.00,1848.00 798.00,1848.00 Z            M 1234.00,1848.00            C 1234.00,1848.00 1233.00,1848.00 1233.00,1848.00              1233.00,1848.00 1234.00,1849.00 1234.00,1849.00              1234.00,1849.00 1234.00,1848.00 1234.00,1848.00 Z            M 1340.00,1848.00            C 1340.00,1848.00 1339.00,1848.00 1339.00,1848.00              1339.00,1848.00 1340.00,1849.00 1340.00,1849.00              1340.00,1849.00 1340.00,1848.00 1340.00,1848.00 Z            M 1497.00,1848.00            C 1497.00,1848.00 1496.00,1848.00 1496.00,1848.00              1496.00,1848.00 1497.00,1849.00 1497.00,1849.00              1497.00,1849.00 1497.00,1848.00 1497.00,1848.00 Z            M 1569.00,1848.00            C 1569.00,1848.00 1568.00,1848.00 1568.00,1848.00              1568.00,1848.00 1569.00,1849.00 1569.00,1849.00              1569.00,1849.00 1569.00,1848.00 1569.00,1848.00 Z            M 1696.00,1848.00            C 1696.00,1848.00 1637.00,1848.00 1637.00,1848.00              1637.00,1848.00 1610.00,1849.00 1610.00,1849.00              1610.00,1849.00 1669.00,1849.00 1669.00,1849.00              1669.00,1849.00 1696.00,1848.00 1696.00,1848.00 Z            M 495.00,1849.00            C 495.00,1849.00 494.00,1849.00 494.00,1849.00              494.00,1849.00 495.00,1850.00 495.00,1850.00              495.00,1850.00 495.00,1849.00 495.00,1849.00 Z            M 562.00,1849.00            C 562.00,1849.00 561.00,1849.00 561.00,1849.00              561.00,1849.00 562.00,1850.00 562.00,1850.00              562.00,1850.00 562.00,1849.00 562.00,1849.00 Z            M 801.00,1849.00            C 801.00,1849.00 800.00,1849.00 800.00,1849.00              800.00,1849.00 801.00,1850.00 801.00,1850.00              801.00,1850.00 801.00,1849.00 801.00,1849.00 Z            M 1336.00,1849.00            C 1336.00,1849.00 1335.00,1849.00 1335.00,1849.00              1335.00,1849.00 1336.00,1850.00 1336.00,1850.00              1336.00,1850.00 1336.00,1849.00 1336.00,1849.00 Z            M 1500.00,1849.00            C 1500.00,1849.00 1499.00,1849.00 1499.00,1849.00              1499.00,1849.00 1500.00,1850.00 1500.00,1850.00              1500.00,1850.00 1500.00,1849.00 1500.00,1849.00 Z            M 1566.00,1849.00            C 1566.00,1849.00 1565.00,1849.00 1565.00,1849.00              1565.00,1849.00 1566.00,1850.00 1566.00,1850.00              1566.00,1850.00 1566.00,1849.00 1566.00,1849.00 Z            M 499.00,1850.00            C 499.00,1850.00 498.00,1850.00 498.00,1850.00              498.00,1850.00 499.00,1851.00 499.00,1851.00              499.00,1851.00 499.00,1850.00 499.00,1850.00 Z            M 558.00,1850.00            C 558.00,1850.00 557.00,1850.00 557.00,1850.00              557.00,1850.00 558.00,1851.00 558.00,1851.00              558.00,1851.00 558.00,1850.00 558.00,1850.00 Z            M 804.00,1850.00            C 804.00,1850.00 803.00,1850.00 803.00,1850.00              803.00,1850.00 804.00,1851.00 804.00,1851.00              804.00,1851.00 804.00,1850.00 804.00,1850.00 Z            M 936.00,1849.00            C 936.00,1849.00 1033.00,1849.00 1033.00,1849.00              1033.00,1849.00 1033.00,1972.00 1033.00,1972.00              1033.01,1977.22 1033.07,1981.14 1035.40,1986.00              1046.40,2008.88 1083.45,2012.11 1095.69,1985.00              1100.98,1973.27 1100.00,1951.14 1100.00,1938.00              1100.00,1938.00 1100.00,1849.00 1100.00,1849.00              1100.00,1849.00 1197.00,1849.00 1197.00,1849.00              1197.00,1849.00 1197.00,1940.00 1197.00,1940.00              1197.00,1959.87 1197.83,1983.72 1193.58,2003.00              1190.81,2015.56 1187.15,2025.21 1180.00,2036.00              1174.40,2044.45 1172.43,2047.98 1162.00,2048.00              1162.00,2048.00 1099.00,2048.00 1099.00,2048.00              1099.00,2048.00 1058.00,2048.00 1058.00,2048.00              1053.76,2048.00 1042.30,2048.63 1039.00,2046.98              1036.75,2045.85 1034.79,2043.73 1033.00,2042.00              1033.00,2042.00 1033.00,2048.00 1033.00,2048.00              1033.00,2048.00 936.00,2048.00 936.00,2048.00              936.00,2048.00 936.00,1849.00 936.00,1849.00 Z            M 1503.00,1850.00            C 1503.00,1850.00 1502.00,1850.00 1502.00,1850.00              1502.00,1850.00 1503.00,1851.00 1503.00,1851.00              1503.00,1851.00 1503.00,1850.00 1503.00,1850.00 Z            M 502.00,1851.00            C 502.00,1851.00 501.00,1851.00 501.00,1851.00              501.00,1851.00 502.00,1852.00 502.00,1852.00              502.00,1852.00 502.00,1851.00 502.00,1851.00 Z            M 554.00,1851.00            C 554.00,1851.00 553.00,1851.00 553.00,1851.00              553.00,1851.00 554.00,1852.00 554.00,1852.00              554.00,1852.00 554.00,1851.00 554.00,1851.00 Z            M 808.00,1851.00            C 808.00,1851.00 807.00,1851.00 807.00,1851.00              807.00,1851.00 808.00,1852.00 808.00,1852.00              808.00,1852.00 808.00,1851.00 808.00,1851.00 Z            M 871.00,1851.00            C 871.00,1851.00 870.00,1851.00 870.00,1851.00              870.00,1851.00 871.00,1852.00 871.00,1852.00              871.00,1852.00 871.00,1851.00 871.00,1851.00 Z            M 549.00,1852.00            C 549.00,1852.00 548.00,1852.00 548.00,1852.00              548.00,1852.00 549.00,1853.00 549.00,1853.00              549.00,1853.00 549.00,1852.00 549.00,1852.00 Z            M 813.00,1852.00            C 813.00,1852.00 812.00,1852.00 812.00,1852.00              812.00,1852.00 813.00,1853.00 813.00,1853.00              813.00,1853.00 813.00,1852.00 813.00,1852.00 Z            M 1511.00,1852.00            C 1511.00,1852.00 1510.00,1852.00 1510.00,1852.00              1510.00,1852.00 1511.00,1853.00 1511.00,1853.00              1511.00,1853.00 1511.00,1852.00 1511.00,1852.00 Z            M 1269.00,1853.00            C 1269.00,1853.00 1264.00,1854.00 1264.00,1854.00              1264.00,1854.00 1269.00,1853.00 1269.00,1853.00 Z            M 1312.00,1853.00            C 1312.00,1853.00 1307.00,1854.00 1307.00,1854.00              1307.00,1854.00 1312.00,1853.00 1312.00,1853.00 Z            M 530.00,1854.00            C 530.00,1854.00 523.00,1855.00 523.00,1855.00              523.00,1855.00 530.00,1854.00 530.00,1854.00 Z            M 837.00,1854.00            C 837.00,1854.00 830.00,1855.00 830.00,1855.00              830.00,1855.00 837.00,1854.00 837.00,1854.00 Z            M 1296.00,1854.00            C 1296.00,1854.00 1280.00,1855.00 1280.00,1855.00              1280.00,1855.00 1296.00,1854.00 1296.00,1854.00 Z            M 1536.00,1854.00            C 1536.00,1854.00 1525.00,1855.00 1525.00,1855.00              1525.00,1855.00 1536.00,1854.00 1536.00,1854.00 Z            M 1809.00,1864.00            C 1809.00,1864.00 1808.00,1864.00 1808.00,1864.00              1808.00,1864.00 1809.00,1865.00 1809.00,1865.00              1809.00,1865.00 1809.00,1864.00 1809.00,1864.00 Z            M 1807.00,1865.00            C 1807.00,1865.00 1806.00,1865.00 1806.00,1865.00              1806.00,1865.00 1807.00,1866.00 1807.00,1866.00              1807.00,1866.00 1807.00,1865.00 1807.00,1865.00 Z            M 1985.00,1865.00            C 1985.00,1865.00 1984.00,1865.00 1984.00,1865.00              1984.00,1865.00 1985.00,1866.00 1985.00,1866.00              1985.00,1866.00 1985.00,1865.00 1985.00,1865.00 Z            M 1805.00,1866.00            C 1805.00,1866.00 1804.00,1866.00 1804.00,1866.00              1804.00,1866.00 1805.00,1867.00 1805.00,1867.00              1805.00,1867.00 1805.00,1866.00 1805.00,1866.00 Z            M 1983.00,1866.00            C 1983.00,1866.00 1982.00,1866.00 1982.00,1866.00              1982.00,1866.00 1983.00,1867.00 1983.00,1867.00              1983.00,1867.00 1983.00,1866.00 1983.00,1866.00 Z            M 1764.00,1868.00            C 1764.00,1868.00 1763.00,1868.00 1763.00,1868.00              1763.00,1868.00 1764.00,1869.00 1764.00,1869.00              1764.00,1869.00 1764.00,1868.00 1764.00,1868.00 Z            M 1975.00,1868.00            C 1975.00,1868.00 1965.00,1869.00 1965.00,1869.00              1965.00,1869.00 1975.00,1868.00 1975.00,1868.00 Z            M 1784.00,1870.00            C 1784.00,1870.00 1772.00,1871.00 1772.00,1871.00              1772.00,1871.00 1784.00,1870.00 1784.00,1870.00 Z            M 594.00,1944.00            C 594.00,1944.00 594.00,1925.00 594.00,1925.00              593.99,1920.89 594.12,1917.92 592.52,1914.00              585.42,1896.63 557.16,1890.04 542.04,1900.13              530.10,1908.09 531.46,1925.98 545.00,1934.89              549.07,1937.58 555.26,1939.59 560.00,1940.84              566.01,1942.43 576.80,1943.97 583.00,1944.00              583.00,1944.00 594.00,1944.00 594.00,1944.00 Z            M 1599.00,1944.00            C 1599.00,1936.90 1599.16,1921.35 1597.20,1915.00              1591.75,1897.38 1561.58,1889.85 1547.00,1899.70              1533.68,1908.70 1536.07,1926.47 1549.00,1934.53              1553.53,1937.36 1558.85,1939.49 1564.00,1940.84              1569.14,1942.20 1581.71,1943.93 1587.00,1944.00              1587.00,1944.00 1599.00,1944.00 1599.00,1944.00 Z" />
</svg>