<svg xmlns="http://www.w3.org/2000/svg" viewBox="331.5 55.48 1402.07 1360.02">
  <path id="mathjax" fill="#303030" stroke="none" stroke-width="1"
    d="M 557.00,1117.00            C 543.51,1119.54 529.79,1122.83 516.00,1123.00              494.44,1123.25 464.89,1121.60 456.75,1097.00              455.41,1092.95 455.05,1090.23 455.00,1086.00              454.82,1070.03 462.41,1057.04 471.00,1044.00              483.81,1024.58 498.51,1006.69 513.58,989.00              569.20,923.69 659.11,837.61 723.00,778.09              723.00,778.09 783.00,723.28 783.00,723.28              783.00,723.28 800.00,708.07 800.00,708.07              802.01,706.24 805.52,703.70 806.08,700.96              806.56,698.58 804.51,694.29 803.60,692.00              803.60,692.00 794.42,671.00 794.42,671.00              782.19,642.94 759.77,606.99 741.86,582.00              718.90,549.96 679.84,501.21 649.00,477.90              636.05,468.11 621.73,460.07 607.00,453.31              574.31,438.30 528.21,426.68 493.00,417.15              493.00,417.15 449.00,404.95 449.00,404.95              413.40,391.89 377.60,367.28 357.05,335.00              349.75,323.52 344.66,313.95 340.33,301.00              335.55,286.69 332.02,271.15 332.00,256.00              332.00,256.00 332.00,245.00 332.00,245.00              332.07,200.80 356.41,154.52 383.61,121.00              406.48,92.81 435.05,68.42 471.00,59.47              483.27,56.42 494.45,55.86 507.00,56.00              526.26,56.23 549.36,63.33 567.00,70.85              599.81,84.83 633.89,107.32 656.54,135.00              695.59,182.72 710.94,253.61 741.86,309.00              767.28,354.53 799.48,382.88 841.00,413.15              871.37,435.30 906.79,456.49 943.00,467.28              956.00,471.15 968.59,472.89 982.00,474.17              982.00,474.17 989.00,474.92 989.00,474.92              989.00,474.92 997.00,474.09 997.00,474.09              1036.35,471.34 1068.93,451.19 1090.31,418.00              1113.44,382.08 1117.46,332.26 1126.00,291.00              1131.89,262.53 1139.54,234.27 1152.26,208.00              1171.85,167.55 1205.93,132.23 1248.00,115.40              1267.06,107.78 1287.47,103.76 1308.00,104.00              1333.80,104.31 1360.79,113.87 1383.00,126.58              1420.48,148.02 1448.69,174.88 1471.00,212.00              1481.56,229.57 1494.75,257.27 1495.00,278.00              1495.00,278.00 1495.00,289.00 1495.00,289.00              1494.94,325.02 1469.58,363.60 1445.91,389.00              1445.91,389.00 1416.00,417.00 1416.00,417.00              1457.73,403.09 1513.11,382.93 1557.00,383.00              1562.72,383.01 1568.54,383.53 1574.00,385.36              1578.92,387.01 1582.30,389.30 1585.91,393.04              1604.54,412.32 1591.34,432.82 1577.79,450.00              1577.79,450.00 1559.91,471.00 1559.91,471.00              1559.91,471.00 1506.04,526.00 1506.04,526.00              1506.04,526.00 1375.91,663.00 1375.91,663.00              1375.91,663.00 1330.83,711.00 1330.83,711.00              1330.83,711.00 1275.83,770.00 1275.83,770.00              1275.83,770.00 1263.58,783.00 1263.58,783.00              1263.58,783.00 1247.97,800.00 1247.97,800.00              1245.84,802.30 1243.01,804.53 1243.87,808.00              1244.46,810.39 1250.55,818.55 1252.29,821.00              1252.29,821.00 1272.92,848.00 1272.92,848.00              1302.11,882.98 1335.73,916.67 1374.00,941.66              1426.03,975.63 1487.95,991.03 1548.00,1003.79              1571.24,1008.73 1607.70,1016.15 1629.00,1024.60              1641.81,1029.68 1653.94,1035.33 1664.00,1045.04              1672.32,1053.08 1683.38,1069.06 1690.00,1079.00              1709.35,1108.04 1724.98,1140.35 1730.75,1175.00              1730.75,1175.00 1733.00,1194.00 1733.00,1194.00              1733.23,1213.74 1733.25,1226.54 1728.12,1246.00              1713.97,1299.63 1674.78,1338.16 1630.00,1368.00              1594.51,1391.65 1557.23,1407.50 1514.00,1407.00              1494.03,1406.76 1472.25,1400.69 1454.00,1392.85              1442.67,1387.98 1433.45,1382.93 1423.00,1376.42              1400.08,1362.15 1388.25,1350.95 1375.31,1327.00              1367.20,1312.00 1361.06,1292.35 1355.98,1276.00              1348.73,1252.69 1341.18,1229.46 1331.57,1207.00              1304.77,1144.34 1264.14,1101.69 1215.00,1055.91              1215.00,1055.91 1202.00,1043.09 1202.00,1043.09              1202.00,1043.09 1144.00,992.20 1144.00,992.20              1117.27,970.82 1076.68,939.57 1041.00,940.00              1015.28,940.31 999.77,970.91 989.75,991.00              974.85,1020.88 964.70,1059.01 959.58,1092.00              957.78,1103.58 955.02,1122.65 955.00,1134.00              955.00,1134.00 955.00,1158.00 955.00,1158.00              955.00,1158.00 954.00,1178.00 954.00,1178.00              954.00,1178.00 952.15,1197.00 952.15,1197.00              948.06,1231.27 937.48,1268.02 922.24,1299.00              903.99,1336.13 873.18,1378.54 835.00,1396.68              814.92,1406.22 805.02,1406.45 784.00,1409.42              784.00,1409.42 732.00,1415.00 732.00,1415.00              732.00,1415.00 708.00,1415.00 708.00,1415.00              701.33,1414.99 694.60,1414.05 688.00,1413.13              639.59,1406.39 602.33,1380.26 568.00,1347.04              549.39,1329.03 533.41,1313.00 524.69,1288.00              510.68,1247.82 520.64,1196.51 536.00,1158.00              541.12,1145.16 548.69,1127.86 557.00,1117.00 Z            M 520.00,89.29            C 514.42,90.21 509.11,91.25 504.00,93.81              500.26,95.68 496.99,97.99 494.10,101.04              489.10,106.31 487.08,111.83 487.00,119.00              486.81,137.37 496.95,145.27 509.00,157.01              516.11,163.94 528.29,176.86 539.00,175.80              544.30,175.28 550.52,171.37 555.00,168.58              567.18,160.98 588.28,144.50 588.96,129.00              589.47,117.30 583.56,112.10 574.00,106.58              563.45,100.49 548.83,94.66 537.00,91.63              531.09,90.12 526.15,88.76 520.00,89.29 Z            M 1340.00,148.28            C 1327.63,150.06 1316.39,150.91 1307.33,161.09              1298.92,170.53 1299.00,180.31 1299.00,192.00              1299.00,197.15 1298.83,200.82 1299.58,206.00              1300.38,211.53 1301.10,217.60 1305.22,221.79              1310.69,227.35 1329.16,229.90 1337.00,230.00              1351.29,230.16 1361.47,229.39 1373.00,219.68              1383.94,210.45 1389.07,197.03 1389.00,183.00              1388.98,179.53 1389.05,177.29 1387.64,174.00              1383.84,165.21 1367.23,152.27 1358.00,149.63              1354.23,148.56 1344.08,147.91 1340.00,148.28 Z            M 1547.00,407.00            C 1541.03,407.62 1535.61,410.31 1530.00,412.31              1530.00,412.31 1502.00,422.58 1502.00,422.58              1502.00,422.58 1415.00,455.19 1415.00,455.19              1415.00,455.19 1283.00,505.42 1283.00,505.42              1283.00,505.42 1153.00,555.58 1153.00,555.58              1153.00,555.58 1049.00,596.72 1049.00,596.72              1036.10,602.27 1013.73,610.42 1004.18,620.17              1002.82,621.57 1001.48,623.27 1000.57,625.00              991.94,641.43 1018.13,649.94 1030.00,650.00              1030.00,650.00 1034.00,650.00 1034.00,650.00              1047.69,649.81 1048.75,642.26 1054.31,632.00              1057.98,625.23 1062.41,618.41 1068.01,613.09              1083.35,598.51 1114.75,589.43 1135.00,581.40              1135.00,581.40 1242.00,540.19 1242.00,540.19              1242.00,540.19 1438.00,462.80 1438.00,462.80              1438.00,462.80 1512.00,431.86 1512.00,431.86              1518.25,429.10 1536.53,421.48 1540.73,417.47              1542.97,415.34 1545.46,409.93 1547.00,407.00 Z            M 746.23,554.64            C 742.15,557.50 742.64,561.63 744.10,566.00              746.51,573.17 752.49,579.17 757.20,585.00              768.56,599.09 777.47,613.72 787.05,629.00              787.05,629.00 814.75,676.00 814.75,676.00              829.16,704.63 844.62,744.67 845.00,777.00              845.00,777.00 845.00,784.00 845.00,784.00              844.78,802.81 830.26,822.79 819.00,837.00              819.00,837.00 756.28,907.00 756.28,907.00              748.66,915.65 734.47,931.54 730.47,942.00              728.79,946.38 727.66,958.63 736.00,955.96              738.52,955.15 750.05,946.08 753.00,943.87              753.00,943.87 793.00,912.61 793.00,912.61              809.23,899.42 825.21,885.79 840.00,871.00              848.17,862.83 856.54,854.71 862.92,845.00              869.00,835.75 872.38,823.65 875.42,813.00              879.35,799.23 881.12,788.22 882.09,774.00              882.30,770.85 882.92,769.31 882.68,766.00              882.68,766.00 880.19,743.00 880.19,743.00              875.83,721.20 860.38,687.31 850.25,667.00              832.78,631.98 810.67,602.79 782.00,576.09              776.49,570.95 765.44,562.27 759.00,558.45              754.91,556.03 751.05,553.94 746.23,554.64 Z            M 801.00,735.00            C 801.00,735.00 777.00,756.83 777.00,756.83              777.00,756.83 724.00,805.83 724.00,805.83              724.00,805.83 665.00,859.83 665.00,859.83              665.00,859.83 613.04,909.00 613.04,909.00              613.04,909.00 563.73,965.00 563.73,965.00              563.73,965.00 510.41,1028.00 510.41,1028.00              504.78,1034.77 489.13,1052.26 486.00,1059.00              496.33,1051.61 511.62,1033.63 521.01,1024.00              521.01,1024.00 566.96,977.00 566.96,977.00              566.96,977.00 601.00,942.04 601.00,942.04              601.00,942.04 647.00,899.17 647.00,899.17              647.00,899.17 676.00,872.96 676.00,872.96              700.92,849.12 724.12,823.61 747.17,798.00              747.17,798.00 783.28,757.00 783.28,757.00              788.22,751.31 798.03,741.33 801.00,735.00 Z            M 1381.00,981.29            C 1376.72,982.01 1372.61,982.87 1369.10,985.64              1359.98,992.84 1363.30,1007.42 1368.48,1016.00              1373.52,1024.35 1384.03,1031.71 1392.00,1037.28              1438.93,1070.08 1526.54,1110.67 1580.00,1138.26              1594.12,1145.54 1607.39,1154.50 1620.00,1164.12              1624.70,1167.70 1631.71,1174.18 1638.00,1172.57              1641.18,1171.75 1643.67,1169.33 1645.83,1166.98              1653.06,1159.12 1654.74,1153.04 1650.94,1143.00              1644.34,1125.60 1620.32,1104.99 1606.00,1093.08              1606.00,1093.08 1561.00,1058.51 1561.00,1058.51              1531.09,1038.56 1485.28,1015.15 1452.00,1001.00              1432.20,992.58 1402.55,979.25 1381.00,981.29 Z            M 486.00,1059.00            C 486.00,1059.00 485.00,1059.00 485.00,1059.00              485.00,1059.00 486.00,1060.00 486.00,1060.00              486.00,1060.00 486.00,1059.00 486.00,1059.00 Z            M 485.00,1060.00            C 485.00,1060.00 484.00,1060.00 484.00,1060.00              484.00,1060.00 485.00,1061.00 485.00,1061.00              485.00,1061.00 485.00,1060.00 485.00,1060.00 Z            M 484.00,1061.00            C 484.00,1061.00 483.00,1061.00 483.00,1061.00              483.00,1061.00 484.00,1062.00 484.00,1062.00              484.00,1062.00 484.00,1061.00 484.00,1061.00 Z            M 483.00,1062.00            C 483.00,1062.00 482.00,1062.00 482.00,1062.00              482.00,1062.00 483.00,1063.00 483.00,1063.00              483.00,1063.00 483.00,1062.00 483.00,1062.00 Z            M 612.65,1097.32            C 606.60,1096.35 600.53,1101.10 596.00,1104.67              584.64,1113.60 572.82,1128.74 565.05,1141.00              549.29,1165.88 546.22,1182.20 544.96,1211.00              544.96,1211.00 544.04,1219.00 544.04,1219.00              544.04,1219.00 544.04,1237.00 544.04,1237.00              544.04,1237.00 544.91,1249.00 544.91,1249.00              546.65,1273.85 552.50,1300.74 569.44,1319.96              579.18,1331.02 601.25,1340.89 616.00,1341.91              633.63,1343.14 641.97,1331.84 639.25,1315.00              638.47,1310.22 637.42,1305.48 635.54,1301.00              635.54,1301.00 613.01,1266.00 613.01,1266.00              599.32,1242.74 597.96,1237.88 589.67,1213.00              585.75,1201.26 582.02,1190.53 582.00,1178.00              582.00,1178.00 582.00,1171.00 582.00,1171.00              582.23,1151.85 596.03,1132.87 605.60,1117.00              607.74,1113.46 615.01,1103.08 614.08,1099.18              613.71,1097.66 612.87,1097.55 612.65,1097.32 Z" />
</svg>