<svg xmlns="http://www.w3.org/2000/svg" viewBox="0.5 4.41 894 799.52">
  <path id="Selection" fill="#303030" stroke="none" stroke-width="1" d="M 1.00,449.00            C 1.00,449.00 27.00,438.57 27.00,438.57              27.00,438.57 40.00,432.45 40.00,432.45              40.00,432.45 99.00,409.40 99.00,409.40              99.00,409.40 117.00,401.40 117.00,401.40              117.00,401.40 160.00,384.57 160.00,384.57              160.00,384.57 174.00,378.01 174.00,378.01              174.00,378.01 240.00,351.26 240.00,351.26              240.00,351.26 254.91,344.93 254.91,344.93              259.12,342.23 271.78,324.22 276.08,319.00              290.09,302.01 314.65,273.88 332.00,261.43              337.47,257.50 352.79,248.92 359.00,246.70              369.10,243.09 377.62,241.93 388.00,236.87              388.00,236.87 397.00,231.45 397.00,231.45              411.11,223.04 421.20,214.36 432.96,202.91              440.85,195.22 448.08,186.49 455.08,178.00              489.79,135.90 508.20,102.09 536.42,57.00              544.91,43.44 556.67,25.77 569.00,15.80              575.21,10.78 582.78,5.76 591.00,5.09              607.46,3.75 615.68,9.81 627.00,21.00              631.69,25.64 634.83,28.69 638.87,34.00              659.43,61.03 683.98,114.65 696.80,147.00              729.30,229.05 755.73,313.64 784.66,397.00              784.66,397.00 809.42,467.00 809.42,467.00              809.42,467.00 826.45,511.00 826.45,511.00              826.45,511.00 841.55,547.00 841.55,547.00              841.55,547.00 849.45,569.00 849.45,569.00              849.45,569.00 864.55,605.00 864.55,605.00              864.55,605.00 872.06,625.00 872.06,625.00              872.06,625.00 894.00,676.00 894.00,676.00              883.53,671.56 860.25,650.49 851.00,642.17              851.00,642.17 833.00,625.96 833.00,625.96              833.00,625.96 810.00,603.17 810.00,603.17              810.00,603.17 788.00,584.80 788.00,584.80              781.06,579.27 764.50,567.02 757.00,563.27              743.84,556.69 729.58,553.41 715.00,552.32              710.75,552.01 703.51,553.96 699.00,554.75              674.60,559.02 644.22,581.78 627.00,599.00              627.00,599.00 599.17,627.00 599.17,627.00              599.17,627.00 581.57,648.00 581.57,648.00              581.57,648.00 547.28,687.00 547.28,687.00              547.28,687.00 508.96,729.99 508.96,729.99              508.96,729.99 480.00,756.05 480.00,756.05              480.00,756.05 458.00,773.78 458.00,773.78              448.89,780.01 420.48,794.76 410.00,798.02              405.99,799.27 390.48,803.85 387.10,803.40              382.79,802.83 380.82,795.48 379.23,792.00              379.23,792.00 364.58,756.00 364.58,756.00              364.58,756.00 354.45,733.00 354.45,733.00              354.45,733.00 345.69,710.00 345.69,710.00              345.69,710.00 332.31,682.00 332.31,682.00              332.31,682.00 323.74,662.00 323.74,662.00              317.77,649.66 302.06,622.99 294.22,612.00              290.08,606.19 285.03,601.03 280.00,596.00              276.79,592.79 271.36,587.12 268.00,584.53              260.30,578.59 246.72,574.24 237.00,574.01              224.98,573.74 216.83,577.86 206.00,582.20              201.77,583.90 195.44,587.58 191.00,585.66              187.25,584.04 172.95,573.23 169.00,570.24              169.00,570.24 143.00,551.63 143.00,551.63              143.00,551.63 130.00,542.71 130.00,542.71              130.00,542.71 64.00,495.15 64.00,495.15              64.00,495.15 20.00,463.63 20.00,463.63              13.59,458.87 6.13,455.20 1.00,449.00 Z"/>
</svg>