<svg xmlns="http://www.w3.org/2000/svg" viewBox="98.5 56.5 244 179.04">
  <path id="maxcdn" fill="#303030" stroke="none" stroke-width="1"
    d="M 106.00,57.00            C 106.00,57.00 284.00,57.00 284.00,57.00              291.68,57.01 298.80,58.33 306.00,61.06              311.73,63.24 317.33,66.32 322.00,70.30              337.20,83.26 342.03,97.64 342.00,117.00              341.98,126.74 339.70,133.66 337.80,143.00              337.80,143.00 329.88,180.00 329.88,180.00              329.88,180.00 322.00,217.00 322.00,217.00              321.41,219.93 319.30,231.66 317.84,233.43              316.19,235.42 312.36,235.00 310.00,235.00              310.00,235.00 272.00,235.00 272.00,235.00              272.00,235.00 278.79,201.00 278.79,201.00              278.79,201.00 292.65,136.00 292.65,136.00              295.12,125.07 302.35,107.55 287.00,102.94              284.33,102.14 281.76,102.04 279.00,102.00              279.00,102.00 259.00,102.00 259.00,102.00              259.00,102.00 252.00,137.00 252.00,137.00              252.00,137.00 237.58,205.00 237.58,205.00              237.58,205.00 233.00,226.00 233.00,226.00              233.00,226.00 230.27,234.01 230.27,234.01              230.27,234.01 223.00,235.00 223.00,235.00              223.00,235.00 185.00,235.00 185.00,235.00              185.00,235.00 195.79,182.00 195.79,182.00              195.79,182.00 207.58,127.00 207.58,127.00              207.58,127.00 213.00,102.00 213.00,102.00              213.00,102.00 173.00,102.00 173.00,102.00              173.00,102.00 165.42,140.00 165.42,140.00              165.42,140.00 151.58,205.00 151.58,205.00              151.58,205.00 147.00,226.00 147.00,226.00              147.00,226.00 144.27,234.01 144.27,234.01              144.27,234.01 137.00,235.00 137.00,235.00              137.00,235.00 99.00,235.00 99.00,235.00              99.00,235.00 105.79,201.00 105.79,201.00              105.79,201.00 119.40,137.00 119.40,137.00              119.40,137.00 126.17,103.00 126.17,103.00              126.17,103.00 120.22,88.00 120.22,88.00              120.22,88.00 106.00,57.00 106.00,57.00 Z" />
</svg>