<svg xmlns="http://www.w3.org/2000/svg" viewBox="780.5 -0.5 1780 389.07">
  <path id="Selection #2" fill="#303030" stroke="none" stroke-width="1" d="M 1576.00,41.00            C 1576.00,41.00 1576.99,35.72 1576.99,35.72              1576.99,35.72 1585.00,32.34 1585.00,32.34              1585.00,32.34 1604.00,26.72 1604.00,26.72              1604.00,26.72 1661.00,9.98 1661.00,9.98              1661.00,9.98 1698.00,0.00 1698.00,0.00              1698.00,0.00 1698.00,339.00 1698.00,339.00              1698.02,350.66 1700.38,360.04 1710.00,367.61              1716.96,373.09 1724.97,373.10 1727.01,375.72              1727.97,376.97 1727.88,378.53 1728.00,380.00              1728.00,380.00 1619.00,380.00 1619.00,380.00              1619.00,371.47 1619.92,347.77 1618.00,341.00              1616.21,350.41 1607.65,360.42 1601.00,367.00              1583.03,384.77 1564.19,388.28 1540.00,388.00              1515.90,387.71 1493.35,374.34 1478.46,356.00              1463.80,337.94 1455.48,314.76 1451.75,292.00              1444.01,244.75 1450.86,188.44 1481.45,150.00              1507.34,117.45 1540.04,103.52 1581.00,104.00              1593.16,104.15 1609.05,107.89 1619.00,115.00              1619.00,115.00 1619.00,72.00 1619.00,72.00              1618.97,65.74 1617.84,57.29 1614.30,52.00              1608.84,43.85 1600.19,41.42 1591.00,40.29              1586.02,39.67 1580.87,39.82 1576.00,41.00 Z            M 1785.00,2.42            C 1791.01,1.75 1798.32,2.98 1804.00,5.05              1831.62,15.15 1840.12,50.07 1823.24,73.00              1815.19,83.93 1804.02,88.21 1791.00,89.71              1786.81,90.20 1785.05,89.71 1781.00,89.13              1750.31,84.72 1734.40,50.88 1749.35,24.00              1757.49,9.36 1769.43,4.68 1785.00,2.42 Z            M 781.00,16.00            C 781.00,16.00 891.00,16.00 891.00,16.00              901.29,16.02 899.58,16.76 905.72,31.00              905.72,31.00 923.20,72.00 923.20,72.00              923.20,72.00 1000.00,253.00 1000.00,253.00              1000.00,253.00 1026.42,191.00 1026.42,191.00              1026.42,191.00 1077.15,72.00 1077.15,72.00              1077.15,72.00 1094.58,31.00 1094.58,31.00              1100.87,16.00 1099.39,16.02 1109.00,16.00              1109.00,16.00 1211.00,16.00 1211.00,16.00              1210.11,26.65 1200.61,20.17 1189.18,31.30              1181.64,38.65 1181.75,45.50 1180.83,55.00              1180.83,55.00 1180.00,66.00 1180.00,66.00              1180.00,66.00 1180.00,176.00 1180.00,176.00              1180.00,176.00 1181.00,194.00 1181.00,194.00              1181.00,194.00 1181.00,300.00 1181.00,300.00              1181.00,300.00 1181.00,336.00 1181.00,336.00              1181.00,346.17 1180.09,354.24 1186.79,362.91              1192.00,369.67 1202.76,373.73 1211.00,375.00              1211.00,375.00 1211.00,380.00 1211.00,380.00              1211.00,380.00 1071.00,380.00 1071.00,380.00              1071.00,380.00 1071.00,375.00 1071.00,375.00              1075.50,374.37 1078.82,373.57 1083.00,371.69              1102.20,363.03 1101.00,350.98 1101.00,333.00              1101.00,333.00 1101.00,308.00 1101.00,308.00              1101.00,308.00 1101.00,145.00 1101.00,145.00              1101.00,145.00 1101.00,95.00 1101.00,95.00              1101.00,87.99 1101.77,75.24 1100.00,69.00              1100.00,69.00 1088.42,98.00 1088.42,98.00              1088.42,98.00 1065.85,151.00 1065.85,151.00              1065.85,151.00 1002.58,300.00 1002.58,300.00              1002.58,300.00 981.72,349.00 981.72,349.00              981.72,349.00 969.00,380.00 969.00,380.00              969.00,380.00 960.64,379.01 960.64,379.01              960.64,379.01 952.28,362.00 952.28,362.00              952.28,362.00 929.85,309.00 929.85,309.00              929.85,309.00 861.85,149.00 861.85,149.00              861.85,149.00 831.00,77.00 831.00,77.00              831.00,77.00 831.00,339.00 831.00,339.00              831.02,349.99 832.92,359.40 842.00,366.61              845.00,368.99 849.37,371.04 853.00,372.25              855.21,372.99 858.57,373.53 859.98,375.51              860.94,376.87 860.87,378.44 861.00,380.00              861.00,380.00 781.00,380.00 781.00,380.00              781.82,370.13 788.67,375.13 799.00,367.45              808.99,360.01 810.98,351.80 811.00,340.00              811.00,340.00 811.00,56.00 811.00,56.00              810.98,44.20 808.99,35.99 799.00,28.55              788.67,20.87 781.82,25.87 781.00,16.00 Z            M 1428.00,276.00            C 1435.18,279.16 1432.73,283.40 1431.40,290.00              1429.27,300.56 1425.81,312.09 1421.57,322.00              1405.99,358.44 1372.02,387.52 1331.00,388.00              1331.00,388.00 1316.00,388.00 1316.00,388.00              1297.02,387.97 1275.53,380.75 1260.00,369.96              1238.21,354.82 1223.93,331.81 1215.67,307.00              1206.65,279.94 1206.68,260.88 1207.00,233.00              1207.00,233.00 1208.73,217.00 1208.73,217.00              1212.99,187.22 1225.01,157.88 1246.17,136.09              1285.82,95.24 1361.47,92.51 1402.99,132.09              1409.69,138.48 1416.88,148.76 1421.22,157.00              1432.89,179.17 1434.04,198.85 1436.00,223.00              1436.00,223.00 1273.08,223.00 1273.08,223.00              1273.08,223.00 1273.08,242.00 1273.08,242.00              1276.03,271.96 1291.98,301.54 1318.00,317.39              1328.14,323.56 1341.06,327.86 1353.00,328.00              1363.28,328.11 1373.61,325.92 1383.00,321.69              1406.80,310.96 1414.69,296.45 1428.00,276.00 Z            M 2243.00,146.00            C 2245.98,135.77 2255.57,124.74 2264.00,118.48              2288.07,100.59 2328.35,98.85 2354.00,114.46              2363.72,120.38 2372.23,129.69 2377.11,140.00              2377.11,140.00 2382.00,152.00 2382.00,152.00              2402.03,94.62 2489.30,88.16 2517.53,134.00              2532.25,157.89 2530.00,184.24 2530.00,211.00              2530.00,211.00 2530.00,341.00 2530.00,341.00              2530.02,352.98 2532.74,361.01 2543.00,368.20              2549.14,372.50 2557.29,373.52 2559.01,375.72              2559.97,376.97 2559.88,378.53 2560.00,380.00              2560.00,380.00 2451.00,380.00 2451.00,380.00              2451.00,380.00 2451.00,284.00 2451.00,284.00              2451.00,284.00 2451.00,185.00 2451.00,185.00              2450.84,171.94 2447.90,157.29 2437.99,148.10              2431.11,141.73 2424.94,140.90 2416.00,141.00              2402.67,141.16 2391.28,151.05 2385.96,162.83              2383.84,167.24 2385.99,177.40 2385.96,183.00              2385.96,183.00 2385.96,326.00 2385.96,326.00              2386.00,342.06 2382.21,362.38 2399.00,371.59              2402.07,373.27 2405.61,374.23 2409.00,375.00              2409.00,375.00 2409.00,380.00 2409.00,380.00              2409.00,380.00 2307.00,380.00 2307.00,380.00              2307.00,380.00 2307.00,284.00 2307.00,284.00              2307.00,284.00 2307.00,187.00 2307.00,187.00              2306.82,172.16 2303.49,153.71 2290.00,145.13              2275.63,136.00 2256.44,141.71 2247.04,155.00              2245.46,157.23 2243.43,160.39 2242.65,163.00              2241.89,165.51 2242.00,168.39 2242.00,171.00              2242.00,171.00 2242.00,323.00 2242.00,323.00              2242.00,323.00 2242.00,341.00 2242.00,341.00              2242.00,353.82 2242.14,364.53 2255.00,371.59              2258.07,373.27 2261.61,374.23 2265.00,375.00              2265.00,375.00 2265.00,380.00 2265.00,380.00              2265.00,380.00 2163.00,380.00 2163.00,380.00              2163.00,380.00 2163.00,175.00 2163.00,175.00              2162.74,153.24 2155.00,141.06 2132.00,140.00              2132.00,140.00 2133.60,134.93 2133.60,134.93              2133.60,134.93 2141.00,132.15 2141.00,132.15              2141.00,132.15 2157.00,127.71 2157.00,127.71              2157.00,127.71 2207.00,114.00 2207.00,114.00              2207.00,114.00 2242.00,105.00 2242.00,105.00              2242.00,113.63 2241.10,139.32 2243.00,146.00 Z            M 1721.00,141.00            C 1721.00,141.00 1722.60,135.93 1722.60,135.93              1722.60,135.93 1730.00,133.14 1730.00,133.14              1730.00,133.14 1746.00,128.58 1746.00,128.58              1746.00,128.58 1799.00,113.29 1799.00,113.29              1799.00,113.29 1830.00,105.00 1830.00,105.00              1830.00,105.00 1830.00,307.00 1830.00,307.00              1830.00,307.00 1830.00,329.00 1830.00,329.00              1830.00,344.43 1829.73,360.63 1845.00,369.47              1849.59,372.13 1855.80,373.95 1861.00,375.00              1861.00,375.00 1861.00,380.00 1861.00,380.00              1861.00,380.00 1751.00,380.00 1751.00,380.00              1751.00,380.00 1751.00,203.00 1751.00,203.00              1751.00,203.00 1751.00,183.00 1751.00,183.00              1751.00,170.36 1751.59,154.85 1740.00,146.65              1734.81,142.97 1727.16,142.12 1721.00,141.00 Z            M 1851.00,141.00            C 1851.00,141.00 1851.99,136.70 1851.99,136.70              1851.99,136.70 1859.00,133.58 1859.00,133.58              1859.00,133.58 1876.00,128.71 1876.00,128.71              1876.00,128.71 1929.00,113.58 1929.00,113.58              1929.00,113.58 1961.00,105.00 1961.00,105.00              1961.00,105.00 1961.00,302.00 1961.00,302.00              1961.03,318.67 1966.47,335.53 1983.00,342.66              1996.59,348.53 2013.88,343.86 2023.54,332.91              2025.38,330.82 2027.70,327.69 2028.49,325.00              2029.09,322.96 2029.00,320.14 2029.00,318.00              2029.00,318.00 2029.00,169.00 2029.00,169.00              2028.78,150.52 2021.57,143.31 2004.00,140.00              2004.00,140.00 2004.99,135.70 2004.99,135.70              2004.99,135.70 2012.00,132.42 2012.00,132.42              2012.00,132.42 2028.00,127.86 2028.00,127.86              2028.00,127.86 2078.00,113.28 2078.00,113.28              2078.00,113.28 2108.00,105.00 2108.00,105.00              2108.00,105.00 2108.00,332.00 2108.00,332.00              2108.00,332.00 2108.83,341.00 2108.83,341.00              2109.73,350.32 2109.95,357.58 2117.18,364.82              2122.47,370.10 2131.80,373.36 2139.00,375.00              2139.00,375.00 2139.00,381.00 2139.00,381.00              2139.00,381.00 2029.00,381.00 2029.00,381.00              2029.00,372.47 2029.92,348.77 2028.00,342.00              2025.51,350.52 2018.21,359.78 2012.00,366.00              2003.59,374.41 1993.33,380.75 1982.00,384.48              1969.86,388.48 1962.43,388.14 1950.00,388.00              1931.34,387.78 1912.57,380.07 1900.18,366.00              1888.42,352.63 1882.08,328.60 1882.00,311.00              1882.00,311.00 1882.00,204.00 1882.00,204.00              1882.00,192.40 1882.71,178.24 1881.13,167.00              1880.05,159.27 1878.48,152.65 1871.96,147.55              1866.20,143.06 1858.05,141.93 1851.00,141.00 Z            M 1586.00,120.29            C 1559.78,124.63 1549.16,146.94 1542.02,170.00              1532.58,200.53 1532.30,245.56 1537.59,277.00              1540.40,293.74 1546.19,313.44 1556.68,327.00              1564.17,336.68 1574.35,344.45 1587.00,344.96              1599.42,345.46 1614.52,338.72 1618.35,326.00              1619.11,323.50 1619.00,320.60 1619.00,318.00              1619.00,318.00 1619.00,147.00 1619.00,147.00              1619.00,144.35 1619.11,141.57 1618.36,139.00              1614.61,126.02 1598.55,119.21 1586.00,120.29 Z            M 1366.00,208.00            C 1366.00,184.16 1366.39,147.89 1347.96,130.09              1332.48,115.15 1309.61,119.58 1296.30,135.00              1281.47,152.19 1274.49,185.63 1274.00,208.00              1274.00,208.00 1366.00,208.00 1366.00,208.00 Z"/>
</svg>