<svg xmlns="http://www.w3.org/2000/svg" viewBox="-0.5 3.71 682 387.79">
  <path id="medium" fill="#303030" stroke="none" stroke-width="1"
    d="M 175.00,4.21            C 175.00,4.21 201.00,4.21 201.00,4.21              222.12,4.03 248.64,10.84 268.00,19.15              288.69,28.04 308.96,41.15 325.00,57.00              346.82,78.56 363.00,103.04 373.31,132.00              396.83,198.11 381.87,274.36 335.71,327.00              321.33,343.41 303.95,356.87 285.00,367.58              262.23,380.45 228.27,390.96 202.00,391.00              202.00,391.00 180.00,391.00 180.00,391.00              171.37,390.90 156.60,388.35 148.00,386.42              83.17,371.92 31.44,323.32 9.69,261.00              5.05,247.69 0.02,224.01 0.00,210.00              0.00,210.00 0.00,185.00 0.00,185.00              0.02,169.46 5.11,147.70 10.31,133.00              26.15,88.22 56.95,50.10 99.00,27.31              117.91,17.06 137.77,10.00 159.00,6.43              159.00,6.43 175.00,4.21 175.00,4.21 Z            M 491.00,15.44            C 534.57,9.85 562.58,53.88 576.19,89.00              586.13,114.65 591.23,141.70 593.96,169.00              593.96,169.00 593.96,179.00 593.96,179.00              593.96,179.00 595.00,191.00 595.00,191.00              595.07,233.49 589.80,272.34 573.80,312.00              560.90,343.97 535.15,380.43 497.00,380.00              455.29,379.52 428.86,331.59 417.33,297.00              395.72,232.16 396.26,149.66 421.80,86.00              434.41,54.58 455.36,22.02 491.00,15.44 Z            M 644.00,34.65            C 653.59,32.91 658.26,41.31 661.57,49.00              668.39,64.80 672.65,87.83 675.00,105.00              677.61,124.08 679.97,143.75 680.00,163.00              680.00,163.00 681.00,180.00 681.00,180.00              681.00,180.00 681.00,215.00 681.00,215.00              681.00,215.00 680.00,232.00 680.00,232.00              679.97,253.96 676.92,276.25 673.87,298.00              671.89,312.08 667.41,331.96 661.99,345.00              659.73,350.43 655.81,358.07 650.00,360.26              641.09,363.62 635.36,353.62 632.31,347.00              625.44,332.12 620.15,305.51 618.15,289.00              618.15,289.00 613.91,242.00 613.91,242.00              613.91,242.00 613.00,230.00 613.00,230.00              613.00,230.00 613.00,210.00 613.00,210.00              613.00,210.00 612.09,196.00 612.09,196.00              612.09,196.00 613.00,185.00 613.00,185.00              613.00,185.00 613.00,165.00 613.00,165.00              613.00,165.00 613.91,153.00 613.91,153.00              613.91,153.00 619.75,96.00 619.75,96.00              622.20,81.30 625.10,67.00 630.32,53.00              633.11,45.53 636.25,37.96 644.00,34.65 Z" />
</svg>