<svg xmlns="http://www.w3.org/2000/svg" viewBox="-0.5 -0.36 2047 2047.86">
  <path id="mercedes" fill="#303030" stroke="none" stroke-width="1"
    d="M 979.00,0.14            C 979.00,0.14 1012.00,0.14 1012.00,0.14              1012.00,0.14 1061.00,0.14 1061.00,0.14              1061.00,0.14 1082.00,1.00 1082.00,1.00              1082.00,1.00 1092.00,1.91 1092.00,1.91              1092.00,1.91 1129.00,4.83 1129.00,4.83              1177.97,9.73 1226.25,18.19 1274.00,30.13              1443.82,72.58 1595.97,156.81 1724.00,276.09              1724.00,276.09 1748.00,300.00 1748.00,300.00              1870.87,422.87 1961.84,577.49 2008.42,745.00              2023.38,798.79 2034.23,853.48 2040.16,909.00              2040.16,909.00 2044.09,955.00 2044.09,955.00              2044.09,955.00 2045.00,965.00 2045.00,965.00              2045.00,965.00 2046.00,986.00 2046.00,986.00              2046.00,986.00 2046.00,1062.00 2046.00,1062.00              2046.00,1062.00 2045.00,1081.00 2045.00,1081.00              2045.00,1081.00 2044.04,1092.00 2044.04,1092.00              2044.04,1092.00 2037.28,1161.00 2037.28,1161.00              2028.16,1230.27 2011.74,1299.15 1988.31,1365.00              1940.08,1500.54 1864.57,1624.94 1765.04,1729.00              1765.04,1729.00 1736.00,1758.96 1736.00,1758.96              1608.27,1881.13 1454.09,1969.15 1283.00,2014.12              1228.37,2028.47 1173.15,2037.73 1117.00,2043.17              1117.00,2043.17 1078.00,2046.00 1078.00,2046.00              1078.00,2046.00 1061.00,2047.00 1061.00,2047.00              1061.00,2047.00 987.00,2047.00 987.00,2047.00              987.00,2047.00 966.00,2046.00 966.00,2046.00              966.00,2046.00 956.00,2045.09 956.00,2045.09              956.00,2045.09 893.00,2039.15 893.00,2039.15              826.54,2031.21 759.45,2015.15 696.00,1994.00              593.77,1959.92 500.72,1911.05 414.00,1847.12              290.00,1755.71 185.39,1632.93 114.74,1496.00              114.74,1496.00 104.26,1476.00 104.26,1476.00              65.38,1395.67 35.99,1310.65 18.80,1223.00              11.23,1184.40 5.65,1145.21 2.91,1106.00              2.91,1106.00 1.00,1076.00 1.00,1076.00              1.00,1076.00 0.00,1060.00 0.00,1060.00              0.00,1060.00 0.00,986.00 0.00,986.00              0.00,986.00 1.00,965.00 1.00,965.00              1.00,965.00 1.91,955.00 1.91,955.00              3.98,924.80 6.92,894.97 11.58,865.00              24.74,780.21 48.27,696.77 82.42,618.00              198.42,350.50 422.16,143.64 699.00,51.35              756.75,32.10 819.66,17.41 880.00,9.28              880.00,9.28 948.00,2.09 948.00,2.09              948.00,2.09 965.00,1.00 965.00,1.00              970.42,0.94 973.46,1.21 979.00,0.14 Z            M 996.00,103.00            C 945.67,103.00 876.45,112.71 827.00,123.58              661.03,160.03 510.92,239.39 388.00,356.96              388.00,356.96 366.01,378.00 366.01,378.00              366.01,378.00 357.91,387.00 357.91,387.00              357.91,387.00 337.17,409.00 337.17,409.00              272.09,481.31 219.37,564.20 179.86,653.00              145.05,731.23 120.01,822.97 109.85,908.00              109.85,908.00 104.91,961.00 104.91,961.00              104.91,961.00 104.00,972.00 104.00,972.00              104.00,972.00 103.00,993.00 103.00,993.00              103.00,993.00 103.00,1053.00 103.00,1053.00              103.00,1053.00 104.00,1075.00 104.00,1075.00              104.00,1075.00 104.91,1085.00 104.91,1085.00              104.91,1085.00 111.87,1153.00 111.87,1153.00              122.28,1227.81 141.76,1298.91 169.80,1369.00              169.80,1369.00 199.75,1435.00 199.75,1435.00              199.75,1435.00 207.75,1451.00 207.75,1451.00              208.72,1452.92 210.61,1457.16 212.39,1458.26              214.84,1459.76 217.06,1457.80 219.00,1456.40              219.00,1456.40 231.00,1447.00 231.00,1447.00              231.00,1447.00 286.00,1404.00 286.00,1404.00              286.00,1404.00 518.00,1222.65 518.00,1222.65              518.00,1222.65 772.00,1024.21 772.00,1024.21              772.00,1024.21 846.00,966.42 846.00,966.42              846.00,966.42 868.00,949.21 868.00,949.21              870.82,947.00 877.30,942.46 879.02,939.71              880.99,936.55 882.60,920.59 883.15,916.00              883.15,916.00 889.27,872.00 889.27,872.00              889.27,872.00 912.27,706.00 912.27,706.00              912.27,706.00 942.28,489.00 942.28,489.00              942.28,489.00 969.72,292.00 969.72,292.00              969.72,292.00 986.73,169.00 986.73,169.00              986.73,169.00 996.00,103.00 996.00,103.00 Z            M 1052.00,103.00            C 1052.00,103.00 1061.27,167.00 1061.27,167.00              1061.27,167.00 1079.27,296.00 1079.27,296.00              1079.27,296.00 1136.87,708.00 1136.87,708.00              1136.87,708.00 1159.87,872.00 1159.87,872.00              1159.87,872.00 1166.58,920.00 1166.58,920.00              1167.14,924.01 1168.23,936.74 1169.98,939.56              1171.54,942.08 1178.34,946.91 1181.00,949.00              1181.00,949.00 1204.00,966.88 1204.00,966.88              1204.00,966.88 1278.00,1024.65 1278.00,1024.65              1278.00,1024.65 1530.00,1221.21 1530.00,1221.21              1530.00,1221.21 1689.00,1345.58 1689.00,1345.58              1689.00,1345.58 1761.00,1401.80 1761.00,1401.80              1761.00,1401.80 1816.00,1444.80 1816.00,1444.80              1816.00,1444.80 1828.00,1454.19 1828.00,1454.19              1829.89,1455.56 1832.19,1457.57 1834.61,1456.18              1836.51,1455.08 1838.72,1450.06 1839.75,1448.00              1839.75,1448.00 1849.75,1428.00 1849.75,1428.00              1863.25,1401.01 1875.22,1373.31 1885.68,1345.00              1909.64,1280.17 1924.41,1221.37 1934.27,1153.00              1938.07,1126.65 1941.69,1094.46 1942.00,1068.00              1942.00,1068.00 1943.00,1053.00 1943.00,1053.00              1943.00,1053.00 1943.00,993.00 1943.00,993.00              1943.00,993.00 1942.00,972.00 1942.00,972.00              1942.00,972.00 1941.09,962.00 1941.09,962.00              1941.09,962.00 1937.16,917.00 1937.16,917.00              1931.13,860.63 1918.84,804.11 1902.02,750.00              1834.98,534.25 1689.92,348.79 1496.00,232.45              1413.56,182.98 1321.75,146.57 1228.00,125.35              1193.39,117.51 1158.31,111.36 1123.00,107.83              1123.00,107.83 1091.00,104.91 1091.00,104.91              1091.00,104.91 1080.00,104.00 1080.00,104.00              1080.00,104.00 1062.00,103.00 1062.00,103.00              1062.00,103.00 1052.00,103.00 1052.00,103.00 Z            M 1803.00,1510.00            C 1803.00,1510.00 1746.00,1487.20 1746.00,1487.20              1746.00,1487.20 1623.00,1437.20 1623.00,1437.20              1623.00,1437.20 1227.00,1276.80 1227.00,1276.80              1227.00,1276.80 1129.00,1237.01 1129.00,1237.01              1129.00,1237.01 1093.00,1222.58 1093.00,1222.58              1093.00,1222.58 1045.00,1203.00 1045.00,1203.00              1045.00,1203.00 1023.00,1194.71 1023.00,1194.71              1018.95,1194.30 1008.21,1199.27 1004.00,1201.01              1004.00,1201.01 961.00,1218.72 961.00,1218.72              961.00,1218.72 904.00,1242.01 904.00,1242.01              904.00,1242.01 813.00,1279.40 813.00,1279.40              813.00,1279.40 697.00,1326.99 697.00,1326.99              697.00,1326.99 446.00,1429.99 446.00,1429.99              446.00,1429.99 321.00,1481.40 321.00,1481.40              321.00,1481.40 245.00,1513.00 245.00,1513.00              251.58,1526.49 279.08,1564.60 289.13,1578.00              328.59,1630.61 372.41,1677.16 422.00,1720.28              554.30,1835.33 723.15,1912.29 897.00,1935.72              897.00,1935.72 962.00,1942.09 962.00,1942.09              962.00,1942.09 972.00,1943.00 972.00,1943.00              972.00,1943.00 993.00,1944.00 993.00,1944.00              993.00,1944.00 1055.00,1944.00 1055.00,1944.00              1055.00,1944.00 1076.00,1943.00 1076.00,1943.00              1076.00,1943.00 1086.00,1942.09 1086.00,1942.09              1086.00,1942.09 1130.00,1938.16 1130.00,1938.16              1181.32,1932.67 1236.57,1921.17 1286.00,1906.28              1370.28,1880.90 1451.29,1843.47 1525.00,1795.34              1608.75,1740.66 1683.88,1672.95 1745.42,1594.00              1745.42,1594.00 1784.02,1541.00 1784.02,1541.00              1788.84,1534.01 1800.70,1517.26 1803.00,1510.00 Z" />
</svg>