<svg xmlns="http://www.w3.org/2000/svg" viewBox="-0.5 -0.29 1025 1024.8">
  <path id="Selection" fill="#303030" stroke="none" stroke-width="1" d="M 479.00,0.21            C 479.00,0.21 537.00,0.21 537.00,0.21              537.00,0.21 550.00,0.96 550.00,0.96              592.11,2.80 634.65,11.18 675.00,23.28              758.73,48.40 836.28,96.00 895.91,160.00              956.32,224.84 999.81,311.73 1015.58,399.00              1019.31,419.65 1021.66,440.12 1023.09,461.00              1023.09,461.00 1024.00,473.00 1024.00,473.00              1024.00,473.00 1024.00,523.00 1024.00,523.00              1024.00,523.00 1023.09,533.00 1023.09,533.00              1021.61,554.56 1019.25,575.76 1015.00,597.00              1005.24,645.79 989.41,692.15 965.69,736.00              898.24,860.71 778.57,947.78 641.00,979.35              612.98,985.78 584.65,990.12 556.00,992.09              556.00,992.09 546.00,993.00 546.00,993.00              546.00,993.00 524.00,994.00 524.00,994.00              524.00,994.00 499.00,994.00 499.00,994.00              499.00,994.00 478.00,993.00 478.00,993.00              478.00,993.00 468.00,992.09 468.00,992.09              444.34,990.43 420.18,987.59 397.00,982.35              397.00,982.35 372.00,976.63 372.00,976.63              363.86,974.57 357.65,972.24 349.00,973.17              340.19,974.12 326.51,981.05 318.00,984.72              318.00,984.72 256.00,1012.00 256.00,1012.00              238.83,1019.36 234.35,1024.22 215.00,1024.00              196.89,1023.78 182.10,1010.30 177.90,993.00              177.90,993.00 176.00,967.00 176.00,967.00              176.00,967.00 176.00,951.00 176.00,951.00              176.00,951.00 175.00,935.00 175.00,935.00              175.00,935.00 175.00,919.00 175.00,919.00              175.00,919.00 174.04,907.00 174.04,907.00              174.04,907.00 174.04,895.00 174.04,895.00              173.74,873.13 158.27,863.61 144.00,849.96              131.02,837.55 118.52,822.88 107.08,809.00              66.19,759.38 36.02,698.72 18.42,637.00              8.71,602.94 3.32,568.25 0.91,533.00              0.91,533.00 0.00,521.00 0.00,521.00              0.00,521.00 0.00,470.00 0.00,470.00              0.00,470.00 0.91,460.00 0.91,460.00              0.91,460.00 5.73,415.00 5.73,415.00              16.88,337.64 49.54,260.44 96.37,198.00              135.32,146.08 185.02,102.72 241.00,70.01              289.81,41.49 348.43,20.03 404.00,9.61              404.00,9.61 455.00,2.17 455.00,2.17              455.00,2.17 479.00,0.21 479.00,0.21 Z            M 796.00,345.30            C 787.34,346.99 783.86,350.47 777.00,355.63              777.00,355.63 752.00,374.63 752.00,374.63              752.00,374.63 656.00,447.63 656.00,447.63              656.00,447.63 634.00,464.21 634.00,464.21              624.38,471.75 616.02,479.49 603.00,478.96              592.22,478.53 586.22,473.29 578.00,467.13              578.00,467.13 553.00,448.37 553.00,448.37              553.00,448.37 490.00,401.13 490.00,401.13              464.65,382.12 450.62,367.61 417.00,368.00              397.22,368.24 376.27,378.36 363.17,393.00              356.25,400.74 347.62,415.82 341.66,425.00              341.66,425.00 297.58,495.00 297.58,495.00              297.58,495.00 239.58,587.00 239.58,587.00              239.58,587.00 209.95,634.00 209.95,634.00              201.98,646.56 195.39,659.02 208.18,671.82              215.29,678.92 225.90,680.96 235.00,676.60              238.96,674.70 245.27,669.67 249.00,666.87              249.00,666.87 269.00,651.63 269.00,651.63              269.00,651.63 345.00,593.88 345.00,593.88              345.00,593.88 370.00,575.00 370.00,575.00              370.00,575.00 393.00,557.58 393.00,557.58              400.69,551.59 407.73,545.49 418.00,545.04              422.68,544.84 427.70,545.63 432.00,547.53              438.01,550.17 462.04,568.91 469.00,574.13              469.00,574.13 540.00,627.37 540.00,627.37              559.22,641.79 575.55,655.70 601.00,656.00              624.17,656.27 645.07,648.49 660.83,631.00              668.11,622.92 681.49,600.34 688.05,590.00              688.05,590.00 798.58,415.00 798.58,415.00              798.58,415.00 815.58,388.00 815.58,388.00              819.54,381.61 823.39,375.83 822.91,368.00              822.04,353.86 809.90,344.04 796.00,345.30 Z"/>
</svg>