<svg xmlns="http://www.w3.org/2000/svg" viewBox="200.32 344.66 623.37 335">
  <path id="messenger-alt" fill="#303030" stroke="none" stroke-width="1"
    d="M 794.00,345.52            C 814.35,342.29 829.35,361.27 820.68,380.00              820.68,380.00 803.34,408.00 803.34,408.00              803.34,408.00 778.05,448.00 778.05,448.00              778.05,448.00 687.81,591.00 687.81,591.00              680.62,602.57 667.48,624.81 658.71,633.83              646.19,646.74 626.09,655.91 608.00,656.00              608.00,656.00 599.00,656.00 599.00,656.00              575.30,655.72 557.92,641.32 540.00,627.87              540.00,627.87 463.00,570.13 463.00,570.13              454.03,563.40 437.02,548.87 427.00,546.16              412.53,542.24 402.68,550.42 392.00,558.79              392.00,558.79 379.00,568.63 379.00,568.63              379.00,568.63 271.00,650.63 271.00,650.63              271.00,650.63 247.00,668.87 247.00,668.87              236.76,676.54 226.94,683.11 214.00,676.33              203.45,670.80 198.21,658.36 202.11,647.00              203.68,642.41 213.79,626.92 217.00,622.00              217.00,622.00 240.32,585.00 240.32,585.00              240.32,585.00 330.58,442.00 330.58,442.00              330.58,442.00 346.95,416.00 346.95,416.00              360.18,395.13 370.70,379.01 396.00,371.44              408.00,367.85 412.78,367.86 425.00,368.00              448.71,368.28 466.05,382.66 484.00,396.13              484.00,396.13 557.00,450.87 557.00,450.87              557.00,450.87 579.00,467.37 579.00,467.37              586.64,473.11 593.89,478.92 604.00,478.92              613.97,478.92 621.44,473.29 629.00,467.63              629.00,467.63 657.00,446.37 657.00,446.37              657.00,446.37 746.00,378.79 746.00,378.79              746.00,378.79 771.00,359.79 771.00,359.79              778.17,354.17 785.07,347.98 794.00,345.52 Z" />
</svg>