<svg xmlns="http://www.w3.org/2000/svg" viewBox="4166.5 4166.5 20679 4169">
  <path id="meta-wordmark" fill="#303030" stroke="none" stroke-width="1"
    d="M 7305.00,6133.00            C 7300.62,6138.39 7296.41,6146.75 7292.85,6153.00              7292.85,6153.00 7273.14,6188.00 7273.14,6188.00              7273.14,6188.00 7212.58,6295.00 7212.58,6295.00              7212.58,6295.00 7010.58,6652.00 7010.58,6652.00              7010.58,6652.00 6784.58,7049.00 6784.58,7049.00              6717.44,7164.68 6647.11,7278.58 6574.69,7391.00              6483.14,7533.13 6385.64,7672.19 6278.42,7803.00              6138.65,7973.53 5971.62,8140.64 5771.00,8237.74              5690.51,8276.70 5604.14,8303.62 5516.00,8318.41              5480.15,8324.43 5444.22,8328.60 5408.00,8331.09              5408.00,8331.09 5374.00,8333.00 5374.00,8333.00              5374.00,8333.00 5361.00,8334.00 5361.00,8334.00              5361.00,8334.00 5341.00,8334.00 5341.00,8334.00              5341.00,8334.00 5324.00,8335.00 5324.00,8335.00              5324.00,8335.00 5289.00,8335.00 5289.00,8335.00              5289.00,8335.00 5272.00,8334.00 5272.00,8334.00              5272.00,8334.00 5255.00,8334.00 5255.00,8334.00              5255.00,8334.00 5234.00,8333.00 5234.00,8333.00              5234.00,8333.00 5223.00,8332.04 5223.00,8332.04              5223.00,8332.04 5147.00,8325.15 5147.00,8325.15              5081.04,8317.27 5018.56,8303.43 4955.00,8284.28              4890.53,8264.86 4825.81,8236.79 4767.00,8204.14              4767.00,8204.14 4711.00,8170.42 4711.00,8170.42              4662.24,8139.90 4611.53,8098.76 4570.00,8059.04              4570.00,8059.04 4541.04,8031.00 4541.04,8031.00              4350.63,7831.93 4249.86,7578.70 4201.58,7311.00              4192.63,7261.41 4185.18,7211.14 4180.17,7161.00              4180.17,7161.00 4176.83,7124.00 4176.83,7124.00              4176.83,7124.00 4172.91,7074.00 4172.91,7074.00              4172.91,7074.00 4171.00,7043.00 4171.00,7043.00              4171.00,7043.00 4170.04,7033.00 4170.04,7033.00              4170.04,7033.00 4170.04,7022.00 4170.04,7022.00              4170.04,7022.00 4168.96,7007.00 4168.96,7007.00              4168.96,7007.00 4168.96,6993.00 4168.96,6993.00              4168.96,6993.00 4168.00,6982.00 4168.00,6982.00              4168.00,6982.00 4168.00,6959.00 4168.00,6959.00              4168.00,6959.00 4167.00,6942.00 4167.00,6942.00              4167.00,6942.00 4167.00,6847.00 4167.00,6847.00              4167.00,6847.00 4168.00,6832.00 4168.00,6832.00              4168.00,6832.00 4168.00,6803.00 4168.00,6803.00              4168.00,6803.00 4169.00,6786.00 4169.00,6786.00              4169.00,6786.00 4170.00,6744.00 4170.00,6744.00              4170.00,6744.00 4171.00,6729.00 4171.00,6729.00              4171.00,6729.00 4173.00,6684.00 4173.00,6684.00              4173.00,6684.00 4174.00,6674.00 4174.00,6674.00              4174.00,6674.00 4174.00,6665.00 4174.00,6665.00              4174.00,6665.00 4175.91,6642.00 4175.91,6642.00              4175.91,6642.00 4186.83,6512.00 4186.83,6512.00              4200.42,6376.07 4221.37,6240.69 4249.79,6107.00              4307.99,5833.21 4395.69,5561.16 4517.74,5309.00              4517.74,5309.00 4556.26,5231.00 4556.26,5231.00              4651.51,5046.40 4765.95,4871.00 4902.28,4714.00              4902.28,4714.00 4956.91,4654.00 4956.91,4654.00              5080.88,4520.93 5224.80,4405.34 5385.00,4318.69              5385.00,4318.69 5428.00,4296.26 5428.00,4296.26              5494.28,4264.18 5561.46,4237.44 5632.00,4216.28              5689.27,4199.10 5751.72,4185.52 5811.00,4177.72              5811.00,4177.72 5889.00,4169.91 5889.00,4169.91              5889.00,4169.91 5899.00,4169.00 5899.00,4169.00              5899.00,4169.00 5916.00,4168.00 5916.00,4168.00              5916.00,4168.00 5928.00,4168.00 5928.00,4168.00              5928.00,4168.00 5944.00,4167.00 5944.00,4167.00              5944.00,4167.00 5999.00,4167.00 5999.00,4167.00              5999.00,4167.00 6014.00,4168.00 6014.00,4168.00              6014.00,4168.00 6029.00,4168.00 6029.00,4168.00              6029.00,4168.00 6044.00,4169.00 6044.00,4169.00              6044.00,4169.00 6075.00,4170.91 6075.00,4170.91              6075.00,4170.91 6130.00,4175.84 6130.00,4175.84              6193.42,4182.62 6256.32,4194.67 6318.00,4210.88              6592.89,4283.13 6825.07,4447.86 7028.00,4641.96              7028.00,4641.96 7037.00,4650.04 7037.00,4650.04              7037.00,4650.04 7072.00,4685.00 7072.00,4685.00              7072.00,4685.00 7144.91,4760.00 7144.91,4760.00              7203.17,4822.54 7259.29,4887.09 7313.75,4953.00              7313.75,4953.00 7362.40,5013.00 7362.40,5013.00              7362.40,5013.00 7388.00,5045.00 7388.00,5045.00              7388.00,5045.00 7451.12,4961.00 7451.12,4961.00              7496.91,4900.98 7544.64,4842.36 7593.73,4785.00              7711.82,4647.02 7843.96,4514.07 7991.00,4406.85              8090.36,4334.40 8200.93,4270.75 8317.00,4229.31              8386.47,4204.51 8460.65,4184.64 8534.00,4175.85              8534.00,4175.85 8592.00,4169.91 8592.00,4169.91              8592.00,4169.91 8603.00,4169.00 8603.00,4169.00              8603.00,4169.00 8616.00,4168.04 8616.00,4168.04              8616.00,4168.04 8629.00,4168.04 8629.00,4168.04              8629.00,4168.04 8645.00,4167.00 8645.00,4167.00              8645.00,4167.00 8692.00,4167.00 8692.00,4167.00              8692.00,4167.00 8705.00,4167.98 8705.00,4167.98              8705.00,4167.98 8720.00,4167.98 8720.00,4167.98              8720.00,4167.98 8737.00,4169.00 8737.00,4169.00              8737.00,4169.00 8747.00,4169.91 8747.00,4169.91              8747.00,4169.91 8792.00,4173.84 8792.00,4173.84              8839.36,4178.90 8886.64,4186.89 8933.00,4197.88              9315.55,4288.61 9624.92,4558.63 9850.42,4871.00              9980.51,5051.19 10087.67,5252.29 10171.40,5458.00              10193.31,5511.84 10213.21,5566.26 10232.69,5621.00              10289.27,5780.00 10341.43,5979.76 10371.42,6146.00              10371.42,6146.00 10394.73,6284.00 10394.73,6284.00              10403.24,6341.80 10411.02,6399.88 10416.83,6458.00              10416.83,6458.00 10424.17,6539.00 10424.17,6539.00              10424.17,6539.00 10429.09,6605.00 10429.09,6605.00              10429.09,6605.00 10431.00,6632.00 10431.00,6632.00              10431.00,6632.00 10432.00,6648.00 10432.00,6648.00              10432.00,6648.00 10433.00,6673.00 10433.00,6673.00              10433.00,6673.00 10434.00,6688.00 10434.00,6688.00              10434.00,6688.00 10435.04,6710.00 10435.04,6710.00              10435.04,6710.00 10435.04,6723.00 10435.04,6723.00              10435.04,6723.00 10436.00,6734.00 10436.00,6734.00              10436.00,6734.00 10436.00,6749.00 10436.00,6749.00              10436.00,6749.00 10437.00,6766.00 10437.00,6766.00              10437.00,6766.00 10437.00,6794.00 10437.00,6794.00              10437.00,6794.00 10438.00,6809.00 10438.00,6809.00              10438.00,6809.00 10438.00,6933.00 10438.00,6933.00              10438.00,6933.00 10437.00,6948.00 10437.00,6948.00              10437.00,6948.00 10437.00,6968.00 10437.00,6968.00              10437.00,6968.00 10436.04,6980.00 10436.04,6980.00              10436.04,6980.00 10436.04,6994.00 10436.04,6994.00              10436.04,6994.00 10435.00,7009.00 10435.00,7009.00              10435.00,7009.00 10433.00,7053.00 10433.00,7053.00              10433.00,7053.00 10431.09,7078.00 10431.09,7078.00              10431.09,7078.00 10425.17,7149.00 10425.17,7149.00              10418.93,7211.36 10410.56,7273.28 10399.42,7335.00              10346.24,7629.83 10226.46,7925.47 9991.00,8121.41              9957.69,8149.13 9918.24,8177.20 9881.00,8199.40              9804.18,8245.19 9731.92,8274.54 9646.00,8298.42              9598.48,8311.64 9542.07,8321.92 9493.00,8327.16              9493.00,8327.16 9437.00,8332.04 9437.00,8332.04              9437.00,8332.04 9426.00,8333.00 9426.00,8333.00              9426.00,8333.00 9407.00,8334.00 9407.00,8334.00              9407.00,8334.00 9337.00,8335.00 9337.00,8335.00              9337.00,8335.00 9324.00,8334.00 9324.00,8334.00              9324.00,8334.00 9303.00,8334.00 9303.00,8334.00              9303.00,8334.00 9286.00,8333.00 9286.00,8333.00              9286.00,8333.00 9269.00,8332.04 9269.00,8332.04              9269.00,8332.04 9218.00,8328.17 9218.00,8328.17              9131.92,8319.56 9046.64,8302.36 8965.00,8273.31              8803.40,8215.80 8677.66,8126.05 8553.00,8009.91              8553.00,8009.91 8535.00,7992.01 8535.00,7992.01              8535.00,7992.01 8515.00,7973.00 8515.00,7973.00              8515.00,7973.00 8503.99,7961.00 8503.99,7961.00              8503.99,7961.00 8485.04,7942.00 8485.04,7942.00              8428.04,7882.41 8374.81,7818.79 8323.79,7754.00              8224.77,7628.25 8135.10,7495.93 8047.66,7362.00              7948.66,7210.39 7855.74,7054.73 7763.40,6899.00              7763.40,6899.00 7549.40,6539.00 7549.40,6539.00              7549.40,6539.00 7382.80,6261.00 7382.80,6261.00              7382.80,6261.00 7330.19,6175.00 7330.19,6175.00              7330.19,6175.00 7305.00,6133.00 7305.00,6133.00 Z            M 11756.00,4301.00            C 11756.00,4301.00 12533.00,4301.00 12533.00,4301.00              12533.00,4301.00 12540.62,4302.02 12540.62,4302.02              12540.62,4302.02 12547.30,4312.00 12547.30,4312.00              12547.30,4312.00 12558.86,4333.00 12558.86,4333.00              12558.86,4333.00 12615.30,4435.00 12615.30,4435.00              12615.30,4435.00 12733.69,4649.00 12733.69,4649.00              12733.69,4649.00 12780.69,4734.00 12780.69,4734.00              12780.69,4734.00 12851.86,4863.00 12851.86,4863.00              12851.86,4863.00 12961.86,5062.00 12961.86,5062.00              12961.86,5062.00 13050.31,5222.00 13050.31,5222.00              13050.31,5222.00 13089.69,5293.00 13089.69,5293.00              13089.69,5293.00 13181.86,5460.00 13181.86,5460.00              13181.86,5460.00 13225.69,5539.00 13225.69,5539.00              13225.69,5539.00 13361.14,5784.00 13361.14,5784.00              13361.14,5784.00 13542.86,6113.00 13542.86,6113.00              13542.86,6113.00 13678.86,6359.00 13678.86,6359.00              13678.86,6359.00 13767.31,6519.00 13767.31,6519.00              13767.31,6519.00 13840.30,6651.00 13840.30,6651.00              13840.30,6651.00 13861.30,6689.00 13861.30,6689.00              13861.30,6689.00 13872.00,6710.00 13872.00,6710.00              13872.00,6710.00 13884.42,6689.00 13884.42,6689.00              13884.42,6689.00 13909.86,6643.00 13909.86,6643.00              13909.86,6643.00 13988.31,6501.00 13988.31,6501.00              13988.31,6501.00 14032.69,6421.00 14032.69,6421.00              14032.69,6421.00 14213.31,6094.00 14213.31,6094.00              14213.31,6094.00 14320.69,5900.00 14320.69,5900.00              14320.69,5900.00 14409.69,5739.00 14409.69,5739.00              14409.69,5739.00 14477.69,5616.00 14477.69,5616.00              14477.69,5616.00 14545.14,5494.00 14545.14,5494.00              14545.14,5494.00 14658.86,5288.00 14658.86,5288.00              14658.86,5288.00 14747.31,5128.00 14747.31,5128.00              14747.31,5128.00 14880.69,4887.00 14880.69,4887.00              14880.69,4887.00 15082.31,4522.00 15082.31,4522.00              15082.31,4522.00 15126.69,4442.00 15126.69,4442.00              15126.69,4442.00 15186.30,4334.00 15186.30,4334.00              15186.30,4334.00 15199.00,4311.00 15199.00,4311.00              15199.00,4311.00 15205.21,4302.02 15205.21,4302.02              15205.21,4302.02 15213.00,4301.00 15213.00,4301.00              15213.00,4301.00 15973.00,4301.00 15973.00,4301.00              15973.00,4301.00 15973.00,8263.00 15973.00,8263.00              15973.00,8263.00 15332.00,8263.00 15332.00,8263.00              15332.00,8263.00 15332.00,6164.00 15332.00,6164.00              15332.00,6164.00 15332.00,5519.00 15332.00,5519.00              15332.00,5519.00 15332.00,5321.00 15332.00,5321.00              15332.00,5321.00 15332.00,5261.00 15332.00,5261.00              15332.00,5261.00 15331.00,5230.00 15331.00,5230.00              15331.00,5230.00 15321.30,5249.00 15321.30,5249.00              15321.30,5249.00 15302.86,5282.00 15302.86,5282.00              15302.86,5282.00 15242.30,5391.00 15242.30,5391.00              15242.30,5391.00 15048.30,5740.00 15048.30,5740.00              15048.30,5740.00 14889.86,6025.00 14889.86,6025.00              14889.86,6025.00 14680.86,6401.00 14680.86,6401.00              14680.86,6401.00 14510.86,6707.00 14510.86,6707.00              14510.86,6707.00 14437.42,6839.00 14437.42,6839.00              14437.42,6839.00 14229.58,7213.00 14229.58,7213.00              14229.58,7213.00 14180.14,7302.00 14180.14,7302.00              14180.14,7302.00 14170.14,7320.00 14170.14,7320.00              14170.14,7320.00 14164.61,7327.98 14164.61,7327.98              14164.61,7327.98 14157.00,7329.00 14157.00,7329.00              14157.00,7329.00 13572.00,7329.00 13572.00,7329.00              13572.00,7329.00 13564.33,7327.98 13564.33,7327.98              13564.33,7327.98 13558.70,7320.00 13558.70,7320.00              13558.70,7320.00 13548.14,7301.00 13548.14,7301.00              13548.14,7301.00 13497.58,7210.00 13497.58,7210.00              13497.58,7210.00 13433.14,7094.00 13433.14,7094.00              13433.14,7094.00 13284.14,6826.00 13284.14,6826.00              13284.14,6826.00 12679.86,5739.00 12679.86,5739.00              12679.86,5739.00 12485.86,5390.00 12485.86,5390.00              12485.86,5390.00 12397.00,5230.00 12397.00,5230.00              12397.00,5230.00 12397.00,8263.00 12397.00,8263.00              12397.00,8263.00 11756.00,8263.00 11756.00,8263.00              11756.00,8263.00 11756.00,4301.00 11756.00,4301.00 Z            M 20119.00,4445.00            C 20119.00,4445.00 20737.00,4445.00 20737.00,4445.00              20737.00,4445.00 20737.00,5311.00 20737.00,5311.00              20737.00,5311.00 21631.00,5311.00 21631.00,5311.00              21631.00,5311.00 21631.00,5835.00 21631.00,5835.00              21631.00,5835.00 20737.00,5835.00 20737.00,5835.00              20737.00,5835.00 20737.00,6703.00 20737.00,6703.00              20737.00,6703.00 20737.00,7040.00 20737.00,7040.00              20737.00,7040.00 20737.00,7208.00 20737.00,7208.00              20737.00,7208.00 20738.00,7223.00 20738.00,7223.00              20738.00,7223.00 20738.00,7235.00 20738.00,7235.00              20738.00,7235.00 20739.00,7250.00 20739.00,7250.00              20739.00,7250.00 20739.00,7254.00 20739.00,7254.00              20739.00,7254.00 20740.91,7279.00 20740.91,7279.00              20742.84,7307.13 20745.70,7335.05 20749.73,7363.00              20767.08,7483.35 20804.38,7609.63 20905.00,7686.77              20972.17,7738.26 21059.92,7761.86 21143.00,7770.17              21143.00,7770.17 21197.00,7774.00 21197.00,7774.00              21197.00,7774.00 21214.00,7775.00 21214.00,7775.00              21214.00,7775.00 21281.00,7775.00 21281.00,7775.00              21281.00,7775.00 21296.00,7774.00 21296.00,7774.00              21296.00,7774.00 21317.00,7774.00 21317.00,7774.00              21317.00,7774.00 21329.00,7773.04 21329.00,7773.04              21329.00,7773.04 21343.00,7773.04 21343.00,7773.04              21343.00,7773.04 21353.00,7772.04 21353.00,7772.04              21353.00,7772.04 21362.00,7772.04 21362.00,7772.04              21362.00,7772.04 21372.00,7771.09 21372.00,7771.09              21372.00,7771.09 21418.00,7767.83 21418.00,7767.83              21469.10,7762.88 21520.25,7755.45 21571.00,7747.58              21571.00,7747.58 21631.00,7738.00 21631.00,7738.00              21631.00,7738.00 21631.00,8249.00 21631.00,8249.00              21631.00,8251.00 21631.26,8254.66 21630.01,8256.28              21628.76,8257.88 21624.94,8258.73 21623.00,8259.29              21623.00,8259.29 21605.00,8264.42 21605.00,8264.42              21576.07,8272.67 21546.48,8279.81 21517.00,8285.80              21449.02,8299.61 21381.04,8311.26 21312.00,8318.17              21312.00,8318.17 21252.00,8323.09 21252.00,8323.09              21252.00,8323.09 21220.00,8325.00 21220.00,8325.00              21220.00,8325.00 21210.00,8325.96 21210.00,8325.96              21210.00,8325.96 21195.00,8325.96 21195.00,8325.96              21195.00,8325.96 21182.00,8327.00 21182.00,8327.00              21182.00,8327.00 21155.00,8327.00 21155.00,8327.00              21155.00,8327.00 21138.00,8328.00 21138.00,8328.00              21138.00,8328.00 21100.00,8328.00 21100.00,8328.00              21100.00,8328.00 21084.00,8327.00 21084.00,8327.00              21084.00,8327.00 21061.00,8327.00 21061.00,8327.00              21061.00,8327.00 21046.00,8326.00 21046.00,8326.00              21046.00,8326.00 21019.00,8325.00 21019.00,8325.00              21019.00,8325.00 21009.00,8324.09 21009.00,8324.09              21009.00,8324.09 20981.00,8322.09 20981.00,8322.09              20945.82,8319.63 20910.86,8314.84 20876.00,8309.42              20759.13,8291.28 20636.49,8252.08 20535.00,8190.80              20483.86,8159.92 20437.13,8123.21 20394.00,8081.96              20394.00,8081.96 20379.96,8067.00 20379.96,8067.00              20345.95,8031.44 20316.24,7993.19 20289.34,7952.00              20195.06,7807.61 20146.86,7621.34 20129.83,7451.00              20129.83,7451.00 20123.91,7382.00 20123.91,7382.00              20123.91,7382.00 20122.00,7356.00 20122.00,7356.00              20122.00,7356.00 20120.96,7335.00 20120.96,7335.00              20120.96,7335.00 20120.96,7323.00 20120.96,7323.00              20120.96,7323.00 20120.00,7311.00 20120.00,7311.00              20120.00,7311.00 20120.00,7293.00 20120.00,7293.00              20120.00,7293.00 20119.00,7277.00 20119.00,7277.00              20119.00,7277.00 20119.00,7058.00 20119.00,7058.00              20119.00,7058.00 20119.00,5835.00 20119.00,5835.00              20119.00,5835.00 19531.00,5835.00 19531.00,5835.00              19531.00,5835.00 19531.00,5311.00 19531.00,5311.00              19531.00,5311.00 20119.00,5311.00 20119.00,5311.00              20119.00,5311.00 20119.00,4445.00 20119.00,4445.00 Z            M 8615.00,4705.19            C 8608.45,4706.23 8602.57,4705.99 8596.00,4706.00              8596.00,4706.00 8584.00,4706.91 8584.00,4706.91              8584.00,4706.91 8547.00,4710.28 8547.00,4710.28              8499.31,4716.56 8452.99,4728.45 8408.00,4745.42              8313.06,4781.24 8223.82,4842.09 8148.00,4908.85              8148.00,4908.85 8109.00,4944.04 8109.00,4944.04              8109.00,4944.04 8090.00,4962.96 8090.00,4962.96              8090.00,4962.96 8079.00,4973.00 8079.00,4973.00              8079.00,4973.00 8067.99,4985.00 8067.99,4985.00              8067.99,4985.00 8048.09,5005.00 8048.09,5005.00              7979.70,5078.41 7923.22,5147.88 7863.13,5228.00              7818.91,5286.95 7776.87,5347.70 7736.00,5409.00              7736.00,5409.00 7706.33,5454.00 7706.33,5454.00              7703.92,5457.63 7696.26,5467.98 7696.92,5472.00              7697.34,5474.56 7701.72,5480.58 7703.33,5483.00              7703.33,5483.00 7718.67,5506.00 7718.67,5506.00              7718.67,5506.00 7773.00,5588.00 7773.00,5588.00              7832.83,5677.75 7889.63,5769.62 7946.95,5861.00              7946.95,5861.00 8074.40,6072.00 8074.40,6072.00              8074.40,6072.00 8267.60,6394.00 8267.60,6394.00              8267.60,6394.00 8347.20,6527.00 8347.20,6527.00              8347.20,6527.00 8384.58,6587.00 8384.58,6587.00              8384.58,6587.00 8523.58,6809.00 8523.58,6809.00              8599.11,6929.69 8676.56,7049.29 8756.66,7167.00              8818.81,7258.35 8903.67,7376.91 8977.91,7457.00              8977.91,7457.00 8998.04,7479.00 8998.04,7479.00              9033.38,7515.95 9075.49,7553.82 9118.00,7582.33              9174.85,7620.46 9233.25,7642.44 9301.00,7651.28              9301.00,7651.28 9331.00,7654.09 9331.00,7654.09              9331.00,7654.09 9341.00,7655.00 9341.00,7655.00              9341.00,7655.00 9356.00,7655.00 9356.00,7655.00              9356.00,7655.00 9373.00,7656.00 9373.00,7656.00              9373.00,7656.00 9383.00,7655.04 9383.00,7655.04              9383.00,7655.04 9397.00,7655.04 9397.00,7655.04              9397.00,7655.04 9409.00,7654.09 9409.00,7654.09              9444.27,7651.66 9479.38,7645.53 9513.00,7634.33              9539.46,7625.52 9566.20,7613.77 9590.00,7599.19              9739.34,7507.71 9799.55,7325.56 9823.27,7161.00              9823.27,7161.00 9831.83,7092.00 9831.83,7092.00              9831.83,7092.00 9833.17,7074.00 9833.17,7074.00              9833.17,7074.00 9836.00,7036.00 9836.00,7036.00              9836.00,7036.00 9837.00,7020.00 9837.00,7020.00              9837.00,7020.00 9837.96,7006.00 9837.96,7006.00              9837.96,7006.00 9837.96,6991.00 9837.96,6991.00              9837.96,6991.00 9839.00,6975.00 9839.00,6975.00              9839.00,6975.00 9839.00,6838.00 9839.00,6838.00              9839.00,6838.00 9838.00,6823.00 9838.00,6823.00              9838.00,6823.00 9838.00,6802.00 9838.00,6802.00              9838.00,6802.00 9837.04,6790.00 9837.04,6790.00              9837.04,6790.00 9837.04,6773.00 9837.04,6773.00              9837.04,6773.00 9836.00,6756.00 9836.00,6756.00              9836.00,6756.00 9835.00,6726.00 9835.00,6726.00              9835.00,6726.00 9834.00,6710.00 9834.00,6710.00              9834.00,6710.00 9833.00,6688.00 9833.00,6688.00              9833.00,6688.00 9832.00,6678.00 9832.00,6678.00              9832.00,6678.00 9832.00,6669.00 9832.00,6669.00              9832.00,6669.00 9830.09,6646.00 9830.09,6646.00              9830.09,6646.00 9821.17,6536.00 9821.17,6536.00              9811.24,6433.48 9797.71,6331.44 9779.42,6230.00              9732.32,5968.74 9655.08,5700.30 9539.26,5461.00              9539.26,5461.00 9510.74,5403.00 9510.74,5403.00              9451.55,5288.29 9382.33,5177.93 9300.42,5078.00              9172.72,4922.19 9011.43,4788.75 8815.00,4732.29              8779.94,4722.21 8745.15,4715.43 8709.00,4710.72              8709.00,4710.72 8667.00,4706.91 8667.00,4706.91              8667.00,4706.91 8655.00,4706.00 8655.00,4706.00              8655.00,4706.00 8644.00,4706.00 8644.00,4706.00              8644.00,4706.00 8633.00,4705.19 8633.00,4705.19              8627.75,4704.73 8620.23,4704.80 8615.00,4705.19 Z            M 5941.00,4849.14            C 5935.61,4850.06 5935.37,4849.99 5930.00,4850.00              5930.00,4850.00 5885.00,4854.43 5885.00,4854.43              5835.67,4861.74 5789.08,4875.00 5743.00,4894.01              5662.03,4927.41 5586.70,4978.77 5521.00,5036.28              5521.00,5036.28 5490.00,5064.91 5490.00,5064.91              5386.63,5161.21 5294.47,5289.85 5223.58,5412.00              5134.74,5565.06 5059.55,5739.39 5005.66,5908.00              5005.66,5908.00 4979.42,5992.00 4979.42,5992.00              4947.53,6101.21 4920.78,6212.03 4900.58,6324.00              4880.11,6437.42 4863.81,6552.09 4855.91,6667.00              4855.91,6667.00 4854.09,6687.00 4854.09,6687.00              4854.09,6687.00 4852.91,6710.00 4852.91,6710.00              4852.91,6710.00 4852.00,6720.00 4852.00,6720.00              4852.00,6720.00 4851.00,6742.00 4851.00,6742.00              4851.00,6742.00 4850.00,6755.00 4850.00,6755.00              4850.00,6755.00 4848.96,6776.00 4848.96,6776.00              4848.96,6776.00 4848.96,6789.00 4848.96,6789.00              4848.96,6789.00 4848.00,6799.00 4848.00,6799.00              4848.00,6799.00 4848.00,6815.00 4848.00,6815.00              4848.00,6815.00 4847.00,6831.00 4847.00,6831.00              4847.00,6831.00 4847.00,6861.00 4847.00,6861.00              4847.00,6861.00 4846.00,6878.00 4846.00,6878.00              4846.00,6878.00 4846.00,6936.00 4846.00,6936.00              4846.00,6936.00 4847.00,6951.00 4847.00,6951.00              4847.00,6951.00 4847.00,6972.00 4847.00,6972.00              4847.00,6972.00 4848.00,6988.00 4848.00,6988.00              4848.00,6988.00 4849.00,7013.00 4849.00,7013.00              4849.00,7013.00 4849.91,7023.00 4849.91,7023.00              4849.91,7023.00 4851.91,7051.00 4851.91,7051.00              4854.25,7084.38 4858.46,7117.95 4863.92,7151.00              4892.51,7324.02 4960.76,7514.08 5123.00,7604.14              5151.25,7619.82 5177.96,7630.57 5209.00,7639.42              5237.07,7647.42 5265.94,7652.06 5295.00,7654.09              5295.00,7654.09 5305.00,7655.04 5305.00,7655.04              5305.00,7655.04 5321.00,7655.04 5321.00,7655.04              5321.00,7655.04 5333.00,7656.00 5333.00,7656.00              5333.00,7656.00 5348.00,7655.00 5348.00,7655.00              5397.25,7654.92 5447.16,7646.75 5494.00,7631.33              5582.48,7602.20 5658.43,7544.71 5725.00,7481.04              5725.00,7481.04 5735.00,7471.99 5735.00,7471.99              5735.00,7471.99 5763.04,7443.00 5763.04,7443.00              5809.06,7394.88 5851.63,7344.17 5893.00,7292.00              6001.74,7154.89 6119.94,6978.64 6216.34,6831.00              6216.34,6831.00 6431.05,6496.00 6431.05,6496.00              6431.05,6496.00 6639.69,6170.00 6639.69,6170.00              6639.69,6170.00 6810.31,5906.00 6810.31,5906.00              6810.31,5906.00 6888.00,5786.00 6888.00,5786.00              6888.00,5786.00 6956.33,5681.00 6956.33,5681.00              6956.33,5681.00 6974.67,5653.00 6974.67,5653.00              6976.48,5650.28 6981.73,5643.02 6981.75,5640.00              6981.77,5636.57 6972.38,5624.47 6969.98,5621.00              6969.98,5621.00 6934.42,5571.00 6934.42,5571.00              6888.08,5506.18 6840.18,5442.23 6790.40,5380.00              6755.39,5336.23 6719.75,5292.51 6682.07,5251.00              6682.07,5251.00 6610.96,5174.00 6610.96,5174.00              6610.96,5174.00 6564.00,5127.96 6564.00,5127.96              6455.35,5024.04 6341.87,4938.53 6199.00,4887.69              6168.49,4876.84 6136.72,4868.95 6105.00,4862.60              6071.65,4855.93 6027.86,4850.39 5994.00,4850.00              5994.00,4850.00 5979.00,4849.14 5979.00,4849.14              5979.00,4849.14 5941.00,4849.14 5941.00,4849.14 Z            M 17175.00,7018.00            C 17186.51,7081.20 17197.69,7132.51 17217.34,7194.00              17242.23,7271.87 17277.43,7347.28 17321.69,7416.00              17401.88,7540.49 17516.54,7644.15 17650.00,7708.74              17729.10,7747.03 17816.03,7772.03 17903.00,7784.13              17903.00,7784.13 17960.00,7791.00 17960.00,7791.00              17960.00,7791.00 17968.00,7791.00 17968.00,7791.00              17968.00,7791.00 17996.00,7793.00 17996.00,7793.00              17996.00,7793.00 18009.00,7794.00 18009.00,7794.00              18009.00,7794.00 18023.00,7794.00 18023.00,7794.00              18023.00,7794.00 18039.00,7795.00 18039.00,7795.00              18039.00,7795.00 18082.00,7795.00 18082.00,7795.00              18082.00,7795.00 18099.00,7794.00 18099.00,7794.00              18099.00,7794.00 18118.00,7794.00 18118.00,7794.00              18118.00,7794.00 18132.00,7793.00 18132.00,7793.00              18132.00,7793.00 18159.00,7792.00 18159.00,7792.00              18159.00,7792.00 18184.00,7790.09 18184.00,7790.09              18184.00,7790.09 18271.00,7781.28 18271.00,7781.28              18339.15,7772.31 18410.63,7757.64 18476.00,7736.33              18588.73,7699.58 18697.55,7642.36 18793.00,7572.12              18827.49,7546.73 18860.85,7520.15 18893.00,7491.85              18893.00,7491.85 18923.00,7464.72 18923.00,7464.72              18925.57,7462.45 18932.52,7455.03 18935.00,7454.17              18937.89,7453.16 18939.62,7455.13 18941.41,7457.06              18941.41,7457.06 18952.92,7471.00 18952.92,7471.00              18952.92,7471.00 19001.00,7530.00 19001.00,7530.00              19001.00,7530.00 19114.58,7669.00 19114.58,7669.00              19114.58,7669.00 19205.08,7780.00 19205.08,7780.00              19205.08,7780.00 19260.61,7848.00 19260.61,7848.00              19260.61,7848.00 19271.25,7861.00 19271.25,7861.00              19272.64,7862.69 19275.49,7865.81 19275.83,7867.96              19276.16,7870.00 19275.12,7871.05 19273.84,7872.42              19273.84,7872.42 19230.00,7911.27 19230.00,7911.27              19204.60,7933.01 19178.71,7954.26 19152.00,7974.37              19062.08,8042.09 18977.75,8095.87 18877.00,8146.25              18706.62,8231.44 18526.33,8285.12 18338.00,8312.27              18292.49,8318.83 18246.82,8323.94 18201.00,8327.09              18201.00,8327.09 18180.00,8329.00 18180.00,8329.00              18180.00,8329.00 18171.00,8329.00 18171.00,8329.00              18171.00,8329.00 18160.00,8330.00 18160.00,8330.00              18160.00,8330.00 18141.00,8331.00 18141.00,8331.00              18141.00,8331.00 18121.00,8332.00 18121.00,8332.00              18121.00,8332.00 18107.00,8332.00 18107.00,8332.00              18107.00,8332.00 18090.00,8333.00 18090.00,8333.00              18090.00,8333.00 17982.00,8333.00 17982.00,8333.00              17982.00,8333.00 17968.00,8331.96 17968.00,8331.96              17968.00,8331.96 17952.00,8331.96 17952.00,8331.96              17952.00,8331.96 17942.00,8331.00 17942.00,8331.00              17942.00,8331.00 17880.00,8327.09 17880.00,8327.09              17834.22,8323.89 17788.30,8318.01 17743.00,8310.41              17567.75,8281.01 17408.04,8226.98 17254.00,8137.58              17155.55,8080.44 17064.45,8011.49 16983.00,7932.01              16983.00,7932.01 16970.00,7920.00 16970.00,7920.00              16970.00,7920.00 16959.96,7909.00 16959.96,7909.00              16959.96,7909.00 16930.17,7878.00 16930.17,7878.00              16882.03,7824.79 16838.65,7769.60 16798.67,7710.00              16688.01,7545.02 16613.88,7357.44 16575.00,7163.00              16563.02,7103.07 16554.72,7042.78 16548.83,6982.00              16548.83,6982.00 16544.91,6933.00 16544.91,6933.00              16544.91,6933.00 16543.00,6907.00 16543.00,6907.00              16543.00,6907.00 16542.00,6878.00 16542.00,6878.00              16542.00,6878.00 16541.00,6862.00 16541.00,6862.00              16541.00,6862.00 16541.00,6842.00 16541.00,6842.00              16541.00,6842.00 16540.00,6825.00 16540.00,6825.00              16540.00,6825.00 16540.00,6762.00 16540.00,6762.00              16540.00,6762.00 16541.00,6745.00 16541.00,6745.00              16541.00,6745.00 16541.00,6724.00 16541.00,6724.00              16541.00,6724.00 16542.00,6708.00 16542.00,6708.00              16542.00,6708.00 16543.00,6678.00 16543.00,6678.00              16543.00,6678.00 16544.91,6652.00 16544.91,6652.00              16544.91,6652.00 16553.16,6557.00 16553.16,6557.00              16557.35,6517.86 16563.59,6478.73 16570.58,6440.00              16617.34,6180.75 16724.32,5934.21 16893.43,5731.00              17022.98,5575.33 17185.97,5450.80 17370.00,5366.31              17492.65,5309.99 17629.27,5272.32 17763.00,5254.72              17763.00,5254.72 17859.00,5244.91 17859.00,5244.91              17859.00,5244.91 17887.00,5243.00 17887.00,5243.00              17887.00,5243.00 17903.00,5242.00 17903.00,5242.00              17903.00,5242.00 17925.00,5241.00 17925.00,5241.00              17925.00,5241.00 17944.00,5241.00 17944.00,5241.00              17944.00,5241.00 17959.00,5240.00 17959.00,5240.00              17959.00,5240.00 18015.00,5240.00 18015.00,5240.00              18015.00,5240.00 18029.00,5241.00 18029.00,5241.00              18029.00,5241.00 18047.00,5241.00 18047.00,5241.00              18047.00,5241.00 18062.00,5242.00 18062.00,5242.00              18062.00,5242.00 18088.00,5243.00 18088.00,5243.00              18088.00,5243.00 18098.00,5243.91 18098.00,5243.91              18098.00,5243.91 18136.00,5246.83 18136.00,5246.83              18178.26,5250.92 18220.16,5256.03 18262.00,5263.58              18378.41,5284.57 18485.46,5318.69 18592.00,5370.26              18592.00,5370.26 18612.00,5380.74 18612.00,5380.74              18712.10,5432.39 18804.63,5499.13 18886.00,5576.96              18886.00,5576.96 18896.00,5586.01 18896.00,5586.01              19145.68,5829.64 19278.80,6168.74 19323.72,6510.00              19328.83,6548.85 19333.36,6587.95 19336.09,6627.00              19336.09,6627.00 19340.00,6682.00 19340.00,6682.00              19340.00,6682.00 19341.00,6695.00 19341.00,6695.00              19341.00,6695.00 19342.00,6723.00 19342.00,6723.00              19342.00,6723.00 19343.00,6736.00 19343.00,6736.00              19343.00,6736.00 19343.00,6750.00 19343.00,6750.00              19343.00,6750.00 19344.00,6766.00 19344.00,6766.00              19344.00,6766.00 19344.00,6795.00 19344.00,6795.00              19344.00,6795.00 19345.00,6811.00 19345.00,6811.00              19345.00,6811.00 19345.00,7018.00 19345.00,7018.00              19345.00,7018.00 17175.00,7018.00 17175.00,7018.00 Z            M 24237.00,7852.00            C 24232.90,7860.36 24217.20,7880.56 24210.87,7889.00              24190.63,7915.98 24169.02,7942.26 24146.09,7967.00              24146.09,7967.00 24094.00,8020.96 24094.00,8020.96              24024.12,8087.80 23945.00,8145.23 23860.00,8191.31              23738.74,8257.04 23616.07,8296.30 23480.00,8317.42              23445.51,8322.78 23410.78,8326.70 23376.00,8329.09              23376.00,8329.09 23347.00,8331.00 23347.00,8331.00              23347.00,8331.00 23331.00,8332.04 23331.00,8332.04              23331.00,8332.04 23319.00,8332.04 23319.00,8332.04              23319.00,8332.04 23307.00,8333.00 23307.00,8333.00              23307.00,8333.00 23217.00,8333.00 23217.00,8333.00              23217.00,8333.00 23203.00,8332.00 23203.00,8332.00              23203.00,8332.00 23176.00,8331.00 23176.00,8331.00              23176.00,8331.00 23151.00,8329.09 23151.00,8329.09              23120.89,8327.02 23090.90,8323.58 23061.00,8319.27              22942.97,8302.26 22833.42,8270.48 22725.00,8220.69              22544.74,8137.92 22377.40,7999.66 22256.65,7843.00              22097.43,7636.44 22000.70,7402.74 21954.58,7147.00              21946.40,7101.68 21939.75,7055.81 21935.17,7010.00              21935.17,7010.00 21931.83,6972.00 21931.83,6972.00              21931.83,6972.00 21928.91,6933.00 21928.91,6933.00              21928.91,6933.00 21927.00,6900.00 21927.00,6900.00              21927.00,6900.00 21925.96,6885.00 21925.96,6885.00              21925.96,6885.00 21925.96,6873.00 21925.96,6873.00              21925.96,6873.00 21925.00,6862.00 21925.00,6862.00              21925.00,6862.00 21925.00,6844.00 21925.00,6844.00              21925.00,6844.00 21924.00,6827.00 21924.00,6827.00              21924.00,6827.00 21924.00,6742.00 21924.00,6742.00              21924.00,6742.00 21925.00,6727.00 21925.00,6727.00              21925.00,6727.00 21925.00,6709.00 21925.00,6709.00              21925.00,6709.00 21926.00,6686.00 21926.00,6686.00              21926.00,6686.00 21926.96,6674.00 21926.96,6674.00              21926.96,6674.00 21926.96,6665.00 21926.96,6665.00              21926.96,6665.00 21928.00,6648.00 21928.00,6648.00              21928.00,6648.00 21929.91,6623.00 21929.91,6623.00              21929.91,6623.00 21933.83,6577.00 21933.83,6577.00              21939.71,6516.26 21948.20,6455.93 21960.00,6396.00              21973.84,6325.66 21991.68,6256.03 22014.35,6188.00              22073.83,6009.57 22168.13,5837.24 22290.27,5694.00              22422.87,5538.49 22592.40,5412.77 22782.00,5335.60              22888.44,5292.28 23008.71,5262.06 23123.00,5249.84              23123.00,5249.84 23189.00,5243.91 23189.00,5243.91              23189.00,5243.91 23196.00,5243.00 23196.00,5243.00              23196.00,5243.00 23206.00,5243.00 23206.00,5243.00              23206.00,5243.00 23216.00,5241.96 23216.00,5241.96              23216.00,5241.96 23227.00,5241.96 23227.00,5241.96              23227.00,5241.96 23239.00,5241.00 23239.00,5241.00              23239.00,5241.00 23256.00,5241.00 23256.00,5241.00              23256.00,5241.00 23272.00,5240.00 23272.00,5240.00              23272.00,5240.00 23323.00,5240.00 23323.00,5240.00              23323.00,5240.00 23338.00,5241.00 23338.00,5241.00              23338.00,5241.00 23354.00,5241.00 23354.00,5241.00              23354.00,5241.00 23375.00,5242.00 23375.00,5242.00              23375.00,5242.00 23385.00,5243.00 23385.00,5243.00              23385.00,5243.00 23394.00,5243.00 23394.00,5243.00              23394.00,5243.00 23426.00,5245.83 23426.00,5245.83              23469.04,5250.00 23511.44,5255.41 23554.00,5263.39              23762.23,5302.42 23952.73,5396.43 24108.00,5541.09              24108.00,5541.09 24131.00,5564.00 24131.00,5564.00              24168.52,5601.52 24207.25,5644.70 24238.00,5688.00              24238.00,5688.00 24238.00,5311.00 24238.00,5311.00              24238.00,5311.00 24845.00,5311.00 24845.00,5311.00              24845.00,5311.00 24845.00,8263.00 24845.00,8263.00              24845.00,8263.00 24238.00,8263.00 24238.00,8263.00              24238.00,8263.00 24238.00,7981.00 24238.00,7981.00              24238.00,7981.00 24238.00,7894.00 24238.00,7894.00              24238.00,7885.25 24238.91,7858.72 24237.00,7852.00 Z            M 18730.00,6550.00            C 18730.00,6550.00 18724.72,6497.00 18724.72,6497.00              18719.96,6458.47 18713.95,6419.93 18705.58,6382.00              18670.00,6220.92 18598.99,6073.74 18477.00,5960.09              18370.86,5861.20 18238.90,5805.09 18096.00,5786.28              18096.00,5786.28 18039.00,5780.91 18039.00,5780.91              18039.00,5780.91 18029.00,5780.00 18029.00,5780.00              18029.00,5780.00 18007.00,5779.00 18007.00,5779.00              18007.00,5779.00 17944.00,5779.00 17944.00,5779.00              17944.00,5779.00 17924.00,5780.00 17924.00,5780.00              17924.00,5780.00 17913.00,5780.91 17913.00,5780.91              17881.38,5783.07 17850.24,5786.94 17819.00,5792.58              17702.36,5813.61 17592.03,5863.83 17500.00,5938.61              17407.14,6014.07 17332.19,6110.13 17278.75,6217.00              17278.75,6217.00 17266.31,6242.00 17266.31,6242.00              17237.57,6304.57 17217.59,6362.52 17200.12,6429.00              17191.13,6463.19 17179.60,6515.31 17175.00,6550.00              17175.00,6550.00 18730.00,6550.00 18730.00,6550.00 Z            M 23403.00,5801.14            C 23394.75,5802.47 23386.32,5801.99 23378.00,5802.00              23378.00,5802.00 23361.00,5803.00 23361.00,5803.00              23361.00,5803.00 23347.00,5803.91 23347.00,5803.91              23347.00,5803.91 23327.00,5805.17 23327.00,5805.17              23274.04,5810.23 23222.54,5818.34 23171.00,5831.88              23092.72,5852.46 23018.07,5884.85 22950.00,5928.69              22840.70,5999.10 22748.84,6101.55 22685.86,6215.00              22620.27,6333.16 22585.12,6458.58 22567.72,6592.00              22561.68,6638.32 22557.54,6685.33 22557.00,6732.00              22557.00,6732.00 22556.00,6747.00 22556.00,6747.00              22556.00,6747.00 22556.00,6827.00 22556.00,6827.00              22556.00,6827.00 22557.00,6842.00 22557.00,6842.00              22557.00,6842.00 22557.00,6854.00 22557.00,6854.00              22557.00,6854.00 22558.00,6873.00 22558.00,6873.00              22558.00,6873.00 22559.00,6885.00 22559.00,6885.00              22559.00,6885.00 22559.00,6894.00 22559.00,6894.00              22559.00,6894.00 22560.91,6915.00 22560.91,6915.00              22560.91,6915.00 22568.28,6989.00 22568.28,6989.00              22596.18,7200.94 22671.52,7399.52 22825.00,7553.00              22867.51,7595.51 22909.14,7628.11 22960.00,7659.95              23013.81,7693.64 23078.96,7721.02 23140.00,7738.42              23190.49,7752.82 23240.80,7761.95 23293.00,7767.17              23293.00,7767.17 23331.00,7770.09 23331.00,7770.09              23331.00,7770.09 23341.00,7771.04 23341.00,7771.04              23341.00,7771.04 23353.00,7771.04 23353.00,7771.04              23353.00,7771.04 23365.00,7772.00 23365.00,7772.00              23365.00,7772.00 23428.00,7772.00 23428.00,7772.00              23428.00,7772.00 23438.00,7771.04 23438.00,7771.04              23438.00,7771.04 23450.00,7771.04 23450.00,7771.04              23450.00,7771.04 23475.00,7769.09 23475.00,7769.09              23510.85,7766.63 23546.64,7762.02 23582.00,7755.39              23748.14,7724.25 23904.77,7644.95 24027.00,7528.04              24027.00,7528.04 24037.00,7518.99 24037.00,7518.99              24037.00,7518.99 24055.04,7500.00 24055.04,7500.00              24072.45,7481.80 24089.22,7462.94 24104.65,7443.00              24144.49,7391.51 24171.22,7348.07 24200.25,7290.00              24200.25,7290.00 24218.85,7249.00 24218.85,7249.00              24222.80,7239.79 24226.98,7232.16 24227.00,7222.00              24227.00,7222.00 24227.00,6352.00 24227.00,6352.00              24226.98,6341.34 24222.45,6332.67 24218.28,6323.00              24218.28,6323.00 24200.26,6283.00 24200.26,6283.00              24200.26,6283.00 24188.74,6259.00 24188.74,6259.00              24166.23,6215.36 24140.35,6173.30 24110.87,6134.00              23991.04,5974.23 23819.57,5865.55 23625.00,5822.58              23588.96,5814.62 23552.69,5809.38 23516.00,5805.83              23516.00,5805.83 23492.00,5803.91 23492.00,5803.91              23492.00,5803.91 23480.00,5803.00 23480.00,5803.00              23480.00,5803.00 23462.00,5802.00 23462.00,5802.00              23462.00,5802.00 23448.00,5802.00 23448.00,5802.00              23448.00,5802.00 23432.00,5801.14 23432.00,5801.14              23432.00,5801.14 23403.00,5801.14 23403.00,5801.14 Z" />
</svg>