<svg xmlns="http://www.w3.org/2000/svg" viewBox="4166.5 4166.5 6272 4169">
  <path id="Selection #1" fill="#303030" stroke="none" stroke-width="1" d="M 7305.00,6133.00            C 7300.62,6138.39 7296.41,6146.75 7292.85,6153.00              7292.85,6153.00 7273.14,6188.00 7273.14,6188.00              7273.14,6188.00 7212.58,6295.00 7212.58,6295.00              7212.58,6295.00 7010.58,6652.00 7010.58,6652.00              7010.58,6652.00 6784.58,7049.00 6784.58,7049.00              6717.44,7164.68 6647.11,7278.58 6574.69,7391.00              6483.14,7533.13 6385.64,7672.19 6278.42,7803.00              6138.65,7973.53 5971.62,8140.64 5771.00,8237.74              5690.51,8276.70 5604.14,8303.62 5516.00,8318.41              5480.15,8324.43 5444.22,8328.60 5408.00,8331.09              5408.00,8331.09 5374.00,8333.00 5374.00,8333.00              5374.00,8333.00 5361.00,8334.00 5361.00,8334.00              5361.00,8334.00 5341.00,8334.00 5341.00,8334.00              5341.00,8334.00 5324.00,8335.00 5324.00,8335.00              5324.00,8335.00 5289.00,8335.00 5289.00,8335.00              5289.00,8335.00 5272.00,8334.00 5272.00,8334.00              5272.00,8334.00 5255.00,8334.00 5255.00,8334.00              5255.00,8334.00 5234.00,8333.00 5234.00,8333.00              5234.00,8333.00 5223.00,8332.04 5223.00,8332.04              5223.00,8332.04 5147.00,8325.15 5147.00,8325.15              5081.04,8317.27 5018.56,8303.43 4955.00,8284.28              4890.53,8264.86 4825.81,8236.79 4767.00,8204.14              4767.00,8204.14 4711.00,8170.42 4711.00,8170.42              4662.24,8139.90 4611.53,8098.76 4570.00,8059.04              4570.00,8059.04 4541.04,8031.00 4541.04,8031.00              4350.63,7831.93 4249.86,7578.70 4201.58,7311.00              4192.63,7261.41 4185.18,7211.14 4180.17,7161.00              4180.17,7161.00 4176.83,7124.00 4176.83,7124.00              4176.83,7124.00 4172.91,7074.00 4172.91,7074.00              4172.91,7074.00 4171.00,7043.00 4171.00,7043.00              4171.00,7043.00 4170.04,7033.00 4170.04,7033.00              4170.04,7033.00 4170.04,7022.00 4170.04,7022.00              4170.04,7022.00 4168.96,7007.00 4168.96,7007.00              4168.96,7007.00 4168.96,6993.00 4168.96,6993.00              4168.96,6993.00 4168.00,6982.00 4168.00,6982.00              4168.00,6982.00 4168.00,6959.00 4168.00,6959.00              4168.00,6959.00 4167.00,6942.00 4167.00,6942.00              4167.00,6942.00 4167.00,6847.00 4167.00,6847.00              4167.00,6847.00 4168.00,6832.00 4168.00,6832.00              4168.00,6832.00 4168.00,6803.00 4168.00,6803.00              4168.00,6803.00 4169.00,6786.00 4169.00,6786.00              4169.00,6786.00 4170.00,6744.00 4170.00,6744.00              4170.00,6744.00 4171.00,6729.00 4171.00,6729.00              4171.00,6729.00 4173.00,6684.00 4173.00,6684.00              4173.00,6684.00 4174.00,6674.00 4174.00,6674.00              4174.00,6674.00 4174.00,6665.00 4174.00,6665.00              4174.00,6665.00 4175.91,6642.00 4175.91,6642.00              4175.91,6642.00 4186.83,6512.00 4186.83,6512.00              4200.42,6376.07 4221.37,6240.69 4249.79,6107.00              4307.99,5833.21 4395.69,5561.16 4517.74,5309.00              4517.74,5309.00 4556.26,5231.00 4556.26,5231.00              4651.51,5046.40 4765.95,4871.00 4902.28,4714.00              4902.28,4714.00 4956.91,4654.00 4956.91,4654.00              5080.88,4520.93 5224.80,4405.34 5385.00,4318.69              5385.00,4318.69 5428.00,4296.26 5428.00,4296.26              5494.28,4264.18 5561.46,4237.44 5632.00,4216.28              5689.27,4199.10 5751.72,4185.52 5811.00,4177.72              5811.00,4177.72 5889.00,4169.91 5889.00,4169.91              5889.00,4169.91 5899.00,4169.00 5899.00,4169.00              5899.00,4169.00 5916.00,4168.00 5916.00,4168.00              5916.00,4168.00 5928.00,4168.00 5928.00,4168.00              5928.00,4168.00 5944.00,4167.00 5944.00,4167.00              5944.00,4167.00 5999.00,4167.00 5999.00,4167.00              5999.00,4167.00 6014.00,4168.00 6014.00,4168.00              6014.00,4168.00 6029.00,4168.00 6029.00,4168.00              6029.00,4168.00 6044.00,4169.00 6044.00,4169.00              6044.00,4169.00 6075.00,4170.91 6075.00,4170.91              6075.00,4170.91 6130.00,4175.84 6130.00,4175.84              6193.42,4182.62 6256.32,4194.67 6318.00,4210.88              6592.89,4283.13 6825.07,4447.86 7028.00,4641.96              7028.00,4641.96 7037.00,4650.04 7037.00,4650.04              7037.00,4650.04 7072.00,4685.00 7072.00,4685.00              7072.00,4685.00 7144.91,4760.00 7144.91,4760.00              7203.17,4822.54 7259.29,4887.09 7313.75,4953.00              7313.75,4953.00 7362.40,5013.00 7362.40,5013.00              7362.40,5013.00 7388.00,5045.00 7388.00,5045.00              7388.00,5045.00 7451.12,4961.00 7451.12,4961.00              7496.91,4900.98 7544.64,4842.36 7593.73,4785.00              7711.82,4647.02 7843.96,4514.07 7991.00,4406.85              8090.36,4334.40 8200.93,4270.75 8317.00,4229.31              8386.47,4204.51 8460.65,4184.64 8534.00,4175.85              8534.00,4175.85 8592.00,4169.91 8592.00,4169.91              8592.00,4169.91 8603.00,4169.00 8603.00,4169.00              8603.00,4169.00 8616.00,4168.04 8616.00,4168.04              8616.00,4168.04 8629.00,4168.04 8629.00,4168.04              8629.00,4168.04 8645.00,4167.00 8645.00,4167.00              8645.00,4167.00 8692.00,4167.00 8692.00,4167.00              8692.00,4167.00 8705.00,4167.98 8705.00,4167.98              8705.00,4167.98 8720.00,4167.98 8720.00,4167.98              8720.00,4167.98 8737.00,4169.00 8737.00,4169.00              8737.00,4169.00 8747.00,4169.91 8747.00,4169.91              8747.00,4169.91 8792.00,4173.84 8792.00,4173.84              8839.36,4178.90 8886.64,4186.89 8933.00,4197.88              9315.55,4288.61 9624.92,4558.63 9850.42,4871.00              9980.51,5051.19 10087.67,5252.29 10171.40,5458.00              10193.31,5511.84 10213.21,5566.26 10232.69,5621.00              10289.27,5780.00 10341.43,5979.76 10371.42,6146.00              10371.42,6146.00 10394.73,6284.00 10394.73,6284.00              10403.24,6341.80 10411.02,6399.88 10416.83,6458.00              10416.83,6458.00 10424.17,6539.00 10424.17,6539.00              10424.17,6539.00 10429.09,6605.00 10429.09,6605.00              10429.09,6605.00 10431.00,6632.00 10431.00,6632.00              10431.00,6632.00 10432.00,6648.00 10432.00,6648.00              10432.00,6648.00 10433.00,6673.00 10433.00,6673.00              10433.00,6673.00 10434.00,6688.00 10434.00,6688.00              10434.00,6688.00 10435.04,6710.00 10435.04,6710.00              10435.04,6710.00 10435.04,6723.00 10435.04,6723.00              10435.04,6723.00 10436.00,6734.00 10436.00,6734.00              10436.00,6734.00 10436.00,6749.00 10436.00,6749.00              10436.00,6749.00 10437.00,6766.00 10437.00,6766.00              10437.00,6766.00 10437.00,6794.00 10437.00,6794.00              10437.00,6794.00 10438.00,6809.00 10438.00,6809.00              10438.00,6809.00 10438.00,6933.00 10438.00,6933.00              10438.00,6933.00 10437.00,6948.00 10437.00,6948.00              10437.00,6948.00 10437.00,6968.00 10437.00,6968.00              10437.00,6968.00 10436.04,6980.00 10436.04,6980.00              10436.04,6980.00 10436.04,6994.00 10436.04,6994.00              10436.04,6994.00 10435.00,7009.00 10435.00,7009.00              10435.00,7009.00 10433.00,7053.00 10433.00,7053.00              10433.00,7053.00 10431.09,7078.00 10431.09,7078.00              10431.09,7078.00 10425.17,7149.00 10425.17,7149.00              10418.93,7211.36 10410.56,7273.28 10399.42,7335.00              10346.24,7629.83 10226.46,7925.47 9991.00,8121.41              9957.69,8149.13 9918.24,8177.20 9881.00,8199.40              9804.18,8245.19 9731.92,8274.54 9646.00,8298.42              9598.48,8311.64 9542.07,8321.92 9493.00,8327.16              9493.00,8327.16 9437.00,8332.04 9437.00,8332.04              9437.00,8332.04 9426.00,8333.00 9426.00,8333.00              9426.00,8333.00 9407.00,8334.00 9407.00,8334.00              9407.00,8334.00 9337.00,8335.00 9337.00,8335.00              9337.00,8335.00 9324.00,8334.00 9324.00,8334.00              9324.00,8334.00 9303.00,8334.00 9303.00,8334.00              9303.00,8334.00 9286.00,8333.00 9286.00,8333.00              9286.00,8333.00 9269.00,8332.04 9269.00,8332.04              9269.00,8332.04 9218.00,8328.17 9218.00,8328.17              9131.92,8319.56 9046.64,8302.36 8965.00,8273.31              8803.40,8215.80 8677.66,8126.05 8553.00,8009.91              8553.00,8009.91 8535.00,7992.01 8535.00,7992.01              8535.00,7992.01 8515.00,7973.00 8515.00,7973.00              8515.00,7973.00 8503.99,7961.00 8503.99,7961.00              8503.99,7961.00 8485.04,7942.00 8485.04,7942.00              8428.04,7882.41 8374.81,7818.79 8323.79,7754.00              8224.77,7628.25 8135.10,7495.93 8047.66,7362.00              7948.66,7210.39 7855.74,7054.73 7763.40,6899.00              7763.40,6899.00 7549.40,6539.00 7549.40,6539.00              7549.40,6539.00 7382.80,6261.00 7382.80,6261.00              7382.80,6261.00 7330.19,6175.00 7330.19,6175.00              7330.19,6175.00 7305.00,6133.00 7305.00,6133.00 Z            M 8615.00,4705.19            C 8608.45,4706.23 8602.57,4705.99 8596.00,4706.00              8596.00,4706.00 8584.00,4706.91 8584.00,4706.91              8584.00,4706.91 8547.00,4710.28 8547.00,4710.28              8499.31,4716.56 8452.99,4728.45 8408.00,4745.42              8313.06,4781.24 8223.82,4842.09 8148.00,4908.85              8148.00,4908.85 8109.00,4944.04 8109.00,4944.04              8109.00,4944.04 8090.00,4962.96 8090.00,4962.96              8090.00,4962.96 8079.00,4973.00 8079.00,4973.00              8079.00,4973.00 8067.99,4985.00 8067.99,4985.00              8067.99,4985.00 8048.09,5005.00 8048.09,5005.00              7979.70,5078.41 7923.22,5147.88 7863.13,5228.00              7818.91,5286.95 7776.87,5347.70 7736.00,5409.00              7736.00,5409.00 7706.33,5454.00 7706.33,5454.00              7703.92,5457.63 7696.26,5467.98 7696.92,5472.00              7697.34,5474.56 7701.72,5480.58 7703.33,5483.00              7703.33,5483.00 7718.67,5506.00 7718.67,5506.00              7718.67,5506.00 7773.00,5588.00 7773.00,5588.00              7832.83,5677.75 7889.63,5769.62 7946.95,5861.00              7946.95,5861.00 8074.40,6072.00 8074.40,6072.00              8074.40,6072.00 8267.60,6394.00 8267.60,6394.00              8267.60,6394.00 8347.20,6527.00 8347.20,6527.00              8347.20,6527.00 8384.58,6587.00 8384.58,6587.00              8384.58,6587.00 8523.58,6809.00 8523.58,6809.00              8599.11,6929.69 8676.56,7049.29 8756.66,7167.00              8818.81,7258.35 8903.67,7376.91 8977.91,7457.00              8977.91,7457.00 8998.04,7479.00 8998.04,7479.00              9033.38,7515.95 9075.49,7553.82 9118.00,7582.33              9174.85,7620.46 9233.25,7642.44 9301.00,7651.28              9301.00,7651.28 9331.00,7654.09 9331.00,7654.09              9331.00,7654.09 9341.00,7655.00 9341.00,7655.00              9341.00,7655.00 9356.00,7655.00 9356.00,7655.00              9356.00,7655.00 9373.00,7656.00 9373.00,7656.00              9373.00,7656.00 9383.00,7655.04 9383.00,7655.04              9383.00,7655.04 9397.00,7655.04 9397.00,7655.04              9397.00,7655.04 9409.00,7654.09 9409.00,7654.09              9444.27,7651.66 9479.38,7645.53 9513.00,7634.33              9539.46,7625.52 9566.20,7613.77 9590.00,7599.19              9739.34,7507.71 9799.55,7325.56 9823.27,7161.00              9823.27,7161.00 9831.83,7092.00 9831.83,7092.00              9831.83,7092.00 9833.17,7074.00 9833.17,7074.00              9833.17,7074.00 9836.00,7036.00 9836.00,7036.00              9836.00,7036.00 9837.00,7020.00 9837.00,7020.00              9837.00,7020.00 9837.96,7006.00 9837.96,7006.00              9837.96,7006.00 9837.96,6991.00 9837.96,6991.00              9837.96,6991.00 9839.00,6975.00 9839.00,6975.00              9839.00,6975.00 9839.00,6838.00 9839.00,6838.00              9839.00,6838.00 9838.00,6823.00 9838.00,6823.00              9838.00,6823.00 9838.00,6802.00 9838.00,6802.00              9838.00,6802.00 9837.04,6790.00 9837.04,6790.00              9837.04,6790.00 9837.04,6773.00 9837.04,6773.00              9837.04,6773.00 9836.00,6756.00 9836.00,6756.00              9836.00,6756.00 9835.00,6726.00 9835.00,6726.00              9835.00,6726.00 9834.00,6710.00 9834.00,6710.00              9834.00,6710.00 9833.00,6688.00 9833.00,6688.00              9833.00,6688.00 9832.00,6678.00 9832.00,6678.00              9832.00,6678.00 9832.00,6669.00 9832.00,6669.00              9832.00,6669.00 9830.09,6646.00 9830.09,6646.00              9830.09,6646.00 9821.17,6536.00 9821.17,6536.00              9811.24,6433.48 9797.71,6331.44 9779.42,6230.00              9732.32,5968.74 9655.08,5700.30 9539.26,5461.00              9539.26,5461.00 9510.74,5403.00 9510.74,5403.00              9451.55,5288.29 9382.33,5177.93 9300.42,5078.00              9172.72,4922.19 9011.43,4788.75 8815.00,4732.29              8779.94,4722.21 8745.15,4715.43 8709.00,4710.72              8709.00,4710.72 8667.00,4706.91 8667.00,4706.91              8667.00,4706.91 8655.00,4706.00 8655.00,4706.00              8655.00,4706.00 8644.00,4706.00 8644.00,4706.00              8644.00,4706.00 8633.00,4705.19 8633.00,4705.19              8627.75,4704.73 8620.23,4704.80 8615.00,4705.19 Z            M 5941.00,4849.14            C 5935.61,4850.06 5935.37,4849.99 5930.00,4850.00              5930.00,4850.00 5885.00,4854.43 5885.00,4854.43              5835.67,4861.74 5789.08,4875.00 5743.00,4894.01              5662.03,4927.41 5586.70,4978.77 5521.00,5036.28              5521.00,5036.28 5490.00,5064.91 5490.00,5064.91              5386.63,5161.21 5294.47,5289.85 5223.58,5412.00              5134.74,5565.06 5059.55,5739.39 5005.66,5908.00              5005.66,5908.00 4979.42,5992.00 4979.42,5992.00              4947.53,6101.21 4920.78,6212.03 4900.58,6324.00              4880.11,6437.42 4863.81,6552.09 4855.91,6667.00              4855.91,6667.00 4854.09,6687.00 4854.09,6687.00              4854.09,6687.00 4852.91,6710.00 4852.91,6710.00              4852.91,6710.00 4852.00,6720.00 4852.00,6720.00              4852.00,6720.00 4851.00,6742.00 4851.00,6742.00              4851.00,6742.00 4850.00,6755.00 4850.00,6755.00              4850.00,6755.00 4848.96,6776.00 4848.96,6776.00              4848.96,6776.00 4848.96,6789.00 4848.96,6789.00              4848.96,6789.00 4848.00,6799.00 4848.00,6799.00              4848.00,6799.00 4848.00,6815.00 4848.00,6815.00              4848.00,6815.00 4847.00,6831.00 4847.00,6831.00              4847.00,6831.00 4847.00,6861.00 4847.00,6861.00              4847.00,6861.00 4846.00,6878.00 4846.00,6878.00              4846.00,6878.00 4846.00,6936.00 4846.00,6936.00              4846.00,6936.00 4847.00,6951.00 4847.00,6951.00              4847.00,6951.00 4847.00,6972.00 4847.00,6972.00              4847.00,6972.00 4848.00,6988.00 4848.00,6988.00              4848.00,6988.00 4849.00,7013.00 4849.00,7013.00              4849.00,7013.00 4849.91,7023.00 4849.91,7023.00              4849.91,7023.00 4851.91,7051.00 4851.91,7051.00              4854.25,7084.38 4858.46,7117.95 4863.92,7151.00              4892.51,7324.02 4960.76,7514.08 5123.00,7604.14              5151.25,7619.82 5177.96,7630.57 5209.00,7639.42              5237.07,7647.42 5265.94,7652.06 5295.00,7654.09              5295.00,7654.09 5305.00,7655.04 5305.00,7655.04              5305.00,7655.04 5321.00,7655.04 5321.00,7655.04              5321.00,7655.04 5333.00,7656.00 5333.00,7656.00              5333.00,7656.00 5348.00,7655.00 5348.00,7655.00              5397.25,7654.92 5447.16,7646.75 5494.00,7631.33              5582.48,7602.20 5658.43,7544.71 5725.00,7481.04              5725.00,7481.04 5735.00,7471.99 5735.00,7471.99              5735.00,7471.99 5763.04,7443.00 5763.04,7443.00              5809.06,7394.88 5851.63,7344.17 5893.00,7292.00              6001.74,7154.89 6119.94,6978.64 6216.34,6831.00              6216.34,6831.00 6431.05,6496.00 6431.05,6496.00              6431.05,6496.00 6639.69,6170.00 6639.69,6170.00              6639.69,6170.00 6810.31,5906.00 6810.31,5906.00              6810.31,5906.00 6888.00,5786.00 6888.00,5786.00              6888.00,5786.00 6956.33,5681.00 6956.33,5681.00              6956.33,5681.00 6974.67,5653.00 6974.67,5653.00              6976.48,5650.28 6981.73,5643.02 6981.75,5640.00              6981.77,5636.57 6972.38,5624.47 6969.98,5621.00              6969.98,5621.00 6934.42,5571.00 6934.42,5571.00              6888.08,5506.18 6840.18,5442.23 6790.40,5380.00              6755.39,5336.23 6719.75,5292.51 6682.07,5251.00              6682.07,5251.00 6610.96,5174.00 6610.96,5174.00              6610.96,5174.00 6564.00,5127.96 6564.00,5127.96              6455.35,5024.04 6341.87,4938.53 6199.00,4887.69              6168.49,4876.84 6136.72,4868.95 6105.00,4862.60              6071.65,4855.93 6027.86,4850.39 5994.00,4850.00              5994.00,4850.00 5979.00,4849.14 5979.00,4849.14              5979.00,4849.14 5941.00,4849.14 5941.00,4849.14 Z"/>
</svg>