<svg xmlns="http://www.w3.org/2000/svg" viewBox="7.4 10.25 2544.1 580.25">
  <path id="metacritic-wordmark" fill="#303030" stroke="none" stroke-width="1"
    d="M 283.00,11.42            C 301.88,9.12 336.96,13.19 356.00,17.00              460.51,37.90 543.75,114.33 575.02,216.00              580.54,233.93 586.78,264.43 587.00,283.00              587.40,317.88 587.14,340.63 578.12,375.00              554.27,465.84 485.68,541.72 397.00,573.31              373.55,581.66 338.83,589.96 314.00,590.00              314.00,590.00 279.00,590.00 279.00,590.00              255.27,589.72 218.30,580.83 196.00,572.42              157.10,557.75 120.20,534.77 91.01,505.00              50.79,463.97 22.63,410.60 12.42,354.00              7.82,328.50 7.70,310.60 8.00,285.00              8.00,285.00 8.83,276.00 8.83,276.00              11.34,250.09 16.20,224.46 25.42,200.00              55.92,119.15 118.45,56.71 200.00,27.69              219.07,20.91 240.91,15.79 261.00,13.28              261.00,13.28 283.00,11.42 283.00,11.42 Z            M 284.00,73.14            C 284.00,73.14 272.00,74.28 272.00,74.28              255.75,76.23 239.56,79.55 224.00,84.67              169.75,102.53 123.43,141.86 96.31,192.00              47.71,281.86 65.68,397.82 142.00,466.83              166.28,488.79 192.97,504.66 224.00,515.00              242.73,521.24 261.35,524.74 281.00,526.09              281.00,526.09 291.00,527.00 291.00,527.00              324.91,527.39 362.45,520.26 393.00,505.24              393.00,505.24 416.00,492.94 416.00,492.94              464.73,462.68 502.15,412.81 516.11,357.00              522.28,332.31 523.29,314.21 523.00,289.00              522.89,280.33 520.35,262.76 518.60,254.00              505.08,186.41 459.61,127.61 398.00,96.81              364.04,79.83 326.76,72.56 289.00,73.14              289.00,73.14 284.00,73.14 284.00,73.14 Z            M 2039.00,100.43            C 2049.96,99.08 2062.94,102.12 2070.91,110.09              2086.12,125.30 2083.79,153.19 2065.00,164.52              2060.51,167.23 2054.20,169.03 2049.00,169.71              2037.88,171.16 2025.09,168.00 2017.04,159.96              2004.13,147.04 2004.56,121.59 2018.04,109.18              2024.39,103.34 2030.80,101.77 2039.00,100.43 Z            M 2304.00,100.43            C 2313.44,99.27 2325.67,101.93 2332.98,108.21              2348.67,121.65 2349.91,149.12 2332.98,162.07              2327.09,166.56 2320.26,168.77 2313.00,169.71              2302.08,171.13 2289.03,167.79 2281.18,159.83              2269.00,147.46 2268.77,123.97 2280.33,111.09              2286.80,103.87 2294.92,101.91 2304.00,100.43 Z            M 257.00,211.00            C 257.77,204.07 256.01,199.60 256.01,193.00              256.01,181.94 258.92,167.18 263.23,157.00              267.50,146.92 274.30,137.71 282.00,130.00              287.62,124.39 293.95,119.47 301.00,115.78              310.27,110.94 321.53,108.05 332.00,108.00              377.11,107.81 409.81,147.81 439.00,177.00              439.00,177.00 464.00,202.00 464.00,202.00              464.00,202.00 503.00,242.00 503.00,242.00              503.00,242.00 467.00,278.00 467.00,278.00              464.29,280.71 456.95,289.65 453.00,288.66              450.73,288.10 446.74,283.74 445.00,282.00              445.00,282.00 428.00,265.00 428.00,265.00              428.00,265.00 382.00,219.00 382.00,219.00              373.23,210.23 361.71,197.76 352.00,190.74              336.84,179.79 320.53,174.12 305.17,188.44              290.64,201.99 291.52,220.46 302.22,236.00              306.54,242.27 321.77,256.77 328.00,263.00              328.00,263.00 377.00,312.00 377.00,312.00              377.00,312.00 396.00,331.00 396.00,331.00              397.95,332.96 402.80,337.16 402.80,340.00              402.80,343.22 394.45,350.55 392.00,353.00              392.00,353.00 355.00,389.00 355.00,389.00              355.00,389.00 289.00,323.00 289.00,323.00              278.10,312.10 260.34,292.96 248.00,285.23              242.11,281.54 235.04,278.32 228.00,278.04              210.81,277.35 197.62,292.64 196.32,309.00              196.10,311.75 196.61,314.30 197.08,317.00              200.21,334.69 211.96,343.96 224.00,356.00              224.00,356.00 278.00,410.00 278.00,410.00              284.62,416.62 301.36,432.52 306.00,439.00              306.00,439.00 271.00,474.00 271.00,474.00              268.43,476.57 260.33,485.80 257.00,485.80              253.84,485.80 247.33,478.33 245.00,476.00              245.00,476.00 214.00,445.00 214.00,445.00              214.00,445.00 141.00,372.00 141.00,372.00              141.00,372.00 93.00,327.00 93.00,327.00              93.00,327.00 114.00,305.00 114.00,305.00              114.00,305.00 136.00,284.00 136.00,284.00              136.00,284.00 161.00,303.00 161.00,303.00              159.75,287.63 158.47,274.99 163.69,260.00              174.17,229.97 202.30,205.63 235.00,206.00              242.49,206.09 250.32,207.59 257.00,211.00 Z            M 1290.00,148.00            C 1290.00,148.00 1303.00,145.21 1303.00,145.21              1303.00,145.21 1358.00,133.00 1358.00,133.00              1358.00,133.00 1358.00,196.00 1358.00,196.00              1358.00,196.00 1407.00,196.00 1407.00,196.00              1407.00,196.00 1407.00,247.00 1407.00,247.00              1407.00,247.00 1358.00,247.00 1358.00,247.00              1358.00,247.00 1358.00,331.00 1358.00,331.00              1358.12,341.21 1360.44,352.94 1369.01,359.44              1378.23,366.43 1394.32,363.91 1405.00,362.00              1405.00,362.00 1405.00,407.00 1405.00,407.00              1405.00,409.03 1405.26,412.64 1404.01,414.30              1402.50,416.30 1397.42,417.29 1395.00,417.87              1388.69,419.38 1374.52,420.99 1368.00,421.00              1368.00,421.00 1358.00,421.00 1358.00,421.00              1337.78,420.97 1314.65,412.35 1303.10,395.00              1294.37,381.88 1290.19,359.65 1290.00,344.00              1290.00,344.00 1290.00,247.00 1290.00,247.00              1290.00,247.00 1261.00,247.00 1261.00,247.00              1261.00,247.00 1261.00,196.00 1261.00,196.00              1261.00,196.00 1290.00,196.00 1290.00,196.00              1290.00,196.00 1290.00,148.00 1290.00,148.00 Z            M 2130.00,148.00            C 2130.00,148.00 2143.00,145.21 2143.00,145.21              2143.00,145.21 2198.00,133.00 2198.00,133.00              2198.00,133.00 2198.00,196.00 2198.00,196.00              2198.00,196.00 2247.00,196.00 2247.00,196.00              2247.00,196.00 2247.00,247.00 2247.00,247.00              2247.00,247.00 2198.00,247.00 2198.00,247.00              2198.00,247.00 2198.00,331.00 2198.00,331.00              2198.12,341.25 2200.42,353.04 2209.00,359.58              2217.93,366.39 2234.63,363.86 2245.00,362.00              2245.00,362.00 2245.00,407.00 2245.00,407.00              2245.00,409.03 2245.26,412.64 2244.01,414.30              2242.50,416.30 2237.42,417.29 2235.00,417.87              2228.69,419.38 2214.52,420.99 2208.00,421.00              2208.00,421.00 2198.00,421.00 2198.00,421.00              2177.78,420.97 2154.65,412.35 2143.10,395.00              2134.04,381.38 2130.03,359.21 2130.00,343.00              2130.00,343.00 2130.00,247.00 2130.00,247.00              2130.00,247.00 2101.00,247.00 2101.00,247.00              2101.00,247.00 2101.00,196.00 2101.00,196.00              2101.00,196.00 2130.00,196.00 2130.00,196.00              2130.00,196.00 2130.00,148.00 2130.00,148.00 Z            M 741.00,225.00            C 751.54,212.73 755.69,206.41 771.00,198.81              792.91,187.92 825.01,187.81 846.00,200.82              855.40,206.64 864.90,216.15 868.00,227.00              868.00,227.00 887.00,208.46 887.00,208.46              900.63,197.29 918.39,191.03 936.00,191.00              936.00,191.00 943.00,191.00 943.00,191.00              950.11,191.03 958.24,192.52 965.00,194.75              969.18,196.12 977.42,200.26 981.00,202.78              1004.88,219.60 1013.96,253.06 1014.00,281.00              1014.00,281.00 1014.00,310.00 1014.00,310.00              1014.00,310.00 1014.00,335.00 1014.00,335.00              1014.00,335.00 1014.00,369.00 1014.00,369.00              1014.00,369.00 1014.00,416.00 1014.00,416.00              1014.00,416.00 947.00,416.00 947.00,416.00              947.00,416.00 947.00,303.00 947.00,303.00              947.00,303.00 946.09,291.00 946.09,291.00              944.89,273.63 941.08,250.87 920.00,247.32              904.30,244.68 890.30,254.74 884.47,269.00              881.92,275.25 881.01,283.28 881.00,290.00              881.00,290.00 881.00,416.00 881.00,416.00              881.00,416.00 814.00,416.00 814.00,416.00              814.00,416.00 814.00,296.00 814.00,296.00              813.97,278.10 809.82,252.31 789.00,247.53              765.44,242.12 749.03,265.93 749.00,287.00              749.00,287.00 749.00,416.00 749.00,416.00              749.00,416.00 681.00,416.00 681.00,416.00              681.00,416.00 681.00,275.00 681.00,275.00              681.00,275.00 681.00,232.00 681.00,232.00              681.00,232.00 680.00,215.00 680.00,215.00              680.00,215.00 679.00,196.00 679.00,196.00              679.00,196.00 738.00,196.00 738.00,196.00              738.00,196.00 741.00,225.00 741.00,225.00 Z            M 1240.00,408.00            C 1240.00,408.00 1225.00,412.57 1225.00,412.57              1225.00,412.57 1203.00,417.58 1203.00,417.58              1159.76,425.38 1104.97,422.83 1072.09,389.91              1029.47,347.24 1034.95,259.61 1078.00,219.09              1102.06,196.45 1129.09,190.63 1161.00,191.00              1169.21,191.10 1181.18,193.42 1189.00,196.00              1222.31,207.01 1240.38,231.86 1248.63,265.00              1250.65,273.15 1252.97,291.70 1252.97,300.00              1252.97,300.00 1252.04,310.00 1252.04,310.00              1251.88,313.53 1252.18,324.79 1249.40,326.98              1247.80,328.24 1244.00,328.00 1242.00,328.00              1242.00,328.00 1109.00,328.00 1109.00,328.00              1110.02,333.44 1110.65,337.01 1113.32,342.00              1130.45,373.93 1178.82,371.08 1209.00,365.39              1209.00,365.39 1232.00,360.00 1232.00,360.00              1232.00,360.00 1240.00,408.00 1240.00,408.00 Z            M 1435.00,210.00            C 1444.00,206.12 1449.17,203.08 1459.00,200.02              1483.08,192.53 1503.02,190.88 1528.00,191.00              1536.22,191.04 1550.05,193.07 1558.00,195.29              1566.80,197.76 1573.15,200.19 1581.00,205.06              1607.01,221.20 1617.95,251.43 1618.00,281.00              1618.00,281.00 1618.00,298.00 1618.00,298.00              1618.00,298.00 1618.00,333.00 1618.00,333.00              1618.00,333.00 1618.00,377.00 1618.00,377.00              1618.00,377.00 1619.00,393.00 1619.00,393.00              1619.00,393.00 1621.00,416.00 1621.00,416.00              1621.00,416.00 1567.00,416.00 1567.00,416.00              1567.00,416.00 1559.58,414.98 1559.58,414.98              1559.58,414.98 1557.25,409.00 1557.25,409.00              1557.25,409.00 1555.00,394.00 1555.00,394.00              1547.43,401.57 1542.65,406.53 1533.00,411.68              1511.55,423.12 1477.88,424.57 1456.00,413.63              1432.32,401.79 1420.69,380.84 1419.74,355.00              1418.96,333.56 1425.57,314.72 1441.17,299.72              1451.30,289.98 1462.04,284.58 1475.00,279.61              1497.79,270.88 1523.83,269.00 1548.00,269.00              1547.99,265.17 1548.11,262.75 1546.95,259.00              1539.09,233.75 1500.91,237.40 1481.00,242.37              1481.00,242.37 1467.00,246.69 1467.00,246.69              1467.00,246.69 1448.00,255.00 1448.00,255.00              1448.00,255.00 1435.00,210.00 1435.00,210.00 Z            M 1826.00,411.00            C 1783.89,425.04 1727.68,427.36 1690.00,400.25              1662.42,380.41 1650.22,351.98 1647.91,319.00              1647.91,319.00 1647.00,309.00 1647.00,309.00              1647.00,309.00 1647.83,298.00 1647.83,298.00              1650.54,270.07 1658.64,245.44 1679.04,225.04              1700.96,203.11 1736.27,191.05 1767.00,191.00              1767.00,191.00 1782.00,191.00 1782.00,191.00              1789.29,191.09 1805.79,193.58 1813.00,195.37              1813.00,195.37 1826.00,199.00 1826.00,199.00              1826.00,199.00 1821.80,221.00 1821.80,221.00              1821.80,221.00 1815.00,251.00 1815.00,251.00              1815.00,251.00 1798.00,246.26 1798.00,246.26              1776.17,242.16 1752.82,243.80 1736.04,260.09              1714.82,280.68 1712.26,320.79 1730.52,344.00              1741.96,358.55 1758.68,365.97 1777.00,366.00              1788.86,366.02 1795.42,365.73 1807.00,362.28              1807.00,362.28 1818.00,359.00 1818.00,359.00              1818.00,359.00 1826.00,411.00 1826.00,411.00 Z            M 1912.00,236.00            C 1923.45,203.20 1952.92,185.89 1987.00,192.00              1987.00,192.00 1987.00,257.00 1987.00,257.00              1987.00,257.00 1972.00,255.17 1972.00,255.17              1962.24,254.24 1949.36,257.15 1941.00,262.27              1926.33,271.25 1920.20,286.34 1920.00,303.00              1920.00,303.00 1920.00,416.00 1920.00,416.00              1920.00,416.00 1851.00,416.00 1851.00,416.00              1851.00,416.00 1851.00,245.00 1851.00,245.00              1851.00,245.00 1850.00,230.00 1850.00,230.00              1850.00,230.00 1850.00,215.00 1850.00,215.00              1850.00,215.00 1849.00,196.00 1849.00,196.00              1849.00,196.00 1909.00,196.00 1909.00,196.00              1909.00,196.00 1912.00,236.00 1912.00,236.00 Z            M 2551.00,411.00            C 2505.78,426.07 2446.19,427.43 2408.00,394.70              2361.13,354.53 2360.46,266.27 2405.04,224.17              2434.06,196.76 2468.64,190.55 2507.00,191.00              2514.29,191.09 2530.79,193.58 2538.00,195.37              2538.00,195.37 2551.00,199.00 2551.00,199.00              2551.00,199.00 2546.40,223.00 2546.40,223.00              2546.40,223.00 2540.00,251.00 2540.00,251.00              2540.00,251.00 2523.00,246.26 2523.00,246.26              2501.27,242.21 2477.76,243.87 2461.04,260.09              2440.23,280.28 2437.55,319.86 2454.76,343.00              2465.97,358.08 2483.42,365.97 2502.00,366.00              2513.86,366.02 2520.42,365.73 2532.00,362.28              2532.00,362.28 2543.00,359.00 2543.00,359.00              2543.00,359.00 2551.00,411.00 2551.00,411.00 Z            M 2009.00,196.00            C 2009.00,196.00 2079.00,196.00 2079.00,196.00              2079.00,196.00 2079.00,416.00 2079.00,416.00              2079.00,416.00 2009.00,416.00 2009.00,416.00              2009.00,416.00 2009.00,196.00 2009.00,196.00 Z            M 2274.00,196.00            C 2274.00,196.00 2343.00,196.00 2343.00,196.00              2343.00,196.00 2343.00,416.00 2343.00,416.00              2343.00,416.00 2274.00,416.00 2274.00,416.00              2274.00,416.00 2274.00,196.00 2274.00,196.00 Z            M 1188.00,281.00            C 1187.99,271.65 1186.53,262.10 1181.53,254.00              1169.54,234.57 1143.36,231.80 1126.00,245.52              1116.12,253.32 1109.28,268.47 1109.00,281.00              1109.00,281.00 1188.00,281.00 1188.00,281.00 Z            M 1551.00,313.00            C 1551.00,313.00 1538.00,313.00 1538.00,313.00              1530.06,313.01 1521.61,314.44 1514.00,316.72              1508.75,318.30 1502.31,321.13 1498.01,324.53              1485.14,334.71 1483.73,358.12 1498.01,367.75              1514.41,378.80 1538.85,368.69 1547.19,352.00              1550.29,345.80 1550.99,336.91 1551.00,330.00              1551.00,330.00 1551.00,313.00 1551.00,313.00 Z" />
</svg>