<svg xmlns="http://www.w3.org/2000/svg" viewBox="7.4 10.25 580.21 580.25">
  <path id="metacritic" fill="#303030" stroke="none" stroke-width="1"
    d="M 283.00,11.42            C 301.88,9.12 336.96,13.19 356.00,17.00              460.51,37.90 543.75,114.33 575.02,216.00              580.54,233.93 586.78,264.43 587.00,283.00              587.40,317.88 587.14,340.63 578.12,375.00              554.27,465.84 485.68,541.72 397.00,573.31              373.55,581.66 338.83,589.96 314.00,590.00              314.00,590.00 279.00,590.00 279.00,590.00              255.27,589.72 218.30,580.83 196.00,572.42              157.10,557.75 120.20,534.77 91.01,505.00              50.79,463.97 22.63,410.60 12.42,354.00              7.82,328.50 7.70,310.60 8.00,285.00              8.00,285.00 8.83,276.00 8.83,276.00              11.34,250.09 16.20,224.46 25.42,200.00              55.92,119.15 118.45,56.71 200.00,27.69              219.07,20.91 240.91,15.79 261.00,13.28              261.00,13.28 283.00,11.42 283.00,11.42 Z            M 284.00,73.14            C 284.00,73.14 272.00,74.28 272.00,74.28              255.75,76.23 239.56,79.55 224.00,84.67              169.75,102.53 123.43,141.86 96.31,192.00              47.71,281.86 65.68,397.82 142.00,466.83              166.28,488.79 192.97,504.66 224.00,515.00              242.73,521.24 261.35,524.74 281.00,526.09              281.00,526.09 291.00,527.00 291.00,527.00              324.91,527.39 362.45,520.26 393.00,505.24              393.00,505.24 416.00,492.94 416.00,492.94              464.73,462.68 502.15,412.81 516.11,357.00              522.28,332.31 523.29,314.21 523.00,289.00              522.89,280.33 520.35,262.76 518.60,254.00              505.08,186.41 459.61,127.61 398.00,96.81              364.04,79.83 326.76,72.56 289.00,73.14              289.00,73.14 284.00,73.14 284.00,73.14 Z            M 257.00,211.00            C 257.77,204.07 256.01,199.60 256.01,193.00              256.01,181.94 258.92,167.18 263.23,157.00              267.50,146.92 274.30,137.71 282.00,130.00              287.62,124.39 293.95,119.47 301.00,115.78              310.27,110.94 321.53,108.05 332.00,108.00              377.11,107.81 409.81,147.81 439.00,177.00              439.00,177.00 464.00,202.00 464.00,202.00              464.00,202.00 503.00,242.00 503.00,242.00              503.00,242.00 467.00,278.00 467.00,278.00              464.29,280.71 456.95,289.65 453.00,288.66              450.73,288.10 446.74,283.74 445.00,282.00              445.00,282.00 428.00,265.00 428.00,265.00              428.00,265.00 382.00,219.00 382.00,219.00              373.23,210.23 361.71,197.76 352.00,190.74              336.84,179.79 320.53,174.12 305.17,188.44              290.64,201.99 291.52,220.46 302.22,236.00              306.54,242.27 321.77,256.77 328.00,263.00              328.00,263.00 377.00,312.00 377.00,312.00              377.00,312.00 396.00,331.00 396.00,331.00              397.95,332.96 402.80,337.16 402.80,340.00              402.80,343.22 394.45,350.55 392.00,353.00              392.00,353.00 355.00,389.00 355.00,389.00              355.00,389.00 289.00,323.00 289.00,323.00              278.10,312.10 260.34,292.96 248.00,285.23              242.11,281.54 235.04,278.32 228.00,278.04              210.81,277.35 197.62,292.64 196.32,309.00              196.10,311.75 196.61,314.30 197.08,317.00              200.21,334.69 211.96,343.96 224.00,356.00              224.00,356.00 278.00,410.00 278.00,410.00              284.62,416.62 301.36,432.52 306.00,439.00              306.00,439.00 271.00,474.00 271.00,474.00              268.43,476.57 260.33,485.80 257.00,485.80              253.84,485.80 247.33,478.33 245.00,476.00              245.00,476.00 214.00,445.00 214.00,445.00              214.00,445.00 141.00,372.00 141.00,372.00              141.00,372.00 93.00,327.00 93.00,327.00              93.00,327.00 114.00,305.00 114.00,305.00              114.00,305.00 136.00,284.00 136.00,284.00              136.00,284.00 161.00,303.00 161.00,303.00              159.75,287.63 158.47,274.99 163.69,260.00              174.17,229.97 202.30,205.63 235.00,206.00              242.49,206.09 250.32,207.59 257.00,211.00 Z" />
</svg>