<svg xmlns="http://www.w3.org/2000/svg" viewBox="-0.5 -0.69 721 865.32">
  <path id="meteoroloji-gm" fill="#303030" stroke="none" stroke-width="1"
    d="M 2.60,1.02            C 6.97,-0.84 14.13,0.00 19.00,0.00              19.00,0.00 51.00,0.00 51.00,0.00              51.00,0.00 165.00,0.00 165.00,0.00              165.00,0.00 562.00,0.00 562.00,0.00              562.00,0.00 682.00,0.00 682.00,0.00              682.00,0.00 707.00,0.00 707.00,0.00              709.36,0.00 715.51,-0.42 717.26,0.99              719.38,2.70 719.00,7.50 719.00,10.00              719.00,10.00 719.00,24.00 719.00,24.00              719.00,24.00 720.00,40.00 720.00,40.00              720.00,40.00 720.00,120.00 720.00,120.00              720.00,120.00 719.00,135.00 719.00,135.00              719.00,135.00 719.00,147.00 719.00,147.00              719.00,147.00 718.00,165.00 718.00,165.00              718.00,165.00 717.00,184.00 717.00,184.00              717.00,184.00 715.00,205.00 715.00,205.00              715.00,205.00 715.00,214.00 715.00,214.00              715.00,214.00 709.28,264.00 709.28,264.00              700.85,328.62 687.63,392.11 667.00,454.00              640.14,534.59 601.15,611.95 550.11,680.00              525.25,713.14 497.97,744.54 468.82,773.95              468.82,773.95 458.00,784.00 458.00,784.00              435.48,806.41 410.98,827.37 386.00,847.00              386.00,847.00 368.00,860.87 368.00,860.87              365.62,862.62 363.16,864.82 360.00,863.93              357.69,863.27 349.44,856.71 347.00,854.87              347.00,854.87 319.00,833.00 319.00,833.00              281.86,803.05 247.64,770.07 215.54,734.83              152.52,665.66 103.16,584.77 68.45,498.00              34.12,412.19 15.60,320.70 6.83,229.00              6.83,229.00 5.00,215.00 5.00,215.00              5.00,215.00 5.00,206.00 5.00,206.00              5.00,206.00 3.00,184.00 3.00,184.00              3.00,184.00 2.00,166.00 2.00,166.00              2.00,166.00 0.96,145.00 0.96,145.00              0.96,145.00 0.96,130.00 0.96,130.00              0.96,130.00 0.00,120.00 0.00,120.00              0.00,120.00 0.00,39.00 0.00,39.00              0.00,39.00 1.00,22.00 1.00,22.00              1.01,16.79 -0.22,4.96 2.60,1.02 Z            M 716.04,3.00            C 716.04,3.00 3.96,3.00 3.96,3.00              3.96,3.00 3.96,19.00 3.96,19.00              3.96,19.00 3.00,31.00 3.00,31.00              3.00,31.00 3.00,127.00 3.00,127.00              3.00,127.00 4.00,142.00 4.00,142.00              4.00,142.00 4.00,156.00 4.00,156.00              4.00,156.00 5.00,169.00 5.00,169.00              5.00,169.00 6.91,199.00 6.91,199.00              9.55,237.63 14.15,275.77 20.57,314.00              41.58,439.25 86.07,558.30 160.29,662.00              160.29,662.00 198.87,712.00 198.87,712.00              239.26,758.92 269.28,788.47 317.00,828.08              317.00,828.08 349.00,853.13 349.00,853.13              351.90,855.33 358.45,861.33 362.00,861.00              365.03,860.72 373.26,853.77 376.00,851.65              376.00,851.65 408.00,825.92 408.00,825.92              451.27,789.82 491.06,749.74 526.61,706.00              632.26,576.02 687.41,425.10 707.15,260.00              711.88,220.47 715.54,180.80 716.00,141.00              716.00,141.00 717.00,126.00 717.00,126.00              717.00,126.00 717.00,30.00 717.00,30.00              717.00,30.00 716.04,20.00 716.04,20.00              716.04,20.00 716.04,3.00 716.04,3.00 Z            M 316.00,14.43            C 327.50,13.11 340.30,17.53 346.10,28.00              350.74,36.39 349.51,39.52 350.09,48.00              350.09,48.00 351.00,58.00 351.00,58.00              351.00,58.00 350.17,103.00 350.17,103.00              349.58,109.21 350.68,111.09 348.56,118.00              344.87,130.03 334.24,136.85 322.00,137.00              322.00,137.00 318.00,137.00 318.00,137.00              306.00,136.86 296.37,131.47 291.76,120.00              288.14,110.97 289.00,94.95 289.00,85.00              289.00,85.00 289.00,68.00 289.00,68.00              289.00,51.22 285.99,28.23 303.00,18.36              307.56,15.72 310.97,15.25 316.00,14.43 Z            M 458.00,14.43            C 469.42,13.12 482.07,17.60 487.82,28.00              493.48,38.24 492.00,54.38 492.00,66.00              492.00,66.00 492.00,82.00 492.00,82.00              492.00,100.82 496.19,128.45 473.00,135.56              468.14,137.05 464.99,137.05 460.00,137.00              447.89,136.86 438.16,131.66 433.48,120.00              429.91,111.13 431.00,94.94 431.00,85.00              431.00,85.00 431.00,55.00 431.00,55.00              431.00,40.99 430.90,26.14 445.01,18.18              449.40,15.71 453.17,15.22 458.00,14.43 Z            M 576.00,14.44            C 587.58,12.99 600.63,17.52 606.64,28.00              612.25,37.79 611.00,55.73 611.00,67.00              611.00,67.00 611.00,93.00 611.00,93.00              611.00,110.77 611.76,129.32 591.00,135.78              586.56,137.16 582.58,137.05 578.00,137.00              558.55,136.76 550.03,122.90 550.00,105.00              550.00,105.00 549.00,88.00 549.00,88.00              549.00,88.00 549.00,63.00 549.00,63.00              549.00,63.00 550.00,44.00 550.00,44.00              550.21,26.17 559.09,17.56 576.00,14.44 Z            M 28.00,17.00            C 28.00,17.00 62.00,17.00 62.00,17.00              62.00,17.00 69.00,70.00 69.00,70.00              69.00,70.00 71.00,70.00 71.00,70.00              71.00,70.00 76.00,17.00 76.00,17.00              76.00,17.00 111.00,17.00 111.00,17.00              111.00,17.00 111.00,135.00 111.00,135.00              111.00,135.00 88.00,135.00 88.00,135.00              88.00,135.00 88.00,85.00 88.00,85.00              88.00,85.00 87.00,58.00 87.00,58.00              87.00,58.00 79.72,117.00 79.72,117.00              77.87,132.33 79.14,134.85 71.00,135.00              68.95,135.03 64.32,135.29 62.74,134.01              60.37,132.09 59.90,119.49 59.42,116.00              59.42,116.00 51.96,59.00 51.96,59.00              51.96,59.00 51.96,73.00 51.96,73.00              51.96,73.00 51.00,85.00 51.00,85.00              51.00,85.00 51.00,135.00 51.00,135.00              51.00,135.00 35.00,135.00 35.00,135.00              35.00,135.00 29.02,133.40 29.02,133.40              29.02,133.40 28.00,126.00 28.00,126.00              28.00,126.00 28.00,17.00 28.00,17.00 Z            M 122.00,17.00            C 122.00,17.00 166.00,17.00 166.00,17.00              166.00,17.00 166.00,40.00 166.00,40.00              162.73,40.00 152.67,39.45 150.31,41.02              146.73,43.41 148.00,58.53 148.00,63.00              148.00,63.00 165.00,63.00 165.00,63.00              165.00,63.00 165.00,85.00 165.00,85.00              161.84,85.00 152.64,84.47 150.31,86.02              147.73,87.75 148.02,91.27 148.00,94.00              148.00,94.00 148.00,111.00 148.00,111.00              148.00,111.00 168.00,111.00 168.00,111.00              168.00,111.00 168.00,135.00 168.00,135.00              168.00,135.00 122.00,135.00 122.00,135.00              122.00,135.00 122.00,17.00 122.00,17.00 Z            M 170.00,17.00            C 170.00,17.00 229.00,17.00 229.00,17.00              229.00,17.00 229.00,40.00 229.00,40.00              225.14,40.00 215.30,38.90 213.02,42.31              211.79,44.16 212.00,47.81 212.00,50.00              212.00,50.00 212.00,135.00 212.00,135.00              212.00,135.00 186.00,135.00 186.00,135.00              186.00,135.00 186.00,40.00 186.00,40.00              186.00,40.00 170.00,40.00 170.00,40.00              170.00,40.00 170.00,17.00 170.00,17.00 Z            M 235.00,17.00            C 235.00,17.00 279.00,17.00 279.00,17.00              279.00,17.00 279.00,40.00 279.00,40.00              275.73,40.00 265.67,39.45 263.31,41.02              259.73,43.41 261.00,58.53 261.00,63.00              261.00,63.00 278.00,63.00 278.00,63.00              278.00,63.00 278.00,85.00 278.00,85.00              274.84,85.00 265.64,84.47 263.31,86.02              260.73,87.75 261.02,91.27 261.00,94.00              261.00,94.00 261.00,111.00 261.00,111.00              261.00,111.00 281.00,111.00 281.00,111.00              281.00,111.00 281.00,135.00 281.00,135.00              281.00,135.00 235.00,135.00 235.00,135.00              235.00,135.00 235.00,17.00 235.00,17.00 Z            M 360.00,17.00            C 360.00,17.00 392.00,17.00 392.00,17.00              397.30,17.07 405.49,18.08 409.96,20.99              419.99,27.52 420.22,44.43 419.17,55.00              418.69,59.80 418.99,63.59 416.01,67.89              413.53,71.47 409.77,72.33 406.00,74.00              410.90,75.76 414.16,77.30 416.99,82.00              419.42,86.02 418.75,88.70 419.17,93.00              419.17,93.00 420.00,116.00 420.00,116.00              420.00,119.48 420.92,131.99 418.40,133.98              416.92,135.15 413.82,134.99 412.00,135.00              408.74,135.02 397.96,135.86 396.02,133.40              394.77,131.81 395.00,127.99 395.00,126.00              395.00,126.00 395.00,98.00 395.00,98.00              395.00,94.89 395.45,87.63 393.98,85.15              392.14,82.04 389.16,82.11 386.00,82.00              386.00,82.00 386.00,135.00 386.00,135.00              386.00,135.00 360.00,135.00 360.00,135.00              360.00,135.00 360.00,17.00 360.00,17.00 Z            M 502.00,17.00            C 502.00,17.00 528.00,17.00 528.00,17.00              528.00,17.00 528.00,111.00 528.00,111.00              531.29,111.00 542.02,110.12 543.98,112.60              545.53,114.56 545.02,124.13 545.00,127.00              544.98,129.13 545.26,132.51 543.40,133.98              541.81,135.23 537.99,135.00 536.00,135.00              536.00,135.00 502.00,135.00 502.00,135.00              502.00,135.00 502.00,17.00 502.00,17.00 Z            M 628.00,17.00            C 628.00,17.00 654.00,17.00 654.00,17.00              654.00,17.00 654.00,98.00 654.00,98.00              654.00,107.06 655.55,123.03 648.79,129.79              642.16,136.42 626.84,135.00 618.00,135.00              618.00,135.00 618.00,115.00 618.00,115.00              627.07,114.46 627.96,110.14 628.00,102.00              628.00,102.00 628.00,17.00 628.00,17.00 Z            M 664.00,17.00            C 664.00,17.00 690.00,17.00 690.00,17.00              690.00,17.00 690.00,35.00 690.00,35.00              690.00,35.00 664.00,35.00 664.00,35.00              664.00,35.00 664.00,17.00 664.00,17.00 Z            M 319.10,34.58            C 314.15,36.67 315.01,41.31 315.00,46.00              315.00,46.00 315.00,108.00 315.00,108.00              315.04,111.42 315.29,119.01 320.87,117.16              325.14,115.74 324.98,107.65 325.00,104.00              325.00,104.00 325.00,46.00 325.00,46.00              324.94,41.05 325.12,35.24 319.10,34.58 Z            M 460.14,34.66            C 455.02,38.07 457.00,47.48 457.00,53.00              457.00,53.00 457.00,107.00 457.00,107.00              457.00,109.16 456.86,112.93 457.74,114.85              459.23,118.15 462.93,118.31 464.83,115.57              466.24,113.53 466.00,109.44 466.00,107.00              466.00,107.00 466.00,51.00 466.00,51.00              466.00,45.34 468.30,34.07 460.14,34.66 Z            M 579.13,34.66            C 574.93,37.44 575.06,42.32 575.00,47.00              575.00,47.00 575.00,104.00 575.00,104.00              575.04,106.94 575.40,114.36 577.59,116.38              578.53,117.24 579.67,117.57 580.91,117.26              585.41,116.12 584.99,109.54 585.00,106.00              585.00,106.00 585.00,45.00 585.00,45.00              584.98,40.22 585.53,34.18 579.13,34.66 Z            M 387.00,36.00            C 386.16,38.95 386.05,39.94 386.00,43.00              386.00,43.00 386.00,57.00 386.00,57.00              386.09,61.57 388.66,66.99 393.40,61.57              395.78,58.85 395.07,48.79 395.00,45.00              394.96,43.19 395.01,40.88 393.98,39.31              392.55,37.14 389.35,36.66 387.00,36.00 Z            M 664.00,135.00            C 664.00,135.00 664.00,64.00 664.00,64.00              664.00,64.00 664.00,49.00 664.00,49.00              664.00,49.00 665.60,43.02 665.60,43.02              665.60,43.02 673.00,42.00 673.00,42.00              673.00,42.00 690.00,42.00 690.00,42.00              690.00,42.00 690.00,135.00 690.00,135.00              690.00,135.00 664.00,135.00 664.00,135.00 Z            M 28.00,150.00            C 28.00,150.00 692.00,150.00 692.00,150.00              692.00,150.00 692.00,164.00 692.00,164.00              692.00,164.00 692.96,179.00 692.96,179.00              692.96,179.00 692.96,193.00 692.96,193.00              692.96,193.00 692.00,205.00 692.00,205.00              692.00,205.00 692.00,225.00 692.00,225.00              692.00,225.00 690.09,252.00 690.09,252.00              687.85,284.52 683.62,317.10 676.58,349.00              670.80,375.16 663.44,400.69 654.66,426.00              648.57,443.53 647.27,438.82 642.00,459.00              637.89,460.33 631.41,471.22 627.91,475.00              627.91,475.00 610.84,491.09 610.84,491.09              609.17,493.59 606.15,503.54 605.00,507.00              605.00,507.00 595.00,537.00 595.00,537.00              595.00,537.00 591.00,536.00 591.00,536.00              591.00,536.00 604.00,494.00 604.00,494.00              604.00,494.00 588.42,499.70 588.42,499.70              588.42,499.70 582.00,515.00 582.00,515.00              582.00,515.00 569.00,552.00 569.00,552.00              569.00,552.00 565.00,551.00 565.00,551.00              565.00,551.00 570.31,535.00 570.31,535.00              570.31,535.00 582.00,499.06 582.00,499.06              579.29,499.00 567.75,498.32 566.22,499.06              563.43,500.56 562.27,505.19 561.33,508.00              561.33,508.00 553.00,533.00 553.00,533.00              547.52,531.06 549.86,527.45 551.33,523.00              551.33,523.00 556.42,508.00 556.42,508.00              557.19,505.94 559.25,501.12 559.17,499.11              559.01,495.26 553.93,494.39 551.00,493.13              544.12,490.17 535.09,484.66 529.00,480.26              526.59,478.51 521.94,474.14 519.00,474.30              516.33,474.44 511.36,479.12 509.00,480.84              503.43,484.90 497.41,488.28 491.00,490.80              486.10,492.72 481.56,492.80 479.11,498.04              479.11,498.04 470.34,523.00 470.34,523.00              468.72,527.68 468.76,531.76 463.00,531.00              463.00,531.00 475.00,495.00 475.00,495.00              475.00,495.00 455.00,494.00 455.00,494.00              455.00,494.00 440.67,536.00 440.67,536.00              438.97,541.09 438.44,548.85 432.00,548.00              432.00,548.00 444.74,509.00 444.74,509.00              445.77,505.89 449.87,497.13 448.65,494.30              447.70,492.07 440.50,489.95 438.00,488.74              424.21,482.09 423.57,480.24 412.00,473.00              412.00,473.00 392.69,528.00 392.69,528.00              392.69,528.00 378.95,568.00 378.95,568.00              378.95,568.00 367.33,601.00 367.33,601.00              367.33,601.00 362.00,619.00 362.00,619.00              362.00,619.00 404.00,618.00 404.00,618.00              401.19,612.35 403.77,608.70 405.67,603.00              405.67,603.00 417.00,570.00 417.00,570.00              417.91,567.28 420.25,558.42 422.51,557.07              423.89,556.34 424.70,556.83 426.00,557.07              426.00,557.07 416.69,585.00 416.69,585.00              416.69,585.00 406.00,617.00 406.00,617.00              406.00,617.00 409.00,618.00 409.00,618.00              409.00,618.00 399.31,641.00 399.31,641.00              399.31,641.00 378.31,687.00 378.31,687.00              378.31,687.00 341.86,767.00 341.86,767.00              341.86,767.00 329.63,794.00 329.63,794.00              329.63,794.00 322.00,809.00 322.00,809.00              322.00,809.00 333.27,762.00 333.27,762.00              333.27,762.00 349.37,697.00 349.37,697.00              349.37,697.00 359.00,657.00 359.00,657.00              359.00,657.00 303.00,657.00 303.00,657.00              303.00,657.00 315.12,609.00 315.12,609.00              315.12,609.00 332.71,541.00 332.71,541.00              332.71,541.00 341.37,508.00 341.37,508.00              342.00,505.55 344.45,497.73 343.57,495.68              342.40,492.96 336.64,491.05 334.00,489.73              328.33,486.89 321.03,481.66 316.00,477.72              313.84,476.03 310.98,473.03 308.00,473.49              308.00,473.49 292.00,483.99 292.00,483.99              282.15,489.75 268.53,494.41 257.00,493.96              245.74,493.52 232.65,489.30 223.00,483.55              219.23,481.30 209.49,472.96 206.00,473.07              206.00,473.07 190.00,480.40 190.00,480.40              178.87,484.94 166.12,488.85 154.00,489.00              136.53,489.20 121.30,486.65 106.00,477.55              100.46,474.25 94.87,470.22 90.00,466.00              86.99,463.39 84.11,459.41 80.00,459.00              74.04,446.74 59.74,398.47 55.29,383.00              45.98,350.61 37.11,310.36 32.72,277.00              32.72,277.00 28.00,237.00 28.00,237.00              28.00,237.00 28.00,229.00 28.00,229.00              28.00,229.00 27.00,219.00 27.00,219.00              27.00,219.00 26.00,198.00 26.00,198.00              26.00,198.00 26.00,179.00 26.00,179.00              26.00,179.00 27.00,161.00 27.00,161.00              27.00,161.00 28.00,150.00 28.00,150.00 Z            M 653.00,418.00            C 656.91,415.31 658.12,408.45 659.42,404.00              659.42,404.00 669.37,369.00 669.37,369.00              677.90,334.92 683.50,299.95 687.00,265.00              687.00,265.00 687.00,257.00 687.00,257.00              687.00,257.00 688.09,243.00 688.09,243.00              688.09,243.00 689.00,233.00 689.00,233.00              689.00,233.00 689.00,229.00 689.00,229.00              689.00,229.00 690.00,212.00 690.00,212.00              690.00,212.00 690.00,160.00 690.00,160.00              689.94,151.87 688.73,152.02 681.00,152.00              681.00,152.00 187.00,152.00 187.00,152.00              187.00,152.00 39.00,152.00 39.00,152.00              37.01,152.00 33.19,151.77 31.60,153.02              29.86,154.39 30.09,157.03 29.97,159.00              29.97,159.00 29.00,172.00 29.00,172.00              29.00,172.00 29.00,208.00 29.00,208.00              29.00,208.00 30.00,222.00 30.00,222.00              30.00,222.00 30.00,226.00 30.00,226.00              30.00,226.00 32.83,257.00 32.83,257.00              36.62,294.87 44.45,332.22 54.12,369.00              58.83,386.95 72.20,433.50 79.00,449.00              82.51,443.27 83.33,434.00 92.92,421.00              95.63,417.34 100.47,412.20 104.00,409.38              117.56,398.53 129.81,398.97 146.00,399.00              146.00,399.00 168.00,401.00 168.00,401.00              168.32,386.32 172.06,379.91 175.00,367.00              167.45,367.63 152.83,372.57 145.00,374.98              145.00,374.98 98.00,388.71 98.00,388.71              90.98,390.73 75.45,396.38 69.00,396.00              69.00,396.00 100.00,382.31 100.00,382.31              100.00,382.31 158.00,356.14 158.00,356.14              158.00,356.14 179.00,346.42 179.00,346.42              181.62,345.28 186.32,343.73 187.34,340.81              188.72,336.89 184.74,336.14 182.00,335.58              182.00,335.58 160.00,331.73 160.00,331.73              160.00,331.73 99.00,320.61 99.00,320.61              99.00,320.61 64.00,314.00 64.00,314.00              64.00,314.00 80.00,314.00 80.00,314.00              80.00,314.00 92.00,314.96 92.00,314.96              92.00,314.96 106.00,314.96 106.00,314.96              106.00,314.96 118.00,315.96 118.00,315.96              118.00,315.96 133.00,315.96 133.00,315.96              133.00,315.96 145.00,316.96 145.00,316.96              145.00,316.96 159.00,316.96 159.00,316.96              159.00,316.96 174.00,318.00 174.00,318.00              178.96,318.05 193.78,320.24 191.23,311.09              190.36,307.96 184.66,304.76 182.00,302.86              182.00,302.86 158.00,286.00 158.00,286.00              158.00,286.00 95.00,241.72 95.00,241.72              95.00,241.72 63.00,219.00 63.00,219.00              63.00,219.00 87.00,230.74 87.00,230.74              87.00,230.74 137.00,255.25 137.00,255.25              137.00,255.25 172.00,272.58 172.00,272.58              172.00,272.58 192.00,282.25 192.00,282.25              194.33,283.41 199.58,286.38 202.00,286.30              204.91,286.20 207.72,283.41 209.06,281.00              211.32,276.91 208.76,274.25 206.37,271.00              206.37,271.00 192.87,253.00 192.87,253.00              192.87,253.00 134.00,174.00 134.00,174.00              134.00,174.00 170.01,209.04 170.01,209.04              170.01,209.04 211.00,250.00 211.00,250.00              211.00,250.00 222.00,260.03 222.00,260.03              222.00,260.03 229.00,265.01 229.00,265.01              229.00,265.01 235.00,263.24 235.00,263.24              235.00,263.24 240.59,258.79 240.59,258.79              240.59,258.79 238.58,251.00 238.58,251.00              238.58,251.00 230.23,232.00 230.23,232.00              230.23,232.00 208.72,183.00 208.72,183.00              208.72,183.00 200.00,161.00 200.00,161.00              203.54,168.22 212.06,178.86 216.98,186.00              216.98,186.00 251.42,235.00 251.42,235.00              253.46,237.88 262.38,251.00 264.32,252.15              266.43,253.74 270.45,253.51 272.49,252.15              275.38,249.84 277.33,235.14 278.21,231.00              278.21,231.00 286.20,193.00 286.20,193.00              287.51,186.53 288.87,176.46 292.00,171.00              292.00,171.00 292.00,241.00 292.00,241.00              291.92,248.63 290.10,251.10 297.02,253.65              298.53,254.21 301.32,255.16 302.90,254.89              305.69,254.41 307.29,251.18 308.68,249.00              308.68,249.00 317.95,234.00 317.95,234.00              317.95,234.00 357.00,171.00 357.00,171.00              357.00,171.00 329.14,234.00 329.14,234.00              329.14,234.00 317.00,263.00 317.00,263.00              317.00,263.00 329.00,269.02 329.00,269.02              329.00,269.02 339.00,263.00 339.00,263.00              339.00,263.00 362.00,246.42 362.00,246.42              362.00,246.42 431.00,196.58 431.00,196.58              431.00,196.58 464.00,173.00 464.00,173.00              464.00,173.00 432.00,203.09 432.00,203.09              432.00,203.09 406.00,227.91 406.00,227.91              406.00,227.91 376.00,255.99 376.00,255.99              376.00,255.99 344.00,287.00 344.00,287.00              344.00,287.00 360.00,287.98 360.00,287.98              362.13,288.26 364.85,288.86 366.82,287.98              366.82,287.98 381.00,273.00 381.00,273.00              392.56,261.58 400.86,257.81 417.00,258.00              426.12,258.11 434.66,261.20 443.00,264.60              446.49,266.03 452.72,269.41 456.00,269.75              459.11,270.07 463.80,268.51 467.00,267.79              473.01,266.46 481.92,264.80 488.00,265.04              516.99,266.16 529.50,283.56 538.00,309.00              543.31,308.03 556.07,305.81 561.00,306.09              578.17,307.06 594.35,312.90 603.91,328.00              606.41,331.96 608.01,336.50 609.26,341.00              611.01,347.32 611.98,355.45 612.00,362.00              635.91,368.82 657.67,391.89 653.00,418.00 Z            M 328.00,285.00            C 317.64,277.40 310.68,272.63 298.00,269.16              268.93,261.19 235.17,271.35 217.16,296.00              210.82,304.67 206.29,314.49 204.01,325.00              204.01,325.00 202.00,340.00 202.00,340.00              207.67,340.74 212.39,338.10 218.00,337.15              218.00,337.15 239.00,337.15 239.00,337.15              242.46,337.04 251.60,338.84 253.79,337.81              256.46,336.55 259.93,329.69 261.70,327.00              266.14,320.20 271.95,313.58 278.00,308.17              286.05,300.99 297.64,294.54 308.00,291.44              308.00,291.44 328.00,287.00 328.00,287.00              328.00,287.00 328.00,285.00 328.00,285.00 Z            M 412.00,460.00            C 422.21,472.25 447.67,485.81 464.00,486.00              478.98,486.17 488.32,483.46 501.00,475.30              504.96,472.75 508.49,470.07 512.00,466.93              513.78,465.33 516.47,462.40 519.00,462.33              521.38,462.27 524.24,464.98 526.00,466.41              530.85,470.38 532.77,471.86 538.00,475.33              551.17,484.07 563.87,490.18 580.00,490.00              601.92,489.75 618.71,474.23 630.33,457.00              632.74,453.42 639.17,443.91 639.64,440.00              639.99,437.07 637.91,430.01 636.98,427.00              633.49,415.74 631.47,409.67 624.24,400.00              618.42,392.22 610.99,387.70 602.00,384.44              598.97,383.34 590.14,381.78 588.60,380.26              586.46,378.16 586.96,369.54 586.41,366.00              584.42,353.31 580.89,341.48 568.00,335.88              559.38,332.13 548.21,332.15 539.00,333.29              535.91,333.67 526.62,336.00 524.30,334.81              522.18,333.72 517.26,321.00 515.75,318.00              508.34,303.28 501.24,294.93 484.00,295.00              476.29,295.03 472.10,296.39 465.00,299.20              462.14,300.34 456.83,303.23 454.00,302.77              451.79,302.42 447.16,299.27 445.00,298.01              440.45,295.36 435.06,292.93 430.00,291.44              424.39,289.79 420.73,289.93 415.00,290.00              397.07,290.22 384.58,305.80 378.00,321.00              352.21,313.52 328.86,312.93 306.00,329.04              297.26,335.20 289.64,343.58 283.12,352.00              281.09,354.63 273.96,364.83 271.82,365.94              269.50,367.14 256.20,365.01 252.00,365.00              239.52,364.98 228.40,366.09 217.00,371.81              198.52,381.08 186.97,402.35 183.00,422.00              157.43,415.22 129.56,418.98 107.00,432.81              102.94,435.30 89.59,444.00 88.17,448.01              86.42,452.95 96.56,459.91 100.00,462.58              116.83,475.64 133.01,480.24 154.00,480.00              165.76,479.86 180.39,474.84 191.00,469.92              191.00,469.92 207.58,461.51 207.58,461.51              210.00,461.48 214.03,465.93 216.00,467.54              220.59,471.29 228.61,476.72 234.00,479.14              263.39,492.34 287.75,480.24 309.00,459.00              312.58,463.10 316.81,466.62 321.00,470.08              338.32,484.35 360.04,494.00 382.00,484.14              394.76,478.40 402.37,469.63 412.00,460.00 Z            M 523.00,487.00            C 523.00,487.00 527.00,488.00 527.00,488.00              527.00,488.00 513.00,530.00 513.00,530.00              513.00,530.00 509.00,529.00 509.00,529.00              509.00,529.00 515.31,509.00 515.31,509.00              515.31,509.00 523.00,487.00 523.00,487.00 Z            M 626.00,495.00            C 626.00,495.00 631.00,496.00 631.00,496.00              631.00,496.00 613.00,548.00 613.00,548.00              613.00,548.00 609.00,547.00 609.00,547.00              609.00,547.00 626.00,495.00 626.00,495.00 Z            M 495.00,497.00            C 495.00,497.00 499.00,498.00 499.00,498.00              499.00,498.00 492.67,518.00 492.67,518.00              492.67,518.00 480.00,556.00 480.00,556.00              480.00,556.00 476.00,555.00 476.00,555.00              476.00,555.00 483.00,532.00 483.00,532.00              483.00,532.00 495.00,497.00 495.00,497.00 Z            M 537.00,504.00            C 537.00,504.00 541.00,504.00 541.00,504.00              541.00,504.00 525.00,556.00 525.00,556.00              525.00,556.00 520.00,555.00 520.00,555.00              520.00,555.00 537.00,504.00 537.00,504.00 Z            M 122.00,511.66            C 136.35,509.35 138.90,527.11 127.98,530.70              116.98,534.32 107.79,517.69 122.00,511.66 Z            M 210.00,513.69            C 223.36,512.04 227.19,529.48 214.99,533.11              208.69,534.98 201.90,529.58 202.43,523.00              202.84,518.01 205.68,515.48 210.00,513.69 Z            M 290.00,514.74            C 304.08,511.68 306.93,529.31 296.96,533.26              290.17,535.95 282.35,530.40 283.27,523.00              283.80,518.73 286.49,516.62 290.00,514.74 Z            M 577.00,553.00            C 577.00,553.00 581.00,554.00 581.00,554.00              581.00,554.00 565.00,604.00 565.00,604.00              565.00,604.00 560.00,603.00 560.00,603.00              560.00,603.00 577.00,553.00 577.00,553.00 Z            M 493.00,554.00            C 493.00,554.00 497.00,555.00 497.00,555.00              497.00,555.00 483.00,597.00 483.00,597.00              477.25,594.96 480.15,590.56 481.67,586.00              481.67,586.00 493.00,554.00 493.00,554.00 Z            M 533.00,556.00            C 533.00,556.00 537.00,557.00 537.00,557.00              537.00,557.00 526.67,589.00 526.67,589.00              524.95,594.15 524.88,598.99 519.00,600.00              519.75,591.72 529.76,565.73 533.00,556.00 Z            M 445.00,561.00            C 450.79,563.34 448.31,567.21 446.59,572.00              446.59,572.00 437.00,600.00 437.00,600.00              437.00,600.00 433.00,599.00 433.00,599.00              433.00,599.00 445.00,561.00 445.00,561.00 Z            M 535.00,619.00            C 535.00,619.00 549.33,575.00 549.33,575.00              551.11,569.67 551.75,562.07 558.00,561.00              558.00,561.00 551.33,584.00 551.33,584.00              551.33,584.00 539.00,620.00 539.00,620.00              539.00,620.00 535.00,619.00 535.00,619.00 Z            M 596.00,562.00            C 596.00,562.00 601.00,563.00 601.00,563.00              601.00,563.00 583.00,615.00 583.00,615.00              583.00,615.00 579.00,614.00 579.00,614.00              579.00,614.00 596.00,562.00 596.00,562.00 Z            M 464.00,565.00            C 464.00,565.00 469.00,566.00 469.00,566.00              469.00,566.00 455.33,607.00 455.33,607.00              455.33,607.00 450.00,623.00 450.00,623.00              448.88,622.60 447.87,622.60 447.11,621.41              445.59,619.02 449.09,610.74 450.00,608.00              450.00,608.00 464.00,565.00 464.00,565.00 Z            M 507.00,571.00            C 513.50,573.28 509.31,580.07 507.67,585.00              507.67,585.00 495.00,623.00 495.00,623.00              495.00,623.00 490.00,622.00 490.00,622.00              490.00,622.00 507.00,571.00 507.00,571.00 Z            M 159.00,586.74            C 174.80,583.07 177.08,603.79 164.00,605.76              154.13,607.25 146.24,593.61 159.00,586.74 Z            M 248.00,588.61            C 261.59,587.29 263.86,604.62 253.00,607.57              240.75,610.89 233.57,594.04 248.00,588.61 Z            M 420.00,614.00            C 420.00,614.00 425.00,615.00 425.00,615.00              425.00,615.00 408.00,667.00 408.00,667.00              408.00,667.00 403.00,666.00 403.00,666.00              403.00,666.00 420.00,614.00 420.00,614.00 Z            M 531.00,672.00            C 531.00,672.00 545.33,629.00 545.33,629.00              547.11,623.67 547.75,616.07 554.00,615.00              553.43,621.25 550.76,627.12 548.69,633.00              548.69,633.00 539.67,660.00 539.67,660.00              537.97,665.09 537.44,672.85 531.00,672.00 Z            M 506.00,618.00            C 506.00,618.00 510.00,619.00 510.00,619.00              510.00,619.00 493.00,671.00 493.00,671.00              493.00,671.00 488.00,670.00 488.00,670.00              488.00,670.00 506.00,618.00 506.00,618.00 Z            M 463.00,620.00            C 463.00,620.00 465.34,622.41 465.34,622.41              465.34,622.41 462.00,636.00 462.00,636.00              462.00,636.00 448.00,678.00 448.00,678.00              448.00,678.00 443.00,677.00 443.00,677.00              443.00,677.00 463.00,620.00 463.00,620.00 Z            M 435.00,632.00            C 435.00,632.00 437.34,634.41 437.34,634.41              437.34,634.41 434.00,648.00 434.00,648.00              434.00,648.00 420.00,690.00 420.00,690.00              413.19,687.25 418.17,680.35 420.00,675.00              420.00,675.00 435.00,632.00 435.00,632.00 Z            M 522.00,637.00            C 522.00,637.00 526.00,638.00 526.00,638.00              526.00,638.00 519.67,659.00 519.67,659.00              519.67,659.00 506.00,699.00 506.00,699.00              506.00,699.00 501.00,697.00 501.00,697.00              501.00,697.00 522.00,637.00 522.00,637.00 Z            M 458.00,701.00            C 458.00,701.00 473.67,653.00 473.67,653.00              473.67,653.00 479.51,639.07 479.51,639.07              479.51,639.07 483.00,639.07 483.00,639.07              483.00,639.07 473.33,669.00 473.33,669.00              473.33,669.00 462.00,702.00 462.00,702.00              462.00,702.00 458.00,701.00 458.00,701.00 Z            M 520.00,652.00            C 520.00,652.00 519.00,652.00 519.00,652.00              519.00,652.00 520.00,653.00 520.00,653.00              520.00,653.00 520.00,652.00 520.00,652.00 Z            M 204.02,661.74            C 219.78,658.06 222.10,678.78 209.00,680.76              198.84,682.29 192.32,668.19 204.02,661.74 Z            M 293.00,663.58            C 307.05,661.80 308.70,679.66 298.00,682.57              286.00,685.83 278.81,669.10 293.00,663.58 Z            M 390.00,692.00            C 390.00,692.00 395.00,693.00 395.00,693.00              395.00,693.00 374.00,754.00 374.00,754.00              374.00,754.00 370.00,753.00 370.00,753.00              370.00,753.00 385.00,707.00 385.00,707.00              385.00,707.00 390.00,692.00 390.00,692.00 Z            M 415.00,754.00            C 415.63,747.00 426.20,717.38 429.22,709.00              431.26,703.33 431.46,697.14 438.00,696.00              438.00,696.00 423.67,740.00 423.67,740.00              421.89,745.33 421.25,752.93 415.00,754.00 Z            M 472.00,700.00            C 472.00,700.00 476.00,701.00 476.00,701.00              476.00,701.00 458.97,753.00 458.97,753.00              452.53,750.71 457.21,743.76 458.97,739.00              458.97,739.00 472.00,700.00 472.00,700.00 Z            M 256.04,721.64            C 258.55,721.16 260.37,720.72 263.00,721.64              274.90,724.62 270.97,742.56 259.00,740.76              250.12,739.42 246.08,727.76 256.04,721.64 Z            M 426.00,795.00            C 424.88,794.60 423.87,794.60 423.11,793.41              421.51,790.90 425.67,780.98 426.67,778.00              426.67,778.00 440.67,737.00 440.67,737.00              442.44,731.68 442.86,725.06 449.00,724.00              449.00,724.00 440.50,752.00 440.50,752.00              440.50,752.00 426.00,795.00 426.00,795.00 Z            M 397.00,725.00            C 398.14,725.46 399.17,725.56 399.97,726.72              401.81,729.38 397.39,739.84 396.33,743.00              396.33,743.00 379.00,795.00 379.00,795.00              379.00,795.00 374.00,794.00 374.00,794.00              374.00,794.00 380.00,776.00 380.00,776.00              380.00,776.00 391.67,741.00 391.67,741.00              391.67,741.00 397.00,725.00 397.00,725.00 Z            M 309.00,775.70            C 324.15,775.70 322.39,794.58 311.00,795.48              299.95,796.34 294.65,779.44 309.00,775.70 Z            M 342.00,830.00            C 342.68,822.41 351.11,799.65 354.00,791.00              354.84,788.49 357.48,779.33 359.50,778.17              361.13,777.22 362.22,778.59 362.36,780.15              362.54,782.06 360.37,787.90 359.67,790.00              359.67,790.00 346.00,831.00 346.00,831.00              346.00,831.00 342.00,830.00 342.00,830.00 Z            M 399.00,789.00            C 399.00,789.00 403.00,790.00 403.00,790.00              403.00,790.00 393.33,820.00 393.33,820.00              391.78,824.65 391.73,828.75 386.00,828.00              386.00,828.00 399.00,789.00 399.00,789.00 Z" />
</svg>