<svg xmlns="http://www.w3.org/2000/svg" viewBox="-0.5 -0.5 275 274">
  <path id="microsoft" fill="#303030" stroke="none" stroke-width="1"
    d="M 0.00,0.00            C 0.00,0.00 131.00,0.00 131.00,0.00              131.00,0.00 131.00,130.00 131.00,130.00              131.00,130.00 0.00,130.00 0.00,130.00              0.00,130.00 0.00,0.00 0.00,0.00 Z            M 143.00,0.00            C 143.00,0.00 274.00,0.00 274.00,0.00              274.00,0.00 274.00,130.00 274.00,130.00              274.00,130.00 143.00,130.00 143.00,130.00              143.00,130.00 143.00,0.00 143.00,0.00 Z            M 0.00,143.00            C 0.00,143.00 131.00,143.00 131.00,143.00              131.00,143.00 131.00,273.00 131.00,273.00              131.00,273.00 0.00,273.00 0.00,273.00              0.00,273.00 0.00,143.00 0.00,143.00 Z            M 143.00,143.00            C 143.00,143.00 274.00,143.00 274.00,143.00              274.00,143.00 274.00,273.00 274.00,273.00              274.00,273.00 143.00,273.00 143.00,273.00              143.00,273.00 143.00,143.00 143.00,143.00 Z" />
</svg>