<svg xmlns="http://www.w3.org/2000/svg" viewBox="354.5 41.49 926 181.02">
  <path id="microsoft-text" fill="#303030" stroke="none" stroke-width="1"
    d="M 1154.00,100.00            C 1154.00,82.75 1151.99,67.79 1165.17,54.09              1175.52,43.33 1187.95,41.84 1202.00,42.00              1209.12,42.09 1212.85,42.01 1213.00,50.00              1213.00,50.00 1213.00,69.00 1213.00,69.00              1209.57,67.68 1206.70,66.57 1203.00,66.28              1200.99,65.96 1197.96,65.94 1196.00,66.28              1180.69,69.90 1183.00,88.29 1183.00,100.00              1183.00,100.00 1223.00,100.00 1223.00,100.00              1223.00,100.00 1223.00,73.00 1223.00,73.00              1223.00,73.00 1252.00,65.00 1252.00,65.00              1252.00,65.00 1252.00,100.00 1252.00,100.00              1252.00,100.00 1280.00,100.00 1280.00,100.00              1280.00,100.00 1280.00,124.00 1280.00,124.00              1280.00,124.00 1252.00,124.00 1252.00,124.00              1252.00,124.00 1252.00,179.00 1252.00,179.00              1252.08,185.15 1253.44,191.46 1259.04,194.99              1265.77,199.24 1272.34,195.79 1279.00,194.00              1279.00,194.00 1279.00,211.00 1279.00,211.00              1278.99,212.83 1279.17,215.78 1278.01,217.28              1275.58,220.40 1262.96,220.99 1259.00,221.00              1246.98,221.02 1235.15,219.38 1228.35,208.00              1221.86,197.12 1223.00,187.03 1223.00,175.00              1223.00,175.00 1223.00,124.00 1223.00,124.00              1223.00,124.00 1183.00,124.00 1183.00,124.00              1183.00,124.00 1183.00,219.00 1183.00,219.00              1183.00,219.00 1154.00,219.00 1154.00,219.00              1154.00,219.00 1154.00,124.00 1154.00,124.00              1154.00,124.00 1134.00,124.00 1134.00,124.00              1134.00,124.00 1134.00,100.00 1134.00,100.00              1134.00,100.00 1154.00,100.00 1154.00,100.00 Z            M 567.00,51.64            C 571.37,50.76 576.89,50.39 581.00,52.45              589.55,56.75 593.08,68.97 587.15,76.82              583.42,81.75 576.95,83.62 571.00,83.24              553.79,82.13 548.53,58.61 567.00,51.64 Z            M 355.00,54.00            C 355.00,54.00 389.00,54.00 389.00,54.00              391.10,54.00 394.61,53.75 396.35,54.99              398.25,56.35 399.72,60.80 400.60,63.00              400.60,63.00 408.32,83.00 408.32,83.00              408.32,83.00 431.95,144.00 431.95,144.00              434.56,150.99 440.52,169.31 445.00,174.00              445.00,174.00 456.40,144.00 456.40,144.00              456.40,144.00 482.20,81.00 482.20,81.00              482.20,81.00 489.60,63.00 489.60,63.00              489.60,63.00 493.70,54.99 493.70,54.99              493.70,54.99 501.00,54.00 501.00,54.00              501.00,54.00 533.00,54.00 533.00,54.00              533.00,54.00 533.00,219.00 533.00,219.00              533.00,219.00 504.00,219.00 504.00,219.00              504.00,219.00 504.00,134.00 504.00,134.00              504.00,125.25 504.91,98.72 503.00,92.00              503.00,92.00 489.00,129.00 489.00,129.00              489.00,129.00 465.40,189.00 465.40,189.00              465.40,189.00 454.00,219.00 454.00,219.00              454.00,219.00 433.00,219.00 433.00,219.00              433.00,219.00 413.20,169.00 413.20,169.00              413.20,169.00 394.20,122.00 394.20,122.00              394.20,122.00 382.00,92.00 382.00,92.00              382.00,92.00 382.00,219.00 382.00,219.00              382.00,219.00 355.00,219.00 355.00,219.00              355.00,219.00 355.00,54.00 355.00,54.00 Z            M 921.00,187.00            C 933.73,192.68 941.77,199.04 957.00,197.91              963.04,197.46 970.79,194.21 970.49,187.00              970.21,180.55 964.10,176.50 959.00,173.78              948.42,168.15 934.10,164.00 926.79,153.99              922.74,148.45 921.07,141.77 921.00,135.00              920.83,117.67 929.55,105.53 946.00,99.70              954.19,96.80 968.44,96.10 977.00,97.44              977.00,97.44 993.00,101.00 993.00,101.00              993.00,101.00 993.00,129.00 993.00,129.00              989.73,128.07 988.02,127.23 985.00,125.76              975.54,121.15 954.48,114.87 950.58,130.00              947.86,140.60 961.64,145.43 969.00,148.58              985.22,155.52 999.76,163.06 1000.00,183.00              1000.05,187.34 1000.20,190.77 998.96,195.00              992.78,216.03 972.95,220.28 954.00,221.49              947.97,221.87 936.00,219.92 930.00,218.37              927.28,217.67 923.47,216.82 921.60,214.58              919.69,212.31 920.01,208.80 920.00,206.00              919.99,199.96 919.37,192.76 921.00,187.00 Z            M 698.00,187.00            C 698.00,187.00 698.00,206.00 698.00,206.00              697.99,208.72 698.34,212.21 696.40,214.35              694.36,216.61 688.01,218.35 685.00,219.11              675.33,221.53 658.75,222.13 649.00,220.19              618.82,214.19 604.66,189.00 605.00,160.00              605.33,131.86 621.49,106.05 650.00,99.66              660.51,97.31 674.52,97.18 685.00,99.66              697.63,102.64 697.99,103.71 698.00,112.00              698.00,112.00 698.00,132.00 698.00,132.00              686.12,126.28 678.15,119.91 664.00,122.46              626.82,129.17 624.69,187.37 660.00,196.33              663.28,197.17 667.64,198.07 671.00,197.82              682.36,196.96 688.51,191.57 698.00,187.00 Z            M 747.00,117.00            C 750.86,104.90 761.12,99.79 773.00,98.76              775.87,98.51 784.12,98.40 786.01,100.74              787.07,102.05 786.97,104.41 787.00,106.00              787.00,106.00 787.00,129.00 787.00,129.00              780.06,126.69 776.83,124.42 769.00,124.90              757.62,125.60 749.66,136.61 747.45,147.00              745.42,156.55 746.00,166.29 746.00,176.00              746.00,176.00 746.00,219.00 746.00,219.00              746.00,219.00 718.00,219.00 718.00,219.00              718.00,219.00 718.00,100.00 718.00,100.00              718.00,100.00 746.00,100.00 746.00,100.00              746.00,100.00 747.00,117.00 747.00,117.00 Z            M 838.00,98.43            C 851.28,96.79 869.14,97.94 881.00,104.51              899.23,114.62 906.64,132.20 908.09,152.00              908.09,152.00 908.82,159.00 908.82,159.00              908.82,159.00 908.09,166.00 908.09,166.00              907.02,180.61 902.81,193.88 892.56,204.83              880.10,218.15 862.58,222.20 845.00,222.00              830.16,221.82 813.61,216.84 803.09,205.96              781.64,183.75 782.99,136.09 804.17,114.09              813.44,104.46 825.21,100.52 838.00,98.43 Z            M 1062.00,98.42            C 1075.25,96.81 1092.07,97.97 1104.00,104.32              1138.39,122.63 1140.58,179.61 1114.91,205.96              1102.64,218.56 1084.92,222.19 1068.00,222.00              1051.90,221.81 1036.00,216.25 1025.18,204.00              1006.33,182.65 1006.28,139.84 1024.33,118.00              1034.90,105.21 1046.15,100.82 1062.00,98.42 Z            M 558.00,219.00            C 558.00,219.00 558.00,128.00 558.00,128.00              558.00,128.00 558.00,107.00 558.00,107.00              558.00,107.00 559.60,101.02 559.60,101.02              559.60,101.02 567.00,100.00 567.00,100.00              567.00,100.00 587.00,100.00 587.00,100.00              587.00,100.00 587.00,219.00 587.00,219.00              587.00,219.00 558.00,219.00 558.00,219.00 Z            M 849.00,121.45            C 841.36,122.11 835.12,123.13 829.17,128.47              809.67,145.97 811.45,199.20 850.00,197.96              872.87,197.22 878.43,180.47 879.82,161.00              880.46,151.91 877.08,136.90 870.79,130.09              864.79,123.59 857.49,121.77 849.00,121.45 Z            M 1072.00,121.45            C 1064.53,122.10 1058.92,123.08 1053.01,128.21              1041.99,137.80 1040.84,150.42 1041.00,164.00              1041.23,183.28 1053.46,199.10 1074.00,197.91              1098.24,196.50 1103.24,177.52 1103.00,157.00              1102.90,148.40 1100.56,137.62 1094.79,131.02              1088.49,123.80 1081.21,121.80 1072.00,121.45 Z" />
</svg>