<svg xmlns="http://www.w3.org/2000/svg" viewBox="-0.5 -0.5 2204 2050">
  <path id="microsoft-teams" fill="#303030" stroke="none" stroke-width="1"
    d="M 896.00,461.00            C 891.23,451.69 884.27,429.55 881.63,419.00              870.91,376.14 870.49,356.52 871.00,313.00              871.22,294.39 876.95,264.19 881.85,246.00              902.11,170.84 948.75,103.38 1013.00,59.02              1051.80,32.24 1094.67,14.06 1141.00,5.39              1153.63,3.03 1173.39,0.02 1186.00,0.00              1186.00,0.00 1222.00,0.00 1222.00,0.00              1222.00,0.00 1234.00,0.91 1234.00,0.91              1270.86,3.61 1306.15,13.61 1340.00,28.15              1374.24,42.86 1410.70,67.70 1437.00,94.00              1464.96,121.96 1489.12,153.90 1505.69,190.00              1548.90,284.10 1548.45,393.53 1500.74,486.00              1481.48,523.33 1455.36,556.21 1424.00,584.05              1397.77,607.34 1363.60,628.55 1331.00,641.60              1299.65,654.15 1266.74,662.62 1233.00,665.09              1233.00,665.09 1221.00,666.00 1221.00,666.00              1221.00,666.00 1187.00,666.00 1187.00,666.00              1187.00,666.00 1175.00,665.09 1175.00,665.09              1175.00,665.09 1128.00,658.00 1128.00,658.00              1128.00,658.00 1128.00,768.00 1128.00,768.00              1128.00,768.00 1956.00,768.00 1956.00,768.00              1956.00,768.00 2108.00,768.00 2108.00,768.00              2158.62,768.08 2202.92,811.12 2203.00,862.00              2203.00,862.00 2203.00,1399.00 2203.00,1399.00              2203.00,1399.00 2202.09,1411.00 2202.09,1411.00              2200.64,1431.69 2197.41,1451.86 2192.37,1472.00              2160.47,1599.62 2060.64,1699.46 1933.00,1731.37              1912.14,1736.59 1891.40,1739.62 1870.00,1741.09              1870.00,1741.09 1858.00,1742.00 1858.00,1742.00              1858.00,1742.00 1828.00,1742.00 1828.00,1742.00              1828.00,1742.00 1818.00,1741.09 1818.00,1741.09              1789.49,1739.13 1761.23,1734.21 1734.00,1725.33              1734.00,1725.33 1709.00,1716.40 1709.00,1716.40              1709.00,1716.40 1691.00,1709.00 1691.00,1709.00              1689.30,1716.23 1684.63,1724.24 1681.25,1731.00              1681.25,1731.00 1659.20,1771.00 1659.20,1771.00              1624.10,1829.49 1578.22,1881.23 1525.00,1923.80              1455.22,1979.62 1375.12,2017.18 1288.00,2036.42              1260.20,2042.56 1232.34,2046.15 1204.00,2048.09              1204.00,2048.09 1192.00,2049.00 1192.00,2049.00              1192.00,2049.00 1162.00,2049.00 1162.00,2049.00              1162.00,2049.00 1140.00,2047.17 1140.00,2047.17              1106.09,2043.88 1072.89,2038.57 1040.00,2029.42              1005.31,2019.78 971.44,2007.44 939.00,1991.74              834.15,1940.99 744.88,1856.69 688.14,1755.00              668.34,1719.51 653.01,1683.69 640.66,1645.00              636.47,1631.88 627.82,1600.91 626.00,1588.00              626.00,1588.00 267.00,1588.00 267.00,1588.00              267.00,1588.00 87.00,1588.00 87.00,1588.00              79.59,1587.91 71.02,1586.01 64.00,1583.67              27.57,1571.53 0.06,1536.95 0.00,1498.00              0.00,1498.00 0.00,699.00 0.00,699.00              0.00,699.00 0.00,551.00 0.00,551.00              0.06,511.97 27.52,477.48 64.00,465.33              71.99,462.67 79.56,461.01 88.00,461.00              88.00,461.00 896.00,461.00 896.00,461.00 Z            M 1915.00,204.42            C 1924.22,203.30 1924.41,204.63 1932.00,204.96              1948.26,205.67 1963.17,207.67 1979.00,211.63              2060.40,231.98 2124.56,296.72 2144.87,378.00              2148.42,392.21 2151.83,411.42 2152.00,426.00              2152.34,455.37 2149.58,480.91 2140.33,509.00              2117.72,577.67 2063.96,630.62 1996.00,654.31              1964.92,665.14 1939.36,666.37 1907.00,666.00              1888.08,665.78 1861.90,659.59 1844.00,653.34              1811.41,641.97 1780.24,622.71 1756.01,598.00              1690.04,530.71 1670.90,425.82 1710.31,340.00              1737.85,280.02 1787.77,234.68 1851.00,215.02              1863.64,211.10 1878.85,207.58 1892.00,206.16              1892.00,206.16 1915.00,204.42 1915.00,204.42 Z            M 810.00,720.00            C 810.00,720.00 317.00,720.00 317.00,720.00              317.00,720.00 317.00,818.00 317.00,818.00              317.00,818.00 504.00,818.00 504.00,818.00              504.00,818.00 504.00,1329.00 504.00,1329.00              504.00,1329.00 623.00,1329.00 623.00,1329.00              623.00,1329.00 623.00,818.00 623.00,818.00              623.00,818.00 810.00,818.00 810.00,818.00              810.00,818.00 810.00,720.00 810.00,720.00 Z" />
</svg>