<svg xmlns="http://www.w3.org/2000/svg" viewBox="-0.5 -0.29 1863 2048.79">
  <path id="microsoft-365" fill="#303030" stroke="none" stroke-width="1"
    d="M 906.00,0.21            C 906.00,0.21 950.00,0.21 950.00,0.21              950.00,0.21 971.00,1.84 971.00,1.84              1013.25,6.36 1050.34,16.56 1089.00,34.31              1116.15,46.78 1153.33,70.80 1180.00,86.80              1180.00,86.80 1382.00,209.00 1382.00,209.00              1382.00,209.00 1575.00,325.80 1575.00,325.80              1575.00,325.80 1660.00,377.19 1660.00,377.19              1687.60,394.10 1705.52,404.06 1731.00,425.44              1792.27,476.85 1836.19,549.95 1853.42,628.00              1857.21,645.12 1861.97,673.78 1862.00,691.00              1862.00,691.00 1862.00,1357.00 1862.00,1357.00              1861.97,1373.42 1857.68,1399.67 1854.21,1416.00              1839.91,1483.27 1805.75,1549.24 1757.00,1598.00              1738.80,1616.20 1721.22,1631.35 1700.00,1645.98              1700.00,1645.98 1631.00,1688.20 1631.00,1688.20              1631.00,1688.20 1487.00,1775.40 1487.00,1775.40              1487.00,1775.40 1225.00,1934.00 1225.00,1934.00              1225.00,1934.00 1144.00,1983.00 1144.00,1983.00              1117.71,1998.81 1095.03,2012.62 1066.00,2023.58              1032.67,2036.16 997.57,2044.60 962.00,2047.09              962.00,2047.09 950.00,2048.00 950.00,2048.00              950.00,2048.00 910.00,2048.00 910.00,2048.00              910.00,2048.00 900.00,2047.09 900.00,2047.09              858.27,2044.17 811.84,2032.10 774.00,2014.22              743.75,1999.93 715.56,1981.54 687.00,1964.20              687.00,1964.20 488.00,1843.80 488.00,1843.80              488.00,1843.80 302.00,1731.20 302.00,1731.20              302.00,1731.20 213.00,1677.40 213.00,1677.40              183.67,1659.80 155.02,1643.22 129.00,1620.71              71.67,1571.11 33.46,1509.69 12.86,1437.00              6.82,1415.67 0.03,1378.92 0.00,1357.00              0.00,1357.00 0.00,691.00 0.00,691.00              0.03,673.78 4.79,645.12 8.58,628.00              22.84,563.42 57.17,497.83 104.00,451.00              118.85,436.15 131.11,424.56 148.00,411.89              173.08,393.08 206.66,374.20 234.00,357.80              234.00,357.80 374.00,273.19 374.00,273.19              374.00,273.19 621.00,123.80 621.00,123.80              621.00,123.80 703.00,74.19 703.00,74.19              736.60,53.60 761.62,37.52 799.00,23.42              824.13,13.94 850.44,7.36 877.00,3.43              877.00,3.43 906.00,0.21 906.00,0.21 Z            M 918.00,652.14            C 918.00,652.14 904.00,653.09 904.00,653.09              904.00,653.09 883.00,655.28 883.00,655.28              859.97,658.15 831.91,664.74 810.00,672.34              766.78,687.34 734.50,707.72 696.00,731.58              696.00,731.58 641.00,764.80 641.00,764.80              641.00,764.80 579.00,802.20 579.00,802.20              575.93,804.07 561.32,812.63 559.99,814.61              558.75,816.46 559.00,819.81 559.00,822.00              559.00,822.00 559.00,953.00 559.00,953.00              559.00,991.74 557.94,1024.34 564.43,1063.00              577.82,1142.73 617.72,1215.22 676.00,1270.96              711.00,1304.43 754.71,1328.22 796.00,1353.00              796.00,1353.00 896.00,1413.60 896.00,1413.60              896.00,1413.60 921.00,1428.60 921.00,1428.60              924.07,1430.45 928.33,1433.85 932.00,1433.22              934.57,1432.78 941.42,1428.35 944.00,1426.80              944.00,1426.80 968.00,1412.20 968.00,1412.20              968.00,1412.20 1053.00,1360.80 1053.00,1360.80              1053.00,1360.80 1095.00,1335.40 1095.00,1335.40              1129.95,1314.43 1158.07,1297.59 1188.00,1268.96              1253.90,1205.93 1292.14,1124.28 1301.17,1034.00              1301.17,1034.00 1303.00,1008.00 1303.00,1008.00              1303.00,1008.00 1303.00,822.00 1303.00,822.00              1303.00,820.23 1303.14,816.94 1302.43,815.38              1301.43,813.19 1298.01,811.31 1296.00,810.05              1296.00,810.05 1282.00,801.60 1282.00,801.60              1282.00,801.60 1216.00,761.80 1216.00,761.80              1216.00,761.80 1143.00,717.60 1143.00,717.60              1125.27,706.96 1107.84,695.96 1089.00,687.31              1045.05,667.12 998.33,655.07 950.00,652.96              950.00,652.96 937.00,652.14 937.00,652.14              937.00,652.14 918.00,652.14 918.00,652.14 Z" />
</svg>