<svg xmlns="http://www.w3.org/2000/svg" viewBox="-0.5 -0.04 7175.35 1810.54">
  <path id="Selection" fill="#303030" stroke="none" stroke-width="1" d="M 364.00,1674.00            C 364.00,1674.00 360.83,1646.00 360.83,1646.00              360.83,1646.00 357.83,1617.00 357.83,1617.00              357.83,1617.00 350.09,1538.00 350.09,1538.00              350.09,1538.00 347.91,1509.00 347.91,1509.00              347.91,1509.00 347.01,1500.00 347.01,1500.00              346.93,1496.84 346.11,1481.22 344.98,1479.32              344.98,1479.32 329.00,1466.39 329.00,1466.39              329.00,1466.39 295.00,1436.91 295.00,1436.91              261.12,1405.35 229.75,1371.70 200.25,1336.00              110.33,1227.18 39.52,1090.38 13.39,951.00              7.11,917.54 2.44,883.99 0.96,850.00              0.96,850.00 0.00,839.00 0.00,839.00              0.00,839.00 0.00,776.00 0.00,776.00              0.00,776.00 1.00,757.00 1.00,757.00              1.00,757.00 1.91,747.00 1.91,747.00              1.91,747.00 4.85,716.00 4.85,716.00              8.09,688.84 12.52,661.72 18.42,635.00              56.26,463.69 146.80,307.36 256.20,172.00              291.06,128.87 325.29,85.52 358.37,41.00              358.37,41.00 381.58,9.00 381.58,9.00              383.80,5.92 387.33,-0.78 391.93,0.66              395.27,1.70 400.40,9.95 402.58,13.00              402.58,13.00 425.87,45.00 425.87,45.00              456.04,85.24 486.54,125.10 518.42,164.00              641.64,314.32 739.09,487.45 771.57,681.00              776.58,710.89 780.95,751.87 781.00,782.00              781.00,782.00 782.00,799.00 782.00,799.00              782.00,799.00 781.00,842.00 781.00,842.00              781.00,842.00 780.04,853.00 780.04,853.00              778.05,898.72 770.48,944.59 759.37,989.00              727.21,1117.66 664.45,1233.67 580.58,1336.00              558.70,1362.70 535.39,1387.61 511.00,1412.00              511.00,1412.00 491.00,1431.72 491.00,1431.72              491.00,1431.72 455.00,1463.20 455.00,1463.20              451.33,1466.17 437.70,1476.04 436.02,1479.09              433.91,1482.90 434.21,1491.60 433.91,1496.00              433.91,1496.00 430.83,1534.00 430.83,1534.00              430.83,1534.00 422.83,1618.00 422.83,1618.00              422.83,1618.00 417.00,1674.00 417.00,1674.00              417.00,1674.00 364.00,1674.00 364.00,1674.00 Z            M 1178.00,579.00            C 1178.00,579.00 1397.00,579.00 1397.00,579.00              1397.00,579.00 1404.35,579.99 1404.35,579.99              1404.35,579.99 1409.99,591.00 1409.99,591.00              1409.99,591.00 1421.00,618.00 1421.00,618.00              1421.00,618.00 1474.20,748.00 1474.20,748.00              1474.20,748.00 1522.99,867.00 1522.99,867.00              1522.99,867.00 1617.99,1099.00 1617.99,1099.00              1617.99,1099.00 1669.99,1226.00 1669.99,1226.00              1669.99,1226.00 1696.00,1289.00 1696.00,1289.00              1696.00,1289.00 1769.99,1108.00 1769.99,1108.00              1769.99,1108.00 1917.40,747.00 1917.40,747.00              1917.40,747.00 1970.00,618.00 1970.00,618.00              1970.00,618.00 1981.00,591.00 1981.00,591.00              1981.00,591.00 1986.64,579.99 1986.64,579.99              1986.64,579.99 1994.00,579.00 1994.00,579.00              1994.00,579.00 2207.00,579.00 2207.00,579.00              2207.00,579.00 2207.00,628.00 2207.00,628.00              2189.32,628.00 2163.96,625.32 2149.00,635.10              2135.02,644.24 2129.03,657.69 2129.00,674.00              2129.00,674.00 2129.00,786.00 2129.00,786.00              2129.00,786.00 2130.00,801.00 2130.00,801.00              2130.00,801.00 2130.00,1042.00 2130.00,1042.00              2130.00,1042.00 2130.00,1152.00 2130.00,1152.00              2130.00,1152.00 2131.00,1167.00 2131.00,1167.00              2131.00,1167.00 2131.00,1259.00 2131.00,1259.00              2131.00,1259.00 2131.00,1379.00 2131.00,1379.00              2131.02,1393.34 2136.17,1407.40 2148.00,1416.24              2151.69,1418.99 2156.59,1421.87 2161.00,1423.23              2170.54,1426.17 2195.77,1425.00 2207.00,1425.00              2207.00,1425.00 2207.00,1473.00 2207.00,1473.00              2207.00,1473.00 1948.00,1473.00 1948.00,1473.00              1948.00,1473.00 1948.00,1425.00 1948.00,1425.00              1968.62,1425.00 1987.58,1427.78 2002.54,1409.99              2013.24,1397.25 2013.00,1386.60 2013.00,1371.00              2013.00,1371.00 2013.00,1350.00 2013.00,1350.00              2013.00,1350.00 2012.00,1333.00 2012.00,1333.00              2012.00,1333.00 2012.00,1204.00 2012.00,1204.00              2012.00,1204.00 2011.00,1189.00 2011.00,1189.00              2011.00,1189.00 2011.00,1060.00 2011.00,1060.00              2011.00,1060.00 2010.00,1045.00 2010.00,1045.00              2010.00,1045.00 2010.00,918.00 2010.00,918.00              2010.00,918.00 2009.00,901.00 2009.00,901.00              2009.00,901.00 2009.00,796.00 2009.00,796.00              2009.00,796.00 2009.00,774.00 2009.00,774.00              2009.00,774.00 2008.00,757.00 2008.00,757.00              2007.99,750.11 2008.76,738.19 2007.00,732.00              2007.00,732.00 1996.85,758.00 1996.85,758.00              1996.85,758.00 1981.01,796.00 1981.01,796.00              1981.01,796.00 1927.42,925.00 1927.42,925.00              1927.42,925.00 1863.58,1079.00 1863.58,1079.00              1863.58,1079.00 1765.01,1316.00 1765.01,1316.00              1765.01,1316.00 1709.40,1450.00 1709.40,1450.00              1702.44,1467.08 1696.44,1490.73 1674.00,1491.00              1670.66,1491.04 1667.24,1491.13 1664.00,1490.21              1649.64,1486.13 1645.81,1475.49 1640.80,1463.00              1640.80,1463.00 1634.60,1448.00 1634.60,1448.00              1634.60,1448.00 1576.40,1308.00 1576.40,1308.00              1576.40,1308.00 1514.42,1159.00 1514.42,1159.00              1514.42,1159.00 1423.42,940.00 1423.42,940.00              1423.42,940.00 1359.42,786.00 1359.42,786.00              1359.42,786.00 1329.00,713.00 1329.00,713.00              1329.00,713.00 1329.00,1258.00 1329.00,1258.00              1329.00,1258.00 1329.00,1361.00 1329.00,1361.00              1329.00,1381.66 1326.82,1398.59 1344.00,1413.82              1357.75,1426.00 1375.82,1425.00 1393.00,1425.00              1393.00,1425.00 1393.00,1473.00 1393.00,1473.00              1393.00,1473.00 1171.00,1473.00 1171.00,1473.00              1171.00,1473.00 1171.00,1425.00 1171.00,1425.00              1181.07,1425.00 1208.51,1425.30 1217.00,1423.08              1223.47,1421.38 1229.08,1418.45 1234.00,1413.91              1248.69,1400.36 1249.00,1389.50 1249.00,1371.00              1249.00,1371.00 1249.00,1347.00 1249.00,1347.00              1249.00,1347.00 1249.00,1322.00 1249.00,1322.00              1249.00,1322.00 1250.00,1305.00 1250.00,1305.00              1250.00,1305.00 1250.00,1210.00 1250.00,1210.00              1250.00,1210.00 1251.00,1195.00 1251.00,1195.00              1251.00,1195.00 1251.00,1101.00 1251.00,1101.00              1251.00,1101.00 1252.00,1086.00 1252.00,1086.00              1252.00,1086.00 1252.00,991.00 1252.00,991.00              1252.00,991.00 1253.00,976.00 1253.00,976.00              1253.00,976.00 1253.00,881.00 1253.00,881.00              1253.00,881.00 1254.00,866.00 1254.00,866.00              1254.00,866.00 1254.00,771.00 1254.00,771.00              1254.00,771.00 1255.00,756.00 1255.00,756.00              1255.00,756.00 1255.00,670.00 1255.00,670.00              1254.96,645.87 1237.14,628.04 1213.00,628.00              1213.00,628.00 1178.00,628.00 1178.00,628.00              1178.00,628.00 1178.00,579.00 1178.00,579.00 Z            M 5377.00,579.00            C 5377.00,579.00 5595.00,579.00 5595.00,579.00              5595.00,579.00 5704.00,579.00 5704.00,579.00              5704.00,579.00 5718.00,580.00 5718.00,580.00              5718.00,580.00 5741.00,581.83 5741.00,581.83              5773.64,585.10 5805.85,591.62 5837.00,602.00              5928.29,632.43 5999.88,684.35 6053.65,765.00              6091.32,821.52 6116.05,892.38 6122.83,960.00              6122.83,960.00 6125.09,989.00 6125.09,989.00              6125.09,989.00 6126.00,1001.00 6126.00,1001.00              6126.00,1001.00 6126.00,1053.00 6126.00,1053.00              6126.00,1053.00 6125.09,1063.00 6125.09,1063.00              6125.09,1063.00 6121.28,1103.00 6121.28,1103.00              6111.08,1180.53 6081.89,1254.99 6032.39,1316.00              5971.22,1391.39 5889.43,1439.57 5795.00,1460.42              5773.22,1465.23 5751.23,1468.53 5729.00,1470.09              5729.00,1470.09 5718.00,1471.00 5718.00,1471.00              5718.00,1471.00 5698.00,1472.00 5698.00,1472.00              5698.00,1472.00 5589.00,1472.00 5589.00,1472.00              5589.00,1472.00 5377.00,1472.00 5377.00,1472.00              5377.00,1472.00 5377.00,1423.00 5377.00,1423.00              5377.00,1423.00 5406.00,1423.00 5406.00,1423.00              5426.78,1422.97 5446.34,1406.41 5452.64,1387.00              5453.89,1383.15 5454.95,1373.18 5455.00,1369.00              5455.00,1369.00 5455.00,1260.00 5455.00,1260.00              5455.00,1260.00 5455.00,782.00 5455.00,782.00              5455.00,782.00 5455.00,682.00 5455.00,682.00              5454.98,677.76 5454.12,668.95 5452.96,665.00              5447.15,645.26 5427.93,628.03 5407.00,628.00              5407.00,628.00 5377.00,628.00 5377.00,628.00              5377.00,628.00 5377.00,579.00 5377.00,579.00 Z            M 6213.00,579.00            C 6213.00,579.00 6497.00,579.00 6497.00,579.00              6497.00,579.00 6579.00,579.00 6579.00,579.00              6579.00,579.00 6592.00,579.96 6592.00,579.96              6634.12,581.80 6677.54,590.65 6716.00,608.31              6753.05,625.32 6786.21,649.73 6810.26,683.00              6829.59,709.75 6842.52,741.18 6846.72,774.00              6846.72,774.00 6848.09,792.00 6848.09,792.00              6848.09,792.00 6849.00,803.00 6849.00,803.00              6849.00,803.00 6849.00,810.00 6849.00,810.00              6849.00,810.00 6848.09,820.00 6848.09,820.00              6846.07,849.32 6839.27,874.32 6824.57,900.00              6804.23,935.54 6772.63,961.88 6738.00,982.80              6738.00,982.80 6714.00,996.00 6714.00,996.00              6744.69,1002.17 6782.59,1016.65 6810.00,1031.70              6825.42,1040.16 6846.11,1054.06 6857.83,1067.00              6873.42,1084.21 6886.42,1103.62 6895.57,1125.00              6922.49,1187.91 6920.45,1270.57 6887.69,1331.00              6868.27,1366.83 6838.24,1396.26 6804.00,1417.95              6766.57,1441.65 6715.74,1458.63 6672.00,1465.42              6672.00,1465.42 6633.00,1470.09 6633.00,1470.09              6633.00,1470.09 6623.00,1471.00 6623.00,1471.00              6623.00,1471.00 6603.00,1472.00 6603.00,1472.00              6603.00,1472.00 6523.00,1472.00 6523.00,1472.00              6523.00,1472.00 6210.00,1472.00 6210.00,1472.00              6210.00,1472.00 6210.00,1423.00 6210.00,1423.00              6210.00,1423.00 6239.00,1423.00 6239.00,1423.00              6264.18,1422.96 6287.96,1400.44 6288.00,1375.00              6288.00,1375.00 6288.00,1269.00 6288.00,1269.00              6288.00,1269.00 6288.00,793.00 6288.00,793.00              6288.00,793.00 6288.00,676.00 6288.00,676.00              6287.99,670.75 6287.93,668.10 6286.25,663.00              6280.30,644.84 6260.42,628.03 6241.00,628.00              6241.00,628.00 6213.00,628.00 6213.00,628.00              6213.00,628.00 6213.00,579.00 6213.00,579.00 Z            M 391.00,582.00            C 388.00,586.07 388.01,593.97 388.00,599.00              388.00,599.00 387.00,621.00 387.00,621.00              387.00,621.00 385.00,673.00 385.00,673.00              385.00,673.00 384.00,687.00 384.00,687.00              384.00,687.00 383.00,717.00 383.00,717.00              383.00,717.00 382.00,731.00 382.00,731.00              382.00,731.00 381.00,762.00 381.00,762.00              381.00,762.00 380.00,777.00 380.00,777.00              380.00,777.00 379.00,799.00 379.00,799.00              379.00,799.00 378.00,821.00 378.00,821.00              378.00,821.00 377.00,851.00 377.00,851.00              377.00,851.00 376.00,865.00 376.00,865.00              376.00,865.00 375.00,895.00 375.00,895.00              375.00,895.00 374.00,910.00 374.00,910.00              374.00,910.00 372.00,959.00 372.00,959.00              372.00,959.00 370.96,976.00 370.96,976.00              370.96,976.00 370.96,987.00 370.96,987.00              370.96,987.00 370.00,997.00 370.00,997.00              370.00,997.00 367.00,1072.00 367.00,1072.00              367.00,1072.00 366.00,1086.00 366.00,1086.00              366.00,1086.00 365.00,1117.00 365.00,1117.00              365.00,1117.00 364.00,1130.00 364.00,1130.00              364.00,1130.00 363.00,1159.00 363.00,1159.00              363.00,1159.00 362.00,1176.00 362.00,1176.00              362.00,1176.00 361.00,1198.00 361.00,1198.00              361.00,1198.00 360.00,1228.00 360.00,1228.00              360.00,1228.00 359.00,1242.00 359.00,1242.00              359.00,1242.00 358.00,1272.00 358.00,1272.00              358.00,1272.00 357.00,1285.00 357.00,1285.00              357.00,1285.00 356.00,1315.00 356.00,1315.00              356.00,1315.00 355.00,1330.00 355.00,1330.00              355.00,1330.00 352.00,1405.00 352.00,1405.00              351.92,1411.20 349.45,1418.35 352.70,1424.00              355.75,1429.30 373.75,1447.08 379.00,1451.83              381.16,1453.78 387.36,1459.72 390.00,1459.89              393.65,1460.14 399.36,1453.56 402.00,1451.17              408.08,1445.67 425.34,1429.94 428.15,1423.00              429.15,1420.52 428.99,1417.63 429.00,1415.00              429.00,1415.00 429.00,1407.00 429.00,1407.00              429.00,1407.00 428.04,1396.00 428.04,1396.00              428.04,1396.00 428.04,1384.00 428.04,1384.00              428.04,1384.00 427.00,1369.00 427.00,1369.00              427.00,1369.00 427.00,1362.00 427.00,1362.00              427.00,1362.00 426.00,1347.00 426.00,1347.00              426.00,1347.00 424.00,1295.00 424.00,1295.00              424.00,1295.00 423.00,1281.00 423.00,1281.00              423.00,1281.00 422.00,1251.00 422.00,1251.00              422.00,1251.00 421.00,1236.00 421.00,1236.00              421.00,1236.00 420.00,1213.00 420.00,1213.00              420.00,1213.00 419.00,1191.00 419.00,1191.00              419.00,1191.00 418.00,1162.00 418.00,1162.00              418.00,1162.00 417.04,1152.00 417.04,1152.00              417.04,1152.00 417.04,1140.00 417.04,1140.00              417.04,1140.00 416.00,1125.00 416.00,1125.00              416.00,1125.00 415.00,1102.00 415.00,1102.00              415.00,1102.00 413.00,1052.00 413.00,1052.00              413.00,1052.00 412.00,1036.00 412.00,1036.00              412.00,1036.00 411.00,1014.00 411.00,1014.00              411.00,1014.00 410.00,984.00 410.00,984.00              410.00,984.00 409.00,970.00 409.00,970.00              409.00,970.00 408.00,940.00 408.00,940.00              408.00,940.00 407.04,930.00 407.04,930.00              407.04,930.00 407.04,918.00 407.04,918.00              407.04,918.00 406.00,903.00 406.00,903.00              406.00,903.00 405.00,880.00 405.00,880.00              405.00,880.00 404.00,858.00 404.00,858.00              404.00,858.00 403.00,829.00 403.00,829.00              403.00,829.00 402.00,814.00 402.00,814.00              402.00,814.00 400.00,764.00 400.00,764.00              400.00,764.00 399.00,748.00 399.00,748.00              399.00,748.00 397.00,697.00 397.00,697.00              397.00,697.00 396.00,681.00 396.00,681.00              396.00,681.00 394.00,629.00 394.00,629.00              394.00,629.00 393.04,619.00 393.04,619.00              393.04,619.00 393.04,607.00 393.04,607.00              393.04,607.00 392.00,594.00 392.00,594.00              391.95,589.09 392.39,586.89 391.00,582.00 Z            M 5621.00,646.14            C 5614.43,647.23 5611.48,646.82 5605.00,649.45              5586.45,657.00 5573.03,674.84 5573.00,695.00              5573.00,695.00 5573.00,815.00 5573.00,815.00              5573.00,815.00 5573.00,1354.00 5573.00,1354.00              5573.04,1378.14 5594.28,1401.96 5619.00,1402.00              5619.00,1402.00 5660.00,1402.00 5660.00,1402.00              5682.16,1402.00 5703.97,1402.46 5726.00,1399.72              5783.75,1392.52 5845.23,1366.75 5888.00,1326.91              5944.61,1274.17 5977.97,1203.43 5991.58,1128.00              5995.51,1106.16 5998.08,1084.13 5999.04,1062.00              5999.04,1062.00 6000.00,1049.00 6000.00,1049.00              6000.00,1049.00 6000.00,999.00 6000.00,999.00              6000.00,999.00 5999.00,989.00 5999.00,989.00              5999.00,989.00 5999.00,980.00 5999.00,980.00              5999.00,980.00 5996.15,953.00 5996.15,953.00              5985.66,865.16 5952.95,780.63 5886.00,720.17              5846.96,684.91 5793.69,660.74 5742.00,651.75              5731.20,649.87 5712.66,647.13 5702.00,646.96              5702.00,646.96 5688.00,646.96 5688.00,646.96              5688.00,646.96 5676.00,646.14 5676.00,646.14              5676.00,646.14 5621.00,646.14 5621.00,646.14 Z            M 6409.00,973.00            C 6409.00,973.00 6534.00,973.00 6534.00,973.00              6534.00,973.00 6574.00,973.00 6574.00,973.00              6599.34,972.96 6631.03,964.69 6653.00,952.13              6683.62,934.62 6702.76,905.03 6713.02,872.00              6717.18,858.63 6719.51,844.92 6720.96,831.00              6720.96,831.00 6720.96,822.00 6720.96,822.00              6720.96,822.00 6722.00,809.00 6722.00,809.00              6722.00,809.00 6721.09,799.00 6721.09,799.00              6720.37,788.46 6719.65,778.43 6717.55,768.00              6710.23,731.58 6689.21,696.07 6658.00,675.36              6629.43,656.39 6595.55,650.21 6562.00,647.91              6562.00,647.91 6550.00,647.00 6550.00,647.00              6550.00,647.00 6521.00,647.00 6521.00,647.00              6521.00,647.00 6457.00,647.00 6457.00,647.00              6431.50,647.30 6409.04,670.85 6409.00,696.00              6409.00,696.00 6409.00,973.00 6409.00,973.00 Z            M 2624.00,820.21            C 2624.00,820.21 2660.00,820.21 2660.00,820.21              2660.00,820.21 2672.00,820.91 2672.00,820.91              2698.58,822.74 2722.36,826.92 2748.00,834.29              2830.59,858.04 2899.33,914.61 2938.74,991.00              2962.59,1037.23 2974.40,1089.16 2975.00,1141.00              2975.00,1141.00 2975.91,1154.00 2975.91,1154.00              2975.91,1154.00 2975.04,1161.00 2975.04,1161.00              2975.04,1161.00 2975.04,1176.00 2975.04,1176.00              2975.04,1176.00 2973.16,1196.00 2973.16,1196.00              2967.90,1245.21 2952.82,1292.84 2926.58,1335.00              2914.12,1355.01 2897.75,1376.45 2881.00,1392.99              2836.93,1436.49 2778.65,1466.30 2718.00,1478.20              2691.42,1483.41 2664.04,1485.31 2637.00,1485.00              2637.00,1485.00 2620.00,1484.00 2620.00,1484.00              2620.00,1484.00 2610.00,1483.08 2610.00,1483.08              2584.39,1481.03 2558.35,1475.12 2534.00,1467.00              2484.71,1450.57 2439.63,1423.15 2404.09,1385.00              2350.95,1327.96 2321.34,1253.54 2317.96,1176.00              2317.96,1176.00 2317.00,1165.00 2317.00,1165.00              2316.32,1106.23 2324.80,1049.13 2351.37,996.00              2390.58,917.58 2457.38,861.02 2541.00,835.02              2560.74,828.89 2581.49,824.78 2602.00,822.28              2602.00,822.28 2624.00,820.21 2624.00,820.21 Z            M 3244.00,838.00            C 3244.00,838.00 3250.13,862.00 3250.13,862.00              3250.13,862.00 3262.42,910.00 3262.42,910.00              3262.42,910.00 3266.89,927.00 3266.89,927.00              3267.44,928.94 3268.23,931.92 3270.26,932.83              3273.08,934.09 3275.38,930.85 3276.87,928.98              3276.87,928.98 3291.59,910.00 3291.59,910.00              3312.29,885.41 3337.33,864.05 3366.00,849.26              3398.64,832.42 3433.47,823.42 3470.00,820.91              3470.00,820.91 3482.00,820.00 3482.00,820.00              3482.00,820.00 3506.00,820.00 3506.00,820.00              3506.00,820.00 3518.00,820.91 3518.00,820.91              3557.06,823.60 3596.31,833.70 3629.00,856.03              3641.53,864.59 3653.14,874.62 3663.15,886.00              3693.93,920.95 3707.88,962.08 3711.09,1008.00              3711.09,1008.00 3712.00,1020.00 3712.00,1020.00              3712.00,1020.00 3712.00,1090.00 3712.00,1090.00              3712.00,1090.00 3712.00,1267.00 3712.00,1267.00              3712.00,1267.00 3712.00,1382.00 3712.00,1382.00              3712.19,1397.71 3718.19,1410.36 3732.00,1418.53              3735.56,1420.63 3739.86,1422.10 3744.00,1422.24              3744.00,1422.24 3776.00,1422.24 3776.00,1422.24              3776.00,1422.24 3776.00,1471.00 3776.00,1471.00              3776.00,1471.00 3536.00,1471.00 3536.00,1471.00              3536.00,1471.00 3536.00,1422.00 3536.00,1422.00              3536.00,1422.00 3556.00,1422.00 3556.00,1422.00              3569.86,1422.00 3577.59,1422.42 3588.99,1412.68              3603.94,1399.89 3602.00,1382.53 3602.00,1365.00              3602.00,1365.00 3602.00,1258.00 3602.00,1258.00              3602.00,1258.00 3602.00,1096.00 3602.00,1096.00              3602.00,1059.94 3604.47,1023.16 3594.85,988.00              3588.79,965.86 3576.78,941.68 3560.72,925.17              3540.28,904.16 3507.13,892.05 3478.00,892.00              3478.00,892.00 3455.00,892.00 3455.00,892.00              3435.51,892.23 3408.63,899.47 3391.00,907.71              3374.47,915.43 3363.80,922.90 3350.00,934.73              3339.79,943.48 3330.67,953.38 3322.42,964.00              3294.61,999.83 3279.44,1046.18 3275.04,1091.00              3275.04,1091.00 3275.04,1100.00 3275.04,1100.00              3275.04,1100.00 3274.00,1112.00 3274.00,1112.00              3274.00,1112.00 3274.00,1158.00 3274.00,1158.00              3274.00,1158.00 3274.00,1254.00 3274.00,1254.00              3274.00,1254.00 3274.00,1378.00 3274.00,1378.00              3274.06,1390.81 3277.18,1403.94 3287.01,1412.82              3301.60,1425.97 3321.89,1423.00 3340.00,1423.00              3340.00,1423.00 3340.00,1472.00 3340.00,1472.00              3340.00,1472.00 3100.00,1472.00 3100.00,1472.00              3100.00,1472.00 3100.00,1423.00 3100.00,1423.00              3121.48,1423.00 3144.25,1426.96 3158.70,1407.00              3160.81,1404.08 3162.70,1400.39 3163.91,1397.00              3165.85,1391.60 3165.99,1388.60 3166.00,1383.00              3166.00,1383.00 3166.00,1048.00 3166.00,1048.00              3166.00,1048.00 3166.00,988.00 3166.00,988.00              3166.00,977.09 3167.16,964.27 3163.45,954.00              3157.50,937.48 3141.35,931.03 3125.00,931.00              3125.00,931.00 3098.00,931.00 3098.00,931.00              3098.00,931.00 3098.00,905.00 3098.00,905.00              3098.00,905.00 3099.02,897.39 3099.02,897.39              3099.02,897.39 3109.00,890.72 3109.00,890.72              3109.00,890.72 3132.00,877.58 3132.00,877.58              3132.00,877.58 3180.00,850.00 3180.00,850.00              3180.00,850.00 3201.00,838.64 3201.00,838.64              3201.00,838.64 3209.00,838.00 3209.00,838.00              3209.00,838.00 3244.00,838.00 3244.00,838.00 Z            M 4004.00,1261.00            C 3986.33,1251.90 3959.30,1223.10 3947.13,1207.00              3887.72,1128.40 3888.24,1019.18 3942.35,938.00              3965.08,903.90 3995.31,877.66 4031.00,857.86              4071.10,835.61 4113.43,824.04 4159.00,820.91              4159.00,820.91 4171.00,820.00 4171.00,820.00              4171.00,820.00 4197.00,820.00 4197.00,820.00              4197.00,820.00 4207.00,820.91 4207.00,820.91              4227.09,822.29 4246.33,825.14 4266.00,829.65              4277.95,832.39 4291.07,837.98 4303.00,838.00              4303.00,838.00 4518.00,838.00 4518.00,838.00              4518.00,838.00 4518.00,903.00 4518.00,903.00              4518.00,903.00 4492.00,900.17 4492.00,900.17              4492.00,900.17 4417.00,891.93 4417.00,891.93              4408.34,891.12 4386.05,887.06 4379.00,889.00              4386.18,892.24 4394.41,900.38 4400.00,906.00              4415.84,921.91 4428.26,940.98 4438.25,961.00              4445.10,974.75 4450.47,989.25 4454.71,1004.00              4471.42,1062.11 4467.74,1116.17 4441.68,1171.00              4433.89,1187.40 4420.26,1207.11 4408.56,1221.00              4390.37,1242.59 4368.18,1260.69 4344.00,1275.20              4287.54,1309.08 4232.94,1319.10 4168.00,1319.00              4168.00,1319.00 4156.00,1318.09 4156.00,1318.09              4136.92,1316.78 4122.47,1314.84 4104.00,1309.28              4104.00,1309.28 4085.00,1302.55 4085.00,1302.55              4080.51,1300.75 4077.85,1299.31 4073.00,1298.00              4073.00,1298.00 4050.37,1330.00 4050.37,1330.00              4050.37,1330.00 4006.00,1390.00 4006.00,1390.00              4006.00,1390.00 4183.00,1390.00 4183.00,1390.00              4183.00,1390.00 4272.00,1390.00 4272.00,1390.00              4272.00,1390.00 4287.00,1391.00 4287.00,1391.00              4287.00,1391.00 4296.00,1391.00 4296.00,1391.00              4296.00,1391.00 4306.00,1391.91 4306.00,1391.91              4306.00,1391.91 4334.00,1394.87 4334.00,1394.87              4371.97,1400.16 4414.39,1412.67 4445.00,1436.42              4462.79,1450.23 4480.89,1468.34 4492.13,1488.00              4509.59,1518.54 4511.40,1543.87 4511.00,1578.00              4511.00,1578.00 4510.08,1588.00 4510.08,1588.00              4507.71,1617.70 4497.92,1646.52 4482.55,1672.00              4470.31,1692.29 4449.27,1714.61 4431.00,1729.58              4381.55,1770.09 4317.51,1792.83 4255.00,1803.25              4255.00,1803.25 4203.00,1809.09 4203.00,1809.09              4203.00,1809.09 4191.00,1810.00 4191.00,1810.00              4191.00,1810.00 4142.00,1810.00 4142.00,1810.00              4142.00,1810.00 4132.00,1809.09 4132.00,1809.09              4132.00,1809.09 4109.00,1807.16 4109.00,1807.16              4047.29,1800.56 3985.52,1780.95 3940.09,1736.83              3890.01,1688.20 3879.65,1612.43 3908.31,1550.00              3924.41,1514.92 3946.87,1492.04 3978.00,1470.00              3978.00,1470.00 3952.00,1470.00 3952.00,1470.00              3922.70,1469.95 3903.20,1448.40 3901.18,1420.00              3899.66,1398.59 3916.69,1379.99 3928.63,1364.00              3928.63,1364.00 3979.42,1295.00 3979.42,1295.00              3979.42,1295.00 4004.00,1261.00 4004.00,1261.00 Z            M 4922.00,820.21            C 4922.00,820.21 4958.00,820.21 4958.00,820.21              4958.00,820.21 4970.00,820.91 4970.00,820.91              4995.97,822.70 5019.94,826.78 5045.00,834.00              5095.29,848.50 5144.28,876.56 5180.99,914.00              5231.38,965.41 5261.85,1031.85 5270.72,1103.00              5270.72,1103.00 5273.00,1137.00 5273.00,1137.00              5273.00,1137.00 5273.99,1152.00 5273.99,1152.00              5273.99,1152.00 5273.04,1162.00 5273.04,1162.00              5273.04,1162.00 5273.04,1176.00 5273.04,1176.00              5273.04,1176.00 5271.16,1196.00 5271.16,1196.00              5266.99,1235.01 5256.79,1273.80 5239.19,1309.00              5194.51,1398.37 5114.48,1458.13 5017.00,1478.00              4990.77,1483.34 4961.74,1485.31 4935.00,1485.00              4935.00,1485.00 4918.00,1484.00 4918.00,1484.00              4893.87,1483.71 4856.07,1475.02 4833.00,1467.33              4783.49,1450.83 4737.81,1423.34 4702.09,1385.00              4663.81,1343.91 4638.68,1295.23 4625.13,1241.00              4621.47,1226.37 4616.18,1195.68 4616.00,1181.00              4616.00,1181.00 4615.00,1164.00 4615.00,1164.00              4614.33,1106.49 4622.99,1048.95 4648.97,997.00              4688.50,917.94 4754.58,861.27 4839.00,835.02              4858.74,828.89 4879.49,824.78 4900.00,822.28              4900.00,822.28 4922.00,820.21 4922.00,820.21 Z            M 2642.00,890.28            C 2642.00,890.28 2616.00,892.28 2616.00,892.28              2594.12,895.16 2573.91,900.55 2554.00,910.26              2532.62,920.68 2513.85,935.46 2497.93,953.00              2457.26,997.82 2440.73,1051.98 2434.83,1111.00              2434.83,1111.00 2433.00,1134.00 2433.00,1134.00              2433.00,1134.00 2433.00,1169.00 2433.00,1169.00              2433.00,1169.00 2434.83,1194.00 2434.83,1194.00              2440.88,1254.48 2459.01,1312.94 2503.00,1357.00              2513.35,1367.36 2520.76,1374.12 2533.00,1382.33              2546.91,1391.66 2562.14,1398.71 2578.00,1404.00              2592.66,1408.89 2616.63,1413.82 2632.00,1414.00              2664.62,1414.38 2688.70,1413.45 2720.00,1402.31              2734.14,1397.27 2747.54,1390.34 2760.00,1382.00              2774.43,1372.34 2785.70,1362.00 2797.15,1349.00              2846.82,1292.58 2860.34,1216.90 2860.00,1144.00              2860.00,1144.00 2859.00,1125.00 2859.00,1125.00              2858.86,1113.52 2856.18,1094.60 2854.25,1083.00              2843.19,1016.77 2809.54,949.65 2749.00,915.86              2735.81,908.50 2722.52,902.84 2708.00,898.71              2692.08,894.18 2675.56,891.19 2659.00,891.00              2651.52,890.91 2650.59,889.49 2642.00,890.28 Z            M 4940.00,890.28            C 4940.00,890.28 4914.00,892.28 4914.00,892.28              4892.36,895.13 4871.69,900.66 4852.00,910.26              4830.62,920.68 4811.85,935.46 4795.93,953.00              4755.22,997.86 4738.74,1051.93 4732.83,1111.00              4732.83,1111.00 4731.91,1125.00 4731.91,1125.00              4731.91,1125.00 4731.00,1135.00 4731.00,1135.00              4731.00,1135.00 4731.00,1168.00 4731.00,1168.00              4731.00,1168.00 4731.96,1181.00 4731.96,1181.00              4734.72,1244.31 4755.37,1311.30 4801.00,1357.00              4810.98,1366.99 4819.22,1374.43 4831.00,1382.33              4844.91,1391.66 4860.14,1398.71 4876.00,1404.00              4890.66,1408.89 4914.63,1413.82 4930.00,1414.00              4962.62,1414.38 4986.70,1413.45 5018.00,1402.31              5032.14,1397.27 5045.54,1390.34 5058.00,1382.00              5137.10,1329.04 5158.14,1233.12 5158.00,1144.00              5158.00,1144.00 5157.00,1125.00 5157.00,1125.00              5156.84,1112.05 5153.20,1088.04 5150.60,1075.00              5138.31,1013.45 5108.44,954.53 5054.00,920.05              5039.35,910.78 5023.51,904.06 5007.00,898.98              4990.94,894.04 4973.79,891.19 4957.00,891.00              4949.52,890.91 4948.59,889.49 4940.00,890.28 Z            M 4168.00,891.14            C 4155.06,893.15 4143.52,894.78 4131.00,899.00              4094.20,911.42 4061.75,937.24 4042.43,971.00              4028.06,996.10 4022.86,1024.56 4020.91,1053.00              4020.91,1053.00 4020.00,1065.00 4020.00,1065.00              4019.93,1107.30 4027.20,1148.93 4052.43,1184.00              4059.20,1193.42 4066.27,1200.47 4075.00,1208.00              4103.19,1232.29 4133.95,1245.38 4171.00,1248.09              4171.00,1248.09 4181.00,1249.00 4181.00,1249.00              4201.05,1249.23 4226.56,1244.17 4245.00,1236.28              4245.00,1236.28 4269.00,1224.55 4269.00,1224.55              4297.61,1207.53 4320.08,1179.46 4333.13,1149.00              4341.42,1129.64 4346.97,1099.06 4347.00,1078.00              4347.04,1051.17 4345.22,1026.72 4336.65,1001.00              4321.89,956.73 4288.40,920.21 4245.00,902.80              4229.12,896.43 4209.18,891.03 4192.00,891.14              4192.00,891.14 4168.00,891.14 4168.00,891.14 Z            M 6408.00,1042.00            C 6408.00,1042.00 6408.00,1248.00 6408.00,1248.00              6408.00,1248.00 6408.00,1352.00 6408.00,1352.00              6408.31,1377.91 6428.17,1401.96 6455.00,1402.00              6455.00,1402.00 6564.00,1402.00 6564.00,1402.00              6564.00,1402.00 6604.00,1402.00 6604.00,1402.00              6631.19,1401.96 6668.26,1392.31 6692.00,1379.14              6721.10,1362.99 6744.90,1342.12 6761.57,1313.00              6806.02,1235.36 6793.38,1124.61 6715.00,1073.34              6686.67,1054.81 6652.55,1045.36 6619.00,1042.91              6619.00,1042.91 6607.00,1042.00 6607.00,1042.00              6607.00,1042.00 6559.00,1042.00 6559.00,1042.00              6559.00,1042.00 6408.00,1042.00 6408.00,1042.00 Z            M 7081.00,1308.42            C 7105.57,1305.43 7134.77,1315.03 7151.91,1333.01              7180.08,1362.56 7182.79,1414.75 7153.96,1445.00              7146.10,1453.25 7138.36,1458.95 7128.00,1463.69              7115.18,1469.57 7101.06,1472.16 7087.00,1472.00              7066.59,1471.76 7046.29,1464.50 7031.00,1450.83              6999.87,1423.00 6995.14,1373.27 7020.50,1340.00              7036.14,1319.49 7056.50,1311.98 7081.00,1308.42 Z            M 7082.00,1320.28            C 7059.75,1323.55 7042.69,1331.35 7030.09,1351.00              7013.20,1377.34 7016.76,1418.66 7039.09,1440.91              7050.45,1452.23 7071.01,1459.81 7087.00,1460.00              7098.28,1460.13 7109.64,1458.36 7120.00,1453.69              7133.58,1447.57 7144.84,1437.39 7151.63,1424.00              7163.49,1400.63 7161.33,1367.04 7145.49,1346.00              7131.02,1326.80 7105.43,1318.10 7082.00,1320.28 Z            M 7054.00,1347.00            C 7054.00,1347.00 7086.00,1347.00 7086.00,1347.00              7094.62,1347.00 7101.04,1346.31 7109.00,1350.65              7120.58,1356.96 7124.97,1373.04 7117.35,1384.00              7112.76,1390.61 7108.02,1392.26 7101.00,1395.00              7112.78,1398.14 7114.61,1417.02 7124.04,1421.98              7126.00,1423.01 7127.88,1422.93 7130.00,1423.00              7130.00,1423.00 7130.00,1431.00 7130.00,1431.00              7124.35,1431.00 7110.35,1432.41 7106.38,1428.69              7106.38,1428.69 7092.20,1406.00 7092.20,1406.00              7089.17,1400.95 7088.19,1397.05 7082.00,1396.00              7082.00,1399.85 7081.57,1415.39 7082.60,1417.94              7084.41,1422.45 7088.41,1421.38 7090.40,1423.02              7092.28,1424.56 7091.97,1427.81 7092.00,1430.00              7092.00,1430.00 7054.00,1430.00 7054.00,1430.00              7054.00,1430.00 7055.60,1423.02 7055.60,1423.02              7055.60,1423.02 7062.26,1419.69 7062.26,1419.69              7062.26,1419.69 7064.00,1410.00 7064.00,1410.00              7064.00,1410.00 7064.00,1367.00 7064.00,1367.00              7064.00,1367.00 7062.26,1357.31 7062.26,1357.31              7062.26,1357.31 7055.60,1353.98 7055.60,1353.98              7055.60,1353.98 7054.00,1347.00 7054.00,1347.00 Z            M 7083.00,1386.00            C 7086.86,1386.00 7091.40,1386.31 7094.99,1384.77              7105.90,1380.09 7106.35,1363.09 7097.90,1356.48              7094.72,1354.23 7086.70,1352.29 7084.02,1356.48              7082.88,1358.02 7083.01,1361.00 7083.00,1363.00              7083.00,1363.00 7083.00,1386.00 7083.00,1386.00 Z            M 4085.00,1470.08            C 4070.57,1474.68 4050.70,1491.82 4040.85,1503.00              4030.51,1514.73 4021.85,1526.72 4015.31,1541.00              3997.25,1580.43 3997.89,1635.80 4021.23,1673.00              4044.29,1709.75 4086.99,1728.00 4128.00,1736.20              4137.16,1738.03 4156.99,1740.89 4166.00,1741.00              4166.00,1741.00 4177.00,1741.00 4177.00,1741.00              4177.00,1741.00 4186.00,1741.66 4186.00,1741.66              4186.00,1741.66 4195.00,1741.00 4195.00,1741.00              4195.00,1741.00 4205.00,1741.00 4205.00,1741.00              4205.00,1741.00 4227.00,1739.15 4227.00,1739.15              4266.12,1734.48 4304.35,1722.51 4336.00,1698.35              4350.64,1687.17 4362.95,1674.68 4372.77,1659.00              4401.97,1612.38 4404.14,1535.86 4360.00,1497.29              4339.97,1479.79 4315.00,1473.00 4289.00,1470.92              4289.00,1470.92 4277.00,1470.08 4277.00,1470.08              4277.00,1470.08 4252.00,1470.08 4252.00,1470.08              4252.00,1470.08 4165.00,1470.08 4165.00,1470.08              4165.00,1470.08 4113.00,1470.08 4113.00,1470.08              4113.00,1470.08 4085.00,1470.08 4085.00,1470.08 Z"/>
</svg>