<svg xmlns="http://www.w3.org/2000/svg" viewBox="-0.5 -0.04 783 1674.54">
  <path id="Selection" fill="#303030" stroke="none" stroke-width="1" d="M 364.00,1674.00            C 364.00,1674.00 360.83,1646.00 360.83,1646.00              360.83,1646.00 357.83,1617.00 357.83,1617.00              357.83,1617.00 350.09,1538.00 350.09,1538.00              350.09,1538.00 347.91,1509.00 347.91,1509.00              347.91,1509.00 347.01,1500.00 347.01,1500.00              346.93,1496.84 346.11,1481.22 344.98,1479.32              344.98,1479.32 329.00,1466.39 329.00,1466.39              329.00,1466.39 295.00,1436.91 295.00,1436.91              261.12,1405.35 229.75,1371.70 200.25,1336.00              110.33,1227.18 39.52,1090.38 13.39,951.00              7.11,917.54 2.44,883.99 0.96,850.00              0.96,850.00 0.00,839.00 0.00,839.00              0.00,839.00 0.00,776.00 0.00,776.00              0.00,776.00 1.00,757.00 1.00,757.00              1.00,757.00 1.91,747.00 1.91,747.00              1.91,747.00 4.85,716.00 4.85,716.00              8.09,688.84 12.52,661.72 18.42,635.00              56.26,463.69 146.80,307.36 256.20,172.00              291.06,128.87 325.29,85.52 358.37,41.00              358.37,41.00 381.58,9.00 381.58,9.00              383.80,5.92 387.33,-0.78 391.93,0.66              395.27,1.70 400.40,9.95 402.58,13.00              402.58,13.00 425.87,45.00 425.87,45.00              456.04,85.24 486.54,125.10 518.42,164.00              641.64,314.32 739.09,487.45 771.57,681.00              776.58,710.89 780.95,751.87 781.00,782.00              781.00,782.00 782.00,799.00 782.00,799.00              782.00,799.00 781.00,842.00 781.00,842.00              781.00,842.00 780.04,853.00 780.04,853.00              778.05,898.72 770.48,944.59 759.37,989.00              727.21,1117.66 664.45,1233.67 580.58,1336.00              558.70,1362.70 535.39,1387.61 511.00,1412.00              511.00,1412.00 491.00,1431.72 491.00,1431.72              491.00,1431.72 455.00,1463.20 455.00,1463.20              451.33,1466.17 437.70,1476.04 436.02,1479.09              433.91,1482.90 434.21,1491.60 433.91,1496.00              433.91,1496.00 430.83,1534.00 430.83,1534.00              430.83,1534.00 422.83,1618.00 422.83,1618.00              422.83,1618.00 417.00,1674.00 417.00,1674.00              417.00,1674.00 364.00,1674.00 364.00,1674.00 Z            M 391.00,582.00            C 388.00,586.07 388.01,593.97 388.00,599.00              388.00,599.00 387.00,621.00 387.00,621.00              387.00,621.00 385.00,673.00 385.00,673.00              385.00,673.00 384.00,687.00 384.00,687.00              384.00,687.00 383.00,717.00 383.00,717.00              383.00,717.00 382.00,731.00 382.00,731.00              382.00,731.00 381.00,762.00 381.00,762.00              381.00,762.00 380.00,777.00 380.00,777.00              380.00,777.00 379.00,799.00 379.00,799.00              379.00,799.00 378.00,821.00 378.00,821.00              378.00,821.00 377.00,851.00 377.00,851.00              377.00,851.00 376.00,865.00 376.00,865.00              376.00,865.00 375.00,895.00 375.00,895.00              375.00,895.00 374.00,910.00 374.00,910.00              374.00,910.00 372.00,959.00 372.00,959.00              372.00,959.00 370.96,976.00 370.96,976.00              370.96,976.00 370.96,987.00 370.96,987.00              370.96,987.00 370.00,997.00 370.00,997.00              370.00,997.00 367.00,1072.00 367.00,1072.00              367.00,1072.00 366.00,1086.00 366.00,1086.00              366.00,1086.00 365.00,1117.00 365.00,1117.00              365.00,1117.00 364.00,1130.00 364.00,1130.00              364.00,1130.00 363.00,1159.00 363.00,1159.00              363.00,1159.00 362.00,1176.00 362.00,1176.00              362.00,1176.00 361.00,1198.00 361.00,1198.00              361.00,1198.00 360.00,1228.00 360.00,1228.00              360.00,1228.00 359.00,1242.00 359.00,1242.00              359.00,1242.00 358.00,1272.00 358.00,1272.00              358.00,1272.00 357.00,1285.00 357.00,1285.00              357.00,1285.00 356.00,1315.00 356.00,1315.00              356.00,1315.00 355.00,1330.00 355.00,1330.00              355.00,1330.00 352.00,1405.00 352.00,1405.00              351.92,1411.20 349.45,1418.35 352.70,1424.00              355.75,1429.30 373.75,1447.08 379.00,1451.83              381.16,1453.78 387.36,1459.72 390.00,1459.89              393.65,1460.14 399.36,1453.56 402.00,1451.17              408.08,1445.67 425.34,1429.94 428.15,1423.00              429.15,1420.52 428.99,1417.63 429.00,1415.00              429.00,1415.00 429.00,1407.00 429.00,1407.00              429.00,1407.00 428.04,1396.00 428.04,1396.00              428.04,1396.00 428.04,1384.00 428.04,1384.00              428.04,1384.00 427.00,1369.00 427.00,1369.00              427.00,1369.00 427.00,1362.00 427.00,1362.00              427.00,1362.00 426.00,1347.00 426.00,1347.00              426.00,1347.00 424.00,1295.00 424.00,1295.00              424.00,1295.00 423.00,1281.00 423.00,1281.00              423.00,1281.00 422.00,1251.00 422.00,1251.00              422.00,1251.00 421.00,1236.00 421.00,1236.00              421.00,1236.00 420.00,1213.00 420.00,1213.00              420.00,1213.00 419.00,1191.00 419.00,1191.00              419.00,1191.00 418.00,1162.00 418.00,1162.00              418.00,1162.00 417.04,1152.00 417.04,1152.00              417.04,1152.00 417.04,1140.00 417.04,1140.00              417.04,1140.00 416.00,1125.00 416.00,1125.00              416.00,1125.00 415.00,1102.00 415.00,1102.00              415.00,1102.00 413.00,1052.00 413.00,1052.00              413.00,1052.00 412.00,1036.00 412.00,1036.00              412.00,1036.00 411.00,1014.00 411.00,1014.00              411.00,1014.00 410.00,984.00 410.00,984.00              410.00,984.00 409.00,970.00 409.00,970.00              409.00,970.00 408.00,940.00 408.00,940.00              408.00,940.00 407.04,930.00 407.04,930.00              407.04,930.00 407.04,918.00 407.04,918.00              407.04,918.00 406.00,903.00 406.00,903.00              406.00,903.00 405.00,880.00 405.00,880.00              405.00,880.00 404.00,858.00 404.00,858.00              404.00,858.00 403.00,829.00 403.00,829.00              403.00,829.00 402.00,814.00 402.00,814.00              402.00,814.00 400.00,764.00 400.00,764.00              400.00,764.00 399.00,748.00 399.00,748.00              399.00,748.00 397.00,697.00 397.00,697.00              397.00,697.00 396.00,681.00 396.00,681.00              396.00,681.00 394.00,629.00 394.00,629.00              394.00,629.00 393.04,619.00 393.04,619.00              393.04,619.00 393.04,607.00 393.04,607.00              393.04,607.00 392.00,594.00 392.00,594.00              391.95,589.09 392.39,586.89 391.00,582.00 Z"/>
</svg>