<svg xmlns="http://www.w3.org/2000/svg" viewBox="55.5 139.41 399 221.09">
  <path id="mozilla" fill="#303030" stroke="none" stroke-width="1"
    d="M 146.00,177.00            C 149.53,169.77 152.36,166.64 158.00,161.00              165.31,153.69 171.38,149.34 181.00,145.45              203.35,136.43 234.75,138.86 255.00,152.10              269.65,161.68 273.91,170.96 281.00,186.00              287.91,171.35 295.03,160.41 309.00,151.44              340.04,131.50 389.05,137.68 411.24,168.00              424.71,186.39 424.00,202.65 424.00,224.00              424.00,224.00 424.00,256.00 424.00,256.00              424.00,256.00 424.00,306.00 424.00,306.00              424.15,314.15 426.78,313.99 434.00,314.00              434.00,314.00 454.00,314.00 454.00,314.00              454.00,314.00 454.00,360.00 454.00,360.00              454.00,360.00 364.00,360.00 364.00,360.00              364.00,360.00 364.00,231.00 364.00,231.00              363.98,219.11 360.82,203.68 351.91,195.18              335.84,179.87 306.09,184.96 294.10,203.00              285.10,216.55 286.00,231.63 286.00,247.00              286.00,247.00 286.00,313.00 286.00,313.00              286.00,313.00 314.00,313.00 314.00,313.00              314.00,313.00 314.00,359.00 314.00,359.00              314.00,359.00 225.00,359.00 225.00,359.00              225.00,359.00 225.00,238.00 225.00,238.00              224.97,220.81 221.52,197.53 204.00,189.52              200.07,187.72 193.33,186.34 189.00,186.09              168.03,184.90 153.29,198.54 148.16,218.00              145.04,229.80 146.00,242.83 146.00,255.00              146.00,255.00 146.00,313.00 146.00,313.00              146.00,313.00 187.00,313.00 187.00,313.00              187.00,313.00 187.00,359.00 187.00,359.00              187.00,359.00 56.00,359.00 56.00,359.00              56.00,359.00 56.00,313.00 56.00,313.00              56.00,313.00 84.00,313.00 84.00,313.00              84.00,313.00 84.00,191.00 84.00,191.00              84.00,191.00 56.00,191.00 56.00,191.00              56.00,191.00 56.00,145.00 56.00,145.00              56.00,145.00 145.00,145.00 145.00,145.00              145.00,145.00 146.00,177.00 146.00,177.00 Z" />
</svg>