<svg xmlns="http://www.w3.org/2000/svg" viewBox="56.5 447.35 2141 541.52">
  <path id="msi" fill="#303030" stroke="none" stroke-width="1"
    d="M 250.00,448.00            C 250.00,448.00 269.00,448.00 269.00,448.00              269.00,448.00 281.00,448.91 281.00,448.91              316.60,451.51 347.18,460.94 375.00,484.08              389.16,495.86 404.28,514.88 406.00,534.00              406.00,534.00 436.00,516.85 436.00,516.85              454.22,506.45 472.83,496.40 492.00,487.86              523.96,473.63 561.69,461.66 596.00,454.80              610.83,451.83 637.20,448.02 652.00,448.00              652.00,448.00 689.00,448.00 689.00,448.00              689.00,448.00 701.00,448.91 701.00,448.91              738.19,451.63 769.61,461.86 798.00,486.85              810.63,497.96 824.43,516.62 826.00,534.00              826.00,534.00 846.00,522.42 846.00,522.42              846.00,522.42 888.00,499.26 888.00,499.26              913.37,486.17 944.63,473.96 972.00,465.72              1000.66,457.09 1030.13,451.00 1060.00,448.91              1060.00,448.91 1072.00,448.00 1072.00,448.00              1072.00,448.00 1111.00,448.00 1111.00,448.00              1111.00,448.00 1121.00,448.91 1121.00,448.91              1156.93,451.54 1189.62,461.77 1217.00,486.05              1224.43,492.64 1227.78,495.54 1233.48,504.00              1243.79,519.31 1249.78,541.59 1250.00,560.00              1250.42,596.14 1243.11,611.02 1231.05,644.00              1231.05,644.00 1208.05,708.00 1208.05,708.00              1208.05,708.00 1143.31,889.00 1143.31,889.00              1143.31,889.00 1119.31,956.00 1119.31,956.00              1119.31,956.00 1108.00,988.00 1108.00,988.00              1108.00,988.00 897.00,988.00 897.00,988.00              897.00,988.00 920.95,920.00 920.95,920.00              920.95,920.00 958.95,814.00 958.95,814.00              958.95,814.00 985.69,739.00 985.69,739.00              985.69,739.00 998.67,703.00 998.67,703.00              998.67,703.00 1019.33,645.00 1019.33,645.00              1024.20,630.40 1028.61,615.22 1023.64,600.00              1015.90,576.27 990.73,571.75 969.00,572.00              946.89,572.26 907.15,583.53 888.00,594.43              878.02,600.11 873.57,604.03 865.00,611.42              840.45,632.62 812.73,663.57 796.86,692.00              784.81,713.61 777.58,737.77 769.31,761.00              769.31,761.00 731.31,867.00 731.31,867.00              731.31,867.00 698.00,960.00 698.00,960.00              698.00,960.00 691.05,979.00 691.05,979.00              690.26,981.16 689.09,985.66 687.30,987.01              685.63,988.26 682.04,988.00 680.00,988.00              680.00,988.00 477.00,988.00 477.00,988.00              477.00,988.00 498.95,926.00 498.95,926.00              498.95,926.00 525.69,851.00 525.69,851.00              525.69,851.00 538.00,817.00 538.00,817.00              538.00,817.00 556.31,766.00 556.31,766.00              556.31,766.00 578.81,703.00 578.81,703.00              578.81,703.00 597.05,652.00 597.05,652.00              603.03,635.65 609.55,616.22 603.45,599.00              595.45,576.42 571.05,571.76 550.00,572.00              524.92,572.30 484.27,584.33 463.00,597.46              459.08,599.88 454.57,603.47 451.00,606.43              422.82,629.87 393.79,661.87 375.86,694.00              365.19,713.13 354.98,745.44 347.31,767.00              347.31,767.00 311.00,868.00 311.00,868.00              311.00,868.00 278.05,960.00 278.05,960.00              278.05,960.00 271.31,979.00 271.31,979.00              270.56,981.10 269.06,985.71 267.30,987.01              265.62,988.26 262.06,988.00 260.00,988.00              260.00,988.00 57.00,988.00 57.00,988.00              57.00,988.00 73.31,942.00 73.31,942.00              73.31,942.00 106.31,850.00 106.31,850.00              106.31,850.00 203.69,578.00 203.69,578.00              203.69,578.00 236.34,487.00 236.34,487.00              236.34,487.00 250.00,448.00 250.00,448.00 Z            M 1214.00,892.00            C 1214.00,892.00 1237.00,895.59 1237.00,895.59              1237.00,895.59 1271.00,900.72 1271.00,900.72              1315.12,906.53 1359.52,910.00 1404.00,910.00              1431.21,910.00 1452.95,910.54 1480.00,904.58              1507.07,898.61 1533.57,885.91 1543.31,858.00              1547.32,846.50 1548.17,835.78 1541.53,825.00              1531.43,808.59 1506.64,794.18 1490.00,784.72              1490.00,784.72 1451.00,764.25 1451.00,764.25              1401.96,739.90 1333.04,716.64 1318.88,657.00              1316.95,648.87 1315.91,640.35 1316.00,632.00              1316.16,618.38 1319.98,603.59 1325.00,591.00              1343.06,545.71 1378.93,518.50 1421.00,496.74              1421.00,496.74 1444.00,485.14 1444.00,485.14              1471.08,473.07 1488.71,465.89 1518.00,459.42              1578.72,446.01 1644.99,447.90 1707.00,448.00              1707.00,448.00 1723.00,449.00 1723.00,449.00              1723.00,449.00 1729.00,449.00 1729.00,449.00              1729.00,449.00 1741.00,449.96 1741.00,449.96              1773.74,451.39 1806.52,455.05 1839.00,459.73              1839.00,459.73 1898.00,470.00 1898.00,470.00              1898.00,470.00 1891.05,490.00 1891.05,490.00              1891.05,490.00 1872.00,544.00 1872.00,544.00              1872.00,544.00 1837.00,538.42 1837.00,538.42              1837.00,538.42 1780.00,531.17 1780.00,531.17              1780.00,531.17 1737.00,527.96 1737.00,527.96              1737.00,527.96 1724.00,527.00 1724.00,527.00              1724.00,527.00 1704.00,526.00 1704.00,526.00              1704.00,526.00 1651.00,526.00 1651.00,526.00              1651.00,526.00 1639.00,526.91 1639.00,526.91              1598.21,529.76 1543.17,543.32 1539.52,593.00              1538.65,604.81 1546.21,614.24 1554.00,622.00              1569.26,637.22 1588.44,646.93 1607.00,657.42              1642.59,677.54 1681.79,690.97 1716.00,713.67              1740.61,730.00 1759.65,748.33 1767.11,778.00              1769.32,786.82 1770.10,795.94 1770.00,805.00              1769.87,815.51 1766.99,828.03 1763.67,838.00              1748.43,883.71 1715.51,910.74 1675.00,933.85              1675.00,933.85 1641.00,951.42 1641.00,951.42              1618.09,961.42 1600.65,968.94 1576.00,974.77              1512.41,989.81 1442.19,988.76 1377.00,988.00              1377.00,988.00 1363.00,987.00 1363.00,987.00              1363.00,987.00 1357.00,987.00 1357.00,987.00              1357.00,987.00 1345.00,986.04 1345.00,986.04              1312.26,984.61 1279.48,980.95 1247.00,976.27              1247.00,976.27 1188.00,966.00 1188.00,966.00              1188.00,966.00 1206.34,914.00 1206.34,914.00              1206.34,914.00 1214.00,892.00 1214.00,892.00 Z            M 1951.00,548.00            C 1952.08,542.02 1956.14,532.06 1958.31,526.00              1958.31,526.00 1971.19,490.00 1971.19,490.00              1972.71,485.99 1976.61,472.26 1979.48,470.16              1981.76,468.49 1992.63,467.02 1996.00,466.39              1996.00,466.39 2037.00,459.73 2037.00,459.73              2089.95,452.16 2143.56,448.00 2197.00,448.00              2197.00,448.00 2191.69,464.00 2191.69,464.00              2191.69,464.00 2170.00,526.00 2170.00,526.00              2096.47,526.00 2023.28,534.40 1951.00,548.00 Z            M 1793.00,988.00            C 1793.00,988.00 1805.95,951.00 1805.95,951.00              1805.95,951.00 1824.95,898.00 1824.95,898.00              1824.95,898.00 1860.69,798.00 1860.69,798.00              1860.69,798.00 1892.33,710.00 1892.33,710.00              1892.33,710.00 1919.95,633.00 1919.95,633.00              1919.95,633.00 1927.81,611.00 1927.81,611.00              1928.64,608.82 1930.00,604.35 1931.70,602.90              1933.61,601.28 1943.92,599.81 1947.00,599.20              1947.00,599.20 1987.00,592.73 1987.00,592.73              2019.60,588.03 2052.21,585.15 2085.00,582.91              2085.00,582.91 2096.00,582.00 2096.00,582.00              2096.00,582.00 2113.00,581.00 2113.00,581.00              2113.00,581.00 2126.00,581.00 2126.00,581.00              2126.00,581.00 2142.00,580.00 2142.00,580.00              2142.00,580.00 2150.00,580.00 2150.00,580.00              2150.00,580.00 2124.69,651.00 2124.69,651.00              2124.69,651.00 2070.31,803.00 2070.31,803.00              2070.31,803.00 2038.33,892.00 2038.33,892.00              2038.33,892.00 2025.69,927.00 2025.69,927.00              2025.69,927.00 2011.81,966.00 2011.81,966.00              2011.81,966.00 2006.69,980.00 2006.69,980.00              2006.69,980.00 2003.30,987.01 2003.30,987.01              2003.30,987.01 1996.00,988.00 1996.00,988.00              1996.00,988.00 1793.00,988.00 1793.00,988.00 Z" />
</svg>