<svg xmlns="http://www.w3.org/2000/svg" viewBox="2344.82 -0.33 989.54 985.86">
  <path id="mubi" fill="#303030" stroke="none" stroke-width="1"
    d="M 2467.00,0.21            C 2467.00,0.21 2493.00,0.21 2493.00,0.21              2506.63,0.02 2523.35,4.19 2536.00,9.20              2552.16,15.60 2569.59,26.89 2581.99,39.04              2631.47,87.55 2636.13,168.40 2594.11,223.00              2583.26,237.10 2570.41,248.63 2555.00,257.58              2538.78,267.00 2520.67,273.42 2502.00,275.71              2483.62,277.98 2464.90,276.69 2447.00,271.85              2433.06,268.08 2416.81,260.84 2405.00,252.56              2342.80,208.96 2326.89,124.35 2368.34,61.00              2377.94,46.33 2390.45,33.48 2405.00,23.67              2425.70,9.72 2442.60,4.11 2467.00,0.21 Z            M 2822.00,0.21            C 2822.00,0.21 2837.00,0.21 2837.00,0.21              2855.34,0.00 2865.08,0.35 2883.00,6.03              2959.65,30.32 2996.91,115.24 2968.94,189.00              2962.69,205.47 2953.16,220.11 2941.16,232.96              2928.10,246.95 2913.51,257.40 2896.00,265.14              2878.77,272.75 2856.83,277.21 2838.00,277.00              2821.19,276.81 2802.58,272.83 2787.00,266.60              2772.43,260.77 2758.69,252.35 2747.00,241.83              2702.08,201.40 2688.09,135.06 2713.31,80.00              2722.66,59.58 2736.46,42.41 2754.00,28.45              2774.49,12.15 2796.56,4.59 2822.00,0.21 Z            M 2469.00,354.21            C 2469.00,354.21 2491.00,354.21 2491.00,354.21              2505.75,354.02 2525.45,358.92 2539.00,364.72              2554.14,371.20 2568.31,380.36 2580.00,392.00              2594.21,406.14 2603.64,418.45 2611.57,437.00              2618.47,453.13 2620.52,465.81 2622.17,483.00              2622.60,487.50 2623.10,489.12 2622.99,494.00              2622.99,494.00 2622.09,503.00 2622.09,503.00              2618.44,552.98 2590.14,595.04 2545.00,617.24              2523.43,627.85 2501.78,631.27 2478.00,631.00              2466.22,630.86 2451.20,627.70 2440.00,624.00              2422.16,618.10 2406.21,609.07 2392.00,596.71              2345.46,556.23 2332.90,488.45 2358.31,433.00              2374.17,398.38 2405.73,371.27 2442.00,360.02              2451.99,356.93 2458.86,355.96 2469.00,354.21 Z            M 2825.00,354.21            C 2825.00,354.21 2846.00,354.21 2846.00,354.21              2860.00,354.02 2877.99,358.05 2891.00,363.20              2905.98,369.14 2919.85,377.72 2932.00,388.29              2973.91,424.74 2988.17,484.79 2971.26,537.00              2965.49,554.79 2956.18,569.75 2944.25,584.00              2933.20,597.18 2916.54,609.75 2901.00,617.22              2879.32,627.63 2857.85,631.28 2834.00,631.00              2822.94,630.87 2809.64,628.17 2799.00,625.14              2787.18,621.78 2773.22,615.12 2763.00,608.33              2704.55,569.55 2685.19,495.10 2714.31,432.00              2729.46,399.17 2760.65,371.87 2795.00,360.74              2805.34,357.39 2814.35,355.97 2825.00,354.21 Z            M 3181.00,354.21            C 3181.00,354.21 3202.00,354.21 3202.00,354.21              3217.13,354.02 3233.94,358.36 3248.00,363.81              3262.34,369.37 3275.38,377.88 3287.00,387.87              3339.20,432.75 3348.51,511.87 3311.31,569.00              3297.54,590.14 3278.43,606.06 3256.00,617.25              3234.18,628.13 3213.10,631.28 3189.00,631.00              3189.00,631.00 3170.00,628.75 3170.00,628.75              3122.28,620.46 3082.53,587.32 3065.42,542.00              3057.53,521.08 3056.97,506.80 3057.00,485.00              3057.07,443.23 3083.45,399.19 3118.00,376.69              3139.58,362.64 3156.00,358.05 3181.00,354.21 Z            M 2472.00,708.21            C 2472.00,708.21 2488.00,708.21 2488.00,708.21              2503.00,708.02 2518.91,711.67 2533.00,716.69              2547.62,721.90 2559.90,729.36 2572.00,739.00              2582.63,747.48 2591.77,757.72 2599.33,769.00              2643.32,834.60 2623.60,925.82 2555.00,966.14              2536.69,976.90 2512.39,984.97 2491.00,985.00              2491.00,985.00 2475.00,985.00 2475.00,985.00              2462.97,984.86 2444.23,980.24 2433.00,975.80              2418.91,970.22 2405.55,962.60 2394.00,952.70              2345.37,911.03 2332.04,842.42 2359.32,785.00              2372.82,756.58 2399.11,731.78 2428.00,719.43              2443.89,712.63 2455.25,710.85 2472.00,708.21 Z            M 2828.00,708.21            C 2828.00,708.21 2843.00,708.21 2843.00,708.21              2858.39,708.02 2876.71,711.93 2891.00,717.60              2907.99,724.34 2923.82,734.29 2937.00,747.04              2975.50,784.30 2988.16,843.83 2970.31,894.00              2964.89,909.21 2957.03,922.42 2947.00,935.00              2937.55,946.84 2924.09,958.33 2911.00,965.99              2883.80,981.91 2861.89,985.36 2831.00,985.00              2821.38,984.88 2808.30,982.09 2799.00,979.42              2722.75,957.57 2682.32,872.55 2709.05,799.00              2722.93,760.84 2753.84,729.93 2792.00,716.05              2805.07,711.30 2814.60,710.34 2828.00,708.21 Z" />
</svg>