<svg xmlns="http://www.w3.org/2000/svg" viewBox="49.54 997.59 2460.96 727.94">
  <path id="mysql-text" fill="#303030" stroke="none" stroke-width="1"
    d="M 1940.00,1654.00            C 1933.29,1651.88 1912.50,1638.78 1905.00,1634.42              1905.00,1634.42 1838.00,1595.40 1838.00,1595.40              1838.00,1595.40 1816.00,1582.58 1816.00,1582.58              1813.08,1580.88 1806.93,1576.87 1804.00,1576.14              1800.36,1575.23 1794.71,1577.24 1791.00,1578.12              1791.00,1578.12 1771.00,1581.73 1771.00,1581.73              1762.03,1583.05 1753.06,1583.96 1744.00,1584.00              1744.00,1584.00 1728.00,1584.99 1728.00,1584.99              1728.00,1584.99 1709.00,1584.00 1709.00,1584.00              1700.36,1583.99 1690.60,1582.51 1682.00,1581.27              1634.76,1574.46 1591.55,1554.55 1561.89,1516.00              1535.02,1481.08 1521.91,1437.92 1514.75,1395.00              1508.29,1356.24 1507.54,1317.22 1508.00,1278.00              1508.00,1278.00 1509.00,1265.00 1509.00,1265.00              1509.00,1265.00 1511.85,1231.00 1511.85,1231.00              1519.91,1163.53 1542.39,1094.42 1595.00,1048.29              1632.72,1015.21 1682.38,999.58 1732.00,999.00              1732.00,999.00 1745.00,998.09 1745.00,998.09              1745.00,998.09 1764.00,999.00 1764.00,999.00              1780.18,999.19 1803.36,1003.80 1819.00,1008.29              1834.75,1012.81 1850.01,1019.24 1864.00,1027.81              1953.24,1082.47 1965.15,1199.32 1965.00,1294.00              1965.00,1294.00 1964.00,1316.00 1964.00,1316.00              1964.00,1316.00 1963.09,1327.00 1963.09,1327.00              1961.41,1351.37 1958.12,1375.15 1952.65,1399.00              1941.07,1449.46 1915.14,1506.13 1873.00,1538.00              1873.00,1538.00 1951.00,1576.25 1951.00,1576.25              1951.00,1576.25 1970.00,1585.42 1970.00,1585.42              1972.08,1586.36 1975.27,1587.52 1975.44,1590.21              1975.60,1592.93 1968.05,1604.89 1966.28,1608.00              1966.28,1608.00 1940.00,1654.00 1940.00,1654.00 Z            M 1136.00,1481.00            C 1141.61,1482.05 1145.80,1484.76 1151.00,1487.00              1151.00,1487.00 1182.00,1499.66 1182.00,1499.66              1200.86,1506.20 1229.15,1513.97 1249.00,1514.00              1249.00,1514.00 1272.00,1514.00 1272.00,1514.00              1278.59,1513.92 1289.46,1512.13 1296.00,1510.65              1335.78,1501.65 1367.57,1475.13 1369.10,1432.17              1369.42,1423.22 1368.88,1417.62 1366.28,1409.00              1363.81,1400.82 1358.91,1391.86 1353.84,1385.00              1337.16,1362.39 1312.14,1347.95 1288.00,1334.70              1288.00,1334.70 1221.00,1296.85 1221.00,1296.85              1221.00,1296.85 1183.00,1274.80 1183.00,1274.80              1157.91,1257.41 1136.13,1233.35 1126.35,1204.00              1120.42,1186.18 1118.79,1166.67 1119.00,1148.00              1119.00,1148.00 1119.83,1139.00 1119.83,1139.00              1121.49,1121.87 1123.52,1110.24 1129.81,1094.00              1134.37,1082.22 1141.64,1069.78 1149.61,1060.00              1179.91,1022.84 1222.06,1004.64 1269.00,1000.04              1269.00,1000.04 1277.00,1000.04 1277.00,1000.04              1277.00,1000.04 1287.00,999.00 1287.00,999.00              1315.52,998.67 1345.72,1002.55 1373.00,1011.02              1383.75,1014.37 1403.25,1022.07 1413.00,1027.31              1413.00,1027.31 1437.00,1041.00 1437.00,1041.00              1437.00,1041.00 1415.00,1091.00 1415.00,1091.00              1409.87,1090.04 1403.16,1086.94 1398.00,1085.05              1398.00,1085.05 1369.00,1075.88 1369.00,1075.88              1342.40,1068.90 1322.20,1067.69 1295.00,1068.00              1254.25,1068.48 1212.03,1099.55 1213.01,1143.00              1214.23,1196.51 1273.88,1224.59 1314.00,1246.86              1314.00,1246.86 1372.00,1279.72 1372.00,1279.72              1372.00,1279.72 1404.00,1298.08 1404.00,1298.08              1426.52,1312.87 1449.33,1336.77 1459.55,1362.00              1469.19,1385.81 1469.29,1404.98 1469.00,1430.00              1468.85,1442.45 1464.96,1460.14 1461.00,1472.00              1456.95,1484.15 1452.60,1493.16 1445.77,1504.00              1411.80,1557.94 1351.03,1580.38 1290.00,1583.04              1290.00,1583.04 1277.00,1584.00 1277.00,1584.00              1277.00,1584.00 1271.00,1584.00 1271.00,1584.00              1271.00,1584.00 1261.00,1583.00 1261.00,1583.00              1261.00,1583.00 1253.00,1583.00 1253.00,1583.00              1242.77,1582.21 1232.06,1580.56 1222.00,1578.55              1197.59,1573.67 1173.25,1564.86 1151.00,1553.73              1151.00,1553.73 1112.00,1531.00 1112.00,1531.00              1112.00,1531.00 1136.00,1481.00 1136.00,1481.00 Z            M 92.00,1007.00            C 92.00,1007.00 211.00,1007.00 211.00,1007.00              211.00,1007.00 219.66,1034.00 219.66,1034.00              219.66,1034.00 238.66,1092.00 238.66,1092.00              238.66,1092.00 294.33,1262.00 294.33,1262.00              294.33,1262.00 330.67,1373.00 330.67,1373.00              330.67,1373.00 348.00,1424.00 348.00,1424.00              348.00,1424.00 357.98,1392.00 357.98,1392.00              357.98,1392.00 383.67,1314.00 383.67,1314.00              383.67,1314.00 453.00,1103.00 453.00,1103.00              453.00,1103.00 477.33,1030.00 477.33,1030.00              477.33,1030.00 482.14,1015.00 482.14,1015.00              482.14,1015.00 485.51,1008.02 485.51,1008.02              485.51,1008.02 493.00,1007.00 493.00,1007.00              493.00,1007.00 599.00,1007.00 599.00,1007.00              599.00,1007.00 605.84,1070.00 605.84,1070.00              605.84,1070.00 617.83,1186.00 617.83,1186.00              617.83,1186.00 629.09,1323.00 629.09,1323.00              629.09,1323.00 630.91,1343.00 630.91,1343.00              630.91,1343.00 633.09,1381.00 633.09,1381.00              633.09,1381.00 635.00,1409.00 635.00,1409.00              635.00,1409.00 637.00,1447.00 637.00,1447.00              637.00,1447.00 638.00,1464.00 638.00,1464.00              638.00,1464.00 639.00,1484.00 639.00,1484.00              639.00,1484.00 640.04,1507.00 640.04,1507.00              640.04,1507.00 640.04,1520.00 640.04,1520.00              640.04,1520.00 641.00,1532.00 641.00,1532.00              641.00,1532.00 642.00,1576.00 642.00,1576.00              642.00,1576.00 546.00,1576.00 546.00,1576.00              546.00,1576.00 545.00,1518.00 545.00,1518.00              545.00,1518.00 544.00,1501.00 544.00,1501.00              544.00,1501.00 543.00,1460.00 543.00,1460.00              543.00,1460.00 542.00,1445.00 542.00,1445.00              542.00,1445.00 541.00,1425.00 541.00,1425.00              541.00,1425.00 540.00,1396.00 540.00,1396.00              540.00,1396.00 539.04,1386.00 539.04,1386.00              539.04,1386.00 539.04,1378.00 539.04,1378.00              539.04,1378.00 538.00,1360.00 538.00,1360.00              538.00,1360.00 536.09,1334.00 536.09,1334.00              536.09,1334.00 534.91,1310.00 534.91,1310.00              534.91,1310.00 532.09,1275.00 532.09,1275.00              532.09,1275.00 523.17,1170.00 523.17,1170.00              523.17,1170.00 518.00,1124.00 518.00,1124.00              518.00,1124.00 506.72,1161.00 506.72,1161.00              506.72,1161.00 477.67,1252.00 477.67,1252.00              477.67,1252.00 408.00,1471.00 408.00,1471.00              408.00,1471.00 382.34,1551.00 382.34,1551.00              382.34,1551.00 377.00,1568.00 377.00,1568.00              377.00,1568.00 373.49,1574.98 373.49,1574.98              373.49,1574.98 368.00,1576.00 368.00,1576.00              368.00,1576.00 309.00,1576.00 309.00,1576.00              309.00,1576.00 301.70,1575.01 301.70,1575.01              301.70,1575.01 298.33,1568.00 298.33,1568.00              298.33,1568.00 293.00,1551.00 293.00,1551.00              293.00,1551.00 267.33,1470.00 267.33,1470.00              267.33,1470.00 235.98,1371.00 235.98,1371.00              235.98,1371.00 193.02,1236.00 193.02,1236.00              193.02,1236.00 172.72,1172.00 172.72,1172.00              172.72,1172.00 157.00,1124.00 157.00,1124.00              157.00,1124.00 155.09,1155.00 155.09,1155.00              155.09,1155.00 152.00,1198.00 152.00,1198.00              152.00,1198.00 152.00,1207.00 152.00,1207.00              152.00,1207.00 149.00,1254.00 149.00,1254.00              149.00,1254.00 148.00,1270.00 148.00,1270.00              148.00,1270.00 147.00,1285.00 147.00,1285.00              147.00,1285.00 146.00,1313.00 146.00,1313.00              146.00,1313.00 145.04,1323.00 145.04,1323.00              145.04,1323.00 145.04,1333.00 145.04,1333.00              145.04,1333.00 143.96,1348.00 143.96,1348.00              143.96,1348.00 143.96,1361.00 143.96,1361.00              143.96,1361.00 142.96,1373.00 142.96,1373.00              142.96,1373.00 142.96,1385.00 142.96,1385.00              142.96,1385.00 142.00,1395.00 142.00,1395.00              142.00,1395.00 142.00,1411.00 142.00,1411.00              142.00,1411.00 141.00,1426.00 141.00,1426.00              141.00,1426.00 141.00,1440.00 141.00,1440.00              141.00,1440.00 140.00,1456.00 140.00,1456.00              140.00,1456.00 139.00,1514.00 139.00,1514.00              139.00,1514.00 138.00,1531.00 138.00,1531.00              138.00,1531.00 137.00,1576.00 137.00,1576.00              137.00,1576.00 50.04,1576.00 50.04,1576.00              50.04,1576.00 50.04,1560.00 50.04,1560.00              50.04,1560.00 51.00,1548.00 51.00,1548.00              51.00,1548.00 52.00,1506.00 52.00,1506.00              52.00,1506.00 52.96,1494.00 52.96,1494.00              52.96,1494.00 52.96,1481.00 52.96,1481.00              52.96,1481.00 54.00,1465.00 54.00,1465.00              54.00,1465.00 55.00,1443.00 55.00,1443.00              55.00,1443.00 57.00,1398.00 57.00,1398.00              57.00,1398.00 59.00,1368.00 59.00,1368.00              59.00,1368.00 60.91,1338.00 60.91,1338.00              60.91,1338.00 64.09,1286.00 64.09,1286.00              64.09,1286.00 66.91,1253.00 66.91,1253.00              70.58,1199.59 76.14,1146.27 81.84,1093.00              81.84,1093.00 88.85,1032.00 88.85,1032.00              88.85,1032.00 92.00,1007.00 92.00,1007.00 Z            M 2046.00,1007.00            C 2046.00,1007.00 2138.00,1007.00 2138.00,1007.00              2138.00,1007.00 2138.00,1505.00 2138.00,1505.00              2138.00,1505.00 2317.00,1505.00 2317.00,1505.00              2317.00,1505.00 2317.00,1576.00 2317.00,1576.00              2317.00,1576.00 2046.00,1576.00 2046.00,1576.00              2046.00,1576.00 2046.00,1007.00 2046.00,1007.00 Z            M 1727.00,1069.28            C 1707.63,1072.07 1696.04,1072.54 1678.00,1082.31              1648.37,1098.36 1631.38,1126.90 1621.00,1158.00              1612.59,1183.22 1608.68,1209.63 1606.04,1236.00              1606.04,1236.00 1606.04,1245.00 1606.04,1245.00              1606.04,1245.00 1605.00,1257.00 1605.00,1257.00              1605.00,1257.00 1605.00,1314.00 1605.00,1314.00              1605.00,1314.00 1606.00,1326.00 1606.00,1326.00              1606.00,1326.00 1606.00,1335.00 1606.00,1335.00              1607.39,1354.00 1609.84,1373.31 1613.60,1392.00              1623.85,1442.95 1645.70,1494.20 1701.00,1508.37              1710.05,1510.69 1723.72,1512.89 1733.00,1513.00              1748.46,1513.18 1761.09,1511.95 1776.00,1507.58              1811.84,1497.06 1834.11,1468.48 1847.40,1435.00              1867.70,1383.85 1868.63,1326.28 1868.00,1272.00              1868.00,1272.00 1867.00,1254.00 1867.00,1254.00              1867.00,1254.00 1866.09,1244.00 1866.09,1244.00              1864.09,1215.42 1860.10,1186.29 1851.00,1159.00              1843.95,1137.86 1835.36,1118.53 1819.91,1102.00              1799.54,1080.20 1774.64,1072.61 1746.00,1069.83              1739.12,1069.17 1734.01,1068.63 1727.00,1069.28 Z            M 688.00,1156.00            C 688.00,1156.00 783.00,1156.00 783.00,1156.00              783.00,1156.00 791.28,1184.00 791.28,1184.00              791.28,1184.00 811.98,1251.00 811.98,1251.00              811.98,1251.00 859.28,1405.00 859.28,1405.00              865.16,1424.59 872.21,1450.99 875.57,1471.00              875.57,1471.00 880.00,1508.00 880.00,1508.00              880.00,1508.00 896.66,1458.00 896.66,1458.00              896.66,1458.00 924.12,1363.00 924.12,1363.00              936.95,1314.17 946.83,1263.89 954.58,1214.00              954.58,1214.00 959.72,1180.00 959.72,1180.00              959.72,1180.00 963.00,1156.00 963.00,1156.00              963.00,1156.00 1054.00,1156.00 1054.00,1156.00              1035.17,1256.04 1012.87,1355.96 978.69,1452.00              955.07,1518.39 926.08,1583.69 883.12,1640.00              855.71,1675.92 817.84,1709.84 773.00,1721.11              758.12,1724.84 748.12,1725.17 733.00,1725.00              721.81,1724.87 704.68,1720.35 694.00,1716.66              680.77,1712.08 680.02,1712.15 680.00,1703.00              680.00,1703.00 680.00,1659.00 680.00,1659.00              685.87,1660.43 704.71,1661.99 711.00,1662.00              741.45,1662.05 766.07,1658.20 788.96,1635.91              794.67,1630.35 800.36,1622.78 804.58,1616.00              811.61,1604.68 817.11,1587.42 815.83,1574.00              812.26,1536.54 789.73,1474.65 778.02,1437.00              778.02,1437.00 714.66,1239.00 714.66,1239.00              714.66,1239.00 688.00,1156.00 688.00,1156.00 Z            M 2360.00,1506.00            C 2360.00,1506.00 2416.00,1506.00 2416.00,1506.00              2416.00,1506.00 2416.00,1518.00 2416.00,1518.00              2416.00,1518.00 2396.00,1518.00 2396.00,1518.00              2396.00,1518.00 2396.00,1576.00 2396.00,1576.00              2396.00,1576.00 2380.00,1576.00 2380.00,1576.00              2380.00,1576.00 2380.00,1518.00 2380.00,1518.00              2380.00,1518.00 2360.00,1518.00 2360.00,1518.00              2360.00,1518.00 2360.00,1506.00 2360.00,1506.00 Z            M 2431.00,1506.00            C 2431.00,1506.00 2447.00,1506.00 2447.00,1506.00              2453.81,1506.12 2453.18,1506.96 2457.60,1518.00              2457.60,1518.00 2471.00,1551.00 2471.00,1551.00              2471.00,1551.00 2487.00,1506.00 2487.00,1506.00              2487.00,1506.00 2510.00,1506.00 2510.00,1506.00              2510.00,1506.00 2510.00,1576.00 2510.00,1576.00              2510.00,1576.00 2495.00,1576.00 2495.00,1576.00              2495.00,1576.00 2495.00,1545.00 2495.00,1545.00              2495.00,1545.00 2494.00,1527.00 2494.00,1527.00              2494.00,1527.00 2480.69,1564.00 2480.69,1564.00              2478.90,1569.03 2478.22,1575.43 2471.98,1575.94              2463.26,1576.66 2463.47,1572.63 2459.81,1563.00              2459.81,1563.00 2445.00,1524.00 2445.00,1524.00              2445.00,1524.00 2445.00,1576.00 2445.00,1576.00              2445.00,1576.00 2431.00,1576.00 2431.00,1576.00              2431.00,1576.00 2431.00,1506.00 2431.00,1506.00 Z" />
</svg>