<svg xmlns="http://www.w3.org/2000/svg" viewBox="49.54 49.45 2460.96 1676.09">
  <path id="mysql" fill="#303030" stroke="none" stroke-width="1"
    d="M 1786.00,663.00            C 1786.00,663.00 1780.08,697.00 1780.08,697.00              1775.93,722.11 1777.58,757.23 1748.00,766.78              1744.11,768.04 1740.09,768.89 1736.00,768.99              1712.23,769.53 1694.78,751.27 1682.34,733.00              1658.04,697.29 1647.84,653.56 1644.91,611.00              1644.91,611.00 1644.00,599.00 1644.00,599.00              1643.93,555.61 1645.92,534.06 1658.00,492.00              1658.00,492.00 1667.08,455.00 1667.08,455.00              1668.59,450.60 1673.25,443.22 1671.95,439.00              1669.92,432.38 1658.71,423.54 1654.04,417.00              1645.46,404.99 1632.56,381.61 1626.31,368.00              1614.51,342.31 1603.37,309.10 1594.08,282.00              1586.17,258.95 1589.47,254.36 1574.00,231.00              1574.00,231.00 1533.58,177.00 1533.58,177.00              1517.00,155.73 1501.68,133.00 1502.00,105.00              1502.28,81.47 1517.53,59.82 1540.00,52.52              1548.78,49.66 1557.90,49.90 1567.00,50.00              1599.50,50.38 1644.58,73.31 1672.00,90.00              1682.76,96.55 1699.14,113.02 1707.00,116.01              1710.60,117.38 1715.15,116.96 1719.00,117.00              1719.00,117.00 1729.00,118.00 1729.00,118.00              1729.00,118.00 1739.00,118.00 1739.00,118.00              1739.00,118.00 1753.00,119.00 1753.00,119.00              1760.62,119.09 1779.71,124.05 1788.00,126.13              1805.36,130.49 1822.79,135.62 1839.00,143.32              1839.00,143.32 1891.00,175.00 1891.00,175.00              1967.96,226.28 2022.68,275.20 2076.71,351.00              2088.02,366.87 2113.02,404.30 2120.69,421.00              2120.69,421.00 2141.42,471.00 2141.42,471.00              2141.42,471.00 2181.74,560.00 2181.74,560.00              2181.74,560.00 2200.69,598.00 2200.69,598.00              2209.93,615.08 2217.11,638.12 2229.46,653.00              2237.70,662.91 2245.44,662.55 2256.00,667.31              2256.00,667.31 2285.00,680.70 2285.00,680.70              2285.00,680.70 2311.00,692.27 2311.00,692.27              2328.80,701.17 2351.62,716.87 2368.00,728.58              2388.18,743.00 2408.15,757.99 2427.00,774.13              2449.66,793.54 2446.74,791.12 2464.66,814.00              2471.27,822.44 2475.96,823.95 2476.00,835.00              2476.00,835.00 2460.00,839.58 2460.00,839.58              2460.00,839.58 2433.00,846.39 2433.00,846.39              2433.00,846.39 2381.00,853.66 2381.00,853.66              2365.14,857.10 2344.07,865.26 2328.00,866.00              2331.35,871.81 2333.56,875.89 2338.17,881.00              2353.65,898.13 2387.13,913.85 2407.00,927.34              2425.22,939.72 2446.08,958.69 2460.83,975.00              2460.83,975.00 2478.29,996.00 2478.29,996.00              2478.29,996.00 2499.21,1017.04 2499.21,1017.04              2501.92,1020.67 2504.14,1026.72 2506.00,1031.00              2508.04,1035.68 2509.29,1036.78 2510.00,1042.00              2499.92,1039.04 2494.75,1030.82 2487.00,1024.46              2487.00,1024.46 2445.00,994.08 2445.00,994.08              2420.80,978.18 2393.37,968.44 2368.00,954.69              2355.18,947.74 2319.72,922.48 2309.00,912.83              2296.03,901.15 2281.56,882.24 2275.00,866.00              2272.93,860.89 2267.95,854.25 2269.89,849.00              2271.60,844.38 2275.67,842.30 2280.00,840.70              2280.00,840.70 2305.00,832.32 2305.00,832.32              2344.82,817.60 2387.04,816.00 2429.00,816.00              2421.17,800.04 2397.46,788.96 2383.00,778.98              2361.14,763.89 2335.92,743.90 2313.00,731.31              2297.77,722.94 2280.27,717.56 2264.00,711.42              2264.00,711.42 2218.00,696.40 2218.00,696.40              2211.01,693.56 2202.50,689.60 2197.46,683.91              2191.53,677.21 2183.62,664.03 2179.14,656.00              2167.40,634.96 2157.92,612.98 2148.14,591.00              2148.14,591.00 2101.86,491.00 2101.86,491.00              2101.86,491.00 2084.14,447.00 2084.14,447.00              2084.14,447.00 2078.78,437.00 2078.78,437.00              2067.09,414.86 2054.08,393.51 2039.72,373.00              1991.69,304.38 1926.63,241.75 1854.00,199.58              1830.51,185.94 1790.14,165.27 1764.00,159.42              1755.92,157.62 1748.18,157.47 1740.00,156.91              1740.00,156.91 1730.00,156.00 1730.00,156.00              1730.00,156.00 1711.00,154.72 1711.00,154.72              1705.41,154.00 1703.07,153.07 1697.00,153.00              1693.04,152.96 1688.76,153.37 1685.00,152.03              1675.81,148.76 1663.08,135.08 1654.00,128.72              1637.77,117.36 1613.52,105.81 1595.00,98.40              1580.94,92.77 1562.11,82.66 1547.00,89.16              1543.96,90.46 1541.62,91.50 1539.41,94.11              1528.27,107.28 1539.14,125.89 1546.61,138.00              1546.61,138.00 1569.12,168.00 1569.12,168.00              1585.23,189.12 1602.37,211.75 1613.30,236.00              1633.54,280.87 1640.47,329.30 1664.86,373.00              1668.81,380.08 1676.83,393.28 1682.09,399.00              1691.95,409.72 1705.12,419.05 1705.90,435.00              1706.18,440.84 1703.39,453.16 1701.71,459.00              1701.71,459.00 1684.42,509.00 1684.42,509.00              1677.79,532.83 1674.96,562.30 1675.00,587.00              1675.00,587.00 1676.04,599.00 1676.04,599.00              1676.04,599.00 1676.04,608.00 1676.04,608.00              1678.35,630.85 1682.48,656.62 1691.00,678.00              1697.10,693.30 1705.64,716.63 1720.00,725.74              1723.63,727.79 1729.97,731.82 1732.40,725.74              1732.40,725.74 1734.15,713.00 1734.15,713.00              1734.15,713.00 1737.15,687.00 1737.15,687.00              1740.55,658.57 1745.06,630.87 1762.00,607.00              1762.00,607.00 1778.58,586.00 1778.58,586.00              1780.17,583.98 1782.89,579.45 1785.94,580.34              1790.64,581.71 1793.15,594.64 1794.70,599.00              1794.70,599.00 1817.00,651.00 1817.00,651.00              1817.00,651.00 1845.72,706.00 1845.72,706.00              1863.82,737.85 1883.38,768.67 1905.37,798.00              1913.84,809.29 1926.85,824.27 1937.00,833.96              1942.52,839.23 1952.66,844.65 1955.00,852.00              1938.49,848.90 1921.62,826.24 1909.00,815.43              1909.00,815.43 1881.00,792.57 1881.00,792.57              1858.71,773.52 1835.46,749.11 1818.72,725.00              1818.72,725.00 1796.25,681.00 1796.25,681.00              1793.48,675.47 1790.25,667.25 1786.00,663.00 Z            M 1940.00,1654.00            C 1933.29,1651.88 1912.50,1638.78 1905.00,1634.42              1905.00,1634.42 1838.00,1595.40 1838.00,1595.40              1838.00,1595.40 1816.00,1582.58 1816.00,1582.58              1813.08,1580.88 1806.93,1576.87 1804.00,1576.14              1800.36,1575.23 1794.71,1577.24 1791.00,1578.12              1791.00,1578.12 1771.00,1581.73 1771.00,1581.73              1762.03,1583.05 1753.06,1583.96 1744.00,1584.00              1744.00,1584.00 1728.00,1584.99 1728.00,1584.99              1728.00,1584.99 1709.00,1584.00 1709.00,1584.00              1700.36,1583.99 1690.60,1582.51 1682.00,1581.27              1634.76,1574.46 1591.55,1554.55 1561.89,1516.00              1535.02,1481.08 1521.91,1437.92 1514.75,1395.00              1508.29,1356.24 1507.54,1317.22 1508.00,1278.00              1508.00,1278.00 1509.00,1265.00 1509.00,1265.00              1509.00,1265.00 1511.85,1231.00 1511.85,1231.00              1519.91,1163.53 1542.39,1094.42 1595.00,1048.29              1632.72,1015.21 1682.38,999.58 1732.00,999.00              1732.00,999.00 1745.00,998.09 1745.00,998.09              1745.00,998.09 1764.00,999.00 1764.00,999.00              1780.18,999.19 1803.36,1003.80 1819.00,1008.29              1834.75,1012.81 1850.01,1019.24 1864.00,1027.81              1953.24,1082.47 1965.15,1199.32 1965.00,1294.00              1965.00,1294.00 1964.00,1316.00 1964.00,1316.00              1964.00,1316.00 1963.09,1327.00 1963.09,1327.00              1961.41,1351.37 1958.12,1375.15 1952.65,1399.00              1941.07,1449.46 1915.14,1506.13 1873.00,1538.00              1873.00,1538.00 1951.00,1576.25 1951.00,1576.25              1951.00,1576.25 1970.00,1585.42 1970.00,1585.42              1972.08,1586.36 1975.27,1587.52 1975.44,1590.21              1975.60,1592.93 1968.05,1604.89 1966.28,1608.00              1966.28,1608.00 1940.00,1654.00 1940.00,1654.00 Z            M 1136.00,1481.00            C 1141.61,1482.05 1145.80,1484.76 1151.00,1487.00              1151.00,1487.00 1182.00,1499.66 1182.00,1499.66              1200.86,1506.20 1229.15,1513.97 1249.00,1514.00              1249.00,1514.00 1272.00,1514.00 1272.00,1514.00              1278.59,1513.92 1289.46,1512.13 1296.00,1510.65              1335.78,1501.65 1367.57,1475.13 1369.10,1432.17              1369.42,1423.22 1368.88,1417.62 1366.28,1409.00              1363.81,1400.82 1358.91,1391.86 1353.84,1385.00              1337.16,1362.39 1312.14,1347.95 1288.00,1334.70              1288.00,1334.70 1221.00,1296.85 1221.00,1296.85              1221.00,1296.85 1183.00,1274.80 1183.00,1274.80              1157.91,1257.41 1136.13,1233.35 1126.35,1204.00              1120.42,1186.18 1118.79,1166.67 1119.00,1148.00              1119.00,1148.00 1119.83,1139.00 1119.83,1139.00              1121.49,1121.87 1123.52,1110.24 1129.81,1094.00              1134.37,1082.22 1141.64,1069.78 1149.61,1060.00              1179.91,1022.84 1222.06,1004.64 1269.00,1000.04              1269.00,1000.04 1277.00,1000.04 1277.00,1000.04              1277.00,1000.04 1287.00,999.00 1287.00,999.00              1315.52,998.67 1345.72,1002.55 1373.00,1011.02              1383.75,1014.37 1403.25,1022.07 1413.00,1027.31              1413.00,1027.31 1437.00,1041.00 1437.00,1041.00              1437.00,1041.00 1415.00,1091.00 1415.00,1091.00              1409.87,1090.04 1403.16,1086.94 1398.00,1085.05              1398.00,1085.05 1369.00,1075.88 1369.00,1075.88              1342.40,1068.90 1322.20,1067.69 1295.00,1068.00              1254.25,1068.48 1212.03,1099.55 1213.01,1143.00              1214.23,1196.51 1273.88,1224.59 1314.00,1246.86              1314.00,1246.86 1372.00,1279.72 1372.00,1279.72              1372.00,1279.72 1404.00,1298.08 1404.00,1298.08              1426.52,1312.87 1449.33,1336.77 1459.55,1362.00              1469.19,1385.81 1469.29,1404.98 1469.00,1430.00              1468.85,1442.45 1464.96,1460.14 1461.00,1472.00              1456.95,1484.15 1452.60,1493.16 1445.77,1504.00              1411.80,1557.94 1351.03,1580.38 1290.00,1583.04              1290.00,1583.04 1277.00,1584.00 1277.00,1584.00              1277.00,1584.00 1271.00,1584.00 1271.00,1584.00              1271.00,1584.00 1261.00,1583.00 1261.00,1583.00              1261.00,1583.00 1253.00,1583.00 1253.00,1583.00              1242.77,1582.21 1232.06,1580.56 1222.00,1578.55              1197.59,1573.67 1173.25,1564.86 1151.00,1553.73              1151.00,1553.73 1112.00,1531.00 1112.00,1531.00              1112.00,1531.00 1136.00,1481.00 1136.00,1481.00 Z            M 92.00,1007.00            C 92.00,1007.00 211.00,1007.00 211.00,1007.00              211.00,1007.00 219.66,1034.00 219.66,1034.00              219.66,1034.00 238.66,1092.00 238.66,1092.00              238.66,1092.00 294.33,1262.00 294.33,1262.00              294.33,1262.00 330.67,1373.00 330.67,1373.00              330.67,1373.00 348.00,1424.00 348.00,1424.00              348.00,1424.00 357.98,1392.00 357.98,1392.00              357.98,1392.00 383.67,1314.00 383.67,1314.00              383.67,1314.00 453.00,1103.00 453.00,1103.00              453.00,1103.00 477.33,1030.00 477.33,1030.00              477.33,1030.00 482.14,1015.00 482.14,1015.00              482.14,1015.00 485.51,1008.02 485.51,1008.02              485.51,1008.02 493.00,1007.00 493.00,1007.00              493.00,1007.00 599.00,1007.00 599.00,1007.00              599.00,1007.00 605.84,1070.00 605.84,1070.00              605.84,1070.00 617.83,1186.00 617.83,1186.00              617.83,1186.00 629.09,1323.00 629.09,1323.00              629.09,1323.00 630.91,1343.00 630.91,1343.00              630.91,1343.00 633.09,1381.00 633.09,1381.00              633.09,1381.00 635.00,1409.00 635.00,1409.00              635.00,1409.00 637.00,1447.00 637.00,1447.00              637.00,1447.00 638.00,1464.00 638.00,1464.00              638.00,1464.00 639.00,1484.00 639.00,1484.00              639.00,1484.00 640.04,1507.00 640.04,1507.00              640.04,1507.00 640.04,1520.00 640.04,1520.00              640.04,1520.00 641.00,1532.00 641.00,1532.00              641.00,1532.00 642.00,1576.00 642.00,1576.00              642.00,1576.00 546.00,1576.00 546.00,1576.00              546.00,1576.00 545.00,1518.00 545.00,1518.00              545.00,1518.00 544.00,1501.00 544.00,1501.00              544.00,1501.00 543.00,1460.00 543.00,1460.00              543.00,1460.00 542.00,1445.00 542.00,1445.00              542.00,1445.00 541.00,1425.00 541.00,1425.00              541.00,1425.00 540.00,1396.00 540.00,1396.00              540.00,1396.00 539.04,1386.00 539.04,1386.00              539.04,1386.00 539.04,1378.00 539.04,1378.00              539.04,1378.00 538.00,1360.00 538.00,1360.00              538.00,1360.00 536.09,1334.00 536.09,1334.00              536.09,1334.00 534.91,1310.00 534.91,1310.00              534.91,1310.00 532.09,1275.00 532.09,1275.00              532.09,1275.00 523.17,1170.00 523.17,1170.00              523.17,1170.00 518.00,1124.00 518.00,1124.00              518.00,1124.00 506.72,1161.00 506.72,1161.00              506.72,1161.00 477.67,1252.00 477.67,1252.00              477.67,1252.00 408.00,1471.00 408.00,1471.00              408.00,1471.00 382.34,1551.00 382.34,1551.00              382.34,1551.00 377.00,1568.00 377.00,1568.00              377.00,1568.00 373.49,1574.98 373.49,1574.98              373.49,1574.98 368.00,1576.00 368.00,1576.00              368.00,1576.00 309.00,1576.00 309.00,1576.00              309.00,1576.00 301.70,1575.01 301.70,1575.01              301.70,1575.01 298.33,1568.00 298.33,1568.00              298.33,1568.00 293.00,1551.00 293.00,1551.00              293.00,1551.00 267.33,1470.00 267.33,1470.00              267.33,1470.00 235.98,1371.00 235.98,1371.00              235.98,1371.00 193.02,1236.00 193.02,1236.00              193.02,1236.00 172.72,1172.00 172.72,1172.00              172.72,1172.00 157.00,1124.00 157.00,1124.00              157.00,1124.00 155.09,1155.00 155.09,1155.00              155.09,1155.00 152.00,1198.00 152.00,1198.00              152.00,1198.00 152.00,1207.00 152.00,1207.00              152.00,1207.00 149.00,1254.00 149.00,1254.00              149.00,1254.00 148.00,1270.00 148.00,1270.00              148.00,1270.00 147.00,1285.00 147.00,1285.00              147.00,1285.00 146.00,1313.00 146.00,1313.00              146.00,1313.00 145.04,1323.00 145.04,1323.00              145.04,1323.00 145.04,1333.00 145.04,1333.00              145.04,1333.00 143.96,1348.00 143.96,1348.00              143.96,1348.00 143.96,1361.00 143.96,1361.00              143.96,1361.00 142.96,1373.00 142.96,1373.00              142.96,1373.00 142.96,1385.00 142.96,1385.00              142.96,1385.00 142.00,1395.00 142.00,1395.00              142.00,1395.00 142.00,1411.00 142.00,1411.00              142.00,1411.00 141.00,1426.00 141.00,1426.00              141.00,1426.00 141.00,1440.00 141.00,1440.00              141.00,1440.00 140.00,1456.00 140.00,1456.00              140.00,1456.00 139.00,1514.00 139.00,1514.00              139.00,1514.00 138.00,1531.00 138.00,1531.00              138.00,1531.00 137.00,1576.00 137.00,1576.00              137.00,1576.00 50.04,1576.00 50.04,1576.00              50.04,1576.00 50.04,1560.00 50.04,1560.00              50.04,1560.00 51.00,1548.00 51.00,1548.00              51.00,1548.00 52.00,1506.00 52.00,1506.00              52.00,1506.00 52.96,1494.00 52.96,1494.00              52.96,1494.00 52.96,1481.00 52.96,1481.00              52.96,1481.00 54.00,1465.00 54.00,1465.00              54.00,1465.00 55.00,1443.00 55.00,1443.00              55.00,1443.00 57.00,1398.00 57.00,1398.00              57.00,1398.00 59.00,1368.00 59.00,1368.00              59.00,1368.00 60.91,1338.00 60.91,1338.00              60.91,1338.00 64.09,1286.00 64.09,1286.00              64.09,1286.00 66.91,1253.00 66.91,1253.00              70.58,1199.59 76.14,1146.27 81.84,1093.00              81.84,1093.00 88.85,1032.00 88.85,1032.00              88.85,1032.00 92.00,1007.00 92.00,1007.00 Z            M 2046.00,1007.00            C 2046.00,1007.00 2138.00,1007.00 2138.00,1007.00              2138.00,1007.00 2138.00,1505.00 2138.00,1505.00              2138.00,1505.00 2317.00,1505.00 2317.00,1505.00              2317.00,1505.00 2317.00,1576.00 2317.00,1576.00              2317.00,1576.00 2046.00,1576.00 2046.00,1576.00              2046.00,1576.00 2046.00,1007.00 2046.00,1007.00 Z            M 1727.00,1069.28            C 1707.63,1072.07 1696.04,1072.54 1678.00,1082.31              1648.37,1098.36 1631.38,1126.90 1621.00,1158.00              1612.59,1183.22 1608.68,1209.63 1606.04,1236.00              1606.04,1236.00 1606.04,1245.00 1606.04,1245.00              1606.04,1245.00 1605.00,1257.00 1605.00,1257.00              1605.00,1257.00 1605.00,1314.00 1605.00,1314.00              1605.00,1314.00 1606.00,1326.00 1606.00,1326.00              1606.00,1326.00 1606.00,1335.00 1606.00,1335.00              1607.39,1354.00 1609.84,1373.31 1613.60,1392.00              1623.85,1442.95 1645.70,1494.20 1701.00,1508.37              1710.05,1510.69 1723.72,1512.89 1733.00,1513.00              1748.46,1513.18 1761.09,1511.95 1776.00,1507.58              1811.84,1497.06 1834.11,1468.48 1847.40,1435.00              1867.70,1383.85 1868.63,1326.28 1868.00,1272.00              1868.00,1272.00 1867.00,1254.00 1867.00,1254.00              1867.00,1254.00 1866.09,1244.00 1866.09,1244.00              1864.09,1215.42 1860.10,1186.29 1851.00,1159.00              1843.95,1137.86 1835.36,1118.53 1819.91,1102.00              1799.54,1080.20 1774.64,1072.61 1746.00,1069.83              1739.12,1069.17 1734.01,1068.63 1727.00,1069.28 Z            M 688.00,1156.00            C 688.00,1156.00 783.00,1156.00 783.00,1156.00              783.00,1156.00 791.28,1184.00 791.28,1184.00              791.28,1184.00 811.98,1251.00 811.98,1251.00              811.98,1251.00 859.28,1405.00 859.28,1405.00              865.16,1424.59 872.21,1450.99 875.57,1471.00              875.57,1471.00 880.00,1508.00 880.00,1508.00              880.00,1508.00 896.66,1458.00 896.66,1458.00              896.66,1458.00 924.12,1363.00 924.12,1363.00              936.95,1314.17 946.83,1263.89 954.58,1214.00              954.58,1214.00 959.72,1180.00 959.72,1180.00              959.72,1180.00 963.00,1156.00 963.00,1156.00              963.00,1156.00 1054.00,1156.00 1054.00,1156.00              1035.17,1256.04 1012.87,1355.96 978.69,1452.00              955.07,1518.39 926.08,1583.69 883.12,1640.00              855.71,1675.92 817.84,1709.84 773.00,1721.11              758.12,1724.84 748.12,1725.17 733.00,1725.00              721.81,1724.87 704.68,1720.35 694.00,1716.66              680.77,1712.08 680.02,1712.15 680.00,1703.00              680.00,1703.00 680.00,1659.00 680.00,1659.00              685.87,1660.43 704.71,1661.99 711.00,1662.00              741.45,1662.05 766.07,1658.20 788.96,1635.91              794.67,1630.35 800.36,1622.78 804.58,1616.00              811.61,1604.68 817.11,1587.42 815.83,1574.00              812.26,1536.54 789.73,1474.65 778.02,1437.00              778.02,1437.00 714.66,1239.00 714.66,1239.00              714.66,1239.00 688.00,1156.00 688.00,1156.00 Z            M 2360.00,1506.00            C 2360.00,1506.00 2416.00,1506.00 2416.00,1506.00              2416.00,1506.00 2416.00,1518.00 2416.00,1518.00              2416.00,1518.00 2396.00,1518.00 2396.00,1518.00              2396.00,1518.00 2396.00,1576.00 2396.00,1576.00              2396.00,1576.00 2380.00,1576.00 2380.00,1576.00              2380.00,1576.00 2380.00,1518.00 2380.00,1518.00              2380.00,1518.00 2360.00,1518.00 2360.00,1518.00              2360.00,1518.00 2360.00,1506.00 2360.00,1506.00 Z            M 2431.00,1506.00            C 2431.00,1506.00 2447.00,1506.00 2447.00,1506.00              2453.81,1506.12 2453.18,1506.96 2457.60,1518.00              2457.60,1518.00 2471.00,1551.00 2471.00,1551.00              2471.00,1551.00 2487.00,1506.00 2487.00,1506.00              2487.00,1506.00 2510.00,1506.00 2510.00,1506.00              2510.00,1506.00 2510.00,1576.00 2510.00,1576.00              2510.00,1576.00 2495.00,1576.00 2495.00,1576.00              2495.00,1576.00 2495.00,1545.00 2495.00,1545.00              2495.00,1545.00 2494.00,1527.00 2494.00,1527.00              2494.00,1527.00 2480.69,1564.00 2480.69,1564.00              2478.90,1569.03 2478.22,1575.43 2471.98,1575.94              2463.26,1576.66 2463.47,1572.63 2459.81,1563.00              2459.81,1563.00 2445.00,1524.00 2445.00,1524.00              2445.00,1524.00 2445.00,1576.00 2445.00,1576.00              2445.00,1576.00 2431.00,1576.00 2431.00,1576.00              2431.00,1576.00 2431.00,1506.00 2431.00,1506.00 Z" />
</svg>