<svg xmlns="http://www.w3.org/2000/svg" viewBox="1501.5 49.45 1009 993.05">
  <path id="Selection" fill="#303030" stroke="none" stroke-width="1" d="M 1786.00,663.00            C 1786.00,663.00 1780.08,697.00 1780.08,697.00              1775.93,722.11 1777.58,757.23 1748.00,766.78              1744.11,768.04 1740.09,768.89 1736.00,768.99              1712.23,769.53 1694.78,751.27 1682.34,733.00              1658.04,697.29 1647.84,653.56 1644.91,611.00              1644.91,611.00 1644.00,599.00 1644.00,599.00              1643.93,555.61 1645.92,534.06 1658.00,492.00              1658.00,492.00 1667.08,455.00 1667.08,455.00              1668.59,450.60 1673.25,443.22 1671.95,439.00              1669.92,432.38 1658.71,423.54 1654.04,417.00              1645.46,404.99 1632.56,381.61 1626.31,368.00              1614.51,342.31 1603.37,309.10 1594.08,282.00              1586.17,258.95 1589.47,254.36 1574.00,231.00              1574.00,231.00 1533.58,177.00 1533.58,177.00              1517.00,155.73 1501.68,133.00 1502.00,105.00              1502.28,81.47 1517.53,59.82 1540.00,52.52              1548.78,49.66 1557.90,49.90 1567.00,50.00              1599.50,50.38 1644.58,73.31 1672.00,90.00              1682.76,96.55 1699.14,113.02 1707.00,116.01              1710.60,117.38 1715.15,116.96 1719.00,117.00              1719.00,117.00 1729.00,118.00 1729.00,118.00              1729.00,118.00 1739.00,118.00 1739.00,118.00              1739.00,118.00 1753.00,119.00 1753.00,119.00              1760.62,119.09 1779.71,124.05 1788.00,126.13              1805.36,130.49 1822.79,135.62 1839.00,143.32              1839.00,143.32 1891.00,175.00 1891.00,175.00              1967.96,226.28 2022.68,275.20 2076.71,351.00              2088.02,366.87 2113.02,404.30 2120.69,421.00              2120.69,421.00 2141.42,471.00 2141.42,471.00              2141.42,471.00 2181.74,560.00 2181.74,560.00              2181.74,560.00 2200.69,598.00 2200.69,598.00              2209.93,615.08 2217.11,638.12 2229.46,653.00              2237.70,662.91 2245.44,662.55 2256.00,667.31              2256.00,667.31 2285.00,680.70 2285.00,680.70              2285.00,680.70 2311.00,692.27 2311.00,692.27              2328.80,701.17 2351.62,716.87 2368.00,728.58              2388.18,743.00 2408.15,757.99 2427.00,774.13              2449.66,793.54 2446.74,791.12 2464.66,814.00              2471.27,822.44 2475.96,823.95 2476.00,835.00              2476.00,835.00 2460.00,839.58 2460.00,839.58              2460.00,839.58 2433.00,846.39 2433.00,846.39              2433.00,846.39 2381.00,853.66 2381.00,853.66              2365.14,857.10 2344.07,865.26 2328.00,866.00              2331.35,871.81 2333.56,875.89 2338.17,881.00              2353.65,898.13 2387.13,913.85 2407.00,927.34              2425.22,939.72 2446.08,958.69 2460.83,975.00              2460.83,975.00 2478.29,996.00 2478.29,996.00              2478.29,996.00 2499.21,1017.04 2499.21,1017.04              2501.92,1020.67 2504.14,1026.72 2506.00,1031.00              2508.04,1035.68 2509.29,1036.78 2510.00,1042.00              2499.92,1039.04 2494.75,1030.82 2487.00,1024.46              2487.00,1024.46 2445.00,994.08 2445.00,994.08              2420.80,978.18 2393.37,968.44 2368.00,954.69              2355.18,947.74 2319.72,922.48 2309.00,912.83              2296.03,901.15 2281.56,882.24 2275.00,866.00              2272.93,860.89 2267.95,854.25 2269.89,849.00              2271.60,844.38 2275.67,842.30 2280.00,840.70              2280.00,840.70 2305.00,832.32 2305.00,832.32              2344.82,817.60 2387.04,816.00 2429.00,816.00              2421.17,800.04 2397.46,788.96 2383.00,778.98              2361.14,763.89 2335.92,743.90 2313.00,731.31              2297.77,722.94 2280.27,717.56 2264.00,711.42              2264.00,711.42 2218.00,696.40 2218.00,696.40              2211.01,693.56 2202.50,689.60 2197.46,683.91              2191.53,677.21 2183.62,664.03 2179.14,656.00              2167.40,634.96 2157.92,612.98 2148.14,591.00              2148.14,591.00 2101.86,491.00 2101.86,491.00              2101.86,491.00 2084.14,447.00 2084.14,447.00              2084.14,447.00 2078.78,437.00 2078.78,437.00              2067.09,414.86 2054.08,393.51 2039.72,373.00              1991.69,304.38 1926.63,241.75 1854.00,199.58              1830.51,185.94 1790.14,165.27 1764.00,159.42              1755.92,157.62 1748.18,157.47 1740.00,156.91              1740.00,156.91 1730.00,156.00 1730.00,156.00              1730.00,156.00 1711.00,154.72 1711.00,154.72              1705.41,154.00 1703.07,153.07 1697.00,153.00              1693.04,152.96 1688.76,153.37 1685.00,152.03              1675.81,148.76 1663.08,135.08 1654.00,128.72              1637.77,117.36 1613.52,105.81 1595.00,98.40              1580.94,92.77 1562.11,82.66 1547.00,89.16              1543.96,90.46 1541.62,91.50 1539.41,94.11              1528.27,107.28 1539.14,125.89 1546.61,138.00              1546.61,138.00 1569.12,168.00 1569.12,168.00              1585.23,189.12 1602.37,211.75 1613.30,236.00              1633.54,280.87 1640.47,329.30 1664.86,373.00              1668.81,380.08 1676.83,393.28 1682.09,399.00              1691.95,409.72 1705.12,419.05 1705.90,435.00              1706.18,440.84 1703.39,453.16 1701.71,459.00              1701.71,459.00 1684.42,509.00 1684.42,509.00              1677.79,532.83 1674.96,562.30 1675.00,587.00              1675.00,587.00 1676.04,599.00 1676.04,599.00              1676.04,599.00 1676.04,608.00 1676.04,608.00              1678.35,630.85 1682.48,656.62 1691.00,678.00              1697.10,693.30 1705.64,716.63 1720.00,725.74              1723.63,727.79 1729.97,731.82 1732.40,725.74              1732.40,725.74 1734.15,713.00 1734.15,713.00              1734.15,713.00 1737.15,687.00 1737.15,687.00              1740.55,658.57 1745.06,630.87 1762.00,607.00              1762.00,607.00 1778.58,586.00 1778.58,586.00              1780.17,583.98 1782.89,579.45 1785.94,580.34              1790.64,581.71 1793.15,594.64 1794.70,599.00              1794.70,599.00 1817.00,651.00 1817.00,651.00              1817.00,651.00 1845.72,706.00 1845.72,706.00              1863.82,737.85 1883.38,768.67 1905.37,798.00              1913.84,809.29 1926.85,824.27 1937.00,833.96              1942.52,839.23 1952.66,844.65 1955.00,852.00              1938.49,848.90 1921.62,826.24 1909.00,815.43              1909.00,815.43 1881.00,792.57 1881.00,792.57              1858.71,773.52 1835.46,749.11 1818.72,725.00              1818.72,725.00 1796.25,681.00 1796.25,681.00              1793.48,675.47 1790.25,667.25 1786.00,663.00 Z"/>
</svg>