<svg xmlns="http://www.w3.org/2000/svg" viewBox="-0.5 -0.51 1281 359.01">
  <path id="nasa-worm" fill="#303030" stroke="none" stroke-width="1"
    d="M 0.00,350.00            C 0.00,350.00 0.00,78.00 0.00,78.00              0.02,67.95 2.15,54.16 6.31,45.00              19.59,15.76 51.84,0.05 83.00,0.00              83.00,0.00 98.00,0.00 98.00,0.00              117.22,0.03 139.76,8.16 153.99,21.17              173.00,38.57 179.76,66.03 186.42,90.00              186.42,90.00 203.88,156.00 203.88,156.00              203.88,156.00 220.13,217.00 220.13,217.00              220.13,217.00 229.13,251.00 229.13,251.00              230.92,258.18 233.41,268.90 237.39,275.00              243.97,285.07 258.62,287.91 266.58,277.96              270.55,273.00 270.99,266.07 271.00,260.00              271.00,260.00 271.00,8.00 271.00,8.00              271.00,8.00 345.00,8.00 345.00,8.00              345.00,8.00 345.00,279.00 345.00,279.00              344.99,287.44 343.13,300.07 340.30,308.00              327.27,344.51 287.71,358.41 252.00,358.00              244.57,357.91 232.24,356.03 225.00,354.12              218.56,352.42 210.77,349.42 205.00,346.13              195.30,340.60 186.87,333.15 180.44,324.00              167.18,305.13 159.09,269.72 153.12,247.00              153.12,247.00 129.85,159.00 129.85,159.00              129.85,159.00 110.94,89.00 110.94,89.00              107.57,80.17 100.26,72.18 90.00,73.20              76.83,74.50 74.02,85.89 74.00,97.00              74.00,97.00 74.00,350.00 74.00,350.00              74.00,350.00 0.00,350.00 0.00,350.00 Z            M 335.00,350.00            C 335.00,350.00 348.33,307.00 348.33,307.00              348.33,307.00 371.98,233.00 371.98,233.00              371.98,233.00 410.66,112.00 410.66,112.00              410.66,112.00 431.01,49.00 431.01,49.00              443.42,19.08 468.03,0.05 501.00,0.00              525.67,-0.04 544.59,-0.26 565.00,16.46              585.48,33.24 589.47,53.41 597.33,77.00              597.33,77.00 618.34,143.00 618.34,143.00              618.34,143.00 632.58,187.00 632.58,187.00              632.58,187.00 654.66,256.00 654.66,256.00              656.02,260.26 659.08,273.76 662.42,275.98              664.29,277.22 667.79,277.00 670.00,277.00              670.00,277.00 835.00,277.00 835.00,277.00              835.00,277.00 845.00,275.89 845.00,275.89              845.00,275.89 853.00,275.89 853.00,275.89              865.03,273.97 872.70,266.61 875.84,255.00              876.94,250.96 877.08,248.15 876.99,244.00              876.51,223.17 858.33,215.22 840.00,215.00              840.00,215.00 765.00,215.00 765.00,215.00              765.00,215.00 747.00,214.00 747.00,214.00              723.20,213.72 696.64,205.09 679.01,188.83              665.21,176.10 656.26,156.20 652.60,138.00              644.08,95.65 654.97,53.33 691.00,26.92              718.50,6.77 751.77,8.00 784.00,8.00              784.00,8.00 934.00,8.00 934.00,8.00              934.00,8.00 934.00,81.00 934.00,81.00              934.00,81.00 754.00,81.00 754.00,81.00              733.46,81.24 722.77,92.69 723.00,113.00              723.20,130.58 734.71,139.01 751.00,141.56              751.00,141.56 759.00,142.09 759.00,142.09              759.00,142.09 769.00,143.00 769.00,143.00              769.00,143.00 790.00,143.00 790.00,143.00              790.00,143.00 847.00,143.00 847.00,143.00              870.46,143.04 898.91,149.82 917.00,165.30              938.65,183.83 949.67,213.87 950.00,242.00              950.26,264.42 945.67,287.41 932.56,306.00              912.14,334.96 887.22,345.57 853.00,348.96              853.00,348.96 844.00,348.96 844.00,348.96              844.00,348.96 832.00,350.00 832.00,350.00              832.00,350.00 615.00,350.00 615.00,350.00              612.52,350.00 608.90,350.42 607.08,348.43              605.45,346.64 602.98,336.97 602.00,334.00              602.00,334.00 590.67,299.00 590.67,299.00              590.67,299.00 537.33,132.00 537.33,132.00              537.33,132.00 521.99,84.00 521.99,84.00              519.50,77.08 515.17,71.56 507.00,73.39              497.45,75.53 495.89,88.16 493.33,96.00              493.33,96.00 470.98,166.00 470.98,166.00              470.98,166.00 439.66,264.00 439.66,264.00              439.66,264.00 425.86,307.00 425.86,307.00              425.86,307.00 416.00,338.00 416.00,338.00              415.16,340.55 413.28,347.52 411.30,349.01              409.63,350.26 406.04,350.00 404.00,350.00              404.00,350.00 335.00,350.00 335.00,350.00 Z            M 932.00,350.00            C 933.01,343.46 935.72,337.33 937.58,331.00              937.58,331.00 952.98,283.00 952.98,283.00              952.98,283.00 985.34,181.00 985.34,181.00              985.34,181.00 999.28,138.00 999.28,138.00              999.28,138.00 1020.67,71.00 1020.67,71.00              1025.88,55.30 1029.62,40.23 1040.46,27.00              1054.53,9.83 1075.87,0.03 1098.00,0.00              1098.00,0.00 1117.00,0.00 1117.00,0.00              1138.94,0.26 1160.92,11.58 1174.10,29.00              1178.03,34.19 1180.99,40.09 1183.69,46.00              1183.69,46.00 1207.02,117.00 1207.02,117.00              1207.02,117.00 1227.66,181.00 1227.66,181.00              1227.66,181.00 1246.33,240.00 1246.33,240.00              1246.33,240.00 1268.67,310.00 1268.67,310.00              1271.85,319.76 1279.79,340.78 1280.00,350.00              1280.00,350.00 1212.00,350.00 1212.00,350.00              1209.96,350.00 1206.37,350.26 1204.70,349.01              1202.74,347.54 1200.81,340.52 1200.02,338.00              1200.02,338.00 1191.28,310.00 1191.28,310.00              1191.28,310.00 1177.02,266.00 1177.02,266.00              1177.02,266.00 1148.67,177.00 1148.67,177.00              1148.67,177.00 1136.66,139.00 1136.66,139.00              1136.66,139.00 1122.86,96.00 1122.86,96.00              1120.27,87.00 1117.23,71.75 1105.00,73.14              1094.60,74.32 1092.53,88.78 1089.98,97.00              1089.98,97.00 1066.33,171.00 1066.33,171.00              1066.33,171.00 1022.34,308.00 1022.34,308.00              1022.34,308.00 1013.28,337.00 1013.28,337.00              1012.48,339.66 1010.33,347.49 1008.30,349.01              1006.63,350.26 1003.04,350.00 1001.00,350.00              1001.00,350.00 932.00,350.00 932.00,350.00 Z" />
</svg>