<svg xmlns="http://www.w3.org/2000/svg" viewBox="882.5 179.5 1635.54 1340.06">
  <path id="nasa" fill="#303030" stroke="none" stroke-width="1"
    d="M 989.00,995.00            C 989.00,995.00 981.59,958.00 981.59,958.00              981.59,958.00 974.91,899.00 974.91,899.00              974.91,899.00 974.00,889.00 974.00,889.00              974.00,889.00 973.00,868.00 973.00,868.00              973.00,868.00 973.00,831.00 973.00,831.00              973.00,831.00 974.00,810.00 974.00,810.00              974.00,810.00 974.91,800.00 974.91,800.00              974.91,800.00 978.72,761.00 978.72,761.00              984.36,717.76 994.03,674.23 1008.34,633.00              1066.16,466.41 1183.93,329.79 1342.00,250.75              1370.72,236.39 1400.44,223.64 1431.00,213.67              1471.04,200.61 1512.23,191.17 1554.00,185.72              1554.00,185.72 1593.00,181.91 1593.00,181.91              1593.00,181.91 1603.00,181.00 1603.00,181.00              1603.00,181.00 1624.00,180.00 1624.00,180.00              1624.00,180.00 1661.00,180.00 1661.00,180.00              1661.00,180.00 1682.00,181.00 1682.00,181.00              1682.00,181.00 1692.00,181.91 1692.00,181.91              1719.61,183.81 1746.82,187.37 1774.00,192.80              1880.24,214.05 1982.32,261.10 2066.00,330.25              2109.39,366.10 2145.08,402.94 2178.87,448.00              2178.87,448.00 2203.33,483.00 2203.33,483.00              2205.15,485.73 2209.82,494.55 2213.10,494.71              2215.48,494.82 2219.96,491.49 2222.00,490.18              2222.00,490.18 2234.96,482.76 2234.96,482.76              2234.96,482.76 2241.17,477.77 2241.17,477.77              2241.17,477.77 2269.00,460.83 2269.00,460.83              2269.00,460.83 2293.00,444.54 2293.00,444.54              2293.00,444.54 2336.00,412.24 2336.00,412.24              2336.00,412.24 2358.00,395.54 2358.00,395.54              2358.00,395.54 2386.00,371.43 2386.00,371.43              2386.00,371.43 2404.83,355.72 2404.83,355.72              2404.83,355.72 2412.17,348.25 2412.17,348.25              2412.17,348.25 2426.00,335.96 2426.00,335.96              2426.00,335.96 2458.09,303.04 2458.09,303.04              2458.09,303.04 2464.56,296.83 2464.56,296.83              2464.56,296.83 2503.72,252.00 2503.72,252.00              2503.72,252.00 2515.00,238.00 2515.00,238.00              2512.48,247.38 2494.43,265.51 2487.46,274.00              2487.46,274.00 2459.09,305.01 2459.09,305.01              2440.17,324.93 2420.84,344.29 2400.00,362.17              2400.00,362.17 2360.00,396.54 2360.00,396.54              2360.00,396.54 2325.00,423.23 2325.00,423.23              2325.00,423.23 2309.00,435.36 2309.00,435.36              2309.00,435.36 2301.00,441.78 2301.00,441.78              2301.00,441.78 2258.00,469.94 2258.00,469.94              2258.00,469.94 2245.01,477.46 2245.01,477.46              2245.01,477.46 2235.96,484.38 2235.96,484.38              2235.96,484.38 2227.00,489.33 2227.00,489.33              2227.00,489.33 2217.00,495.56 2217.00,495.56              2217.00,495.56 2208.00,499.89 2208.00,499.89              2208.00,499.89 2195.00,507.42 2195.00,507.42              2127.59,546.55 2058.96,579.31 1988.00,611.30              1988.00,611.30 1861.00,665.20 1861.00,665.20              1861.00,665.20 1829.00,678.00 1829.00,678.00              1825.84,679.26 1818.11,682.99 1815.01,682.22              1811.90,681.44 1809.16,677.41 1807.20,675.00              1807.20,675.00 1792.85,658.00 1792.85,658.00              1792.85,658.00 1757.91,619.00 1757.91,619.00              1757.91,619.00 1740.01,601.00 1740.01,601.00              1740.01,601.00 1731.91,592.17 1731.91,592.17              1668.48,530.57 1599.03,471.52 1518.00,434.31              1490.98,421.90 1448.76,407.05 1419.00,407.00              1419.00,407.00 1403.00,407.00 1403.00,407.00              1394.99,407.10 1382.71,409.64 1375.00,412.02              1367.43,414.37 1358.66,418.42 1352.00,422.70              1320.81,442.75 1307.76,477.47 1304.92,513.00              1304.92,513.00 1304.00,525.00 1304.00,525.00              1304.00,525.00 1304.00,547.00 1304.00,547.00              1304.00,547.00 1304.91,557.00 1304.91,557.00              1307.04,586.14 1313.23,614.95 1321.29,643.00              1337.27,698.60 1358.79,747.71 1385.26,799.00              1385.26,799.00 1400.00,826.00 1400.00,826.00              1400.00,826.00 1367.00,837.31 1367.00,837.31              1367.00,837.31 1314.00,856.00 1314.00,856.00              1314.00,856.00 1314.00,786.00 1314.00,786.00              1314.00,759.69 1311.30,740.80 1334.00,722.00              1334.00,722.00 1257.00,722.00 1257.00,722.00              1257.00,722.00 1264.91,729.09 1264.91,729.09              1274.08,738.17 1279.98,747.96 1280.00,761.00              1280.00,761.00 1280.00,869.00 1280.00,869.00              1280.00,869.00 1274.00,871.00 1274.00,871.00              1274.00,871.00 1250.01,830.00 1250.01,830.00              1250.01,830.00 1207.01,757.00 1207.01,757.00              1207.01,757.00 1193.42,734.00 1193.42,734.00              1193.42,734.00 1185.79,723.02 1185.79,723.02              1185.79,723.02 1178.00,722.00 1178.00,722.00              1178.00,722.00 1075.00,722.00 1075.00,722.00              1075.00,722.00 1088.71,735.09 1088.71,735.09              1098.08,745.13 1100.98,753.50 1101.00,767.00              1101.00,767.00 1101.00,933.00 1101.00,933.00              1100.98,943.04 1099.89,942.00 1086.00,948.14              1086.00,948.14 1049.00,965.25 1049.00,965.25              1049.00,965.25 996.00,991.26 996.00,991.26              996.00,991.26 983.00,999.70 983.00,999.70              983.00,999.70 952.00,1015.95 952.00,1015.95              952.00,1015.95 933.00,1027.14 933.00,1027.14              933.00,1027.14 915.00,1037.06 915.00,1037.06              904.72,1043.41 894.93,1050.82 884.00,1056.00              887.42,1057.45 896.95,1062.30 900.00,1062.23              903.90,1062.15 913.83,1054.75 918.00,1052.48              918.00,1052.48 963.00,1029.42 963.00,1029.42              963.00,1029.42 990.00,1016.35 990.00,1016.35              990.00,1016.35 998.00,1013.65 998.00,1013.65              998.00,1013.65 1015.00,1005.86 1015.00,1005.86              1015.00,1005.86 1056.00,988.80 1056.00,988.80              1068.76,983.70 1089.78,974.02 1103.00,974.00              1103.00,974.00 1140.00,974.00 1140.00,974.00              1146.23,974.00 1154.11,974.67 1160.00,973.00              1153.70,969.62 1147.62,964.18 1144.00,958.00              1144.00,958.00 1182.00,945.98 1182.00,945.98              1182.00,945.98 1209.00,938.00 1209.00,938.00              1209.00,938.00 1222.42,961.00 1222.42,961.00              1222.42,961.00 1230.21,972.40 1230.21,972.40              1230.21,972.40 1239.00,974.00 1239.00,974.00              1239.00,974.00 1338.00,974.00 1338.00,974.00              1330.22,965.08 1321.40,959.68 1316.36,948.00              1312.75,939.63 1314.00,918.91 1314.00,909.00              1314.00,909.00 1362.00,896.87 1362.00,896.87              1362.00,896.87 1432.00,879.00 1432.00,879.00              1432.00,879.00 1421.88,917.00 1421.88,917.00              1419.56,925.79 1415.60,943.00 1410.78,950.00              1404.81,958.67 1392.22,966.45 1384.00,974.00              1384.00,974.00 1464.00,974.00 1464.00,974.00              1459.14,967.50 1454.74,963.11 1452.22,955.00              1449.80,947.22 1453.02,936.89 1454.60,929.00              1455.43,924.84 1455.84,920.69 1458.00,917.00              1458.00,917.00 1475.58,942.00 1475.58,942.00              1475.58,942.00 1523.75,1003.00 1523.75,1003.00              1531.57,1012.38 1551.03,1034.63 1555.00,1045.00              1555.00,1045.00 1460.00,1109.66 1460.00,1109.66              1460.00,1109.66 1388.00,1159.65 1388.00,1159.65              1346.07,1191.96 1306.33,1227.44 1267.00,1262.83              1267.00,1262.83 1213.00,1311.83 1213.00,1311.83              1213.00,1311.83 1194.00,1329.04 1194.00,1329.04              1194.00,1329.04 1187.26,1336.00 1187.26,1336.00              1187.26,1336.00 1181.87,1342.70 1181.87,1342.70              1181.87,1342.70 1175.00,1348.28 1175.00,1348.28              1175.00,1348.28 1158.00,1363.17 1158.00,1363.17              1158.00,1363.17 1118.00,1400.91 1118.00,1400.91              1118.00,1400.91 1100.01,1417.01 1100.01,1417.01              1096.20,1420.78 1080.68,1435.82 1079.01,1439.00              1076.98,1442.87 1076.33,1454.62 1077.00,1459.00              1079.18,1454.73 1085.32,1449.52 1089.00,1446.28              1089.00,1446.28 1100.83,1435.52 1100.83,1435.52              1100.83,1435.52 1111.00,1426.96 1111.00,1426.96              1111.00,1426.96 1124.58,1415.10 1124.58,1415.10              1124.58,1415.10 1135.00,1405.29 1135.00,1405.29              1135.00,1405.29 1164.96,1379.71 1164.96,1379.71              1164.96,1379.71 1189.28,1357.43 1189.28,1357.43              1189.28,1357.43 1206.00,1344.73 1206.00,1344.73              1206.00,1344.73 1273.00,1288.61 1273.00,1288.61              1331.84,1240.80 1392.54,1194.95 1454.00,1150.58              1454.00,1150.58 1532.00,1095.28 1532.00,1095.28              1532.00,1095.28 1572.00,1068.00 1572.00,1068.00              1579.70,1080.19 1594.19,1098.03 1603.85,1109.00              1613.13,1119.54 1623.78,1130.84 1636.00,1137.98              1646.80,1144.29 1666.31,1149.32 1671.42,1133.00              1672.06,1130.68 1671.98,1128.35 1671.42,1126.00              1669.06,1114.57 1655.88,1105.60 1647.00,1098.87              1647.00,1098.87 1611.00,1070.27 1611.00,1070.27              1604.68,1064.86 1597.87,1059.80 1593.00,1053.00              1593.00,1053.00 1677.00,996.00 1677.00,996.00              1677.00,996.00 1717.00,970.00 1717.00,970.00              1717.00,970.00 1718.00,995.00 1718.00,995.00              1721.29,985.09 1736.19,971.68 1747.00,971.11              1751.66,970.86 1765.74,976.54 1772.00,978.11              1780.85,980.32 1793.88,981.95 1803.00,982.00              1803.00,982.00 1816.00,982.99 1816.00,982.99              1816.00,982.99 1836.00,982.00 1836.00,982.00              1859.62,981.72 1894.49,963.31 1911.00,947.00              1920.05,938.06 1926.91,931.30 1931.30,919.00              1934.60,909.76 1934.71,902.57 1932.91,893.00              1932.06,888.53 1928.95,882.16 1930.00,878.00              1941.01,897.35 1950.86,917.65 1959.86,938.00              1961.59,941.92 1969.00,956.58 1968.19,959.91              1967.45,962.98 1956.00,971.25 1953.00,974.00              1953.00,974.00 1968.00,974.00 1968.00,974.00              1976.47,974.05 1975.97,975.82 1980.31,988.00              1980.31,988.00 1993.58,1030.00 1993.58,1030.00              2007.95,1081.70 2016.69,1156.49 1982.10,1202.00              1966.01,1223.18 1949.47,1228.31 1924.00,1230.09              1924.00,1230.09 1909.00,1231.00 1909.00,1231.00              1909.00,1231.00 1899.00,1230.09 1899.00,1230.09              1876.68,1228.55 1855.31,1224.28 1834.00,1217.33              1834.00,1217.33 1798.00,1204.00 1798.00,1204.00              1800.22,1211.50 1805.43,1212.31 1812.00,1214.81              1812.00,1214.81 1845.00,1226.02 1845.00,1226.02              1871.45,1234.16 1893.36,1238.24 1921.00,1239.26              1937.99,1239.88 1957.17,1236.71 1972.00,1228.13              1980.53,1223.19 1988.83,1214.82 1994.76,1207.00              2015.15,1180.09 2017.38,1144.41 2017.00,1112.00              2017.00,1112.00 2016.09,1102.00 2016.09,1102.00              2013.78,1068.94 2005.82,1036.66 1996.28,1005.00              1996.28,1005.00 1986.00,974.00 1986.00,974.00              1986.00,974.00 2033.00,974.00 2033.00,974.00              2027.80,967.05 2022.06,960.99 2020.47,952.00              2019.24,945.06 2024.85,924.51 2026.00,916.00              2026.00,916.00 2109.00,916.00 2109.00,916.00              2111.22,924.26 2117.86,939.88 2116.52,948.00              2114.65,959.35 2105.72,965.84 2099.00,974.00              2099.00,974.00 2200.00,974.00 2200.00,974.00              2200.00,974.00 2230.00,974.00 2230.00,974.00              2230.00,974.00 2248.00,973.00 2248.00,973.00              2232.04,966.08 2228.27,955.10 2222.58,940.00              2222.58,940.00 2215.05,920.00 2215.05,920.00              2215.05,920.00 2164.19,783.00 2164.19,783.00              2164.19,783.00 2147.42,738.00 2147.42,738.00              2146.10,734.46 2143.52,724.97 2140.59,723.02              2138.70,721.78 2135.22,722.00 2133.00,722.00              2133.00,722.00 2103.00,722.00 2103.00,722.00              2098.29,722.00 2091.25,722.69 2087.00,721.00              2130.27,690.37 2172.30,658.05 2213.00,624.08              2213.00,624.08 2252.00,590.83 2252.00,590.83              2252.00,590.83 2264.00,579.17 2264.00,579.17              2264.00,579.17 2305.99,540.91 2305.99,540.91              2305.99,540.91 2315.04,531.01 2315.04,531.01              2315.04,531.01 2335.00,512.00 2335.00,512.00              2335.00,512.00 2346.43,499.28 2346.43,499.28              2346.43,499.28 2355.96,490.00 2355.96,490.00              2355.96,490.00 2365.01,480.00 2365.01,480.00              2365.01,480.00 2373.34,471.83 2373.34,471.83              2373.34,471.83 2383.19,459.00 2383.19,459.00              2383.19,459.00 2412.63,424.00 2412.63,424.00              2412.63,424.00 2419.15,414.00 2419.15,414.00              2419.15,414.00 2429.85,400.00 2429.85,400.00              2429.85,400.00 2443.52,380.00 2443.52,380.00              2465.56,347.29 2487.77,310.68 2502.45,274.00              2502.45,274.00 2508.80,260.00 2508.80,260.00              2508.80,260.00 2511.81,251.00 2511.81,251.00              2513.89,245.51 2516.09,242.05 2516.00,236.00              2516.07,236.06 2517.29,236.44 2517.52,238.29              2517.89,241.27 2512.37,253.98 2511.14,258.00              2509.35,263.84 2508.28,264.76 2506.00,270.00              2506.00,270.00 2495.11,295.00 2495.11,295.00              2495.11,295.00 2479.24,326.00 2479.24,326.00              2479.24,326.00 2468.45,344.00 2468.45,344.00              2468.45,344.00 2450.92,373.00 2450.92,373.00              2450.92,373.00 2422.37,413.00 2422.37,413.00              2422.37,413.00 2413.63,426.00 2413.63,426.00              2413.63,426.00 2394.25,449.00 2394.25,449.00              2394.25,449.00 2383.37,462.00 2383.37,462.00              2383.37,462.00 2375.12,472.83 2375.12,472.83              2375.12,472.83 2366.01,482.00 2366.01,482.00              2366.01,482.00 2356.96,492.00 2356.96,492.00              2356.96,492.00 2348.29,500.28 2348.29,500.28              2348.29,500.28 2334.00,516.00 2334.00,516.00              2334.00,516.00 2318.00,531.04 2318.00,531.04              2318.00,531.04 2307.96,541.91 2307.96,541.91              2307.96,541.91 2279.00,568.91 2279.00,568.91              2279.00,568.91 2265.01,581.09 2265.01,581.09              2263.12,582.89 2260.51,585.26 2260.21,588.00              2259.93,590.51 2264.06,599.08 2265.19,602.00              2265.19,602.00 2276.66,633.00 2276.66,633.00              2287.68,664.75 2296.33,698.85 2301.92,732.00              2305.74,754.63 2308.52,777.13 2310.09,800.00              2310.09,800.00 2311.00,810.00 2311.00,810.00              2311.00,810.00 2312.00,831.00 2312.00,831.00              2312.00,831.00 2312.00,868.00 2312.00,868.00              2312.00,868.00 2311.00,889.00 2311.00,889.00              2311.00,889.00 2310.09,899.00 2310.09,899.00              2310.09,899.00 2306.28,938.00 2306.28,938.00              2300.64,981.24 2290.97,1024.77 2276.66,1066.00              2251.01,1139.89 2214.03,1207.96 2165.00,1269.00              2127.45,1315.75 2083.64,1357.46 2035.00,1392.58              1859.91,1518.99 1635.76,1552.10 1431.00,1485.33              1370.43,1465.58 1310.17,1434.74 1258.00,1398.28              1258.00,1398.28 1199.00,1352.00 1199.00,1352.00              1199.00,1352.00 1189.42,1359.90 1189.42,1359.90              1189.42,1359.90 1179.00,1369.91 1179.00,1369.91              1179.00,1369.91 1172.17,1375.51 1172.17,1375.51              1172.17,1375.51 1166.91,1380.71 1166.91,1380.71              1166.91,1380.71 1159.00,1387.17 1159.00,1387.17              1159.00,1387.17 1127.28,1415.33 1127.28,1415.33              1127.28,1415.33 1118.00,1423.09 1118.00,1423.09              1118.00,1423.09 1090.00,1448.17 1090.00,1448.17              1085.22,1452.47 1081.08,1457.58 1075.00,1460.00              1075.09,1455.72 1076.30,1440.25 1078.01,1437.00              1079.54,1434.07 1085.41,1428.54 1088.00,1426.04              1088.00,1426.04 1106.91,1408.34 1106.91,1408.34              1106.91,1408.34 1123.00,1393.09 1123.00,1393.09              1123.00,1393.09 1152.00,1366.00 1152.00,1366.00              1152.00,1366.00 1174.00,1346.46 1174.00,1346.46              1176.24,1344.64 1181.96,1341.05 1181.96,1337.99              1181.96,1335.52 1178.69,1332.80 1177.00,1331.28              1171.79,1326.63 1167.03,1322.30 1162.42,1317.00              1162.42,1317.00 1140.17,1293.00 1140.17,1293.00              1140.17,1293.00 1105.37,1250.00 1105.37,1250.00              1067.43,1199.41 1037.02,1143.22 1014.95,1084.00              1009.43,1069.19 996.02,1030.32 994.00,1016.00              994.00,1016.00 941.00,1042.48 941.00,1042.48              941.00,1042.48 918.00,1054.61 918.00,1054.61              918.00,1054.61 905.00,1062.59 905.00,1062.59              898.61,1065.46 885.19,1060.66 883.00,1054.00              883.00,1054.00 914.00,1035.45 914.00,1035.45              914.00,1035.45 931.00,1026.14 931.00,1026.14              931.00,1026.14 961.00,1009.23 961.00,1009.23              961.00,1009.23 989.00,995.00 989.00,995.00 Z            M 1644.01,229.82            C 1634.73,231.49 1638.08,241.45 1644.01,241.18              1649.61,240.92 1653.05,232.25 1644.01,229.82 Z            M 1779.00,276.00            C 1779.00,276.00 1777.00,276.00 1777.00,276.00              1777.00,285.08 1779.00,290.36 1772.27,297.13              1770.59,298.81 1769.23,300.36 1766.96,301.26              1763.39,302.68 1757.21,301.35 1751.00,304.00              1751.00,304.00 1768.79,305.59 1768.79,305.59              1768.79,305.59 1773.32,309.43 1773.32,309.43              1773.32,309.43 1776.41,313.21 1776.41,313.21              1776.41,313.21 1778.00,330.00 1778.00,330.00              1778.00,330.00 1780.00,330.00 1780.00,330.00              1780.00,330.00 1780.00,311.00 1780.00,311.00              1780.00,311.00 1791.04,304.57 1791.04,304.57              1791.04,304.57 1806.00,302.00 1806.00,302.00              1806.00,302.00 1788.37,299.99 1788.37,299.99              1788.37,299.99 1784.65,296.57 1784.65,296.57              1784.65,296.57 1780.58,291.90 1780.58,291.90              1780.58,291.90 1779.00,276.00 1779.00,276.00 Z            M 1602.01,301.49            C 1590.64,304.87 1595.64,317.63 1603.99,316.51              1612.47,315.36 1613.73,301.74 1602.01,301.49 Z            M 1679.01,311.49            C 1667.64,314.87 1672.64,327.63 1680.99,326.51              1689.47,325.36 1690.73,311.74 1679.01,311.49 Z            M 1516.01,358.82            C 1506.73,360.49 1510.08,370.45 1516.01,370.18              1521.61,369.92 1525.05,361.25 1516.01,358.82 Z            M 1621.05,360.47            C 1612.30,364.24 1618.61,372.96 1623.96,371.34              1629.59,369.64 1630.50,360.01 1621.05,360.47 Z            M 1531.01,369.82            C 1521.73,371.49 1525.08,381.45 1531.01,381.18              1536.61,380.92 1540.05,372.25 1531.01,369.82 Z            M 1547.99,380.91            C 1537.73,382.09 1541.89,393.80 1548.95,391.92              1553.62,390.68 1555.83,383.22 1547.99,380.91 Z            M 1681.01,391.82            C 1671.73,393.49 1675.08,403.45 1681.01,403.18              1686.61,402.92 1690.05,394.25 1681.01,391.82 Z            M 1521.05,403.47            C 1512.30,407.24 1518.61,415.96 1523.96,414.34              1529.59,412.64 1530.50,403.01 1521.05,403.47 Z            M 1415.00,820.00            C 1415.00,820.00 1381.26,757.00 1381.26,757.00              1360.47,714.04 1342.71,669.35 1331.13,623.00              1326.52,604.57 1320.03,571.54 1320.00,553.00              1320.00,553.00 1320.00,523.00 1320.00,523.00              1320.09,515.23 1322.26,501.65 1324.13,494.00              1331.90,462.18 1348.19,438.00 1380.00,426.44              1393.07,421.69 1407.23,420.84 1421.00,421.00              1454.91,421.40 1495.98,437.74 1526.00,452.75              1600.12,489.81 1665.75,545.75 1724.00,604.00              1724.00,604.00 1777.13,661.00 1777.13,661.00              1783.01,667.83 1795.95,682.05 1800.00,689.00              1800.00,689.00 1743.00,711.05 1743.00,711.05              1743.00,711.05 1647.00,745.33 1647.00,745.33              1647.00,745.33 1607.00,758.67 1607.00,758.67              1604.00,759.67 1592.60,763.88 1590.22,763.52              1586.78,763.01 1584.78,754.97 1583.68,752.00              1583.68,752.00 1576.31,732.00 1576.31,732.00              1575.40,729.46 1573.85,724.52 1571.59,723.02              1569.70,721.78 1566.22,722.00 1564.00,722.00              1564.00,722.00 1443.00,722.00 1443.00,722.00              1449.69,731.34 1458.78,736.64 1462.56,749.00              1466.32,761.27 1458.74,780.55 1455.63,793.00              1454.74,796.55 1452.95,805.87 1450.44,808.16              1448.72,809.74 1442.48,811.51 1440.00,812.33              1433.27,814.58 1421.47,819.00 1415.00,820.00 Z            M 1780.01,447.49            C 1768.64,450.87 1773.64,463.63 1781.99,462.51              1790.47,461.36 1791.73,447.74 1780.01,447.49 Z            M 1464.00,483.00            C 1464.00,483.00 1461.69,498.91 1461.69,498.91              1461.69,498.91 1456.00,509.00 1456.00,509.00              1451.24,509.10 1440.76,509.57 1437.00,512.00              1445.61,512.00 1451.54,510.31 1458.11,516.77              1459.94,518.57 1460.97,519.58 1461.85,522.04              1463.97,527.93 1461.62,532.18 1465.00,538.00              1465.00,538.00 1466.03,522.04 1466.03,522.04              1466.03,522.04 1472.00,512.00 1472.00,512.00              1472.00,512.00 1490.00,510.00 1490.00,510.00              1490.00,510.00 1472.00,509.00 1472.00,509.00              1470.72,504.70 1469.30,503.28 1465.00,502.00              1465.00,502.00 1464.00,483.00 1464.00,483.00 Z            M 1393.05,493.47            C 1384.30,497.24 1390.61,505.96 1395.96,504.34              1401.59,502.64 1402.50,493.01 1393.05,493.47 Z            M 1417.05,522.47            C 1408.30,526.24 1414.61,534.96 1419.96,533.34              1425.59,531.64 1426.50,522.01 1417.05,522.47 Z            M 1907.00,784.00            C 1907.00,784.00 1907.00,749.00 1907.00,749.00              1907.00,746.94 1906.74,743.38 1907.99,741.70              1909.51,739.65 1920.07,735.97 1923.00,734.80              1923.00,734.80 1973.00,714.00 1973.00,714.00              2018.23,694.77 2068.29,670.77 2111.00,646.58              2111.00,646.58 2157.00,619.58 2157.00,619.58              2163.31,615.64 2178.29,605.19 2184.00,603.00              2184.00,603.00 2169.00,616.92 2169.00,616.92              2169.00,616.92 2143.00,638.20 2143.00,638.20              2143.00,638.20 2070.00,694.87 2070.00,694.87              2070.00,694.87 2046.00,712.87 2046.00,712.87              2046.00,712.87 2033.00,721.49 2033.00,721.49              2033.00,721.49 2012.00,722.00 2012.00,722.00              2012.00,722.00 2020.00,732.00 2020.00,732.00              2020.00,732.00 1956.00,778.42 1956.00,778.42              1956.00,778.42 1906.00,813.00 1906.00,813.00              1906.00,813.00 1877.00,767.00 1877.00,767.00              1886.03,769.58 1899.61,778.11 1907.00,784.00 Z            M 1820.00,756.65            C 1827.65,755.49 1836.38,755.81 1844.00,756.65              1846.82,757.26 1851.30,757.69 1853.70,759.16              1856.60,760.93 1860.64,767.06 1862.66,770.00              1862.66,770.00 1877.67,792.00 1877.67,792.00              1877.67,792.00 1890.31,811.00 1890.31,811.00              1891.64,813.07 1894.63,817.31 1894.13,819.82              1893.63,822.37 1889.09,824.97 1887.00,826.33              1885.60,827.23 1883.62,828.58 1882.00,828.95              1878.54,829.73 1874.88,827.05 1872.00,825.42              1866.22,822.17 1860.13,819.54 1854.00,817.01              1839.38,810.98 1808.81,802.70 1798.00,793.67              1795.73,791.77 1793.56,789.53 1791.99,787.00              1790.89,785.23 1789.99,783.04 1789.53,781.00              1785.37,762.88 1807.13,758.37 1820.00,756.65 Z            M 1921.00,836.00            C 1921.00,836.00 1998.00,783.67 1998.00,783.67              1998.00,783.67 2032.00,761.00 2032.00,761.00              2032.00,761.00 2020.88,807.00 2020.88,807.00              2020.88,807.00 1995.37,901.00 1995.37,901.00              1995.37,901.00 1986.42,933.00 1986.42,933.00              1984.25,940.62 1983.53,946.77 1977.00,952.00              1970.92,934.47 1950.80,891.84 1941.69,875.00              1941.69,875.00 1921.00,836.00 1921.00,836.00 Z            M 2061.00,794.00            C 2061.00,794.00 2075.20,827.00 2075.20,827.00              2075.20,827.00 2098.00,884.00 2098.00,884.00              2098.00,884.00 2034.00,884.00 2034.00,884.00              2034.00,884.00 2040.28,863.00 2040.28,863.00              2040.28,863.00 2055.42,813.00 2055.42,813.00              2055.42,813.00 2061.00,794.00 2061.00,794.00 Z            M 1492.00,795.00            C 1495.37,798.82 1497.84,806.13 1499.80,811.00              1499.80,811.00 1511.40,840.00 1511.40,840.00              1513.63,845.57 1517.62,851.96 1517.00,858.00              1520.37,860.26 1520.94,863.35 1522.40,867.00              1522.40,867.00 1529.00,884.00 1529.00,884.00              1529.00,884.00 1465.00,884.00 1465.00,884.00              1466.00,879.61 1467.21,872.61 1471.00,870.00              1469.80,863.79 1474.60,851.36 1476.67,845.00              1476.67,845.00 1492.00,795.00 1492.00,795.00 Z            M 1711.00,807.00            C 1711.00,807.00 1713.90,821.00 1713.90,821.00              1715.59,827.92 1718.73,835.94 1722.47,842.00              1732.22,857.83 1749.12,868.97 1766.00,875.99              1766.00,875.99 1792.00,886.00 1792.00,886.00              1792.00,886.00 1751.00,913.00 1751.00,913.00              1747.47,915.36 1737.95,922.83 1734.00,922.22              1730.06,921.61 1720.82,912.73 1717.00,910.00              1717.00,910.00 1717.00,930.00 1717.00,930.00              1716.87,937.36 1713.80,937.80 1708.00,941.67              1708.00,941.67 1688.00,955.00 1688.00,955.00              1684.85,957.10 1673.00,965.81 1670.00,965.70              1668.00,965.63 1666.51,964.27 1665.18,962.93              1658.27,955.95 1651.03,933.08 1647.19,923.00              1647.19,923.00 1624.95,863.00 1624.95,863.00              1624.95,863.00 1614.00,833.00 1614.00,833.00              1614.00,833.00 1661.00,820.88 1661.00,820.88              1661.00,820.88 1711.00,807.00 1711.00,807.00 Z            M 1135.00,816.00            C 1139.13,820.05 1143.11,827.84 1146.20,833.00              1146.20,833.00 1165.20,865.00 1165.20,865.00              1170.14,873.27 1185.85,897.64 1188.00,905.00              1188.00,905.00 1135.00,926.00 1135.00,926.00              1135.00,926.00 1135.00,816.00 1135.00,816.00 Z            M 1765.00,940.00            C 1768.25,934.54 1779.41,929.04 1785.00,925.33              1785.00,925.33 1813.00,907.05 1813.00,907.05              1815.55,905.43 1823.60,900.03 1826.00,899.64              1828.80,899.18 1831.67,900.95 1834.00,902.31              1840.19,905.95 1847.04,911.63 1848.61,919.00              1851.11,930.74 1839.35,937.00 1830.00,939.97              1815.21,944.67 1804.10,944.07 1789.00,944.00              1779.20,943.95 1774.11,941.83 1765.00,940.00 Z            M 1479.00,916.00            C 1479.00,916.00 1540.00,916.00 1540.00,916.00              1542.22,924.26 1548.86,939.88 1547.52,948.00              1545.65,959.35 1536.72,965.84 1530.00,974.00              1530.00,974.00 1620.00,974.00 1620.00,974.00              1620.00,974.00 1645.00,974.00 1645.00,974.00              1645.00,974.00 1659.00,975.00 1659.00,975.00              1659.00,975.00 1617.00,1002.98 1617.00,1002.98              1617.00,1002.98 1592.00,1019.67 1592.00,1019.67              1592.00,1019.67 1572.00,1033.00 1572.00,1033.00              1572.00,1033.00 1519.39,969.00 1519.39,969.00              1519.39,969.00 1494.79,938.00 1494.79,938.00              1494.79,938.00 1479.00,916.00 1479.00,916.00 Z            M 1403.01,986.82            C 1393.73,988.49 1397.08,998.45 1403.01,998.18              1408.61,997.92 1412.05,989.25 1403.01,986.82 Z            M 2076.01,1025.82            C 2066.73,1027.49 2070.08,1037.45 2076.01,1037.18              2081.61,1036.92 2085.05,1028.25 2076.01,1025.82 Z            M 2161.00,1033.00            C 2161.00,1033.00 2158.40,1048.91 2158.40,1048.91              2158.40,1048.91 2153.00,1058.00 2153.00,1058.00              2148.26,1058.04 2137.59,1058.35 2134.00,1061.00              2142.77,1061.00 2148.64,1059.16 2155.24,1065.76              2156.85,1067.37 2158.41,1068.88 2159.26,1071.04              2160.69,1074.65 2159.34,1080.78 2162.00,1087.00              2162.00,1087.00 2164.02,1069.17 2164.02,1069.17              2164.02,1069.17 2167.73,1064.89 2167.73,1064.89              2167.73,1064.89 2172.09,1061.59 2172.09,1061.59              2172.09,1061.59 2188.00,1059.00 2188.00,1059.00              2188.00,1059.00 2172.10,1057.41 2172.10,1057.41              2172.10,1057.41 2167.42,1053.49 2167.42,1053.49              2167.42,1053.49 2163.17,1048.82 2163.17,1048.82              2163.17,1048.82 2161.00,1033.00 2161.00,1033.00 Z            M 2084.04,1058.60            C 2074.00,1064.47 2081.68,1075.59 2089.96,1072.40              2095.35,1070.32 2096.33,1063.11 2091.77,1059.60              2089.27,1057.67 2086.87,1058.02 2084.04,1058.60 Z            M 1986.04,1062.60            C 1976.00,1068.47 1983.68,1079.59 1991.96,1076.40              1997.35,1074.32 1998.33,1067.11 1993.77,1063.60              1991.27,1061.67 1988.87,1062.02 1986.04,1062.60 Z            M 2180.04,1099.60            C 2170.00,1105.47 2177.68,1116.59 2185.96,1113.40              2191.35,1111.32 2192.33,1104.11 2187.77,1100.60              2185.27,1098.67 2182.87,1099.02 2180.04,1099.60 Z            M 1938.01,1100.82            C 1928.73,1102.49 1932.08,1112.45 1938.01,1112.18              1943.61,1111.92 1947.05,1103.25 1938.01,1100.82 Z            M 1986.04,1110.60            C 1976.00,1116.47 1983.68,1127.59 1991.96,1124.40              1997.35,1122.32 1998.33,1115.11 1993.77,1111.60              1991.27,1109.67 1988.87,1110.02 1986.04,1110.60 Z            M 2147.01,1112.82            C 2137.73,1114.49 2141.08,1124.45 2147.01,1124.18              2152.61,1123.92 2156.05,1115.25 2147.01,1112.82 Z            M 1402.04,1114.60            C 1392.00,1120.47 1399.68,1131.59 1407.96,1128.40              1413.35,1126.32 1414.33,1119.11 1409.77,1115.60              1407.27,1113.67 1404.87,1114.02 1402.04,1114.60 Z            M 1226.01,1147.49            C 1214.64,1150.87 1219.64,1163.63 1227.99,1162.51              1236.47,1161.36 1237.73,1147.74 1226.01,1147.49 Z            M 1152.04,1158.66            C 1143.38,1163.51 1150.08,1170.82 1154.96,1169.34              1161.03,1167.51 1160.75,1158.07 1152.04,1158.66 Z            M 2086.05,1169.47            C 2077.30,1173.24 2083.61,1181.96 2088.96,1180.34              2094.59,1178.64 2095.50,1169.01 2086.05,1169.47 Z            M 1937.01,1176.82            C 1927.73,1178.49 1931.08,1188.45 1937.01,1188.18              1942.61,1187.92 1946.05,1179.25 1937.01,1176.82 Z            M 2102.00,1179.00            C 2102.00,1179.00 2099.69,1194.91 2099.69,1194.91              2099.69,1194.91 2094.00,1205.00 2094.00,1205.00              2089.24,1205.10 2078.76,1205.57 2075.00,1208.00              2083.61,1208.00 2089.54,1206.31 2096.11,1212.77              2097.94,1214.57 2098.97,1215.58 2099.85,1218.04              2101.97,1223.93 2099.62,1228.18 2103.00,1234.00              2103.00,1234.00 2104.03,1218.04 2104.03,1218.04              2104.03,1218.04 2110.00,1208.00 2110.00,1208.00              2110.00,1208.00 2128.00,1206.00 2128.00,1206.00              2128.00,1206.00 2110.00,1205.00 2110.00,1205.00              2108.72,1200.70 2107.30,1199.28 2103.00,1198.00              2103.00,1198.00 2102.00,1179.00 2102.00,1179.00 Z            M 1334.01,1182.82            C 1324.73,1184.49 1328.08,1194.45 1334.01,1194.18              1339.61,1193.92 1343.05,1185.25 1334.01,1182.82 Z            M 1216.04,1187.66            C 1207.38,1192.51 1214.08,1199.82 1218.96,1198.34              1225.03,1196.51 1224.75,1187.07 1216.04,1187.66 Z            M 2138.99,1201.91            C 2128.73,1203.09 2132.89,1214.80 2139.95,1212.92              2144.62,1211.68 2146.83,1204.22 2138.99,1201.91 Z            M 1245.00,1207.47            C 1234.14,1211.69 1239.79,1224.29 1248.00,1222.53              1256.17,1220.77 1256.64,1206.93 1245.00,1207.47 Z            M 1447.04,1209.60            C 1437.00,1215.47 1444.68,1226.59 1452.96,1223.40              1458.35,1221.32 1459.33,1214.11 1454.77,1210.60              1452.27,1208.67 1449.87,1209.02 1447.04,1209.60 Z            M 1739.05,1212.47            C 1730.30,1216.24 1736.61,1224.96 1741.96,1223.34              1747.59,1221.64 1748.50,1212.01 1739.05,1212.47 Z            M 1608.99,1259.91            C 1598.73,1261.09 1602.89,1272.80 1609.95,1270.92              1614.62,1269.68 1616.83,1262.22 1608.99,1259.91 Z            M 1381.05,1262.47            C 1372.30,1266.24 1378.61,1274.96 1383.96,1273.34              1389.59,1271.64 1390.50,1262.01 1381.05,1262.47 Z            M 1457.05,1276.47            C 1448.30,1280.24 1454.61,1288.96 1459.96,1287.34              1465.59,1285.64 1466.50,1276.01 1457.05,1276.47 Z            M 1401.00,1319.00            C 1401.00,1319.00 1398.69,1334.91 1398.69,1334.91              1398.69,1334.91 1393.00,1345.00 1393.00,1345.00              1388.24,1345.10 1377.76,1345.57 1374.00,1348.00              1382.61,1348.00 1388.54,1346.31 1395.11,1352.77              1396.94,1354.57 1397.97,1355.58 1398.85,1358.04              1400.97,1363.93 1398.62,1368.18 1402.00,1374.00              1402.00,1374.00 1403.03,1358.04 1403.03,1358.04              1403.03,1358.04 1409.00,1348.00 1409.00,1348.00              1409.00,1348.00 1427.00,1346.00 1427.00,1346.00              1427.00,1346.00 1409.00,1345.00 1409.00,1345.00              1407.81,1341.01 1405.99,1339.19 1402.00,1338.00              1402.00,1338.00 1401.00,1319.00 1401.00,1319.00 Z            M 1962.05,1325.47            C 1953.30,1329.24 1959.61,1337.96 1964.96,1336.34              1970.59,1334.64 1971.50,1325.01 1962.05,1325.47 Z" />
</svg>