<svg xmlns="http://www.w3.org/2000/svg" viewBox="-0.5 0.17 2561 628.33">
  <path id="nature-text" fill="#303030" stroke="none" stroke-width="1"
    d="M 956.00,187.00            C 956.98,180.92 961.90,176.32 966.04,172.00              966.04,172.00 989.72,148.00 989.72,148.00              989.72,148.00 1013.99,123.00 1013.99,123.00              1013.99,123.00 1023.04,113.00 1023.04,113.00              1023.04,113.00 1042.99,93.00 1042.99,93.00              1042.99,93.00 1052.04,83.00 1052.04,83.00              1052.04,83.00 1071.96,63.00 1071.96,63.00              1071.96,63.00 1096.00,38.00 1096.00,38.00              1096.00,38.00 1125.00,8.00 1125.00,8.00              1127.82,5.19 1137.07,-5.10 1137.98,5.04              1137.98,5.04 1137.98,9.00 1137.98,9.00              1137.98,9.00 1137.98,117.00 1137.98,117.00              1137.98,117.00 1266.00,117.00 1266.00,117.00              1266.00,117.00 1261.61,145.00 1261.61,145.00              1261.61,145.00 1254.00,189.00 1254.00,189.00              1254.00,189.00 1139.00,189.00 1139.00,189.00              1139.00,189.00 1139.00,425.00 1139.00,425.00              1139.00,454.81 1134.57,498.08 1159.00,519.82              1177.41,536.19 1203.06,535.66 1226.00,534.09              1236.59,533.36 1246.71,532.51 1257.00,529.57              1257.00,529.57 1269.00,525.55 1269.00,525.55              1269.00,525.55 1280.00,521.00 1280.00,521.00              1279.42,527.93 1274.96,544.07 1272.65,551.00              1269.51,560.40 1264.55,570.82 1258.97,579.00              1241.39,604.77 1212.90,619.22 1183.00,625.20              1175.41,626.72 1167.75,627.99 1160.00,628.00              1160.00,628.00 1131.00,628.00 1131.00,628.00              1131.00,628.00 1113.00,626.13 1113.00,626.13              1076.41,621.05 1046.14,607.16 1025.69,575.00              1000.75,535.77 1005.00,484.46 1005.00,440.00              1005.00,440.00 1005.00,187.00 1005.00,187.00              1005.00,187.00 956.00,187.00 956.00,187.00 Z            M 2560.00,478.00            C 2560.00,478.00 2560.00,498.00 2560.00,498.00              2559.96,506.83 2557.09,512.19 2553.24,520.00              2547.56,531.55 2541.06,542.66 2533.37,553.00              2515.59,576.91 2493.86,595.65 2467.00,608.74              2445.73,619.11 2411.68,627.96 2388.00,628.00              2388.00,628.00 2356.00,628.00 2356.00,628.00              2334.77,627.90 2302.02,620.29 2282.00,612.95              2265.58,606.93 2248.38,597.90 2234.00,587.98              2182.79,552.62 2154.29,499.24 2143.42,439.00              2138.57,412.10 2138.69,387.16 2139.00,360.00              2139.00,360.00 2139.91,350.00 2139.91,350.00              2140.90,335.82 2142.61,321.97 2145.40,308.00              2154.99,259.99 2174.18,214.90 2206.95,178.00              2211.50,172.88 2215.90,167.78 2221.00,163.17              2237.58,148.17 2255.84,135.02 2276.00,125.26              2302.23,112.56 2330.06,105.90 2359.00,103.91              2359.00,103.91 2369.00,103.00 2369.00,103.00              2429.19,102.30 2485.26,116.46 2523.11,167.00              2537.27,185.92 2547.21,209.37 2553.71,232.00              2556.75,242.60 2559.98,253.93 2560.00,265.00              2560.00,265.00 2560.00,341.00 2560.00,341.00              2560.00,341.00 2273.00,341.00 2273.00,341.00              2273.00,380.01 2274.69,415.80 2291.31,452.00              2295.97,462.16 2301.47,471.26 2308.45,480.00              2330.96,508.18 2361.71,523.23 2397.00,528.13              2403.60,529.05 2410.33,529.99 2417.00,530.00              2417.00,530.00 2435.00,530.00 2435.00,530.00              2453.32,529.97 2481.92,524.81 2499.00,518.19              2512.88,512.81 2526.14,505.83 2538.00,496.76              2538.00,496.76 2560.00,478.00 2560.00,478.00 Z            M 167.00,216.00            C 171.78,211.70 173.41,204.70 176.25,199.00              181.48,188.47 187.07,178.38 194.24,169.00              218.91,136.69 253.74,114.36 294.00,107.59              301.60,106.31 309.29,105.01 317.00,105.00              317.00,105.00 340.00,105.00 340.00,105.00              340.00,105.00 352.00,105.92 352.00,105.92              387.41,108.75 420.32,120.92 440.30,152.00              454.44,173.98 459.30,201.37 461.09,227.00              461.09,227.00 462.00,239.00 462.00,239.00              462.00,239.00 462.00,317.00 462.00,317.00              462.00,317.00 462.00,470.00 462.00,470.00              462.00,470.00 463.00,485.00 463.00,485.00              463.00,485.00 463.00,500.00 463.00,500.00              463.00,500.00 464.00,513.00 464.00,513.00              464.27,536.09 468.01,564.20 472.26,587.00              472.26,587.00 479.00,617.00 479.00,617.00              479.00,617.00 311.00,617.00 311.00,617.00              311.00,617.00 318.92,581.00 318.92,581.00              322.46,560.00 324.97,536.25 325.00,515.00              325.00,515.00 326.00,498.00 326.00,498.00              326.00,498.00 326.00,265.00 326.00,265.00              325.99,257.36 324.58,247.28 322.25,240.00              320.74,235.25 318.83,231.09 315.96,227.00              299.95,204.23 274.67,204.96 250.00,205.00              241.80,205.01 231.02,206.76 223.00,208.65              209.94,211.74 197.44,217.26 186.00,224.20              176.93,229.71 172.02,231.91 172.00,243.00              172.00,243.00 172.00,504.00 172.00,504.00              172.00,504.00 173.00,521.00 173.00,521.00              173.03,537.19 175.73,563.89 178.43,580.00              178.43,580.00 182.65,601.00 182.65,601.00              184.08,607.03 186.44,612.80 187.00,619.00              187.00,619.00 20.00,619.00 20.00,619.00              20.00,619.00 27.00,592.00 27.00,592.00              30.87,573.30 33.61,554.05 35.00,535.00              35.00,535.00 35.00,527.00 35.00,527.00              35.00,527.00 36.00,515.00 36.00,515.00              36.00,515.00 37.00,492.00 37.00,492.00              37.00,492.00 37.00,263.00 37.00,263.00              36.96,238.42 28.67,205.97 17.75,184.00              17.75,184.00 0.00,155.00 0.00,155.00              0.00,155.00 95.00,127.58 95.00,127.58              95.00,127.58 138.00,115.29 138.00,115.29              138.00,115.29 165.00,108.00 165.00,108.00              165.00,108.00 166.00,123.00 166.00,123.00              166.00,123.00 166.00,175.00 166.00,175.00              166.00,175.00 167.00,191.00 167.00,191.00              167.00,191.00 167.00,216.00 167.00,216.00 Z            M 1957.00,233.00            C 1957.77,223.87 1962.99,209.02 1966.00,200.00              1978.83,161.55 2001.16,124.91 2041.00,110.44              2056.37,104.85 2070.97,104.82 2087.00,105.00              2113.53,105.31 2141.20,118.41 2151.55,144.00              2154.70,151.81 2156.90,163.58 2157.00,172.00              2157.13,183.40 2155.42,194.22 2151.66,205.00              2148.84,213.06 2143.93,220.89 2137.96,226.99              2117.39,248.00 2082.96,248.82 2059.00,233.30              2040.46,221.30 2029.41,194.28 2007.00,203.88              2003.69,205.30 2000.79,207.20 1998.00,209.47              1994.39,212.40 1990.54,216.34 1987.67,220.00              1970.93,241.28 1961.04,282.08 1961.00,309.00              1961.00,309.00 1961.00,351.00 1961.00,351.00              1961.00,351.00 1961.00,484.00 1961.00,484.00              1961.00,484.00 1962.00,499.00 1962.00,499.00              1962.27,521.99 1966.31,559.21 1970.42,582.00              1970.42,582.00 1978.00,617.00 1978.00,617.00              1978.00,617.00 1810.00,617.00 1810.00,617.00              1824.15,574.54 1826.93,526.48 1827.00,482.00              1827.00,482.00 1828.00,467.00 1828.00,467.00              1828.00,467.00 1828.00,326.00 1828.00,326.00              1828.00,290.25 1829.89,253.96 1821.11,219.00              1817.78,205.76 1811.34,188.82 1804.57,177.00              1804.57,177.00 1790.00,155.00 1790.00,155.00              1790.00,155.00 1843.00,139.58 1843.00,139.58              1843.00,139.58 1916.00,118.42 1916.00,118.42              1916.00,118.42 1944.00,110.42 1944.00,110.42              1946.44,109.73 1952.25,107.52 1954.40,109.06              1956.37,110.47 1956.00,114.82 1956.00,117.00              1956.00,117.00 1956.00,195.00 1956.00,195.00              1956.00,203.40 1955.09,226.28 1957.00,233.00 Z            M 773.00,537.00            C 771.62,543.04 769.28,548.34 766.85,554.00              755.99,579.27 739.55,600.47 715.00,613.69              699.92,621.82 674.16,627.97 657.00,628.00              657.00,628.00 633.00,628.00 633.00,628.00              603.08,627.95 569.05,614.98 547.00,594.83              526.23,575.85 512.04,542.13 512.00,514.00              512.00,514.00 512.00,494.00 512.00,494.00              512.38,461.73 532.60,431.89 557.00,412.40              596.71,380.68 647.04,366.41 693.00,346.42              730.35,330.18 768.93,307.97 769.00,262.00              769.04,238.54 769.43,214.20 757.69,193.00              746.70,173.15 727.82,167.85 707.00,165.83              695.78,164.75 685.55,165.27 675.00,169.87              655.69,178.31 651.48,196.64 647.12,215.00              641.79,237.41 632.29,265.20 609.00,274.38              603.50,276.56 597.93,277.93 592.00,278.00              578.79,278.15 571.40,278.42 559.00,272.51              527.73,257.59 524.36,217.59 536.87,189.00              540.76,180.13 550.05,167.74 557.01,161.09              600.17,119.90 674.10,105.33 732.00,106.00              732.00,106.00 745.00,107.00 745.00,107.00              785.41,107.47 834.02,118.49 863.99,147.09              889.58,171.51 898.71,207.96 901.09,242.00              901.09,242.00 902.00,254.00 902.00,254.00              902.00,254.00 902.00,485.00 902.00,485.00              902.01,490.75 902.88,499.51 904.43,505.00              905.55,508.99 907.55,514.60 909.85,518.00              922.09,536.16 945.89,537.37 965.00,531.56              965.00,531.56 976.00,527.00 976.00,527.00              970.64,555.48 961.95,585.47 940.00,605.91              924.72,620.14 901.74,627.97 881.00,628.00              881.00,628.00 862.00,628.00 862.00,628.00              840.03,627.74 815.65,617.32 800.17,601.83              788.66,590.32 780.38,573.71 776.47,558.00              776.47,558.00 773.00,537.00 773.00,537.00 Z            M 1294.00,130.00            C 1294.00,130.00 1314.00,127.83 1314.00,127.83              1314.00,127.83 1364.00,122.83 1364.00,122.83              1364.00,122.83 1424.00,116.83 1424.00,116.83              1424.00,116.83 1452.00,114.00 1452.00,114.00              1452.00,114.00 1452.00,467.00 1452.00,467.00              1452.01,475.84 1453.61,485.46 1455.88,494.00              1457.40,499.69 1460.39,507.00 1463.47,512.00              1474.85,530.49 1493.30,537.58 1514.00,539.09              1514.00,539.09 1522.00,539.92 1522.00,539.92              1522.00,539.92 1530.00,539.09 1530.00,539.09              1538.16,538.53 1545.94,538.09 1554.00,536.34              1571.50,532.55 1587.06,526.01 1601.00,514.54              1604.28,511.84 1612.01,504.79 1613.40,501.00              1614.12,499.06 1614.00,496.09 1614.00,494.00              1614.00,494.00 1614.00,250.00 1614.00,250.00              1614.00,250.00 1613.00,235.00 1613.00,235.00              1612.72,210.48 1607.33,180.70 1600.85,157.00              1600.85,157.00 1592.00,130.00 1592.00,130.00              1592.00,130.00 1681.00,120.83 1681.00,120.83              1681.00,120.83 1730.00,115.83 1730.00,115.83              1730.00,115.83 1747.00,114.00 1747.00,114.00              1747.00,114.00 1747.00,491.00 1747.00,491.00              1747.00,491.00 1748.00,508.00 1748.00,508.00              1748.03,528.25 1751.96,558.05 1756.21,578.00              1756.21,578.00 1767.00,619.00 1767.00,619.00              1767.00,619.00 1616.00,619.00 1616.00,619.00              1616.00,619.00 1616.00,552.00 1616.00,552.00              1616.00,552.00 1615.00,519.00 1615.00,519.00              1603.47,553.53 1584.36,586.32 1553.00,606.31              1532.30,619.49 1502.58,627.96 1478.00,628.00              1478.00,628.00 1449.00,628.00 1449.00,628.00              1441.77,627.91 1430.22,626.05 1423.00,624.60              1385.35,617.07 1355.95,599.20 1336.86,565.00              1324.55,542.94 1318.74,517.01 1316.91,492.00              1316.91,492.00 1316.00,480.00 1316.00,480.00              1316.00,480.00 1316.00,453.00 1316.00,453.00              1316.00,453.00 1316.00,383.00 1316.00,383.00              1316.00,383.00 1316.00,268.00 1316.00,268.00              1316.00,268.00 1315.00,253.00 1315.00,253.00              1315.00,253.00 1315.00,239.00 1315.00,239.00              1315.00,239.00 1312.72,209.00 1312.72,209.00              1310.77,192.96 1307.91,176.58 1303.58,161.00              1303.58,161.00 1294.00,130.00 1294.00,130.00 Z            M 2440.00,292.00            C 2440.00,262.27 2437.12,215.27 2420.91,190.00              2400.99,158.94 2357.70,159.98 2329.00,177.46              2322.40,181.48 2315.31,188.15 2310.30,194.00              2284.60,223.98 2277.99,269.14 2273.00,307.00              2273.00,307.00 2326.00,302.17 2326.00,302.17              2326.00,302.17 2407.00,294.83 2407.00,294.83              2407.00,294.83 2440.00,292.00 2440.00,292.00 Z            M 767.83,341.00            C 757.15,350.46 755.07,355.87 741.00,364.14              711.28,381.61 676.55,389.98 657.45,422.00              646.10,441.03 645.90,456.93 644.32,478.00              644.08,481.31 644.70,482.85 644.91,486.00              646.25,505.65 651.18,524.91 667.04,538.19              683.70,552.15 697.63,552.10 718.00,552.00              727.63,551.95 736.50,549.73 745.00,545.22              753.10,540.92 765.03,529.02 767.83,520.00              768.09,517.86 768.00,515.22 767.83,513.00              767.83,513.00 767.83,341.00 767.83,341.00 Z" />
</svg>