<svg xmlns="http://www.w3.org/2000/svg" viewBox="-0.5 104.5 480 515">
  <path id="Selection" fill="#303030" stroke="none" stroke-width="1" d="M 167.00,216.00            C 171.78,211.70 173.41,204.70 176.25,199.00              181.48,188.47 187.07,178.38 194.24,169.00              218.91,136.69 253.74,114.36 294.00,107.59              301.60,106.31 309.29,105.01 317.00,105.00              317.00,105.00 340.00,105.00 340.00,105.00              340.00,105.00 352.00,105.92 352.00,105.92              387.41,108.75 420.32,120.92 440.30,152.00              454.44,173.98 459.30,201.37 461.09,227.00              461.09,227.00 462.00,239.00 462.00,239.00              462.00,239.00 462.00,317.00 462.00,317.00              462.00,317.00 462.00,470.00 462.00,470.00              462.00,470.00 463.00,485.00 463.00,485.00              463.00,485.00 463.00,500.00 463.00,500.00              463.00,500.00 464.00,513.00 464.00,513.00              464.27,536.09 468.01,564.20 472.26,587.00              472.26,587.00 479.00,617.00 479.00,617.00              479.00,617.00 311.00,617.00 311.00,617.00              311.00,617.00 318.92,581.00 318.92,581.00              322.46,560.00 324.97,536.25 325.00,515.00              325.00,515.00 326.00,498.00 326.00,498.00              326.00,498.00 326.00,265.00 326.00,265.00              325.99,257.36 324.58,247.28 322.25,240.00              320.74,235.25 318.83,231.09 315.96,227.00              299.95,204.23 274.67,204.96 250.00,205.00              241.80,205.01 231.02,206.76 223.00,208.65              209.94,211.74 197.44,217.26 186.00,224.20              176.93,229.71 172.02,231.91 172.00,243.00              172.00,243.00 172.00,504.00 172.00,504.00              172.00,504.00 173.00,521.00 173.00,521.00              173.03,537.19 175.73,563.89 178.43,580.00              178.43,580.00 182.65,601.00 182.65,601.00              184.08,607.03 186.44,612.80 187.00,619.00              187.00,619.00 20.00,619.00 20.00,619.00              20.00,619.00 27.00,592.00 27.00,592.00              30.87,573.30 33.61,554.05 35.00,535.00              35.00,535.00 35.00,527.00 35.00,527.00              35.00,527.00 36.00,515.00 36.00,515.00              36.00,515.00 37.00,492.00 37.00,492.00              37.00,492.00 37.00,263.00 37.00,263.00              36.96,238.42 28.67,205.97 17.75,184.00              17.75,184.00 0.00,155.00 0.00,155.00              0.00,155.00 95.00,127.58 95.00,127.58              95.00,127.58 138.00,115.29 138.00,115.29              138.00,115.29 165.00,108.00 165.00,108.00              165.00,108.00 166.00,123.00 166.00,123.00              166.00,123.00 166.00,175.00 166.00,175.00              166.00,175.00 167.00,191.00 167.00,191.00              167.00,191.00 167.00,216.00 167.00,216.00 Z"/>
</svg>