<svg xmlns="http://www.w3.org/2000/svg" viewBox="246.5 450.5 497 901">
  <path id="netflix" fill="#303030" stroke="none" stroke-width="1"
    d="M 247.00,451.00            C 247.00,451.00 417.00,451.00 417.00,451.00              417.00,451.00 424.35,451.99 424.35,451.99              424.35,451.99 432.95,473.00 432.95,473.00              432.95,473.00 458.00,544.00 458.00,544.00              458.00,544.00 479.31,604.00 479.31,604.00              479.31,604.00 526.31,737.00 526.31,737.00              526.31,737.00 549.66,803.00 549.66,803.00              549.66,803.00 559.95,832.00 559.95,832.00              559.95,832.00 565.00,846.00 565.00,846.00              565.00,846.00 565.00,451.00 565.00,451.00              565.00,451.00 743.00,451.00 743.00,451.00              743.00,451.00 743.00,1351.00 743.00,1351.00              743.00,1351.00 698.00,1346.17 698.00,1346.17              698.00,1346.17 625.00,1339.91 625.00,1339.91              625.00,1339.91 600.00,1338.00 600.00,1338.00              600.00,1338.00 570.00,1337.00 570.00,1337.00              567.41,1337.00 563.51,1337.22 561.27,1335.83              558.10,1333.84 553.42,1318.25 552.00,1314.00              552.00,1314.00 526.95,1243.00 526.95,1243.00              526.95,1243.00 460.69,1056.00 460.69,1056.00              460.69,1056.00 437.69,991.00 437.69,991.00              437.69,991.00 425.00,956.00 425.00,956.00              425.00,956.00 425.00,1245.00 425.00,1245.00              425.00,1245.00 425.00,1315.00 425.00,1315.00              425.00,1315.00 425.00,1330.00 425.00,1330.00              425.00,1330.00 423.40,1335.98 423.40,1335.98              423.40,1335.98 416.00,1337.00 416.00,1337.00              416.00,1337.00 392.00,1338.00 392.00,1338.00              392.00,1338.00 366.00,1339.91 366.00,1339.91              366.00,1339.91 294.00,1346.16 294.00,1346.16              294.00,1346.16 247.00,1351.00 247.00,1351.00              247.00,1351.00 247.00,451.00 247.00,451.00 Z" />
</svg>