<svg xmlns="http://www.w3.org/2000/svg" viewBox="185.5 185.5 1429 385">
  <path id="netflix-wordmark" fill="#303030" stroke="none" stroke-width="1"
    d="M 186.00,186.00            C 186.00,186.00 237.00,186.00 237.00,186.00              237.00,186.00 244.92,187.57 244.92,187.57              244.92,187.57 250.69,202.00 250.69,202.00              250.69,202.00 263.00,236.00 263.00,236.00              263.00,236.00 297.31,331.00 297.31,331.00              297.31,331.00 310.31,367.00 310.31,367.00              310.31,367.00 322.00,399.00 322.00,399.00              322.00,399.00 322.00,186.00 322.00,186.00              322.00,186.00 383.00,186.00 383.00,186.00              383.00,186.00 383.00,546.00 383.00,546.00              383.00,546.00 335.00,551.16 335.00,551.16              331.48,551.54 319.13,553.81 316.70,552.01              314.72,550.54 311.59,540.75 310.67,538.00              310.67,538.00 298.58,503.00 298.58,503.00              298.58,503.00 283.66,460.00 283.66,460.00              283.66,460.00 264.34,405.00 264.34,405.00              264.34,405.00 248.00,359.00 248.00,359.00              248.00,359.00 248.00,562.00 248.00,562.00              248.00,562.00 201.00,568.13 201.00,568.13              201.00,568.13 186.00,570.00 186.00,570.00              186.00,570.00 186.00,186.00 186.00,186.00 Z            M 440.00,186.00            C 440.00,186.00 608.00,186.00 608.00,186.00              608.00,186.00 608.00,246.00 608.00,246.00              608.00,246.00 501.00,246.00 501.00,246.00              501.00,246.00 501.00,326.00 501.00,326.00              501.00,326.00 582.00,326.00 582.00,326.00              582.00,326.00 582.00,386.00 582.00,386.00              582.00,386.00 501.00,386.00 501.00,386.00              501.00,386.00 501.00,475.00 501.00,475.00              501.00,475.00 523.00,473.09 523.00,473.09              523.00,473.09 574.00,469.91 574.00,469.91              574.00,469.91 608.00,468.00 608.00,468.00              608.00,468.00 608.00,528.00 608.00,528.00              608.00,528.00 596.00,529.00 596.00,529.00              596.00,529.00 587.00,529.00 587.00,529.00              587.00,529.00 564.00,530.91 564.00,530.91              564.00,530.91 489.00,536.17 489.00,536.17              489.00,536.17 465.00,538.17 465.00,538.17              465.00,538.17 440.00,540.00 440.00,540.00              440.00,540.00 440.00,186.00 440.00,186.00 Z            M 645.00,186.00            C 645.00,186.00 832.00,186.00 832.00,186.00              832.00,186.00 832.00,246.00 832.00,246.00              832.00,246.00 769.00,246.00 769.00,246.00              769.00,246.00 769.00,521.00 769.00,521.00              769.00,521.00 753.00,522.00 753.00,522.00              753.00,522.00 708.00,523.00 708.00,523.00              708.00,523.00 708.00,246.00 708.00,246.00              708.00,246.00 645.00,246.00 645.00,246.00              645.00,246.00 645.00,186.00 645.00,186.00 Z            M 870.00,186.00            C 870.00,186.00 1038.00,186.00 1038.00,186.00              1038.00,186.00 1038.00,246.00 1038.00,246.00              1038.00,246.00 931.00,246.00 931.00,246.00              931.00,246.00 931.00,323.00 931.00,323.00              931.00,323.00 1012.00,323.00 1012.00,323.00              1012.00,323.00 1012.00,383.00 1012.00,383.00              1012.00,383.00 931.00,383.00 931.00,383.00              931.00,383.00 931.00,520.00 931.00,520.00              931.00,520.00 870.00,520.00 870.00,520.00              870.00,520.00 870.00,186.00 870.00,186.00 Z            M 1076.00,186.00            C 1076.00,186.00 1137.00,186.00 1137.00,186.00              1137.00,186.00 1137.00,465.00 1137.00,465.00              1137.00,465.00 1164.00,466.00 1164.00,466.00              1164.00,466.00 1179.00,467.00 1179.00,467.00              1179.00,467.00 1196.00,468.00 1196.00,468.00              1196.00,468.00 1216.00,469.00 1216.00,469.00              1216.00,469.00 1233.00,470.02 1233.00,470.02              1233.00,470.02 1239.01,471.74 1239.01,471.74              1239.01,471.74 1240.00,479.00 1240.00,479.00              1240.00,479.00 1240.00,531.00 1240.00,531.00              1240.00,531.00 1230.00,530.00 1230.00,530.00              1230.00,530.00 1221.00,530.00 1221.00,530.00              1221.00,530.00 1190.00,528.00 1190.00,528.00              1190.00,528.00 1180.00,527.04 1180.00,527.04              1180.00,527.04 1172.00,527.04 1172.00,527.04              1172.00,527.04 1162.00,526.04 1162.00,526.04              1162.00,526.04 1152.00,526.04 1152.00,526.04              1152.00,526.04 1137.00,525.00 1137.00,525.00              1137.00,525.00 1115.00,523.96 1115.00,523.96              1115.00,523.96 1103.00,523.96 1103.00,523.96              1103.00,523.96 1092.00,523.00 1092.00,523.00              1092.00,523.00 1076.00,523.00 1076.00,523.00              1076.00,523.00 1076.00,186.00 1076.00,186.00 Z            M 1289.00,186.00            C 1289.00,186.00 1350.00,186.00 1350.00,186.00              1350.00,186.00 1350.00,539.00 1350.00,539.00              1350.00,539.00 1311.00,536.09 1311.00,536.09              1311.00,536.09 1291.31,534.40 1291.31,534.40              1288.45,533.00 1289.01,528.68 1289.00,526.00              1289.00,526.00 1289.00,186.00 1289.00,186.00 Z            M 1400.00,186.00            C 1400.00,186.00 1458.00,186.00 1458.00,186.00              1458.00,186.00 1465.50,187.02 1465.50,187.02              1465.50,187.02 1469.40,194.00 1469.40,194.00              1469.40,194.00 1475.58,210.00 1475.58,210.00              1475.58,210.00 1494.19,258.00 1494.19,258.00              1494.19,258.00 1505.00,285.00 1505.00,285.00              1505.00,285.00 1515.58,259.00 1515.58,259.00              1515.58,259.00 1537.15,209.00 1537.15,209.00              1537.15,209.00 1543.70,194.00 1543.70,194.00              1543.70,194.00 1547.65,186.99 1547.65,186.99              1547.65,186.99 1555.00,186.00 1555.00,186.00              1555.00,186.00 1614.00,186.00 1614.00,186.00              1614.00,186.00 1596.42,229.00 1596.42,229.00              1596.42,229.00 1556.72,321.00 1556.72,321.00              1556.72,321.00 1542.85,353.00 1542.85,353.00              1542.85,353.00 1537.19,367.42 1537.19,367.42              1537.19,367.42 1543.00,384.00 1543.00,384.00              1543.00,384.00 1556.60,419.00 1556.60,419.00              1556.60,419.00 1594.60,517.00 1594.60,517.00              1594.60,517.00 1607.00,549.00 1607.00,549.00              1607.00,549.00 1614.00,570.00 1614.00,570.00              1614.00,570.00 1565.00,563.28 1565.00,563.28              1565.00,563.28 1545.51,559.99 1545.51,559.99              1545.51,559.99 1541.00,551.00 1541.00,551.00              1541.00,551.00 1532.42,529.00 1532.42,529.00              1532.42,529.00 1513.42,480.00 1513.42,480.00              1513.42,480.00 1501.00,449.00 1501.00,449.00              1501.00,449.00 1489.85,476.00 1489.85,476.00              1489.85,476.00 1469.15,524.00 1469.15,524.00              1469.15,524.00 1461.30,542.00 1461.30,542.00              1461.30,542.00 1456.61,549.42 1456.61,549.42              1456.61,549.42 1439.00,548.17 1439.00,548.17              1439.00,548.17 1393.00,544.00 1393.00,544.00              1393.00,544.00 1411.15,501.00 1411.15,501.00              1411.15,501.00 1447.85,416.00 1447.85,416.00              1447.85,416.00 1463.00,381.00 1463.00,381.00              1463.00,381.00 1468.47,366.00 1468.47,366.00              1468.47,366.00 1462.60,349.00 1462.60,349.00              1462.60,349.00 1449.81,316.00 1449.81,316.00              1449.81,316.00 1416.58,230.00 1416.58,230.00              1416.58,230.00 1400.00,186.00 1400.00,186.00 Z" />
</svg>