<svg xmlns="http://www.w3.org/2000/svg" viewBox="-0.67 -0.72 257.17 227.22">
  <path id="netlify" fill="#303030" stroke="none" stroke-width="1"
    d="M 118.60,1.02            C 121.69,-0.29 135.79,-1.17 137.98,1.60              139.48,3.49 139.00,11.34 139.00,14.00              139.00,14.00 139.00,47.00 139.00,47.00              138.98,54.73 139.13,55.94 131.00,56.00              131.00,56.00 125.00,56.00 125.00,56.00              118.41,55.87 117.13,54.59 117.00,48.00              117.00,48.00 117.00,15.00 117.00,15.00              117.00,10.55 115.93,4.75 118.60,1.02 Z            M 66.00,38.08            C 71.40,37.07 73.36,40.39 77.00,44.00              79.51,46.49 85.55,52.15 86.98,55.00              88.53,58.11 88.91,67.83 85.69,69.98              83.93,71.15 80.09,71.07 78.00,70.98              70.41,70.67 64.02,62.23 59.02,57.00              56.97,54.86 54.03,52.28 55.17,49.00              56.34,45.59 62.95,40.03 66.00,38.08 Z            M 115.00,94.00            C 115.00,94.00 115.00,119.00 115.00,119.00              115.00,119.00 115.00,142.00 115.00,142.00              114.83,151.18 110.93,150.06 102.00,150.00              99.65,149.98 96.39,150.19 94.60,148.40              92.68,146.48 93.01,142.54 93.00,140.00              93.00,140.00 93.00,85.00 93.00,85.00              93.02,76.36 93.36,76.02 102.00,76.00              102.00,76.00 128.00,76.00 128.00,76.00              132.32,76.00 139.03,75.66 143.00,76.79              149.26,78.57 154.50,82.71 158.20,88.00              162.34,93.92 162.99,100.02 163.00,107.00              163.00,107.00 163.00,142.00 163.00,142.00              162.83,150.97 159.33,150.19 149.00,150.00              146.48,149.95 143.60,150.05 142.02,147.69              140.79,145.84 141.00,142.19 141.00,140.00              141.00,140.00 141.00,109.00 141.00,109.00              140.99,106.73 141.04,104.19 140.35,102.00              137.03,91.55 123.61,94.00 115.00,94.00 Z            M 0.00,123.00            C 0.00,119.32 -0.95,105.04 1.60,103.02              3.19,101.77 7.01,102.00 9.00,102.00              9.00,102.00 65.00,102.00 65.00,102.00              73.64,102.02 73.98,102.36 74.00,111.00              74.02,121.69 74.72,122.94 66.00,123.00              66.00,123.00 31.00,123.00 31.00,123.00              31.00,123.00 0.00,123.00 0.00,123.00 Z            M 256.00,123.00            C 256.00,123.00 225.00,123.00 225.00,123.00              225.00,123.00 191.00,123.00 191.00,123.00              189.01,123.00 185.19,123.23 183.67,121.98              181.12,120.01 181.26,105.00 183.67,102.99              185.28,101.75 189.06,102.00 191.00,102.00              191.00,102.00 240.00,102.00 240.00,102.00              254.86,102.00 255.94,100.80 256.00,110.00              256.00,110.00 256.00,123.00 256.00,123.00 Z            M 72.00,156.02            C 75.07,154.99 84.69,153.71 86.98,156.60              88.27,158.23 88.03,162.90 88.00,165.00              87.85,173.33 82.63,176.41 77.00,182.00              75.31,183.68 72.16,187.03 70.00,187.87              65.05,189.80 53.74,178.71 54.74,174.00              55.58,170.07 68.35,158.45 72.00,156.02 Z            M 119.31,170.02            C 122.50,168.81 135.72,167.75 137.98,170.60              139.48,172.49 139.00,180.34 139.00,183.00              139.00,183.00 139.00,216.00 139.00,216.00              138.99,223.22 139.15,225.85 131.00,226.00              131.00,226.00 125.00,226.00 125.00,226.00              118.72,225.88 117.12,224.28 117.00,218.00              117.00,218.00 117.00,184.00 117.00,184.00              117.00,179.27 115.93,173.65 119.31,170.02 Z" />
</svg>