<svg xmlns="http://www.w3.org/2000/svg" viewBox="-0.73 -0.69 1025.41 418.2">
  <path id="netlify-wordmark" fill="#303030" stroke="none" stroke-width="1"
    d="M 236.31,1.02            C 240.93,-0.73 248.89,-0.09 254.00,0.00              256.14,0.04 258.77,-0.04 260.40,1.60              262.32,3.52 261.99,7.46 262.00,10.00              262.00,10.00 262.00,86.00 262.00,86.00              262.00,90.90 263.30,105.36 259.69,108.40              257.44,110.29 253.77,109.99 251.00,110.00              251.00,110.00 243.00,110.00 243.00,110.00              234.30,109.84 234.02,106.66 234.00,99.00              234.00,99.00 234.00,27.00 234.00,27.00              234.00,23.09 233.55,5.55 234.60,3.15              235.37,1.36 235.53,1.86 236.31,1.02 Z            M 136.00,78.08            C 142.32,76.90 146.93,83.93 151.00,88.00              151.00,88.00 167.00,104.00 167.00,104.00              169.24,106.24 173.64,110.32 174.98,113.00              176.61,116.27 176.98,129.78 173.69,131.98              171.64,133.34 165.58,133.04 163.00,133.00              155.18,132.85 153.28,129.27 148.00,124.00              148.00,124.00 129.00,105.00 129.00,105.00              126.14,102.13 120.37,97.55 121.66,93.00              122.79,88.96 132.37,80.40 136.00,78.08 Z            M 539.31,111.02            C 543.99,109.24 555.53,109.90 561.00,110.00              563.14,110.04 565.77,109.96 567.40,111.60              569.32,113.52 568.99,117.46 569.00,120.00              569.00,120.00 569.00,230.00 569.00,230.00              569.00,230.00 569.00,255.00 569.00,255.00              568.98,257.35 569.19,260.61 567.40,262.40              565.48,264.32 561.54,263.99 559.00,264.00              559.00,264.00 545.00,264.00 545.00,264.00              542.48,263.95 539.60,264.05 538.02,261.69              536.88,259.98 537.01,257.00 537.00,255.00              537.00,255.00 537.00,231.00 537.00,231.00              537.00,231.00 537.00,143.00 537.00,143.00              537.00,143.00 537.00,120.00 537.00,120.00              537.01,115.90 536.41,114.13 539.31,111.02 Z            M 598.31,111.02            C 602.99,109.24 614.53,109.90 620.00,110.00              622.14,110.04 624.77,109.96 626.40,111.60              628.80,113.99 628.02,124.42 628.00,128.00              627.98,130.35 628.19,133.61 626.40,135.40              624.48,137.32 620.54,136.99 618.00,137.00              614.28,137.01 600.82,137.65 598.31,135.98              595.73,134.25 596.02,130.73 596.00,128.00              595.97,122.71 594.51,115.10 598.31,111.02 Z            M 697.00,110.22            C 697.00,110.22 721.00,110.22 721.00,110.22              729.36,110.16 728.03,112.11 728.00,128.00              728.00,129.99 728.23,133.81 726.98,135.40              725.41,137.38 721.30,137.00 719.00,137.00              711.26,137.02 700.04,134.80 700.04,146.00              700.04,160.07 719.07,150.80 724.40,155.02              726.38,156.59 726.00,160.70 726.00,163.00              726.01,166.96 727.13,177.68 723.69,179.98              721.84,181.21 718.19,181.00 716.00,181.00              712.25,181.01 703.27,179.94 701.02,183.31              699.79,185.16 700.00,188.81 700.00,191.00              700.00,191.00 700.00,246.00 700.00,246.00              700.00,261.51 701.46,263.93 691.00,264.00              691.00,264.00 676.00,264.00 676.00,264.00              667.85,263.85 668.01,261.22 667.95,254.00              667.95,254.00 667.95,191.00 667.95,191.00              667.95,191.00 667.95,186.02 667.95,186.02              666.39,176.92 655.01,183.81 650.60,179.40              648.68,177.48 649.01,173.54 649.00,171.00              648.97,156.04 647.73,154.16 656.00,154.00              658.57,153.96 663.59,154.37 665.69,152.98              668.34,151.21 667.88,147.76 668.09,145.00              668.46,140.00 669.34,132.51 671.35,128.00              676.48,116.45 685.31,112.63 697.00,110.22 Z            M 456.31,131.02            C 460.99,129.24 472.53,129.90 478.00,130.00              480.52,130.05 483.40,129.95 484.98,132.31              488.40,137.45 481.99,151.33 491.02,153.84              492.12,153.97 493.85,153.97 495.00,153.84              498.55,154.06 510.95,153.03 512.98,155.60              514.23,157.19 514.00,161.01 514.00,163.00              514.01,166.96 515.13,177.68 511.69,179.98              509.84,181.21 506.19,181.00 504.00,181.00              500.03,181.01 489.33,179.85 487.02,183.31              485.79,185.16 486.00,188.81 486.00,191.00              486.00,191.00 486.00,221.00 486.00,221.00              486.00,224.59 485.39,230.91 487.60,233.77              490.37,237.36 494.96,236.99 499.00,237.00              501.77,237.00 510.47,236.50 512.40,238.02              514.86,239.97 514.06,252.58 514.00,256.00              513.81,266.10 508.25,264.19 492.00,264.00              487.96,263.95 480.83,263.09 477.00,261.96              453.69,255.08 454.00,238.22 453.95,218.00              453.95,218.00 453.95,191.00 453.95,191.00              453.95,191.00 453.95,186.02 453.95,186.02              452.39,176.92 441.01,183.81 436.60,179.40              434.68,177.48 435.01,173.54 435.00,171.00              434.99,167.72 434.13,156.98 436.60,155.02              440.08,152.27 449.62,156.53 452.98,150.85              456.37,145.12 451.19,136.51 456.31,131.02 Z            M 369.00,151.43            C 373.72,150.96 374.50,151.45 379.00,151.95              399.59,154.26 412.95,164.58 420.54,184.00              423.28,191.01 424.40,201.43 424.91,209.00              425.09,211.62 425.37,216.43 423.40,218.40              421.48,220.32 417.54,219.99 415.00,220.00              415.00,220.00 362.00,220.00 362.00,220.00              358.44,220.02 352.29,219.71 353.52,225.09              355.48,233.68 366.69,239.51 375.00,238.81              388.38,237.69 384.45,230.03 399.00,230.00              402.59,229.99 415.25,229.37 417.68,231.02              420.50,232.93 419.49,236.33 418.64,239.00              416.57,245.47 412.29,251.88 406.96,256.10              396.30,264.55 384.13,266.15 371.00,266.00              354.38,265.80 338.61,258.72 328.79,245.00              314.71,225.35 315.57,188.99 330.52,170.00              342.05,155.34 352.05,153.82 369.00,151.43 Z            M 228.00,179.00            C 228.00,179.00 228.00,218.00 228.00,218.00              228.00,218.00 228.00,256.00 228.00,256.00              227.81,266.04 223.20,264.03 206.00,264.00              203.46,263.99 199.52,264.32 197.60,262.40              195.68,260.48 196.01,256.54 196.00,254.00              196.00,254.00 196.00,176.00 196.00,176.00              196.00,176.00 196.00,160.00 196.00,160.00              196.04,157.86 195.96,155.23 197.60,153.60              199.52,151.68 203.46,152.01 206.00,152.00              206.00,152.00 250.00,152.00 250.00,152.00              265.04,152.00 279.85,152.06 290.32,165.04              300.00,177.03 300.00,190.51 300.00,205.00              300.00,205.00 300.00,239.00 300.00,239.00              300.00,239.00 300.00,256.00 300.00,256.00              299.96,258.14 300.04,260.77 298.40,262.40              296.48,264.32 292.54,263.99 290.00,264.00              290.00,264.00 276.00,264.00 276.00,264.00              273.02,263.94 269.99,264.04 268.60,260.85              267.70,258.80 268.00,250.69 268.00,248.00              268.00,248.00 268.00,218.00 268.00,218.00              268.00,207.25 270.68,188.52 260.96,181.70              254.98,177.50 235.87,179.00 228.00,179.00 Z            M 598.31,155.02            C 602.99,153.24 614.53,153.90 620.00,154.00              622.14,154.04 624.77,153.96 626.40,155.60              628.32,157.52 627.99,161.46 628.00,164.00              628.00,164.00 628.00,240.00 628.00,240.00              628.00,240.00 628.00,256.00 628.00,256.00              627.96,258.14 628.04,260.77 626.40,262.40              624.48,264.32 620.54,263.99 618.00,264.00              618.00,264.00 604.00,264.00 604.00,264.00              593.98,263.81 596.00,259.43 596.00,242.00              596.00,242.00 596.00,179.00 596.00,179.00              596.00,175.29 595.57,159.52 596.60,157.15              597.37,155.36 597.53,155.86 598.31,155.02 Z            M 793.00,230.00            C 793.00,230.00 813.58,172.00 813.58,172.00              818.79,158.05 817.04,154.07 828.00,154.00              830.87,153.98 840.44,153.47 842.40,155.02              844.90,157.00 844.04,170.46 844.00,174.00              843.88,183.48 836.31,198.73 832.60,208.00              832.60,208.00 812.60,258.00 812.60,258.00              808.56,268.10 803.30,282.02 795.70,289.82              787.94,297.79 774.81,300.87 764.00,301.00              760.54,301.04 750.95,301.76 748.60,299.40              746.20,297.01 746.98,286.58 747.00,283.00              747.07,272.31 750.97,274.11 760.00,274.00              766.29,273.92 776.31,271.43 774.84,263.00              774.84,263.00 765.28,239.00 765.28,239.00              765.28,239.00 749.72,201.00 749.72,201.00              745.85,192.00 741.02,182.92 741.00,173.00              740.99,169.75 740.35,157.71 742.02,155.60              743.49,153.74 746.87,154.02 749.00,154.00              753.31,153.97 762.25,152.89 765.19,156.31              766.97,158.39 769.05,165.16 770.00,168.00              770.00,168.00 777.69,190.00 777.69,190.00              780.82,198.80 788.71,223.71 793.00,230.00 Z            M 366.00,179.34            C 360.52,180.81 356.48,183.57 354.23,189.00              353.24,191.39 352.44,194.98 355.31,196.40              356.78,197.13 360.30,197.00 362.00,197.00              362.00,197.00 382.00,197.00 382.00,197.00              383.89,197.00 387.90,197.23 389.36,195.98              393.02,192.84 386.47,184.42 383.96,182.42              378.94,178.41 372.05,178.64 366.00,179.34 Z            M 1.60,196.02            C 5.41,194.40 9.90,195.00 14.00,195.00              14.00,195.00 37.00,195.00 37.00,195.00              37.00,195.00 119.00,195.00 119.00,195.00              119.00,195.00 144.00,195.00 144.00,195.00              145.99,195.00 149.81,194.77 151.40,196.02              153.38,197.59 153.00,201.70 153.00,204.00              153.01,207.96 154.13,218.68 150.69,220.98              148.84,222.21 145.19,222.00 143.00,222.00              143.00,222.00 33.00,222.00 33.00,222.00              33.00,222.00 9.00,222.00 9.00,222.00              6.65,221.98 3.39,222.19 1.60,220.40              -0.32,218.48 0.01,214.54 0.00,212.00              -0.01,207.32 -1.12,199.82 1.60,196.02 Z            M 881.22,196.02            C 886.69,194.03 908.75,195.00 916.00,195.00              916.00,195.00 992.00,195.00 992.00,195.00              992.00,195.00 1016.00,195.00 1016.00,195.00              1017.82,195.01 1020.92,194.85 1022.40,196.02              1024.38,197.59 1024.00,201.70 1024.00,204.00              1024.01,207.96 1025.13,218.68 1021.69,220.98              1019.84,222.21 1016.19,222.00 1014.00,222.00              1014.00,222.00 881.00,222.00 881.00,222.00              878.58,222.00 874.41,222.32 872.73,220.40              870.72,218.32 871.99,215.26 872.73,213.00              874.73,207.79 877.15,199.65 881.22,196.02 Z            M 157.00,284.02            C 160.69,282.79 172.54,281.66 174.98,285.31              176.40,287.45 176.02,294.25 176.00,297.00              175.98,299.43 176.10,301.76 174.98,304.00              173.20,307.56 156.05,323.95 152.00,328.00              148.73,331.27 142.02,339.76 137.00,338.34              132.56,337.09 120.26,324.94 121.66,320.00              122.54,316.87 128.55,311.45 131.00,309.00              136.85,303.15 151.18,287.89 157.00,284.02 Z            M 236.31,308.02            C 240.93,306.27 248.89,306.91 254.00,307.00              256.14,307.04 258.77,306.96 260.40,308.60              262.32,310.52 261.99,314.46 262.00,317.00              262.00,317.00 262.00,393.00 262.00,393.00              262.00,397.90 263.30,412.36 259.69,415.40              257.44,417.29 253.77,416.99 251.00,417.00              251.00,417.00 243.00,417.00 243.00,417.00              234.30,416.84 234.02,413.66 234.00,406.00              234.00,406.00 234.00,334.00 234.00,334.00              234.00,330.09 233.55,312.55 234.60,310.15              235.37,308.36 235.53,308.86 236.31,308.02 Z" />
</svg>