<svg xmlns="http://www.w3.org/2000/svg" viewBox="-0.5 -0.59 257 257.1">
  <path id="netlify-alt" fill="#303030" stroke="none" stroke-width="1"
    d="M 115.00,0.74            C 120.35,-0.55 127.39,-0.01 133.00,0.21              134.99,0.00 138.14,-0.08 140.00,0.21              144.96,1.78 153.11,11.11 157.00,15.00              157.00,15.00 194.00,52.00 194.00,52.00              194.00,52.00 240.00,98.00 240.00,98.00              243.66,101.66 253.64,110.74 255.26,115.00              256.07,117.11 255.99,119.76 256.00,122.00              256.00,122.00 256.00,135.00 256.00,135.00              255.87,143.94 252.05,145.95 246.00,152.00              246.00,152.00 227.00,171.00 227.00,171.00              227.00,171.00 163.00,235.00 163.00,235.00              158.73,239.27 145.60,253.51 141.00,255.26              138.72,256.13 135.45,256.00 133.00,256.00              133.00,256.00 121.00,256.00 121.00,256.00              111.02,255.86 106.70,248.70 100.00,242.00              100.00,242.00 62.00,204.00 62.00,204.00              62.00,204.00 16.00,158.00 16.00,158.00              12.34,154.34 2.36,145.26 0.74,141.00              -0.07,138.89 0.01,136.24 0.00,134.00              0.00,134.00 0.00,121.00 0.00,121.00              0.13,112.06 3.95,110.05 10.00,104.00              10.00,104.00 26.00,88.00 26.00,88.00              26.00,88.00 85.00,29.00 85.00,29.00              91.42,22.58 108.29,4.24 115.00,0.74 Z            M 121.15,22.60            C 117.53,25.12 118.03,26.81 118.00,31.00              118.00,31.00 118.00,66.00 118.00,66.00              118.01,68.54 117.68,72.48 119.60,74.40              121.92,76.73 134.08,76.73 136.40,74.40              138.32,72.48 137.99,68.54 138.00,66.00              138.00,66.00 138.00,32.00 138.00,32.00              137.99,29.46 138.32,25.52 136.40,23.60              133.90,21.09 124.44,21.85 121.15,22.60 Z            M 75.00,61.91            C 71.21,63.44 62.51,70.21 64.17,75.00              64.82,76.90 67.57,79.55 69.00,81.00              74.66,86.75 75.80,89.00 84.00,88.84              85.23,89.00 87.74,89.02 88.85,88.84              92.63,87.57 92.34,82.18 91.85,79.00              90.98,73.30 80.51,62.83 75.00,61.91 Z            M 159.00,161.00            C 159.00,161.00 159.00,130.00 159.00,130.00              159.00,116.56 160.41,106.35 147.00,98.21              140.26,94.12 134.48,95.00 127.00,95.00              127.00,95.00 97.00,95.00 97.00,95.00              97.00,95.00 97.00,161.00 97.00,161.00              97.00,161.00 109.00,161.00 109.00,161.00              115.84,160.87 115.96,159.43 116.00,153.00              116.00,153.00 116.00,111.00 116.00,111.00              127.29,111.00 139.78,108.28 140.00,124.00              140.00,124.00 140.00,149.00 140.00,149.00              140.00,151.41 139.60,157.60 141.02,159.40              142.49,161.26 145.87,160.98 148.00,161.00              148.00,161.00 159.00,161.00 159.00,161.00 Z            M 21.15,118.60            C 19.77,119.56 19.41,119.29 18.60,121.15              17.45,123.79 17.51,134.31 19.60,136.40              21.52,138.32 25.46,137.99 28.00,138.00              28.00,138.00 63.00,138.00 63.00,138.00              66.26,138.00 74.11,138.69 76.40,136.40              78.47,134.34 78.05,128.82 78.00,126.00              77.87,119.39 76.61,118.13 70.00,118.00              70.00,118.00 39.00,118.00 39.00,118.00              33.74,118.00 26.06,117.49 21.15,118.60 Z            M 181.15,118.60            C 179.77,119.56 179.41,119.29 178.60,121.15              177.45,123.79 177.51,134.31 179.60,136.40              181.52,138.32 185.46,137.99 188.00,138.00              188.00,138.00 223.00,138.00 223.00,138.00              226.26,138.00 234.11,138.69 236.40,136.40              238.47,134.34 238.05,128.82 238.00,126.00              237.87,119.39 236.61,118.13 230.00,118.00              230.00,118.00 199.00,118.00 199.00,118.00              193.74,118.00 186.06,117.49 181.15,118.60 Z            M 79.00,167.60            C 75.50,169.43 64.20,179.03 64.20,183.00              64.20,187.20 73.61,195.74 78.00,193.92              81.17,192.61 90.20,183.27 91.40,180.00              91.95,178.50 91.99,176.59 91.99,175.00              91.99,168.53 90.47,167.01 84.00,167.01              81.80,167.01 81.11,167.15 79.00,167.60 Z            M 121.15,180.60            C 117.53,183.12 118.03,184.81 118.00,189.00              118.00,189.00 118.00,224.00 118.00,224.00              118.01,226.54 117.68,230.48 119.60,232.40              121.92,234.73 134.08,234.73 136.40,232.40              138.32,230.48 137.99,226.54 138.00,224.00              138.00,224.00 138.00,190.00 138.00,190.00              137.99,187.46 138.32,183.52 136.40,181.60              133.90,179.09 124.44,179.85 121.15,180.60 Z" />
</svg>