<svg xmlns="http://www.w3.org/2000/svg" viewBox="-0.5 -0.57 1269 837.07">
  <path id="neuralink" fill="#303030" stroke="none" stroke-width="1"
    d="M 0.00,535.00            C 2.42,530.00 14.37,519.63 19.00,515.00              19.00,515.00 36.00,498.96 36.00,498.96              36.00,498.96 54.00,481.04 54.00,481.04              54.00,481.04 65.00,471.00 65.00,471.00              65.00,471.00 143.00,395.96 143.00,395.96              143.00,395.96 187.00,353.04 187.00,353.04              187.00,353.04 231.00,311.00 231.00,311.00              231.00,311.00 249.00,293.96 249.00,293.96              249.00,293.96 267.00,276.04 267.00,276.04              267.00,276.04 303.00,241.96 303.00,241.96              303.00,241.96 374.00,173.04 374.00,173.04              374.00,173.04 416.00,133.00 416.00,133.00              416.00,133.00 436.00,113.96 436.00,113.96              436.00,113.96 489.00,62.91 489.00,62.91              489.00,62.91 525.00,29.42 525.00,29.42              546.17,12.99 576.89,0.04 604.00,0.00              621.02,-0.03 628.91,-0.75 646.00,3.23              690.29,13.57 731.54,45.86 749.57,88.00              761.55,115.98 761.12,128.24 765.27,157.00              765.27,157.00 778.28,254.00 778.28,254.00              778.28,254.00 802.72,435.00 802.72,435.00              802.72,435.00 821.58,576.00 821.58,576.00              821.58,576.00 838.72,703.00 838.72,703.00              838.72,703.00 845.76,754.00 845.76,754.00              851.35,775.70 865.89,799.56 891.00,798.99              904.98,798.66 917.76,790.03 928.00,781.27              938.16,772.58 947.00,762.75 956.09,753.00              956.09,753.00 976.00,733.00 976.00,733.00              976.00,733.00 1173.00,535.00 1173.00,535.00              1173.00,535.00 868.00,535.00 868.00,535.00              868.00,535.00 863.00,495.00 863.00,495.00              863.00,495.00 1268.00,495.00 1268.00,495.00              1262.20,503.65 1254.33,510.67 1247.00,518.00              1247.00,518.00 1213.00,552.00 1213.00,552.00              1213.00,552.00 1177.04,588.00 1177.04,588.00              1177.04,588.00 1167.99,598.00 1167.99,598.00              1167.99,598.00 1111.00,655.00 1111.00,655.00              1111.00,655.00 1061.00,706.00 1061.00,706.00              1061.00,706.00 996.04,771.00 996.04,771.00              996.04,771.00 969.00,799.00 969.00,799.00              952.24,815.76 940.47,826.75 917.00,833.26              907.39,835.92 900.75,836.02 891.00,836.00              882.21,835.99 873.23,834.32 865.00,831.19              858.30,828.64 851.83,825.45 846.00,821.25              813.60,797.95 811.16,765.03 806.85,729.00              806.85,729.00 800.85,683.00 800.85,683.00              800.85,683.00 795.85,644.00 795.85,644.00              795.85,644.00 778.28,509.00 778.28,509.00              778.28,509.00 753.27,322.00 753.27,322.00              753.27,322.00 735.27,198.00 735.27,198.00              735.27,198.00 726.55,142.00 726.55,142.00              717.81,98.55 687.79,59.62 645.00,45.35              629.24,40.10 621.25,39.81 605.00,40.00              585.18,40.24 562.93,50.86 548.00,63.44              548.00,63.44 529.00,81.91 529.00,81.91              529.00,81.91 474.00,134.96 474.00,134.96              474.00,134.96 451.00,157.00 451.00,157.00              451.00,157.00 438.00,169.04 438.00,169.04              438.00,169.04 419.00,187.96 419.00,187.96              419.00,187.96 410.00,196.04 410.00,196.04              410.00,196.04 391.00,214.96 391.00,214.96              391.00,214.96 355.00,249.04 355.00,249.04              355.00,249.04 336.00,267.96 336.00,267.96              336.00,267.96 217.00,382.04 217.00,382.04              217.00,382.04 170.00,427.96 170.00,427.96              170.00,427.96 134.00,462.04 134.00,462.04              134.00,462.04 115.00,480.96 115.00,480.96              115.00,480.96 100.00,495.00 100.00,495.00              100.00,495.00 722.00,495.00 722.00,495.00              722.00,495.00 728.00,535.00 728.00,535.00              728.00,535.00 0.00,535.00 0.00,535.00 Z" />
</svg>