<svg xmlns="http://www.w3.org/2000/svg" viewBox="-0.5 -0.57 2560 837.07">
  <path id="neuralink-wordmark" fill="#303030" stroke="none" stroke-width="1"
    d="M 0.00,535.00            C 2.42,530.00 14.37,519.63 19.00,515.00              19.00,515.00 36.00,498.96 36.00,498.96              36.00,498.96 54.00,481.04 54.00,481.04              54.00,481.04 65.00,471.00 65.00,471.00              65.00,471.00 143.00,395.96 143.00,395.96              143.00,395.96 187.00,353.04 187.00,353.04              187.00,353.04 231.00,311.00 231.00,311.00              231.00,311.00 249.00,293.96 249.00,293.96              249.00,293.96 267.00,276.04 267.00,276.04              267.00,276.04 303.00,241.96 303.00,241.96              303.00,241.96 374.00,173.04 374.00,173.04              374.00,173.04 416.00,133.00 416.00,133.00              416.00,133.00 436.00,113.96 436.00,113.96              436.00,113.96 489.00,62.91 489.00,62.91              489.00,62.91 525.00,29.42 525.00,29.42              546.17,12.99 576.89,0.04 604.00,0.00              621.02,-0.03 628.91,-0.75 646.00,3.23              690.29,13.57 731.54,45.86 749.57,88.00              761.55,115.98 761.12,128.24 765.27,157.00              765.27,157.00 778.28,254.00 778.28,254.00              778.28,254.00 802.72,435.00 802.72,435.00              802.72,435.00 821.58,576.00 821.58,576.00              821.58,576.00 838.72,703.00 838.72,703.00              838.72,703.00 845.76,754.00 845.76,754.00              851.35,775.70 865.89,799.56 891.00,798.99              904.98,798.66 917.76,790.03 928.00,781.27              938.16,772.58 947.00,762.75 956.09,753.00              956.09,753.00 976.00,733.00 976.00,733.00              976.00,733.00 1173.00,535.00 1173.00,535.00              1173.00,535.00 868.00,535.00 868.00,535.00              868.00,535.00 863.00,495.00 863.00,495.00              863.00,495.00 1268.00,495.00 1268.00,495.00              1262.20,503.65 1254.33,510.67 1247.00,518.00              1247.00,518.00 1213.00,552.00 1213.00,552.00              1213.00,552.00 1177.04,588.00 1177.04,588.00              1177.04,588.00 1167.99,598.00 1167.99,598.00              1167.99,598.00 1111.00,655.00 1111.00,655.00              1111.00,655.00 1061.00,706.00 1061.00,706.00              1061.00,706.00 996.04,771.00 996.04,771.00              996.04,771.00 969.00,799.00 969.00,799.00              952.24,815.76 940.47,826.75 917.00,833.26              907.39,835.92 900.75,836.02 891.00,836.00              882.21,835.99 873.23,834.32 865.00,831.19              858.30,828.64 851.83,825.45 846.00,821.25              813.60,797.95 811.16,765.03 806.85,729.00              806.85,729.00 800.85,683.00 800.85,683.00              800.85,683.00 795.85,644.00 795.85,644.00              795.85,644.00 778.28,509.00 778.28,509.00              778.28,509.00 753.27,322.00 753.27,322.00              753.27,322.00 735.27,198.00 735.27,198.00              735.27,198.00 726.55,142.00 726.55,142.00              717.81,98.55 687.79,59.62 645.00,45.35              629.24,40.10 621.25,39.81 605.00,40.00              585.18,40.24 562.93,50.86 548.00,63.44              548.00,63.44 529.00,81.91 529.00,81.91              529.00,81.91 474.00,134.96 474.00,134.96              474.00,134.96 451.00,157.00 451.00,157.00              451.00,157.00 438.00,169.04 438.00,169.04              438.00,169.04 419.00,187.96 419.00,187.96              419.00,187.96 410.00,196.04 410.00,196.04              410.00,196.04 391.00,214.96 391.00,214.96              391.00,214.96 355.00,249.04 355.00,249.04              355.00,249.04 336.00,267.96 336.00,267.96              336.00,267.96 217.00,382.04 217.00,382.04              217.00,382.04 170.00,427.96 170.00,427.96              170.00,427.96 134.00,462.04 134.00,462.04              134.00,462.04 115.00,480.96 115.00,480.96              115.00,480.96 100.00,495.00 100.00,495.00              100.00,495.00 722.00,495.00 722.00,495.00              722.00,495.00 728.00,535.00 728.00,535.00              728.00,535.00 0.00,535.00 0.00,535.00 Z            M 1193.00,149.00            C 1193.00,149.00 1303.00,149.00 1303.00,149.00              1303.00,149.00 1297.00,183.00 1297.00,183.00              1297.00,183.00 1230.00,183.00 1230.00,183.00              1230.00,183.00 1221.73,184.60 1221.73,184.60              1221.73,184.60 1218.60,195.00 1218.60,195.00              1218.60,195.00 1214.00,220.00 1214.00,220.00              1214.00,220.00 1288.00,220.00 1288.00,220.00              1288.00,220.00 1282.00,253.00 1282.00,253.00              1282.00,253.00 1207.00,253.00 1207.00,253.00              1207.00,253.00 1200.00,292.00 1200.00,292.00              1200.00,292.00 1276.00,292.00 1276.00,292.00              1276.00,292.00 1270.00,326.00 1270.00,326.00              1270.00,326.00 1159.00,326.00 1159.00,326.00              1159.00,326.00 1180.00,217.00 1180.00,217.00              1180.00,217.00 1187.40,179.00 1187.40,179.00              1187.40,179.00 1193.00,149.00 1193.00,149.00 Z            M 959.00,326.00            C 959.00,326.00 967.58,275.00 967.58,275.00              967.58,275.00 982.42,191.00 982.42,191.00              982.42,191.00 987.25,164.00 987.25,164.00              987.25,164.00 990.01,152.60 990.01,152.60              990.01,152.60 996.00,151.00 996.00,151.00              996.00,151.00 1013.00,151.00 1013.00,151.00              1013.00,151.00 1020.59,152.02 1020.59,152.02              1020.59,152.02 1024.60,159.00 1024.60,159.00              1024.60,159.00 1031.60,177.00 1031.60,177.00              1031.60,177.00 1054.60,235.00 1054.60,235.00              1054.60,235.00 1065.00,261.00 1065.00,261.00              1065.00,261.00 1073.42,216.00 1073.42,216.00              1073.42,216.00 1085.00,151.00 1085.00,151.00              1085.00,151.00 1116.00,151.00 1116.00,151.00              1116.00,151.00 1108.42,195.00 1108.42,195.00              1108.42,195.00 1092.25,286.00 1092.25,286.00              1092.25,286.00 1087.25,314.00 1087.25,314.00              1087.25,314.00 1084.26,325.01 1084.26,325.01              1084.26,325.01 1077.00,326.00 1077.00,326.00              1077.00,326.00 1055.00,326.00 1055.00,326.00              1055.00,326.00 1032.20,267.00 1032.20,267.00              1032.20,267.00 1010.00,211.00 1010.00,211.00              1010.00,211.00 1004.42,243.00 1004.42,243.00              1004.42,243.00 996.39,288.00 996.39,288.00              996.39,288.00 990.00,326.00 990.00,326.00              990.00,326.00 959.00,326.00 959.00,326.00 Z            M 1531.00,326.00            C 1531.00,326.00 1557.80,192.00 1557.80,192.00              1557.80,192.00 1563.40,163.00 1563.40,163.00              1563.91,160.44 1564.79,153.53 1566.73,151.99              1568.31,150.74 1572.03,151.00 1574.00,151.00              1574.00,151.00 1636.00,151.00 1636.00,151.00              1656.82,151.03 1676.41,165.22 1680.98,186.00              1681.80,189.71 1683.11,198.35 1682.91,202.00              1681.40,228.71 1666.88,256.54 1638.00,261.00              1638.00,261.00 1660.00,326.00 1660.00,326.00              1660.00,326.00 1630.00,326.00 1630.00,326.00              1627.44,325.99 1623.77,326.37 1621.84,324.40              1620.13,322.66 1618.20,314.75 1617.34,312.00              1617.34,312.00 1607.42,279.00 1607.42,279.00              1603.95,267.14 1604.45,264.16 1596.00,264.00              1596.00,264.00 1578.00,264.00 1578.00,264.00              1578.00,264.00 1566.00,326.00 1566.00,326.00              1566.00,326.00 1531.00,326.00 1531.00,326.00 Z            M 1703.00,327.00            C 1703.00,327.00 1720.75,292.00 1720.75,292.00              1720.75,292.00 1772.24,192.00 1772.24,192.00              1772.24,192.00 1788.14,161.00 1788.14,161.00              1792.47,153.18 1791.63,151.13 1799.00,151.00              1799.00,151.00 1826.00,151.00 1826.00,151.00              1828.31,151.00 1832.25,150.59 1833.83,152.57              1835.21,154.32 1835.85,162.45 1836.15,165.00              1836.15,165.00 1840.00,192.00 1840.00,192.00              1840.00,192.00 1852.73,283.00 1852.73,283.00              1852.73,283.00 1859.00,327.00 1859.00,327.00              1859.00,327.00 1823.00,327.00 1823.00,327.00              1823.00,327.00 1820.00,298.00 1820.00,298.00              1820.00,298.00 1765.00,298.00 1765.00,298.00              1765.00,298.00 1757.39,299.02 1757.39,299.02              1757.39,299.02 1741.61,325.98 1741.61,325.98              1741.61,325.98 1736.00,327.00 1736.00,327.00              1736.00,327.00 1703.00,327.00 1703.00,327.00 Z            M 2108.00,151.00            C 2108.00,151.00 2143.00,151.00 2143.00,151.00              2143.00,151.00 2134.00,198.00 2134.00,198.00              2134.00,198.00 2116.40,286.00 2116.40,286.00              2116.40,286.00 2111.00,313.00 2111.00,313.00              2111.00,313.00 2108.02,324.40 2108.02,324.40              2108.02,324.40 2100.00,326.00 2100.00,326.00              2100.00,326.00 2074.00,326.00 2074.00,326.00              2074.00,326.00 2082.00,283.00 2082.00,283.00              2082.00,283.00 2099.20,197.00 2099.20,197.00              2099.20,197.00 2108.00,151.00 2108.00,151.00 Z            M 2216.00,151.00            C 2216.00,151.00 2240.00,151.00 2240.00,151.00              2240.00,151.00 2247.50,152.02 2247.50,152.02              2247.50,152.02 2251.80,160.00 2251.80,160.00              2251.80,160.00 2258.60,177.00 2258.60,177.00              2258.60,177.00 2280.60,232.00 2280.60,232.00              2280.60,232.00 2293.00,262.00 2293.00,262.00              2293.00,262.00 2298.58,231.00 2298.58,231.00              2298.58,231.00 2308.25,178.00 2308.25,178.00              2308.25,178.00 2313.00,151.00 2313.00,151.00              2313.00,151.00 2345.00,151.00 2345.00,151.00              2345.00,151.00 2320.75,285.00 2320.75,285.00              2320.75,285.00 2315.42,314.00 2315.42,314.00              2313.59,324.17 2314.41,325.87 2307.00,326.00              2307.00,326.00 2291.00,326.00 2291.00,326.00              2288.78,326.00 2285.30,326.22 2283.41,324.98              2281.27,323.56 2279.95,319.37 2279.00,317.00              2279.00,317.00 2271.80,299.00 2271.80,299.00              2271.80,299.00 2248.40,240.00 2248.40,240.00              2248.40,240.00 2237.00,212.00 2237.00,212.00              2237.00,212.00 2226.58,268.00 2226.58,268.00              2226.58,268.00 2216.00,326.00 2216.00,326.00              2216.00,326.00 2184.00,326.00 2184.00,326.00              2184.00,326.00 2195.42,264.00 2195.42,264.00              2195.42,264.00 2216.00,151.00 2216.00,151.00 Z            M 2384.00,326.00            C 2384.00,326.00 2394.21,278.00 2394.21,278.00              2394.21,278.00 2412.21,192.00 2412.21,192.00              2412.21,192.00 2418.35,163.00 2418.35,163.00              2418.35,163.00 2421.73,151.99 2421.73,151.99              2421.73,151.99 2429.00,151.00 2429.00,151.00              2429.00,151.00 2457.00,151.00 2457.00,151.00              2457.00,151.00 2451.60,179.00 2451.60,179.00              2451.60,179.00 2442.00,224.00 2442.00,224.00              2442.00,224.00 2495.00,169.00 2495.00,169.00              2499.18,164.80 2508.29,153.33 2513.00,151.60              2514.94,150.88 2517.91,151.00 2520.00,151.00              2520.00,151.00 2559.00,151.00 2559.00,151.00              2559.00,151.00 2538.00,173.00 2538.00,173.00              2538.00,173.00 2499.00,212.00 2499.00,212.00              2499.00,212.00 2484.00,226.83 2484.00,226.83              2484.00,226.83 2478.24,234.01 2478.24,234.01              2478.24,234.01 2481.70,242.00 2481.70,242.00              2481.70,242.00 2491.58,260.00 2491.58,260.00              2491.58,260.00 2516.25,305.00 2516.25,305.00              2516.25,305.00 2527.00,326.00 2527.00,326.00              2527.00,326.00 2492.00,326.00 2492.00,326.00              2492.00,326.00 2484.63,325.01 2484.63,325.01              2484.63,325.01 2475.75,309.00 2475.75,309.00              2475.75,309.00 2449.00,256.00 2449.00,256.00              2449.00,256.00 2432.93,273.00 2432.93,273.00              2432.93,273.00 2428.58,290.00 2428.58,290.00              2428.58,290.00 2421.00,326.00 2421.00,326.00              2421.00,326.00 2384.00,326.00 2384.00,326.00 Z            M 1354.00,152.00            C 1354.00,152.00 1388.00,152.00 1388.00,152.00              1388.00,152.00 1373.60,228.00 1373.60,228.00              1372.04,235.82 1366.59,260.65 1367.43,267.00              1370.59,290.89 1395.13,303.75 1416.00,291.64              1431.36,282.73 1435.22,264.91 1438.40,249.00              1438.40,249.00 1457.00,152.00 1457.00,152.00              1457.00,152.00 1491.00,152.00 1491.00,152.00              1491.00,152.00 1473.42,243.00 1473.42,243.00              1469.20,266.42 1463.52,293.99 1446.71,311.91              1432.26,327.32 1410.06,331.17 1390.00,329.17              1377.59,327.93 1366.43,325.68 1356.00,318.21              1344.92,310.28 1337.86,298.17 1335.01,285.00              1331.19,267.31 1335.85,249.36 1339.20,232.00              1339.20,232.00 1346.80,191.00 1346.80,191.00              1346.80,191.00 1354.00,152.00 1354.00,152.00 Z            M 1910.00,325.00            C 1910.00,325.00 1918.79,282.00 1918.79,282.00              1918.79,282.00 1938.21,192.00 1938.21,192.00              1938.21,192.00 1944.21,164.00 1944.21,164.00              1944.21,164.00 1947.73,152.99 1947.73,152.99              1947.73,152.99 1955.00,152.00 1955.00,152.00              1955.00,152.00 1984.00,152.00 1984.00,152.00              1984.00,152.00 1954.00,292.00 1954.00,292.00              1954.00,292.00 2024.00,292.00 2024.00,292.00              2024.00,292.00 2018.00,325.00 2018.00,325.00              2018.00,325.00 1910.00,325.00 1910.00,325.00 Z            M 1585.00,230.00            C 1585.00,230.00 1620.00,230.00 1620.00,230.00              1626.43,229.97 1631.70,229.08 1636.91,224.95              1647.39,216.63 1650.58,198.72 1639.96,189.21              1634.87,184.66 1629.51,184.03 1623.00,184.00              1623.00,184.00 1594.00,184.00 1594.00,184.00              1594.00,184.00 1585.00,230.00 1585.00,230.00 Z            M 1808.00,192.00            C 1808.00,192.00 1788.69,230.00 1788.69,230.00              1788.69,230.00 1772.00,264.00 1772.00,264.00              1772.00,264.00 1817.00,264.00 1817.00,264.00              1817.00,264.00 1811.28,217.00 1811.28,217.00              1811.28,217.00 1808.00,192.00 1808.00,192.00 Z" />
</svg>