<svg xmlns="http://www.w3.org/2000/svg" viewBox="-0.5 -0.51 1577.03 319.02">
  <path id="nextjs-wordmark" fill="#303030" stroke="none" stroke-width="1"
    d="M 0.00,0.00            C 0.00,0.00 61.00,0.00 61.00,0.00              63.02,0.00 66.11,-0.12 67.96,0.60              72.01,2.16 81.20,15.00 84.40,19.00              84.40,19.00 129.60,75.00 129.60,75.00              129.60,75.00 264.00,242.00 264.00,242.00              264.00,242.00 301.80,289.00 301.80,289.00              301.80,289.00 321.00,313.00 321.00,313.00              321.00,313.00 321.00,0.00 321.00,0.00              321.00,0.00 597.00,0.00 597.00,0.00              597.00,0.00 597.00,51.00 597.00,51.00              597.00,51.00 377.00,51.00 377.00,51.00              377.00,51.00 377.00,132.00 377.00,132.00              377.00,132.00 554.00,132.00 554.00,132.00              554.00,132.00 554.00,183.00 554.00,183.00              554.00,183.00 377.00,183.00 377.00,183.00              377.00,183.00 377.00,266.00 377.00,266.00              377.00,266.00 597.00,266.00 597.00,266.00              597.00,266.00 597.00,318.00 597.00,318.00              597.00,318.00 263.00,318.00 263.00,318.00              260.95,318.00 257.90,318.11 256.01,317.40              251.88,315.84 244.85,305.81 241.80,302.00              241.80,302.00 206.40,258.00 206.40,258.00              206.40,258.00 115.40,145.00 115.40,145.00              115.40,145.00 79.20,100.00 79.20,100.00              79.20,100.00 55.00,70.00 55.00,70.00              55.00,70.00 55.00,318.00 55.00,318.00              55.00,318.00 0.00,318.00 0.00,318.00              0.00,318.00 0.00,0.00 0.00,0.00 Z            M 662.00,0.00            C 662.00,0.00 726.00,0.00 726.00,0.00              726.00,0.00 733.91,1.02 733.91,1.02              733.91,1.02 742.20,10.00 742.20,10.00              742.20,10.00 755.92,27.00 755.92,27.00              755.92,27.00 826.00,114.00 826.00,114.00              826.00,114.00 849.00,84.00 849.00,84.00              849.00,84.00 895.80,26.00 895.80,26.00              895.80,26.00 909.40,9.00 909.40,9.00              909.40,9.00 917.04,1.02 917.04,1.02              917.04,1.02 925.00,0.00 925.00,0.00              925.00,0.00 989.00,0.00 989.00,0.00              989.00,0.00 957.80,40.00 957.80,40.00              957.80,40.00 896.75,116.00 896.75,116.00              896.75,116.00 872.60,146.00 872.60,146.00              872.60,146.00 863.87,159.00 863.87,159.00              863.87,159.00 871.80,171.00 871.80,171.00              871.80,171.00 896.00,201.00 896.00,201.00              896.00,201.00 959.60,280.00 959.60,280.00              959.60,280.00 979.00,304.00 979.00,304.00              979.00,304.00 989.00,318.00 989.00,318.00              989.00,318.00 925.00,318.00 925.00,318.00              922.95,318.00 919.90,318.11 918.01,317.40              913.74,315.79 905.43,304.04 902.08,300.00              902.08,300.00 857.80,245.00 857.80,245.00              857.80,245.00 722.60,77.00 722.60,77.00              722.60,77.00 681.60,26.00 681.60,26.00              676.67,19.84 664.84,6.30 662.00,0.00 Z            M 1047.00,0.00            C 1047.00,0.00 1323.00,0.00 1323.00,0.00              1323.00,0.00 1323.00,51.00 1323.00,51.00              1323.00,51.00 1214.00,51.00 1214.00,51.00              1214.00,51.00 1214.00,318.00 1214.00,318.00              1214.00,318.00 1158.00,318.00 1158.00,318.00              1158.00,318.00 1158.00,51.00 1158.00,51.00              1158.00,51.00 1047.00,51.00 1047.00,51.00              1047.00,51.00 1047.00,0.00 1047.00,0.00 Z            M 1473.00,275.00            C 1473.00,275.00 1490.00,275.00 1490.00,275.00              1491.91,275.01 1494.85,274.85 1496.44,276.02              1498.09,277.23 1499.00,280.93 1500.22,283.00              1502.54,286.91 1505.93,289.88 1510.00,291.86              1519.78,296.64 1533.91,296.02 1542.99,289.89              1549.46,285.53 1553.84,277.05 1548.57,270.02              1543.11,262.72 1532.40,260.23 1524.00,258.13              1502.96,252.87 1476.55,246.84 1476.02,220.00              1475.91,214.49 1476.77,210.16 1478.71,205.00              1489.36,176.58 1538.43,172.90 1560.00,189.53              1571.36,198.28 1572.65,204.96 1575.00,218.00              1569.83,219.47 1564.35,219.01 1559.00,219.00              1556.90,219.00 1553.29,219.24 1551.56,217.98              1549.01,216.13 1549.51,211.18 1542.00,205.56              1534.00,199.56 1519.52,199.39 1511.00,204.36              1505.80,207.39 1501.41,212.63 1502.23,219.00              1503.65,230.16 1518.89,233.85 1528.00,236.13              1548.34,241.22 1575.68,247.81 1576.00,274.00              1576.10,282.63 1576.20,288.25 1571.52,296.00              1563.83,308.75 1547.54,315.83 1533.00,316.00              1533.00,316.00 1518.00,316.00 1518.00,316.00              1493.55,315.71 1473.08,300.70 1473.00,275.00 Z            M 1427.00,181.00            C 1427.00,181.00 1452.00,181.00 1452.00,181.00              1452.00,181.00 1452.00,258.00 1452.00,258.00              1452.00,272.29 1453.67,286.47 1445.25,299.00              1435.00,314.26 1420.87,316.19 1404.00,316.00              1392.05,315.86 1379.86,310.61 1372.53,301.00              1367.60,294.54 1366.07,285.94 1366.00,278.00              1366.00,278.00 1391.00,278.00 1391.00,278.00              1391.39,280.74 1391.78,283.53 1393.14,286.00              1398.70,296.19 1412.30,298.90 1420.89,290.79              1426.37,285.63 1426.99,278.06 1427.00,271.00              1427.00,271.00 1427.00,181.00 1427.00,181.00 Z            M 770.00,182.00            C 776.01,186.51 792.26,207.83 798.00,215.00              800.01,217.51 805.92,223.96 805.86,227.00              805.81,229.35 803.21,232.21 801.80,234.00              801.80,234.00 789.60,249.00 789.60,249.00              789.60,249.00 747.80,301.00 747.80,301.00              744.77,304.79 736.94,315.87 732.96,317.40              731.11,318.12 728.02,318.00 726.00,318.00              726.00,318.00 661.00,318.00 661.00,318.00              661.00,318.00 697.60,272.00 697.60,272.00              697.60,272.00 770.00,182.00 770.00,182.00 Z            M 1329.00,287.65            C 1332.85,286.85 1337.34,286.53 1341.00,288.31              1355.48,295.40 1349.12,317.42 1333.00,315.80              1317.71,314.27 1314.76,293.68 1329.00,287.65 Z" />
</svg>