<svg xmlns="http://www.w3.org/2000/svg" viewBox="-0.63 -0.29 721.5 720.79">
  <path id="nextjs" fill="#303030" stroke="none" stroke-width="1"
    d="M 334.00,0.21            C 334.00,0.21 378.00,0.21 378.00,0.21              378.00,0.21 390.00,0.91 390.00,0.91              429.81,3.69 468.41,13.93 505.00,29.72              543.05,46.14 581.71,71.71 611.00,101.00              644.37,134.37 669.87,168.72 689.14,212.00              745.26,338.05 724.93,488.89 634.72,594.00              606.16,627.27 573.11,654.04 535.00,675.58              491.62,700.09 439.67,715.62 390.00,719.09              390.00,719.09 378.00,720.00 378.00,720.00              378.00,720.00 340.00,720.00 340.00,720.00              340.00,720.00 330.00,719.09 330.00,719.09              298.29,716.87 266.85,709.97 237.00,699.05              192.23,682.68 152.40,658.85 117.00,626.83              59.30,574.63 19.23,502.56 5.42,426.00              -0.36,393.91 -0.37,372.22 0.00,340.00              0.00,340.00 0.91,330.00 0.91,330.00              3.32,295.49 11.31,261.26 23.81,229.00              61.77,131.02 141.18,54.86 240.00,19.69              262.54,11.67 290.24,5.24 314.00,2.28              314.00,2.28 334.00,0.21 334.00,0.21 Z            M 595.00,628.00            C 593.60,622.34 590.80,619.57 587.37,615.00              587.37,615.00 571.12,594.00 571.12,594.00              571.12,594.00 512.88,519.00 512.88,519.00              512.88,519.00 334.35,289.00 334.35,289.00              334.35,289.00 291.63,234.00 291.63,234.00              288.97,230.48 280.04,217.97 276.71,216.57              275.03,215.87 271.87,216.00 270.00,216.00              270.00,216.00 216.00,216.00 216.00,216.00              216.00,216.00 216.00,504.00 216.00,504.00              216.00,504.00 265.00,504.00 265.00,504.00              265.00,504.00 265.00,280.00 265.00,280.00              265.00,280.00 295.42,319.00 295.42,319.00              295.42,319.00 359.65,402.00 359.65,402.00              359.65,402.00 494.37,576.00 494.37,576.00              494.37,576.00 540.12,635.00 540.12,635.00              540.12,635.00 551.66,650.00 551.66,650.00              553.15,651.85 555.59,654.95 557.97,655.55              560.73,656.25 564.88,652.19 567.00,650.53              571.93,646.66 587.61,634.61 590.00,630.00              590.00,630.00 592.00,631.00 592.00,631.00              592.00,631.00 595.00,628.00 595.00,628.00 Z            M 508.00,216.00            C 508.00,216.00 460.00,216.00 460.00,216.00              460.00,216.00 460.00,427.00 460.00,427.00              460.00,427.00 508.00,427.00 508.00,427.00              508.00,427.00 508.00,216.00 508.00,216.00 Z" />
</svg>