<svg xmlns="http://www.w3.org/2000/svg" viewBox="12.5 93.5 575 213">
  <path id="ngrok" fill="#303030" stroke="none" stroke-width="1"
    d="M 466.00,94.00            C 466.00,94.00 502.00,94.00 502.00,94.00              502.00,94.00 502.00,190.00 502.00,190.00              502.00,190.00 524.00,168.00 524.00,168.00              531.23,160.81 534.48,156.02 545.00,156.00              545.00,156.00 585.00,156.00 585.00,156.00              582.00,162.35 577.94,164.49 573.00,169.09              573.00,169.09 552.00,188.72 552.00,188.72              549.24,191.15 540.05,198.43 540.04,202.00              540.04,204.89 549.64,214.61 552.00,217.00              552.00,217.00 577.00,242.00 577.00,242.00              581.51,246.51 585.94,249.47 587.00,256.00              587.00,256.00 547.00,256.00 547.00,256.00              535.08,255.98 534.65,251.04 526.96,243.00              526.96,243.00 502.00,217.00 502.00,217.00              502.00,217.00 502.00,256.00 502.00,256.00              502.00,256.00 466.00,256.00 466.00,256.00              466.00,256.00 466.00,94.00 466.00,94.00 Z            M 387.00,152.43            C 406.02,150.08 428.07,155.25 441.91,169.09              463.68,190.86 460.06,228.93 436.00,247.47              421.76,258.45 406.04,259.20 389.00,259.00              348.42,258.52 322.60,214.23 342.88,179.00              352.25,162.72 369.32,155.32 387.00,152.43 Z            M 209.00,246.00            C 197.94,253.38 195.81,256.02 182.00,257.71              175.77,258.48 164.84,256.82 159.00,254.54              109.71,235.27 123.81,153.63 177.00,153.00              190.89,152.84 198.59,155.53 209.00,165.00              209.00,165.00 209.00,156.00 209.00,156.00              209.00,156.00 245.00,156.00 245.00,156.00              245.00,156.00 245.00,306.00 245.00,306.00              245.00,306.00 151.00,306.00 151.00,306.00              151.30,297.31 155.30,295.18 160.72,289.00              163.69,285.61 172.70,274.69 176.00,273.02              178.40,271.81 181.37,272.01 184.00,272.00              184.00,272.00 209.00,272.00 209.00,272.00              209.00,272.00 209.00,246.00 209.00,246.00 Z            M 13.00,156.00            C 13.00,156.00 49.00,156.00 49.00,156.00              49.00,156.00 49.00,172.00 49.00,172.00              52.14,168.79 61.03,157.88 64.17,156.60              65.95,155.87 69.05,156.00 71.00,156.00              71.00,156.00 88.00,156.00 88.00,156.00              107.26,156.24 118.78,171.76 119.00,190.00              119.00,190.00 119.00,256.00 119.00,256.00              119.00,256.00 83.00,256.00 83.00,256.00              83.00,256.00 83.00,189.00 83.00,189.00              83.00,189.00 49.00,189.00 49.00,189.00              49.00,189.00 49.00,256.00 49.00,256.00              49.00,256.00 13.00,256.00 13.00,256.00              13.00,256.00 13.00,156.00 13.00,156.00 Z            M 258.00,156.00            C 258.00,156.00 294.00,156.00 294.00,156.00              294.00,156.00 294.00,171.00 294.00,171.00              294.00,171.00 308.00,157.02 308.00,157.02              308.00,157.02 321.00,156.00 321.00,156.00              321.00,156.00 347.00,156.00 347.00,156.00              345.42,161.42 341.74,164.90 338.00,169.00              334.30,173.05 323.90,186.02 320.00,187.98              318.01,188.98 316.16,188.96 314.00,189.00              314.00,189.00 294.00,189.00 294.00,189.00              294.00,189.00 294.00,256.00 294.00,256.00              294.00,256.00 258.00,256.00 258.00,256.00              258.00,256.00 258.00,156.00 258.00,156.00 Z            M 186.00,183.31            C 179.90,184.47 174.47,186.92 170.64,192.04              158.87,207.75 171.27,229.80 191.00,227.20              218.73,223.55 215.22,181.65 186.00,183.31 Z            M 394.00,183.31            C 383.20,185.36 374.90,192.50 374.10,204.00              373.20,216.90 384.79,229.27 398.00,227.69              426.88,224.22 423.54,181.63 394.00,183.31 Z" />
</svg>