<svg xmlns="http://www.w3.org/2000/svg" viewBox="-0.5 -0.5 2561 912">
  <path id="nike" fill="#303030" stroke="none" stroke-width="1"
    d="M 369.00,0.00            C 369.61,4.64 364.23,11.92 361.80,16.00              361.80,16.00 342.31,51.00 342.31,51.00              342.31,51.00 330.69,75.00 330.69,75.00              315.63,107.80 302.14,140.38 291.72,175.00              283.40,202.63 276.01,238.27 273.91,267.00              273.91,267.00 272.96,278.00 272.96,278.00              272.96,278.00 272.96,288.00 272.96,288.00              272.65,291.87 271.85,293.71 272.09,298.00              272.09,298.00 273.00,309.00 273.00,309.00              273.00,309.00 273.00,314.00 273.00,314.00              273.00,314.00 275.58,338.00 275.58,338.00              280.91,373.94 293.58,407.58 315.15,437.00              326.30,452.19 341.39,467.85 356.00,479.74              372.77,493.38 391.94,503.85 412.00,511.80              446.09,525.29 484.57,530.58 521.00,531.00              521.00,531.00 535.00,531.96 535.00,531.96              535.00,531.96 548.00,531.00 548.00,531.00              548.00,531.00 592.00,528.17 592.00,528.17              659.68,521.40 710.25,505.90 775.00,488.88              775.00,488.88 1069.00,410.88 1069.00,410.88              1069.00,410.88 2047.00,151.12 2047.00,151.12              2047.00,151.12 2288.00,86.88 2288.00,86.88              2288.00,86.88 2413.00,53.85 2413.00,53.85              2413.00,53.85 2514.00,27.00 2514.00,27.00              2514.00,27.00 2545.00,18.85 2545.00,18.85              2549.48,17.64 2555.45,15.09 2560.00,16.00              2560.00,16.00 2505.00,39.85 2505.00,39.85              2505.00,39.85 2394.00,87.42 2394.00,87.42              2394.00,87.42 2068.00,226.85 2068.00,226.85              2068.00,226.85 1418.00,504.85 1418.00,504.85              1418.00,504.85 1101.00,640.42 1101.00,640.42              1101.00,640.42 957.00,702.15 957.00,702.15              957.00,702.15 775.00,779.85 775.00,779.85              671.44,824.30 588.50,860.75 478.00,888.37              449.93,895.39 421.63,901.05 393.00,905.27              393.00,905.27 340.00,911.00 340.00,911.00              340.00,911.00 264.00,911.00 264.00,911.00              249.96,910.83 219.07,905.39 205.00,901.87              166.10,892.15 132.35,878.33 100.00,854.11              90.32,846.86 81.53,838.54 73.00,830.00              36.32,793.32 14.93,752.66 4.80,702.00              2.97,692.84 0.11,673.01 0.00,664.00              0.00,664.00 0.00,625.00 0.00,625.00              0.02,609.27 3.73,584.79 6.58,569.00              12.88,534.06 23.06,500.19 35.58,467.00              81.34,345.69 162.17,236.00 245.73,138.00              245.73,138.00 326.83,46.00 326.83,46.00              326.83,46.00 369.00,0.00 369.00,0.00 Z" />
</svg>