<svg xmlns="http://www.w3.org/2000/svg" viewBox="-0.5 -0.27 1281 783.79">
  <path id="Selection" fill="#303030" stroke="none" stroke-width="1" d="M 857.11,0.74            C 864.18,-1.02 868.00,2.04 874.00,5.42              874.00,5.42 897.00,18.30 897.00,18.30              897.00,18.30 922.00,32.23 922.00,32.23              929.39,36.25 941.78,41.52 944.35,50.00              945.11,52.49 945.00,55.41 945.00,58.00              945.00,58.00 945.00,167.00 945.00,167.00              945.00,167.00 945.00,404.00 945.00,404.00              945.00,407.02 945.15,410.14 943.99,413.00              940.68,421.16 923.76,428.58 916.00,433.20              916.00,433.20 849.00,471.85 849.00,471.85              849.00,471.85 815.00,491.20 815.00,491.20              804.37,496.00 796.95,489.96 788.00,484.85              788.00,484.85 732.00,452.42 732.00,452.42              732.00,452.42 691.00,428.85 691.00,428.85              686.12,426.06 674.86,420.27 672.01,415.91              669.22,411.64 669.01,404.95 669.00,400.00              669.00,400.00 669.00,272.00 669.00,272.00              669.01,266.90 669.14,261.50 672.00,257.04              675.04,252.31 689.50,244.85 695.00,241.72              695.00,241.72 750.00,210.00 750.00,210.00              750.00,210.00 789.00,187.58 789.00,187.58              796.44,183.26 801.81,178.58 811.00,180.34              818.09,181.69 841.95,197.96 846.00,198.86              852.97,200.43 852.99,191.42 853.00,187.00              853.00,187.00 853.00,47.00 853.00,47.00              853.00,47.00 853.00,11.00 853.00,11.00              853.03,6.01 852.58,3.61 857.11,0.74 Z            M 134.00,176.53            C 143.29,175.10 149.26,180.14 157.00,184.58              157.00,184.58 198.00,208.20 198.00,208.20              198.00,208.20 254.00,240.42 254.00,240.42              266.32,247.49 274.97,249.12 275.00,265.00              275.00,265.00 275.00,446.00 275.00,446.00              274.99,451.98 274.29,460.06 266.00,459.29              261.82,458.90 248.39,450.53 244.00,448.00              244.00,448.00 202.00,423.85 202.00,423.85              190.08,417.04 183.02,416.11 183.00,401.00              183.00,401.00 183.00,322.00 183.00,322.00              182.99,317.12 183.04,313.46 180.59,309.00              176.60,301.77 161.45,294.90 154.00,290.58              148.81,287.56 142.21,282.46 136.00,283.23              130.63,283.89 117.30,292.50 112.00,295.58              100.00,302.54 92.03,304.40 92.00,320.00              92.00,320.00 92.00,400.00 92.00,400.00              91.97,415.67 84.23,417.33 72.00,424.28              72.00,424.28 32.00,447.20 32.00,447.20              27.67,449.78 13.02,458.77 9.00,459.38              0.53,460.66 0.01,453.08 0.00,447.00              0.00,447.00 0.00,264.00 0.00,264.00              0.01,260.43 -0.22,257.29 1.57,254.04              4.90,247.98 23.28,239.01 30.00,235.15              30.00,235.15 97.00,196.58 97.00,196.58              105.76,191.56 125.58,179.02 134.00,176.53 Z            M 1138.00,178.51            C 1141.05,178.02 1143.91,177.72 1147.00,178.51              1151.86,179.44 1168.69,189.87 1174.00,192.99              1174.00,192.99 1252.00,238.20 1252.00,238.20              1259.27,242.53 1274.91,249.76 1278.55,257.00              1279.93,259.75 1279.96,262.02 1280.00,265.00              1280.00,265.00 1280.00,294.00 1280.00,294.00              1279.99,298.23 1280.13,302.18 1277.91,305.99              1274.95,311.06 1268.89,313.70 1264.00,316.60              1264.00,316.60 1236.00,332.85 1236.00,332.85              1236.00,332.85 1211.00,347.42 1211.00,347.42              1208.14,349.06 1200.70,353.58 1198.00,354.35              1188.36,357.11 1187.01,349.14 1187.00,342.00              1187.00,342.00 1187.00,318.00 1187.00,318.00              1186.98,314.83 1187.14,311.86 1185.26,309.10              1183.18,306.05 1178.23,303.56 1175.00,301.72              1175.00,301.72 1156.00,290.72 1156.00,290.72              1153.19,289.12 1145.76,284.53 1143.00,284.06              1138.92,283.37 1131.60,288.47 1128.00,290.60              1128.00,290.60 1108.00,302.15 1108.00,302.15              1104.60,304.10 1099.90,306.46 1098.02,310.04              1096.81,312.35 1097.01,315.44 1097.00,318.00              1097.00,318.00 1097.00,353.00 1097.00,353.00              1097.04,355.07 1097.02,357.07 1098.02,358.96              1100.42,363.49 1115.87,371.23 1121.00,374.15              1121.00,374.15 1199.00,419.00 1199.00,419.00              1199.00,419.00 1219.00,430.42 1219.00,430.42              1222.61,432.55 1226.12,434.45 1226.76,439.00              1227.91,447.19 1215.93,451.55 1210.00,454.86              1210.00,454.86 1164.00,480.42 1164.00,480.42              1157.70,483.98 1148.26,490.52 1141.00,489.80              1135.78,489.29 1130.49,485.83 1126.00,483.28              1126.00,483.28 1105.00,471.42 1105.00,471.42              1105.00,471.42 1031.00,429.15 1031.00,429.15              1023.93,425.12 1010.24,419.26 1006.77,412.00              1004.93,408.16 1005.01,404.13 1005.00,400.00              1005.00,400.00 1005.00,269.00 1005.00,269.00              1005.01,264.47 1004.94,260.09 1007.28,256.02              1010.69,250.07 1028.35,241.23 1035.00,237.42              1035.00,237.42 1104.00,197.58 1104.00,197.58              1104.00,197.58 1138.00,178.51 1138.00,178.51 Z            M 467.00,179.55            C 479.31,177.41 483.90,182.54 494.00,188.28              494.00,188.28 539.00,214.20 539.00,214.20              539.00,214.20 590.00,243.60 590.00,243.60              601.79,250.59 608.98,251.76 609.00,267.00              609.00,267.00 609.00,402.00 609.00,402.00              608.97,417.63 600.27,419.39 588.00,426.42              588.00,426.42 529.00,460.42 529.00,460.42              529.00,460.42 492.00,481.85 492.00,481.85              484.77,485.98 479.67,490.41 471.00,489.96              464.09,489.60 457.82,484.80 452.00,481.42              452.00,481.42 417.00,461.28 417.00,461.28              417.00,461.28 357.00,426.60 357.00,426.60              351.37,423.27 340.54,418.44 337.41,412.96              334.98,408.69 335.01,404.72 335.00,400.00              335.00,400.00 335.00,269.00 335.00,269.00              335.01,263.96 335.04,259.47 337.99,255.09              341.36,250.09 357.97,241.79 364.00,238.20              364.00,238.20 431.00,199.58 431.00,199.58              431.00,199.58 467.00,179.55 467.00,179.55 Z            M 806.00,285.49            C 799.64,287.22 783.71,297.46 777.00,301.28              774.28,302.82 765.21,307.71 763.60,309.61              761.65,311.90 762.01,315.18 762.00,318.00              762.00,318.00 762.00,356.00 762.00,356.00              762.01,358.04 761.84,360.70 762.99,362.47              764.33,364.54 768.78,366.71 771.00,368.01              771.00,368.01 789.00,378.42 789.00,378.42              793.09,380.77 803.76,388.06 808.00,387.48              810.91,387.08 819.09,381.93 822.00,380.20              822.00,380.20 842.00,368.72 842.00,368.72              844.34,367.39 849.62,364.61 851.01,362.47              852.24,360.56 852.00,357.24 852.00,355.00              852.00,355.00 852.00,318.00 852.00,318.00              851.99,315.18 852.35,311.90 850.40,309.61              848.82,307.75 841.51,303.86 839.00,302.42              839.00,302.42 819.00,290.85 819.00,290.85              814.55,288.31 811.24,285.60 806.00,285.49 Z            M 1141.00,303.91            C 1147.15,303.30 1157.46,310.88 1163.00,314.15              1165.69,315.75 1168.02,316.97 1169.26,320.04              1170.44,322.96 1170.01,336.04 1170.00,340.00              1170.00,342.72 1170.22,346.40 1168.83,348.79              1167.44,351.16 1164.32,352.81 1162.00,354.15              1158.80,356.00 1147.75,362.60 1145.00,363.34              1140.04,364.68 1136.04,361.38 1132.00,359.01              1128.89,357.18 1118.59,351.94 1116.99,349.47              1115.76,347.57 1116.00,344.23 1116.00,342.00              1116.00,342.00 1116.00,326.00 1116.00,326.00              1116.00,323.69 1115.78,320.37 1117.02,318.38              1118.27,316.39 1121.95,314.43 1124.00,313.20              1128.67,310.41 1136.17,305.85 1141.00,303.91 Z            M 626.00,468.53            C 640.97,466.08 648.71,472.48 661.00,479.80              661.00,479.80 690.00,496.58 690.00,496.58              690.00,496.58 743.00,527.15 743.00,527.15              760.02,536.87 772.97,540.58 773.00,563.00              773.00,563.00 773.00,688.00 773.00,688.00              772.97,707.97 765.57,711.17 750.00,720.40              750.00,720.40 672.00,765.42 672.00,765.42              665.65,769.06 645.66,781.39 640.00,782.80              637.62,783.13 632.61,783.03 630.00,782.80              627.45,782.97 625.48,782.96 623.00,782.15              623.00,782.15 590.00,763.28 590.00,763.28              587.47,761.84 577.27,757.17 579.17,753.46              580.13,751.57 585.94,749.64 588.00,748.69              591.83,746.94 596.71,743.66 601.00,744.46              604.44,745.10 619.70,754.84 624.00,757.28              626.55,758.73 630.01,761.16 633.00,760.97              635.82,760.80 640.50,757.69 643.00,756.20              643.00,756.20 660.00,746.42 660.00,746.42              660.00,746.42 727.00,707.72 727.00,707.72              731.72,705.04 747.82,696.81 749.98,692.90              751.20,690.69 751.00,687.48 751.00,685.00              751.00,685.00 751.00,567.00 751.00,567.00              750.99,564.46 751.19,561.33 749.98,559.04              747.59,554.54 733.93,547.89 729.00,544.99              729.00,544.99 660.00,505.15 660.00,505.15              660.00,505.15 640.00,493.58 640.00,493.58              637.68,492.25 634.48,489.85 631.72,490.31              631.72,490.31 611.00,501.72 611.00,501.72              611.00,501.72 564.00,528.85 564.00,528.85              564.00,528.85 529.00,549.00 529.00,549.00              519.28,554.59 514.02,554.97 514.00,567.00              514.00,567.00 514.00,685.00 514.00,685.00              514.02,696.08 515.58,694.47 531.00,703.60              540.60,709.29 557.33,722.01 567.96,712.77              570.00,711.00 571.97,708.52 572.99,706.00              574.15,703.14 574.00,700.03 574.00,697.00              574.00,697.00 574.00,597.00 574.00,597.00              574.00,597.00 574.00,575.00 574.00,575.00              574.01,573.18 573.85,570.08 575.02,568.60              576.59,566.62 580.70,567.00 583.00,567.00              583.00,567.00 589.00,567.00 589.00,567.00              596.49,567.14 595.99,569.26 596.00,576.00              596.00,576.00 596.00,704.00 596.00,704.00              595.99,709.79 595.83,712.39 593.96,718.00              592.78,721.53 591.02,725.10 588.62,727.96              583.89,733.61 577.12,736.66 570.00,737.92              549.42,741.56 537.04,732.98 520.00,723.28              503.53,713.90 492.03,710.41 492.00,689.00              492.00,689.00 492.00,562.00 492.00,562.00              492.03,540.27 503.84,537.83 520.00,528.20              520.00,528.20 587.00,489.58 587.00,489.58              595.88,484.49 617.74,470.97 626.00,468.53 Z            M 809.00,529.33            C 810.94,529.21 812.00,529.02 814.00,529.33              838.68,531.23 842.56,564.35 821.00,573.07              817.89,574.33 814.36,575.09 811.00,574.81              797.05,573.66 789.64,563.39 790.02,550.00              790.09,547.23 790.25,545.60 791.36,543.00              794.95,534.63 800.51,531.35 809.00,529.33 Z            M 808.00,534.39            C 786.82,541.03 791.93,568.57 811.00,569.90              830.93,571.30 838.02,544.18 820.00,535.57              816.20,533.75 812.06,533.84 808.00,534.39 Z            M 804.00,539.00            C 810.70,539.00 825.34,537.21 821.28,549.00              820.69,550.69 819.94,551.57 819.00,553.00              819.00,553.00 823.00,565.00 823.00,565.00              823.00,565.00 816.00,565.00 816.00,565.00              816.00,565.00 815.00,555.00 815.00,555.00              815.00,555.00 809.00,555.00 809.00,555.00              809.00,555.00 809.00,565.00 809.00,565.00              809.00,565.00 804.00,565.00 804.00,565.00              804.00,565.00 804.00,539.00 804.00,539.00 Z            M 809.00,550.00            C 816.77,549.36 818.06,544.32 809.00,544.00              809.00,544.00 809.00,550.00 809.00,550.00 Z            M 656.00,563.42            C 671.93,561.48 697.80,565.07 709.91,576.30              716.07,582.01 719.26,589.89 720.74,598.00              721.18,600.44 722.06,604.38 720.22,606.40              718.12,608.71 709.17,608.05 706.00,608.00              693.99,607.77 701.52,599.29 689.96,590.64              681.20,584.07 670.26,584.98 660.00,585.00              653.03,585.01 644.72,585.81 639.19,590.55              635.06,594.09 632.68,599.92 636.01,604.81              640.02,610.71 653.28,612.33 660.00,613.41              676.85,616.12 699.47,617.34 714.00,626.47              726.96,634.61 728.96,654.98 723.10,668.00              720.87,672.95 717.23,677.14 713.00,680.48              698.31,692.09 678.77,692.20 661.00,692.00              645.12,691.81 626.05,687.25 615.18,675.00              609.88,669.01 607.20,661.97 607.01,654.00              606.96,651.73 606.62,647.71 608.57,646.17              610.60,644.57 618.24,644.95 621.00,645.00              633.93,645.24 625.80,654.03 637.04,663.66              644.75,670.26 660.18,671.05 670.00,671.00              677.66,670.96 689.92,669.50 695.98,664.61              702.18,659.62 704.66,651.15 697.89,645.42              692.59,640.92 678.02,638.74 671.00,637.95              657.00,636.38 636.02,634.79 624.00,627.52              606.21,616.76 606.02,588.66 621.09,575.47              631.81,566.08 642.85,565.30 656.00,563.42 Z"/>
</svg>