<svg xmlns="http://www.w3.org/2000/svg" viewBox="162.35 187.5 200.79 224.25">
  <path id="nodemon-alt" fill="#303030" stroke="none" stroke-width="1"
    d="M 166.02,188.00            C 166.02,188.00 175.20,204.00 175.20,204.00              180.75,213.11 188.66,222.03 198.00,227.32              203.26,230.30 210.95,233.16 217.00,231.35              217.00,231.35 247.00,214.58 247.00,214.58              251.87,211.79 257.20,208.22 263.00,208.13              267.91,208.06 272.82,211.60 277.00,214.00              277.00,214.00 308.00,231.35 308.00,231.35              313.55,232.99 321.10,230.13 326.00,227.51              336.00,222.16 345.01,211.55 350.94,202.00              350.94,202.00 359.00,188.00 359.00,188.00              363.36,201.20 363.82,221.58 360.27,235.00              359.09,239.43 357.65,243.85 355.68,248.00              355.02,249.39 352.64,253.34 352.59,254.54              352.44,257.78 357.69,259.03 359.88,263.09              360.89,265.68 360.01,272.66 359.88,276.00              359.88,276.00 359.88,400.00 359.88,400.00              359.99,403.97 360.46,410.75 354.96,411.23              351.46,411.54 341.53,405.15 338.00,403.23              338.00,403.23 310.00,387.30 310.00,387.30              306.01,385.11 298.50,381.49 296.01,377.82              293.77,374.53 294.01,370.78 294.00,367.00              294.00,367.00 294.00,313.00 294.00,313.00              294.00,310.57 294.13,307.26 293.26,305.00              291.06,299.30 280.34,293.91 275.00,290.85              271.38,288.77 266.17,285.21 262.00,285.21              257.62,285.21 252.72,288.81 249.00,290.99              243.51,294.21 233.06,298.99 230.74,305.00              229.87,307.26 230.00,310.57 230.00,313.00              230.00,313.00 230.00,367.00 230.00,367.00              229.99,370.78 230.23,374.53 227.99,377.82              225.63,381.29 218.76,384.71 215.00,386.85              215.00,386.85 187.00,402.72 187.00,402.72              183.26,404.85 172.88,411.75 169.04,411.22              163.50,410.45 164.01,404.15 164.00,400.00              164.00,400.00 164.00,294.00 164.00,294.00              164.00,287.81 163.01,268.63 165.45,264.09              167.31,260.63 170.54,258.56 174.00,257.00              170.74,250.22 168.34,246.57 166.02,239.00              161.82,225.13 161.76,201.86 166.02,188.00 Z" />
</svg>