<svg xmlns="http://www.w3.org/2000/svg" viewBox="415.5 207.71 3265 3680.79">
  <path id="node-js" fill="#303030" stroke="none" stroke-width="1"
    d="M 2023.00,208.21            C 2023.00,208.21 2065.00,208.21 2065.00,208.21              2065.00,208.21 2085.00,209.85 2085.00,209.85              2116.93,213.66 2144.79,221.90 2174.00,235.31              2174.00,235.31 2219.00,260.58 2219.00,260.58              2219.00,260.58 2285.00,298.72 2285.00,298.72              2285.00,298.72 2444.00,390.58 2444.00,390.58              2444.00,390.58 2721.00,550.58 2721.00,550.58              2721.00,550.58 3126.00,784.42 3126.00,784.42              3126.00,784.42 3332.00,903.42 3332.00,903.42              3332.00,903.42 3431.00,960.72 3431.00,960.72              3431.00,960.72 3518.00,1010.99 3518.00,1010.99              3540.27,1024.07 3556.57,1032.44 3577.00,1049.43              3636.19,1098.67 3671.56,1167.64 3678.96,1244.00              3678.96,1244.00 3678.96,1253.00 3678.96,1253.00              3678.96,1253.00 3680.00,1265.00 3680.00,1265.00              3680.00,1265.00 3680.00,2047.00 3680.00,2047.00              3680.00,2047.00 3680.00,2830.00 3680.00,2830.00              3680.00,2830.00 3679.09,2842.00 3679.09,2842.00              3679.09,2842.00 3677.72,2861.00 3677.72,2861.00              3668.97,2931.17 3633.74,2996.63 3580.00,3042.57              3553.51,3065.22 3527.69,3078.19 3498.00,3095.42              3498.00,3095.42 3379.00,3164.15 3379.00,3164.15              3379.00,3164.15 3245.00,3241.58 3245.00,3241.58              3245.00,3241.58 3018.00,3372.58 3018.00,3372.58              3018.00,3372.58 2474.00,3686.42 2474.00,3686.42              2474.00,3686.42 2247.00,3817.42 2247.00,3817.42              2196.42,3846.78 2160.77,3871.45 2102.00,3883.20              2092.84,3885.03 2073.01,3887.89 2064.00,3888.00              2064.00,3888.00 2032.00,3888.00 2032.00,3888.00              2015.13,3887.97 1984.37,3882.16 1968.00,3877.28              1928.15,3865.40 1911.84,3854.48 1877.00,3834.01              1877.00,3834.01 1807.00,3792.60 1807.00,3792.60              1807.00,3792.60 1569.00,3651.80 1569.00,3651.80              1569.00,3651.80 1458.00,3586.20 1458.00,3586.20              1445.62,3578.81 1421.20,3565.68 1415.99,3552.00              1412.74,3543.45 1416.74,3536.77 1424.00,3532.19              1431.98,3527.15 1453.09,3520.95 1463.00,3517.19              1463.00,3517.19 1531.00,3491.58 1531.00,3491.58              1553.22,3482.25 1574.82,3471.15 1596.00,3459.69              1596.00,3459.69 1633.00,3439.00 1633.00,3439.00              1641.26,3434.27 1649.11,3428.62 1659.00,3428.71              1674.49,3428.85 1684.22,3436.73 1697.00,3444.40              1697.00,3444.40 1750.00,3475.80 1750.00,3475.80              1750.00,3475.80 1958.00,3599.01 1958.00,3599.01              1958.00,3599.01 2012.00,3631.15 2012.00,3631.15              2026.19,3639.30 2031.87,3645.20 2049.00,3645.00              2060.44,3644.86 2067.42,3639.62 2077.00,3634.15              2077.00,3634.15 2116.00,3611.60 2116.00,3611.60              2116.00,3611.60 2182.00,3573.58 2182.00,3573.58              2182.00,3573.58 2262.00,3527.28 2262.00,3527.28              2262.00,3527.28 2487.00,3397.42 2487.00,3397.42              2487.00,3397.42 2707.00,3270.58 2707.00,3270.58              2707.00,3270.58 2820.00,3205.28 2820.00,3205.28              2820.00,3205.28 3012.00,3094.42 3012.00,3094.42              3012.00,3094.42 3291.00,2933.42 3291.00,2933.42              3291.00,2933.42 3397.00,2872.28 3397.00,2872.28              3417.34,2860.72 3435.96,2851.91 3436.00,2825.00              3436.00,2825.00 3436.00,2047.00 3436.00,2047.00              3436.00,2047.00 3436.00,1269.00 3436.00,1269.00              3435.95,1239.10 3410.21,1229.15 3388.00,1216.42              3388.00,1216.42 3236.00,1128.72 3236.00,1128.72              3236.00,1128.72 3064.00,1029.42 3064.00,1029.42              3064.00,1029.42 2863.00,913.58 2863.00,913.58              2863.00,913.58 2591.00,756.58 2591.00,756.58              2591.00,756.58 2208.00,535.58 2208.00,535.58              2208.00,535.58 2100.00,473.28 2100.00,473.28              2100.00,473.28 2073.00,457.72 2073.00,457.72              2065.84,453.65 2059.47,449.71 2051.00,449.09              2034.93,447.91 2027.26,454.18 2014.00,461.72              2014.00,461.72 1963.00,491.15 1963.00,491.15              1963.00,491.15 1753.00,612.58 1753.00,612.58              1753.00,612.58 962.00,1069.58 962.00,1069.58              962.00,1069.58 730.00,1203.58 730.00,1203.58              730.00,1203.58 694.00,1224.40 694.00,1224.40              686.95,1228.57 678.04,1232.92 672.04,1238.30              662.14,1247.17 658.02,1260.05 658.00,1273.00              658.00,1273.00 658.00,2048.00 658.00,2048.00              658.00,2048.00 658.00,2822.00 658.00,2822.00              658.02,2834.47 661.66,2846.03 671.09,2854.70              676.15,2859.36 692.13,2867.95 699.00,2871.99              699.00,2871.99 818.00,2940.60 818.00,2940.60              818.00,2940.60 990.00,3039.85 990.00,3039.85              990.00,3039.85 1059.00,3078.74 1059.00,3078.74              1096.64,3096.96 1136.33,3108.24 1178.00,3111.09              1178.00,3111.09 1189.00,3112.00 1189.00,3112.00              1189.00,3112.00 1193.00,3112.00 1193.00,3112.00              1193.00,3112.00 1203.00,3111.09 1203.00,3111.09              1220.74,3109.87 1238.12,3107.19 1255.00,3101.31              1309.34,3082.35 1351.02,3037.83 1365.37,2982.00              1368.22,2970.90 1370.98,2957.44 1371.00,2946.00              1371.00,2946.00 1371.00,1731.00 1371.00,1731.00              1371.00,1731.00 1371.00,1448.00 1371.00,1448.00              1371.00,1448.00 1371.00,1418.00 1371.00,1418.00              1371.00,1418.00 1371.00,1406.00 1371.00,1406.00              1371.03,1386.68 1378.98,1369.58 1399.00,1364.16              1404.34,1362.71 1411.46,1362.01 1417.00,1362.00              1417.00,1362.00 1579.00,1362.00 1579.00,1362.00              1603.98,1362.30 1621.96,1377.18 1622.00,1403.00              1622.00,1403.00 1622.00,2181.00 1622.00,2181.00              1622.00,2181.00 1622.00,2958.00 1622.00,2958.00              1622.00,2958.00 1621.00,2975.00 1621.00,2975.00              1621.00,2975.00 1618.16,3011.00 1618.16,3011.00              1608.54,3100.95 1576.90,3190.77 1511.83,3255.83              1476.36,3291.30 1432.91,3316.80 1386.00,3333.95              1347.39,3348.06 1305.87,3355.28 1265.00,3358.09              1265.00,3358.09 1255.00,3359.04 1255.00,3359.04              1255.00,3359.04 1244.00,3359.04 1244.00,3359.04              1244.00,3359.04 1232.00,3360.00 1232.00,3360.00              1232.00,3360.00 1197.00,3360.00 1197.00,3360.00              1197.00,3360.00 1185.00,3359.04 1185.00,3359.04              1185.00,3359.04 1171.00,3359.04 1171.00,3359.04              1171.00,3359.04 1150.00,3357.17 1150.00,3357.17              1099.03,3352.07 1050.18,3336.48 1003.00,3317.01              1003.00,3317.01 928.00,3283.26 928.00,3283.26              928.00,3283.26 913.00,3276.22 913.00,3276.22              913.00,3276.22 894.00,3265.28 894.00,3265.28              894.00,3265.28 844.00,3236.42 844.00,3236.42              844.00,3236.42 699.00,3152.85 699.00,3152.85              699.00,3152.85 589.00,3089.42 589.00,3089.42              555.27,3069.85 526.08,3054.36 498.28,3025.83              448.44,2974.68 421.76,2912.87 416.91,2842.00              416.91,2842.00 416.00,2830.00 416.00,2830.00              416.00,2830.00 416.00,2047.00 416.00,2047.00              416.00,2047.00 416.00,1264.00 416.00,1264.00              416.00,1264.00 416.91,1252.00 416.91,1252.00              416.91,1252.00 418.28,1233.00 418.28,1233.00              426.56,1168.27 458.40,1103.14 507.00,1059.17              539.44,1029.83 569.82,1015.16 607.00,993.58              607.00,993.58 741.00,916.15 741.00,916.15              741.00,916.15 1596.00,422.15 1596.00,422.15              1596.00,422.15 1815.00,295.58 1815.00,295.58              1815.00,295.58 1867.00,265.58 1867.00,265.58              1895.85,248.83 1917.05,235.05 1949.00,223.69              1967.08,217.27 1986.99,212.78 2006.00,210.28              2006.00,210.28 2023.00,208.21 2023.00,208.21 Z            M 2384.00,1322.21            C 2384.00,1322.21 2411.00,1322.21 2411.00,1322.21              2411.00,1322.21 2468.00,1323.00 2468.00,1323.00              2468.00,1323.00 2483.00,1324.04 2483.00,1324.04              2483.00,1324.04 2495.00,1324.04 2495.00,1324.04              2495.00,1324.04 2508.00,1325.00 2508.00,1325.00              2508.00,1325.00 2532.00,1326.83 2532.00,1326.83              2532.00,1326.83 2562.00,1329.17 2562.00,1329.17              2562.00,1329.17 2607.00,1334.72 2607.00,1334.72              2698.19,1346.72 2793.75,1372.90 2873.00,1420.45              2901.94,1437.81 2924.07,1455.61 2949.00,1478.17              2949.00,1478.17 2965.04,1495.00 2965.04,1495.00              3027.00,1560.10 3061.57,1648.36 3076.08,1736.00              3076.08,1736.00 3079.15,1757.00 3079.15,1757.00              3079.15,1757.00 3082.17,1784.00 3082.17,1784.00              3083.96,1801.94 3083.73,1817.33 3068.00,1829.47              3065.09,1831.72 3061.46,1833.67 3058.00,1834.91              3052.62,1836.85 3049.58,1836.99 3044.00,1837.00              3044.00,1837.00 2867.00,1837.00 2867.00,1837.00              2862.73,1836.95 2860.09,1836.59 2856.00,1835.25              2836.02,1828.70 2832.10,1813.89 2827.63,1796.00              2827.63,1796.00 2821.85,1774.00 2821.85,1774.00              2806.82,1719.16 2777.82,1664.82 2732.00,1629.88              2694.16,1601.03 2649.33,1584.67 2603.00,1575.40              2570.19,1568.84 2537.30,1565.19 2504.00,1562.91              2504.00,1562.91 2493.00,1562.00 2493.00,1562.00              2493.00,1562.00 2477.00,1560.96 2477.00,1560.96              2477.00,1560.96 2462.00,1560.96 2462.00,1560.96              2462.00,1560.96 2450.00,1560.00 2450.00,1560.00              2450.00,1560.00 2376.00,1560.00 2376.00,1560.00              2376.00,1560.00 2364.00,1560.96 2364.00,1560.96              2364.00,1560.96 2352.00,1560.96 2352.00,1560.96              2352.00,1560.96 2342.00,1561.91 2342.00,1561.91              2342.00,1561.91 2295.00,1565.85 2295.00,1565.85              2295.00,1565.85 2256.00,1571.58 2256.00,1571.58              2180.19,1585.25 2091.02,1616.49 2069.63,1700.00              2066.70,1711.42 2064.02,1728.28 2064.00,1740.00              2064.00,1740.00 2064.00,1760.00 2064.00,1760.00              2064.22,1778.59 2069.63,1799.94 2080.76,1815.00              2095.55,1835.01 2119.36,1847.34 2142.00,1856.40              2202.23,1880.49 2295.72,1895.57 2361.00,1906.25              2361.00,1906.25 2587.00,1938.27 2587.00,1938.27              2649.10,1947.42 2710.81,1958.31 2772.00,1972.35              2855.61,1991.54 2948.24,2021.43 3017.00,2073.88              3034.48,2087.22 3050.42,2102.14 3064.56,2119.00              3102.55,2164.27 3122.91,2219.02 3131.27,2277.00              3131.27,2277.00 3135.09,2315.00 3135.09,2315.00              3135.09,2315.00 3136.00,2327.00 3136.00,2327.00              3136.00,2327.00 3136.00,2343.00 3136.00,2343.00              3136.00,2343.00 3136.82,2353.00 3136.82,2353.00              3136.82,2353.00 3136.02,2361.00 3136.02,2361.00              3136.02,2361.00 3136.02,2380.00 3136.02,2380.00              3136.02,2380.00 3135.09,2390.00 3135.09,2390.00              3135.09,2390.00 3131.27,2426.00 3131.27,2426.00              3123.24,2481.68 3103.45,2535.84 3072.66,2583.00              3022.79,2659.37 2947.83,2712.28 2865.00,2747.85              2797.60,2776.80 2719.68,2795.72 2647.00,2805.28              2647.00,2805.28 2572.00,2813.09 2572.00,2813.09              2572.00,2813.09 2542.00,2815.00 2542.00,2815.00              2542.00,2815.00 2529.00,2816.00 2529.00,2816.00              2529.00,2816.00 2516.00,2816.00 2516.00,2816.00              2516.00,2816.00 2501.00,2817.00 2501.00,2817.00              2501.00,2817.00 2420.00,2817.00 2420.00,2817.00              2420.00,2817.00 2405.00,2816.00 2405.00,2816.00              2405.00,2816.00 2391.00,2816.00 2391.00,2816.00              2391.00,2816.00 2371.00,2815.00 2371.00,2815.00              2371.00,2815.00 2345.00,2813.09 2345.00,2813.09              2312.85,2810.89 2280.97,2807.58 2249.00,2803.13              2133.16,2787.01 2008.86,2750.72 1915.00,2678.77              1896.35,2664.46 1881.49,2650.68 1865.00,2634.00              1854.04,2622.90 1843.98,2610.48 1834.63,2598.00              1792.76,2542.17 1768.27,2479.56 1756.92,2411.00              1756.92,2411.00 1751.00,2364.00 1751.00,2364.00              1751.00,2364.00 1751.00,2356.00 1751.00,2356.00              1751.00,2356.00 1750.00,2344.00 1750.00,2344.00              1749.97,2323.29 1745.89,2301.20 1765.00,2287.16              1768.42,2284.65 1771.01,2283.28 1775.00,2281.87              1780.23,2280.01 1782.60,2280.01 1788.00,2280.00              1788.00,2280.00 1966.00,2280.00 1966.00,2280.00              1970.56,2280.06 1973.68,2280.53 1978.00,2282.09              1998.61,2289.50 2001.28,2305.32 2004.41,2324.00              2004.41,2324.00 2009.35,2350.00 2009.35,2350.00              2019.83,2396.38 2034.32,2438.55 2066.29,2475.00              2078.52,2488.96 2092.78,2501.01 2108.00,2511.57              2152.38,2542.36 2217.89,2559.45 2271.00,2567.27              2324.41,2575.14 2378.05,2578.92 2432.00,2579.00              2432.00,2579.00 2449.00,2580.00 2449.00,2580.00              2449.00,2580.00 2480.00,2580.00 2480.00,2580.00              2480.00,2580.00 2497.00,2579.00 2497.00,2579.00              2537.50,2578.94 2577.79,2575.96 2618.00,2571.15              2658.63,2566.30 2700.65,2557.90 2739.00,2543.42              2793.96,2522.68 2840.51,2488.04 2858.97,2430.00              2867.46,2403.31 2868.32,2380.59 2868.00,2353.00              2868.00,2353.00 2866.08,2336.00 2866.08,2336.00              2859.42,2295.72 2832.12,2270.60 2797.00,2252.76              2740.88,2224.23 2659.43,2207.42 2597.00,2197.08              2548.91,2189.12 2500.46,2182.35 2452.00,2177.16              2452.00,2177.16 2352.00,2166.84 2352.00,2166.84              2286.30,2159.80 2220.54,2149.68 2156.00,2135.42              2083.76,2119.47 1996.92,2091.66 1936.00,2049.28              1901.12,2025.01 1869.93,1996.12 1847.05,1960.00              1815.39,1910.02 1802.47,1860.21 1796.83,1802.00              1796.83,1802.00 1795.00,1776.00 1795.00,1776.00              1795.00,1776.00 1795.00,1741.00 1795.00,1741.00              1795.00,1741.00 1795.91,1729.00 1795.91,1729.00              1795.91,1729.00 1798.28,1700.00 1798.28,1700.00              1805.13,1645.08 1823.41,1591.81 1853.05,1545.00              1900.77,1469.66 1973.21,1418.82 2054.00,1384.15              2120.18,1355.75 2204.31,1336.34 2276.00,1329.17              2276.00,1329.17 2328.00,1324.96 2328.00,1324.96              2328.00,1324.96 2339.00,1324.00 2339.00,1324.00              2339.00,1324.00 2360.00,1323.00 2360.00,1323.00              2360.00,1323.00 2384.00,1322.21 2384.00,1322.21 Z" />
</svg>