<svg xmlns="http://www.w3.org/2000/svg" viewBox="98.5 114.71 329 370.75">
  <path id="nodemon" fill="#303030" stroke="none" stroke-width="1"
    d="M 259.00,115.53            C 270.41,113.67 277.60,120.19 287.00,125.58              287.00,125.58 341.00,156.58 341.00,156.58              341.00,156.58 402.00,191.72 402.00,191.72              408.73,195.55 421.24,201.36 424.86,208.00              427.02,211.95 426.99,216.63 427.00,221.00              427.00,221.00 427.00,379.00 427.00,379.00              426.97,398.06 415.56,400.54 401.00,408.85              401.00,408.85 329.00,450.28 329.00,450.28              329.00,450.28 285.00,475.58 285.00,475.58              277.60,479.82 269.96,485.56 261.00,484.90              255.58,484.51 250.63,481.07 246.00,478.42              246.00,478.42 220.00,463.42 220.00,463.42              220.00,463.42 131.00,412.28 131.00,412.28              123.64,408.10 104.86,398.76 101.14,392.00              98.98,388.07 99.01,383.34 99.00,379.00              99.00,379.00 99.00,221.00 99.00,221.00              99.01,215.73 99.03,211.67 101.99,207.01              105.02,202.25 109.33,200.29 114.00,197.58              114.00,197.58 134.00,186.00 134.00,186.00              134.00,186.00 218.00,137.72 218.00,137.72              227.55,132.28 249.91,118.22 259.00,115.53 Z            M 167.00,187.00            C 163.44,191.64 163.01,203.07 163.00,209.00              162.97,226.62 163.21,240.90 174.00,256.00              170.70,258.09 167.01,260.43 165.17,264.01              163.89,266.51 164.01,269.28 164.00,272.00              164.00,272.00 164.00,296.00 164.00,296.00              164.00,296.00 164.00,401.00 164.00,401.00              164.01,405.36 163.79,411.61 170.00,411.39              173.05,411.28 183.77,404.85 187.00,403.00              187.00,403.00 215.00,387.14 215.00,387.14              218.87,384.98 225.87,381.47 228.26,377.91              230.27,374.92 229.99,371.43 230.00,368.00              230.00,368.00 230.00,314.00 230.00,314.00              230.02,298.91 237.23,298.24 249.00,291.20              252.51,289.10 257.91,285.40 262.00,285.29              266.14,285.18 271.40,289.08 275.00,291.15              286.74,297.89 293.98,299.25 294.00,314.00              294.00,314.00 294.00,368.00 294.00,368.00              294.01,371.40 293.73,374.95 295.74,377.90              298.02,381.24 304.40,384.36 308.00,386.42              308.00,386.42 337.00,402.85 337.00,402.85              340.44,404.81 350.65,411.26 354.00,411.39              360.21,411.61 359.99,405.36 359.95,401.00              359.95,401.00 359.95,294.00 359.95,294.00              359.95,294.00 359.95,276.00 359.95,276.00              360.02,272.33 361.26,265.93 359.95,263.04              358.06,259.54 354.34,257.64 351.00,256.00              361.72,241.00 364.08,221.87 362.16,204.00              361.49,197.66 361.24,193.13 359.00,187.00              359.00,187.00 353.57,197.00 353.57,197.00              347.12,208.34 337.74,221.07 326.00,227.22              321.76,229.44 313.79,232.55 309.00,231.47              306.25,230.84 300.67,227.37 298.00,225.85              298.00,225.85 277.00,213.72 277.00,213.72              272.08,210.92 267.92,207.80 262.00,208.11              256.52,208.40 251.65,211.76 247.00,214.42              247.00,214.42 217.00,231.18 217.00,231.18              211.25,233.12 201.96,229.54 197.00,226.54              183.48,218.35 172.17,201.81 167.00,187.00 Z" />
</svg>