<svg xmlns="http://www.w3.org/2000/svg" viewBox="30.5 -0.51 451 513.26">
  <path id="Selection" fill="#303030" stroke="none" stroke-width="1" d="M 249.00,0.53            C 265.92,-2.24 275.18,6.22 289.00,14.40              289.00,14.40 347.00,47.72 347.00,47.72              347.00,47.72 449.00,106.42 449.00,106.42              449.00,106.42 463.00,114.58 463.00,114.58              475.34,121.74 480.98,125.76 481.00,141.00              481.00,141.00 481.00,371.00 481.00,371.00              480.99,377.08 480.90,380.64 477.44,385.99              473.45,392.16 468.08,394.44 462.00,398.01              462.00,398.01 434.00,414.20 434.00,414.20              434.00,414.20 316.00,482.28 316.00,482.28              316.00,482.28 282.00,501.85 282.00,501.85              276.67,504.91 268.84,510.13 263.00,511.47              248.76,514.74 239.53,507.12 228.00,500.42              228.00,500.42 167.00,465.30 167.00,465.30              167.00,465.30 64.00,406.15 64.00,406.15              64.00,406.15 49.00,397.43 49.00,397.43              36.02,389.98 31.02,385.73 31.00,370.00              31.00,370.00 31.00,141.00 31.00,141.00              31.03,122.37 42.62,117.89 57.00,109.72              57.00,109.72 79.00,97.00 79.00,97.00              79.00,97.00 191.00,32.58 191.00,32.58              191.00,32.58 225.00,12.99 225.00,12.99              232.12,8.81 241.24,2.82 249.00,0.53 Z"/>
</svg>