<svg xmlns="http://www.w3.org/2000/svg" viewBox="1.5 -0.58 1023 168.08">
  <path id="nokia-old" fill="#303030" stroke="none" stroke-width="1"
    d="M 297.00,0.14            C 297.00,0.14 332.00,0.14 332.00,0.14              332.00,0.14 395.00,0.14 395.00,0.14              411.92,0.00 433.62,-1.57 449.00,6.27              465.23,14.55 469.92,31.01 470.00,48.00              470.00,48.00 470.00,119.00 470.00,119.00              469.85,131.30 467.16,145.04 457.91,153.82              447.76,163.44 434.26,165.16 421.00,166.09              421.00,166.09 409.00,167.00 409.00,167.00              409.00,167.00 315.00,167.00 315.00,167.00              315.00,167.00 303.00,166.09 303.00,166.09              289.29,165.13 275.75,163.67 265.29,153.56              255.60,144.20 255.03,135.41 253.83,123.00              253.83,123.00 253.00,114.00 253.00,114.00              253.00,114.00 253.00,53.00 253.00,53.00              253.00,53.00 253.83,43.00 253.83,43.00              255.23,28.54 256.49,19.17 269.00,9.53              277.36,3.09 286.98,1.94 297.00,0.14 Z            M 2.00,2.00            C 2.00,2.00 80.00,2.00 80.00,2.00              80.00,2.00 87.83,3.02 87.83,3.02              87.83,3.02 96.00,12.00 96.00,12.00              96.00,12.00 111.40,31.00 111.40,31.00              111.40,31.00 157.42,88.00 157.42,88.00              157.42,88.00 184.00,121.00 184.00,121.00              184.00,121.00 184.00,2.00 184.00,2.00              184.00,2.00 235.00,2.00 235.00,2.00              235.00,2.00 235.00,165.00 235.00,165.00              235.00,165.00 158.00,165.00 158.00,165.00              146.98,164.98 146.39,160.49 139.60,152.00              139.60,152.00 125.80,135.00 125.80,135.00              125.80,135.00 79.61,78.00 79.61,78.00              79.61,78.00 52.00,44.00 52.00,44.00              52.00,44.00 52.00,165.00 52.00,165.00              52.00,165.00 2.00,165.00 2.00,165.00              2.00,165.00 2.00,2.00 2.00,2.00 Z            M 489.00,2.00            C 489.00,2.00 541.00,2.00 541.00,2.00              541.00,2.00 541.00,79.00 541.00,79.00              541.00,79.00 560.00,61.84 560.00,61.84              560.00,61.84 605.00,21.84 605.00,21.84              605.00,21.84 628.00,2.60 628.00,2.60              628.00,2.60 635.00,2.00 635.00,2.00              635.00,2.00 696.00,2.00 696.00,2.00              692.81,7.68 675.96,20.10 670.00,25.08              670.00,25.08 623.00,63.92 623.00,63.92              623.00,63.92 605.00,79.00 605.00,79.00              605.00,79.00 619.00,89.41 619.00,89.41              619.00,89.41 642.00,108.59 642.00,108.59              642.00,108.59 685.00,144.41 685.00,144.41              685.00,144.41 708.00,165.00 708.00,165.00              708.00,165.00 642.00,165.00 642.00,165.00              642.00,165.00 635.00,164.40 635.00,164.40              635.00,164.40 610.00,143.17 610.00,143.17              610.00,143.17 561.00,99.17 561.00,99.17              561.00,99.17 541.00,81.00 541.00,81.00              541.00,81.00 541.00,165.00 541.00,165.00              541.00,165.00 489.00,165.00 489.00,165.00              489.00,165.00 489.00,2.00 489.00,2.00 Z            M 716.00,2.00            C 716.00,2.00 769.00,2.00 769.00,2.00              769.00,2.00 769.00,165.00 769.00,165.00              769.00,165.00 716.00,165.00 716.00,165.00              716.00,165.00 716.00,2.00 716.00,2.00 Z            M 777.00,165.00            C 777.00,165.00 803.58,117.00 803.58,117.00              803.58,117.00 847.00,40.00 847.00,40.00              847.00,40.00 861.58,14.00 861.58,14.00              861.58,14.00 868.63,2.99 868.63,2.99              868.63,2.99 876.00,2.00 876.00,2.00              876.00,2.00 925.00,2.00 925.00,2.00              925.00,2.00 932.79,3.02 932.79,3.02              932.79,3.02 940.23,14.00 940.23,14.00              940.23,14.00 953.72,38.00 953.72,38.00              953.72,38.00 1002.28,124.00 1002.28,124.00              1002.28,124.00 1016.86,150.00 1016.86,150.00              1016.86,150.00 1024.00,165.00 1024.00,165.00              1024.00,165.00 972.00,165.00 972.00,165.00              972.00,165.00 964.39,163.98 964.39,163.98              964.39,163.98 947.79,138.02 947.79,138.02              947.79,138.02 940.00,137.00 940.00,137.00              940.00,137.00 859.00,137.00 859.00,137.00              859.00,137.00 851.18,138.02 851.18,138.02              851.18,138.02 834.61,163.98 834.61,163.98              834.61,163.98 827.00,165.00 827.00,165.00              827.00,165.00 777.00,165.00 777.00,165.00 Z            M 319.00,41.14            C 311.91,42.30 303.21,40.93 301.11,50.00              300.98,51.73 301.01,54.20 301.11,56.00              301.11,56.00 301.11,102.00 301.11,102.00              301.00,107.27 300.05,116.72 303.51,120.77              307.09,124.97 314.90,124.99 320.00,125.00              320.00,125.00 390.00,125.00 390.00,125.00              396.85,125.00 413.41,126.04 418.61,121.99              422.82,118.72 422.99,108.05 423.00,103.00              423.00,103.00 423.00,62.00 423.00,62.00              422.97,56.56 422.81,47.15 417.89,43.85              414.79,41.78 403.06,41.02 399.00,41.14              399.00,41.14 319.00,41.14 319.00,41.14 Z            M 900.00,44.00            C 900.00,44.00 887.69,65.00 887.69,65.00              887.69,65.00 868.00,101.00 868.00,101.00              868.00,101.00 930.00,101.00 930.00,101.00              930.00,101.00 918.42,78.00 918.42,78.00              918.42,78.00 900.00,44.00 900.00,44.00 Z" />
</svg>