<svg xmlns="http://www.w3.org/2000/svg" viewBox="295.5 287.5 279.01 296">
  <path id="nokia-n" fill="#303030" stroke="none" stroke-width="1"
    d="M 296.00,288.00            C 301.60,289.91 315.88,303.15 320.91,307.82              320.91,307.82 359.72,341.45 359.72,341.45              359.72,341.45 414.20,387.77 414.20,387.77              414.20,387.77 435.25,406.44 435.25,406.44              435.25,406.44 454.85,422.66 454.85,422.66              454.85,422.66 486.25,449.75 486.25,449.75              486.25,449.75 509.99,470.26 509.99,470.26              509.99,470.26 523.99,482.74 523.99,482.74              523.99,482.74 546.83,501.74 546.83,501.74              546.83,501.74 555.00,509.14 555.00,509.14              557.44,511.01 572.09,523.44 572.98,525.09              574.20,527.35 573.99,530.48 574.00,533.00              574.00,533.00 574.00,583.00 574.00,583.00              574.00,583.00 552.00,567.00 552.00,567.00              551.02,563.91 548.26,562.39 545.83,560.32              545.83,560.32 532.44,549.03 532.44,549.03              532.44,549.03 514.08,533.68 514.08,533.68              514.08,533.68 500.91,521.41 500.91,521.41              500.91,521.41 483.01,506.80 483.01,506.80              478.25,502.89 470.48,493.30 465.00,492.00              465.00,492.00 422.50,454.65 422.50,454.65              422.50,454.65 414.99,447.44 414.99,447.44              414.99,447.44 401.28,436.54 401.28,436.54              401.28,436.54 383.08,420.04 383.08,420.04              383.08,420.04 375.00,413.80 375.00,413.80              375.00,413.80 340.00,384.00 340.00,384.00              340.00,384.00 340.00,531.00 340.00,531.00              340.00,531.00 340.00,562.00 340.00,562.00              340.00,562.00 338.98,574.40 338.98,574.40              338.98,574.40 331.00,576.00 331.00,576.00              331.00,576.00 296.00,576.00 296.00,576.00              296.00,576.00 296.00,288.00 296.00,288.00 Z" />
</svg>