<svg xmlns="http://www.w3.org/2000/svg" viewBox="295.5 287.5 1332 296">
  <path id="nokia" fill="#303030" stroke="none" stroke-width="1"
    d="M 296.00,288.00            C 301.60,289.91 315.88,303.15 320.91,307.82              320.91,307.82 359.72,341.45 359.72,341.45              359.72,341.45 414.20,387.77 414.20,387.77              414.20,387.77 435.25,406.44 435.25,406.44              435.25,406.44 454.85,422.66 454.85,422.66              454.85,422.66 486.25,449.75 486.25,449.75              486.25,449.75 509.99,470.26 509.99,470.26              509.99,470.26 523.99,482.74 523.99,482.74              523.99,482.74 546.83,501.74 546.83,501.74              546.83,501.74 555.00,509.14 555.00,509.14              557.44,511.01 572.09,523.44 572.98,525.09              574.20,527.35 573.99,530.48 574.00,533.00              574.00,533.00 574.00,583.00 574.00,583.00              574.00,583.00 552.00,567.00 552.00,567.00              551.02,563.91 548.26,562.39 545.83,560.32              545.83,560.32 532.44,549.03 532.44,549.03              532.44,549.03 514.08,533.68 514.08,533.68              514.08,533.68 500.91,521.41 500.91,521.41              500.91,521.41 483.01,506.80 483.01,506.80              478.25,502.89 470.48,493.30 465.00,492.00              465.00,492.00 422.50,454.65 422.50,454.65              422.50,454.65 414.99,447.44 414.99,447.44              414.99,447.44 401.28,436.54 401.28,436.54              401.28,436.54 383.08,420.04 383.08,420.04              383.08,420.04 375.00,413.80 375.00,413.80              375.00,413.80 340.00,384.00 340.00,384.00              340.00,384.00 340.00,531.00 340.00,531.00              340.00,531.00 340.00,562.00 340.00,562.00              340.00,562.00 338.98,574.40 338.98,574.40              338.98,574.40 331.00,576.00 331.00,576.00              331.00,576.00 296.00,576.00 296.00,576.00              296.00,576.00 296.00,288.00 296.00,288.00 Z            M 1463.00,288.00            C 1463.00,288.00 1465.00,288.00 1465.00,288.00              1465.00,288.00 1471.00,297.00 1471.00,297.00              1471.00,297.00 1477.71,310.00 1477.71,310.00              1477.71,310.00 1490.83,333.17 1490.83,333.17              1490.83,333.17 1510.62,367.99 1510.62,367.99              1510.62,367.99 1522.00,387.00 1522.00,387.00              1522.00,387.00 1529.80,402.00 1529.80,402.00              1529.80,402.00 1535.10,412.00 1535.10,412.00              1535.10,412.00 1540.77,421.00 1540.77,421.00              1540.77,421.00 1544.67,428.88 1544.67,428.88              1544.67,428.88 1561.99,459.00 1561.99,459.00              1561.99,459.00 1575.00,481.00 1575.00,481.00              1575.00,481.00 1582.78,496.00 1582.78,496.00              1582.78,496.00 1592.51,513.00 1592.51,513.00              1592.51,513.00 1613.03,549.83 1613.03,549.83              1613.03,549.83 1627.00,576.00 1627.00,576.00              1627.00,576.00 1589.00,576.00 1589.00,576.00              1589.00,576.00 1580.21,574.40 1580.21,574.40              1580.21,574.40 1573.97,564.72 1573.97,564.72              1573.97,564.72 1561.78,542.72 1561.78,542.72              1561.78,542.72 1556.00,531.00 1556.00,531.00              1550.62,527.18 1548.91,517.87 1543.87,515.02              1541.71,513.80 1538.44,514.00 1536.00,513.91              1536.00,513.91 1403.00,513.91 1403.00,513.91              1398.50,513.99 1389.37,512.42 1386.02,513.91              1380.99,515.72 1377.17,525.31 1374.34,530.00              1372.53,532.99 1370.59,535.53 1370.00,539.00              1370.00,539.00 1354.20,565.00 1354.20,565.00              1348.39,574.63 1349.76,575.94 1341.00,576.00              1341.00,576.00 1302.00,576.00 1302.00,576.00              1302.00,576.00 1308.00,561.00 1308.00,561.00              1308.00,561.00 1325.00,535.00 1325.00,535.00              1325.00,535.00 1338.00,508.00 1338.00,508.00              1338.00,508.00 1341.00,507.00 1341.00,507.00              1341.05,500.61 1350.07,488.03 1353.58,482.00              1354.99,479.56 1356.92,475.48 1359.33,474.02              1361.37,472.78 1364.65,473.00 1367.00,473.00              1367.00,473.00 1521.00,473.00 1521.00,473.00              1521.00,473.00 1504.73,441.91 1504.73,441.91              1504.73,441.91 1480.15,398.00 1480.15,398.00              1480.15,398.00 1462.00,367.00 1462.00,367.00              1462.00,367.00 1457.35,357.84 1457.35,357.84              1457.35,357.84 1447.44,339.72 1447.44,339.72              1447.44,339.72 1441.85,328.00 1441.85,328.00              1441.85,328.00 1447.09,316.00 1447.09,316.00              1447.09,316.00 1463.00,288.00 1463.00,288.00 Z            M 608.00,371.00            C 608.97,363.74 617.56,352.56 622.12,346.58              638.15,325.55 660.60,310.21 685.17,300.78              685.17,300.78 693.00,298.46 693.00,298.46              705.85,294.04 710.83,293.45 724.00,291.71              731.17,290.77 730.65,290.01 739.00,290.00              739.00,290.00 750.00,290.00 750.00,290.00              757.28,290.01 761.00,290.96 767.96,291.86              804.92,296.66 840.03,315.19 864.19,343.80              875.28,356.94 883.53,372.85 889.22,389.00              891.52,395.51 893.51,401.14 894.66,408.04              894.66,408.04 895.46,415.00 895.46,415.00              896.36,420.07 896.93,420.33 897.00,426.00              897.13,437.25 897.34,448.83 895.87,460.00              893.85,475.26 886.12,498.87 878.14,511.96              878.14,511.96 872.27,520.04 872.27,520.04              872.27,520.04 866.34,528.68 866.34,528.68              866.34,528.68 858.80,536.40 858.80,536.40              858.80,536.40 850.83,544.50 850.83,544.50              838.39,555.38 819.68,566.33 803.91,571.55              803.91,571.55 796.00,573.51 796.00,573.51              786.44,576.25 779.06,578.49 769.00,579.72              754.62,581.46 743.21,580.66 729.00,580.30              721.76,580.11 705.04,577.39 698.00,575.44              682.71,571.21 659.65,560.91 647.28,551.10              647.28,551.10 640.00,544.43 640.00,544.43              634.36,539.54 625.97,531.70 621.37,526.00              608.24,509.73 601.61,491.93 596.63,472.00              596.63,472.00 594.32,463.00 594.32,463.00              594.32,463.00 593.14,448.70 593.14,448.70              593.14,448.70 592.00,438.00 592.00,438.00              591.91,429.69 594.07,410.07 596.04,402.00              596.04,402.00 602.00,380.00 602.00,380.00              602.00,380.00 608.00,371.00 608.00,371.00 Z            M 1067.00,321.00            C 1067.00,321.00 1075.91,311.30 1075.91,311.30              1075.91,311.30 1096.00,295.70 1096.00,295.70              1096.00,295.70 1104.00,295.00 1104.00,295.00              1104.00,295.00 1158.00,295.00 1158.00,295.00              1154.63,300.18 1149.18,303.71 1144.58,307.75              1144.58,307.75 1118.03,330.61 1118.03,330.61              1118.03,330.61 1069.85,372.64 1069.85,372.64              1069.85,372.64 1047.09,391.60 1047.09,391.60              1047.09,391.60 1040.39,397.76 1040.39,397.76              1040.39,397.76 1009.08,424.28 1009.08,424.28              1006.78,426.28 998.98,433.33 998.62,435.96              998.16,439.28 1005.23,443.68 1007.67,445.61              1007.67,445.61 1037.83,471.50 1037.83,471.50              1037.83,471.50 1050.20,481.78 1050.20,481.78              1050.20,481.78 1057.04,488.41 1057.04,488.41              1057.04,488.41 1068.85,497.89 1068.85,497.89              1068.85,497.89 1078.17,506.65 1078.17,506.65              1078.17,506.65 1093.20,518.78 1093.20,518.78              1093.20,518.78 1114.17,537.37 1114.17,537.37              1114.17,537.37 1122.00,543.32 1122.00,543.32              1122.00,543.32 1131.58,552.32 1131.58,552.32              1131.58,552.32 1144.00,562.79 1144.00,562.79              1148.71,566.83 1153.84,570.32 1158.00,575.00              1152.11,576.67 1144.23,576.00 1138.00,576.00              1138.00,576.00 1104.00,576.00 1104.00,576.00              1101.49,576.00 1098.35,576.14 1096.00,575.27              1090.34,573.17 1074.60,558.37 1069.42,553.66              1069.42,553.66 1048.04,536.38 1048.04,536.38              1048.04,536.38 1039.72,528.16 1039.72,528.16              1039.72,528.16 1027.05,518.10 1027.05,518.10              1021.35,513.27 1010.11,501.89 1004.00,499.00              1004.00,499.00 1005.00,497.00 1005.00,497.00              998.84,495.12 988.31,484.03 982.83,479.37              982.83,479.37 971.99,470.75 971.99,470.75              971.99,470.75 951.13,452.16 951.13,452.16              944.52,446.54 937.76,442.44 933.00,435.00              933.00,435.00 959.69,411.85 959.69,411.85              959.69,411.85 985.00,390.00 985.00,390.00              985.00,390.00 993.17,382.51 993.17,382.51              993.17,382.51 998.72,378.39 998.72,378.39              998.72,378.39 1007.00,370.33 1007.00,370.33              1007.00,370.33 1013.70,365.48 1013.70,365.48              1013.70,365.48 1028.28,352.50 1028.28,352.50              1028.28,352.50 1054.61,329.79 1054.61,329.79              1058.33,326.61 1062.05,321.81 1067.00,321.00 Z            M 1218.00,576.00            C 1218.00,576.00 1218.00,463.00 1218.00,463.00              1218.00,463.00 1218.00,388.00 1218.00,388.00              1218.00,388.00 1218.00,318.00 1218.00,318.00              1218.00,318.00 1218.00,302.00 1218.00,302.00              1218.04,300.04 1217.85,297.53 1219.57,296.17              1221.38,294.75 1225.74,295.00 1228.00,295.00              1228.00,295.00 1252.00,295.00 1252.00,295.00              1253.99,295.00 1257.81,294.77 1259.40,296.02              1261.38,297.59 1261.00,301.70 1261.00,304.00              1261.00,304.00 1261.00,513.00 1261.00,513.00              1261.00,513.00 1261.00,567.00 1261.00,567.00              1260.98,575.64 1260.64,575.98 1252.00,576.00              1252.00,576.00 1218.00,576.00 1218.00,576.00 Z            M 833.00,369.00            C 828.05,365.14 827.63,363.07 823.71,359.59              813.49,350.52 798.25,340.13 785.17,335.85              778.82,333.77 763.51,330.33 757.00,329.76              757.00,329.76 749.00,329.76 749.00,329.76              749.00,329.76 731.00,329.76 731.00,329.76              726.83,329.77 705.38,335.39 701.00,337.17              662.53,352.76 636.07,389.19 636.00,431.00              636.00,431.00 636.00,445.00 636.00,445.00              636.01,453.66 636.44,451.31 637.93,458.83              643.05,484.52 653.52,501.82 673.85,518.42              680.48,523.84 695.50,533.99 704.00,534.00              706.04,536.32 709.04,536.61 711.96,537.55              718.06,539.51 731.69,541.92 738.00,541.87              738.00,541.87 759.00,541.87 759.00,541.87              759.00,541.87 786.96,535.11 786.96,535.11              786.96,535.11 794.09,531.66 794.09,531.66              794.09,531.66 805.00,526.42 805.00,526.42              821.75,516.36 836.26,500.70 844.60,483.01              847.98,475.83 849.66,468.66 851.43,461.00              853.23,453.21 854.00,452.99 854.47,444.00              854.47,444.00 854.47,432.00 854.47,432.00              854.65,419.69 849.93,401.24 845.00,390.00              845.00,390.00 837.49,376.43 837.49,376.43              835.73,373.74 833.59,372.24 833.00,369.00 Z            M 951.00,420.00            C 951.00,420.00 950.00,420.00 950.00,420.00              950.00,420.00 951.00,421.00 951.00,421.00              951.00,421.00 951.00,420.00 951.00,420.00 Z" />
</svg>