<svg xmlns="http://www.w3.org/2000/svg" viewBox="-0.5 -0.66 981.03 1025.16">
  <path id="notion" fill="#303030" stroke="none" stroke-width="1"
    d="M 660.00,0.42            C 676.69,-1.61 704.52,1.81 720.00,8.43              739.35,16.70 754.00,28.38 771.00,40.28              771.00,40.28 825.00,78.29 825.00,78.29              825.00,78.29 936.00,156.58 936.00,156.58              948.22,165.23 970.68,179.56 976.65,193.00              980.52,201.71 980.01,208.01 980.00,217.00              980.00,217.00 980.00,687.00 980.00,687.00              980.00,687.00 980.00,907.00 980.00,907.00              980.21,927.66 977.69,949.84 962.00,964.96              945.50,980.86 920.73,983.09 899.00,984.04              899.00,984.04 888.00,985.00 888.00,985.00              888.00,985.00 851.00,987.00 851.00,987.00              851.00,987.00 841.00,988.00 841.00,988.00              841.00,988.00 832.00,988.00 832.00,988.00              832.00,988.00 819.00,989.00 819.00,989.00              819.00,989.00 808.00,989.91 808.00,989.91              808.00,989.91 785.00,991.00 785.00,991.00              785.00,991.00 756.00,993.00 756.00,993.00              756.00,993.00 720.00,995.00 720.00,995.00              720.00,995.00 709.00,995.91 709.00,995.91              709.00,995.91 683.00,997.09 683.00,997.09              683.00,997.09 657.00,999.00 657.00,999.00              657.00,999.00 634.00,1000.09 634.00,1000.09              634.00,1000.09 624.00,1001.00 624.00,1001.00              624.00,1001.00 587.00,1003.00 587.00,1003.00              587.00,1003.00 577.00,1003.91 577.00,1003.91              577.00,1003.91 553.00,1005.00 553.00,1005.00              553.00,1005.00 543.00,1005.91 543.00,1005.91              543.00,1005.91 521.00,1007.00 521.00,1007.00              521.00,1007.00 507.00,1008.00 507.00,1008.00              507.00,1008.00 472.00,1010.00 472.00,1010.00              472.00,1010.00 458.00,1011.00 458.00,1011.00              458.00,1011.00 444.00,1011.91 444.00,1011.91              444.00,1011.91 419.00,1013.09 419.00,1013.09              419.00,1013.09 409.00,1014.00 409.00,1014.00              409.00,1014.00 386.00,1015.09 386.00,1015.09              386.00,1015.09 375.00,1016.00 375.00,1016.00              375.00,1016.00 353.00,1017.09 353.00,1017.09              353.00,1017.09 342.00,1018.00 342.00,1018.00              342.00,1018.00 310.00,1020.00 310.00,1020.00              310.00,1020.00 273.00,1022.00 273.00,1022.00              273.00,1022.00 258.00,1023.00 258.00,1023.00              258.00,1023.00 236.00,1024.00 236.00,1024.00              217.84,1023.97 198.70,1020.70 184.00,1009.32              172.56,1000.47 162.95,986.39 154.00,975.00              154.00,975.00 54.79,846.00 54.79,846.00              28.31,812.22 0.07,779.30 0.00,734.00              0.00,734.00 0.00,114.00 0.00,114.00              0.01,107.17 1.42,95.58 3.16,89.00              8.74,67.82 22.92,53.40 44.00,47.43              53.04,44.87 61.78,44.71 71.00,43.83              71.00,43.83 132.00,39.09 132.00,39.09              132.00,39.09 154.00,37.72 154.00,37.72              154.00,37.72 180.00,35.91 180.00,35.91              180.00,35.91 206.00,33.91 206.00,33.91              206.00,33.91 287.00,27.91 287.00,27.91              287.00,27.91 348.00,23.09 348.00,23.09              348.00,23.09 504.00,11.91 504.00,11.91              504.00,11.91 524.00,10.09 524.00,10.09              524.00,10.09 619.00,3.09 619.00,3.09              619.00,3.09 638.00,1.91 638.00,1.91              638.00,1.91 648.00,1.00 648.00,1.00              652.93,0.95 654.94,1.14 660.00,0.42 Z            M 658.00,57.28            C 658.00,57.28 632.00,59.09 632.00,59.09              632.00,59.09 591.00,62.09 591.00,62.09              591.00,62.09 467.00,71.09 467.00,71.09              467.00,71.09 447.00,72.91 447.00,72.91              447.00,72.91 290.00,84.09 290.00,84.09              290.00,84.09 235.00,88.09 235.00,88.09              235.00,88.09 227.00,88.96 227.00,88.96              227.00,88.96 160.00,93.91 160.00,93.91              160.00,93.91 121.00,96.72 121.00,96.72              111.41,97.85 91.60,96.28 87.78,108.00              86.16,112.97 90.62,117.61 94.02,120.56              94.02,120.56 121.00,142.00 121.00,142.00              121.00,142.00 159.00,172.26 159.00,172.26              171.58,182.48 184.35,193.49 200.00,198.64              212.17,202.65 226.30,202.14 239.00,202.00              239.00,202.00 265.00,200.09 265.00,200.09              265.00,200.09 307.00,197.91 307.00,197.91              307.00,197.91 338.00,196.00 338.00,196.00              338.00,196.00 364.00,194.09 364.00,194.09              364.00,194.09 406.00,191.91 406.00,191.91              406.00,191.91 437.00,190.00 437.00,190.00              437.00,190.00 447.00,189.09 447.00,189.09              447.00,189.09 470.00,188.00 470.00,188.00              470.00,188.00 484.00,187.00 484.00,187.00              484.00,187.00 520.00,185.00 520.00,185.00              520.00,185.00 530.00,184.09 530.00,184.09              530.00,184.09 553.00,183.00 553.00,183.00              553.00,183.00 567.00,182.00 567.00,182.00              567.00,182.00 603.00,180.00 603.00,180.00              603.00,180.00 632.00,178.00 632.00,178.00              632.00,178.00 663.00,176.00 663.00,176.00              663.00,176.00 672.00,176.00 672.00,176.00              672.00,176.00 683.00,175.00 683.00,175.00              683.00,175.00 699.00,174.00 699.00,174.00              699.00,174.00 730.00,172.09 730.00,172.09              730.00,172.09 772.00,169.91 772.00,169.91              772.00,169.91 779.00,169.00 779.00,169.00              779.00,169.00 789.00,169.00 789.00,169.00              789.00,169.00 799.00,168.00 799.00,168.00              799.00,168.00 829.00,166.09 829.00,166.09              832.12,165.87 838.08,166.64 839.93,163.57              842.30,159.66 836.70,153.94 833.96,151.75              833.96,151.75 800.00,127.12 800.00,127.12              800.00,127.12 754.00,93.85 754.00,93.85              754.00,93.85 723.00,71.87 723.00,71.87              703.98,61.00 679.91,55.25 658.00,57.28 Z            M 872.00,233.28            C 872.00,233.28 844.00,235.00 844.00,235.00              844.00,235.00 814.00,237.00 814.00,237.00              814.00,237.00 777.00,239.00 777.00,239.00              777.00,239.00 762.00,240.00 762.00,240.00              762.00,240.00 741.00,241.00 741.00,241.00              741.00,241.00 728.00,242.00 728.00,242.00              728.00,242.00 690.00,244.00 690.00,244.00              690.00,244.00 680.00,245.00 680.00,245.00              680.00,245.00 670.00,245.00 670.00,245.00              670.00,245.00 656.00,246.00 656.00,246.00              656.00,246.00 639.00,247.00 639.00,247.00              639.00,247.00 628.00,248.00 628.00,248.00              628.00,248.00 619.00,248.00 619.00,248.00              619.00,248.00 606.00,249.00 606.00,249.00              606.00,249.00 587.00,250.00 587.00,250.00              587.00,250.00 577.00,250.91 577.00,250.91              577.00,250.91 554.00,252.00 554.00,252.00              554.00,252.00 540.00,253.00 540.00,253.00              540.00,253.00 502.00,255.00 502.00,255.00              502.00,255.00 488.00,256.00 488.00,256.00              488.00,256.00 451.00,258.00 451.00,258.00              451.00,258.00 441.00,259.00 441.00,259.00              441.00,259.00 431.00,259.00 431.00,259.00              431.00,259.00 417.00,260.00 417.00,260.00              417.00,260.00 401.00,261.00 401.00,261.00              401.00,261.00 366.00,263.00 366.00,263.00              366.00,263.00 349.00,264.00 349.00,264.00              349.00,264.00 335.00,265.00 335.00,265.00              335.00,265.00 297.00,267.00 297.00,267.00              297.00,267.00 266.00,269.00 266.00,269.00              266.00,269.00 253.00,269.91 253.00,269.91              253.00,269.91 237.00,270.83 237.00,270.83              226.34,271.86 217.91,272.20 210.21,281.02              203.67,288.51 203.55,296.77 202.91,306.00              202.91,306.00 202.00,318.00 202.00,318.00              202.00,318.00 202.00,788.00 202.00,788.00              202.00,788.00 202.00,899.00 202.00,899.00              202.00,899.00 202.83,908.00 202.83,908.00              203.93,919.44 204.83,930.54 215.04,938.21              228.07,948.01 244.81,946.02 260.00,946.00              260.00,946.00 277.00,945.00 277.00,945.00              277.00,945.00 294.00,944.00 294.00,944.00              294.00,944.00 332.00,942.00 332.00,942.00              332.00,942.00 342.00,941.00 342.00,941.00              342.00,941.00 352.00,941.00 352.00,941.00              352.00,941.00 366.00,940.00 366.00,940.00              366.00,940.00 380.00,939.00 380.00,939.00              380.00,939.00 418.00,937.00 418.00,937.00              418.00,937.00 428.00,936.00 428.00,936.00              428.00,936.00 438.00,936.00 438.00,936.00              438.00,936.00 453.00,935.00 453.00,935.00              453.00,935.00 463.00,934.00 463.00,934.00              463.00,934.00 473.00,934.00 473.00,934.00              473.00,934.00 487.00,933.00 487.00,933.00              487.00,933.00 504.00,932.00 504.00,932.00              504.00,932.00 518.00,931.00 518.00,931.00              518.00,931.00 556.00,929.00 556.00,929.00              556.00,929.00 566.00,928.00 566.00,928.00              566.00,928.00 576.00,928.00 576.00,928.00              576.00,928.00 590.00,927.00 590.00,927.00              590.00,927.00 601.00,926.00 601.00,926.00              601.00,926.00 610.00,926.00 610.00,926.00              610.00,926.00 623.00,925.00 623.00,925.00              623.00,925.00 642.00,924.00 642.00,924.00              642.00,924.00 656.00,923.00 656.00,923.00              656.00,923.00 694.00,921.00 694.00,921.00              694.00,921.00 704.00,920.00 704.00,920.00              704.00,920.00 714.00,920.00 714.00,920.00              714.00,920.00 728.00,919.00 728.00,919.00              728.00,919.00 738.00,918.04 738.00,918.04              738.00,918.04 746.00,918.04 746.00,918.04              746.00,918.04 763.00,917.00 763.00,917.00              763.00,917.00 773.00,916.00 773.00,916.00              773.00,916.00 783.00,916.00 783.00,916.00              783.00,916.00 797.00,915.00 797.00,915.00              797.00,915.00 812.00,914.00 812.00,914.00              812.00,914.00 849.00,912.00 849.00,912.00              849.00,912.00 866.00,911.00 866.00,911.00              886.07,910.76 904.90,905.88 910.52,884.00              911.92,878.57 912.99,867.68 913.00,862.00              913.00,862.00 913.00,377.00 913.00,377.00              913.00,377.00 913.00,286.00 913.00,286.00              913.00,273.21 913.84,253.79 906.20,243.00              898.21,231.72 884.36,232.13 872.00,233.28 Z            M 696.00,396.00            C 696.00,396.00 656.00,391.72 656.00,391.72              650.05,390.98 644.31,392.38 644.02,384.98              643.42,369.82 652.44,357.27 667.00,352.77              671.54,351.37 686.94,350.06 692.00,350.00              692.00,350.00 730.00,348.00 730.00,348.00              730.00,348.00 741.00,347.00 741.00,347.00              741.00,347.00 750.00,347.00 750.00,347.00              750.00,347.00 764.00,346.00 764.00,346.00              764.00,346.00 779.00,345.00 779.00,345.00              779.00,345.00 813.00,343.00 813.00,343.00              814.28,352.67 815.53,364.59 809.20,372.91              804.66,378.87 798.79,379.64 792.00,381.00              792.00,381.00 765.00,386.00 765.00,386.00              765.00,386.00 765.00,817.00 765.00,817.00              765.00,819.13 765.25,822.58 764.01,824.37              762.30,826.81 750.29,832.01 747.00,833.42              726.32,842.27 712.64,846.26 690.00,846.00              667.64,845.73 656.95,836.19 643.00,820.00              629.53,804.36 614.42,779.07 603.19,761.00              603.19,761.00 495.05,591.00 495.05,591.00              495.05,591.00 455.69,529.00 455.69,529.00              455.69,529.00 437.00,500.00 437.00,500.00              437.00,500.00 437.00,797.00 437.00,797.00              437.00,797.00 499.00,811.00 499.00,811.00              495.97,827.09 489.09,837.23 473.00,842.64              465.45,845.18 458.90,845.96 451.00,846.00              451.00,846.00 420.00,848.00 420.00,848.00              420.00,848.00 400.00,849.00 400.00,849.00              400.00,849.00 385.00,850.00 385.00,850.00              385.00,850.00 347.00,852.00 347.00,852.00              347.00,852.00 337.00,852.91 337.00,852.91              337.00,852.91 321.00,853.83 321.00,853.83              315.32,854.37 311.44,854.81 311.04,848.00              310.54,839.37 314.29,829.04 322.01,824.53              325.41,822.55 336.62,819.77 341.00,818.63              344.92,817.61 359.03,814.46 360.98,811.57              362.22,809.73 362.00,806.18 362.00,804.00              362.00,804.00 362.00,420.00 362.00,420.00              362.00,420.00 339.00,418.17 339.00,418.17              339.00,418.17 312.00,416.00 312.00,416.00              312.00,402.01 311.67,390.65 323.04,380.18              334.89,369.28 349.28,370.92 364.00,369.91              364.00,369.91 415.00,366.09 415.00,366.09              415.00,366.09 438.00,364.83 438.00,364.83              438.00,364.83 467.00,362.91 467.00,362.91              467.00,362.91 479.00,362.01 479.00,362.01              482.80,361.95 489.82,360.30 492.79,362.01              495.09,363.35 497.49,367.70 499.00,370.00              499.00,370.00 509.66,386.00 509.66,386.00              509.66,386.00 548.67,446.00 548.67,446.00              548.67,446.00 650.66,602.00 650.66,602.00              650.66,602.00 696.00,671.00 696.00,671.00              696.00,671.00 696.00,396.00 696.00,396.00 Z" />
</svg>