<svg xmlns="http://www.w3.org/2000/svg" viewBox="-0.5 -0.5 1561 501">
  <path id="Selection" fill="#303030" stroke="none" stroke-width="1" d="M 0.00,0.00            C 0.00,0.00 400.00,0.00 400.00,0.00              400.00,0.00 400.00,400.00 400.00,400.00              400.00,400.00 300.00,400.00 300.00,400.00              300.00,400.00 300.00,100.00 300.00,100.00              300.00,100.00 200.00,100.00 200.00,100.00              200.00,100.00 200.00,400.00 200.00,400.00              200.00,400.00 0.00,400.00 0.00,400.00              0.00,400.00 0.00,0.00 0.00,0.00 Z            M 480.00,0.00            C 480.00,0.00 880.00,0.00 880.00,0.00              880.00,0.00 880.00,400.00 880.00,400.00              880.00,400.00 680.00,400.00 680.00,400.00              680.00,400.00 680.00,500.00 680.00,500.00              680.00,500.00 480.00,500.00 480.00,500.00              480.00,500.00 480.00,0.00 480.00,0.00 Z            M 960.00,0.00            C 960.00,0.00 1560.00,0.00 1560.00,0.00              1560.00,0.00 1560.00,400.00 1560.00,400.00              1560.00,400.00 1460.00,400.00 1460.00,400.00              1460.00,400.00 1460.00,100.00 1460.00,100.00              1460.00,100.00 1360.00,100.00 1360.00,100.00              1360.00,100.00 1360.00,400.00 1360.00,400.00              1360.00,400.00 1260.00,400.00 1260.00,400.00              1260.00,400.00 1260.00,100.00 1260.00,100.00              1260.00,100.00 1160.00,100.00 1160.00,100.00              1160.00,100.00 1160.00,400.00 1160.00,400.00              1160.00,400.00 960.00,400.00 960.00,400.00              960.00,400.00 960.00,0.00 960.00,0.00 Z            M 780.00,100.00            C 780.00,100.00 680.00,100.00 680.00,100.00              680.00,100.00 680.00,300.00 680.00,300.00              680.00,300.00 780.00,300.00 780.00,300.00              780.00,300.00 780.00,100.00 780.00,100.00 Z"/>
</svg>