<svg xmlns="http://www.w3.org/2000/svg" viewBox="-0.5 -0.5 513 513">
  <path id="npm" fill="#303030" stroke="none" stroke-width="1"
    d="M 0.00,0.00            C 0.00,0.00 512.00,0.00 512.00,0.00              512.00,0.00 512.00,512.00 512.00,512.00              512.00,512.00 0.00,512.00 0.00,512.00              0.00,512.00 0.00,0.00 0.00,0.00 Z            M 416.00,96.00            C 416.00,96.00 96.00,96.00 96.00,96.00              96.00,96.00 96.00,416.00 96.00,416.00              96.00,416.00 256.00,416.00 256.00,416.00              256.00,416.00 256.00,160.00 256.00,160.00              256.00,160.00 352.00,160.00 352.00,160.00              352.00,160.00 352.00,416.00 352.00,416.00              352.00,416.00 416.00,416.00 416.00,416.00              416.00,416.00 416.00,96.00 416.00,96.00 Z" />
</svg>