<svg xmlns="http://www.w3.org/2000/svg" viewBox="-0.5 -0.5 2049 2049">
  <path id="nsf" fill="#303030" stroke="none" stroke-width="1"
    d="M 1001.00,0.00            C 1001.00,0.00 1058.00,0.00 1058.00,0.00              1058.00,0.00 1058.00,25.00 1058.00,25.00              1058.00,25.00 1058.91,37.00 1058.91,37.00              1061.49,73.87 1071.31,110.12 1093.90,140.00              1102.20,150.99 1116.42,165.49 1128.00,172.91              1128.00,172.91 1183.00,198.00 1183.00,198.00              1235.43,218.97 1288.02,235.09 1345.00,235.00              1364.11,234.97 1391.12,230.32 1409.00,223.58              1441.73,211.23 1465.22,194.38 1486.12,166.00              1493.13,156.47 1499.64,146.23 1505.58,136.00              1507.16,133.27 1512.44,123.06 1514.39,121.69              1517.43,119.55 1522.93,122.36 1526.00,123.60              1535.20,127.33 1545.61,133.00 1554.00,138.32              1557.52,140.55 1563.38,143.01 1562.32,148.04              1561.86,150.19 1557.50,158.49 1556.25,161.00              1556.25,161.00 1539.12,193.00 1539.12,193.00              1531.84,207.53 1525.19,238.66 1525.00,255.00              1525.00,255.00 1525.00,273.00 1525.00,273.00              1525.03,293.15 1532.27,321.00 1541.27,339.00              1549.96,356.39 1561.37,368.48 1573.87,383.00              1573.87,383.00 1618.91,434.00 1618.91,434.00              1662.40,480.76 1717.93,530.79 1786.00,530.00              1807.81,529.74 1842.37,519.25 1862.00,509.74              1872.47,504.67 1894.26,490.83 1904.00,489.00              1904.00,489.00 1921.42,522.00 1921.42,522.00              1922.94,524.68 1927.75,531.89 1926.71,534.79              1925.72,537.53 1915.85,542.65 1913.00,544.42              1901.51,551.58 1890.44,559.63 1880.00,568.25              1880.00,568.25 1861.00,586.00 1861.00,586.00              1833.37,613.63 1817.06,642.24 1817.00,682.00              1817.00,682.00 1817.00,717.00 1817.00,717.00              1817.00,717.00 1817.91,729.00 1817.91,729.00              1820.08,760.54 1825.91,791.58 1834.58,822.00              1841.60,846.65 1849.57,868.48 1859.72,892.00              1865.56,905.52 1871.20,918.88 1879.72,931.00              1904.75,966.60 1939.88,986.78 1982.00,995.20              1990.79,996.96 2004.15,998.96 2013.00,999.00              2013.00,999.00 2048.00,998.00 2048.00,998.00              2048.00,998.00 2048.00,1053.00 2048.00,1053.00              2048.00,1053.00 2040.00,1053.00 2040.00,1053.00              2040.00,1053.00 2027.00,1053.96 2027.00,1053.96              1979.59,1056.03 1932.07,1067.54 1896.00,1100.17              1873.34,1120.67 1865.04,1144.41 1854.95,1172.00              1854.95,1172.00 1842.33,1207.00 1842.33,1207.00              1819.84,1274.48 1799.69,1356.08 1837.43,1422.00              1844.47,1434.30 1853.30,1445.75 1863.17,1455.91              1874.05,1467.12 1887.23,1475.88 1900.00,1484.72              1900.00,1484.72 1930.00,1505.00 1930.00,1505.00              1927.95,1516.30 1917.21,1534.38 1910.66,1544.00              1908.56,1547.07 1903.72,1555.07 1899.91,1555.48              1896.63,1555.82 1889.96,1551.50 1887.00,1549.86              1887.00,1549.86 1863.00,1538.25 1863.00,1538.25              1844.27,1528.97 1810.84,1517.25 1790.00,1517.00              1790.00,1517.00 1775.00,1517.00 1775.00,1517.00              1761.95,1517.02 1745.13,1522.93 1733.00,1527.80              1695.75,1542.75 1664.12,1567.79 1635.00,1594.91              1615.50,1613.07 1597.69,1632.26 1579.83,1652.00              1579.83,1652.00 1570.09,1662.00 1570.09,1662.00              1561.53,1671.19 1553.66,1682.10 1547.43,1693.00              1532.96,1718.27 1524.66,1751.91 1525.00,1781.00              1525.00,1781.00 1525.91,1791.00 1525.91,1791.00              1527.67,1816.09 1532.75,1832.11 1542.86,1855.00              1542.86,1855.00 1561.00,1895.00 1561.00,1895.00              1561.00,1895.00 1515.00,1923.00 1515.00,1923.00              1515.00,1923.00 1506.99,1909.00 1506.99,1909.00              1501.53,1899.66 1495.68,1890.61 1489.12,1882.00              1460.30,1844.21 1417.64,1811.08 1368.00,1811.00              1368.00,1811.00 1334.00,1811.00 1334.00,1811.00              1334.00,1811.00 1323.00,1811.91 1323.00,1811.91              1273.89,1815.29 1226.78,1828.45 1181.00,1846.19              1163.09,1853.13 1131.91,1864.20 1118.00,1876.29              1074.92,1913.73 1055.75,1963.13 1051.91,2019.00              1051.91,2019.00 1051.00,2031.00 1051.00,2031.00              1051.00,2031.00 1051.00,2048.00 1051.00,2048.00              1051.00,2048.00 997.00,2048.00 997.00,2048.00              997.00,2048.00 997.00,2030.00 997.00,2030.00              997.00,2030.00 996.09,2018.00 996.09,2018.00              993.40,1979.57 983.69,1942.20 960.10,1911.00              939.91,1884.29 921.24,1873.94 892.00,1860.22              853.50,1842.16 807.14,1828.74 765.00,1822.87              765.00,1822.87 726.00,1818.04 726.00,1818.04              726.00,1818.04 717.00,1818.04 717.00,1818.04              717.00,1818.04 707.00,1817.04 707.00,1817.04              707.00,1817.04 700.00,1817.83 700.00,1817.83              700.00,1817.83 684.00,1819.61 684.00,1819.61              644.93,1826.71 611.19,1849.46 585.29,1879.00              577.38,1888.01 563.43,1906.86 556.67,1917.00              553.57,1921.64 547.24,1932.42 542.00,1934.04              538.41,1935.15 534.99,1932.51 532.00,1930.86              532.00,1930.86 509.02,1917.90 509.02,1917.90              496.55,1909.29 506.48,1897.48 511.70,1888.00              524.55,1864.63 537.68,1830.95 538.00,1804.00              538.30,1778.36 537.86,1762.60 528.58,1738.00              523.91,1725.65 515.94,1714.91 508.67,1704.00              493.28,1680.91 475.94,1659.34 457.09,1639.00              431.33,1611.21 403.21,1585.59 372.00,1563.98              356.13,1552.98 345.50,1545.28 327.00,1538.69              304.70,1530.76 286.21,1529.96 263.00,1530.00              236.60,1530.04 205.89,1539.64 182.00,1550.44              177.72,1552.37 168.99,1557.37 165.00,1560.00              162.41,1561.71 156.76,1565.85 154.00,1566.44              149.19,1567.47 145.95,1563.41 143.43,1559.99              143.43,1559.99 128.38,1535.00 128.38,1535.00              126.29,1530.98 124.84,1527.15 128.38,1523.33              130.64,1520.76 138.54,1516.89 142.00,1514.80              149.76,1510.11 160.94,1502.59 168.00,1497.00              203.93,1468.52 236.92,1427.11 237.00,1379.00              237.00,1379.00 237.00,1342.00 237.00,1342.00              237.00,1342.00 232.08,1296.00 232.08,1296.00              225.36,1255.12 212.96,1215.41 197.60,1177.00              197.60,1177.00 174.39,1124.00 174.39,1124.00              168.20,1113.72 156.32,1102.02 147.00,1094.46              116.93,1070.06 77.10,1058.70 39.00,1055.91              39.00,1055.91 27.00,1055.00 27.00,1055.00              27.00,1055.00 0.00,1055.00 0.00,1055.00              0.00,1055.00 0.00,1001.00 0.00,1001.00              0.00,1001.00 22.00,1001.00 22.00,1001.00              30.02,1000.99 41.96,999.40 50.00,998.08              87.32,991.95 122.59,978.49 151.00,952.83              175.38,930.81 187.75,905.61 200.42,876.00              220.97,827.97 233.96,776.84 240.15,725.00              240.15,725.00 242.91,701.00 242.91,701.00              243.81,685.06 234.14,659.75 226.28,646.00              205.07,608.89 161.34,570.94 122.00,554.00              124.64,544.74 134.86,526.77 140.01,518.00              141.51,515.45 145.67,507.27 148.21,506.41              150.52,505.63 155.78,508.29 158.00,509.31              158.00,509.31 182.00,520.69 182.00,520.69              182.00,520.69 208.00,531.05 208.00,531.05              226.18,537.72 243.29,543.77 263.00,544.00              303.76,544.47 341.44,526.69 374.00,503.42              410.10,477.62 441.36,445.55 469.00,411.00              494.77,378.79 520.27,342.19 528.55,301.00              531.38,286.94 531.16,278.10 531.00,264.00              530.71,239.57 517.59,207.94 505.57,187.00              501.30,179.55 488.99,162.25 487.00,156.00              499.01,147.50 521.89,130.67 535.00,126.00              557.86,165.70 588.17,205.28 630.00,226.25              645.70,234.11 663.27,239.97 681.00,240.00              681.00,240.00 708.00,240.00 708.00,240.00              708.00,240.00 720.00,239.09 720.00,239.09              720.00,239.09 738.00,237.83 738.00,237.83              782.54,233.36 826.00,220.69 868.00,205.69              899.65,194.39 928.52,183.76 951.83,158.00              982.68,123.90 996.92,82.32 1000.09,37.00              1000.09,37.00 1001.00,25.00 1001.00,25.00              1001.00,25.00 1001.00,0.00 1001.00,0.00 Z            M 904.00,547.00            C 924.81,497.93 931.62,474.24 944.37,423.00              944.37,423.00 956.42,369.00 956.42,369.00              956.42,369.00 963.70,336.00 963.70,336.00              965.99,320.44 966.18,304.70 966.00,289.00              965.81,273.41 959.94,260.59 948.00,250.59              945.83,248.77 943.64,246.81 941.00,245.70              937.21,244.10 932.07,244.01 928.00,244.00              928.00,244.00 904.00,244.00 904.00,244.00              892.61,244.14 865.97,249.01 854.00,251.40              854.00,251.40 821.00,257.76 821.00,257.76              802.57,262.69 764.58,280.03 748.00,290.00              738.16,295.92 728.70,302.50 720.00,310.00              716.17,313.30 711.68,316.67 708.99,321.00              706.74,324.63 705.72,329.77 705.30,334.00              703.91,348.07 718.39,367.59 726.00,379.00              740.02,400.02 756.54,418.78 773.96,437.00              773.96,437.00 787.00,450.99 787.00,450.99              787.00,450.99 816.00,478.04 816.00,478.04              816.00,478.04 864.00,521.28 864.00,521.28              868.79,525.50 886.03,541.96 890.00,544.00              893.07,545.57 900.12,546.04 904.00,547.00 Z            M 1152.00,247.28            C 1137.83,249.32 1116.93,250.48 1106.18,261.18              1094.30,273.02 1093.98,290.44 1094.00,306.00              1094.02,320.70 1098.81,345.05 1101.80,360.00              1108.85,395.25 1118.21,429.49 1128.14,464.00              1128.14,464.00 1150.19,527.00 1150.19,527.00              1151.68,530.84 1155.39,542.82 1158.41,544.83              1160.13,545.96 1163.01,546.07 1165.00,545.89              1173.28,545.12 1178.83,536.53 1184.09,531.01              1184.09,531.01 1194.00,521.96 1194.00,521.96              1194.00,521.96 1219.00,497.00 1219.00,497.00              1257.48,458.52 1297.94,419.58 1326.81,373.00              1335.93,358.28 1350.51,335.32 1351.82,318.00              1352.18,313.23 1350.49,306.82 1347.58,303.00              1341.47,294.97 1319.65,284.07 1310.00,279.25              1271.98,260.24 1243.81,254.01 1202.00,249.83              1186.49,248.28 1167.44,245.85 1152.00,247.28 Z            M 951.00,540.00            C 951.00,540.00 978.00,538.17 978.00,538.17              978.00,538.17 1011.00,535.91 1011.00,535.91              1011.00,535.91 1032.00,534.32 1032.00,534.32              1032.00,534.32 1050.00,536.00 1050.00,536.00              1050.00,536.00 1059.00,536.00 1059.00,536.00              1059.00,536.00 1069.00,537.00 1069.00,537.00              1069.00,537.00 1100.00,537.00 1100.00,537.00              1102.43,537.00 1107.38,537.37 1108.99,535.26              1110.70,533.04 1108.56,527.49 1107.86,525.00              1107.86,525.00 1098.80,498.00 1098.80,498.00              1098.80,498.00 1069.21,431.00 1069.21,431.00              1069.21,431.00 1056.26,411.00 1056.26,411.00              1050.83,400.51 1043.29,382.53 1030.00,381.20              1019.86,380.18 1016.88,386.49 1012.58,394.00              1012.58,394.00 993.75,430.00 993.75,430.00              993.75,430.00 973.40,475.00 973.40,475.00              967.90,488.75 953.01,527.02 951.00,540.00 Z            M 1485.00,394.30            C 1478.48,395.53 1467.14,400.04 1462.33,404.53              1459.39,407.27 1453.85,417.11 1451.78,421.00              1451.78,421.00 1436.72,452.00 1436.72,452.00              1418.37,494.50 1408.31,539.27 1397.13,584.00              1397.13,584.00 1386.63,628.00 1386.63,628.00              1384.20,637.57 1380.89,647.08 1380.18,657.00              1379.89,661.15 1381.57,671.69 1385.39,673.94              1388.01,675.48 1398.65,673.15 1402.00,672.59              1402.00,672.59 1448.00,663.37 1448.00,663.37              1497.08,651.32 1568.28,631.40 1614.00,611.72              1631.93,604.00 1650.09,594.18 1659.24,576.00              1660.71,573.07 1662.97,568.22 1663.31,565.00              1663.82,560.20 1659.55,549.63 1657.57,545.00              1650.31,527.96 1641.10,513.45 1629.55,499.00              1612.93,478.20 1595.33,462.19 1575.00,445.25              1557.57,430.72 1539.65,416.83 1520.00,405.42              1507.66,398.26 1499.84,392.82 1485.00,394.30 Z            M 568.00,400.71            C 553.47,401.35 529.14,415.24 517.00,423.33              478.35,449.10 444.57,487.41 419.00,526.00              410.34,539.07 401.79,555.52 398.80,571.00              396.98,580.44 395.70,586.29 400.93,595.00              412.86,614.88 443.15,625.27 464.00,632.69              507.37,648.12 555.94,660.48 601.00,670.21              601.00,670.21 633.00,677.13 633.00,677.13              641.38,679.18 648.17,681.89 657.00,682.00              663.93,682.08 673.55,681.50 676.89,673.98              678.36,670.67 675.74,660.90 675.08,657.00              675.08,657.00 666.13,614.00 666.13,614.00              653.80,563.18 635.98,497.68 615.58,450.00              606.30,428.32 594.96,402.23 568.00,400.71 Z            M 1345.00,639.00            C 1349.30,628.88 1351.57,614.89 1353.61,604.00              1356.79,587.03 1358.97,564.24 1359.00,547.00              1359.00,547.00 1359.95,535.00 1359.95,535.00              1359.95,535.00 1359.95,516.00 1359.95,516.00              1359.95,516.00 1359.04,506.00 1359.04,506.00              1359.04,506.00 1359.04,491.00 1359.04,491.00              1359.04,491.00 1358.04,480.00 1358.04,480.00              1357.54,468.60 1358.72,458.13 1343.00,459.09              1327.63,460.04 1314.77,472.21 1303.00,480.85              1303.00,480.85 1288.00,490.91 1288.00,490.91              1288.00,490.91 1268.00,506.35 1268.00,506.35              1268.00,506.35 1231.00,535.87 1231.00,535.87              1224.37,541.58 1207.39,556.83 1204.00,564.00              1222.31,575.92 1245.07,580.59 1264.00,591.43              1264.00,591.43 1317.00,625.00 1317.00,625.00              1324.60,629.57 1336.68,636.75 1345.00,639.00 Z            M 714.00,645.00            C 714.00,645.00 748.00,623.05 748.00,623.05              748.00,623.05 803.00,591.74 803.00,591.74              803.00,591.74 817.00,584.32 817.00,584.32              817.00,584.32 844.00,572.00 844.00,572.00              846.18,571.07 852.61,568.89 853.29,566.59              854.14,563.68 849.76,558.95 847.91,557.04              847.91,557.04 840.00,549.91 840.00,549.91              840.00,549.91 824.00,535.43 824.00,535.43              805.18,519.77 784.98,505.62 764.00,493.00              755.39,487.82 742.12,479.52 733.00,476.27              723.55,472.89 709.92,460.75 700.09,467.85              698.24,469.19 696.74,470.89 695.85,473.01              695.04,474.98 695.04,476.92 695.00,479.00              695.00,479.00 695.00,485.00 695.00,485.00              695.00,485.00 694.00,498.00 694.00,498.00              694.00,498.00 694.00,515.00 694.00,515.00              694.00,515.00 695.00,535.00 695.00,535.00              695.02,550.72 699.08,578.97 701.75,595.00              703.69,606.59 709.71,634.90 714.00,645.00 Z            M 908.00,1470.00            C 908.00,1470.00 941.00,1479.77 941.00,1479.77              941.00,1479.77 983.00,1485.15 983.00,1485.15              983.00,1485.15 1023.00,1490.00 1023.00,1490.00              1023.00,1490.00 1066.00,1487.17 1066.00,1487.17              1066.00,1487.17 1105.00,1484.17 1105.00,1484.17              1105.00,1484.17 1114.00,1483.54 1114.00,1483.54              1114.00,1483.54 1149.00,1474.15 1149.00,1474.15              1149.00,1474.15 1185.00,1464.46 1185.00,1464.46              1185.00,1464.46 1210.00,1453.30 1210.00,1453.30              1210.00,1453.30 1249.00,1435.69 1249.00,1435.69              1249.00,1435.69 1282.00,1414.33 1282.00,1414.33              1282.00,1414.33 1305.00,1399.39 1305.00,1399.39              1305.00,1399.39 1334.00,1373.17 1334.00,1373.17              1334.00,1373.17 1354.71,1354.83 1354.71,1354.83              1354.71,1354.83 1397.96,1303.00 1397.96,1303.00              1397.96,1303.00 1413.68,1278.00 1413.68,1278.00              1413.68,1278.00 1431.63,1249.00 1431.63,1249.00              1431.63,1249.00 1441.86,1226.00 1441.86,1226.00              1441.86,1226.00 1457.77,1190.00 1457.77,1190.00              1457.77,1190.00 1465.42,1164.00 1465.42,1164.00              1465.42,1164.00 1476.34,1126.00 1476.34,1126.00              1476.34,1126.00 1481.27,1093.00 1481.27,1093.00              1481.27,1093.00 1486.00,1056.00 1486.00,1056.00              1486.00,1056.00 1486.00,997.00 1486.00,997.00              1486.00,997.00 1483.15,971.00 1483.15,971.00              1483.15,971.00 1478.54,934.00 1478.54,934.00              1478.54,934.00 1470.88,906.00 1470.88,906.00              1470.88,906.00 1459.94,868.00 1459.94,868.00              1459.94,868.00 1445.86,837.00 1445.86,837.00              1445.86,837.00 1433.13,809.00 1433.13,809.00              1433.13,809.00 1416.69,784.00 1416.69,784.00              1416.69,784.00 1395.48,752.00 1395.48,752.00              1395.48,752.00 1377.17,732.00 1377.17,732.00              1377.17,732.00 1349.91,702.17 1349.91,702.17              1349.91,702.17 1319.00,677.55 1319.00,677.55              1319.00,677.55 1293.00,656.77 1293.00,656.77              1293.00,656.77 1261.00,637.55 1261.00,637.55              1261.00,637.55 1233.00,620.97 1233.00,620.97              1233.00,620.97 1210.00,611.14 1210.00,611.14              1210.00,611.14 1166.00,592.75 1166.00,592.75              1166.00,592.75 1130.00,584.58 1130.00,584.58              1130.00,584.58 1092.00,576.29 1092.00,576.29              1081.86,574.92 1076.02,575.02 1066.00,575.00              1066.00,575.00 1049.00,574.00 1049.00,574.00              1049.00,574.00 1025.00,574.00 1025.00,574.00              1025.00,574.00 1011.00,573.00 1011.00,573.00              994.00,572.80 979.61,576.16 963.00,578.73              963.00,578.73 915.00,585.90 915.00,585.90              915.00,585.90 888.00,594.81 888.00,594.81              888.00,594.81 841.00,610.46 841.00,610.46              841.00,610.46 809.00,627.69 809.00,627.69              809.00,627.69 776.00,645.55 776.00,645.55              776.00,645.55 746.00,669.00 746.00,669.00              746.00,669.00 720.17,689.44 720.17,689.44              720.17,689.44 694.92,717.00 694.92,717.00              694.92,717.00 671.76,743.00 671.76,743.00              671.76,743.00 650.33,776.00 650.33,776.00              640.66,790.58 629.82,805.95 625.00,823.00              625.00,823.00 626.00,822.00 626.00,822.00              626.00,822.00 627.00,823.00 627.00,823.00              621.93,826.47 620.48,833.01 618.06,838.42              618.06,838.42 613.60,849.00 613.60,849.00              608.97,858.81 607.13,860.78 604.12,872.00              604.12,872.00 587.66,930.00 587.66,930.00              587.66,930.00 581.87,971.00 581.87,971.00              581.87,971.00 578.00,1005.00 578.00,1005.00              578.00,1005.00 578.00,1032.00 578.00,1032.00              578.00,1032.00 579.00,1047.00 579.00,1047.00              579.00,1047.00 579.00,1065.00 579.00,1065.00              579.02,1075.95 581.88,1088.08 583.58,1099.00              583.58,1099.00 590.23,1139.00 590.23,1139.00              590.23,1139.00 602.33,1178.00 602.33,1178.00              602.33,1178.00 611.46,1206.00 611.46,1206.00              611.46,1206.00 626.75,1237.00 626.75,1237.00              626.75,1237.00 643.93,1271.00 643.93,1271.00              643.93,1271.00 659.29,1292.00 659.29,1292.00              659.29,1292.00 684.46,1327.00 684.46,1327.00              684.46,1327.00 705.00,1348.00 705.00,1348.00              705.00,1348.00 720.12,1362.51 720.12,1362.51              720.12,1362.51 739.09,1381.21 739.09,1381.21              739.09,1381.21 769.00,1402.02 769.00,1402.02              775.21,1406.30 788.01,1417.67 795.00,1418.00              795.00,1418.00 794.00,1420.00 794.00,1420.00              794.00,1420.00 797.00,1419.00 797.00,1419.00              797.19,1419.93 796.76,1420.10 797.77,1421.68              800.13,1425.41 816.30,1433.05 821.00,1435.14              821.00,1435.14 868.00,1457.54 868.00,1457.54              868.00,1457.54 880.00,1461.28 880.00,1461.28              886.97,1463.37 895.80,1467.40 903.00,1466.00              903.00,1466.00 906.00,1467.00 906.00,1467.00              906.00,1467.00 910.00,1469.00 910.00,1469.00              910.00,1469.00 908.00,1469.00 908.00,1469.00              908.00,1469.00 908.00,1470.00 908.00,1470.00 Z            M 1532.00,691.28            C 1532.00,691.28 1505.00,693.17 1505.00,693.17              1484.34,695.14 1464.17,698.30 1444.00,703.10              1437.33,704.69 1419.05,704.05 1416.15,711.10              1414.84,714.31 1417.99,717.65 1419.79,720.00              1419.79,720.00 1433.66,739.00 1433.66,739.00              1450.53,763.80 1465.43,789.63 1479.69,816.00              1479.69,816.00 1489.75,835.00 1489.75,835.00              1490.95,837.25 1492.93,841.62 1495.95,841.66              1498.55,841.70 1504.98,834.03 1507.00,832.00              1507.00,832.00 1536.73,799.00 1536.73,799.00              1556.01,776.39 1572.11,753.71 1585.24,727.00              1585.24,727.00 1593.18,708.00 1593.18,708.00              1594.07,704.79 1595.24,702.18 1593.18,699.00              1588.90,691.46 1583.32,692.41 1576.00,691.91              1561.81,690.94 1546.19,689.96 1532.00,691.28 Z            M 1721.00,701.29            C 1708.44,703.37 1699.69,709.71 1689.00,716.20              1666.88,729.64 1646.63,745.80 1627.00,762.58              1594.47,790.39 1566.78,821.62 1537.92,853.00              1537.92,853.00 1517.42,876.00 1517.42,876.00              1514.10,879.85 1510.03,883.54 1510.10,889.00              1510.22,898.48 1520.79,901.46 1528.00,904.40              1547.65,912.40 1567.61,919.02 1588.00,924.86              1588.00,924.86 1631.00,936.37 1631.00,936.37              1631.00,936.37 1667.00,946.10 1667.00,946.10              1667.00,946.10 1681.00,948.61 1681.00,948.61              1681.00,948.61 1703.00,953.21 1703.00,953.21              1720.63,956.96 1740.99,961.21 1759.00,961.00              1769.34,960.88 1783.61,958.02 1793.00,953.69              1796.24,952.20 1802.02,949.24 1804.19,946.48              1806.13,944.02 1807.82,937.20 1808.63,934.00              1810.85,925.11 1812.99,912.11 1813.00,903.00              1813.00,903.00 1813.00,884.00 1813.00,884.00              1812.95,852.61 1797.11,800.22 1784.91,771.00              1784.91,771.00 1773.31,748.00 1773.31,748.00              1762.91,725.36 1750.72,698.49 1721.00,701.29 Z            M 642.00,717.00            C 620.07,709.83 596.92,706.49 574.00,704.91              574.00,704.91 564.00,704.00 564.00,704.00              564.00,704.00 544.00,703.00 544.00,703.00              544.00,703.00 525.00,703.00 525.00,703.00              525.00,703.00 510.00,704.00 510.00,704.00              510.00,704.00 492.00,704.00 492.00,704.00              482.87,704.01 465.51,706.22 464.32,718.00              463.80,723.08 471.68,738.90 474.25,744.00              487.85,771.03 511.92,802.39 533.01,824.00              533.01,824.00 555.00,846.00 555.00,846.00              556.94,847.93 560.80,852.41 563.79,851.95              566.73,851.49 568.66,845.45 569.72,843.00              569.72,843.00 581.31,817.00 581.31,817.00              589.72,798.70 607.65,769.03 619.00,752.00              619.00,752.00 642.00,717.00 642.00,717.00 Z            M 321.00,713.61            C 296.91,717.14 284.17,749.46 275.85,769.00              275.85,769.00 266.54,790.00 266.54,790.00              258.80,811.26 249.03,857.56 249.00,880.00              249.00,880.00 249.00,903.00 249.00,903.00              249.09,910.77 252.11,934.81 255.84,941.00              265.99,957.86 285.49,959.20 303.00,959.00              303.00,959.00 313.00,958.09 313.00,958.09              374.43,953.87 426.72,935.20 485.00,917.72              485.00,917.72 527.00,906.12 527.00,906.12              532.20,904.74 540.47,902.43 542.72,896.98              544.66,892.29 537.61,883.82 534.98,880.00              523.54,863.43 513.05,853.05 499.00,839.00              499.00,839.00 450.00,793.29 450.00,793.29              450.00,793.29 425.00,771.84 425.00,771.84              395.12,745.15 363.47,715.01 321.00,713.61 Z            M 629.00,815.00            C 629.00,815.00 630.00,815.00 630.00,815.00              630.00,815.00 629.00,816.00 629.00,816.00              629.00,816.00 629.00,815.00 629.00,815.00 Z            M 627.00,820.00            C 627.00,820.00 628.00,820.00 628.00,820.00              628.00,820.00 627.00,821.00 627.00,821.00              627.00,821.00 627.00,820.00 627.00,820.00 Z            M 963.00,1065.00            C 963.64,1072.57 966.26,1079.84 968.67,1087.00              977.83,1114.21 996.17,1141.62 1025.00,1150.28              1053.65,1158.88 1087.95,1152.27 1097.56,1120.00              1098.71,1116.13 1099.90,1108.98 1099.54,1105.00              1096.88,1075.43 1074.48,1067.11 1051.00,1055.74              1013.52,1037.60 955.58,1013.36 955.00,964.00              954.80,946.44 954.64,936.82 961.45,920.00              974.68,887.36 1008.82,873.39 1042.00,873.00              1059.63,872.80 1070.32,875.34 1087.00,880.14              1092.90,881.84 1105.66,887.05 1111.00,886.72              1118.84,886.25 1122.39,879.80 1124.00,873.00              1124.00,873.00 1136.00,873.00 1136.00,873.00              1136.00,873.00 1136.00,962.00 1136.00,962.00              1133.58,962.00 1127.55,962.43 1125.72,961.01              1124.15,959.79 1121.41,950.51 1120.40,948.00              1117.46,940.75 1111.63,929.43 1107.25,923.00              1091.23,899.44 1070.77,885.87 1042.00,886.00              1032.49,886.05 1022.63,888.64 1015.00,894.53              997.59,907.95 993.26,933.92 1007.92,950.96              1017.64,962.26 1033.80,969.65 1047.00,976.25              1047.00,976.25 1088.00,996.75 1088.00,996.75              1097.49,1001.50 1106.49,1005.43 1115.00,1011.90              1133.56,1026.01 1147.72,1050.32 1148.00,1074.00              1148.12,1084.75 1148.40,1092.47 1145.28,1103.00              1133.41,1143.04 1100.06,1163.16 1060.00,1166.09              1060.00,1166.09 1050.00,1167.00 1050.00,1167.00              1034.49,1167.18 1019.96,1165.54 1005.00,1161.29              998.63,1159.48 980.08,1152.81 975.00,1153.15              967.69,1153.63 964.05,1160.57 963.00,1167.00              963.00,1167.00 951.00,1167.00 951.00,1167.00              951.00,1167.00 951.00,1065.00 951.00,1065.00              951.00,1065.00 963.00,1065.00 963.00,1065.00 Z            M 645.00,879.00            C 645.00,879.00 724.00,879.00 724.00,879.00              735.11,879.02 736.25,883.60 743.00,892.00              743.00,892.00 767.25,922.00 767.25,922.00              767.25,922.00 843.75,1016.00 843.75,1016.00              843.75,1016.00 877.00,1056.00 877.00,1056.00              877.00,1056.00 877.00,927.00 877.00,927.00              876.98,914.46 874.25,903.21 863.00,895.97              858.76,893.24 852.94,891.53 848.00,890.61              845.77,890.20 841.43,890.05 839.99,888.26              838.62,886.57 839.00,881.23 839.00,879.00              839.00,879.00 927.00,879.00 927.00,879.00              927.00,881.31 927.36,886.63 925.98,888.41              924.66,890.10 920.13,890.62 918.00,891.13              912.88,892.37 908.35,893.56 904.04,896.79              896.15,902.70 895.01,911.84 895.00,921.00              895.00,921.00 895.00,1167.00 895.00,1167.00              892.47,1167.00 887.20,1167.23 885.01,1166.40              880.81,1164.81 871.28,1152.07 868.00,1148.00              868.00,1148.00 837.61,1111.00 837.61,1111.00              837.61,1111.00 746.42,1000.00 746.42,1000.00              746.42,1000.00 714.41,961.00 714.41,961.00              709.88,955.55 702.94,946.32 698.00,942.00              698.00,942.00 698.00,1109.00 698.00,1109.00              698.02,1118.89 699.47,1130.26 706.47,1137.82              713.47,1145.37 727.08,1148.20 737.00,1149.00              737.00,1149.00 737.00,1159.00 737.00,1159.00              737.00,1159.00 644.00,1159.00 644.00,1159.00              644.00,1159.00 644.00,1149.00 644.00,1149.00              657.21,1147.93 673.32,1145.25 678.24,1131.00              679.91,1126.16 679.99,1123.00 680.00,1118.00              680.00,1118.00 680.00,927.00 680.00,927.00              680.00,924.87 680.12,921.99 679.41,920.00              677.59,914.90 662.66,899.53 658.00,895.81              658.00,895.81 645.57,887.57 645.57,887.57              644.79,885.98 645.00,880.96 645.00,879.00 Z            M 1173.00,879.00            C 1173.00,879.00 1408.00,879.00 1408.00,879.00              1408.00,879.00 1408.00,962.00 1408.00,962.00              1408.00,962.00 1398.00,962.00 1398.00,962.00              1394.76,944.77 1388.90,924.64 1375.91,912.17              1366.27,902.91 1351.07,897.31 1338.00,895.29              1325.78,893.41 1313.35,892.86 1301.00,893.00              1293.78,893.09 1284.30,893.89 1279.65,900.09              1276.43,904.38 1276.01,914.63 1276.00,920.00              1276.00,920.00 1276.00,1009.00 1276.00,1009.00              1287.93,1009.00 1300.16,1008.18 1311.00,1002.63              1331.27,992.26 1337.25,967.71 1340.00,947.00              1340.00,947.00 1350.00,947.00 1350.00,947.00              1350.00,947.00 1350.00,1087.00 1350.00,1087.00              1350.00,1087.00 1340.00,1087.00 1340.00,1087.00              1339.77,1081.94 1338.79,1076.96 1337.80,1072.00              1333.82,1052.01 1326.08,1035.57 1306.00,1027.45              1295.33,1023.14 1287.18,1023.00 1276.00,1023.00              1276.00,1023.00 1276.00,1114.00 1276.00,1114.00              1276.04,1121.84 1277.00,1132.84 1282.34,1138.91              1290.70,1148.42 1310.07,1149.00 1322.00,1149.00              1322.00,1149.00 1322.00,1159.00 1322.00,1159.00              1322.00,1159.00 1173.00,1159.00 1173.00,1159.00              1173.00,1159.00 1173.00,1149.00 1173.00,1149.00              1185.85,1148.41 1201.96,1146.55 1207.52,1133.00              1209.50,1128.17 1209.99,1121.21 1210.00,1116.00              1210.00,1116.00 1210.00,923.00 1210.00,923.00              1209.98,909.55 1207.28,896.97 1193.00,892.10              1186.63,889.93 1179.59,890.18 1173.00,889.00              1173.00,889.00 1173.00,879.00 1173.00,879.00 Z            M 538.00,942.00            C 528.27,942.82 503.90,952.05 494.00,956.00              462.62,968.51 438.83,979.62 410.00,997.58              410.00,997.58 383.04,1015.75 383.04,1015.75              378.98,1019.02 375.86,1023.61 377.89,1028.99              379.47,1033.15 384.46,1036.07 388.00,1038.58              388.00,1038.58 414.00,1055.00 414.00,1055.00              436.37,1067.86 459.75,1079.06 484.00,1087.95              484.00,1087.95 515.00,1098.28 515.00,1098.28              515.00,1098.28 535.00,1104.00 535.00,1104.00              535.00,1104.00 535.00,1075.00 535.00,1075.00              535.00,1075.00 534.00,1058.00 534.00,1058.00              534.00,1058.00 534.00,1006.00 534.00,1006.00              534.00,1006.00 535.00,987.00 535.00,987.00              535.06,973.90 540.01,953.25 538.00,942.00 Z            M 1524.00,1102.00            C 1558.33,1092.05 1574.50,1086.13 1607.00,1070.78              1607.00,1070.78 1628.00,1060.80 1628.00,1060.80              1628.00,1060.80 1640.00,1052.87 1640.00,1052.87              1651.98,1046.02 1672.86,1039.38 1673.90,1023.00              1674.03,1021.05 1673.95,1018.92 1672.98,1017.17              1670.85,1013.33 1653.55,1001.34 1649.00,998.43              1620.44,980.17 1589.12,966.38 1557.00,955.67              1557.00,955.67 1528.00,946.47 1528.00,946.47              1522.16,946.40 1519.78,951.95 1520.17,957.00              1520.17,957.00 1523.09,1000.00 1523.09,1000.00              1523.09,1000.00 1525.00,1022.00 1525.00,1022.00              1525.31,1049.03 1519.17,1075.04 1524.00,1102.00 Z            M 1756.00,1085.29            C 1756.00,1085.29 1696.00,1093.61 1696.00,1093.61              1653.71,1101.54 1612.32,1113.41 1571.00,1125.29              1571.00,1125.29 1529.00,1137.58 1529.00,1137.58              1521.98,1139.59 1514.08,1142.62 1511.10,1150.00              1508.75,1155.84 1515.54,1163.52 1518.89,1168.00              1529.11,1181.64 1543.54,1197.30 1556.00,1208.91              1556.00,1208.91 1622.00,1269.09 1622.00,1269.09              1640.64,1286.45 1658.71,1304.45 1680.00,1318.67              1695.24,1328.84 1722.17,1344.03 1741.00,1341.71              1748.75,1340.76 1755.91,1338.78 1761.79,1333.33              1765.30,1330.08 1768.05,1323.40 1770.25,1319.00              1770.25,1319.00 1783.40,1290.00 1783.40,1290.00              1796.56,1257.09 1807.94,1214.54 1808.00,1179.00              1808.00,1179.00 1808.66,1168.00 1808.66,1168.00              1808.66,1168.00 1808.00,1159.00 1808.00,1159.00              1807.87,1147.33 1806.74,1121.25 1802.36,1111.00              1795.68,1095.36 1772.66,1083.89 1756.00,1085.29 Z            M 292.00,1088.28            C 275.46,1090.66 260.17,1090.04 248.53,1105.00              242.55,1112.68 243.73,1116.42 242.72,1125.00              242.72,1125.00 241.02,1154.00 241.02,1154.00              241.02,1154.00 242.00,1172.00 242.00,1172.00              242.00,1172.00 242.91,1182.00 242.91,1182.00              245.62,1219.12 256.42,1257.14 271.70,1291.00              277.76,1304.45 284.47,1317.48 292.32,1330.00              295.05,1334.35 299.37,1342.13 303.18,1345.21              308.49,1349.51 318.24,1351.83 325.00,1351.99              349.55,1352.54 369.81,1334.70 388.00,1320.20              420.71,1294.13 451.06,1265.22 479.96,1235.00              479.96,1235.00 502.00,1211.00 502.00,1211.00              502.00,1211.00 537.72,1171.00 537.72,1171.00              542.16,1165.89 548.90,1159.50 546.11,1152.00              543.56,1145.15 536.15,1143.72 530.00,1141.67              530.00,1141.67 487.00,1128.14 487.00,1128.14              447.62,1116.86 407.99,1107.36 368.00,1098.58              350.59,1094.75 328.54,1089.21 311.00,1089.00              311.00,1089.00 292.00,1088.28 292.00,1088.28 Z            M 563.00,1203.00            C 552.73,1206.41 540.91,1219.72 534.08,1228.00              534.08,1228.00 505.98,1268.00 505.98,1268.00              505.98,1268.00 491.33,1288.00 491.33,1288.00              491.33,1288.00 483.14,1304.00 483.14,1304.00              477.04,1314.40 465.93,1328.82 465.10,1341.00              464.72,1346.49 466.94,1355.14 472.09,1357.98              475.27,1359.73 485.13,1359.92 489.00,1360.01              489.00,1360.01 498.00,1360.95 498.00,1360.95              498.00,1360.95 517.00,1360.95 517.00,1360.95              517.00,1360.95 534.00,1360.00 534.00,1360.00              534.00,1360.00 544.00,1359.09 544.00,1359.09              544.00,1359.09 599.00,1351.42 599.00,1351.42              599.00,1351.42 632.00,1344.04 632.00,1344.04              634.88,1342.78 637.43,1340.80 640.00,1339.00              637.71,1333.02 632.94,1327.41 629.33,1322.00              629.33,1322.00 611.42,1294.00 611.42,1294.00              596.94,1270.62 573.78,1228.03 563.00,1203.00 Z            M 1492.00,1205.00            C 1492.00,1205.00 1473.31,1240.00 1473.31,1240.00              1473.31,1240.00 1436.81,1303.00 1436.81,1303.00              1436.81,1303.00 1419.85,1328.00 1419.85,1328.00              1418.21,1330.26 1413.89,1335.21 1414.11,1337.96              1414.47,1342.68 1422.43,1343.64 1426.00,1344.42              1426.00,1344.42 1465.00,1351.58 1465.00,1351.58              1465.00,1351.58 1520.00,1357.09 1520.00,1357.09              1520.00,1357.09 1530.00,1358.00 1530.00,1358.00              1530.00,1358.00 1543.00,1358.66 1543.00,1358.66              1543.00,1358.66 1552.00,1358.00 1552.00,1358.00              1552.00,1358.00 1571.00,1357.17 1571.00,1357.17              1580.46,1356.26 1592.55,1356.20 1596.30,1345.00              1598.21,1339.30 1594.71,1333.92 1592.25,1329.00              1592.25,1329.00 1572.31,1293.00 1572.31,1293.00              1562.87,1278.35 1552.65,1264.32 1541.41,1251.00              1531.99,1239.83 1521.89,1229.56 1511.00,1219.84              1505.53,1214.95 1498.60,1207.98 1492.00,1205.00 Z            M 662.00,1374.39            C 662.00,1374.39 636.00,1381.12 636.00,1381.12              636.00,1381.12 591.00,1392.85 591.00,1392.85              546.98,1404.76 499.92,1417.35 459.00,1437.75              443.49,1445.49 428.26,1453.69 414.00,1463.59              408.08,1467.69 401.19,1471.59 397.53,1478.00              394.35,1483.58 391.98,1497.71 393.39,1504.00              394.12,1507.24 397.55,1512.76 399.25,1516.00              403.47,1524.03 412.56,1538.59 417.86,1546.00              447.51,1587.44 483.00,1623.60 528.00,1648.30              538.52,1654.08 548.74,1658.86 560.00,1663.05              565.56,1665.12 570.91,1667.41 577.00,1666.82              594.63,1665.14 605.45,1647.93 613.42,1634.00              616.97,1627.80 619.82,1622.74 622.32,1616.00              643.31,1559.43 655.40,1504.96 667.00,1446.00              667.00,1446.00 674.39,1406.00 674.39,1406.00              675.06,1402.43 677.79,1388.64 677.44,1386.00              676.44,1378.48 668.88,1374.47 662.00,1374.39 Z            M 1386.04,1376.85            C 1377.43,1379.44 1379.41,1389.21 1380.00,1396.00              1381.50,1413.26 1387.74,1432.74 1391.58,1450.00              1403.86,1505.32 1417.29,1561.07 1442.75,1612.00              1451.94,1630.37 1464.13,1657.41 1488.00,1657.99              1503.13,1658.35 1523.31,1645.16 1536.00,1637.19              1574.10,1613.26 1616.01,1570.95 1640.05,1533.00              1650.28,1516.86 1664.17,1499.32 1661.27,1479.00              1660.68,1474.87 1660.58,1472.80 1658.47,1469.00              1646.30,1447.06 1615.25,1436.97 1593.00,1428.58              1549.05,1412.00 1503.82,1399.70 1458.00,1389.58              1458.00,1389.58 1410.00,1380.25 1410.00,1380.25              1410.00,1380.25 1386.04,1376.85 1386.04,1376.85 Z            M 1337.00,1412.00            C 1337.00,1412.00 1320.00,1423.33 1320.00,1423.33              1320.00,1423.33 1262.00,1463.14 1262.00,1463.14              1262.00,1463.14 1244.00,1471.42 1244.00,1471.42              1234.83,1475.27 1224.31,1479.31 1216.00,1484.70              1213.46,1486.35 1208.11,1490.00 1207.34,1492.99              1206.49,1496.23 1210.90,1499.16 1213.00,1501.07              1213.00,1501.07 1236.00,1520.55 1236.00,1520.55              1260.69,1540.27 1287.60,1556.43 1315.00,1572.00              1321.85,1575.89 1342.75,1587.19 1350.00,1586.49              1361.60,1585.36 1362.19,1563.82 1362.82,1555.00              1362.82,1555.00 1360.00,1520.00 1360.00,1520.00              1360.00,1520.00 1360.00,1511.00 1360.00,1511.00              1360.00,1511.00 1354.27,1461.00 1354.27,1461.00              1351.83,1444.05 1347.58,1425.83 1337.00,1412.00 Z            M 713.00,1414.00            C 709.26,1419.52 706.18,1441.37 704.92,1449.00              704.92,1449.00 698.91,1503.00 698.91,1503.00              698.91,1503.00 698.00,1515.00 698.00,1515.00              698.00,1515.00 698.00,1543.00 698.00,1543.00              698.00,1543.00 700.72,1575.00 700.72,1575.00              701.26,1579.14 701.68,1586.53 703.85,1589.96              707.09,1595.07 712.35,1596.25 718.00,1595.96              726.20,1595.53 744.58,1583.17 752.00,1578.34              780.02,1560.14 799.75,1545.25 825.00,1523.28              825.00,1523.28 846.98,1503.00 846.98,1503.00              849.29,1500.59 852.89,1497.00 851.38,1493.27              850.33,1490.67 843.60,1488.05 841.00,1486.75              841.00,1486.75 813.00,1472.75 813.00,1472.75              813.00,1472.75 752.00,1438.40 752.00,1438.40              752.00,1438.40 713.00,1414.00 713.00,1414.00 Z            M 893.00,1463.00            C 893.00,1463.00 894.00,1463.00 894.00,1463.00              894.00,1463.00 893.00,1464.00 893.00,1464.00              893.00,1464.00 893.00,1463.00 893.00,1463.00 Z            M 896.00,1464.00            C 896.00,1464.00 897.00,1464.00 897.00,1464.00              897.00,1464.00 896.00,1465.00 896.00,1465.00              896.00,1465.00 896.00,1464.00 896.00,1464.00 Z            M 899.00,1465.00            C 899.00,1465.00 900.00,1465.00 900.00,1465.00              900.00,1465.00 899.00,1466.00 899.00,1466.00              899.00,1466.00 899.00,1465.00 899.00,1465.00 Z            M 917.00,1470.00            C 917.00,1470.00 918.00,1470.00 918.00,1470.00              918.00,1470.00 917.00,1471.00 917.00,1471.00              917.00,1471.00 917.00,1470.00 917.00,1470.00 Z            M 920.00,1471.00            C 920.00,1471.00 921.00,1471.00 921.00,1471.00              921.00,1471.00 920.00,1472.00 920.00,1472.00              920.00,1472.00 920.00,1471.00 920.00,1471.00 Z            M 923.00,1472.00            C 923.00,1472.00 924.00,1472.00 924.00,1472.00              924.00,1472.00 923.00,1473.00 923.00,1473.00              923.00,1473.00 923.00,1472.00 923.00,1472.00 Z            M 939.00,1475.00            C 939.00,1475.00 940.00,1475.00 940.00,1475.00              940.00,1475.00 939.00,1476.00 939.00,1476.00              939.00,1476.00 939.00,1475.00 939.00,1475.00 Z            M 1156.00,1508.43            C 1148.23,1511.58 1146.61,1521.85 1143.80,1529.00              1136.97,1546.37 1128.75,1571.91 1123.85,1590.00              1123.85,1590.00 1102.58,1677.00 1102.58,1677.00              1102.58,1677.00 1095.44,1711.00 1095.44,1711.00              1095.44,1711.00 1092.84,1734.00 1092.84,1734.00              1092.84,1734.00 1091.00,1754.00 1091.00,1754.00              1090.97,1770.95 1090.71,1788.03 1104.09,1800.89              1108.45,1805.08 1112.40,1805.51 1118.00,1806.87              1125.86,1808.78 1141.00,1810.90 1149.00,1811.00              1193.48,1811.52 1242.66,1796.30 1283.00,1778.14              1283.00,1778.14 1300.00,1769.31 1300.00,1769.31              1316.69,1761.64 1341.74,1751.26 1347.21,1732.00              1348.22,1728.45 1348.04,1723.73 1348.00,1720.00              1347.88,1710.67 1343.53,1702.93 1339.00,1695.00              1339.00,1695.00 1322.33,1668.00 1322.33,1668.00              1295.80,1628.64 1245.06,1581.50 1209.00,1549.72              1209.00,1549.72 1177.00,1520.00 1177.00,1520.00              1171.05,1514.08 1165.08,1507.27 1156.00,1508.43 Z            M 892.00,1510.44            C 884.40,1513.31 869.50,1527.88 863.00,1533.91              863.00,1533.91 808.42,1588.00 808.42,1588.00              781.77,1618.76 753.28,1646.92 730.67,1681.00              723.40,1691.95 710.16,1713.95 710.00,1727.00              709.89,1736.78 711.71,1749.27 718.53,1756.79              721.42,1759.98 729.00,1763.63 733.00,1765.86              744.29,1772.16 756.00,1777.40 768.00,1782.20              800.93,1795.37 835.71,1802.66 871.00,1805.09              871.00,1805.09 883.00,1806.00 883.00,1806.00              883.00,1806.00 910.00,1806.00 910.00,1806.00              915.03,1805.94 932.80,1804.58 937.00,1803.04              951.09,1797.85 959.93,1783.57 960.00,1769.00              960.00,1769.00 960.00,1748.00 960.00,1748.00              960.00,1748.00 959.09,1738.00 959.09,1738.00              954.99,1678.11 937.54,1621.11 919.98,1564.00              919.98,1564.00 906.67,1521.00 906.67,1521.00              903.41,1514.84 899.51,1509.72 892.00,1510.44 Z            M 953.23,1517.77            C 949.60,1520.57 952.05,1525.13 953.23,1529.00              953.23,1529.00 962.00,1557.00 962.00,1557.00              972.76,1589.27 986.41,1618.67 1005.33,1647.00              1010.89,1655.32 1020.50,1672.71 1032.00,1670.77              1040.03,1669.42 1049.40,1651.05 1053.23,1644.00              1068.67,1615.61 1081.63,1586.27 1092.95,1556.00              1092.95,1556.00 1100.85,1531.00 1100.85,1531.00              1101.74,1527.52 1102.85,1522.37 1100.26,1519.33              1097.87,1516.52 1091.41,1517.86 1088.00,1518.28              1088.00,1518.28 1055.00,1521.00 1055.00,1521.00              1055.00,1521.00 1018.00,1522.00 1018.00,1522.00              1018.00,1522.00 1008.00,1521.04 1008.00,1521.04              1008.00,1521.04 996.00,1521.04 996.00,1521.04              996.00,1521.04 953.23,1517.77 953.23,1517.77 Z" />
</svg>