<svg xmlns="http://www.w3.org/2000/svg" viewBox="319.5 119.5 561 435">
  <path id="nvidia-wordmark" fill="#303030" stroke="none" stroke-width="1"
    d="M 514.00,120.00            C 514.00,120.00 778.00,120.00 778.00,120.00              778.00,120.00 778.00,399.00 778.00,399.00              778.00,399.00 514.00,399.00 514.00,399.00              514.00,399.00 514.00,367.08 514.00,367.08              514.00,367.08 524.00,367.08 524.00,367.08              524.00,367.08 531.00,367.92 531.00,367.92              531.00,367.92 542.00,367.00 542.00,367.00              586.10,366.49 644.14,348.73 685.00,332.20              699.92,326.17 714.34,318.94 728.00,310.42              734.50,306.37 741.42,302.25 746.00,296.00              746.00,296.00 734.00,288.86 734.00,288.86              734.00,288.86 712.00,276.57 712.00,276.57              709.57,275.18 700.77,269.23 698.58,269.38              696.45,269.53 693.60,272.38 692.00,273.73              692.00,273.73 680.00,283.75 680.00,283.75              666.62,294.81 649.94,306.69 635.00,315.55              612.40,328.95 584.15,340.19 558.00,343.71              558.00,343.71 529.00,345.91 529.00,345.91              529.00,345.91 514.00,345.00 514.00,345.00              514.00,345.00 514.00,322.00 514.00,322.00              514.00,322.00 531.00,323.96 531.00,323.96              535.22,324.12 543.63,322.96 548.00,322.25              585.08,316.22 617.10,294.51 645.00,270.42              653.88,262.75 662.53,254.81 670.28,246.00              672.32,243.69 677.71,238.94 677.84,236.00              677.98,232.88 673.06,228.12 670.99,226.00              662.76,217.57 655.18,210.22 646.00,202.80              618.21,180.37 585.57,163.70 550.00,158.43              537.59,156.59 526.45,157.00 514.00,157.00              514.00,157.00 514.00,120.00 514.00,120.00 Z            M 513.00,366.00            C 501.87,365.76 486.61,361.87 476.00,358.33              435.19,344.73 404.00,317.50 380.33,282.00              372.81,270.71 367.59,261.19 361.75,249.00              360.24,245.86 356.75,239.43 357.70,236.00              358.61,232.73 363.45,229.21 366.00,226.95              373.90,219.94 382.42,213.71 391.00,207.58              415.68,189.94 442.23,176.04 471.00,166.49              482.83,162.56 500.61,158.27 513.00,158.00              513.00,158.00 513.00,178.00 513.00,178.00              482.86,178.09 441.51,197.47 420.00,218.04              420.00,218.04 405.09,233.00 405.09,233.00              403.13,235.12 400.41,238.02 400.08,241.00              399.74,244.05 402.43,249.19 403.70,252.00              403.70,252.00 415.60,275.00 415.60,275.00              433.78,305.55 461.42,331.33 496.00,341.56              496.00,341.56 513.00,345.00 513.00,345.00              513.00,345.00 513.00,366.00 513.00,366.00 Z            M 514.00,178.00            C 524.20,178.00 533.87,177.84 544.00,179.44              568.53,183.31 590.80,195.69 610.00,211.00              616.10,215.87 621.55,221.42 626.99,227.00              628.93,229.00 633.21,233.29 633.77,236.00              634.43,239.21 631.06,242.68 629.20,245.00              624.04,251.39 617.83,258.22 612.00,264.00              591.87,283.93 564.34,303.60 535.00,304.90              529.12,305.16 519.95,302.84 514.00,302.00              514.00,302.00 514.00,225.00 514.00,225.00              524.17,227.57 531.41,228.33 539.99,235.47              549.98,243.78 554.68,257.14 563.00,267.00              563.00,267.00 583.00,249.25 583.00,249.25              583.00,249.25 598.00,238.00 598.00,238.00              593.68,230.61 586.83,225.18 580.00,220.16              560.13,205.53 538.40,199.78 514.00,203.00              514.00,203.00 514.00,178.00 514.00,178.00 Z            M 513.00,321.00            C 483.21,316.80 455.99,294.14 442.25,268.00              442.25,268.00 434.72,252.00 434.72,252.00              433.61,249.36 431.85,245.91 432.69,243.00              433.96,238.61 445.03,231.01 449.00,228.15              465.06,216.61 493.02,204.18 513.00,204.00              513.00,204.00 513.00,224.00 513.00,224.00              505.42,224.02 499.10,225.36 492.00,228.06              487.37,229.83 481.99,232.99 478.00,235.92              475.10,238.06 467.87,243.73 466.83,247.04              465.64,250.82 469.07,256.63 470.75,260.00              477.00,272.50 484.74,283.58 496.00,292.10              496.00,292.10 511.98,302.39 511.98,302.39              513.22,304.34 513.00,307.73 513.00,310.00              513.00,310.00 513.00,321.00 513.00,321.00 Z            M 320.00,450.00            C 320.00,450.00 381.00,450.00 381.00,450.00              392.70,450.06 405.58,453.41 413.91,462.04              422.89,471.34 424.85,485.53 425.00,498.00              425.00,498.00 425.00,554.00 425.00,554.00              425.00,554.00 396.00,554.00 396.00,554.00              396.00,554.00 396.00,500.00 396.00,500.00              395.90,491.50 392.71,481.78 385.00,477.23              377.32,472.69 358.36,474.00 349.00,474.00              349.00,474.00 349.00,554.00 349.00,554.00              349.00,554.00 320.00,554.00 320.00,554.00              320.00,554.00 320.00,450.00 320.00,450.00 Z            M 430.00,450.00            C 430.00,450.00 462.00,450.00 462.00,450.00              462.00,450.00 466.85,468.00 466.85,468.00              466.85,468.00 479.15,512.00 479.15,512.00              479.15,512.00 484.00,531.00 484.00,531.00              488.61,526.47 491.53,512.62 493.42,506.00              493.42,506.00 505.29,466.00 505.29,466.00              505.29,466.00 510.00,450.00 510.00,450.00              510.00,450.00 540.00,450.00 540.00,450.00              540.00,450.00 514.00,530.00 514.00,530.00              514.00,530.00 508.69,546.00 508.69,546.00              508.69,546.00 505.44,552.98 505.44,552.98              505.44,552.98 498.00,554.00 498.00,554.00              498.00,554.00 472.00,554.00 472.00,554.00              472.00,554.00 464.50,552.98 464.50,552.98              464.50,552.98 460.74,546.00 460.74,546.00              460.74,546.00 455.67,530.00 455.67,530.00              455.67,530.00 440.97,484.00 440.97,484.00              440.97,484.00 430.00,450.00 430.00,450.00 Z            M 553.00,450.00            C 553.00,450.00 582.00,450.00 582.00,450.00              582.00,450.00 582.00,554.00 582.00,554.00              582.00,554.00 553.00,554.00 553.00,554.00              553.00,554.00 553.00,450.00 553.00,450.00 Z            M 601.00,450.00            C 601.00,450.00 654.00,450.00 654.00,450.00              666.09,450.15 681.13,454.02 689.54,463.17              702.53,477.33 703.84,501.99 700.39,520.00              698.98,527.35 696.70,535.12 691.62,540.83              683.14,550.38 670.37,553.85 658.00,554.00              658.00,554.00 601.00,554.00 601.00,554.00              601.00,554.00 601.00,450.00 601.00,450.00 Z            M 716.00,450.00            C 716.00,450.00 745.00,450.00 745.00,450.00              745.00,450.00 745.00,554.00 745.00,554.00              745.00,554.00 716.00,554.00 716.00,554.00              716.00,554.00 716.00,450.00 716.00,450.00 Z            M 758.00,554.00            C 758.00,554.00 789.80,474.00 789.80,474.00              789.80,474.00 796.19,458.00 796.19,458.00              796.19,458.00 799.70,450.99 799.70,450.99              799.70,450.99 807.00,450.00 807.00,450.00              807.00,450.00 831.00,450.00 831.00,450.00              831.00,450.00 838.35,450.99 838.35,450.99              838.35,450.99 842.20,458.00 842.20,458.00              842.20,458.00 848.60,474.00 848.60,474.00              848.60,474.00 868.45,524.00 868.45,524.00              868.45,524.00 880.00,554.00 880.00,554.00              880.00,554.00 857.00,554.00 857.00,554.00              857.00,554.00 849.70,553.01 849.70,553.01              849.70,553.01 841.73,537.02 841.73,537.02              841.73,537.02 834.00,536.00 834.00,536.00              834.00,536.00 793.00,536.00 793.00,536.00              792.41,539.26 788.96,551.24 786.49,552.98              784.99,554.03 782.76,553.96 781.00,554.00              781.00,554.00 758.00,554.00 758.00,554.00 Z            M 820.00,470.00            C 820.00,470.00 817.00,470.00 817.00,470.00              817.00,470.00 800.00,518.00 800.00,518.00              800.00,518.00 836.00,518.00 836.00,518.00              836.00,518.00 820.00,470.00 820.00,470.00 Z            M 630.00,472.00            C 630.00,472.00 630.00,525.00 630.00,525.00              630.06,533.15 631.17,533.10 640.00,533.00              647.98,532.91 658.85,531.26 664.96,525.79              676.02,515.88 676.82,490.96 666.67,480.18              657.46,470.40 642.21,472.00 630.00,472.00 Z" />
</svg>