<svg xmlns="http://www.w3.org/2000/svg" viewBox="22.45 19.49 259.95 260.71">
  <path id="odysee" fill="#303030" stroke="none" stroke-width="1"
    d="M 23.00,167.00            C 23.00,137.96 21.58,122.79 34.31,95.00              54.00,52.00 95.13,24.19 142.00,20.91              146.97,20.56 148.09,19.79 154.00,20.04              181.21,21.18 198.17,27.41 222.00,40.00              222.00,40.00 215.63,48.00 215.63,48.00              211.99,53.16 209.61,62.74 208.21,69.00              206.08,78.51 203.24,90.65 192.00,92.67              189.48,93.13 184.97,93.51 183.09,91.43              181.16,89.29 179.28,78.51 178.29,75.00              172.97,56.20 167.16,30.02 143.00,29.04              127.89,28.43 103.53,39.80 94.79,52.00              90.26,58.31 88.09,66.30 88.00,74.00              87.86,86.41 89.79,95.15 93.14,107.00              94.04,110.16 97.12,117.78 95.22,120.59              93.87,122.58 89.27,124.10 87.00,124.95              87.00,124.95 67.00,132.97 67.00,132.97              50.21,141.36 35.30,152.91 23.00,167.00 Z            M 141.00,44.44            C 156.49,42.50 162.28,52.65 165.85,66.00              167.14,70.85 168.58,76.12 166.66,81.00              162.61,91.24 142.20,97.27 132.00,96.98              114.74,96.51 111.07,73.43 115.47,62.00              119.94,50.37 129.65,46.56 141.00,44.44 Z            M 152.09,52.03            C 147.01,53.28 150.33,58.53 153.05,59.26              156.72,60.24 158.32,54.79 152.09,52.03 Z            M 189.18,53.91            C 186.45,55.99 188.69,57.32 189.82,57.09              190.94,56.87 192.51,54.79 189.18,53.91 Z            M 247.00,62.00            C 255.87,68.66 265.26,84.78 269.86,95.00              284.14,126.72 285.69,160.04 274.67,193.00              270.85,204.39 261.33,224.66 252.00,232.00              252.00,232.00 238.69,204.00 238.69,204.00              238.69,204.00 235.24,193.00 235.24,193.00              232.93,183.19 234.15,179.92 227.32,171.00              222.16,164.26 215.53,158.02 209.00,152.61              205.58,149.78 201.14,147.00 201.24,142.00              201.32,137.60 205.16,134.79 208.01,131.96              208.01,131.96 224.92,114.00 224.92,114.00              239.21,98.44 246.94,83.47 247.00,62.00 Z            M 158.26,66.91            C 157.98,67.10 157.29,66.93 156.61,68.33              156.27,69.05 154.92,82.81 160.61,80.38              163.88,78.98 164.44,68.28 158.26,66.91 Z            M 74.00,73.00            C 74.00,73.00 71.00,76.00 71.00,76.00              71.00,76.00 74.00,73.00 74.00,73.00 Z            M 242.00,110.00            C 242.00,110.00 235.00,119.00 235.00,119.00              235.00,119.00 245.00,126.00 245.00,126.00              245.00,126.00 251.00,116.00 251.00,116.00              245.81,114.64 245.50,113.83 242.00,110.00 Z            M 50.26,116.03            C 50.26,116.03 49.16,116.60 49.16,116.60              47.27,120.97 55.75,119.48 51.64,116.03              51.64,116.03 50.26,116.03 50.26,116.03 Z            M 222.26,145.74            C 218.68,148.62 221.83,150.87 223.74,150.26              225.58,149.66 226.91,145.97 222.26,145.74 Z            M 31.00,195.00            C 33.49,195.98 36.31,197.29 39.00,197.37              50.12,197.71 62.17,184.72 70.04,178.09              74.67,174.19 80.60,170.50 86.00,167.76              90.14,165.65 102.43,158.76 106.68,161.06              109.24,162.45 113.01,169.30 114.58,172.00              119.31,180.15 132.11,200.04 130.43,209.00              129.20,215.59 123.48,221.15 117.00,222.61              111.52,223.84 91.66,220.84 85.48,236.00              84.68,237.97 84.22,239.86 84.26,242.00              84.52,255.95 95.51,266.38 109.00,267.83              123.35,269.37 144.26,261.95 156.00,253.91              174.62,241.15 173.00,213.81 173.00,194.00              192.97,194.18 199.42,209.40 201.71,227.00              202.62,233.99 201.43,241.66 205.70,248.00              212.78,258.50 222.72,254.24 228.00,256.00              213.46,264.16 204.69,270.28 188.00,274.85              138.92,288.28 85.73,273.56 52.75,234.00              44.83,224.49 33.21,207.23 31.00,195.00 Z            M 78.00,194.00            C 78.00,194.00 74.00,194.00 74.00,194.00              74.00,194.00 74.00,198.00 74.00,198.00              74.00,198.00 78.00,198.00 78.00,198.00              78.00,198.00 78.00,194.00 78.00,194.00 Z            M 183.00,238.00            C 183.00,238.00 179.00,238.00 179.00,238.00              179.00,238.00 180.00,243.00 180.00,243.00              180.00,243.00 182.00,243.00 182.00,243.00              182.00,243.00 183.00,238.00 183.00,238.00 Z" />
</svg>