<svg xmlns="http://www.w3.org/2000/svg" viewBox="22.45 19.49 954.07 260.71">
  <path id="odysee-wordmark" fill="#303030" stroke="none" stroke-width="1"
    d="M 23.00,167.00            C 23.00,137.96 21.58,122.79 34.31,95.00              54.00,52.00 95.13,24.19 142.00,20.91              146.97,20.56 148.09,19.79 154.00,20.04              181.21,21.18 198.17,27.41 222.00,40.00              222.00,40.00 215.63,48.00 215.63,48.00              211.99,53.16 209.61,62.74 208.21,69.00              206.08,78.51 203.24,90.65 192.00,92.67              189.48,93.13 184.97,93.51 183.09,91.43              181.16,89.29 179.28,78.51 178.29,75.00              172.97,56.20 167.16,30.02 143.00,29.04              127.89,28.43 103.53,39.80 94.79,52.00              90.26,58.31 88.09,66.30 88.00,74.00              87.86,86.41 89.79,95.15 93.14,107.00              94.04,110.16 97.12,117.78 95.22,120.59              93.87,122.58 89.27,124.10 87.00,124.95              87.00,124.95 67.00,132.97 67.00,132.97              50.21,141.36 35.30,152.91 23.00,167.00 Z            M 519.00,98.00            C 519.00,98.00 512.09,39.00 512.09,39.00              512.26,36.55 513.00,31.15 514.17,29.11              517.20,23.81 525.83,23.01 530.98,25.23              538.25,28.36 538.64,36.20 540.00,43.00              543.24,59.20 545.88,75.52 547.09,92.00              547.09,92.00 550.00,159.00 550.00,159.00              550.00,159.00 551.00,174.00 551.00,174.00              551.00,174.00 551.00,214.00 551.00,214.00              550.98,222.83 551.11,222.02 539.00,226.00              529.34,229.17 516.29,228.12 506.00,228.00              506.00,228.00 496.00,227.09 496.00,227.09              478.08,225.86 463.58,223.87 451.22,209.00              446.71,203.57 446.00,195.84 446.00,189.00              446.00,189.00 446.96,178.00 446.96,178.00              446.96,178.00 446.96,169.00 446.96,169.00              446.96,169.00 447.91,159.00 447.91,159.00              448.62,148.88 448.55,137.72 454.36,129.00              464.36,114.00 479.87,109.04 496.00,103.67              503.08,101.31 511.59,98.35 519.00,98.00 Z            M 141.00,44.44            C 156.49,42.50 162.28,52.65 165.85,66.00              167.14,70.85 168.58,76.12 166.66,81.00              162.61,91.24 142.20,97.27 132.00,96.98              114.74,96.51 111.07,73.43 115.47,62.00              119.94,50.37 129.65,46.56 141.00,44.44 Z            M 152.09,52.03            C 147.01,53.28 150.33,58.53 153.05,59.26              156.72,60.24 158.32,54.79 152.09,52.03 Z            M 189.18,53.91            C 186.45,55.99 188.69,57.32 189.82,57.09              190.94,56.87 192.51,54.79 189.18,53.91 Z            M 247.00,62.00            C 255.87,68.66 265.26,84.78 269.86,95.00              284.14,126.72 285.69,160.04 274.67,193.00              270.85,204.39 261.33,224.66 252.00,232.00              252.00,232.00 238.69,204.00 238.69,204.00              238.69,204.00 235.24,193.00 235.24,193.00              232.93,183.19 234.15,179.92 227.32,171.00              222.16,164.26 215.53,158.02 209.00,152.61              205.58,149.78 201.14,147.00 201.24,142.00              201.32,137.60 205.16,134.79 208.01,131.96              208.01,131.96 224.92,114.00 224.92,114.00              239.21,98.44 246.94,83.47 247.00,62.00 Z            M 158.26,66.91            C 157.98,67.10 157.29,66.93 156.61,68.33              156.27,69.05 154.92,82.81 160.61,80.38              163.88,78.98 164.44,68.28 158.26,66.91 Z            M 74.00,73.00            C 74.00,73.00 71.00,76.00 71.00,76.00              71.00,76.00 74.00,73.00 74.00,73.00 Z            M 796.00,168.00            C 798.25,171.73 799.95,174.77 803.09,177.91              809.77,184.58 823.45,190.45 833.00,190.11              837.95,189.63 844.23,187.76 848.89,190.11              854.74,193.52 854.33,207.46 849.77,211.57              846.55,214.48 842.08,214.70 838.00,215.07              838.00,215.07 817.00,216.00 817.00,216.00              811.79,215.94 804.03,214.67 799.00,213.25              794.57,212.01 790.90,210.36 787.00,207.94              763.30,193.22 763.96,165.41 764.00,141.00              764.03,119.95 768.89,103.43 786.00,90.01              791.05,86.06 794.96,83.48 801.00,81.23              810.73,77.60 827.20,76.42 837.00,80.13              845.16,83.22 858.11,95.89 861.39,104.00              863.02,108.04 862.99,111.75 863.00,116.00              863.01,123.54 863.01,135.26 859.62,142.00              856.70,147.82 852.20,150.93 847.00,154.56              832.80,164.47 813.06,167.85 796.00,168.00 Z            M 617.00,128.00            C 619.14,111.77 619.57,115.02 625.57,101.00              629.49,91.84 631.28,84.55 643.00,84.04              661.22,83.25 658.78,99.70 654.98,112.00              654.98,112.00 647.35,134.00 647.35,134.00              647.35,134.00 638.88,163.00 638.88,163.00              632.68,186.60 633.13,198.18 620.74,220.99              617.07,227.74 604.31,235.07 597.43,228.49              594.74,225.92 593.92,219.58 594.18,216.00              594.99,204.82 600.29,193.22 604.58,183.00              606.12,179.32 609.80,169.99 608.36,166.21              607.55,164.06 595.21,156.03 592.00,152.96              582.76,144.14 565.40,125.28 559.98,114.00              554.82,103.24 556.23,87.96 572.00,91.39              579.12,92.93 588.89,101.92 594.00,107.00              601.35,114.32 608.34,122.20 617.00,128.00 Z            M 669.00,172.00            C 673.29,148.06 662.46,117.82 686.00,96.09              699.04,84.06 712.67,85.00 729.00,85.00              735.83,85.00 747.16,83.21 750.26,91.02              751.15,93.26 751.04,97.52 751.00,100.00              750.97,101.57 750.97,103.45 750.49,104.96              746.97,115.98 730.84,107.18 723.00,110.15              715.03,113.18 703.20,128.10 699.67,136.00              698.62,138.33 696.39,143.49 696.92,145.96              698.15,151.68 712.93,154.72 718.00,156.34              734.65,161.66 748.80,166.29 747.96,187.00              747.04,209.79 719.17,218.42 700.00,217.99              692.79,217.82 683.04,216.28 677.17,211.90              670.99,207.27 668.13,196.90 675.13,191.72              678.83,188.99 684.61,189.01 689.00,189.00              697.12,188.99 703.20,188.85 711.00,186.00              711.00,186.00 669.00,172.00 669.00,172.00 Z            M 909.00,176.00            C 916.56,188.53 927.17,196.12 942.00,197.70              942.00,197.70 953.00,197.01 953.00,197.01              956.13,196.94 960.17,196.77 962.77,198.74              967.54,202.34 967.17,215.71 962.77,219.49              958.43,223.23 951.30,222.65 946.00,223.28              928.96,225.31 908.82,223.46 895.01,212.33              883.17,202.78 877.18,183.85 877.00,169.00              876.83,154.32 876.17,135.96 880.75,122.00              887.08,102.69 909.61,86.24 930.00,86.00              936.88,85.92 943.45,85.56 950.00,88.12              958.57,91.47 971.62,104.16 974.53,113.00              976.28,118.30 976.01,122.56 976.00,128.00              975.99,135.21 975.21,145.94 971.15,152.00              959.18,169.87 929.08,175.56 909.00,176.00 Z            M 370.00,100.42            C 381.16,99.06 402.76,99.21 412.00,105.79              428.58,117.58 431.97,136.86 432.00,156.00              432.02,169.53 431.63,186.79 425.18,199.00              421.65,205.68 416.77,207.44 411.00,211.64              405.20,215.87 396.67,223.30 390.00,225.21              386.37,226.26 380.87,226.04 377.00,226.00              359.00,225.79 347.36,218.36 335.00,206.00              330.41,201.41 325.08,196.14 322.61,190.00              319.26,181.67 319.99,167.14 320.00,158.00              320.02,142.46 323.30,121.24 335.04,110.10              345.66,100.03 357.12,102.25 370.00,100.42 Z            M 794.00,129.00            C 802.63,141.02 810.92,139.32 823.00,133.24              826.64,131.41 835.50,127.08 833.85,122.00              832.89,119.05 823.99,108.49 819.00,108.81              815.97,109.00 811.19,113.08 809.00,115.09              803.46,120.19 800.30,124.23 794.00,129.00 Z            M 242.00,110.00            C 242.00,110.00 235.00,119.00 235.00,119.00              235.00,119.00 245.00,126.00 245.00,126.00              245.00,126.00 251.00,116.00 251.00,116.00              245.81,114.64 245.50,113.83 242.00,110.00 Z            M 50.26,116.03            C 50.26,116.03 49.16,116.60 49.16,116.60              47.27,120.97 55.75,119.48 51.64,116.03              51.64,116.03 50.26,116.03 50.26,116.03 Z            M 368.00,201.00            C 381.89,195.02 396.90,189.62 405.07,176.00              415.04,159.39 408.57,140.05 395.96,127.00              393.02,123.96 386.12,117.48 382.00,116.60              377.05,115.55 369.79,120.66 366.00,123.48              354.19,132.25 340.14,150.19 343.52,166.00              346.80,181.37 359.73,189.44 368.00,201.00 Z            M 907.00,138.00            C 909.61,140.54 912.53,143.66 916.00,144.98              921.35,147.01 932.13,143.29 937.00,140.68              940.23,138.94 948.33,134.38 946.85,129.96              946.32,128.39 943.71,125.33 942.57,124.00              940.37,121.45 936.51,117.19 933.00,116.73              928.55,116.15 921.25,123.42 918.00,126.28              913.96,129.84 910.14,133.62 907.00,138.00 Z            M 514.00,127.49            C 508.69,128.16 504.48,130.22 500.00,133.09              486.61,141.68 481.69,152.88 478.46,168.00              477.70,172.43 474.65,184.08 478.46,187.28              480.09,188.82 485.57,190.21 488.00,190.85              494.45,192.55 506.48,194.92 513.00,195.00              515.25,195.02 519.67,195.28 521.49,193.98              524.00,192.19 524.45,185.02 524.68,182.00              524.68,182.00 523.96,170.00 523.96,170.00              523.96,170.00 523.96,155.00 523.96,155.00              523.96,155.00 523.00,142.00 523.00,142.00              522.96,135.01 522.32,128.40 514.00,127.49 Z            M 222.26,145.74            C 218.68,148.62 221.83,150.87 223.74,150.26              225.58,149.66 226.91,145.97 222.26,145.74 Z            M 31.00,195.00            C 33.49,195.98 36.31,197.29 39.00,197.37              50.12,197.71 62.17,184.72 70.04,178.09              74.67,174.19 80.60,170.50 86.00,167.76              90.14,165.65 102.43,158.76 106.68,161.06              109.24,162.45 113.01,169.30 114.58,172.00              119.31,180.15 132.11,200.04 130.43,209.00              129.20,215.59 123.48,221.15 117.00,222.61              111.52,223.84 91.66,220.84 85.48,236.00              84.68,237.97 84.22,239.86 84.26,242.00              84.52,255.95 95.51,266.38 109.00,267.83              123.35,269.37 144.26,261.95 156.00,253.91              174.62,241.15 173.00,213.81 173.00,194.00              192.97,194.18 199.42,209.40 201.71,227.00              202.62,233.99 201.43,241.66 205.70,248.00              212.78,258.50 222.72,254.24 228.00,256.00              213.46,264.16 204.69,270.28 188.00,274.85              138.92,288.28 85.73,273.56 52.75,234.00              44.83,224.49 33.21,207.23 31.00,195.00 Z            M 78.00,194.00            C 78.00,194.00 74.00,194.00 74.00,194.00              74.00,194.00 74.00,198.00 74.00,198.00              74.00,198.00 78.00,198.00 78.00,198.00              78.00,198.00 78.00,194.00 78.00,194.00 Z            M 183.00,238.00            C 183.00,238.00 179.00,238.00 179.00,238.00              179.00,238.00 180.00,243.00 180.00,243.00              180.00,243.00 182.00,243.00 182.00,243.00              182.00,243.00 183.00,238.00 183.00,238.00 Z" />
</svg>