<svg xmlns="http://www.w3.org/2000/svg" viewBox="397.46 69.7 866.04 238.8">
  <path id="Selection #2" fill="#303030" stroke="none" stroke-width="1" d="M 476.00,70.21            C 476.00,70.21 483.00,70.21 483.00,70.21              503.99,69.90 523.48,74.92 540.00,88.46              592.12,131.18 584.07,242.29 508.00,260.87              502.86,262.13 488.95,264.17 484.00,263.82              461.52,262.22 442.89,256.69 426.04,240.83              389.17,206.13 389.05,132.55 423.09,96.00              438.52,79.43 454.32,73.70 476.00,70.21 Z            M 1099.00,73.00            C 1099.00,73.00 1139.00,73.00 1139.00,73.00              1139.00,73.00 1157.58,123.00 1157.58,123.00              1157.58,123.00 1190.42,210.00 1190.42,210.00              1190.42,210.00 1201.81,240.00 1201.81,240.00              1201.81,240.00 1209.00,261.00 1209.00,261.00              1209.00,261.00 1182.00,261.00 1182.00,261.00              1182.00,261.00 1174.70,259.40 1174.70,259.40              1174.70,259.40 1169.60,248.00 1169.60,248.00              1169.60,248.00 1159.00,218.00 1159.00,218.00              1159.00,218.00 1088.00,218.00 1088.00,218.00              1085.66,218.00 1082.26,217.80 1080.22,219.02              1077.43,220.70 1076.30,225.08 1075.19,228.00              1075.19,228.00 1067.42,249.00 1067.42,249.00              1063.25,260.07 1063.82,260.88 1057.00,261.00              1057.00,261.00 1029.00,261.00 1029.00,261.00              1029.00,261.00 1036.19,240.00 1036.19,240.00              1036.19,240.00 1047.58,210.00 1047.58,210.00              1047.58,210.00 1080.42,123.00 1080.42,123.00              1080.42,123.00 1099.00,73.00 1099.00,73.00 Z            M 1228.00,261.00            C 1228.00,261.00 1228.00,117.00 1228.00,117.00              1228.00,117.00 1228.00,86.00 1228.00,86.00              1228.00,86.00 1229.02,74.60 1229.02,74.60              1229.02,74.60 1237.00,73.00 1237.00,73.00              1237.00,73.00 1263.00,73.00 1263.00,73.00              1263.00,73.00 1263.00,261.00 1263.00,261.00              1263.00,261.00 1228.00,261.00 1228.00,261.00 Z            M 484.00,100.32            C 473.12,101.72 467.67,102.28 458.00,108.55              434.69,123.64 429.61,157.64 433.75,183.00              437.93,208.57 454.88,232.67 483.00,233.00              491.06,233.09 495.24,232.89 503.00,230.13              536.07,218.38 544.05,173.10 535.71,143.00              528.74,117.88 511.43,99.72 484.00,100.32 Z            M 1119.00,112.00            C 1119.00,112.00 1108.81,137.00 1108.81,137.00              1108.81,137.00 1090.00,188.00 1090.00,188.00              1090.00,188.00 1147.00,188.00 1147.00,188.00              1147.00,188.00 1119.00,112.00 1119.00,112.00 Z            M 628.00,136.00            C 642.73,121.60 652.49,120.77 672.00,121.00              694.79,121.27 712.72,137.61 720.80,158.00              731.72,185.58 728.73,223.16 708.70,245.99              689.45,267.93 647.73,270.55 628.00,248.00              628.00,248.00 628.00,300.00 628.00,300.00              627.94,308.13 626.73,307.98 619.00,308.00              619.00,308.00 595.00,308.00 595.00,308.00              595.00,308.00 595.00,123.00 595.00,123.00              595.00,123.00 628.00,123.00 628.00,123.00              628.00,123.00 628.00,136.00 628.00,136.00 Z            M 870.00,224.00            C 868.82,230.28 865.20,235.99 861.32,241.00              843.86,263.55 810.65,268.75 785.00,258.94              758.44,248.77 744.33,222.59 744.00,195.00              743.77,174.73 748.99,154.21 763.17,139.04              773.06,128.47 789.50,121.17 804.00,121.00              804.00,121.00 816.00,121.00 816.00,121.00              829.02,121.16 842.65,127.05 851.96,136.09              869.55,153.16 871.00,176.15 871.00,199.00              871.00,199.00 775.00,199.00 775.00,199.00              777.21,210.72 780.84,221.91 791.00,229.21              808.54,241.83 835.55,236.10 842.00,214.00              842.00,214.00 870.00,224.00 870.00,224.00 Z            M 926.00,136.00            C 930.65,131.46 935.02,127.65 941.00,124.90              950.73,120.43 957.69,120.88 968.00,121.00              985.09,121.20 999.40,132.30 1005.54,148.00              1010.19,159.90 1009.00,176.21 1009.00,189.00              1009.00,189.00 1009.00,261.00 1009.00,261.00              1009.00,261.00 977.00,261.00 977.00,261.00              977.00,261.00 977.00,182.00 977.00,182.00              976.97,165.94 970.87,150.22 952.00,151.04              935.69,151.75 926.02,165.68 926.00,181.00              926.00,181.00 926.00,261.00 926.00,261.00              926.00,261.00 893.00,261.00 893.00,261.00              893.00,261.00 893.00,123.00 893.00,123.00              893.00,123.00 926.00,123.00 926.00,123.00              926.00,123.00 926.00,136.00 926.00,136.00 Z            M 838.00,175.00            C 837.49,151.64 813.63,141.53 794.00,151.38              784.84,155.97 779.28,165.27 777.00,175.00              777.00,175.00 838.00,175.00 838.00,175.00 Z            M 654.00,149.32            C 650.45,150.12 647.21,151.13 644.00,152.90              626.14,162.77 626.80,181.44 627.00,199.00              627.23,218.18 638.52,234.76 659.00,235.00              663.12,235.04 665.98,235.14 670.00,233.96              691.86,227.53 694.22,206.23 694.00,187.00              693.84,173.99 688.55,160.21 677.00,153.21              669.92,148.91 662.03,148.44 654.00,149.32 Z"/>
</svg>