<svg xmlns="http://www.w3.org/2000/svg" viewBox="1.34 -0.87 1262.16 348.37">
  <path id="openai-wordmark" fill="#303030" stroke="none" stroke-width="1"
    d="M 142.00,0.44            C 160.90,-1.98 182.33,0.89 199.00,10.43              203.62,13.07 208.96,16.84 213.00,20.30              215.48,22.42 219.00,26.41 222.00,27.12              224.02,27.92 227.71,27.14 230.00,27.12              230.00,27.12 245.00,27.12 245.00,27.12              288.99,27.52 326.93,68.68 327.00,112.00              327.01,119.72 327.29,122.19 325.92,130.00              325.42,132.81 323.73,138.56 324.20,141.00              324.73,143.75 332.59,154.16 334.69,158.00              340.28,168.24 344.86,183.30 345.00,195.00              345.00,195.00 345.00,205.00 345.00,205.00              344.96,231.02 329.34,258.73 308.00,273.25              301.78,277.49 295.07,280.99 288.00,283.56              284.98,284.66 278.55,285.88 276.51,287.72              274.72,289.33 272.92,294.56 271.74,297.00              268.68,303.34 265.13,309.52 260.69,315.00              245.58,333.65 221.30,346.96 197.00,347.00              197.00,347.00 184.00,347.00 184.00,347.00              172.08,346.86 157.18,341.86 147.00,335.79              142.74,333.26 137.76,329.91 134.00,326.70              131.52,324.58 128.00,320.59 125.00,319.84              125.00,319.84 113.00,319.84 113.00,319.84              99.35,320.02 90.16,319.93 77.00,314.94              44.83,302.73 20.41,270.92 20.00,236.00              19.91,227.68 19.80,225.31 21.25,217.00              21.67,214.56 23.43,207.87 23.09,206.00              22.59,203.22 18.50,198.58 16.75,196.00              12.41,189.63 9.68,184.22 7.05,177.00              -3.48,148.01 2.11,112.59 22.30,89.00              30.52,79.39 40.50,71.61 52.00,66.31              56.06,64.43 69.30,60.74 71.19,58.57              72.62,56.93 74.67,51.35 75.78,49.00              78.34,43.59 80.59,39.83 84.16,35.00              98.94,14.96 117.99,4.86 142.00,0.44 Z            M 196.00,37.00            C 182.19,28.54 175.60,24.76 159.00,23.17              134.51,20.83 107.93,37.09 97.48,59.00              88.69,77.44 91.00,96.17 91.00,116.00              91.00,116.00 91.00,161.00 91.00,161.00              91.00,163.23 90.76,166.57 91.99,168.47              93.32,170.52 97.79,172.73 100.00,174.00              100.00,174.00 120.00,185.00 120.00,185.00              120.00,185.00 120.00,93.00 120.00,93.00              120.00,90.56 119.87,87.27 120.74,85.00              123.17,78.65 135.10,72.96 141.00,69.58              141.00,69.58 176.00,49.42 176.00,49.42              181.35,46.35 191.80,40.82 196.00,37.00 Z            M 303.00,125.00            C 303.00,112.25 303.91,105.46 299.46,93.00              291.17,69.78 271.16,54.34 247.00,51.00              243.62,50.53 240.44,49.90 237.00,50.09              216.20,51.27 203.37,60.85 186.00,70.72              186.00,70.72 150.00,91.42 150.00,91.42              138.03,98.37 136.02,97.64 136.00,108.00              136.00,108.00 136.00,132.00 136.00,132.00              142.76,130.03 151.62,123.92 158.00,120.28              158.00,120.28 200.00,96.15 200.00,96.15              205.69,92.88 220.12,83.27 226.00,83.20              231.52,83.13 243.72,91.28 249.00,94.28              249.00,94.28 303.00,125.00 303.00,125.00 Z            M 476.00,70.21            C 476.00,70.21 483.00,70.21 483.00,70.21              503.99,69.90 523.48,74.92 540.00,88.46              592.12,131.18 584.07,242.29 508.00,260.87              502.86,262.13 488.95,264.17 484.00,263.82              461.52,262.22 442.89,256.69 426.04,240.83              389.17,206.13 389.05,132.55 423.09,96.00              438.52,79.43 454.32,73.70 476.00,70.21 Z            M 1099.00,73.00            C 1099.00,73.00 1139.00,73.00 1139.00,73.00              1139.00,73.00 1157.58,123.00 1157.58,123.00              1157.58,123.00 1190.42,210.00 1190.42,210.00              1190.42,210.00 1201.81,240.00 1201.81,240.00              1201.81,240.00 1209.00,261.00 1209.00,261.00              1209.00,261.00 1182.00,261.00 1182.00,261.00              1182.00,261.00 1174.70,259.40 1174.70,259.40              1174.70,259.40 1169.60,248.00 1169.60,248.00              1169.60,248.00 1159.00,218.00 1159.00,218.00              1159.00,218.00 1088.00,218.00 1088.00,218.00              1085.66,218.00 1082.26,217.80 1080.22,219.02              1077.43,220.70 1076.30,225.08 1075.19,228.00              1075.19,228.00 1067.42,249.00 1067.42,249.00              1063.25,260.07 1063.82,260.88 1057.00,261.00              1057.00,261.00 1029.00,261.00 1029.00,261.00              1029.00,261.00 1036.19,240.00 1036.19,240.00              1036.19,240.00 1047.58,210.00 1047.58,210.00              1047.58,210.00 1080.42,123.00 1080.42,123.00              1080.42,123.00 1099.00,73.00 1099.00,73.00 Z            M 1228.00,261.00            C 1228.00,261.00 1228.00,117.00 1228.00,117.00              1228.00,117.00 1228.00,86.00 1228.00,86.00              1228.00,86.00 1229.02,74.60 1229.02,74.60              1229.02,74.60 1237.00,73.00 1237.00,73.00              1237.00,73.00 1263.00,73.00 1263.00,73.00              1263.00,73.00 1263.00,261.00 1263.00,261.00              1263.00,261.00 1228.00,261.00 1228.00,261.00 Z            M 67.00,86.00            C 56.56,90.50 48.82,95.23 41.30,104.00              21.73,126.83 20.59,160.92 38.48,185.00              49.79,200.22 72.35,210.79 89.00,220.28              89.00,220.28 116.00,235.85 116.00,235.85              119.01,237.58 124.68,241.59 128.00,241.51              130.79,241.44 135.53,238.44 138.00,236.99              138.00,236.99 156.00,227.00 156.00,227.00              151.30,221.62 141.38,217.18 135.00,213.40              135.00,213.40 90.00,187.42 90.00,187.42              83.14,183.49 70.07,177.71 67.65,170.00              66.89,167.59 67.00,164.53 67.00,162.00              67.00,162.00 67.00,86.00 67.00,86.00 Z            M 484.00,100.32            C 473.12,101.72 467.67,102.28 458.00,108.55              434.69,123.64 429.61,157.64 433.75,183.00              437.93,208.57 454.88,232.67 483.00,233.00              491.06,233.09 495.24,232.89 503.00,230.13              536.07,218.38 544.05,173.10 535.71,143.00              528.74,117.88 511.43,99.72 484.00,100.32 Z            M 280.00,261.00            C 290.03,256.68 297.42,252.26 304.83,244.00              325.81,220.60 327.04,186.01 308.10,161.00              297.66,147.21 273.48,135.45 258.00,126.58              258.00,126.58 231.00,111.00 231.00,111.00              228.13,109.35 222.14,105.41 219.00,105.49              216.19,105.57 212.44,108.16 210.00,109.58              210.00,109.58 191.00,120.00 191.00,120.00              195.06,124.61 207.15,130.79 213.00,134.15              213.00,134.15 257.00,159.42 257.00,159.42              262.92,162.86 275.83,169.21 278.69,175.00              280.18,178.03 279.99,181.70 280.00,185.00              280.00,185.00 280.00,261.00 280.00,261.00 Z            M 1119.00,112.00            C 1119.00,112.00 1108.81,137.00 1108.81,137.00              1108.81,137.00 1090.00,188.00 1090.00,188.00              1090.00,188.00 1147.00,188.00 1147.00,188.00              1147.00,188.00 1119.00,112.00 1119.00,112.00 Z            M 628.00,136.00            C 642.73,121.60 652.49,120.77 672.00,121.00              694.79,121.27 712.72,137.61 720.80,158.00              731.72,185.58 728.73,223.16 708.70,245.99              689.45,267.93 647.73,270.55 628.00,248.00              628.00,248.00 628.00,300.00 628.00,300.00              627.94,308.13 626.73,307.98 619.00,308.00              619.00,308.00 595.00,308.00 595.00,308.00              595.00,308.00 595.00,123.00 595.00,123.00              595.00,123.00 628.00,123.00 628.00,123.00              628.00,123.00 628.00,136.00 628.00,136.00 Z            M 870.00,224.00            C 868.82,230.28 865.20,235.99 861.32,241.00              843.86,263.55 810.65,268.75 785.00,258.94              758.44,248.77 744.33,222.59 744.00,195.00              743.77,174.73 748.99,154.21 763.17,139.04              773.06,128.47 789.50,121.17 804.00,121.00              804.00,121.00 816.00,121.00 816.00,121.00              829.02,121.16 842.65,127.05 851.96,136.09              869.55,153.16 871.00,176.15 871.00,199.00              871.00,199.00 775.00,199.00 775.00,199.00              777.21,210.72 780.84,221.91 791.00,229.21              808.54,241.83 835.55,236.10 842.00,214.00              842.00,214.00 870.00,224.00 870.00,224.00 Z            M 926.00,136.00            C 930.65,131.46 935.02,127.65 941.00,124.90              950.73,120.43 957.69,120.88 968.00,121.00              985.09,121.20 999.40,132.30 1005.54,148.00              1010.19,159.90 1009.00,176.21 1009.00,189.00              1009.00,189.00 1009.00,261.00 1009.00,261.00              1009.00,261.00 977.00,261.00 977.00,261.00              977.00,261.00 977.00,182.00 977.00,182.00              976.97,165.94 970.87,150.22 952.00,151.04              935.69,151.75 926.02,165.68 926.00,181.00              926.00,181.00 926.00,261.00 926.00,261.00              926.00,261.00 893.00,261.00 893.00,261.00              893.00,261.00 893.00,123.00 893.00,123.00              893.00,123.00 926.00,123.00 926.00,123.00              926.00,123.00 926.00,136.00 926.00,136.00 Z            M 173.00,131.77            C 167.65,133.23 152.76,142.54 147.00,145.85              144.70,147.17 138.32,150.64 136.99,152.61              135.75,154.46 136.00,157.81 136.00,160.00              136.00,160.00 136.00,184.00 136.00,184.00              136.00,186.63 135.58,192.29 136.99,194.39              138.73,196.98 154.28,205.29 158.00,207.42              161.87,209.64 170.81,215.99 175.00,215.06              175.00,215.06 201.00,200.58 201.00,200.58              203.33,199.24 208.65,196.57 210.01,194.47              211.24,192.57 211.00,189.23 211.00,187.00              211.00,187.00 211.00,160.00 211.00,160.00              211.00,157.77 211.24,154.43 210.01,152.53              208.64,150.41 203.34,147.79 201.00,146.40              194.95,142.81 179.03,132.44 173.00,131.77 Z            M 838.00,175.00            C 837.49,151.64 813.63,141.53 794.00,151.38              784.84,155.97 779.28,165.27 777.00,175.00              777.00,175.00 838.00,175.00 838.00,175.00 Z            M 654.00,149.32            C 650.45,150.12 647.21,151.13 644.00,152.90              626.14,162.77 626.80,181.44 627.00,199.00              627.23,218.18 638.52,234.76 659.00,235.00              663.12,235.04 665.98,235.14 670.00,233.96              691.86,227.53 694.22,206.23 694.00,187.00              693.84,173.99 688.55,160.21 677.00,153.21              669.92,148.91 662.03,148.44 654.00,149.32 Z            M 228.00,162.00            C 226.09,166.83 227.00,184.74 227.00,191.00              227.00,191.00 227.00,254.00 227.00,254.00              227.00,256.44 227.13,259.73 226.26,262.00              223.76,268.53 212.94,273.44 207.00,276.85              207.00,276.85 152.00,309.00 152.00,309.00              157.20,315.14 164.49,318.25 172.00,320.66              198.33,329.10 225.16,320.39 242.53,299.00              257.71,280.32 256.00,264.19 256.00,242.00              256.00,242.00 256.00,186.00 256.00,186.00              256.00,183.77 256.24,180.43 255.01,178.53              253.68,176.48 249.21,174.27 247.00,173.00              247.00,173.00 228.00,162.00 228.00,162.00 Z            M 211.00,215.00            C 204.97,216.91 194.93,223.35 189.00,226.72              189.00,226.72 147.00,251.00 147.00,251.00              141.38,254.23 126.73,263.88 121.00,263.80              115.53,263.74 105.09,256.61 100.00,253.72              100.00,253.72 65.00,233.58 65.00,233.58              58.72,229.93 51.05,224.34 44.00,223.00              44.00,235.60 43.41,242.72 48.06,255.00              56.71,277.78 76.04,292.69 100.00,296.00              102.98,296.41 105.98,297.03 109.00,296.90              130.72,295.94 143.87,286.20 162.00,275.85              162.00,275.85 196.00,256.15 196.00,256.15              210.77,247.72 210.98,248.68 211.00,239.00              211.00,239.00 211.00,215.00 211.00,215.00 Z" />
</svg>