<svg xmlns="http://www.w3.org/2000/svg" viewBox="-0.72 559.17 1238.22 241.48">
  <path id="opensuse-text" fill="#303030" stroke="none" stroke-width="1"
    d="M 526.00,560.15            C 526.00,560.15 559.00,560.15 559.00,560.15              559.00,560.15 618.00,560.15 618.00,560.15              623.45,560.01 627.26,559.98 631.67,563.79              638.35,569.55 639.10,584.17 633.44,590.81              628.61,596.49 619.93,596.99 613.00,597.00              613.00,597.00 543.00,597.00 543.00,597.00              526.73,597.20 526.85,607.38 527.00,620.00              527.16,633.24 535.07,636.98 547.00,637.00              547.00,637.00 612.00,637.00 612.00,637.00              626.03,637.07 640.01,642.89 646.62,656.00              652.78,668.19 651.02,688.20 651.00,702.00              650.97,720.38 643.96,738.41 626.00,746.12              619.34,748.98 611.20,749.99 604.00,750.00              604.00,750.00 556.00,750.00 556.00,750.00              556.00,750.00 516.00,750.00 516.00,750.00              509.27,750.00 500.99,750.88 495.00,747.59              485.05,742.10 484.00,724.75 492.11,717.22              496.70,712.96 501.18,713.01 507.00,713.00              507.00,713.00 595.00,713.00 595.00,713.00              597.43,713.00 600.75,713.13 603.00,712.26              612.14,708.72 612.09,695.15 612.00,687.00              611.85,674.87 607.50,672.02 596.00,672.00              596.00,672.00 546.00,672.00 546.00,672.00              529.11,672.00 516.06,673.22 502.01,661.53              492.03,653.23 487.15,639.74 487.00,627.00              486.80,609.81 485.31,594.88 495.72,580.00              499.97,573.93 504.54,569.59 511.00,565.88              515.67,563.20 520.78,561.62 526.00,560.15 Z            M 694.00,560.65            C 708.27,557.69 721.91,560.85 722.00,578.00              722.00,578.00 722.00,689.00 722.00,689.00              722.03,705.31 728.20,712.97 745.00,713.00              745.00,713.00 780.00,713.00 780.00,713.00              784.84,713.00 793.77,713.51 798.00,711.85              807.58,708.11 809.99,700.27 810.00,691.00              810.00,691.00 810.00,581.00 810.00,581.00              810.03,564.54 816.16,559.81 832.00,560.00              847.17,560.19 849.98,569.93 850.00,583.00              850.00,583.00 850.00,697.00 850.00,697.00              849.78,715.79 843.65,732.28 827.00,742.53              811.74,751.93 797.97,751.00 781.00,751.00              781.00,751.00 736.00,751.00 736.00,751.00              706.73,750.65 683.05,731.31 683.00,701.00              683.00,701.00 683.00,621.00 683.00,621.00              683.00,621.00 683.00,580.00 683.00,580.00              683.01,570.48 684.37,564.69 694.00,560.65 Z            M 922.00,560.15            C 922.00,560.15 954.00,560.15 954.00,560.15              954.00,560.15 1013.00,560.15 1013.00,560.15              1018.28,560.01 1022.48,560.08 1026.81,563.64              1033.42,569.06 1033.98,584.62 1028.61,590.90              1023.71,596.62 1015.98,596.99 1009.00,597.00              1009.00,597.00 938.00,597.00 938.00,597.00              922.06,597.22 921.84,607.53 922.00,620.00              922.18,633.15 930.20,636.98 942.00,637.00              942.00,637.00 1007.00,637.00 1007.00,637.00              1030.15,637.04 1045.96,651.50 1046.00,675.00              1046.04,698.75 1050.30,728.08 1027.00,743.04              1023.82,745.08 1019.65,746.85 1016.00,747.84              1010.44,749.35 1004.74,749.99 999.00,750.00              999.00,750.00 951.00,750.00 951.00,750.00              951.00,750.00 911.00,750.00 911.00,750.00              904.45,750.00 895.88,750.72 890.01,747.56              880.38,742.37 879.25,725.61 886.22,718.11              890.91,713.06 895.66,713.01 902.00,713.00              902.00,713.00 990.00,713.00 990.00,713.00              992.43,713.00 995.75,713.13 998.00,712.26              1007.96,708.41 1007.11,694.64 1007.00,686.00              1006.84,674.11 1001.70,672.02 991.00,672.00              991.00,672.00 942.00,672.00 942.00,672.00              924.18,672.00 910.66,673.42 896.09,660.54              881.43,647.58 881.97,628.84 882.00,611.00              882.04,585.41 896.08,565.29 922.00,560.15 Z            M 1118.00,713.00            C 1118.00,713.00 1170.00,713.00 1170.00,713.00              1170.00,713.00 1219.00,713.00 1219.00,713.00              1232.36,713.16 1237.30,720.29 1236.99,733.00              1236.88,737.26 1236.23,740.49 1233.44,743.90              1228.82,749.54 1222.70,749.99 1216.00,750.00              1216.00,750.00 1098.00,750.00 1098.00,750.00              1083.04,749.93 1078.02,743.44 1078.00,729.00              1078.00,729.00 1078.00,600.00 1078.00,600.00              1078.00,600.00 1078.00,585.00 1078.00,585.00              1078.00,575.26 1077.42,564.28 1089.00,560.65              1091.41,559.89 1094.47,560.00 1097.00,560.00              1097.00,560.00 1213.00,560.00 1213.00,560.00              1217.68,560.01 1220.94,559.78 1224.98,562.65              1232.86,568.23 1234.51,582.38 1228.57,589.96              1223.45,596.50 1215.64,596.99 1208.00,597.00              1208.00,597.00 1118.00,597.00 1118.00,597.00              1118.00,597.00 1118.00,637.00 1118.00,637.00              1118.00,637.00 1190.00,637.00 1190.00,637.00              1202.97,637.02 1210.88,643.14 1209.67,657.00              1208.48,670.75 1200.27,673.98 1188.00,674.00              1188.00,674.00 1118.00,674.00 1118.00,674.00              1118.00,674.00 1118.00,713.00 1118.00,713.00 Z            M 144.00,740.00            C 142.02,748.15 143.12,776.61 143.00,787.00              142.96,790.22 142.70,796.02 140.28,798.40              137.85,800.78 126.14,800.69 123.65,798.40              120.74,795.72 121.01,790.62 121.00,787.00              121.00,787.00 121.00,670.00 121.00,670.00              121.00,670.00 121.00,647.00 121.00,647.00              121.04,643.69 121.10,639.89 123.51,637.31              125.66,635.01 129.04,634.82 132.00,635.06              140.91,635.77 139.65,643.90 146.02,643.76              148.51,643.71 152.69,641.37 155.00,640.26              159.45,638.11 164.22,636.41 169.00,635.16              174.74,633.65 179.15,633.97 185.00,634.00              195.91,634.05 207.03,637.88 212.59,648.00              215.56,653.42 215.99,658.00 216.00,664.00              216.00,664.00 216.00,710.00 216.00,710.00              216.00,718.51 216.93,728.22 213.00,736.00              207.63,746.63 195.15,750.53 184.00,750.96              168.23,751.57 158.03,744.90 144.00,740.00 Z            M 412.00,634.44            C 426.45,632.59 443.53,634.02 451.64,648.00              456.47,656.32 455.00,667.61 455.00,677.00              455.00,677.00 455.00,737.00 455.00,737.00              454.99,740.14 455.29,744.12 453.26,746.75              449.73,751.25 440.14,751.02 436.51,746.75              433.73,743.52 434.01,739.00 434.00,735.00              434.00,735.00 434.00,671.00 434.00,671.00              434.00,668.56 434.13,665.27 433.26,663.00              429.16,652.31 417.09,654.00 408.00,654.00              398.78,654.00 386.88,652.16 382.74,663.00              381.87,665.28 382.00,668.55 382.00,671.00              382.00,671.00 382.00,735.00 382.00,735.00              381.99,739.00 382.27,743.52 379.49,746.75              375.86,751.02 366.27,751.25 362.74,746.75              360.70,744.11 361.01,740.14 361.00,737.00              361.00,737.00 361.00,646.00 361.00,646.00              361.00,643.65 360.81,640.20 362.02,638.15              364.25,634.37 372.24,634.10 375.67,636.17              379.38,638.41 379.96,643.87 385.02,643.76              387.58,643.71 392.47,640.98 395.00,639.86              401.20,637.12 405.33,635.69 412.00,634.44 Z            M 21.00,635.52            C 21.00,635.52 47.00,635.00 47.00,635.00              60.93,635.00 75.16,632.25 85.96,643.04              89.27,646.35 91.38,649.52 92.78,654.00              94.05,658.07 93.99,660.84 94.00,665.00              94.00,665.00 94.00,720.00 94.00,720.00              93.91,739.61 82.17,749.97 63.00,750.00              63.00,750.00 22.00,749.48 22.00,749.48              15.66,748.13 10.03,744.89 5.93,739.83              -1.96,730.10 0.00,718.68 0.00,707.00              0.00,707.00 0.00,675.00 0.00,675.00              0.00,660.74 -2.11,648.13 12.00,639.13              14.97,637.24 17.66,636.42 21.00,635.52 Z            M 265.00,701.00            C 265.00,705.85 264.28,719.26 266.17,723.00              268.98,728.53 273.26,729.92 279.00,730.00              279.00,730.00 306.00,730.00 306.00,730.00              309.62,730.05 313.80,730.26 316.72,732.70              321.32,736.53 320.65,744.87 315.87,748.26              313.03,750.28 309.31,749.99 306.00,750.00              306.00,750.00 284.00,750.00 284.00,750.00              271.61,750.00 261.77,751.58 252.09,741.91              249.03,738.85 246.55,735.14 245.22,731.00              243.95,727.04 244.01,724.07 244.00,720.00              244.00,720.00 244.00,663.00 244.00,663.00              244.03,644.88 255.25,635.03 273.00,635.00              273.00,635.00 302.00,635.00 302.00,635.00              313.70,635.00 323.11,634.15 331.67,644.04              339.67,653.27 339.02,665.55 339.00,677.00              338.99,682.77 338.66,692.41 334.61,696.78              330.61,701.09 325.38,700.99 320.00,701.00              320.00,701.00 265.00,701.00 265.00,701.00 Z            M 30.00,654.20            C 22.87,656.70 21.10,659.73 21.00,667.00              21.00,667.00 21.00,717.00 21.00,717.00              21.15,727.64 25.00,729.98 35.00,730.00              35.00,730.00 59.00,730.00 59.00,730.00              62.69,729.98 65.79,730.15 68.79,727.57              73.07,723.87 72.99,719.14 73.00,714.00              73.00,714.00 73.00,671.00 73.00,671.00              72.99,666.15 73.17,661.28 69.44,657.56              65.72,653.83 60.85,654.01 56.00,654.20              56.00,654.20 30.00,654.20 30.00,654.20 Z            M 153.00,654.17            C 145.08,656.48 143.11,660.08 143.00,668.00              143.00,668.00 143.00,715.00 143.00,715.00              143.02,726.52 146.48,729.98 158.00,730.00              163.68,730.01 183.95,730.70 187.96,728.99              190.70,727.83 192.71,725.69 193.91,722.98              195.17,720.15 195.00,717.03 195.00,714.00              195.00,714.00 195.00,671.00 195.00,671.00              194.99,666.20 195.28,661.99 191.72,658.21              188.30,654.58 184.70,654.07 180.00,654.17              180.00,654.17 153.00,654.17 153.00,654.17 Z            M 317.00,683.00            C 317.00,683.00 317.00,667.00 317.00,667.00              316.85,656.35 311.71,654.05 302.00,654.00              302.00,654.00 286.00,654.00 286.00,654.00              281.32,654.00 273.99,653.35 270.04,655.85              262.56,660.61 265.00,675.15 265.00,683.00              265.00,683.00 317.00,683.00 317.00,683.00 Z" />
</svg>