<svg xmlns="http://www.w3.org/2000/svg" viewBox="-0.5 -0.5 2496.64 1601.37">
  <path id="opensuse-wordmark" fill="#303030" stroke="none" stroke-width="1"
    d="M 964.00,912.00            C 964.00,912.00 956.37,879.00 956.37,879.00              938.85,808.93 907.79,755.10 860.15,701.00              814.23,648.84 751.16,601.28 687.00,574.00              651.18,558.77 620.64,550.97 582.00,546.84              582.00,546.84 562.00,545.00 562.00,545.00              562.00,545.00 541.00,544.00 541.00,544.00              541.00,544.00 500.00,546.17 500.00,546.17              443.02,551.69 387.24,573.37 344.00,611.29              307.61,643.19 275.76,690.22 262.43,737.00              234.52,834.91 277.83,947.32 359.00,1006.85              390.80,1030.16 429.05,1045.72 468.00,1051.73              489.81,1055.09 510.03,1055.25 532.00,1055.00              532.00,1055.00 551.00,1053.15 551.00,1053.15              609.59,1046.15 659.05,1016.03 680.58,959.00              687.75,940.00 691.09,921.28 691.00,901.00              690.82,862.44 668.71,816.40 640.96,790.17              619.89,770.25 594.58,757.65 566.00,752.92              560.89,752.07 555.15,751.06 550.00,751.00              525.34,750.72 503.99,752.41 483.00,767.21              454.16,787.53 446.66,827.08 473.28,852.56              480.50,859.47 492.83,866.40 503.00,866.90              505.83,867.03 508.23,866.51 511.00,866.13              511.00,866.13 529.00,862.85 529.00,862.85              537.89,860.48 541.93,858.14 552.00,857.17              562.93,856.11 575.74,859.72 585.00,865.47              613.82,883.34 617.57,926.83 592.96,949.83              582.66,959.46 569.27,964.74 556.00,968.72              539.29,973.73 521.52,977.79 504.00,978.00              445.15,978.68 386.03,941.44 359.81,889.00              338.22,845.83 337.39,791.06 356.86,747.00              391.54,668.55 470.98,633.04 553.00,634.00              553.00,634.00 563.00,634.91 563.00,634.91              585.66,636.47 607.40,640.47 629.00,647.67              663.67,659.22 697.87,678.65 725.00,703.17              816.86,786.21 842.52,923.89 785.74,1034.00              775.31,1054.24 761.05,1076.09 745.83,1093.00              707.01,1136.13 656.09,1165.08 600.00,1179.11              564.33,1188.02 528.60,1190.42 492.00,1190.00              492.00,1190.00 481.00,1189.04 481.00,1189.04              385.54,1184.88 293.08,1146.05 223.00,1081.09              223.00,1081.09 212.01,1071.00 212.01,1071.00              170.35,1028.50 138.62,976.00 118.69,920.00              107.69,889.09 101.20,856.68 98.91,824.00              98.91,824.00 98.00,812.00 98.00,812.00              98.00,812.00 98.00,766.00 98.00,766.00              98.00,766.00 98.91,756.00 98.91,756.00              98.91,756.00 104.59,708.00 104.59,708.00              114.52,648.79 132.18,601.72 160.69,549.00              228.10,424.36 322.43,328.17 438.00,247.28              483.18,215.66 530.53,186.97 579.00,160.69              692.62,99.10 807.38,53.70 934.00,26.79              976.67,17.72 1019.62,11.17 1063.00,6.83              1063.00,6.83 1112.00,2.91 1112.00,2.91              1112.00,2.91 1124.00,2.00 1124.00,2.00              1124.00,2.00 1141.00,1.00 1141.00,1.00              1141.00,1.00 1154.00,1.00 1154.00,1.00              1154.00,1.00 1170.00,0.00 1170.00,0.00              1170.00,0.00 1252.00,0.00 1252.00,0.00              1252.00,0.00 1267.00,1.00 1267.00,1.00              1267.00,1.00 1284.00,1.00 1284.00,1.00              1284.00,1.00 1296.00,1.96 1296.00,1.96              1296.00,1.96 1311.00,1.96 1311.00,1.96              1311.00,1.96 1323.00,2.96 1323.00,2.96              1323.00,2.96 1337.00,2.96 1337.00,2.96              1337.00,2.96 1349.00,3.96 1349.00,3.96              1349.00,3.96 1363.00,3.96 1363.00,3.96              1363.00,3.96 1377.00,5.00 1377.00,5.00              1377.00,5.00 1410.00,6.91 1410.00,6.91              1410.00,6.91 1503.00,16.72 1503.00,16.72              1584.04,27.39 1671.89,46.09 1751.00,66.88              1751.00,66.88 1832.00,89.72 1832.00,89.72              1832.00,89.72 1872.00,102.00 1872.00,102.00              1872.00,102.00 1873.00,84.00 1873.00,84.00              1873.00,84.00 1873.00,49.00 1873.00,49.00              1873.00,49.00 1874.00,31.00 1874.00,31.00              1874.05,28.65 1873.85,25.80 1876.31,24.60              1879.10,23.24 1888.62,25.08 1892.00,25.58              1892.00,25.58 1929.00,31.59 1929.00,31.59              1929.00,31.59 2020.00,48.60 2020.00,48.60              2020.00,48.60 2077.00,60.63 2077.00,60.63              2077.00,60.63 2109.00,67.88 2109.00,67.88              2167.28,81.71 2240.78,101.72 2296.00,123.80              2318.76,132.90 2354.73,148.03 2374.00,162.15              2383.09,168.82 2391.24,176.76 2398.91,185.00              2417.08,204.50 2431.81,236.28 2442.01,261.00              2456.42,295.92 2469.82,331.72 2480.42,368.00              2480.42,368.00 2493.00,413.00 2493.00,413.00              2493.86,417.03 2496.67,426.28 2495.25,429.90              2493.89,433.35 2486.23,437.47 2483.00,439.72              2483.00,439.72 2451.00,461.05 2451.00,461.05              2417.85,481.80 2377.72,499.07 2339.00,505.57              2317.28,509.21 2306.55,509.03 2285.00,509.00              2253.28,508.95 2207.16,496.77 2177.00,486.34              2117.51,465.77 2063.33,438.11 2009.00,406.58              2009.00,406.58 1955.00,373.58 1955.00,373.58              1955.00,373.58 1935.00,361.00 1935.00,361.00              1935.00,361.00 1962.58,425.00 1962.58,425.00              1964.92,430.58 1971.98,449.32 1975.27,452.79              1978.93,456.64 1995.45,464.16 2001.00,466.78              2001.00,466.78 2052.00,490.86 2052.00,490.86              2096.71,510.77 2142.06,529.64 2189.00,543.72              2215.15,551.57 2241.70,558.18 2269.00,560.09              2269.00,560.09 2279.00,561.00 2279.00,561.00              2279.00,561.00 2292.00,560.09 2292.00,560.09              2339.95,556.79 2385.00,543.27 2429.00,524.28              2429.00,524.28 2468.00,505.00 2468.00,505.00              2471.48,503.06 2480.85,498.91 2484.69,501.11              2488.58,503.35 2486.54,512.43 2485.79,516.00              2482.83,529.98 2478.30,543.75 2473.00,557.00              2470.69,562.77 2468.31,569.05 2464.47,574.00              2455.72,585.31 2433.06,597.72 2420.00,604.25              2394.13,617.18 2357.13,634.20 2330.00,643.33              2272.47,662.69 2212.26,673.14 2152.00,679.17              2152.00,679.17 2093.00,683.00 2093.00,683.00              2093.00,683.00 2076.00,684.00 2076.00,684.00              2076.00,684.00 2048.00,684.00 2048.00,684.00              2048.00,684.00 2026.00,683.00 2026.00,683.00              2026.00,683.00 2003.00,681.17 2003.00,681.17              2003.00,681.17 1966.00,677.83 1966.00,677.83              1966.00,677.83 1903.00,670.83 1903.00,670.83              1903.00,670.83 1880.00,668.91 1880.00,668.91              1880.00,668.91 1870.00,667.96 1870.00,667.96              1870.00,667.96 1858.00,667.96 1858.00,667.96              1854.13,667.65 1852.29,666.85 1848.00,667.09              1848.00,667.09 1838.00,668.00 1838.00,668.00              1826.99,668.13 1815.64,669.43 1805.00,672.43              1797.08,674.66 1787.91,678.25 1781.00,682.70              1747.58,704.19 1739.94,746.08 1740.00,783.00              1740.04,807.30 1747.63,839.90 1755.33,863.00              1766.89,897.66 1784.93,936.07 1804.32,967.00              1804.32,967.00 1829.88,1006.00 1829.88,1006.00              1831.66,1008.42 1839.13,1017.07 1833.69,1019.36              1830.88,1020.54 1824.64,1017.47 1822.00,1016.22              1822.00,1016.22 1795.00,1003.74 1795.00,1003.74              1795.00,1003.74 1686.00,953.31 1686.00,953.31              1676.84,949.10 1650.75,937.76 1644.00,932.84              1633.12,924.91 1607.07,895.46 1596.84,884.00              1566.93,850.52 1538.45,815.08 1506.00,784.04              1463.06,742.97 1409.50,712.15 1351.00,700.45              1338.61,697.97 1323.59,696.02 1311.00,696.00              1311.00,696.00 1300.00,695.34 1300.00,695.34              1300.00,695.34 1283.00,696.00 1283.00,696.00              1283.00,696.00 1264.00,697.85 1264.00,697.85              1250.47,699.46 1231.87,702.62 1219.00,706.75              1186.68,717.11 1150.73,743.09 1134.31,773.00              1113.80,810.36 1109.51,859.06 1110.00,901.00              1110.00,901.00 1111.00,917.00 1111.00,917.00              1111.00,917.00 1115.13,963.00 1115.13,963.00              1115.13,963.00 1117.71,978.00 1117.71,978.00              1117.92,979.81 1118.19,982.58 1116.43,983.77              1113.78,985.56 1108.48,982.01 1106.00,980.76              1106.00,980.76 1078.00,967.25 1078.00,967.25              1078.00,967.25 1001.00,929.74 1001.00,929.74              1001.00,929.74 964.00,912.00 964.00,912.00 Z            M 2229.00,165.28            C 2215.73,167.20 2204.66,169.26 2192.00,174.06              2156.26,187.62 2126.88,216.65 2112.45,252.00              2081.44,327.98 2121.94,416.42 2201.00,440.72              2211.22,443.86 2224.31,446.87 2235.00,447.00              2262.08,447.31 2281.30,445.02 2306.00,432.75              2323.15,424.23 2338.13,412.46 2350.71,398.00              2361.03,386.13 2370.02,370.72 2375.58,356.00              2401.70,286.81 2369.53,208.23 2302.00,177.31              2279.55,167.03 2253.55,163.00 2229.00,165.28 Z            M 2241.00,205.46            C 2251.66,204.92 2265.84,207.32 2276.00,210.67              2286.38,214.09 2297.41,220.29 2306.00,227.01              2360.29,269.56 2354.35,356.47 2293.00,391.57              2275.06,401.84 2258.24,404.23 2238.00,404.00              2229.91,403.90 2221.73,401.98 2214.00,399.71              2171.12,387.08 2146.54,349.28 2144.09,306.00              2143.87,302.15 2144.49,300.53 2144.83,297.00              2145.90,285.92 2147.42,276.40 2151.87,266.00              2162.52,241.15 2182.40,221.01 2208.00,211.69              2222.27,206.50 2227.04,207.22 2241.00,205.46 Z            M 2257.00,256.29            C 2250.21,257.32 2244.31,258.37 2238.00,261.32              2219.88,269.80 2212.40,289.73 2230.00,303.47              2242.07,312.90 2258.35,314.58 2273.00,312.83              2288.38,311.00 2309.57,299.27 2305.97,281.00              2305.23,277.21 2303.89,274.08 2301.47,271.04              2291.92,259.07 2271.58,254.92 2257.00,256.29 Z            M 1059.00,1120.14            C 1059.00,1120.14 1121.00,1120.14 1121.00,1120.14              1121.00,1120.14 1239.00,1120.14 1239.00,1120.14              1249.04,1120.02 1258.57,1122.56 1265.68,1130.17              1276.11,1141.36 1277.15,1166.69 1268.36,1179.00              1260.38,1190.19 1247.96,1192.98 1235.00,1193.00              1235.00,1193.00 1083.00,1193.00 1083.00,1193.00              1079.25,1193.05 1075.58,1193.42 1072.00,1194.60              1049.36,1202.02 1052.78,1225.09 1053.00,1244.00              1053.23,1263.06 1066.60,1273.97 1085.00,1274.00              1085.00,1274.00 1224.00,1274.00 1224.00,1274.00              1249.07,1274.30 1275.95,1284.95 1289.53,1307.00              1302.28,1327.68 1302.00,1346.79 1302.00,1370.00              1302.00,1370.00 1302.00,1402.00 1302.00,1402.00              1301.97,1419.28 1298.25,1440.66 1290.11,1456.00              1275.69,1483.18 1247.48,1498.95 1217.00,1499.00              1217.00,1499.00 1118.00,1499.00 1118.00,1499.00              1118.00,1499.00 1009.00,1499.00 1009.00,1499.00              999.64,1498.99 990.03,1496.67 983.18,1489.82              971.72,1478.36 970.75,1451.65 980.53,1439.00              988.51,1428.67 999.58,1426.02 1012.00,1426.00              1012.00,1426.00 1199.00,1426.00 1199.00,1426.00              1201.60,1426.00 1204.50,1426.11 1207.00,1425.35              1214.53,1423.08 1219.07,1416.15 1221.28,1409.00              1224.86,1397.38 1224.14,1380.37 1224.00,1368.00              1223.78,1349.14 1214.91,1343.03 1197.00,1343.00              1197.00,1343.00 1086.00,1343.00 1086.00,1343.00              1086.00,1343.00 1057.00,1343.00 1057.00,1343.00              1039.23,1342.97 1019.46,1335.22 1006.00,1323.70              987.54,1307.90 975.29,1284.60 975.00,1260.00              975.00,1260.00 975.00,1210.00 975.00,1210.00              975.05,1176.65 997.66,1144.64 1027.00,1129.97              1038.09,1124.42 1046.94,1122.40 1059.00,1120.14 Z            M 1393.00,1120.26            C 1393.00,1120.26 1400.00,1120.26 1400.00,1120.26              1400.00,1120.26 1417.00,1120.26 1417.00,1120.26              1428.61,1122.26 1438.56,1130.97 1442.45,1142.00              1444.02,1146.45 1443.99,1149.41 1444.00,1154.00              1444.00,1154.00 1444.00,1386.00 1444.00,1386.00              1444.03,1408.27 1456.30,1425.96 1480.00,1426.00              1480.00,1426.00 1587.00,1426.00 1587.00,1426.00              1607.07,1425.75 1620.77,1408.21 1621.07,1389.00              1621.07,1389.00 1621.07,1182.00 1621.07,1182.00              1621.07,1182.00 1621.07,1162.00 1621.07,1162.00              1621.07,1162.00 1621.07,1147.00 1621.07,1147.00              1623.03,1135.30 1632.05,1125.56 1643.00,1121.70              1647.99,1119.94 1649.85,1120.01 1655.00,1120.00              1662.48,1119.99 1669.80,1119.37 1677.00,1121.75              1692.78,1126.97 1698.98,1141.52 1699.00,1157.00              1699.00,1157.00 1699.00,1401.00 1699.00,1401.00              1698.95,1435.90 1682.27,1467.54 1652.00,1485.55              1621.95,1503.42 1597.04,1501.00 1564.00,1501.00              1564.00,1501.00 1465.00,1501.00 1465.00,1501.00              1455.91,1500.89 1442.66,1497.92 1434.00,1495.00              1392.01,1480.83 1366.07,1445.33 1366.00,1401.00              1366.00,1401.00 1366.00,1236.00 1366.00,1236.00              1366.00,1236.00 1366.00,1156.00 1366.00,1156.00              1366.09,1137.92 1374.80,1124.51 1393.00,1120.26 Z            M 1850.00,1120.11            C 1850.00,1120.11 1881.00,1120.11 1881.00,1120.11              1881.00,1120.11 1937.00,1120.11 1937.00,1120.11              1937.00,1120.11 2032.00,1120.11 2032.00,1120.11              2046.29,1120.17 2059.24,1128.85 2063.07,1143.00              2064.38,1147.82 2064.06,1156.74 2064.00,1162.00              2063.93,1167.86 2062.61,1173.00 2059.44,1178.00              2051.94,1189.84 2039.15,1192.98 2026.00,1193.00              2026.00,1193.00 1873.00,1193.00 1873.00,1193.00              1868.77,1193.05 1866.06,1193.41 1862.00,1194.75              1840.47,1201.88 1842.79,1223.70 1843.00,1242.00              1843.23,1261.65 1855.29,1273.97 1875.00,1274.00              1875.00,1274.00 2013.00,1274.00 2013.00,1274.00              2057.30,1274.07 2091.93,1303.30 2092.00,1349.00              2092.00,1349.00 2092.00,1388.00 2092.00,1388.00              2092.00,1388.00 2092.00,1409.00 2092.00,1409.00              2091.96,1436.89 2080.03,1466.69 2057.00,1483.25              2051.01,1487.56 2043.00,1491.63 2036.00,1494.00              2026.96,1497.06 2016.55,1498.99 2007.00,1499.00              2007.00,1499.00 1908.00,1499.00 1908.00,1499.00              1908.00,1499.00 1799.00,1499.00 1799.00,1499.00              1783.48,1498.98 1769.86,1491.99 1765.76,1476.00              1764.63,1471.60 1764.95,1461.92 1765.00,1457.00              1765.09,1450.04 1766.95,1443.53 1771.39,1438.01              1778.90,1428.68 1790.60,1426.02 1802.00,1426.00              1802.00,1426.00 1989.00,1426.00 1989.00,1426.00              1992.00,1426.00 1995.12,1426.12 1998.00,1425.15              2005.39,1422.65 2009.33,1416.01 2011.64,1409.00              2015.21,1398.18 2014.14,1377.96 2014.00,1366.00              2013.78,1348.02 2003.21,1343.03 1987.00,1343.00              1987.00,1343.00 1881.00,1343.00 1881.00,1343.00              1881.00,1343.00 1847.00,1343.00 1847.00,1343.00              1828.05,1342.97 1808.14,1334.01 1794.00,1321.71              1774.75,1304.96 1765.30,1280.17 1765.00,1255.00              1764.82,1239.09 1763.88,1207.28 1767.24,1193.00              1774.54,1161.91 1798.90,1135.44 1829.00,1125.08              1836.81,1122.39 1842.01,1121.63 1850.00,1120.11 Z            M 2235.00,1426.00            C 2235.00,1426.00 2338.00,1426.00 2338.00,1426.00              2338.00,1426.00 2438.00,1426.00 2438.00,1426.00              2449.19,1426.13 2460.42,1429.87 2467.47,1439.00              2477.06,1451.43 2475.85,1478.55 2464.70,1489.70              2457.64,1496.76 2448.65,1498.98 2439.00,1498.93              2439.00,1498.93 2222.00,1498.93 2222.00,1498.93              2222.00,1498.93 2199.00,1498.93 2199.00,1498.93              2199.00,1498.93 2183.00,1498.93 2183.00,1498.93              2171.32,1496.98 2162.09,1489.18 2158.36,1478.00              2156.90,1473.62 2157.01,1471.49 2157.00,1467.00              2157.00,1467.00 2157.00,1200.00 2157.00,1200.00              2157.00,1200.00 2157.00,1166.00 2157.00,1166.00              2157.00,1151.78 2154.92,1140.07 2166.04,1129.04              2169.75,1125.36 2174.01,1122.77 2179.00,1121.22              2183.10,1119.94 2185.81,1120.01 2190.00,1120.07              2190.00,1120.07 2397.00,1120.07 2397.00,1120.07              2397.00,1120.07 2420.00,1120.07 2420.00,1120.07              2420.00,1120.07 2436.00,1120.07 2436.00,1120.07              2448.80,1122.14 2458.46,1130.49 2461.84,1143.00              2463.34,1148.54 2463.06,1154.30 2463.00,1160.00              2462.71,1184.18 2445.85,1192.97 2424.00,1193.00              2424.00,1193.00 2235.00,1193.00 2235.00,1193.00              2235.00,1193.00 2235.00,1274.00 2235.00,1274.00              2235.00,1274.00 2382.00,1274.00 2382.00,1274.00              2393.97,1274.02 2404.87,1277.07 2412.47,1287.00              2422.12,1299.60 2420.99,1326.41 2409.70,1337.70              2402.64,1344.76 2393.65,1346.98 2384.00,1347.00              2384.00,1347.00 2235.00,1347.00 2235.00,1347.00              2235.00,1347.00 2235.00,1426.00 2235.00,1426.00 Z            M 353.00,1268.21            C 353.00,1268.21 359.00,1268.21 359.00,1268.21              382.37,1267.73 406.15,1270.70 421.24,1291.00              434.06,1308.23 432.00,1325.90 432.00,1346.00              432.00,1346.00 432.00,1444.00 432.00,1444.00              431.83,1480.13 404.31,1500.59 370.00,1501.00              352.35,1501.20 338.63,1499.63 322.00,1493.19              322.00,1493.19 300.00,1483.60 300.00,1483.60              297.62,1482.64 292.49,1480.60 290.02,1480.78              284.55,1481.17 285.01,1487.00 285.00,1491.00              285.00,1491.00 285.00,1581.00 285.00,1581.00              284.88,1591.37 283.07,1599.92 271.00,1600.00              259.92,1600.07 246.25,1603.37 243.12,1589.00              242.95,1586.32 243.00,1583.71 243.12,1581.00              243.12,1581.00 243.12,1342.00 243.12,1342.00              243.12,1342.00 243.12,1295.00 243.12,1295.00              243.00,1288.07 241.97,1279.99 246.80,1274.33              251.14,1269.23 256.97,1269.93 263.00,1270.00              269.77,1270.09 273.19,1271.27 277.37,1277.00              280.61,1281.46 282.30,1289.25 289.00,1289.48              294.00,1289.65 311.50,1280.82 317.00,1278.31              330.14,1272.31 338.96,1270.46 353.00,1268.21 Z            M 831.00,1268.21            C 831.00,1268.21 838.00,1268.21 838.00,1268.21              848.34,1267.95 858.99,1268.06 869.00,1271.04              874.70,1272.73 880.95,1275.33 886.00,1278.47              889.82,1280.84 892.87,1283.77 895.96,1287.00              913.54,1305.39 910.00,1329.75 910.00,1353.00              910.00,1353.00 910.00,1426.00 910.00,1426.00              910.00,1426.00 910.00,1472.00 910.00,1472.00              910.00,1479.00 911.28,1487.25 906.61,1492.96              900.80,1500.06 894.21,1499.11 886.00,1499.00              873.21,1498.83 869.02,1490.61 869.00,1479.00              869.00,1479.00 869.00,1337.00 869.00,1337.00              868.97,1319.15 859.21,1308.03 841.00,1308.00              841.00,1308.00 790.00,1308.00 790.00,1308.00              772.90,1308.08 763.03,1319.28 763.00,1336.00              763.00,1336.00 763.00,1458.00 763.00,1458.00              763.00,1458.00 763.00,1473.00 763.00,1473.00              763.00,1482.85 763.62,1494.20 752.00,1498.15              748.69,1499.27 742.63,1499.04 739.00,1499.00              723.43,1498.79 721.02,1486.83 721.14,1474.00              721.14,1474.00 721.14,1318.00 721.14,1318.00              721.14,1318.00 721.14,1285.00 721.14,1285.00              722.22,1279.51 722.93,1275.01 728.02,1271.74              731.61,1269.43 737.77,1269.95 742.00,1270.00              748.57,1270.09 751.97,1271.26 755.68,1277.02              758.50,1281.40 761.03,1289.25 767.00,1289.48              772.44,1289.68 787.44,1281.86 793.00,1279.31              806.85,1272.95 816.06,1270.59 831.00,1268.21 Z            M 46.00,1270.12            C 46.00,1270.12 94.00,1270.12 94.00,1270.12              94.00,1270.12 120.00,1270.12 120.00,1270.12              120.00,1270.12 134.00,1270.12 134.00,1270.12              151.28,1270.08 168.53,1279.68 178.11,1294.00              181.38,1298.89 183.59,1303.37 185.28,1309.00              187.02,1314.81 187.99,1324.87 188.00,1331.00              188.00,1331.00 188.00,1411.00 188.00,1411.00              188.00,1425.30 188.92,1446.65 185.09,1460.00              178.52,1482.94 157.88,1498.96 134.00,1499.00              134.00,1499.00 53.00,1499.00 53.00,1499.00              25.68,1498.96 0.33,1475.88 0.00,1448.00              0.00,1448.00 0.00,1323.00 0.00,1323.00              0.04,1295.27 19.86,1276.11 46.00,1270.12 Z            M 529.00,1402.00            C 529.00,1402.00 529.00,1424.00 529.00,1424.00              529.00,1439.08 528.06,1454.17 546.00,1459.78              550.07,1461.05 552.84,1460.99 557.00,1461.00              557.00,1461.00 616.00,1461.00 616.00,1461.00              628.86,1461.02 638.62,1464.13 638.99,1479.00              639.32,1492.71 633.86,1498.98 620.00,1499.00              620.00,1499.00 541.00,1499.00 541.00,1499.00              511.26,1498.95 488.05,1473.17 488.00,1444.00              488.00,1444.00 488.00,1324.00 488.00,1324.00              488.05,1294.29 512.32,1270.05 542.00,1270.00              542.00,1270.00 603.00,1270.00 603.00,1270.00              603.00,1270.00 622.00,1270.00 622.00,1270.00              637.03,1270.02 652.55,1276.67 662.56,1288.04              676.90,1304.32 677.00,1320.59 677.00,1341.00              677.00,1341.00 677.00,1365.00 677.00,1365.00              676.91,1372.75 675.83,1383.47 671.45,1389.96              664.86,1399.76 654.04,1401.98 643.00,1402.00              643.00,1402.00 529.00,1402.00 529.00,1402.00 Z            M 59.00,1308.16            C 47.64,1311.06 41.14,1319.43 41.00,1331.00              41.00,1331.00 41.00,1436.00 41.00,1436.00              41.03,1452.09 48.58,1460.97 65.00,1461.00              65.00,1461.00 122.00,1461.00 122.00,1461.00              137.85,1460.92 145.98,1451.42 146.00,1436.00              146.00,1436.00 146.00,1333.00 146.00,1333.00              145.97,1316.67 137.33,1308.03 121.00,1308.16              121.00,1308.16 59.00,1308.16 59.00,1308.16 Z            M 304.00,1308.16            C 291.99,1311.21 285.15,1319.67 285.00,1332.00              285.00,1332.00 285.00,1435.00 285.00,1435.00              285.03,1451.40 294.59,1460.97 311.00,1461.00              311.00,1461.00 366.00,1461.00 366.00,1461.00              384.03,1460.78 390.97,1447.21 391.00,1431.00              391.00,1431.00 391.00,1338.00 391.00,1338.00              390.97,1320.57 384.11,1308.09 365.00,1308.16              365.00,1308.16 304.00,1308.16 304.00,1308.16 Z            M 635.00,1366.00            C 635.00,1366.00 635.00,1342.00 635.00,1342.00              635.00,1328.62 636.19,1313.68 620.00,1308.80              617.25,1307.97 614.82,1308.01 612.00,1308.00              612.00,1308.00 552.00,1308.00 552.00,1308.00              544.28,1308.04 538.68,1309.50 533.79,1316.04              529.45,1321.83 529.01,1326.10 529.00,1333.00              529.00,1333.00 529.00,1366.00 529.00,1366.00              529.00,1366.00 635.00,1366.00 635.00,1366.00 Z" />
</svg>