<svg xmlns="http://www.w3.org/2000/svg" viewBox="1.34 -0.87 344.16 348.37">
  <path id="Selection" fill="#303030" stroke="none" stroke-width="1" d="M 142.00,0.44            C 160.90,-1.98 182.33,0.89 199.00,10.43              203.62,13.07 208.96,16.84 213.00,20.30              215.48,22.42 219.00,26.41 222.00,27.12              224.02,27.92 227.71,27.14 230.00,27.12              230.00,27.12 245.00,27.12 245.00,27.12              288.99,27.52 326.93,68.68 327.00,112.00              327.01,119.72 327.29,122.19 325.92,130.00              325.42,132.81 323.73,138.56 324.20,141.00              324.73,143.75 332.59,154.16 334.69,158.00              340.28,168.24 344.86,183.30 345.00,195.00              345.00,195.00 345.00,205.00 345.00,205.00              344.96,231.02 329.34,258.73 308.00,273.25              301.78,277.49 295.07,280.99 288.00,283.56              284.98,284.66 278.55,285.88 276.51,287.72              274.72,289.33 272.92,294.56 271.74,297.00              268.68,303.34 265.13,309.52 260.69,315.00              245.58,333.65 221.30,346.96 197.00,347.00              197.00,347.00 184.00,347.00 184.00,347.00              172.08,346.86 157.18,341.86 147.00,335.79              142.74,333.26 137.76,329.91 134.00,326.70              131.52,324.58 128.00,320.59 125.00,319.84              125.00,319.84 113.00,319.84 113.00,319.84              99.35,320.02 90.16,319.93 77.00,314.94              44.83,302.73 20.41,270.92 20.00,236.00              19.91,227.68 19.80,225.31 21.25,217.00              21.67,214.56 23.43,207.87 23.09,206.00              22.59,203.22 18.50,198.58 16.75,196.00              12.41,189.63 9.68,184.22 7.05,177.00              -3.48,148.01 2.11,112.59 22.30,89.00              30.52,79.39 40.50,71.61 52.00,66.31              56.06,64.43 69.30,60.74 71.19,58.57              72.62,56.93 74.67,51.35 75.78,49.00              78.34,43.59 80.59,39.83 84.16,35.00              98.94,14.96 117.99,4.86 142.00,0.44 Z            M 196.00,37.00            C 182.19,28.54 175.60,24.76 159.00,23.17              134.51,20.83 107.93,37.09 97.48,59.00              88.69,77.44 91.00,96.17 91.00,116.00              91.00,116.00 91.00,161.00 91.00,161.00              91.00,163.23 90.76,166.57 91.99,168.47              93.32,170.52 97.79,172.73 100.00,174.00              100.00,174.00 120.00,185.00 120.00,185.00              120.00,185.00 120.00,93.00 120.00,93.00              120.00,90.56 119.87,87.27 120.74,85.00              123.17,78.65 135.10,72.96 141.00,69.58              141.00,69.58 176.00,49.42 176.00,49.42              181.35,46.35 191.80,40.82 196.00,37.00 Z            M 303.00,125.00            C 303.00,112.25 303.91,105.46 299.46,93.00              291.17,69.78 271.16,54.34 247.00,51.00              243.62,50.53 240.44,49.90 237.00,50.09              216.20,51.27 203.37,60.85 186.00,70.72              186.00,70.72 150.00,91.42 150.00,91.42              138.03,98.37 136.02,97.64 136.00,108.00              136.00,108.00 136.00,132.00 136.00,132.00              142.76,130.03 151.62,123.92 158.00,120.28              158.00,120.28 200.00,96.15 200.00,96.15              205.69,92.88 220.12,83.27 226.00,83.20              231.52,83.13 243.72,91.28 249.00,94.28              249.00,94.28 303.00,125.00 303.00,125.00 Z            M 67.00,86.00            C 56.56,90.50 48.82,95.23 41.30,104.00              21.73,126.83 20.59,160.92 38.48,185.00              49.79,200.22 72.35,210.79 89.00,220.28              89.00,220.28 116.00,235.85 116.00,235.85              119.01,237.58 124.68,241.59 128.00,241.51              130.79,241.44 135.53,238.44 138.00,236.99              138.00,236.99 156.00,227.00 156.00,227.00              151.30,221.62 141.38,217.18 135.00,213.40              135.00,213.40 90.00,187.42 90.00,187.42              83.14,183.49 70.07,177.71 67.65,170.00              66.89,167.59 67.00,164.53 67.00,162.00              67.00,162.00 67.00,86.00 67.00,86.00 Z            M 280.00,261.00            C 290.03,256.68 297.42,252.26 304.83,244.00              325.81,220.60 327.04,186.01 308.10,161.00              297.66,147.21 273.48,135.45 258.00,126.58              258.00,126.58 231.00,111.00 231.00,111.00              228.13,109.35 222.14,105.41 219.00,105.49              216.19,105.57 212.44,108.16 210.00,109.58              210.00,109.58 191.00,120.00 191.00,120.00              195.06,124.61 207.15,130.79 213.00,134.15              213.00,134.15 257.00,159.42 257.00,159.42              262.92,162.86 275.83,169.21 278.69,175.00              280.18,178.03 279.99,181.70 280.00,185.00              280.00,185.00 280.00,261.00 280.00,261.00 Z            M 173.00,131.77            C 167.65,133.23 152.76,142.54 147.00,145.85              144.70,147.17 138.32,150.64 136.99,152.61              135.75,154.46 136.00,157.81 136.00,160.00              136.00,160.00 136.00,184.00 136.00,184.00              136.00,186.63 135.58,192.29 136.99,194.39              138.73,196.98 154.28,205.29 158.00,207.42              161.87,209.64 170.81,215.99 175.00,215.06              175.00,215.06 201.00,200.58 201.00,200.58              203.33,199.24 208.65,196.57 210.01,194.47              211.24,192.57 211.00,189.23 211.00,187.00              211.00,187.00 211.00,160.00 211.00,160.00              211.00,157.77 211.24,154.43 210.01,152.53              208.64,150.41 203.34,147.79 201.00,146.40              194.95,142.81 179.03,132.44 173.00,131.77 Z            M 228.00,162.00            C 226.09,166.83 227.00,184.74 227.00,191.00              227.00,191.00 227.00,254.00 227.00,254.00              227.00,256.44 227.13,259.73 226.26,262.00              223.76,268.53 212.94,273.44 207.00,276.85              207.00,276.85 152.00,309.00 152.00,309.00              157.20,315.14 164.49,318.25 172.00,320.66              198.33,329.10 225.16,320.39 242.53,299.00              257.71,280.32 256.00,264.19 256.00,242.00              256.00,242.00 256.00,186.00 256.00,186.00              256.00,183.77 256.24,180.43 255.01,178.53              253.68,176.48 249.21,174.27 247.00,173.00              247.00,173.00 228.00,162.00 228.00,162.00 Z            M 211.00,215.00            C 204.97,216.91 194.93,223.35 189.00,226.72              189.00,226.72 147.00,251.00 147.00,251.00              141.38,254.23 126.73,263.88 121.00,263.80              115.53,263.74 105.09,256.61 100.00,253.72              100.00,253.72 65.00,233.58 65.00,233.58              58.72,229.93 51.05,224.34 44.00,223.00              44.00,235.60 43.41,242.72 48.06,255.00              56.71,277.78 76.04,292.69 100.00,296.00              102.98,296.41 105.98,297.03 109.00,296.90              130.72,295.94 143.87,286.20 162.00,275.85              162.00,275.85 196.00,256.15 196.00,256.15              210.77,247.72 210.98,248.68 211.00,239.00              211.00,239.00 211.00,215.00 211.00,215.00 Z"/>
</svg>