<svg xmlns="http://www.w3.org/2000/svg" viewBox="63.5 81.5 2433 503">
  <path id="openssl" fill="#303030" stroke="none" stroke-width="1"
    d="M 230.00,82.21            C 230.00,82.21 271.00,82.21 271.00,82.21              278.10,82.09 293.77,84.35 301.00,85.80              338.24,93.25 369.65,107.80 395.91,136.00              416.63,158.25 429.95,187.57 436.65,217.00              452.36,286.02 441.22,374.98 388.00,425.96              360.16,452.63 325.79,466.88 288.00,472.13              281.40,473.05 274.67,473.99 268.00,474.00              268.00,474.00 236.00,474.00 236.00,474.00              227.45,473.90 215.52,471.96 207.00,470.42              161.53,462.21 123.33,439.50 97.03,401.00              77.84,372.91 67.37,335.70 64.91,302.00              64.91,302.00 64.00,290.00 64.00,290.00              64.00,290.00 64.00,261.00 64.00,261.00              64.00,261.00 64.91,251.00 64.91,251.00              67.28,218.61 75.97,185.52 93.70,158.00              113.79,126.81 144.64,103.28 180.00,92.03              197.57,86.44 212.10,84.97 230.00,82.21 Z            M 1529.00,357.00            C 1530.24,362.46 1532.71,369.05 1535.32,374.00              1550.71,403.25 1578.46,410.95 1609.00,413.09              1609.00,413.09 1621.00,414.00 1621.00,414.00              1630.07,414.01 1646.13,412.73 1655.00,411.00              1680.67,405.98 1705.00,393.97 1705.00,364.00              1705.00,359.45 1704.58,355.37 1703.23,351.00              1699.81,339.92 1690.69,331.76 1681.00,326.01              1663.46,315.62 1639.88,310.97 1620.00,306.58              1581.18,298.00 1522.63,287.56 1494.04,258.96              1484.00,248.92 1477.20,236.47 1473.02,223.00              1470.13,213.66 1468.24,199.79 1468.01,190.00              1467.85,182.85 1469.63,168.02 1471.37,161.00              1483.62,111.79 1527.78,91.40 1574.00,84.73              1582.88,83.45 1593.08,82.01 1602.00,82.00              1602.00,82.00 1641.00,82.00 1641.00,82.00              1641.00,82.00 1653.00,82.91 1653.00,82.91              1685.95,85.32 1725.07,94.00 1747.71,120.00              1753.27,126.38 1757.96,133.45 1761.75,141.00              1767.86,153.15 1771.49,164.67 1774.00,178.00              1774.00,178.00 1721.00,185.15 1721.00,185.15              1721.00,185.15 1695.00,188.00 1695.00,188.00              1693.78,182.65 1691.82,176.79 1689.13,172.00              1675.66,148.10 1650.21,139.31 1624.00,139.00              1611.82,138.86 1599.96,139.56 1588.00,142.00              1577.15,144.22 1566.23,148.44 1558.17,156.29              1547.56,166.63 1544.14,184.26 1549.47,198.00              1553.75,209.05 1562.74,216.04 1573.00,221.24              1589.39,229.56 1609.11,233.55 1627.00,237.65              1667.62,246.97 1726.57,256.22 1756.99,286.04              1767.14,295.99 1775.24,310.39 1779.28,324.00              1781.53,331.57 1783.90,347.14 1784.00,355.00              1784.16,368.82 1782.53,382.73 1778.56,396.00              1764.02,444.62 1714.95,464.70 1669.00,471.27              1669.00,471.27 1640.00,474.00 1640.00,474.00              1640.00,474.00 1600.00,474.00 1600.00,474.00              1582.97,473.97 1561.56,470.03 1545.00,465.87              1507.24,456.39 1474.79,433.51 1459.15,397.00              1455.76,389.09 1451.40,377.53 1451.00,369.00              1451.00,369.00 1508.00,359.73 1508.00,359.73              1508.00,359.73 1529.00,357.00 1529.00,357.00 Z            M 1899.00,357.00            C 1900.24,362.46 1902.71,369.05 1905.32,374.00              1920.71,403.25 1948.46,410.95 1979.00,413.09              1979.00,413.09 1991.00,414.00 1991.00,414.00              2000.07,414.01 2016.13,412.73 2025.00,411.00              2050.67,405.98 2075.00,393.97 2075.00,364.00              2075.00,359.45 2074.58,355.37 2073.23,351.00              2069.81,339.92 2060.69,331.76 2051.00,326.01              2033.46,315.62 2009.88,310.97 1990.00,306.58              1951.18,298.00 1892.63,287.56 1864.04,258.96              1854.00,248.92 1847.20,236.47 1843.02,223.00              1840.13,213.66 1838.24,199.79 1838.01,190.00              1837.85,182.85 1839.63,168.02 1841.37,161.00              1853.62,111.79 1897.78,91.40 1944.00,84.73              1952.88,83.45 1963.08,82.01 1972.00,82.00              1972.00,82.00 2011.00,82.00 2011.00,82.00              2011.00,82.00 2023.00,82.91 2023.00,82.91              2055.95,85.32 2095.07,94.00 2117.71,120.00              2123.27,126.38 2127.96,133.45 2131.75,141.00              2137.86,153.15 2141.49,164.67 2144.00,178.00              2144.00,178.00 2091.00,185.15 2091.00,185.15              2091.00,185.15 2065.00,188.00 2065.00,188.00              2063.78,182.65 2061.82,176.79 2059.13,172.00              2045.66,148.10 2020.21,139.31 1994.00,139.00              1981.82,138.86 1969.96,139.56 1958.00,142.00              1947.15,144.22 1936.23,148.44 1928.17,156.29              1917.56,166.63 1914.14,184.26 1919.47,198.00              1923.75,209.05 1932.74,216.04 1943.00,221.24              1959.39,229.56 1979.11,233.55 1997.00,237.65              2037.62,246.97 2096.57,256.22 2126.99,286.04              2137.14,295.99 2145.24,310.39 2149.28,324.00              2151.53,331.57 2153.90,347.14 2154.00,355.00              2154.16,368.81 2152.53,382.73 2148.56,396.00              2134.02,444.62 2084.95,464.70 2039.00,471.27              2039.00,471.27 2010.00,474.00 2010.00,474.00              2010.00,474.00 1970.00,474.00 1970.00,474.00              1952.97,473.97 1931.56,470.03 1915.00,465.87              1877.24,456.39 1844.79,433.51 1829.15,397.00              1825.76,389.09 1821.40,377.53 1821.00,369.00              1821.00,369.00 1878.00,359.73 1878.00,359.73              1878.00,359.73 1899.00,357.00 1899.00,357.00 Z            M 2212.00,88.00            C 2212.00,88.00 2292.00,88.00 2292.00,88.00              2292.00,88.00 2292.00,407.00 2292.00,407.00              2292.00,407.00 2496.00,407.00 2496.00,407.00              2496.00,407.00 2496.00,469.00 2496.00,469.00              2496.00,469.00 2212.00,469.00 2212.00,469.00              2212.00,469.00 2212.00,88.00 2212.00,88.00 Z            M 237.00,125.14            C 237.00,125.14 218.00,128.00 218.00,128.00              192.13,133.25 169.86,145.20 152.17,165.00              124.24,196.28 116.53,241.42 117.00,282.00              117.00,282.00 118.04,292.00 118.04,292.00              118.04,292.00 118.04,300.00 118.04,300.00              121.91,339.25 136.14,377.56 167.00,403.56              191.86,424.50 220.59,430.13 252.00,431.91              252.00,431.91 263.00,431.04 263.00,431.04              294.88,429.65 327.38,419.91 349.91,396.00              372.18,372.36 383.35,341.80 387.15,310.00              387.15,310.00 389.00,289.00 389.00,289.00              389.00,289.00 389.00,263.00 389.00,263.00              389.00,263.00 387.13,244.00 387.13,244.00              382.31,209.31 369.17,176.59 342.00,153.30              321.95,136.11 290.41,125.13 264.00,125.14              264.00,125.14 237.00,125.14 237.00,125.14 Z            M 556.00,222.00            C 557.49,216.89 560.41,212.41 563.35,208.00              575.33,190.04 591.16,179.22 612.00,174.13              627.90,170.25 639.92,170.93 656.00,171.00              686.36,171.14 715.99,186.96 731.80,213.00              742.51,230.66 747.03,247.87 750.41,268.00              754.42,291.87 754.11,313.95 754.00,338.00              754.00,338.00 753.09,349.00 753.09,349.00              750.94,380.20 744.61,413.35 725.52,439.00              709.39,460.68 682.02,473.96 655.00,474.00              655.00,474.00 634.00,474.00 634.00,474.00              616.80,473.80 595.03,466.68 581.00,456.79              568.52,448.00 562.37,437.80 555.00,425.00              555.00,425.00 555.00,584.00 555.00,584.00              555.00,584.00 506.00,584.00 506.00,584.00              506.00,584.00 506.00,321.00 506.00,321.00              506.00,321.00 506.00,237.00 506.00,237.00              506.00,237.00 506.00,211.00 506.00,211.00              506.00,211.00 505.00,194.00 505.00,194.00              505.00,194.00 504.00,176.00 504.00,176.00              504.00,176.00 544.00,176.00 544.00,176.00              544.00,176.00 551.98,177.60 551.98,177.60              551.98,177.60 553.28,188.00 553.28,188.00              553.28,188.00 556.00,222.00 556.00,222.00 Z            M 1053.00,404.00            C 1050.95,411.61 1046.35,420.43 1042.00,427.00              1024.96,452.71 1000.63,465.48 971.00,471.20              965.32,472.29 954.60,473.93 949.00,474.00              928.65,474.23 916.24,474.86 896.00,470.80              881.40,467.88 868.59,462.96 856.00,454.95              816.58,429.86 803.93,385.99 800.91,342.00              800.91,342.00 800.00,332.00 800.00,332.00              799.53,291.23 803.63,245.92 830.46,213.00              851.87,186.73 886.10,171.05 920.00,171.00              920.00,171.00 945.00,171.00 945.00,171.00              976.31,171.37 1009.60,185.68 1029.54,210.00              1057.08,243.60 1061.00,291.34 1061.00,333.00              1061.00,333.00 852.00,333.00 852.00,333.00              852.00,348.14 854.15,364.39 858.15,379.00              863.22,397.50 874.69,415.45 891.00,425.91              913.92,440.61 954.53,440.35 978.00,427.13              986.57,422.29 995.27,415.05 1000.96,407.00              1003.02,404.08 1007.99,393.58 1010.39,392.61              1012.86,391.61 1020.28,394.19 1023.00,395.02              1023.00,395.02 1053.00,404.00 1053.00,404.00 Z            M 1171.00,226.00            C 1173.02,219.09 1178.08,212.72 1182.37,207.00              1199.77,183.85 1226.06,171.05 1255.00,171.00              1255.00,171.00 1275.00,171.00 1275.00,171.00              1300.18,171.04 1329.15,181.54 1342.55,204.00              1351.68,219.31 1356.97,242.21 1357.00,260.00              1357.00,260.00 1358.00,278.00 1358.00,278.00              1358.00,278.00 1358.00,469.00 1358.00,469.00              1358.00,469.00 1308.00,469.00 1308.00,469.00              1308.00,469.00 1308.00,319.00 1308.00,319.00              1308.00,319.00 1308.00,286.00 1308.00,286.00              1308.00,286.00 1307.00,274.00 1307.00,274.00              1307.00,274.00 1307.00,265.00 1307.00,265.00              1306.32,256.41 1303.88,243.91 1300.54,236.00              1290.78,212.90 1268.43,208.74 1246.00,209.00              1199.92,209.54 1173.07,248.88 1173.00,292.00              1173.00,292.00 1173.00,469.00 1173.00,469.00              1173.00,469.00 1123.00,469.00 1123.00,469.00              1123.00,469.00 1123.00,279.00 1123.00,279.00              1123.00,279.00 1123.00,219.00 1123.00,219.00              1123.00,219.00 1121.00,176.00 1121.00,176.00              1121.00,176.00 1155.00,176.00 1155.00,176.00              1155.00,176.00 1167.26,176.99 1167.26,176.99              1167.26,176.99 1169.00,185.00 1169.00,185.00              1169.00,185.00 1170.00,206.00 1170.00,206.00              1170.00,206.00 1171.00,226.00 1171.00,226.00 Z            M 1010.00,295.00            C 1010.00,295.00 1005.58,269.00 1005.58,269.00              1001.59,250.94 993.25,232.18 978.00,220.92              959.37,207.18 926.75,204.12 905.00,211.03              895.04,214.19 884.37,220.55 877.09,228.04              860.26,245.34 853.00,271.36 853.00,295.00              853.00,295.00 1010.00,295.00 1010.00,295.00 Z            M 625.00,209.14            C 605.59,212.09 592.97,214.32 579.18,230.00              563.53,247.80 556.04,284.64 555.86,308.00              555.86,308.00 555.86,326.00 555.86,326.00              555.86,326.00 555.86,336.00 555.86,336.00              556.05,369.12 562.77,412.42 595.00,429.51              601.44,432.93 610.78,435.43 618.00,436.64              623.85,437.48 639.06,437.49 645.00,436.64              680.53,432.09 693.08,404.74 698.41,373.00              703.87,340.55 703.70,294.08 696.35,262.00              691.14,239.27 680.34,220.21 657.00,212.52              648.17,209.61 639.22,208.90 630.00,209.14              630.00,209.14 625.00,209.14 625.00,209.14 Z" />
</svg>