<svg xmlns="http://www.w3.org/2000/svg" viewBox="14.75 11.5 52.75 92.78">
  <path id="open-bug-bounty" fill="#303030" stroke="none" stroke-width="1"
    d="M 66.00,12.00            C 66.00,12.00 67.00,30.00 67.00,30.00              67.00,30.00 43.00,30.00 43.00,30.00              46.89,17.81 55.18,15.34 66.00,12.00 Z            M 36.00,59.00            C 35.68,56.54 35.03,50.04 33.98,48.17              31.81,44.28 24.33,40.86 21.79,32.00              20.73,28.33 20.87,20.71 26.90,22.66              31.86,24.25 30.82,32.33 38.00,35.98              40.20,37.09 42.61,36.98 45.00,37.00              45.00,37.00 67.00,37.00 67.00,37.00              67.00,37.00 67.00,90.00 67.00,90.00              63.06,88.85 54.39,84.89 51.00,86.70              46.14,89.30 41.57,96.75 37.99,100.85              36.02,103.10 33.24,104.88 30.15,102.97              27.10,100.88 28.47,96.68 30.15,94.00              33.30,88.19 41.97,80.70 42.90,78.00              44.01,74.76 40.79,70.75 37.91,69.60              34.28,68.15 22.19,69.96 18.23,68.13              14.80,66.56 12.21,59.20 23.00,59.00              23.00,59.00 36.00,59.00 36.00,59.00 Z" />
</svg>