<svg xmlns="http://www.w3.org/2000/svg" viewBox="97.5 -0.5 2398.64 1191.05">
  <path id="opensuse" fill="#303030" stroke="none" stroke-width="1"
    d="M 964.00,912.00            C 964.00,912.00 956.37,879.00 956.37,879.00              938.85,808.93 907.79,755.10 860.15,701.00              814.23,648.84 751.16,601.28 687.00,574.00              651.18,558.77 620.64,550.97 582.00,546.84              582.00,546.84 562.00,545.00 562.00,545.00              562.00,545.00 541.00,544.00 541.00,544.00              541.00,544.00 500.00,546.17 500.00,546.17              443.02,551.69 387.24,573.37 344.00,611.29              307.61,643.19 275.76,690.22 262.43,737.00              234.52,834.91 277.83,947.32 359.00,1006.85              390.80,1030.16 429.05,1045.72 468.00,1051.73              489.81,1055.09 510.03,1055.25 532.00,1055.00              532.00,1055.00 551.00,1053.15 551.00,1053.15              609.59,1046.15 659.05,1016.03 680.58,959.00              687.75,940.00 691.09,921.28 691.00,901.00              690.82,862.44 668.71,816.40 640.96,790.17              619.89,770.25 594.58,757.65 566.00,752.92              560.89,752.07 555.15,751.06 550.00,751.00              525.34,750.72 503.99,752.41 483.00,767.21              454.16,787.53 446.66,827.08 473.28,852.56              480.50,859.47 492.83,866.40 503.00,866.90              505.83,867.03 508.23,866.51 511.00,866.13              511.00,866.13 529.00,862.85 529.00,862.85              537.89,860.48 541.93,858.14 552.00,857.17              562.93,856.11 575.74,859.72 585.00,865.47              613.82,883.34 617.57,926.83 592.96,949.83              582.66,959.46 569.27,964.74 556.00,968.72              539.29,973.73 521.52,977.79 504.00,978.00              445.15,978.68 386.03,941.44 359.81,889.00              338.22,845.83 337.39,791.06 356.86,747.00              391.54,668.55 470.98,633.04 553.00,634.00              553.00,634.00 563.00,634.91 563.00,634.91              585.66,636.47 607.40,640.47 629.00,647.67              663.67,659.22 697.87,678.65 725.00,703.17              816.86,786.21 842.52,923.89 785.74,1034.00              775.31,1054.24 761.05,1076.09 745.83,1093.00              707.01,1136.13 656.09,1165.08 600.00,1179.11              564.33,1188.02 528.60,1190.42 492.00,1190.00              492.00,1190.00 481.00,1189.04 481.00,1189.04              385.54,1184.88 293.08,1146.05 223.00,1081.09              223.00,1081.09 212.01,1071.00 212.01,1071.00              170.35,1028.50 138.62,976.00 118.69,920.00              107.69,889.09 101.20,856.68 98.91,824.00              98.91,824.00 98.00,812.00 98.00,812.00              98.00,812.00 98.00,766.00 98.00,766.00              98.00,766.00 98.91,756.00 98.91,756.00              98.91,756.00 104.59,708.00 104.59,708.00              114.52,648.79 132.18,601.72 160.69,549.00              228.10,424.36 322.43,328.17 438.00,247.28              483.18,215.66 530.53,186.97 579.00,160.69              692.62,99.10 807.38,53.70 934.00,26.79              976.67,17.72 1019.62,11.17 1063.00,6.83              1063.00,6.83 1112.00,2.91 1112.00,2.91              1112.00,2.91 1124.00,2.00 1124.00,2.00              1124.00,2.00 1141.00,1.00 1141.00,1.00              1141.00,1.00 1154.00,1.00 1154.00,1.00              1154.00,1.00 1170.00,0.00 1170.00,0.00              1170.00,0.00 1252.00,0.00 1252.00,0.00              1252.00,0.00 1267.00,1.00 1267.00,1.00              1267.00,1.00 1284.00,1.00 1284.00,1.00              1284.00,1.00 1296.00,1.96 1296.00,1.96              1296.00,1.96 1311.00,1.96 1311.00,1.96              1311.00,1.96 1323.00,2.96 1323.00,2.96              1323.00,2.96 1337.00,2.96 1337.00,2.96              1337.00,2.96 1349.00,3.96 1349.00,3.96              1349.00,3.96 1363.00,3.96 1363.00,3.96              1363.00,3.96 1377.00,5.00 1377.00,5.00              1377.00,5.00 1410.00,6.91 1410.00,6.91              1410.00,6.91 1503.00,16.72 1503.00,16.72              1584.04,27.39 1671.89,46.09 1751.00,66.88              1751.00,66.88 1832.00,89.72 1832.00,89.72              1832.00,89.72 1872.00,102.00 1872.00,102.00              1872.00,102.00 1873.00,84.00 1873.00,84.00              1873.00,84.00 1873.00,49.00 1873.00,49.00              1873.00,49.00 1874.00,31.00 1874.00,31.00              1874.05,28.65 1873.85,25.80 1876.31,24.60              1879.10,23.24 1888.62,25.08 1892.00,25.58              1892.00,25.58 1929.00,31.59 1929.00,31.59              1929.00,31.59 2020.00,48.60 2020.00,48.60              2020.00,48.60 2077.00,60.63 2077.00,60.63              2077.00,60.63 2109.00,67.88 2109.00,67.88              2167.28,81.71 2240.78,101.72 2296.00,123.80              2318.76,132.90 2354.73,148.03 2374.00,162.15              2383.09,168.82 2391.24,176.76 2398.91,185.00              2417.08,204.50 2431.81,236.28 2442.01,261.00              2456.42,295.92 2469.82,331.72 2480.42,368.00              2480.42,368.00 2493.00,413.00 2493.00,413.00              2493.86,417.03 2496.67,426.28 2495.25,429.90              2493.89,433.35 2486.23,437.47 2483.00,439.72              2483.00,439.72 2451.00,461.05 2451.00,461.05              2417.85,481.80 2377.72,499.07 2339.00,505.57              2317.28,509.21 2306.55,509.03 2285.00,509.00              2253.28,508.95 2207.16,496.77 2177.00,486.34              2117.51,465.77 2063.33,438.11 2009.00,406.58              2009.00,406.58 1955.00,373.58 1955.00,373.58              1955.00,373.58 1935.00,361.00 1935.00,361.00              1935.00,361.00 1962.58,425.00 1962.58,425.00              1964.92,430.58 1971.98,449.32 1975.27,452.79              1978.93,456.64 1995.45,464.16 2001.00,466.78              2001.00,466.78 2052.00,490.86 2052.00,490.86              2096.71,510.77 2142.06,529.64 2189.00,543.72              2215.15,551.57 2241.70,558.18 2269.00,560.09              2269.00,560.09 2279.00,561.00 2279.00,561.00              2279.00,561.00 2292.00,560.09 2292.00,560.09              2339.95,556.79 2385.00,543.27 2429.00,524.28              2429.00,524.28 2468.00,505.00 2468.00,505.00              2471.48,503.06 2480.85,498.91 2484.69,501.11              2488.58,503.35 2486.54,512.43 2485.79,516.00              2482.83,529.98 2478.30,543.75 2473.00,557.00              2470.69,562.77 2468.31,569.05 2464.47,574.00              2455.72,585.31 2433.06,597.72 2420.00,604.25              2394.13,617.18 2357.13,634.20 2330.00,643.33              2272.47,662.69 2212.26,673.14 2152.00,679.17              2152.00,679.17 2093.00,683.00 2093.00,683.00              2093.00,683.00 2076.00,684.00 2076.00,684.00              2076.00,684.00 2048.00,684.00 2048.00,684.00              2048.00,684.00 2026.00,683.00 2026.00,683.00              2026.00,683.00 2003.00,681.17 2003.00,681.17              2003.00,681.17 1966.00,677.83 1966.00,677.83              1966.00,677.83 1903.00,670.83 1903.00,670.83              1903.00,670.83 1880.00,668.91 1880.00,668.91              1880.00,668.91 1870.00,667.96 1870.00,667.96              1870.00,667.96 1858.00,667.96 1858.00,667.96              1854.13,667.65 1852.29,666.85 1848.00,667.09              1848.00,667.09 1838.00,668.00 1838.00,668.00              1826.99,668.13 1815.64,669.43 1805.00,672.43              1797.08,674.66 1787.91,678.25 1781.00,682.70              1747.58,704.19 1739.94,746.08 1740.00,783.00              1740.04,807.30 1747.63,839.90 1755.33,863.00              1766.89,897.66 1784.93,936.07 1804.32,967.00              1804.32,967.00 1829.88,1006.00 1829.88,1006.00              1831.66,1008.42 1839.13,1017.07 1833.69,1019.36              1830.88,1020.54 1824.64,1017.47 1822.00,1016.22              1822.00,1016.22 1795.00,1003.74 1795.00,1003.74              1795.00,1003.74 1686.00,953.31 1686.00,953.31              1676.84,949.10 1650.75,937.76 1644.00,932.84              1633.12,924.91 1607.07,895.46 1596.84,884.00              1566.93,850.52 1538.45,815.08 1506.00,784.04              1463.06,742.97 1409.50,712.15 1351.00,700.45              1338.61,697.97 1323.59,696.02 1311.00,696.00              1311.00,696.00 1300.00,695.34 1300.00,695.34              1300.00,695.34 1283.00,696.00 1283.00,696.00              1283.00,696.00 1264.00,697.85 1264.00,697.85              1250.47,699.46 1231.87,702.62 1219.00,706.75              1186.68,717.11 1150.73,743.09 1134.31,773.00              1113.80,810.36 1109.51,859.06 1110.00,901.00              1110.00,901.00 1111.00,917.00 1111.00,917.00              1111.00,917.00 1115.13,963.00 1115.13,963.00              1115.13,963.00 1117.71,978.00 1117.71,978.00              1117.92,979.81 1118.19,982.58 1116.43,983.77              1113.78,985.56 1108.48,982.01 1106.00,980.76              1106.00,980.76 1078.00,967.25 1078.00,967.25              1078.00,967.25 1001.00,929.74 1001.00,929.74              1001.00,929.74 964.00,912.00 964.00,912.00 Z            M 2229.00,165.28            C 2215.73,167.20 2204.66,169.26 2192.00,174.06              2156.26,187.62 2126.88,216.65 2112.45,252.00              2081.44,327.98 2121.94,416.42 2201.00,440.72              2211.22,443.86 2224.31,446.87 2235.00,447.00              2262.08,447.31 2281.30,445.02 2306.00,432.75              2323.15,424.23 2338.13,412.46 2350.71,398.00              2361.03,386.13 2370.02,370.72 2375.58,356.00              2401.70,286.81 2369.53,208.23 2302.00,177.31              2279.55,167.03 2253.55,163.00 2229.00,165.28 Z            M 2241.00,205.46            C 2251.66,204.92 2265.84,207.32 2276.00,210.67              2286.38,214.09 2297.41,220.29 2306.00,227.01              2360.29,269.56 2354.35,356.47 2293.00,391.57              2275.06,401.84 2258.24,404.23 2238.00,404.00              2229.91,403.90 2221.73,401.98 2214.00,399.71              2171.12,387.08 2146.54,349.28 2144.09,306.00              2143.87,302.15 2144.49,300.53 2144.83,297.00              2145.90,285.92 2147.42,276.40 2151.87,266.00              2162.52,241.15 2182.40,221.01 2208.00,211.69              2222.27,206.50 2227.04,207.22 2241.00,205.46 Z            M 2257.00,256.29            C 2250.21,257.32 2244.31,258.37 2238.00,261.32              2219.88,269.80 2212.40,289.73 2230.00,303.47              2242.07,312.90 2258.35,314.58 2273.00,312.83              2288.38,311.00 2309.57,299.27 2305.97,281.00              2305.23,277.21 2303.89,274.08 2301.47,271.04              2291.92,259.07 2271.58,254.92 2257.00,256.29 Z" />
</svg>