<svg xmlns="http://www.w3.org/2000/svg" viewBox="-0.34 -0.79 1279.84 167.56">
  <path id="oracle" fill="#303030" stroke="none" stroke-width="1"
    d="M 472.00,166.00            C 472.00,166.00 498.95,123.00 498.95,123.00              498.95,123.00 552.00,40.00 552.00,40.00              552.00,40.00 567.34,16.00 567.34,16.00              572.35,8.34 576.19,2.05 586.00,0.33              603.27,-2.71 609.59,5.77 617.81,19.00              617.81,19.00 627.34,34.00 627.34,34.00              627.34,34.00 683.05,121.00 683.05,121.00              683.05,121.00 711.00,166.00 711.00,166.00              711.00,166.00 680.00,166.00 680.00,166.00              680.00,166.00 673.21,164.98 673.21,164.98              673.21,164.98 654.67,138.02 654.67,138.02              654.67,138.02 647.00,137.00 647.00,137.00              647.00,137.00 578.00,137.00 578.00,137.00              578.00,137.00 570.18,135.98 570.18,135.98              570.18,135.98 563.19,127.00 563.19,127.00              563.19,127.00 552.00,108.00 552.00,108.00              552.00,108.00 635.00,108.00 635.00,108.00              635.00,108.00 591.00,37.00 591.00,37.00              591.00,37.00 568.69,74.00 568.69,74.00              568.69,74.00 528.34,138.00 528.34,138.00              528.34,138.00 516.34,157.00 516.34,157.00              516.34,157.00 510.47,165.01 510.47,165.01              510.47,165.01 503.00,166.00 503.00,166.00              503.00,166.00 472.00,166.00 472.00,166.00 Z            M 72.00,1.11            C 72.00,1.11 127.00,1.11 127.00,1.11              127.00,1.11 160.00,1.11 160.00,1.11              160.00,1.11 176.00,1.11 176.00,1.11              197.91,1.03 220.70,10.05 235.91,26.01              275.93,68.00 261.50,140.70 206.00,161.05              197.55,164.15 190.04,165.99 181.00,166.00              181.00,166.00 102.00,166.00 102.00,166.00              102.00,166.00 75.00,166.00 75.00,166.00              59.33,165.98 41.26,158.98 29.00,149.33              16.55,139.54 3.34,121.92 0.16,106.00              0.16,106.00 0.16,83.00 0.16,83.00              0.16,83.00 0.16,67.00 0.16,67.00              0.17,53.10 10.89,35.89 20.17,26.04              34.34,10.98 52.11,4.43 72.00,1.11 Z            M 276.00,1.00            C 276.00,1.00 414.00,1.00 414.00,1.00              423.53,1.01 433.52,2.81 442.00,7.32              474.95,24.86 481.23,68.67 456.56,95.91              447.26,106.19 431.83,112.83 418.00,113.00              418.00,113.00 403.00,113.00 403.00,113.00              403.00,113.00 443.00,146.59 443.00,146.59              443.00,146.59 465.00,166.00 465.00,166.00              465.00,166.00 425.00,166.00 425.00,166.00              422.89,166.00 419.96,166.12 418.00,165.40              414.20,164.02 400.91,151.68 397.00,148.28              397.00,148.28 346.00,104.00 346.00,104.00              340.42,99.19 326.92,88.89 324.00,83.00              324.00,83.00 411.00,83.00 411.00,83.00              417.44,82.99 421.37,82.66 427.00,79.03              444.23,67.93 443.36,45.34 426.00,34.93              420.02,31.35 415.73,31.01 409.00,31.00              409.00,31.00 309.00,31.00 309.00,31.00              309.00,31.00 309.00,166.00 309.00,166.00              309.00,166.00 276.00,166.00 276.00,166.00              276.00,166.00 276.00,1.00 276.00,1.00 Z            M 894.00,137.00            C 894.00,137.00 883.42,154.00 883.42,154.00              878.71,161.53 878.27,165.94 869.00,166.00              869.00,166.00 826.00,166.00 826.00,166.00              826.00,166.00 789.00,166.00 789.00,166.00              789.00,166.00 770.00,166.00 770.00,166.00              748.86,165.97 726.44,154.95 712.75,138.99              687.47,109.49 684.90,68.04 707.02,36.00              714.91,24.59 726.28,14.59 739.00,8.86              750.04,3.89 762.89,1.02 775.00,1.00              775.00,1.00 891.00,1.00 891.00,1.00              889.30,6.33 882.05,16.80 878.66,22.00              877.31,24.06 874.43,28.77 872.48,30.01              870.53,31.25 867.26,31.00 865.00,31.00              865.00,31.00 780.00,31.00 780.00,31.00              748.60,31.05 724.63,54.44 725.00,86.00              725.11,95.06 728.31,104.51 733.36,112.00              737.21,117.71 743.29,123.79 749.00,127.64              765.30,138.65 783.34,137.00 802.00,137.00              802.00,137.00 894.00,137.00 894.00,137.00 Z            M 907.00,1.00            C 907.00,1.00 940.00,1.00 940.00,1.00              940.00,1.00 940.00,137.00 940.00,137.00              940.00,137.00 1087.00,137.00 1087.00,137.00              1084.54,143.43 1078.88,151.12 1075.00,157.00              1073.47,159.32 1071.11,163.63 1068.79,164.98              1066.69,166.21 1063.39,166.00 1061.00,166.00              1061.00,166.00 957.00,166.00 957.00,166.00              957.00,166.00 925.00,166.00 925.00,166.00              918.07,165.96 912.78,164.62 909.14,158.00              906.98,154.08 907.01,149.34 907.00,145.00              907.00,145.00 907.00,1.00 907.00,1.00 Z            M 1279.00,137.00            C 1279.00,137.00 1267.05,156.00 1267.05,156.00              1263.15,162.14 1262.77,165.87 1255.00,166.00              1255.00,166.00 1212.00,166.00 1212.00,166.00              1196.51,166.00 1159.03,167.21 1146.00,164.55              1127.76,160.82 1111.21,150.33 1099.46,136.00              1088.74,122.91 1083.61,108.62 1081.84,92.00              1077.80,54.29 1099.40,19.45 1135.00,6.06              1143.75,2.77 1153.66,1.01 1163.00,1.00              1163.00,1.00 1276.00,1.00 1276.00,1.00              1273.50,7.76 1268.08,14.73 1264.19,21.00              1262.76,23.31 1259.64,28.64 1257.48,30.01              1255.53,31.25 1252.26,31.00 1250.00,31.00              1250.00,31.00 1219.00,31.00 1219.00,31.00              1219.00,31.00 1183.00,31.00 1183.00,31.00              1183.00,31.00 1167.00,31.00 1167.00,31.00              1148.03,31.03 1131.28,39.04 1120.52,55.00              1117.41,59.61 1115.45,63.64 1114.00,69.00              1114.00,69.00 1267.00,69.00 1267.00,69.00              1267.00,69.00 1254.66,90.00 1254.66,90.00              1254.66,90.00 1248.48,98.01 1248.48,98.01              1248.48,98.01 1241.00,99.00 1241.00,99.00              1241.00,99.00 1114.00,99.00 1114.00,99.00              1115.96,104.60 1117.96,109.15 1121.49,114.00              1140.19,139.72 1165.04,137.00 1193.00,137.00              1193.00,137.00 1279.00,137.00 1279.00,137.00 Z            M 81.00,31.14            C 67.58,33.34 56.56,37.75 47.17,48.01              25.72,71.49 29.78,109.08 56.00,127.23              71.29,137.81 87.40,137.00 105.00,137.00              105.00,137.00 172.00,137.00 172.00,137.00              186.49,136.98 200.89,133.60 212.00,123.82              218.16,118.39 223.44,111.64 226.55,104.00              234.76,83.83 229.17,57.54 211.99,43.67              192.50,27.94 173.22,31.00 150.00,31.14              150.00,31.14 81.00,31.14 81.00,31.14 Z" />
</svg>