<svg xmlns="http://www.w3.org/2000/svg" viewBox="-0.5 -0.36 1025 1024.86">
  <path id="orcid" fill="#303030" stroke="none" stroke-width="1"
    d="M 481.00,0.14            C 481.00,0.14 517.00,0.14 517.00,0.14              517.00,0.14 535.00,0.14 535.00,0.14              535.00,0.14 547.00,0.91 547.00,0.91              575.12,2.84 602.52,6.60 630.00,13.12              816.49,57.33 965.45,202.87 1009.88,390.00              1016.76,418.94 1021.06,447.36 1023.09,477.00              1023.09,477.00 1024.00,487.00 1024.00,487.00              1024.00,487.00 1024.00,535.00 1024.00,535.00              1024.00,535.00 1023.09,547.00 1023.09,547.00              1020.49,585.02 1014.30,622.42 1003.28,659.00              955.28,818.38 833.91,944.71 676.00,998.00              634.20,1012.10 590.91,1020.08 547.00,1023.09              547.00,1023.09 535.00,1024.00 535.00,1024.00              535.00,1024.00 487.00,1024.00 487.00,1024.00              487.00,1024.00 477.00,1023.09 477.00,1023.09              434.53,1020.18 395.68,1012.67 355.00,1000.02              310.49,986.19 266.76,964.84 228.00,939.00              165.94,897.63 111.88,842.05 73.45,778.00              37.84,718.65 13.33,651.74 4.28,583.00              4.28,583.00 0.91,547.00 0.91,547.00              0.91,547.00 0.00,535.00 0.00,535.00              0.00,535.00 0.00,487.00 0.00,487.00              0.00,487.00 1.83,464.00 1.83,464.00              7.02,412.09 18.18,363.25 38.42,315.00              95.94,177.93 206.69,74.87 347.00,26.34              374.05,16.99 405.67,9.44 434.00,5.27              434.00,5.27 469.00,1.17 469.00,1.17              469.00,1.17 481.00,0.14 481.00,0.14 Z            M 313.00,186.37            C 299.54,187.88 288.49,192.32 280.60,204.00              261.89,231.71 283.26,270.26 317.00,267.91              358.35,265.04 368.56,211.18 335.00,191.88              328.28,188.01 320.69,186.44 313.00,186.37 Z            M 346.00,316.00            C 346.00,316.00 283.00,316.00 283.00,316.00              283.00,316.00 283.00,745.00 283.00,745.00              283.00,745.00 346.00,745.00 346.00,745.00              346.00,745.00 346.00,316.00 346.00,316.00 Z            M 435.00,316.00            C 435.00,316.00 435.00,646.00 435.00,646.00              435.00,646.00 435.00,722.00 435.00,722.00              435.00,722.00 435.00,739.00 435.00,739.00              435.04,740.95 434.90,743.63 436.60,744.98              438.19,746.23 442.01,746.00 444.00,746.00              444.00,746.00 558.00,746.00 558.00,746.00              558.00,746.00 602.00,746.00 602.00,746.00              602.00,746.00 620.00,745.00 620.00,745.00              620.00,745.00 631.00,744.08 631.00,744.08              666.75,741.22 704.99,727.85 735.00,708.31              766.06,688.08 791.62,659.14 808.19,626.00              846.85,548.69 833.85,449.24 775.83,385.00              760.84,368.40 741.66,353.94 722.00,343.31              691.99,327.07 657.81,319.23 624.00,316.91              624.00,316.91 612.00,316.00 612.00,316.00              612.00,316.00 566.00,316.00 566.00,316.00              566.00,316.00 435.00,316.00 435.00,316.00 Z            M 498.00,372.00            C 498.00,372.00 589.00,372.00 589.00,372.00              589.00,372.00 610.00,373.00 610.00,373.00              610.00,373.00 620.00,373.92 620.00,373.92              650.00,376.32 681.29,386.35 706.00,403.72              793.19,465.02 783.66,616.43 691.00,666.69              667.83,679.26 644.28,686.17 618.00,688.09              618.00,688.09 606.00,689.00 606.00,689.00              606.00,689.00 571.00,689.00 571.00,689.00              571.00,689.00 498.00,689.00 498.00,689.00              498.00,689.00 498.00,372.00 498.00,372.00 Z" />
</svg>