<svg xmlns="http://www.w3.org/2000/svg" viewBox="51.5 70.5 977 939">
  <path id="Selection" fill="#303030" stroke="none" stroke-width="1" d="M 52.00,71.00            C 52.00,71.00 225.00,71.00 225.00,71.00              225.00,71.00 225.00,1009.00 225.00,1009.00              225.00,1009.00 52.00,1009.00 52.00,1009.00              52.00,1009.00 52.00,71.00 52.00,71.00 Z            M 355.00,568.00            C 355.32,562.38 352.25,557.13 350.20,552.00              350.20,552.00 341.02,526.00 341.02,526.00              333.47,501.69 328.69,476.37 326.91,451.00              326.91,451.00 326.00,441.00 326.00,441.00              326.00,441.00 326.00,408.00 326.00,408.00              326.00,408.00 326.91,396.00 326.91,396.00              328.91,367.46 334.72,339.19 343.67,312.00              376.43,212.51 456.59,129.13 555.00,93.05              582.64,82.92 613.63,75.27 643.00,72.92              643.00,72.92 653.00,72.00 653.00,72.00              653.00,72.00 672.00,71.00 672.00,71.00              672.00,71.00 684.00,71.00 684.00,71.00              684.00,71.00 702.00,72.00 702.00,72.00              702.00,72.00 721.00,73.85 721.00,73.85              765.18,79.13 800.40,91.43 840.00,111.25              851.91,117.21 863.98,124.85 875.00,132.34              879.35,135.31 887.22,142.23 892.00,143.00              893.25,146.67 905.14,156.09 909.00,157.00              909.00,157.00 916.00,165.04 916.00,165.04              916.00,165.04 932.99,182.00 932.99,182.00              932.99,182.00 942.00,190.00 942.00,190.00              942.86,193.39 944.57,196.00 948.00,197.00              948.88,200.93 951.93,203.86 954.35,207.00              954.35,207.00 966.00,223.00 966.00,223.00              979.00,242.41 988.61,258.59 998.14,280.00              1012.68,312.67 1022.36,347.43 1026.16,383.00              1026.16,383.00 1028.00,405.00 1028.00,405.00              1028.00,405.00 1028.00,444.00 1028.00,444.00              1028.00,444.00 1027.09,454.00 1027.09,454.00              1025.42,476.79 1020.76,502.16 1013.98,524.00              1000.82,566.32 981.89,603.96 954.58,639.00              944.83,651.50 934.19,662.81 923.00,674.00              920.04,676.96 909.68,685.63 909.00,689.00              905.09,690.07 893.11,699.19 892.00,703.00              889.32,703.32 888.78,703.37 888.00,706.00              885.32,706.32 884.78,706.37 884.00,709.00              881.32,709.32 880.78,709.37 880.00,712.00              875.28,712.47 870.90,716.42 867.00,719.00              867.00,719.00 844.00,732.58 844.00,732.58              824.23,743.72 799.70,753.23 778.00,759.98              757.87,766.23 720.82,773.75 700.00,774.00              700.00,774.00 673.00,775.00 673.00,775.00              673.00,775.00 654.00,774.00 654.00,774.00              654.00,774.00 617.00,769.41 617.00,769.41              575.19,762.40 533.27,746.70 497.00,724.80              456.72,700.47 418.83,666.56 391.72,628.00              382.35,614.67 372.57,599.55 365.25,585.00              363.20,580.94 359.04,569.35 355.00,568.00 Z            M 339.00,321.00            C 339.00,321.00 340.00,321.00 340.00,321.00              340.00,321.00 339.00,322.00 339.00,322.00              339.00,322.00 339.00,321.00 339.00,321.00 Z            M 333.00,502.00            C 333.00,502.00 334.00,502.00 334.00,502.00              334.00,502.00 333.00,503.00 333.00,503.00              333.00,503.00 333.00,502.00 333.00,502.00 Z            M 354.00,565.00            C 354.00,565.00 355.00,565.00 355.00,565.00              355.00,565.00 354.00,566.00 354.00,566.00              354.00,566.00 354.00,565.00 354.00,565.00 Z"/>
</svg>