<svg xmlns="http://www.w3.org/2000/svg" viewBox="101.5 91.5 2227 311.66">
  <path id="patreon-text" fill="#303030" stroke="none" stroke-width="1"
    d="M 1806.00,92.42            C 1820.22,90.69 1847.01,94.63 1861.00,98.58              1876.95,103.08 1894.64,111.36 1908.00,121.15              1979.79,173.78 1990.22,282.66 1933.41,350.00              1923.18,362.13 1908.89,374.39 1895.00,382.14              1878.51,391.34 1859.74,398.06 1841.00,400.72              1794.19,407.35 1745.37,397.35 1709.00,365.71              1639.17,304.97 1640.49,190.35 1709.00,129.17              1729.88,110.52 1756.69,99.46 1784.00,94.61              1784.00,94.61 1806.00,92.42 1806.00,92.42 Z            M 102.00,100.00            C 102.00,100.00 199.00,100.00 199.00,100.00              234.37,100.00 261.67,97.92 292.00,120.66              350.27,164.36 347.17,258.80 285.00,297.58              259.43,313.52 235.95,314.00 207.00,314.00              207.00,314.00 171.00,314.00 171.00,314.00              171.00,314.00 171.00,341.00 171.00,341.00              171.00,341.00 171.00,395.00 171.00,395.00              171.00,395.00 102.00,395.00 102.00,395.00              102.00,395.00 102.00,100.00 102.00,100.00 Z            M 393.00,395.00            C 393.00,395.00 401.31,370.00 401.31,370.00              401.31,370.00 420.31,317.00 420.31,317.00              420.31,317.00 455.31,219.00 455.31,219.00              455.31,219.00 473.81,167.00 473.81,167.00              473.81,167.00 491.67,117.00 491.67,117.00              491.67,117.00 498.51,101.02 498.51,101.02              498.51,101.02 506.00,100.00 506.00,100.00              506.00,100.00 562.00,100.00 562.00,100.00              562.00,100.00 572.95,131.00 572.95,131.00              572.95,131.00 589.95,178.00 589.95,178.00              589.95,178.00 644.05,328.00 644.05,328.00              644.05,328.00 660.69,374.00 660.69,374.00              660.69,374.00 668.00,395.00 668.00,395.00              668.00,395.00 601.00,395.00 601.00,395.00              601.00,395.00 593.51,393.98 593.51,393.98              593.51,393.98 589.28,384.00 589.28,384.00              589.28,384.00 582.00,359.00 582.00,359.00              582.00,359.00 487.00,359.00 487.00,359.00              487.00,359.00 478.70,360.60 478.70,360.60              478.70,360.60 474.33,371.00 474.33,371.00              474.33,371.00 467.00,395.00 467.00,395.00              467.00,395.00 393.00,395.00 393.00,395.00 Z            M 714.00,100.00            C 714.00,100.00 917.00,100.00 917.00,100.00              917.00,100.00 917.00,160.00 917.00,160.00              917.00,160.00 850.00,160.00 850.00,160.00              850.00,160.00 850.00,395.00 850.00,395.00              850.00,395.00 781.00,395.00 781.00,395.00              781.00,395.00 781.00,160.00 781.00,160.00              781.00,160.00 723.00,160.00 723.00,160.00              714.36,159.98 714.02,159.64 714.00,151.00              714.00,151.00 714.00,100.00 714.00,100.00 Z            M 1021.00,100.00            C 1021.00,100.00 1119.00,100.00 1119.00,100.00              1151.67,100.00 1175.57,97.81 1205.00,116.06              1263.51,152.37 1270.05,242.34 1218.00,287.13              1211.30,292.90 1203.13,298.48 1195.00,302.00              1195.00,302.00 1228.42,354.00 1228.42,354.00              1228.42,354.00 1254.00,395.00 1254.00,395.00              1254.00,395.00 1181.00,395.00 1181.00,395.00              1178.81,395.00 1175.47,395.25 1173.61,394.01              1171.70,392.73 1167.23,385.29 1165.81,383.00              1165.81,383.00 1151.69,361.00 1151.69,361.00              1151.69,361.00 1129.34,326.00 1129.34,326.00              1124.89,319.14 1124.01,314.17 1115.00,314.00              1115.00,314.00 1091.00,314.00 1091.00,314.00              1091.00,314.00 1091.00,395.00 1091.00,395.00              1091.00,395.00 1021.00,395.00 1021.00,395.00              1021.00,395.00 1021.00,100.00 1021.00,100.00 Z            M 1367.00,100.00            C 1367.00,100.00 1548.00,100.00 1548.00,100.00              1548.00,100.00 1548.00,156.00 1548.00,156.00              1548.00,156.00 1437.00,156.00 1437.00,156.00              1437.00,156.00 1437.00,221.00 1437.00,221.00              1437.00,221.00 1548.00,221.00 1548.00,221.00              1548.00,221.00 1548.00,276.00 1548.00,276.00              1548.00,276.00 1437.00,276.00 1437.00,276.00              1437.00,276.00 1437.00,339.00 1437.00,339.00              1437.00,339.00 1548.00,339.00 1548.00,339.00              1548.00,339.00 1548.00,395.00 1548.00,395.00              1548.00,395.00 1367.00,395.00 1367.00,395.00              1367.00,395.00 1367.00,100.00 1367.00,100.00 Z            M 2081.00,100.00            C 2081.00,100.00 2146.00,100.00 2146.00,100.00              2154.95,100.02 2153.49,99.80 2160.86,113.00              2160.86,113.00 2178.70,145.00 2178.70,145.00              2178.70,145.00 2228.70,235.00 2228.70,235.00              2228.70,235.00 2248.14,270.00 2248.14,270.00              2248.14,270.00 2259.00,289.00 2259.00,289.00              2259.00,289.00 2259.00,100.00 2259.00,100.00              2259.00,100.00 2319.00,100.00 2319.00,100.00              2327.64,100.02 2327.98,100.36 2328.00,109.00              2328.00,109.00 2328.00,328.00 2328.00,328.00              2328.00,328.00 2328.00,386.00 2328.00,386.00              2327.98,394.64 2327.64,394.98 2319.00,395.00              2319.00,395.00 2263.00,395.00 2263.00,395.00              2260.81,395.00 2257.46,395.25 2255.61,394.01              2253.11,392.32 2245.62,377.61 2243.58,374.00              2243.58,374.00 2205.42,306.00 2205.42,306.00              2205.42,306.00 2151.00,209.00 2151.00,209.00              2151.00,209.00 2151.00,395.00 2151.00,395.00              2151.00,395.00 2081.00,395.00 2081.00,395.00              2081.00,395.00 2081.00,100.00 2081.00,100.00 Z            M 1805.00,155.14            C 1774.59,159.75 1752.96,172.69 1738.81,201.00              1714.74,249.14 1732.07,318.56 1787.00,335.97              1793.78,338.12 1802.90,339.91 1810.00,340.00              1823.53,340.15 1836.55,338.30 1849.00,332.69              1917.92,301.61 1914.97,188.86 1845.00,160.60              1837.44,157.55 1826.16,155.10 1818.00,155.14              1818.00,155.14 1805.00,155.14 1805.00,155.14 Z            M 171.00,257.00            C 171.00,257.00 204.00,257.00 204.00,257.00              221.80,257.00 237.54,257.38 250.82,242.96              277.55,213.92 262.13,157.07 219.00,157.00              219.00,157.00 171.00,157.00 171.00,157.00              171.00,157.00 171.00,208.00 171.00,208.00              171.00,208.00 171.00,257.00 171.00,257.00 Z            M 1091.00,257.00            C 1091.00,257.00 1121.00,257.00 1121.00,257.00              1140.60,257.00 1156.36,258.31 1170.82,242.00              1195.14,214.55 1183.27,157.07 1138.00,157.00              1138.00,157.00 1091.00,157.00 1091.00,157.00              1091.00,157.00 1091.00,257.00 1091.00,257.00 Z            M 530.00,188.00            C 530.00,188.00 515.98,233.00 515.98,233.00              515.98,233.00 502.28,279.00 502.28,279.00              502.28,279.00 495.00,305.00 495.00,305.00              495.00,305.00 564.00,305.00 564.00,305.00              564.00,305.00 546.72,244.00 546.72,244.00              546.72,244.00 530.00,188.00 530.00,188.00 Z            M 530.00,194.00            C 530.00,194.00 531.00,194.00 531.00,194.00              531.00,194.00 530.00,195.00 530.00,195.00              530.00,195.00 530.00,194.00 530.00,194.00 Z            M 239.00,314.00            C 239.00,314.00 240.00,314.00 240.00,314.00              240.00,314.00 239.00,315.00 239.00,315.00              239.00,315.00 239.00,314.00 239.00,314.00 Z            M 173.00,315.00            C 173.00,315.00 174.00,315.00 174.00,315.00              174.00,315.00 173.00,316.00 173.00,316.00              173.00,316.00 173.00,315.00 173.00,315.00 Z            M 580.00,361.00            C 580.00,361.00 581.00,361.00 581.00,361.00              581.00,361.00 580.00,362.00 580.00,362.00              580.00,362.00 580.00,361.00 580.00,361.00 Z            M 477.00,365.00            C 477.00,365.00 478.00,365.00 478.00,365.00              478.00,365.00 477.00,366.00 477.00,366.00              477.00,366.00 477.00,365.00 477.00,365.00 Z" />
</svg>