<svg xmlns="http://www.w3.org/2000/svg" viewBox="-0.35 -0.62 1280.46 340.14">
  <path id="paypal-wordmark" fill="#303030" stroke="none" stroke-width="1"
    d="M 46.02,0.74            C 51.36,-0.56 58.40,0.00 64.00,0.00              64.00,0.00 94.00,0.00 94.00,0.00              94.00,0.00 137.00,0.00 137.00,0.00              137.00,0.00 159.00,0.00 159.00,0.00              178.28,0.03 201.47,9.95 214.58,24.09              221.57,31.63 225.48,37.66 229.69,47.00              235.15,59.12 235.15,68.15 235.00,81.00              234.90,88.95 232.86,97.49 230.33,105.00              217.73,142.44 181.83,169.81 142.00,170.00              142.00,170.00 98.00,170.00 98.00,170.00              92.02,170.01 87.41,170.00 84.16,176.02              82.56,178.98 80.64,193.63 79.92,198.00              79.92,198.00 72.25,247.00 72.25,247.00              72.25,247.00 69.58,264.00 69.58,264.00              69.26,266.01 68.91,269.68 67.26,271.01              65.71,272.26 61.95,272.00 60.00,272.00              60.00,272.00 12.00,272.00 12.00,272.00              6.27,271.92 1.28,270.58 0.24,264.00              -0.24,260.98 1.38,253.46 1.87,250.00              1.87,250.00 7.58,214.00 7.58,214.00              7.58,214.00 32.75,54.00 32.75,54.00              32.75,54.00 38.75,16.00 38.75,16.00              39.84,9.39 39.64,4.31 46.02,0.74 Z            M 408.05,67.74            C 414.00,66.27 436.38,67.00 444.00,67.00              476.29,67.00 509.93,63.32 532.48,92.00              543.55,106.08 545.20,117.86 545.00,135.00              544.88,144.90 541.68,154.26 537.24,163.00              524.36,188.42 498.80,205.66 470.00,206.00              470.00,206.00 441.00,206.00 441.00,206.00              437.65,206.01 434.02,205.63 431.51,208.31              429.01,210.99 428.36,218.28 427.75,222.00              427.75,222.00 422.59,255.00 422.59,255.00              420.32,268.48 421.36,271.85 411.00,272.00              411.00,272.00 383.00,272.00 383.00,272.00              379.75,271.95 376.06,271.99 374.31,268.77              372.63,266.10 373.94,260.09 374.31,257.00              374.31,257.00 378.92,229.00 378.92,229.00              378.92,229.00 397.92,108.00 397.92,108.00              397.92,108.00 402.41,80.00 402.41,80.00              403.33,74.31 402.62,70.98 408.05,67.74 Z            M 902.05,67.74            C 908.00,66.27 930.38,67.00 938.00,67.00              970.32,67.00 1003.78,63.32 1026.33,92.00              1037.00,105.57 1039.19,117.29 1039.00,134.00              1038.92,140.50 1037.36,146.85 1035.33,153.00              1025.31,183.40 996.23,205.62 964.00,206.00              964.00,206.00 935.00,206.00 935.00,206.00              931.60,206.01 928.02,205.64 925.43,208.31              922.63,211.20 922.31,218.07 921.73,222.00              921.73,222.00 916.41,255.00 916.41,255.00              914.95,263.72 916.27,271.79 905.00,272.00              905.00,272.00 877.00,272.00 877.00,272.00              873.32,271.95 869.37,271.92 867.75,267.89              866.59,265.00 868.22,258.23 868.75,255.00              868.75,255.00 873.00,228.00 873.00,228.00              873.00,228.00 881.58,174.00 881.58,174.00              881.58,174.00 891.92,108.00 891.92,108.00              891.92,108.00 896.13,81.00 896.13,81.00              896.94,75.25 896.68,70.94 902.05,67.74 Z            M 1237.04,67.74            C 1242.73,66.34 1261.03,66.99 1268.00,67.00              1271.71,67.01 1276.61,66.52 1278.82,70.23              1280.78,73.51 1278.54,82.07 1278.00,86.00              1278.00,86.00 1271.58,127.00 1271.58,127.00              1271.58,127.00 1254.08,238.00 1254.08,238.00              1254.08,238.00 1250.42,261.00 1250.42,261.00              1249.95,264.05 1249.80,268.05 1247.35,270.26              1245.04,272.35 1240.93,272.00 1238.00,272.00              1238.00,272.00 1212.00,272.00 1212.00,272.00              1208.75,271.95 1204.92,271.95 1203.15,268.77              1201.45,266.13 1202.82,260.08 1203.15,257.00              1203.15,257.00 1207.75,229.00 1207.75,229.00              1207.75,229.00 1226.73,109.00 1226.73,109.00              1226.73,109.00 1231.25,80.00 1231.25,80.00              1232.20,74.18 1231.45,71.00 1237.04,67.74 Z            M 239.00,82.00            C 246.70,84.84 253.25,90.25 259.00,96.00              292.19,129.20 284.85,180.44 254.83,212.99              239.75,229.33 213.42,241.97 191.00,242.00              191.00,242.00 164.00,242.00 164.00,242.00              158.62,242.01 152.37,241.98 148.39,246.22              144.62,250.25 144.00,260.43 143.08,266.00              143.08,266.00 135.73,313.00 135.73,313.00              135.73,313.00 132.92,331.00 132.92,331.00              132.56,333.08 132.19,336.62 130.42,337.98              128.77,339.24 125.04,339.00 123.00,339.00              123.00,339.00 69.00,339.00 69.00,339.00              60.38,338.84 61.87,336.24 64.25,322.00              64.25,322.00 72.75,268.00 72.75,268.00              72.75,268.00 83.92,197.00 83.92,197.00              84.92,190.94 85.46,178.56 91.11,175.31              93.75,173.79 97.05,174.01 100.00,174.00              100.00,174.00 142.00,174.00 142.00,174.00              180.86,173.54 214.53,151.29 230.69,116.00              237.01,102.19 236.51,95.89 239.00,82.00 Z            M 437.00,162.00            C 451.12,162.00 471.69,163.93 484.00,157.10              498.66,148.95 503.16,123.92 487.00,114.90              477.49,109.60 456.28,111.00 445.00,111.00              445.00,111.00 437.00,162.00 437.00,162.00 Z            M 931.00,162.00            C 944.46,162.00 965.24,163.79 977.00,157.60              992.33,149.53 996.98,124.66 981.99,115.48              972.40,109.61 950.50,111.00 939.00,111.00              939.00,111.00 931.00,162.00 931.00,162.00 Z            M 640.00,263.00            C 627.32,269.70 618.68,273.91 604.00,274.91              598.56,275.28 590.37,274.15 585.00,272.99              552.73,265.99 535.29,238.97 536.01,207.00              536.17,200.02 537.92,188.66 540.03,182.00              550.14,150.06 579.46,124.05 614.00,124.00              614.00,124.00 623.00,124.00 623.00,124.00              637.05,124.17 649.25,130.42 660.00,139.00              660.08,135.83 660.08,132.05 662.65,129.74              664.96,127.65 669.07,128.00 672.00,128.00              672.00,128.00 694.00,128.00 694.00,128.00              697.36,128.01 701.98,127.63 704.40,130.43              706.52,132.88 705.67,136.12 705.27,139.00              705.27,139.00 702.13,159.00 702.13,159.00              702.13,159.00 688.59,245.00 688.59,245.00              688.59,245.00 685.92,262.00 685.92,262.00              685.44,264.83 685.06,268.34 682.69,270.26              680.19,272.29 676.06,272.00 673.00,272.00              673.00,272.00 649.00,272.00 649.00,272.00              646.63,271.96 643.42,272.04 641.60,270.26              639.77,268.48 640.03,265.35 640.00,263.00 Z            M 1134.00,263.00            C 1121.45,269.63 1111.55,274.35 1097.00,274.96              1090.87,275.22 1080.87,273.79 1075.00,271.98              1068.20,269.87 1060.72,266.76 1055.00,262.49              1028.13,242.43 1024.75,205.56 1036.06,176.00              1047.24,146.78 1076.10,124.05 1108.00,124.00              1108.00,124.00 1117.00,124.00 1117.00,124.00              1130.46,124.16 1143.86,130.43 1154.00,139.00              1154.07,135.91 1153.98,131.98 1156.51,129.74              1158.84,127.68 1163.06,128.00 1166.00,128.00              1166.00,128.00 1189.00,128.00 1189.00,128.00              1191.76,128.01 1195.45,127.71 1197.69,129.60              1200.64,132.09 1199.73,135.71 1199.27,139.00              1199.27,139.00 1196.13,159.00 1196.13,159.00              1196.13,159.00 1182.59,245.00 1182.59,245.00              1182.59,245.00 1179.92,262.00 1179.92,262.00              1179.44,264.83 1179.06,268.34 1176.69,270.26              1174.19,272.29 1170.06,272.00 1167.00,272.00              1167.00,272.00 1143.00,272.00 1143.00,272.00              1140.63,271.96 1137.42,272.04 1135.60,270.26              1133.77,268.48 1134.03,265.35 1134.00,263.00 Z            M 786.00,200.00            C 787.89,194.02 793.61,185.65 797.00,180.00              797.00,180.00 818.28,144.00 818.28,144.00              823.15,135.46 825.14,128.15 836.00,128.00              836.00,128.00 866.00,128.00 866.00,128.00              869.46,128.01 875.72,127.38 876.36,132.11              876.86,135.79 870.83,144.62 868.80,148.00              868.80,148.00 845.80,186.00 845.80,186.00              845.80,186.00 787.80,282.00 787.80,282.00              787.80,282.00 776.20,301.00 776.20,301.00              774.39,303.98 771.81,309.12 768.82,310.83              766.37,312.22 762.76,312.00 760.00,312.00              760.00,312.00 728.00,312.00 728.00,312.00              712.50,311.71 727.08,295.13 730.80,289.00              730.80,289.00 746.81,263.00 746.81,263.00              748.71,259.89 753.41,253.34 753.79,250.00              754.08,247.46 752.49,243.47 751.67,241.00              751.67,241.00 746.28,224.00 746.28,224.00              746.28,224.00 739.02,202.00 739.02,202.00              739.02,202.00 725.00,158.00 725.00,158.00              725.00,158.00 718.67,138.00 718.67,138.00              717.87,135.42 716.59,131.99 718.67,129.74              720.74,127.66 725.31,128.00 728.00,128.00              728.00,128.00 754.00,128.00 754.00,128.00              756.85,128.02 760.25,127.82 762.58,129.74              764.91,131.65 765.61,135.23 766.42,138.00              766.42,138.00 771.66,155.00 771.66,155.00              771.66,155.00 786.00,200.00 786.00,200.00 Z            M 616.00,166.29            C 601.74,168.44 590.26,174.20 583.90,188.00              574.09,209.31 584.99,233.70 610.00,234.00              627.09,234.20 641.02,226.51 647.54,210.00              656.51,187.26 640.75,164.51 616.00,166.29 Z            M 1110.00,166.29            C 1095.64,168.46 1084.29,174.11 1077.90,188.00              1068.09,209.31 1078.99,233.70 1104.00,234.00              1120.85,234.19 1135.22,226.29 1141.53,210.00              1150.27,187.46 1134.58,164.53 1110.00,166.29 Z" />
</svg>