<svg xmlns="http://www.w3.org/2000/svg" viewBox="-0.35 -0.62 281.66 340.14">
  <path id="paypal" fill="#303030" stroke="none" stroke-width="1"
    d="M 46.02,0.74            C 51.36,-0.56 58.40,0.00 64.00,0.00              64.00,0.00 94.00,0.00 94.00,0.00              94.00,0.00 137.00,0.00 137.00,0.00              137.00,0.00 159.00,0.00 159.00,0.00              178.28,0.03 201.47,9.95 214.58,24.09              221.57,31.63 225.48,37.66 229.69,47.00              235.15,59.12 235.15,68.15 235.00,81.00              234.90,88.95 232.86,97.49 230.33,105.00              217.73,142.44 181.83,169.81 142.00,170.00              142.00,170.00 98.00,170.00 98.00,170.00              92.02,170.01 87.41,170.00 84.16,176.02              82.56,178.98 80.64,193.63 79.92,198.00              79.92,198.00 72.25,247.00 72.25,247.00              72.25,247.00 69.58,264.00 69.58,264.00              69.26,266.01 68.91,269.68 67.26,271.01              65.71,272.26 61.95,272.00 60.00,272.00              60.00,272.00 12.00,272.00 12.00,272.00              6.27,271.92 1.28,270.58 0.24,264.00              -0.24,260.98 1.38,253.46 1.87,250.00              1.87,250.00 7.58,214.00 7.58,214.00              7.58,214.00 32.75,54.00 32.75,54.00              32.75,54.00 38.75,16.00 38.75,16.00              39.84,9.39 39.64,4.31 46.02,0.74 Z            M 239.00,82.00            C 246.70,84.84 253.25,90.25 259.00,96.00              292.19,129.20 284.85,180.44 254.83,212.99              239.75,229.33 213.42,241.97 191.00,242.00              191.00,242.00 164.00,242.00 164.00,242.00              158.62,242.01 152.37,241.98 148.39,246.22              144.62,250.25 144.00,260.43 143.08,266.00              143.08,266.00 135.73,313.00 135.73,313.00              135.73,313.00 132.92,331.00 132.92,331.00              132.56,333.08 132.19,336.62 130.42,337.98              128.77,339.24 125.04,339.00 123.00,339.00              123.00,339.00 69.00,339.00 69.00,339.00              60.38,338.84 61.87,336.24 64.25,322.00              64.25,322.00 72.75,268.00 72.75,268.00              72.75,268.00 83.92,197.00 83.92,197.00              84.92,190.94 85.46,178.56 91.11,175.31              93.75,173.79 97.05,174.01 100.00,174.00              100.00,174.00 142.00,174.00 142.00,174.00              180.86,173.54 214.53,151.29 230.69,116.00              237.01,102.19 236.51,95.89 239.00,82.00 Z" />
</svg>