<svg xmlns="http://www.w3.org/2000/svg" viewBox="1.5 2.18 114 126.51">
  <path id="periodum" fill="#303030" stroke="none" stroke-width="1"
    d="M 56.15,3.04            C 64.54,0.73 65.64,10.31 59.90,11.67              54.94,12.84 50.62,7.94 56.15,3.04 Z            M 42.31,26.03            C 44.77,25.16 47.26,24.64 49.40,26.74              51.59,28.88 51.64,34.59 46.94,35.67              40.86,37.06 37.91,30.74 42.31,26.03 Z            M 57.06,47.02            C 60.67,45.79 64.59,45.45 67.57,48.43              71.43,52.29 70.83,61.56 63.00,62.76              53.37,64.23 49.28,53.09 57.06,47.02 Z            M 32.00,76.00            C 35.84,77.78 40.73,80.59 45.00,80.65              52.57,80.75 59.31,74.73 67.00,72.76              73.96,70.97 79.44,72.85 86.00,75.00              83.49,85.22 83.92,91.24 74.00,98.20              59.58,108.33 33.26,102.91 32.00,76.00 Z            M 2.00,78.00            C 2.00,78.00 12.00,78.00 12.00,78.00              13.87,78.01 16.88,77.85 18.42,79.02              20.03,80.25 20.72,84.04 21.44,86.00              22.84,89.81 24.84,93.82 27.38,97.00              35.61,107.31 46.93,112.29 60.00,111.99              73.17,111.68 85.72,104.27 92.52,93.00              96.43,86.52 96.29,80.77 98.58,79.02              100.70,77.41 111.83,78.00 115.00,78.00              114.86,84.41 113.66,90.09 111.13,96.00              92.39,139.66 21.98,138.82 5.23,94.00              3.21,88.59 2.13,83.77 2.00,78.00 Z" />
</svg>