<svg xmlns="http://www.w3.org/2000/svg" viewBox="-0.5 -0.36 2049 2048.86">
  <path id="perl" fill="#303030" stroke="none" stroke-width="1"
    d="M 980.00,0.14            C 980.00,0.14 1013.00,0.14 1013.00,0.14              1013.00,0.14 1062.00,0.14 1062.00,0.14              1062.00,0.14 1083.00,1.00 1083.00,1.00              1083.00,1.00 1093.00,1.91 1093.00,1.91              1093.00,1.91 1129.00,4.83 1129.00,4.83              1179.80,9.91 1226.47,18.24 1276.00,30.63              1510.86,89.34 1718.91,233.24 1859.57,430.00              1924.07,520.22 1972.14,618.18 2005.02,724.00              2021.95,778.48 2033.90,834.44 2041.28,891.00              2041.28,891.00 2047.09,949.00 2047.09,949.00              2047.09,949.00 2048.00,959.00 2048.00,959.00              2048.00,959.00 2048.00,1088.00 2048.00,1088.00              2048.00,1088.00 2047.09,1100.00 2047.09,1100.00              2047.09,1100.00 2040.13,1167.00 2040.13,1167.00              2031.77,1227.05 2018.13,1286.35 1999.33,1344.00              1895.69,1661.89 1634.93,1914.84 1314.00,2008.58              1264.79,2022.95 1216.70,2032.96 1166.00,2040.27              1166.00,2040.27 1100.00,2047.09 1100.00,2047.09              1100.00,2047.09 1088.00,2048.00 1088.00,2048.00              1088.00,2048.00 960.00,2048.00 960.00,2048.00              960.00,2048.00 950.00,2047.09 950.00,2047.09              923.17,2045.25 896.64,2042.19 870.00,2038.27              797.64,2027.61 725.18,2008.23 657.00,1981.81              530.67,1932.87 421.15,1863.29 322.00,1770.91              322.00,1770.91 298.00,1747.00 298.00,1747.00              175.29,1624.29 83.96,1469.34 37.42,1302.00              21.65,1245.29 10.69,1187.56 4.83,1129.00              4.83,1129.00 1.91,1093.00 1.91,1093.00              1.91,1093.00 1.00,1081.00 1.00,1081.00              1.00,1081.00 0.00,1062.00 0.00,1062.00              0.00,1062.00 0.00,987.00 0.00,987.00              0.00,987.00 1.00,966.00 1.00,966.00              1.00,966.00 1.91,956.00 1.91,956.00              1.91,956.00 8.72,887.00 8.72,887.00              19.77,803.06 42.72,716.27 75.01,638.00              124.60,517.79 196.13,408.00 286.04,314.00              286.04,314.00 322.00,278.91 322.00,278.91              432.09,176.35 554.51,101.54 697.00,53.00              754.96,33.26 821.30,17.46 882.00,9.28              882.00,9.28 949.00,2.00 949.00,2.00              949.00,2.00 957.00,2.00 957.00,2.00              957.00,2.00 967.00,1.00 967.00,1.00              972.14,0.94 974.73,1.17 980.00,0.14 Z            M 996.00,70.14            C 989.63,71.20 986.28,70.99 980.00,71.00              980.00,71.00 967.00,71.96 967.00,71.96              967.00,71.96 915.00,76.28 915.00,76.28              852.84,83.96 797.87,95.42 738.00,114.02              690.94,128.65 645.04,147.73 601.00,169.75              435.25,252.63 298.00,379.47 203.40,539.00              187.47,565.85 172.34,593.61 159.31,622.00              113.34,722.11 85.79,820.36 74.83,930.00              74.83,930.00 71.00,989.00 71.00,989.00              71.00,989.00 70.00,1004.00 70.00,1004.00              70.00,1004.00 70.00,1046.00 70.00,1046.00              70.00,1046.00 70.96,1058.00 70.96,1058.00              70.96,1058.00 70.96,1071.00 70.96,1071.00              70.96,1071.00 72.91,1097.00 72.91,1097.00              75.52,1134.94 80.74,1172.67 88.20,1210.00              113.00,1334.02 162.13,1453.34 233.34,1558.00              285.84,1635.16 348.81,1704.41 421.00,1763.58              502.48,1830.36 593.52,1882.27 692.00,1919.42              753.90,1942.78 820.52,1959.83 886.00,1969.27              886.00,1969.27 960.00,1977.09 960.00,1977.09              960.00,1977.09 970.00,1978.00 970.00,1978.00              970.00,1978.00 991.00,1979.00 991.00,1979.00              991.00,1979.00 1059.00,1979.00 1059.00,1979.00              1059.00,1979.00 1079.00,1978.00 1079.00,1978.00              1079.00,1978.00 1090.00,1977.09 1090.00,1977.09              1090.00,1977.09 1141.00,1972.28 1141.00,1972.28              1206.96,1964.14 1272.17,1949.46 1335.00,1927.66              1464.74,1882.63 1583.76,1809.96 1683.00,1715.04              1683.00,1715.04 1693.00,1705.99 1693.00,1705.99              1693.00,1705.99 1715.04,1683.00 1715.04,1683.00              1820.65,1572.58 1898.74,1437.68 1941.58,1291.00              1958.49,1233.09 1969.36,1173.99 1975.17,1114.00              1975.17,1114.00 1978.00,1075.00 1978.00,1075.00              1978.00,1075.00 1979.00,1058.00 1979.00,1058.00              1979.00,1058.00 1979.00,991.00 1979.00,991.00              1979.00,991.00 1978.00,970.00 1978.00,970.00              1978.00,970.00 1977.09,960.00 1977.09,960.00              1977.09,960.00 1973.16,916.00 1973.16,916.00              1967.33,861.42 1955.80,807.65 1940.42,755.00              1847.93,438.31 1589.13,185.99 1270.00,102.12              1213.22,87.19 1155.56,76.94 1097.00,72.91              1097.00,72.91 1061.00,71.00 1061.00,71.00              1061.00,71.00 1046.00,70.14 1046.00,70.14              1046.00,70.14 996.00,70.14 996.00,70.14 Z            M 1086.00,190.00            C 1086.00,190.00 1086.00,237.00 1086.00,237.00              1086.00,238.93 1086.12,242.08 1085.40,243.83              1083.70,247.94 1074.05,253.22 1070.00,255.24              1052.23,264.13 1040.36,265.22 1021.00,265.00              986.07,264.59 959.41,236.65 959.00,202.00              959.00,202.00 959.00,189.00 959.00,189.00              959.04,165.04 971.29,142.38 993.00,131.37              1006.03,124.76 1018.85,124.84 1033.00,125.00              1052.03,125.23 1070.40,133.48 1079.24,151.00              1080.51,153.51 1082.70,158.29 1083.18,160.98              1083.45,162.51 1083.61,163.86 1082.36,165.02              1080.65,166.61 1067.14,168.61 1064.00,169.29              1062.02,169.56 1059.19,170.20 1057.27,169.29              1055.02,168.43 1052.53,163.25 1050.67,161.00              1046.90,156.43 1042.64,152.87 1037.00,150.90              1019.68,144.86 1000.03,153.54 992.32,170.00              987.55,180.20 987.88,188.13 988.00,199.00              988.17,213.53 994.78,229.11 1008.00,236.34              1020.16,243.02 1032.70,241.82 1045.00,236.34              1048.30,234.87 1054.22,232.08 1055.98,228.90              1057.55,226.06 1057.00,216.64 1057.00,213.00              1057.00,213.00 1026.00,213.00 1026.00,213.00              1026.00,213.00 1026.00,190.00 1026.00,190.00              1026.00,190.00 1086.00,190.00 1086.00,190.00 Z            M 889.00,136.00            C 889.00,136.00 915.00,132.00 915.00,132.00              915.00,132.00 921.58,175.00 921.58,175.00              921.58,175.00 936.00,267.00 936.00,267.00              936.00,267.00 917.00,269.75 917.00,269.75              917.00,269.75 908.28,270.39 908.28,270.39              908.28,270.39 901.42,264.00 901.42,264.00              901.42,264.00 888.42,249.00 888.42,249.00              888.42,249.00 842.00,195.00 842.00,195.00              842.00,195.00 855.00,280.00 855.00,280.00              855.00,280.00 829.00,283.00 829.00,283.00              829.00,283.00 816.25,203.00 816.25,203.00              816.25,203.00 808.00,149.00 808.00,149.00              808.00,149.00 826.00,146.25 826.00,146.25              826.00,146.25 834.71,145.61 834.71,145.61              834.71,145.61 841.42,152.00 841.42,152.00              841.42,152.00 854.27,167.00 854.27,167.00              854.27,167.00 902.00,223.00 902.00,223.00              902.00,223.00 889.00,136.00 889.00,136.00 Z            M 1199.00,140.00            C 1199.00,140.00 1224.00,146.58 1224.00,146.58              1224.00,146.58 1262.00,157.67 1262.00,157.67              1271.36,160.78 1282.89,164.49 1289.53,172.09              1303.27,187.78 1298.70,216.45 1282.00,228.36              1273.40,234.50 1263.06,234.78 1253.00,234.00              1255.82,237.85 1258.35,240.77 1260.69,245.00              1268.14,258.47 1275.34,288.06 1280.00,304.00              1280.00,304.00 1257.00,298.00 1257.00,298.00              1254.35,297.24 1249.67,296.29 1247.81,294.30              1246.03,292.40 1243.02,282.07 1242.00,279.00              1238.28,267.83 1231.65,242.02 1224.67,234.04              1219.22,227.80 1212.20,227.16 1205.00,224.00              1205.00,224.00 1193.29,264.00 1193.29,264.00              1192.44,266.95 1190.69,276.26 1187.70,277.22              1185.92,277.79 1181.86,276.39 1180.00,275.86              1180.00,275.86 1162.00,271.00 1162.00,271.00              1162.00,271.00 1175.58,222.00 1175.58,222.00              1175.58,222.00 1199.00,140.00 1199.00,140.00 Z            M 739.00,173.00            C 745.27,170.25 760.33,165.56 767.00,165.00              767.00,165.00 795.72,260.00 795.72,260.00              795.72,260.00 806.00,295.00 806.00,295.00              806.00,295.00 779.00,303.00 779.00,303.00              779.00,303.00 739.00,173.00 739.00,173.00 Z            M 1211.00,203.00            C 1221.59,204.63 1244.04,213.21 1253.00,212.87              1266.60,212.35 1270.40,196.38 1266.55,189.04              1262.16,180.69 1241.96,176.68 1233.00,174.14              1230.28,173.37 1222.93,170.62 1220.56,172.11              1218.73,173.26 1217.72,177.95 1217.14,180.00              1217.14,180.00 1211.00,203.00 1211.00,203.00 Z            M 676.00,293.00            C 676.00,293.00 665.75,229.00 665.75,229.00              665.75,229.00 662.75,211.00 662.75,211.00              662.75,211.00 662.75,203.39 662.75,203.39              662.75,203.39 672.00,197.70 672.00,197.70              672.00,197.70 700.00,186.00 700.00,186.00              700.00,186.00 731.86,257.00 731.86,257.00              731.86,257.00 755.00,310.00 755.00,310.00              749.04,313.30 736.52,319.31 730.00,320.00              730.00,320.00 713.86,283.00 713.86,283.00              713.86,283.00 690.00,230.00 690.00,230.00              690.00,230.00 695.58,262.00 695.58,262.00              695.58,262.00 702.80,304.00 702.80,304.00              702.80,304.00 706.04,323.00 706.04,323.00              706.46,325.34 707.49,329.25 706.04,331.30              705.02,332.66 702.50,333.61 701.00,334.30              696.82,336.24 685.26,342.82 681.29,340.31              679.37,339.09 675.66,334.00 674.12,332.00              674.12,332.00 661.58,316.00 661.58,316.00              661.58,316.00 620.00,263.00 620.00,263.00              620.00,263.00 627.58,281.00 627.58,281.00              627.58,281.00 648.86,329.00 648.86,329.00              648.86,329.00 659.00,353.00 659.00,353.00              659.00,353.00 635.00,363.00 635.00,363.00              635.00,363.00 604.70,296.00 604.70,296.00              604.70,296.00 589.14,261.00 589.14,261.00              589.14,261.00 580.00,239.00 580.00,239.00              580.00,239.00 607.00,226.70 607.00,226.70              609.75,225.45 614.99,222.47 617.96,223.40              620.33,224.14 622.48,227.13 624.00,229.00              624.00,229.00 635.20,243.00 635.20,243.00              635.20,243.00 676.00,293.00 676.00,293.00 Z            M 1348.00,186.00            C 1348.00,186.00 1379.00,198.70 1379.00,198.70              1379.00,198.70 1441.00,226.00 1441.00,226.00              1440.07,230.97 1437.00,237.33 1434.77,242.00              1433.90,243.80 1432.84,246.61 1430.73,247.19              1427.95,247.96 1415.24,241.71 1412.00,240.23              1412.00,240.23 1365.00,219.00 1365.00,219.00              1365.00,219.00 1354.00,246.00 1354.00,246.00              1354.00,246.00 1415.00,272.00 1415.00,272.00              1415.00,272.00 1406.00,294.00 1406.00,294.00              1406.00,294.00 1383.00,284.86 1383.00,284.86              1383.00,284.86 1343.00,267.00 1343.00,267.00              1343.00,267.00 1329.00,300.00 1329.00,300.00              1329.00,300.00 1352.00,309.58 1352.00,309.58              1352.00,309.58 1398.00,330.00 1398.00,330.00              1398.00,330.00 1389.00,352.00 1389.00,352.00              1389.00,352.00 1359.00,339.31 1359.00,339.31              1359.00,339.31 1317.00,320.70 1317.00,320.70              1317.00,320.70 1301.00,313.58 1301.00,313.58              1301.00,313.58 1294.81,308.79 1294.81,308.79              1294.81,308.79 1298.00,299.00 1298.00,299.00              1298.00,299.00 1308.70,275.00 1308.70,275.00              1308.70,275.00 1348.00,186.00 1348.00,186.00 Z            M 1407.00,365.00            C 1409.07,359.58 1412.76,354.91 1415.81,350.00              1415.81,350.00 1438.00,316.00 1438.00,316.00              1438.00,316.00 1467.69,270.00 1467.69,270.00              1469.55,267.12 1478.28,253.16 1480.38,252.13              1483.17,250.76 1486.75,253.54 1489.00,255.00              1489.00,255.00 1511.00,269.33 1511.00,269.33              1522.86,277.23 1544.21,289.22 1550.10,302.00              1562.37,328.63 1539.93,364.61 1510.00,362.91              1493.65,361.98 1470.84,346.91 1458.00,337.00              1458.00,337.00 1431.00,380.00 1431.00,380.00              1431.00,380.00 1407.00,365.00 1407.00,365.00 Z            M 620.00,262.00            C 620.00,262.00 619.00,262.00 619.00,262.00              619.00,262.00 620.00,263.00 620.00,263.00              620.00,263.00 620.00,262.00 620.00,262.00 Z            M 531.00,381.00            C 531.00,381.00 505.58,321.00 505.58,321.00              505.58,321.00 498.72,305.00 498.72,305.00              497.81,302.86 496.18,299.43 496.50,297.09              496.92,293.95 500.67,291.63 503.00,289.79              503.00,289.79 521.00,275.79 521.00,275.79              523.49,273.88 526.52,270.87 529.83,272.73              531.69,273.77 536.21,279.99 537.79,282.00              537.79,282.00 553.40,302.00 553.40,302.00              553.40,302.00 591.65,351.00 591.65,351.00              591.65,351.00 612.00,378.00 612.00,378.00              612.00,378.00 599.00,388.65 599.00,388.65              599.00,388.65 592.04,392.67 592.04,392.67              592.04,392.67 586.00,387.99 586.00,387.99              586.00,387.99 575.12,374.00 575.12,374.00              575.12,374.00 531.00,318.00 531.00,318.00              531.00,318.00 541.70,343.00 541.70,343.00              541.70,343.00 559.77,384.00 559.77,384.00              559.77,384.00 567.70,402.00 567.70,402.00              568.68,404.20 570.36,407.54 569.60,409.96              568.93,412.09 566.65,413.82 564.99,415.20              560.89,418.59 552.47,426.99 547.00,424.66              547.00,424.66 526.00,408.88 526.00,408.88              526.00,408.88 469.00,365.00 469.00,365.00              469.00,365.00 513.00,421.00 513.00,421.00              513.00,421.00 523.88,435.00 523.88,435.00              525.17,436.70 527.87,439.77 527.82,441.96              527.75,444.44 524.75,446.57 523.00,448.00              518.17,451.92 513.20,456.69 507.00,458.00              507.00,458.00 448.79,383.00 448.79,383.00              448.79,383.00 432.35,362.00 432.35,362.00              430.83,360.04 426.65,355.21 426.25,353.01              425.61,349.56 429.68,347.16 432.00,345.35              432.00,345.35 450.00,331.21 450.00,331.21              452.47,329.29 455.61,326.31 459.00,327.16              461.04,327.67 465.17,331.00 467.00,332.37              467.00,332.37 482.00,343.79 482.00,343.79              482.00,343.79 531.00,381.00 531.00,381.00 Z            M 1472.00,318.00            C 1482.19,323.45 1496.35,335.76 1508.00,334.90              1519.78,334.04 1527.52,320.68 1522.43,310.00              1518.95,302.70 1498.72,288.95 1491.00,286.00              1491.00,286.00 1472.00,318.00 1472.00,318.00 Z            M 677.00,294.00            C 677.00,294.00 676.00,294.00 676.00,294.00              676.00,294.00 677.00,295.00 677.00,295.00              677.00,295.00 677.00,294.00 677.00,294.00 Z            M 995.00,309.21            C 995.00,309.21 1046.00,309.21 1046.00,309.21              1046.00,309.21 1067.00,310.00 1067.00,310.00              1067.00,310.00 1077.00,310.91 1077.00,310.91              1077.00,310.91 1109.00,313.84 1109.00,313.84              1146.61,317.86 1188.78,326.41 1225.00,337.28              1282.54,354.55 1331.94,375.21 1384.00,405.42              1547.43,500.27 1664.94,654.41 1715.42,836.00              1728.23,882.05 1736.96,932.27 1739.04,980.00              1739.04,980.00 1740.00,991.00 1740.00,991.00              1740.00,991.00 1740.00,1005.00 1740.00,1005.00              1740.00,1005.00 1740.95,1017.00 1740.95,1017.00              1740.95,1017.00 1740.95,1030.00 1740.95,1030.00              1740.95,1030.00 1740.00,1043.00 1740.00,1043.00              1740.00,1043.00 1740.00,1057.00 1740.00,1057.00              1740.00,1057.00 1739.09,1069.00 1739.09,1069.00              1739.09,1069.00 1735.28,1112.00 1735.28,1112.00              1730.61,1149.89 1723.29,1187.33 1712.58,1224.00              1680.35,1334.34 1624.40,1430.94 1546.09,1515.00              1546.09,1515.00 1523.00,1538.96 1523.00,1538.96              1471.55,1588.17 1420.45,1624.53 1358.00,1658.31              1329.73,1673.60 1298.30,1687.52 1268.00,1698.31              1219.61,1715.54 1170.92,1727.58 1120.00,1734.28              1120.00,1734.28 1069.00,1739.09 1069.00,1739.09              1069.00,1739.09 1057.00,1740.00 1057.00,1740.00              1057.00,1740.00 1040.00,1740.00 1040.00,1740.00              1040.00,1740.00 1023.00,1741.00 1023.00,1741.00              1023.00,1741.00 1009.00,1740.00 1009.00,1740.00              1009.00,1740.00 991.00,1740.00 991.00,1740.00              991.00,1740.00 980.00,1739.04 980.00,1739.04              980.00,1739.04 922.00,1733.27 922.00,1733.27              875.24,1726.53 828.38,1715.29 784.00,1699.05              702.72,1669.33 630.26,1628.55 564.00,1572.58              508.15,1525.40 459.25,1469.77 420.05,1408.00              372.65,1333.29 339.95,1251.74 322.60,1165.00              316.72,1135.62 310.34,1091.61 310.00,1062.00              310.00,1062.00 309.00,1047.00 309.00,1047.00              309.00,1047.00 309.00,1003.00 309.00,1003.00              309.00,1003.00 310.00,982.00 310.00,982.00              310.00,982.00 310.91,972.00 310.91,972.00              310.91,972.00 316.73,918.00 316.73,918.00              326.45,850.58 346.91,784.84 375.31,723.00              442.62,576.42 562.10,455.70 706.00,383.75              734.75,369.38 766.41,355.65 797.00,345.74              842.02,331.17 887.99,320.14 935.00,314.28              935.00,314.28 984.00,310.00 984.00,310.00              988.57,309.99 990.36,310.08 995.00,309.21 Z            M 530.00,315.00            C 530.00,315.00 529.00,315.00 529.00,315.00              529.00,315.00 530.00,316.00 530.00,316.00              530.00,316.00 530.00,315.00 530.00,315.00 Z            M 1661.00,391.00            C 1667.26,394.36 1671.80,399.94 1676.98,404.72              1679.12,406.69 1681.99,408.69 1680.83,412.00              1680.18,413.86 1675.17,419.16 1673.58,421.00              1673.58,421.00 1652.00,444.00 1652.00,444.00              1652.00,444.00 1633.17,464.00 1633.17,464.00              1617.18,481.67 1601.97,498.45 1576.00,492.10              1571.71,491.05 1567.82,489.33 1564.00,487.13              1558.03,483.67 1549.87,476.91 1545.01,472.00              1540.83,467.76 1536.18,462.22 1533.31,457.00              1531.12,453.02 1529.66,449.43 1528.66,445.00              1522.02,415.49 1547.28,396.77 1564.72,377.00              1564.72,377.00 1593.42,346.00 1593.42,346.00              1595.87,343.18 1600.73,336.69 1605.00,338.17              1607.10,338.89 1610.36,342.38 1612.00,344.00              1616.02,347.97 1620.61,351.49 1624.00,356.00              1624.00,356.00 1575.91,408.00 1575.91,408.00              1569.18,415.23 1557.33,425.83 1556.19,436.00              1554.48,451.20 1576.13,471.58 1591.00,463.44              1597.84,459.70 1616.11,439.70 1622.17,433.00              1622.17,433.00 1661.00,391.00 1661.00,391.00 Z            M 1584.00,630.00            C 1581.63,623.92 1576.56,618.25 1572.63,613.00              1572.63,613.00 1548.75,583.00 1548.75,583.00              1516.07,543.79 1475.85,506.26 1435.00,475.63              1343.21,406.79 1232.85,360.63 1119.00,345.28              1119.00,345.28 1075.00,340.91 1075.00,340.91              1075.00,340.91 1065.00,340.00 1065.00,340.00              1065.00,340.00 1045.00,339.00 1045.00,339.00              1045.00,339.00 1005.00,339.00 1005.00,339.00              1005.00,339.00 985.00,340.00 985.00,340.00              985.00,340.00 975.00,340.91 975.00,340.91              975.00,340.91 914.00,347.92 914.00,347.92              853.00,358.02 795.22,375.49 739.00,401.31              538.74,493.27 389.77,681.73 350.58,899.00              346.01,924.32 342.67,949.36 340.91,975.00              340.91,975.00 340.00,985.00 340.00,985.00              340.00,985.00 339.00,1006.00 339.00,1006.00              339.00,1006.00 339.00,1044.00 339.00,1044.00              339.00,1044.00 340.00,1059.00 340.00,1059.00              340.28,1082.91 343.74,1109.29 347.42,1133.00              347.42,1133.00 356.65,1180.00 356.65,1180.00              356.65,1180.00 362.00,1202.00 362.00,1202.00              362.00,1202.00 414.00,1202.00 414.00,1202.00              427.90,1201.97 419.55,1198.18 436.00,1186.16              447.76,1177.56 460.14,1173.24 474.00,1169.42              485.06,1166.38 496.62,1164.64 508.00,1163.28              514.38,1162.52 518.38,1164.14 522.53,1157.95              532.00,1143.82 532.19,1122.43 532.00,1106.00              532.00,1106.00 531.09,1096.00 531.09,1096.00              529.54,1073.83 524.72,1052.08 517.67,1031.00              513.83,1019.53 506.50,995.99 493.00,993.77              487.42,992.85 482.31,996.01 478.00,999.16              464.08,1009.30 461.28,1019.77 453.00,1026.00              453.00,1026.00 454.92,1012.00 454.92,1012.00              457.97,993.73 462.60,979.93 484.00,978.00              480.55,973.45 478.31,972.08 473.00,970.06              469.49,968.73 455.54,965.20 452.39,966.59              449.74,967.75 448.02,973.37 447.05,976.00              440.75,993.18 443.00,996.20 440.00,1006.00              440.00,1006.00 434.30,990.00 434.30,990.00              434.30,990.00 435.00,965.00 435.00,965.00              416.11,966.96 402.56,991.32 392.00,1005.00              392.00,997.50 391.03,985.51 394.44,979.00              397.53,973.11 405.67,967.78 407.02,963.00              407.85,960.04 405.79,956.98 405.25,954.00              404.02,949.79 404.56,946.17 405.25,942.00              406.15,938.72 407.19,935.95 408.80,933.00              411.32,928.38 414.18,925.55 419.00,923.35              430.83,917.95 441.16,924.34 452.00,929.00              461.73,916.14 467.30,913.19 483.00,916.00              483.03,907.28 484.21,895.80 490.21,889.04              494.16,884.59 500.84,881.10 506.00,878.00              506.00,878.00 506.00,876.00 506.00,876.00              496.65,871.50 481.65,862.35 471.00,866.26              464.21,868.75 461.39,875.38 457.65,881.00              451.45,890.30 447.82,894.18 440.00,902.00              441.77,894.22 446.12,885.15 449.76,878.00              453.19,871.24 457.52,864.78 462.44,859.00              466.59,854.13 473.03,848.91 479.00,846.47              492.89,840.80 513.94,844.85 527.00,851.37              527.00,851.37 550.00,866.00 550.00,866.00              550.00,855.76 549.53,845.72 553.45,836.00              554.93,832.33 557.09,828.17 559.68,825.17              576.95,805.16 610.67,816.04 630.00,827.00              617.04,829.04 615.80,821.11 602.00,823.21              587.81,825.37 579.85,842.16 575.20,854.00              573.48,858.39 570.69,864.33 572.00,869.00              580.88,856.51 598.51,835.75 614.00,832.52              619.36,831.40 624.48,832.82 629.00,835.76              640.21,843.06 644.37,857.08 643.96,870.00              643.96,870.00 643.00,879.00 643.00,879.00              643.00,879.00 641.00,879.00 641.00,879.00              640.39,871.71 637.49,862.47 631.82,857.53              622.48,849.41 608.88,853.54 600.01,860.16              588.58,868.71 584.30,882.09 580.00,895.00              588.82,894.28 595.34,891.95 603.00,887.57              610.84,883.09 615.55,878.24 625.00,878.01              638.30,877.69 656.22,886.21 665.00,896.00              658.20,896.00 650.80,894.88 645.00,899.00              662.61,901.88 668.55,921.33 673.33,936.00              675.61,942.98 678.06,950.74 676.00,958.00              674.29,952.00 670.49,945.16 666.97,940.00              653.74,920.60 637.14,912.74 614.00,913.00              604.91,913.11 594.67,915.85 591.00,925.00              594.37,925.96 597.06,927.13 600.00,929.10              619.56,942.26 601.61,967.31 592.00,981.00              590.93,975.32 587.69,954.70 585.27,951.04              581.20,944.90 571.03,941.63 564.00,941.00              564.00,941.00 570.72,985.00 570.72,985.00              574.74,1015.84 577.05,1046.91 577.00,1078.00              577.00,1078.00 576.00,1094.00 576.00,1094.00              575.94,1106.50 573.58,1123.43 571.73,1136.00              570.96,1141.25 566.67,1154.83 569.02,1158.85              571.21,1162.58 581.72,1162.69 586.00,1162.98              599.25,1163.87 617.36,1167.55 630.00,1171.67              643.52,1176.08 654.99,1180.96 667.00,1188.69              667.00,1188.69 685.00,1201.41 685.00,1201.41              686.99,1202.12 689.87,1202.00 692.00,1202.00              692.00,1202.00 824.00,1202.00 824.00,1202.00              824.00,1202.00 816.69,1181.00 816.69,1181.00              816.69,1181.00 808.65,1153.00 808.65,1153.00              808.65,1153.00 800.84,1096.00 800.84,1096.00              800.84,1096.00 797.00,1054.00 797.00,1054.00              797.00,1054.00 796.00,1039.00 796.00,1039.00              795.42,989.02 803.19,948.70 826.26,904.00              826.26,904.00 841.14,878.00 841.14,878.00              841.14,878.00 868.86,824.00 868.86,824.00              875.71,808.50 882.20,792.17 882.00,775.00              881.88,765.63 879.75,766.11 878.38,760.00              877.05,754.06 877.08,750.20 874.77,744.00              868.41,726.92 854.92,708.98 839.00,699.87              832.00,695.87 825.22,692.72 817.00,693.04              817.00,693.04 806.00,694.00 806.00,694.00              806.00,694.00 788.00,694.00 788.00,694.00              788.00,694.00 775.00,695.00 775.00,695.00              775.00,695.00 761.00,695.00 761.00,695.00              761.00,695.00 745.00,696.00 745.00,696.00              737.31,696.01 725.06,695.28 718.00,697.00              718.00,697.00 704.75,669.00 704.75,669.00              704.75,669.00 699.07,655.58 699.07,655.58              699.07,655.58 701.00,647.00 701.00,647.00              687.23,646.70 687.61,644.23 681.01,633.00              679.92,631.15 676.27,625.48 676.38,623.58              676.53,621.08 684.68,611.55 686.65,609.00              686.65,609.00 710.40,579.00 710.40,579.00              713.42,575.22 717.60,568.84 722.04,567.02              722.04,567.02 732.00,564.37 732.00,564.37              752.46,559.26 753.75,559.86 774.00,557.83              774.00,557.83 805.00,554.96 805.00,554.96              805.00,554.96 814.00,554.96 814.00,554.96              814.00,554.96 848.00,550.28 848.00,550.28              848.00,550.28 874.00,546.65 874.00,546.65              879.30,545.23 895.24,534.34 901.00,530.81              904.32,528.77 909.75,526.15 911.70,522.82              911.70,522.82 919.93,497.43 919.93,497.43              921.08,495.96 922.32,495.50 924.02,494.93              924.02,494.93 974.00,483.13 974.00,483.13              979.09,481.86 1000.27,476.37 1004.00,476.63              1004.00,476.63 1027.00,481.79 1027.00,481.79              1030.88,482.63 1044.26,485.42 1047.00,486.92              1047.00,486.92 1077.00,511.25 1077.00,511.25              1077.00,511.25 1100.49,531.17 1100.49,531.17              1100.49,531.17 1123.71,564.00 1123.71,564.00              1133.58,577.78 1146.93,594.61 1151.57,611.00              1154.46,621.20 1154.12,626.64 1154.00,637.00              1154.00,637.00 1146.00,692.00 1146.00,692.00              1145.91,750.03 1135.00,807.40 1128.84,865.00              1128.84,865.00 1124.04,907.00 1124.04,907.00              1124.04,907.00 1124.04,917.00 1124.04,917.00              1124.04,917.00 1123.00,927.00 1123.00,927.00              1123.00,927.00 1123.00,932.00 1123.00,932.00              1123.01,936.38 1123.73,947.29 1125.57,950.98              1127.81,955.47 1130.84,956.52 1135.00,953.57              1146.17,945.64 1161.40,917.75 1168.31,905.00              1168.31,905.00 1180.46,882.00 1180.46,882.00              1180.46,882.00 1211.29,842.09 1211.29,842.09              1211.29,842.09 1233.00,822.85 1233.00,822.85              1245.49,811.85 1255.87,802.22 1271.00,794.66              1271.00,794.66 1300.00,783.57 1300.00,783.57              1300.00,783.57 1320.00,772.40 1320.00,772.40              1320.00,772.40 1332.73,764.39 1332.73,764.39              1336.60,760.83 1343.30,742.01 1346.37,736.00              1349.03,730.81 1368.66,705.59 1373.09,701.04              1380.14,693.79 1406.69,673.96 1416.00,667.29              1440.17,649.99 1442.19,646.71 1470.00,634.58              1470.00,634.58 1483.00,628.79 1483.00,628.79              1483.00,628.79 1515.83,623.94 1515.83,623.94              1515.83,623.94 1563.00,627.42 1563.00,627.42              1563.00,627.42 1584.00,630.00 1584.00,630.00 Z            M 469.00,364.00            C 469.00,364.00 468.00,364.00 468.00,364.00              468.00,364.00 469.00,365.00 469.00,365.00              469.00,365.00 469.00,364.00 469.00,364.00 Z            M 532.00,381.00            C 532.00,381.00 531.00,381.00 531.00,381.00              531.00,381.00 532.00,382.00 532.00,382.00              532.00,382.00 532.00,381.00 532.00,381.00 Z            M 407.00,569.00            C 407.00,569.00 385.22,528.00 385.22,528.00              385.22,528.00 357.75,476.00 357.75,476.00              357.75,476.00 344.74,451.00 344.74,451.00              343.55,448.69 340.09,443.22 339.96,441.00              339.79,438.28 341.83,435.97 343.44,434.00              345.57,431.39 355.16,420.25 357.42,419.01              360.66,417.24 364.88,419.42 368.00,420.58              368.00,420.58 393.00,429.31 393.00,429.31              393.00,429.31 435.00,443.69 435.00,443.69              435.00,443.69 496.00,465.00 496.00,465.00              494.34,469.86 492.68,471.18 489.42,475.00              486.75,478.13 479.78,487.29 476.00,487.89              473.45,488.29 457.55,482.24 454.00,480.95              451.75,480.13 448.53,478.50 446.17,479.35              443.74,480.22 438.46,486.81 436.58,489.00              436.58,489.00 415.75,513.00 415.75,513.00              414.60,514.44 413.10,516.10 412.83,518.00              412.50,520.33 414.74,523.98 415.86,526.00              417.66,529.24 425.45,542.39 425.72,545.00              426.05,548.18 423.46,550.74 421.57,553.00              417.53,557.86 411.63,564.96 407.00,569.00 Z            M 375.00,451.00            C 375.00,451.00 374.00,451.00 374.00,451.00              374.00,451.00 375.00,452.00 375.00,452.00              375.00,452.00 375.00,451.00 375.00,451.00 Z            M 421.00,469.00            C 421.00,469.00 394.00,458.32 394.00,458.32              394.00,458.32 375.00,452.00 375.00,452.00              375.00,452.00 398.00,495.00 398.00,495.00              404.11,490.61 417.15,475.59 421.00,469.00 Z            M 1720.00,452.00            C 1720.00,452.00 1732.42,469.00 1732.42,469.00              1732.42,469.00 1756.00,503.00 1756.00,503.00              1761.96,511.94 1768.57,522.73 1767.68,534.00              1766.37,550.47 1756.11,563.99 1739.00,565.83              1731.73,566.61 1726.80,565.22 1720.00,563.00              1721.28,572.68 1722.23,579.87 1717.62,589.00              1708.80,606.49 1684.14,612.87 1667.00,604.67              1658.61,600.66 1653.05,593.28 1647.63,586.00              1647.63,586.00 1627.66,558.00 1627.66,558.00              1627.66,558.00 1614.34,539.00 1614.34,539.00              1613.06,537.13 1610.04,533.28 1610.16,531.04              1610.31,528.00 1614.75,525.54 1617.00,523.98              1617.00,523.98 1637.00,509.98 1637.00,509.98              1637.00,509.98 1720.00,452.00 1720.00,452.00 Z            M 1717.00,489.00            C 1717.00,489.00 1701.00,500.02 1701.00,500.02              1699.13,501.32 1695.00,503.98 1694.32,506.17              1693.43,509.04 1698.07,514.64 1699.72,517.00              1705.43,525.16 1714.55,541.29 1725.00,542.44              1732.83,543.31 1746.28,534.41 1738.48,520.00              1738.48,520.00 1729.98,507.00 1729.98,507.00              1729.98,507.00 1717.00,489.00 1717.00,489.00 Z            M 1095.00,640.00            C 1081.66,634.05 1058.95,618.52 1060.10,602.00              1060.82,591.61 1069.95,583.56 1076.97,576.83              1080.44,573.49 1085.55,568.22 1082.97,563.01              1081.98,561.00 1068.67,548.62 1066.00,546.01              1066.00,546.01 1045.00,526.93 1045.00,526.93              1045.00,526.93 1025.00,521.00 1025.00,521.00              1018.78,519.22 1004.82,515.15 999.00,515.01              999.00,515.01 978.00,516.72 978.00,516.72              974.35,517.15 970.53,516.68 967.00,517.85              963.56,519.00 955.50,524.40 952.00,526.58              952.00,526.58 923.00,544.81 923.00,544.81              920.24,546.52 913.64,549.89 912.92,553.10              912.35,555.70 918.06,570.86 919.00,575.00              923.77,573.41 941.84,568.08 944.59,565.49              947.28,562.96 951.92,549.98 953.00,546.00              958.28,547.95 961.58,550.47 966.00,553.89              980.41,565.03 989.93,579.21 986.19,598.00              984.60,606.03 981.70,611.25 975.00,616.24              962.17,625.78 942.39,625.98 927.00,626.00              927.00,626.00 906.00,627.00 906.00,627.00              906.00,627.00 903.72,607.00 903.72,607.00              903.35,604.10 902.46,600.90 904.60,598.43              906.98,595.67 911.75,595.78 915.00,596.53              922.50,598.25 928.24,604.55 936.00,607.00              936.00,607.00 937.00,606.00 937.00,606.00              932.88,593.57 918.08,583.61 905.00,584.04              900.61,584.19 891.36,587.44 888.72,586.56              884.49,585.16 876.04,576.49 870.00,575.27              865.30,574.33 859.02,575.94 854.00,576.00              854.00,576.00 834.00,576.00 834.00,576.00              834.00,576.00 793.00,577.00 793.00,577.00              783.36,577.02 768.05,580.02 758.00,581.58              758.00,581.58 731.01,585.86 731.01,585.86              724.73,587.65 716.07,600.62 711.80,606.00              710.20,608.02 707.18,611.39 706.98,614.00              706.77,616.64 709.26,619.87 710.67,622.00              715.76,629.71 716.34,633.93 726.00,634.00              733.50,634.05 748.50,633.15 755.00,635.00              755.00,635.00 728.00,648.00 728.00,648.00              728.00,648.00 734.00,678.00 734.00,678.00              734.00,678.00 748.00,677.09 748.00,677.09              748.00,677.09 795.00,673.96 795.00,673.96              801.66,673.67 808.27,672.33 815.00,672.97              826.33,674.06 856.66,684.46 868.00,689.00              868.00,689.00 889.00,697.78 889.00,697.78              889.00,697.78 922.00,693.27 922.00,693.27              922.00,693.27 989.00,683.00 989.00,683.00              989.00,683.00 972.00,692.25 972.00,692.25              972.00,692.25 938.00,708.69 938.00,708.69              938.00,708.69 918.00,719.00 918.00,719.00              926.36,719.00 934.84,719.65 943.00,717.63              950.43,715.78 964.20,710.44 971.00,711.00              971.00,711.00 938.00,731.32 938.00,731.32              938.00,731.32 918.00,745.00 918.00,745.00              918.00,745.00 928.00,745.00 928.00,745.00              942.57,744.82 962.28,734.17 978.00,731.00              974.43,737.51 969.02,740.33 963.00,744.33              963.00,744.33 932.00,763.67 932.00,763.67              927.72,766.51 920.47,770.70 917.93,775.01              917.93,775.01 911.58,794.00 911.58,794.00              911.58,794.00 895.74,830.00 895.74,830.00              876.81,869.11 859.88,908.46 846.98,950.00              838.29,977.95 832.96,999.72 830.04,1029.00              830.04,1029.00 830.04,1039.00 830.04,1039.00              830.04,1039.00 829.00,1052.00 829.00,1052.00              829.00,1052.00 830.04,1062.00 830.04,1062.00              830.04,1062.00 830.04,1072.00 830.04,1072.00              831.91,1090.25 835.25,1108.14 839.35,1126.00              839.35,1126.00 844.59,1152.00 844.59,1152.00              848.21,1173.60 849.09,1187.66 862.90,1206.00              885.82,1236.46 933.54,1267.97 970.00,1279.66              985.87,1284.74 1001.59,1284.73 1008.00,1286.63              1008.00,1286.63 1038.00,1300.00 1038.00,1300.00              1040.10,1295.48 1044.87,1280.13 1048.27,1278.02              1052.09,1275.65 1070.59,1278.18 1074.82,1276.40              1078.37,1274.91 1082.64,1266.57 1084.00,1263.00              1084.00,1263.00 1086.00,1263.00 1086.00,1263.00              1086.00,1263.00 1105.18,1291.68 1105.18,1291.68              1105.18,1291.68 1127.00,1307.00 1127.00,1307.00              1127.00,1307.00 1135.00,1281.00 1135.00,1281.00              1135.00,1281.00 1167.00,1289.37 1167.00,1289.37              1167.00,1289.37 1186.00,1293.79 1186.00,1293.79              1189.84,1293.96 1195.72,1291.17 1198.30,1288.37              1200.66,1285.80 1202.40,1278.51 1203.42,1275.00              1203.42,1275.00 1211.00,1252.00 1211.00,1252.00              1211.00,1252.00 1217.33,1233.00 1217.33,1233.00              1218.34,1229.98 1220.01,1226.17 1219.21,1223.00              1218.38,1219.72 1212.53,1212.21 1210.34,1209.00              1210.34,1209.00 1187.00,1174.00 1187.00,1174.00              1187.00,1174.00 1206.90,1176.02 1206.90,1176.02              1206.90,1176.02 1214.85,1187.00 1214.85,1187.00              1214.85,1187.00 1228.00,1209.00 1228.00,1209.00              1238.98,1195.95 1238.06,1188.72 1241.20,1173.00              1241.89,1169.53 1242.59,1159.96 1246.23,1158.98              1247.76,1158.27 1250.42,1158.89 1252.00,1158.98              1254.22,1159.63 1257.76,1160.14 1259.42,1161.73              1261.07,1163.32 1261.59,1166.79 1262.13,1169.00              1262.13,1169.00 1266.13,1185.00 1266.13,1185.00              1266.13,1185.00 1272.87,1213.00 1272.87,1213.00              1273.80,1216.70 1276.62,1226.83 1276.66,1230.00              1276.66,1230.00 1276.00,1236.00 1276.00,1236.00              1276.00,1236.00 1276.00,1245.00 1276.00,1245.00              1276.00,1245.00 1275.00,1258.00 1275.00,1258.00              1274.97,1262.90 1273.17,1273.88 1274.29,1277.79              1275.62,1282.42 1284.20,1284.61 1287.79,1287.63              1291.07,1290.40 1298.05,1303.64 1300.00,1308.00              1300.00,1308.00 1302.00,1308.00 1302.00,1308.00              1302.00,1308.00 1316.00,1293.00 1316.00,1293.00              1316.00,1293.00 1314.00,1325.00 1314.00,1325.00              1314.00,1325.00 1327.00,1320.00 1327.00,1320.00              1326.32,1323.64 1322.58,1336.91 1324.11,1339.51              1325.92,1342.58 1338.02,1345.63 1341.90,1348.65              1346.45,1352.18 1350.79,1365.23 1353.28,1371.00              1354.19,1373.10 1356.66,1378.56 1356.92,1380.58              1357.23,1382.93 1355.51,1388.46 1354.87,1391.00              1354.87,1391.00 1349.58,1411.00 1349.58,1411.00              1348.78,1413.86 1346.56,1419.94 1347.61,1422.68              1349.90,1428.66 1363.70,1431.20 1364.01,1440.00              1364.01,1440.00 1362.15,1457.00 1362.15,1457.00              1362.15,1457.00 1357.15,1497.00 1357.15,1497.00              1357.15,1497.00 1353.15,1529.00 1353.15,1529.00              1353.15,1529.00 1350.91,1545.00 1350.91,1545.00              1350.91,1545.00 1342.81,1566.00 1342.81,1566.00              1342.81,1566.00 1324.32,1614.00 1324.32,1614.00              1324.32,1614.00 1316.00,1637.00 1316.00,1637.00              1316.00,1637.00 1292.00,1629.72 1292.00,1629.72              1288.89,1628.78 1282.78,1627.46 1280.51,1625.30              1277.69,1622.62 1276.97,1613.06 1276.20,1609.00              1276.20,1609.00 1268.39,1565.00 1268.39,1565.00              1268.39,1565.00 1262.92,1534.00 1262.92,1534.00              1262.50,1531.54 1261.06,1522.10 1259.83,1520.57              1258.23,1518.58 1254.33,1519.00 1252.00,1519.00              1252.00,1519.00 1191.00,1519.00 1191.00,1519.00              1191.00,1519.00 1191.00,1536.00 1191.00,1536.00              1191.00,1536.00 1191.96,1548.00 1191.96,1548.00              1191.96,1548.00 1191.96,1563.00 1191.96,1563.00              1191.96,1563.00 1193.00,1578.00 1193.00,1578.00              1193.00,1578.00 1194.00,1605.00 1194.00,1605.00              1194.00,1605.00 1194.96,1616.00 1194.96,1616.00              1194.96,1616.00 1197.00,1646.00 1197.00,1646.00              1197.00,1646.00 1307.00,1646.00 1307.00,1646.00              1320.43,1645.98 1332.51,1637.52 1344.00,1631.31              1344.00,1631.31 1370.00,1616.99 1370.00,1616.99              1373.12,1615.16 1379.29,1611.96 1380.98,1608.90              1382.20,1606.69 1382.00,1603.48 1382.00,1601.00              1382.00,1601.00 1382.00,1560.00 1382.00,1560.00              1382.00,1560.00 1384.83,1529.00 1384.83,1529.00              1384.83,1529.00 1388.43,1488.00 1388.43,1488.00              1388.43,1488.00 1395.00,1439.00 1395.00,1439.00              1395.00,1439.00 1395.00,1412.00 1395.00,1412.00              1395.00,1412.00 1393.28,1386.00 1393.28,1386.00              1393.28,1386.00 1416.42,1345.00 1416.42,1345.00              1416.94,1342.43 1415.69,1335.88 1415.27,1333.00              1415.27,1333.00 1409.33,1301.00 1409.33,1301.00              1408.89,1295.66 1414.55,1279.44 1416.00,1273.00              1416.00,1273.00 1437.00,1277.61 1437.00,1277.61              1437.00,1277.61 1457.00,1287.76 1457.00,1287.76              1462.24,1290.42 1472.90,1298.28 1478.00,1298.17              1478.00,1298.17 1493.00,1295.21 1493.00,1295.21              1501.94,1293.31 1515.90,1290.33 1524.00,1286.46              1524.00,1286.46 1537.00,1277.75 1537.00,1277.75              1541.06,1275.53 1549.33,1273.43 1554.00,1271.98              1559.91,1270.14 1567.87,1267.24 1574.00,1267.04              1585.22,1266.69 1593.62,1278.61 1601.00,1286.00              1603.50,1288.51 1608.10,1292.12 1607.72,1296.00              1607.59,1297.35 1606.38,1299.76 1605.74,1301.00              1599.89,1312.23 1589.26,1310.48 1584.60,1315.65              1581.37,1319.22 1584.41,1326.61 1581.98,1330.68              1580.80,1332.64 1576.94,1335.19 1575.00,1336.63              1575.00,1336.63 1560.00,1347.48 1560.00,1347.48              1554.47,1351.19 1546.07,1355.95 1540.00,1358.69              1540.00,1358.69 1526.00,1364.01 1526.00,1364.01              1512.85,1369.46 1498.35,1378.34 1490.00,1390.00              1490.00,1390.00 1597.00,1390.00 1597.00,1390.00              1599.26,1390.00 1602.54,1390.24 1604.48,1389.01              1606.72,1387.59 1609.56,1382.39 1611.00,1380.00              1611.00,1380.00 1622.72,1360.00 1622.72,1360.00              1636.28,1336.15 1648.25,1311.41 1658.60,1286.00              1661.95,1277.78 1669.75,1259.99 1671.00,1252.00              1665.40,1249.30 1657.88,1244.61 1653.02,1240.76              1650.51,1238.78 1647.54,1236.45 1647.36,1232.99              1647.10,1228.13 1652.51,1223.55 1656.00,1220.90              1658.88,1218.71 1660.78,1217.58 1664.00,1216.00              1664.00,1216.00 1648.39,1183.00 1648.39,1183.00              1647.12,1176.99 1650.65,1168.40 1653.26,1163.00              1654.45,1160.53 1657.41,1155.63 1657.01,1153.00              1656.64,1150.51 1653.90,1147.88 1652.28,1146.00              1652.28,1146.00 1639.91,1132.01 1639.91,1132.01              1638.47,1130.49 1634.33,1125.81 1631.98,1127.88              1630.77,1128.96 1630.23,1134.30 1630.00,1136.00              1630.00,1136.00 1626.87,1157.00 1626.87,1157.00              1626.87,1157.00 1623.00,1189.00 1623.00,1189.00              1622.98,1199.27 1624.07,1219.12 1620.10,1228.00              1618.30,1232.01 1609.30,1246.03 1605.83,1247.98              1603.64,1249.21 1600.46,1249.00 1598.00,1249.00              1598.00,1249.00 1583.00,1249.00 1583.00,1249.00              1583.00,1249.00 1588.75,1218.00 1588.75,1218.00              1592.57,1203.52 1597.98,1189.16 1598.00,1174.00              1598.00,1174.00 1599.00,1146.00 1599.00,1146.00              1599.00,1146.00 1600.04,1130.00 1600.04,1130.00              1600.04,1130.00 1600.04,1122.00 1600.04,1122.00              1600.63,1114.05 1602.08,1112.02 1595.00,1106.00              1595.00,1106.00 1587.57,1141.00 1587.57,1141.00              1587.57,1141.00 1568.00,1162.00 1568.00,1162.00              1568.00,1162.00 1569.00,1148.00 1569.00,1148.00              1569.00,1148.00 1570.00,1099.00 1570.00,1099.00              1570.00,1099.00 1571.00,1082.00 1571.00,1082.00              1571.00,1082.00 1571.00,1065.00 1571.00,1065.00              1571.00,1065.00 1572.00,1049.00 1572.00,1049.00              1572.00,1049.00 1573.00,1001.00 1573.00,1001.00              1573.00,1001.00 1574.00,986.00 1574.00,986.00              1574.00,986.00 1574.00,960.00 1574.00,960.00              1574.11,951.96 1579.46,941.55 1582.72,934.00              1583.94,931.17 1587.05,923.23 1588.70,921.22              1592.22,916.93 1598.93,917.39 1602.62,914.86              1605.18,913.11 1608.49,906.85 1610.20,904.00              1611.75,901.41 1613.39,898.84 1614.44,896.00              1618.41,885.27 1618.17,874.64 1625.79,864.00              1629.26,859.15 1634.70,854.12 1640.00,851.33              1644.12,849.16 1648.30,849.01 1651.83,845.77              1654.87,842.98 1658.87,836.58 1661.35,833.00              1661.35,833.00 1668.86,823.00 1668.86,823.00              1670.75,819.51 1671.89,809.16 1671.99,805.00              1672.22,794.62 1667.24,785.71 1664.00,776.00              1664.00,776.00 1661.00,780.00 1661.00,780.00              1661.00,780.00 1659.00,780.00 1659.00,780.00              1659.00,780.00 1648.00,764.00 1648.00,764.00              1648.00,764.00 1643.00,782.00 1643.00,782.00              1643.00,782.00 1630.00,776.00 1630.00,776.00              1630.00,776.00 1624.00,797.00 1624.00,797.00              1616.22,791.38 1602.31,773.21 1595.58,765.00              1595.58,765.00 1569.83,733.04 1569.83,733.04              1569.83,733.04 1546.00,711.72 1546.00,711.72              1546.00,711.72 1530.00,696.00 1530.00,696.00              1527.42,693.44 1524.66,690.21 1521.00,689.37              1518.93,688.81 1516.10,689.13 1514.00,689.37              1500.94,691.23 1496.69,699.90 1486.00,706.15              1486.00,706.15 1460.00,713.64 1460.00,713.64              1455.80,715.50 1446.50,723.81 1442.00,727.08              1442.00,727.08 1409.00,746.00 1409.00,746.00              1405.57,747.95 1398.10,750.95 1397.42,755.09              1396.84,758.56 1403.57,772.03 1405.28,776.00              1405.28,776.00 1419.81,808.00 1419.81,808.00              1419.81,808.00 1429.37,821.00 1429.37,821.00              1429.37,821.00 1443.00,839.00 1443.00,839.00              1444.24,840.74 1447.68,845.10 1447.98,847.00              1448.43,849.85 1443.65,854.92 1442.00,858.00              1442.00,858.00 1418.00,842.34 1418.00,842.34              1418.00,842.34 1412.00,844.00 1412.00,844.00              1415.17,846.00 1426.38,853.57 1427.98,856.30              1429.33,858.62 1429.09,863.35 1428.83,866.00              1428.26,872.00 1426.08,880.82 1419.83,883.40              1418.22,884.06 1415.74,883.99 1414.00,884.00              1401.53,884.08 1402.51,883.60 1391.00,879.00              1392.29,882.37 1396.52,890.10 1399.52,892.01              1401.86,893.50 1409.01,892.99 1412.00,893.00              1412.00,893.00 1424.00,893.68 1424.00,893.68              1424.00,893.68 1434.00,893.00 1434.00,893.00              1434.00,893.00 1451.00,893.00 1451.00,893.00              1451.00,893.00 1466.00,892.00 1466.00,892.00              1477.27,891.94 1498.81,889.11 1509.00,892.00              1504.07,893.88 1489.93,902.49 1486.63,906.32              1484.92,908.31 1482.97,912.53 1481.76,915.00              1479.89,918.80 1477.85,922.63 1478.36,927.00              1478.36,927.00 1484.00,947.00 1484.00,947.00              1484.00,947.00 1473.00,945.33 1473.00,945.33              1473.00,945.33 1429.00,934.37 1429.00,934.37              1422.24,932.68 1411.08,931.38 1406.04,926.86              1406.04,926.86 1388.96,908.00 1388.96,908.00              1383.90,902.73 1376.70,897.67 1372.63,892.00              1372.63,892.00 1364.36,876.32 1364.36,876.32              1364.36,876.32 1339.00,856.63 1339.00,856.63              1339.00,856.63 1323.00,844.37 1323.00,844.37              1321.25,843.05 1316.99,839.60 1315.00,839.25              1311.24,838.58 1306.46,844.54 1304.00,847.00              1304.00,847.00 1279.00,871.00 1279.00,871.00              1279.00,871.00 1252.00,898.00 1252.00,898.00              1248.94,901.06 1240.76,908.73 1238.98,912.00              1235.94,917.59 1236.89,927.88 1237.92,934.00              1240.39,948.69 1247.59,962.31 1256.66,974.00              1256.66,974.00 1272.00,992.00 1272.00,992.00              1257.64,991.99 1256.60,989.07 1244.00,983.58              1240.55,982.07 1235.54,979.19 1232.00,978.81              1221.02,977.65 1215.27,986.00 1215.01,996.00              1214.72,1007.47 1219.15,1010.92 1225.58,1020.00              1225.58,1020.00 1240.72,1042.00 1240.72,1042.00              1240.72,1042.00 1249.02,1054.00 1249.02,1054.00              1250.08,1055.63 1251.82,1057.85 1251.42,1059.91              1250.90,1062.60 1242.39,1068.92 1240.00,1071.00              1240.00,1071.00 1216.00,1050.25 1216.00,1050.25              1216.00,1050.25 1194.00,1033.00 1194.00,1033.00              1197.05,1044.60 1200.96,1051.45 1201.00,1064.00              1193.37,1063.12 1192.08,1059.35 1186.00,1055.00              1187.91,1061.70 1191.59,1066.90 1194.74,1073.00              1194.74,1073.00 1209.31,1102.00 1209.31,1102.00              1211.20,1105.50 1218.94,1118.87 1219.05,1122.00              1219.17,1125.44 1215.29,1128.76 1213.00,1130.98              1211.09,1132.83 1209.40,1134.47 1207.00,1135.70              1199.18,1139.69 1186.54,1138.72 1179.00,1134.68              1168.32,1128.95 1162.37,1118.18 1158.74,1107.00              1158.74,1107.00 1154.00,1091.00 1154.00,1091.00              1154.00,1091.00 1152.00,1094.00 1152.00,1094.00              1152.00,1094.00 1152.00,1089.00 1152.00,1089.00              1145.40,1088.68 1146.28,1084.42 1141.00,1086.13              1132.25,1088.96 1119.61,1102.25 1108.00,1100.00              1108.00,1100.00 1109.00,1096.00 1109.00,1096.00              1109.00,1096.00 1090.00,1104.58 1090.00,1104.58              1070.81,1111.82 1036.17,1119.61 1016.00,1116.00              1016.00,1116.00 1016.00,1114.00 1016.00,1114.00              1016.00,1114.00 1038.00,1103.31 1038.00,1103.31              1038.00,1103.31 1073.00,1087.25 1073.00,1087.25              1078.21,1084.65 1090.39,1079.15 1092.78,1073.96              1095.07,1069.01 1087.61,1059.15 1084.00,1056.00              1077.28,1064.87 1065.41,1065.64 1055.00,1065.26              1055.00,1065.26 1024.00,1062.73 1024.00,1062.73              1024.00,1062.73 1000.00,1059.00 1000.00,1059.00              1000.00,1059.00 1000.00,1057.00 1000.00,1057.00              1000.00,1057.00 1017.00,1054.16 1017.00,1054.16              1017.00,1054.16 1052.00,1050.20 1052.00,1050.20              1057.16,1049.20 1066.24,1047.56 1068.22,1041.96              1070.14,1036.52 1063.60,1028.63 1061.00,1024.00              1058.42,1025.55 1055.90,1027.30 1053.00,1028.18              1042.38,1031.49 1022.33,1029.27 1011.00,1028.18              1003.61,1027.45 996.05,1027.57 989.00,1025.00              998.27,1023.75 1034.62,1016.74 1042.00,1013.53              1047.83,1011.00 1053.95,1003.56 1045.89,999.02              1043.73,997.81 1040.44,998.00 1038.00,998.00              1026.82,997.98 1001.26,1000.63 992.00,998.00              992.00,998.00 1026.00,990.37 1026.00,990.37              1026.00,990.37 1041.00,986.15 1041.00,986.15              1041.00,986.15 1056.00,971.00 1056.00,971.00              1056.00,971.00 1023.00,968.00 1023.00,968.00              1023.00,968.00 1044.57,953.39 1044.57,953.39              1044.57,953.39 1048.37,944.00 1048.37,944.00              1048.37,944.00 1050.44,933.00 1050.44,933.00              1050.44,933.00 1036.00,907.00 1036.00,907.00              1040.86,906.59 1060.43,901.88 1064.00,899.44              1067.29,897.18 1076.79,885.72 1080.00,882.00              1088.86,871.74 1092.98,870.19 1093.00,856.00              1093.00,856.00 1094.00,832.00 1094.00,832.00              1094.00,832.00 1095.00,816.00 1095.00,816.00              1065.82,831.59 1046.53,834.05 1014.00,834.00              1006.80,833.99 999.92,833.00 993.00,831.00              993.00,831.00 1033.00,817.67 1033.00,817.67              1033.00,817.67 1062.00,807.05 1062.00,807.05              1062.00,807.05 1096.00,795.00 1096.00,795.00              1096.00,795.00 1095.00,784.00 1095.00,784.00              1095.00,784.00 1072.00,791.95 1072.00,791.95              1072.00,791.95 1032.00,806.05 1032.00,806.05              1032.00,806.05 1000.00,817.00 1000.00,817.00              1000.00,817.00 1033.00,787.00 1033.00,787.00              1033.00,787.00 1015.00,789.99 1015.00,789.99              1008.90,790.12 1002.65,789.41 998.11,784.79              996.77,783.42 995.66,782.03 996.20,780.00              997.01,776.92 1009.88,766.33 1013.00,763.80              1028.80,751.04 1044.01,743.28 1063.00,736.43              1069.51,734.09 1087.45,730.43 1091.57,726.36              1095.01,722.97 1093.06,719.72 1092.93,716.00              1092.87,711.60 1095.51,704.62 1092.93,697.00              1087.94,682.55 1070.72,677.70 1057.00,676.17              1050.74,675.47 1042.52,675.55 1037.00,673.00              1037.00,673.00 1076.00,652.14 1076.00,652.14              1076.00,652.14 1095.00,642.00 1095.00,642.00              1095.00,642.00 1095.00,640.00 1095.00,640.00 Z            M 340.00,671.00            C 340.00,671.00 310.00,649.88 310.00,649.88              310.00,649.88 260.00,613.58 260.00,613.58              260.00,613.58 239.00,598.37 239.00,598.37              237.18,597.03 231.96,593.55 231.16,591.68              230.14,589.29 232.05,586.89 233.31,585.00              233.31,585.00 244.85,569.00 244.85,569.00              252.98,557.85 268.08,535.94 277.01,527.01              283.96,520.08 293.84,514.45 304.00,515.18              324.80,516.69 342.82,532.16 341.96,554.00              341.69,560.83 339.49,566.74 337.00,573.00              344.62,570.46 347.78,569.04 356.00,569.00              356.00,569.00 375.00,569.00 375.00,569.00              375.00,569.00 411.00,571.00 411.00,571.00              409.04,577.14 402.15,585.54 398.12,591.00              396.30,593.46 393.81,597.28 390.91,598.20              388.70,599.25 379.46,598.01 376.00,598.20              376.00,598.20 339.00,597.00 339.00,597.00              328.48,597.05 324.31,599.07 317.17,607.00              315.85,608.47 312.27,612.24 312.67,614.33              313.11,616.73 321.76,622.40 324.00,624.00              324.00,624.00 337.00,633.42 337.00,633.42              337.00,633.42 356.00,647.00 356.00,647.00              356.00,647.00 340.00,671.00 340.00,671.00 Z            M 1674.00,520.00            C 1674.00,520.00 1645.00,539.00 1645.00,539.00              1647.47,545.44 1656.88,557.82 1661.29,564.00              1664.86,569.01 1668.46,574.57 1674.00,577.59              1684.24,583.16 1697.43,575.54 1697.95,564.00              1698.29,556.63 1695.63,553.03 1692.00,547.00              1692.00,547.00 1674.00,520.00 1674.00,520.00 Z            M 293.00,601.00            C 293.00,601.00 310.66,576.00 310.66,576.00              313.58,571.53 317.18,566.52 317.26,561.00              317.42,549.95 304.62,540.63 294.00,546.41              289.13,549.07 286.12,553.67 282.87,558.00              278.34,564.04 268.17,576.47 266.00,583.00              266.00,583.00 293.00,601.00 293.00,601.00 Z            M 1686.00,642.00            C 1686.00,642.00 1725.00,621.31 1725.00,621.31              1725.00,621.31 1772.00,596.31 1772.00,596.31              1772.00,596.31 1795.00,584.24 1795.00,584.24              1795.00,584.24 1803.79,580.87 1803.79,580.87              1803.79,580.87 1808.76,587.00 1808.76,587.00              1808.76,587.00 1818.00,605.00 1818.00,605.00              1818.00,605.00 1792.00,618.69 1792.00,618.69              1792.00,618.69 1751.00,640.31 1751.00,640.31              1751.00,640.31 1720.00,656.00 1720.00,656.00              1720.00,656.00 1741.31,697.00 1741.31,697.00              1741.31,697.00 1751.00,717.00 1751.00,717.00              1747.47,719.01 1734.54,727.02 1731.18,726.19              1727.29,725.23 1721.23,710.93 1719.00,707.00              1719.00,707.00 1696.74,665.00 1696.74,665.00              1693.04,657.83 1687.49,649.93 1686.00,642.00 Z            M 1585.00,630.00            C 1585.00,630.00 1584.00,630.00 1584.00,630.00              1584.00,630.00 1585.00,631.00 1585.00,631.00              1585.00,631.00 1585.00,630.00 1585.00,630.00 Z            M 242.00,723.00            C 243.21,715.31 255.35,688.85 259.15,680.00              260.81,676.12 262.63,667.56 268.04,668.68              268.04,668.68 302.00,682.85 302.00,682.85              305.21,684.23 313.00,686.89 314.91,689.41              318.81,694.56 319.07,710.45 319.00,717.00              318.84,730.10 314.45,747.53 308.14,759.00              297.54,778.24 279.72,792.73 257.00,793.00              248.49,793.10 243.48,793.28 235.00,791.55              203.30,785.07 175.78,760.85 175.01,727.00              174.32,696.47 197.66,656.15 232.00,658.09              232.00,658.09 242.00,659.00 242.00,659.00              242.00,659.00 236.00,687.00 236.00,687.00              227.52,687.01 222.17,687.54 215.01,692.79              203.25,701.41 197.23,721.42 203.17,735.00              208.02,746.08 218.28,753.47 229.00,758.27              250.72,767.99 273.01,769.35 286.54,746.00              291.37,737.65 292.11,730.36 292.00,721.00              292.00,721.00 291.00,709.00 291.00,709.00              291.00,709.00 275.00,703.00 275.00,703.00              274.08,707.91 268.83,719.88 266.57,725.00              265.15,728.23 264.09,731.17 259.96,730.32              259.96,730.32 242.00,723.00 242.00,723.00 Z            M 1735.00,745.00            C 1735.00,745.00 1758.00,735.42 1758.00,735.42              1758.00,735.42 1826.00,706.60 1826.00,706.60              1826.00,706.60 1849.00,696.85 1849.00,696.85              1849.00,696.85 1858.79,693.81 1858.79,693.81              1858.79,693.81 1863.42,700.00 1863.42,700.00              1863.42,700.00 1871.00,719.00 1871.00,719.00              1871.00,719.00 1779.00,757.85 1779.00,757.85              1779.00,757.85 1756.00,767.72 1756.00,767.72              1756.00,767.72 1746.39,770.32 1746.39,770.32              1746.39,770.32 1742.15,764.00 1742.15,764.00              1742.15,764.00 1735.00,745.00 1735.00,745.00 Z            M 1824.00,894.00            C 1811.72,894.00 1800.63,892.84 1790.00,885.90              1764.01,868.93 1757.75,828.80 1773.46,803.00              1787.48,779.98 1819.16,769.71 1845.00,770.00              1882.54,770.43 1906.41,799.68 1906.00,836.00              1905.83,850.89 1899.83,865.02 1888.00,874.33              1883.99,877.49 1882.03,878.98 1877.00,880.00              1877.00,880.00 1868.75,864.00 1868.75,864.00              1867.75,861.99 1865.62,858.33 1865.99,856.09              1866.56,852.61 1870.89,851.46 1875.07,845.96              1881.93,836.95 1882.25,827.11 1877.65,817.00              1866.18,791.78 1835.64,797.25 1815.00,805.60              1806.16,809.18 1798.70,813.59 1793.61,822.00              1786.22,834.20 1789.50,850.77 1801.01,859.21              1808.22,864.50 1816.27,865.92 1825.00,866.00              1825.00,866.00 1824.00,894.00 1824.00,894.00 Z            M 188.00,815.64            C 194.98,814.57 198.20,815.03 205.00,815.64              226.92,818.47 247.78,825.12 261.21,844.00              277.86,867.40 273.66,906.44 255.68,928.00              250.05,934.74 243.81,938.95 236.00,942.74              223.57,948.78 213.34,948.15 200.00,948.00              176.69,947.72 150.91,936.21 138.47,916.00              122.76,890.49 130.47,848.54 153.00,829.30              164.15,819.78 174.06,817.53 188.00,815.64 Z            M 188.00,844.29            C 178.76,845.70 172.14,847.50 165.18,854.30              153.98,865.25 151.75,887.09 160.80,900.00              169.63,912.62 188.05,918.82 203.00,919.00              213.25,919.12 220.78,919.39 230.00,913.91              246.52,904.09 252.57,879.93 241.21,864.00              230.50,848.98 205.68,842.63 188.00,844.29 Z            M 531.00,908.00            C 529.64,895.15 517.79,888.42 511.39,894.43              507.35,898.22 506.71,907.63 506.00,913.00              506.00,913.00 519.00,907.39 519.00,907.39              519.00,907.39 531.00,908.00 531.00,908.00 Z            M 522.00,925.00            C 505.80,928.85 506.84,937.39 507.00,951.00              507.06,955.56 507.15,959.28 510.00,963.00              510.29,956.60 513.76,939.69 516.35,934.00              517.82,930.76 520.05,927.95 522.00,925.00 Z            M 482.00,928.00            C 475.75,930.71 473.35,931.82 470.00,938.00              470.00,938.00 489.00,949.00 489.00,949.00              489.00,949.00 482.00,928.00 482.00,928.00 Z            M 442.00,941.21            C 435.80,938.62 424.95,935.49 419.70,941.21              417.11,944.33 415.55,952.11 415.00,956.00              415.00,956.00 427.00,951.08 427.00,951.08              427.00,951.08 437.49,951.08 437.49,951.08              437.49,951.08 442.00,941.21 442.00,941.21 Z            M 548.00,942.00            C 536.12,945.44 519.90,950.02 515.13,963.00              513.84,966.52 513.96,970.31 514.00,974.00              514.10,982.39 517.37,990.13 520.00,998.00              520.00,998.00 530.87,1034.00 530.87,1034.00              539.92,1071.06 545.00,1109.90 545.00,1148.00              545.00,1148.00 554.00,1148.00 554.00,1148.00              554.00,1148.00 557.39,1129.00 557.39,1129.00              557.39,1129.00 560.83,1105.00 560.83,1105.00              565.77,1055.63 566.39,1013.66 554.37,965.00              554.37,965.00 548.00,942.00 548.00,942.00 Z            M 255.00,966.00            C 256.34,969.38 257.01,987.44 257.00,992.00              257.00,993.91 257.12,997.09 256.40,998.82              254.96,1002.27 240.82,1011.34 237.00,1013.98              228.01,1020.17 207.86,1032.52 203.56,1042.00              201.10,1047.42 201.25,1055.22 202.00,1061.00              202.00,1061.00 241.00,1061.00 241.00,1061.00              241.00,1061.00 258.00,1060.00 258.00,1060.00              258.00,1060.00 258.00,1089.00 258.00,1089.00              258.00,1089.00 214.00,1089.00 214.00,1089.00              214.00,1089.00 197.00,1090.00 197.00,1090.00              197.00,1090.00 156.00,1090.00 156.00,1090.00              156.00,1090.00 141.00,1091.00 141.00,1091.00              141.00,1091.00 122.00,1091.00 122.00,1091.00              122.00,1091.00 122.00,1049.00 122.00,1049.00              122.00,1049.00 121.00,1032.00 121.00,1032.00              120.99,1023.39 122.02,1006.69 125.34,999.00              134.80,977.09 167.76,972.45 184.91,987.47              193.56,995.04 193.99,1002.56 198.00,1012.00              200.13,1007.66 202.81,1003.59 206.17,1000.09              214.24,991.68 243.51,973.66 255.00,966.00 Z            M 1845.00,974.42            C 1864.91,971.99 1888.77,974.99 1905.00,987.50              1911.23,992.31 1918.09,999.94 1921.63,1007.00              1933.59,1030.92 1929.54,1068.90 1909.96,1087.91              1895.98,1101.48 1874.96,1106.21 1856.00,1106.00              1841.26,1105.83 1822.74,1101.71 1811.00,1092.48              1796.67,1081.22 1788.09,1064.28 1788.00,1046.00              1788.00,1046.00 1788.00,1033.00 1788.00,1033.00              1788.17,1018.90 1793.72,1004.47 1803.17,994.00              1814.77,981.17 1828.54,976.91 1845.00,974.42 Z            M 1849.00,1003.29            C 1840.72,1004.55 1832.79,1006.05 1826.00,1011.39              1809.78,1024.12 1806.41,1048.75 1821.09,1063.96              1830.60,1073.81 1843.98,1075.89 1857.00,1076.82              1860.34,1077.05 1861.88,1076.48 1865.00,1076.17              1873.89,1075.28 1882.62,1074.10 1890.00,1068.47              1906.42,1055.94 1908.85,1030.34 1894.68,1015.17              1883.81,1003.55 1863.94,1001.89 1849.00,1003.29 Z            M 179.00,1062.00            C 179.00,1062.00 179.00,1044.00 179.00,1044.00              179.00,1044.00 178.09,1033.00 178.09,1033.00              177.67,1026.91 178.64,1021.80 175.56,1016.00              169.85,1005.26 153.15,1005.26 147.44,1016.00              145.47,1019.71 145.05,1023.89 145.00,1028.00              145.00,1028.00 146.00,1062.00 146.00,1062.00              146.00,1062.00 179.00,1062.00 179.00,1062.00 Z            M 1186.00,1054.00            C 1186.00,1054.00 1185.00,1054.00 1185.00,1054.00              1185.00,1054.00 1186.00,1055.00 1186.00,1055.00              1186.00,1055.00 1186.00,1054.00 1186.00,1054.00 Z            M 1125.00,1080.00            C 1125.00,1080.00 1124.00,1080.00 1124.00,1080.00              1124.00,1080.00 1125.00,1081.00 1125.00,1081.00              1125.00,1081.00 1125.00,1080.00 1125.00,1080.00 Z            M 1124.00,1081.00            C 1124.00,1081.00 1123.00,1081.00 1123.00,1081.00              1123.00,1081.00 1124.00,1082.00 1124.00,1082.00              1124.00,1082.00 1124.00,1081.00 1124.00,1081.00 Z            M 1123.00,1082.00            C 1123.00,1082.00 1122.00,1082.00 1122.00,1082.00              1122.00,1082.00 1123.00,1083.00 1123.00,1083.00              1123.00,1083.00 1123.00,1082.00 1123.00,1082.00 Z            M 1122.00,1083.00            C 1122.00,1083.00 1121.00,1083.00 1121.00,1083.00              1121.00,1083.00 1122.00,1084.00 1122.00,1084.00              1122.00,1084.00 1122.00,1083.00 1122.00,1083.00 Z            M 1121.00,1084.00            C 1121.00,1084.00 1120.00,1084.00 1120.00,1084.00              1120.00,1084.00 1121.00,1085.00 1121.00,1085.00              1121.00,1085.00 1121.00,1084.00 1121.00,1084.00 Z            M 1154.00,1084.00            C 1154.00,1084.00 1154.00,1089.00 1154.00,1089.00              1154.00,1089.00 1154.00,1084.00 1154.00,1084.00 Z            M 1120.00,1085.00            C 1120.00,1085.00 1119.00,1085.00 1119.00,1085.00              1119.00,1085.00 1120.00,1086.00 1120.00,1086.00              1120.00,1086.00 1120.00,1085.00 1120.00,1085.00 Z            M 1119.00,1086.00            C 1119.00,1086.00 1118.00,1086.00 1118.00,1086.00              1118.00,1086.00 1119.00,1087.00 1119.00,1087.00              1119.00,1087.00 1119.00,1086.00 1119.00,1086.00 Z            M 1110.00,1095.00            C 1110.00,1095.00 1109.00,1095.00 1109.00,1095.00              1109.00,1095.00 1110.00,1096.00 1110.00,1096.00              1110.00,1096.00 1110.00,1095.00 1110.00,1095.00 Z            M 144.00,1237.00            C 144.00,1237.00 138.59,1209.00 138.59,1209.00              135.37,1189.86 126.69,1161.31 137.96,1144.00              151.57,1123.10 188.80,1119.17 205.70,1138.04              214.50,1147.86 217.14,1163.35 219.42,1176.00              220.54,1182.15 221.86,1187.69 222.00,1194.00              222.00,1194.00 273.00,1186.00 273.00,1186.00              273.00,1186.00 278.00,1213.00 278.00,1213.00              278.00,1213.00 232.00,1221.42 232.00,1221.42              232.00,1221.42 144.00,1237.00 144.00,1237.00 Z            M 1783.00,1127.00            C 1783.00,1127.00 1823.00,1132.58 1823.00,1132.58              1823.00,1132.58 1882.00,1141.92 1882.00,1141.92              1882.00,1141.92 1906.00,1145.73 1906.00,1145.73              1908.27,1146.06 1914.81,1146.62 1916.36,1148.01              1918.01,1149.47 1917.35,1152.10 1917.08,1154.00              1917.08,1154.00 1914.73,1169.00 1914.73,1169.00              1914.73,1169.00 1906.75,1219.00 1906.75,1219.00              1906.23,1222.13 1904.35,1236.81 1902.99,1238.39              1901.35,1240.30 1898.16,1239.42 1896.00,1239.08              1890.56,1238.22 1885.54,1237.12 1880.00,1237.00              1880.00,1237.00 1884.75,1204.00 1884.75,1204.00              1884.75,1204.00 1890.00,1172.00 1890.00,1172.00              1890.00,1172.00 1859.00,1167.00 1859.00,1167.00              1859.00,1167.00 1851.00,1223.00 1851.00,1223.00              1851.00,1223.00 1827.00,1219.00 1827.00,1219.00              1827.00,1219.00 1836.00,1163.00 1836.00,1163.00              1836.00,1163.00 1810.00,1159.27 1810.00,1159.27              1810.00,1159.27 1779.00,1154.00 1779.00,1154.00              1779.00,1154.00 1783.00,1127.00 1783.00,1127.00 Z            M 199.00,1198.00            C 197.17,1187.97 194.84,1167.19 187.81,1160.19              179.57,1151.97 165.91,1154.15 160.01,1164.00              157.70,1167.84 157.96,1171.70 158.00,1176.00              158.00,1176.00 162.00,1205.00 162.00,1205.00              162.00,1205.00 199.00,1198.00 199.00,1198.00 Z            M 837.00,1234.00            C 836.43,1230.95 835.05,1225.87 832.37,1223.99              830.58,1222.75 827.13,1223.00 825.00,1223.00              825.00,1223.00 809.00,1223.00 809.00,1223.00              809.00,1223.00 727.00,1223.00 727.00,1223.00              727.00,1223.00 369.00,1223.00 369.00,1223.00              369.27,1225.97 369.86,1231.12 372.51,1232.98              374.29,1234.23 377.86,1234.00 380.00,1234.00              380.00,1234.00 396.00,1234.00 396.00,1234.00              396.00,1234.00 479.00,1234.00 479.00,1234.00              479.00,1234.00 837.00,1234.00 837.00,1234.00 Z            M 858.00,1269.00            C 858.00,1269.00 848.42,1253.00 848.42,1253.00              848.42,1253.00 843.39,1245.99 843.39,1245.99              843.39,1245.99 836.00,1245.00 836.00,1245.00              836.00,1245.00 739.00,1245.00 739.00,1245.00              739.00,1245.00 376.00,1245.00 376.00,1245.00              376.00,1245.00 380.95,1261.00 380.95,1261.00              380.95,1261.00 384.65,1268.01 384.65,1268.01              384.65,1268.01 392.00,1269.00 392.00,1269.00              392.00,1269.00 491.00,1269.00 491.00,1269.00              491.00,1269.00 858.00,1269.00 858.00,1269.00 Z            M 961.00,1325.00            C 938.94,1312.44 915.03,1303.74 892.00,1293.23              892.00,1293.23 876.00,1285.74 876.00,1285.74              876.00,1285.74 867.00,1280.58 867.00,1280.58              864.94,1279.89 862.18,1280.00 860.00,1280.00              860.00,1280.00 694.00,1280.00 694.00,1280.00              694.00,1280.00 389.00,1280.00 389.00,1280.00              389.00,1280.00 402.22,1312.00 402.22,1312.00              402.22,1312.00 408.63,1324.40 408.63,1324.40              408.63,1324.40 417.00,1326.00 417.00,1326.00              417.00,1326.00 514.00,1326.00 514.00,1326.00              514.00,1326.00 829.00,1326.00 829.00,1326.00              829.00,1326.00 921.00,1326.00 921.00,1326.00              921.00,1326.00 947.00,1326.00 947.00,1326.00              947.00,1326.00 961.00,1325.00 961.00,1325.00 Z            M 1035.00,1390.00            C 1026.80,1375.75 1007.11,1358.64 994.00,1348.42              985.66,1341.92 981.86,1337.02 971.00,1337.00              971.00,1337.00 863.00,1337.00 863.00,1337.00              863.00,1337.00 415.00,1337.00 415.00,1337.00              417.15,1344.38 431.89,1369.19 436.60,1377.00              443.63,1388.65 443.22,1389.98 453.00,1390.00              453.00,1390.00 573.00,1390.00 573.00,1390.00              573.00,1390.00 1035.00,1390.00 1035.00,1390.00 Z            M 1237.00,1388.00            C 1237.00,1388.00 1230.00,1390.00 1230.00,1390.00              1233.19,1389.96 1234.78,1390.47 1237.00,1388.00 Z            M 1066.00,1508.00            C 1066.00,1479.97 1061.74,1451.36 1051.81,1425.00              1050.15,1420.60 1044.52,1404.20 1041.37,1401.99              1039.58,1400.75 1036.13,1401.00 1034.00,1401.00              1034.00,1401.00 452.00,1401.00 452.00,1401.00              463.99,1422.34 499.79,1466.56 516.98,1485.00              521.48,1489.83 534.78,1505.48 540.00,1507.40              541.94,1508.12 544.91,1508.00 547.00,1508.00              547.00,1508.00 1066.00,1508.00 1066.00,1508.00 Z            M 1258.00,1508.00            C 1258.00,1508.00 1243.75,1426.00 1243.75,1426.00              1243.75,1426.00 1240.75,1409.00 1240.75,1409.00              1240.75,1409.00 1238.41,1402.02 1238.41,1402.02              1238.41,1402.02 1231.00,1401.00 1231.00,1401.00              1231.00,1401.00 1197.00,1401.00 1197.00,1401.00              1197.00,1401.00 1195.17,1416.00 1195.17,1416.00              1195.17,1416.00 1192.91,1445.00 1192.91,1445.00              1192.91,1445.00 1192.00,1457.00 1192.00,1457.00              1192.00,1457.00 1191.00,1479.00 1191.00,1479.00              1191.00,1479.00 1191.00,1508.00 1191.00,1508.00              1191.00,1508.00 1258.00,1508.00 1258.00,1508.00 Z            M 1597.00,1401.00            C 1597.00,1401.00 1489.00,1401.00 1489.00,1401.00              1479.61,1401.06 1480.54,1403.52 1475.00,1403.86              1470.31,1404.14 1465.65,1401.75 1461.00,1403.05              1458.24,1403.83 1453.65,1406.67 1451.00,1408.14              1451.00,1408.14 1442.17,1412.96 1442.17,1412.96              1438.89,1415.33 1429.90,1425.33 1428.86,1429.00              1427.33,1432.54 1428.99,1442.27 1428.86,1447.00              1428.86,1447.00 1428.86,1453.00 1428.86,1453.00              1428.98,1464.83 1420.97,1496.08 1417.00,1508.00              1417.00,1508.00 1503.00,1508.00 1503.00,1508.00              1505.65,1507.99 1508.57,1508.19 1511.00,1506.98              1514.72,1505.12 1519.46,1499.20 1522.28,1496.00              1522.28,1496.00 1533.58,1484.00 1533.58,1484.00              1549.89,1465.17 1565.92,1446.29 1580.42,1426.00              1585.67,1418.66 1593.14,1408.91 1597.00,1401.00 Z            M 353.00,1485.00            C 360.54,1490.40 382.74,1516.30 390.97,1525.00              393.99,1528.20 401.11,1537.50 405.00,1538.34              407.19,1538.82 410.01,1537.27 412.00,1536.42              412.00,1536.42 426.00,1530.30 426.00,1530.30              426.00,1530.30 460.00,1515.58 460.00,1515.58              466.24,1512.87 472.35,1509.56 479.00,1508.00              479.00,1508.00 452.69,1558.00 452.69,1558.00              452.69,1558.00 445.14,1572.00 445.14,1572.00              444.03,1574.03 442.25,1576.60 442.50,1579.00              442.88,1582.68 453.26,1593.67 456.13,1597.00              456.13,1597.00 479.92,1625.00 479.92,1625.00              484.16,1630.07 489.27,1634.94 492.00,1641.00              492.00,1641.00 455.00,1633.21 455.00,1633.21              455.00,1633.21 414.00,1624.00 414.00,1624.00              412.27,1629.91 407.83,1636.53 404.72,1642.00              404.72,1642.00 387.85,1672.00 387.85,1672.00              384.23,1678.34 379.17,1689.45 374.00,1694.00              374.00,1694.00 372.17,1676.00 372.17,1676.00              372.17,1676.00 366.00,1612.00 366.00,1612.00              366.00,1612.00 313.00,1598.87 313.00,1598.87              313.00,1598.87 287.00,1591.00 287.00,1591.00              287.00,1591.00 335.00,1570.14 335.00,1570.14              335.00,1570.14 360.00,1560.00 360.00,1560.00              360.00,1560.00 357.17,1530.00 357.17,1530.00              357.17,1530.00 353.00,1485.00 353.00,1485.00 Z            M 1690.00,1488.00            C 1690.00,1488.00 1692.00,1488.00 1692.00,1488.00              1692.00,1488.00 1686.00,1547.00 1686.00,1547.00              1685.63,1551.23 1683.18,1565.65 1685.02,1568.62              1686.97,1571.78 1698.24,1576.87 1702.00,1578.75              1702.00,1578.75 1739.00,1597.76 1739.00,1597.76              1743.38,1599.98 1752.49,1604.09 1755.00,1608.00              1755.00,1608.00 1699.00,1617.75 1699.00,1617.75              1695.16,1618.40 1679.73,1620.53 1677.56,1622.59              1674.79,1625.23 1673.85,1639.60 1673.28,1644.00              1673.28,1644.00 1666.00,1702.00 1666.00,1702.00              1661.97,1699.41 1656.22,1686.79 1653.74,1682.00              1653.74,1682.00 1637.14,1651.00 1637.14,1651.00              1634.16,1645.63 1627.55,1634.32 1626.00,1629.00              1626.00,1629.00 1581.00,1635.27 1581.00,1635.27              1581.00,1635.27 1544.00,1640.00 1544.00,1640.00              1550.18,1631.36 1575.23,1606.87 1584.00,1598.00              1584.00,1598.00 1594.03,1587.01 1594.03,1587.01              1595.59,1585.37 1598.42,1583.14 1598.46,1580.72              1598.49,1579.12 1596.51,1575.53 1595.75,1574.00              1595.75,1574.00 1588.42,1560.00 1588.42,1560.00              1588.42,1560.00 1577.14,1538.00 1577.14,1538.00              1573.51,1531.45 1567.34,1521.14 1566.00,1514.00              1566.00,1514.00 1582.00,1521.69 1582.00,1521.69              1582.00,1521.69 1613.00,1536.25 1613.00,1536.25              1616.61,1538.05 1629.69,1545.08 1633.00,1544.77              1636.90,1544.41 1645.92,1534.09 1649.00,1531.00              1649.00,1531.00 1671.00,1508.00 1671.00,1508.00              1676.55,1502.45 1685.70,1494.01 1690.00,1488.00 Z            M 1066.00,1519.00            C 1066.00,1519.00 551.00,1519.00 551.00,1519.00              556.72,1526.99 578.45,1544.96 587.00,1552.08              618.73,1578.52 652.15,1601.40 688.00,1621.85              688.00,1621.85 719.00,1638.25 719.00,1638.25              728.22,1642.86 731.45,1645.98 742.00,1646.00              742.00,1646.00 1096.00,1646.00 1096.00,1646.00              1096.00,1646.00 1068.67,1604.00 1068.67,1604.00              1066.34,1600.49 1058.06,1588.34 1057.59,1585.00              1057.59,1585.00 1061.75,1563.00 1061.75,1563.00              1064.30,1548.34 1066.00,1533.88 1066.00,1519.00 Z            M 1499.00,1519.00            C 1499.00,1519.00 1413.00,1519.00 1413.00,1519.00              1413.00,1519.00 1406.32,1541.00 1406.32,1541.00              1406.32,1541.00 1399.00,1598.00 1399.00,1598.00              1406.67,1595.06 1425.59,1580.89 1433.00,1575.37              1448.67,1563.71 1487.17,1532.56 1499.00,1519.00 Z            M 1125.00,1691.00            C 1125.00,1691.00 1110.69,1668.00 1110.69,1668.00              1110.69,1668.00 1103.48,1657.99 1103.48,1657.99              1103.48,1657.99 1096.00,1657.00 1096.00,1657.00              1096.00,1657.00 843.00,1657.00 843.00,1657.00              843.00,1657.00 787.00,1657.00 787.00,1657.00              787.00,1657.00 761.00,1658.00 761.00,1658.00              761.00,1658.00 796.00,1671.31 796.00,1671.31              796.00,1671.31 856.00,1689.53 856.00,1689.53              905.91,1702.00 957.55,1709.92 1009.00,1710.00              1009.00,1710.00 1026.00,1710.99 1026.00,1710.99              1026.00,1710.99 1038.00,1710.00 1038.00,1710.00              1038.00,1710.00 1057.00,1710.00 1057.00,1710.00              1057.00,1710.00 1068.00,1709.04 1068.00,1709.04              1100.37,1707.63 1136.32,1702.42 1168.00,1695.42              1196.55,1689.12 1224.45,1681.50 1252.00,1671.69              1259.89,1668.88 1283.04,1660.87 1289.00,1657.00              1289.00,1657.00 1197.90,1657.00 1197.90,1657.00              1197.90,1657.00 1197.90,1666.00 1197.90,1666.00              1198.02,1667.86 1198.43,1672.20 1197.90,1673.70              1196.01,1677.11 1182.91,1678.57 1179.00,1679.42              1179.00,1679.42 1125.00,1691.00 1125.00,1691.00 Z            M 808.00,1756.00            C 808.00,1756.00 865.00,1768.63 865.00,1768.63              875.59,1771.26 887.59,1773.64 895.83,1781.32              916.23,1800.37 908.40,1842.68 878.00,1851.96              859.14,1857.72 836.07,1848.57 817.00,1846.00              817.00,1846.00 806.00,1895.00 806.00,1895.00              806.00,1895.00 785.00,1890.88 785.00,1890.88              785.00,1890.88 777.61,1887.57 777.61,1887.57              777.61,1887.57 779.13,1877.00 779.13,1877.00              779.13,1877.00 785.13,1852.00 785.13,1852.00              785.13,1852.00 798.37,1797.00 798.37,1797.00              798.37,1797.00 808.00,1756.00 808.00,1756.00 Z            M 1154.00,1781.00            C 1154.00,1781.00 1184.00,1776.00 1184.00,1776.00              1184.00,1776.00 1193.58,1824.00 1193.58,1824.00              1193.58,1824.00 1206.00,1885.00 1206.00,1885.00              1206.00,1885.00 1239.00,1878.39 1239.00,1878.39              1239.00,1878.39 1276.00,1872.00 1276.00,1872.00              1276.00,1872.00 1279.09,1888.00 1279.09,1888.00              1279.09,1888.00 1279.09,1894.27 1279.09,1894.27              1279.09,1894.27 1272.00,1896.80 1272.00,1896.80              1272.00,1896.80 1254.00,1900.08 1254.00,1900.08              1254.00,1900.08 1181.00,1913.00 1181.00,1913.00              1181.00,1913.00 1176.80,1892.00 1176.80,1892.00              1176.80,1892.00 1168.00,1849.00 1168.00,1849.00              1168.00,1849.00 1159.00,1805.00 1159.00,1805.00              1159.00,1805.00 1154.00,1781.00 1154.00,1781.00 Z            M 915.00,1781.00            C 915.00,1781.00 931.00,1782.09 931.00,1782.09              931.00,1782.09 961.00,1784.09 961.00,1784.09              961.00,1784.09 1006.00,1787.09 1006.00,1787.09              1006.00,1787.09 1021.00,1788.00 1021.00,1788.00              1021.00,1788.00 1020.00,1804.00 1020.00,1804.00              1020.00,1804.00 1018.40,1810.97 1018.40,1810.97              1018.40,1810.97 999.00,1810.97 999.00,1810.97              999.00,1810.97 976.00,1809.09 976.00,1809.09              976.00,1809.09 953.00,1807.91 953.00,1807.91              953.00,1807.91 943.00,1807.00 943.00,1807.00              943.00,1807.00 941.00,1836.00 941.00,1836.00              941.00,1836.00 954.00,1837.00 954.00,1837.00              954.00,1837.00 963.00,1837.00 963.00,1837.00              963.00,1837.00 984.00,1839.10 984.00,1839.10              984.00,1839.10 994.00,1839.10 994.00,1839.10              994.00,1839.10 1011.20,1841.60 1011.20,1841.60              1011.20,1841.60 1011.20,1849.00 1011.20,1849.00              1011.20,1849.00 1010.00,1864.00 1010.00,1864.00              1010.00,1864.00 995.00,1863.09 995.00,1863.09              995.00,1863.09 972.00,1861.91 972.00,1861.91              972.00,1861.91 939.00,1860.00 939.00,1860.00              939.00,1860.00 937.00,1895.00 937.00,1895.00              937.00,1895.00 983.00,1898.09 983.00,1898.09              983.00,1898.09 1016.00,1900.00 1016.00,1900.00              1016.00,1900.00 1014.00,1924.00 1014.00,1924.00              1014.00,1924.00 985.00,1922.09 985.00,1922.09              985.00,1922.09 946.00,1919.91 946.00,1919.91              946.00,1919.91 925.00,1918.00 925.00,1918.00              925.00,1918.00 916.00,1918.00 916.00,1918.00              916.00,1918.00 905.00,1917.00 905.00,1917.00              905.00,1917.00 906.91,1895.00 906.91,1895.00              906.91,1895.00 912.09,1820.00 912.09,1820.00              912.09,1820.00 914.09,1792.00 914.09,1792.00              914.09,1792.00 915.00,1781.00 915.00,1781.00 Z            M 823.00,1822.00            C 832.47,1824.74 854.86,1830.06 864.00,1827.20              876.23,1823.37 880.28,1807.04 870.90,1798.21              863.97,1791.69 841.84,1787.85 832.00,1786.00              832.00,1786.00 823.00,1822.00 823.00,1822.00 Z            M 1030.00,1789.00            C 1030.00,1789.00 1047.00,1788.00 1047.00,1788.00              1047.00,1788.00 1066.00,1787.00 1066.00,1787.00              1066.00,1787.00 1098.00,1786.00 1098.00,1786.00              1109.51,1786.00 1120.32,1784.99 1131.00,1790.38              1149.93,1799.93 1155.07,1829.70 1142.47,1846.00              1135.03,1855.63 1126.97,1857.80 1116.00,1861.00              1133.83,1871.74 1138.59,1879.95 1150.63,1896.00              1155.52,1902.52 1162.36,1910.93 1166.00,1918.00              1158.89,1919.73 1153.95,1918.61 1147.00,1919.09              1147.00,1919.09 1138.00,1919.99 1138.00,1919.99              1135.73,1920.04 1132.44,1920.21 1130.46,1919.01              1128.62,1917.89 1125.65,1913.82 1124.20,1912.00              1124.20,1912.00 1111.60,1896.00 1111.60,1896.00              1105.08,1887.84 1093.63,1871.46 1084.00,1868.11              1079.21,1866.44 1069.42,1867.00 1064.00,1867.00              1064.00,1867.00 1065.00,1884.00 1065.00,1884.00              1065.00,1884.00 1066.00,1899.00 1066.00,1899.00              1066.00,1899.00 1067.00,1923.00 1067.00,1923.00              1067.00,1923.00 1051.00,1924.00 1051.00,1924.00              1051.00,1924.00 1038.00,1925.00 1038.00,1925.00              1038.00,1925.00 1036.00,1897.00 1036.00,1897.00              1036.00,1897.00 1035.00,1875.00 1035.00,1875.00              1035.00,1875.00 1034.00,1860.00 1034.00,1860.00              1034.00,1860.00 1032.00,1823.00 1032.00,1823.00              1032.00,1823.00 1031.00,1808.00 1031.00,1808.00              1031.00,1808.00 1030.00,1789.00 1030.00,1789.00 Z            M 1063.00,1844.00            C 1063.00,1844.00 1087.00,1843.09 1087.00,1843.09              1087.00,1843.09 1098.00,1842.42 1098.00,1842.42              1102.86,1841.76 1107.65,1841.71 1111.98,1839.00              1120.71,1833.54 1121.21,1820.31 1113.67,1813.79              1109.29,1810.00 1105.42,1810.01 1100.00,1810.00              1100.00,1810.00 1084.00,1810.00 1084.00,1810.00              1084.00,1810.00 1061.00,1811.00 1061.00,1811.00              1061.00,1811.00 1063.00,1844.00 1063.00,1844.00 Z" />
</svg>