<svg xmlns="http://www.w3.org/2000/svg" viewBox="23.72 -0.56 467.78 513.17">
  <path id="perl-camel" fill="#303030" stroke="none" stroke-width="1"
    d="M 162.00,168.00            C 162.00,147.36 165.67,139.12 174.75,121.00              179.66,111.21 185.44,101.51 194.00,94.46              206.59,84.10 221.85,80.30 234.00,68.91              234.00,68.91 271.00,23.04 271.00,23.04              277.45,16.88 284.87,13.65 293.00,10.40              305.28,5.49 324.83,0.16 338.00,0.00              347.04,-0.10 356.23,-0.39 365.00,2.21              385.02,8.15 395.60,24.09 401.66,43.00              401.66,43.00 405.44,57.00 405.44,57.00              405.44,57.00 409.31,67.00 409.31,67.00              409.31,67.00 414.20,81.00 414.20,81.00              414.20,81.00 418.52,91.00 418.52,91.00              424.46,101.47 428.93,103.82 436.74,120.00              436.74,120.00 450.26,158.00 450.26,158.00              462.58,183.44 483.92,198.27 486.00,223.00              480.80,224.35 481.12,227.35 482.01,232.00              483.77,241.29 487.11,244.91 491.00,253.00              491.00,253.00 481.00,252.00 481.00,252.00              483.87,258.89 484.77,266.73 483.00,274.00              483.00,274.00 479.00,272.00 479.00,272.00              479.00,280.30 478.47,286.37 474.62,294.00              474.62,294.00 467.41,305.00 467.41,305.00              465.08,309.39 465.41,312.31 463.99,315.00              462.06,318.68 453.72,326.97 450.00,329.00              447.67,317.40 444.26,307.99 447.49,296.00              452.21,278.49 462.97,271.60 463.00,251.00              463.02,235.88 460.40,223.77 454.00,210.00              453.23,219.39 449.64,231.44 445.69,240.00              445.69,240.00 441.41,249.00 441.41,249.00              438.28,258.23 437.98,274.13 438.00,284.00              438.00,284.00 442.96,334.00 442.96,334.00              442.96,334.00 442.96,344.00 442.96,344.00              442.96,344.00 441.30,359.00 441.30,359.00              441.68,363.69 443.89,363.65 444.00,372.00              444.26,391.91 440.02,393.22 435.04,410.00              433.10,416.53 429.70,440.62 430.18,447.00              430.95,457.15 436.84,466.89 437.67,472.00              438.77,478.79 434.98,481.21 435.62,485.00              436.12,488.02 439.76,491.02 440.26,495.00              441.42,504.36 428.19,508.28 421.00,507.96              413.95,507.64 412.44,504.73 409.00,504.52              406.27,504.36 404.21,506.27 401.00,506.36              394.29,506.55 391.60,500.90 392.11,495.00              392.83,486.51 400.08,483.49 401.81,479.72              403.04,477.04 400.92,473.60 404.09,464.00              408.82,449.66 413.42,450.65 415.72,432.00              416.66,424.30 416.63,410.71 415.72,403.00              415.72,403.00 413.18,379.00 413.18,379.00              413.18,379.00 416.60,362.00 416.60,362.00              416.60,362.00 413.61,347.00 413.61,347.00              413.61,347.00 404.86,328.00 404.86,328.00              400.62,318.33 397.58,308.15 394.71,298.00              394.71,298.00 386.00,253.00 386.00,253.00              381.61,268.35 364.00,285.88 359.61,310.00              358.40,316.66 356.93,332.32 357.00,339.00              357.00,339.00 357.99,349.00 357.99,349.00              357.99,349.00 357.99,357.00 357.99,357.00              358.32,360.41 359.54,363.72 357.99,367.00              357.99,367.00 346.20,382.00 346.20,382.00              346.20,382.00 324.34,411.00 324.34,411.00              322.20,414.14 315.25,423.76 314.94,427.00              314.94,427.00 317.00,436.00 317.00,436.00              334.25,438.72 334.16,453.02 334.00,467.00              333.95,470.59 333.54,476.85 331.27,479.72              329.54,481.90 327.55,482.26 325.09,483.08              323.19,483.70 320.88,484.79 318.91,484.78              312.41,484.75 307.84,477.12 305.27,472.00              303.04,467.55 301.14,462.85 300.00,458.00              300.00,458.00 295.00,461.00 295.00,461.00              295.74,464.69 297.68,470.45 296.40,474.00              292.40,485.07 270.38,483.66 261.00,482.42              256.67,481.85 247.68,482.44 244.60,479.28              241.54,476.14 244.17,470.81 246.39,468.02              251.84,461.16 259.68,459.38 268.00,459.00              268.94,450.93 271.47,452.72 273.99,448.63              273.99,448.63 276.45,441.01 276.45,441.01              277.49,438.86 279.56,436.85 279.36,434.72              279.16,432.57 273.19,424.28 271.67,422.00              264.04,410.59 259.82,406.14 249.00,397.66              240.71,391.16 230.94,385.69 227.62,375.00              224.09,363.62 230.06,361.74 230.89,354.00              230.89,354.00 232.28,339.00 232.28,339.00              234.67,321.30 241.05,303.40 248.00,287.09              236.94,287.90 239.23,288.04 228.00,287.09              218.35,286.43 219.44,294.99 217.20,306.00              215.82,312.80 213.67,321.52 211.31,328.00              204.74,346.02 200.23,345.99 203.00,367.00              203.00,367.00 199.00,367.00 199.00,367.00              200.67,379.40 202.67,385.12 198.48,398.00              198.48,398.00 187.77,421.00 187.77,421.00              185.20,429.35 186.61,433.03 185.62,438.00              185.62,438.00 183.00,446.00 183.00,446.00              179.80,455.51 179.05,462.05 179.00,472.00              178.98,476.60 178.74,480.81 176.56,485.00              174.76,488.47 171.41,491.03 170.71,495.00              170.59,496.93 171.44,501.94 170.71,504.96              168.61,511.74 159.73,511.99 154.00,512.00              145.16,512.01 134.30,512.79 126.00,509.90              121.63,508.38 117.15,505.99 116.29,501.00              114.35,489.61 135.89,485.68 144.00,485.00              144.35,469.69 152.69,468.82 158.04,460.96              161.83,455.39 164.53,444.70 166.12,438.00              167.68,431.41 170.82,417.38 170.82,411.00              170.82,411.00 168.04,390.00 168.04,390.00              167.67,381.22 170.11,376.78 169.64,373.00              169.10,368.61 165.71,366.20 165.10,360.00              164.18,350.56 167.48,347.59 167.33,343.00              167.33,343.00 164.22,328.00 164.22,328.00              164.22,328.00 164.22,311.00 164.22,311.00              164.22,311.00 167.71,284.00 167.71,284.00              168.16,280.39 168.43,275.08 165.57,272.34              163.10,270.00 160.66,270.99 158.00,272.34              151.87,275.40 150.52,277.85 143.00,280.00              143.00,280.00 141.00,274.00 141.00,274.00              141.00,274.00 136.00,283.00 136.00,283.00              136.00,283.00 122.00,272.61 122.00,272.61              111.34,266.12 100.12,262.23 91.09,252.96              82.59,244.24 77.08,233.70 70.00,224.00              70.00,224.00 67.00,232.00 67.00,232.00              60.35,224.68 60.66,217.69 58.00,209.00              58.00,209.00 57.00,212.00 57.00,212.00              52.25,206.00 49.32,195.50 47.80,188.00              44.25,170.55 43.82,147.90 50.00,131.00              50.00,131.00 44.00,134.00 44.00,134.00              45.53,124.07 50.34,117.28 57.00,110.00              57.00,110.00 53.00,110.00 53.00,110.00              53.00,110.00 65.29,93.00 65.29,93.00              66.81,90.54 68.91,87.16 67.64,84.18              66.18,80.76 60.41,78.47 57.00,77.68              57.00,77.68 45.00,76.70 45.00,76.70              41.75,76.22 30.86,71.43 28.65,69.30              25.97,66.71 23.46,58.69 24.43,55.04              25.32,51.70 27.84,50.47 30.26,45.99              32.27,42.23 34.73,37.32 38.13,34.65              43.02,30.80 50.99,30.10 57.00,30.00              57.00,30.00 71.00,29.00 71.00,29.00              81.11,28.95 86.60,30.69 95.00,24.00              95.00,24.00 92.00,23.00 92.00,23.00              95.80,10.11 104.20,12.10 109.00,10.42              113.36,8.90 112.62,7.35 119.00,6.00              119.00,6.00 121.00,12.00 121.00,12.00              121.00,12.00 131.00,9.00 131.00,9.00              131.00,9.00 129.00,14.00 129.00,14.00              142.13,14.73 157.40,32.02 161.33,44.00              162.65,48.80 160.68,50.93 161.33,54.00              162.63,58.06 167.53,60.43 170.10,71.00              173.17,83.63 169.02,96.45 168.00,109.00              168.00,109.00 164.00,108.00 164.00,108.00              165.67,117.33 164.68,129.06 159.00,137.00              159.00,137.00 156.00,133.00 156.00,133.00              153.64,148.36 143.07,166.28 162.00,168.00 Z            M 321.00,276.00            C 314.69,277.09 316.88,280.13 313.38,289.00              307.72,303.37 300.17,306.60 300.00,325.00              300.00,325.00 295.00,323.00 295.00,323.00              295.00,323.00 291.97,334.00 291.97,334.00              288.50,344.96 282.40,355.24 275.00,364.00              275.00,364.00 271.00,358.00 271.00,358.00              271.00,358.00 263.92,376.00 263.92,376.00              264.06,378.66 268.42,384.36 269.99,387.00              269.99,387.00 276.10,398.00 276.10,398.00              280.38,404.42 289.63,412.55 297.00,415.00              297.00,415.00 310.68,393.00 310.68,393.00              317.98,381.42 322.98,376.19 323.00,362.00              323.00,362.00 323.00,354.00 323.00,354.00              323.00,354.00 319.00,315.00 319.00,315.00              318.98,302.04 318.71,288.78 321.00,276.00 Z" />
</svg>