<svg xmlns="http://www.w3.org/2000/svg" viewBox="47.5 47.64 237 236.86">
  <path id="pexels" fill="#303030" stroke="none" stroke-width="1"
    d="M 77.00,48.14            C 77.00,48.14 135.00,48.14 135.00,48.14              135.00,48.14 247.00,48.14 247.00,48.14              268.68,48.03 283.96,56.17 284.00,80.00              284.00,80.00 284.00,255.00 284.00,255.00              283.78,273.28 270.61,283.97 253.00,284.00              253.00,284.00 79.00,284.00 79.00,284.00              55.84,283.96 48.03,267.68 48.00,247.00              48.00,247.00 48.00,83.00 48.00,83.00              48.17,68.57 53.14,55.22 68.00,50.11              70.89,49.11 74.00,48.88 77.00,48.14 Z            M 190.00,194.00            C 197.11,193.36 203.19,190.65 209.00,186.56              231.96,170.42 234.61,135.04 212.96,116.46              197.90,103.54 185.24,105.00 167.00,105.00              167.00,105.00 120.00,105.00 120.00,105.00              120.00,105.00 120.00,228.00 120.00,228.00              120.00,228.00 190.00,228.00 190.00,228.00              190.00,228.00 190.00,194.00 190.00,194.00 Z            M 138.00,123.00            C 138.00,123.00 173.00,123.00 173.00,123.00              182.93,123.00 190.45,122.25 199.00,128.61              212.44,138.63 212.72,161.41 199.00,171.37              190.12,177.80 182.24,177.00 172.00,177.00              172.00,177.00 172.00,210.00 172.00,210.00              172.00,210.00 138.00,210.00 138.00,210.00              138.00,210.00 138.00,123.00 138.00,123.00 Z" />
</svg>