<svg xmlns="http://www.w3.org/2000/svg" viewBox="47.5 47.64 691.98 236.86">
  <path id="pexels-wordmark" fill="#303030" stroke="none" stroke-width="1"
    d="M 77.00,48.14            C 77.00,48.14 135.00,48.14 135.00,48.14              135.00,48.14 247.00,48.14 247.00,48.14              268.68,48.03 283.96,56.17 284.00,80.00              284.00,80.00 284.00,255.00 284.00,255.00              283.78,273.28 270.61,283.97 253.00,284.00              253.00,284.00 79.00,284.00 79.00,284.00              55.84,283.96 48.03,267.68 48.00,247.00              48.00,247.00 48.00,83.00 48.00,83.00              48.17,68.57 53.14,55.22 68.00,50.11              70.89,49.11 74.00,48.88 77.00,48.14 Z            M 190.00,194.00            C 197.11,193.36 203.19,190.65 209.00,186.56              231.96,170.42 234.61,135.04 212.96,116.46              197.90,103.54 185.24,105.00 167.00,105.00              167.00,105.00 120.00,105.00 120.00,105.00              120.00,105.00 120.00,228.00 120.00,228.00              120.00,228.00 190.00,228.00 190.00,228.00              190.00,228.00 190.00,194.00 190.00,194.00 Z            M 645.00,114.00            C 645.00,114.00 664.00,114.00 664.00,114.00              664.00,114.00 664.00,211.00 664.00,211.00              664.00,211.00 645.00,211.00 645.00,211.00              645.00,211.00 645.00,114.00 645.00,114.00 Z            M 346.00,119.00            C 346.00,119.00 378.00,119.00 378.00,119.00              388.61,119.00 395.80,118.04 404.99,124.79              422.00,137.28 419.56,166.93 402.00,177.52              391.83,183.66 377.61,182.00 366.00,182.00              366.00,182.00 366.00,211.00 366.00,211.00              366.00,211.00 346.00,211.00 346.00,211.00              346.00,211.00 346.00,119.00 346.00,119.00 Z            M 138.00,123.00            C 138.00,123.00 173.00,123.00 173.00,123.00              182.93,123.00 190.45,122.25 199.00,128.61              212.44,138.63 212.72,161.41 199.00,171.37              190.12,177.80 182.24,177.00 172.00,177.00              172.00,177.00 172.00,210.00 172.00,210.00              172.00,210.00 138.00,210.00 138.00,210.00              138.00,210.00 138.00,123.00 138.00,123.00 Z            M 366.00,166.00            C 373.35,166.00 383.72,167.12 389.96,163.01              398.72,157.23 397.99,141.40 388.00,136.57              383.20,134.25 371.70,135.00 366.00,135.00              366.00,135.00 366.00,166.00 366.00,166.00 Z            M 490.00,190.00            C 486.19,214.28 452.88,216.54 438.00,207.52              428.68,201.87 424.13,190.56 424.00,180.00              423.87,168.68 423.56,159.35 431.33,150.00              439.57,140.09 447.95,138.86 460.00,139.00              470.80,139.13 479.09,142.86 485.24,152.01              490.67,160.09 491.00,170.59 491.00,180.00              491.00,180.00 443.00,180.00 443.00,180.00              443.95,190.58 451.40,200.25 463.00,196.76              471.13,194.32 468.77,190.18 478.00,190.00              478.00,190.00 490.00,190.00 490.00,190.00 Z            M 632.00,190.00            C 628.09,208.55 613.59,212.19 597.00,212.00              590.56,211.92 584.44,210.49 579.00,206.89              568.18,199.75 564.24,185.38 565.09,173.00              565.67,164.46 568.40,154.58 574.33,148.17              585.17,136.45 610.21,135.48 621.96,146.19              632.79,156.06 632.00,166.80 632.00,180.00              632.00,180.00 585.00,180.00 585.00,180.00              585.24,189.74 591.46,198.15 602.00,197.21              612.39,196.29 609.55,190.20 620.00,190.00              620.00,190.00 632.00,190.00 632.00,190.00 Z            M 677.00,191.00            C 677.00,191.00 690.00,191.00 690.00,191.00              691.52,191.03 693.28,190.99 694.72,191.57              696.91,192.46 698.63,194.73 701.01,196.15              706.01,199.11 715.30,198.73 718.26,192.96              721.52,186.58 709.91,184.34 706.00,183.37              692.49,180.04 675.32,176.47 678.47,158.00              682.65,133.43 721.24,135.66 731.79,146.21              735.88,150.30 736.86,154.47 737.00,160.00              737.00,160.00 725.00,160.00 725.00,160.00              723.54,159.97 721.73,160.02 720.37,159.43              718.37,158.56 717.32,156.55 714.90,155.00              709.37,151.48 700.25,153.11 698.32,158.10              695.98,164.16 706.08,166.45 710.00,167.35              722.53,170.23 738.25,171.69 738.96,188.00              739.57,202.05 728.89,209.84 716.00,211.85              716.00,211.85 704.00,211.85 704.00,211.85              690.69,211.84 677.73,205.79 677.00,191.00 Z            M 494.00,140.00            C 494.00,140.00 515.61,140.57 515.61,140.57              515.61,140.57 520.26,147.00 520.26,147.00              520.26,147.00 528.00,163.00 528.00,163.00              528.00,163.00 530.00,163.00 530.00,163.00              530.00,163.00 537.69,147.00 537.69,147.00              537.69,147.00 542.39,140.57 542.39,140.57              542.39,140.57 562.00,140.00 562.00,140.00              560.42,146.47 552.21,157.93 548.31,164.00              546.61,166.65 542.63,171.98 542.46,175.00              542.29,178.15 546.10,183.25 547.81,186.00              547.81,186.00 563.00,211.00 563.00,211.00              563.00,211.00 542.21,210.40 542.21,210.40              542.21,210.40 537.00,204.00 537.00,204.00              537.00,204.00 529.00,188.00 529.00,188.00              529.00,188.00 514.62,209.98 514.62,209.98              514.62,209.98 495.00,211.00 495.00,211.00              497.08,203.87 505.21,192.74 509.42,186.00              510.97,183.53 514.60,178.80 514.60,176.00              514.60,173.30 510.50,167.47 508.95,165.00              504.66,158.17 497.06,146.86 494.00,140.00 Z            M 472.00,168.00            C 470.83,163.64 470.37,159.90 466.67,156.80              458.83,150.22 445.31,153.37 443.00,168.00              443.00,168.00 472.00,168.00 472.00,168.00 Z            M 613.00,168.00            C 612.65,164.20 612.16,161.15 609.58,158.11              603.23,150.59 586.73,151.67 585.00,168.00              585.00,168.00 613.00,168.00 613.00,168.00 Z" />
</svg>