<svg xmlns="http://www.w3.org/2000/svg" viewBox="-0.5 -0.5 2560.07 471">
  <path id="philips" fill="#303030" stroke="none" stroke-width="1"
    d="M 0.00,9.00            C 0.00,9.00 42.00,4.83 42.00,4.83              42.00,4.83 70.00,2.91 70.00,2.91              70.00,2.91 81.00,2.00 81.00,2.00              81.00,2.00 108.00,1.00 108.00,1.00              108.00,1.00 124.00,0.00 124.00,0.00              124.00,0.00 194.00,0.00 194.00,0.00              194.00,0.00 206.00,0.91 206.00,0.91              206.00,0.91 237.00,3.87 237.00,3.87              279.48,9.77 320.88,22.41 352.99,52.17              387.22,83.90 396.52,133.40 396.00,178.00              396.00,178.00 395.09,188.00 395.09,188.00              391.33,241.81 369.07,287.71 323.00,317.92              288.12,340.80 246.17,350.25 205.00,352.04              205.00,352.04 192.00,353.00 192.00,353.00              192.00,353.00 138.00,353.00 138.00,353.00              138.00,353.00 138.00,460.00 138.00,460.00              138.00,460.00 0.00,460.00 0.00,460.00              0.00,460.00 0.00,9.00 0.00,9.00 Z            M 1767.00,9.00            C 1767.00,9.00 1829.00,3.00 1829.00,3.00              1829.00,3.00 1838.00,3.00 1838.00,3.00              1838.00,3.00 1853.00,2.00 1853.00,2.00              1853.00,2.00 1866.00,0.96 1866.00,0.96              1866.00,0.96 1880.00,0.96 1880.00,0.96              1880.00,0.96 1892.00,0.00 1892.00,0.00              1892.00,0.00 1963.00,0.00 1963.00,0.00              1963.00,0.00 1974.00,0.91 1974.00,0.91              1974.00,0.91 2005.00,3.87 2005.00,3.87              2042.33,9.06 2082.29,20.35 2112.00,44.46              2153.41,78.05 2164.59,127.08 2164.00,178.00              2164.00,178.00 2163.09,188.00 2163.09,188.00              2159.32,241.88 2137.60,286.43 2092.00,317.26              2057.30,340.71 2014.26,350.24 1973.00,352.04              1973.00,352.04 1960.00,353.00 1960.00,353.00              1960.00,353.00 1906.00,353.00 1906.00,353.00              1906.00,353.00 1906.00,460.00 1906.00,460.00              1906.00,460.00 1767.00,460.00 1767.00,460.00              1767.00,460.00 1767.00,9.00 1767.00,9.00 Z            M 2191.00,342.00            C 2191.00,342.00 2234.00,358.66 2234.00,358.66              2261.33,367.39 2311.67,377.96 2340.00,378.00              2340.00,378.00 2355.00,378.00 2355.00,378.00              2368.43,377.98 2389.54,374.61 2401.00,367.53              2418.01,357.03 2424.52,335.19 2413.45,318.00              2406.38,307.02 2391.83,298.64 2380.00,293.58              2380.00,293.58 2326.00,273.31 2326.00,273.31              2274.77,255.02 2223.79,230.12 2208.73,173.00              2206.22,163.47 2204.12,147.82 2204.00,138.00              2203.85,124.97 2206.00,107.49 2209.72,95.00              2212.89,84.37 2217.49,74.21 2223.67,65.00              2249.73,26.14 2295.34,9.07 2340.00,2.87              2340.00,2.87 2371.00,0.00 2371.00,0.00              2371.00,0.00 2423.00,0.00 2423.00,0.00              2423.00,0.00 2435.00,0.91 2435.00,0.91              2435.00,0.91 2492.00,7.59 2492.00,7.59              2492.00,7.59 2509.00,10.80 2509.00,10.80              2510.90,11.18 2514.99,11.78 2516.41,12.98              2518.10,14.41 2518.43,17.90 2518.72,20.00              2518.72,20.00 2520.93,39.00 2520.93,39.00              2520.93,39.00 2529.00,112.00 2529.00,112.00              2490.34,98.59 2468.16,92.74 2427.00,89.91              2427.00,89.91 2417.00,89.00 2417.00,89.00              2417.00,89.00 2401.00,89.00 2401.00,89.00              2377.86,89.04 2340.90,97.04 2343.09,127.00              2343.38,130.98 2344.46,134.47 2346.33,138.00              2348.62,142.33 2351.45,145.57 2355.00,148.91              2371.26,164.16 2407.43,175.65 2429.00,183.00              2479.73,200.28 2535.87,223.51 2553.66,279.00              2559.25,296.44 2559.21,311.03 2559.00,329.00              2558.87,339.60 2555.16,360.03 2551.57,370.00              2547.70,380.73 2542.63,391.61 2536.12,401.00              2507.15,442.75 2454.46,460.36 2406.00,466.15              2406.00,466.15 2374.00,469.04 2374.00,469.04              2374.00,469.04 2361.00,469.04 2361.00,469.04              2361.00,469.04 2348.00,470.00 2348.00,470.00              2348.00,470.00 2335.00,469.00 2335.00,469.00              2303.66,468.64 2272.61,464.18 2242.00,457.42              2242.00,457.42 2217.00,450.67 2217.00,450.67              2214.81,449.94 2209.10,448.27 2207.56,446.92              2205.56,445.15 2205.35,441.50 2205.00,439.00              2205.00,439.00 2202.25,420.00 2202.25,420.00              2202.25,420.00 2191.00,342.00 2191.00,342.00 Z            M 449.00,9.00            C 449.00,9.00 588.00,9.00 588.00,9.00              588.00,9.00 588.00,188.00 588.00,188.00              588.00,188.00 730.00,188.00 730.00,188.00              730.00,188.00 730.00,9.00 730.00,9.00              730.00,9.00 868.00,9.00 868.00,9.00              868.00,9.00 868.00,460.00 868.00,460.00              868.00,460.00 730.00,460.00 730.00,460.00              730.00,460.00 730.00,283.00 730.00,283.00              730.00,283.00 588.00,283.00 588.00,283.00              588.00,283.00 588.00,460.00 588.00,460.00              588.00,460.00 449.00,460.00 449.00,460.00              449.00,460.00 449.00,9.00 449.00,9.00 Z            M 969.00,9.00            C 969.00,9.00 1108.00,9.00 1108.00,9.00              1108.00,9.00 1108.00,460.00 1108.00,460.00              1108.00,460.00 969.00,460.00 969.00,460.00              969.00,460.00 969.00,9.00 969.00,9.00 Z            M 1208.00,9.00            C 1208.00,9.00 1347.00,9.00 1347.00,9.00              1347.00,9.00 1347.00,369.00 1347.00,369.00              1347.00,369.00 1478.00,369.00 1478.00,369.00              1478.00,369.00 1470.88,403.00 1470.88,403.00              1470.88,403.00 1458.00,460.00 1458.00,460.00              1458.00,460.00 1208.00,460.00 1208.00,460.00              1208.00,460.00 1208.00,9.00 1208.00,9.00 Z            M 1527.00,9.00            C 1527.00,9.00 1665.00,9.00 1665.00,9.00              1665.00,9.00 1665.00,460.00 1665.00,460.00              1665.00,460.00 1527.00,460.00 1527.00,460.00              1527.00,460.00 1527.00,9.00 1527.00,9.00 Z            M 138.00,271.00            C 171.95,271.00 205.84,271.86 232.96,247.57              241.61,239.82 248.51,227.82 252.58,217.00              259.30,199.12 259.09,183.61 259.00,165.00              258.89,142.54 248.79,118.66 231.00,104.67              205.69,84.77 168.65,83.52 138.00,86.00              138.00,86.00 138.00,271.00 138.00,271.00 Z            M 1906.00,271.00            C 1936.44,271.00 1970.80,271.90 1996.00,251.69              2016.98,234.86 2026.96,207.46 2027.00,181.00              2027.00,181.00 2027.00,165.00 2027.00,165.00              2026.74,143.19 2017.00,119.40 2000.00,105.46              1974.78,84.79 1936.95,83.49 1906.00,86.00              1906.00,86.00 1906.00,271.00 1906.00,271.00 Z" />
</svg>