<svg xmlns="http://www.w3.org/2000/svg" viewBox="-0.5 -0.42 1052 1025.92">
  <path id="photoshop" fill="#303030" stroke="none" stroke-width="1"
    d="M 167.00,0.08            C 167.00,0.08 196.00,0.08 196.00,0.08              196.00,0.08 247.00,0.08 247.00,0.08              247.00,0.08 403.00,0.08 403.00,0.08              403.00,0.08 876.00,0.08 876.00,0.08              886.69,0.02 900.59,2.51 911.00,5.13              971.36,20.29 1019.91,64.27 1040.69,123.00              1046.00,138.01 1050.98,159.10 1051.00,175.00              1051.00,175.00 1051.00,850.00 1051.00,850.00              1050.98,865.90 1046.00,886.99 1040.69,902.00              1019.93,960.69 971.32,1004.73 911.00,1019.87              900.59,1022.49 886.69,1024.98 876.00,1025.00              876.00,1025.00 175.00,1025.00 175.00,1025.00              159.97,1024.98 138.20,1020.14 124.00,1015.05              70.43,995.85 29.36,955.85 10.31,902.00              5.26,887.73 0.02,866.06 0.00,851.00              0.00,851.00 0.00,174.00 0.00,174.00              0.02,164.15 2.70,149.65 5.13,140.00              17.21,91.87 48.78,49.17 92.00,24.43              118.02,9.53 137.86,4.65 167.00,0.08 Z            M 331.00,578.00            C 331.00,578.00 393.00,578.00 393.00,578.00              393.00,578.00 415.00,576.16 415.00,576.16              455.93,571.79 496.20,558.72 525.96,528.96              551.90,503.02 566.94,464.61 567.00,428.00              567.00,428.00 567.00,407.00 567.00,407.00              566.82,391.57 560.65,367.22 554.57,353.00              548.11,337.89 538.83,324.11 527.72,312.04              521.83,305.64 510.39,296.90 503.00,292.00              451.58,257.93 390.95,260.31 332.00,261.00              332.00,261.00 317.00,262.00 317.00,262.00              317.00,262.00 292.00,262.00 292.00,262.00              292.00,262.00 277.00,263.00 277.00,263.00              277.00,263.00 260.00,263.00 260.00,263.00              255.42,263.00 240.57,261.72 238.02,265.43              236.78,267.24 237.00,270.84 237.00,273.00              237.00,273.00 237.00,619.00 237.00,619.00              237.00,619.00 237.00,699.00 237.00,699.00              237.00,699.00 237.00,716.00 237.00,716.00              237.03,718.15 236.89,721.52 238.74,723.01              240.28,724.25 244.06,724.00 246.00,724.00              246.00,724.00 310.00,724.00 310.00,724.00              314.27,724.00 327.62,725.23 329.98,721.69              331.21,719.84 331.00,716.19 331.00,714.00              331.00,714.00 331.00,578.00 331.00,578.00 Z            M 332.00,495.00            C 332.00,495.00 332.00,382.00 332.00,382.00              332.00,382.00 332.00,356.00 332.00,356.00              332.00,354.01 331.77,350.19 333.02,348.60              334.59,346.62 338.70,347.00 341.00,347.00              372.54,346.94 411.86,343.33 440.00,359.43              460.13,370.95 471.96,391.87 472.00,415.00              472.00,415.00 472.00,426.00 472.00,426.00              471.89,435.33 469.06,447.76 464.68,456.00              459.87,465.04 452.34,472.40 444.00,478.23              434.30,485.02 426.11,487.37 415.00,490.42              389.55,497.42 358.22,497.12 332.00,495.00 Z            M 752.00,369.32            C 752.00,369.32 722.00,371.28 722.00,371.28              699.99,374.10 677.24,381.59 659.00,394.44              646.73,403.08 637.14,413.09 629.45,426.00              606.03,465.37 611.92,519.93 647.00,550.58              664.51,565.87 686.52,577.65 708.00,586.40              708.00,586.40 738.00,598.30 738.00,598.30              749.76,603.59 769.31,611.56 773.35,625.00              776.20,634.46 770.24,643.50 762.00,647.73              748.64,654.58 731.68,654.17 717.00,654.00              698.55,653.78 667.27,646.86 650.00,640.19              650.00,640.19 629.00,630.74 629.00,630.74              626.68,629.54 621.24,626.15 619.05,625.87              614.26,625.25 615.01,630.90 615.00,634.00              615.00,634.00 615.00,702.00 615.00,702.00              615.00,704.70 614.78,708.42 616.17,710.79              619.07,715.70 636.20,720.80 642.00,722.66              657.68,727.66 689.62,732.97 706.00,733.00              706.00,733.00 733.00,733.00 733.00,733.00              788.61,732.92 849.53,710.11 865.12,651.00              867.38,642.40 869.10,629.87 869.00,621.00              868.85,608.08 865.61,591.71 860.11,580.00              844.69,547.17 805.22,527.85 773.00,515.00              756.50,508.42 739.26,502.68 724.00,493.39              716.54,488.84 709.10,482.85 706.80,474.00              705.88,470.45 706.58,467.34 707.93,464.00              713.14,451.11 727.73,448.90 740.00,447.92              760.30,446.29 789.35,449.91 809.00,455.72              809.00,455.72 832.00,464.00 832.00,464.00              835.10,465.33 840.95,468.56 844.00,468.60              851.22,468.71 850.99,462.25 851.00,457.00              851.00,457.00 851.00,399.00 851.00,399.00              850.99,395.16 851.03,389.53 848.86,386.22              846.04,381.90 831.24,378.18 826.00,376.87              806.17,371.92 785.38,370.03 765.00,370.00              765.00,370.00 752.00,369.32 752.00,369.32 Z" />
</svg>