<svg xmlns="http://www.w3.org/2000/svg" viewBox="-0.5 -0.5 2561.08 1281.04">
  <path id="php-text" fill="#303030" stroke="none" stroke-width="1"
    d="M 894.00,1013.00            C 894.00,1013.00 899.80,983.00 899.80,983.00              899.80,983.00 910.60,929.00 910.60,929.00              910.60,929.00 945.60,756.00 945.60,756.00              945.60,756.00 1050.20,237.00 1050.20,237.00              1050.20,237.00 1086.80,55.00 1086.80,55.00              1086.80,55.00 1094.40,17.00 1094.40,17.00              1094.40,17.00 1098.16,1.57 1098.16,1.57              1098.16,1.57 1106.00,0.00 1106.00,0.00              1106.00,0.00 1294.00,0.00 1294.00,0.00              1294.00,0.00 1285.21,46.00 1285.21,46.00              1285.21,46.00 1269.00,125.00 1269.00,125.00              1269.00,125.00 1250.00,218.00 1250.00,218.00              1250.00,218.00 1239.00,270.00 1239.00,270.00              1239.00,270.00 1323.00,270.00 1323.00,270.00              1323.00,270.00 1432.00,270.00 1432.00,270.00              1432.00,270.00 1445.00,270.96 1445.00,270.96              1485.48,272.73 1526.76,279.66 1565.00,293.31              1592.51,303.13 1625.17,320.16 1644.83,342.00              1658.89,357.62 1668.33,376.82 1673.85,397.00              1677.46,410.21 1680.98,432.39 1681.00,446.00              1681.00,446.00 1681.00,476.00 1681.00,476.00              1681.00,476.00 1680.09,488.00 1680.09,488.00              1678.45,511.37 1674.59,534.04 1670.00,557.00              1670.00,557.00 1652.00,646.00 1652.00,646.00              1652.00,646.00 1602.60,891.00 1602.60,891.00              1602.60,891.00 1585.60,975.00 1585.60,975.00              1585.60,975.00 1578.00,1013.00 1578.00,1013.00              1578.00,1013.00 1378.00,1013.00 1378.00,1013.00              1378.00,1013.00 1386.00,974.00 1386.00,974.00              1386.00,974.00 1400.40,903.00 1400.40,903.00              1400.40,903.00 1439.40,710.00 1439.40,710.00              1439.40,710.00 1463.00,594.00 1463.00,594.00              1466.39,577.04 1473.81,544.01 1474.00,528.00              1474.19,511.44 1474.90,495.72 1468.55,480.00              1465.96,473.58 1461.62,466.08 1456.83,461.09              1439.14,442.66 1403.67,436.29 1379.00,436.00              1379.00,436.00 1364.00,435.00 1364.00,435.00              1364.00,435.00 1272.00,435.00 1272.00,435.00              1272.00,435.00 1258.00,434.00 1258.00,434.00              1258.00,434.00 1206.00,434.00 1206.00,434.00              1206.00,434.00 1197.20,481.00 1197.20,481.00              1197.20,481.00 1179.40,570.00 1179.40,570.00              1179.40,570.00 1119.80,867.00 1119.80,867.00              1119.80,867.00 1100.60,963.00 1100.60,963.00              1100.60,963.00 1091.00,1013.00 1091.00,1013.00              1091.00,1013.00 894.00,1013.00 894.00,1013.00 Z            M 202.00,269.00            C 202.00,269.00 454.00,269.00 454.00,269.00              454.00,269.00 581.00,269.00 581.00,269.00              581.00,269.00 591.00,269.96 591.00,269.96              591.00,269.96 607.00,269.96 607.00,269.96              607.00,269.96 617.00,270.91 617.00,270.91              617.00,270.91 646.00,273.72 646.00,273.72              698.57,280.58 750.37,297.68 792.00,331.46              848.32,377.15 876.93,448.79 880.04,520.00              880.04,520.00 881.00,531.00 881.00,531.00              881.98,614.72 865.86,698.37 829.26,774.00              819.39,794.39 808.98,814.18 796.26,833.00              779.19,858.24 759.52,881.48 738.00,903.00              711.62,929.38 683.92,951.89 651.00,969.69              612.05,990.76 566.54,1000.07 523.00,1006.13              523.00,1006.13 476.00,1011.09 476.00,1011.09              476.00,1011.09 466.00,1012.00 466.00,1012.00              466.00,1012.00 447.00,1013.00 447.00,1013.00              447.00,1013.00 380.00,1013.00 380.00,1013.00              380.00,1013.00 251.00,1013.00 251.00,1013.00              251.00,1013.00 239.00,1074.00 239.00,1074.00              239.00,1074.00 211.80,1210.00 211.80,1210.00              211.80,1210.00 202.60,1256.00 202.60,1256.00              202.60,1256.00 198.00,1280.00 198.00,1280.00              198.00,1280.00 0.00,1280.00 0.00,1280.00              0.00,1280.00 6.80,1243.00 6.80,1243.00              6.80,1243.00 20.60,1174.00 20.60,1174.00              20.60,1174.00 63.60,960.00 63.60,960.00              63.60,960.00 158.40,487.00 158.40,487.00              158.40,487.00 202.00,269.00 202.00,269.00 Z            M 1679.00,1280.00            C 1679.00,1280.00 1698.60,1182.00 1698.60,1182.00              1698.60,1182.00 1737.20,990.00 1737.20,990.00              1737.20,990.00 1834.40,505.00 1834.40,505.00              1834.40,505.00 1870.60,324.00 1870.60,324.00              1870.60,324.00 1878.20,286.00 1878.20,286.00              1878.77,283.14 1880.51,272.31 1881.98,270.60              1883.69,268.61 1887.60,269.00 1890.00,269.00              1890.00,269.00 2126.00,269.00 2126.00,269.00              2126.00,269.00 2261.00,269.00 2261.00,269.00              2261.00,269.00 2276.00,270.00 2276.00,270.00              2276.00,270.00 2287.00,270.00 2287.00,270.00              2287.00,270.00 2297.00,270.91 2297.00,270.91              2297.00,270.91 2338.00,275.59 2338.00,275.59              2389.43,284.22 2439.81,302.37 2479.00,337.93              2479.00,337.93 2489.91,348.00 2489.91,348.00              2529.28,390.06 2550.63,440.17 2557.72,497.00              2560.66,520.63 2560.04,544.22 2560.00,568.00              2560.00,568.00 2559.09,580.00 2559.09,580.00              2559.09,580.00 2553.27,630.00 2553.27,630.00              2542.84,702.33 2512.07,782.54 2469.57,842.00              2454.28,863.41 2438.46,881.32 2420.00,900.00              2420.00,900.00 2411.83,908.72 2411.83,908.72              2388.53,931.43 2362.71,952.17 2334.00,967.69              2293.35,989.68 2260.91,996.64 2216.00,1004.08              2195.78,1007.43 2162.00,1011.91 2142.00,1012.00              2142.00,1012.00 2126.00,1013.00 2126.00,1013.00              2126.00,1013.00 1940.00,1013.00 1940.00,1013.00              1937.40,1013.01 1933.58,1012.67 1931.58,1014.60              1929.54,1016.57 1928.41,1024.94 1927.80,1028.00              1927.80,1028.00 1921.00,1062.00 1921.00,1062.00              1921.00,1062.00 1888.60,1223.00 1888.60,1223.00              1888.60,1223.00 1880.80,1262.00 1880.80,1262.00              1880.20,1264.98 1878.31,1276.65 1876.84,1278.43              1875.20,1280.42 1871.36,1280.00 1869.00,1280.00              1869.00,1280.00 1679.00,1280.00 1679.00,1280.00 Z            M 284.00,853.00            C 294.36,854.86 315.49,853.98 327.00,854.00              327.00,854.00 374.00,854.00 374.00,854.00              374.00,854.00 393.00,853.00 393.00,853.00              393.00,853.00 403.00,852.09 403.00,852.09              438.66,849.65 474.04,845.56 509.00,837.65              543.42,829.86 567.28,823.91 593.91,798.72              612.10,781.51 626.08,756.66 636.30,734.00              648.04,707.97 656.27,678.86 662.42,651.00              668.74,622.38 673.71,593.34 674.13,564.00              674.13,564.00 674.13,558.00 674.13,558.00              675.43,526.02 668.89,486.89 643.00,465.32              625.75,450.95 591.98,445.26 570.00,441.00              546.88,436.52 523.42,434.51 500.00,432.91              500.00,432.91 489.00,432.00 489.00,432.00              489.00,432.00 466.00,431.00 466.00,431.00              466.00,431.00 432.00,431.00 432.00,431.00              432.00,431.00 415.00,432.00 415.00,432.00              415.00,432.00 368.00,432.00 368.00,432.00              368.00,432.00 360.80,470.00 360.80,470.00              360.80,470.00 346.80,540.00 346.80,540.00              346.80,540.00 304.60,750.00 304.60,750.00              304.60,750.00 290.80,819.00 290.80,819.00              290.80,819.00 284.00,853.00 284.00,853.00 Z            M 1964.00,853.00            C 1974.28,854.84 1994.64,853.98 2006.00,854.14              2006.00,854.14 2016.00,854.14 2016.00,854.14              2016.00,854.14 2053.00,854.14 2053.00,854.14              2053.00,854.14 2063.00,853.04 2063.00,853.04              2063.00,853.04 2073.00,853.04 2073.00,853.04              2073.00,853.04 2083.00,852.09 2083.00,852.09              2083.00,852.09 2107.00,850.17 2107.00,850.17              2136.92,847.18 2166.77,843.18 2196.00,835.87              2224.92,828.64 2245.95,823.58 2269.00,802.83              2292.90,781.32 2308.60,752.50 2320.40,723.00              2332.19,693.52 2340.79,660.25 2346.42,629.00              2346.42,629.00 2353.09,577.00 2353.09,577.00              2353.09,577.00 2354.00,565.00 2354.00,565.00              2354.00,565.00 2354.00,548.00 2354.00,548.00              2354.00,548.00 2353.08,536.00 2353.08,536.00              2350.75,506.87 2341.83,477.38 2316.00,460.70              2300.09,450.42 2261.42,442.59 2242.00,439.73              2242.00,439.73 2179.00,432.91 2179.00,432.91              2179.00,432.91 2167.00,432.00 2167.00,432.00              2167.00,432.00 2145.00,431.00 2145.00,431.00              2145.00,431.00 2111.00,431.00 2111.00,431.00              2111.00,431.00 2094.00,432.00 2094.00,432.00              2094.00,432.00 2048.00,432.00 2048.00,432.00              2048.00,432.00 2018.00,581.00 2018.00,581.00              2018.00,581.00 1990.20,720.00 1990.20,720.00              1990.20,720.00 1972.40,808.00 1972.40,808.00              1972.40,808.00 1964.00,853.00 1964.00,853.00 Z" />
</svg>