<svg xmlns="http://www.w3.org/2000/svg" viewBox="14.49 183.64 739.07 400.86">
  <path id="Selection" fill="#303030" stroke="none" stroke-width="1" d="M 347.00,184.14            C 347.00,184.14 374.00,184.14 374.00,184.14              374.00,184.14 413.00,184.14 413.00,184.14              413.00,184.14 435.00,185.00 435.00,185.00              435.00,185.00 445.00,185.91 445.00,185.91              467.81,187.51 490.56,190.91 513.00,195.40              567.77,206.35 623.15,223.78 670.00,255.00              684.13,264.42 698.04,274.85 709.96,287.01              731.75,309.25 752.62,342.88 753.00,375.00              753.19,391.87 753.25,403.49 748.28,420.00              746.21,426.88 743.44,432.62 740.25,439.00              721.18,477.14 687.44,503.83 651.00,524.42              605.34,550.23 554.38,565.16 503.00,574.42              483.78,577.89 464.47,580.73 445.00,582.09              445.00,582.09 435.00,583.00 435.00,583.00              435.00,583.00 413.00,584.00 413.00,584.00              413.00,584.00 355.00,584.00 355.00,584.00              355.00,584.00 333.00,583.00 333.00,583.00              333.00,583.00 323.00,582.09 323.00,582.09              303.15,580.70 283.60,577.66 264.00,574.25              264.00,574.25 217.00,563.88 217.00,563.88              164.69,550.07 107.14,526.01 67.00,489.08              46.47,470.20 27.91,447.20 19.72,420.00              14.80,403.65 14.97,393.58 15.00,377.00              15.07,332.59 47.12,294.00 80.00,267.80              134.50,224.38 215.73,200.33 284.00,190.27              284.00,190.27 334.00,185.00 334.00,185.00              339.02,184.98 341.91,185.15 347.00,184.14 Z            M 385.00,247.00            C 385.00,247.00 346.00,247.00 346.00,247.00              346.00,247.00 334.42,304.00 334.42,304.00              334.42,304.00 324.42,352.00 324.42,352.00              324.42,352.00 313.42,405.00 313.42,405.00              313.42,405.00 308.00,429.00 308.00,429.00              308.00,429.00 347.00,429.00 347.00,429.00              347.00,429.00 351.58,407.00 351.58,407.00              351.58,407.00 357.42,378.00 357.42,378.00              357.42,378.00 366.00,337.00 366.00,337.00              366.00,337.00 401.00,337.00 401.00,337.00              406.91,337.07 414.42,338.04 418.89,342.22              425.56,348.45 422.93,360.11 421.12,368.00              421.12,368.00 408.00,429.00 408.00,429.00              408.00,429.00 439.00,429.00 439.00,429.00              440.97,429.00 444.69,429.26 446.27,428.01              447.94,426.68 448.39,423.01 448.80,421.00              448.80,421.00 452.35,404.00 452.35,404.00              452.35,404.00 463.25,352.00 463.25,352.00              464.88,341.90 464.31,329.19 457.18,321.18              450.82,314.04 441.10,311.24 432.00,309.61              416.83,306.91 388.54,308.00 372.00,308.00              372.00,308.00 385.00,247.00 385.00,247.00 Z            M 178.00,475.00            C 178.00,475.00 183.42,443.00 183.42,443.00              183.91,440.33 184.93,432.26 186.60,430.60              188.54,428.67 192.45,429.01 195.00,429.00              227.68,428.93 270.35,431.34 291.38,401.00              295.50,395.06 299.82,384.97 301.98,378.00              305.24,367.46 305.12,362.76 305.00,352.00              304.76,331.69 289.73,316.39 271.00,310.77              259.00,307.17 246.36,308.00 234.00,308.00              234.00,308.00 178.00,308.00 178.00,308.00              176.03,308.00 172.31,307.74 170.73,308.99              168.64,310.66 168.06,317.33 167.58,320.00              167.58,320.00 162.59,347.00 162.59,347.00              162.59,347.00 152.61,400.00 152.61,400.00              152.61,400.00 148.20,426.00 148.20,426.00              148.20,426.00 139.00,475.00 139.00,475.00              139.00,475.00 178.00,475.00 178.00,475.00 Z            M 508.00,429.00            C 536.72,429.00 574.10,431.70 599.00,415.56              612.01,407.13 618.54,395.24 623.33,381.00              630.71,359.05 630.75,333.79 610.00,318.78              593.90,307.14 577.62,308.00 559.00,308.00              559.00,308.00 492.00,308.00 492.00,308.00              492.00,308.00 482.00,364.00 482.00,364.00              482.00,364.00 469.39,433.00 469.39,433.00              469.39,433.00 462.00,475.00 462.00,475.00              462.00,475.00 492.00,475.00 492.00,475.00              492.00,475.00 499.83,473.43 499.83,473.43              499.83,473.43 502.75,461.00 502.75,461.00              502.75,461.00 508.00,429.00 508.00,429.00 Z            M 191.00,400.00            C 191.00,400.00 199.80,353.00 199.80,353.00              200.42,349.89 201.57,339.71 203.73,337.99              205.31,336.74 209.03,337.00 211.00,337.00              223.69,336.98 247.36,335.30 257.99,341.53              275.62,351.87 265.47,385.44 251.00,394.24              237.23,402.61 207.54,400.00 191.00,400.00 Z            M 525.00,337.00            C 525.00,337.00 559.00,337.00 559.00,337.00              565.80,337.01 574.01,337.91 580.00,341.36              598.18,351.84 588.31,385.75 573.00,394.64              559.37,402.55 530.20,400.00 514.00,400.00              514.00,400.00 525.00,337.00 525.00,337.00 Z"/>
</svg>