<svg xmlns="http://www.w3.org/2000/svg" viewBox="1.69 6.47 612.72 612.06">
  <path id="pinterest" fill="#303030" stroke="none" stroke-width="1"
    d="M 196.00,597.00            C 165.16,586.23 129.15,562.58 104.72,541.11              1.17,450.13 -26.40,300.17 33.26,177.00              51.83,138.66 79.58,104.68 112.00,77.27              136.84,56.28 169.43,37.52 200.00,26.32              229.61,15.47 255.63,10.07 287.00,7.91              287.00,7.91 297.00,7.00 297.00,7.00              359.21,6.28 415.70,19.24 469.00,52.42              504.18,74.33 532.98,101.40 557.26,135.00              591.17,181.94 612.33,243.01 613.00,301.00              613.00,301.00 613.91,314.00 613.91,314.00              613.91,314.00 613.00,332.00 613.00,332.00              612.89,341.34 610.15,359.46 608.42,369.00              600.43,413.22 582.53,454.47 556.42,491.00              532.85,523.98 503.39,551.16 469.00,572.58              426.71,598.92 378.54,613.68 329.00,617.09              329.00,617.09 319.00,618.00 319.00,618.00              296.22,618.26 273.43,616.92 251.00,612.74              251.00,612.74 228.00,607.52 228.00,607.52              228.00,607.52 218.00,605.00 218.00,605.00              219.36,598.32 225.36,590.27 228.77,584.00              236.34,570.07 243.97,555.86 249.58,541.00              256.83,521.77 261.84,499.06 267.12,479.00              268.91,472.16 271.76,457.46 275.00,452.00              282.80,463.55 290.67,469.99 303.00,476.24              343.52,496.79 395.09,483.50 430.00,457.52              440.38,449.79 449.27,440.89 457.56,431.00              476.38,408.56 488.78,381.26 495.87,353.00              512.85,285.40 499.03,215.67 445.00,168.29              418.86,145.36 388.94,131.43 355.00,124.60              346.51,122.89 333.55,121.01 325.00,121.00              325.00,121.00 300.00,121.00 300.00,121.00              288.46,121.14 266.41,124.79 255.00,127.63              185.45,144.94 133.23,193.01 117.58,264.00              115.52,273.31 113.11,288.61 113.00,298.00              112.58,334.32 123.86,375.87 149.09,403.00              156.13,410.57 162.00,415.83 171.00,420.98              174.00,422.71 178.37,425.20 181.78,423.09              184.62,421.33 185.37,417.02 186.13,414.00              186.13,414.00 191.87,391.00 191.87,391.00              192.62,388.00 193.96,384.03 193.27,381.00              192.49,377.62 188.81,373.02 186.86,370.00              184.04,365.61 180.42,358.82 178.45,354.00              170.09,333.52 168.75,319.75 169.00,298.00              169.14,286.53 173.35,268.70 177.60,258.00              187.04,234.21 201.11,214.84 222.00,199.74              265.47,168.32 331.81,164.92 378.00,192.45              387.07,197.86 394.65,204.48 401.99,212.00              412.10,222.36 421.30,237.27 426.00,251.00              430.23,263.39 433.84,277.85 434.00,291.00              434.54,337.74 424.41,391.63 385.00,421.76              364.78,437.22 333.60,444.41 311.00,429.91              303.39,425.03 297.80,418.45 294.46,410.00              291.62,402.80 291.92,397.52 292.00,390.00              292.11,381.26 296.13,369.59 298.58,361.00              305.45,336.93 318.28,303.46 318.00,279.00              317.74,256.82 301.44,236.73 278.00,238.09              252.95,239.55 235.19,261.43 228.44,284.00              225.93,292.37 225.51,297.47 224.91,306.00              224.67,309.44 223.93,311.40 224.18,315.00              224.88,324.76 226.39,334.53 228.88,344.00              230.21,349.04 233.20,355.07 232.81,360.00              232.81,360.00 229.42,375.00 229.42,375.00              229.42,375.00 221.37,409.00 221.37,409.00              221.37,409.00 207.12,470.00 207.12,470.00              207.12,470.00 195.28,524.00 195.28,524.00              195.28,524.00 194.00,562.00 194.00,562.00              194.00,562.00 197.00,596.00 197.00,596.00              197.00,596.00 196.00,597.00 196.00,597.00 Z" />
</svg>