<svg xmlns="http://www.w3.org/2000/svg" viewBox="112.5 120.5 391.01 483.44">
  <path id="Selection" fill="#303030" stroke="none" stroke-width="1" d="M 195.00,597.00            C 196.97,588.91 194.11,574.89 194.00,566.00              194.00,566.00 194.00,539.00 194.00,539.00              194.03,518.85 200.46,496.63 205.12,477.00              205.12,477.00 221.37,408.00 221.37,408.00              221.37,408.00 229.13,375.00 229.13,375.00              230.17,370.70 233.05,360.98 232.54,357.00              232.54,357.00 226.81,337.00 226.81,337.00              223.04,318.47 223.24,300.18 228.72,282.00              233.59,265.87 243.91,250.86 259.00,242.89              280.45,231.55 307.00,239.12 315.45,263.00              318.08,270.43 318.09,277.28 318.00,285.00              317.78,303.17 304.93,341.17 299.28,360.00              295.71,371.91 291.85,383.46 292.00,396.00              292.27,418.47 311.86,434.65 333.00,437.15              335.75,437.48 337.13,437.89 340.00,437.68              397.83,433.35 425.98,377.64 432.15,326.00              432.15,326.00 434.00,307.00 434.00,307.00              434.33,278.06 430.16,252.71 413.92,228.00              376.92,171.69 297.70,160.42 240.00,189.27              224.86,196.84 212.52,207.67 201.09,220.00              174.07,249.15 162.78,295.63 172.37,334.00              174.69,343.25 178.74,354.67 183.31,363.00              185.63,367.22 192.75,376.59 193.56,380.00              194.38,383.47 192.74,388.54 191.87,392.00              191.87,392.00 184.43,420.89 184.43,420.89              181.17,426.82 175.57,424.10 171.00,421.56              161.05,416.04 152.82,408.79 145.62,400.00              126.50,376.68 113.05,339.24 113.00,309.00              113.00,309.00 113.00,296.00 113.00,296.00              113.18,280.97 117.86,258.31 122.67,244.00              134.05,210.15 156.01,179.70 185.00,158.74              213.16,138.39 244.86,127.61 279.00,122.87              285.70,121.94 293.27,121.01 300.00,121.00              300.00,121.00 329.00,121.00 329.00,121.00              336.75,121.09 348.28,123.06 356.00,124.60              399.45,133.29 438.72,154.75 466.34,190.00              475.90,202.20 483.99,215.61 489.80,230.00              499.03,252.88 503.28,277.36 503.00,302.00              503.00,302.00 502.09,312.00 502.09,312.00              502.09,312.00 499.57,337.00 499.57,337.00              489.77,395.35 454.67,455.16 397.00,476.68              367.97,487.51 333.88,490.99 305.00,477.82              293.00,472.35 280.95,464.12 275.00,452.00              275.00,452.00 261.12,503.00 261.12,503.00              253.10,533.49 251.67,540.14 237.25,569.00              237.25,569.00 223.72,594.00 223.72,594.00              222.30,596.49 219.38,602.40 216.67,603.33              213.80,604.33 198.84,598.28 195.00,597.00 Z"/>
</svg>