<svg xmlns="http://www.w3.org/2000/svg" viewBox="723.5 108.09 1834 379.49">
  <path id="Selection #2" fill="#303030" stroke="none" stroke-width="1" d="M 1048.00,108.59            C 1064.11,108.72 1077.31,114.06 1087.48,127.00              1105.52,149.92 1099.08,186.21 1073.00,200.21              1063.19,205.47 1056.81,206.12 1046.00,206.00              1009.97,205.57 988.79,164.89 1005.32,134.00              1011.77,121.96 1023.53,112.55 1037.00,109.67              1037.00,109.67 1048.00,108.59 1048.00,108.59 Z            M 724.00,124.00            C 724.00,124.00 841.00,124.00 841.00,124.00              879.99,124.00 917.69,123.77 951.00,147.75              978.57,167.58 996.95,202.92 997.00,237.00              997.00,237.00 997.00,254.00 997.00,254.00              996.70,279.40 983.81,310.02 965.91,327.91              960.65,333.17 950.48,340.69 944.00,344.55              926.85,354.75 901.94,360.97 882.00,361.00              882.00,361.00 860.00,361.00 860.00,361.00              860.00,361.00 806.00,361.00 806.00,361.00              806.00,361.00 806.00,479.00 806.00,479.00              806.00,479.00 724.00,479.00 724.00,479.00              724.00,479.00 724.00,124.00 724.00,124.00 Z            M 1378.00,145.00            C 1378.00,145.00 1458.00,145.00 1458.00,145.00              1458.00,145.00 1458.00,225.00 1458.00,225.00              1458.00,225.00 1497.00,225.00 1497.00,225.00              1497.00,225.00 1497.00,276.00 1497.00,276.00              1497.00,276.00 1458.00,276.00 1458.00,276.00              1458.00,276.00 1458.00,372.00 1458.00,372.00              1458.00,383.37 1455.96,402.01 1463.39,410.96              1471.43,420.65 1485.74,419.00 1497.00,419.00              1497.00,419.00 1497.00,480.00 1497.00,480.00              1480.11,482.23 1476.67,482.00 1460.00,482.00              1436.47,482.00 1411.38,480.33 1394.09,461.99              1382.25,449.42 1378.20,429.80 1378.00,413.00              1378.00,413.00 1378.00,276.00 1378.00,276.00              1378.00,276.00 1352.00,276.00 1352.00,276.00              1352.00,276.00 1352.00,225.00 1352.00,225.00              1352.00,225.00 1378.00,225.00 1378.00,225.00              1378.00,225.00 1378.00,145.00 1378.00,145.00 Z            M 2436.00,145.00            C 2436.00,145.00 2516.00,145.00 2516.00,145.00              2516.00,145.00 2516.00,225.00 2516.00,225.00              2516.00,225.00 2557.00,225.00 2557.00,225.00              2557.00,225.00 2557.00,276.00 2557.00,276.00              2557.00,276.00 2516.00,276.00 2516.00,276.00              2516.00,276.00 2516.00,395.00 2516.00,395.00              2516.02,398.40 2515.98,400.70 2517.11,404.00              2523.18,421.70 2542.10,419.00 2557.00,419.00              2557.00,419.00 2557.00,480.00 2557.00,480.00              2557.00,480.00 2534.00,482.00 2534.00,482.00              2509.16,482.04 2481.54,484.14 2460.00,469.23              2443.84,458.05 2436.23,438.21 2436.00,419.00              2436.00,419.00 2436.00,276.00 2436.00,276.00              2436.00,276.00 2411.00,276.00 2411.00,276.00              2411.00,276.00 2411.00,225.00 2411.00,225.00              2411.00,225.00 2436.00,225.00 2436.00,225.00              2436.00,225.00 2436.00,145.00 2436.00,145.00 Z            M 806.00,291.00            C 806.00,291.00 867.00,291.00 867.00,291.00              878.22,290.87 892.21,287.94 901.00,280.67              904.77,277.56 908.72,273.30 911.10,269.00              919.90,253.08 919.15,227.92 906.82,214.00              897.70,203.71 883.49,199.16 870.00,199.00              870.00,199.00 806.00,199.00 806.00,199.00              806.00,199.00 806.00,291.00 806.00,291.00 Z            M 1185.00,260.00            C 1189.15,251.95 1197.02,243.34 1204.00,237.62              1208.62,233.82 1215.62,228.87 1221.00,226.32              1232.49,220.86 1242.45,218.83 1255.00,217.91              1255.00,217.91 1264.00,217.03 1264.00,217.03              1264.00,217.03 1272.00,217.83 1272.00,217.83              1272.00,217.83 1280.00,218.44 1280.00,218.44              1304.16,222.21 1326.59,235.11 1338.69,257.00              1355.53,287.48 1352.00,312.78 1352.00,346.00              1352.00,346.00 1352.00,479.00 1352.00,479.00              1352.00,479.00 1271.00,479.00 1271.00,479.00              1271.00,479.00 1271.00,333.00 1271.00,333.00              1270.84,320.06 1267.57,305.36 1257.96,296.09              1237.13,275.99 1204.29,287.21 1192.90,312.00              1185.34,328.45 1187.00,352.95 1187.00,371.00              1187.00,371.00 1187.00,479.00 1187.00,479.00              1187.00,479.00 1106.00,479.00 1106.00,479.00              1106.00,479.00 1106.00,225.00 1106.00,225.00              1106.00,225.00 1184.00,225.00 1184.00,225.00              1184.00,225.00 1185.00,260.00 1185.00,260.00 Z            M 1750.00,403.00            C 1748.94,414.79 1739.96,430.67 1732.87,440.00              1705.86,475.52 1664.78,487.50 1622.00,487.00              1622.00,487.00 1613.00,486.17 1613.00,486.17              1581.64,483.13 1553.19,473.23 1530.09,450.83              1507.33,428.77 1492.37,391.68 1492.00,360.00              1492.00,360.00 1492.00,346.00 1492.00,346.00              1492.04,317.58 1503.41,284.93 1521.46,263.00              1545.20,234.16 1576.41,220.43 1613.00,217.91              1613.00,217.91 1624.00,217.02 1624.00,217.02              1624.00,217.02 1633.00,217.91 1633.00,217.91              1664.01,220.04 1689.99,229.47 1712.96,251.17              1744.75,281.19 1755.00,330.98 1755.00,373.00              1755.00,373.00 1572.00,373.00 1572.00,373.00              1576.11,385.46 1575.80,392.77 1584.09,405.00              1597.62,424.95 1624.50,433.33 1647.00,424.77              1652.97,422.50 1658.54,418.73 1662.82,413.99              1670.96,404.96 1666.82,403.02 1678.00,403.00              1678.00,403.00 1750.00,403.00 1750.00,403.00 Z            M 2172.00,403.00            C 2164.60,439.68 2131.72,468.93 2097.00,479.97              2079.44,485.56 2062.32,487.21 2044.00,487.00              2044.00,487.00 2035.00,486.17 2035.00,486.17              2010.28,483.77 1988.84,478.19 1968.00,463.97              1936.23,442.29 1914.46,401.64 1914.00,363.00              1914.00,363.00 1914.00,342.00 1914.00,342.00              1914.05,312.12 1928.31,278.98 1948.17,257.00              1992.17,208.29 2081.04,203.45 2130.00,247.17              2154.13,268.72 2166.17,295.83 2172.40,327.00              2174.11,335.54 2175.99,348.40 2176.00,357.00              2176.00,357.00 2176.00,373.00 2176.00,373.00              2176.00,373.00 1994.00,373.00 1994.00,373.00              1996.63,386.98 2000.71,400.05 2010.30,410.99              2023.75,426.32 2049.00,432.12 2068.00,424.94              2073.28,422.94 2078.82,419.83 2082.83,415.83              2092.11,406.56 2087.55,403.02 2100.00,403.00              2100.00,403.00 2172.00,403.00 2172.00,403.00 Z            M 2254.00,403.00            C 2260.37,430.18 2288.61,437.80 2313.00,432.34              2327.31,429.13 2343.78,417.52 2335.32,401.00              2327.63,385.99 2297.34,382.46 2282.00,379.92              2244.14,373.65 2197.74,366.76 2185.04,324.00              2183.46,318.69 2182.07,310.52 2182.00,305.00              2181.87,293.55 2182.14,284.00 2186.09,273.00              2198.94,237.20 2237.84,221.53 2273.00,218.04              2273.00,218.04 2281.00,218.04 2281.00,218.04              2281.00,218.04 2291.00,217.00 2291.00,217.00              2291.00,217.00 2304.00,217.91 2304.00,217.91              2315.42,218.69 2325.77,219.39 2337.00,222.13              2375.72,231.58 2406.08,257.89 2407.00,300.00              2407.00,300.00 2340.00,300.00 2340.00,300.00              2337.96,300.00 2334.24,300.24 2332.58,298.98              2330.85,297.66 2330.44,294.05 2329.78,292.00              2328.57,288.22 2326.33,284.05 2323.67,281.09              2316.84,273.47 2304.96,270.12 2295.00,270.00              2295.00,270.00 2291.00,270.00 2291.00,270.00              2281.61,270.01 2271.33,271.96 2264.04,278.33              2254.75,286.45 2254.38,297.75 2265.00,304.90              2274.89,311.55 2295.01,314.26 2307.00,316.42              2337.37,321.90 2373.26,325.95 2395.99,349.00              2418.75,372.09 2420.78,415.79 2404.55,443.00              2397.69,454.49 2389.30,461.96 2378.00,468.94              2365.89,476.41 2350.91,481.26 2337.00,484.00              2317.79,487.78 2305.18,487.03 2286.00,487.00              2257.00,486.95 2220.03,475.46 2199.28,454.72              2187.41,442.84 2180.58,429.25 2176.89,413.00              2176.89,413.00 2175.00,403.00 2175.00,403.00              2175.00,403.00 2254.00,403.00 2254.00,403.00 Z            M 1843.00,264.00            C 1851.73,246.11 1869.58,229.20 1889.00,223.75              1900.66,220.47 1909.23,221.00 1921.00,221.00              1921.00,221.00 1921.00,292.00 1921.00,292.00              1905.70,292.00 1894.38,291.73 1880.00,298.49              1857.28,309.17 1846.04,334.89 1846.00,359.00              1846.00,359.00 1846.00,479.00 1846.00,479.00              1846.00,479.00 1764.00,479.00 1764.00,479.00              1764.00,479.00 1764.00,225.00 1764.00,225.00              1764.00,225.00 1842.00,225.00 1842.00,225.00              1842.00,233.53 1841.08,257.23 1843.00,264.00 Z            M 1008.00,225.00            C 1008.00,225.00 1090.00,225.00 1090.00,225.00              1090.00,225.00 1090.00,421.00 1090.00,421.00              1090.00,421.00 1090.00,472.00 1090.00,472.00              1089.94,480.13 1088.73,479.98 1081.00,480.00              1081.00,480.00 1008.00,480.00 1008.00,480.00              1008.00,480.00 1008.00,225.00 1008.00,225.00 Z            M 1672.00,324.00            C 1669.66,311.16 1667.03,300.05 1657.82,290.04              1640.79,271.54 1608.26,271.16 1590.04,288.17              1580.59,297.00 1575.35,311.54 1573.00,324.00              1573.00,324.00 1672.00,324.00 1672.00,324.00 Z            M 2093.00,324.00            C 2092.83,316.28 2090.69,308.89 2087.24,302.00              2077.97,283.45 2063.21,275.77 2043.00,276.00              2036.08,276.08 2028.17,277.81 2022.00,280.98              2006.83,288.76 1996.41,307.26 1995.00,324.00              1995.00,324.00 2093.00,324.00 2093.00,324.00 Z"/>
</svg>