<svg xmlns="http://www.w3.org/2000/svg" viewBox="304.5 601.5 1994 1501">
  <path id="pixabay" fill="#303030" stroke="none" stroke-width="1"
    d="M 309.00,2098.00            C 309.00,2098.00 305.00,2049.00 305.00,2049.00              305.00,2049.00 305.00,1668.00 305.00,1668.00              305.00,1668.00 305.00,1308.00 305.00,1308.00              305.00,1308.00 305.00,1128.00 305.00,1128.00              305.00,1128.00 306.00,1114.00 306.00,1114.00              306.00,1114.00 306.00,1110.00 306.00,1110.00              306.00,1110.00 306.91,1100.00 306.91,1100.00              306.91,1100.00 310.87,1062.00 310.87,1062.00              315.60,1028.04 323.15,994.54 334.00,962.00              359.58,885.27 400.03,816.56 456.04,758.00              529.61,681.08 633.02,627.05 738.00,609.43              751.65,607.14 779.81,603.16 793.00,603.00              793.00,603.00 813.00,602.00 813.00,602.00              813.00,602.00 836.00,602.00 836.00,602.00              836.00,602.00 855.00,603.00 855.00,603.00              855.00,603.00 865.00,603.91 865.00,603.91              865.00,603.91 906.00,608.92 906.00,608.92              954.97,617.03 1002.34,632.63 1047.00,654.26              1067.00,663.94 1086.52,675.68 1105.00,688.00              1210.81,758.54 1288.61,865.10 1321.85,988.00              1331.17,1022.45 1336.66,1057.46 1339.09,1093.00              1339.09,1093.00 1340.04,1103.00 1340.04,1103.00              1340.04,1103.00 1340.04,1117.00 1340.04,1117.00              1340.04,1117.00 1341.00,1129.00 1341.00,1129.00              1341.00,1129.00 1341.00,1142.00 1341.00,1142.00              1341.00,1142.00 1340.04,1152.00 1340.04,1152.00              1340.04,1152.00 1340.04,1165.00 1340.04,1165.00              1340.04,1165.00 1339.09,1175.00 1339.09,1175.00              1339.09,1175.00 1335.13,1214.00 1335.13,1214.00              1327.67,1267.62 1313.74,1315.50 1291.86,1365.00              1254.92,1448.57 1188.72,1529.55 1113.00,1580.67              1075.48,1606.00 1035.78,1628.08 993.00,1643.31              948.35,1659.20 908.82,1665.69 862.00,1670.17              862.00,1670.17 848.00,1671.09 848.00,1671.09              848.00,1671.09 838.00,1672.00 838.00,1672.00              838.00,1672.00 823.00,1672.00 823.00,1672.00              823.00,1672.00 807.00,1673.00 807.00,1673.00              807.00,1673.00 513.00,1673.00 513.00,1673.00              513.00,1673.00 513.00,2100.04 513.00,2100.04              513.00,2100.04 499.00,2100.04 499.00,2100.04              499.00,2100.04 488.00,2101.00 488.00,2101.00              488.00,2101.00 467.00,2101.00 467.00,2101.00              467.00,2101.00 450.00,2102.00 450.00,2102.00              450.00,2102.00 407.00,2102.00 407.00,2102.00              407.00,2102.00 390.00,2101.00 390.00,2101.00              390.00,2101.00 366.00,2101.00 366.00,2101.00              366.00,2101.00 354.00,2100.04 354.00,2100.04              354.00,2100.04 342.00,2100.04 342.00,2100.04              342.00,2100.04 330.00,2099.04 330.00,2099.04              330.00,2099.04 321.00,2099.04 321.00,2099.04              321.00,2099.04 309.00,2098.00 309.00,2098.00 Z            M 1262.00,603.00            C 1262.00,603.00 1504.00,603.00 1504.00,603.00              1504.00,603.00 1511.68,604.02 1511.68,604.02              1511.68,604.02 1526.00,624.00 1526.00,624.00              1526.00,624.00 1571.67,692.00 1571.67,692.00              1571.67,692.00 1693.33,874.00 1693.33,874.00              1693.33,874.00 1734.33,935.00 1734.33,935.00              1734.33,935.00 1759.00,971.00 1759.00,971.00              1759.00,971.00 1779.33,940.00 1779.33,940.00              1779.33,940.00 1819.33,880.00 1819.33,880.00              1819.33,880.00 1947.33,689.00 1947.33,689.00              1947.33,689.00 1990.67,624.00 1990.67,624.00              1993.48,619.77 2002.23,605.25 2006.18,603.60              2007.91,602.88 2011.09,603.00 2013.00,603.00              2013.00,603.00 2254.00,603.00 2254.00,603.00              2254.00,603.00 2244.67,619.00 2244.67,619.00              2244.67,619.00 2228.00,644.00 2228.00,644.00              2228.00,644.00 2175.00,724.00 2175.00,724.00              2175.00,724.00 2000.00,987.00 2000.00,987.00              2000.00,987.00 1935.33,1084.00 1935.33,1084.00              1935.33,1084.00 1918.67,1109.00 1918.67,1109.00              1918.67,1109.00 1912.69,1120.00 1912.69,1120.00              1912.69,1120.00 1919.86,1132.00 1919.86,1132.00              1919.86,1132.00 1939.71,1160.00 1939.71,1160.00              1939.71,1160.00 2015.14,1266.00 2015.14,1266.00              2015.14,1266.00 2201.42,1528.00 2201.42,1528.00              2201.42,1528.00 2264.71,1617.00 2264.71,1617.00              2264.71,1617.00 2298.00,1665.00 2298.00,1665.00              2298.00,1665.00 2055.00,1665.00 2055.00,1665.00              2053.18,1665.00 2049.95,1665.14 2048.32,1664.43              2045.29,1663.10 2036.70,1650.37 2034.29,1647.00              2034.29,1647.00 1994.13,1592.00 1994.13,1592.00              1994.13,1592.00 1905.85,1471.00 1905.85,1471.00              1905.85,1471.00 1824.71,1360.00 1824.71,1360.00              1824.71,1360.00 1777.29,1295.00 1777.29,1295.00              1777.29,1295.00 1765.58,1279.00 1765.58,1279.00              1764.37,1277.37 1762.22,1274.04 1759.95,1274.04              1757.67,1274.04 1755.31,1277.40 1754.00,1279.00              1754.00,1279.00 1742.00,1294.00 1742.00,1294.00              1742.00,1294.00 1693.87,1357.00 1693.87,1357.00              1693.87,1357.00 1584.58,1508.00 1584.58,1508.00              1584.58,1508.00 1524.71,1591.00 1524.71,1591.00              1524.71,1591.00 1483.13,1647.00 1483.13,1647.00              1480.05,1651.11 1472.26,1662.75 1467.96,1664.40              1466.11,1665.12 1463.02,1665.00 1461.00,1665.00              1461.00,1665.00 1219.00,1665.00 1219.00,1665.00              1219.00,1665.00 1248.58,1623.00 1248.58,1623.00              1248.58,1623.00 1314.58,1530.00 1314.58,1530.00              1314.58,1530.00 1504.71,1262.00 1504.71,1262.00              1504.71,1262.00 1579.28,1157.00 1579.28,1157.00              1579.28,1157.00 1598.42,1130.00 1598.42,1130.00              1598.42,1130.00 1604.54,1119.58 1604.54,1119.58              1604.54,1119.58 1598.33,1109.00 1598.33,1109.00              1598.33,1109.00 1581.00,1083.00 1581.00,1083.00              1581.00,1083.00 1518.00,989.00 1518.00,989.00              1518.00,989.00 1341.33,724.00 1341.33,724.00              1341.33,724.00 1287.33,643.00 1287.33,643.00              1287.33,643.00 1271.33,619.00 1271.33,619.00              1271.33,619.00 1262.00,603.00 1262.00,603.00 Z            M 829.00,813.00            C 829.00,813.00 813.00,814.00 813.00,814.00              813.00,814.00 829.00,813.00 829.00,813.00 Z            M 801.00,814.00            C 801.00,814.00 796.00,815.00 796.00,815.00              796.00,815.00 801.00,814.00 801.00,814.00 Z            M 846.00,814.00            C 846.00,814.00 840.00,815.00 840.00,815.00              840.00,815.00 846.00,814.00 846.00,814.00 Z            M 750.00,822.00            C 750.00,822.00 749.00,822.00 749.00,822.00              749.00,822.00 750.00,823.00 750.00,823.00              750.00,823.00 750.00,822.00 750.00,822.00 Z            M 896.00,823.00            C 896.00,823.00 895.00,823.00 895.00,823.00              895.00,823.00 896.00,824.00 896.00,824.00              896.00,824.00 896.00,823.00 896.00,823.00 Z            M 900.00,824.00            C 900.00,824.00 899.00,824.00 899.00,824.00              899.00,824.00 900.00,825.00 900.00,825.00              900.00,825.00 900.00,824.00 900.00,824.00 Z            M 739.00,825.00            C 739.00,825.00 738.00,825.00 738.00,825.00              738.00,825.00 739.00,826.00 739.00,826.00              739.00,826.00 739.00,825.00 739.00,825.00 Z            M 736.00,826.00            C 736.00,826.00 735.00,826.00 735.00,826.00              735.00,826.00 736.00,827.00 736.00,827.00              736.00,827.00 736.00,826.00 736.00,826.00 Z            M 907.00,826.00            C 907.00,826.00 906.00,826.00 906.00,826.00              906.00,826.00 907.00,827.00 907.00,827.00              907.00,827.00 907.00,826.00 907.00,826.00 Z            M 910.00,827.00            C 910.00,827.00 909.00,827.00 909.00,827.00              909.00,827.00 910.00,828.00 910.00,828.00              910.00,828.00 910.00,827.00 910.00,827.00 Z            M 729.00,828.00            C 729.00,828.00 728.00,828.00 728.00,828.00              728.00,828.00 729.00,829.00 729.00,829.00              729.00,829.00 729.00,828.00 729.00,828.00 Z            M 913.00,828.00            C 913.00,828.00 912.00,828.00 912.00,828.00              912.00,828.00 913.00,829.00 913.00,829.00              913.00,829.00 913.00,828.00 913.00,828.00 Z            M 916.00,829.00            C 916.00,829.00 915.00,829.00 915.00,829.00              915.00,829.00 916.00,830.00 916.00,830.00              916.00,830.00 916.00,829.00 916.00,829.00 Z            M 919.00,830.00            C 919.00,830.00 918.00,830.00 918.00,830.00              918.00,830.00 919.00,831.00 919.00,831.00              919.00,831.00 919.00,830.00 919.00,830.00 Z            M 721.00,831.00            C 721.00,831.00 720.00,831.00 720.00,831.00              720.00,831.00 721.00,832.00 721.00,832.00              721.00,832.00 721.00,831.00 721.00,831.00 Z            M 922.00,831.00            C 922.00,831.00 921.00,831.00 921.00,831.00              921.00,831.00 922.00,832.00 922.00,832.00              922.00,832.00 922.00,831.00 922.00,831.00 Z            M 718.00,832.00            C 718.00,832.00 717.00,832.00 717.00,832.00              717.00,832.00 718.00,833.00 718.00,833.00              718.00,833.00 718.00,832.00 718.00,832.00 Z            M 925.00,832.00            C 925.00,832.00 924.00,832.00 924.00,832.00              924.00,832.00 925.00,833.00 925.00,833.00              925.00,833.00 925.00,832.00 925.00,832.00 Z            M 715.00,833.00            C 715.00,833.00 714.00,833.00 714.00,833.00              714.00,833.00 715.00,834.00 715.00,834.00              715.00,834.00 715.00,833.00 715.00,833.00 Z            M 713.00,834.00            C 713.00,834.00 712.00,834.00 712.00,834.00              712.00,834.00 713.00,835.00 713.00,835.00              713.00,835.00 713.00,834.00 713.00,834.00 Z            M 930.00,834.00            C 930.00,834.00 929.00,834.00 929.00,834.00              929.00,834.00 930.00,835.00 930.00,835.00              930.00,835.00 930.00,834.00 930.00,834.00 Z            M 710.00,835.00            C 710.00,835.00 709.00,835.00 709.00,835.00              709.00,835.00 710.00,836.00 710.00,836.00              710.00,836.00 710.00,835.00 710.00,835.00 Z            M 933.00,835.00            C 933.00,835.00 932.00,835.00 932.00,835.00              932.00,835.00 933.00,836.00 933.00,836.00              933.00,836.00 933.00,835.00 933.00,835.00 Z            M 708.00,836.00            C 708.00,836.00 707.00,836.00 707.00,836.00              707.00,836.00 708.00,837.00 708.00,837.00              708.00,837.00 708.00,836.00 708.00,836.00 Z            M 935.00,836.00            C 935.00,836.00 934.00,836.00 934.00,836.00              934.00,836.00 935.00,837.00 935.00,837.00              935.00,837.00 935.00,836.00 935.00,836.00 Z            M 705.00,837.00            C 705.00,837.00 704.00,837.00 704.00,837.00              704.00,837.00 705.00,838.00 705.00,838.00              705.00,838.00 705.00,837.00 705.00,837.00 Z            M 938.00,837.00            C 938.00,837.00 937.00,837.00 937.00,837.00              937.00,837.00 938.00,838.00 938.00,838.00              938.00,838.00 938.00,837.00 938.00,837.00 Z            M 703.00,838.00            C 703.00,838.00 702.00,838.00 702.00,838.00              702.00,838.00 703.00,839.00 703.00,839.00              703.00,839.00 703.00,838.00 703.00,838.00 Z            M 940.00,838.00            C 940.00,838.00 939.00,838.00 939.00,838.00              939.00,838.00 940.00,839.00 940.00,839.00              940.00,839.00 940.00,838.00 940.00,838.00 Z            M 701.00,839.00            C 701.00,839.00 700.00,839.00 700.00,839.00              700.00,839.00 701.00,840.00 701.00,840.00              701.00,840.00 701.00,839.00 701.00,839.00 Z            M 942.00,839.00            C 942.00,839.00 941.00,839.00 941.00,839.00              941.00,839.00 942.00,840.00 942.00,840.00              942.00,840.00 942.00,839.00 942.00,839.00 Z            M 945.00,840.00            C 945.00,840.00 944.00,840.00 944.00,840.00              944.00,840.00 945.00,841.00 945.00,841.00              945.00,841.00 945.00,840.00 945.00,840.00 Z            M 696.00,841.00            C 696.00,841.00 695.00,841.00 695.00,841.00              695.00,841.00 696.00,842.00 696.00,842.00              696.00,842.00 696.00,841.00 696.00,841.00 Z            M 947.00,841.00            C 947.00,841.00 946.00,841.00 946.00,841.00              946.00,841.00 947.00,842.00 947.00,842.00              947.00,842.00 947.00,841.00 947.00,841.00 Z            M 694.00,842.00            C 694.00,842.00 693.00,842.00 693.00,842.00              693.00,842.00 694.00,843.00 694.00,843.00              694.00,843.00 694.00,842.00 694.00,842.00 Z            M 949.00,842.00            C 949.00,842.00 948.00,842.00 948.00,842.00              948.00,842.00 949.00,843.00 949.00,843.00              949.00,843.00 949.00,842.00 949.00,842.00 Z            M 692.00,843.00            C 692.00,843.00 691.00,843.00 691.00,843.00              691.00,843.00 692.00,844.00 692.00,844.00              692.00,844.00 692.00,843.00 692.00,843.00 Z            M 951.00,843.00            C 951.00,843.00 950.00,843.00 950.00,843.00              950.00,843.00 951.00,844.00 951.00,844.00              951.00,844.00 951.00,843.00 951.00,843.00 Z            M 690.00,844.00            C 690.00,844.00 689.00,844.00 689.00,844.00              689.00,844.00 690.00,845.00 690.00,845.00              690.00,845.00 690.00,844.00 690.00,844.00 Z            M 953.00,844.00            C 953.00,844.00 952.00,844.00 952.00,844.00              952.00,844.00 953.00,845.00 953.00,845.00              953.00,845.00 953.00,844.00 953.00,844.00 Z            M 688.00,845.00            C 688.00,845.00 687.00,845.00 687.00,845.00              687.00,845.00 688.00,846.00 688.00,846.00              688.00,846.00 688.00,845.00 688.00,845.00 Z            M 955.00,845.00            C 955.00,845.00 954.00,845.00 954.00,845.00              954.00,845.00 955.00,846.00 955.00,846.00              955.00,846.00 955.00,845.00 955.00,845.00 Z            M 686.00,846.00            C 686.00,846.00 685.00,846.00 685.00,846.00              685.00,846.00 686.00,847.00 686.00,847.00              686.00,847.00 686.00,846.00 686.00,846.00 Z            M 957.00,846.00            C 957.00,846.00 956.00,846.00 956.00,846.00              956.00,846.00 957.00,847.00 957.00,847.00              957.00,847.00 957.00,846.00 957.00,846.00 Z            M 684.00,847.00            C 684.00,847.00 683.00,847.00 683.00,847.00              683.00,847.00 684.00,848.00 684.00,848.00              684.00,848.00 684.00,847.00 684.00,847.00 Z            M 959.00,847.00            C 959.00,847.00 958.00,847.00 958.00,847.00              958.00,847.00 959.00,848.00 959.00,848.00              959.00,848.00 959.00,847.00 959.00,847.00 Z            M 682.00,848.00            C 682.00,848.00 681.00,848.00 681.00,848.00              681.00,848.00 682.00,849.00 682.00,849.00              682.00,849.00 682.00,848.00 682.00,848.00 Z            M 961.00,848.00            C 961.00,848.00 960.00,848.00 960.00,848.00              960.00,848.00 961.00,849.00 961.00,849.00              961.00,849.00 961.00,848.00 961.00,848.00 Z            M 680.00,849.00            C 680.00,849.00 679.00,849.00 679.00,849.00              679.00,849.00 680.00,850.00 680.00,850.00              680.00,850.00 680.00,849.00 680.00,849.00 Z            M 963.00,849.00            C 963.00,849.00 962.00,849.00 962.00,849.00              962.00,849.00 963.00,850.00 963.00,850.00              963.00,850.00 963.00,849.00 963.00,849.00 Z            M 678.00,850.00            C 678.00,850.00 677.00,850.00 677.00,850.00              677.00,850.00 678.00,851.00 678.00,851.00              678.00,851.00 678.00,850.00 678.00,850.00 Z            M 965.00,850.00            C 965.00,850.00 964.00,850.00 964.00,850.00              964.00,850.00 965.00,851.00 965.00,851.00              965.00,851.00 965.00,850.00 965.00,850.00 Z            M 676.00,851.00            C 676.00,851.00 675.00,851.00 675.00,851.00              675.00,851.00 676.00,852.00 676.00,852.00              676.00,852.00 676.00,851.00 676.00,851.00 Z            M 967.00,851.00            C 967.00,851.00 966.00,851.00 966.00,851.00              966.00,851.00 967.00,852.00 967.00,852.00              967.00,852.00 967.00,851.00 967.00,851.00 Z            M 969.00,852.00            C 969.00,852.00 968.00,852.00 968.00,852.00              968.00,852.00 969.00,853.00 969.00,853.00              969.00,853.00 969.00,852.00 969.00,852.00 Z            M 673.00,853.00            C 673.00,853.00 672.00,853.00 672.00,853.00              672.00,853.00 673.00,854.00 673.00,854.00              673.00,854.00 673.00,853.00 673.00,853.00 Z            M 971.00,853.00            C 971.00,853.00 970.00,853.00 970.00,853.00              970.00,853.00 971.00,854.00 971.00,854.00              971.00,854.00 971.00,853.00 971.00,853.00 Z            M 671.00,854.00            C 671.00,854.00 670.00,854.00 670.00,854.00              670.00,854.00 671.00,855.00 671.00,855.00              671.00,855.00 671.00,854.00 671.00,854.00 Z            M 669.00,855.00            C 669.00,855.00 668.00,855.00 668.00,855.00              668.00,855.00 669.00,856.00 669.00,856.00              669.00,856.00 669.00,855.00 669.00,855.00 Z            M 974.00,855.00            C 974.00,855.00 973.00,855.00 973.00,855.00              973.00,855.00 974.00,856.00 974.00,856.00              974.00,856.00 974.00,855.00 974.00,855.00 Z            M 976.00,856.00            C 976.00,856.00 975.00,856.00 975.00,856.00              975.00,856.00 976.00,857.00 976.00,857.00              976.00,857.00 976.00,856.00 976.00,856.00 Z            M 666.00,857.00            C 666.00,857.00 665.00,857.00 665.00,857.00              665.00,857.00 666.00,858.00 666.00,858.00              666.00,858.00 666.00,857.00 666.00,857.00 Z            M 978.00,857.00            C 978.00,857.00 977.00,857.00 977.00,857.00              977.00,857.00 978.00,858.00 978.00,858.00              978.00,858.00 978.00,857.00 978.00,857.00 Z            M 664.00,858.00            C 664.00,858.00 663.00,858.00 663.00,858.00              663.00,858.00 664.00,859.00 664.00,859.00              664.00,859.00 664.00,858.00 664.00,858.00 Z            M 979.00,858.00            C 979.00,858.00 978.00,858.00 978.00,858.00              978.00,858.00 979.00,859.00 979.00,859.00              979.00,859.00 979.00,858.00 979.00,858.00 Z            M 981.00,859.00            C 981.00,859.00 980.00,859.00 980.00,859.00              980.00,859.00 981.00,860.00 981.00,860.00              981.00,860.00 981.00,859.00 981.00,859.00 Z            M 661.00,860.00            C 661.00,860.00 660.00,860.00 660.00,860.00              660.00,860.00 661.00,861.00 661.00,861.00              661.00,861.00 661.00,860.00 661.00,860.00 Z            M 983.00,860.00            C 983.00,860.00 982.00,860.00 982.00,860.00              982.00,860.00 983.00,861.00 983.00,861.00              983.00,861.00 983.00,860.00 983.00,860.00 Z            M 659.00,861.00            C 659.00,861.00 658.00,861.00 658.00,861.00              658.00,861.00 659.00,862.00 659.00,862.00              659.00,862.00 659.00,861.00 659.00,861.00 Z            M 984.00,861.00            C 984.00,861.00 983.00,861.00 983.00,861.00              983.00,861.00 984.00,862.00 984.00,862.00              984.00,862.00 984.00,861.00 984.00,861.00 Z            M 986.00,862.00            C 986.00,862.00 985.00,862.00 985.00,862.00              985.00,862.00 986.00,863.00 986.00,863.00              986.00,863.00 986.00,862.00 986.00,862.00 Z            M 656.00,863.00            C 656.00,863.00 655.00,863.00 655.00,863.00              655.00,863.00 656.00,864.00 656.00,864.00              656.00,864.00 656.00,863.00 656.00,863.00 Z            M 989.00,864.00            C 989.00,864.00 988.00,864.00 988.00,864.00              988.00,864.00 989.00,865.00 989.00,865.00              989.00,865.00 989.00,864.00 989.00,864.00 Z            M 653.00,865.00            C 653.00,865.00 652.00,865.00 652.00,865.00              652.00,865.00 653.00,866.00 653.00,866.00              653.00,866.00 653.00,865.00 653.00,865.00 Z            M 992.00,866.00            C 992.00,866.00 991.00,866.00 991.00,866.00              991.00,866.00 992.00,867.00 992.00,867.00              992.00,867.00 992.00,866.00 992.00,866.00 Z            M 650.00,867.00            C 650.00,867.00 649.00,867.00 649.00,867.00              649.00,867.00 650.00,868.00 650.00,868.00              650.00,868.00 650.00,867.00 650.00,867.00 Z            M 995.00,868.00            C 995.00,868.00 994.00,868.00 994.00,868.00              994.00,868.00 995.00,869.00 995.00,869.00              995.00,869.00 995.00,868.00 995.00,868.00 Z            M 647.00,869.00            C 647.00,869.00 646.00,869.00 646.00,869.00              646.00,869.00 647.00,870.00 647.00,870.00              647.00,870.00 647.00,869.00 647.00,869.00 Z            M 646.00,870.00            C 646.00,870.00 645.00,870.00 645.00,870.00              645.00,870.00 646.00,871.00 646.00,871.00              646.00,871.00 646.00,870.00 646.00,870.00 Z            M 998.00,870.00            C 998.00,870.00 997.00,870.00 997.00,870.00              997.00,870.00 998.00,871.00 998.00,871.00              998.00,871.00 998.00,870.00 998.00,870.00 Z            M 644.00,871.00            C 644.00,871.00 643.00,871.00 643.00,871.00              643.00,871.00 644.00,872.00 644.00,872.00              644.00,872.00 644.00,871.00 644.00,871.00 Z            M 643.00,872.00            C 643.00,872.00 642.00,872.00 642.00,872.00              642.00,872.00 643.00,873.00 643.00,873.00              643.00,873.00 643.00,872.00 643.00,872.00 Z            M 1001.00,872.00            C 1001.00,872.00 1000.00,872.00 1000.00,872.00              1000.00,872.00 1001.00,873.00 1001.00,873.00              1001.00,873.00 1001.00,872.00 1001.00,872.00 Z            M 1002.00,873.00            C 1002.00,873.00 1001.00,873.00 1001.00,873.00              1001.00,873.00 1002.00,874.00 1002.00,874.00              1002.00,874.00 1002.00,873.00 1002.00,873.00 Z            M 640.00,874.00            C 640.00,874.00 639.00,874.00 639.00,874.00              639.00,874.00 640.00,875.00 640.00,875.00              640.00,875.00 640.00,874.00 640.00,874.00 Z            M 639.00,875.00            C 639.00,875.00 638.00,875.00 638.00,875.00              638.00,875.00 639.00,876.00 639.00,876.00              639.00,876.00 639.00,875.00 639.00,875.00 Z            M 1005.00,875.00            C 1005.00,875.00 1004.00,875.00 1004.00,875.00              1004.00,875.00 1005.00,876.00 1005.00,876.00              1005.00,876.00 1005.00,875.00 1005.00,875.00 Z            M 1006.00,876.00            C 1006.00,876.00 1005.00,876.00 1005.00,876.00              1005.00,876.00 1006.00,877.00 1006.00,877.00              1006.00,877.00 1006.00,876.00 1006.00,876.00 Z            M 636.00,877.00            C 636.00,877.00 635.00,877.00 635.00,877.00              635.00,877.00 636.00,878.00 636.00,878.00              636.00,878.00 636.00,877.00 636.00,877.00 Z            M 635.00,878.00            C 635.00,878.00 634.00,878.00 634.00,878.00              634.00,878.00 635.00,879.00 635.00,879.00              635.00,879.00 635.00,878.00 635.00,878.00 Z            M 1009.00,878.00            C 1009.00,878.00 1008.00,878.00 1008.00,878.00              1008.00,878.00 1009.00,879.00 1009.00,879.00              1009.00,879.00 1009.00,878.00 1009.00,878.00 Z            M 1010.00,879.00            C 1010.00,879.00 1009.00,879.00 1009.00,879.00              1009.00,879.00 1010.00,880.00 1010.00,880.00              1010.00,880.00 1010.00,879.00 1010.00,879.00 Z            M 632.00,880.00            C 632.00,880.00 631.00,880.00 631.00,880.00              631.00,880.00 632.00,881.00 632.00,881.00              632.00,881.00 632.00,880.00 632.00,880.00 Z            M 631.00,881.00            C 631.00,881.00 630.00,881.00 630.00,881.00              630.00,881.00 631.00,882.00 631.00,882.00              631.00,882.00 631.00,881.00 631.00,881.00 Z            M 1013.00,881.00            C 1013.00,881.00 1012.00,881.00 1012.00,881.00              1012.00,881.00 1013.00,882.00 1013.00,882.00              1013.00,882.00 1013.00,881.00 1013.00,881.00 Z            M 1014.00,882.00            C 1014.00,882.00 1013.00,882.00 1013.00,882.00              1013.00,882.00 1014.00,883.00 1014.00,883.00              1014.00,883.00 1014.00,882.00 1014.00,882.00 Z            M 1015.00,883.00            C 1015.00,883.00 1014.00,883.00 1014.00,883.00              1014.00,883.00 1015.00,884.00 1015.00,884.00              1015.00,884.00 1015.00,883.00 1015.00,883.00 Z            M 627.00,884.00            C 627.00,884.00 626.00,884.00 626.00,884.00              626.00,884.00 627.00,885.00 627.00,885.00              627.00,885.00 627.00,884.00 627.00,884.00 Z            M 626.00,885.00            C 626.00,885.00 625.00,885.00 625.00,885.00              625.00,885.00 626.00,886.00 626.00,886.00              626.00,886.00 626.00,885.00 626.00,885.00 Z            M 1018.00,885.00            C 1018.00,885.00 1017.00,885.00 1017.00,885.00              1017.00,885.00 1018.00,886.00 1018.00,886.00              1018.00,886.00 1018.00,885.00 1018.00,885.00 Z            M 1019.00,886.00            C 1019.00,886.00 1018.00,886.00 1018.00,886.00              1018.00,886.00 1019.00,887.00 1019.00,887.00              1019.00,887.00 1019.00,886.00 1019.00,886.00 Z            M 1020.00,887.00            C 1020.00,887.00 1019.00,887.00 1019.00,887.00              1019.00,887.00 1020.00,888.00 1020.00,888.00              1020.00,888.00 1020.00,887.00 1020.00,887.00 Z            M 621.00,889.00            C 621.00,889.00 620.00,889.00 620.00,889.00              620.00,889.00 621.00,890.00 621.00,890.00              621.00,890.00 621.00,889.00 621.00,889.00 Z            M 620.00,890.00            C 620.00,890.00 619.00,890.00 619.00,890.00              619.00,890.00 620.00,891.00 620.00,891.00              620.00,891.00 620.00,890.00 620.00,890.00 Z            M 1024.00,890.00            C 1024.00,890.00 1023.00,890.00 1023.00,890.00              1023.00,890.00 1024.00,891.00 1024.00,891.00              1024.00,891.00 1024.00,890.00 1024.00,890.00 Z            M 619.00,891.00            C 619.00,891.00 618.00,891.00 618.00,891.00              618.00,891.00 619.00,892.00 619.00,892.00              619.00,892.00 619.00,891.00 619.00,891.00 Z            M 1025.00,891.00            C 1025.00,891.00 1024.00,891.00 1024.00,891.00              1024.00,891.00 1025.00,892.00 1025.00,892.00              1025.00,892.00 1025.00,891.00 1025.00,891.00 Z            M 1026.00,892.00            C 1026.00,892.00 1025.00,892.00 1025.00,892.00              1025.00,892.00 1026.00,893.00 1026.00,893.00              1026.00,893.00 1026.00,892.00 1026.00,892.00 Z            M 1027.00,893.00            C 1027.00,893.00 1026.00,893.00 1026.00,893.00              1026.00,893.00 1027.00,894.00 1027.00,894.00              1027.00,894.00 1027.00,893.00 1027.00,893.00 Z            M 612.00,897.00            C 612.00,897.00 611.00,897.00 611.00,897.00              611.00,897.00 612.00,898.00 612.00,898.00              612.00,898.00 612.00,897.00 612.00,897.00 Z            M 611.00,898.00            C 611.00,898.00 610.00,898.00 610.00,898.00              610.00,898.00 611.00,899.00 611.00,899.00              611.00,899.00 611.00,898.00 611.00,898.00 Z            M 610.00,899.00            C 610.00,899.00 609.00,899.00 609.00,899.00              609.00,899.00 610.00,900.00 610.00,900.00              610.00,900.00 610.00,899.00 610.00,899.00 Z            M 1034.00,899.00            C 1034.00,899.00 1033.00,899.00 1033.00,899.00              1033.00,899.00 1034.00,900.00 1034.00,900.00              1034.00,900.00 1034.00,899.00 1034.00,899.00 Z            M 609.00,900.00            C 609.00,900.00 608.00,900.00 608.00,900.00              608.00,900.00 609.00,901.00 609.00,901.00              609.00,901.00 609.00,900.00 609.00,900.00 Z            M 1035.00,900.00            C 1035.00,900.00 1034.00,900.00 1034.00,900.00              1034.00,900.00 1035.00,901.00 1035.00,901.00              1035.00,901.00 1035.00,900.00 1035.00,900.00 Z            M 608.00,901.00            C 608.00,901.00 607.00,901.00 607.00,901.00              607.00,901.00 608.00,902.00 608.00,902.00              608.00,902.00 608.00,901.00 608.00,901.00 Z            M 1036.00,901.00            C 1036.00,901.00 1035.00,901.00 1035.00,901.00              1035.00,901.00 1036.00,902.00 1036.00,902.00              1036.00,902.00 1036.00,901.00 1036.00,901.00 Z            M 607.00,902.00            C 607.00,902.00 606.00,902.00 606.00,902.00              606.00,902.00 607.00,903.00 607.00,903.00              607.00,903.00 607.00,902.00 607.00,902.00 Z            M 1037.00,902.00            C 1037.00,902.00 1036.00,902.00 1036.00,902.00              1036.00,902.00 1037.00,903.00 1037.00,903.00              1037.00,903.00 1037.00,902.00 1037.00,902.00 Z            M 606.00,903.00            C 606.00,903.00 605.00,903.00 605.00,903.00              605.00,903.00 606.00,904.00 606.00,904.00              606.00,904.00 606.00,903.00 606.00,903.00 Z            M 1038.00,903.00            C 1038.00,903.00 1037.00,903.00 1037.00,903.00              1037.00,903.00 1038.00,904.00 1038.00,904.00              1038.00,904.00 1038.00,903.00 1038.00,903.00 Z            M 605.00,904.00            C 605.00,904.00 604.00,904.00 604.00,904.00              604.00,904.00 605.00,905.00 605.00,905.00              605.00,905.00 605.00,904.00 605.00,904.00 Z            M 1039.00,904.00            C 1039.00,904.00 1038.00,904.00 1038.00,904.00              1038.00,904.00 1039.00,905.00 1039.00,905.00              1039.00,905.00 1039.00,904.00 1039.00,904.00 Z            M 1040.00,905.00            C 1040.00,905.00 1039.00,905.00 1039.00,905.00              1039.00,905.00 1040.00,906.00 1040.00,906.00              1040.00,906.00 1040.00,905.00 1040.00,905.00 Z            M 1041.00,906.00            C 1041.00,906.00 1040.00,906.00 1040.00,906.00              1040.00,906.00 1041.00,907.00 1041.00,907.00              1041.00,907.00 1041.00,906.00 1041.00,906.00 Z            M 1042.00,907.00            C 1042.00,907.00 1041.00,907.00 1041.00,907.00              1041.00,907.00 1042.00,908.00 1042.00,908.00              1042.00,908.00 1042.00,907.00 1042.00,907.00 Z            M 601.00,908.00            C 601.00,908.00 600.00,908.00 600.00,908.00              600.00,908.00 601.00,909.00 601.00,909.00              601.00,909.00 601.00,908.00 601.00,908.00 Z            M 1043.00,908.00            C 1043.00,908.00 1042.00,908.00 1042.00,908.00              1042.00,908.00 1043.00,909.00 1043.00,909.00              1043.00,909.00 1043.00,908.00 1043.00,908.00 Z            M 600.00,909.00            C 600.00,909.00 599.00,909.00 599.00,909.00              599.00,909.00 600.00,910.00 600.00,910.00              600.00,910.00 600.00,909.00 600.00,909.00 Z            M 1044.00,909.00            C 1044.00,909.00 1043.00,909.00 1043.00,909.00              1043.00,909.00 1044.00,910.00 1044.00,910.00              1044.00,910.00 1044.00,909.00 1044.00,909.00 Z            M 599.00,910.00            C 599.00,910.00 598.00,910.00 598.00,910.00              598.00,910.00 599.00,911.00 599.00,911.00              599.00,911.00 599.00,910.00 599.00,910.00 Z            M 1045.00,910.00            C 1045.00,910.00 1044.00,910.00 1044.00,910.00              1044.00,910.00 1045.00,911.00 1045.00,911.00              1045.00,911.00 1045.00,910.00 1045.00,910.00 Z            M 598.00,911.00            C 598.00,911.00 597.00,911.00 597.00,911.00              597.00,911.00 598.00,912.00 598.00,912.00              598.00,912.00 598.00,911.00 598.00,911.00 Z            M 1046.00,911.00            C 1046.00,911.00 1045.00,911.00 1045.00,911.00              1045.00,911.00 1046.00,912.00 1046.00,912.00              1046.00,912.00 1046.00,911.00 1046.00,911.00 Z            M 597.00,912.00            C 597.00,912.00 596.00,912.00 596.00,912.00              596.00,912.00 597.00,913.00 597.00,913.00              597.00,913.00 597.00,912.00 597.00,912.00 Z            M 1047.00,912.00            C 1047.00,912.00 1046.00,912.00 1046.00,912.00              1046.00,912.00 1047.00,913.00 1047.00,913.00              1047.00,913.00 1047.00,912.00 1047.00,912.00 Z            M 596.00,913.00            C 596.00,913.00 595.00,913.00 595.00,913.00              595.00,913.00 596.00,914.00 596.00,914.00              596.00,914.00 596.00,913.00 596.00,913.00 Z            M 1048.00,913.00            C 1048.00,913.00 1047.00,913.00 1047.00,913.00              1047.00,913.00 1048.00,914.00 1048.00,914.00              1048.00,914.00 1048.00,913.00 1048.00,913.00 Z            M 595.00,914.00            C 595.00,914.00 594.00,914.00 594.00,914.00              594.00,914.00 595.00,915.00 595.00,915.00              595.00,915.00 595.00,914.00 595.00,914.00 Z            M 1049.00,914.00            C 1049.00,914.00 1048.00,914.00 1048.00,914.00              1048.00,914.00 1049.00,915.00 1049.00,915.00              1049.00,915.00 1049.00,914.00 1049.00,914.00 Z            M 594.00,915.00            C 594.00,915.00 593.00,915.00 593.00,915.00              593.00,915.00 594.00,916.00 594.00,916.00              594.00,916.00 594.00,915.00 594.00,915.00 Z            M 1050.00,915.00            C 1050.00,915.00 1049.00,915.00 1049.00,915.00              1049.00,915.00 1050.00,916.00 1050.00,916.00              1050.00,916.00 1050.00,915.00 1050.00,915.00 Z            M 593.00,916.00            C 593.00,916.00 592.00,916.00 592.00,916.00              592.00,916.00 593.00,917.00 593.00,917.00              593.00,917.00 593.00,916.00 593.00,916.00 Z            M 1055.00,921.00            C 1055.00,921.00 1054.00,921.00 1054.00,921.00              1054.00,921.00 1055.00,922.00 1055.00,922.00              1055.00,922.00 1055.00,921.00 1055.00,921.00 Z            M 588.00,922.00            C 588.00,922.00 587.00,922.00 587.00,922.00              587.00,922.00 588.00,923.00 588.00,923.00              588.00,923.00 588.00,922.00 588.00,922.00 Z            M 1056.00,922.00            C 1056.00,922.00 1055.00,922.00 1055.00,922.00              1055.00,922.00 1056.00,923.00 1056.00,923.00              1056.00,923.00 1056.00,922.00 1056.00,922.00 Z            M 587.00,923.00            C 587.00,923.00 586.00,923.00 586.00,923.00              586.00,923.00 587.00,924.00 587.00,924.00              587.00,924.00 587.00,923.00 587.00,923.00 Z            M 1057.00,923.00            C 1057.00,923.00 1056.00,923.00 1056.00,923.00              1056.00,923.00 1057.00,924.00 1057.00,924.00              1057.00,924.00 1057.00,923.00 1057.00,923.00 Z            M 586.00,924.00            C 586.00,924.00 585.00,924.00 585.00,924.00              585.00,924.00 586.00,925.00 586.00,925.00              586.00,925.00 586.00,924.00 586.00,924.00 Z            M 1058.00,924.00            C 1058.00,924.00 1057.00,924.00 1057.00,924.00              1057.00,924.00 1058.00,925.00 1058.00,925.00              1058.00,925.00 1058.00,924.00 1058.00,924.00 Z            M 582.00,929.00            C 582.00,929.00 581.00,929.00 581.00,929.00              581.00,929.00 582.00,930.00 582.00,930.00              582.00,930.00 582.00,929.00 582.00,929.00 Z            M 1062.00,929.00            C 1062.00,929.00 1061.00,929.00 1061.00,929.00              1061.00,929.00 1062.00,930.00 1062.00,930.00              1062.00,930.00 1062.00,929.00 1062.00,929.00 Z            M 581.00,930.00            C 581.00,930.00 580.00,930.00 580.00,930.00              580.00,930.00 581.00,931.00 581.00,931.00              581.00,931.00 581.00,930.00 581.00,930.00 Z            M 1063.00,930.00            C 1063.00,930.00 1062.00,930.00 1062.00,930.00              1062.00,930.00 1063.00,931.00 1063.00,931.00              1063.00,931.00 1063.00,930.00 1063.00,930.00 Z            M 578.00,934.00            C 578.00,934.00 577.00,934.00 577.00,934.00              577.00,934.00 578.00,935.00 578.00,935.00              578.00,935.00 578.00,934.00 578.00,934.00 Z            M 1066.00,934.00            C 1066.00,934.00 1065.00,934.00 1065.00,934.00              1065.00,934.00 1066.00,935.00 1066.00,935.00              1066.00,935.00 1066.00,934.00 1066.00,934.00 Z            M 577.00,935.00            C 577.00,935.00 576.00,935.00 576.00,935.00              576.00,935.00 577.00,936.00 577.00,936.00              577.00,936.00 577.00,935.00 577.00,935.00 Z            M 1067.00,935.00            C 1067.00,935.00 1066.00,935.00 1066.00,935.00              1066.00,935.00 1067.00,936.00 1067.00,936.00              1067.00,936.00 1067.00,935.00 1067.00,935.00 Z            M 574.00,939.00            C 574.00,939.00 573.00,939.00 573.00,939.00              573.00,939.00 574.00,940.00 574.00,940.00              574.00,940.00 574.00,939.00 574.00,939.00 Z            M 1070.00,939.00            C 1070.00,939.00 1069.00,939.00 1069.00,939.00              1069.00,939.00 1070.00,940.00 1070.00,940.00              1070.00,940.00 1070.00,939.00 1070.00,939.00 Z            M 1071.00,940.00            C 1071.00,940.00 1070.00,940.00 1070.00,940.00              1070.00,940.00 1071.00,941.00 1071.00,941.00              1071.00,941.00 1071.00,940.00 1071.00,940.00 Z            M 571.00,943.00            C 571.00,943.00 570.00,943.00 570.00,943.00              570.00,943.00 571.00,944.00 571.00,944.00              571.00,944.00 571.00,943.00 571.00,943.00 Z            M 1073.00,943.00            C 1073.00,943.00 1072.00,943.00 1072.00,943.00              1072.00,943.00 1073.00,944.00 1073.00,944.00              1073.00,944.00 1073.00,943.00 1073.00,943.00 Z            M 569.00,946.00            C 569.00,946.00 568.00,946.00 568.00,946.00              568.00,946.00 569.00,947.00 569.00,947.00              569.00,947.00 569.00,946.00 569.00,946.00 Z            M 568.00,947.00            C 568.00,947.00 567.00,947.00 567.00,947.00              567.00,947.00 568.00,948.00 568.00,948.00              568.00,948.00 568.00,947.00 568.00,947.00 Z            M 1076.00,947.00            C 1076.00,947.00 1075.00,947.00 1075.00,947.00              1075.00,947.00 1076.00,948.00 1076.00,948.00              1076.00,948.00 1076.00,947.00 1076.00,947.00 Z            M 566.00,950.00            C 566.00,950.00 565.00,950.00 565.00,950.00              565.00,950.00 566.00,951.00 566.00,951.00              566.00,951.00 566.00,950.00 566.00,950.00 Z            M 1078.00,950.00            C 1078.00,950.00 1077.00,950.00 1077.00,950.00              1077.00,950.00 1078.00,951.00 1078.00,951.00              1078.00,951.00 1078.00,950.00 1078.00,950.00 Z            M 1079.00,951.00            C 1079.00,951.00 1078.00,951.00 1078.00,951.00              1078.00,951.00 1079.00,952.00 1079.00,952.00              1079.00,952.00 1079.00,951.00 1079.00,951.00 Z            M 564.00,953.00            C 564.00,953.00 563.00,953.00 563.00,953.00              563.00,953.00 564.00,954.00 564.00,954.00              564.00,954.00 564.00,953.00 564.00,953.00 Z            M 1080.00,953.00            C 1080.00,953.00 1079.00,953.00 1079.00,953.00              1079.00,953.00 1080.00,954.00 1080.00,954.00              1080.00,954.00 1080.00,953.00 1080.00,953.00 Z            M 1081.00,954.00            C 1081.00,954.00 1080.00,954.00 1080.00,954.00              1080.00,954.00 1081.00,955.00 1081.00,955.00              1081.00,955.00 1081.00,954.00 1081.00,954.00 Z            M 562.00,956.00            C 562.00,956.00 561.00,956.00 561.00,956.00              561.00,956.00 562.00,957.00 562.00,957.00              562.00,957.00 562.00,956.00 562.00,956.00 Z            M 1082.00,956.00            C 1082.00,956.00 1081.00,956.00 1081.00,956.00              1081.00,956.00 1082.00,957.00 1082.00,957.00              1082.00,957.00 1082.00,956.00 1082.00,956.00 Z            M 1083.00,957.00            C 1083.00,957.00 1082.00,957.00 1082.00,957.00              1082.00,957.00 1083.00,958.00 1083.00,958.00              1083.00,958.00 1083.00,957.00 1083.00,957.00 Z            M 560.00,959.00            C 560.00,959.00 559.00,959.00 559.00,959.00              559.00,959.00 560.00,960.00 560.00,960.00              560.00,960.00 560.00,959.00 560.00,959.00 Z            M 1084.00,959.00            C 1084.00,959.00 1083.00,959.00 1083.00,959.00              1083.00,959.00 1084.00,960.00 1084.00,960.00              1084.00,960.00 1084.00,959.00 1084.00,959.00 Z            M 1085.00,960.00            C 1085.00,960.00 1084.00,960.00 1084.00,960.00              1084.00,960.00 1085.00,961.00 1085.00,961.00              1085.00,961.00 1085.00,960.00 1085.00,960.00 Z            M 559.00,961.00            C 559.00,961.00 558.00,961.00 558.00,961.00              558.00,961.00 559.00,962.00 559.00,962.00              559.00,962.00 559.00,961.00 559.00,961.00 Z            M 1086.00,962.00            C 1086.00,962.00 1085.00,962.00 1085.00,962.00              1085.00,962.00 1086.00,963.00 1086.00,963.00              1086.00,963.00 1086.00,962.00 1086.00,962.00 Z            M 557.00,964.00            C 557.00,964.00 556.00,964.00 556.00,964.00              556.00,964.00 557.00,965.00 557.00,965.00              557.00,965.00 557.00,964.00 557.00,964.00 Z            M 1088.00,965.00            C 1088.00,965.00 1087.00,965.00 1087.00,965.00              1087.00,965.00 1088.00,966.00 1088.00,966.00              1088.00,966.00 1088.00,965.00 1088.00,965.00 Z            M 1089.00,967.00            C 1089.00,967.00 1088.00,967.00 1088.00,967.00              1088.00,967.00 1089.00,968.00 1089.00,968.00              1089.00,968.00 1089.00,967.00 1089.00,967.00 Z            M 1090.00,968.00            C 1090.00,968.00 1089.00,968.00 1089.00,968.00              1089.00,968.00 1090.00,969.00 1090.00,969.00              1090.00,969.00 1090.00,968.00 1090.00,968.00 Z            M 554.00,969.00            C 554.00,969.00 553.00,969.00 553.00,969.00              553.00,969.00 554.00,970.00 554.00,970.00              554.00,970.00 554.00,969.00 554.00,969.00 Z            M 1091.00,970.00            C 1091.00,970.00 1090.00,970.00 1090.00,970.00              1090.00,970.00 1091.00,971.00 1091.00,971.00              1091.00,971.00 1091.00,970.00 1091.00,970.00 Z            M 553.00,971.00            C 553.00,971.00 552.00,971.00 552.00,971.00              552.00,971.00 553.00,972.00 553.00,972.00              553.00,972.00 553.00,971.00 553.00,971.00 Z            M 1092.00,972.00            C 1092.00,972.00 1091.00,972.00 1091.00,972.00              1091.00,972.00 1092.00,973.00 1092.00,973.00              1092.00,973.00 1092.00,972.00 1092.00,972.00 Z            M 1093.00,973.00            C 1093.00,973.00 1092.00,973.00 1092.00,973.00              1092.00,973.00 1093.00,974.00 1093.00,974.00              1093.00,974.00 1093.00,973.00 1093.00,973.00 Z            M 1094.00,975.00            C 1094.00,975.00 1093.00,975.00 1093.00,975.00              1093.00,975.00 1094.00,976.00 1094.00,976.00              1094.00,976.00 1094.00,975.00 1094.00,975.00 Z            M 550.00,976.00            C 550.00,976.00 549.00,976.00 549.00,976.00              549.00,976.00 550.00,977.00 550.00,977.00              550.00,977.00 550.00,976.00 550.00,976.00 Z            M 1095.00,977.00            C 1095.00,977.00 1094.00,977.00 1094.00,977.00              1094.00,977.00 1095.00,978.00 1095.00,978.00              1095.00,978.00 1095.00,977.00 1095.00,977.00 Z            M 549.00,978.00            C 549.00,978.00 548.00,978.00 548.00,978.00              548.00,978.00 549.00,979.00 549.00,979.00              549.00,979.00 549.00,978.00 549.00,978.00 Z            M 1096.00,979.00            C 1096.00,979.00 1095.00,979.00 1095.00,979.00              1095.00,979.00 1096.00,980.00 1096.00,980.00              1096.00,980.00 1096.00,979.00 1096.00,979.00 Z            M 548.00,980.00            C 548.00,980.00 547.00,980.00 547.00,980.00              547.00,980.00 548.00,981.00 548.00,981.00              548.00,981.00 548.00,980.00 548.00,980.00 Z            M 547.00,982.00            C 547.00,982.00 546.00,982.00 546.00,982.00              546.00,982.00 547.00,983.00 547.00,983.00              547.00,983.00 547.00,982.00 547.00,982.00 Z            M 1098.00,982.00            C 1098.00,982.00 1097.00,982.00 1097.00,982.00              1097.00,982.00 1098.00,983.00 1098.00,983.00              1098.00,983.00 1098.00,982.00 1098.00,982.00 Z            M 546.00,984.00            C 546.00,984.00 545.00,984.00 545.00,984.00              545.00,984.00 546.00,985.00 546.00,985.00              546.00,985.00 546.00,984.00 546.00,984.00 Z            M 1099.00,984.00            C 1099.00,984.00 1098.00,984.00 1098.00,984.00              1098.00,984.00 1099.00,985.00 1099.00,985.00              1099.00,985.00 1099.00,984.00 1099.00,984.00 Z            M 545.00,986.00            C 545.00,986.00 544.00,986.00 544.00,986.00              544.00,986.00 545.00,987.00 545.00,987.00              545.00,987.00 545.00,986.00 545.00,986.00 Z            M 1100.00,986.00            C 1100.00,986.00 1099.00,986.00 1099.00,986.00              1099.00,986.00 1100.00,987.00 1100.00,987.00              1100.00,987.00 1100.00,986.00 1100.00,986.00 Z            M 544.00,988.00            C 544.00,988.00 543.00,988.00 543.00,988.00              543.00,988.00 544.00,989.00 544.00,989.00              544.00,989.00 544.00,988.00 544.00,988.00 Z            M 1101.00,988.00            C 1101.00,988.00 1100.00,988.00 1100.00,988.00              1100.00,988.00 1101.00,989.00 1101.00,989.00              1101.00,989.00 1101.00,988.00 1101.00,988.00 Z            M 543.00,990.00            C 543.00,990.00 542.00,990.00 542.00,990.00              542.00,990.00 543.00,991.00 543.00,991.00              543.00,991.00 543.00,990.00 543.00,990.00 Z            M 1102.00,990.00            C 1102.00,990.00 1101.00,990.00 1101.00,990.00              1101.00,990.00 1102.00,991.00 1102.00,991.00              1102.00,991.00 1102.00,990.00 1102.00,990.00 Z            M 542.00,992.00            C 542.00,992.00 541.00,992.00 541.00,992.00              541.00,992.00 542.00,993.00 542.00,993.00              542.00,993.00 542.00,992.00 542.00,992.00 Z            M 1103.00,992.00            C 1103.00,992.00 1102.00,992.00 1102.00,992.00              1102.00,992.00 1103.00,993.00 1103.00,993.00              1103.00,993.00 1103.00,992.00 1103.00,992.00 Z            M 541.00,994.00            C 541.00,994.00 540.00,994.00 540.00,994.00              540.00,994.00 541.00,995.00 541.00,995.00              541.00,995.00 541.00,994.00 541.00,994.00 Z            M 1104.00,994.00            C 1104.00,994.00 1103.00,994.00 1103.00,994.00              1103.00,994.00 1104.00,995.00 1104.00,995.00              1104.00,995.00 1104.00,994.00 1104.00,994.00 Z            M 540.00,996.00            C 540.00,996.00 539.00,996.00 539.00,996.00              539.00,996.00 540.00,997.00 540.00,997.00              540.00,997.00 540.00,996.00 540.00,996.00 Z            M 1105.00,996.00            C 1105.00,996.00 1104.00,996.00 1104.00,996.00              1104.00,996.00 1105.00,997.00 1105.00,997.00              1105.00,997.00 1105.00,996.00 1105.00,996.00 Z            M 1106.00,998.00            C 1106.00,998.00 1105.00,998.00 1105.00,998.00              1105.00,998.00 1106.00,999.00 1106.00,999.00              1106.00,999.00 1106.00,998.00 1106.00,998.00 Z            M 1107.00,1000.00            C 1107.00,1000.00 1106.00,1000.00 1106.00,1000.00              1106.00,1000.00 1107.00,1001.00 1107.00,1001.00              1107.00,1001.00 1107.00,1000.00 1107.00,1000.00 Z            M 538.00,1001.00            C 538.00,1001.00 537.00,1001.00 537.00,1001.00              537.00,1001.00 538.00,1002.00 538.00,1002.00              538.00,1002.00 538.00,1001.00 538.00,1001.00 Z            M 537.00,1003.00            C 537.00,1003.00 536.00,1003.00 536.00,1003.00              536.00,1003.00 537.00,1004.00 537.00,1004.00              537.00,1004.00 537.00,1003.00 537.00,1003.00 Z            M 1108.00,1003.00            C 1108.00,1003.00 1107.00,1003.00 1107.00,1003.00              1107.00,1003.00 1108.00,1004.00 1108.00,1004.00              1108.00,1004.00 1108.00,1003.00 1108.00,1003.00 Z            M 536.00,1005.00            C 536.00,1005.00 535.00,1005.00 535.00,1005.00              535.00,1005.00 536.00,1006.00 536.00,1006.00              536.00,1006.00 536.00,1005.00 536.00,1005.00 Z            M 1109.00,1005.00            C 1109.00,1005.00 1108.00,1005.00 1108.00,1005.00              1108.00,1005.00 1109.00,1006.00 1109.00,1006.00              1109.00,1006.00 1109.00,1005.00 1109.00,1005.00 Z            M 1110.00,1007.00            C 1110.00,1007.00 1109.00,1007.00 1109.00,1007.00              1109.00,1007.00 1110.00,1008.00 1110.00,1008.00              1110.00,1008.00 1110.00,1007.00 1110.00,1007.00 Z            M 535.00,1008.00            C 535.00,1008.00 534.00,1008.00 534.00,1008.00              534.00,1008.00 535.00,1009.00 535.00,1009.00              535.00,1009.00 535.00,1008.00 535.00,1008.00 Z            M 534.00,1010.00            C 534.00,1010.00 533.00,1010.00 533.00,1010.00              533.00,1010.00 534.00,1011.00 534.00,1011.00              534.00,1011.00 534.00,1010.00 534.00,1010.00 Z            M 1112.00,1012.00            C 1112.00,1012.00 1111.00,1012.00 1111.00,1012.00              1111.00,1012.00 1112.00,1013.00 1112.00,1013.00              1112.00,1013.00 1112.00,1012.00 1112.00,1012.00 Z            M 533.00,1013.00            C 533.00,1013.00 532.00,1013.00 532.00,1013.00              532.00,1013.00 533.00,1014.00 533.00,1014.00              533.00,1014.00 533.00,1013.00 533.00,1013.00 Z            M 1113.00,1014.00            C 1113.00,1014.00 1112.00,1014.00 1112.00,1014.00              1112.00,1014.00 1113.00,1015.00 1113.00,1015.00              1113.00,1015.00 1113.00,1014.00 1113.00,1014.00 Z            M 532.00,1016.00            C 532.00,1016.00 531.00,1016.00 531.00,1016.00              531.00,1016.00 532.00,1017.00 532.00,1017.00              532.00,1017.00 532.00,1016.00 532.00,1016.00 Z            M 1114.00,1017.00            C 1114.00,1017.00 1113.00,1017.00 1113.00,1017.00              1113.00,1017.00 1114.00,1018.00 1114.00,1018.00              1114.00,1018.00 1114.00,1017.00 1114.00,1017.00 Z            M 1115.00,1019.00            C 1115.00,1019.00 1114.00,1019.00 1114.00,1019.00              1114.00,1019.00 1115.00,1020.00 1115.00,1020.00              1115.00,1020.00 1115.00,1019.00 1115.00,1019.00 Z            M 530.00,1021.00            C 530.00,1021.00 529.00,1021.00 529.00,1021.00              529.00,1021.00 530.00,1022.00 530.00,1022.00              530.00,1022.00 530.00,1021.00 530.00,1021.00 Z            M 1116.00,1022.00            C 1116.00,1022.00 1115.00,1022.00 1115.00,1022.00              1115.00,1022.00 1116.00,1023.00 1116.00,1023.00              1116.00,1023.00 1116.00,1022.00 1116.00,1022.00 Z            M 529.00,1024.00            C 529.00,1024.00 528.00,1024.00 528.00,1024.00              528.00,1024.00 529.00,1025.00 529.00,1025.00              529.00,1025.00 529.00,1024.00 529.00,1024.00 Z            M 1117.00,1025.00            C 1117.00,1025.00 1116.00,1025.00 1116.00,1025.00              1116.00,1025.00 1117.00,1026.00 1117.00,1026.00              1117.00,1026.00 1117.00,1025.00 1117.00,1025.00 Z            M 526.00,1034.00            C 526.00,1034.00 525.00,1034.00 525.00,1034.00              525.00,1034.00 526.00,1035.00 526.00,1035.00              526.00,1035.00 526.00,1034.00 526.00,1034.00 Z            M 1123.00,1043.00            C 1123.00,1043.00 1122.00,1043.00 1122.00,1043.00              1122.00,1043.00 1123.00,1044.00 1123.00,1044.00              1123.00,1044.00 1123.00,1043.00 1123.00,1043.00 Z            M 1125.00,1050.00            C 1125.00,1050.00 1124.00,1050.00 1124.00,1050.00              1124.00,1050.00 1125.00,1051.00 1125.00,1051.00              1125.00,1051.00 1125.00,1050.00 1125.00,1050.00 Z            M 516.00,1085.00            C 516.00,1085.00 516.00,1090.00 516.00,1090.00              516.00,1090.00 516.00,1085.00 516.00,1085.00 Z            M 515.00,1097.00            C 515.00,1097.00 515.00,1103.00 515.00,1103.00              515.00,1103.00 515.00,1097.00 515.00,1097.00 Z            M 1135.00,1104.00            C 1135.00,1104.00 1135.00,1109.00 1135.00,1109.00              1135.00,1109.00 1135.00,1104.00 1135.00,1104.00 Z            M 514.00,1111.00            C 514.00,1111.00 514.00,1118.00 514.00,1118.00              514.00,1118.00 514.00,1111.00 514.00,1111.00 Z            M 1136.00,1117.00            C 1134.54,1120.69 1134.54,1125.31 1136.00,1129.00              1136.00,1129.00 1136.00,1117.00 1136.00,1117.00 Z            M 513.00,1128.00            C 511.75,1131.17 511.75,1132.83 513.00,1136.00              513.00,1136.00 513.00,1128.00 513.00,1128.00 Z            M 1136.00,1140.00            C 1134.54,1143.69 1134.54,1148.31 1136.00,1152.00              1136.00,1152.00 1136.00,1140.00 1136.00,1140.00 Z            M 512.00,1151.00            C 510.61,1154.50 510.61,1158.50 512.00,1162.00              512.00,1162.00 512.00,1151.00 512.00,1151.00 Z            M 511.00,1191.00            C 511.00,1191.00 510.00,1210.00 510.00,1210.00              510.00,1210.00 510.00,1249.00 510.00,1249.00              510.00,1249.00 511.00,1271.00 511.00,1271.00              511.00,1271.00 511.00,1191.00 511.00,1191.00 Z            M 1126.00,1215.00            C 1126.00,1215.00 1125.00,1215.00 1125.00,1215.00              1125.00,1215.00 1126.00,1216.00 1126.00,1216.00              1126.00,1216.00 1126.00,1215.00 1126.00,1215.00 Z            M 1123.00,1226.00            C 1123.00,1226.00 1122.00,1226.00 1122.00,1226.00              1122.00,1226.00 1123.00,1227.00 1123.00,1227.00              1123.00,1227.00 1123.00,1226.00 1123.00,1226.00 Z            M 1122.00,1229.00            C 1122.00,1229.00 1121.00,1229.00 1121.00,1229.00              1121.00,1229.00 1122.00,1230.00 1122.00,1230.00              1122.00,1230.00 1122.00,1229.00 1122.00,1229.00 Z            M 1120.00,1236.00            C 1120.00,1236.00 1119.00,1236.00 1119.00,1236.00              1119.00,1236.00 1120.00,1237.00 1120.00,1237.00              1120.00,1237.00 1120.00,1236.00 1120.00,1236.00 Z            M 1119.00,1239.00            C 1119.00,1239.00 1118.00,1239.00 1118.00,1239.00              1118.00,1239.00 1119.00,1240.00 1119.00,1240.00              1119.00,1240.00 1119.00,1239.00 1119.00,1239.00 Z            M 1118.00,1242.00            C 1118.00,1242.00 1117.00,1242.00 1117.00,1242.00              1117.00,1242.00 1118.00,1243.00 1118.00,1243.00              1118.00,1243.00 1118.00,1242.00 1118.00,1242.00 Z            M 1117.00,1245.00            C 1117.00,1245.00 1116.00,1245.00 1116.00,1245.00              1116.00,1245.00 1117.00,1246.00 1117.00,1246.00              1117.00,1246.00 1117.00,1245.00 1117.00,1245.00 Z            M 1116.00,1247.00            C 1116.00,1247.00 1115.00,1247.00 1115.00,1247.00              1115.00,1247.00 1116.00,1248.00 1116.00,1248.00              1116.00,1248.00 1116.00,1247.00 1116.00,1247.00 Z            M 1115.00,1250.00            C 1115.00,1250.00 1114.00,1250.00 1114.00,1250.00              1114.00,1250.00 1115.00,1251.00 1115.00,1251.00              1115.00,1251.00 1115.00,1250.00 1115.00,1250.00 Z            M 1114.00,1253.00            C 1114.00,1253.00 1113.00,1253.00 1113.00,1253.00              1113.00,1253.00 1114.00,1254.00 1114.00,1254.00              1114.00,1254.00 1114.00,1253.00 1114.00,1253.00 Z            M 1113.00,1255.00            C 1113.00,1255.00 1112.00,1255.00 1112.00,1255.00              1112.00,1255.00 1113.00,1256.00 1113.00,1256.00              1113.00,1256.00 1113.00,1255.00 1113.00,1255.00 Z            M 1112.00,1258.00            C 1112.00,1258.00 1111.00,1258.00 1111.00,1258.00              1111.00,1258.00 1112.00,1259.00 1112.00,1259.00              1112.00,1259.00 1112.00,1258.00 1112.00,1258.00 Z            M 1111.00,1260.00            C 1111.00,1260.00 1110.00,1260.00 1110.00,1260.00              1110.00,1260.00 1111.00,1261.00 1111.00,1261.00              1111.00,1261.00 1111.00,1260.00 1111.00,1260.00 Z            M 1110.00,1263.00            C 1110.00,1263.00 1109.00,1263.00 1109.00,1263.00              1109.00,1263.00 1110.00,1264.00 1110.00,1264.00              1110.00,1264.00 1110.00,1263.00 1110.00,1263.00 Z            M 1109.00,1265.00            C 1109.00,1265.00 1108.00,1265.00 1108.00,1265.00              1108.00,1265.00 1109.00,1266.00 1109.00,1266.00              1109.00,1266.00 1109.00,1265.00 1109.00,1265.00 Z            M 1108.00,1267.00            C 1108.00,1267.00 1107.00,1267.00 1107.00,1267.00              1107.00,1267.00 1108.00,1268.00 1108.00,1268.00              1108.00,1268.00 1108.00,1267.00 1108.00,1267.00 Z            M 1107.00,1270.00            C 1107.00,1270.00 1106.00,1270.00 1106.00,1270.00              1106.00,1270.00 1107.00,1271.00 1107.00,1271.00              1107.00,1271.00 1107.00,1270.00 1107.00,1270.00 Z            M 1106.00,1272.00            C 1106.00,1272.00 1105.00,1272.00 1105.00,1272.00              1105.00,1272.00 1106.00,1273.00 1106.00,1273.00              1106.00,1273.00 1106.00,1272.00 1106.00,1272.00 Z            M 1105.00,1274.00            C 1105.00,1274.00 1104.00,1274.00 1104.00,1274.00              1104.00,1274.00 1105.00,1275.00 1105.00,1275.00              1105.00,1275.00 1105.00,1274.00 1105.00,1274.00 Z            M 1104.00,1276.00            C 1104.00,1276.00 1103.00,1276.00 1103.00,1276.00              1103.00,1276.00 1104.00,1277.00 1104.00,1277.00              1104.00,1277.00 1104.00,1276.00 1104.00,1276.00 Z            M 1103.00,1278.00            C 1103.00,1278.00 1102.00,1278.00 1102.00,1278.00              1102.00,1278.00 1103.00,1279.00 1103.00,1279.00              1103.00,1279.00 1103.00,1278.00 1103.00,1278.00 Z            M 1098.00,1288.00            C 1098.00,1288.00 1097.00,1288.00 1097.00,1288.00              1097.00,1288.00 1098.00,1289.00 1098.00,1289.00              1098.00,1289.00 1098.00,1288.00 1098.00,1288.00 Z            M 1097.00,1290.00            C 1097.00,1290.00 1096.00,1290.00 1096.00,1290.00              1096.00,1290.00 1097.00,1291.00 1097.00,1291.00              1097.00,1291.00 1097.00,1290.00 1097.00,1290.00 Z            M 1096.00,1292.00            C 1096.00,1292.00 1095.00,1292.00 1095.00,1292.00              1095.00,1292.00 1096.00,1293.00 1096.00,1293.00              1096.00,1293.00 1096.00,1292.00 1096.00,1292.00 Z            M 1095.00,1294.00            C 1095.00,1294.00 1094.00,1294.00 1094.00,1294.00              1094.00,1294.00 1095.00,1295.00 1095.00,1295.00              1095.00,1295.00 1095.00,1294.00 1095.00,1294.00 Z            M 1094.00,1296.00            C 1094.00,1296.00 1093.00,1296.00 1093.00,1296.00              1093.00,1296.00 1094.00,1297.00 1094.00,1297.00              1094.00,1297.00 1094.00,1296.00 1094.00,1296.00 Z            M 1092.00,1299.00            C 1092.00,1299.00 1091.00,1299.00 1091.00,1299.00              1091.00,1299.00 1092.00,1300.00 1092.00,1300.00              1092.00,1300.00 1092.00,1299.00 1092.00,1299.00 Z            M 1091.00,1301.00            C 1091.00,1301.00 1090.00,1301.00 1090.00,1301.00              1090.00,1301.00 1091.00,1302.00 1091.00,1302.00              1091.00,1302.00 1091.00,1301.00 1091.00,1301.00 Z            M 1090.00,1303.00            C 1090.00,1303.00 1089.00,1303.00 1089.00,1303.00              1089.00,1303.00 1090.00,1304.00 1090.00,1304.00              1090.00,1304.00 1090.00,1303.00 1090.00,1303.00 Z            M 1088.00,1306.00            C 1088.00,1306.00 1087.00,1306.00 1087.00,1306.00              1087.00,1306.00 1088.00,1307.00 1088.00,1307.00              1088.00,1307.00 1088.00,1306.00 1088.00,1306.00 Z            M 1087.00,1308.00            C 1087.00,1308.00 1086.00,1308.00 1086.00,1308.00              1086.00,1308.00 1087.00,1309.00 1087.00,1309.00              1087.00,1309.00 1087.00,1308.00 1087.00,1308.00 Z            M 1085.00,1311.00            C 1085.00,1311.00 1084.00,1311.00 1084.00,1311.00              1084.00,1311.00 1085.00,1312.00 1085.00,1312.00              1085.00,1312.00 1085.00,1311.00 1085.00,1311.00 Z            M 512.00,1313.00            C 510.46,1316.89 510.46,1326.11 512.00,1330.00              512.00,1330.00 512.00,1313.00 512.00,1313.00 Z            M 1083.00,1314.00            C 1083.00,1314.00 1082.00,1314.00 1082.00,1314.00              1082.00,1314.00 1083.00,1315.00 1083.00,1315.00              1083.00,1315.00 1083.00,1314.00 1083.00,1314.00 Z            M 1082.00,1316.00            C 1082.00,1316.00 1081.00,1316.00 1081.00,1316.00              1081.00,1316.00 1082.00,1317.00 1082.00,1317.00              1082.00,1317.00 1082.00,1316.00 1082.00,1316.00 Z            M 1081.00,1317.00            C 1081.00,1317.00 1080.00,1317.00 1080.00,1317.00              1080.00,1317.00 1081.00,1318.00 1081.00,1318.00              1081.00,1318.00 1081.00,1317.00 1081.00,1317.00 Z            M 1080.00,1319.00            C 1080.00,1319.00 1079.00,1319.00 1079.00,1319.00              1079.00,1319.00 1080.00,1320.00 1080.00,1320.00              1080.00,1320.00 1080.00,1319.00 1080.00,1319.00 Z            M 1079.00,1320.00            C 1079.00,1320.00 1078.00,1320.00 1078.00,1320.00              1078.00,1320.00 1079.00,1321.00 1079.00,1321.00              1079.00,1321.00 1079.00,1320.00 1079.00,1320.00 Z            M 1078.00,1322.00            C 1078.00,1322.00 1077.00,1322.00 1077.00,1322.00              1077.00,1322.00 1078.00,1323.00 1078.00,1323.00              1078.00,1323.00 1078.00,1322.00 1078.00,1322.00 Z            M 1077.00,1323.00            C 1077.00,1323.00 1076.00,1323.00 1076.00,1323.00              1076.00,1323.00 1077.00,1324.00 1077.00,1324.00              1077.00,1324.00 1077.00,1323.00 1077.00,1323.00 Z            M 1075.00,1326.00            C 1075.00,1326.00 1074.00,1326.00 1074.00,1326.00              1074.00,1326.00 1075.00,1327.00 1075.00,1327.00              1075.00,1327.00 1075.00,1326.00 1075.00,1326.00 Z            M 1073.00,1329.00            C 1073.00,1329.00 1072.00,1329.00 1072.00,1329.00              1072.00,1329.00 1073.00,1330.00 1073.00,1330.00              1073.00,1330.00 1073.00,1329.00 1073.00,1329.00 Z            M 1070.00,1333.00            C 1070.00,1333.00 1069.00,1333.00 1069.00,1333.00              1069.00,1333.00 1070.00,1334.00 1070.00,1334.00              1070.00,1334.00 1070.00,1333.00 1070.00,1333.00 Z            M 1067.00,1337.00            C 1067.00,1337.00 1066.00,1337.00 1066.00,1337.00              1066.00,1337.00 1067.00,1338.00 1067.00,1338.00              1067.00,1338.00 1067.00,1337.00 1067.00,1337.00 Z            M 1066.00,1338.00            C 1066.00,1338.00 1065.00,1338.00 1065.00,1338.00              1065.00,1338.00 1066.00,1339.00 1066.00,1339.00              1066.00,1339.00 1066.00,1338.00 1066.00,1338.00 Z            M 1064.00,1341.00            C 1064.00,1341.00 1063.00,1341.00 1063.00,1341.00              1063.00,1341.00 1064.00,1342.00 1064.00,1342.00              1064.00,1342.00 1064.00,1341.00 1064.00,1341.00 Z            M 1063.00,1342.00            C 1063.00,1342.00 1062.00,1342.00 1062.00,1342.00              1062.00,1342.00 1063.00,1343.00 1063.00,1343.00              1063.00,1343.00 1063.00,1342.00 1063.00,1342.00 Z            M 1059.00,1347.00            C 1059.00,1347.00 1058.00,1347.00 1058.00,1347.00              1058.00,1347.00 1059.00,1348.00 1059.00,1348.00              1059.00,1348.00 1059.00,1347.00 1059.00,1347.00 Z            M 1058.00,1348.00            C 1058.00,1348.00 1057.00,1348.00 1057.00,1348.00              1057.00,1348.00 1058.00,1349.00 1058.00,1349.00              1058.00,1349.00 1058.00,1348.00 1058.00,1348.00 Z            M 1054.00,1353.00            C 1054.00,1353.00 1053.00,1353.00 1053.00,1353.00              1053.00,1353.00 1054.00,1354.00 1054.00,1354.00              1054.00,1354.00 1054.00,1353.00 1054.00,1353.00 Z            M 1053.00,1354.00            C 1053.00,1354.00 1052.00,1354.00 1052.00,1354.00              1052.00,1354.00 1053.00,1355.00 1053.00,1355.00              1053.00,1355.00 1053.00,1354.00 1053.00,1354.00 Z            M 1052.00,1355.00            C 1052.00,1355.00 1051.00,1355.00 1051.00,1355.00              1051.00,1355.00 1052.00,1356.00 1052.00,1356.00              1052.00,1356.00 1052.00,1355.00 1052.00,1355.00 Z            M 1051.00,1356.00            C 1051.00,1356.00 1050.00,1356.00 1050.00,1356.00              1050.00,1356.00 1051.00,1357.00 1051.00,1357.00              1051.00,1357.00 1051.00,1356.00 1051.00,1356.00 Z            M 513.00,1365.00            C 511.42,1368.99 511.42,1381.01 513.00,1385.00              513.00,1385.00 513.00,1365.00 513.00,1365.00 Z            M 1041.00,1367.00            C 1041.00,1367.00 1040.00,1367.00 1040.00,1367.00              1040.00,1367.00 1041.00,1368.00 1041.00,1368.00              1041.00,1368.00 1041.00,1367.00 1041.00,1367.00 Z            M 1039.00,1369.00            C 1039.00,1369.00 1038.00,1369.00 1038.00,1369.00              1038.00,1369.00 1039.00,1370.00 1039.00,1370.00              1039.00,1370.00 1039.00,1369.00 1039.00,1369.00 Z            M 1028.00,1379.00            C 1028.00,1379.00 1027.00,1379.00 1027.00,1379.00              1027.00,1379.00 1028.00,1380.00 1028.00,1380.00              1028.00,1380.00 1028.00,1379.00 1028.00,1379.00 Z            M 1027.00,1380.00            C 1027.00,1380.00 1026.00,1380.00 1026.00,1380.00              1026.00,1380.00 1027.00,1381.00 1027.00,1381.00              1027.00,1381.00 1027.00,1380.00 1027.00,1380.00 Z            M 1026.00,1381.00            C 1026.00,1381.00 1025.00,1381.00 1025.00,1381.00              1025.00,1381.00 1026.00,1382.00 1026.00,1382.00              1026.00,1382.00 1026.00,1381.00 1026.00,1381.00 Z            M 1025.00,1382.00            C 1025.00,1382.00 1024.00,1382.00 1024.00,1382.00              1024.00,1382.00 1025.00,1383.00 1025.00,1383.00              1025.00,1383.00 1025.00,1382.00 1025.00,1382.00 Z            M 1020.00,1386.00            C 1020.00,1386.00 1019.00,1386.00 1019.00,1386.00              1019.00,1386.00 1020.00,1387.00 1020.00,1387.00              1020.00,1387.00 1020.00,1386.00 1020.00,1386.00 Z            M 1019.00,1387.00            C 1019.00,1387.00 1018.00,1387.00 1018.00,1387.00              1018.00,1387.00 1019.00,1388.00 1019.00,1388.00              1019.00,1388.00 1019.00,1387.00 1019.00,1387.00 Z            M 1018.00,1388.00            C 1018.00,1388.00 1017.00,1388.00 1017.00,1388.00              1017.00,1388.00 1018.00,1389.00 1018.00,1389.00              1018.00,1389.00 1018.00,1388.00 1018.00,1388.00 Z            M 1014.00,1391.00            C 1014.00,1391.00 1013.00,1391.00 1013.00,1391.00              1013.00,1391.00 1014.00,1392.00 1014.00,1392.00              1014.00,1392.00 1014.00,1391.00 1014.00,1391.00 Z            M 1013.00,1392.00            C 1013.00,1392.00 1012.00,1392.00 1012.00,1392.00              1012.00,1392.00 1013.00,1393.00 1013.00,1393.00              1013.00,1393.00 1013.00,1392.00 1013.00,1392.00 Z            M 1009.00,1395.00            C 1009.00,1395.00 1008.00,1395.00 1008.00,1395.00              1008.00,1395.00 1009.00,1396.00 1009.00,1396.00              1009.00,1396.00 1009.00,1395.00 1009.00,1395.00 Z            M 1005.00,1398.00            C 1005.00,1398.00 1004.00,1398.00 1004.00,1398.00              1004.00,1398.00 1005.00,1399.00 1005.00,1399.00              1005.00,1399.00 1005.00,1398.00 1005.00,1398.00 Z            M 1001.00,1401.00            C 1001.00,1401.00 1000.00,1401.00 1000.00,1401.00              1000.00,1401.00 1001.00,1402.00 1001.00,1402.00              1001.00,1402.00 1001.00,1401.00 1001.00,1401.00 Z            M 998.00,1403.00            C 998.00,1403.00 997.00,1403.00 997.00,1403.00              997.00,1403.00 998.00,1404.00 998.00,1404.00              998.00,1404.00 998.00,1403.00 998.00,1403.00 Z            M 995.00,1405.00            C 995.00,1405.00 994.00,1405.00 994.00,1405.00              994.00,1405.00 995.00,1406.00 995.00,1406.00              995.00,1406.00 995.00,1405.00 995.00,1405.00 Z            M 994.00,1406.00            C 994.00,1406.00 993.00,1406.00 993.00,1406.00              993.00,1406.00 994.00,1407.00 994.00,1407.00              994.00,1407.00 994.00,1406.00 994.00,1406.00 Z            M 992.00,1407.00            C 992.00,1407.00 991.00,1407.00 991.00,1407.00              991.00,1407.00 992.00,1408.00 992.00,1408.00              992.00,1408.00 992.00,1407.00 992.00,1407.00 Z            M 991.00,1408.00            C 991.00,1408.00 990.00,1408.00 990.00,1408.00              990.00,1408.00 991.00,1409.00 991.00,1409.00              991.00,1409.00 991.00,1408.00 991.00,1408.00 Z            M 989.00,1409.00            C 989.00,1409.00 988.00,1409.00 988.00,1409.00              988.00,1409.00 989.00,1410.00 989.00,1410.00              989.00,1410.00 989.00,1409.00 989.00,1409.00 Z            M 986.00,1411.00            C 986.00,1411.00 985.00,1411.00 985.00,1411.00              985.00,1411.00 986.00,1412.00 986.00,1412.00              986.00,1412.00 986.00,1411.00 986.00,1411.00 Z            M 983.00,1413.00            C 983.00,1413.00 982.00,1413.00 982.00,1413.00              982.00,1413.00 983.00,1414.00 983.00,1414.00              983.00,1414.00 983.00,1413.00 983.00,1413.00 Z            M 981.00,1414.00            C 981.00,1414.00 980.00,1414.00 980.00,1414.00              980.00,1414.00 981.00,1415.00 981.00,1415.00              981.00,1415.00 981.00,1414.00 981.00,1414.00 Z            M 978.00,1416.00            C 978.00,1416.00 977.00,1416.00 977.00,1416.00              977.00,1416.00 978.00,1417.00 978.00,1417.00              978.00,1417.00 978.00,1416.00 978.00,1416.00 Z            M 976.00,1417.00            C 976.00,1417.00 975.00,1417.00 975.00,1417.00              975.00,1417.00 976.00,1418.00 976.00,1418.00              976.00,1418.00 976.00,1417.00 976.00,1417.00 Z            M 971.00,1420.00            C 971.00,1420.00 970.00,1420.00 970.00,1420.00              970.00,1420.00 971.00,1421.00 971.00,1421.00              971.00,1421.00 971.00,1420.00 971.00,1420.00 Z            M 969.00,1421.00            C 969.00,1421.00 968.00,1421.00 968.00,1421.00              968.00,1421.00 969.00,1422.00 969.00,1422.00              969.00,1422.00 969.00,1421.00 969.00,1421.00 Z            M 967.00,1422.00            C 967.00,1422.00 966.00,1422.00 966.00,1422.00              966.00,1422.00 967.00,1423.00 967.00,1423.00              967.00,1423.00 967.00,1422.00 967.00,1422.00 Z            M 965.00,1423.00            C 965.00,1423.00 964.00,1423.00 964.00,1423.00              964.00,1423.00 965.00,1424.00 965.00,1424.00              965.00,1424.00 965.00,1423.00 965.00,1423.00 Z            M 953.00,1429.00            C 953.00,1429.00 952.00,1429.00 952.00,1429.00              952.00,1429.00 953.00,1430.00 953.00,1430.00              953.00,1430.00 953.00,1429.00 953.00,1429.00 Z            M 951.00,1430.00            C 951.00,1430.00 950.00,1430.00 950.00,1430.00              950.00,1430.00 951.00,1431.00 951.00,1431.00              951.00,1431.00 951.00,1430.00 951.00,1430.00 Z            M 949.00,1431.00            C 949.00,1431.00 948.00,1431.00 948.00,1431.00              948.00,1431.00 949.00,1432.00 949.00,1432.00              949.00,1432.00 949.00,1431.00 949.00,1431.00 Z            M 947.00,1432.00            C 947.00,1432.00 946.00,1432.00 946.00,1432.00              946.00,1432.00 947.00,1433.00 947.00,1433.00              947.00,1433.00 947.00,1432.00 947.00,1432.00 Z            M 944.00,1433.00            C 944.00,1433.00 943.00,1433.00 943.00,1433.00              943.00,1433.00 944.00,1434.00 944.00,1434.00              944.00,1434.00 944.00,1433.00 944.00,1433.00 Z            M 942.00,1434.00            C 942.00,1434.00 941.00,1434.00 941.00,1434.00              941.00,1434.00 942.00,1435.00 942.00,1435.00              942.00,1435.00 942.00,1434.00 942.00,1434.00 Z            M 940.00,1435.00            C 940.00,1435.00 939.00,1435.00 939.00,1435.00              939.00,1435.00 940.00,1436.00 940.00,1436.00              940.00,1436.00 940.00,1435.00 940.00,1435.00 Z            M 937.00,1436.00            C 937.00,1436.00 936.00,1436.00 936.00,1436.00              936.00,1436.00 937.00,1437.00 937.00,1437.00              937.00,1437.00 937.00,1436.00 937.00,1436.00 Z            M 935.00,1437.00            C 935.00,1437.00 934.00,1437.00 934.00,1437.00              934.00,1437.00 935.00,1438.00 935.00,1438.00              935.00,1438.00 935.00,1437.00 935.00,1437.00 Z            M 514.00,1438.00            C 514.00,1438.00 513.00,1459.00 513.00,1459.00              513.00,1459.00 566.00,1459.00 566.00,1459.00              566.00,1459.00 591.00,1458.00 591.00,1458.00              591.00,1458.00 514.00,1458.00 514.00,1458.00              514.00,1458.00 514.00,1438.00 514.00,1438.00 Z            M 932.00,1438.00            C 932.00,1438.00 931.00,1438.00 931.00,1438.00              931.00,1438.00 932.00,1439.00 932.00,1439.00              932.00,1439.00 932.00,1438.00 932.00,1438.00 Z            M 929.00,1439.00            C 929.00,1439.00 928.00,1439.00 928.00,1439.00              928.00,1439.00 929.00,1440.00 929.00,1440.00              929.00,1440.00 929.00,1439.00 929.00,1439.00 Z            M 927.00,1440.00            C 927.00,1440.00 926.00,1440.00 926.00,1440.00              926.00,1440.00 927.00,1441.00 927.00,1441.00              927.00,1441.00 927.00,1440.00 927.00,1440.00 Z            M 924.00,1441.00            C 924.00,1441.00 923.00,1441.00 923.00,1441.00              923.00,1441.00 924.00,1442.00 924.00,1442.00              924.00,1442.00 924.00,1441.00 924.00,1441.00 Z            M 921.00,1442.00            C 921.00,1442.00 920.00,1442.00 920.00,1442.00              920.00,1442.00 921.00,1443.00 921.00,1443.00              921.00,1443.00 921.00,1442.00 921.00,1442.00 Z            M 918.00,1443.00            C 918.00,1443.00 917.00,1443.00 917.00,1443.00              917.00,1443.00 918.00,1444.00 918.00,1444.00              918.00,1444.00 918.00,1443.00 918.00,1443.00 Z            M 915.00,1444.00            C 915.00,1444.00 914.00,1444.00 914.00,1444.00              914.00,1444.00 915.00,1445.00 915.00,1445.00              915.00,1445.00 915.00,1444.00 915.00,1444.00 Z            M 911.00,1445.00            C 911.00,1445.00 910.00,1445.00 910.00,1445.00              910.00,1445.00 911.00,1446.00 911.00,1446.00              911.00,1446.00 911.00,1445.00 911.00,1445.00 Z            M 908.00,1446.00            C 908.00,1446.00 907.00,1446.00 907.00,1446.00              907.00,1446.00 908.00,1447.00 908.00,1447.00              908.00,1447.00 908.00,1446.00 908.00,1446.00 Z            M 897.00,1449.00            C 897.00,1449.00 896.00,1449.00 896.00,1449.00              896.00,1449.00 897.00,1450.00 897.00,1450.00              897.00,1450.00 897.00,1449.00 897.00,1449.00 Z            M 888.00,1451.00            C 888.00,1451.00 887.00,1451.00 887.00,1451.00              887.00,1451.00 888.00,1452.00 888.00,1452.00              888.00,1452.00 888.00,1451.00 888.00,1451.00 Z            M 883.00,1452.00            C 883.00,1452.00 882.00,1452.00 882.00,1452.00              882.00,1452.00 883.00,1453.00 883.00,1453.00              883.00,1453.00 883.00,1452.00 883.00,1452.00 Z            M 833.00,1458.00            C 833.00,1458.00 808.00,1458.00 808.00,1458.00              808.00,1458.00 795.00,1459.00 795.00,1459.00              795.00,1459.00 820.00,1459.00 820.00,1459.00              820.00,1459.00 833.00,1458.00 833.00,1458.00 Z" />
</svg>