<svg xmlns="http://www.w3.org/2000/svg" viewBox="29.5 0.34 551.06 609.35">
  <path id="Selection" fill="#303030" stroke="none" stroke-width="1" d="M 54.00,0.84            C 59.46,0.98 62.31,5.31 66.00,9.00              66.00,9.00 88.00,30.00 88.00,30.00              88.00,30.00 176.00,118.00 176.00,118.00              176.00,118.00 315.00,257.00 315.00,257.00              315.00,257.00 350.00,292.00 350.00,292.00              352.45,294.45 360.80,301.78 360.80,305.00              360.80,307.24 358.42,309.49 356.98,311.00              356.98,311.00 344.00,324.00 344.00,324.00              344.00,324.00 291.00,377.00 291.00,377.00              291.00,377.00 143.00,525.00 143.00,525.00              143.00,525.00 126.00,541.00 126.00,541.00              126.00,541.00 78.00,589.00 78.00,589.00              78.00,589.00 65.00,602.00 65.00,602.00              63.13,603.87 59.33,607.95 57.00,608.87              53.08,610.41 47.85,605.95 45.04,603.54              34.79,594.75 30.02,582.23 30.00,569.00              30.00,569.00 30.00,139.00 30.00,139.00              30.00,139.00 30.00,40.00 30.00,40.00              30.02,24.49 38.88,6.71 54.00,0.84 Z            M 124.00,15.00            C 124.00,15.00 160.00,34.72 160.00,34.72              160.00,34.72 232.00,76.15 232.00,76.15              232.00,76.15 460.00,207.00 460.00,207.00              460.00,207.00 424.00,244.00 424.00,244.00              424.00,244.00 387.00,280.00 387.00,280.00              387.00,280.00 277.00,170.00 277.00,170.00              277.00,170.00 202.04,95.00 202.04,95.00              202.04,95.00 193.96,86.00 193.96,86.00              193.96,86.00 147.00,39.00 147.00,39.00              147.00,39.00 124.00,15.00 124.00,15.00 Z            M 491.00,229.13            C 495.89,228.25 497.86,230.37 502.00,232.72              502.00,232.72 519.00,242.58 519.00,242.58              519.00,242.58 545.00,257.58 545.00,257.58              545.00,257.58 565.96,270.33 565.96,270.33              574.47,277.68 579.87,290.85 580.00,302.00              580.06,307.23 580.32,312.92 579.10,318.00              574.92,335.48 567.57,340.17 553.00,348.42              553.00,348.42 532.00,360.42 532.00,360.42              532.00,360.42 496.00,380.62 496.00,380.62              494.66,381.12 493.45,381.50 492.00,381.19              488.40,380.41 479.05,370.05 476.00,367.00              476.00,367.00 430.00,322.00 430.00,322.00              430.00,322.00 419.02,311.00 419.02,311.00              417.58,309.49 415.20,307.24 415.20,305.00              415.20,302.51 418.37,299.67 420.00,298.00              420.00,298.00 433.00,285.00 433.00,285.00              433.00,285.00 469.00,250.00 469.00,250.00              474.32,244.68 485.35,232.65 491.00,229.13 Z            M 387.00,330.00            C 387.00,330.00 424.00,366.00 424.00,366.00              424.00,366.00 460.00,403.00 460.00,403.00              460.00,403.00 232.00,533.85 232.00,533.85              232.00,533.85 159.00,575.85 159.00,575.85              159.00,575.85 124.00,595.00 124.00,595.00              124.00,595.00 146.00,572.00 146.00,572.00              146.00,572.00 192.91,525.00 192.91,525.00              192.91,525.00 267.00,450.00 267.00,450.00              267.00,450.00 387.00,330.00 387.00,330.00 Z"/>
</svg>