<svg xmlns="http://www.w3.org/2000/svg" viewBox="11.49 11.5 2536.98 1958">
  <path id="playstation" fill="#303030" stroke="none" stroke-width="1"
    d="M 960.00,12.00            C 1088.28,36.14 1227.69,74.68 1353.00,112.28              1433.41,136.41 1543.01,169.69 1619.00,201.58              1708.83,239.27 1797.77,284.71 1865.96,356.00              1887.73,378.76 1906.77,404.15 1923.19,431.00              1923.19,431.00 1938.25,459.00 1938.25,459.00              1969.68,521.86 1985.21,589.38 1992.17,659.00              1992.17,659.00 1995.09,694.00 1995.09,694.00              1995.09,694.00 1996.00,706.00 1996.00,706.00              1996.00,706.00 1997.00,725.00 1997.00,725.00              1997.00,725.00 1997.00,739.00 1997.00,739.00              1997.00,739.00 1998.00,755.00 1998.00,755.00              1998.00,755.00 1998.00,789.00 1998.00,789.00              1998.00,789.00 1997.04,799.00 1997.04,799.00              1997.04,799.00 1997.04,811.00 1997.04,811.00              1997.04,811.00 1996.00,823.00 1996.00,823.00              1996.00,823.00 1996.00,831.00 1996.00,831.00              1996.00,831.00 1992.15,865.00 1992.15,865.00              1979.98,966.81 1935.09,1075.53 1839.00,1124.24              1824.25,1131.72 1808.04,1137.84 1792.00,1141.87              1774.32,1146.32 1756.27,1149.79 1738.00,1150.00              1738.00,1150.00 1718.00,1151.00 1718.00,1151.00              1718.00,1151.00 1705.00,1150.00 1705.00,1150.00              1666.39,1149.55 1618.16,1136.47 1582.00,1122.95              1582.00,1122.95 1550.00,1109.69 1550.00,1109.69              1547.79,1108.68 1539.13,1104.84 1537.99,1103.30              1536.74,1101.61 1537.00,1098.06 1537.00,1096.00              1537.00,1096.00 1537.00,480.00 1537.00,480.00              1537.00,480.00 1536.04,467.00 1536.04,467.00              1534.31,427.24 1526.12,383.96 1495.00,356.17              1487.58,349.55 1478.21,343.92 1469.00,340.20              1460.60,336.81 1444.95,331.73 1436.00,332.21              1390.76,334.62 1374.06,392.48 1374.00,430.00              1374.00,430.00 1374.00,1969.00 1374.00,1969.00              1374.00,1969.00 1339.00,1958.67 1339.00,1958.67              1339.00,1958.67 1276.00,1938.72 1276.00,1938.72              1276.00,1938.72 1149.00,1898.34 1149.00,1898.34              1149.00,1898.34 1055.00,1868.67 1055.00,1868.67              1055.00,1868.67 983.00,1845.72 983.00,1845.72              983.00,1845.72 968.00,1841.00 968.00,1841.00              968.00,1841.00 961.02,1837.49 961.02,1837.49              961.02,1837.49 960.00,1830.00 960.00,1830.00              960.00,1830.00 960.00,1224.00 960.00,1224.00              960.00,1224.00 960.00,12.00 960.00,12.00 Z            M 881.00,1722.00            C 881.00,1722.00 848.00,1727.57 848.00,1727.57              848.00,1727.57 800.00,1734.72 800.00,1734.72              800.00,1734.72 712.00,1743.09 712.00,1743.09              712.00,1743.09 702.00,1744.00 702.00,1744.00              702.00,1744.00 682.00,1745.04 682.00,1745.04              682.00,1745.04 666.00,1745.04 666.00,1745.04              666.00,1745.04 654.00,1746.00 654.00,1746.00              654.00,1746.00 599.00,1746.00 599.00,1746.00              599.00,1746.00 584.00,1745.00 584.00,1745.00              539.22,1744.48 494.43,1740.13 450.00,1734.28              373.33,1724.19 285.31,1705.10 212.00,1680.67              212.00,1680.67 164.00,1665.31 164.00,1665.31              127.68,1652.38 89.35,1633.43 60.00,1608.27              33.93,1585.92 13.52,1556.24 12.04,1521.00              11.84,1516.15 12.30,1514.55 12.85,1510.00              16.20,1481.97 30.53,1459.72 52.00,1441.75              87.38,1412.16 143.64,1384.80 186.00,1365.70              246.96,1338.20 311.06,1317.71 374.00,1295.31              374.00,1295.31 644.00,1199.31 644.00,1199.31              644.00,1199.31 807.00,1141.31 807.00,1141.31              807.00,1141.31 853.00,1124.95 853.00,1124.95              860.15,1122.34 874.11,1116.62 881.00,1116.00              881.00,1116.00 881.00,1357.00 881.00,1357.00              881.00,1357.00 837.00,1372.31 837.00,1372.31              837.00,1372.31 756.00,1401.31 756.00,1401.31              756.00,1401.31 584.00,1462.69 584.00,1462.69              584.00,1462.69 497.00,1494.00 497.00,1494.00              471.44,1502.70 431.01,1515.84 410.00,1531.48              401.20,1538.03 387.82,1550.64 390.53,1563.00              393.73,1577.61 412.21,1586.76 425.00,1591.58              458.93,1604.34 502.04,1605.42 538.00,1605.00              538.00,1605.00 549.00,1604.04 549.00,1604.04              584.56,1602.49 621.80,1596.58 656.00,1586.58              656.00,1586.58 721.00,1563.69 721.00,1563.69              721.00,1563.69 817.00,1528.95 817.00,1528.95              817.00,1528.95 881.00,1506.00 881.00,1506.00              881.00,1506.00 881.00,1722.00 881.00,1722.00 Z            M 1451.00,1300.00            C 1451.00,1300.00 1485.00,1288.67 1485.00,1288.67              1485.00,1288.67 1540.00,1272.42 1540.00,1272.42              1597.59,1256.41 1656.95,1244.59 1716.00,1235.42              1716.00,1235.42 1802.00,1224.83 1802.00,1224.83              1802.00,1224.83 1838.00,1222.00 1838.00,1222.00              1838.00,1222.00 1854.00,1221.00 1854.00,1221.00              1854.00,1221.00 1875.00,1220.00 1875.00,1220.00              1875.00,1220.00 1958.00,1220.00 1958.00,1220.00              1958.00,1220.00 1973.00,1221.04 1973.00,1221.04              1973.00,1221.04 1986.00,1221.04 1986.00,1221.04              1986.00,1221.04 1999.00,1222.00 1999.00,1222.00              1999.00,1222.00 2010.00,1222.91 2010.00,1222.91              2010.00,1222.91 2083.00,1229.72 2083.00,1229.72              2158.74,1239.07 2222.72,1252.15 2296.00,1273.58              2296.00,1273.58 2361.00,1295.66 2361.00,1295.66              2361.00,1295.66 2386.00,1304.05 2386.00,1304.05              2422.65,1317.45 2460.77,1334.52 2492.00,1358.13              2521.27,1380.25 2546.74,1410.69 2547.96,1449.00              2548.08,1452.80 2547.54,1454.47 2547.16,1458.00              2543.50,1492.27 2523.79,1516.55 2498.00,1538.08              2463.04,1567.27 2412.29,1594.18 2370.00,1611.40              2370.00,1611.40 2322.00,1629.19 2322.00,1629.19              2322.00,1629.19 2248.00,1655.69 2248.00,1655.69              2248.00,1655.69 2159.00,1687.69 2159.00,1687.69              2159.00,1687.69 1921.00,1773.31 1921.00,1773.31              1921.00,1773.31 1732.00,1841.05 1732.00,1841.05              1732.00,1841.05 1541.00,1909.69 1541.00,1909.69              1541.00,1909.69 1486.00,1929.42 1486.00,1929.42              1478.06,1932.39 1458.35,1940.33 1451.00,1941.00              1451.00,1941.00 1451.00,1701.00 1451.00,1701.00              1451.00,1701.00 1509.00,1680.69 1509.00,1680.69              1509.00,1680.69 1624.00,1639.69 1624.00,1639.69              1624.00,1639.69 2003.00,1504.69 2003.00,1504.69              2003.00,1504.69 2089.00,1474.05 2089.00,1474.05              2089.00,1474.05 2136.00,1456.22 2136.00,1456.22              2150.61,1449.32 2173.62,1436.14 2178.78,1420.00              2184.54,1401.97 2162.73,1389.53 2149.00,1383.86              2112.15,1368.65 2069.20,1368.82 2030.00,1369.00              2030.00,1369.00 2019.00,1369.91 2019.00,1369.91              2019.00,1369.91 1995.00,1371.83 1995.00,1371.83              1927.69,1378.56 1881.55,1398.05 1819.00,1420.31              1819.00,1420.31 1563.00,1510.34 1563.00,1510.34              1563.00,1510.34 1491.00,1535.69 1491.00,1535.69              1491.00,1535.69 1451.00,1549.00 1451.00,1549.00              1451.00,1549.00 1451.00,1300.00 1451.00,1300.00 Z" />
</svg>