<svg xmlns="http://www.w3.org/2000/svg" viewBox="28.5 69.5 2502 899">
  <path id="popsci" fill="#303030" stroke="none" stroke-width="1"
    d="M 1813.00,487.00            C 1814.31,480.03 1827.82,453.11 1831.74,445.00              1831.74,445.00 1861.74,381.00 1861.74,381.00              1861.74,381.00 1887.31,326.00 1887.31,326.00              1887.31,326.00 1915.69,266.00 1915.69,266.00              1915.69,266.00 1959.74,172.00 1959.74,172.00              1959.74,172.00 1993.78,99.00 1993.78,99.00              1997.14,91.90 2004.14,73.87 2010.00,70.00              2010.00,70.00 2023.26,98.00 2023.26,98.00              2023.26,98.00 2055.78,167.00 2055.78,167.00              2055.78,167.00 2139.31,344.00 2139.31,344.00              2139.31,344.00 2161.69,391.00 2161.69,391.00              2161.69,391.00 2182.26,435.00 2182.26,435.00              2182.26,435.00 2197.31,467.00 2197.31,467.00              2197.31,467.00 2206.00,487.00 2206.00,487.00              2206.00,487.00 2121.00,487.00 2121.00,487.00              2108.91,486.98 2109.36,483.58 2104.42,472.00              2104.42,472.00 2093.20,446.00 2093.20,446.00              2091.76,442.42 2089.69,436.05 2086.66,433.74              2083.98,431.69 2080.20,432.01 2077.00,432.00              2077.00,432.00 1940.00,432.00 1940.00,432.00              1936.62,432.01 1933.03,431.73 1930.10,433.74              1926.34,436.32 1924.64,441.89 1923.00,446.00              1923.00,446.00 1912.42,472.00 1912.42,472.00              1907.93,482.70 1908.65,486.98 1896.00,487.00              1896.00,487.00 1813.00,487.00 1813.00,487.00 Z            M 546.00,78.21            C 546.00,78.21 579.00,78.21 579.00,78.21              602.39,78.04 630.28,88.39 651.00,98.75              672.24,109.37 691.69,123.59 707.91,141.00              734.56,169.61 750.06,200.06 758.65,238.00              758.65,238.00 762.83,261.00 762.83,261.00              762.83,261.00 764.00,287.00 764.00,287.00              764.00,287.00 763.00,302.00 763.00,302.00              762.77,321.92 760.37,328.30 755.00,347.00              751.40,359.55 748.67,369.11 742.73,381.00              724.55,417.36 694.49,448.45 659.00,468.14              632.97,482.58 598.90,492.95 569.00,493.00              569.00,493.00 550.00,493.00 550.00,493.00              550.00,493.00 540.00,492.09 540.00,492.09              521.03,490.78 502.94,487.52 485.00,480.95              460.80,472.08 434.84,456.46 416.00,438.91              393.74,418.17 378.93,394.22 368.19,366.00              364.06,355.15 359.52,344.38 357.01,333.00              355.39,325.62 353.09,310.36 353.00,303.00              352.81,286.84 352.20,270.02 354.29,254.00              357.67,228.05 373.43,188.91 387.69,167.00              395.21,155.45 404.20,145.50 414.04,135.91              414.04,135.91 425.00,125.29 425.00,125.29              447.66,105.58 478.82,89.73 508.00,82.47              516.06,80.47 524.73,79.65 533.00,79.09              533.00,79.09 546.00,78.21 546.00,78.21 Z            M 29.00,487.00            C 29.00,487.00 29.00,176.00 29.00,176.00              29.00,176.00 29.00,105.00 29.00,105.00              29.00,105.00 29.00,89.00 29.00,89.00              29.04,87.04 28.85,84.53 30.57,83.17              32.38,81.75 36.74,82.00 39.00,82.00              39.00,82.00 149.00,82.00 149.00,82.00              149.00,82.00 164.00,83.00 164.00,83.00              164.00,83.00 190.00,83.00 190.00,83.00              200.16,83.02 207.38,85.42 217.00,88.14              217.00,88.14 235.00,93.87 235.00,93.87              257.77,103.63 279.53,123.71 291.99,145.00              298.50,156.11 302.02,166.58 305.13,179.00              310.29,199.64 312.25,211.62 312.00,233.00              311.89,242.25 309.14,255.92 306.87,265.00              294.40,314.89 263.77,353.48 213.00,367.71              189.21,374.37 160.73,373.29 136.00,373.00              129.73,372.92 117.68,369.31 114.60,377.05              113.89,378.85 114.00,382.03 114.00,384.00              114.00,384.00 114.00,487.00 114.00,487.00              114.00,487.00 29.00,487.00 29.00,487.00 Z            M 822.00,82.00            C 822.00,82.00 939.00,82.00 939.00,82.00              939.00,82.00 954.00,83.00 954.00,83.00              954.00,83.00 984.00,83.00 984.00,83.00              1006.74,83.04 1036.53,96.34 1054.00,110.46              1073.73,126.40 1085.87,144.48 1094.81,168.00              1094.81,168.00 1100.50,185.00 1100.50,185.00              1100.50,185.00 1103.13,203.00 1103.13,203.00              1103.13,203.00 1104.96,217.00 1104.96,217.00              1104.96,217.00 1102.15,245.00 1102.15,245.00              1102.15,245.00 1098.11,271.00 1098.11,271.00              1090.04,303.13 1068.65,333.79 1041.00,351.92              1009.92,372.30 983.54,373.00 948.00,373.00              948.00,373.00 907.00,373.00 907.00,373.00              907.00,373.00 907.00,487.00 907.00,487.00              907.00,487.00 822.00,487.00 822.00,487.00              822.00,487.00 822.00,82.00 822.00,82.00 Z            M 2530.00,487.00            C 2530.00,487.00 2449.00,487.00 2449.00,487.00              2446.19,487.00 2442.61,487.21 2440.10,485.83              2437.30,484.28 2435.39,480.73 2433.86,478.00              2433.86,478.00 2423.76,459.00 2423.76,459.00              2423.76,459.00 2386.22,389.00 2386.22,389.00              2383.52,383.92 2376.54,369.60 2371.96,367.17              2369.35,365.79 2365.89,366.00 2363.00,366.00              2363.00,366.00 2336.00,366.00 2336.00,366.00              2333.65,366.02 2330.39,365.81 2328.60,367.60              2326.68,369.52 2327.01,373.46 2327.00,376.00              2327.00,376.00 2327.00,461.00 2327.00,461.00              2327.00,461.00 2327.00,478.00 2327.00,478.00              2326.96,480.37 2327.04,483.58 2325.26,485.40              2323.36,487.34 2319.53,486.99 2317.00,487.00              2317.00,487.00 2260.00,487.00 2260.00,487.00              2256.52,487.00 2244.01,487.92 2242.02,485.40              2240.77,483.81 2241.00,479.99 2241.00,478.00              2241.00,478.00 2241.00,174.00 2241.00,174.00              2241.00,174.00 2241.00,105.00 2241.00,105.00              2241.00,100.24 2239.71,86.71 2243.31,83.74              2245.77,81.71 2249.97,82.00 2253.00,82.00              2253.00,82.00 2348.00,82.00 2348.00,82.00              2383.04,82.00 2419.71,79.66 2452.00,95.81              2463.48,101.55 2472.55,108.20 2481.99,116.84              2489.78,123.96 2495.66,131.22 2501.48,140.00              2509.00,151.32 2513.98,164.08 2517.98,177.00              2521.65,188.89 2522.25,199.78 2523.09,212.00              2523.09,212.00 2523.92,220.00 2523.92,220.00              2523.92,220.00 2523.00,235.00 2523.00,235.00              2522.94,240.15 2521.93,245.89 2521.08,251.00              2516.75,277.13 2506.11,302.43 2487.91,322.00              2478.04,332.61 2473.40,335.68 2462.00,343.86              2459.48,345.67 2452.24,350.30 2451.52,353.17              2450.87,355.74 2454.45,360.77 2455.81,363.00              2455.81,363.00 2471.00,388.00 2471.00,388.00              2471.00,388.00 2511.00,454.00 2511.00,454.00              2515.35,461.25 2527.57,480.43 2530.00,487.00 Z            M 1156.00,83.00            C 1156.00,83.00 1242.00,83.00 1242.00,83.00              1242.00,83.00 1242.00,327.00 1242.00,327.00              1242.02,340.83 1245.37,359.03 1252.45,371.00              1258.94,381.97 1267.26,391.35 1278.00,398.30              1285.20,402.97 1292.62,406.01 1301.00,407.79              1338.75,415.81 1374.09,397.39 1388.19,361.00              1392.02,351.11 1393.98,342.64 1394.00,332.00              1394.00,332.00 1394.00,83.00 1394.00,83.00              1394.00,83.00 1480.00,83.00 1480.00,83.00              1480.00,83.00 1480.00,341.00 1480.00,341.00              1479.97,358.68 1476.15,376.62 1469.60,393.00              1460.66,415.36 1445.91,436.71 1428.00,452.83              1404.53,473.95 1372.27,487.86 1341.00,491.71              1341.00,491.71 1311.00,493.00 1311.00,493.00              1311.00,493.00 1300.00,492.09 1300.00,492.09              1259.23,489.11 1220.07,468.79 1193.29,438.00              1170.33,411.60 1156.05,373.02 1156.00,338.00              1156.00,338.00 1156.00,286.00 1156.00,286.00              1156.00,286.00 1156.00,83.00 1156.00,83.00 Z            M 1549.00,83.00            C 1549.00,83.00 1633.00,83.00 1633.00,83.00              1633.00,83.00 1633.00,351.00 1633.00,351.00              1633.00,351.00 1634.00,366.00 1634.00,366.00              1634.00,366.00 1634.00,399.00 1634.00,399.00              1634.01,401.69 1633.68,405.36 1635.60,407.49              1638.14,410.31 1643.51,409.99 1647.00,410.00              1647.00,410.00 1782.00,410.00 1782.00,410.00              1782.00,410.00 1782.00,487.00 1782.00,487.00              1782.00,487.00 1549.00,487.00 1549.00,487.00              1549.00,487.00 1549.00,83.00 1549.00,83.00 Z            M 549.00,160.28            C 537.98,161.90 527.52,163.47 517.00,167.42              487.28,178.61 460.91,203.80 448.43,233.00              436.33,261.30 434.23,295.64 443.74,325.00              458.95,371.94 503.72,409.41 554.00,410.00              573.39,410.22 589.22,407.00 607.00,399.14              641.81,383.75 666.49,351.52 675.63,315.00              677.11,309.08 680.24,290.53 679.82,285.00              679.82,285.00 676.80,268.00 676.80,268.00              673.05,249.12 670.70,237.03 660.55,220.00              637.91,182.02 593.72,156.12 549.00,160.28 Z            M 117.15,165.60            C 113.29,168.29 114.01,170.62 114.00,175.00              114.00,175.00 114.00,196.00 114.00,196.00              114.00,196.00 114.00,272.00 114.00,272.00              114.00,276.69 112.68,292.24 116.43,294.83              118.48,296.24 122.55,296.00 125.00,296.00              125.00,296.00 172.00,296.00 172.00,296.00              221.42,295.92 240.14,225.23 216.91,189.00              208.43,175.77 193.07,165.19 177.00,165.00              177.00,165.00 148.00,165.00 148.00,165.00              148.00,165.00 117.15,165.60 117.15,165.60 Z            M 907.00,295.85            C 907.00,295.85 947.00,295.85 947.00,295.85              947.00,295.85 973.00,295.85 973.00,295.85              984.86,293.40 994.99,286.20 1002.54,277.00              1016.16,260.38 1022.89,230.98 1018.33,210.00              1016.57,201.89 1012.63,193.83 1007.97,187.00              1001.74,177.87 994.55,171.44 984.00,167.70              977.88,165.53 973.41,165.01 967.00,165.00              967.00,165.00 907.00,165.00 907.00,165.00              907.00,165.00 907.00,295.85 907.00,295.85 Z            M 2327.00,291.00            C 2327.00,291.00 2346.00,290.00 2346.00,290.00              2346.00,290.00 2365.00,290.00 2365.00,290.00              2365.00,290.00 2377.00,290.99 2377.00,290.99              2395.00,291.39 2411.01,285.18 2422.53,271.00              2447.16,240.70 2446.10,183.45 2405.00,167.82              2398.85,165.48 2394.49,165.01 2388.00,165.00              2388.00,165.00 2327.00,165.00 2327.00,165.00              2327.00,165.00 2327.00,291.00 2327.00,291.00 Z            M 2009.00,245.00            C 2009.00,245.00 2007.00,245.00 2007.00,245.00              2007.00,245.00 1985.85,296.00 1985.85,296.00              1985.85,296.00 1959.00,360.00 1959.00,360.00              1974.69,362.07 2020.40,361.03 2039.00,361.00              2039.00,361.00 2058.00,360.00 2058.00,360.00              2058.00,360.00 2047.42,335.00 2047.42,335.00              2047.42,335.00 2028.14,290.00 2028.14,290.00              2028.14,290.00 2009.00,245.00 2009.00,245.00 Z            M 1335.00,539.00            C 1341.60,542.10 1354.87,555.31 1361.00,560.83              1361.00,560.83 1413.00,607.83 1413.00,607.83              1413.00,607.83 1521.00,705.17 1521.00,705.17              1521.00,705.17 1573.00,752.17 1573.00,752.17              1573.00,752.17 1593.00,770.00 1593.00,770.00              1594.80,762.60 1593.01,757.39 1593.00,750.00              1593.00,750.00 1593.00,718.00 1593.00,718.00              1593.00,718.00 1593.00,604.00 1593.00,604.00              1593.00,604.00 1593.00,565.00 1593.00,565.00              1593.00,561.97 1592.71,557.77 1594.74,555.31              1596.98,552.59 1600.84,553.01 1604.00,553.00              1604.00,553.00 1659.00,553.00 1659.00,553.00              1662.48,553.00 1674.99,552.08 1676.98,554.60              1678.23,556.19 1678.00,560.01 1678.00,562.00              1678.00,562.00 1678.00,838.00 1678.00,838.00              1678.00,838.00 1678.00,922.00 1678.00,922.00              1678.00,922.00 1678.00,941.00 1678.00,941.00              1678.00,941.00 1677.00,955.00 1677.00,955.00              1676.94,960.10 1677.43,962.96 1676.00,968.00              1667.85,964.72 1655.82,952.48 1649.00,946.03              1649.00,946.03 1607.00,907.09 1607.00,907.09              1607.00,907.09 1521.00,826.09 1521.00,826.09              1521.00,826.09 1486.00,793.96 1486.00,793.96              1486.00,793.96 1446.00,756.91 1446.00,756.91              1438.33,749.76 1426.47,737.29 1418.00,732.00              1418.00,732.00 1418.00,879.00 1418.00,879.00              1418.00,879.00 1419.00,894.00 1419.00,894.00              1419.00,894.00 1419.00,919.00 1419.00,919.00              1419.00,919.00 1419.96,929.00 1419.96,929.00              1419.96,929.00 1419.96,947.00 1419.96,947.00              1419.99,949.54 1420.32,953.48 1418.40,955.40              1416.48,957.32 1412.54,956.99 1410.00,957.00              1410.00,957.00 1354.00,957.00 1354.00,957.00              1349.93,957.00 1338.35,958.17 1336.02,954.69              1334.79,952.84 1335.00,949.19 1335.00,947.00              1335.00,947.00 1335.00,539.00 1335.00,539.00 Z            M 230.00,547.21            C 230.00,547.21 260.00,547.21 260.00,547.21              295.40,547.42 344.71,567.54 369.98,592.09              372.46,594.50 375.22,597.23 374.43,601.00              373.88,603.63 368.13,611.35 366.28,614.00              366.28,614.00 346.29,642.00 346.29,642.00              343.92,645.32 337.71,655.40 333.96,656.18              331.10,656.78 327.34,653.88 325.00,652.42              325.00,652.42 306.00,640.60 306.00,640.60              288.93,630.45 265.26,620.25 245.00,621.04              222.90,621.90 194.97,632.48 196.04,659.00              196.77,677.19 213.64,689.59 228.00,697.99              228.00,697.99 259.00,712.86 259.00,712.86              284.40,724.08 310.57,735.16 332.00,753.27              346.18,765.26 360.51,781.56 367.55,799.00              371.56,808.93 373.98,833.01 374.00,844.00              374.00,844.00 374.00,852.00 374.00,852.00              373.95,883.33 352.18,916.04 328.00,934.50              304.55,952.41 269.44,962.95 240.00,963.00              240.00,963.00 222.00,963.00 222.00,963.00              191.90,962.64 148.36,948.03 124.00,930.57              118.09,926.33 112.43,921.56 107.00,916.72              104.06,914.09 100.84,911.11 100.24,907.00              99.65,902.86 101.95,899.34 104.05,896.00              104.05,896.00 116.19,877.00 116.19,877.00              116.19,877.00 130.68,854.00 130.68,854.00              132.39,851.29 134.84,846.62 138.04,845.66              141.41,844.65 144.57,847.48 147.00,849.43              147.00,849.43 165.00,863.00 165.00,863.00              182.85,874.95 208.22,885.74 230.00,886.00              242.69,886.14 255.81,885.29 267.00,878.52              286.42,866.78 288.63,842.27 275.32,825.00              263.37,809.49 237.84,797.03 220.00,789.14              192.75,777.09 164.19,764.60 143.01,743.00              127.70,727.38 113.03,701.36 113.00,679.00              113.00,679.00 113.00,654.00 113.00,654.00              113.04,627.99 128.28,599.51 147.00,582.09              162.70,567.48 185.12,556.11 206.00,551.23              206.00,551.23 230.00,547.21 230.00,547.21 Z            M 710.00,664.00            C 710.00,664.00 675.00,640.31 675.00,640.31              653.82,628.90 636.30,627.73 613.00,628.00              572.96,628.47 533.73,658.08 516.27,693.00              508.89,707.76 502.03,730.45 502.00,747.00              502.00,747.00 502.00,761.00 502.00,761.00              502.04,787.03 510.65,816.23 526.50,837.00              541.43,856.56 565.06,872.09 589.00,878.11              589.00,878.11 609.00,881.15 609.00,881.15              609.00,881.15 624.00,882.82 624.00,882.82              629.71,882.82 645.30,880.18 651.00,878.57              668.87,873.53 685.67,864.26 700.00,852.54              703.63,849.57 713.09,839.09 717.91,841.13              720.37,842.17 723.25,846.79 724.88,849.00              724.88,849.00 738.12,867.00 738.12,867.00              738.12,867.00 754.73,890.00 754.73,890.00              756.84,892.89 760.80,897.21 760.36,901.00              759.92,904.76 755.71,907.97 753.00,910.25              753.00,910.25 733.00,925.71 733.00,925.71              704.73,945.85 672.79,959.30 638.00,962.08              638.00,962.08 628.00,963.00 628.00,963.00              610.24,963.20 592.43,962.48 575.00,958.79              527.07,948.64 483.09,920.88 453.23,882.00              429.84,851.53 413.72,811.41 410.91,773.00              410.91,773.00 410.00,761.00 410.00,761.00              410.00,761.00 410.00,746.00 410.00,746.00              410.02,732.45 413.01,719.12 416.12,706.00              416.12,706.00 422.05,683.00 422.05,683.00              432.62,653.94 450.19,627.77 472.00,606.00              485.55,592.47 505.65,577.56 523.00,569.32              532.77,564.68 548.81,557.57 559.00,554.74              569.30,551.89 596.54,547.02 607.00,547.00              607.00,547.00 631.00,547.00 631.00,547.00              631.00,547.00 641.00,547.91 641.00,547.91              672.60,550.22 702.34,560.09 729.00,577.22              729.00,577.22 748.99,591.29 748.99,591.29              751.37,593.08 755.00,595.65 754.93,599.00              754.87,602.24 745.09,614.65 742.71,618.00              742.71,618.00 710.00,664.00 710.00,664.00 Z            M 1930.00,547.21            C 1930.00,547.21 1954.00,547.21 1954.00,547.21              1960.73,547.01 1968.30,547.94 1975.00,548.87              2002.99,552.76 2026.96,559.21 2051.00,574.69              2051.00,574.69 2074.00,590.58 2074.00,590.58              2076.91,592.69 2080.70,594.93 2080.63,599.00              2080.57,602.91 2074.27,610.63 2071.86,614.00              2071.86,614.00 2047.14,649.00 2047.14,649.00              2044.79,652.28 2039.05,662.22 2034.96,662.41              2032.09,662.54 2029.05,659.72 2027.00,658.00              2022.20,653.97 2017.25,650.12 2012.00,646.69              1997.47,637.23 1981.13,631.12 1964.00,628.44              1908.22,619.71 1854.59,655.96 1835.69,708.00              1831.37,719.92 1830.08,727.53 1828.83,740.00              1828.52,743.12 1827.95,744.66 1828.18,748.00              1828.18,748.00 1829.00,770.00 1829.00,770.00              1829.17,784.49 1834.38,803.03 1840.76,816.00              1846.60,827.89 1853.65,839.47 1863.09,848.91              1891.83,877.66 1937.99,889.70 1977.00,878.57              1992.82,874.06 2007.91,866.78 2021.00,856.76              2021.00,856.76 2034.00,845.95 2034.00,845.95              2036.22,844.02 2038.84,841.46 2041.99,841.37              2046.88,841.24 2052.09,850.34 2054.71,854.00              2054.71,854.00 2077.42,885.00 2077.42,885.00              2080.07,888.67 2085.26,894.57 2085.74,899.00              2086.31,904.33 2082.53,907.14 2079.00,910.28              2071.60,916.86 2064.20,923.08 2056.00,928.66              2028.43,947.39 1987.65,962.95 1954.00,963.00              1954.00,963.00 1935.00,963.00 1935.00,963.00              1919.84,962.82 1899.64,958.60 1885.00,954.42              1827.13,937.91 1778.11,893.84 1753.86,839.00              1745.60,820.32 1737.24,786.33 1736.89,766.00              1736.89,766.00 1736.89,751.00 1736.89,751.00              1736.89,751.00 1736.89,737.00 1736.89,737.00              1738.97,718.19 1745.04,690.29 1752.43,673.00              1778.36,612.35 1828.08,571.38 1891.00,553.43              1904.12,549.68 1916.70,549.32 1930.00,547.21 Z            M 904.00,957.00            C 904.00,957.00 841.00,957.00 841.00,957.00              836.95,957.00 823.29,958.01 820.74,955.40              818.68,953.29 819.00,948.77 819.00,946.00              819.00,946.00 819.00,643.00 819.00,643.00              819.00,643.00 819.00,573.00 819.00,573.00              819.00,568.52 817.74,554.56 821.43,552.02              823.24,550.78 826.84,551.00 829.00,551.00              829.00,551.00 904.00,551.00 904.00,551.00              904.00,551.00 904.00,957.00 904.00,957.00 Z            M 983.00,554.00            C 983.00,554.00 1264.00,554.00 1264.00,554.00              1264.00,554.00 1264.00,630.00 1264.00,630.00              1264.00,630.00 1068.00,630.00 1068.00,630.00              1068.00,630.00 1068.00,712.00 1068.00,712.00              1068.00,712.00 1231.00,712.00 1231.00,712.00              1232.98,727.03 1232.00,755.58 1232.00,772.00              1232.00,776.16 1233.15,787.51 1229.57,789.98              1227.76,791.22 1224.16,791.00 1222.00,791.00              1222.00,791.00 1069.00,791.00 1069.00,791.00              1069.00,791.00 1069.00,880.00 1069.00,880.00              1069.00,880.00 1264.00,880.00 1264.00,880.00              1264.00,880.00 1264.00,957.00 1264.00,957.00              1264.00,957.00 1048.00,957.00 1048.00,957.00              1048.00,957.00 992.00,957.00 992.00,957.00              982.87,956.87 983.01,954.18 983.00,946.00              983.00,946.00 983.00,554.00 983.00,554.00 Z            M 2150.00,554.00            C 2150.00,554.00 2432.00,554.00 2432.00,554.00              2432.00,554.00 2432.00,610.00 2432.00,610.00              2432.00,614.89 2433.35,626.18 2428.77,628.98              2426.77,630.20 2423.31,630.00 2421.00,630.00              2421.00,630.00 2302.00,630.00 2302.00,630.00              2284.88,630.00 2251.27,628.99 2236.00,631.00              2236.00,631.00 2236.00,712.00 2236.00,712.00              2236.00,712.00 2399.00,712.00 2399.00,712.00              2399.00,712.00 2399.00,781.00 2399.00,781.00              2398.98,791.81 2396.14,791.98 2386.00,792.00              2386.00,792.00 2344.00,792.00 2344.00,792.00              2344.00,792.00 2327.00,791.00 2327.00,791.00              2327.00,791.00 2285.00,791.00 2285.00,791.00              2285.00,791.00 2236.00,792.00 2236.00,792.00              2236.00,792.00 2236.00,840.00 2236.00,840.00              2236.00,840.00 2235.04,852.00 2235.04,852.00              2235.04,852.00 2235.04,867.00 2235.04,867.00              2235.02,877.14 2235.19,879.98 2246.00,880.00              2246.00,880.00 2431.00,880.00 2431.00,880.00              2432.98,894.97 2432.00,921.79 2432.00,938.00              2432.00,942.16 2433.15,953.51 2429.57,955.98              2427.76,957.22 2424.16,957.00 2422.00,957.00              2422.00,957.00 2242.00,957.00 2242.00,957.00              2242.00,957.00 2161.00,957.00 2161.00,957.00              2150.29,956.98 2150.02,955.57 2150.00,945.00              2150.00,945.00 2150.00,554.00 2150.00,554.00 Z" />
</svg>