<svg xmlns="http://www.w3.org/2000/svg" viewBox="2.33 4.7 568.19 566.82">
  <path id="postman" fill="#303030" stroke="none" stroke-width="1"
    d="M 265.00,5.21            C 265.00,5.21 299.00,5.21 299.00,5.21              313.05,5.02 335.09,8.51 349.00,11.58              456.85,35.36 539.69,119.39 563.42,227.00              566.51,240.98 568.11,254.77 569.09,269.00              569.09,269.00 570.00,279.00 570.00,279.00              570.91,357.53 543.77,433.23 486.83,488.72              462.24,512.68 440.52,527.50 410.00,542.75              369.61,562.94 323.91,571.52 279.00,571.00              279.00,571.00 269.00,570.09 269.00,570.09              243.95,568.37 219.91,564.30 196.00,556.33              155.57,542.87 118.80,520.43 88.00,490.96              81.23,484.48 74.93,477.20 68.92,470.00              -2.93,383.93 -17.88,261.51 32.37,161.00              67.96,89.81 131.00,38.37 207.00,15.72              218.56,12.28 235.01,8.90 247.00,7.28              247.00,7.28 265.00,5.21 265.00,5.21 Z            M 446.00,120.00            C 437.49,114.46 434.03,113.05 424.00,111.73              417.68,110.90 410.97,112.00 405.00,114.23              374.19,125.73 368.19,167.96 394.00,187.24              399.10,191.05 403.81,193.31 410.00,194.76              421.60,197.49 426.07,195.46 437.00,193.00              433.90,186.45 422.54,176.54 417.00,171.00              415.12,169.12 409.93,164.37 409.34,162.00              408.40,158.26 415.52,152.48 418.00,150.00              424.44,143.56 442.72,126.93 446.00,120.00 Z            M 452.00,126.00            C 445.70,130.51 433.16,143.84 427.00,150.00              424.99,152.01 418.95,157.53 418.34,160.00              417.56,163.11 421.07,166.03 423.00,168.00              423.00,168.00 438.00,182.98 438.00,182.98              439.88,184.77 442.13,187.28 445.00,186.83              449.34,186.16 454.43,178.58 456.55,175.00              465.75,159.48 463.48,139.62 452.00,126.00 Z            M 378.00,184.00            C 369.52,169.87 347.12,180.26 337.00,186.69              311.88,202.66 290.65,223.74 269.00,243.91              269.00,243.91 251.00,261.00 251.00,261.00              249.19,262.81 243.67,268.05 242.54,270.00              242.23,271.09 242.04,271.80 242.54,273.00              243.00,275.66 253.46,285.57 256.00,287.98              257.51,289.42 259.76,291.80 262.00,291.80              264.84,291.80 269.04,286.95 271.00,285.00              271.00,285.00 290.00,266.00 290.00,266.00              290.00,266.00 349.00,207.00 349.00,207.00              356.72,199.28 367.07,185.79 378.00,184.00 Z            M 267.00,299.00            C 269.72,301.72 277.03,310.64 281.00,309.66              282.89,309.20 288.24,304.25 290.00,302.72              290.00,302.72 310.00,285.15 310.00,285.15              310.00,285.15 368.00,234.28 368.00,234.28              373.71,229.32 390.70,215.70 393.55,210.00              399.15,198.80 387.51,186.66 376.00,191.15              371.34,192.96 366.57,198.43 363.00,202.00              363.00,202.00 342.00,223.00 342.00,223.00              342.00,223.00 311.00,254.00 311.00,254.00              311.00,254.00 267.00,299.00 267.00,299.00 Z            M 396.00,219.00            C 396.00,219.00 368.00,242.85 368.00,242.85              368.00,242.85 327.00,278.85 327.00,278.85              327.00,278.85 302.00,300.72 302.00,300.72              302.00,300.72 285.00,317.00 285.00,317.00              285.00,317.00 304.00,335.00 304.00,335.00              304.00,335.00 320.00,319.99 320.00,319.99              338.21,302.22 356.14,283.92 372.00,264.00              381.39,252.19 393.67,234.08 396.00,219.00 Z            M 236.00,277.00            C 236.00,277.00 219.00,293.00 219.00,293.00              219.00,293.00 208.00,306.00 208.00,306.00              208.00,306.00 255.00,297.00 255.00,297.00              255.00,297.00 236.00,277.00 236.00,277.00 Z            M 272.00,314.00            C 270.18,311.46 266.08,306.11 263.00,305.34              258.28,304.15 248.84,316.11 247.00,320.00              247.00,320.00 272.00,314.00 272.00,314.00 Z            M 298.00,339.00            C 294.33,335.33 282.02,321.85 278.00,320.77              275.43,320.08 269.73,321.73 267.00,322.35              267.00,322.35 246.00,326.80 246.00,326.80              243.34,327.34 239.37,328.09 237.00,329.30              232.46,331.62 217.61,347.39 213.00,352.00              213.00,352.00 171.00,394.00 171.00,394.00              164.95,400.05 152.48,411.74 148.00,418.00              148.00,418.00 170.00,440.00 170.00,440.00              171.63,441.59 175.80,446.28 178.52,444.83              180.83,443.48 179.11,438.07 178.52,436.00              177.09,429.04 173.02,420.91 180.05,415.96              180.05,415.96 214.00,397.70 214.00,397.70              232.85,387.35 254.72,373.61 272.00,360.88              279.81,355.13 292.46,346.57 298.00,339.00 Z            M 169.00,449.00            C 164.82,443.16 156.36,435.32 151.00,430.00              149.18,428.20 145.69,424.20 143.00,424.20              140.51,424.20 137.67,427.37 136.00,429.00              131.15,433.75 123.84,440.00 121.00,446.00              121.00,446.00 169.00,449.00 169.00,449.00 Z" />
</svg>