<svg xmlns="http://www.w3.org/2000/svg" viewBox="2.33 4.7 1903.18 566.82">
  <path id="postman-wordmark" fill="#303030" stroke="none" stroke-width="1"
    d="M 265.00,5.21            C 265.00,5.21 299.00,5.21 299.00,5.21              313.05,5.02 335.09,8.51 349.00,11.58              456.85,35.36 539.69,119.39 563.42,227.00              566.51,240.98 568.11,254.77 569.09,269.00              569.09,269.00 570.00,279.00 570.00,279.00              570.91,357.53 543.77,433.23 486.83,488.72              462.24,512.68 440.52,527.50 410.00,542.75              369.61,562.94 323.91,571.52 279.00,571.00              279.00,571.00 269.00,570.09 269.00,570.09              243.95,568.37 219.91,564.30 196.00,556.33              155.57,542.87 118.80,520.43 88.00,490.96              81.23,484.48 74.93,477.20 68.92,470.00              -2.93,383.93 -17.88,261.51 32.37,161.00              67.96,89.81 131.00,38.37 207.00,15.72              218.56,12.28 235.01,8.90 247.00,7.28              247.00,7.28 265.00,5.21 265.00,5.21 Z            M 446.00,120.00            C 437.49,114.46 434.03,113.05 424.00,111.73              417.68,110.90 410.97,112.00 405.00,114.23              374.19,125.73 368.19,167.96 394.00,187.24              399.10,191.05 403.81,193.31 410.00,194.76              421.60,197.49 426.07,195.46 437.00,193.00              433.90,186.45 422.54,176.54 417.00,171.00              415.12,169.12 409.93,164.37 409.34,162.00              408.40,158.26 415.52,152.48 418.00,150.00              424.44,143.56 442.72,126.93 446.00,120.00 Z            M 452.00,126.00            C 445.70,130.51 433.16,143.84 427.00,150.00              424.99,152.01 418.95,157.53 418.34,160.00              417.56,163.11 421.07,166.03 423.00,168.00              423.00,168.00 438.00,182.98 438.00,182.98              439.88,184.77 442.13,187.28 445.00,186.83              449.34,186.16 454.43,178.58 456.55,175.00              465.75,159.48 463.48,139.62 452.00,126.00 Z            M 378.00,184.00            C 369.52,169.87 347.12,180.26 337.00,186.69              311.88,202.66 290.65,223.74 269.00,243.91              269.00,243.91 251.00,261.00 251.00,261.00              249.19,262.81 243.67,268.05 242.54,270.00              242.23,271.09 242.04,271.80 242.54,273.00              243.00,275.66 253.46,285.57 256.00,287.98              257.51,289.42 259.76,291.80 262.00,291.80              264.84,291.80 269.04,286.95 271.00,285.00              271.00,285.00 290.00,266.00 290.00,266.00              290.00,266.00 349.00,207.00 349.00,207.00              356.72,199.28 367.07,185.79 378.00,184.00 Z            M 267.00,299.00            C 269.72,301.72 277.03,310.64 281.00,309.66              282.89,309.20 288.24,304.25 290.00,302.72              290.00,302.72 310.00,285.15 310.00,285.15              310.00,285.15 368.00,234.28 368.00,234.28              373.71,229.32 390.70,215.70 393.55,210.00              399.15,198.80 387.51,186.66 376.00,191.15              371.34,192.96 366.57,198.43 363.00,202.00              363.00,202.00 342.00,223.00 342.00,223.00              342.00,223.00 311.00,254.00 311.00,254.00              311.00,254.00 267.00,299.00 267.00,299.00 Z            M 1103.00,197.42            C 1115.02,195.96 1129.44,197.93 1141.00,201.44              1146.83,203.21 1153.22,206.23 1153.89,213.00              1154.45,218.73 1151.81,225.66 1145.00,225.27              1145.00,225.27 1125.00,218.43 1125.00,218.43              1110.54,214.35 1088.35,216.65 1081.35,232.00              1080.00,234.97 1079.01,238.72 1079.21,242.00              1079.85,252.30 1087.50,259.79 1096.00,264.66              1110.39,272.91 1129.85,275.49 1143.00,287.18              1149.34,292.83 1153.83,299.96 1156.48,308.00              1162.24,325.49 1159.66,352.92 1144.96,365.54              1129.72,378.62 1115.65,378.22 1097.00,378.00              1085.70,377.86 1069.66,371.73 1061.01,364.53              1056.14,360.47 1051.94,354.69 1053.40,348.00              1054.56,342.65 1059.21,337.86 1065.00,340.02              1071.39,342.41 1074.21,349.66 1085.00,354.68              1101.89,362.53 1126.92,360.02 1135.12,341.00              1136.68,337.38 1137.99,331.94 1137.68,328.00              1136.79,316.76 1131.88,309.62 1123.00,302.90              1108.11,291.62 1087.82,290.66 1072.00,277.54              1050.89,260.02 1051.83,218.58 1077.00,205.26              1087.19,199.87 1091.88,199.10 1103.00,197.42 Z            M 1423.00,242.00            C 1423.00,242.00 1423.00,346.00 1423.00,346.00              1423.00,350.45 1423.56,368.92 1422.26,371.79              1420.59,375.48 1414.73,377.12 1411.00,376.63              1402.87,375.56 1402.01,370.94 1402.00,364.00              1402.00,364.00 1402.00,211.00 1402.00,211.00              1402.01,207.79 1401.71,203.92 1403.74,201.22              1409.88,193.05 1422.65,199.72 1427.21,206.00              1427.21,206.00 1436.31,223.00 1436.31,223.00              1436.31,223.00 1468.00,282.00 1468.00,282.00              1468.00,282.00 1479.69,259.00 1479.69,259.00              1479.69,259.00 1487.31,244.00 1487.31,244.00              1487.31,244.00 1501.22,218.00 1501.22,218.00              1504.08,212.58 1506.49,206.43 1511.09,202.21              1515.64,198.04 1526.69,195.31 1530.99,201.23              1533.23,204.30 1532.99,208.39 1533.00,212.00              1533.00,212.00 1533.00,362.00 1533.00,362.00              1532.99,365.31 1533.27,369.86 1531.15,372.61              1527.61,377.19 1516.39,377.19 1512.85,372.61              1510.73,369.86 1511.01,365.31 1511.00,362.00              1511.00,362.00 1511.00,284.00 1511.00,284.00              1511.00,275.47 1511.92,251.77 1510.00,245.00              1508.30,250.39 1501.31,262.46 1498.31,268.00              1498.31,268.00 1480.26,302.00 1480.26,302.00              1477.00,308.32 1473.46,318.96 1464.02,315.40              1458.94,313.48 1453.28,300.05 1450.75,295.00              1450.75,295.00 1432.31,260.00 1432.31,260.00              1432.31,260.00 1423.00,242.00 1423.00,242.00 Z            M 1883.00,325.00            C 1883.00,325.00 1883.00,271.00 1883.00,271.00              1883.00,271.00 1883.00,211.00 1883.00,211.00              1883.02,207.82 1882.90,203.92 1884.85,201.23              1888.45,196.27 1899.48,196.19 1903.26,201.23              1905.29,203.92 1904.99,207.79 1905.00,211.00              1905.00,211.00 1905.00,338.00 1905.00,338.00              1905.00,338.00 1905.00,364.00 1905.00,364.00              1904.98,366.97 1905.15,370.27 1903.26,372.77              1900.84,375.98 1896.68,376.16 1893.00,375.96              1889.47,375.76 1886.98,374.91 1884.33,372.47              1880.12,368.60 1872.97,352.06 1869.69,346.00              1869.69,346.00 1835.26,280.00 1835.26,280.00              1835.26,280.00 1818.00,247.00 1818.00,247.00              1818.00,247.00 1818.00,346.00 1818.00,346.00              1818.00,346.00 1818.00,366.00 1818.00,366.00              1817.98,368.48 1818.21,371.38 1816.40,373.35              1814.03,375.93 1809.27,376.14 1806.00,375.96              1797.20,375.46 1797.01,370.17 1797.00,363.00              1797.00,363.00 1797.00,210.00 1797.00,210.00              1797.00,207.37 1796.78,203.50 1798.17,201.23              1799.95,198.31 1802.92,198.10 1806.00,198.02              1814.84,197.79 1818.40,200.28 1822.69,208.00              1822.69,208.00 1883.00,325.00 1883.00,325.00 Z            M 720.00,306.00            C 720.00,306.00 720.00,364.00 720.00,364.00              720.00,366.93 720.35,371.04 718.26,373.35              714.70,377.30 703.84,376.97 700.60,372.77              698.71,370.33 699.01,366.92 699.00,364.00              699.00,364.00 699.00,237.00 699.00,237.00              699.00,237.00 699.00,209.00 699.00,209.00              699.02,206.21 698.82,202.68 700.74,200.43              703.15,197.59 707.63,198.01 711.00,198.00              711.00,198.00 745.00,198.00 745.00,198.00              762.36,198.00 773.87,196.84 789.00,207.93              800.59,216.42 804.10,229.42 805.09,243.00              805.09,243.00 805.96,251.00 805.96,251.00              806.08,254.80 805.52,256.50 805.17,260.00              803.56,276.03 800.47,287.93 786.00,297.30              771.56,306.65 761.20,306.00 745.00,306.00              745.00,306.00 720.00,306.00 720.00,306.00 Z            M 918.00,198.22            C 918.00,198.22 932.00,198.22 932.00,198.22              939.33,198.01 943.02,198.65 950.00,201.00              956.46,203.18 964.94,207.28 969.70,212.18              977.20,219.92 979.94,230.68 981.28,241.00              981.28,241.00 982.00,297.00 982.00,297.00              982.00,315.69 984.46,343.36 973.21,359.00              963.35,372.72 943.12,378.18 927.00,378.00              921.27,377.93 914.46,376.71 909.00,374.97              902.72,372.97 893.09,368.29 888.44,363.68              879.75,355.05 876.06,339.94 876.00,328.00              876.00,328.00 876.00,276.00 876.00,276.00              876.00,258.67 873.87,234.10 882.93,219.00              890.32,206.69 904.43,200.95 918.00,198.22 Z            M 1266.00,217.00            C 1266.00,217.00 1231.00,217.00 1231.00,217.00              1228.10,216.98 1224.78,217.18 1222.31,215.26              1218.14,211.85 1217.81,203.00 1222.31,199.60              1224.67,197.71 1228.08,198.01 1231.00,198.00              1231.00,198.00 1322.00,198.00 1322.00,198.00              1324.77,198.01 1328.34,197.69 1330.50,199.60              1334.56,203.01 1334.43,211.85 1330.50,215.26              1328.34,217.05 1325.58,216.96 1323.00,217.00              1323.00,217.00 1287.00,217.00 1287.00,217.00              1287.00,217.00 1287.00,339.00 1287.00,339.00              1287.00,339.00 1287.00,365.00 1287.00,365.00              1286.99,367.73 1287.22,371.18 1285.26,373.35              1282.91,375.96 1278.27,376.14 1275.00,375.96              1266.57,375.48 1266.01,371.08 1266.00,364.00              1266.00,364.00 1266.00,217.00 1266.00,217.00 Z            M 1658.04,198.65            C 1662.97,197.61 1670.67,197.23 1674.78,200.65              1677.64,203.04 1678.26,206.63 1679.34,210.00              1679.34,210.00 1684.98,228.00 1684.98,228.00              1684.98,228.00 1717.14,332.00 1717.14,332.00              1717.14,332.00 1726.10,361.00 1726.10,361.00              1727.82,368.17 1727.86,373.14 1720.00,375.89              1709.98,379.40 1707.01,374.48 1704.34,366.00              1704.34,366.00 1698.34,346.00 1698.34,346.00              1697.57,343.56 1696.76,339.50 1694.57,338.02              1692.73,336.78 1689.18,337.00 1687.00,337.00              1687.00,337.00 1641.00,337.00 1641.00,337.00              1638.49,337.02 1635.51,336.81 1633.51,338.60              1631.52,340.38 1630.48,345.37 1629.66,348.00              1629.66,348.00 1622.61,370.98 1622.61,370.98              1619.38,378.71 1609.65,378.32 1604.31,373.35              1601.25,370.50 1601.83,365.68 1602.76,362.00              1602.76,362.00 1611.72,333.00 1611.72,333.00              1611.72,333.00 1642.58,234.00 1642.58,234.00              1642.58,234.00 1649.67,211.00 1649.67,211.00              1651.59,205.12 1652.03,201.40 1658.04,198.65 Z            M 720.00,288.00            C 720.00,288.00 755.00,288.00 755.00,288.00              769.30,287.82 780.45,279.17 783.48,265.00              784.25,261.40 784.05,251.18 784.00,247.00              783.91,239.50 781.55,231.87 776.48,226.18              767.22,215.78 754.51,217.00 742.00,217.00              742.00,217.00 720.00,217.00 720.00,217.00              720.00,217.00 720.00,288.00 720.00,288.00 Z            M 924.00,217.29            C 913.47,219.04 905.18,222.55 900.53,233.00              896.62,241.79 897.00,257.32 897.00,267.00              897.00,267.00 897.00,309.00 897.00,309.00              897.00,318.10 896.91,331.43 899.75,340.00              903.78,352.18 913.58,357.85 926.00,358.00              940.44,358.17 951.28,355.85 957.54,341.00              961.32,332.01 960.00,318.85 960.00,309.00              960.00,309.00 960.00,248.00 960.00,248.00              959.97,226.13 944.90,215.31 924.00,217.29 Z            M 396.00,219.00            C 396.00,219.00 368.00,242.85 368.00,242.85              368.00,242.85 327.00,278.85 327.00,278.85              327.00,278.85 302.00,300.72 302.00,300.72              302.00,300.72 285.00,317.00 285.00,317.00              285.00,317.00 304.00,335.00 304.00,335.00              304.00,335.00 320.00,319.99 320.00,319.99              338.21,302.22 356.14,283.92 372.00,264.00              381.39,252.19 393.67,234.08 396.00,219.00 Z            M 1665.00,230.00            C 1665.00,230.00 1656.28,257.00 1656.28,257.00              1656.28,257.00 1638.00,318.00 1638.00,318.00              1638.00,318.00 1691.00,318.00 1691.00,318.00              1691.00,318.00 1665.00,230.00 1665.00,230.00 Z            M 236.00,277.00            C 236.00,277.00 219.00,293.00 219.00,293.00              219.00,293.00 208.00,306.00 208.00,306.00              208.00,306.00 255.00,297.00 255.00,297.00              255.00,297.00 236.00,277.00 236.00,277.00 Z            M 272.00,314.00            C 270.18,311.46 266.08,306.11 263.00,305.34              258.28,304.15 248.84,316.11 247.00,320.00              247.00,320.00 272.00,314.00 272.00,314.00 Z            M 298.00,339.00            C 294.33,335.33 282.02,321.85 278.00,320.77              275.43,320.08 269.73,321.73 267.00,322.35              267.00,322.35 246.00,326.80 246.00,326.80              243.34,327.34 239.37,328.09 237.00,329.30              232.46,331.62 217.61,347.39 213.00,352.00              213.00,352.00 171.00,394.00 171.00,394.00              164.95,400.05 152.48,411.74 148.00,418.00              148.00,418.00 170.00,440.00 170.00,440.00              171.63,441.59 175.80,446.28 178.52,444.83              180.83,443.48 179.11,438.07 178.52,436.00              177.09,429.04 173.02,420.91 180.05,415.96              180.05,415.96 214.00,397.70 214.00,397.70              232.85,387.35 254.72,373.61 272.00,360.88              279.81,355.13 292.46,346.57 298.00,339.00 Z            M 169.00,449.00            C 164.82,443.16 156.36,435.32 151.00,430.00              149.18,428.20 145.69,424.20 143.00,424.20              140.51,424.20 137.67,427.37 136.00,429.00              131.15,433.75 123.84,440.00 121.00,446.00              121.00,446.00 169.00,449.00 169.00,449.00 Z" />
</svg>