<svg xmlns="http://www.w3.org/2000/svg" viewBox="-0.5 -0.42 1052 1025.92">
  <path id="prelude" fill="#303030" stroke="none" stroke-width="1"
    d="M 167.00,0.08            C 167.00,0.08 196.00,0.08 196.00,0.08              196.00,0.08 247.00,0.08 247.00,0.08              247.00,0.08 403.00,0.08 403.00,0.08              403.00,0.08 876.00,0.08 876.00,0.08              886.69,0.02 900.59,2.51 911.00,5.13              971.36,20.29 1019.91,64.27 1040.69,123.00              1046.00,138.01 1050.98,159.10 1051.00,175.00              1051.00,175.00 1051.00,850.00 1051.00,850.00              1050.98,865.90 1046.00,886.99 1040.69,902.00              1019.93,960.69 971.32,1004.73 911.00,1019.87              900.59,1022.49 886.69,1024.98 876.00,1025.00              876.00,1025.00 175.00,1025.00 175.00,1025.00              159.97,1024.98 138.20,1020.14 124.00,1015.05              70.43,995.85 29.36,955.85 10.31,902.00              5.26,887.73 0.02,866.06 0.00,851.00              0.00,851.00 0.00,174.00 0.00,174.00              0.02,164.15 2.70,149.65 5.13,140.00              17.21,91.87 48.78,49.17 92.00,24.43              118.02,9.53 137.86,4.65 167.00,0.08 Z            M 646.15,225.60            C 644.77,226.56 644.41,226.29 643.60,228.15              642.55,230.55 643.00,248.09 643.00,252.00              643.00,252.00 643.00,328.00 643.00,328.00              643.00,328.00 643.00,644.00 643.00,644.00              643.03,663.13 648.54,687.77 660.52,703.00              674.99,721.41 700.08,729.96 723.00,730.00              736.61,730.02 748.49,730.49 762.00,727.80              772.63,725.69 777.98,725.99 778.00,714.00              778.00,714.00 778.00,658.00 778.00,658.00              777.96,656.18 778.10,653.27 776.40,652.26              774.69,650.94 769.14,652.15 767.00,652.26              762.94,652.89 756.86,652.24 753.00,650.89              742.11,647.08 740.02,636.17 740.00,626.00              740.00,626.00 740.00,324.00 740.00,324.00              740.00,324.00 740.00,249.00 740.00,249.00              740.00,244.32 741.30,228.59 737.57,226.02              735.76,224.78 732.16,225.00 730.00,225.00              730.00,225.00 675.00,225.00 675.00,225.00              668.49,225.00 651.45,224.40 646.15,225.60 Z            M 367.00,579.04            C 367.00,579.04 380.00,579.04 380.00,579.04              380.00,579.04 392.00,580.00 392.00,580.00              392.00,580.00 420.00,580.00 420.00,580.00              420.00,580.00 443.00,578.16 443.00,578.16              484.49,573.73 526.91,560.88 558.00,531.91              584.74,507.00 598.41,473.91 601.96,438.00              601.96,438.00 601.96,430.00 601.96,430.00              601.96,430.00 603.00,420.00 603.00,420.00              603.00,420.00 603.00,416.00 603.00,416.00              603.00,416.00 602.09,406.00 602.09,406.00              599.65,371.08 588.58,340.29 564.83,314.00              554.24,302.27 538.15,290.85 524.00,283.75              475.01,259.20 427.20,260.38 374.00,261.00              374.00,261.00 359.00,262.00 359.00,262.00              359.00,262.00 333.00,262.00 333.00,262.00              333.00,262.00 316.00,263.00 316.00,263.00              316.00,263.00 294.00,263.00 294.00,263.00              294.00,263.00 277.00,264.00 277.00,264.00              275.04,264.04 272.53,263.85 271.17,265.57              269.75,267.38 270.00,271.74 270.00,274.00              270.00,274.00 270.00,619.00 270.00,619.00              270.00,619.00 270.00,699.00 270.00,699.00              270.00,699.00 270.00,716.00 270.00,716.00              270.04,718.14 269.96,720.77 271.60,722.40              273.52,724.32 277.46,723.99 280.00,724.00              280.00,724.00 356.00,724.00 356.00,724.00              366.30,723.98 366.98,721.94 367.00,712.00              367.00,712.00 367.00,579.04 367.00,579.04 Z            M 367.00,347.00            C 403.06,347.00 443.10,340.46 476.00,359.43              493.89,369.74 506.75,390.10 507.00,411.00              507.00,411.00 507.00,427.00 507.00,427.00              506.89,436.10 503.96,447.97 499.68,456.00              494.47,465.77 486.23,473.34 477.00,479.30              450.43,496.47 412.41,495.05 382.00,495.00              382.00,495.00 367.00,494.00 367.00,494.00              367.00,494.00 367.00,347.00 367.00,347.00 Z" />
</svg>