<svg xmlns="http://www.w3.org/2000/svg" viewBox="-0.5 -0.42 1052 1025.92">
  <path id="premiere-pro" fill="#303030" stroke="none" stroke-width="1"
    d="M 167.00,0.08            C 167.00,0.08 196.00,0.08 196.00,0.08              196.00,0.08 247.00,0.08 247.00,0.08              247.00,0.08 403.00,0.08 403.00,0.08              403.00,0.08 876.00,0.08 876.00,0.08              886.69,0.02 900.59,2.51 911.00,5.13              971.36,20.29 1019.91,64.27 1040.69,123.00              1046.00,138.01 1050.98,159.10 1051.00,175.00              1051.00,175.00 1051.00,850.00 1051.00,850.00              1050.98,865.90 1046.00,886.99 1040.69,902.00              1019.93,960.69 971.32,1004.73 911.00,1019.87              900.59,1022.49 886.69,1024.98 876.00,1025.00              876.00,1025.00 175.00,1025.00 175.00,1025.00              159.97,1024.98 138.20,1020.14 124.00,1015.05              70.43,995.85 29.36,955.85 10.31,902.00              5.26,887.73 0.02,866.06 0.00,851.00              0.00,851.00 0.00,174.00 0.00,174.00              0.02,164.15 2.70,149.65 5.13,140.00              17.21,91.87 48.78,49.17 92.00,24.43              118.02,9.53 137.86,4.65 167.00,0.08 Z            M 344.00,577.00            C 344.00,577.00 405.00,577.00 405.00,577.00              405.00,577.00 417.00,576.09 417.00,576.09              446.75,574.01 477.53,568.04 504.00,553.69              515.94,547.22 526.99,538.99 537.00,529.83              564.13,505.00 579.94,463.48 580.00,427.00              580.00,427.00 580.00,406.00 580.00,406.00              579.70,380.97 568.56,348.40 554.28,328.00              533.98,299.00 508.48,283.82 476.00,272.05              458.88,265.85 437.16,262.33 419.00,261.00              419.00,261.00 411.00,261.00 411.00,261.00              411.00,261.00 399.00,260.00 399.00,260.00              399.00,260.00 359.00,260.00 359.00,260.00              359.00,260.00 343.00,261.00 343.00,261.00              343.00,261.00 316.00,261.00 316.00,261.00              316.00,261.00 299.00,262.00 299.00,262.00              299.00,262.00 278.00,262.00 278.00,262.00              278.00,262.00 262.00,263.00 262.00,263.00              259.58,263.00 253.40,262.60 251.60,264.02              249.62,265.59 250.00,269.70 250.00,272.00              250.00,272.00 250.00,618.00 250.00,618.00              250.00,618.00 250.00,698.00 250.00,698.00              250.00,698.00 250.00,715.00 250.00,715.00              250.04,717.14 249.96,719.77 251.60,721.40              253.52,723.32 257.46,722.99 260.00,723.00              260.00,723.00 323.00,723.00 323.00,723.00              327.27,723.00 340.62,724.23 342.98,720.69              344.21,718.84 344.00,715.19 344.00,713.00              344.00,713.00 344.00,577.00 344.00,577.00 Z            M 345.00,347.00            C 345.00,347.00 356.00,346.28 356.00,346.28              356.00,346.28 364.00,346.28 364.00,346.28              393.08,344.64 427.93,344.89 454.00,359.31              475.55,371.24 484.15,392.58 485.82,416.00              486.08,419.63 485.33,421.55 485.09,425.00              484.17,438.36 483.31,447.11 476.07,459.00              471.27,466.90 463.65,473.57 456.00,478.64              429.93,495.94 393.15,496.05 363.00,496.00              363.00,496.00 345.00,495.00 345.00,495.00              345.00,495.00 345.00,347.00 345.00,347.00 Z            M 735.00,420.00            C 735.00,409.33 733.40,398.47 731.39,388.00              730.59,383.86 729.39,378.37 725.79,375.74              723.02,373.71 719.27,374.01 716.00,374.05              716.00,374.05 663.00,374.05 663.00,374.05              663.00,374.05 651.00,374.05 651.00,374.05              648.95,373.97 643.86,373.36 642.31,374.05              639.58,375.66 639.96,380.34 640.01,383.00              640.01,383.00 640.96,392.00 640.96,392.00              640.96,392.00 640.96,404.00 640.96,404.00              640.96,404.00 642.00,419.00 642.00,419.00              642.00,419.00 642.00,442.00 642.00,442.00              642.00,442.00 643.00,459.00 643.00,459.00              643.00,459.00 643.00,662.00 643.00,662.00              643.00,662.00 643.00,715.00 643.00,715.00              643.13,724.13 645.82,723.99 654.00,724.00              654.00,724.00 720.00,724.00 720.00,724.00              724.27,724.00 737.62,725.23 739.98,721.69              741.21,719.84 741.00,716.19 741.00,714.00              741.00,714.00 741.00,503.00 741.00,503.00              741.00,500.92 740.89,497.93 741.60,496.00              743.61,490.57 754.81,483.41 760.00,480.76              777.41,471.85 803.47,464.51 823.00,463.09              823.00,463.09 846.00,462.00 846.00,462.00              848.15,461.97 851.52,462.11 853.01,460.26              854.25,458.72 854.00,454.94 854.00,453.00              854.00,453.00 854.00,388.00 854.00,388.00              854.00,383.63 855.25,369.40 851.69,367.02              849.78,365.75 845.30,365.96 843.00,366.01              812.56,366.74 782.86,379.52 759.00,397.89              759.00,397.89 735.00,420.00 735.00,420.00 Z" />
</svg>