<svg xmlns="http://www.w3.org/2000/svg" viewBox="-0.56 -0.68 1281.06 395.18">
  <path id="prime-video" fill="#303030" stroke="none" stroke-width="1"
    d="M 253.00,0.53            C 261.00,-0.79 270.49,-0.82 276.47,5.47              280.53,9.73 281.00,13.42 281.00,19.00              281.00,29.14 277.47,35.59 267.00,37.98              259.14,39.78 250.11,38.88 244.21,32.81              235.71,24.07 237.14,5.47 253.00,0.53 Z            M 836.00,0.64            C 843.60,-0.89 853.97,-0.61 859.79,5.21              870.22,15.66 865.33,40.35 842.00,38.91              829.86,38.16 823.01,31.12 823.01,19.00              823.01,9.18 826.79,4.11 836.00,0.64 Z            M 970.00,63.00            C 970.00,63.00 970.00,11.00 970.00,11.00              970.02,2.76 970.26,1.06 979.00,1.00              979.00,1.00 998.00,1.00 998.00,1.00              1000.27,1.05 1002.69,0.97 1004.49,2.60              1007.31,5.14 1006.99,10.51 1007.00,14.00              1007.00,14.00 1007.00,144.00 1007.00,144.00              1007.00,144.00 1007.00,171.00 1007.00,171.00              1006.96,174.10 1006.89,179.02 1004.44,181.26              1002.18,183.33 997.89,183.00 995.00,183.00              990.11,183.01 977.99,184.26 974.72,180.57              973.01,178.63 972.50,175.46 972.00,173.00              964.61,178.70 958.18,182.52 949.00,184.58              942.74,185.98 936.38,186.56 930.00,185.56              923.89,184.61 916.35,182.64 911.00,179.54              884.22,164.02 879.61,123.43 886.63,96.00              892.89,71.51 909.44,53.30 936.00,53.00              949.99,52.85 958.03,56.18 970.00,63.00 Z            M 33.00,68.00            C 43.59,59.05 58.86,52.29 73.00,53.09              83.21,53.67 93.78,56.18 102.00,62.53              119.40,75.96 124.24,100.20 124.00,121.00              123.63,152.54 106.95,184.60 72.00,185.96              59.55,186.44 47.26,181.68 37.00,175.00              37.00,175.00 37.00,224.00 37.00,224.00              36.89,231.80 35.64,232.95 28.00,233.00              28.00,233.00 9.00,233.00 9.00,233.00              6.63,232.96 3.42,233.04 1.60,231.26              -0.34,229.36 0.01,225.53 0.00,223.00              0.00,223.00 0.00,96.00 0.00,96.00              0.00,96.00 0.00,70.00 0.00,70.00              0.00,67.55 -0.42,61.57 0.99,59.70              3.21,56.77 9.68,57.01 13.00,57.00              23.67,56.98 30.92,54.80 33.00,68.00 Z            M 341.00,68.00            C 341.00,68.00 355.00,60.31 355.00,60.31              372.67,52.15 404.91,47.39 416.00,68.00              416.00,68.00 435.00,58.45 435.00,58.45              454.92,50.41 486.59,49.30 496.07,73.00              500.39,83.79 499.00,108.53 499.00,121.00              499.00,121.00 499.00,163.00 499.00,163.00              499.00,166.81 499.59,177.75 497.71,180.57              495.76,183.50 491.10,182.99 488.00,183.00              482.95,183.01 466.75,184.35 463.74,180.69              461.71,178.23 462.00,174.03 462.00,171.00              462.00,171.00 462.00,132.00 462.00,132.00              462.00,132.00 462.00,99.00 462.00,99.00              461.92,92.30 460.51,86.76 454.00,83.45              448.08,80.46 436.01,82.98 430.00,85.23              427.73,86.08 424.38,87.28 423.02,89.39              421.78,91.32 422.00,94.74 422.00,97.00              422.00,97.00 422.00,162.00 422.00,162.00              422.00,166.37 423.23,179.46 419.57,181.98              417.76,183.22 414.16,183.00 412.00,183.00              412.00,183.00 394.00,183.00 394.00,183.00              391.64,182.96 388.54,183.06 386.74,181.26              384.65,179.18 385.00,174.76 385.00,172.00              385.00,172.00 385.00,133.00 385.00,133.00              385.00,133.00 385.00,100.00 385.00,100.00              384.93,94.05 384.22,88.41 378.96,84.71              372.29,80.00 361.24,82.53 354.00,84.71              351.10,85.60 347.50,86.72 345.60,89.22              343.71,91.70 344.01,95.05 344.00,98.00              344.00,98.00 344.00,162.00 344.00,162.00              344.00,166.27 345.23,179.62 341.69,181.98              339.84,183.21 336.19,183.00 334.00,183.00              334.00,183.00 316.00,183.00 316.00,183.00              313.86,182.96 311.23,183.04 309.60,181.40              307.68,179.48 308.01,175.54 308.00,173.00              308.00,173.00 308.00,85.00 308.00,85.00              308.00,85.00 308.00,66.00 308.00,66.00              308.04,63.64 307.94,60.54 309.74,58.74              311.82,56.65 316.24,57.00 319.00,57.00              323.85,56.99 334.03,55.90 337.49,59.43              339.61,61.59 340.35,65.15 341.00,68.00 Z            M 1210.00,53.42            C 1228.70,51.14 1251.57,55.86 1264.83,70.04              1273.26,79.06 1279.85,93.56 1280.00,106.00              1280.00,106.00 1280.00,133.00 1280.00,133.00              1279.92,139.34 1278.73,144.05 1276.66,150.00              1268.65,172.92 1251.12,183.39 1228.00,186.15              1223.91,186.64 1222.39,187.13 1218.00,186.96              1203.26,186.39 1186.07,182.13 1175.04,171.83              1150.34,148.78 1150.05,94.24 1173.09,70.01              1183.63,58.93 1195.49,55.62 1210.00,53.42 Z            M 553.00,130.00            C 553.21,153.02 570.25,159.09 590.00,159.00              597.49,158.96 604.72,157.29 612.00,155.42              614.85,155.01 620.00,153.51 622.57,155.42              625.09,156.84 624.96,160.34 625.00,163.00              625.00,163.00 625.00,169.00 625.00,169.00              624.84,180.65 617.69,181.50 608.00,183.87              591.49,187.90 572.29,188.65 556.00,183.33              529.46,174.67 520.02,153.11 518.96,127.00              518.61,118.29 518.60,109.54 520.74,101.00              526.48,78.14 538.40,62.51 562.00,56.48              585.83,50.38 619.83,54.77 628.23,82.00              629.65,86.63 630.10,91.18 629.99,96.00              629.90,99.60 629.29,103.56 628.23,107.00              620.48,132.11 590.34,132.10 569.00,132.00              563.74,131.97 558.11,131.26 553.00,130.00 Z            M 1063.00,130.00            C 1064.92,152.84 1079.53,159.03 1100.00,159.00              1108.88,158.99 1114.48,157.45 1123.00,155.58              1125.76,154.97 1130.13,153.46 1132.70,155.04              1135.18,156.56 1135.71,160.35 1135.91,163.00              1136.43,170.00 1136.34,177.57 1129.00,180.61              1121.64,183.66 1113.83,185.04 1106.00,186.13              1083.22,189.29 1057.77,185.72 1042.33,167.00              1036.63,160.09 1033.92,151.56 1031.88,143.00              1026.46,120.16 1029.04,91.28 1045.18,73.00              1063.09,52.73 1099.99,48.47 1123.00,61.88              1142.87,73.45 1148.36,107.61 1128.99,122.24              1113.37,134.02 1081.37,134.52 1063.00,130.00 Z            M 180.00,74.00            C 192.99,64.74 197.81,56.21 216.00,56.00              219.80,55.96 224.49,55.32 226.69,59.15              228.54,62.37 228.01,71.96 228.00,76.00              227.99,79.49 228.28,85.65 225.44,88.15              221.54,91.59 213.78,88.84 209.00,89.18              203.71,89.56 186.81,91.83 184.02,96.27              182.79,98.24 183.00,101.72 183.00,104.00              183.00,104.00 183.00,162.00 183.00,162.00              183.00,166.37 184.13,179.26 180.52,181.83              178.52,183.24 174.40,183.00 172.00,183.00              172.00,183.00 155.00,183.00 155.00,183.00              152.64,182.96 149.54,183.06 147.74,181.26              145.65,179.18 146.00,174.76 146.00,172.00              146.00,172.00 146.00,84.00 146.00,84.00              146.00,84.00 146.00,66.00 146.00,66.00              146.04,63.64 145.94,60.54 147.74,58.74              149.82,56.65 154.24,57.00 157.00,57.00              157.00,57.00 168.00,57.00 168.00,57.00              178.30,57.19 179.27,65.35 180.00,74.00 Z            M 245.23,57.74            C 250.18,56.43 264.17,56.92 270.00,57.00              272.30,57.04 275.40,56.90 277.10,58.74              279.06,60.88 278.99,66.22 279.00,69.00              279.00,69.00 279.00,151.00 279.00,151.00              279.00,151.00 279.00,172.00 279.00,172.00              278.96,175.05 278.98,179.06 276.49,181.26              274.16,183.32 269.94,183.00 267.00,183.00              267.00,183.00 252.00,183.00 252.00,183.00              239.60,182.83 242.00,177.09 242.00,160.00              242.00,160.00 242.00,86.00 242.00,86.00              242.00,81.65 241.46,62.97 242.74,60.23              243.55,58.49 243.91,58.69 245.23,57.74 Z            M 748.00,146.00            C 748.00,146.00 762.28,100.00 762.28,100.00              762.28,100.00 771.14,70.00 771.14,70.00              772.23,66.20 773.50,60.26 777.13,58.17              780.48,56.25 796.27,56.99 801.00,57.00              803.69,57.00 808.26,56.66 810.44,58.74              812.19,60.77 811.36,63.65 810.44,66.00              810.44,66.00 804.68,82.00 804.68,82.00              804.68,82.00 776.00,157.00 776.00,157.00              773.83,162.47 768.98,178.19 764.79,181.26              762.42,182.99 759.78,182.96 757.00,183.00              757.00,183.00 742.00,183.00 742.00,183.00              739.12,183.00 735.65,183.21 733.04,181.83              727.52,178.90 724.46,166.86 722.19,161.00              722.19,161.00 697.20,96.00 697.20,96.00              697.20,96.00 686.81,69.00 686.81,69.00              685.85,66.42 684.03,61.19 685.99,58.74              687.68,56.63 692.52,57.00 695.00,57.00              695.00,57.00 713.00,57.00 713.00,57.00              723.51,57.15 723.25,62.15 725.98,71.00              725.98,71.00 735.02,102.00 735.02,102.00              735.02,102.00 748.00,146.00 748.00,146.00 Z            M 829.11,57.74            C 834.25,56.44 847.10,56.92 853.00,57.00              855.36,57.04 858.46,56.94 860.26,58.74              862.35,60.82 862.00,65.24 862.00,68.00              862.00,68.00 862.00,151.00 862.00,151.00              862.00,151.00 862.00,174.00 862.00,174.00              861.96,176.36 862.06,179.46 860.26,181.26              858.18,183.35 853.76,183.00 851.00,183.00              851.00,183.00 834.00,183.00 834.00,183.00              825.17,182.83 825.04,178.68 825.00,171.00              825.00,171.00 825.00,86.00 825.00,86.00              825.00,81.58 824.47,64.06 825.74,61.11              826.67,58.93 827.32,58.88 829.11,57.74 Z            M 553.00,108.00            C 553.00,108.00 574.00,109.90 574.00,109.90              578.82,110.11 588.04,108.46 591.79,105.35              597.36,100.74 597.83,90.70 593.35,85.21              587.20,77.67 566.09,76.90 557.80,92.00              554.76,97.54 553.83,101.84 553.00,108.00 Z            M 1064.00,108.00            C 1064.00,108.00 1087.00,109.68 1087.00,109.68              1091.73,109.32 1098.10,108.32 1101.89,105.35              1107.82,100.72 1108.73,90.72 1103.72,84.87              1096.95,77.50 1081.60,78.97 1074.04,84.87              1071.14,86.81 1068.99,89.78 1067.38,93.00              1064.93,97.87 1064.12,102.62 1064.00,108.00 Z            M 58.00,81.37            C 52.89,81.98 40.92,83.85 38.02,88.39              36.78,90.34 37.00,93.73 37.00,96.00              37.00,96.00 37.00,143.00 37.00,143.00              37.00,145.37 36.80,148.72 38.02,150.79              41.17,156.11 56.18,158.31 62.00,157.91              86.61,156.23 86.03,132.23 86.00,114.00              85.98,103.40 83.40,89.44 72.99,84.10              69.32,82.22 62.16,81.41 58.00,81.37 Z            M 943.00,81.30            C 926.92,84.44 923.60,95.38 921.85,110.00              919.47,129.79 921.64,156.21 947.00,157.25              952.67,157.49 965.72,155.71 968.98,150.61              970.13,148.80 969.99,146.08 970.00,144.00              970.00,144.00 970.00,95.00 970.00,95.00              970.00,92.75 970.22,89.32 968.98,87.39              965.49,81.98 948.96,80.71 943.00,81.30 Z            M 1214.00,82.33            C 1194.16,87.09 1193.97,107.61 1194.00,124.00              1194.01,129.72 1194.26,132.39 1195.66,138.00              1198.52,149.41 1204.35,157.68 1217.00,157.99              1240.96,158.57 1244.22,136.99 1244.00,118.00              1243.88,108.15 1241.60,94.05 1233.96,87.21              1228.02,81.89 1221.53,81.49 1214.00,82.33 Z            M 922.00,237.42            C 931.01,236.33 952.28,238.44 961.00,241.04              965.54,242.38 970.50,243.88 973.26,248.04              975.65,251.64 976.08,259.68 975.99,264.00              975.53,284.31 967.88,311.66 959.22,330.00              953.45,342.21 947.40,351.75 938.57,362.00              935.70,365.34 930.84,370.63 925.85,370.64              917.07,370.67 924.25,356.01 925.85,352.00              931.49,335.34 942.80,305.02 943.00,288.00              943.04,284.60 943.29,280.12 941.91,277.01              937.20,266.39 919.82,267.06 910.00,266.32              910.00,266.32 897.00,267.00 897.00,267.00              897.00,267.00 858.00,270.83 858.00,270.83              847.93,271.60 848.30,263.84 856.02,257.68              865.40,250.18 880.37,244.61 892.00,241.63              898.02,240.09 905.81,238.76 912.00,238.17              912.00,238.17 922.00,237.42 922.00,237.42 Z            M 315.06,245.78            C 322.69,244.64 337.94,255.97 345.00,260.00              367.55,272.89 391.12,283.98 415.00,294.15              457.72,312.35 507.20,325.50 553.00,333.08              573.89,336.54 594.86,339.12 616.00,340.04              616.00,340.04 629.00,341.00 629.00,341.00              629.00,341.00 677.00,341.00 677.00,341.00              677.00,341.00 688.00,340.04 688.00,340.04              730.42,338.19 775.07,329.06 816.00,317.85              836.63,312.20 857.14,304.94 877.00,297.00              883.51,294.40 902.70,285.32 908.00,285.04              919.18,284.46 923.73,293.10 918.99,301.00              915.60,306.65 902.81,315.00 897.00,319.14              868.67,339.32 827.11,358.45 794.00,369.49              756.25,382.07 724.47,388.22 685.00,392.17              685.00,392.17 656.00,394.00 656.00,394.00              656.00,394.00 644.00,393.18 644.00,393.18              644.00,393.18 632.00,394.00 632.00,394.00              632.00,394.00 624.00,394.00 624.00,394.00              624.00,394.00 613.00,393.04 613.00,393.04              557.39,390.61 494.09,373.99 444.00,349.74              406.40,331.54 368.29,307.69 337.00,279.95              337.00,279.95 314.23,259.00 314.23,259.00              310.43,254.37 309.32,249.17 315.06,245.78 Z" />
</svg>