<svg xmlns="http://www.w3.org/2000/svg" viewBox="-0.5 0.37 2495.06 982.13">
  <path id="prisma-wordmark" fill="#303030" stroke="none" stroke-width="1"
    d="M 410.00,1.44            C 430.24,-1.16 448.46,5.14 461.68,21.00              467.67,28.19 469.93,34.86 473.78,43.00              473.78,43.00 489.31,76.00 489.31,76.00              489.31,76.00 530.31,163.00 530.31,163.00              530.31,163.00 575.69,259.00 575.69,259.00              575.69,259.00 732.31,592.00 732.31,592.00              732.31,592.00 789.31,713.00 789.31,713.00              797.22,730.22 810.78,752.20 811.00,771.00              811.22,790.90 801.62,810.56 784.00,820.66              773.45,826.71 761.55,829.25 750.00,832.72              750.00,832.72 686.00,851.66 686.00,851.66              686.00,851.66 548.00,892.42 548.00,892.42              548.00,892.42 379.00,942.42 379.00,942.42              379.00,942.42 290.00,968.72 290.00,968.72              278.22,972.25 249.69,981.87 239.00,982.00              239.00,982.00 230.00,982.00 230.00,982.00              216.74,981.84 201.19,974.60 192.17,964.96              187.35,959.81 175.48,940.97 171.05,934.00              171.05,934.00 77.58,789.00 77.58,789.00              77.58,789.00 58.69,760.00 58.69,760.00              58.69,760.00 22.67,704.00 22.67,704.00              14.79,692.16 0.17,673.06 0.00,659.00              0.00,659.00 0.00,639.00 0.00,639.00              0.06,626.93 6.10,618.87 12.32,609.00              12.32,609.00 30.19,580.00 30.19,580.00              30.19,580.00 77.80,503.00 77.80,503.00              77.80,503.00 298.19,146.00 298.19,146.00              298.19,146.00 359.32,47.00 359.32,47.00              364.67,38.50 373.50,22.68 380.09,16.09              388.23,7.95 398.85,3.52 410.00,1.44 Z            M 438.00,123.60            C 425.36,124.81 424.48,131.73 422.12,142.00              422.12,142.00 418.80,158.00 418.80,158.00              418.80,158.00 395.60,269.00 395.60,269.00              395.60,269.00 369.21,395.00 369.21,395.00              369.21,395.00 336.79,551.00 336.79,551.00              336.79,551.00 296.80,742.00 296.80,742.00              296.80,742.00 278.21,831.00 278.21,831.00              278.21,831.00 270.12,870.00 270.12,870.00              267.15,882.91 260.84,899.95 276.00,907.62              278.11,908.69 280.63,909.59 283.00,909.78              288.09,910.18 309.61,902.98 316.00,901.14              316.00,901.14 394.00,878.02 394.00,878.02              394.00,878.02 451.00,861.28 451.00,861.28              451.00,861.28 582.00,822.42 582.00,822.42              582.00,822.42 639.00,805.66 639.00,805.66              639.00,805.66 716.00,782.86 716.00,782.86              726.49,779.84 740.21,777.35 743.44,765.00              746.23,754.39 740.50,746.13 736.31,737.00              736.31,737.00 711.86,685.00 711.86,685.00              711.86,685.00 679.78,617.00 679.78,617.00              679.78,617.00 636.69,525.00 636.69,525.00              636.69,525.00 607.31,463.00 607.31,463.00              607.31,463.00 566.31,376.00 566.31,376.00              566.31,376.00 485.78,205.00 485.78,205.00              485.78,205.00 457.24,144.00 457.24,144.00              452.52,134.40 450.31,124.78 438.00,123.60 Z            M 1550.00,320.42            C 1559.87,319.22 1575.36,321.39 1582.93,328.21              1595.41,339.40 1595.15,366.48 1582.93,377.79              1574.43,385.61 1562.83,386.12 1552.00,386.00              1543.05,385.89 1533.54,383.45 1527.10,376.91              1516.41,366.03 1516.18,341.39 1526.33,330.09              1532.91,322.76 1540.93,321.79 1550.00,320.42 Z            M 1067.00,341.00            C 1067.00,341.00 1159.00,341.00 1159.00,341.00              1159.00,341.00 1181.00,341.00 1181.00,341.00              1205.16,341.04 1237.13,348.99 1256.00,364.46              1283.10,386.67 1287.38,415.14 1287.00,448.00              1286.64,478.52 1272.35,508.00 1247.00,525.25              1213.83,547.82 1173.17,546.00 1135.00,546.00              1135.00,546.00 1135.00,659.00 1135.00,659.00              1135.00,659.00 1067.00,659.00 1067.00,659.00              1067.00,659.00 1067.00,341.00 1067.00,341.00 Z            M 1135.00,490.00            C 1155.90,490.00 1183.20,491.96 1201.00,479.21              1205.75,475.81 1210.99,470.25 1213.62,465.00              1217.96,456.36 1218.11,447.37 1218.00,438.00              1217.84,424.22 1212.11,411.19 1200.00,403.93              1184.30,394.51 1153.49,397.00 1135.00,397.00              1135.00,397.00 1135.00,490.00 1135.00,490.00 Z            M 2299.00,432.00            C 2325.44,418.44 2349.62,412.92 2379.00,410.91              2379.00,410.91 2395.00,410.00 2395.00,410.00              2395.00,410.00 2405.00,410.91 2405.00,410.91              2433.04,412.84 2463.49,420.08 2480.25,445.00              2495.76,468.06 2494.00,496.52 2494.00,523.00              2494.00,523.00 2494.00,659.00 2494.00,659.00              2494.00,659.00 2446.00,659.00 2446.00,659.00              2446.00,659.00 2434.00,626.00 2434.00,626.00              2434.00,626.00 2432.00,626.00 2432.00,626.00              2427.42,634.53 2412.73,647.57 2404.00,652.22              2374.39,667.97 2322.21,668.63 2297.01,643.96              2279.92,627.22 2274.53,601.07 2276.83,578.00              2277.76,568.71 2279.18,559.51 2283.37,551.00              2288.19,541.23 2295.80,533.00 2305.00,527.23              2316.79,519.83 2331.33,514.89 2345.00,512.42              2362.61,509.24 2380.13,508.03 2398.00,508.00              2398.00,508.00 2410.00,507.04 2410.00,507.04              2410.00,507.04 2427.00,507.04 2427.00,507.04              2427.00,507.04 2427.00,497.00 2427.00,497.00              2426.94,492.24 2426.12,486.52 2424.64,482.00              2414.83,452.09 2375.80,459.76 2353.00,466.42              2353.00,466.42 2339.00,471.05 2339.00,471.05              2339.00,471.05 2321.00,478.00 2321.00,478.00              2321.00,478.00 2306.69,449.00 2306.69,449.00              2306.69,449.00 2299.00,432.00 2299.00,432.00 Z            M 1393.00,456.00            C 1395.53,448.05 1402.17,440.79 1408.00,435.00              1422.11,421.00 1440.77,411.10 1461.00,411.00              1461.00,411.00 1474.00,411.00 1474.00,411.00              1478.83,411.06 1483.33,411.82 1488.00,413.00              1488.00,413.00 1483.00,476.00 1483.00,476.00              1477.41,474.95 1474.87,474.07 1469.00,474.00              1469.00,474.00 1457.00,474.00 1457.00,474.00              1436.27,474.03 1415.26,483.87 1404.45,502.00              1394.19,519.21 1396.00,539.76 1396.00,559.00              1396.00,559.00 1396.00,659.00 1396.00,659.00              1396.00,659.00 1329.00,659.00 1329.00,659.00              1329.00,659.00 1329.00,415.00 1329.00,415.00              1329.00,415.00 1372.00,415.00 1372.00,415.00              1374.00,415.00 1377.67,414.74 1379.28,415.99              1381.14,417.44 1382.06,422.69 1382.58,425.00              1382.58,425.00 1387.63,446.00 1387.63,446.00              1388.82,450.83 1388.41,453.42 1393.00,456.00 Z            M 1637.00,594.00            C 1643.24,594.66 1656.07,600.66 1663.00,603.00              1678.13,608.10 1710.49,615.56 1726.00,613.72              1737.87,612.31 1753.73,609.84 1755.44,595.00              1756.88,582.55 1742.35,574.44 1733.00,569.75              1733.00,569.75 1717.00,561.86 1717.00,561.86              1696.00,552.51 1670.33,543.54 1654.01,527.00              1629.92,502.55 1631.06,455.02 1657.00,432.18              1672.55,418.50 1700.52,411.24 1721.00,411.00              1749.25,410.67 1768.73,411.59 1796.00,420.67              1796.00,420.67 1812.00,426.58 1812.00,426.58              1814.18,427.53 1817.51,428.64 1818.19,431.21              1818.75,433.32 1816.99,437.03 1816.15,439.00              1816.15,439.00 1809.00,456.00 1809.00,456.00              1809.00,456.00 1802.72,471.00 1802.72,471.00              1802.03,472.59 1800.73,476.03 1799.30,476.96              1797.44,478.19 1794.86,477.07 1793.00,476.38              1793.00,476.38 1779.00,470.95 1779.00,470.95              1760.16,463.93 1750.29,460.97 1730.00,461.00              1719.98,461.02 1702.48,464.33 1704.23,478.00              1705.58,488.56 1720.45,495.18 1729.00,499.22              1752.32,510.24 1784.10,519.74 1802.99,537.17              1824.28,556.81 1827.33,595.76 1815.02,621.00              1810.06,631.17 1802.43,639.72 1793.00,645.92              1766.82,663.13 1734.19,663.35 1704.00,663.00              1704.00,663.00 1694.00,662.09 1694.00,662.09              1679.97,661.11 1666.41,659.12 1653.00,654.67              1649.71,653.57 1639.80,650.88 1637.99,648.35              1636.75,646.61 1637.00,643.10 1637.00,641.00              1637.00,641.00 1637.00,594.00 1637.00,594.00 Z            M 1926.00,446.00            C 1931.60,444.19 1933.30,439.29 1937.17,435.00              1941.48,430.24 1947.48,425.75 1953.00,422.45              1978.17,407.45 2016.16,407.76 2043.00,418.06              2051.53,421.34 2059.73,427.32 2065.91,434.00              2068.35,436.64 2073.16,444.55 2076.05,445.26              2079.02,445.98 2080.92,442.95 2082.47,440.98              2087.34,434.82 2088.66,432.97 2095.00,428.02              2107.83,417.99 2127.67,411.19 2144.00,411.00              2144.00,411.00 2159.00,411.00 2159.00,411.00              2178.01,411.03 2202.76,418.58 2215.70,433.04              2228.59,447.44 2234.97,470.93 2235.00,490.00              2235.00,490.00 2235.00,513.00 2235.00,513.00              2235.00,513.00 2235.00,659.00 2235.00,659.00              2235.00,659.00 2168.00,659.00 2168.00,659.00              2168.00,659.00 2168.00,514.00 2168.00,514.00              2167.97,495.87 2163.10,473.50 2144.00,466.70              2138.35,464.69 2134.84,464.93 2129.00,465.00              2102.86,465.31 2090.60,485.89 2086.42,509.00              2082.97,528.12 2084.00,549.49 2084.00,569.00              2084.00,569.00 2084.00,659.00 2084.00,659.00              2084.00,659.00 2017.00,659.00 2017.00,659.00              2017.00,659.00 2017.00,514.00 2017.00,514.00              2016.97,495.87 2012.10,473.50 1993.00,466.70              1987.35,464.69 1983.84,464.93 1978.00,465.00              1950.71,465.32 1940.26,486.55 1935.80,510.00              1932.17,529.13 1933.00,551.44 1933.00,571.00              1933.00,571.00 1933.00,659.00 1933.00,659.00              1933.00,659.00 1866.00,659.00 1866.00,659.00              1866.00,659.00 1866.00,415.00 1866.00,415.00              1866.00,415.00 1918.00,415.00 1918.00,415.00              1918.00,415.00 1926.00,446.00 1926.00,446.00 Z            M 1522.00,415.00            C 1522.00,415.00 1589.00,415.00 1589.00,415.00              1589.00,415.00 1589.00,659.00 1589.00,659.00              1589.00,659.00 1522.00,659.00 1522.00,659.00              1522.00,659.00 1522.00,415.00 1522.00,415.00 Z            M 2427.00,546.00            C 2412.07,548.67 2394.65,545.30 2375.00,550.74              2366.13,553.20 2358.34,556.77 2352.22,564.00              2343.61,574.48 2341.99,595.78 2352.22,605.90              2357.23,611.02 2364.07,612.58 2371.00,613.57              2392.07,616.61 2416.20,605.84 2423.65,585.00              2428.23,572.20 2427.00,559.39 2427.00,546.00 Z" />
</svg>