<svg xmlns="http://www.w3.org/2000/svg" viewBox="-0.5 0.37 812 982.13">
  <path id="prisma" fill="#303030" stroke="none" stroke-width="1"
    d="M 410.00,1.44            C 430.24,-1.16 448.46,5.14 461.68,21.00              467.67,28.19 469.93,34.86 473.78,43.00              473.78,43.00 489.31,76.00 489.31,76.00              489.31,76.00 530.31,163.00 530.31,163.00              530.31,163.00 575.69,259.00 575.69,259.00              575.69,259.00 732.31,592.00 732.31,592.00              732.31,592.00 789.31,713.00 789.31,713.00              797.22,730.22 810.78,752.20 811.00,771.00              811.22,790.90 801.62,810.56 784.00,820.66              773.45,826.71 761.55,829.25 750.00,832.72              750.00,832.72 686.00,851.66 686.00,851.66              686.00,851.66 548.00,892.42 548.00,892.42              548.00,892.42 379.00,942.42 379.00,942.42              379.00,942.42 290.00,968.72 290.00,968.72              278.22,972.25 249.69,981.87 239.00,982.00              239.00,982.00 230.00,982.00 230.00,982.00              216.74,981.84 201.19,974.60 192.17,964.96              187.35,959.81 175.48,940.97 171.05,934.00              171.05,934.00 77.58,789.00 77.58,789.00              77.58,789.00 58.69,760.00 58.69,760.00              58.69,760.00 22.67,704.00 22.67,704.00              14.79,692.16 0.17,673.06 0.00,659.00              0.00,659.00 0.00,639.00 0.00,639.00              0.06,626.93 6.10,618.87 12.32,609.00              12.32,609.00 30.19,580.00 30.19,580.00              30.19,580.00 77.80,503.00 77.80,503.00              77.80,503.00 298.19,146.00 298.19,146.00              298.19,146.00 359.32,47.00 359.32,47.00              364.67,38.50 373.50,22.68 380.09,16.09              388.23,7.95 398.85,3.52 410.00,1.44 Z            M 438.00,123.60            C 425.36,124.81 424.48,131.73 422.12,142.00              422.12,142.00 418.80,158.00 418.80,158.00              418.80,158.00 395.60,269.00 395.60,269.00              395.60,269.00 369.21,395.00 369.21,395.00              369.21,395.00 336.79,551.00 336.79,551.00              336.79,551.00 296.80,742.00 296.80,742.00              296.80,742.00 278.21,831.00 278.21,831.00              278.21,831.00 270.12,870.00 270.12,870.00              267.15,882.91 260.84,899.95 276.00,907.62              278.11,908.69 280.63,909.59 283.00,909.78              288.09,910.18 309.61,902.98 316.00,901.14              316.00,901.14 394.00,878.02 394.00,878.02              394.00,878.02 451.00,861.28 451.00,861.28              451.00,861.28 582.00,822.42 582.00,822.42              582.00,822.42 639.00,805.66 639.00,805.66              639.00,805.66 716.00,782.86 716.00,782.86              726.49,779.84 740.21,777.35 743.44,765.00              746.23,754.39 740.50,746.13 736.31,737.00              736.31,737.00 711.86,685.00 711.86,685.00              711.86,685.00 679.78,617.00 679.78,617.00              679.78,617.00 636.69,525.00 636.69,525.00              636.69,525.00 607.31,463.00 607.31,463.00              607.31,463.00 566.31,376.00 566.31,376.00              566.31,376.00 485.78,205.00 485.78,205.00              485.78,205.00 457.24,144.00 457.24,144.00              452.52,134.40 450.31,124.78 438.00,123.60 Z" />
</svg>