<svg xmlns="http://www.w3.org/2000/svg" viewBox="99.49 99.71 241.1 240.82">
  <path id="product-hunt" fill="#303030" stroke="none" stroke-width="1"
    d="M 205.00,100.21            C 205.00,100.21 229.00,100.21 229.00,100.21              239.65,100.13 254.10,103.66 264.00,107.60              298.12,121.18 322.21,146.32 334.31,181.00              340.50,198.76 340.21,211.70 340.00,230.00              339.75,251.30 328.48,277.38 315.58,294.00              305.14,307.44 292.86,317.87 278.00,326.14              255.48,338.68 236.01,340.29 211.00,340.00              200.32,339.87 185.93,336.34 176.00,332.40              141.95,318.89 116.96,292.84 105.35,258.00              99.61,240.74 99.97,230.57 100.00,213.00              100.02,199.94 103.50,186.05 108.40,174.00              121.75,141.20 149.18,115.75 183.00,105.03              190.37,102.69 197.41,101.57 205.00,100.21 Z            M 202.00,244.00            C 218.46,244.00 242.76,246.31 257.00,238.12              283.61,222.82 284.41,183.99 259.00,167.10              247.68,159.58 235.87,160.00 223.00,160.00              223.00,160.00 178.00,160.00 178.00,160.00              178.00,160.00 178.00,280.00 178.00,280.00              178.00,280.00 202.00,280.00 202.00,280.00              202.00,280.00 202.00,244.00 202.00,244.00 Z            M 202.00,184.00            C 202.00,184.00 234.00,184.00 234.00,184.00              239.98,184.01 243.99,184.16 248.67,188.53              256.64,195.96 255.80,210.57 246.91,216.89              242.38,220.11 239.25,219.99 234.00,220.00              234.00,220.00 202.00,220.00 202.00,220.00              202.00,220.00 202.00,184.00 202.00,184.00 Z" />
</svg>