<svg xmlns="http://www.w3.org/2000/svg" viewBox="99.49 99.71 1025.78 240.82">
  <path id="product-hunt-wordmark" fill="#303030" stroke="none" stroke-width="1"
    d="M 205.00,100.21            C 205.00,100.21 229.00,100.21 229.00,100.21              239.65,100.13 254.10,103.66 264.00,107.60              298.12,121.18 322.21,146.32 334.31,181.00              340.50,198.76 340.21,211.70 340.00,230.00              339.75,251.30 328.48,277.38 315.58,294.00              305.14,307.44 292.86,317.87 278.00,326.14              255.48,338.68 236.01,340.29 211.00,340.00              200.32,339.87 185.93,336.34 176.00,332.40              141.95,318.89 116.96,292.84 105.35,258.00              99.61,240.74 99.97,230.57 100.00,213.00              100.02,199.94 103.50,186.05 108.40,174.00              121.75,141.20 149.18,115.75 183.00,105.03              190.37,102.69 197.41,101.57 205.00,100.21 Z            M 202.00,244.00            C 218.46,244.00 242.76,246.31 257.00,238.12              283.61,222.82 284.41,183.99 259.00,167.10              247.68,159.58 235.87,160.00 223.00,160.00              223.00,160.00 178.00,160.00 178.00,160.00              178.00,160.00 178.00,280.00 178.00,280.00              178.00,280.00 202.00,280.00 202.00,280.00              202.00,280.00 202.00,244.00 202.00,244.00 Z            M 420.00,180.00            C 420.00,180.00 452.00,180.00 452.00,180.00              459.73,180.00 466.17,179.28 473.00,183.85              486.87,193.14 487.60,217.81 473.00,226.79              463.41,232.68 448.14,231.00 437.00,231.00              437.00,231.00 437.00,260.00 437.00,260.00              437.00,260.00 420.00,260.00 420.00,260.00              420.00,260.00 420.00,180.00 420.00,180.00 Z            M 642.00,180.00            C 642.00,180.00 658.00,180.00 658.00,180.00              658.00,180.00 658.00,260.00 658.00,260.00              658.00,260.00 642.00,260.00 642.00,260.00              642.00,260.00 642.00,254.00 642.00,254.00              636.30,257.78 634.07,259.80 627.00,259.99              622.24,260.11 618.44,260.10 614.00,258.10              592.08,248.21 593.89,201.40 623.00,200.04              625.89,199.90 629.21,199.98 632.00,200.79              636.39,202.06 638.68,204.03 642.00,207.00              642.00,207.00 642.00,180.00 642.00,180.00 Z            M 871.00,180.00            C 871.00,180.00 888.00,180.00 888.00,180.00              888.00,180.00 888.00,210.00 888.00,210.00              888.00,210.00 925.00,210.00 925.00,210.00              925.00,210.00 925.00,180.00 925.00,180.00              925.00,180.00 942.00,180.00 942.00,180.00              942.00,180.00 942.00,260.00 942.00,260.00              942.00,260.00 925.00,260.00 925.00,260.00              925.00,260.00 925.00,226.00 925.00,226.00              925.00,226.00 888.00,226.00 888.00,226.00              888.00,226.00 888.00,260.00 888.00,260.00              888.00,260.00 871.00,260.00 871.00,260.00              871.00,260.00 871.00,180.00 871.00,180.00 Z            M 202.00,184.00            C 202.00,184.00 234.00,184.00 234.00,184.00              239.98,184.01 243.99,184.16 248.67,188.53              256.64,195.96 255.80,210.57 246.91,216.89              242.38,220.11 239.25,219.99 234.00,220.00              234.00,220.00 202.00,220.00 202.00,220.00              202.00,220.00 202.00,184.00 202.00,184.00 Z            M 802.00,186.00            C 802.00,186.00 818.00,186.00 818.00,186.00              818.00,186.00 818.00,201.00 818.00,201.00              818.00,201.00 830.00,201.00 830.00,201.00              830.00,201.00 830.00,215.00 830.00,215.00              830.00,215.00 818.16,215.00 818.16,215.00              818.16,215.00 818.16,240.00 818.16,240.00              819.78,245.74 823.35,245.80 828.00,244.00              828.00,244.00 832.00,257.00 832.00,257.00              825.65,260.46 824.05,260.09 817.00,260.00              800.71,259.78 802.00,247.18 802.00,235.00              802.00,235.00 802.00,215.00 802.00,215.00              802.00,215.00 793.00,215.00 793.00,215.00              793.00,215.00 793.00,201.00 793.00,201.00              793.00,201.00 802.00,201.00 802.00,201.00              802.00,201.00 802.00,186.00 802.00,186.00 Z            M 1096.00,186.00            C 1096.00,186.00 1112.00,186.00 1112.00,186.00              1112.00,186.00 1112.00,201.00 1112.00,201.00              1112.00,201.00 1123.00,201.00 1123.00,201.00              1123.00,201.00 1123.00,215.00 1123.00,215.00              1123.00,215.00 1112.00,215.00 1112.00,215.00              1112.00,215.00 1112.00,236.00 1112.00,236.00              1112.04,238.86 1111.99,242.25 1114.43,244.25              1116.83,246.21 1120.19,245.34 1123.00,245.00              1123.41,247.67 1125.18,253.63 1124.67,255.78              1123.89,259.06 1119.83,259.68 1117.00,259.91              1110.62,260.43 1102.90,260.61 1098.70,254.90              1096.28,251.61 1096.05,247.90 1096.00,244.00              1096.00,244.00 1096.00,215.00 1096.00,215.00              1096.00,215.00 1087.00,215.00 1087.00,215.00              1087.00,215.00 1087.00,201.00 1087.00,201.00              1087.00,201.00 1096.00,201.00 1096.00,201.00              1096.00,201.00 1096.00,186.00 1096.00,186.00 Z            M 437.00,215.00            C 441.99,215.00 456.11,215.68 459.96,213.91              466.88,210.73 467.19,201.09 460.89,197.09              456.08,194.02 443.02,195.00 437.00,195.00              437.00,195.00 437.00,215.00 437.00,215.00 Z            M 509.00,207.00            C 515.48,202.04 518.77,200.19 527.00,200.00              527.00,200.00 527.00,215.00 527.00,215.00              521.18,215.05 514.26,215.88 510.60,221.10              508.86,223.58 509.02,226.13 509.00,229.00              509.00,229.00 509.00,260.00 509.00,260.00              509.00,260.00 493.00,260.00 493.00,260.00              493.00,260.00 493.00,201.00 493.00,201.00              493.00,201.00 509.00,201.00 509.00,201.00              509.00,201.00 509.00,207.00 509.00,207.00 Z            M 555.00,200.46            C 562.73,199.39 570.98,199.63 578.00,203.41              594.86,212.50 597.74,238.36 584.70,251.82              577.25,259.50 569.96,260.11 560.00,260.00              555.55,259.94 552.12,259.53 548.00,257.65              535.13,251.78 531.85,240.95 532.00,228.00              532.18,213.49 541.01,203.58 555.00,200.46 Z            M 760.00,200.47            C 767.37,199.44 775.19,199.60 782.00,202.91              790.46,207.02 791.53,211.38 783.91,217.02              777.41,221.82 776.69,215.32 769.00,214.37              759.85,213.24 752.04,223.33 753.34,232.00              754.56,240.15 762.39,247.77 771.00,245.43              775.18,244.29 777.26,241.15 780.00,241.19              783.26,241.24 790.16,247.46 788.83,251.02              785.78,259.22 772.18,260.08 765.00,260.00              751.47,259.83 740.39,251.45 737.52,238.00              736.87,234.97 736.97,231.13 737.00,228.00              737.07,222.50 738.14,217.71 741.13,213.00              745.62,205.93 752.05,202.36 760.00,200.47 Z            M 1041.00,207.00            C 1054.44,196.09 1078.73,195.75 1079.00,218.00              1079.00,218.00 1079.00,260.00 1079.00,260.00              1079.00,260.00 1063.00,260.00 1063.00,260.00              1063.00,260.00 1063.00,227.00 1063.00,227.00              1062.76,210.01 1046.48,212.37 1042.02,221.02              1040.81,223.37 1041.01,226.41 1041.00,229.00              1041.00,229.00 1041.00,260.00 1041.00,260.00              1041.00,260.00 1025.00,260.00 1025.00,260.00              1025.00,260.00 1025.00,201.00 1025.00,201.00              1025.00,201.00 1041.00,201.00 1041.00,201.00              1041.00,201.00 1041.00,207.00 1041.00,207.00 Z            M 672.00,201.00            C 672.00,201.00 688.00,201.00 688.00,201.00              688.00,201.00 688.00,231.00 688.00,231.00              688.01,234.29 687.80,237.92 689.45,240.86              693.35,247.92 704.03,246.80 708.40,240.86              710.28,238.23 709.99,235.02 710.00,232.00              710.00,232.00 710.00,208.00 710.00,208.00              710.04,206.05 709.90,203.37 711.60,202.02              713.58,200.46 723.10,201.00 726.00,201.00              726.00,201.00 726.00,260.00 726.00,260.00              726.00,260.00 710.00,260.00 710.00,260.00              710.00,260.00 710.00,254.00 710.00,254.00              702.41,258.62 701.10,259.96 692.00,260.00              684.67,260.03 679.24,259.81 674.72,252.98              672.18,249.15 672.02,244.44 672.00,240.00              672.00,240.00 672.00,201.00 672.00,201.00 Z            M 956.00,201.00            C 956.00,201.00 972.00,201.00 972.00,201.00              972.00,201.00 972.00,231.00 972.00,231.00              972.05,235.16 972.26,239.56 975.30,242.77              980.94,248.74 991.69,245.25 994.40,238.00              995.28,235.65 995.00,228.82 995.00,226.00              995.00,226.00 995.00,201.00 995.00,201.00              995.00,201.00 1011.00,201.00 1011.00,201.00              1011.00,201.00 1011.00,260.00 1011.00,260.00              1011.00,260.00 995.00,260.00 995.00,260.00              995.00,260.00 995.00,253.00 995.00,253.00              988.93,257.93 984.87,259.90 977.00,260.00              971.14,260.06 965.72,260.22 961.21,255.78              956.29,250.93 956.01,241.56 956.00,235.00              956.00,235.00 956.00,201.00 956.00,201.00 Z            M 560.00,214.33            C 540.62,219.13 546.62,249.32 565.00,245.66              580.69,242.53 580.38,212.57 560.00,214.33 Z            M 627.00,214.40            C 608.51,220.33 614.73,249.50 633.00,245.61              643.95,243.28 642.06,235.74 642.00,227.00              641.98,224.15 642.14,221.56 640.40,219.11              637.33,214.76 631.91,213.84 627.00,214.40 Z" />
</svg>