<svg xmlns="http://www.w3.org/2000/svg" viewBox="-0.5 -0.5 1808 1828">
  <path id="python" fill="#303030" stroke="none" stroke-width="1"
    d="M 466.00,411.00            C 466.00,411.00 466.00,272.00 466.00,272.00              466.00,213.67 463.98,148.54 502.01,100.00              511.60,87.77 523.39,77.42 536.00,68.43              554.45,55.27 579.50,44.83 601.00,37.67              637.01,25.66 674.46,18.14 712.00,12.73              712.00,12.73 764.00,6.17 764.00,6.17              764.00,6.17 793.00,3.83 793.00,3.83              793.00,3.83 815.00,2.00 815.00,2.00              815.00,2.00 835.00,1.00 835.00,1.00              835.00,1.00 857.00,0.00 857.00,0.00              857.00,0.00 904.00,0.00 904.00,0.00              904.00,0.00 943.00,0.00 943.00,0.00              943.00,0.00 960.00,1.00 960.00,1.00              960.00,1.00 993.00,2.91 993.00,2.91              993.00,2.91 1020.00,4.83 1020.00,4.83              1073.99,10.06 1128.73,14.72 1180.00,33.68              1256.50,61.98 1321.50,127.97 1335.08,210.00              1336.44,218.24 1337.99,230.77 1338.00,239.00              1338.00,239.00 1338.00,665.00 1338.00,665.00              1338.00,665.00 1337.09,677.00 1337.09,677.00              1335.81,695.23 1332.46,712.63 1326.67,730.00              1303.02,800.95 1247.16,856.08 1174.00,874.37              1160.38,877.78 1143.00,880.98 1129.00,881.00              1129.00,881.00 683.00,881.00 683.00,881.00              683.00,881.00 671.00,882.04 671.00,882.04              671.00,882.04 662.00,882.04 662.00,882.04              565.56,891.36 482.79,951.94 439.75,1038.00              425.87,1065.77 413.05,1107.84 413.00,1139.00              413.00,1139.00 413.00,1351.00 413.00,1351.00              413.00,1351.00 297.00,1351.00 297.00,1351.00              258.33,1351.00 231.00,1352.75 193.00,1340.98              155.19,1329.26 121.35,1304.42 96.42,1274.00              54.78,1223.18 38.51,1166.52 24.12,1104.00              15.12,1064.88 7.83,1024.94 3.83,985.00              3.83,985.00 0.91,949.00 0.91,949.00              0.91,949.00 0.00,937.00 0.00,937.00              0.00,937.00 0.00,879.00 0.00,879.00              0.00,879.00 1.00,867.00 1.00,867.00              1.00,867.00 1.00,858.00 1.00,858.00              1.00,858.00 3.84,830.00 3.84,830.00              8.37,787.58 16.28,745.50 26.12,704.00              31.11,682.95 35.97,662.25 43.81,642.00              64.72,588.02 102.09,537.52 152.00,507.20              172.66,494.65 187.04,487.65 210.00,480.00              232.59,472.47 262.21,466.28 286.00,466.00              286.00,466.00 301.00,465.00 301.00,465.00              301.00,465.00 902.00,465.00 902.00,465.00              902.00,465.00 902.00,411.00 902.00,411.00              902.00,411.00 466.00,411.00 466.00,411.00 Z            M 650.00,134.28            C 621.05,138.54 596.79,152.55 583.89,180.00              576.46,195.81 575.81,206.03 576.00,223.00              576.36,253.11 597.63,279.85 624.00,292.22              632.17,296.05 642.96,298.89 652.00,299.00              669.28,299.20 681.60,297.19 697.00,288.69              705.43,284.03 714.06,276.56 719.99,269.00              756.33,222.63 735.59,151.62 677.00,136.63              668.08,134.35 659.18,133.43 650.00,134.28 Z            M 1338.00,1406.00            C 1338.00,1406.00 1338.00,1532.00 1338.00,1532.00              1338.00,1578.37 1340.75,1607.94 1321.14,1652.00              1297.20,1705.77 1246.74,1741.95 1195.00,1766.30              1148.91,1787.98 1089.16,1804.21 1039.00,1813.61              1010.45,1818.96 981.96,1823.10 953.00,1825.09              953.00,1825.09 943.00,1826.00 943.00,1826.00              943.00,1826.00 924.00,1827.00 924.00,1827.00              924.00,1827.00 878.00,1827.00 878.00,1827.00              878.00,1827.00 858.00,1826.00 858.00,1826.00              858.00,1826.00 848.00,1825.09 848.00,1825.09              848.00,1825.09 778.00,1816.27 778.00,1816.27              778.00,1816.27 716.00,1802.87 716.00,1802.87              617.13,1778.16 499.44,1727.68 471.63,1619.00              468.55,1606.97 466.02,1590.37 466.00,1578.00              466.00,1578.00 466.00,1150.00 466.00,1150.00              466.02,1134.28 469.93,1112.17 474.29,1097.00              495.97,1021.50 554.81,962.21 631.00,942.12              645.85,938.20 664.66,935.02 680.00,935.00              680.00,935.00 1128.00,935.00 1128.00,935.00              1149.76,934.97 1178.33,928.89 1199.00,922.00              1277.08,895.98 1341.47,834.32 1372.00,758.00              1381.84,733.39 1390.96,697.51 1391.00,671.00              1391.00,671.00 1391.00,474.00 1391.00,474.00              1391.00,472.01 1390.77,468.19 1392.02,466.60              1393.59,464.62 1397.70,465.00 1400.00,465.00              1400.00,465.00 1415.00,465.00 1415.00,465.00              1415.00,465.00 1491.00,465.00 1491.00,465.00              1519.17,465.00 1560.20,463.67 1587.00,467.29              1629.63,473.03 1668.88,492.99 1697.83,525.00              1710.62,539.14 1721.85,555.36 1731.14,572.00              1760.24,624.17 1773.90,683.08 1786.21,741.00              1793.16,773.71 1798.61,806.76 1802.16,840.00              1802.16,840.00 1805.09,873.00 1805.09,873.00              1805.09,873.00 1806.00,883.00 1806.00,883.00              1806.00,883.00 1807.00,904.00 1807.00,904.00              1807.00,904.00 1807.00,945.00 1807.00,945.00              1807.00,945.00 1806.00,965.00 1806.00,965.00              1806.00,965.00 1805.09,975.00 1805.09,975.00              1805.09,975.00 1800.27,1020.00 1800.27,1020.00              1793.19,1069.14 1779.37,1117.53 1762.05,1164.00              1739.93,1223.35 1710.81,1292.68 1654.00,1326.55              1639.19,1335.38 1623.68,1341.22 1607.00,1345.37              1595.18,1348.32 1576.11,1350.98 1564.00,1351.00              1564.00,1351.00 903.00,1351.00 903.00,1351.00              903.00,1351.00 903.00,1406.00 903.00,1406.00              903.00,1406.00 1338.00,1406.00 1338.00,1406.00 Z            M 1141.00,1517.28            C 1135.29,1518.12 1129.55,1518.79 1124.00,1520.44              1099.43,1527.71 1079.43,1547.01 1070.69,1571.00              1056.23,1610.74 1074.03,1655.54 1112.00,1674.24              1120.93,1678.64 1132.00,1681.88 1142.00,1682.00              1160.27,1682.21 1170.64,1680.68 1187.00,1671.69              1240.00,1642.57 1241.53,1565.50 1193.00,1531.44              1186.49,1526.87 1175.75,1521.84 1168.00,1519.89              1159.45,1517.75 1149.79,1516.47 1141.00,1517.28 Z" />
</svg>