<svg xmlns="http://www.w3.org/2000/svg" viewBox="5.5 4.5 2548.4 707.36">
  <path id="quora-alt" fill="#303030" stroke="none" stroke-width="1"
    d="M 398.00,613.00            C 379.34,619.87 355.74,621.74 336.00,623.09              336.00,623.09 326.00,624.00 326.00,624.00              210.47,625.35 100.73,565.93 43.86,464.00              31.06,441.06 21.49,416.46 15.13,391.00              10.65,373.08 8.17,355.38 6.91,337.00              6.91,337.00 6.00,325.00 6.00,325.00              6.00,325.00 6.00,305.00 6.00,305.00              6.00,305.00 6.91,293.00 6.91,293.00              8.24,273.73 10.97,254.73 15.88,236.00              38.36,150.39 96.88,79.31 176.00,39.75              208.58,23.47 242.74,12.18 279.00,7.85              279.00,7.85 298.00,6.00 298.00,6.00              298.00,6.00 316.00,5.00 316.00,5.00              316.00,5.00 320.00,5.00 320.00,5.00              320.00,5.00 338.00,6.00 338.00,6.00              360.30,6.27 395.68,14.23 417.00,21.33              500.59,49.20 570.65,109.37 605.57,191.00              617.14,218.05 624.66,245.80 628.15,275.00              628.15,275.00 630.00,294.00 630.00,294.00              630.00,294.00 631.00,312.00 631.00,312.00              631.00,312.00 631.00,320.00 631.00,320.00              631.00,320.00 630.00,336.00 630.00,336.00              629.93,349.05 625.88,372.98 622.88,386.00              611.47,435.50 587.96,481.27 553.83,519.00              541.22,532.94 527.15,544.76 513.00,557.00              517.49,561.15 520.93,567.13 524.81,572.00              533.22,582.56 542.59,592.92 554.00,600.30              579.89,617.06 613.31,617.34 632.23,590.00              638.07,581.56 640.14,572.88 642.00,563.00              642.00,563.00 689.00,563.00 689.00,563.00              689.00,563.00 689.00,575.00 689.00,575.00              688.98,590.87 683.20,615.31 677.14,630.00              670.46,646.21 659.80,663.85 647.00,675.91              603.35,717.04 529.55,720.65 477.00,695.68              451.16,683.40 427.37,658.54 411.67,635.00              406.90,627.86 401.73,620.74 398.00,613.00 Z            M 463.00,471.00            C 478.07,433.32 482.30,408.97 486.17,369.00              486.17,369.00 488.00,344.00 488.00,344.00              488.00,344.00 488.00,287.00 488.00,287.00              488.00,287.00 487.09,275.00 487.09,275.00              485.36,249.74 483.04,224.68 476.87,200.00              467.13,161.03 450.71,122.70 418.00,97.50              393.76,78.82 358.55,68.05 328.00,68.00              328.00,68.00 308.00,68.00 308.00,68.00              294.09,68.02 276.40,71.30 263.00,75.14              254.38,77.61 242.83,82.49 235.00,86.86              178.82,118.21 159.24,186.14 152.84,246.00              152.84,246.00 150.00,286.00 150.00,286.00              150.00,286.00 149.00,301.00 149.00,301.00              149.00,301.00 149.00,330.00 149.00,330.00              149.00,330.00 150.00,346.00 150.00,346.00              150.19,386.74 160.36,446.88 179.32,483.00              186.53,496.74 196.10,510.93 207.09,521.91              233.36,548.18 271.46,560.58 308.00,561.00              308.00,561.00 320.00,561.82 320.00,561.82              320.00,561.82 329.00,561.00 329.00,561.00              340.71,560.87 357.03,559.04 368.00,555.00              366.14,549.10 356.37,531.98 352.80,526.00              338.76,502.48 320.98,477.63 295.00,466.43              284.06,461.71 266.86,457.88 255.00,459.28              249.29,459.96 243.56,460.64 238.00,462.16              235.75,462.77 231.49,464.73 229.39,463.77              227.18,462.77 224.87,457.22 223.75,455.00              223.75,455.00 214.75,437.00 214.75,437.00              213.86,435.21 211.45,430.78 211.28,429.00              210.76,423.74 221.95,417.65 226.00,415.20              243.35,404.72 263.00,397.45 283.00,394.08              326.57,386.74 374.00,391.51 411.00,417.44              431.23,431.62 447.29,450.62 461.00,471.00              461.00,471.00 463.00,471.00 463.00,471.00 Z            M 1441.00,142.42            C 1441.00,142.42 1461.00,143.00 1461.00,143.00              1476.06,143.02 1501.35,147.79 1516.00,152.00              1552.03,162.35 1583.10,178.93 1611.00,204.17              1680.85,267.34 1698.14,372.43 1667.31,459.00              1642.53,528.56 1585.39,578.49 1515.00,598.57              1489.74,605.78 1463.17,608.30 1437.00,608.00              1437.00,608.00 1427.00,607.09 1427.00,607.09              1356.31,602.15 1290.57,566.75 1250.02,508.00              1226.60,474.06 1214.06,435.85 1210.04,395.00              1210.04,395.00 1210.04,385.00 1210.04,385.00              1210.04,385.00 1209.00,375.00 1209.00,375.00              1209.00,375.00 1209.00,371.00 1209.00,371.00              1209.00,371.00 1210.04,360.00 1210.04,360.00              1210.04,360.00 1210.04,350.00 1210.04,350.00              1213.14,318.82 1221.54,287.47 1236.86,260.00              1266.32,207.21 1314.88,169.01 1373.00,152.43              1387.30,148.35 1413.39,143.07 1428.00,143.00              1433.03,142.98 1435.89,143.15 1441.00,142.42 Z            M 2356.00,533.00            C 2351.30,535.74 2348.54,542.47 2345.48,547.00              2340.92,553.77 2333.01,563.40 2327.00,568.83              2300.70,592.62 2268.02,604.53 2233.00,607.09              2233.00,607.09 2223.00,608.00 2223.00,608.00              2189.68,608.39 2154.00,603.14 2127.00,581.99              2115.67,573.11 2106.41,561.88 2099.97,549.00              2093.08,535.22 2089.98,520.24 2088.91,505.00              2088.91,505.00 2088.01,496.00 2088.01,496.00              2087.88,490.29 2088.33,489.22 2088.83,484.00              2091.11,460.49 2096.52,441.41 2112.30,423.00              2127.58,405.17 2149.69,393.30 2171.00,384.15              2211.20,366.89 2254.76,357.86 2294.00,338.24              2310.79,329.85 2326.53,319.05 2339.05,305.00              2344.44,298.94 2349.85,293.47 2350.00,285.00              2350.00,285.00 2348.96,268.00 2348.96,268.00              2348.96,268.00 2348.96,260.00 2348.96,260.00              2346.55,236.10 2338.40,210.01 2314.00,200.46              2310.48,199.09 2303.77,197.55 2300.00,197.17              2274.74,194.64 2252.17,199.61 2235.46,220.00              2217.82,241.53 2214.27,280.64 2180.00,290.25              2174.97,291.67 2167.21,292.94 2162.00,293.00              2145.36,293.19 2130.27,291.89 2117.04,280.54              2099.82,265.76 2098.44,235.84 2106.45,216.00              2110.80,205.22 2119.27,193.88 2128.00,186.29              2155.83,162.07 2197.90,150.16 2234.00,145.85              2234.00,145.85 2264.00,142.96 2264.00,142.96              2264.00,142.96 2279.00,142.96 2279.00,142.96              2279.00,142.96 2289.00,142.00 2289.00,142.00              2289.00,142.00 2293.00,142.00 2293.00,142.00              2293.00,142.00 2308.00,143.00 2308.00,143.00              2328.42,143.03 2353.14,145.31 2373.00,150.13              2390.08,154.28 2406.94,159.77 2422.00,169.06              2428.78,173.25 2438.31,180.36 2443.72,186.09              2480.59,225.12 2478.00,276.35 2478.00,326.00              2478.00,326.00 2478.00,416.00 2478.00,416.00              2478.00,416.00 2478.00,437.00 2478.00,437.00              2478.00,437.00 2478.00,454.00 2478.00,454.00              2478.00,476.06 2474.05,507.91 2501.00,516.23              2503.90,517.12 2507.97,517.84 2511.00,517.96              2522.10,518.40 2529.50,515.02 2539.00,510.00              2539.00,510.00 2550.20,536.00 2550.20,536.00              2551.56,539.38 2554.13,544.40 2553.21,548.00              2552.31,551.49 2546.38,558.18 2543.83,561.00              2533.92,571.96 2517.74,582.83 2504.00,588.40              2496.34,591.50 2488.09,594.08 2480.00,595.79              2438.11,604.66 2377.79,597.99 2360.42,552.00              2358.13,545.91 2356.53,539.49 2356.00,533.00 Z            M 1874.00,246.00            C 1878.90,243.07 1880.15,235.17 1882.20,230.00              1886.39,219.43 1892.57,208.35 1899.02,199.00              1922.57,164.90 1960.58,144.52 2002.00,145.00              2023.22,145.25 2045.46,153.71 2058.49,171.00              2070.88,187.45 2071.22,203.50 2071.00,223.00              2070.78,241.51 2061.73,263.42 2046.00,273.90              2032.18,283.09 2020.79,283.18 2005.00,283.00              1972.50,282.62 1951.18,247.19 1918.00,259.09              1914.24,260.44 1910.23,262.57 1907.00,264.93              1902.06,268.53 1897.53,273.06 1893.93,278.00              1889.53,284.02 1885.84,292.84 1883.72,300.00              1881.44,307.68 1880.01,322.89 1880.00,331.00              1880.00,331.00 1880.00,488.00 1880.00,488.00              1880.00,488.00 1880.91,498.00 1880.91,498.00              1881.74,509.99 1882.74,521.90 1892.09,530.82              1899.56,537.93 1910.09,540.16 1920.00,541.07              1920.00,541.07 1961.00,542.00 1961.00,542.00              1961.00,542.00 1961.00,599.00 1961.00,599.00              1961.00,599.00 1685.00,599.00 1685.00,599.00              1685.00,599.00 1685.00,542.00 1685.00,542.00              1703.06,542.00 1732.86,544.79 1745.79,529.98              1750.81,524.24 1751.89,518.23 1753.08,511.00              1753.08,511.00 1754.00,467.00 1754.00,467.00              1754.00,467.00 1754.00,306.00 1754.00,306.00              1754.00,306.00 1754.00,254.00 1754.00,254.00              1754.00,243.14 1755.07,233.39 1748.21,224.01              1740.68,213.71 1726.01,211.02 1714.00,211.00              1714.00,211.00 1688.00,211.00 1688.00,211.00              1688.00,211.00 1688.00,154.00 1688.00,154.00              1688.00,154.00 1865.00,154.00 1865.00,154.00              1865.00,154.00 1867.17,174.00 1867.17,174.00              1867.17,174.00 1870.17,205.00 1870.17,205.00              1870.17,205.00 1874.00,246.00 1874.00,246.00 Z            M 665.00,154.00            C 665.00,154.00 858.00,154.00 858.00,154.00              858.00,154.00 858.00,456.00 858.00,456.00              858.01,464.74 859.76,476.78 862.70,485.00              877.15,525.49 922.59,532.32 959.00,520.33              976.06,514.71 990.89,505.10 1002.19,491.00              1008.60,483.01 1011.98,479.37 1012.00,469.00              1012.00,469.00 1012.00,272.00 1012.00,272.00              1012.00,272.00 1012.00,250.00 1012.00,250.00              1012.00,232.55 1011.29,217.81 991.00,212.67              985.48,211.26 982.63,211.01 977.00,211.00              977.00,211.00 945.00,211.00 945.00,211.00              945.00,211.00 945.00,154.00 945.00,154.00              945.00,154.00 1140.00,154.00 1140.00,154.00              1140.00,154.00 1140.00,423.00 1140.00,423.00              1140.00,423.00 1140.00,445.00 1140.00,445.00              1140.00,467.29 1135.32,498.03 1161.00,508.53              1169.43,511.97 1183.81,513.00 1193.00,513.00              1193.00,513.00 1193.00,563.00 1193.00,563.00              1193.00,563.00 1191.40,570.99 1191.40,570.99              1191.40,570.99 1180.00,573.58 1180.00,573.58              1180.00,573.58 1153.00,577.75 1153.00,577.75              1153.00,577.75 1061.00,592.42 1061.00,592.42              1061.00,592.42 1019.00,599.00 1019.00,599.00              1019.00,599.00 1019.00,539.00 1019.00,539.00              1013.48,541.63 1008.54,548.45 1004.00,553.00              994.83,562.18 987.72,568.57 977.00,575.98              941.58,600.42 903.40,608.49 861.00,608.00              846.87,607.83 830.59,605.01 817.00,601.14              806.83,598.25 795.96,593.39 787.00,587.77              779.71,583.20 775.04,579.04 769.00,573.00              744.33,548.33 734.40,514.00 731.91,480.00              731.91,480.00 731.00,468.00 731.00,468.00              731.00,468.00 731.00,425.00 731.00,425.00              731.00,425.00 731.00,389.00 731.00,389.00              731.00,389.00 731.00,334.00 731.00,334.00              731.00,334.00 731.00,245.00 731.00,245.00              730.87,234.14 728.36,223.38 719.00,216.80              707.41,208.66 679.48,211.00 665.00,211.00              665.00,211.00 665.00,154.00 665.00,154.00 Z            M 1445.00,199.57            C 1435.12,200.07 1427.52,200.31 1418.00,203.70              1390.11,213.62 1375.07,235.61 1364.60,262.00              1348.92,301.51 1347.93,345.12 1348.00,387.00              1348.00,387.00 1349.00,402.00 1349.00,402.00              1349.23,421.77 1354.34,455.18 1360.34,474.00              1370.37,505.39 1386.91,537.47 1421.00,547.56              1429.14,549.97 1438.53,551.09 1447.00,551.00              1452.90,550.93 1463.26,549.38 1469.00,547.85              1506.69,537.80 1522.35,502.89 1530.35,468.00              1536.58,440.80 1538.68,412.80 1539.00,385.00              1539.00,385.00 1540.00,370.00 1540.00,370.00              1540.00,370.00 1539.00,336.00 1539.00,336.00              1539.00,336.00 1538.09,325.00 1538.09,325.00              1536.57,303.31 1533.07,278.34 1525.19,258.00              1516.09,234.52 1503.26,215.25 1479.00,205.45              1467.40,200.77 1457.21,200.19 1445.00,199.57 Z            M 2350.00,357.00            C 2338.05,365.45 2331.80,371.62 2318.00,378.74              2278.47,399.14 2215.08,416.52 2215.00,471.00              2214.98,486.60 2215.43,499.90 2225.53,513.00              2248.73,543.10 2300.33,536.76 2323.71,510.00              2340.59,490.68 2347.26,465.03 2349.09,440.00              2349.09,440.00 2350.00,428.00 2350.00,428.00              2350.00,428.00 2350.00,405.00 2350.00,405.00              2350.00,405.00 2350.00,357.00 2350.00,357.00 Z" />
</svg>