<svg xmlns="http://www.w3.org/2000/svg" viewBox="5.5 4.5 684 707.36">
  <path id="Selection" fill="#303030" stroke="none" stroke-width="1" d="M 398.00,613.00            C 379.34,619.87 355.74,621.74 336.00,623.09              336.00,623.09 326.00,624.00 326.00,624.00              210.47,625.35 100.73,565.93 43.86,464.00              31.06,441.06 21.49,416.46 15.13,391.00              10.65,373.08 8.17,355.38 6.91,337.00              6.91,337.00 6.00,325.00 6.00,325.00              6.00,325.00 6.00,305.00 6.00,305.00              6.00,305.00 6.91,293.00 6.91,293.00              8.24,273.73 10.97,254.73 15.88,236.00              38.36,150.39 96.88,79.31 176.00,39.75              208.58,23.47 242.74,12.18 279.00,7.85              279.00,7.85 298.00,6.00 298.00,6.00              298.00,6.00 316.00,5.00 316.00,5.00              316.00,5.00 320.00,5.00 320.00,5.00              320.00,5.00 338.00,6.00 338.00,6.00              360.30,6.27 395.68,14.23 417.00,21.33              500.59,49.20 570.65,109.37 605.57,191.00              617.14,218.05 624.66,245.80 628.15,275.00              628.15,275.00 630.00,294.00 630.00,294.00              630.00,294.00 631.00,312.00 631.00,312.00              631.00,312.00 631.00,320.00 631.00,320.00              631.00,320.00 630.00,336.00 630.00,336.00              629.93,349.05 625.88,372.98 622.88,386.00              611.47,435.50 587.96,481.27 553.83,519.00              541.22,532.94 527.15,544.76 513.00,557.00              517.49,561.15 520.93,567.13 524.81,572.00              533.22,582.56 542.59,592.92 554.00,600.30              579.89,617.06 613.31,617.34 632.23,590.00              638.07,581.56 640.14,572.88 642.00,563.00              642.00,563.00 689.00,563.00 689.00,563.00              689.00,563.00 689.00,575.00 689.00,575.00              688.98,590.87 683.20,615.31 677.14,630.00              670.46,646.21 659.80,663.85 647.00,675.91              603.35,717.04 529.55,720.65 477.00,695.68              451.16,683.40 427.37,658.54 411.67,635.00              406.90,627.86 401.73,620.74 398.00,613.00 Z            M 463.00,471.00            C 478.07,433.32 482.30,408.97 486.17,369.00              486.17,369.00 488.00,344.00 488.00,344.00              488.00,344.00 488.00,287.00 488.00,287.00              488.00,287.00 487.09,275.00 487.09,275.00              485.36,249.74 483.04,224.68 476.87,200.00              467.13,161.03 450.71,122.70 418.00,97.50              393.76,78.82 358.55,68.05 328.00,68.00              328.00,68.00 308.00,68.00 308.00,68.00              294.09,68.02 276.40,71.30 263.00,75.14              254.38,77.61 242.83,82.49 235.00,86.86              178.82,118.21 159.24,186.14 152.84,246.00              152.84,246.00 150.00,286.00 150.00,286.00              150.00,286.00 149.00,301.00 149.00,301.00              149.00,301.00 149.00,330.00 149.00,330.00              149.00,330.00 150.00,346.00 150.00,346.00              150.19,386.74 160.36,446.88 179.32,483.00              186.53,496.74 196.10,510.93 207.09,521.91              233.36,548.18 271.46,560.58 308.00,561.00              308.00,561.00 320.00,561.82 320.00,561.82              320.00,561.82 329.00,561.00 329.00,561.00              340.71,560.87 357.03,559.04 368.00,555.00              366.14,549.10 356.37,531.98 352.80,526.00              338.76,502.48 320.98,477.63 295.00,466.43              284.06,461.71 266.86,457.88 255.00,459.28              249.29,459.96 243.56,460.64 238.00,462.16              235.75,462.77 231.49,464.73 229.39,463.77              227.18,462.77 224.87,457.22 223.75,455.00              223.75,455.00 214.75,437.00 214.75,437.00              213.86,435.21 211.45,430.78 211.28,429.00              210.76,423.74 221.95,417.65 226.00,415.20              243.35,404.72 263.00,397.45 283.00,394.08              326.57,386.74 374.00,391.51 411.00,417.44              431.23,431.62 447.29,450.62 461.00,471.00              461.00,471.00 463.00,471.00 463.00,471.00 Z"/>
</svg>