<svg xmlns="http://www.w3.org/2000/svg" viewBox="-0.5 -0.55 1604 2049.05">
  <path id="raspberry-pi" fill="#303030" stroke="none" stroke-width="1"
    d="M 334.00,585.00            C 315.21,582.35 289.61,572.85 277.33,558.00              273.73,553.66 270.49,547.27 268.46,542.00              267.21,538.76 266.82,535.21 263.78,533.09              263.78,533.09 245.00,526.19 245.00,526.19              235.04,522.32 223.72,515.55 216.29,507.83              210.06,501.37 205.68,493.40 202.69,485.00              200.87,479.89 199.70,472.05 195.86,468.52              195.86,468.52 176.00,454.20 176.00,454.20              160.80,441.91 145.25,422.53 145.00,402.00              144.97,399.08 145.36,394.65 143.98,392.09              142.52,389.39 138.41,386.77 136.00,384.70              133.14,382.25 127.74,376.86 125.30,374.00              116.45,363.62 111.16,349.65 111.00,336.00              111.00,336.00 111.55,319.00 111.55,319.00              110.67,316.44 103.34,307.99 101.15,305.00              95.60,297.42 89.65,287.09 87.16,278.00              85.24,270.99 84.26,262.22 85.30,255.00              85.90,250.85 89.31,243.41 88.20,240.00              88.20,240.00 80.01,227.00 80.01,227.00              74.66,217.87 69.82,205.77 70.51,195.00              71.07,186.22 72.39,179.96 76.37,172.00              78.01,168.72 83.41,160.67 83.98,158.00              84.69,154.65 81.53,148.43 80.34,145.00              78.08,138.45 76.01,128.91 76.01,122.00              76.01,117.31 77.11,110.51 78.44,106.00              79.67,101.82 81.54,97.68 83.88,94.00              94.18,77.73 114.55,71.03 133.00,71.00              133.00,71.00 145.00,71.00 145.00,71.00              153.57,70.84 155.87,64.73 162.00,59.09              167.57,53.97 175.05,49.85 182.00,46.87              200.25,39.06 218.76,40.04 238.00,40.00              250.57,39.97 248.37,35.51 258.00,29.10              265.96,23.81 275.49,21.12 285.00,20.89              285.00,20.89 311.00,20.89 311.00,20.89              311.00,20.89 327.00,10.89 327.00,10.89              334.18,7.11 343.94,4.94 352.00,4.17              361.14,3.29 374.09,5.53 383.00,7.88              386.49,8.81 396.27,12.50 399.00,12.17              399.00,12.17 415.00,3.87 415.00,3.87              424.78,-0.33 429.72,-0.12 440.00,0.00              451.68,0.14 462.52,5.54 473.00,10.14              477.57,12.14 486.19,16.19 491.00,15.64              491.00,15.64 500.00,13.30 500.00,13.30              508.12,11.79 523.07,11.02 531.00,13.30              543.95,16.65 558.13,27.80 565.00,29.28              565.00,29.28 582.00,28.00 582.00,28.00              594.24,27.94 601.29,27.42 613.00,32.43              622.38,36.44 630.64,43.11 637.91,50.17              642.04,54.18 648.88,63.52 654.00,65.63              656.24,66.23 662.36,66.03 665.00,65.63              669.31,65.95 675.28,64.49 679.00,65.63              682.76,66.51 690.61,72.01 694.00,74.43              704.17,81.69 715.27,91.07 723.99,100.00              750.80,127.47 772.76,164.69 787.58,200.00              787.58,200.00 802.00,240.00 802.00,240.00              803.65,229.35 815.30,200.50 820.22,190.00              836.91,154.41 853.93,126.07 882.00,98.00              892.10,87.90 899.10,81.44 911.00,73.34              914.22,71.15 920.50,66.68 924.00,65.68              927.99,64.46 933.54,65.94 938.00,65.68              940.64,66.03 946.76,66.23 949.00,65.68              952.67,64.05 959.00,57.00 962.00,54.00              969.17,46.83 976.85,39.02 986.00,34.37              998.90,27.82 1006.18,27.98 1020.00,28.00              1020.00,28.00 1039.00,29.12 1039.00,29.12              1042.68,28.32 1050.36,23.48 1054.00,21.42              1062.77,16.47 1071.74,12.12 1082.00,12.00              1088.49,11.93 1094.60,11.71 1101.00,13.00              1104.14,13.64 1112.82,16.24 1115.28,15.91              1118.79,15.45 1131.84,9.30 1136.00,7.60              1151.68,1.20 1155.01,-0.20 1172.00,0.00              1180.88,0.11 1186.31,2.69 1194.00,6.78              1196.57,8.15 1201.62,11.75 1204.00,12.12              1206.81,12.55 1214.78,9.35 1218.00,8.43              1225.78,6.21 1236.95,4.09 1245.00,4.00              1257.34,3.86 1268.16,6.36 1279.00,12.31              1279.00,12.31 1292.00,20.94 1292.00,20.94              1294.09,21.62 1299.40,21.01 1302.00,20.94              1302.00,20.94 1319.00,20.94 1319.00,20.94              1327.38,21.10 1336.89,23.59 1344.00,28.09              1353.28,33.97 1354.50,38.26 1357.46,39.86              1359.06,40.29 1364.03,40.00 1366.00,39.86              1366.00,39.86 1386.00,39.86 1386.00,39.86              1409.25,40.04 1440.74,50.13 1452.00,72.00              1457.73,70.37 1466.83,70.93 1473.00,71.00              1489.15,71.19 1508.60,78.58 1518.21,92.00              1525.66,102.40 1527.14,112.62 1527.00,125.00              1526.91,132.19 1525.02,139.25 1522.66,146.00              1521.65,148.86 1518.78,154.37 1519.09,157.00              1519.09,157.00 1526.75,172.00 1526.75,172.00              1531.55,181.65 1534.13,191.15 1532.57,202.00              1531.26,211.12 1528.10,219.10 1523.40,227.00              1523.40,227.00 1515.12,240.00 1515.12,240.00              1514.11,243.33 1516.83,248.25 1517.32,252.00              1518.72,258.30 1518.60,268.76 1517.32,275.00              1514.81,284.56 1508.60,296.07 1502.85,304.00              1500.60,307.10 1492.80,316.43 1491.97,319.00              1491.28,320.98 1492.00,328.18 1491.97,331.00              1492.03,351.38 1489.05,361.20 1475.41,376.99              1471.75,381.22 1460.74,389.39 1459.60,392.17              1459.60,392.17 1457.72,409.00 1457.72,409.00              1456.38,416.94 1452.49,425.38 1447.97,432.00              1441.42,441.60 1431.24,451.29 1422.00,458.35              1418.53,461.00 1407.61,467.87 1405.72,470.32              1403.97,472.60 1401.39,483.19 1399.94,487.00              1396.20,496.76 1390.10,505.89 1382.00,512.54              1374.43,518.75 1364.17,524.11 1355.00,527.58              1355.00,527.58 1339.30,533.14 1339.30,533.14              1336.60,535.04 1335.49,540.81 1334.13,544.00              1331.33,550.55 1327.80,556.53 1322.71,561.58              1306.08,578.09 1288.98,578.52 1269.00,586.00              1275.48,588.05 1287.94,596.32 1294.00,600.33              1294.00,600.33 1332.00,627.20 1332.00,627.20              1354.17,644.93 1374.87,664.95 1391.58,688.00              1426.87,736.70 1444.74,795.43 1449.09,855.00              1449.09,855.00 1451.00,880.00 1451.00,880.00              1451.00,880.00 1451.00,895.00 1451.00,895.00              1451.02,905.62 1453.47,906.99 1458.58,916.00              1460.69,919.74 1463.52,925.70 1466.38,928.68              1466.38,928.68 1481.00,939.37 1481.00,939.37              1481.00,939.37 1506.00,960.17 1506.00,960.17              1518.86,971.81 1534.42,991.65 1544.58,1006.00              1567.96,1039.05 1585.07,1078.79 1594.87,1118.00              1598.46,1132.37 1602.98,1157.45 1603.00,1172.00              1603.00,1172.00 1603.00,1216.00 1603.00,1216.00              1602.85,1228.37 1598.45,1251.68 1595.37,1264.00              1586.94,1297.74 1574.98,1325.45 1556.58,1355.00              1549.65,1366.12 1541.90,1376.72 1533.79,1387.00              1530.68,1390.94 1523.09,1399.02 1521.55,1403.00              1521.55,1403.00 1517.58,1421.00 1517.58,1421.00              1517.58,1421.00 1509.58,1452.00 1509.58,1452.00              1509.58,1452.00 1491.95,1505.00 1491.95,1505.00              1491.95,1505.00 1478.74,1542.00 1478.74,1542.00              1478.74,1542.00 1475.58,1560.00 1475.58,1560.00              1475.58,1560.00 1468.85,1590.00 1468.85,1590.00              1459.95,1622.91 1445.76,1654.36 1427.31,1683.00              1398.77,1727.31 1359.75,1765.71 1315.00,1793.58              1303.81,1800.54 1292.06,1806.81 1280.00,1812.14              1280.00,1812.14 1262.00,1819.33 1262.00,1819.33              1262.00,1819.33 1226.00,1845.58 1226.00,1845.58              1204.43,1861.00 1182.08,1875.51 1159.00,1888.58              1137.41,1900.81 1115.79,1911.37 1093.00,1921.15              1093.00,1921.15 1060.00,1934.27 1060.00,1934.27              1055.32,1936.81 1040.86,1951.43 1036.00,1955.83              1021.50,1968.95 1004.39,1982.63 988.00,1993.31              945.50,2020.99 902.31,2038.14 852.00,2045.13              852.00,2045.13 822.00,2048.00 822.00,2048.00              822.00,2048.00 779.00,2048.00 779.00,2048.00              766.26,2047.85 745.73,2044.55 733.00,2042.00              685.26,2032.45 642.44,2013.05 603.00,1984.58              588.98,1974.45 575.81,1963.43 563.00,1951.83              557.44,1946.80 549.19,1936.91 543.00,1933.91              543.00,1933.91 532.00,1929.80 532.00,1929.80              532.00,1929.80 502.00,1917.58 502.00,1917.58              478.64,1907.42 456.02,1895.36 434.00,1882.58              411.63,1869.59 389.96,1854.71 369.00,1839.58              369.00,1839.58 341.00,1819.13 341.00,1819.13              341.00,1819.13 319.00,1810.14 319.00,1810.14              307.88,1805.19 297.32,1799.00 287.00,1792.58              240.94,1763.89 197.35,1719.86 169.86,1673.00              154.84,1647.38 143.00,1620.68 135.15,1592.00              135.15,1592.00 128.42,1563.00 128.42,1563.00              128.42,1563.00 124.96,1543.00 124.96,1543.00              124.96,1543.00 114.05,1512.00 114.05,1512.00              114.05,1512.00 94.42,1454.00 94.42,1454.00              94.42,1454.00 85.65,1420.00 85.65,1420.00              85.65,1420.00 81.86,1403.00 81.86,1403.00              80.39,1399.30 71.91,1389.90 68.80,1386.00              61.60,1376.96 52.84,1364.83 46.81,1355.00              23.43,1316.90 7.17,1275.57 1.85,1231.00              1.85,1231.00 0.00,1212.00 0.00,1212.00              0.00,1212.00 0.00,1176.00 0.00,1176.00              0.02,1160.15 4.72,1133.62 8.63,1118.00              19.16,1075.88 36.39,1037.37 61.71,1002.00              76.01,982.02 92.98,963.01 112.00,947.42              112.00,947.42 136.61,929.39 136.61,929.39              138.88,927.24 141.64,921.89 143.28,919.00              148.33,910.11 151.98,906.46 152.00,896.00              152.00,896.00 153.00,870.00 153.00,870.00              153.00,870.00 153.91,860.00 153.91,860.00              153.91,860.00 158.59,820.00 158.59,820.00              168.58,760.43 192.92,704.04 235.04,660.00              254.98,639.15 279.73,619.33 304.00,603.69              304.00,603.69 334.00,585.00 334.00,585.00 Z            M 439.00,53.00            C 440.56,60.84 456.48,70.13 451.39,83.00              446.62,95.05 440.97,87.54 429.00,80.86              408.59,69.47 379.20,59.13 356.00,56.00              361.43,63.58 366.00,65.69 371.91,72.00              376.08,76.45 382.09,83.69 377.29,89.84              376.11,91.34 374.92,92.09 372.98,92.08              372.98,92.08 351.00,85.02 351.00,85.02              351.00,85.02 311.00,75.40 311.00,75.40              305.71,74.34 293.78,71.41 289.00,73.00              294.41,76.87 304.87,86.93 307.47,93.00              309.45,97.62 308.54,103.81 302.98,105.46              300.39,106.23 294.79,103.92 292.00,103.15              292.00,103.15 266.00,96.60 266.00,96.60              247.29,92.84 242.66,92.97 224.00,93.00              214.49,93.01 208.95,94.79 200.00,96.00              200.00,96.00 223.00,122.00 223.00,122.00              223.00,122.00 212.00,122.98 212.00,122.98              212.00,122.98 196.00,122.98 196.00,122.98              196.00,122.98 180.00,124.00 180.00,124.00              180.00,124.00 130.00,124.00 130.00,124.00              132.73,129.32 136.45,134.06 139.81,139.00              147.27,149.97 155.38,164.55 159.95,177.00              161.44,181.08 167.12,194.04 163.60,197.26              161.38,199.29 156.84,199.00 154.00,199.00              154.00,199.00 126.00,197.00 126.00,197.00              130.46,212.62 148.78,230.57 161.00,240.75              168.45,246.97 179.42,254.87 183.00,264.00              176.21,265.94 173.99,268.44 166.00,268.91              158.02,269.37 147.76,265.75 140.00,264.00              142.50,271.92 149.47,280.72 154.87,287.00              154.87,287.00 202.00,334.00 202.00,334.00              202.00,334.00 182.00,337.99 182.00,337.99              182.00,337.99 165.00,337.00 165.00,337.00              170.20,344.27 179.24,352.05 186.00,358.05              198.21,368.89 223.73,389.04 238.00,396.00              230.23,402.14 224.21,401.46 215.00,402.09              215.00,402.09 200.00,403.00 200.00,403.00              206.16,411.53 219.93,420.78 229.00,426.42              229.00,426.42 291.00,460.00 291.00,460.00              291.00,460.00 273.00,467.33 273.00,467.33              273.00,467.33 253.00,468.00 253.00,468.00              258.50,474.98 268.16,478.86 276.00,482.75              287.41,488.42 300.86,492.62 313.00,496.67              313.00,496.67 347.00,507.00 347.00,507.00              340.40,520.95 328.26,520.69 321.00,525.00              334.58,530.85 338.10,532.57 353.00,535.55              353.00,535.55 390.00,540.06 390.00,540.06              390.00,540.06 399.00,540.06 399.00,540.06              405.31,541.03 411.85,541.45 418.00,543.16              420.15,543.76 423.83,544.81 424.56,547.22              425.34,549.80 422.39,553.22 420.82,555.00              413.11,563.73 408.00,564.37 401.00,570.00              401.00,570.00 442.00,570.00 442.00,570.00              442.00,570.00 454.00,569.09 454.00,569.09              454.00,569.09 485.00,566.13 485.00,566.13              531.89,559.62 583.21,543.39 618.00,509.96              632.00,496.51 644.70,477.20 651.58,459.00              653.32,454.37 657.84,443.51 655.79,439.00              654.54,436.25 650.23,432.23 648.00,430.00              648.00,430.00 633.00,415.00 633.00,415.00              613.69,395.69 587.95,374.59 566.00,358.13              508.19,314.77 446.83,277.01 384.00,241.42              384.00,241.42 328.00,210.78 328.00,210.78              328.00,210.78 291.00,191.00 291.00,191.00              378.43,220.20 488.04,268.11 566.00,316.68              596.18,335.49 625.53,354.78 654.00,376.13              654.00,376.13 679.00,395.40 679.00,395.40              681.41,397.33 687.23,402.63 690.00,403.02              692.37,403.35 695.91,401.32 698.00,400.22              703.69,397.23 711.88,391.97 717.00,388.10              742.63,368.73 755.77,343.79 758.09,312.00              758.41,307.57 759.16,306.06 758.96,301.00              756.98,250.00 733.12,201.80 703.86,161.00              695.01,148.66 677.88,126.51 666.00,118.00              665.13,124.17 662.64,133.32 660.12,139.00              659.24,141.00 657.50,144.96 654.90,144.96              652.80,144.96 650.49,142.40 649.17,140.99              649.17,140.99 636.95,127.00 636.95,127.00              624.13,112.56 604.61,89.46 589.00,79.00              589.05,94.13 594.47,106.29 578.00,116.00              574.56,109.31 567.34,101.40 562.00,96.00              552.07,85.98 531.78,69.71 519.00,64.00              520.67,69.89 524.43,75.68 523.80,82.00              523.06,89.49 517.34,94.67 514.00,101.00              514.00,101.00 486.00,78.37 486.00,78.37              472.33,68.13 455.16,58.60 439.00,53.00 Z            M 1170.00,53.00            C 1152.39,57.12 1127.13,73.88 1113.00,85.20              1113.00,85.20 1100.01,96.13 1100.01,96.13              1098.43,97.48 1096.20,100.14 1093.88,99.04              1092.62,98.44 1090.14,95.19 1089.12,94.00              1080.69,82.69 1084.03,75.72 1089.12,64.00              1076.08,68.77 1054.86,87.09 1045.00,97.00              1039.85,102.18 1032.86,109.30 1030.00,116.00              1013.54,107.14 1018.68,93.76 1019.00,79.00              1005.82,86.69 981.59,114.55 970.87,127.00              970.87,127.00 959.42,140.00 959.42,140.00              957.94,141.69 955.51,144.96 953.04,144.96              950.27,144.96 948.40,141.15 947.47,139.00              945.04,133.43 942.51,124.04 942.00,118.00              935.98,120.85 934.26,124.28 929.92,129.00              921.98,137.63 914.66,146.62 907.63,156.00              878.37,195.01 854.74,240.95 849.83,290.00              849.83,290.00 849.00,299.00 849.00,299.00              848.58,335.10 861.02,365.08 890.00,387.58              895.92,392.17 902.33,396.31 909.00,399.74              910.94,400.74 914.91,402.91 917.00,402.94              920.24,402.98 923.58,399.57 926.00,397.61              926.00,397.61 944.00,383.42 944.00,383.42              965.15,366.94 992.29,347.64 1015.00,333.42              1089.21,286.97 1148.97,256.38 1230.00,223.40              1230.00,223.40 1287.00,201.58 1287.00,201.58              1293.51,199.14 1311.06,192.29 1317.00,192.00              1317.00,192.00 1286.00,207.69 1286.00,207.69              1286.00,207.69 1230.00,238.14 1230.00,238.14              1162.16,275.99 1095.62,316.68 1034.00,364.12              1034.00,364.12 986.00,404.17 986.00,404.17              986.00,404.17 974.00,415.91 974.00,415.91              974.00,415.91 959.00,431.00 959.00,431.00              956.71,433.30 952.62,436.95 951.64,440.00              950.26,444.27 954.87,455.70 956.60,460.00              964.13,478.63 974.69,494.83 989.00,509.00              1023.58,543.22 1075.80,559.57 1123.00,566.13              1123.00,566.13 1154.00,569.09 1154.00,569.09              1154.00,569.09 1166.00,570.00 1166.00,570.00              1166.00,570.00 1193.00,570.00 1193.00,570.00              1197.44,570.00 1202.88,570.64 1207.00,569.00              1198.98,565.53 1193.01,561.54 1187.10,555.00              1184.98,552.65 1181.42,548.75 1184.42,545.70              1186.11,543.97 1190.63,542.96 1193.00,542.42              1200.89,540.66 1208.97,540.46 1217.00,539.91              1233.65,538.77 1250.86,537.23 1267.00,532.71              1273.76,530.81 1281.46,528.41 1287.00,524.00              1273.46,521.27 1268.11,518.40 1260.00,507.00              1266.70,506.06 1283.82,500.39 1291.00,498.00              1304.47,493.51 1318.14,489.30 1331.00,483.22              1338.95,479.47 1349.30,474.73 1355.00,467.77              1355.00,467.77 1336.00,467.77 1336.00,467.77              1327.67,466.04 1324.18,463.45 1317.00,460.00              1317.00,460.00 1383.00,423.67 1383.00,423.67              1390.88,418.41 1402.50,410.52 1408.00,403.00              1408.00,403.00 1393.00,402.09 1393.00,402.09              1383.79,401.46 1377.77,402.14 1370.00,396.00              1384.34,389.00 1411.80,367.15 1424.00,356.07              1430.63,350.05 1437.75,344.33 1443.00,337.00              1443.00,337.00 1424.00,337.91 1424.00,337.91              1424.00,337.91 1406.00,334.00 1406.00,334.00              1411.30,326.60 1419.25,319.94 1426.00,313.83              1441.35,299.95 1459.65,283.28 1468.00,264.00              1460.23,265.75 1449.98,269.37 1442.00,268.91              1434.36,268.46 1431.61,266.38 1425.00,264.00              1428.33,254.21 1442.19,244.74 1450.00,238.00              1464.30,225.66 1474.45,214.54 1482.00,197.00              1466.16,197.73 1458.90,200.23 1442.00,198.00              1443.34,182.05 1456.02,157.47 1464.69,144.00              1464.69,144.00 1478.00,124.00 1478.00,124.00              1478.00,124.00 1429.00,124.00 1429.00,124.00              1429.00,124.00 1412.00,123.00 1412.00,123.00              1401.29,122.98 1394.63,123.68 1384.00,121.00              1389.85,115.15 1403.86,102.63 1407.00,96.00              1397.92,94.77 1393.80,93.02 1384.00,93.00              1359.10,92.96 1350.22,94.07 1326.00,100.37              1326.00,100.37 1305.43,105.79 1305.43,105.79              1303.13,105.38 1301.15,102.98 1300.17,100.99              1295.31,91.04 1313.01,78.91 1318.00,72.00              1294.36,75.12 1271.64,80.12 1249.00,87.67              1243.05,89.65 1230.45,96.49 1228.75,86.00              1228.13,82.16 1231.01,77.82 1233.33,75.00              1233.33,75.00 1252.00,56.00 1252.00,56.00              1232.73,58.60 1206.57,66.97 1189.00,75.32              1189.00,75.32 1170.00,86.00 1170.00,86.00              1167.99,87.20 1164.43,89.72 1162.04,89.28              1158.40,88.61 1155.73,82.30 1155.42,79.00              1154.61,70.35 1165.37,59.68 1170.00,53.00 Z            M 777.00,576.10            C 755.83,579.33 746.10,580.36 725.00,586.72              691.94,596.68 657.14,616.32 631.00,638.73              614.64,652.76 591.27,678.07 591.00,701.00              591.00,701.00 591.00,708.00 591.00,708.00              591.31,734.15 613.26,758.68 633.00,773.37              674.93,804.58 731.39,818.79 783.00,821.04              783.00,821.04 794.00,822.00 794.00,822.00              848.34,822.63 912.02,816.22 960.00,788.85              985.48,774.31 1012.85,749.84 1013.00,718.00              1013.00,718.00 1013.00,710.00 1013.00,710.00              1012.66,681.66 987.56,653.24 967.00,636.25              936.87,611.35 897.88,592.64 860.00,583.13              846.86,579.83 827.40,576.02 814.00,576.10              814.00,576.10 782.00,576.10 782.00,576.10              782.00,576.10 777.00,576.10 777.00,576.10 Z            M 465.00,616.28            C 465.00,616.28 445.00,618.15 445.00,618.15              425.93,620.44 407.28,624.48 389.00,630.34              326.60,650.36 276.39,693.31 247.25,752.00              233.59,779.51 225.48,809.58 221.85,840.00              221.85,840.00 220.00,859.00 220.00,859.00              220.00,859.00 219.00,879.00 219.00,879.00              218.98,891.53 217.32,903.63 234.00,902.96              242.51,902.62 255.33,897.07 263.00,893.25              281.63,883.95 298.90,872.86 316.00,861.02              376.76,818.95 440.08,763.53 492.00,711.00              508.19,694.62 528.77,671.38 541.05,652.00              544.93,645.86 552.28,633.50 549.26,626.04              546.73,619.80 533.95,619.56 528.00,618.85              510.43,616.75 482.35,614.67 465.00,616.28 Z            M 1076.00,622.14            C 1076.00,622.14 1046.00,625.73 1046.00,625.73              1041.89,626.32 1036.34,626.65 1033.60,630.22              1028.92,636.32 1035.56,648.44 1038.72,654.00              1047.64,669.70 1070.10,696.04 1083.00,709.00              1083.00,709.00 1105.00,731.99 1105.00,731.99              1105.00,731.99 1115.00,741.04 1115.00,741.04              1163.31,787.25 1217.30,834.35 1273.00,871.49              1289.66,882.59 1315.32,899.05 1334.00,905.46              1341.09,907.72 1353.40,911.86 1359.57,905.46              1364.19,900.89 1363.07,886.52 1363.00,880.00              1363.00,880.00 1362.04,869.00 1362.04,869.00              1359.69,815.15 1343.71,762.47 1311.11,719.00              1274.37,670.02 1219.44,639.34 1160.00,627.45              1131.87,621.82 1109.38,621.67 1081.00,622.14              1081.00,622.14 1076.00,622.14 1076.00,622.14 Z            M 1018.00,830.28            C 1018.00,830.28 1001.00,832.43 1001.00,832.43              978.63,836.19 959.76,843.29 940.00,854.31              889.42,882.51 857.92,936.76 849.58,993.00              849.58,993.00 847.00,1017.00 847.00,1017.00              846.73,1040.23 847.38,1060.12 852.42,1083.00              870.55,1165.19 924.36,1237.43 1000.00,1275.25              1025.59,1288.04 1062.25,1299.66 1091.00,1300.00              1122.04,1300.36 1147.00,1297.97 1176.00,1285.57              1234.82,1260.43 1272.22,1208.87 1284.60,1147.00              1286.57,1137.16 1288.88,1121.89 1289.00,1112.00              1289.00,1112.00 1289.00,1091.00 1289.00,1091.00              1288.97,1068.58 1281.85,1035.19 1274.31,1014.00              1243.44,927.26 1171.50,854.52 1080.00,834.79              1060.81,830.65 1037.58,828.46 1018.00,830.28 Z            M 560.00,841.28            C 560.00,841.28 533.00,844.42 533.00,844.42              510.49,848.48 488.49,855.56 468.00,865.81              400.05,899.78 346.43,964.92 325.58,1038.00              320.50,1055.82 315.03,1081.59 315.00,1100.00              315.00,1100.00 315.00,1124.00 315.00,1124.00              315.03,1144.09 322.02,1175.28 329.45,1194.00              352.25,1251.45 397.49,1292.65 458.00,1306.77              466.15,1308.67 474.67,1310.04 483.00,1310.96              483.00,1310.96 492.00,1310.96 492.00,1310.96              492.00,1310.96 503.00,1311.98 503.00,1311.98              503.00,1311.98 512.00,1311.09 512.00,1311.09              512.00,1311.09 530.00,1309.84 530.00,1309.84              549.98,1307.67 573.57,1300.23 592.00,1292.28              676.22,1255.95 738.45,1173.06 753.57,1083.00              756.50,1065.50 757.20,1048.70 757.00,1031.00              757.00,1031.00 756.09,1021.00 756.09,1021.00              752.70,974.61 733.66,925.91 699.96,893.09              673.16,866.98 638.87,849.79 602.00,843.75              590.25,841.83 571.74,840.19 560.00,841.28 Z            M 1382.00,967.30            C 1366.32,970.24 1360.83,978.39 1354.26,992.00              1345.44,1010.26 1343.29,1034.00 1341.91,1054.00              1341.91,1054.00 1341.00,1066.00 1341.00,1066.00              1341.00,1066.00 1341.00,1098.00 1341.00,1098.00              1341.00,1098.00 1342.00,1110.00 1342.00,1110.00              1342.00,1110.00 1342.00,1119.00 1342.00,1119.00              1342.00,1119.00 1344.84,1148.00 1344.84,1148.00              1349.90,1195.30 1359.49,1241.89 1374.67,1287.00              1381.42,1307.07 1392.19,1331.65 1405.62,1348.00              1412.44,1356.32 1423.55,1364.94 1435.00,1363.82              1445.30,1362.82 1453.16,1353.11 1459.96,1346.00              1478.08,1327.05 1492.62,1299.51 1501.68,1275.00              1513.32,1243.52 1518.05,1210.42 1518.00,1177.00              1518.00,1177.00 1517.09,1165.00 1517.09,1165.00              1513.22,1108.70 1493.96,1060.32 1456.16,1018.00              1442.33,1002.51 1426.27,989.51 1409.00,978.00              1400.18,972.12 1393.17,966.43 1382.00,967.30 Z            M 194.00,973.30            C 185.78,974.93 177.84,980.84 171.00,985.59              156.12,995.91 145.87,1004.11 133.00,1017.00              70.24,1079.85 50.74,1176.70 74.71,1261.00              83.86,1293.20 97.73,1322.27 119.44,1348.00              127.06,1357.03 139.02,1371.00 152.00,1369.52              161.75,1368.41 167.34,1363.78 173.99,1357.00              185.87,1344.87 195.01,1325.66 201.58,1310.00              215.87,1275.91 224.87,1236.34 231.42,1200.00              235.60,1176.84 238.45,1153.45 240.09,1130.00              240.09,1130.00 241.00,1120.00 241.00,1120.00              241.00,1120.00 242.00,1101.00 242.00,1101.00              242.34,1071.85 241.28,1028.94 230.40,1002.00              223.64,985.28 214.09,971.31 194.00,973.30 Z            M 785.00,1269.14            C 766.83,1271.90 752.97,1273.36 735.00,1278.72              680.16,1295.06 630.11,1330.90 601.43,1381.00              586.41,1407.23 574.05,1443.53 574.00,1474.00              574.00,1474.00 574.00,1495.00 574.00,1495.00              574.03,1512.93 580.07,1539.17 586.42,1556.00              613.39,1627.43 676.48,1676.92 750.00,1693.65              762.67,1696.53 783.18,1699.85 796.00,1700.00              842.15,1700.54 873.84,1694.27 916.00,1675.14              939.58,1664.44 969.68,1641.54 986.42,1622.00              1006.65,1598.38 1018.05,1579.19 1028.57,1550.00              1037.74,1524.54 1039.31,1499.71 1039.00,1473.00              1038.82,1457.50 1033.93,1434.76 1029.00,1420.00              1005.82,1350.51 946.89,1298.37 877.00,1278.43              843.90,1268.98 823.76,1268.61 790.00,1269.14              790.00,1269.14 785.00,1269.14 785.00,1269.14 Z            M 1311.00,1350.29            C 1270.08,1356.54 1233.75,1382.38 1203.00,1408.73              1177.66,1430.45 1142.79,1465.91 1123.43,1493.00              1096.99,1529.99 1078.56,1572.34 1066.42,1616.00              1057.86,1646.79 1052.26,1688.65 1059.35,1720.00              1062.40,1733.49 1068.13,1748.94 1078.17,1758.82              1082.36,1762.94 1088.75,1766.14 1094.00,1768.75              1109.69,1776.55 1131.51,1780.79 1149.00,1781.00              1227.59,1781.92 1298.28,1736.54 1347.41,1678.00              1362.20,1660.37 1378.08,1638.94 1387.69,1618.00              1406.41,1577.24 1411.51,1536.33 1411.00,1492.00              1411.00,1492.00 1410.09,1482.00 1410.09,1482.00              1408.18,1454.16 1403.39,1427.05 1393.00,1401.00              1388.45,1389.58 1380.35,1373.32 1370.99,1365.32              1354.64,1351.37 1331.65,1348.36 1311.00,1350.29 Z            M 268.00,1382.30            C 268.00,1382.30 257.00,1383.29 257.00,1383.29              244.64,1384.81 228.81,1389.91 219.01,1397.68              207.32,1406.95 199.79,1424.07 195.34,1438.00              184.05,1473.38 187.40,1520.22 195.88,1556.00              202.95,1585.81 216.89,1624.09 233.06,1650.00              239.96,1661.06 252.06,1675.18 260.84,1685.00              300.82,1729.77 355.79,1764.77 416.00,1773.13              416.00,1773.13 435.00,1775.00 435.00,1775.00              456.43,1775.25 486.06,1773.06 504.00,1760.21              517.46,1750.57 524.39,1734.54 528.37,1719.00              537.12,1684.82 529.65,1642.41 520.14,1609.00              509.35,1571.07 486.87,1527.17 461.56,1497.00              461.56,1497.00 436.00,1470.00 436.00,1470.00              415.79,1449.79 398.78,1435.52 375.00,1419.67              346.32,1400.55 312.93,1384.49 278.00,1382.96              278.00,1382.96 268.00,1382.30 268.00,1382.30 Z            M 779.00,1767.09            C 779.00,1767.09 767.00,1768.17 767.00,1768.17              767.00,1768.17 733.00,1772.27 733.00,1772.27              696.07,1777.71 652.36,1789.07 619.00,1805.75              599.18,1815.66 573.40,1830.82 574.01,1856.00              574.20,1863.79 577.96,1870.57 582.05,1877.00              590.38,1890.09 601.48,1900.82 613.00,1911.05              644.96,1939.42 687.89,1962.90 729.00,1974.71              744.06,1979.04 767.46,1983.81 783.00,1984.00              803.97,1984.24 821.17,1984.34 842.00,1980.58              891.26,1971.68 951.51,1941.07 987.00,1906.00              1000.44,1892.72 1011.99,1881.07 1020.74,1864.00              1025.72,1854.28 1028.59,1844.77 1025.23,1834.00              1018.67,1812.98 986.99,1799.14 968.00,1791.60              945.62,1782.72 917.82,1776.27 894.00,1772.58              894.00,1772.58 853.00,1767.91 853.00,1767.91              853.00,1767.91 841.00,1767.09 841.00,1767.09              841.00,1767.09 820.00,1767.09 820.00,1767.09              820.00,1767.09 779.00,1767.09 779.00,1767.09 Z" />
</svg>