<svg xmlns="http://www.w3.org/2000/svg" viewBox="12.28 -0.5 1125.22 1001">
  <path id="Selection" fill="#303030" stroke="none" stroke-width="1" d="M 248.00,311.00            C 243.20,296.47 236.05,258.07 233.73,242.00              226.10,189.07 222.93,127.89 241.95,77.00              253.88,45.08 274.66,19.02 307.00,6.20              316.43,2.47 324.79,0.02 335.00,0.00              335.00,0.00 369.00,0.00 369.00,0.00              383.89,0.02 402.05,6.16 416.00,11.32              452.40,24.77 489.60,49.28 520.00,73.21              520.00,73.21 561.00,108.28 561.00,108.28              563.71,110.68 571.96,119.96 575.00,119.96              577.89,119.96 586.30,110.77 589.00,108.42              589.00,108.42 630.00,73.21 630.00,73.21              660.27,49.35 697.74,24.72 734.00,11.32              747.95,6.16 766.11,0.02 781.00,0.00              781.00,0.00 815.00,0.00 815.00,0.00              825.21,0.02 833.57,2.47 843.00,6.20              875.24,18.98 894.61,43.61 907.20,75.00              927.37,125.29 923.87,189.30 916.27,242.00              914.04,257.48 906.60,297.11 902.00,311.00              902.00,311.00 954.00,327.66 954.00,327.66              996.84,342.66 1049.91,368.39 1084.00,398.29              1084.00,398.29 1097.00,411.00 1097.00,411.00              1118.23,432.24 1136.95,463.06 1137.00,494.00              1137.00,494.00 1137.00,506.00 1137.00,506.00              1136.95,540.12 1116.11,569.89 1093.00,593.00              1044.84,641.16 966.50,670.16 902.00,689.00              906.60,702.89 914.04,742.52 916.27,758.00              923.83,810.47 927.27,874.97 907.20,925.00              894.66,956.26 875.09,981.08 843.00,993.80              834.06,997.34 824.66,999.98 815.00,1000.00              815.00,1000.00 781.00,1000.00 781.00,1000.00              766.85,999.98 748.30,994.01 735.00,989.05              698.53,975.46 661.33,951.63 631.00,927.40              631.00,927.40 590.00,892.42 590.00,892.42              587.24,890.03 577.77,880.04 575.00,880.04              572.11,880.04 563.70,889.23 561.00,891.58              561.00,891.58 520.00,926.79 520.00,926.79              488.59,951.52 452.60,975.04 415.00,989.05              401.49,994.08 383.41,999.98 369.00,1000.00              369.00,1000.00 335.00,1000.00 335.00,1000.00              325.70,999.99 316.64,997.54 308.00,994.19              275.20,981.48 254.02,955.30 241.95,923.00              222.93,872.10 226.10,810.94 233.73,758.00              236.05,741.93 243.20,703.53 248.00,689.00              181.10,669.46 105.06,641.06 55.00,591.00              43.13,579.13 32.37,566.12 24.81,551.00              8.77,518.94 8.77,481.06 24.81,449.00              33.06,432.50 44.09,419.91 57.00,407.00              75.44,388.57 97.39,374.20 120.00,361.42              159.96,338.84 204.12,323.82 248.00,311.00 Z            M 540.00,158.00            C 505.34,123.34 464.01,89.76 420.00,67.75              400.49,58.00 375.05,48.26 353.00,48.00              344.77,47.91 335.80,48.94 328.00,51.70              300.87,61.30 287.90,89.64 282.60,116.00              274.04,158.56 277.75,206.48 285.42,249.00              285.42,249.00 296.00,299.00 296.00,299.00              296.00,299.00 338.00,290.42 338.00,290.42              338.00,290.42 403.00,280.42 403.00,280.42              403.00,280.42 432.00,277.07 432.00,277.07              432.00,277.07 445.48,275.01 445.48,275.01              445.48,275.01 455.63,262.00 455.63,262.00              455.63,262.00 477.37,233.00 477.37,233.00              477.37,233.00 519.13,182.00 519.13,182.00              519.13,182.00 540.00,158.00 540.00,158.00 Z            M 854.00,299.00            C 854.00,299.00 858.58,279.00 858.58,279.00              858.58,279.00 866.58,237.00 866.58,237.00              868.68,223.48 871.98,197.15 872.00,184.00              872.00,184.00 872.00,154.00 872.00,154.00              871.96,130.26 865.02,95.92 851.92,76.00              848.57,70.90 844.58,66.22 840.00,62.18              807.51,33.59 755.93,54.26 723.00,71.26              723.00,71.26 703.00,82.95 703.00,82.95              703.00,82.95 678.00,99.71 678.00,99.71              678.00,99.71 648.00,123.25 648.00,123.25              638.53,131.14 616.53,149.88 610.00,159.00              634.83,183.85 656.33,212.42 678.00,240.00              678.00,240.00 695.85,264.00 695.85,264.00              697.64,266.46 702.32,273.62 704.51,275.01              706.47,276.24 716.16,276.86 719.00,277.16              719.00,277.16 753.00,281.15 753.00,281.15              753.00,281.15 814.00,290.80 814.00,290.80              814.00,290.80 854.00,299.00 854.00,299.00 Z            M 639.00,271.00            C 631.94,259.83 602.18,224.38 592.28,213.00              592.28,213.00 580.91,200.02 580.91,200.02              579.46,198.54 577.23,196.20 575.00,196.20              572.77,196.20 570.54,198.54 569.09,200.02              569.09,200.02 557.72,213.00 557.72,213.00              547.82,224.38 518.06,259.83 511.00,271.00              511.00,271.00 527.00,271.00 527.00,271.00              527.00,271.00 543.00,270.00 543.00,270.00              543.00,270.00 609.00,270.00 609.00,270.00              609.00,270.00 622.00,271.00 622.00,271.00              622.00,271.00 639.00,271.00 639.00,271.00 Z            M 529.00,320.14            C 522.37,321.24 518.54,320.97 512.00,321.00              512.00,321.00 495.00,322.00 495.00,322.00              495.00,322.00 482.00,322.99 482.00,322.99              479.49,323.05 475.66,322.64 473.51,323.99              471.26,325.41 466.67,332.50 465.00,335.00              465.00,335.00 449.58,359.00 449.58,359.00              429.99,390.29 410.49,422.07 393.76,455.00              393.76,455.00 378.25,485.00 378.25,485.00              376.30,488.89 372.37,495.79 372.37,500.00              372.37,504.10 375.89,510.27 377.75,514.00              377.75,514.00 393.25,544.00 393.25,544.00              410.01,577.30 429.81,609.42 449.58,641.00              449.58,641.00 465.72,666.00 465.72,666.00              467.21,668.14 471.66,674.83 473.52,676.01              474.91,676.89 491.31,677.96 494.00,678.00              494.00,678.00 521.00,679.00 521.00,679.00              521.00,679.00 536.00,680.00 536.00,680.00              536.00,680.00 614.00,680.00 614.00,680.00              614.00,680.00 626.00,679.04 626.00,679.04              626.00,679.04 638.00,679.04 638.00,679.04              638.00,679.04 653.00,678.00 653.00,678.00              653.00,678.00 668.00,677.04 668.00,677.04              670.52,676.93 674.34,677.37 676.48,676.01              678.48,674.74 682.52,668.28 684.14,666.00              684.14,666.00 701.05,640.00 701.05,640.00              720.58,609.21 739.72,577.51 756.24,545.00              756.24,545.00 771.75,515.00 771.75,515.00              773.69,511.12 777.60,504.19 777.71,500.00              777.82,495.90 774.12,489.74 772.25,486.00              772.25,486.00 756.75,456.00 756.75,456.00              739.99,422.70 720.19,390.58 700.42,359.00              700.42,359.00 684.28,334.00 684.28,334.00              682.79,331.86 678.34,325.17 676.48,323.99              674.91,323.00 658.82,322.01 656.00,322.00              656.00,322.00 642.00,321.04 642.00,321.04              642.00,321.04 629.00,321.04 629.00,321.04              629.00,321.04 614.00,320.14 614.00,320.14              614.00,320.14 529.00,320.14 529.00,320.14 Z            M 409.00,330.00            C 390.13,331.53 328.27,342.16 310.00,347.00              316.42,368.99 324.42,390.68 332.80,412.00              335.46,418.78 341.53,435.66 345.00,441.00              345.00,441.00 358.31,416.00 358.31,416.00              358.31,416.00 380.42,377.00 380.42,377.00              380.42,377.00 409.00,330.00 409.00,330.00 Z            M 840.00,347.00            C 840.00,347.00 783.00,335.92 783.00,335.92              783.00,335.92 741.00,330.00 741.00,330.00              741.00,330.00 769.58,377.00 769.58,377.00              769.58,377.00 791.69,416.00 791.69,416.00              791.69,416.00 805.00,441.00 805.00,441.00              808.47,435.66 814.54,418.78 817.20,412.00              825.58,390.68 833.58,368.99 840.00,347.00 Z            M 262.00,359.00            C 262.00,359.00 216.00,373.66 216.00,373.66              178.04,386.83 127.70,410.17 98.00,437.07              76.55,456.50 57.78,480.27 63.46,511.00              68.01,535.59 88.28,555.50 107.00,570.40              149.19,603.97 210.52,625.97 262.00,641.00              262.00,641.00 271.33,611.00 271.33,611.00              271.33,611.00 299.01,539.00 299.01,539.00              299.01,539.00 310.28,513.00 310.28,513.00              310.28,513.00 315.23,500.00 315.23,500.00              315.23,500.00 310.30,487.00 310.30,487.00              310.30,487.00 298.60,460.00 298.60,460.00              298.60,460.00 271.00,388.00 271.00,388.00              271.00,388.00 262.00,359.00 262.00,359.00 Z            M 888.00,641.00            C 939.46,625.97 1000.83,603.95 1043.00,570.40              1061.71,555.51 1082.00,535.57 1086.54,511.00              1092.15,480.64 1073.50,456.11 1052.00,437.05              1024.19,412.40 987.33,394.53 953.00,380.80              936.56,374.22 904.75,362.82 888.00,359.00              888.00,359.00 875.05,399.00 875.05,399.00              875.05,399.00 851.40,460.00 851.40,460.00              851.40,460.00 839.70,487.00 839.70,487.00              839.70,487.00 834.77,500.00 834.77,500.00              834.77,500.00 839.72,513.00 839.72,513.00              839.72,513.00 851.40,540.00 851.40,540.00              851.40,540.00 875.05,601.00 875.05,601.00              875.05,601.00 888.00,641.00 888.00,641.00 Z            M 345.00,559.00            C 341.53,564.34 335.46,581.22 332.80,588.00              324.42,609.32 316.42,631.01 310.00,653.00              340.70,659.17 378.06,667.49 409.00,670.00              409.00,670.00 380.42,623.00 380.42,623.00              380.42,623.00 345.00,559.00 345.00,559.00 Z            M 806.00,559.00            C 806.00,559.00 798.69,571.00 798.69,571.00              798.69,571.00 785.58,595.00 785.58,595.00              785.58,595.00 755.80,646.00 755.80,646.00              755.80,646.00 741.00,670.00 741.00,670.00              759.97,668.46 821.65,657.86 840.00,653.00              840.00,653.00 819.19,593.00 819.19,593.00              819.19,593.00 806.00,559.00 806.00,559.00 Z            M 540.00,841.00            C 518.11,819.09 491.52,784.83 472.00,760.00              472.00,760.00 454.15,736.00 454.15,736.00              452.36,733.54 447.68,726.38 445.49,724.99              443.64,723.83 434.64,723.17 432.00,722.93              432.00,722.93 403.00,719.58 403.00,719.58              403.00,719.58 338.00,709.58 338.00,709.58              338.00,709.58 296.00,701.00 296.00,701.00              296.00,701.00 291.42,721.00 291.42,721.00              291.42,721.00 283.42,763.00 283.42,763.00              278.43,795.20 277.62,816.62 278.00,849.00              278.27,871.47 285.72,905.20 298.08,924.00              301.43,929.10 305.42,933.78 310.00,937.82              342.43,966.36 394.10,945.72 427.00,928.74              427.00,928.74 447.00,917.05 447.00,917.05              447.00,917.05 472.00,900.15 472.00,900.15              472.00,900.15 502.00,876.75 502.00,876.75              511.47,868.86 533.47,850.12 540.00,841.00 Z            M 854.00,701.00            C 854.00,701.00 814.00,709.20 814.00,709.20              814.00,709.20 753.00,718.85 753.00,718.85              753.00,718.85 719.00,722.84 719.00,722.84              719.00,722.84 704.51,724.99 704.51,724.99              704.51,724.99 695.12,737.00 695.12,737.00              695.12,737.00 674.13,765.00 674.13,765.00              674.13,765.00 631.73,817.00 631.73,817.00              631.73,817.00 610.00,842.00 610.00,842.00              644.36,876.36 686.39,910.44 730.00,932.25              749.30,941.90 775.22,951.75 797.00,952.00              804.61,952.08 814.83,950.84 822.00,948.30              849.07,938.72 862.10,910.32 867.40,884.00              875.90,841.76 872.19,793.23 864.58,751.00              864.58,751.00 854.00,701.00 854.00,701.00 Z            M 639.00,729.00            C 639.00,729.00 623.00,729.00 623.00,729.00              623.00,729.00 607.00,730.00 607.00,730.00              607.00,730.00 543.00,730.00 543.00,730.00              543.00,730.00 528.00,729.00 528.00,729.00              528.00,729.00 511.00,729.00 511.00,729.00              518.16,740.30 546.93,774.46 556.87,786.00              556.87,786.00 569.09,799.98 569.09,799.98              570.54,801.46 572.77,803.80 575.00,803.80              577.23,803.80 579.46,801.46 580.91,799.98              580.91,799.98 592.28,787.00 592.28,787.00              602.19,775.61 631.90,740.20 639.00,729.00 Z"/>
</svg>