<svg xmlns="http://www.w3.org/2000/svg" viewBox="37.54 68.71 1505.96 1505.61">
  <path id="reddit" fill="#303030" stroke="none" stroke-width="1"
    d="M 760.00,69.21            C 760.00,69.21 813.00,69.21 813.00,69.21              813.00,69.21 834.00,70.00 834.00,70.00              834.00,70.00 857.00,71.83 857.00,71.83              900.12,76.01 930.81,81.10 973.00,91.12              1029.47,104.52 1090.99,128.11 1142.00,155.69              1207.11,190.91 1260.35,228.72 1314.00,280.04              1314.00,280.04 1339.09,306.00 1339.09,306.00              1423.02,396.09 1483.93,503.02 1516.15,622.00              1528.27,666.76 1536.85,712.73 1540.09,759.00              1540.09,759.00 1542.04,784.00 1542.04,784.00              1542.04,784.00 1542.04,799.00 1542.04,799.00              1542.04,799.00 1543.00,811.00 1543.00,811.00              1543.00,811.00 1543.00,833.00 1543.00,833.00              1543.00,833.00 1542.04,844.00 1542.04,844.00              1542.04,844.00 1542.04,858.00 1542.04,858.00              1542.04,858.00 1541.00,868.00 1541.00,868.00              1541.00,868.00 1541.00,877.00 1541.00,877.00              1541.00,877.00 1537.16,913.00 1537.16,913.00              1532.12,960.15 1518.21,1020.19 1502.66,1065.00              1477.11,1138.61 1440.91,1208.60 1394.11,1271.00              1298.21,1398.85 1166.61,1492.54 1014.00,1539.98              964.01,1555.51 913.03,1565.13 861.00,1570.17              861.00,1570.17 838.00,1572.00 838.00,1572.00              838.00,1572.00 822.00,1573.00 822.00,1573.00              822.00,1573.00 803.00,1573.00 803.00,1573.00              803.00,1573.00 789.00,1573.82 789.00,1573.82              789.00,1573.82 756.00,1573.00 756.00,1573.00              756.00,1573.00 746.00,1572.09 746.00,1572.09              746.00,1572.09 720.00,1570.17 720.00,1570.17              660.78,1564.43 614.79,1554.68 558.00,1537.02              494.02,1517.14 428.70,1484.80 373.00,1447.67              301.78,1400.18 238.83,1340.47 187.47,1272.00              129.10,1194.17 84.51,1101.45 60.89,1007.00              18.18,836.15 35.36,652.88 112.26,494.00              203.53,305.42 368.12,164.15 568.00,102.02              613.54,87.87 659.70,78.97 707.00,73.28              707.00,73.28 748.00,70.00 748.00,70.00              752.79,69.98 755.13,70.12 760.00,69.21 Z            M 1026.00,449.00            C 1026.01,458.78 1027.77,466.92 1031.45,476.00              1034.73,484.09 1039.57,491.44 1045.29,498.00              1081.79,539.91 1150.61,529.49 1174.74,480.00              1179.81,469.60 1182.76,457.60 1182.98,446.00              1183.21,434.58 1179.49,420.19 1174.40,410.00              1168.04,397.29 1158.92,387.10 1147.00,379.34              1131.00,368.93 1117.63,366.79 1099.00,367.00              1081.82,367.20 1062.27,376.27 1050.00,388.04              1044.61,393.21 1041.78,396.82 1037.69,403.00              1035.91,405.69 1034.54,408.89 1030.96,409.25              1028.66,409.48 1017.97,406.84 1015.00,406.21              1015.00,406.21 982.00,399.21 982.00,399.21              982.00,399.21 899.00,381.58 899.00,381.58              899.00,381.58 849.00,371.18 849.00,371.18              840.79,370.56 833.57,374.70 829.83,382.00              827.39,386.76 826.56,393.66 825.35,399.00              825.35,399.00 818.00,433.00 818.00,433.00              818.00,433.00 783.00,598.00 783.00,598.00              783.00,598.00 775.35,634.00 775.35,634.00              774.68,636.95 773.31,645.58 771.42,647.40              768.93,649.80 760.50,648.96 757.00,649.00              757.00,649.00 746.00,649.96 746.00,649.96              682.33,652.73 616.10,669.11 558.00,695.30              539.56,703.62 521.45,712.76 504.00,723.01              504.00,723.01 486.00,734.05 486.00,734.05              484.04,735.30 478.87,738.97 477.00,739.45              473.36,740.39 470.60,737.35 468.00,735.26              462.31,730.69 456.46,726.87 450.00,723.48              431.95,714.02 414.17,710.77 394.00,711.00              351.55,711.50 311.90,741.06 296.45,780.00              289.29,798.05 288.78,809.06 289.00,828.00              289.34,856.91 306.87,888.30 329.00,906.20              336.01,911.86 345.28,918.51 354.00,921.00              352.63,928.66 352.09,936.23 352.00,944.00              352.00,944.00 351.18,954.00 351.18,954.00              351.18,954.00 352.00,969.00 352.00,969.00              352.32,996.19 363.67,1030.83 375.75,1055.00              410.53,1124.54 479.41,1179.73 550.00,1210.42              601.71,1232.91 649.00,1246.91 705.00,1254.28              705.00,1254.28 756.00,1259.00 756.00,1259.00              756.00,1259.00 771.00,1260.00 771.00,1260.00              771.00,1260.00 810.00,1260.00 810.00,1260.00              810.00,1260.00 830.00,1259.00 830.00,1259.00              830.00,1259.00 840.00,1258.09 840.00,1258.09              840.00,1258.09 895.00,1251.41 895.00,1251.41              952.65,1241.74 1009.68,1223.48 1061.00,1195.30              1131.70,1156.49 1197.80,1095.80 1220.57,1016.00              1228.49,988.25 1229.33,970.43 1229.00,942.00              1228.95,938.08 1226.60,924.90 1228.06,922.39              1229.25,920.35 1239.22,915.33 1242.00,913.48              1250.77,907.66 1258.76,901.08 1265.56,893.00              1283.76,871.40 1292.33,846.10 1292.00,818.00              1291.34,762.07 1246.00,716.32 1191.00,711.92              1191.00,711.92 1181.00,711.04 1181.00,711.04              1149.66,712.04 1128.87,722.47 1105.00,742.00              1100.00,736.61 1090.43,731.56 1084.00,727.58              1067.24,717.20 1049.90,707.91 1032.00,699.69              975.60,673.80 920.83,658.01 859.00,651.83              859.00,651.83 842.00,650.00 842.00,650.00              842.00,650.00 833.00,650.00 833.00,650.00              833.00,650.00 821.00,649.00 821.00,649.00              821.00,649.00 813.00,649.00 813.00,649.00              813.00,649.00 827.21,583.00 827.21,583.00              827.21,583.00 850.20,475.00 850.20,475.00              850.20,475.00 859.58,431.00 859.58,431.00              860.31,427.64 861.42,417.79 864.43,416.19              866.48,415.10 873.49,417.10 876.00,417.60              876.00,417.60 906.00,424.00 906.00,424.00              906.00,424.00 987.00,441.21 987.00,441.21              987.00,441.21 1026.00,449.00 1026.00,449.00 Z            M 606.00,822.44            C 627.03,819.74 649.15,824.41 666.00,837.67              699.78,864.24 707.14,917.12 677.83,950.00              670.61,958.10 663.64,963.91 654.00,968.89              638.09,977.11 629.26,977.20 612.00,977.00              604.02,976.90 594.29,974.35 587.00,971.14              546.34,953.21 529.90,908.52 546.45,868.00              556.76,842.76 579.92,827.26 606.00,822.44 Z            M 950.00,822.22            C 950.00,822.22 967.00,822.22 967.00,822.22              976.26,822.01 985.48,824.22 994.00,827.87              1045.55,849.95 1056.67,919.03 1016.00,956.91              1009.74,962.74 1000.95,968.33 993.00,971.55              982.86,975.66 971.94,977.66 961.00,977.26              948.21,976.79 938.61,975.03 927.00,969.19              880.22,945.65 870.32,881.01 907.17,844.17              918.91,832.42 933.83,825.43 950.00,822.22 Z            M 615.00,1072.52            C 628.76,1070.38 634.12,1079.55 644.00,1086.84              654.94,1094.92 667.32,1100.79 680.00,1105.58              704.02,1114.63 732.43,1120.22 758.00,1122.09              758.00,1122.09 768.00,1123.00 768.00,1123.00              768.00,1123.00 785.00,1124.00 785.00,1124.00              785.00,1124.00 796.00,1124.00 796.00,1124.00              796.00,1124.00 813.00,1123.00 813.00,1123.00              813.00,1123.00 823.00,1122.09 823.00,1122.09              851.79,1119.98 887.88,1112.55 914.00,1100.22              922.62,1096.15 931.50,1091.23 939.00,1085.33              948.01,1078.25 951.45,1071.49 964.00,1072.04              974.21,1072.49 981.70,1079.71 981.98,1090.00              982.36,1103.34 975.69,1107.87 966.00,1115.74              950.30,1128.49 929.16,1138.89 910.00,1145.33              882.26,1154.67 853.15,1160.05 824.00,1162.09              824.00,1162.09 814.00,1163.00 814.00,1163.00              814.00,1163.00 795.00,1164.00 795.00,1164.00              795.00,1164.00 785.00,1164.00 785.00,1164.00              785.00,1164.00 766.00,1163.00 766.00,1163.00              766.00,1163.00 756.00,1162.09 756.00,1162.09              726.22,1159.91 690.77,1153.42 663.00,1142.40              644.22,1134.95 617.30,1121.43 604.21,1106.00              593.65,1093.55 599.15,1076.88 615.00,1072.52 Z" />
</svg>