<svg xmlns="http://www.w3.org/2000/svg" viewBox="37.54 68.71 1505.96 2122.82">
  <path id="Selection #1" fill="#303030" stroke="none" stroke-width="1" d="M 760.00,69.21            C 760.00,69.21 813.00,69.21 813.00,69.21              813.00,69.21 834.00,70.00 834.00,70.00              834.00,70.00 857.00,71.83 857.00,71.83              900.12,76.01 930.81,81.10 973.00,91.12              1029.47,104.52 1090.99,128.11 1142.00,155.69              1207.11,190.91 1260.35,228.72 1314.00,280.04              1314.00,280.04 1339.09,306.00 1339.09,306.00              1423.02,396.09 1483.93,503.02 1516.15,622.00              1528.27,666.76 1536.85,712.73 1540.09,759.00              1540.09,759.00 1542.04,784.00 1542.04,784.00              1542.04,784.00 1542.04,799.00 1542.04,799.00              1542.04,799.00 1543.00,811.00 1543.00,811.00              1543.00,811.00 1543.00,833.00 1543.00,833.00              1543.00,833.00 1542.04,844.00 1542.04,844.00              1542.04,844.00 1542.04,858.00 1542.04,858.00              1542.04,858.00 1541.00,868.00 1541.00,868.00              1541.00,868.00 1541.00,877.00 1541.00,877.00              1541.00,877.00 1537.16,913.00 1537.16,913.00              1532.12,960.15 1518.21,1020.19 1502.66,1065.00              1477.11,1138.61 1440.91,1208.60 1394.11,1271.00              1298.21,1398.85 1166.61,1492.54 1014.00,1539.98              964.01,1555.51 913.03,1565.13 861.00,1570.17              861.00,1570.17 838.00,1572.00 838.00,1572.00              838.00,1572.00 822.00,1573.00 822.00,1573.00              822.00,1573.00 803.00,1573.00 803.00,1573.00              803.00,1573.00 789.00,1573.82 789.00,1573.82              789.00,1573.82 756.00,1573.00 756.00,1573.00              756.00,1573.00 746.00,1572.09 746.00,1572.09              746.00,1572.09 720.00,1570.17 720.00,1570.17              660.78,1564.43 614.79,1554.68 558.00,1537.02              494.02,1517.14 428.70,1484.80 373.00,1447.67              301.78,1400.18 238.83,1340.47 187.47,1272.00              129.10,1194.17 84.51,1101.45 60.89,1007.00              18.18,836.15 35.36,652.88 112.26,494.00              203.53,305.42 368.12,164.15 568.00,102.02              613.54,87.87 659.70,78.97 707.00,73.28              707.00,73.28 748.00,70.00 748.00,70.00              752.79,69.98 755.13,70.12 760.00,69.21 Z            M 1026.00,449.00            C 1026.01,458.78 1027.77,466.92 1031.45,476.00              1034.73,484.09 1039.57,491.44 1045.29,498.00              1081.79,539.91 1150.61,529.49 1174.74,480.00              1179.81,469.60 1182.76,457.60 1182.98,446.00              1183.21,434.58 1179.49,420.19 1174.40,410.00              1168.04,397.29 1158.92,387.10 1147.00,379.34              1131.00,368.93 1117.63,366.79 1099.00,367.00              1081.82,367.20 1062.27,376.27 1050.00,388.04              1044.61,393.21 1041.78,396.82 1037.69,403.00              1035.91,405.69 1034.54,408.89 1030.96,409.25              1028.66,409.48 1017.97,406.84 1015.00,406.21              1015.00,406.21 982.00,399.21 982.00,399.21              982.00,399.21 899.00,381.58 899.00,381.58              899.00,381.58 849.00,371.18 849.00,371.18              840.79,370.56 833.57,374.70 829.83,382.00              827.39,386.76 826.56,393.66 825.35,399.00              825.35,399.00 818.00,433.00 818.00,433.00              818.00,433.00 783.00,598.00 783.00,598.00              783.00,598.00 775.35,634.00 775.35,634.00              774.68,636.95 773.31,645.58 771.42,647.40              768.93,649.80 760.50,648.96 757.00,649.00              757.00,649.00 746.00,649.96 746.00,649.96              682.33,652.73 616.10,669.11 558.00,695.30              539.56,703.62 521.45,712.76 504.00,723.01              504.00,723.01 486.00,734.05 486.00,734.05              484.04,735.30 478.87,738.97 477.00,739.45              473.36,740.39 470.60,737.35 468.00,735.26              462.31,730.69 456.46,726.87 450.00,723.48              431.95,714.02 414.17,710.77 394.00,711.00              351.55,711.50 311.90,741.06 296.45,780.00              289.29,798.05 288.78,809.06 289.00,828.00              289.34,856.91 306.87,888.30 329.00,906.20              336.01,911.86 345.28,918.51 354.00,921.00              352.63,928.66 352.09,936.23 352.00,944.00              352.00,944.00 351.18,954.00 351.18,954.00              351.18,954.00 352.00,969.00 352.00,969.00              352.32,996.19 363.67,1030.83 375.75,1055.00              410.53,1124.54 479.41,1179.73 550.00,1210.42              601.71,1232.91 649.00,1246.91 705.00,1254.28              705.00,1254.28 756.00,1259.00 756.00,1259.00              756.00,1259.00 771.00,1260.00 771.00,1260.00              771.00,1260.00 810.00,1260.00 810.00,1260.00              810.00,1260.00 830.00,1259.00 830.00,1259.00              830.00,1259.00 840.00,1258.09 840.00,1258.09              840.00,1258.09 895.00,1251.41 895.00,1251.41              952.65,1241.74 1009.68,1223.48 1061.00,1195.30              1131.70,1156.49 1197.80,1095.80 1220.57,1016.00              1228.49,988.25 1229.33,970.43 1229.00,942.00              1228.95,938.08 1226.60,924.90 1228.06,922.39              1229.25,920.35 1239.22,915.33 1242.00,913.48              1250.77,907.66 1258.76,901.08 1265.56,893.00              1283.76,871.40 1292.33,846.10 1292.00,818.00              1291.34,762.07 1246.00,716.32 1191.00,711.92              1191.00,711.92 1181.00,711.04 1181.00,711.04              1149.66,712.04 1128.87,722.47 1105.00,742.00              1100.00,736.61 1090.43,731.56 1084.00,727.58              1067.24,717.20 1049.90,707.91 1032.00,699.69              975.60,673.80 920.83,658.01 859.00,651.83              859.00,651.83 842.00,650.00 842.00,650.00              842.00,650.00 833.00,650.00 833.00,650.00              833.00,650.00 821.00,649.00 821.00,649.00              821.00,649.00 813.00,649.00 813.00,649.00              813.00,649.00 827.21,583.00 827.21,583.00              827.21,583.00 850.20,475.00 850.20,475.00              850.20,475.00 859.58,431.00 859.58,431.00              860.31,427.64 861.42,417.79 864.43,416.19              866.48,415.10 873.49,417.10 876.00,417.60              876.00,417.60 906.00,424.00 906.00,424.00              906.00,424.00 987.00,441.21 987.00,441.21              987.00,441.21 1026.00,449.00 1026.00,449.00 Z            M 606.00,822.44            C 627.03,819.74 649.15,824.41 666.00,837.67              699.78,864.24 707.14,917.12 677.83,950.00              670.61,958.10 663.64,963.91 654.00,968.89              638.09,977.11 629.26,977.20 612.00,977.00              604.02,976.90 594.29,974.35 587.00,971.14              546.34,953.21 529.90,908.52 546.45,868.00              556.76,842.76 579.92,827.26 606.00,822.44 Z            M 950.00,822.22            C 950.00,822.22 967.00,822.22 967.00,822.22              976.26,822.01 985.48,824.22 994.00,827.87              1045.55,849.95 1056.67,919.03 1016.00,956.91              1009.74,962.74 1000.95,968.33 993.00,971.55              982.86,975.66 971.94,977.66 961.00,977.26              948.21,976.79 938.61,975.03 927.00,969.19              880.22,945.65 870.32,881.01 907.17,844.17              918.91,832.42 933.83,825.43 950.00,822.22 Z            M 615.00,1072.52            C 628.76,1070.38 634.12,1079.55 644.00,1086.84              654.94,1094.92 667.32,1100.79 680.00,1105.58              704.02,1114.63 732.43,1120.22 758.00,1122.09              758.00,1122.09 768.00,1123.00 768.00,1123.00              768.00,1123.00 785.00,1124.00 785.00,1124.00              785.00,1124.00 796.00,1124.00 796.00,1124.00              796.00,1124.00 813.00,1123.00 813.00,1123.00              813.00,1123.00 823.00,1122.09 823.00,1122.09              851.79,1119.98 887.88,1112.55 914.00,1100.22              922.62,1096.15 931.50,1091.23 939.00,1085.33              948.01,1078.25 951.45,1071.49 964.00,1072.04              974.21,1072.49 981.70,1079.71 981.98,1090.00              982.36,1103.34 975.69,1107.87 966.00,1115.74              950.30,1128.49 929.16,1138.89 910.00,1145.33              882.26,1154.67 853.15,1160.05 824.00,1162.09              824.00,1162.09 814.00,1163.00 814.00,1163.00              814.00,1163.00 795.00,1164.00 795.00,1164.00              795.00,1164.00 785.00,1164.00 785.00,1164.00              785.00,1164.00 766.00,1163.00 766.00,1163.00              766.00,1163.00 756.00,1162.09 756.00,1162.09              726.22,1159.91 690.77,1153.42 663.00,1142.40              644.22,1134.95 617.30,1121.43 604.21,1106.00              593.65,1093.55 599.15,1076.88 615.00,1072.52 Z            M 802.00,1896.00            C 802.00,1896.00 802.00,1762.00 802.00,1762.00              802.02,1752.03 804.21,1745.01 812.01,1738.21              826.52,1725.59 851.14,1729.67 860.01,1747.00              862.74,1752.35 862.99,1756.18 863.00,1762.00              863.00,1762.00 863.00,2064.00 863.00,2064.00              863.00,2064.00 863.00,2153.00 863.00,2153.00              862.98,2164.99 858.89,2174.40 848.00,2180.64              842.31,2183.90 837.33,2184.07 831.00,2184.00              817.40,2183.84 805.17,2174.77 803.00,2161.00              792.95,2168.10 790.34,2172.05 778.00,2178.69              757.42,2189.77 739.72,2191.26 717.00,2191.00              692.02,2190.70 662.73,2178.78 643.00,2163.87              608.05,2137.46 586.68,2098.08 580.43,2055.00              578.60,2042.42 578.86,2029.68 579.00,2017.00              579.30,1991.33 590.98,1956.54 604.69,1935.00              626.34,1901.01 658.13,1876.47 698.00,1868.45              710.67,1865.90 720.25,1865.85 733.00,1866.00              745.74,1866.15 763.62,1871.12 775.00,1876.81              784.96,1881.78 793.96,1888.33 802.00,1896.00 Z            M 1119.00,1895.00            C 1119.00,1895.00 1119.00,1765.00 1119.00,1765.00              1119.01,1755.89 1120.43,1748.29 1126.52,1741.09              1137.39,1728.23 1159.88,1727.45 1171.83,1739.18              1179.09,1746.32 1180.98,1754.20 1181.00,1764.00              1181.00,1764.00 1181.00,2068.00 1181.00,2068.00              1181.00,2068.00 1181.00,2152.00 1181.00,2152.00              1180.95,2161.94 1178.00,2171.16 1169.99,2177.61              1162.94,2183.28 1156.64,2184.10 1148.00,2184.00              1134.07,2183.83 1123.16,2174.44 1120.00,2161.00              1109.65,2170.51 1098.92,2177.59 1086.00,2183.13              1068.80,2190.50 1053.29,2191.21 1035.00,2191.00              990.35,2190.47 946.83,2160.77 923.44,2124.00              874.67,2047.35 891.70,1937.10 970.00,1886.69              995.34,1870.38 1020.39,1865.66 1050.00,1866.00              1068.87,1866.22 1090.52,1874.21 1106.00,1884.75              1106.00,1884.75 1119.00,1895.00 1119.00,1895.00 Z            M 1275.00,1765.46            C 1293.02,1762.98 1312.06,1767.38 1324.83,1781.04              1353.75,1811.98 1338.73,1864.64 1296.00,1872.54              1277.99,1875.87 1259.31,1870.98 1246.17,1857.83              1223.12,1834.77 1226.38,1795.26 1252.00,1775.50              1259.53,1769.70 1265.86,1767.44 1275.00,1765.46 Z            M 1409.00,1873.00            C 1409.00,1873.00 1409.00,1830.00 1409.00,1830.00              1409.01,1822.30 1410.11,1816.37 1414.93,1810.02              1427.10,1794.03 1451.11,1794.78 1463.67,1810.02              1470.99,1818.86 1470.00,1826.40 1470.00,1837.00              1470.00,1837.00 1470.00,1873.00 1470.00,1873.00              1470.00,1873.00 1497.00,1873.00 1497.00,1873.00              1503.80,1873.01 1508.22,1873.50 1514.00,1877.64              1527.17,1887.06 1529.18,1907.26 1517.91,1918.96              1506.16,1931.16 1486.60,1928.00 1471.00,1928.00              1471.00,1928.00 1471.00,2147.00 1471.00,2147.00              1470.98,2160.19 1468.67,2171.52 1457.00,2179.40              1450.62,2183.71 1445.40,2184.08 1438.00,2184.00              1420.17,2183.79 1409.03,2170.18 1409.00,2153.00              1409.00,2153.00 1409.00,1928.00 1409.00,1928.00              1394.82,1928.00 1373.99,1930.67 1363.46,1919.70              1346.62,1902.16 1358.60,1873.29 1383.00,1873.00              1383.00,1873.00 1409.00,1873.00 1409.00,1873.00 Z            M 138.00,1906.00            C 141.93,1898.68 150.23,1892.48 157.00,1887.72              173.89,1875.84 197.10,1866.25 218.00,1866.00              230.07,1865.86 247.47,1865.11 258.00,1871.48              274.96,1881.72 277.24,1908.57 261.91,1921.32              245.96,1934.58 234.30,1924.41 210.00,1930.37              168.15,1940.64 137.07,1976.16 137.00,2020.00              137.00,2020.00 137.00,2152.00 137.00,2152.00              136.97,2172.00 125.12,2184.23 105.00,2184.00              84.06,2183.75 75.03,2166.82 75.00,2148.00              75.00,2148.00 75.00,1908.00 75.00,1908.00              75.03,1886.65 85.73,1872.74 108.00,1873.00              120.65,1873.15 131.21,1881.09 135.45,1893.00              135.45,1893.00 138.00,1906.00 138.00,1906.00 Z            M 332.00,2049.00            C 332.70,2057.29 335.88,2066.37 339.15,2074.00              351.55,2102.94 378.96,2128.95 412.00,2129.00              412.00,2129.00 417.00,2129.00 417.00,2129.00              424.42,2128.91 436.02,2126.20 443.00,2123.58              452.81,2119.88 461.66,2115.14 470.00,2108.76              481.35,2100.08 489.05,2090.05 505.00,2091.32              522.34,2092.70 536.11,2105.97 534.68,2124.00              533.35,2140.65 521.42,2150.90 509.00,2160.58              486.55,2178.07 454.75,2190.96 426.00,2191.00              426.00,2191.00 409.00,2191.00 409.00,2191.00              390.99,2190.97 370.05,2185.27 354.00,2177.25              251.78,2126.14 239.24,1972.73 324.00,1899.87              335.94,1889.60 348.36,1881.67 363.00,1875.80              380.70,1868.70 396.95,1865.78 416.00,1866.00              427.31,1866.14 444.21,1869.75 455.00,1873.33              497.12,1887.32 530.06,1917.64 546.60,1959.00              557.31,1985.76 569.19,2033.89 533.00,2046.91              527.62,2048.85 524.58,2048.99 519.00,2049.00              519.00,2049.00 332.00,2049.00 332.00,2049.00 Z            M 1284.00,1900.59            C 1304.01,1900.76 1315.97,1913.10 1316.00,1933.00              1316.00,1933.00 1316.00,2074.00 1316.00,2074.00              1316.00,2074.00 1316.00,2153.00 1316.00,2153.00              1315.80,2170.02 1301.66,2185.15 1284.00,2183.82              1263.56,2182.27 1254.03,2168.42 1254.00,2149.00              1254.00,2149.00 1254.00,1935.00 1254.00,1935.00              1254.03,1915.12 1263.59,1902.44 1284.00,1900.59 Z            M 492.00,1994.00            C 491.06,1983.59 484.30,1971.37 478.26,1963.00              463.46,1942.54 437.62,1927.71 412.00,1928.00              377.94,1928.39 340.21,1960.27 335.00,1994.00              335.00,1994.00 492.00,1994.00 492.00,1994.00 Z            M 715.00,1928.14            C 647.66,1938.58 624.65,2024.01 651.76,2079.00              664.50,2104.85 689.54,2128.64 720.00,2129.00              720.00,2129.00 727.00,2129.00 727.00,2129.00              761.54,2128.95 789.64,2100.84 800.95,2070.00              815.54,2030.19 808.56,1981.56 778.00,1951.00              764.23,1937.23 746.79,1928.03 727.00,1928.14              727.00,1928.14 715.00,1928.14 715.00,1928.14 Z            M 1032.00,1928.14            C 967.37,1938.98 944.43,2017.04 966.20,2072.00              977.45,2100.40 1004.58,2128.62 1037.00,2129.00              1037.00,2129.00 1045.00,2129.00 1045.00,2129.00              1079.14,2128.95 1106.52,2101.15 1118.19,2071.00              1136.32,2024.18 1122.38,1959.79 1075.00,1935.76              1064.98,1930.67 1056.30,1928.02 1045.00,1928.14              1045.00,1928.14 1032.00,1928.14 1032.00,1928.14 Z"/>
</svg>