<svg xmlns="http://www.w3.org/2000/svg" viewBox="288.73 366.63 1002.8 892.87">
  <path id="reddit-alt" fill="#303030" stroke="none" stroke-width="1"
    d="M 354.00,920.00            C 343.72,918.05 329.34,906.31 322.00,899.00              293.39,870.48 282.44,829.94 293.43,791.00              303.10,756.71 329.82,727.90 364.00,717.03              379.97,711.95 387.73,711.97 404.00,712.00              421.08,712.03 439.27,717.99 454.00,726.43              458.46,728.98 461.96,731.24 466.00,734.45              467.97,736.01 471.74,739.50 474.00,740.15              477.04,741.03 479.59,738.89 482.00,737.34              482.00,737.34 496.00,728.60 496.00,728.60              515.32,716.95 534.50,706.72 555.00,697.31              594.79,679.04 637.04,666.43 680.00,658.39              700.30,654.59 720.44,652.32 741.00,650.91              741.00,650.91 751.00,650.00 751.00,650.00              751.00,650.00 764.00,650.00 764.00,650.00              766.96,649.98 770.09,650.25 772.15,647.69              773.87,645.53 775.75,635.21 776.40,632.00              776.40,632.00 783.80,597.00 783.80,597.00              783.80,597.00 801.79,513.00 801.79,513.00              801.79,513.00 818.12,436.00 818.12,436.00              818.12,436.00 825.79,400.00 825.79,400.00              826.79,395.31 828.36,385.94 830.44,382.00              834.23,374.82 841.17,371.73 849.00,372.04              849.00,372.04 896.00,381.58 896.00,381.58              896.00,381.58 981.00,399.65 981.00,399.65              981.00,399.65 1015.00,407.00 1015.00,407.00              1015.00,407.00 1030.96,410.02 1030.96,410.02              1034.83,409.82 1036.45,405.85 1038.35,403.00              1042.71,396.49 1047.14,391.40 1053.00,386.17              1067.29,373.42 1084.33,368.51 1103.00,367.18              1109.84,366.70 1124.40,369.66 1131.00,372.05              1140.21,375.40 1148.65,380.33 1155.96,386.87              1197.00,423.62 1188.59,490.46 1139.00,515.24              1130.55,519.46 1119.48,522.89 1110.00,523.00              1110.00,523.00 1100.00,523.00 1100.00,523.00              1073.24,522.96 1048.22,505.97 1035.44,483.00              1032.18,477.14 1028.84,467.61 1027.61,461.00              1026.93,457.31 1026.99,451.29 1023.70,448.98              1022.01,447.80 1013.58,446.23 1011.00,445.65              1011.00,445.65 980.00,439.12 980.00,439.12              980.00,439.12 921.00,426.58 921.00,426.58              921.00,426.58 862.00,414.00 862.00,414.00              862.00,414.00 848.42,480.00 848.42,480.00              848.42,480.00 825.58,588.00 825.58,588.00              825.58,588.00 818.35,622.00 818.35,622.00              818.35,622.00 813.00,650.00 813.00,650.00              882.88,650.00 952.81,666.04 1017.00,693.43              1036.33,701.67 1060.93,714.42 1079.00,725.20              1079.00,725.20 1096.00,735.69 1096.00,735.69              1098.13,737.06 1102.62,740.47 1105.00,740.60              1108.12,740.77 1111.67,737.12 1114.00,735.29              1118.62,731.65 1126.75,726.51 1132.00,723.78              1148.58,715.17 1167.48,711.79 1186.00,712.00              1230.20,712.52 1270.04,742.98 1284.95,784.00              1290.62,799.62 1291.19,811.72 1291.00,828.00              1290.85,840.09 1286.12,857.18 1280.75,868.00              1272.58,884.45 1263.78,896.46 1249.00,907.76              1244.68,911.07 1238.74,914.85 1234.00,917.57              1231.66,918.92 1227.69,920.45 1226.88,923.21              1226.32,925.12 1227.44,931.72 1227.72,934.00              1227.72,934.00 1228.83,950.00 1228.83,950.00              1228.83,950.00 1226.84,983.00 1226.84,983.00              1222.60,1022.07 1203.41,1062.51 1180.58,1094.00              1138.96,1151.39 1073.12,1193.35 1008.00,1219.40              963.13,1237.35 912.06,1250.02 864.00,1255.16              864.00,1255.16 829.00,1258.09 829.00,1258.09              829.00,1258.09 817.00,1259.00 817.00,1259.00              817.00,1259.00 762.00,1259.00 762.00,1259.00              762.00,1259.00 752.00,1258.09 752.00,1258.09              752.00,1258.09 710.00,1254.28 710.00,1254.28              656.53,1247.31 607.59,1234.69 558.00,1213.28              468.78,1174.77 382.97,1104.96 358.47,1007.00              353.57,987.37 351.77,967.17 352.00,947.00              352.00,947.00 354.00,920.00 354.00,920.00 Z            M 609.00,821.29            C 580.31,825.67 556.64,841.39 545.45,869.00              530.64,905.57 543.82,947.03 578.00,967.40              588.26,973.51 602.00,977.86 614.00,978.00              628.32,978.16 638.80,976.78 652.00,970.69              660.79,966.64 668.24,960.88 674.99,954.00              706.88,921.46 702.98,867.14 668.00,838.46              651.19,824.68 630.46,819.28 609.00,821.29 Z            M 954.00,821.29            C 923.01,826.02 898.51,843.59 888.08,874.00              874.59,913.33 894.43,956.77 933.00,972.40              940.96,975.62 950.39,977.90 959.00,978.00              973.35,978.16 983.79,976.72 997.00,970.51              1005.52,966.51 1016.59,958.24 1022.54,951.00              1048.53,919.35 1047.84,872.16 1017.96,843.09              1008.94,834.31 996.98,827.73 985.00,824.02              975.52,821.09 963.86,820.36 954.00,821.29 Z            M 960.00,1071.30            C 949.19,1073.41 943.80,1081.25 935.00,1087.57              924.37,1095.21 910.40,1101.77 898.00,1106.00              828.44,1129.69 736.95,1129.49 669.00,1100.42              660.23,1096.67 650.53,1091.18 643.00,1085.34              638.42,1081.78 631.06,1074.39 626.00,1072.80              614.69,1069.26 602.88,1074.55 599.22,1086.00              595.25,1098.42 603.19,1106.75 612.00,1114.08              628.93,1128.16 649.14,1138.69 670.00,1145.67              699.62,1155.57 729.90,1160.95 761.00,1163.09              761.00,1163.09 773.00,1164.00 773.00,1164.00              773.00,1164.00 808.00,1164.00 808.00,1164.00              808.00,1164.00 831.00,1162.17 831.00,1162.17              862.10,1159.06 892.87,1153.21 922.00,1141.55              936.55,1135.73 950.38,1128.14 963.00,1118.84              967.90,1115.24 975.79,1108.87 979.20,1104.00              989.56,1089.19 978.29,1069.64 960.00,1071.30 Z" />
</svg>