<svg xmlns="http://www.w3.org/2000/svg" viewBox="74.5 1730.36 1451.25 461.17">
  <path id="reddit-text" fill="#303030" stroke="none" stroke-width="1"
    d="M 802.00,1896.00            C 802.00,1896.00 802.00,1762.00 802.00,1762.00              802.02,1752.03 804.21,1745.01 812.01,1738.21              826.52,1725.59 851.14,1729.67 860.01,1747.00              862.74,1752.35 862.99,1756.18 863.00,1762.00              863.00,1762.00 863.00,2064.00 863.00,2064.00              863.00,2064.00 863.00,2153.00 863.00,2153.00              862.98,2164.99 858.89,2174.40 848.00,2180.64              842.31,2183.90 837.33,2184.07 831.00,2184.00              817.40,2183.84 805.17,2174.77 803.00,2161.00              792.95,2168.10 790.34,2172.05 778.00,2178.69              757.42,2189.77 739.72,2191.26 717.00,2191.00              692.02,2190.70 662.73,2178.78 643.00,2163.87              608.05,2137.46 586.68,2098.08 580.43,2055.00              578.60,2042.42 578.86,2029.68 579.00,2017.00              579.30,1991.33 590.98,1956.54 604.69,1935.00              626.34,1901.01 658.13,1876.47 698.00,1868.45              710.67,1865.90 720.25,1865.85 733.00,1866.00              745.74,1866.15 763.62,1871.12 775.00,1876.81              784.96,1881.78 793.96,1888.33 802.00,1896.00 Z            M 1119.00,1895.00            C 1119.00,1895.00 1119.00,1765.00 1119.00,1765.00              1119.01,1755.89 1120.43,1748.29 1126.52,1741.09              1137.39,1728.23 1159.88,1727.45 1171.83,1739.18              1179.09,1746.32 1180.98,1754.20 1181.00,1764.00              1181.00,1764.00 1181.00,2068.00 1181.00,2068.00              1181.00,2068.00 1181.00,2152.00 1181.00,2152.00              1180.95,2161.94 1178.00,2171.16 1169.99,2177.61              1162.94,2183.28 1156.64,2184.10 1148.00,2184.00              1134.07,2183.83 1123.16,2174.44 1120.00,2161.00              1109.65,2170.51 1098.92,2177.59 1086.00,2183.13              1068.80,2190.50 1053.29,2191.21 1035.00,2191.00              990.35,2190.47 946.83,2160.77 923.44,2124.00              874.67,2047.35 891.70,1937.10 970.00,1886.69              995.34,1870.38 1020.39,1865.66 1050.00,1866.00              1068.87,1866.22 1090.52,1874.21 1106.00,1884.75              1106.00,1884.75 1119.00,1895.00 1119.00,1895.00 Z            M 1275.00,1765.46            C 1293.02,1762.98 1312.06,1767.38 1324.83,1781.04              1353.75,1811.98 1338.73,1864.64 1296.00,1872.54              1277.99,1875.87 1259.31,1870.98 1246.17,1857.83              1223.12,1834.77 1226.38,1795.26 1252.00,1775.50              1259.53,1769.70 1265.86,1767.44 1275.00,1765.46 Z            M 1409.00,1873.00            C 1409.00,1873.00 1409.00,1830.00 1409.00,1830.00              1409.01,1822.30 1410.11,1816.37 1414.93,1810.02              1427.10,1794.03 1451.11,1794.78 1463.67,1810.02              1470.99,1818.86 1470.00,1826.40 1470.00,1837.00              1470.00,1837.00 1470.00,1873.00 1470.00,1873.00              1470.00,1873.00 1497.00,1873.00 1497.00,1873.00              1503.80,1873.01 1508.22,1873.50 1514.00,1877.64              1527.17,1887.06 1529.18,1907.26 1517.91,1918.96              1506.16,1931.16 1486.60,1928.00 1471.00,1928.00              1471.00,1928.00 1471.00,2147.00 1471.00,2147.00              1470.98,2160.19 1468.67,2171.52 1457.00,2179.40              1450.62,2183.71 1445.40,2184.08 1438.00,2184.00              1420.17,2183.79 1409.03,2170.18 1409.00,2153.00              1409.00,2153.00 1409.00,1928.00 1409.00,1928.00              1394.82,1928.00 1373.99,1930.67 1363.46,1919.70              1346.62,1902.16 1358.60,1873.29 1383.00,1873.00              1383.00,1873.00 1409.00,1873.00 1409.00,1873.00 Z            M 138.00,1906.00            C 141.93,1898.68 150.23,1892.48 157.00,1887.72              173.89,1875.84 197.10,1866.25 218.00,1866.00              230.07,1865.86 247.47,1865.11 258.00,1871.48              274.96,1881.72 277.24,1908.57 261.91,1921.32              245.96,1934.58 234.30,1924.41 210.00,1930.37              168.15,1940.64 137.07,1976.16 137.00,2020.00              137.00,2020.00 137.00,2152.00 137.00,2152.00              136.97,2172.00 125.12,2184.23 105.00,2184.00              84.06,2183.75 75.03,2166.82 75.00,2148.00              75.00,2148.00 75.00,1908.00 75.00,1908.00              75.03,1886.65 85.73,1872.74 108.00,1873.00              120.65,1873.15 131.21,1881.09 135.45,1893.00              135.45,1893.00 138.00,1906.00 138.00,1906.00 Z            M 332.00,2049.00            C 332.70,2057.29 335.88,2066.37 339.15,2074.00              351.55,2102.94 378.96,2128.95 412.00,2129.00              412.00,2129.00 417.00,2129.00 417.00,2129.00              424.42,2128.91 436.02,2126.20 443.00,2123.58              452.81,2119.88 461.66,2115.14 470.00,2108.76              481.35,2100.08 489.05,2090.05 505.00,2091.32              522.34,2092.70 536.11,2105.97 534.68,2124.00              533.35,2140.65 521.42,2150.90 509.00,2160.58              486.55,2178.07 454.75,2190.96 426.00,2191.00              426.00,2191.00 409.00,2191.00 409.00,2191.00              390.99,2190.97 370.05,2185.27 354.00,2177.25              251.78,2126.14 239.24,1972.73 324.00,1899.87              335.94,1889.60 348.36,1881.67 363.00,1875.80              380.70,1868.70 396.95,1865.78 416.00,1866.00              427.31,1866.14 444.21,1869.75 455.00,1873.33              497.12,1887.32 530.06,1917.64 546.60,1959.00              557.31,1985.76 569.19,2033.89 533.00,2046.91              527.62,2048.85 524.58,2048.99 519.00,2049.00              519.00,2049.00 332.00,2049.00 332.00,2049.00 Z            M 1284.00,1900.59            C 1304.01,1900.76 1315.97,1913.10 1316.00,1933.00              1316.00,1933.00 1316.00,2074.00 1316.00,2074.00              1316.00,2074.00 1316.00,2153.00 1316.00,2153.00              1315.80,2170.02 1301.66,2185.15 1284.00,2183.82              1263.56,2182.27 1254.03,2168.42 1254.00,2149.00              1254.00,2149.00 1254.00,1935.00 1254.00,1935.00              1254.03,1915.12 1263.59,1902.44 1284.00,1900.59 Z            M 492.00,1994.00            C 491.06,1983.59 484.30,1971.37 478.26,1963.00              463.46,1942.54 437.62,1927.71 412.00,1928.00              377.94,1928.39 340.21,1960.27 335.00,1994.00              335.00,1994.00 492.00,1994.00 492.00,1994.00 Z            M 715.00,1928.14            C 647.66,1938.58 624.65,2024.01 651.76,2079.00              664.50,2104.85 689.54,2128.64 720.00,2129.00              720.00,2129.00 727.00,2129.00 727.00,2129.00              761.54,2128.95 789.64,2100.84 800.95,2070.00              815.54,2030.19 808.56,1981.56 778.00,1951.00              764.23,1937.23 746.79,1928.03 727.00,1928.14              727.00,1928.14 715.00,1928.14 715.00,1928.14 Z            M 1032.00,1928.14            C 967.37,1938.98 944.43,2017.04 966.20,2072.00              977.45,2100.40 1004.58,2128.62 1037.00,2129.00              1037.00,2129.00 1045.00,2129.00 1045.00,2129.00              1079.14,2128.95 1106.52,2101.15 1118.19,2071.00              1136.32,2024.18 1122.38,1959.79 1075.00,1935.76              1064.98,1930.67 1056.30,1928.02 1045.00,1928.14              1045.00,1928.14 1032.00,1928.14 1032.00,1928.14 Z" />
</svg>