<svg xmlns="http://www.w3.org/2000/svg" viewBox="5.49 5.65 1271.02 961.86">
  <path id="redhat" fill="#303030" stroke="none" stroke-width="1"
    d="M 649.00,6.43            C 662.27,4.79 686.81,10.82 700.00,14.58              730.84,23.37 761.02,33.79 791.00,45.19              834.91,61.90 878.66,80.33 920.00,102.69              942.99,115.13 964.15,127.19 981.83,147.00              1001.26,168.77 1007.31,206.98 1013.65,235.00              1013.65,235.00 1044.42,370.00 1044.42,370.00              1049.15,391.29 1056.74,416.38 1057.00,438.00              1057.00,438.00 1057.00,445.00 1057.00,445.00              1056.99,452.51 1055.61,462.77 1053.57,470.00              1036.37,530.97 964.07,551.12 908.00,556.00              908.00,556.00 877.00,558.00 877.00,558.00              877.00,558.00 862.00,559.00 862.00,559.00              862.00,559.00 841.00,559.00 841.00,559.00              841.00,559.00 831.00,558.04 831.00,558.04              831.00,558.04 815.00,558.04 815.00,558.04              815.00,558.04 804.00,557.04 804.00,557.04              768.13,555.47 731.24,550.05 696.00,543.00              590.16,521.84 479.95,477.27 392.00,414.42              363.49,394.05 332.81,369.12 310.61,342.00              302.49,332.07 290.77,315.76 288.23,303.00              287.85,299.61 287.98,295.48 288.23,292.00              288.09,280.45 291.41,273.76 295.00,263.00              295.00,263.00 311.00,217.00 311.00,217.00              311.00,217.00 330.31,162.00 330.31,162.00              340.58,133.13 354.72,87.02 369.60,62.00              380.57,43.56 394.88,28.06 416.00,21.72              425.51,18.87 432.28,18.89 442.00,19.00              478.08,19.43 517.01,55.56 554.00,56.00              564.91,56.12 574.32,54.58 584.00,49.13              608.57,35.28 618.95,11.37 649.00,6.43 Z            M 1070.00,483.00            C 1134.63,510.80 1195.51,552.18 1236.71,610.00              1258.29,640.29 1271.46,671.96 1275.17,709.00              1275.17,709.00 1276.00,718.00 1276.00,718.00              1276.23,738.38 1273.34,762.39 1267.71,782.00              1262.00,801.87 1253.79,820.74 1242.33,838.00              1227.26,860.71 1210.08,878.81 1188.00,894.85              1102.81,956.73 984.16,967.48 882.00,967.00              882.00,967.00 868.00,966.00 868.00,966.00              868.00,966.00 856.00,966.00 856.00,966.00              856.00,966.00 838.00,965.00 838.00,965.00              838.00,965.00 828.00,964.09 828.00,964.09              828.00,964.09 768.00,958.28 768.00,958.28              716.44,951.56 668.46,942.49 618.00,929.89              508.16,902.47 401.18,862.63 301.00,809.78              237.43,776.24 175.20,737.16 121.00,689.72              94.18,666.24 64.60,635.57 44.67,606.00              32.28,587.62 19.27,564.37 13.14,543.00              9.37,529.85 6.16,514.71 6.00,501.00              5.84,487.19 7.36,473.38 10.88,460.00              30.37,386.12 110.60,363.05 177.00,352.08              177.00,352.08 211.00,347.84 211.00,347.84              211.00,347.84 246.00,345.00 246.00,345.00              246.00,345.00 264.00,344.00 264.00,344.00              258.97,356.65 254.16,372.31 254.00,386.00              254.00,386.00 254.00,396.00 254.00,396.00              254.05,425.11 273.33,456.99 291.00,479.00              318.65,513.43 353.38,541.58 390.00,566.00              478.67,625.12 587.36,664.55 692.00,683.42              724.02,689.20 756.51,693.62 789.00,695.04              789.00,695.04 800.00,696.04 800.00,696.04              800.00,696.04 814.00,696.04 814.00,696.04              814.00,696.04 824.00,697.00 824.00,697.00              888.51,697.75 961.97,689.52 1018.00,655.19              1052.02,634.34 1077.83,601.61 1081.08,561.00              1081.44,556.51 1082.16,555.08 1081.96,550.00              1081.96,550.00 1077.42,520.00 1077.42,520.00              1077.42,520.00 1070.00,483.00 1070.00,483.00 Z" />
</svg>