<svg xmlns="http://www.w3.org/2000/svg" viewBox="-0.5 -0.36 2049 2048.86">
  <path id="Selection" fill="#303030" stroke="none" stroke-width="1" d="M 925.00,0.14            C 925.00,0.14 994.00,0.14 994.00,0.14              994.00,0.14 1119.00,0.14 1119.00,0.14              1134.18,0.18 1179.34,6.98 1196.00,9.75              1255.63,19.69 1314.08,34.98 1371.00,55.31              1655.83,157.00 1881.48,380.78 1987.05,664.00              2011.14,728.63 2029.22,797.74 2039.27,866.00              2041.88,883.69 2047.80,925.64 2048.00,942.00              2048.00,942.00 2048.00,1100.00 2048.00,1100.00              2048.00,1100.00 2045.17,1132.00 2045.17,1132.00              2041.95,1164.21 2036.90,1196.25 2030.55,1228.00              2002.24,1369.52 1940.87,1508.46 1855.85,1625.00              1829.39,1661.27 1800.67,1695.18 1770.09,1728.00              1770.09,1728.00 1739.00,1759.96 1739.00,1759.96              1690.42,1806.42 1637.55,1848.88 1581.00,1885.31              1552.09,1903.93 1522.21,1920.35 1492.00,1936.69              1492.00,1936.69 1468.00,1948.26 1468.00,1948.26              1430.00,1966.65 1391.05,1982.32 1351.00,1995.67              1279.16,2019.61 1205.34,2035.63 1130.00,2043.17              1130.00,2043.17 1093.00,2046.09 1093.00,2046.09              1093.00,2046.09 1081.00,2047.00 1081.00,2047.00              1081.00,2047.00 1064.00,2048.00 1064.00,2048.00              1064.00,2048.00 989.00,2048.00 989.00,2048.00              989.00,2048.00 967.00,2047.00 967.00,2047.00              967.00,2047.00 957.00,2046.09 957.00,2046.09              957.00,2046.09 911.00,2042.16 911.00,2042.16              859.03,2036.61 807.45,2026.81 757.00,2013.15              620.58,1976.21 493.04,1911.61 383.00,1822.80              356.80,1801.66 332.08,1779.51 308.00,1756.01              308.00,1756.01 299.17,1747.91 299.17,1747.91              201.97,1647.82 131.44,1544.73 77.42,1416.00              44.19,1336.81 21.97,1252.93 9.73,1168.00              9.73,1168.00 1.91,1091.00 1.91,1091.00              1.91,1091.00 1.00,1081.00 1.00,1081.00              1.00,1081.00 0.00,1059.00 0.00,1059.00              0.00,1059.00 0.00,985.00 0.00,985.00              0.00,985.00 1.00,970.00 1.00,970.00              1.00,970.00 4.83,917.00 4.83,917.00              9.99,865.41 18.93,814.17 32.12,764.00              51.94,688.57 79.35,615.05 115.78,546.00              214.11,359.61 363.61,210.11 550.00,111.78              631.70,68.68 727.39,34.60 818.00,16.45              818.00,16.45 891.00,4.28 891.00,4.28              891.00,4.28 925.00,0.14 925.00,0.14 Z            M 1338.00,437.28            C 1338.00,437.28 1324.00,438.09 1324.00,438.09              1324.00,438.09 1305.00,440.43 1305.00,440.43              1275.67,445.36 1242.98,458.36 1222.04,480.00              1210.03,492.41 1199.23,507.08 1192.43,523.00              1183.51,543.86 1181.45,566.64 1179.91,589.00              1179.91,589.00 1179.00,605.00 1179.00,605.00              1179.00,605.00 1178.00,620.00 1178.00,620.00              1178.00,620.00 1178.00,641.00 1178.00,641.00              1178.00,641.00 1177.00,660.00 1177.00,660.00              1177.00,660.00 1178.00,675.00 1178.00,675.00              1178.04,698.41 1179.80,721.99 1184.40,745.00              1190.43,775.13 1202.31,807.91 1226.00,828.71              1251.33,850.96 1286.73,862.66 1320.00,865.96              1320.00,865.96 1330.00,865.96 1330.00,865.96              1330.00,865.96 1338.00,866.96 1338.00,866.96              1338.00,866.96 1356.00,866.00 1356.00,866.00              1368.40,865.94 1389.74,861.95 1402.00,858.87              1432.01,851.34 1460.45,837.31 1480.38,813.00              1502.91,785.53 1509.73,748.36 1513.17,714.00              1513.17,714.00 1515.09,687.00 1515.09,687.00              1515.09,687.00 1516.00,676.00 1516.00,676.00              1516.05,665.36 1517.50,650.45 1509.67,642.19              1501.70,633.77 1488.51,634.63 1478.00,633.91              1478.00,633.91 1466.00,633.00 1466.00,633.00              1466.00,633.00 1444.00,634.00 1444.00,634.00              1444.00,634.00 1417.00,634.00 1417.00,634.00              1417.00,634.00 1405.00,634.96 1405.00,634.96              1405.00,634.96 1391.00,634.96 1391.00,634.96              1382.97,635.10 1362.83,636.39 1358.01,643.21              1355.21,647.16 1355.01,654.29 1355.00,659.00              1354.99,665.14 1354.40,676.96 1358.51,681.78              1363.22,687.30 1380.89,686.92 1388.00,687.00              1395.60,687.09 1416.69,689.19 1424.00,690.89              1429.56,692.17 1434.78,693.75 1438.70,698.10              1447.15,707.20 1441.29,726.34 1438.70,737.00              1436.57,745.24 1434.33,753.54 1430.13,761.00              1414.79,788.21 1383.12,805.63 1352.00,806.00              1339.33,806.14 1327.22,805.48 1315.00,801.65              1292.30,794.54 1271.71,779.93 1261.32,758.00              1253.65,741.81 1253.11,723.52 1251.91,706.00              1251.91,706.00 1251.00,694.00 1251.00,694.00              1251.00,694.00 1250.00,671.00 1250.00,671.00              1250.00,671.00 1250.00,625.00 1250.00,625.00              1250.00,625.00 1251.00,610.00 1251.00,610.00              1251.03,592.47 1252.93,565.11 1259.45,549.00              1274.22,512.53 1311.23,494.56 1349.00,495.00              1371.06,495.26 1394.75,504.50 1412.00,518.01              1420.75,524.87 1435.07,542.15 1445.00,544.47              1449.76,545.58 1455.38,544.00 1460.00,542.71              1467.79,540.52 1477.92,537.46 1485.00,533.74              1489.13,531.56 1493.27,528.77 1494.57,524.00              1496.20,518.04 1493.69,512.06 1490.77,507.00              1485.20,497.33 1477.91,488.82 1470.00,481.00              1443.74,455.04 1393.71,438.19 1357.00,438.00              1348.94,437.96 1346.91,436.46 1338.00,437.28 Z            M 714.00,690.14            C 714.00,690.14 650.00,691.00 650.00,691.00              650.00,691.00 635.00,692.00 635.00,692.00              635.00,692.00 599.00,692.00 599.00,692.00              599.00,692.00 584.00,693.00 584.00,693.00              584.00,693.00 553.00,693.00 553.00,693.00              553.00,693.00 538.00,694.00 538.00,694.00              538.00,694.00 520.00,694.00 520.00,694.00              520.00,694.00 505.00,695.00 505.00,695.00              505.00,695.00 498.00,695.00 498.00,695.00              490.18,695.01 466.73,696.78 460.00,699.40              452.58,702.29 449.97,710.85 453.09,718.00              456.46,725.72 467.51,730.06 475.00,732.66              475.00,732.66 511.00,741.58 511.00,741.58              518.91,743.32 527.27,744.79 534.00,749.63              544.03,756.85 547.36,768.54 549.79,780.00              552.94,794.89 554.98,821.64 555.00,837.00              555.00,837.00 556.00,854.00 556.00,854.00              556.00,854.00 556.00,880.00 556.00,880.00              556.00,880.00 557.00,897.00 557.00,897.00              557.00,897.00 557.00,1006.00 557.00,1006.00              557.00,1006.00 558.00,1021.00 558.00,1021.00              558.00,1021.00 558.00,1330.00 558.00,1330.00              558.00,1330.00 557.00,1347.00 557.00,1347.00              556.98,1358.48 557.39,1369.97 553.45,1381.00              548.97,1393.56 538.57,1404.34 527.00,1410.69              506.42,1421.99 489.79,1420.63 470.00,1427.70              459.32,1431.51 451.54,1436.69 452.04,1449.00              452.18,1452.57 452.92,1457.01 455.43,1459.73              458.06,1462.57 462.34,1463.43 466.00,1464.08              466.00,1464.08 490.00,1466.00 490.00,1466.00              490.00,1466.00 664.00,1466.00 664.00,1466.00              664.00,1466.00 679.00,1465.00 679.00,1465.00              679.00,1465.00 730.00,1465.00 730.00,1465.00              730.00,1465.00 753.00,1464.00 753.00,1464.00              759.06,1463.99 771.99,1462.80 778.00,1461.75              781.54,1461.13 785.91,1460.45 788.78,1458.15              791.54,1455.93 792.52,1452.41 792.81,1449.00              793.03,1446.47 792.66,1444.47 792.25,1442.00              790.16,1429.60 780.71,1429.39 770.00,1427.59              753.64,1424.84 724.74,1420.57 710.00,1415.30              682.44,1405.46 676.98,1385.24 673.85,1359.00              673.85,1359.00 672.00,1338.00 672.00,1338.00              672.00,1338.00 671.00,1322.00 671.00,1322.00              671.00,1322.00 671.00,1304.00 671.00,1304.00              671.00,1304.00 670.00,1287.00 670.00,1287.00              670.00,1287.00 670.00,1243.00 670.00,1243.00              670.00,1243.00 669.00,1228.00 669.00,1228.00              669.00,1228.00 669.00,1158.00 669.00,1158.00              669.00,1158.00 669.83,1149.00 669.83,1149.00              670.87,1138.61 671.98,1125.62 683.00,1120.65              687.88,1118.45 697.46,1118.94 703.00,1119.00              703.00,1119.00 713.00,1119.91 713.00,1119.91              713.00,1119.91 737.00,1121.83 737.00,1121.83              747.25,1122.82 757.78,1123.30 767.00,1128.52              780.66,1136.27 792.74,1155.15 801.72,1168.00              801.72,1168.00 860.42,1254.00 860.42,1254.00              893.38,1300.57 926.44,1347.68 965.96,1389.00              965.96,1389.00 975.01,1398.96 975.01,1398.96              995.18,1418.72 1017.85,1437.15 1043.00,1450.22              1063.38,1460.80 1085.61,1466.72 1108.00,1471.20              1118.75,1473.35 1142.46,1476.87 1153.00,1477.00              1153.00,1477.00 1180.00,1477.00 1180.00,1477.00              1191.14,1476.98 1212.27,1473.64 1220.98,1466.61              1227.31,1461.51 1231.44,1451.76 1227.55,1444.00              1222.56,1434.07 1204.13,1429.01 1194.00,1426.14              1172.86,1420.15 1155.06,1412.33 1137.00,1399.58              1102.88,1375.47 1078.05,1349.36 1049.91,1319.00              1011.90,1277.99 976.79,1234.17 943.85,1189.00              943.85,1189.00 905.67,1134.00 905.67,1134.00              905.67,1134.00 896.31,1119.00 896.31,1119.00              895.32,1117.17 893.65,1114.16 893.99,1112.04              894.71,1107.54 905.08,1103.11 909.00,1101.31              926.64,1093.21 937.92,1090.58 956.00,1079.80              1002.18,1052.25 1038.10,1018.85 1061.74,970.00              1068.17,956.73 1074.46,937.55 1076.92,923.00              1081.17,897.82 1081.34,873.94 1075.11,849.00              1063.51,802.62 1035.78,768.01 998.00,739.63              985.69,730.38 974.04,722.75 960.00,716.31              931.36,703.16 900.11,697.94 869.00,694.83              869.00,694.83 844.00,692.91 844.00,692.91              844.00,692.91 832.00,692.00 832.00,692.00              832.00,692.00 811.00,691.00 811.00,691.00              811.00,691.00 784.00,691.00 784.00,691.00              784.00,691.00 767.00,690.14 767.00,690.14              767.00,690.14 714.00,690.14 714.00,690.14 Z            M 719.00,752.21            C 719.00,752.21 774.00,752.21 774.00,752.21              796.61,752.00 822.97,751.02 845.00,755.45              861.66,758.80 886.00,769.46 900.00,779.03              911.77,787.07 922.39,796.71 931.11,808.00              947.49,829.19 959.96,861.00 960.00,888.00              960.00,888.00 960.00,907.00 960.00,907.00              959.91,914.25 958.03,924.84 956.42,932.00              948.26,968.48 926.97,1001.66 897.00,1024.11              884.30,1033.62 868.15,1042.80 853.00,1047.66              837.75,1052.54 814.20,1055.43 798.00,1057.16              798.00,1057.16 770.00,1060.00 770.00,1060.00              770.00,1060.00 761.00,1060.00 761.00,1060.00              761.00,1060.00 749.00,1061.00 749.00,1061.00              749.00,1061.00 714.00,1061.00 714.00,1061.00              702.62,1060.98 694.44,1061.16 683.00,1059.25              679.52,1058.66 674.24,1057.82 672.17,1054.61              670.91,1052.65 670.01,1036.25 670.00,1033.00              670.00,1033.00 670.00,893.00 670.00,893.00              670.00,893.00 671.00,878.00 671.00,878.00              671.00,878.00 671.00,840.00 671.00,840.00              671.00,840.00 672.00,819.00 672.00,819.00              672.00,819.00 672.91,809.00 672.91,809.00              674.04,793.58 676.56,770.53 690.00,760.79              699.33,754.03 708.27,753.96 719.00,752.21 Z"/>
</svg>