<svg xmlns="http://www.w3.org/2000/svg" viewBox="451.69 437.71 1064.07 1039.79">
  <path id="researchgate-alt" fill="#303030" stroke="none" stroke-width="1"
    d="M 1328.00,438.21            C 1328.00,438.21 1350.00,438.21 1350.00,438.21              1350.00,438.21 1362.00,438.91 1362.00,438.91              1396.87,441.35 1435.74,452.62 1463.00,475.28              1472.92,483.53 1481.32,493.13 1488.30,504.00              1490.95,508.12 1494.84,515.03 1494.82,520.00              1494.79,525.79 1490.68,529.86 1486.00,532.65              1478.71,536.99 1456.36,544.34 1448.00,543.96              1439.29,543.57 1432.83,536.80 1427.00,531.00              1418.80,522.84 1413.84,518.03 1404.00,511.69              1388.18,501.50 1371.70,496.28 1353.00,494.91              1353.00,494.91 1346.00,494.18 1346.00,494.18              1346.00,494.18 1339.00,494.91 1339.00,494.91              1318.42,496.41 1297.63,503.22 1282.00,517.17              1255.28,541.03 1252.42,565.39 1250.96,599.00              1250.96,599.00 1250.00,612.00 1250.00,612.00              1250.00,612.00 1250.00,629.00 1250.00,629.00              1250.00,629.00 1249.00,651.00 1249.00,651.00              1249.00,651.00 1250.00,664.00 1250.00,664.00              1250.00,664.00 1250.00,687.00 1250.00,687.00              1250.00,687.00 1250.91,699.00 1250.91,699.00              1250.91,699.00 1251.83,714.00 1251.83,714.00              1252.76,723.66 1253.05,733.53 1255.48,743.00              1260.67,763.29 1273.35,780.08 1291.00,791.31              1297.63,795.52 1307.46,800.01 1315.00,802.28              1324.39,805.11 1338.20,807.11 1348.00,807.00              1380.16,806.63 1412.81,791.09 1429.55,763.00              1434.58,754.55 1436.16,748.20 1438.71,739.00              1441.79,727.88 1447.90,707.75 1439.61,698.10              1435.71,693.57 1429.59,691.77 1424.00,690.37              1412.81,687.59 1401.39,687.69 1390.00,686.91              1390.00,686.91 1382.00,686.04 1382.00,686.04              1374.51,685.71 1361.25,686.92 1357.43,678.98              1355.90,675.80 1356.01,671.47 1356.00,668.00              1355.99,661.59 1354.83,648.14 1358.70,643.21              1363.15,637.54 1379.02,636.09 1386.00,636.00              1386.00,636.00 1404.00,635.00 1404.00,635.00              1404.00,635.00 1422.00,635.00 1422.00,635.00              1422.00,635.00 1439.00,634.00 1439.00,634.00              1439.00,634.00 1488.00,634.93 1488.00,634.93              1497.00,635.76 1506.74,637.53 1511.78,646.00              1516.46,653.89 1515.11,674.33 1515.00,684.00              1515.00,684.00 1514.09,694.00 1514.09,694.00              1514.09,694.00 1512.16,718.00 1512.16,718.00              1508.20,755.05 1499.94,791.77 1473.83,819.99              1440.17,856.36 1378.29,866.55 1331.00,866.00              1315.39,865.81 1296.03,861.71 1281.00,857.42              1266.95,853.41 1254.42,847.89 1242.00,840.19              1213.11,822.28 1198.39,794.67 1189.29,763.00              1178.24,724.53 1177.53,675.07 1178.00,635.00              1178.00,635.00 1179.00,620.00 1179.00,620.00              1179.00,620.00 1179.00,609.00 1179.00,609.00              1179.00,609.00 1179.91,599.00 1179.91,599.00              1179.91,599.00 1180.83,584.00 1180.83,584.00              1183.95,551.41 1186.47,527.82 1206.04,500.00              1224.92,473.14 1250.53,455.41 1282.00,446.43              1294.38,442.89 1305.24,440.80 1318.00,439.28              1318.00,439.28 1328.00,438.21 1328.00,438.21 Z            M 679.00,691.14            C 679.00,691.14 719.00,691.14 719.00,691.14              719.00,691.14 794.00,691.14 794.00,691.14              794.00,691.14 809.00,692.00 809.00,692.00              847.43,692.06 904.90,696.86 941.00,709.34              967.65,718.56 988.65,731.49 1010.00,749.87              1010.00,749.87 1026.96,765.01 1026.96,765.01              1047.14,785.60 1062.41,810.63 1071.33,838.00              1078.79,860.88 1079.04,875.54 1079.00,899.00              1078.98,912.42 1075.70,928.10 1072.00,941.00              1056.38,995.42 1021.29,1034.05 976.00,1066.42              951.96,1083.60 938.97,1087.87 913.00,1099.00              908.51,1100.93 893.68,1106.95 893.23,1112.04              892.90,1115.82 902.54,1130.26 905.00,1134.00              905.00,1134.00 941.71,1187.00 941.71,1187.00              974.85,1233.30 1014.16,1281.33 1052.91,1323.00              1075.41,1347.19 1103.09,1376.32 1130.00,1395.28              1153.82,1412.06 1168.09,1419.27 1196.00,1427.29              1206.16,1430.21 1223.73,1435.36 1227.99,1446.00              1231.07,1453.68 1225.06,1463.03 1219.00,1467.36              1209.07,1474.48 1184.28,1476.98 1172.00,1477.00              1172.00,1477.00 1162.00,1477.00 1162.00,1477.00              1162.00,1477.00 1152.00,1476.09 1152.00,1476.09              1111.08,1473.29 1069.98,1465.17 1034.00,1444.57              997.87,1423.89 967.19,1391.72 940.75,1360.00              906.65,1319.08 876.20,1275.62 845.72,1232.00              845.72,1232.00 804.34,1171.00 804.34,1171.00              796.56,1159.56 785.31,1142.57 774.99,1133.75              761.51,1122.25 749.69,1122.06 733.00,1120.91              733.00,1120.91 715.00,1119.00 715.00,1119.00              715.00,1119.00 706.00,1119.00 706.00,1119.00              694.29,1117.72 681.32,1116.11 674.22,1128.00              669.01,1136.73 669.57,1147.30 668.91,1157.00              668.91,1157.00 668.00,1168.00 668.00,1168.00              668.00,1168.00 668.00,1200.00 668.00,1200.00              668.00,1200.00 669.00,1217.00 669.00,1217.00              669.00,1217.00 669.00,1265.00 669.00,1265.00              669.00,1265.00 670.00,1281.00 670.00,1281.00              670.00,1281.00 670.00,1309.00 670.00,1309.00              670.00,1309.00 671.00,1325.00 671.00,1325.00              671.08,1342.98 673.33,1374.98 680.89,1391.00              683.62,1396.80 688.07,1402.58 693.00,1406.67              708.09,1419.20 740.56,1423.33 760.00,1426.59              767.87,1427.91 785.56,1429.20 789.91,1436.10              791.40,1438.46 791.83,1441.27 791.96,1444.00              792.13,1447.49 792.38,1452.90 790.26,1455.79              785.89,1461.76 766.22,1462.99 759.00,1463.00              759.00,1463.00 742.00,1464.00 742.00,1464.00              742.00,1464.00 712.00,1464.00 712.00,1464.00              712.00,1464.00 696.00,1465.00 696.00,1465.00              696.00,1465.00 599.00,1465.00 599.00,1465.00              599.00,1465.00 584.00,1466.00 584.00,1466.00              584.00,1466.00 509.00,1466.00 509.00,1466.00              509.00,1466.00 497.00,1465.04 497.00,1465.04              497.00,1465.04 484.00,1465.04 484.00,1465.04              484.00,1465.04 473.00,1464.17 473.00,1464.17              464.12,1463.28 455.48,1463.55 453.02,1453.00              452.41,1450.41 451.94,1447.66 452.34,1445.00              452.68,1442.75 453.75,1439.94 454.99,1438.04              459.52,1431.08 471.26,1427.61 479.00,1425.63              498.24,1420.70 511.74,1420.44 530.00,1409.55              543.70,1401.37 553.02,1388.62 556.33,1373.00              557.45,1367.74 556.70,1364.88 557.17,1360.00              557.17,1360.00 558.00,1323.00 558.00,1323.00              558.00,1323.00 559.00,1306.00 559.00,1306.00              559.00,1306.00 559.00,1090.00 559.00,1090.00              559.00,1090.00 558.00,1075.00 558.00,1075.00              558.00,1075.00 558.00,928.00 558.00,928.00              558.00,928.00 557.00,913.00 557.00,913.00              557.00,913.00 557.00,869.00 557.00,869.00              557.00,869.00 556.00,854.00 556.00,854.00              556.00,854.00 556.00,838.00 556.00,838.00              556.00,838.00 555.00,824.00 555.00,824.00              555.00,824.00 554.04,809.00 554.04,809.00              554.04,809.00 552.13,791.00 552.13,791.00              549.76,773.97 546.80,755.43 530.00,746.63              522.91,742.92 516.59,742.24 509.00,740.58              509.00,740.58 475.00,732.00 475.00,732.00              467.71,729.51 458.25,726.04 454.28,719.00              451.04,713.26 451.83,704.24 458.10,700.92              463.75,697.92 483.19,696.03 490.00,696.00              490.00,696.00 494.00,696.00 494.00,696.00              494.00,696.00 509.00,695.00 509.00,695.00              509.00,695.00 523.00,695.00 523.00,695.00              523.00,695.00 538.00,694.00 538.00,694.00              538.00,694.00 562.00,694.00 562.00,694.00              562.00,694.00 579.00,693.00 579.00,693.00              579.00,693.00 613.00,693.00 613.00,693.00              613.00,693.00 630.00,692.00 630.00,692.00              630.00,692.00 679.00,691.14 679.00,691.14 Z            M 726.00,751.10            C 711.95,753.30 695.97,752.21 685.47,764.09              677.79,772.79 675.32,784.88 673.73,796.00              671.83,809.26 671.02,822.61 671.00,836.00              671.00,836.00 670.00,853.00 670.00,853.00              670.00,853.00 670.00,911.00 670.00,911.00              670.00,911.00 669.00,928.00 669.00,928.00              669.00,928.00 669.00,978.00 669.00,978.00              669.00,978.00 669.00,1019.00 669.00,1019.00              669.00,1019.00 670.00,1036.00 670.00,1036.00              670.01,1041.66 668.90,1052.49 673.30,1056.49              675.86,1058.82 680.67,1059.53 684.00,1060.00              684.00,1060.00 705.00,1062.00 705.00,1062.00              705.00,1062.00 741.00,1062.00 741.00,1062.00              741.00,1062.00 758.00,1061.00 758.00,1061.00              758.00,1061.00 794.00,1058.17 794.00,1058.17              812.79,1056.29 837.22,1053.57 855.00,1047.65              869.08,1042.95 887.29,1032.42 899.00,1023.34              964.34,972.63 983.30,873.76 930.99,807.00              922.17,795.75 909.96,784.92 898.00,777.08              884.75,768.39 860.57,757.97 845.00,754.81              838.07,753.40 827.02,752.01 820.00,752.00              820.00,752.00 801.00,751.10 801.00,751.10              801.00,751.10 776.00,751.10 776.00,751.10              776.00,751.10 726.00,751.10 726.00,751.10 Z" />
</svg>