<svg xmlns="http://www.w3.org/2000/svg" viewBox="827.5 198.5 165.31 166.01">
  <path id="rotten-tomatoes" fill="#303030" stroke="none" stroke-width="1"
    d="M 857.00,207.00            C 857.00,207.00 869.00,199.00 869.00,199.00              869.00,199.00 879.00,215.00 879.00,215.00              881.42,211.60 883.61,208.30 887.04,205.80              893.83,200.83 906.63,199.42 911.00,208.00              905.71,209.85 904.56,211.74 903.00,217.00              903.00,217.00 919.00,216.00 919.00,216.00              931.45,215.99 947.23,219.07 958.00,225.45              995.20,247.50 1003.76,300.21 975.70,333.00              956.27,355.70 930.06,364.34 901.00,364.00              860.48,363.52 828.06,332.94 828.00,292.00              827.99,283.97 828.57,277.73 831.03,270.00              836.11,254.01 844.70,245.68 857.00,235.00              857.00,235.00 837.00,237.00 837.00,237.00              839.02,227.07 848.57,220.82 858.00,218.68              858.00,218.68 868.00,217.00 868.00,217.00              868.00,217.00 857.00,209.00 857.00,209.00              857.00,209.00 857.00,207.00 857.00,207.00 Z            M 869.00,218.00            C 869.00,218.00 868.00,218.00 868.00,218.00              868.00,218.00 869.00,219.00 869.00,219.00              869.00,219.00 869.00,218.00 869.00,218.00 Z" />
</svg>