<svg xmlns="http://www.w3.org/2000/svg" viewBox="-0.5 -0.5 1281.03 366.01">
  <path id="rotten-tomatoes-wordmark" fill="#303030" stroke="none" stroke-width="1"
    d="M 177.00,0.00            C 177.00,0.00 247.00,0.00 247.00,0.00              269.83,0.00 291.09,-0.40 311.00,13.22              335.75,30.15 342.36,63.60 333.33,91.00              329.13,103.75 318.83,118.09 306.00,123.00              306.00,123.00 330.80,164.00 330.80,164.00              330.80,164.00 346.00,191.00 346.00,191.00              346.00,191.00 288.00,191.00 288.00,191.00              278.20,190.98 279.72,190.27 271.20,176.00              271.20,176.00 251.99,143.00 251.99,143.00              244.40,130.08 245.21,129.04 235.00,129.00              235.00,129.00 235.00,191.00 235.00,191.00              235.00,191.00 177.00,191.00 177.00,191.00              177.00,191.00 177.00,0.00 177.00,0.00 Z            M 519.00,5.00            C 519.00,5.00 577.00,5.00 577.00,5.00              577.00,5.00 577.00,45.00 577.00,45.00              577.00,45.00 600.00,45.00 600.00,45.00              600.00,45.00 600.00,96.00 600.00,96.00              600.00,96.00 577.00,96.00 577.00,96.00              577.00,96.00 577.00,127.00 577.00,127.00              577.05,130.68 577.27,134.77 579.70,137.77              582.46,141.19 586.03,140.98 590.00,141.00              604.14,141.07 605.84,139.76 606.00,148.00              606.00,148.00 606.00,179.00 606.00,179.00              606.00,181.54 606.44,188.55 604.98,190.40              603.51,192.26 600.13,191.98 598.00,192.24              598.00,192.24 582.00,192.24 582.00,192.24              577.45,192.78 564.63,191.61 560.00,190.58              553.71,189.17 548.67,187.29 543.00,184.21              519.59,171.47 519.00,148.24 519.00,125.00              519.00,125.00 519.00,96.00 519.00,96.00              519.00,96.00 504.00,96.00 504.00,96.00              504.00,96.00 504.00,45.00 504.00,45.00              504.00,45.00 519.00,45.00 519.00,45.00              519.00,45.00 519.00,5.00 519.00,5.00 Z            M 625.00,6.00            C 625.00,6.00 683.00,6.00 683.00,6.00              683.00,6.00 683.00,45.00 683.00,45.00              683.00,45.00 706.00,45.00 706.00,45.00              706.00,45.00 706.00,96.00 706.00,96.00              706.00,96.00 683.00,96.00 683.00,96.00              683.00,96.00 683.00,127.00 683.00,127.00              683.06,131.31 683.44,136.44 687.22,139.26              691.03,142.10 706.67,141.00 712.00,141.00              712.00,141.00 712.00,192.00 712.00,192.00              712.00,192.00 685.00,193.00 685.00,193.00              679.07,192.93 667.74,191.41 662.00,189.84              657.48,188.61 651.98,186.38 648.00,183.93              625.63,170.20 625.00,148.29 625.00,125.00              625.00,125.00 625.00,96.00 625.00,96.00              625.00,96.00 610.00,96.00 610.00,96.00              610.00,96.00 610.00,45.00 610.00,45.00              610.00,45.00 625.00,45.00 625.00,45.00              625.00,45.00 625.00,6.00 625.00,6.00 Z            M 768.00,98.00            C 773.79,115.44 796.92,117.74 812.00,112.64              819.81,110.00 822.49,105.11 826.00,105.18              828.18,105.22 830.41,107.41 832.00,108.74              832.00,108.74 846.00,121.96 846.00,121.96              849.06,124.89 859.80,133.03 859.80,137.00              859.80,141.46 848.72,148.63 845.00,150.69              825.90,161.24 811.17,162.10 790.00,162.00              752.15,161.82 716.47,133.48 716.00,94.00              715.71,69.27 717.67,50.37 735.17,31.00              748.07,16.73 765.28,10.28 784.00,8.91              784.00,8.91 791.00,8.18 791.00,8.18              791.00,8.18 798.00,8.91 798.00,8.91              817.18,10.25 831.61,15.22 844.83,30.00              856.59,43.15 861.82,58.69 863.09,76.00              863.34,79.42 864.07,81.45 863.82,85.00              863.82,85.00 863.00,98.00 863.00,98.00              863.00,98.00 768.00,98.00 768.00,98.00 Z            M 411.00,41.42            C 433.44,38.69 464.01,46.25 479.83,63.04              504.34,89.04 506.58,138.91 484.48,167.00              472.39,182.38 454.15,191.13 435.00,193.71              410.90,196.96 382.09,192.98 363.00,176.70              355.93,170.67 349.54,163.34 345.37,155.00              339.96,144.18 338.72,135.79 337.91,124.00              336.13,97.96 343.51,73.89 365.00,57.50              380.29,45.85 392.86,44.06 411.00,41.42 Z            M 931.00,59.00            C 935.02,54.58 937.81,51.66 943.00,48.47              967.51,33.37 1002.89,41.93 1014.96,69.00              1023.39,87.90 1022.00,103.11 1022.00,123.00              1022.00,123.00 1022.00,191.00 1022.00,191.00              1022.00,191.00 963.00,191.00 963.00,191.00              963.00,191.00 963.00,113.00 963.00,113.00              962.99,107.05 962.63,101.71 957.79,97.42              951.81,92.11 938.09,92.17 933.56,104.00              930.27,112.60 931.00,126.66 931.00,136.00              931.00,136.00 931.00,191.00 931.00,191.00              931.00,191.00 872.00,191.00 872.00,191.00              872.00,191.00 872.00,45.00 872.00,45.00              872.00,45.00 931.00,45.00 931.00,45.00              931.00,45.00 931.00,59.00 931.00,59.00 Z            M 235.00,84.00            C 244.11,84.00 257.87,85.10 266.00,81.47              279.09,75.64 281.45,56.97 268.99,49.21              259.94,43.58 245.46,45.00 235.00,45.00              235.00,45.00 235.00,84.00 235.00,84.00 Z            M 812.00,69.00            C 810.36,63.50 809.51,60.23 804.96,56.22              795.90,48.25 780.05,50.28 772.21,59.04              769.32,62.28 768.39,65.03 767.00,69.00              767.00,69.00 812.00,69.00 812.00,69.00 Z            M 408.00,66.39            C 405.35,66.82 403.41,67.20 401.02,68.56              399.35,69.50 397.86,70.65 396.70,72.18              395.63,73.60 394.94,75.28 394.53,77.00              391.47,89.81 406.62,92.02 408.53,101.00              409.90,107.47 403.21,110.47 398.04,107.69              394.02,105.52 392.62,101.31 389.67,98.10              384.55,92.52 374.87,90.61 369.70,97.21              364.06,104.40 370.03,111.64 377.00,114.52              377.00,114.52 387.00,117.39 387.00,117.39              389.30,118.22 392.69,119.76 393.68,122.18              395.70,127.14 389.19,127.94 386.00,128.00              379.28,128.12 373.03,127.42 368.85,134.04              363.47,142.58 371.48,152.99 381.00,151.77              388.48,150.82 391.29,144.19 396.04,140.39              398.39,138.51 401.76,136.61 404.57,138.78              408.31,141.67 406.41,147.30 405.42,151.00              403.53,158.11 404.22,164.78 412.00,167.85              413.85,168.58 416.02,168.94 418.00,168.77              419.68,168.63 421.42,168.12 422.91,167.31              431.33,162.73 428.93,155.87 425.96,149.00              424.37,145.33 423.41,140.27 428.11,138.31              431.84,136.75 435.02,140.50 437.12,143.04              442.13,149.13 445.23,154.38 453.00,157.52              461.44,160.93 471.02,158.20 471.89,148.00              473.27,131.97 456.97,130.99 446.00,128.32              441.60,127.26 433.96,123.82 435.66,118.02              437.87,110.41 447.24,111.70 453.00,110.79              459.38,109.78 463.23,104.23 463.53,98.00              463.62,96.24 463.22,93.67 462.66,92.00              461.74,89.29 460.22,87.19 457.96,85.43              452.55,81.24 443.77,82.83 439.65,88.11              437.05,91.43 436.33,96.06 434.73,99.00              432.71,102.70 428.32,106.52 423.85,104.53              417.28,101.60 418.08,95.71 419.47,90.00              421.47,81.81 423.32,72.03 414.00,67.57              411.67,66.46 410.46,66.46 408.00,66.39 Z            M 0.00,169.00            C 0.00,169.00 155.00,169.00 155.00,169.00              155.00,169.00 155.00,225.00 155.00,225.00              155.00,225.00 106.00,225.00 106.00,225.00              106.00,225.00 106.00,361.00 106.00,361.00              106.00,361.00 49.00,361.00 49.00,361.00              49.00,361.00 49.00,225.00 49.00,225.00              49.00,225.00 0.00,225.00 0.00,225.00              0.00,225.00 0.00,169.00 0.00,169.00 Z            M 733.00,175.00            C 733.00,175.00 784.00,175.00 784.00,175.00              792.13,175.06 791.98,176.27 792.00,184.00              792.00,184.00 792.00,215.00 792.00,215.00              792.00,215.00 814.00,215.00 814.00,215.00              814.00,215.00 814.00,266.00 814.00,266.00              814.00,266.00 792.00,266.00 792.00,266.00              792.00,266.00 792.00,299.00 792.00,299.00              792.03,303.33 792.09,306.66 796.06,309.40              799.91,312.07 814.73,311.00 820.00,311.00              820.00,311.00 820.00,361.78 820.00,361.78              805.33,362.00 793.84,363.89 779.00,361.78              772.86,360.60 766.62,358.86 761.00,356.22              734.36,343.68 733.00,320.78 733.00,295.00              733.00,295.00 733.00,266.00 733.00,266.00              733.00,266.00 718.00,266.00 718.00,266.00              718.00,266.00 718.00,215.00 718.00,215.00              718.00,215.00 733.00,215.00 733.00,215.00              733.00,215.00 733.00,175.00 733.00,175.00 Z            M 857.00,207.00            C 857.00,207.00 869.00,199.00 869.00,199.00              869.00,199.00 879.00,215.00 879.00,215.00              881.42,211.60 883.61,208.30 887.04,205.80              893.83,200.83 906.63,199.42 911.00,208.00              905.71,209.85 904.56,211.74 903.00,217.00              903.00,217.00 919.00,216.00 919.00,216.00              931.45,215.99 947.23,219.07 958.00,225.45              995.20,247.50 1003.76,300.21 975.70,333.00              956.27,355.70 930.06,364.34 901.00,364.00              860.48,363.52 828.06,332.94 828.00,292.00              827.99,283.97 828.57,277.73 831.03,270.00              836.11,254.01 844.70,245.68 857.00,235.00              857.00,235.00 837.00,237.00 837.00,237.00              839.02,227.07 848.57,220.82 858.00,218.68              858.00,218.68 868.00,217.00 868.00,217.00              868.00,217.00 857.00,209.00 857.00,209.00              857.00,209.00 857.00,207.00 857.00,207.00 Z            M 207.00,211.64            C 214.03,210.57 220.04,211.01 227.00,211.64              249.08,214.48 268.48,222.11 281.79,241.00              299.69,266.40 299.58,309.92 281.08,335.00              269.43,350.78 250.36,361.16 231.00,363.71              207.23,366.84 179.81,362.73 161.00,346.70              154.77,341.39 148.27,334.20 144.31,327.00              127.68,296.71 133.04,250.66 161.00,228.67              176.05,216.83 188.74,214.18 207.00,211.64 Z            M 360.00,226.00            C 363.05,223.02 365.31,220.74 369.00,218.47              382.40,210.20 402.11,209.22 417.00,213.43              426.19,216.02 435.76,221.03 440.00,230.00              446.07,223.93 449.92,219.40 458.00,215.87              466.01,212.38 475.32,211.43 484.00,211.74              506.64,212.57 523.66,221.06 532.55,243.00              539.38,259.87 538.00,274.36 538.00,292.00              538.00,292.00 538.00,361.00 538.00,361.00              538.00,361.00 479.00,361.00 479.00,361.00              479.00,361.00 479.00,286.00 479.00,286.00              478.98,274.68 475.57,261.61 461.00,264.23              450.30,266.15 449.01,279.27 449.00,288.00              449.00,288.00 449.00,361.00 449.00,361.00              449.00,361.00 398.00,361.00 398.00,361.00              389.87,360.94 390.02,359.73 390.00,352.00              390.00,352.00 390.00,283.00 390.00,283.00              389.98,272.55 386.59,263.03 374.00,264.11              362.58,265.09 361.01,275.78 361.00,285.00              361.00,285.00 361.00,342.00 361.00,342.00              361.00,345.48 361.92,357.99 359.40,359.98              357.81,361.23 353.99,361.00 352.00,361.00              352.00,361.00 304.00,361.00 304.00,361.00              304.00,361.00 304.00,215.00 304.00,215.00              304.00,215.00 360.00,215.00 360.00,215.00              360.00,215.00 360.00,226.00 360.00,226.00 Z            M 650.00,346.00            C 646.62,352.81 637.91,358.16 631.00,360.99              607.61,370.55 580.25,361.07 564.62,342.00              543.86,316.68 541.20,273.39 557.04,245.00              571.07,219.85 601.77,203.42 630.00,214.46              639.78,218.29 643.78,222.78 651.00,230.00              651.00,230.00 651.00,215.00 651.00,215.00              651.00,215.00 708.00,215.00 708.00,215.00              708.00,215.00 708.00,361.00 708.00,361.00              708.00,361.00 651.00,361.00 651.00,361.00              651.00,361.00 650.00,346.00 650.00,346.00 Z            M 1050.00,300.00            C 1052.29,303.96 1053.58,306.61 1057.04,309.82              1066.77,318.83 1082.98,319.25 1095.00,315.25              1104.14,312.21 1105.62,306.24 1110.00,307.34              1112.39,307.94 1117.09,313.11 1119.00,315.00              1119.00,315.00 1137.00,331.99 1137.00,331.99              1139.25,334.19 1144.12,337.51 1142.83,341.03              1141.53,344.60 1133.32,350.17 1130.00,352.30              1115.40,361.69 1094.17,365.20 1077.00,365.00              1044.65,364.62 1013.88,349.11 1003.00,317.00              1000.72,310.25 999.09,303.15 999.00,296.00              998.77,275.98 999.56,261.69 1010.46,244.00              1016.87,233.59 1027.93,223.58 1039.00,218.32              1064.51,206.20 1104.21,208.46 1124.91,229.09              1140.64,244.76 1147.51,268.21 1146.99,290.00              1146.99,290.00 1146.00,300.00 1146.00,300.00              1146.00,300.00 1050.00,300.00 1050.00,300.00 Z            M 1275.00,227.00            C 1273.48,235.02 1264.28,247.56 1259.80,255.00              1257.99,258.01 1256.09,262.67 1251.96,262.48              1251.96,262.48 1242.00,259.33 1242.00,259.33              1234.89,256.96 1228.47,254.61 1221.00,253.44              1216.66,252.76 1210.76,252.54 1207.24,255.65              1203.80,258.70 1205.45,261.93 1209.02,263.83              1212.35,265.59 1220.95,264.96 1225.00,265.00              1239.51,265.17 1260.85,272.15 1270.68,283.09              1280.16,293.64 1280.15,302.79 1280.00,316.00              1279.88,325.97 1276.04,335.37 1269.68,343.00              1258.24,356.72 1239.80,364.92 1222.00,365.00              1222.00,365.00 1203.00,365.00 1203.00,365.00              1190.65,364.85 1173.04,359.77 1162.00,354.24              1159.07,352.77 1151.57,349.15 1150.82,345.82              1150.30,343.52 1152.19,340.86 1153.32,339.00              1153.32,339.00 1162.40,324.00 1162.40,324.00              1164.11,321.16 1170.00,310.30 1172.38,309.13              1175.36,307.66 1182.09,312.29 1185.00,313.75              1193.18,317.87 1204.69,322.48 1214.00,321.91              1224.57,321.25 1229.11,314.48 1224.68,310.74              1221.73,308.25 1212.95,309.04 1209.00,309.00              1192.21,308.80 1171.93,300.23 1161.38,287.00              1148.72,271.13 1152.42,245.13 1166.09,231.04              1185.87,210.65 1217.64,207.13 1244.00,214.15              1255.15,217.13 1264.85,221.64 1275.00,227.00 Z            M 869.00,218.00            C 869.00,218.00 868.00,218.00 868.00,218.00              868.00,218.00 869.00,219.00 869.00,219.00              869.00,219.00 869.00,218.00 869.00,218.00 Z            M 1095.00,272.00            C 1094.13,267.77 1093.31,264.52 1090.47,261.09              1083.93,253.21 1069.52,251.82 1061.00,257.00              1054.84,260.75 1052.28,265.49 1050.00,272.00              1050.00,272.00 1095.00,272.00 1095.00,272.00 Z            M 211.00,261.30            C 206.81,262.12 203.54,263.10 200.00,265.64              197.29,267.57 194.77,270.20 192.97,273.00              181.42,291.01 196.88,313.48 220.00,309.98              237.13,307.39 246.47,287.89 237.39,273.01              231.75,263.78 221.32,260.28 211.00,261.30 Z            M 625.00,264.33            C 618.05,265.39 612.95,267.30 608.39,273.02              601.37,281.80 602.41,298.20 611.09,305.61              617.04,310.69 624.46,311.76 632.00,310.82              647.96,308.83 655.15,289.20 647.64,276.00              642.89,267.67 634.26,264.11 625.00,264.33 Z" />
</svg>