<svg xmlns="http://www.w3.org/2000/svg" viewBox="103.34 103.4 1390.18 215.12">
  <path id="samsung" fill="#303030" stroke="none" stroke-width="1"
    d="M 158.00,244.00            C 158.00,254.38 155.61,269.25 164.10,276.61              179.64,290.08 204.20,273.46 195.08,254.00              190.23,243.64 175.71,235.24 166.00,229.72              140.61,215.28 105.40,200.06 105.00,166.00              104.83,151.13 105.81,135.79 116.18,124.00              128.59,109.90 148.69,104.03 167.00,104.00              180.72,103.98 191.48,103.17 205.00,106.63              215.44,109.30 225.55,113.80 232.82,122.00              245.00,135.75 243.00,152.12 243.00,169.00              243.00,169.00 193.00,169.00 193.00,169.00              193.00,159.71 194.09,148.89 185.96,142.42              171.45,130.85 150.12,146.89 158.69,164.00              163.44,173.50 182.42,183.37 192.00,188.24              218.58,201.76 247.60,217.24 248.00,251.00              248.18,266.67 247.53,284.46 236.79,297.00              218.18,318.73 191.98,318.12 166.00,318.00              147.59,317.91 127.49,311.04 115.18,297.00              101.63,281.54 104.00,262.91 104.00,244.00              104.00,244.00 158.00,244.00 158.00,244.00 Z            M 1493.00,197.00            C 1493.00,197.00 1493.00,248.00 1493.00,248.00              1493.00,266.16 1493.24,283.03 1478.91,296.83              1463.47,311.71 1444.01,313.18 1424.00,314.68              1417.48,315.17 1399.64,312.87 1393.00,311.12              1383.43,308.59 1372.00,303.24 1365.17,295.96              1354.55,284.63 1353.25,274.60 1351.83,260.00              1351.83,260.00 1351.00,249.00 1351.00,249.00              1351.00,249.00 1351.00,172.00 1351.00,172.00              1351.00,172.00 1351.83,161.00 1351.83,161.00              1353.32,145.61 1354.82,133.95 1366.29,122.17              1372.88,115.41 1382.96,110.63 1392.00,108.15              1402.36,105.31 1406.63,105.36 1417.00,104.96              1439.39,104.09 1466.26,106.40 1481.67,125.00              1494.06,139.95 1493.00,156.94 1493.00,175.00              1493.00,175.00 1442.00,175.00 1442.00,175.00              1442.00,166.52 1443.42,155.93 1437.73,149.02              1429.29,138.76 1413.27,138.91 1405.70,150.01              1402.40,154.85 1402.01,161.34 1402.00,167.00              1402.00,167.00 1402.00,256.00 1402.00,256.00              1402.28,279.59 1427.83,283.15 1438.61,269.96              1444.91,262.25 1443.00,238.32 1443.00,228.00              1443.00,228.00 1422.00,228.00 1422.00,228.00              1422.00,228.00 1422.00,197.00 1422.00,197.00              1422.00,197.00 1493.00,197.00 1493.00,197.00 Z            M 804.00,244.00            C 804.00,253.71 801.72,268.38 809.33,275.47              820.20,285.61 841.17,280.96 841.96,263.00              842.71,245.84 822.95,235.74 810.00,228.42              783.10,213.22 751.42,199.89 751.00,164.00              750.83,148.68 753.82,133.26 765.04,122.04              777.01,110.07 797.45,105.03 814.00,105.00              827.36,104.98 836.78,104.25 850.00,107.63              860.04,110.20 868.49,113.56 875.96,121.04              889.66,134.75 888.00,151.34 888.00,169.00              888.00,169.00 838.00,169.00 838.00,169.00              838.00,159.94 839.48,150.18 831.82,143.53              821.11,134.24 803.77,141.12 803.04,155.00              802.88,158.05 803.06,161.22 804.45,164.00              809.54,174.17 828.87,184.02 839.00,189.26              856.78,198.45 880.94,211.96 889.12,231.00              891.60,236.77 892.92,246.69 893.00,253.00              893.19,269.24 891.20,286.46 879.70,298.91              873.59,305.53 862.65,311.12 854.00,313.57              846.61,315.67 837.68,316.99 830.00,317.00              807.47,317.04 783.80,317.36 766.00,300.91              748.02,284.30 750.00,266.15 750.00,244.00              750.00,244.00 804.00,244.00 804.00,244.00 Z            M 316.00,110.00            C 316.00,110.00 397.00,110.00 397.00,110.00              397.00,110.00 405.02,111.60 405.02,111.60              405.02,111.60 408.00,124.00 408.00,124.00              408.00,124.00 413.92,156.00 413.92,156.00              413.92,156.00 432.61,258.00 432.61,258.00              432.61,258.00 442.00,311.00 442.00,311.00              442.00,311.00 396.00,311.00 396.00,311.00              396.00,311.00 388.17,309.43 388.17,309.43              388.17,309.43 385.73,297.00 385.73,297.00              385.73,297.00 381.58,269.00 381.58,269.00              381.58,269.00 368.27,178.00 368.27,178.00              368.27,178.00 361.00,131.00 361.00,131.00              361.00,131.00 348.73,213.00 348.73,213.00              348.73,213.00 334.00,311.00 334.00,311.00              334.00,311.00 279.00,311.00 279.00,311.00              279.00,311.00 316.00,110.00 316.00,110.00 Z            M 484.96,110.00            C 484.96,110.00 567.00,110.00 567.00,110.00              567.00,110.00 583.92,215.00 583.92,215.00              583.92,215.00 592.00,263.00 592.00,263.00              592.00,263.00 600.58,206.00 600.58,206.00              600.58,206.00 616.00,110.00 616.00,110.00              616.00,110.00 698.00,110.00 698.00,110.00              698.00,110.00 698.00,127.00 698.00,127.00              698.00,127.00 699.00,143.00 699.00,143.00              699.00,143.00 699.00,171.00 699.00,171.00              699.00,171.00 700.00,188.00 700.00,188.00              700.00,188.00 700.00,216.00 700.00,216.00              700.00,216.00 701.00,233.00 701.00,233.00              701.00,233.00 701.00,261.00 701.00,261.00              701.00,261.00 702.00,278.00 702.00,278.00              702.00,278.00 702.00,311.00 702.00,311.00              702.00,311.00 651.96,311.00 651.96,311.00              651.96,311.00 651.96,298.00 651.96,298.00              651.96,298.00 651.00,286.00 651.00,286.00              651.00,286.00 651.00,197.00 651.00,197.00              651.00,197.00 651.00,166.00 651.00,166.00              651.00,166.00 650.00,149.00 650.00,149.00              650.00,149.00 649.00,135.00 649.00,135.00              649.00,135.00 639.42,190.00 639.42,190.00              639.42,190.00 617.00,311.00 617.00,311.00              617.00,311.00 574.00,311.00 574.00,311.00              574.00,311.00 566.73,310.01 566.73,310.01              566.73,310.01 563.58,299.00 563.58,299.00              563.58,299.00 558.20,270.00 558.20,270.00              558.20,270.00 542.42,185.00 542.42,185.00              542.42,185.00 533.00,136.00 533.00,136.00              530.96,151.45 532.00,187.48 532.00,205.00              532.00,205.00 532.00,269.00 532.00,269.00              532.00,269.00 531.00,285.00 531.00,285.00              531.00,285.00 531.00,311.00 531.00,311.00              531.00,311.00 481.00,311.00 481.00,311.00              481.00,311.00 481.00,277.00 481.00,277.00              481.00,277.00 482.00,261.00 482.00,261.00              482.00,261.00 482.00,230.00 482.00,230.00              482.00,230.00 483.00,214.00 483.00,214.00              483.00,214.00 483.00,184.00 483.00,184.00              483.00,184.00 484.00,167.00 484.00,167.00              484.00,167.00 484.00,137.00 484.00,137.00              484.00,137.00 484.96,125.00 484.96,125.00              484.96,125.00 484.96,110.00 484.96,110.00 Z            M 938.00,110.00            C 938.00,110.00 989.00,110.00 989.00,110.00              989.00,110.00 989.00,255.00 989.00,255.00              989.01,260.77 989.19,266.06 992.65,271.00              1000.08,281.59 1015.43,282.74 1023.35,271.96              1026.88,267.16 1026.99,262.65 1027.00,257.00              1027.00,257.00 1027.00,110.00 1027.00,110.00              1027.00,110.00 1078.00,110.00 1078.00,110.00              1078.00,110.00 1078.00,247.00 1078.00,247.00              1078.03,266.82 1079.37,286.03 1062.99,300.82              1049.00,313.44 1025.29,317.20 1007.00,317.00              1007.00,317.00 997.00,316.09 997.00,316.09              973.49,314.37 949.74,306.85 941.52,282.00              939.39,275.57 938.03,266.77 938.00,260.00              938.00,260.00 938.00,110.00 938.00,110.00 Z            M 1133.00,110.00            C 1133.00,110.00 1199.00,110.00 1199.00,110.00              1199.00,110.00 1206.49,111.02 1206.49,111.02              1206.49,111.02 1210.58,121.00 1210.58,121.00              1210.58,121.00 1218.14,147.00 1218.14,147.00              1218.14,147.00 1240.58,224.00 1240.58,224.00              1240.58,224.00 1253.00,266.00 1253.00,266.00              1253.00,266.00 1253.00,252.00 1253.00,252.00              1253.00,252.00 1252.00,237.00 1252.00,237.00              1252.00,237.00 1252.00,194.00 1252.00,194.00              1252.00,194.00 1251.00,177.00 1251.00,177.00              1251.00,177.00 1251.00,135.00 1251.00,135.00              1251.00,135.00 1250.00,118.00 1250.00,118.00              1250.00,118.00 1250.00,110.00 1250.00,110.00              1250.00,110.00 1300.00,110.00 1300.00,110.00              1300.00,110.00 1300.00,309.00 1300.00,309.00              1300.00,309.00 1237.00,309.00 1237.00,309.00              1237.00,309.00 1229.51,307.98 1229.51,307.98              1229.51,307.98 1225.33,298.00 1225.33,298.00              1225.33,298.00 1217.14,271.00 1217.14,271.00              1217.14,271.00 1194.72,197.00 1194.72,197.00              1194.72,197.00 1180.00,149.00 1180.00,149.00              1180.00,149.00 1180.00,196.00 1180.00,196.00              1180.00,196.00 1181.00,213.00 1181.00,213.00              1181.00,213.00 1181.00,254.00 1181.00,254.00              1181.00,254.00 1182.00,271.00 1182.00,271.00              1182.00,271.00 1182.00,309.00 1182.00,309.00              1182.00,309.00 1133.00,309.00 1133.00,309.00              1133.00,309.00 1133.00,110.00 1133.00,110.00 Z" />
</svg>