<svg xmlns="http://www.w3.org/2000/svg" viewBox="-0.59 -0.5 2561.17 851">
  <path id="samsung-alt" fill="#303030" stroke="none" stroke-width="1" d="M 421.00,285.00            C 421.00,285.00 467.00,266.42 467.00,266.42              467.00,266.42 573.00,226.69 573.00,226.69              670.47,192.01 769.98,163.17 870.00,136.88              978.81,108.28 1089.31,85.53 1200.00,65.58              1253.76,55.88 1307.84,46.85 1362.00,39.72              1362.00,39.72 1461.00,26.84 1461.00,26.84              1519.36,20.59 1577.48,13.92 1636.00,9.91              1636.00,9.91 1656.00,8.09 1656.00,8.09              1656.00,8.09 1679.00,6.91 1679.00,6.91              1679.00,6.91 1709.00,5.00 1709.00,5.00              1709.00,5.00 1725.00,4.00 1725.00,4.00              1725.00,4.00 1745.00,3.00 1745.00,3.00              1745.00,3.00 1765.00,2.00 1765.00,2.00              1765.00,2.00 1778.00,2.00 1778.00,2.00              1778.00,2.00 1791.00,1.00 1791.00,1.00              1791.00,1.00 1810.00,1.00 1810.00,1.00              1810.00,1.00 1827.00,0.00 1827.00,0.00              1827.00,0.00 1962.00,0.00 1962.00,0.00              1962.00,0.00 1979.00,1.00 1979.00,1.00              1979.00,1.00 2018.00,2.00 2018.00,2.00              2018.00,2.00 2031.00,3.00 2031.00,3.00              2031.00,3.00 2063.00,4.91 2063.00,4.91              2063.00,4.91 2085.00,6.09 2085.00,6.09              2085.00,6.09 2180.00,15.85 2180.00,15.85              2256.50,24.99 2354.37,44.45 2425.00,74.58              2475.11,95.96 2536.22,130.20 2554.64,185.00              2560.49,202.38 2560.20,212.19 2560.00,230.00              2559.89,239.50 2556.38,252.94 2553.33,262.00              2543.62,290.88 2522.81,320.01 2502.03,342.00              2502.03,342.00 2486.00,358.96 2486.00,358.96              2428.53,413.93 2359.60,455.66 2290.00,493.31              2290.00,493.31 2249.00,514.25 2249.00,514.25              2249.00,514.25 2217.00,529.86 2217.00,529.86              2209.98,532.99 2195.69,540.75 2189.00,542.00              2196.79,531.88 2202.08,529.53 2207.55,516.00              2213.60,501.02 2213.00,484.81 2213.00,469.00              2213.00,469.00 2213.00,407.00 2213.00,407.00              2213.00,407.00 2119.00,407.00 2119.00,407.00              2119.00,407.00 2119.00,446.00 2119.00,446.00              2119.00,446.00 2146.00,446.00 2146.00,446.00              2146.00,446.00 2146.00,486.00 2146.00,486.00              2145.99,493.30 2145.40,499.03 2140.47,504.93              2131.00,516.22 2106.89,515.77 2097.21,504.93              2091.76,498.87 2091.01,489.83 2091.00,482.00              2091.00,482.00 2091.00,367.00 2091.00,367.00              2091.02,352.07 2093.24,337.08 2110.00,332.76              2113.39,331.89 2116.53,331.96 2120.00,332.00              2132.58,332.15 2142.09,338.03 2144.77,351.00              2144.77,351.00 2144.77,368.00 2144.77,368.00              2145.05,370.52 2144.95,373.40 2147.31,374.98              2149.16,376.21 2152.81,376.00 2155.00,376.00              2155.00,376.00 2213.00,376.00 2213.00,376.00              2213.00,350.55 2213.02,329.17 2194.71,309.04              2183.79,297.03 2166.64,289.98 2151.00,286.80              2135.21,283.59 2124.87,283.82 2109.00,284.00              2084.53,284.29 2058.88,292.75 2042.09,311.00              2030.16,323.97 2025.03,343.69 2025.00,361.00              2025.00,361.00 2025.00,486.00 2025.00,486.00              2025.02,499.35 2027.93,513.49 2034.93,525.00              2049.81,549.48 2082.45,560.96 2110.00,560.86              2110.00,560.86 2135.00,560.86 2135.00,560.86              2139.35,560.20 2149.43,557.99 2153.00,559.00              2153.00,559.00 2117.00,573.99 2117.00,573.99              2117.00,573.99 2047.00,601.58 2047.00,601.58              1977.90,627.64 1907.71,650.99 1837.00,672.28              1627.70,735.31 1386.80,785.75 1170.00,814.28              1088.53,825.00 1006.90,834.49 925.00,840.09              925.00,840.09 905.00,841.91 905.00,841.91              905.00,841.91 866.00,844.09 866.00,844.09              866.00,844.09 858.00,845.02 858.00,845.02              858.00,845.02 848.00,845.02 848.00,845.02              848.00,845.02 838.00,846.00 838.00,846.00              838.00,846.00 810.00,847.00 810.00,847.00              810.00,847.00 795.00,848.04 795.00,848.04              795.00,848.04 781.00,848.04 781.00,848.04              781.00,848.04 770.00,849.00 770.00,849.00              770.00,849.00 752.00,849.00 752.00,849.00              752.00,849.00 737.00,850.00 737.00,850.00              737.00,850.00 666.00,850.00 666.00,850.00              666.00,850.00 595.00,850.00 595.00,850.00              595.00,850.00 580.00,849.00 580.00,849.00              580.00,849.00 565.00,849.00 565.00,849.00              565.00,849.00 552.00,848.00 552.00,848.00              552.00,848.00 522.00,847.00 522.00,847.00              522.00,847.00 496.00,845.09 496.00,845.09              496.00,845.09 424.00,839.17 424.00,839.17              337.71,830.54 252.45,816.15 170.00,788.67              128.75,774.92 83.47,754.02 50.00,726.08              31.04,710.25 13.33,688.69 5.36,665.00              -0.56,647.42 -0.21,638.03 0.00,620.00              0.35,589.98 21.43,553.22 39.23,530.00              39.23,530.00 61.72,504.00 61.72,504.00              79.16,484.22 108.59,460.18 130.00,444.13              176.16,409.50 225.35,381.08 276.00,353.69              276.00,353.69 340.00,321.74 340.00,321.74              340.00,321.74 386.00,301.00 386.00,301.00              378.52,311.45 372.73,313.31 367.23,328.00              360.63,345.59 359.82,370.78 367.89,388.00              370.95,394.53 377.16,402.75 382.17,407.91              392.70,418.78 409.75,429.07 423.00,436.58              436.36,444.15 457.49,454.99 469.00,464.01              478.87,471.75 485.47,479.89 484.96,493.00              484.68,500.26 482.56,507.84 476.96,512.78              467.69,520.94 446.61,519.83 438.10,510.96              435.43,508.17 433.95,505.71 432.93,502.00              431.35,496.27 432.00,476.18 432.00,469.00              432.00,469.00 360.00,469.00 360.00,469.00              360.00,496.03 359.16,519.70 379.17,540.96              390.24,552.72 407.38,560.02 423.00,563.20              459.12,570.54 511.01,568.12 536.70,538.00              552.06,520.00 552.26,498.28 552.00,476.00              551.46,430.15 504.80,411.20 471.00,392.00              458.88,385.12 436.46,374.83 431.85,361.00              430.79,357.83 430.96,353.38 431.00,350.00              431.30,325.22 460.09,323.69 471.91,333.53              481.33,341.38 479.00,356.89 479.00,368.00              479.00,368.00 546.00,368.00 546.00,368.00              546.00,368.00 546.00,350.00 546.00,350.00              545.98,339.95 544.01,329.12 539.68,320.00              527.22,293.77 494.25,283.04 467.00,283.00              467.00,283.00 444.00,283.00 444.00,283.00              438.01,283.07 425.41,286.25 421.00,285.00 Z            M 1406.00,369.00            C 1406.00,345.94 1407.85,323.99 1389.96,306.04              1378.08,294.11 1360.37,288.15 1344.00,285.87              1310.00,281.14 1263.45,283.40 1239.18,311.00              1226.53,325.39 1223.79,344.55 1224.00,363.00              1224.55,409.85 1270.35,428.75 1305.00,448.58              1317.46,455.71 1337.08,466.65 1343.10,480.00              1347.07,488.83 1346.22,501.46 1339.78,508.98              1331.32,518.87 1311.99,520.19 1302.00,511.78              1292.33,503.63 1293.00,495.44 1293.00,484.00              1293.00,484.00 1293.00,468.00 1293.00,468.00              1293.00,468.00 1240.00,468.00 1240.00,468.00              1236.61,468.00 1225.00,467.10 1223.02,469.60              1221.77,471.19 1222.00,475.01 1222.00,477.00              1222.00,477.00 1222.00,489.00 1222.00,489.00              1222.01,496.22 1223.39,507.09 1225.44,514.00              1226.97,519.19 1230.18,526.46 1233.09,531.00              1248.39,554.85 1281.88,564.96 1309.00,565.00              1309.00,565.00 1329.00,565.00 1329.00,565.00              1348.99,564.76 1375.97,557.30 1391.00,543.83              1411.70,525.26 1412.30,500.69 1412.00,475.00              1411.47,429.77 1365.15,409.82 1331.00,391.31              1319.24,384.93 1300.09,375.18 1294.00,363.00              1292.13,359.27 1291.93,356.08 1292.02,352.00              1292.49,328.20 1319.84,323.48 1332.82,335.47              1341.77,343.74 1340.00,357.91 1340.00,369.00              1340.00,369.00 1406.00,369.00 1406.00,369.00 Z            M 811.00,556.00            C 811.00,556.00 806.42,531.00 806.42,531.00              806.42,531.00 796.61,478.00 796.61,478.00              796.61,478.00 773.42,352.00 773.42,352.00              773.42,352.00 765.08,307.00 765.08,307.00              765.08,307.00 761.26,291.99 761.26,291.99              761.26,291.99 754.00,291.00 754.00,291.00              754.00,291.00 652.00,291.00 652.00,291.00              652.00,291.00 644.73,291.99 644.73,291.99              644.73,291.99 640.80,307.00 640.80,307.00              640.80,307.00 632.42,352.00 632.42,352.00              632.42,352.00 608.39,482.00 608.39,482.00              608.39,482.00 595.00,556.00 595.00,556.00              595.00,556.00 667.00,556.00 667.00,556.00              667.00,556.00 673.73,511.00 673.73,511.00              673.73,511.00 689.73,405.00 689.73,405.00              689.73,405.00 698.58,346.00 698.58,346.00              698.58,346.00 704.00,316.00 704.00,316.00              704.00,316.00 706.73,335.00 706.73,335.00              706.73,335.00 711.73,369.00 711.73,369.00              711.73,369.00 730.27,496.00 730.27,496.00              730.27,496.00 736.27,537.00 736.27,537.00              736.27,537.00 739.00,556.00 739.00,556.00              739.00,556.00 811.00,556.00 811.00,556.00 Z            M 978.00,291.00            C 978.00,291.00 869.00,291.00 869.00,291.00              869.00,291.00 869.00,306.00 869.00,306.00              869.00,306.00 868.00,322.00 868.00,322.00              868.00,322.00 867.00,396.00 867.00,396.00              867.00,396.00 866.00,412.00 866.00,412.00              866.00,412.00 866.00,441.00 866.00,441.00              866.00,441.00 865.00,458.00 865.00,458.00              865.00,458.00 865.00,486.00 865.00,486.00              865.00,486.00 864.00,503.00 864.00,503.00              864.00,503.00 864.00,531.00 864.00,531.00              864.00,531.00 863.04,543.00 863.04,543.00              863.04,543.00 863.04,556.00 863.04,556.00              863.04,556.00 930.00,556.00 930.00,556.00              930.00,556.00 930.00,502.00 930.00,502.00              930.00,502.00 931.00,485.00 931.00,485.00              931.00,485.00 931.00,399.00 931.00,399.00              931.00,399.00 931.00,358.00 931.00,358.00              931.00,358.00 932.00,341.00 932.00,341.00              932.00,341.00 933.00,318.00 933.00,318.00              933.00,318.00 944.39,382.00 944.39,382.00              944.39,382.00 966.42,501.00 966.42,501.00              966.42,501.00 973.58,539.00 973.58,539.00              973.58,539.00 977.16,554.43 977.16,554.43              977.16,554.43 985.00,556.00 985.00,556.00              985.00,556.00 1045.00,556.00 1045.00,556.00              1045.00,556.00 1054.39,504.00 1054.39,504.00              1054.39,504.00 1072.58,406.00 1072.58,406.00              1072.58,406.00 1083.39,348.00 1083.39,348.00              1084.94,339.75 1086.67,325.04 1090.00,318.00              1090.00,318.00 1090.00,437.00 1090.00,437.00              1090.00,437.00 1091.00,452.00 1091.00,452.00              1091.00,452.00 1091.00,556.00 1091.00,556.00              1091.00,556.00 1158.00,556.00 1158.00,556.00              1158.00,556.00 1158.00,536.00 1158.00,536.00              1158.00,536.00 1157.00,520.00 1157.00,520.00              1157.00,520.00 1157.00,491.00 1157.00,491.00              1157.00,491.00 1156.00,474.00 1156.00,474.00              1156.00,474.00 1156.00,445.00 1156.00,445.00              1156.00,445.00 1155.00,428.00 1155.00,428.00              1155.00,428.00 1154.00,352.00 1154.00,352.00              1154.00,352.00 1153.00,336.00 1153.00,336.00              1153.00,336.00 1153.00,306.00 1153.00,306.00              1153.00,306.00 1152.00,291.00 1152.00,291.00              1152.00,291.00 1052.00,291.00 1052.00,291.00              1049.67,291.00 1045.77,290.58 1044.17,292.57              1042.77,294.31 1041.51,304.29 1041.13,307.00              1041.13,307.00 1036.00,339.00 1036.00,339.00              1036.00,339.00 1020.27,436.00 1020.27,436.00              1020.27,436.00 1015.13,468.00 1015.13,468.00              1014.14,475.07 1012.88,486.82 1010.00,493.00              1010.00,493.00 1003.27,450.00 1003.27,450.00              1003.27,450.00 986.59,346.00 986.59,346.00              986.59,346.00 978.00,291.00 978.00,291.00 Z            M 1541.00,291.00            C 1541.00,291.00 1473.00,291.00 1473.00,291.00              1473.00,291.00 1473.00,485.00 1473.00,485.00              1473.03,506.14 1477.92,528.05 1494.00,542.91              1504.03,552.18 1516.86,557.34 1530.00,560.35              1547.85,564.44 1559.00,564.21 1577.00,564.00              1601.45,563.71 1630.85,555.15 1646.10,535.00              1662.89,512.82 1660.00,481.38 1660.00,455.00              1660.00,455.00 1660.00,291.00 1660.00,291.00              1660.00,291.00 1592.00,291.00 1592.00,291.00              1592.00,291.00 1592.00,489.00 1592.00,489.00              1591.99,497.39 1590.53,503.88 1583.96,509.79              1572.53,520.06 1552.22,517.53 1544.36,504.00              1541.19,498.53 1541.01,495.09 1541.00,489.00              1541.00,489.00 1541.00,291.00 1541.00,291.00 Z            M 1893.00,499.00            C 1893.00,499.00 1873.58,433.00 1873.58,433.00              1873.58,433.00 1846.00,339.00 1846.00,339.00              1846.00,339.00 1836.34,306.00 1836.34,306.00              1836.34,306.00 1831.86,292.57 1831.86,292.57              1831.86,292.57 1824.00,291.00 1824.00,291.00              1824.00,291.00 1733.00,291.00 1733.00,291.00              1733.00,291.00 1733.00,493.00 1733.00,493.00              1733.00,493.00 1733.00,545.00 1733.00,545.00              1733.02,553.64 1733.36,553.98 1742.00,554.00              1742.00,554.00 1792.00,554.00 1792.00,554.00              1802.87,553.79 1798.02,546.98 1798.00,533.00              1798.00,533.00 1798.00,490.00 1798.00,490.00              1798.00,490.00 1797.00,473.00 1797.00,473.00              1797.00,473.00 1797.00,431.00 1797.00,431.00              1797.00,431.00 1796.00,414.00 1796.00,414.00              1796.00,414.00 1796.00,372.00 1796.00,372.00              1795.98,362.03 1793.28,348.58 1796.00,339.00              1796.00,339.00 1846.14,504.00 1846.14,504.00              1846.14,504.00 1856.42,538.00 1856.42,538.00              1857.23,540.76 1860.06,550.77 1861.72,552.40              1863.71,554.35 1867.41,553.99 1870.00,554.00              1870.00,554.00 1935.00,554.00 1935.00,554.00              1938.68,554.00 1952.96,554.95 1954.98,552.40              1956.23,550.81 1956.00,546.99 1956.00,545.00              1956.00,545.00 1956.00,291.00 1956.00,291.00              1956.00,291.00 1890.00,291.00 1890.00,291.00              1890.00,291.00 1890.00,316.00 1890.00,316.00              1890.00,316.00 1891.00,333.00 1891.00,333.00              1891.00,333.00 1891.00,373.00 1891.00,373.00              1891.00,373.00 1892.00,390.00 1892.00,390.00              1892.00,390.00 1892.00,430.00 1892.00,430.00              1892.00,430.00 1893.00,447.00 1893.00,447.00              1893.00,447.00 1893.00,482.00 1893.00,482.00              1893.00,482.00 1893.00,499.00 1893.00,499.00 Z"/>
</svg>