<svg xmlns="http://www.w3.org/2000/svg" viewBox="-0.5 -0.5 2560.02 1921">
  <path id="Selection" fill="#303030" stroke="none" stroke-width="1" d="M 501.00,1317.00            C 486.52,1303.19 464.41,1287.19 448.00,1275.12              448.00,1275.12 352.00,1207.98 352.00,1207.98              266.73,1149.20 181.59,1088.25 110.91,1012.00              70.20,968.08 35.62,918.51 14.95,862.00              8.46,844.27 0.03,815.70 0.00,797.00              0.00,797.00 0.00,770.00 0.00,770.00              0.13,758.95 3.84,738.10 6.35,727.00              12.35,700.49 21.16,674.85 32.14,650.00              66.06,573.28 117.26,506.33 174.96,446.00              174.96,446.00 185.00,435.00 185.00,435.00              185.00,435.00 221.00,400.91 221.00,400.91              331.19,298.43 466.94,216.11 602.00,150.74              648.23,128.37 695.18,107.59 743.00,88.80              832.04,53.80 910.87,27.19 1006.00,12.42              1006.00,12.42 1081.00,3.17 1081.00,3.17              1081.00,3.17 1103.00,1.91 1103.00,1.91              1103.00,1.91 1113.00,0.96 1113.00,0.96              1113.00,0.96 1125.00,0.96 1125.00,0.96              1125.00,0.96 1137.00,0.00 1137.00,0.00              1137.00,0.00 1182.00,0.00 1182.00,0.00              1182.00,0.00 1194.00,0.96 1194.00,0.96              1194.00,0.96 1205.00,0.96 1205.00,0.96              1205.00,0.96 1216.00,1.96 1216.00,1.96              1237.80,2.91 1259.39,5.61 1281.00,8.73              1399.57,25.82 1535.61,79.38 1588.69,195.00              1601.66,223.24 1608.83,256.09 1611.09,287.00              1611.09,287.00 1612.00,299.00 1612.00,299.00              1612.00,299.00 1612.00,335.00 1612.00,335.00              1612.00,335.00 1611.09,345.00 1611.09,345.00              1609.40,369.08 1605.04,392.66 1598.88,416.00              1581.72,481.08 1549.16,543.29 1508.87,597.00              1452.14,672.64 1379.76,736.22 1297.00,782.14              1251.63,807.31 1203.45,825.66 1154.00,841.02              1073.57,866.02 986.32,882.87 902.00,883.00              902.00,883.00 887.00,883.99 887.00,883.99              887.00,883.99 874.00,883.00 874.00,883.00              874.00,883.00 858.00,883.00 858.00,883.00              858.00,883.00 846.00,882.09 846.00,882.09              846.00,882.09 811.00,879.15 811.00,879.15              749.59,871.82 692.68,852.71 645.00,811.87              621.89,792.08 600.94,768.62 591.88,739.00              588.79,728.89 585.29,713.88 597.00,708.00              599.24,706.88 601.49,706.22 604.00,706.62              612.22,707.94 623.49,722.00 629.09,728.00              638.70,738.30 652.90,748.49 665.00,755.80              705.68,780.36 765.56,795.45 813.00,796.00              813.00,796.00 828.00,797.00 828.00,797.00              828.00,797.00 858.00,796.00 858.00,796.00              858.00,796.00 868.00,795.09 868.00,795.09              898.56,792.95 928.96,788.01 959.00,782.00              1049.66,763.87 1139.10,730.14 1218.00,681.81              1264.01,653.63 1306.81,621.19 1345.00,583.00              1345.00,583.00 1362.83,565.00 1362.83,565.00              1389.98,534.99 1418.13,499.06 1436.74,463.00              1454.98,427.66 1469.88,389.99 1473.08,350.00              1473.08,350.00 1474.00,338.00 1474.00,338.00              1474.00,338.00 1474.00,324.00 1474.00,324.00              1473.95,314.24 1471.28,298.58 1468.87,289.00              1465.79,276.74 1461.02,263.88 1454.55,253.00              1439.96,228.47 1413.26,208.39 1388.00,195.75              1348.18,175.84 1310.74,166.98 1267.00,160.73              1267.00,160.73 1225.00,156.91 1225.00,156.91              1225.00,156.91 1215.00,156.00 1215.00,156.00              1215.00,156.00 1158.00,156.00 1158.00,156.00              1158.00,156.00 1139.00,157.00 1139.00,157.00              1139.00,157.00 1129.00,157.91 1129.00,157.91              1103.55,159.69 1078.20,162.75 1053.00,166.92              998.04,176.02 946.05,188.70 893.00,205.66              790.60,238.39 698.71,281.86 605.00,334.14              525.41,378.55 437.30,434.72 369.00,494.85              292.15,562.51 218.15,645.51 197.45,749.00              192.85,772.00 191.73,792.64 192.00,816.00              192.00,816.00 193.87,835.00 193.87,835.00              200.71,884.27 224.17,927.62 255.00,966.00              314.60,1040.21 411.58,1107.19 487.00,1167.00              514.66,1188.94 543.04,1212.05 568.00,1237.00              568.00,1237.00 586.91,1256.00 586.91,1256.00              589.04,1258.29 591.73,1262.97 595.17,1262.36              595.17,1262.36 619.00,1249.86 619.00,1249.86              619.00,1249.86 670.00,1221.86 670.00,1221.86              670.00,1221.86 749.00,1178.69 749.00,1178.69              749.00,1178.69 787.00,1157.78 787.00,1157.78              787.00,1157.78 829.00,1134.86 829.00,1134.86              834.00,1132.09 844.00,1127.47 847.82,1123.79              847.82,1123.79 858.42,1110.00 858.42,1110.00              858.42,1110.00 882.09,1082.00 882.09,1082.00              914.59,1047.12 952.00,1017.26 994.00,994.69              1018.69,981.43 1048.67,970.67 1077.00,971.00              1084.48,971.09 1095.84,972.81 1103.00,975.02              1109.67,977.09 1116.18,979.84 1122.00,983.75              1148.63,1001.66 1158.95,1039.36 1159.00,1070.00              1159.00,1070.00 1159.00,1091.00 1159.00,1091.00              1158.95,1102.07 1156.04,1122.79 1154.00,1134.00              1162.42,1128.81 1168.02,1122.88 1178.00,1120.50              1201.75,1114.86 1242.29,1129.96 1240.79,1159.00              1240.27,1169.20 1236.21,1182.99 1233.42,1193.00              1233.42,1193.00 1221.88,1236.00 1221.88,1236.00              1208.08,1288.53 1194.23,1340.94 1182.58,1394.00              1178.19,1413.97 1174.31,1433.59 1172.91,1454.00              1171.89,1468.83 1171.33,1483.62 1176.00,1498.00              1189.77,1483.92 1194.66,1469.59 1203.86,1453.00              1203.86,1453.00 1228.78,1403.00 1228.78,1403.00              1228.78,1403.00 1256.31,1344.00 1256.31,1344.00              1256.31,1344.00 1333.86,1171.00 1333.86,1171.00              1333.86,1171.00 1393.00,1037.00 1393.00,1037.00              1410.04,996.92 1417.04,984.13 1429.29,941.00              1429.29,941.00 1437.15,910.00 1437.15,910.00              1438.53,904.96 1440.39,897.89 1444.13,894.21              1448.85,889.57 1457.72,886.36 1464.00,884.34              1476.56,880.32 1503.79,876.16 1517.00,875.96              1517.00,875.96 1527.00,875.96 1527.00,875.96              1527.00,875.96 1536.00,875.01 1536.00,875.01              1536.00,875.01 1549.00,875.91 1549.00,875.91              1560.10,876.67 1562.59,876.16 1574.00,879.43              1583.05,882.02 1593.18,887.23 1597.58,896.00              1601.12,903.07 1598.63,908.10 1596.33,915.00              1596.33,915.00 1588.00,940.00 1588.00,940.00              1578.58,968.27 1570.09,997.16 1567.91,1027.00              1567.91,1027.00 1567.00,1039.00 1567.00,1039.00              1566.97,1059.69 1568.79,1075.62 1571.73,1096.00              1573.71,1109.77 1574.35,1118.42 1578.74,1132.00              1586.60,1156.27 1599.17,1176.17 1609.00,1199.00              1647.87,1134.23 1685.62,1069.14 1720.26,1002.00              1720.26,1002.00 1748.14,945.00 1748.14,945.00              1753.78,932.25 1759.31,919.39 1763.28,906.00              1763.28,906.00 1767.65,887.00 1767.65,887.00              1767.65,887.00 1774.12,862.00 1774.12,862.00              1774.12,862.00 1782.67,834.00 1782.67,834.00              1784.03,829.91 1785.78,823.31 1788.42,820.09              1792.97,814.54 1802.32,811.21 1809.00,809.00              1822.96,804.39 1851.25,800.18 1866.00,800.00              1883.76,799.80 1906.32,798.74 1923.00,804.70              1931.17,807.62 1940.05,812.70 1943.64,821.00              1946.55,827.74 1944.15,833.54 1942.00,840.00              1942.00,840.00 1931.00,873.00 1931.00,873.00              1922.65,898.31 1913.04,934.47 1913.00,961.00              1913.00,961.00 1913.00,981.00 1913.00,981.00              1913.00,981.00 1916.72,1014.00 1916.72,1014.00              1918.67,1028.83 1920.20,1043.77 1925.08,1058.00              1936.86,1092.36 1956.71,1122.83 1971.00,1156.00              1971.00,1156.00 1986.00,1149.42 1986.00,1149.42              1986.00,1149.42 2013.00,1138.20 2013.00,1138.20              2033.18,1130.27 2056.89,1122.89 2078.00,1117.88              2175.11,1094.85 2286.38,1096.37 2379.00,1136.15              2411.01,1149.90 2445.47,1170.31 2471.00,1194.09              2490.14,1211.92 2506.93,1230.87 2520.95,1253.00              2541.98,1286.22 2555.34,1323.73 2558.09,1363.00              2558.09,1363.00 2559.00,1373.00 2559.00,1373.00              2559.41,1408.69 2552.90,1441.76 2533.00,1472.00              2523.33,1486.69 2511.51,1499.95 2498.00,1511.25              2479.44,1526.77 2452.69,1544.07 2428.00,1545.82              2414.52,1546.77 2411.25,1534.84 2416.43,1528.04              2419.51,1524.00 2425.72,1520.46 2430.00,1517.66              2437.54,1512.72 2445.12,1507.71 2452.00,1501.87              2481.22,1477.05 2504.55,1442.65 2505.00,1403.00              2505.55,1354.54 2476.56,1304.96 2442.00,1272.91              2387.52,1222.39 2313.44,1200.58 2241.00,1192.84              2241.00,1192.84 2207.00,1190.00 2207.00,1190.00              2207.00,1190.00 2191.00,1189.00 2191.00,1189.00              2191.00,1189.00 2158.00,1189.00 2158.00,1189.00              2158.00,1189.00 2146.00,1189.91 2146.00,1189.91              2146.00,1189.91 2124.00,1191.17 2124.00,1191.17              2100.89,1193.38 2072.33,1198.22 2050.00,1204.42              2050.00,1204.42 2020.00,1213.69 2020.00,1213.69              2013.89,1215.86 2004.91,1219.93 1999.00,1221.00              2008.26,1247.70 2019.66,1281.58 2020.00,1310.00              2020.23,1330.38 2020.23,1342.02 2014.28,1362.00              1998.55,1414.77 1947.96,1460.97 1902.00,1488.55              1892.62,1494.18 1882.99,1499.41 1873.00,1503.86              1873.00,1503.86 1841.00,1516.69 1841.00,1516.69              1841.00,1516.69 1828.00,1521.71 1828.00,1521.71              1800.00,1532.21 1770.79,1539.54 1744.00,1521.71              1738.51,1517.78 1735.05,1514.33 1731.16,1509.00              1727.22,1503.61 1724.33,1497.40 1722.44,1491.00              1719.63,1481.52 1718.89,1470.84 1719.00,1461.00              1719.17,1446.52 1723.58,1427.00 1727.58,1413.00              1742.28,1361.46 1782.45,1304.55 1820.00,1267.00              1820.00,1267.00 1850.00,1237.93 1850.00,1237.93              1855.08,1233.32 1862.97,1225.79 1869.00,1223.00              1857.60,1202.97 1835.41,1155.68 1827.69,1134.00              1827.69,1134.00 1816.42,1096.00 1816.42,1096.00              1816.42,1096.00 1804.42,1047.00 1804.42,1047.00              1804.42,1047.00 1798.00,1019.00 1798.00,1019.00              1796.29,1024.98 1791.20,1034.10 1788.25,1040.00              1788.25,1040.00 1767.78,1079.00 1767.78,1079.00              1744.13,1123.81 1718.72,1168.36 1691.31,1211.00              1691.31,1211.00 1661.00,1257.00 1661.00,1257.00              1661.00,1257.00 1647.35,1277.58 1647.35,1277.58              1646.67,1279.92 1648.13,1282.85 1649.01,1285.00              1649.01,1285.00 1655.00,1300.00 1655.00,1300.00              1661.48,1316.29 1666.82,1334.88 1670.58,1352.00              1672.07,1358.83 1674.92,1377.36 1675.00,1384.00              1675.00,1384.00 1675.92,1400.00 1675.92,1400.00              1675.92,1400.00 1673.72,1428.00 1673.72,1428.00              1669.39,1461.82 1653.14,1497.06 1629.91,1522.00              1599.69,1554.45 1563.12,1575.78 1522.00,1591.42              1522.00,1591.42 1500.00,1599.92 1500.00,1599.92              1478.86,1607.17 1440.19,1614.97 1418.00,1615.00              1418.00,1615.00 1398.00,1615.00 1398.00,1615.00              1377.28,1614.75 1352.37,1607.57 1344.70,1586.00              1342.61,1580.13 1342.93,1576.08 1343.00,1570.00              1343.30,1544.49 1370.37,1515.29 1385.80,1496.00              1385.80,1496.00 1491.42,1369.00 1491.42,1369.00              1491.42,1369.00 1519.00,1332.00 1519.00,1332.00              1521.16,1328.97 1529.11,1318.73 1529.86,1316.00              1531.04,1311.75 1525.26,1302.02 1523.25,1298.00              1523.25,1298.00 1501.31,1253.00 1501.31,1253.00              1483.74,1214.74 1477.69,1196.74 1467.37,1156.00              1467.37,1156.00 1457.42,1113.00 1457.42,1113.00              1457.42,1113.00 1454.00,1096.00 1454.00,1096.00              1454.00,1096.00 1432.99,1147.00 1432.99,1147.00              1432.99,1147.00 1391.14,1245.00 1391.14,1245.00              1391.14,1245.00 1342.74,1350.00 1342.74,1350.00              1342.74,1350.00 1300.26,1433.00 1300.26,1433.00              1300.26,1433.00 1250.42,1526.00 1250.42,1526.00              1250.42,1526.00 1227.18,1568.00 1227.18,1568.00              1215.20,1588.11 1197.51,1610.74 1180.00,1626.15              1166.30,1638.21 1149.04,1650.77 1130.00,1651.00              1130.00,1651.00 1126.00,1651.00 1126.00,1651.00              1119.78,1650.99 1116.04,1650.50 1110.00,1648.84              1072.60,1638.60 1061.44,1593.74 1057.84,1560.00              1057.84,1560.00 1056.00,1539.00 1056.00,1539.00              1056.00,1539.00 1056.00,1507.00 1056.00,1507.00              1056.00,1507.00 1056.91,1495.00 1056.91,1495.00              1056.91,1495.00 1059.07,1467.00 1059.07,1467.00              1059.61,1461.23 1061.49,1455.69 1060.00,1450.00              1058.82,1456.50 1051.79,1472.16 1048.85,1479.00              1048.85,1479.00 1028.31,1526.00 1028.31,1526.00              1014.46,1556.23 990.99,1607.38 973.33,1634.00              962.07,1650.98 948.59,1668.20 930.00,1677.63              913.67,1685.91 900.60,1686.03 883.00,1686.00              865.93,1685.97 848.84,1681.29 835.00,1671.08              826.37,1664.71 817.50,1653.80 811.29,1645.00              798.44,1626.78 787.42,1604.92 779.68,1584.00              764.47,1542.88 753.51,1497.99 753.00,1454.00              753.00,1454.00 752.01,1441.00 752.01,1441.00              752.01,1441.00 753.00,1422.00 753.00,1422.00              753.00,1422.00 753.91,1412.00 753.91,1412.00              755.71,1386.25 758.84,1360.43 763.42,1335.00              763.42,1335.00 774.42,1286.00 774.42,1286.00              774.42,1286.00 779.67,1268.00 779.67,1268.00              779.67,1268.00 785.00,1251.00 785.00,1251.00              785.00,1251.00 754.00,1267.70 754.00,1267.70              754.00,1267.70 684.00,1307.85 684.00,1307.85              684.00,1307.85 643.00,1331.00 643.00,1331.00              658.64,1358.48 668.19,1398.66 672.28,1430.00              672.28,1430.00 675.09,1460.00 675.09,1460.00              675.09,1460.00 676.00,1472.00 676.00,1472.00              676.00,1472.00 676.00,1511.00 676.00,1511.00              676.00,1511.00 675.09,1521.00 675.09,1521.00              673.82,1539.59 671.74,1557.63 668.42,1576.00              652.55,1663.98 612.99,1738.48 549.00,1801.01              508.59,1840.51 460.86,1872.71 408.00,1893.19              371.70,1907.25 325.98,1918.55 287.00,1919.00              287.00,1919.00 272.00,1920.00 272.00,1920.00              272.00,1920.00 247.00,1919.00 247.00,1919.00              233.06,1918.83 212.87,1915.37 199.00,1912.60              189.49,1910.70 174.64,1907.59 166.00,1903.69              133.76,1889.15 110.20,1855.01 97.40,1823.00              64.48,1740.71 89.58,1637.63 143.60,1570.00              180.03,1524.40 223.23,1488.36 270.00,1453.88              316.62,1419.52 366.46,1389.34 417.00,1361.14              417.00,1361.14 484.00,1325.75 484.00,1325.75              484.00,1325.75 501.00,1317.00 501.00,1317.00 Z            M 1066.00,1073.31            C 1052.79,1075.79 1041.06,1082.25 1030.00,1089.67              1001.95,1108.49 986.62,1129.52 968.33,1157.00              968.33,1157.00 943.69,1199.00 943.69,1199.00              917.93,1246.52 899.41,1294.51 890.43,1348.00              884.82,1381.44 883.61,1408.25 884.00,1442.00              884.00,1442.00 884.91,1452.00 884.91,1452.00              886.30,1471.80 888.93,1492.45 896.45,1511.00              899.68,1518.96 905.99,1530.56 916.00,1529.88              924.24,1529.32 931.04,1521.11 935.63,1515.00              947.84,1498.75 956.58,1480.29 965.22,1462.00              984.19,1421.81 999.63,1379.53 1015.42,1338.00              1015.42,1338.00 1031.58,1297.00 1031.58,1297.00              1045.72,1259.51 1058.77,1221.38 1070.28,1183.00              1077.47,1159.04 1086.01,1129.56 1089.57,1105.00              1091.19,1093.87 1094.17,1076.06 1079.00,1073.31              1075.67,1072.73 1069.44,1072.96 1066.00,1073.31 Z            M 786.00,1250.00            C 786.00,1250.00 785.00,1250.00 785.00,1250.00              785.00,1250.00 786.00,1251.00 786.00,1251.00              786.00,1251.00 786.00,1250.00 786.00,1250.00 Z            M 1906.00,1271.00            C 1899.64,1275.55 1889.92,1286.06 1884.00,1292.00              1855.78,1320.32 1835.62,1353.07 1820.80,1390.00              1815.19,1403.99 1807.24,1423.06 1806.24,1438.00              1806.08,1439.42 1806.10,1440.59 1806.24,1442.00              1808.01,1453.37 1817.21,1447.80 1824.00,1444.69              1840.56,1437.11 1856.43,1428.09 1870.00,1415.83              1896.80,1391.62 1912.94,1355.19 1913.00,1319.00              1913.00,1319.00 1913.00,1307.00 1913.00,1307.00              1912.98,1295.47 1909.59,1281.96 1906.00,1271.00 Z            M 563.00,1370.00            C 563.00,1370.00 516.00,1397.60 516.00,1397.60              477.46,1420.72 439.95,1445.91 404.00,1472.87              348.46,1514.53 296.42,1556.68 264.75,1620.00              258.07,1633.37 251.71,1648.53 247.88,1663.00              247.88,1663.00 243.61,1681.00 243.61,1681.00              238.27,1710.43 238.37,1753.88 270.00,1768.68              285.28,1775.83 298.71,1775.19 315.00,1775.00              327.38,1774.85 347.12,1769.96 359.00,1766.00              388.74,1756.09 415.90,1741.67 441.00,1722.87              503.81,1675.83 551.57,1606.00 568.58,1529.00              571.01,1518.00 574.95,1493.83 575.00,1483.00              575.00,1483.00 576.00,1459.00 576.00,1459.00              576.00,1459.00 575.00,1441.00 575.00,1441.00              575.00,1441.00 574.08,1431.00 574.08,1431.00              572.41,1410.12 567.59,1390.33 563.00,1370.00 Z            M 1567.00,1386.00            C 1562.44,1390.08 1558.63,1396.10 1554.79,1401.00              1554.79,1401.00 1534.35,1427.00 1534.35,1427.00              1534.35,1427.00 1496.17,1472.00 1496.17,1472.00              1496.17,1472.00 1481.97,1488.00 1481.97,1488.00              1481.97,1488.00 1453.72,1519.00 1453.72,1519.00              1448.90,1524.46 1443.82,1527.66 1442.00,1535.00              1449.01,1536.64 1453.55,1534.66 1460.00,1531.99              1470.67,1527.57 1482.69,1518.61 1492.00,1511.63              1521.56,1489.46 1551.34,1459.33 1562.28,1423.00              1566.23,1409.87 1567.00,1399.55 1567.00,1386.00 Z            M 1062.00,1448.00            C 1062.00,1448.00 1061.00,1448.00 1061.00,1448.00              1061.00,1448.00 1062.00,1449.00 1062.00,1449.00              1062.00,1449.00 1062.00,1448.00 1062.00,1448.00 Z"/>
</svg>