<svg xmlns="http://www.w3.org/2000/svg" viewBox="258.5 186.5 4494 2961">
  <path id="scicon" fill="#303030" stroke="none" stroke-width="1"
    d="M 280.00,1274.00            C 277.59,1269.86 275.82,1257.29 274.92,1252.00              274.92,1252.00 267.87,1211.00 267.87,1211.00              267.87,1211.00 260.91,1147.00 260.91,1147.00              260.91,1147.00 260.00,1137.00 260.00,1137.00              260.00,1137.00 259.00,1118.00 259.00,1118.00              259.00,1118.00 259.00,1060.00 259.00,1060.00              259.00,1060.00 260.00,1041.00 260.00,1041.00              260.00,1041.00 261.83,1020.00 261.83,1020.00              265.14,985.84 270.39,952.36 278.63,919.00              306.93,804.36 363.95,699.92 443.92,613.00              443.92,613.00 472.00,583.00 472.00,583.00              472.00,583.00 483.00,572.96 483.00,572.96              546.23,512.49 620.05,458.47 699.00,420.26              718.82,410.67 779.68,388.61 803.00,380.31              855.96,361.46 909.17,343.49 963.00,327.28              1065.48,296.41 1169.03,270.19 1274.00,249.20              1274.00,249.20 1388.00,228.42 1388.00,228.42              1442.18,220.01 1496.48,212.00 1551.00,206.16              1551.00,206.16 1628.00,198.83 1628.00,198.83              1628.00,198.83 1685.00,194.00 1685.00,194.00              1685.00,194.00 1694.00,194.00 1694.00,194.00              1694.00,194.00 1723.00,192.00 1723.00,192.00              1723.00,192.00 1739.00,191.00 1739.00,191.00              1739.00,191.00 1765.00,190.00 1765.00,190.00              1765.00,190.00 1781.00,188.96 1781.00,188.96              1781.00,188.96 1796.00,188.96 1796.00,188.96              1796.00,188.96 1807.00,188.00 1807.00,188.00              1807.00,188.00 1829.00,188.00 1829.00,188.00              1829.00,188.00 1846.00,187.00 1846.00,187.00              1846.00,187.00 1968.00,187.00 1968.00,187.00              1968.00,187.00 1983.00,188.00 1983.00,188.00              1983.00,188.00 2002.00,188.00 2002.00,188.00              2002.00,188.00 2014.00,188.96 2014.00,188.96              2014.00,188.96 2030.00,188.96 2030.00,188.96              2030.00,188.96 2052.00,190.00 2052.00,190.00              2052.00,190.00 2068.00,191.00 2068.00,191.00              2068.00,191.00 2109.00,193.00 2109.00,193.00              2109.00,193.00 2132.00,194.96 2132.00,194.96              2132.00,194.96 2141.00,194.96 2141.00,194.96              2141.00,194.96 2162.00,196.91 2162.00,196.91              2162.00,196.91 2293.00,209.84 2293.00,209.84              2363.32,217.36 2433.41,229.02 2503.00,241.58              2639.92,266.28 2781.49,301.99 2914.00,344.34              3030.35,381.53 3144.98,425.33 3256.00,476.31              3294.08,493.79 3332.14,512.37 3369.00,532.31              3369.00,532.31 3416.00,558.24 3416.00,558.24              3423.12,561.74 3431.98,566.36 3440.00,565.91              3440.00,565.91 3452.00,565.00 3452.00,565.00              3452.00,565.00 3482.00,565.00 3482.00,565.00              3482.00,565.00 3504.00,566.00 3504.00,566.00              3504.00,566.00 3514.00,566.91 3514.00,566.91              3538.59,568.60 3562.79,571.76 3587.00,576.60              3731.35,605.48 3846.43,686.76 3935.12,803.00              4037.06,936.63 4100.38,1106.01 4140.87,1268.00              4171.10,1388.90 4191.77,1513.05 4204.17,1637.00              4204.17,1637.00 4215.09,1765.00 4215.09,1765.00              4215.09,1765.00 4217.00,1793.00 4217.00,1793.00              4217.00,1793.00 4218.00,1807.00 4218.00,1807.00              4218.00,1807.00 4219.00,1827.00 4219.00,1827.00              4219.00,1827.00 4220.04,1847.00 4220.04,1847.00              4220.04,1847.00 4220.04,1858.00 4220.04,1858.00              4220.04,1858.00 4221.00,1868.00 4221.00,1868.00              4221.00,1868.00 4221.00,1881.00 4221.00,1881.00              4221.00,1881.00 4222.00,1895.00 4222.00,1895.00              4222.00,1895.00 4222.00,1912.00 4222.00,1912.00              4222.00,1912.00 4223.00,1928.00 4223.00,1928.00              4223.00,1928.00 4223.00,1962.00 4223.00,1962.00              4223.00,1962.00 4224.00,1979.00 4224.00,1979.00              4224.00,1979.00 4224.00,2059.00 4224.00,2059.00              4224.00,2059.00 4223.00,2075.00 4223.00,2075.00              4223.00,2075.00 4223.00,2108.00 4223.00,2108.00              4223.00,2108.00 4222.00,2123.00 4222.00,2123.00              4222.00,2123.00 4222.00,2137.00 4222.00,2137.00              4222.00,2137.00 4221.00,2157.00 4221.00,2157.00              4221.00,2157.00 4219.00,2191.00 4219.00,2191.00              4219.00,2191.00 4219.00,2238.00 4219.00,2238.00              4219.00,2238.00 4219.91,2248.00 4219.91,2248.00              4219.91,2248.00 4224.58,2292.00 4224.58,2292.00              4239.42,2387.62 4286.46,2471.37 4367.00,2526.98              4388.48,2541.80 4411.28,2554.80 4435.00,2565.69              4435.00,2565.69 4485.00,2587.31 4485.00,2587.31              4494.48,2592.41 4502.93,2599.21 4511.00,2606.29              4526.69,2620.04 4544.12,2639.84 4557.57,2656.00              4557.57,2656.00 4577.04,2680.00 4577.04,2680.00              4610.76,2715.27 4645.66,2739.86 4691.00,2758.00              4710.45,2765.78 4731.00,2772.30 4752.00,2774.00              4749.49,2778.44 4744.00,2782.14 4740.00,2785.39              4740.00,2785.39 4717.00,2803.88 4717.00,2803.88              4687.87,2826.31 4657.53,2847.08 4626.00,2866.00              4498.44,2942.55 4354.55,2995.15 4211.00,3032.88              4040.14,3077.79 3866.55,3104.61 3691.00,3122.17              3691.00,3122.17 3554.00,3133.91 3554.00,3133.91              3554.00,3133.91 3531.00,3135.09 3531.00,3135.09              3531.00,3135.09 3502.00,3137.00 3502.00,3137.00              3502.00,3137.00 3488.00,3138.00 3488.00,3138.00              3488.00,3138.00 3465.00,3139.00 3465.00,3139.00              3465.00,3139.00 3450.00,3140.00 3450.00,3140.00              3450.00,3140.00 3429.00,3141.00 3429.00,3141.00              3429.00,3141.00 3408.00,3142.04 3408.00,3142.04              3408.00,3142.04 3396.00,3142.04 3396.00,3142.04              3396.00,3142.04 3386.00,3143.00 3386.00,3143.00              3386.00,3143.00 3373.00,3143.00 3373.00,3143.00              3373.00,3143.00 3359.00,3144.00 3359.00,3144.00              3359.00,3144.00 3342.00,3144.00 3342.00,3144.00              3342.00,3144.00 3326.00,3145.00 3326.00,3145.00              3326.00,3145.00 3304.00,3145.00 3304.00,3145.00              3304.00,3145.00 3288.00,3146.00 3288.00,3146.00              3288.00,3146.00 3254.00,3146.00 3254.00,3146.00              3254.00,3146.00 3237.00,3147.00 3237.00,3147.00              3237.00,3147.00 3054.00,3147.00 3054.00,3147.00              3054.00,3147.00 3039.00,3146.00 3039.00,3146.00              3039.00,3146.00 3002.00,3146.00 3002.00,3146.00              3002.00,3146.00 2986.00,3145.00 2986.00,3145.00              2986.00,3145.00 2963.00,3145.00 2963.00,3145.00              2963.00,3145.00 2948.00,3144.00 2948.00,3144.00              2948.00,3144.00 2929.00,3144.00 2929.00,3144.00              2929.00,3144.00 2913.00,3143.00 2913.00,3143.00              2913.00,3143.00 2875.00,3142.00 2875.00,3142.00              2875.00,3142.00 2853.00,3141.00 2853.00,3141.00              2853.00,3141.00 2841.00,3140.04 2841.00,3140.04              2841.00,3140.04 2829.00,3140.04 2829.00,3140.04              2829.00,3140.04 2815.00,3139.00 2815.00,3139.00              2815.00,3139.00 2793.00,3138.00 2793.00,3138.00              2793.00,3138.00 2771.00,3137.00 2771.00,3137.00              2771.00,3137.00 2761.00,3136.04 2761.00,3136.04              2761.00,3136.04 2753.00,3136.04 2753.00,3136.04              2753.00,3136.04 2736.00,3135.00 2736.00,3135.00              2736.00,3135.00 2725.00,3134.04 2725.00,3134.04              2725.00,3134.04 2679.00,3131.09 2679.00,3131.09              2679.00,3131.09 2571.00,3122.83 2571.00,3122.83              2571.00,3122.83 2523.00,3118.00 2523.00,3118.00              2528.13,3110.90 2548.21,3094.84 2556.00,3087.83              2556.00,3087.83 2603.00,3043.00 2603.00,3043.00              2603.00,3043.00 2622.91,3023.00 2622.91,3023.00              2680.38,2961.31 2733.96,2891.99 2769.31,2815.00              2786.82,2776.85 2806.06,2725.00 2808.91,2683.00              2809.33,2676.89 2808.45,2675.27 2808.04,2670.00              2808.04,2670.00 2808.04,2661.00 2808.04,2661.00              2808.04,2661.00 2807.00,2646.00 2807.00,2646.00              2807.00,2646.00 2807.00,2563.00 2807.00,2563.00              2807.00,2563.00 2808.00,2548.00 2808.00,2548.00              2808.00,2548.00 2808.00,2535.00 2808.00,2535.00              2808.00,2535.00 2808.96,2524.00 2808.96,2524.00              2808.96,2524.00 2808.96,2513.00 2808.96,2513.00              2808.96,2513.00 2809.96,2503.00 2809.96,2503.00              2809.96,2503.00 2809.96,2494.00 2809.96,2494.00              2809.96,2494.00 2811.00,2477.00 2811.00,2477.00              2811.00,2477.00 2811.96,2466.00 2811.96,2466.00              2811.96,2466.00 2815.91,2409.00 2815.91,2409.00              2821.01,2334.86 2829.26,2260.94 2837.16,2187.00              2837.16,2187.00 2843.84,2130.00 2843.84,2130.00              2843.84,2130.00 2863.72,1973.00 2863.72,1973.00              2863.72,1973.00 2871.58,1916.00 2871.58,1916.00              2871.58,1916.00 2876.00,1888.00 2876.00,1888.00              2870.23,1886.65 2859.44,1882.56 2855.09,1878.67              2847.15,1871.57 2842.23,1854.23 2839.29,1844.00              2834.09,1825.90 2828.79,1794.10 2826.28,1775.00              2826.28,1775.00 2822.00,1742.00 2822.00,1742.00              2816.00,1743.76 2794.58,1745.92 2788.00,1746.04              2788.00,1746.04 2776.00,1746.04 2776.00,1746.04              2776.00,1746.04 2764.00,1747.00 2764.00,1747.00              2764.00,1747.00 2740.00,1747.00 2740.00,1747.00              2740.00,1747.00 2725.00,1746.00 2725.00,1746.00              2725.00,1746.00 2711.00,1746.00 2711.00,1746.00              2711.00,1746.00 2698.00,1745.00 2698.00,1745.00              2698.00,1745.00 2663.00,1742.17 2663.00,1742.17              2663.00,1742.17 2591.00,1736.91 2591.00,1736.91              2591.00,1736.91 2546.00,1734.00 2546.00,1734.00              2546.00,1734.00 2533.00,1733.00 2533.00,1733.00              2533.00,1733.00 2507.00,1732.00 2507.00,1732.00              2507.00,1732.00 2497.00,1731.04 2497.00,1731.04              2497.00,1731.04 2487.00,1731.04 2487.00,1731.04              2487.00,1731.04 2472.00,1730.00 2472.00,1730.00              2472.00,1730.00 2449.00,1729.00 2449.00,1729.00              2449.00,1729.00 2416.00,1728.00 2416.00,1728.00              2416.00,1728.00 2399.00,1727.00 2399.00,1727.00              2399.00,1727.00 2353.00,1726.00 2353.00,1726.00              2353.00,1726.00 2336.00,1725.00 2336.00,1725.00              2336.00,1725.00 2313.00,1725.00 2313.00,1725.00              2313.00,1725.00 2296.00,1724.00 2296.00,1724.00              2296.00,1724.00 2264.00,1724.00 2264.00,1724.00              2264.00,1724.00 2247.00,1723.00 2247.00,1723.00              2247.00,1723.00 2194.00,1723.00 2194.00,1723.00              2194.00,1723.00 2179.00,1722.00 2179.00,1722.00              2179.00,1722.00 2000.00,1722.00 2000.00,1722.00              2000.00,1722.00 1901.00,1722.00 1901.00,1722.00              1901.00,1722.00 1886.00,1723.00 1886.00,1723.00              1886.00,1723.00 1823.00,1723.00 1823.00,1723.00              1823.00,1723.00 1806.00,1724.00 1806.00,1724.00              1806.00,1724.00 1762.00,1724.00 1762.00,1724.00              1762.00,1724.00 1745.00,1725.00 1745.00,1725.00              1745.00,1725.00 1711.00,1725.00 1711.00,1725.00              1711.00,1725.00 1694.00,1726.00 1694.00,1726.00              1694.00,1726.00 1665.00,1726.00 1665.00,1726.00              1665.00,1726.00 1648.00,1727.00 1648.00,1727.00              1648.00,1727.00 1588.00,1728.00 1588.00,1728.00              1588.00,1728.00 1573.00,1729.00 1573.00,1729.00              1573.00,1729.00 1551.00,1729.00 1551.00,1729.00              1551.00,1729.00 1534.00,1730.00 1534.00,1730.00              1534.00,1730.00 1516.00,1730.00 1516.00,1730.00              1516.00,1730.00 1500.00,1731.00 1500.00,1731.00              1500.00,1731.00 1453.00,1732.00 1453.00,1732.00              1453.00,1732.00 1437.00,1733.00 1437.00,1733.00              1437.00,1733.00 1396.00,1734.00 1396.00,1734.00              1396.00,1734.00 1380.00,1735.00 1380.00,1735.00              1380.00,1735.00 1343.00,1736.00 1343.00,1736.00              1343.00,1736.00 1331.00,1736.96 1331.00,1736.96              1331.00,1736.96 1318.00,1736.96 1318.00,1736.96              1318.00,1736.96 1306.00,1737.96 1306.00,1737.96              1306.00,1737.96 1293.00,1737.96 1293.00,1737.96              1293.00,1737.96 1281.00,1738.96 1281.00,1738.96              1281.00,1738.96 1268.00,1738.96 1268.00,1738.96              1268.00,1738.96 1254.00,1740.00 1254.00,1740.00              1254.00,1740.00 1225.00,1741.00 1225.00,1741.00              1225.00,1741.00 1208.00,1742.00 1208.00,1742.00              1208.00,1742.00 1186.00,1743.00 1186.00,1743.00              1186.00,1743.00 1155.00,1744.00 1155.00,1744.00              1155.00,1744.00 1139.00,1745.00 1139.00,1745.00              1139.00,1745.00 1124.00,1746.00 1124.00,1746.00              1124.00,1746.00 1095.00,1747.91 1095.00,1747.91              1056.24,1750.56 1017.61,1753.95 979.00,1758.72              835.48,1776.43 684.13,1806.69 554.00,1871.75              498.53,1899.49 446.29,1933.28 403.91,1979.00              392.99,1990.78 384.54,2001.63 375.67,2015.00              371.13,2021.84 365.24,2031.14 363.00,2039.00              363.00,2039.00 346.00,2036.00 346.00,2036.00              350.89,1998.90 359.13,1962.29 371.69,1927.00              426.27,1773.64 546.43,1663.54 683.00,1581.60              720.14,1559.31 758.63,1538.77 798.00,1520.69              798.00,1520.69 880.00,1484.80 880.00,1484.80              916.98,1470.01 954.22,1456.26 992.00,1443.67              1195.96,1375.68 1408.14,1334.74 1621.00,1306.72              1690.54,1297.57 1760.23,1289.92 1830.00,1283.17              1830.00,1283.17 1898.00,1277.17 1898.00,1277.17              1898.00,1277.17 1919.00,1275.83 1919.00,1275.83              1919.00,1275.83 1972.00,1271.91 1972.00,1271.91              1972.00,1271.91 2014.00,1269.00 2014.00,1269.00              2014.00,1269.00 2024.00,1268.00 2024.00,1268.00              2024.00,1268.00 2033.00,1268.00 2033.00,1268.00              2033.00,1268.00 2062.00,1266.00 2062.00,1266.00              2062.00,1266.00 2077.00,1265.00 2077.00,1265.00              2077.00,1265.00 2095.00,1264.00 2095.00,1264.00              2095.00,1264.00 2113.00,1263.00 2113.00,1263.00              2113.00,1263.00 2142.00,1262.00 2142.00,1262.00              2142.00,1262.00 2152.00,1261.04 2152.00,1261.04              2152.00,1261.04 2164.00,1261.04 2164.00,1261.04              2164.00,1261.04 2179.00,1259.96 2179.00,1259.96              2179.00,1259.96 2192.00,1259.96 2192.00,1259.96              2192.00,1259.96 2204.00,1259.00 2204.00,1259.00              2204.00,1259.00 2242.00,1258.00 2242.00,1258.00              2242.00,1258.00 2259.00,1257.00 2259.00,1257.00              2259.00,1257.00 2275.00,1257.00 2275.00,1257.00              2275.00,1257.00 2291.00,1256.00 2291.00,1256.00              2291.00,1256.00 2313.00,1256.00 2313.00,1256.00              2313.00,1256.00 2330.00,1255.00 2330.00,1255.00              2330.00,1255.00 2362.00,1255.00 2362.00,1255.00              2362.00,1255.00 2379.00,1254.00 2379.00,1254.00              2379.00,1254.00 2436.00,1254.00 2436.00,1254.00              2436.00,1254.00 2451.00,1253.00 2451.00,1253.00              2451.00,1253.00 2588.00,1253.00 2588.00,1253.00              2588.00,1253.00 2603.00,1254.00 2603.00,1254.00              2603.00,1254.00 2664.00,1254.00 2664.00,1254.00              2664.00,1254.00 2680.00,1255.00 2680.00,1255.00              2680.00,1255.00 2712.00,1255.00 2712.00,1255.00              2712.00,1255.00 2729.00,1256.00 2729.00,1256.00              2729.00,1256.00 2751.00,1256.00 2751.00,1256.00              2751.00,1256.00 2766.00,1257.00 2766.00,1257.00              2766.00,1257.00 2784.00,1257.00 2784.00,1257.00              2784.00,1257.00 2801.00,1258.00 2801.00,1258.00              2801.00,1258.00 2839.00,1259.00 2839.00,1259.00              2839.00,1259.00 2851.00,1259.96 2851.00,1259.96              2851.00,1259.96 2864.00,1259.96 2864.00,1259.96              2864.00,1259.96 2876.00,1260.96 2876.00,1260.96              2876.00,1260.96 2888.00,1260.96 2888.00,1260.96              2888.00,1260.96 2901.00,1262.00 2901.00,1262.00              2901.00,1262.00 2927.00,1263.00 2927.00,1263.00              2927.00,1263.00 2937.00,1263.96 2937.00,1263.96              2937.00,1263.96 2946.00,1263.96 2946.00,1263.96              2946.00,1263.96 2963.00,1265.00 2963.00,1265.00              2963.00,1265.00 2944.12,1237.00 2944.12,1237.00              2928.06,1215.23 2909.49,1195.02 2887.00,1179.75              2866.30,1165.69 2841.49,1159.83 2818.00,1152.00              2818.00,1152.00 2691.00,1112.28 2691.00,1112.28              2578.20,1078.44 2464.01,1047.98 2349.00,1022.58              2166.15,982.19 1981.37,949.47 1795.00,930.83              1795.00,930.83 1635.00,916.91 1635.00,916.91              1635.00,916.91 1605.00,914.91 1605.00,914.91              1605.00,914.91 1595.00,914.00 1595.00,914.00              1595.00,914.00 1573.00,913.00 1573.00,913.00              1573.00,913.00 1558.00,912.00 1558.00,912.00              1558.00,912.00 1540.00,911.00 1540.00,911.00              1540.00,911.00 1510.00,910.00 1510.00,910.00              1510.00,910.00 1494.00,908.96 1494.00,908.96              1494.00,908.96 1478.00,908.96 1478.00,908.96              1478.00,908.96 1467.00,908.00 1467.00,908.00              1467.00,908.00 1447.00,908.00 1447.00,908.00              1447.00,908.00 1430.00,907.00 1430.00,907.00              1430.00,907.00 1387.00,907.00 1387.00,907.00              1387.00,907.00 1372.00,906.00 1372.00,906.00              1372.00,906.00 1304.00,906.00 1304.00,906.00              1304.00,906.00 1289.00,907.00 1289.00,907.00              1289.00,907.00 1249.00,907.00 1249.00,907.00              1249.00,907.00 1232.00,908.00 1232.00,908.00              1232.00,908.00 1185.00,909.00 1185.00,909.00              1185.00,909.00 1170.00,910.00 1170.00,910.00              1170.00,910.00 1143.00,911.00 1143.00,911.00              1143.00,911.00 1128.00,912.00 1128.00,912.00              1128.00,912.00 1111.00,913.00 1111.00,913.00              1111.00,913.00 1067.00,915.91 1067.00,915.91              1067.00,915.91 982.00,922.83 982.00,922.83              886.07,932.12 790.60,944.68 696.00,963.60              696.00,963.60 614.00,982.11 614.00,982.11              614.00,982.11 575.00,990.42 575.00,990.42              540.21,1000.10 506.70,1014.32 476.00,1033.42              410.25,1074.35 352.21,1138.16 313.42,1205.00              313.42,1205.00 292.31,1245.00 292.31,1245.00              292.31,1245.00 280.00,1274.00 280.00,1274.00 Z            M 3410.00,574.00            C 3410.00,574.00 3325.00,527.26 3325.00,527.26              3325.00,527.26 3297.00,513.74 3297.00,513.74              3254.76,493.30 3212.29,473.74 3169.00,455.58              3039.23,401.12 2916.49,359.25 2781.00,321.58              2602.16,271.84 2413.71,236.72 2229.00,218.83              2229.00,218.83 2136.00,210.91 2136.00,210.91              2136.00,210.91 2090.00,208.00 2090.00,208.00              2090.00,208.00 2077.00,207.00 2077.00,207.00              2077.00,207.00 2049.00,206.00 2049.00,206.00              2049.00,206.00 2036.00,205.00 2036.00,205.00              2036.00,205.00 2023.00,205.00 2023.00,205.00              2023.00,205.00 2007.00,204.00 2007.00,204.00              2007.00,204.00 1990.00,204.00 1990.00,204.00              1990.00,204.00 1974.00,203.00 1974.00,203.00              1974.00,203.00 1836.00,203.00 1836.00,203.00              1836.00,203.00 1821.00,204.00 1821.00,204.00              1821.00,204.00 1804.00,204.00 1804.00,204.00              1804.00,204.00 1792.00,204.96 1792.00,204.96              1792.00,204.96 1777.00,204.96 1777.00,204.96              1777.00,204.96 1761.00,206.00 1761.00,206.00              1761.00,206.00 1717.00,208.00 1717.00,208.00              1717.00,208.00 1707.00,209.00 1707.00,209.00              1707.00,209.00 1698.00,209.00 1698.00,209.00              1698.00,209.00 1677.00,210.91 1677.00,210.91              1677.00,210.91 1584.00,218.83 1584.00,218.83              1481.34,229.10 1379.21,244.35 1278.00,264.60              1119.74,296.26 966.03,339.21 814.00,393.31              787.22,402.84 735.16,421.22 711.00,432.31              711.00,432.31 670.00,453.70 670.00,453.70              670.00,453.70 631.00,477.00 631.00,477.00              625.59,480.53 619.75,483.58 615.00,488.00              615.00,488.00 658.00,472.05 658.00,472.05              684.26,462.45 711.06,453.91 738.00,446.42              841.52,417.64 964.66,403.37 1070.00,429.37              1117.87,441.19 1161.71,458.78 1203.00,486.00              1203.00,486.00 1230.00,505.42 1230.00,505.42              1234.30,508.77 1240.82,513.71 1243.91,518.04              1253.84,531.97 1260.97,558.89 1261.00,576.00              1261.00,576.00 1261.00,590.00 1261.00,590.00              1261.00,590.00 1259.08,607.00 1259.08,607.00              1252.01,649.77 1227.70,689.50 1199.87,722.00              1190.47,732.97 1180.57,744.06 1170.00,753.91              1123.02,797.68 1075.10,831.72 1020.00,864.40              1020.00,864.40 967.00,894.22 967.00,894.22              967.00,894.22 936.00,911.00 936.00,911.00              936.00,911.00 1009.00,904.17 1009.00,904.17              1009.00,904.17 1069.00,899.91 1069.00,899.91              1069.00,899.91 1090.00,898.00 1090.00,898.00              1090.00,898.00 1099.00,898.00 1099.00,898.00              1099.00,898.00 1109.00,897.00 1109.00,897.00              1109.00,897.00 1154.00,895.00 1154.00,895.00              1154.00,895.00 1164.00,894.04 1164.00,894.04              1164.00,894.04 1176.00,894.04 1176.00,894.04              1176.00,894.04 1191.00,892.96 1191.00,892.96              1191.00,892.96 1207.00,892.96 1207.00,892.96              1207.00,892.96 1218.00,892.00 1218.00,892.00              1218.00,892.00 1239.00,892.00 1239.00,892.00              1239.00,892.00 1256.00,891.00 1256.00,891.00              1256.00,891.00 1313.00,891.00 1313.00,891.00              1313.00,891.00 1329.00,890.00 1329.00,890.00              1329.00,890.00 1354.00,890.00 1354.00,890.00              1354.00,890.00 1369.00,891.00 1369.00,891.00              1369.00,891.00 1422.00,891.00 1422.00,891.00              1422.00,891.00 1437.00,892.00 1437.00,892.00              1437.00,892.00 1460.00,892.00 1460.00,892.00              1460.00,892.00 1477.00,893.00 1477.00,893.00              1477.00,893.00 1514.00,894.00 1514.00,894.00              1514.00,894.00 1526.00,894.96 1526.00,894.96              1526.00,894.96 1537.00,894.96 1537.00,894.96              1537.00,894.96 1552.00,896.00 1552.00,896.00              1552.00,896.00 1593.00,898.00 1593.00,898.00              1593.00,898.00 1603.00,898.91 1603.00,898.91              1603.00,898.91 1647.00,901.91 1647.00,901.91              1647.00,901.91 1733.00,908.83 1733.00,908.83              1733.00,908.83 1827.00,918.16 1827.00,918.16              1899.19,925.89 1971.25,936.28 2043.00,947.42              2218.93,974.74 2414.45,1017.72 2586.00,1065.42              2654.67,1084.52 2723.11,1104.65 2791.00,1126.34              2791.00,1126.34 2865.00,1150.67 2865.00,1150.67              2865.00,1150.67 2884.00,1158.22 2884.00,1158.22              2884.00,1158.22 2945.00,1169.80 2945.00,1169.80              2945.00,1169.80 3076.00,1196.21 3076.00,1196.21              3076.00,1196.21 3172.00,1218.15 3172.00,1218.15              3172.00,1218.15 3205.00,1227.02 3205.00,1227.02              3205.00,1227.02 3231.00,1235.00 3231.00,1235.00              3231.00,1235.00 3224.37,1214.00 3224.37,1214.00              3221.89,1204.03 3219.89,1184.27 3220.00,1174.00              3220.00,1174.00 3221.04,1164.00 3221.04,1164.00              3221.04,1164.00 3221.04,1155.00 3221.04,1155.00              3221.04,1155.00 3227.75,1108.00 3227.75,1108.00              3227.75,1108.00 3246.20,1013.00 3246.20,1013.00              3261.33,938.49 3280.41,864.59 3302.98,792.00              3318.27,742.78 3342.06,677.34 3367.43,633.00              3374.73,620.23 3382.39,607.63 3391.42,596.00              3391.42,596.00 3410.00,574.00 3410.00,574.00 Z            M 615.00,488.00            C 615.00,488.00 614.00,488.00 614.00,488.00              614.00,488.00 615.00,489.00 615.00,489.00              615.00,489.00 615.00,488.00 615.00,488.00 Z            M 3308.00,1263.00            C 3309.22,1263.89 3311.20,1265.08 3311.95,1266.41              3312.86,1268.23 3312.03,1273.60 3311.95,1276.00              3311.93,1282.07 3311.99,1287.31 3314.53,1293.00              3320.29,1305.95 3332.00,1306.27 3344.00,1307.09              3344.00,1307.09 3359.00,1308.00 3359.00,1308.00              3359.00,1308.00 3369.00,1308.96 3369.00,1308.96              3369.00,1308.96 3380.00,1308.96 3380.00,1308.96              3380.00,1308.96 3395.00,1310.04 3395.00,1310.04              3395.00,1310.04 3410.00,1310.04 3410.00,1310.04              3410.00,1310.04 3422.00,1311.00 3422.00,1311.00              3422.00,1311.00 3449.00,1311.00 3449.00,1311.00              3449.00,1311.00 3465.00,1312.00 3465.00,1312.00              3465.00,1312.00 3531.00,1312.00 3531.00,1312.00              3531.00,1312.00 3548.00,1311.00 3548.00,1311.00              3548.00,1311.00 3566.00,1311.00 3566.00,1311.00              3566.00,1311.00 3578.00,1310.04 3578.00,1310.04              3578.00,1310.04 3591.00,1310.04 3591.00,1310.04              3591.00,1310.04 3608.00,1309.00 3608.00,1309.00              3608.00,1309.00 3618.00,1308.09 3618.00,1308.09              3618.00,1308.09 3687.00,1301.42 3687.00,1301.42              3720.48,1296.46 3751.58,1291.38 3783.00,1277.85              3793.14,1273.48 3811.10,1263.28 3815.66,1253.00              3817.40,1249.09 3815.57,1244.80 3814.33,1241.00              3814.33,1241.00 3806.00,1215.00 3806.00,1215.00              3795.37,1182.81 3787.08,1149.87 3778.87,1117.00              3778.87,1117.00 3751.42,1007.00 3751.42,1007.00              3746.38,989.74 3741.60,972.24 3733.74,956.00              3718.05,923.57 3694.76,895.85 3670.04,870.00              3670.04,870.00 3661.96,861.01 3661.96,861.01              3661.96,861.01 3652.00,851.96 3652.00,851.96              3626.60,827.67 3599.95,805.43 3572.00,784.12              3572.00,784.12 3507.00,738.00 3507.00,738.00              3499.82,733.22 3481.17,720.28 3474.00,718.00              3469.96,767.90 3444.47,824.13 3417.95,866.00              3417.95,866.00 3394.85,900.00 3394.85,900.00              3394.85,900.00 3380.09,920.00 3380.09,920.00              3370.69,934.58 3356.16,963.74 3348.69,980.00              3337.98,1003.32 3326.98,1028.65 3322.26,1054.00              3320.09,1065.67 3318.37,1079.81 3323.35,1091.00              3324.93,1094.56 3326.99,1097.79 3330.09,1100.21              3332.74,1102.28 3336.13,1103.43 3338.16,1106.21              3341.64,1110.98 3342.99,1126.87 3343.00,1133.00              3343.05,1164.97 3334.77,1201.08 3323.58,1231.00              3321.66,1236.13 3314.70,1255.61 3312.32,1258.87              3311.11,1260.53 3309.56,1261.70 3308.00,1263.00 Z            M 3538.00,921.42            C 3545.79,920.48 3557.18,921.76 3565.00,923.08              3575.45,924.84 3583.26,927.26 3593.00,931.43              3605.80,936.90 3617.19,945.20 3627.00,955.00              3651.44,979.41 3661.98,1005.65 3671.72,1038.00              3671.72,1038.00 3677.57,1056.00 3677.57,1056.00              3680.47,1066.14 3683.87,1085.59 3684.00,1096.00              3684.25,1117.76 3683.52,1132.87 3676.98,1154.00              3661.82,1202.90 3622.71,1238.69 3577.00,1259.30              3556.77,1268.43 3537.20,1274.54 3515.00,1276.09              3511.56,1276.33 3509.60,1277.07 3506.00,1276.82              3494.72,1276.02 3483.49,1274.63 3473.00,1270.13              3438.52,1255.32 3424.71,1217.50 3419.73,1183.00              3418.45,1174.12 3417.01,1163.92 3417.00,1155.00              3417.00,1155.00 3417.00,1141.00 3417.00,1141.00              3417.00,1141.00 3415.00,1114.00 3415.00,1114.00              3415.00,1114.00 3415.00,1090.00 3415.00,1090.00              3415.01,1082.08 3416.91,1067.04 3418.25,1059.00              3425.89,1013.15 3445.20,972.70 3483.00,944.13              3491.21,937.92 3505.47,929.19 3515.00,925.46              3522.96,922.35 3529.90,922.57 3538.00,921.42 Z            M 3537.00,930.14            C 3531.65,931.05 3526.20,931.17 3521.00,932.77              3513.94,934.95 3499.27,943.54 3493.00,947.88              3454.11,974.87 3434.43,1015.32 3426.92,1061.00              3425.63,1068.83 3424.01,1080.21 3424.00,1088.00              3424.00,1088.00 3424.00,1116.00 3424.00,1116.00              3424.00,1116.00 3425.00,1131.00 3425.00,1131.00              3425.00,1131.00 3426.00,1158.00 3426.00,1158.00              3426.00,1158.00 3427.85,1177.00 3427.85,1177.00              3431.86,1210.58 3444.38,1249.80 3479.00,1262.94              3486.13,1265.64 3498.38,1267.81 3506.00,1267.99              3523.79,1268.39 3547.52,1261.81 3564.00,1255.20              3610.32,1236.62 3650.50,1203.19 3667.31,1155.00              3679.47,1120.12 3676.87,1081.61 3665.33,1047.00              3657.77,1024.31 3654.38,1009.27 3641.55,988.00              3620.56,953.21 3587.47,930.19 3546.00,930.14              3546.00,930.14 3537.00,930.14 3537.00,930.14 Z            M 3529.00,989.63            C 3536.27,988.54 3540.89,989.12 3548.00,989.63              3573.58,992.39 3594.04,999.24 3611.83,1019.00              3623.51,1031.98 3630.66,1048.21 3634.87,1065.00              3640.42,1087.09 3639.99,1110.21 3625.50,1129.00              3608.94,1150.47 3576.27,1159.96 3550.00,1160.00              3550.00,1160.00 3531.00,1160.00 3531.00,1160.00              3521.94,1159.89 3508.62,1156.92 3500.00,1154.00              3485.02,1148.92 3470.25,1139.44 3461.55,1126.00              3452.10,1111.41 3451.81,1098.58 3452.00,1082.00              3452.28,1058.64 3463.18,1029.97 3479.17,1013.04              3493.31,998.07 3509.31,992.40 3529.00,989.63 Z            M 3523.00,1054.73            C 3519.92,1054.85 3517.72,1054.98 3515.02,1056.73              3501.39,1065.55 3509.74,1085.14 3524.00,1083.44              3540.54,1081.48 3542.52,1056.71 3523.00,1054.73 Z            M 2915.00,1179.00            C 2915.00,1179.00 2914.00,1179.00 2914.00,1179.00              2914.00,1179.00 2915.00,1180.00 2915.00,1180.00              2915.00,1180.00 2915.00,1179.00 2915.00,1179.00 Z            M 3241.00,1249.00            C 3233.50,1255.71 3235.25,1252.47 3218.00,1246.67              3218.00,1246.67 3159.00,1230.37 3159.00,1230.37              3105.77,1217.06 3051.80,1206.16 2998.00,1195.40              2998.00,1195.40 2947.00,1185.40 2947.00,1185.40              2947.00,1185.40 2915.00,1180.00 2915.00,1180.00              2918.75,1185.12 2925.28,1190.22 2930.00,1195.00              2936.79,1201.87 2943.14,1209.47 2949.20,1217.00              2967.51,1239.78 2976.89,1258.25 2991.00,1283.00              2991.00,1283.00 2985.00,1283.00 2985.00,1283.00              2995.08,1297.07 3016.96,1305.80 3033.00,1311.34              3072.33,1324.95 3113.90,1331.77 3155.00,1337.58              3155.00,1337.58 3203.00,1343.02 3203.00,1343.02              3206.12,1343.24 3216.44,1343.87 3218.41,1345.74              3219.57,1346.85 3219.55,1347.65 3220.00,1349.00              3220.00,1349.00 3259.00,1348.00 3259.00,1348.00              3262.84,1377.10 3264.50,1397.62 3259.57,1427.00              3242.79,1526.93 3161.40,1595.96 3077.00,1642.30              3077.00,1642.30 3022.00,1669.42 3022.00,1669.42              3022.00,1669.42 2966.00,1691.69 2966.00,1691.69              2966.00,1691.69 2887.00,1716.42 2887.00,1716.42              2887.00,1716.42 2837.00,1728.00 2837.00,1728.00              2837.00,1728.00 2843.73,1784.00 2843.73,1784.00              2846.57,1803.27 2851.98,1835.36 2858.81,1853.00              2860.82,1858.18 2863.17,1864.86 2868.04,1867.93              2872.85,1870.96 2888.66,1874.93 2891.36,1878.41              2892.54,1879.92 2892.48,1881.21 2892.35,1883.00              2892.35,1883.00 2889.27,1904.00 2889.27,1904.00              2889.27,1904.00 2882.28,1954.00 2882.28,1954.00              2882.28,1954.00 2862.28,2109.00 2862.28,2109.00              2862.28,2109.00 2845.83,2256.00 2845.83,2256.00              2845.83,2256.00 2831.91,2408.00 2831.91,2408.00              2831.91,2408.00 2828.09,2457.00 2828.09,2457.00              2828.09,2457.00 2826.91,2482.00 2826.91,2482.00              2826.91,2482.00 2826.00,2498.00 2826.00,2498.00              2826.00,2498.00 2825.00,2512.00 2825.00,2512.00              2825.00,2512.00 2823.96,2534.00 2823.96,2534.00              2823.96,2534.00 2823.96,2548.00 2823.96,2548.00              2823.96,2548.00 2823.00,2560.00 2823.00,2560.00              2823.00,2560.00 2823.00,2648.00 2823.00,2648.00              2823.00,2648.00 2823.86,2663.00 2823.86,2663.00              2824.18,2678.61 2825.82,2676.66 2823.86,2694.00              2822.78,2701.69 2818.13,2718.62 2820.47,2725.00              2833.83,2761.48 2865.49,2790.11 2898.00,2809.60              2945.21,2837.91 3009.56,2853.64 3064.00,2860.15              3064.00,2860.15 3105.00,2864.09 3105.00,2864.09              3105.00,2864.09 3116.00,2865.00 3116.00,2865.00              3116.00,2865.00 3136.00,2866.00 3136.00,2866.00              3136.00,2866.00 3168.00,2866.00 3168.00,2866.00              3177.39,2866.01 3190.26,2869.06 3200.00,2870.58              3200.00,2870.58 3236.00,2875.00 3236.00,2875.00              3236.00,2875.00 3245.00,2875.00 3245.00,2875.00              3245.00,2875.00 3257.00,2876.00 3257.00,2876.00              3257.00,2876.00 3284.00,2876.00 3284.00,2876.00              3284.00,2876.00 3297.00,2875.04 3297.00,2875.04              3333.46,2873.45 3369.20,2865.80 3404.00,2854.98              3477.79,2832.02 3546.67,2783.96 3602.00,2731.04              3602.00,2731.04 3610.96,2722.96 3610.96,2722.96              3610.96,2722.96 3619.04,2714.00 3619.04,2714.00              3619.04,2714.00 3631.83,2701.00 3631.83,2701.00              3682.69,2644.79 3724.20,2585.61 3760.31,2519.00              3772.21,2497.04 3797.88,2447.38 3804.97,2425.00              3812.13,2402.41 3818.58,2360.15 3821.16,2336.00              3821.16,2336.00 3825.09,2292.00 3825.09,2292.00              3825.09,2292.00 3826.00,2282.00 3826.00,2282.00              3826.00,2282.00 3827.00,2262.00 3827.00,2262.00              3827.00,2262.00 3827.00,2241.00 3827.00,2241.00              3827.00,2241.00 3828.00,2220.00 3828.00,2220.00              3828.00,2220.00 3827.00,2207.00 3827.00,2207.00              3827.00,2207.00 3827.00,2200.00 3827.00,2200.00              3827.11,2191.68 3831.20,2186.32 3834.74,2179.00              3834.74,2179.00 3846.40,2152.00 3846.40,2152.00              3857.70,2124.22 3868.10,2090.31 3874.58,2061.00              3881.35,2030.35 3885.94,1999.27 3888.09,1968.00              3888.09,1968.00 3889.00,1958.00 3889.00,1958.00              3889.00,1958.00 3890.00,1937.00 3890.00,1937.00              3890.00,1937.00 3890.00,1911.00 3890.00,1911.00              3890.00,1911.00 3889.18,1894.00 3889.18,1894.00              3889.18,1894.00 3898.98,1863.00 3898.98,1863.00              3905.20,1842.96 3910.74,1822.55 3915.00,1802.00              3921.60,1770.12 3925.87,1738.43 3928.09,1706.00              3928.09,1706.00 3929.04,1695.00 3929.04,1695.00              3929.04,1695.00 3929.04,1681.00 3929.04,1681.00              3929.04,1681.00 3930.00,1669.00 3930.00,1669.00              3930.00,1669.00 3930.00,1656.00 3930.00,1656.00              3930.00,1656.00 3929.04,1644.00 3929.04,1644.00              3929.04,1644.00 3929.04,1630.00 3929.04,1630.00              3929.04,1630.00 3928.09,1620.00 3928.09,1620.00              3928.09,1620.00 3923.13,1570.00 3923.13,1570.00              3917.51,1529.62 3906.97,1483.39 3893.31,1445.00              3893.31,1445.00 3872.22,1392.00 3872.22,1392.00              3872.22,1392.00 3858.75,1365.00 3858.75,1365.00              3858.75,1365.00 3853.09,1354.00 3853.09,1354.00              3853.09,1354.00 3839.66,1316.00 3839.66,1316.00              3839.66,1316.00 3821.00,1262.00 3821.00,1262.00              3808.09,1271.24 3811.10,1273.08 3792.00,1282.89              3768.06,1295.19 3733.64,1302.81 3707.00,1307.25              3677.98,1312.08 3628.97,1317.66 3600.00,1318.00              3600.00,1318.00 3590.00,1318.96 3590.00,1318.96              3590.00,1318.96 3577.00,1318.96 3577.00,1318.96              3577.00,1318.96 3562.00,1320.00 3562.00,1320.00              3562.00,1320.00 3537.00,1320.00 3537.00,1320.00              3537.00,1320.00 3520.00,1321.00 3520.00,1321.00              3520.00,1321.00 3478.00,1321.00 3478.00,1321.00              3478.00,1321.00 3461.00,1320.00 3461.00,1320.00              3461.00,1320.00 3429.00,1320.00 3429.00,1320.00              3429.00,1320.00 3414.00,1319.00 3414.00,1319.00              3414.00,1319.00 3399.00,1319.00 3399.00,1319.00              3399.00,1319.00 3383.00,1318.00 3383.00,1318.00              3383.00,1318.00 3357.00,1317.00 3357.00,1317.00              3357.00,1317.00 3347.00,1315.96 3347.00,1315.96              3347.00,1315.96 3338.00,1315.96 3338.00,1315.96              3322.88,1314.37 3310.04,1307.14 3305.09,1292.00              3301.39,1280.68 3303.77,1274.67 3304.00,1264.00              3304.00,1264.00 3291.00,1265.83 3291.00,1265.83              3279.25,1266.97 3266.59,1265.03 3256.00,1259.73              3248.52,1255.99 3247.22,1253.44 3241.00,1249.00 Z            M 3014.00,1210.57            C 3032.29,1209.06 3034.25,1233.46 3018.00,1236.43              3009.39,1238.01 3002.30,1230.38 3003.20,1222.00              3003.93,1215.18 3007.84,1212.31 3014.00,1210.57 Z            M 3053.00,1220.65            C 3073.40,1216.63 3075.60,1247.66 3055.00,1245.89              3041.90,1244.77 3037.97,1226.97 3053.00,1220.65 Z            M 3089.00,1231.65            C 3094.03,1230.61 3098.69,1230.68 3102.61,1234.53              3108.10,1239.92 3107.75,1253.03 3097.00,1256.35              3082.21,1260.92 3071.96,1238.87 3089.00,1231.65 Z            M 3232.00,1235.00            C 3232.00,1235.00 3231.00,1235.00 3231.00,1235.00              3231.00,1235.00 3232.00,1236.00 3232.00,1236.00              3232.00,1236.00 3232.00,1235.00 3232.00,1235.00 Z            M 3023.00,1248.65            C 3027.62,1247.70 3031.83,1247.58 3035.67,1250.80              3042.70,1256.69 3041.57,1270.08 3031.00,1273.35              3016.21,1277.92 3005.96,1255.87 3023.00,1248.65 Z            M 3066.00,1259.65            C 3071.24,1258.58 3075.77,1259.02 3079.61,1263.21              3085.81,1269.99 3083.17,1281.81 3074.00,1284.43              3058.35,1288.90 3049.16,1266.79 3066.00,1259.65 Z            M 3192.00,1351.00            C 3192.00,1351.00 3144.00,1344.73 3144.00,1344.73              3111.56,1340.05 3069.86,1332.73 3039.00,1322.49              3024.33,1317.61 3004.48,1310.23 2992.00,1301.25              2988.14,1298.48 2983.35,1294.62 2980.33,1291.00              2978.34,1288.62 2975.95,1283.75 2973.61,1282.53              2970.33,1280.83 2962.75,1281.13 2959.00,1280.96              2959.00,1280.96 2930.00,1279.00 2930.00,1279.00              2930.00,1279.00 2910.00,1278.00 2910.00,1278.00              2910.00,1278.00 2888.00,1277.00 2888.00,1277.00              2888.00,1277.00 2869.00,1276.00 2869.00,1276.00              2869.00,1276.00 2858.00,1276.00 2858.00,1276.00              2858.00,1276.00 2843.00,1274.96 2843.00,1274.96              2843.00,1274.96 2829.00,1274.96 2829.00,1274.96              2829.00,1274.96 2817.00,1274.00 2817.00,1274.00              2817.00,1274.00 2774.00,1273.00 2774.00,1273.00              2774.00,1273.00 2759.00,1272.00 2759.00,1272.00              2759.00,1272.00 2736.00,1272.00 2736.00,1272.00              2736.00,1272.00 2720.00,1271.00 2720.00,1271.00              2720.00,1271.00 2690.00,1271.00 2690.00,1271.00              2690.00,1271.00 2673.00,1270.00 2673.00,1270.00              2673.00,1270.00 2619.00,1270.00 2619.00,1270.00              2619.00,1270.00 2604.00,1269.00 2604.00,1269.00              2604.00,1269.00 2435.00,1269.00 2435.00,1269.00              2435.00,1269.00 2420.00,1270.00 2420.00,1270.00              2420.00,1270.00 2369.00,1270.00 2369.00,1270.00              2369.00,1270.00 2353.00,1271.00 2353.00,1271.00              2353.00,1271.00 2323.00,1271.00 2323.00,1271.00              2323.00,1271.00 2306.00,1272.00 2306.00,1272.00              2306.00,1272.00 2284.00,1272.00 2284.00,1272.00              2284.00,1272.00 2268.00,1273.00 2268.00,1273.00              2268.00,1273.00 2252.00,1273.00 2252.00,1273.00              2252.00,1273.00 2236.00,1274.00 2236.00,1274.00              2236.00,1274.00 2200.00,1275.00 2200.00,1275.00              2200.00,1275.00 2183.00,1276.00 2183.00,1276.00              2183.00,1276.00 2153.00,1277.00 2153.00,1277.00              2153.00,1277.00 2131.00,1278.00 2131.00,1278.00              2131.00,1278.00 2116.00,1279.00 2116.00,1279.00              2116.00,1279.00 2092.00,1280.00 2092.00,1280.00              2092.00,1280.00 2079.00,1281.00 2079.00,1281.00              2079.00,1281.00 2040.00,1283.00 2040.00,1283.00              2040.00,1283.00 2014.00,1285.00 2014.00,1285.00              2014.00,1285.00 2005.00,1285.00 2005.00,1285.00              2005.00,1285.00 1942.00,1289.91 1942.00,1289.91              1942.00,1289.91 1788.00,1303.17 1788.00,1303.17              1788.00,1303.17 1701.00,1312.84 1701.00,1312.84              1701.00,1312.84 1599.00,1325.72 1599.00,1325.72              1599.00,1325.72 1455.00,1347.75 1455.00,1347.75              1330.53,1369.36 1208.34,1395.14 1087.00,1430.58              934.72,1475.05 779.45,1535.03 647.00,1623.33              570.17,1674.55 494.37,1741.22 443.69,1819.00              417.33,1859.47 399.58,1895.44 383.69,1941.00              383.69,1941.00 369.00,1994.00 369.00,1994.00              372.93,1991.74 374.67,1988.47 377.45,1985.00              377.45,1985.00 392.04,1968.00 392.04,1968.00              410.67,1948.52 424.01,1936.65 445.00,1920.00              493.76,1881.34 563.72,1846.59 622.00,1824.42              730.89,1783.00 862.11,1755.24 978.00,1742.84              978.00,1742.84 1029.00,1737.17 1029.00,1737.17              1029.00,1737.17 1063.00,1733.96 1063.00,1733.96              1063.00,1733.96 1071.00,1733.96 1071.00,1733.96              1071.00,1733.96 1112.00,1730.91 1112.00,1730.91              1112.00,1730.91 1126.00,1730.00 1126.00,1730.00              1126.00,1730.00 1136.00,1729.00 1136.00,1729.00              1136.00,1729.00 1148.00,1729.00 1148.00,1729.00              1148.00,1729.00 1160.00,1728.00 1160.00,1728.00              1160.00,1728.00 1183.00,1727.00 1183.00,1727.00              1183.00,1727.00 1235.00,1725.00 1235.00,1725.00              1235.00,1725.00 1250.00,1724.00 1250.00,1724.00              1250.00,1724.00 1273.00,1723.00 1273.00,1723.00              1273.00,1723.00 1306.00,1722.00 1306.00,1722.00              1306.00,1722.00 1322.00,1720.96 1322.00,1720.96              1322.00,1720.96 1335.00,1720.96 1335.00,1720.96              1335.00,1720.96 1347.00,1720.00 1347.00,1720.00              1347.00,1720.00 1386.00,1719.00 1386.00,1719.00              1386.00,1719.00 1399.00,1718.00 1399.00,1718.00              1399.00,1718.00 1414.00,1718.00 1414.00,1718.00              1414.00,1718.00 1430.00,1717.00 1430.00,1717.00              1430.00,1717.00 1444.00,1717.00 1444.00,1717.00              1444.00,1717.00 1459.00,1716.00 1459.00,1716.00              1459.00,1716.00 1505.00,1715.00 1505.00,1715.00              1505.00,1715.00 1522.00,1714.00 1522.00,1714.00              1522.00,1714.00 1542.00,1714.00 1542.00,1714.00              1542.00,1714.00 1557.00,1713.00 1557.00,1713.00              1557.00,1713.00 1614.00,1712.00 1614.00,1712.00              1614.00,1712.00 1631.00,1711.00 1631.00,1711.00              1631.00,1711.00 1659.00,1711.00 1659.00,1711.00              1659.00,1711.00 1673.00,1710.00 1673.00,1710.00              1673.00,1710.00 1703.00,1710.00 1703.00,1710.00              1703.00,1710.00 1720.00,1709.00 1720.00,1709.00              1720.00,1709.00 1755.00,1709.00 1755.00,1709.00              1755.00,1709.00 1772.00,1708.00 1772.00,1708.00              1772.00,1708.00 1818.00,1708.00 1818.00,1708.00              1818.00,1708.00 1835.00,1707.00 1835.00,1707.00              1835.00,1707.00 1905.00,1707.00 1905.00,1707.00              1905.00,1707.00 1920.00,1706.00 1920.00,1706.00              1920.00,1706.00 2079.00,1706.00 2079.00,1706.00              2079.00,1706.00 2168.00,1706.00 2168.00,1706.00              2168.00,1706.00 2183.00,1707.00 2183.00,1707.00              2183.00,1707.00 2237.00,1707.00 2237.00,1707.00              2237.00,1707.00 2254.00,1708.00 2254.00,1708.00              2254.00,1708.00 2289.00,1708.00 2289.00,1708.00              2289.00,1708.00 2305.00,1709.00 2305.00,1709.00              2305.00,1709.00 2329.00,1709.00 2329.00,1709.00              2329.00,1709.00 2344.00,1710.00 2344.00,1710.00              2344.00,1710.00 2365.00,1710.00 2365.00,1710.00              2365.00,1710.00 2381.00,1711.00 2381.00,1711.00              2381.00,1711.00 2395.00,1711.00 2395.00,1711.00              2395.00,1711.00 2411.00,1712.00 2411.00,1712.00              2411.00,1712.00 2445.00,1713.00 2445.00,1713.00              2445.00,1713.00 2460.00,1714.00 2460.00,1714.00              2460.00,1714.00 2470.00,1714.00 2470.00,1714.00              2470.00,1714.00 2489.00,1715.00 2489.00,1715.00              2489.00,1715.00 2506.00,1716.00 2506.00,1716.00              2506.00,1716.00 2530.00,1717.00 2530.00,1717.00              2530.00,1717.00 2544.00,1718.00 2544.00,1718.00              2544.00,1718.00 2557.00,1719.00 2557.00,1719.00              2557.00,1719.00 2566.00,1719.00 2566.00,1719.00              2566.00,1719.00 2589.00,1720.91 2589.00,1720.91              2589.00,1720.91 2638.00,1724.17 2638.00,1724.17              2638.00,1724.17 2703.00,1729.82 2703.00,1729.82              2703.00,1729.82 2716.00,1729.00 2716.00,1729.00              2716.00,1729.00 2737.00,1729.00 2737.00,1729.00              2750.07,1728.98 2761.44,1721.04 2772.00,1714.00              2795.47,1698.36 2816.12,1678.89 2836.00,1659.00              2884.35,1610.65 2935.30,1544.60 2975.85,1489.00              2975.85,1489.00 3012.00,1438.00 3012.00,1438.00              3021.64,1423.61 3024.84,1414.62 3038.00,1402.04              3066.20,1375.07 3115.47,1363.38 3153.00,1356.61              3153.00,1356.61 3178.00,1353.15 3178.00,1353.15              3181.75,1352.71 3188.79,1352.28 3192.00,1351.00 Z" />
</svg>