<svg xmlns="http://www.w3.org/2000/svg" viewBox="90.5 169.52 782.56 675.97">
  <path id="scihook" fill="#303030" stroke="none" stroke-width="1"
    d="M 257.00,597.00            C 252.20,609.79 251.16,630.20 251.00,644.00              251.00,644.00 250.09,657.00 250.09,657.00              250.09,657.00 254.84,685.00 254.84,685.00              257.01,691.95 265.19,710.05 269.11,716.00              272.47,721.11 288.09,737.80 293.00,741.37              298.89,745.66 305.50,749.00 312.00,752.25              312.00,752.25 325.00,758.40 325.00,758.40              334.15,761.42 348.32,762.62 358.00,763.04              358.00,763.04 367.00,763.79 367.00,763.79              380.10,763.11 392.10,758.61 404.00,753.50              404.00,753.50 412.00,750.37 412.00,750.37              418.12,747.41 435.94,734.68 440.83,730.00              452.39,718.94 467.85,698.42 474.74,684.00              474.74,684.00 477.95,675.00 477.95,675.00              477.95,675.00 488.09,646.00 488.09,646.00              488.09,646.00 490.59,634.00 490.59,634.00              490.59,634.00 494.08,623.00 494.08,623.00              494.08,623.00 503.66,584.00 503.66,584.00              503.66,584.00 506.32,575.00 506.32,575.00              506.32,575.00 509.92,557.00 509.92,557.00              509.92,557.00 524.08,503.00 524.08,503.00              524.08,503.00 525.59,495.00 525.59,495.00              525.59,495.00 530.67,476.00 530.67,476.00              530.67,476.00 544.08,422.00 544.08,422.00              544.08,422.00 545.92,412.00 545.92,412.00              545.92,412.00 551.08,394.00 551.08,394.00              551.08,394.00 552.59,386.00 552.59,386.00              552.59,386.00 569.42,319.00 569.42,319.00              569.42,319.00 576.68,287.00 576.68,287.00              576.68,287.00 588.07,248.00 588.07,248.00              588.07,248.00 590.35,241.00 590.35,241.00              590.35,241.00 596.75,228.00 596.75,228.00              603.91,213.69 608.64,206.09 621.29,195.69              625.76,192.02 634.72,188.50 640.00,185.88              645.82,182.99 657.91,177.69 664.00,176.24              680.10,172.40 683.27,171.19 700.00,171.00              700.00,171.00 714.00,170.02 714.00,170.02              721.78,170.17 746.44,173.79 754.00,175.92              760.64,177.80 779.26,186.38 786.00,189.75              807.75,200.63 809.36,201.43 827.87,216.86              827.87,216.86 838.83,226.09 838.83,226.09              846.97,234.44 856.99,250.85 862.31,261.42              867.66,272.06 873.25,293.13 872.49,305.00              871.48,320.74 868.31,336.87 861.25,351.00              855.09,363.31 852.24,368.11 840.07,375.30              837.29,376.94 836.21,377.93 832.96,378.71              819.17,382.03 804.47,376.56 794.04,367.41              791.47,365.16 785.58,359.16 784.69,356.00              783.69,352.44 786.71,347.60 787.65,344.00              789.35,337.51 790.97,324.58 790.63,318.00              788.75,281.65 755.56,250.62 719.00,252.04              713.47,252.25 704.29,253.95 699.00,255.67              681.58,261.36 665.22,275.46 657.26,292.00              653.06,300.74 647.82,322.91 645.64,333.00              645.64,333.00 641.68,346.00 641.68,346.00              641.68,346.00 635.54,379.00 635.54,379.00              635.54,379.00 633.59,386.00 633.59,386.00              633.59,386.00 627.62,411.00 627.62,411.00              627.62,411.00 625.37,419.00 625.37,419.00              625.37,419.00 624.61,425.00 624.61,425.00              624.61,425.00 622.63,431.00 622.63,431.00              622.63,431.00 616.56,454.00 616.56,454.00              616.56,454.00 611.62,475.00 611.62,475.00              611.62,475.00 605.60,497.00 605.60,497.00              605.60,497.00 604.40,505.00 604.40,505.00              604.40,505.00 601.59,514.00 601.59,514.00              601.59,514.00 589.28,562.00 589.28,562.00              589.28,562.00 584.08,584.00 584.08,584.00              584.08,584.00 577.92,606.00 577.92,606.00              577.92,606.00 576.64,613.00 576.64,613.00              576.64,613.00 571.62,633.00 571.62,633.00              571.62,633.00 563.74,661.00 563.74,661.00              563.74,661.00 555.07,694.00 555.07,694.00              551.49,704.15 541.80,726.96 536.67,736.00              536.67,736.00 524.52,753.92 524.52,753.92              524.52,753.92 517.11,764.82 517.11,764.82              517.11,764.82 509.37,773.28 509.37,773.28              497.00,787.20 483.68,800.09 468.00,810.31              468.00,810.31 450.00,821.48 450.00,821.48              432.66,830.91 405.52,839.51 386.00,842.68              386.00,842.68 362.00,844.33 362.00,844.33              362.00,844.33 350.00,844.99 350.00,844.99              340.06,844.75 323.75,842.91 314.00,840.88              269.95,831.74 229.95,806.72 203.71,770.03              193.70,756.05 186.18,742.38 180.67,726.00              180.67,726.00 173.44,698.00 173.44,698.00              173.44,698.00 172.72,688.00 172.72,688.00              172.72,688.00 171.00,672.00 171.00,672.00              170.87,645.15 175.13,620.65 182.79,595.00              182.79,595.00 184.95,587.00 184.95,587.00              184.95,587.00 189.14,578.00 189.14,578.00              189.14,578.00 204.00,545.00 204.00,545.00              204.00,545.00 192.00,553.68 192.00,553.68              176.48,563.20 149.66,575.18 132.00,579.73              118.98,583.08 103.53,585.08 91.00,579.00              97.07,575.06 118.14,569.17 130.00,561.25              148.45,548.93 166.23,535.23 183.00,520.72              183.00,520.72 199.42,505.59 199.42,505.59              199.42,505.59 209.91,496.72 209.91,496.72              209.91,496.72 252.45,452.09 252.45,452.09              252.45,452.09 259.95,444.52 259.95,444.52              259.95,444.52 271.30,430.00 271.30,430.00              271.30,430.00 288.54,410.00 288.54,410.00              288.54,410.00 296.45,399.00 296.45,399.00              296.45,399.00 316.16,373.00 316.16,373.00              316.16,373.00 322.22,363.00 322.22,363.00              322.22,363.00 335.47,344.00 335.47,344.00              338.94,338.40 343.29,329.15 348.00,325.00              348.53,330.46 346.40,332.09 344.53,337.00              344.53,337.00 336.23,358.00 336.23,358.00              336.23,358.00 326.67,381.00 326.67,381.00              326.67,381.00 319.33,397.00 319.33,397.00              319.33,397.00 311.67,416.00 311.67,416.00              311.67,416.00 307.95,424.00 307.95,424.00              307.95,424.00 290.86,472.00 290.86,472.00              290.86,472.00 285.70,491.00 285.70,491.00              285.70,491.00 282.93,499.00 282.93,499.00              282.93,499.00 281.08,509.00 281.08,509.00              276.28,527.44 272.68,546.01 270.83,565.00              270.83,565.00 269.56,576.00 269.56,576.00              269.56,576.00 269.56,593.00 269.56,593.00              270.01,600.30 270.86,613.19 272.74,620.00              272.74,620.00 278.82,638.00 278.82,638.00              278.82,638.00 284.00,651.00 284.00,651.00              273.10,648.68 261.64,630.70 260.18,620.00              259.28,613.39 259.75,602.23 257.00,597.00 Z" />
</svg>