<svg xmlns="http://www.w3.org/2000/svg" viewBox="115.5 194.52 1712.01 675.97">
  <path id="Selection" fill="#303030" stroke="none" stroke-width="1" d="M 282.00,622.00            C 277.20,634.79 276.16,655.20 276.00,669.00              276.00,669.00 275.09,682.00 275.09,682.00              275.09,682.00 279.84,710.00 279.84,710.00              282.01,716.95 290.19,735.05 294.11,741.00              297.47,746.11 313.09,762.80 318.00,766.37              323.89,770.66 330.50,774.00 337.00,777.25              337.00,777.25 350.00,783.40 350.00,783.40              359.15,786.42 373.32,787.62 383.00,788.04              383.00,788.04 392.00,788.79 392.00,788.79              405.10,788.11 417.10,783.61 429.00,778.50              429.00,778.50 437.00,775.37 437.00,775.37              443.12,772.41 460.94,759.68 465.83,755.00              477.39,743.94 492.85,723.42 499.74,709.00              499.74,709.00 502.95,700.00 502.95,700.00              502.95,700.00 513.09,671.00 513.09,671.00              513.09,671.00 515.59,659.00 515.59,659.00              515.59,659.00 519.08,648.00 519.08,648.00              519.08,648.00 528.66,609.00 528.66,609.00              528.66,609.00 531.32,600.00 531.32,600.00              531.32,600.00 534.92,582.00 534.92,582.00              534.92,582.00 549.08,528.00 549.08,528.00              549.08,528.00 550.59,520.00 550.59,520.00              550.59,520.00 555.67,501.00 555.67,501.00              555.67,501.00 569.08,447.00 569.08,447.00              569.08,447.00 570.92,437.00 570.92,437.00              570.92,437.00 576.08,419.00 576.08,419.00              576.08,419.00 577.59,411.00 577.59,411.00              577.59,411.00 594.42,344.00 594.42,344.00              594.42,344.00 601.68,312.00 601.68,312.00              601.68,312.00 613.07,273.00 613.07,273.00              613.07,273.00 615.35,266.00 615.35,266.00              615.35,266.00 621.75,253.00 621.75,253.00              628.91,238.69 633.64,231.09 646.29,220.69              650.76,217.02 659.72,213.50 665.00,210.88              670.82,207.99 682.91,202.69 689.00,201.24              705.10,197.40 708.27,196.19 725.00,196.00              725.00,196.00 739.00,195.02 739.00,195.02              746.78,195.17 771.44,198.79 779.00,200.92              785.64,202.80 804.26,211.38 811.00,214.75              832.75,225.63 834.36,226.43 852.87,241.86              852.87,241.86 863.83,251.09 863.83,251.09              871.97,259.44 881.99,275.85 887.31,286.42              892.66,297.06 898.25,318.13 897.49,330.00              896.48,345.74 893.31,361.87 886.25,376.00              880.09,388.31 877.24,393.11 865.07,400.30              862.29,401.94 861.21,402.93 857.96,403.71              844.17,407.03 829.47,401.56 819.04,392.41              816.47,390.16 810.58,384.16 809.69,381.00              808.69,377.44 811.71,372.60 812.65,369.00              814.35,362.51 815.97,349.58 815.63,343.00              813.75,306.65 780.56,275.62 744.00,277.04              738.47,277.25 729.29,278.95 724.00,280.67              706.58,286.36 690.22,300.46 682.26,317.00              678.06,325.74 672.82,347.91 670.64,358.00              670.64,358.00 666.68,371.00 666.68,371.00              666.68,371.00 660.54,404.00 660.54,404.00              660.54,404.00 658.59,411.00 658.59,411.00              658.59,411.00 652.62,436.00 652.62,436.00              652.62,436.00 650.37,444.00 650.37,444.00              650.37,444.00 649.61,450.00 649.61,450.00              649.61,450.00 647.63,456.00 647.63,456.00              647.63,456.00 641.56,479.00 641.56,479.00              641.56,479.00 636.62,500.00 636.62,500.00              636.62,500.00 630.60,522.00 630.60,522.00              630.60,522.00 629.40,530.00 629.40,530.00              629.40,530.00 626.59,539.00 626.59,539.00              626.59,539.00 614.28,587.00 614.28,587.00              614.28,587.00 609.08,609.00 609.08,609.00              609.08,609.00 602.92,631.00 602.92,631.00              602.92,631.00 601.64,638.00 601.64,638.00              601.64,638.00 596.62,658.00 596.62,658.00              596.62,658.00 588.74,686.00 588.74,686.00              588.74,686.00 580.07,719.00 580.07,719.00              576.49,729.15 566.80,751.96 561.67,761.00              561.67,761.00 549.52,778.92 549.52,778.92              549.52,778.92 542.11,789.82 542.11,789.82              542.11,789.82 534.37,798.28 534.37,798.28              522.00,812.20 508.68,825.09 493.00,835.31              493.00,835.31 475.00,846.48 475.00,846.48              457.66,855.91 430.52,864.51 411.00,867.68              411.00,867.68 387.00,869.33 387.00,869.33              387.00,869.33 375.00,869.99 375.00,869.99              365.06,869.75 348.75,867.91 339.00,865.88              294.95,856.74 254.95,831.72 228.71,795.03              218.70,781.05 211.18,767.38 205.67,751.00              205.67,751.00 198.44,723.00 198.44,723.00              198.44,723.00 197.72,713.00 197.72,713.00              197.72,713.00 196.00,697.00 196.00,697.00              195.87,670.15 200.13,645.65 207.79,620.00              207.79,620.00 209.95,612.00 209.95,612.00              209.95,612.00 214.14,603.00 214.14,603.00              214.14,603.00 229.00,570.00 229.00,570.00              229.00,570.00 217.00,578.68 217.00,578.68              201.48,588.20 174.66,600.18 157.00,604.73              143.98,608.08 128.53,610.08 116.00,604.00              122.07,600.06 143.14,594.17 155.00,586.25              173.45,573.93 191.23,560.23 208.00,545.72              208.00,545.72 224.42,530.59 224.42,530.59              224.42,530.59 234.91,521.72 234.91,521.72              234.91,521.72 277.45,477.09 277.45,477.09              277.45,477.09 284.95,469.52 284.95,469.52              284.95,469.52 296.30,455.00 296.30,455.00              296.30,455.00 313.54,435.00 313.54,435.00              313.54,435.00 321.45,424.00 321.45,424.00              321.45,424.00 341.16,398.00 341.16,398.00              341.16,398.00 347.22,388.00 347.22,388.00              347.22,388.00 360.47,369.00 360.47,369.00              363.94,363.40 368.29,354.15 373.00,350.00              373.53,355.46 371.40,357.09 369.53,362.00              369.53,362.00 361.23,383.00 361.23,383.00              361.23,383.00 351.67,406.00 351.67,406.00              351.67,406.00 344.33,422.00 344.33,422.00              344.33,422.00 336.67,441.00 336.67,441.00              336.67,441.00 332.95,449.00 332.95,449.00              332.95,449.00 315.86,497.00 315.86,497.00              315.86,497.00 310.70,516.00 310.70,516.00              310.70,516.00 307.93,524.00 307.93,524.00              307.93,524.00 306.08,534.00 306.08,534.00              301.28,552.44 297.68,571.01 295.83,590.00              295.83,590.00 294.56,601.00 294.56,601.00              294.56,601.00 294.56,618.00 294.56,618.00              295.01,625.30 295.86,638.19 297.74,645.00              297.74,645.00 303.82,663.00 303.82,663.00              303.82,663.00 309.00,676.00 309.00,676.00              298.10,673.68 286.64,655.70 285.18,645.00              284.28,638.39 284.75,627.23 282.00,622.00 Z            M 1243.00,641.00            C 1239.90,663.96 1227.18,695.88 1215.72,716.00              1195.77,751.03 1166.18,779.85 1126.00,789.11              1094.48,796.38 1052.44,791.36 1037.51,758.00              1032.59,747.00 1032.98,739.55 1033.00,728.00              1033.02,718.38 1035.30,708.75 1039.31,700.00              1040.50,697.39 1046.68,687.39 1046.37,685.58              1046.05,683.68 1038.73,675.38 1037.04,673.00              1031.14,664.69 1027.63,657.75 1024.72,648.00              1021.92,638.61 1020.05,626.79 1020.00,617.00              1019.81,575.97 1037.47,541.76 1072.00,519.08              1125.18,484.14 1184.61,490.00 1245.00,490.00              1245.00,490.00 1271.00,490.00 1271.00,490.00              1275.70,490.00 1281.63,489.61 1286.00,491.34              1293.53,494.33 1298.94,504.09 1290.00,509.00              1290.21,514.70 1286.58,517.51 1283.44,522.00              1283.44,522.00 1272.26,541.00 1272.26,541.00              1264.39,556.34 1252.38,592.09 1250.00,609.00              1254.28,608.80 1270.76,606.75 1273.61,604.41              1275.93,602.50 1279.23,595.01 1280.76,592.00              1280.76,592.00 1293.34,570.00 1293.34,570.00              1310.60,543.58 1339.04,508.22 1374.00,509.01              1378.24,509.11 1383.04,509.94 1387.00,511.47              1413.29,521.57 1409.42,550.04 1397.55,570.00              1385.74,589.84 1365.88,604.05 1346.00,615.14              1346.00,615.14 1329.00,623.28 1329.00,623.28              1326.58,624.32 1322.21,625.81 1320.41,627.51              1318.25,629.55 1316.70,634.17 1315.69,637.00              1315.69,637.00 1309.00,659.00 1309.00,659.00              1309.00,659.00 1297.58,705.00 1297.58,705.00              1295.08,716.29 1292.02,729.47 1292.00,741.00              1292.00,741.00 1292.00,750.00 1292.00,750.00              1302.09,741.72 1304.87,737.99 1312.79,728.00              1314.72,725.57 1317.37,720.84 1321.04,722.17              1323.72,723.14 1332.45,732.45 1335.00,735.00              1335.02,713.72 1341.62,695.79 1356.17,680.01              1384.22,649.60 1437.73,640.03 1470.00,669.17              1477.40,675.86 1482.75,684.33 1485.24,694.00              1485.24,694.00 1488.00,710.00 1488.00,710.00              1489.48,701.82 1494.56,693.62 1499.48,687.00              1513.27,668.44 1540.38,652.11 1564.00,652.00              1574.40,651.95 1581.74,651.53 1592.00,654.43              1618.34,661.86 1636.62,681.90 1635.99,710.00              1634.94,756.14 1596.34,785.06 1553.00,788.09              1553.00,788.09 1546.00,788.82 1546.00,788.82              1535.72,788.82 1522.99,786.19 1514.00,781.13              1500.76,773.66 1491.41,763.62 1486.75,749.00              1486.75,749.00 1483.00,731.00 1483.00,731.00              1480.11,746.95 1465.94,762.77 1453.00,771.65              1423.38,791.99 1374.05,797.85 1348.30,768.00              1343.20,762.08 1340.85,757.10 1338.00,750.00              1329.15,760.30 1325.17,767.14 1314.00,776.70              1308.10,781.75 1301.42,786.07 1294.00,788.48              1280.82,792.76 1263.57,789.79 1254.32,778.99              1244.47,767.46 1242.02,751.72 1242.00,737.00              1241.95,703.59 1253.70,667.75 1266.00,637.00              1258.62,639.13 1250.69,640.93 1243.00,641.00 Z            M 1630.00,785.00            C 1630.00,785.00 1631.04,775.00 1631.04,775.00              1631.04,775.00 1631.04,765.00 1631.04,765.00              1635.76,716.79 1650.70,665.89 1666.00,620.00              1675.63,591.11 1688.23,555.43 1707.75,532.00              1725.00,511.30 1750.21,494.33 1778.00,494.00              1801.71,493.73 1826.67,503.48 1827.00,531.00              1827.14,543.24 1824.78,552.00 1813.00,558.18              1796.61,566.77 1770.52,558.99 1770.01,538.00              1769.90,533.12 1770.16,531.71 1771.00,527.00              1754.20,531.79 1743.55,549.62 1735.42,564.00              1727.15,578.65 1722.09,594.96 1717.28,611.00              1717.28,611.00 1700.88,670.00 1700.88,670.00              1700.88,670.00 1695.00,693.00 1695.00,693.00              1717.84,670.16 1750.17,636.61 1785.00,637.00              1801.00,637.19 1818.22,648.08 1816.67,666.00              1815.89,675.01 1811.12,684.17 1803.00,688.59              1798.88,690.83 1795.55,691.00 1791.00,691.00              1780.14,691.00 1769.80,687.14 1766.00,676.00              1766.00,676.00 1725.00,711.00 1725.00,711.00              1732.83,715.20 1742.07,726.12 1748.00,733.00              1752.17,737.84 1757.38,743.20 1760.00,749.00              1760.00,749.00 1776.84,731.00 1776.84,731.00              1778.54,729.10 1781.25,725.23 1784.01,725.19              1786.84,725.16 1792.77,730.95 1795.00,732.87              1797.30,734.85 1801.56,737.94 1802.18,741.00              1803.08,745.47 1793.43,757.34 1790.58,761.00              1779.32,775.44 1767.73,786.00 1749.00,788.15              1743.00,788.84 1736.62,788.62 1731.00,786.10              1721.56,781.86 1718.41,774.35 1713.40,766.00              1713.40,766.00 1688.00,724.00 1688.00,724.00              1683.15,740.76 1679.42,767.42 1678.00,785.00              1678.00,785.00 1630.00,785.00 1630.00,785.00 Z            M 1226.00,520.00            C 1226.00,520.00 1196.00,520.00 1196.00,520.00              1185.70,520.02 1171.19,522.16 1161.00,524.20              1119.85,532.43 1077.36,552.95 1064.02,596.00              1061.26,604.93 1059.89,616.66 1060.00,626.00              1060.09,633.23 1062.08,646.39 1064.87,653.00              1065.78,655.13 1067.87,659.96 1070.21,660.66              1072.86,661.46 1076.89,657.53 1079.00,656.04              1085.47,651.46 1095.81,645.07 1103.00,641.86              1128.22,630.60 1166.43,618.27 1194.00,617.00              1194.00,617.00 1201.85,583.00 1201.85,583.00              1209.11,556.17 1212.20,544.68 1226.00,520.00 Z            M 1374.00,539.00            C 1360.31,545.11 1352.46,557.60 1345.00,570.00              1342.09,574.84 1338.71,579.59 1337.00,585.00              1346.92,579.24 1365.87,562.14 1371.01,552.00              1373.31,547.46 1373.89,543.99 1374.00,539.00 Z            M 869.00,576.53            C 877.68,575.11 887.31,575.63 893.91,582.10              908.65,596.57 902.86,627.14 882.00,631.63              874.41,633.26 863.32,632.46 857.09,627.44              843.33,616.36 842.98,584.23 869.00,576.53 Z            M 1337.00,585.00            C 1337.00,585.00 1336.00,585.00 1336.00,585.00              1336.00,585.00 1337.00,586.00 1337.00,586.00              1337.00,586.00 1337.00,585.00 1337.00,585.00 Z            M 1267.00,636.00            C 1267.00,636.00 1266.00,636.00 1266.00,636.00              1266.00,636.00 1267.00,637.00 1267.00,637.00              1267.00,637.00 1267.00,636.00 1267.00,636.00 Z            M 1187.00,649.00            C 1167.36,649.01 1135.77,656.37 1118.00,664.78              1109.93,668.60 1100.41,673.80 1095.00,681.00              1106.61,683.93 1115.36,683.07 1127.00,682.17              1129.31,681.99 1131.53,681.97 1133.36,683.60              1135.23,685.25 1136.84,689.64 1137.85,692.00              1137.85,692.00 1145.00,709.00 1145.00,709.00              1145.00,709.00 1134.00,709.96 1134.00,709.96              1120.74,710.88 1108.29,711.84 1095.00,709.96              1089.27,709.21 1086.48,708.53 1081.00,706.66              1078.82,705.91 1075.44,704.29 1073.21,705.23              1069.19,706.92 1066.63,716.98 1065.92,721.00              1063.29,736.00 1067.61,755.48 1084.00,760.56              1100.50,765.67 1121.18,757.22 1134.00,747.00              1155.05,730.21 1168.81,701.78 1178.05,677.00              1180.69,669.91 1185.92,656.01 1187.00,649.00 Z            M 772.00,724.00            C 776.92,726.41 783.47,731.11 788.00,734.43              789.86,735.80 792.64,737.70 793.19,740.09              793.82,742.84 791.17,746.71 789.80,749.00              785.03,756.92 779.18,764.65 772.00,770.54              754.76,784.67 727.92,792.09 706.00,787.11              699.73,785.69 695.54,784.12 690.00,780.79              663.08,764.63 660.68,730.50 672.44,704.00              685.28,675.05 722.40,652.05 754.00,652.00              754.00,652.00 767.00,652.00 767.00,652.00              777.59,652.13 789.60,656.00 796.82,664.02              805.59,673.76 802.60,680.55 805.00,689.00              807.22,683.33 810.95,679.55 814.87,675.00              824.52,663.79 837.36,652.07 853.00,652.00              864.08,651.95 872.82,654.40 876.89,666.00              882.10,680.83 876.57,697.85 871.66,712.00              869.52,718.15 865.64,725.49 866.00,732.00              867.31,728.94 873.59,718.20 877.09,718.20              879.47,718.20 882.40,721.44 884.00,723.00              888.04,726.95 897.65,732.85 895.26,739.00              894.04,742.15 888.76,749.87 886.67,753.00              877.74,766.36 865.06,779.72 850.00,786.12              838.16,791.15 823.19,788.75 816.12,777.00              810.20,766.40 812.90,750.33 816.12,739.00              816.12,739.00 819.00,727.00 819.00,727.00              810.94,725.47 798.28,715.99 790.00,712.00              790.00,712.00 793.00,705.00 793.00,705.00              771.38,716.83 749.09,699.79 755.00,679.00              734.04,683.92 719.84,708.48 719.04,729.00              718.90,732.60 719.20,735.52 720.16,739.00              725.90,759.84 748.84,752.28 759.99,741.00              766.12,734.79 767.79,731.31 772.00,724.00 Z            M 899.00,707.00            C 899.05,701.77 900.46,687.24 904.51,683.85              906.75,681.98 911.13,681.98 914.00,681.58              914.00,681.58 935.00,678.58 935.00,678.58              953.12,675.89 957.01,675.97 975.00,676.00              975.00,676.00 1032.00,683.00 1032.00,683.00              1032.00,683.00 1027.00,707.00 1027.00,707.00              1027.00,707.00 1011.00,708.85 1011.00,708.85              993.39,710.95 975.79,714.20 958.00,714.00              958.00,714.00 899.00,707.00 899.00,707.00 Z            M 1414.00,681.39            C 1396.68,686.96 1388.20,711.33 1388.00,728.00              1387.83,742.46 1391.17,762.92 1411.00,758.61              1417.69,757.16 1423.92,750.89 1427.02,745.00              1432.88,733.85 1436.36,714.48 1434.41,702.00              1432.50,689.79 1428.73,679.43 1414.00,681.39 Z            M 1563.00,681.39            C 1545.68,686.96 1537.20,711.33 1537.00,728.00              1536.83,742.46 1540.17,762.92 1560.00,758.61              1566.69,757.16 1572.92,750.89 1576.02,745.00              1581.88,733.85 1585.36,714.48 1583.41,702.00              1581.50,689.79 1577.73,679.43 1563.00,681.39 Z            M 804.00,689.00            C 804.00,689.00 803.00,689.00 803.00,689.00              803.00,689.00 804.00,690.00 804.00,690.00              804.00,690.00 804.00,689.00 804.00,689.00 Z            M 794.00,704.00            C 794.00,704.00 793.00,704.00 793.00,704.00              793.00,704.00 794.00,705.00 794.00,705.00              794.00,705.00 794.00,704.00 794.00,704.00 Z            M 865.00,732.00            C 865.00,732.00 864.00,732.00 864.00,732.00              864.00,732.00 865.00,733.00 865.00,733.00              865.00,733.00 865.00,732.00 865.00,732.00 Z"/>
</svg>