<svg xmlns="http://www.w3.org/2000/svg" viewBox="-0.5 -0.51 317 358.27">
  <path id="shopify" fill="#303030" stroke="none" stroke-width="1"
    d="M 0.00,320.00            C 0.00,320.00 6.72,263.00 6.72,263.00              6.72,263.00 19.58,164.00 19.58,164.00              19.58,164.00 24.85,123.00 24.85,123.00              25.33,118.93 26.80,104.95 28.31,102.04              30.72,97.42 36.37,96.11 41.00,94.72              41.00,94.72 61.00,88.66 61.00,88.66              63.21,87.95 69.06,86.16 70.69,84.92              73.21,82.98 74.33,75.33 75.29,72.00              77.90,62.90 81.82,52.33 86.31,44.00              97.10,23.97 114.91,0.12 140.00,0.00              146.94,-0.03 150.68,-0.25 157.00,3.36              160.13,5.14 163.57,8.63 166.17,9.49              168.96,10.41 174.21,9.52 181.00,12.53              192.28,17.53 202.11,31.96 204.00,44.00              209.39,42.78 216.67,39.64 222.00,41.93              233.56,46.90 239.72,64.75 253.00,65.00              257.89,65.09 271.07,64.00 274.57,66.85              277.53,69.27 278.46,80.03 279.00,84.00              279.00,84.00 285.73,130.00 285.73,130.00              285.73,130.00 304.57,257.00 304.57,257.00              304.57,257.00 316.00,334.00 316.00,334.00              316.00,334.00 289.00,340.63 289.00,340.63              289.00,340.63 249.00,350.37 249.00,350.37              249.00,350.37 219.00,357.26 219.00,357.26              219.00,357.26 200.00,354.25 200.00,354.25              200.00,354.25 161.00,347.42 161.00,347.42              161.00,347.42 63.00,330.58 63.00,330.58              63.00,330.58 0.00,320.00 0.00,320.00 Z            M 150.00,14.00            C 137.99,9.01 127.06,14.79 118.04,22.87              103.21,36.14 89.94,61.47 86.00,81.00              86.00,81.00 105.00,75.28 105.00,75.28              107.49,74.53 112.53,73.14 114.27,71.30              115.88,69.59 116.61,65.37 117.35,63.00              119.26,56.88 121.45,50.77 124.26,45.00              132.05,29.01 137.73,25.58 150.00,14.00 Z            M 173.00,23.00            C 173.00,23.00 174.79,34.00 174.79,34.00              174.79,34.00 177.00,53.00 177.00,53.00              177.00,53.00 193.00,48.00 193.00,48.00              188.25,36.12 185.37,28.53 173.00,23.00 Z            M 159.00,24.00            C 143.69,31.51 132.34,51.65 129.00,68.00              129.00,68.00 153.00,60.34 153.00,60.34              155.54,59.53 161.49,58.31 163.01,56.30              164.30,54.58 164.02,50.16 164.00,48.00              163.90,39.27 161.72,32.17 159.00,24.00 Z            M 167.00,114.00            C 158.15,112.01 157.70,111.02 148.00,111.00              148.00,111.00 141.00,111.00 141.00,111.00              112.45,111.04 83.06,126.69 73.75,155.00              71.92,160.55 70.15,170.18 70.01,176.00              69.66,191.67 75.03,204.42 87.00,214.70              94.76,221.37 107.36,227.91 111.90,237.00              117.81,248.81 109.48,258.50 97.00,257.96              85.44,257.46 75.94,249.85 66.00,245.00              66.00,245.00 59.06,273.00 59.06,273.00              58.33,279.27 64.20,282.35 69.00,285.13              81.77,292.52 89.61,294.16 104.00,295.25              116.50,296.19 129.74,293.56 140.00,286.07              158.50,272.57 165.50,243.18 157.91,222.00              153.34,209.25 144.96,200.89 134.00,193.35              126.79,188.39 114.22,181.25 109.74,174.00              104.26,165.14 112.74,152.21 131.00,152.00              145.56,151.84 147.03,155.10 157.00,156.00              157.00,156.00 167.00,114.00 167.00,114.00 Z" />
</svg>