<svg xmlns="http://www.w3.org/2000/svg" viewBox="-0.5 -0.51 1276 364.01">
  <path id="shopify-wordmark" fill="#303030" stroke="none" stroke-width="1"
    d="M 0.00,320.00            C 0.00,320.00 6.72,263.00 6.72,263.00              6.72,263.00 19.58,164.00 19.58,164.00              19.58,164.00 24.85,123.00 24.85,123.00              25.33,118.93 26.80,104.95 28.31,102.04              30.72,97.42 36.37,96.11 41.00,94.72              41.00,94.72 61.00,88.66 61.00,88.66              63.21,87.95 69.06,86.16 70.69,84.92              73.21,82.98 74.33,75.33 75.29,72.00              77.90,62.90 81.82,52.33 86.31,44.00              97.10,23.97 114.91,0.12 140.00,0.00              146.94,-0.03 150.68,-0.25 157.00,3.36              160.13,5.14 163.57,8.63 166.17,9.49              168.96,10.41 174.21,9.52 181.00,12.53              192.28,17.53 202.11,31.96 204.00,44.00              209.39,42.78 216.67,39.64 222.00,41.93              233.56,46.90 239.72,64.75 253.00,65.00              257.89,65.09 271.07,64.00 274.57,66.85              277.53,69.27 278.46,80.03 279.00,84.00              279.00,84.00 285.73,130.00 285.73,130.00              285.73,130.00 304.57,257.00 304.57,257.00              304.57,257.00 316.00,334.00 316.00,334.00              316.00,334.00 289.00,340.63 289.00,340.63              289.00,340.63 249.00,350.37 249.00,350.37              249.00,350.37 219.00,357.26 219.00,357.26              219.00,357.26 200.00,354.25 200.00,354.25              200.00,354.25 161.00,347.42 161.00,347.42              161.00,347.42 63.00,330.58 63.00,330.58              63.00,330.58 0.00,320.00 0.00,320.00 Z            M 150.00,14.00            C 137.99,9.01 127.06,14.79 118.04,22.87              103.21,36.14 89.94,61.47 86.00,81.00              86.00,81.00 105.00,75.28 105.00,75.28              107.49,74.53 112.53,73.14 114.27,71.30              115.88,69.59 116.61,65.37 117.35,63.00              119.26,56.88 121.45,50.77 124.26,45.00              132.05,29.01 137.73,25.58 150.00,14.00 Z            M 173.00,23.00            C 173.00,23.00 174.79,34.00 174.79,34.00              174.79,34.00 177.00,53.00 177.00,53.00              177.00,53.00 193.00,48.00 193.00,48.00              188.25,36.12 185.37,28.53 173.00,23.00 Z            M 159.00,24.00            C 143.69,31.51 132.34,51.65 129.00,68.00              129.00,68.00 153.00,60.34 153.00,60.34              155.54,59.53 161.49,58.31 163.01,56.30              164.30,54.58 164.02,50.16 164.00,48.00              163.90,39.27 161.72,32.17 159.00,24.00 Z            M 1053.00,140.00            C 1053.89,120.65 1063.99,95.85 1079.00,83.32              1096.96,68.34 1124.36,65.92 1146.00,73.00              1146.00,73.00 1137.00,108.00 1137.00,108.00              1131.15,106.82 1126.12,105.28 1120.00,106.21              1115.73,106.86 1112.13,109.22 1109.01,112.10              1098.28,122.05 1100.26,128.34 1096.00,140.00              1096.00,140.00 1126.00,140.00 1126.00,140.00              1126.00,140.00 1122.25,163.00 1122.25,163.00              1122.25,163.00 1119.42,171.98 1119.42,171.98              1119.42,171.98 1100.00,173.00 1100.00,173.00              1100.00,173.00 1091.58,174.60 1091.58,174.60              1091.58,174.60 1089.00,182.00 1089.00,182.00              1089.00,182.00 1085.40,201.00 1085.40,201.00              1085.40,201.00 1073.58,264.00 1073.58,264.00              1073.58,264.00 1068.00,294.00 1068.00,294.00              1068.00,294.00 1024.00,294.00 1024.00,294.00              1024.00,294.00 1029.58,261.00 1029.58,261.00              1029.58,261.00 1041.42,198.00 1041.42,198.00              1041.42,198.00 1046.00,173.00 1046.00,173.00              1046.00,173.00 1026.00,173.00 1026.00,173.00              1026.00,173.00 1032.00,140.00 1032.00,140.00              1032.00,140.00 1053.00,140.00 1053.00,140.00 Z            M 522.00,72.00            C 522.00,72.00 566.00,72.00 566.00,72.00              566.00,72.00 560.20,105.00 560.20,105.00              560.20,105.00 550.00,158.00 550.00,158.00              557.29,150.71 562.43,145.66 572.00,141.31              581.88,136.83 588.51,136.88 599.00,137.00              613.43,137.17 623.38,144.60 628.53,158.00              630.60,163.37 630.99,168.33 631.00,174.00              631.04,199.16 624.27,223.33 620.08,248.00              620.08,248.00 614.00,280.00 614.00,280.00              613.53,282.35 612.19,290.95 610.99,292.40              609.35,294.38 605.36,294.00 603.00,294.00              603.00,294.00 567.00,294.00 567.00,294.00              567.00,294.00 575.80,246.00 575.80,246.00              575.80,246.00 581.92,214.00 581.92,214.00              583.44,205.02 585.11,198.29 585.00,189.00              584.97,186.55 584.95,184.36 584.15,182.00              582.93,178.40 580.54,175.48 576.99,174.01              566.25,169.55 555.34,180.99 550.10,189.00              541.75,201.77 539.14,216.33 536.39,231.00              536.39,231.00 529.25,268.00 529.25,268.00              529.25,268.00 525.80,286.00 525.80,286.00              525.39,288.01 524.94,291.68 523.27,293.01              521.69,294.26 517.97,294.00 516.00,294.00              516.00,294.00 480.00,294.00 480.00,294.00              480.00,294.00 492.58,227.00 492.58,227.00              492.58,227.00 522.00,72.00 522.00,72.00 Z            M 997.00,75.53            C 1001.62,74.77 1008.58,74.51 1013.00,76.13              1027.50,81.46 1029.45,101.92 1020.61,112.98              1014.79,120.27 1006.89,122.20 998.00,121.99              981.74,121.59 974.99,105.03 979.96,91.00              983.01,82.39 988.45,78.06 997.00,75.53 Z            M 167.00,114.00            C 158.15,112.01 157.70,111.02 148.00,111.00              148.00,111.00 141.00,111.00 141.00,111.00              112.45,111.04 83.06,126.69 73.75,155.00              71.92,160.55 70.15,170.18 70.01,176.00              69.66,191.67 75.03,204.42 87.00,214.70              94.76,221.37 107.36,227.91 111.90,237.00              117.81,248.81 109.48,258.50 97.00,257.96              85.44,257.46 75.94,249.85 66.00,245.00              66.00,245.00 59.06,273.00 59.06,273.00              58.33,279.27 64.20,282.35 69.00,285.13              81.77,292.52 89.61,294.16 104.00,295.25              116.50,296.19 129.74,293.56 140.00,286.07              158.50,272.57 165.50,243.18 157.91,222.00              153.34,209.25 144.96,200.89 134.00,193.35              126.79,188.39 114.22,181.25 109.74,174.00              104.26,165.14 112.74,152.21 131.00,152.00              145.56,151.84 147.03,155.10 157.00,156.00              157.00,156.00 167.00,114.00 167.00,114.00 Z            M 372.00,255.00            C 380.08,255.86 390.48,263.02 406.00,263.91              414.31,264.38 424.89,260.22 426.38,251.00              428.07,240.47 413.31,232.61 406.00,227.95              391.27,218.55 382.13,208.92 380.71,191.00              380.17,187.83 380.60,186.09 380.71,183.00              382.92,165.42 392.49,153.13 408.00,144.89              427.33,134.62 462.55,133.92 482.00,144.00              482.00,144.00 472.00,176.00 472.00,176.00              463.03,173.58 456.96,170.24 447.00,170.01              443.20,169.93 439.65,170.04 436.00,171.22              428.96,173.51 422.36,180.29 426.31,188.00              430.45,196.07 443.55,201.71 451.00,207.04              460.31,213.69 469.73,224.35 471.84,236.00              471.84,236.00 471.84,247.00 471.84,247.00              471.59,281.67 437.01,296.65 407.00,297.00              396.65,297.12 383.80,295.28 374.00,291.92              371.04,290.91 364.52,288.73 363.20,285.79              362.13,283.40 363.88,279.38 364.67,277.00              364.67,277.00 372.00,255.00 372.00,255.00 Z            M 716.00,137.21            C 716.00,137.21 733.00,137.21 733.00,137.21              739.87,137.01 743.42,137.52 750.00,139.67              776.91,148.45 785.83,169.84 787.49,196.00              788.03,204.50 785.91,220.70 783.57,229.00              775.83,256.46 758.54,281.48 731.00,291.94              719.15,296.43 709.45,297.14 697.00,297.00              666.37,296.64 642.36,272.66 642.00,242.00              642.00,242.00 642.00,229.00 642.00,229.00              642.05,195.81 662.63,158.71 693.00,144.32              701.14,140.46 707.21,138.87 716.00,137.21 Z            M 853.00,161.00            C 856.13,154.38 862.85,148.89 869.00,145.06              889.78,132.14 920.68,132.92 934.12,156.00              942.38,170.17 942.38,183.28 942.01,199.00              941.12,237.89 919.07,281.60 880.00,293.97              870.94,296.84 864.34,297.11 855.00,297.00              845.89,296.89 840.41,294.80 832.00,292.00              832.00,292.00 821.00,355.00 821.00,355.00              821.00,355.00 776.00,355.00 776.00,355.00              776.00,355.00 798.61,236.00 798.61,236.00              798.61,236.00 815.00,139.00 815.00,139.00              815.00,139.00 854.00,139.00 854.00,139.00              854.00,139.00 853.00,161.00 853.00,161.00 Z            M 943.00,294.00            C 943.00,294.00 950.39,253.00 950.39,253.00              950.39,253.00 965.20,175.00 965.20,175.00              965.20,175.00 969.75,151.00 969.75,151.00              969.75,151.00 972.73,140.99 972.73,140.99              972.73,140.99 980.00,140.00 980.00,140.00              980.00,140.00 1016.00,140.00 1016.00,140.00              1016.00,140.00 1006.61,192.00 1006.61,192.00              1006.61,192.00 987.00,294.00 987.00,294.00              987.00,294.00 943.00,294.00 943.00,294.00 Z            M 1133.00,140.00            C 1133.00,140.00 1180.00,140.00 1180.00,140.00              1180.00,140.00 1181.83,158.00 1181.83,158.00              1181.83,158.00 1186.83,206.00 1186.83,206.00              1186.83,206.00 1191.00,244.00 1191.00,244.00              1191.00,244.00 1200.95,214.00 1200.95,214.00              1200.95,214.00 1220.19,163.00 1220.19,163.00              1220.19,163.00 1226.00,148.00 1226.00,148.00              1226.00,148.00 1229.70,140.99 1229.70,140.99              1229.70,140.99 1237.00,140.00 1237.00,140.00              1237.00,140.00 1275.00,140.00 1275.00,140.00              1273.99,145.40 1267.93,157.57 1265.25,163.00              1265.25,163.00 1249.31,197.00 1249.31,197.00              1229.94,239.18 1209.50,287.60 1180.79,324.00              1168.28,339.86 1143.31,361.96 1122.00,363.00              1122.00,363.00 1114.00,338.00 1114.00,338.00              1113.14,335.41 1110.82,329.74 1111.69,327.22              1112.65,324.44 1124.59,319.85 1128.00,317.80              1137.98,311.78 1145.86,305.47 1152.84,296.00              1154.99,293.10 1158.31,288.52 1159.03,285.00              1159.79,281.30 1158.12,274.85 1157.42,271.00              1157.42,271.00 1152.25,243.00 1152.25,243.00              1152.25,243.00 1139.61,175.00 1139.61,175.00              1139.61,175.00 1133.00,140.00 1133.00,140.00 Z            M 718.00,171.39            C 708.07,174.37 703.40,180.32 698.43,189.00              689.96,203.80 686.81,221.16 687.00,238.00              687.16,251.52 695.28,266.07 711.00,262.47              719.89,260.43 725.57,253.50 729.98,246.00              739.09,230.50 742.20,211.69 742.00,194.00              741.82,178.64 733.98,169.24 718.00,171.39 Z            M 878.00,173.31            C 852.26,178.19 846.96,211.66 843.25,233.00              843.25,233.00 840.18,250.00 840.18,250.00              839.89,252.14 839.04,255.66 840.18,257.61              841.72,260.54 847.89,262.32 851.00,262.90              853.30,263.34 855.65,263.69 858.00,263.47              868.20,262.53 875.79,255.03 881.25,247.00              891.97,231.26 896.22,212.80 896.00,194.00              895.86,182.66 890.83,172.61 878.00,173.31 Z" />
</svg>