<svg xmlns="http://www.w3.org/2000/svg" viewBox="0.03 7.5 2486.47 363.31">
  <path id="shutterstock-wordmark" fill="#303030" stroke="none" stroke-width="1"
    d="M 231.00,8.00            C 231.00,8.00 287.00,8.00 287.00,8.00              287.00,8.00 287.00,108.00 287.00,108.00              304.34,101.99 310.80,100.57 329.00,98.83              333.50,98.40 335.12,97.90 340.00,98.01              381.11,98.95 421.02,118.90 432.85,161.00              435.27,169.64 436.99,180.03 437.00,189.00              437.00,189.00 437.00,365.00 437.00,365.00              437.00,365.00 380.00,365.00 380.00,365.00              380.00,365.00 380.00,196.00 380.00,196.00              379.95,166.69 358.99,150.65 331.00,150.01              321.22,149.79 307.08,152.73 298.00,156.40              295.09,157.58 289.71,159.69 288.02,162.38              286.78,164.36 287.00,167.70 287.00,170.00              287.00,170.00 287.00,365.00 287.00,365.00              287.00,365.00 231.00,365.00 231.00,365.00              231.00,365.00 231.00,8.00 231.00,8.00 Z            M 732.00,103.00            C 732.00,103.00 732.00,46.00 732.00,46.00              732.02,36.49 732.46,38.10 745.00,31.14              745.00,31.14 772.00,16.14 772.00,16.14              777.35,13.15 782.97,9.22 789.00,8.00              789.00,8.00 789.00,103.00 789.00,103.00              789.00,103.00 881.00,103.00 881.00,103.00              881.00,103.00 881.00,46.00 881.00,46.00              881.02,36.12 881.64,38.02 894.00,31.00              894.00,31.00 919.00,17.14 919.00,17.14              924.32,14.17 931.35,9.65 937.00,8.00              937.00,8.00 937.00,103.00 937.00,103.00              937.00,103.00 1001.00,103.00 1001.00,103.00              1001.00,103.00 1001.00,157.00 1001.00,157.00              1001.00,157.00 937.00,157.00 937.00,157.00              937.00,157.00 937.00,259.00 937.00,259.00              937.02,271.10 939.37,285.46 947.33,295.00              959.85,310.00 977.00,311.00 995.00,311.00              995.00,311.00 995.00,365.00 995.00,365.00              972.04,365.00 949.83,366.39 928.00,357.55              921.87,355.06 915.19,351.42 910.00,347.33              876.99,321.37 881.00,277.27 881.00,240.00              881.00,240.00 881.00,205.00 881.00,205.00              881.00,205.00 881.00,157.00 881.00,157.00              881.00,157.00 789.00,157.00 789.00,157.00              789.00,157.00 789.00,249.00 789.00,249.00              789.00,267.49 786.98,283.29 801.17,297.91              813.08,310.18 830.08,311.00 846.00,311.00              846.00,311.00 846.00,365.00 846.00,365.00              823.04,365.00 800.83,366.39 779.00,357.55              772.94,355.09 767.26,351.72 762.00,347.84              727.89,322.68 732.00,274.39 732.00,237.00              732.00,237.00 732.00,203.00 732.00,203.00              732.00,203.00 732.00,157.00 732.00,157.00              732.00,157.00 704.00,157.00 704.00,157.00              704.00,157.00 704.00,103.00 704.00,103.00              704.00,103.00 732.00,103.00 732.00,103.00 Z            M 1649.00,103.00            C 1649.00,103.00 1649.00,46.00 1649.00,46.00              1649.02,36.84 1649.93,37.60 1663.00,30.75              1672.60,25.71 1697.79,10.34 1706.00,8.00              1706.00,8.00 1706.00,103.00 1706.00,103.00              1706.00,103.00 1769.00,103.00 1769.00,103.00              1769.00,103.00 1769.00,157.00 1769.00,157.00              1769.00,157.00 1706.00,157.00 1706.00,157.00              1706.00,157.00 1706.00,248.00 1706.00,248.00              1706.00,266.25 1704.00,282.06 1717.46,296.83              1729.92,310.51 1746.98,311.00 1764.00,311.00              1764.00,311.00 1764.00,365.00 1764.00,365.00              1738.19,365.00 1713.93,366.63 1690.00,354.63              1665.06,342.13 1652.75,315.69 1650.04,289.00              1650.04,289.00 1650.04,280.00 1650.04,280.00              1650.04,280.00 1649.00,268.00 1649.00,268.00              1649.00,268.00 1649.00,157.00 1649.00,157.00              1649.00,157.00 1620.00,157.00 1620.00,157.00              1620.00,157.00 1620.00,103.00 1620.00,103.00              1620.00,103.00 1649.00,103.00 1649.00,103.00 Z            M 2266.00,8.00            C 2266.00,8.00 2322.00,8.00 2322.00,8.00              2322.00,8.00 2322.00,204.00 2322.00,204.00              2322.00,204.00 2344.15,179.00 2344.15,179.00              2344.15,179.00 2388.85,128.00 2388.85,128.00              2388.85,128.00 2402.85,112.00 2402.85,112.00              2402.85,112.00 2411.00,104.02 2411.00,104.02              2411.00,104.02 2419.00,103.00 2419.00,103.00              2419.00,103.00 2480.00,103.00 2480.00,103.00              2476.98,109.39 2462.83,123.76 2457.42,130.00              2457.42,130.00 2404.28,190.00 2404.28,190.00              2404.28,190.00 2385.72,211.00 2385.72,211.00              2383.70,213.32 2378.88,217.96 2378.66,221.00              2378.42,224.19 2383.40,229.47 2385.35,232.00              2385.35,232.00 2406.12,259.00 2406.12,259.00              2406.12,259.00 2460.65,330.00 2460.65,330.00              2460.65,330.00 2477.63,352.00 2477.63,352.00              2480.91,356.36 2484.24,359.78 2486.00,365.00              2486.00,365.00 2427.00,365.00 2427.00,365.00              2427.00,365.00 2419.09,363.98 2419.09,363.98              2419.09,363.98 2401.13,342.00 2401.13,342.00              2401.13,342.00 2362.79,292.00 2362.79,292.00              2362.79,292.00 2341.00,262.00 2341.00,262.00              2337.02,265.99 2324.06,279.38 2322.56,284.00              2321.89,286.05 2322.00,288.83 2322.00,291.00              2322.00,291.00 2322.00,365.00 2322.00,365.00              2322.00,365.00 2266.00,365.00 2266.00,365.00              2266.00,365.00 2266.00,8.00 2266.00,8.00 Z            M 20.00,300.00            C 20.00,300.00 47.00,308.98 47.00,308.98              58.66,312.58 79.84,315.98 92.00,316.00              106.26,316.02 121.38,316.61 134.00,308.73              149.22,299.22 151.64,280.95 137.00,269.53              125.73,260.74 102.26,257.98 88.00,255.59              56.09,250.23 25.13,238.23 15.43,204.00              13.94,198.75 11.82,184.17 12.18,179.00              12.94,168.31 14.42,157.96 18.62,148.00              32.37,115.34 69.07,101.21 102.00,98.91              102.00,98.91 114.00,98.01 114.00,98.01              114.00,98.01 123.00,98.91 123.00,98.91              123.00,98.91 143.00,100.75 143.00,100.75              143.00,100.75 169.00,106.43 169.00,106.43              179.12,109.31 188.39,113.86 198.00,118.00              198.00,118.00 190.42,140.00 190.42,140.00              190.42,140.00 179.00,169.00 179.00,169.00              179.00,169.00 155.00,159.69 155.00,159.69              144.93,156.19 125.60,152.13 115.00,152.00              104.02,151.88 91.66,152.65 82.00,158.48              70.54,165.40 65.44,179.56 73.94,190.96              84.23,204.76 112.88,206.59 129.00,209.61              143.80,212.39 160.23,216.90 173.00,225.09              194.01,238.56 203.89,260.54 204.00,285.00              204.04,293.70 203.04,302.62 200.56,311.00              188.63,351.31 142.96,369.94 104.00,370.00              104.00,370.00 88.00,370.00 88.00,370.00              88.00,370.00 76.00,369.09 76.00,369.09              57.05,367.76 39.07,364.71 21.00,358.67              21.00,358.67 6.00,352.69 6.00,352.69              4.21,351.85 1.37,350.62 0.68,348.61              -0.28,345.85 3.79,337.84 5.00,335.00              5.00,335.00 20.00,300.00 20.00,300.00 Z            M 1224.00,316.00            C 1219.09,332.82 1199.19,349.53 1184.00,357.24              1144.42,377.36 1079.01,375.61 1047.59,340.91              1032.62,324.38 1025.03,301.15 1025.00,279.00              1025.00,279.00 1025.00,255.00 1025.00,255.00              1025.00,255.00 1025.00,186.00 1025.00,186.00              1025.04,161.46 1035.88,136.14 1055.00,120.46              1072.35,106.24 1094.06,100.45 1116.00,98.91              1116.00,98.91 1129.00,98.00 1129.00,98.00              1129.00,98.00 1139.00,98.91 1139.00,98.91              1159.34,100.33 1179.48,105.72 1196.00,118.24              1216.45,133.74 1229.96,158.07 1230.00,184.00              1230.00,184.00 1230.00,210.00 1230.00,210.00              1230.00,210.00 1230.00,260.00 1230.00,260.00              1230.00,260.00 1081.00,260.00 1081.00,260.00              1081.00,260.00 1081.91,274.00 1081.91,274.00              1082.70,285.47 1083.88,293.93 1092.18,302.96              1111.02,323.43 1149.28,318.33 1167.71,299.71              1171.60,295.79 1173.31,292.65 1176.00,288.00              1176.00,288.00 1224.00,316.00 1224.00,316.00 Z            M 1265.00,365.00            C 1265.00,365.00 1265.00,184.00 1265.00,184.00              1265.06,143.01 1294.21,111.60 1333.00,102.13              1338.65,100.75 1346.24,99.22 1352.00,99.01              1352.00,99.01 1364.00,98.01 1364.00,98.01              1371.80,97.83 1388.12,99.58 1396.00,101.00              1396.00,101.00 1396.00,156.00 1396.00,156.00              1372.29,152.87 1348.11,148.62 1330.18,169.00              1326.85,172.79 1324.92,176.22 1323.36,181.00              1321.88,185.52 1321.06,191.24 1321.00,196.00              1321.00,196.00 1321.00,365.00 1321.00,365.00              1321.00,365.00 1265.00,365.00 1265.00,365.00 Z            M 1398.00,349.00            C 1398.00,349.00 1412.85,314.00 1412.85,314.00              1413.99,311.35 1417.31,302.34 1419.49,301.12              1421.44,300.04 1424.12,301.29 1426.00,302.00              1426.00,302.00 1442.00,307.86 1442.00,307.86              1465.61,314.63 1478.63,316.04 1503.00,316.00              1518.66,315.98 1539.39,310.94 1544.56,294.00              1546.17,288.73 1545.95,284.04 1543.59,279.00              1535.93,262.65 1512.76,260.06 1497.00,257.41              1469.00,252.71 1438.38,246.76 1421.70,221.00              1406.72,197.87 1407.61,159.54 1423.44,137.00              1434.91,120.67 1451.36,110.56 1470.00,104.35              1497.97,95.04 1535.88,97.40 1564.00,105.43              1576.05,108.87 1585.60,113.17 1597.00,118.00              1597.00,118.00 1578.00,169.00 1578.00,169.00              1578.00,169.00 1557.00,161.00 1557.00,161.00              1537.16,154.24 1512.78,148.75 1492.00,153.90              1473.45,158.49 1458.72,177.46 1475.10,193.90              1485.88,204.72 1512.97,206.90 1528.00,209.80              1553.71,214.76 1580.21,223.45 1593.69,248.00              1597.12,254.25 1599.58,262.02 1601.00,269.00              1601.00,269.00 1602.82,288.00 1602.82,288.00              1602.11,297.90 1600.76,307.75 1596.99,317.00              1576.26,367.86 1511.38,374.44 1464.00,368.28              1464.00,368.28 1436.00,363.37 1436.00,363.37              1422.72,360.07 1409.93,355.79 1398.00,349.00 Z            M 2240.00,301.00            C 2234.45,319.61 2226.25,334.03 2211.00,346.54              2169.54,380.53 2088.37,378.96 2053.47,336.00              2041.87,321.72 2035.03,300.32 2035.00,282.00              2035.00,282.00 2035.00,259.00 2035.00,259.00              2035.00,259.00 2035.00,187.00 2035.00,187.00              2035.01,178.47 2036.66,167.10 2039.35,159.00              2043.77,145.73 2051.54,132.56 2062.00,123.17              2080.33,106.72 2103.04,100.56 2127.00,98.91              2127.00,98.91 2139.00,98.01 2139.00,98.01              2139.00,98.01 2148.00,98.91 2148.00,98.91              2183.96,101.43 2216.48,116.47 2233.25,150.00              2236.41,156.32 2238.42,161.06 2240.00,168.00              2240.00,168.00 2188.00,187.00 2188.00,187.00              2179.94,152.69 2129.69,144.19 2106.00,162.53              2093.83,171.95 2091.02,186.44 2091.00,201.00              2091.00,201.00 2091.00,268.00 2091.00,268.00              2091.05,277.80 2092.83,289.88 2098.63,298.00              2118.78,326.14 2177.81,319.41 2188.00,282.00              2188.00,282.00 2210.00,289.19 2210.00,289.19              2210.00,289.19 2240.00,301.00 2240.00,301.00 Z            M 469.00,103.00            C 469.00,103.00 526.00,103.00 526.00,103.00              526.00,103.00 526.00,273.00 526.00,273.00              526.01,278.79 526.32,282.39 528.04,288.00              536.21,314.78 559.88,321.29 585.00,321.00              592.43,320.91 602.02,318.85 609.00,316.31              611.95,315.23 616.32,313.60 617.98,310.79              619.20,308.71 619.00,305.37 619.00,303.00              619.00,303.00 619.00,103.00 619.00,103.00              619.00,103.00 675.00,103.00 675.00,103.00              675.00,103.00 675.00,341.00 675.00,341.00              675.00,343.06 675.26,346.62 674.01,348.30              672.49,350.35 665.58,352.45 663.00,353.42              650.98,357.96 642.36,360.30 630.00,363.37              588.25,373.76 523.97,375.99 492.09,342.00              475.99,324.83 469.27,299.09 469.00,276.00              469.00,276.00 469.00,103.00 469.00,103.00 Z            M 1792.00,240.00            C 1792.00,240.00 1792.00,200.00 1792.00,200.00              1792.00,166.51 1792.97,137.37 1824.00,116.36              1830.45,111.99 1835.58,109.38 1843.00,107.03              1851.40,104.36 1861.19,103.01 1870.00,103.00              1870.00,103.00 1925.00,103.00 1925.00,103.00              1925.00,103.00 1925.00,161.00 1925.00,161.00              1925.00,161.00 1873.00,161.00 1873.00,161.00              1866.36,161.01 1861.27,161.37 1856.10,166.21              1851.16,170.84 1850.08,176.53 1850.00,183.00              1850.00,183.00 1850.00,240.00 1850.00,240.00              1850.00,240.00 1792.00,240.00 1792.00,240.00 Z            M 1174.00,214.00            C 1174.00,199.48 1175.60,182.68 1167.24,170.00              1151.63,146.33 1106.58,145.90 1089.53,168.00              1079.53,180.96 1081.00,198.57 1081.00,214.00              1081.00,214.00 1174.00,214.00 1174.00,214.00 Z            M 1951.00,228.00            C 1951.00,228.00 2009.00,228.00 2009.00,228.00              2009.00,228.00 2009.00,270.00 2009.00,270.00              2009.00,270.00 2009.00,290.00 2009.00,290.00              2008.96,313.44 1998.86,335.81 1980.00,350.10              1974.47,354.29 1968.48,357.72 1962.00,360.19              1953.77,363.32 1944.79,364.99 1936.00,365.00              1936.00,365.00 1877.00,365.00 1877.00,365.00              1877.00,365.00 1877.00,307.00 1877.00,307.00              1877.00,307.00 1931.00,307.00 1931.00,307.00              1945.01,306.93 1950.98,299.59 1951.00,286.00              1951.00,286.00 1951.00,228.00 1951.00,228.00 Z" />
</svg>