<svg xmlns="http://www.w3.org/2000/svg" viewBox="1791.5 102.5 218 263">
  <path id="shutterstock" fill="#303030" stroke="none" stroke-width="1"
    d="M 1792.00,240.00            C 1792.00,240.00 1792.00,200.00 1792.00,200.00              1792.00,166.51 1792.97,137.37 1824.00,116.36              1830.45,111.99 1835.58,109.38 1843.00,107.03              1851.40,104.36 1861.19,103.01 1870.00,103.00              1870.00,103.00 1925.00,103.00 1925.00,103.00              1925.00,103.00 1925.00,161.00 1925.00,161.00              1925.00,161.00 1873.00,161.00 1873.00,161.00              1866.36,161.01 1861.27,161.37 1856.10,166.21              1851.16,170.84 1850.08,176.53 1850.00,183.00              1850.00,183.00 1850.00,240.00 1850.00,240.00              1850.00,240.00 1792.00,240.00 1792.00,240.00 Z            M 1951.00,228.00            C 1951.00,228.00 2009.00,228.00 2009.00,228.00              2009.00,228.00 2009.00,270.00 2009.00,270.00              2009.00,270.00 2009.00,290.00 2009.00,290.00              2008.96,313.44 1998.86,335.81 1980.00,350.10              1974.47,354.29 1968.48,357.72 1962.00,360.19              1953.77,363.32 1944.79,364.99 1936.00,365.00              1936.00,365.00 1877.00,365.00 1877.00,365.00              1877.00,365.00 1877.00,307.00 1877.00,307.00              1877.00,307.00 1931.00,307.00 1931.00,307.00              1945.01,306.93 1950.98,299.59 1951.00,286.00              1951.00,286.00 1951.00,228.00 1951.00,228.00 Z" />
</svg>