<svg xmlns="http://www.w3.org/2000/svg" viewBox="-0.55 -0.36 1016.05 1024.86">
  <path id="skype" fill="#303030" stroke="none" stroke-width="1"
    d="M 274.00,0.14            C 274.00,0.14 302.00,0.14 302.00,0.14              302.00,0.14 316.00,0.14 316.00,0.14              341.65,0.04 380.91,9.34 405.00,18.42              417.77,23.24 429.88,29.01 442.00,35.26              445.87,37.26 454.52,42.74 458.00,43.59              458.00,43.59 489.00,42.00 489.00,42.00              489.00,42.00 528.00,42.00 528.00,42.00              528.00,42.00 538.00,42.91 538.00,42.91              565.54,44.80 590.02,48.16 617.00,54.35              695.05,72.26 771.39,112.48 830.00,167.09              921.67,252.49 979.53,374.10 981.00,500.00              981.00,500.00 982.00,516.00 982.00,516.00              982.00,516.00 981.00,530.00 981.00,530.00              981.00,530.00 979.96,555.00 979.96,555.00              979.70,560.81 976.96,575.38 978.13,580.00              978.13,580.00 985.75,596.00 985.75,596.00              985.75,596.00 996.19,620.00 996.19,620.00              1005.68,644.58 1011.98,672.74 1014.08,699.00              1014.08,699.00 1015.00,709.00 1015.00,709.00              1015.00,709.00 1015.00,740.00 1015.00,740.00              1014.97,761.84 1008.49,794.03 1001.98,815.00              974.15,904.54 905.30,975.86 817.00,1007.31              793.68,1015.61 756.65,1023.96 732.00,1024.00              732.00,1024.00 698.00,1024.00 698.00,1024.00              671.16,1023.87 628.97,1013.48 604.00,1003.40              604.00,1003.40 579.00,992.14 579.00,992.14              575.72,990.34 565.78,984.30 562.72,983.95              562.72,983.95 533.00,986.00 533.00,986.00              533.00,986.00 511.00,987.00 511.00,987.00              511.00,987.00 480.00,986.00 480.00,986.00              480.00,986.00 470.00,985.09 470.00,985.09              438.22,982.87 406.66,977.16 376.00,968.42              219.78,923.90 96.17,801.40 51.58,645.00              42.81,614.26 37.10,582.88 34.91,551.00              34.91,551.00 34.00,541.00 34.00,541.00              34.00,541.00 33.00,507.00 33.00,507.00              33.00,507.00 34.00,489.00 34.00,489.00              34.00,489.00 36.17,461.00 36.17,461.00              36.51,457.55 38.07,448.87 37.57,446.00              36.85,441.83 32.36,434.99 30.37,431.00              30.37,431.00 19.81,407.00 19.81,407.00              9.85,381.38 0.04,342.45 0.00,315.00              -0.03,294.69 -0.56,275.17 2.43,255.00              9.49,207.38 26.13,165.48 53.72,126.00              62.28,113.75 71.87,103.15 81.72,92.00              101.29,69.83 134.41,46.05 161.00,32.75              185.74,20.38 206.94,12.40 234.00,6.42              234.00,6.42 274.00,0.14 274.00,0.14 Z            M 492.00,232.14            C 492.00,232.14 472.00,234.43 472.00,234.43              448.12,237.89 414.26,246.37 393.00,257.48              370.59,269.21 347.98,285.87 333.67,307.00              321.02,325.69 312.04,349.19 312.00,372.00              311.97,392.63 311.59,405.70 318.03,426.00              332.64,472.11 367.26,496.27 408.00,517.78              408.00,517.78 437.00,532.14 437.00,532.14              437.00,532.14 494.00,556.75 494.00,556.75              516.78,567.58 542.79,578.25 561.00,596.01              566.77,601.65 572.03,606.71 575.73,614.00              579.67,621.78 581.09,630.35 581.00,639.00              580.93,644.98 579.90,649.36 578.00,655.00              575.07,663.69 570.47,671.32 563.83,677.71              550.47,690.57 524.44,698.97 506.00,699.00              506.00,699.00 490.00,699.00 490.00,699.00              470.97,698.77 444.29,692.61 427.00,684.69              406.58,675.34 382.65,660.27 360.00,660.00              360.00,660.00 355.00,660.00 355.00,660.00              332.59,660.11 313.28,675.72 313.00,699.00              312.91,706.90 313.01,712.33 315.52,720.00              322.78,742.24 343.50,753.38 364.00,761.05              396.33,773.14 429.51,780.54 464.00,782.04              464.00,782.04 477.00,783.00 477.00,783.00              477.00,783.00 500.00,783.00 500.00,783.00              500.00,783.00 513.00,782.04 513.00,782.04              561.26,779.94 615.86,767.10 651.00,732.00              658.83,724.18 664.69,717.57 670.40,708.00              676.23,698.21 681.37,686.95 684.58,676.00              688.37,663.04 690.98,647.50 691.00,634.00              691.02,618.46 689.74,602.97 685.28,588.00              663.91,516.30 588.36,485.39 525.00,459.60              501.36,449.98 464.15,435.08 445.00,419.38              430.62,407.60 420.25,393.38 421.51,374.00              423.30,346.60 440.55,331.63 465.00,322.42              500.00,309.25 541.54,315.38 576.00,327.34              576.00,327.34 618.00,343.35 618.00,343.35              624.13,344.80 630.71,345.61 637.00,344.70              659.50,341.46 671.24,322.51 671.00,301.00              670.70,274.65 651.68,259.22 629.00,249.86              603.10,239.17 573.76,234.82 546.00,232.91              546.00,232.91 535.00,232.14 535.00,232.14              535.00,232.14 492.00,232.14 492.00,232.14 Z" />
</svg>