<svg xmlns="http://www.w3.org/2000/svg" viewBox="-0.38 -0.53 1035.88 263.99">
  <path id="slack-wordmark" fill="#303030" stroke="none" stroke-width="1"
    d="M 125.00,56.00            C 125.00,56.00 99.00,56.00 99.00,56.00              92.58,55.99 87.62,55.64 82.00,52.03              78.87,50.03 75.92,47.04 73.80,44.00              60.42,24.87 76.44,-5.00 103.00,0.67              106.48,1.41 110.07,2.60 113.00,4.65              116.25,6.92 119.64,10.56 121.64,14.00              124.82,19.48 124.99,22.90 125.00,29.00              125.00,29.00 125.00,56.00 125.00,56.00 Z            M 161.00,0.46            C 180.85,-2.28 193.97,10.35 194.00,30.00              194.00,30.00 194.00,96.00 194.00,96.00              193.98,110.28 186.76,121.75 172.00,124.53              152.13,128.28 138.09,114.59 138.00,95.00              138.00,95.00 138.00,31.00 138.00,31.00              138.03,14.88 144.58,4.12 161.00,0.46 Z            M 475.00,4.00            C 475.00,4.00 521.00,4.00 521.00,4.00              521.00,4.00 521.00,223.00 521.00,223.00              521.00,223.00 475.00,223.00 475.00,223.00              475.00,223.00 475.00,4.00 475.00,4.00 Z            M 880.00,4.00            C 880.00,4.00 925.00,4.00 925.00,4.00              925.00,4.00 925.00,131.00 925.00,131.00              925.00,131.00 961.87,87.00 961.87,87.00              961.87,87.00 975.29,72.57 975.29,72.57              975.29,72.57 982.00,72.00 982.00,72.00              982.00,72.00 1030.00,72.00 1030.00,72.00              1027.26,78.41 1020.09,85.54 1015.42,91.00              1015.42,91.00 986.13,125.00 986.13,125.00              986.13,125.00 975.00,138.00 975.00,138.00              973.46,139.81 970.87,142.48 970.87,145.00              970.87,147.54 973.48,150.20 975.05,152.00              975.05,152.00 988.05,167.00 988.05,167.00              988.05,167.00 1018.28,202.00 1018.28,202.00              1023.19,207.65 1032.02,216.57 1035.00,223.00              1035.00,223.00 985.00,223.00 985.00,223.00              982.98,223.00 979.89,223.12 978.04,222.40              974.04,220.86 966.76,210.70 963.80,207.00              963.80,207.00 925.00,159.00 925.00,159.00              925.00,159.00 925.00,223.00 925.00,223.00              925.00,223.00 880.00,223.00 880.00,223.00              880.00,223.00 880.00,4.00 880.00,4.00 Z            M 23.00,69.23            C 23.00,69.23 83.00,69.23 83.00,69.23              93.42,69.00 103.78,67.61 112.99,73.56              127.50,82.94 129.40,105.86 116.82,117.67              110.48,123.62 103.31,124.99 95.00,125.00              95.00,125.00 28.00,125.00 28.00,125.00              0.63,124.67 -8.36,92.31 9.04,76.18              13.53,72.02 17.20,70.76 23.00,69.23 Z            M 207.00,125.00            C 207.00,125.00 207.00,99.00 207.00,99.00              207.01,93.31 207.15,89.24 209.83,84.00              211.57,80.62 214.12,77.68 217.00,75.21              220.67,72.07 224.34,70.66 229.00,69.67              253.06,64.53 272.05,90.97 259.01,112.00              256.97,115.29 253.26,118.94 250.00,121.03              244.37,124.64 239.43,124.99 233.00,125.00              233.00,125.00 207.00,125.00 207.00,125.00 Z            M 344.00,176.00            C 344.00,176.00 358.00,183.68 358.00,183.68              368.85,188.82 387.02,193.11 399.00,191.83              405.11,191.17 418.38,186.02 416.16,178.01              415.29,174.90 411.73,172.40 409.00,170.99              403.64,168.24 390.38,165.59 384.00,164.21              357.81,158.56 333.81,148.38 335.04,117.00              335.19,113.11 336.53,106.72 337.75,103.00              340.47,94.69 346.15,87.54 353.00,82.24              371.40,68.00 394.89,67.03 417.00,70.59              426.44,72.11 436.70,75.22 445.00,80.01              447.26,81.32 451.72,83.69 452.65,86.18              453.56,88.63 451.53,92.67 450.60,95.00              450.60,95.00 441.00,118.00 441.00,118.00              427.39,110.80 413.94,103.19 398.00,103.00              398.00,103.00 394.00,103.00 394.00,103.00              382.07,103.15 371.19,111.27 380.11,119.79              381.58,121.20 383.18,122.20 385.00,123.09              397.88,129.35 422.69,132.01 439.00,142.23              465.32,158.72 464.56,194.95 441.00,213.48              419.55,230.36 382.79,227.98 358.00,220.56              351.89,218.73 343.43,215.12 338.00,211.80              336.13,210.65 333.07,208.93 332.23,206.82              331.25,204.35 333.43,200.33 334.42,198.00              334.42,198.00 344.00,176.00 344.00,176.00 Z            M 653.00,207.00            C 639.52,222.19 624.67,226.23 605.00,226.00              591.30,225.84 575.04,219.14 565.00,209.91              533.98,181.38 528.72,131.20 553.76,97.00              576.40,66.06 626.75,56.73 653.00,88.00              653.00,88.00 653.00,72.00 653.00,72.00              653.00,72.00 698.00,72.00 698.00,72.00              698.00,72.00 698.00,223.00 698.00,223.00              698.00,223.00 653.00,223.00 653.00,223.00              653.00,223.00 653.00,207.00 653.00,207.00 Z            M 784.00,69.43            C 806.85,66.61 830.98,73.29 848.00,89.09              852.48,93.25 856.63,97.86 859.96,103.00              861.80,105.85 863.51,108.35 860.67,111.21              860.67,111.21 837.00,124.77 837.00,124.77              834.93,125.90 830.29,128.92 828.09,128.76              825.47,128.56 822.73,124.81 820.96,123.00              816.45,118.39 813.03,115.67 807.00,113.26              784.67,104.32 758.99,122.51 758.04,146.00              757.06,170.21 782.77,190.64 806.00,182.12              811.83,179.99 815.59,177.35 819.99,172.98              821.92,171.06 825.38,166.44 828.09,166.24              830.25,166.09 834.05,168.63 836.00,169.70              836.00,169.70 855.00,180.23 855.00,180.23              857.24,181.46 861.60,183.43 862.13,186.18              862.93,190.38 852.94,201.08 850.00,203.99              832.79,220.97 813.50,226.27 790.00,226.00              780.00,225.88 768.93,222.64 760.00,218.24              723.16,200.09 706.97,158.45 720.70,120.00              730.92,91.38 754.66,74.23 784.00,69.43 Z            M 612.00,111.30            C 582.83,116.99 571.21,151.65 592.04,172.99              595.53,176.56 598.41,178.94 603.00,180.96              608.04,183.18 611.52,183.93 617.00,184.00              630.88,184.15 652.72,176.55 653.00,160.00              653.00,160.00 653.00,138.00 653.00,138.00              653.00,135.46 653.13,132.40 652.28,130.00              650.87,126.06 647.23,122.41 643.99,119.90              633.72,111.93 624.72,110.03 612.00,111.30 Z            M 56.00,138.00            C 56.00,138.00 56.00,166.00 56.00,166.00              55.99,172.24 55.88,175.44 52.52,181.00              50.01,185.16 47.22,187.91 43.00,190.32              32.21,196.46 16.88,195.03 8.18,185.91              -3.87,173.26 -1.79,150.42 14.00,141.80              20.27,138.37 24.06,138.01 31.00,138.00              31.00,138.00 56.00,138.00 56.00,138.00 Z            M 92.00,138.46            C 111.21,135.81 124.97,147.56 125.00,167.00              125.00,167.00 125.00,234.00 125.00,234.00              125.00,237.20 125.10,239.87 124.21,243.00              120.75,255.19 108.60,263.64 96.00,262.91              83.72,262.19 73.72,255.02 70.30,243.00              68.34,236.12 69.00,223.57 69.00,216.00              69.00,216.00 69.00,169.00 69.00,169.00              69.02,152.97 75.72,142.09 92.00,138.46 Z            M 161.00,138.16            C 161.00,138.16 189.00,138.16 189.00,138.16              189.00,138.16 235.00,138.16 235.00,138.16              263.18,138.34 271.03,170.99 254.70,186.53              248.20,192.72 241.58,193.99 233.00,194.00              233.00,194.00 166.00,194.00 166.00,194.00              140.14,193.68 128.28,162.42 147.04,145.18              151.58,141.01 155.15,139.77 161.00,138.16 Z            M 138.00,207.00            C 138.00,207.00 165.00,207.00 165.00,207.00              170.72,207.01 174.80,207.25 180.00,210.04              184.06,212.22 187.11,215.16 189.61,219.00              193.39,224.80 194.14,229.24 193.99,236.00              193.31,265.42 154.39,272.09 141.80,249.00              138.37,242.72 138.01,238.95 138.00,232.00              138.00,232.00 138.00,207.00 138.00,207.00 Z" />
</svg>