<svg xmlns="http://www.w3.org/2000/svg" viewBox="-0.38 -0.53 264.13 263.99">
  <path id="Selection" fill="#303030" stroke="none" stroke-width="1" d="M 125.00,56.00            C 125.00,56.00 99.00,56.00 99.00,56.00              92.58,55.99 87.62,55.64 82.00,52.03              78.87,50.03 75.92,47.04 73.80,44.00              60.42,24.87 76.44,-5.00 103.00,0.67              106.48,1.41 110.07,2.60 113.00,4.65              116.25,6.92 119.64,10.56 121.64,14.00              124.82,19.48 124.99,22.90 125.00,29.00              125.00,29.00 125.00,56.00 125.00,56.00 Z            M 161.00,0.46            C 180.85,-2.28 193.97,10.35 194.00,30.00              194.00,30.00 194.00,96.00 194.00,96.00              193.98,110.28 186.76,121.75 172.00,124.53              152.13,128.28 138.09,114.59 138.00,95.00              138.00,95.00 138.00,31.00 138.00,31.00              138.03,14.88 144.58,4.12 161.00,0.46 Z            M 23.00,69.23            C 23.00,69.23 83.00,69.23 83.00,69.23              93.42,69.00 103.78,67.61 112.99,73.56              127.50,82.94 129.40,105.86 116.82,117.67              110.48,123.62 103.31,124.99 95.00,125.00              95.00,125.00 28.00,125.00 28.00,125.00              0.63,124.67 -8.36,92.31 9.04,76.18              13.53,72.02 17.20,70.76 23.00,69.23 Z            M 207.00,125.00            C 207.00,125.00 207.00,99.00 207.00,99.00              207.01,93.31 207.15,89.24 209.83,84.00              211.57,80.62 214.12,77.68 217.00,75.21              220.67,72.07 224.34,70.66 229.00,69.67              253.06,64.53 272.05,90.97 259.01,112.00              256.97,115.29 253.26,118.94 250.00,121.03              244.37,124.64 239.43,124.99 233.00,125.00              233.00,125.00 207.00,125.00 207.00,125.00 Z            M 56.00,138.00            C 56.00,138.00 56.00,166.00 56.00,166.00              55.99,172.24 55.88,175.44 52.52,181.00              50.01,185.16 47.22,187.91 43.00,190.32              32.21,196.46 16.88,195.03 8.18,185.91              -3.87,173.26 -1.79,150.42 14.00,141.80              20.27,138.37 24.06,138.01 31.00,138.00              31.00,138.00 56.00,138.00 56.00,138.00 Z            M 92.00,138.46            C 111.21,135.81 124.97,147.56 125.00,167.00              125.00,167.00 125.00,234.00 125.00,234.00              125.00,237.20 125.10,239.87 124.21,243.00              120.75,255.19 108.60,263.64 96.00,262.91              83.72,262.19 73.72,255.02 70.30,243.00              68.34,236.12 69.00,223.57 69.00,216.00              69.00,216.00 69.00,169.00 69.00,169.00              69.02,152.97 75.72,142.09 92.00,138.46 Z            M 161.00,138.16            C 161.00,138.16 189.00,138.16 189.00,138.16              189.00,138.16 235.00,138.16 235.00,138.16              263.18,138.34 271.03,170.99 254.70,186.53              248.20,192.72 241.58,193.99 233.00,194.00              233.00,194.00 166.00,194.00 166.00,194.00              140.14,193.68 128.28,162.42 147.04,145.18              151.58,141.01 155.15,139.77 161.00,138.16 Z            M 138.00,207.00            C 138.00,207.00 165.00,207.00 165.00,207.00              170.72,207.01 174.80,207.25 180.00,210.04              184.06,212.22 187.11,215.16 189.61,219.00              193.39,224.80 194.14,229.24 193.99,236.00              193.31,265.42 154.39,272.09 141.80,249.00              138.37,242.72 138.01,238.95 138.00,232.00              138.00,232.00 138.00,207.00 138.00,207.00 Z"/>
</svg>