<svg xmlns="http://www.w3.org/2000/svg" viewBox="1739.5 3.57 815 311.94">
  <path id="spacex" fill="#303030" stroke="none" stroke-width="1"
    d="M 1740.00,315.00            C 1743.39,310.48 1747.99,306.99 1752.00,303.00              1752.00,303.00 1784.00,273.73 1784.00,273.73              1816.08,246.24 1850.18,221.00 1886.00,198.58              2029.94,108.48 2181.68,57.58 2348.00,27.58              2397.72,18.61 2449.66,11.59 2500.00,7.91              2500.00,7.91 2539.00,4.99 2539.00,4.99              2544.30,4.86 2548.93,2.99 2554.00,4.99              2490.11,10.18 2416.26,23.56 2354.00,39.13              2247.89,65.66 2151.38,101.18 2055.00,153.31              1999.44,183.36 1940.02,223.32 1892.00,264.27              1892.00,264.27 1852.00,300.01 1852.00,300.01              1848.50,303.43 1840.00,312.93 1836.00,314.40              1834.06,315.12 1831.09,315.00 1829.00,315.00              1829.00,315.00 1740.00,315.00 1740.00,315.00 Z            M 1747.00,119.00            C 1747.00,119.00 1834.00,119.00 1834.00,119.00              1845.66,119.02 1848.76,123.71 1858.00,130.29              1858.00,130.29 1890.00,153.29 1890.00,153.29              1895.60,157.28 1904.78,163.01 1909.00,168.00              1909.00,168.00 1896.00,176.06 1896.00,176.06              1896.00,176.06 1871.00,191.69 1871.00,191.69              1867.40,194.01 1860.27,200.10 1856.00,199.03              1853.36,198.37 1847.40,193.67 1845.00,191.87              1845.00,191.87 1825.00,177.15 1825.00,177.15              1825.00,177.15 1772.00,138.37 1772.00,138.37              1765.71,133.72 1751.46,124.27 1747.00,119.00 Z            M 2107.00,315.00            C 2107.00,315.00 2019.00,315.00 2019.00,315.00              2007.49,314.98 2006.12,311.51 1997.00,305.00              1997.00,305.00 1965.00,281.63 1965.00,281.63              1965.00,281.63 1938.00,261.87 1938.00,261.87              1935.95,260.34 1930.20,256.70 1930.20,254.00              1930.20,251.13 1937.72,246.34 1940.00,244.63              1940.00,244.63 1966.00,225.58 1966.00,225.58              1969.22,223.28 1973.78,218.96 1978.00,220.22              1980.67,221.01 1989.25,227.82 1992.00,229.87              1992.00,229.87 2019.00,249.63 2019.00,249.63              2019.00,249.63 2072.00,288.58 2072.00,288.58              2072.00,288.58 2107.00,315.00 2107.00,315.00 Z" />
</svg>