<svg xmlns="http://www.w3.org/2000/svg" viewBox="8.5 3.57 2546 312.94">
  <path id="Selection #1" fill="#303030" stroke="none" stroke-width="1" d="M 1740.00,315.00            C 1743.39,310.48 1747.99,306.99 1752.00,303.00              1752.00,303.00 1784.00,273.73 1784.00,273.73              1816.08,246.24 1850.18,221.00 1886.00,198.58              2029.94,108.48 2181.68,57.58 2348.00,27.58              2397.72,18.61 2449.66,11.59 2500.00,7.91              2500.00,7.91 2539.00,4.99 2539.00,4.99              2544.30,4.86 2548.93,2.99 2554.00,4.99              2490.11,10.18 2416.26,23.56 2354.00,39.13              2247.89,65.66 2151.38,101.18 2055.00,153.31              1999.44,183.36 1940.02,223.32 1892.00,264.27              1892.00,264.27 1852.00,300.01 1852.00,300.01              1848.50,303.43 1840.00,312.93 1836.00,314.40              1834.06,315.12 1831.09,315.00 1829.00,315.00              1829.00,315.00 1740.00,315.00 1740.00,315.00 Z            M 831.00,110.00            C 835.51,114.04 840.12,121.00 843.87,126.00              843.87,126.00 865.37,155.00 865.37,155.00              865.37,155.00 935.63,250.00 935.63,250.00              935.63,250.00 966.87,292.00 966.87,292.00              971.12,297.67 981.00,309.98 983.00,316.00              983.00,316.00 920.00,316.00 920.00,316.00              917.56,316.00 914.34,316.21 912.18,314.98              909.82,313.64 906.38,308.37 904.63,306.00              904.63,306.00 888.71,284.00 888.71,284.00              880.33,272.29 881.31,272.02 872.00,272.00              872.00,272.00 698.00,272.00 698.00,272.00              704.21,263.05 708.91,259.52 715.91,252.00              723.54,243.81 725.02,238.02 737.00,238.00              737.00,238.00 855.00,238.00 855.00,238.00              855.00,238.00 836.58,213.00 836.58,213.00              836.58,213.00 811.12,178.00 811.12,178.00              811.12,178.00 800.29,163.00 800.29,163.00              798.83,160.94 796.01,157.57 796.02,155.00              796.03,151.56 802.47,144.76 804.75,142.00              804.75,142.00 831.00,110.00 831.00,110.00 Z            M 241.00,233.00            C 241.00,233.00 136.00,233.00 136.00,233.00              136.00,233.00 62.00,233.00 62.00,233.00              56.59,232.93 50.18,231.83 45.00,230.28              40.52,228.93 35.98,227.00 32.00,224.53              15.04,214.01 15.00,200.54 15.00,183.00              15.00,183.00 15.00,161.00 15.00,161.00              15.01,154.44 15.78,148.05 18.52,142.00              26.77,123.77 49.64,118.03 68.00,118.00              68.00,118.00 235.00,118.00 235.00,118.00              259.36,118.04 281.61,128.97 290.00,153.00              290.00,153.00 70.00,153.00 70.00,153.00              70.00,153.00 70.00,195.00 70.00,195.00              70.00,195.00 176.00,195.00 176.00,195.00              176.00,195.00 241.00,195.00 241.00,195.00              258.48,195.03 280.02,201.55 289.87,217.00              297.41,228.82 296.02,250.18 296.00,264.00              295.99,270.48 294.81,284.13 292.53,290.00              285.24,308.82 265.56,314.97 247.00,315.00              247.00,315.00 61.00,315.00 61.00,315.00              36.67,314.96 13.04,303.13 9.00,277.00              9.00,277.00 241.00,277.00 241.00,277.00              241.00,277.00 241.00,233.00 241.00,233.00 Z            M 1320.00,277.00            C 1319.31,281.47 1317.94,285.85 1316.13,290.00              1308.05,308.49 1292.30,312.75 1274.00,314.09              1274.00,314.09 1262.00,315.00 1262.00,315.00              1262.00,315.00 1094.00,315.00 1094.00,315.00              1073.34,314.97 1047.79,309.34 1039.26,288.00              1036.80,281.86 1036.01,274.57 1036.00,268.00              1036.00,268.00 1036.00,185.00 1036.00,185.00              1036.00,172.13 1034.59,153.47 1040.38,142.00              1049.30,124.31 1071.57,118.03 1090.00,118.00              1090.00,118.00 1264.00,118.00 1264.00,118.00              1286.38,118.03 1316.01,127.56 1320.00,153.00              1320.00,153.00 1097.00,153.00 1097.00,153.00              1097.00,153.00 1097.00,277.00 1097.00,277.00              1097.00,277.00 1320.00,277.00 1320.00,277.00 Z            M 377.00,119.00            C 377.00,119.00 596.00,119.00 596.00,119.00              627.68,119.05 658.94,134.45 659.00,170.00              659.03,189.04 661.71,210.12 646.91,224.91              637.13,234.67 616.59,239.94 603.00,240.00              603.00,240.00 438.00,240.00 438.00,240.00              438.00,240.00 438.00,316.00 438.00,316.00              438.00,316.00 377.00,316.00 377.00,316.00              377.00,316.00 377.00,119.00 377.00,119.00 Z            M 1407.00,119.00            C 1407.00,119.00 1676.00,119.00 1676.00,119.00              1676.00,119.00 1676.00,154.00 1676.00,154.00              1676.00,154.00 1407.00,154.00 1407.00,154.00              1407.00,154.00 1407.00,119.00 1407.00,119.00 Z            M 1747.00,119.00            C 1747.00,119.00 1834.00,119.00 1834.00,119.00              1845.66,119.02 1848.76,123.71 1858.00,130.29              1858.00,130.29 1890.00,153.29 1890.00,153.29              1895.60,157.28 1904.78,163.01 1909.00,168.00              1909.00,168.00 1896.00,176.06 1896.00,176.06              1896.00,176.06 1871.00,191.69 1871.00,191.69              1867.40,194.01 1860.27,200.10 1856.00,199.03              1853.36,198.37 1847.40,193.67 1845.00,191.87              1845.00,191.87 1825.00,177.15 1825.00,177.15              1825.00,177.15 1772.00,138.37 1772.00,138.37              1765.71,133.72 1751.46,124.27 1747.00,119.00 Z            M 438.00,203.00            C 438.00,203.00 582.00,203.00 582.00,203.00              588.59,202.99 596.77,202.53 601.78,197.66              605.75,193.80 605.68,190.04 606.08,185.00              606.72,177.05 609.00,165.62 602.77,159.21              597.61,153.90 588.99,153.01 582.00,153.00              582.00,153.00 438.00,153.00 438.00,153.00              438.00,153.00 438.00,203.00 438.00,203.00 Z            M 1400.00,316.00            C 1400.00,316.00 1400.00,215.00 1400.00,215.00              1400.00,215.00 1400.00,192.00 1400.00,192.00              1400.00,192.00 1401.02,185.60 1401.02,185.60              1401.02,185.60 1409.00,184.00 1409.00,184.00              1409.00,184.00 1581.00,184.00 1581.00,184.00              1581.00,184.00 1581.00,219.00 1581.00,219.00              1581.00,219.00 1462.00,219.00 1462.00,219.00              1462.00,219.00 1462.00,278.00 1462.00,278.00              1462.00,278.00 1667.00,278.00 1667.00,278.00              1667.00,278.00 1667.00,316.00 1667.00,316.00              1667.00,316.00 1400.00,316.00 1400.00,316.00 Z            M 2107.00,315.00            C 2107.00,315.00 2019.00,315.00 2019.00,315.00              2007.49,314.98 2006.12,311.51 1997.00,305.00              1997.00,305.00 1965.00,281.63 1965.00,281.63              1965.00,281.63 1938.00,261.87 1938.00,261.87              1935.95,260.34 1930.20,256.70 1930.20,254.00              1930.20,251.13 1937.72,246.34 1940.00,244.63              1940.00,244.63 1966.00,225.58 1966.00,225.58              1969.22,223.28 1973.78,218.96 1978.00,220.22              1980.67,221.01 1989.25,227.82 1992.00,229.87              1992.00,229.87 2019.00,249.63 2019.00,249.63              2019.00,249.63 2072.00,288.58 2072.00,288.58              2072.00,288.58 2107.00,315.00 2107.00,315.00 Z"/>
</svg>