<svg xmlns="http://www.w3.org/2000/svg" viewBox="16.68 4.68 699.82 699.82">
  <path id="Selection" fill="#303030" stroke="none" stroke-width="1" d="M 344.00,5.21            C 344.00,5.21 362.00,5.21 362.00,5.21              385.42,5.00 401.72,5.68 425.00,9.59              538.03,28.56 634.18,101.19 683.22,205.00              701.59,243.89 712.15,286.18 715.09,329.00              715.09,329.00 716.00,341.00 716.00,341.00              716.00,341.00 716.00,367.00 716.00,367.00              716.00,367.00 715.09,379.00 715.09,379.00              713.69,399.34 710.83,419.19 705.87,439.00              678.78,547.42 602.07,636.92 498.00,678.55              468.85,690.21 440.15,697.43 409.00,701.15              409.00,701.15 390.00,703.00 390.00,703.00              390.00,703.00 371.00,704.00 371.00,704.00              371.00,704.00 361.00,704.00 361.00,704.00              361.00,704.00 343.00,703.00 343.00,703.00              343.00,703.00 333.00,702.08 333.00,702.08              306.02,699.93 279.64,693.88 254.00,685.33              222.09,674.70 191.38,659.14 164.00,639.57              118.58,607.11 83.83,567.03 57.31,518.00              11.26,432.86 4.84,324.59 38.05,234.00              74.73,133.97 151.95,59.30 252.00,23.69              270.46,17.12 296.55,10.90 316.00,8.28              316.00,8.28 344.00,5.21 344.00,5.21 Z            M 305.00,190.28            C 298.02,191.29 291.04,190.99 284.00,191.00              284.00,191.00 264.00,192.09 264.00,192.09              232.83,194.22 176.85,202.38 148.00,212.70              122.31,221.88 117.86,256.87 142.00,270.77              155.38,278.31 164.47,274.44 178.00,270.77              178.00,270.77 208.00,264.00 208.00,264.00              231.19,259.44 254.51,257.52 278.00,255.91              278.00,255.91 290.00,255.00 290.00,255.00              290.00,255.00 343.00,255.00 343.00,255.00              343.00,255.00 354.00,255.96 354.00,255.96              375.48,256.90 396.73,259.27 418.00,262.58              443.65,266.56 479.80,274.29 504.00,283.05              522.83,289.88 541.17,297.06 559.00,306.26              568.87,311.35 579.28,319.70 591.00,318.82              608.22,317.51 623.00,302.76 621.91,285.00              620.88,268.27 610.34,261.02 597.00,253.70              582.39,245.67 567.48,238.60 552.00,232.40              498.52,210.99 442.19,199.37 385.00,193.83              385.00,193.83 336.00,191.00 336.00,191.00              336.00,191.00 305.00,190.28 305.00,190.28 Z            M 277.00,311.14            C 277.00,311.14 245.00,314.28 245.00,314.28              245.00,314.28 197.00,322.79 197.00,322.79              188.94,324.53 169.56,329.11 163.00,332.88              140.71,345.69 148.13,380.50 175.00,382.48              179.94,382.85 186.22,380.75 191.00,379.42              191.00,379.42 214.00,373.65 214.00,373.65              231.77,369.58 263.92,365.21 282.00,365.00              282.00,365.00 295.00,364.00 295.00,364.00              295.00,364.00 320.00,364.00 320.00,364.00              320.00,364.00 334.00,365.00 334.00,365.00              355.34,365.11 390.80,370.77 412.00,375.42              443.38,382.32 476.24,392.87 505.00,407.25              505.00,407.25 524.00,417.30 524.00,417.30              534.02,422.82 540.72,428.40 553.00,425.07              572.13,419.89 578.87,397.35 566.47,382.04              562.51,377.14 555.47,373.71 550.00,370.58              537.96,363.69 525.75,357.47 513.00,352.00              465.53,331.66 418.35,319.33 367.00,313.84              367.00,313.84 344.00,311.91 344.00,311.91              344.00,311.91 334.00,311.14 334.00,311.14              334.00,311.14 277.00,311.14 277.00,311.14 Z            M 302.00,424.19            C 297.66,424.91 297.44,424.98 293.00,425.00              268.69,425.11 232.04,429.79 208.00,434.60              201.34,435.93 180.94,439.52 176.00,442.00              156.49,451.80 162.27,482.96 187.00,481.96              191.42,481.78 200.26,479.46 205.00,478.42              205.00,478.42 234.00,473.27 234.00,473.27              234.00,473.27 277.00,468.00 277.00,468.00              277.00,468.00 286.00,468.00 286.00,468.00              286.00,468.00 298.00,467.00 298.00,467.00              298.00,467.00 327.00,467.00 327.00,467.00              327.00,467.00 339.00,467.91 339.00,467.91              376.85,470.50 413.61,477.29 449.00,491.45              449.00,491.45 483.00,507.31 483.00,507.31              483.00,507.31 500.00,516.79 500.00,516.79              514.80,522.77 529.66,512.01 528.96,496.00              528.49,485.27 522.43,481.07 514.00,476.00              514.00,476.00 480.00,458.31 480.00,458.31              438.81,439.40 379.36,425.07 334.00,425.00              334.00,425.00 322.00,424.19 322.00,424.19              322.00,424.19 302.00,424.19 302.00,424.19 Z"/>
</svg>