<svg xmlns="http://www.w3.org/2000/svg" viewBox="820.23 164.6 1440.63 424.98">
  <path id="spotify-text" fill="#303030" stroke="none" stroke-width="1"
    d="M 1829.00,165.27            C 1831.33,165.14 1832.60,164.96 1835.00,165.27              1841.06,165.44 1848.79,167.33 1854.00,170.48              1878.80,185.45 1879.27,220.63 1856.00,237.21              1850.49,241.14 1844.59,242.63 1838.00,243.33              1833.32,244.24 1831.56,243.85 1827.00,243.33              1811.42,240.45 1798.00,229.04 1795.16,213.00              1795.16,213.00 1795.16,201.00 1795.16,201.00              1795.08,194.91 1796.44,190.38 1799.32,185.00              1805.83,172.88 1816.05,167.83 1829.00,165.27 Z            M 1919.00,272.00            C 1919.00,272.00 1919.00,255.00 1919.00,255.00              1919.04,231.93 1927.49,206.14 1947.00,192.44              1952.05,188.89 1958.16,186.08 1964.00,184.08              1979.83,178.65 2007.58,178.79 2024.00,182.00              2028.49,182.88 2040.40,184.42 2042.83,188.28              2044.22,190.50 2044.00,194.42 2044.00,197.00              2044.00,197.00 2044.00,230.00 2044.00,230.00              2043.99,232.88 2044.44,237.18 2041.69,238.97              2038.79,240.86 2033.08,238.88 2030.00,238.00              2020.33,235.24 2017.93,234.98 2008.00,235.00              2004.19,235.01 2001.73,234.89 1998.00,236.05              1980.88,241.38 1981.00,258.39 1981.00,273.00              1981.00,273.00 2067.00,273.00 2067.00,273.00              2067.00,273.00 2075.58,274.60 2075.58,274.60              2075.58,274.60 2080.60,285.00 2080.60,285.00              2080.60,285.00 2090.95,312.00 2090.95,312.00              2090.95,312.00 2123.19,396.00 2123.19,396.00              2123.19,396.00 2139.00,437.00 2139.00,437.00              2139.00,437.00 2152.34,400.00 2152.34,400.00              2152.34,400.00 2170.00,350.00 2170.00,350.00              2170.00,350.00 2190.31,292.00 2190.31,292.00              2191.84,287.68 2194.52,276.25 2198.22,274.02              2200.26,272.80 2203.66,273.00 2206.00,273.00              2206.00,273.00 2251.00,273.00 2251.00,273.00              2253.18,273.00 2256.85,272.79 2258.69,274.02              2263.65,277.35 2256.16,291.60 2254.40,296.00              2254.40,296.00 2227.32,366.00 2227.32,366.00              2227.32,366.00 2175.42,500.00 2175.42,500.00              2166.39,523.75 2155.00,557.11 2135.00,573.54              2115.34,589.68 2098.86,589.28 2075.00,589.00              2063.81,588.87 2047.19,584.36 2037.00,579.69              2033.82,578.23 2026.76,575.37 2025.70,571.90              2024.98,569.53 2026.51,566.18 2027.43,564.00              2027.43,564.00 2035.69,546.00 2035.69,546.00              2037.38,542.31 2042.54,528.92 2045.39,527.19              2048.88,525.07 2053.70,528.17 2057.00,529.57              2064.20,532.64 2073.11,535.30 2081.00,534.96              2084.62,534.80 2088.85,533.75 2092.00,531.92              2097.38,528.80 2107.31,517.67 2106.71,511.00              2106.45,508.06 2101.97,498.35 2100.60,495.00              2100.60,495.00 2086.01,460.00 2086.01,460.00              2086.01,460.00 2043.99,359.00 2043.99,359.00              2043.99,359.00 2035.20,338.00 2035.20,338.00              2034.01,335.05 2032.64,330.71 2029.79,329.02              2027.72,327.80 2024.37,328.00 2022.00,328.00              2022.00,328.00 1982.00,328.00 1982.00,328.00              1982.00,328.00 1982.00,473.00 1982.00,473.00              1982.00,473.00 1982.00,507.00 1982.00,507.00              1981.99,509.57 1982.22,513.31 1980.26,515.26              1978.18,517.35 1973.76,517.00 1971.00,517.00              1971.00,517.00 1936.00,517.00 1936.00,517.00              1932.64,517.00 1923.87,517.53 1921.31,515.83              1918.53,513.97 1919.01,509.94 1919.00,507.00              1919.00,507.00 1919.00,328.00 1919.00,328.00              1919.00,328.00 1898.00,328.00 1898.00,328.00              1895.63,327.96 1892.42,328.04 1890.60,326.26              1888.66,324.36 1889.01,320.53 1889.00,318.00              1889.00,318.00 1889.00,287.00 1889.00,287.00              1889.00,284.14 1888.53,276.60 1890.02,274.43              1892.00,271.56 1896.91,272.01 1900.00,272.00              1900.00,272.00 1919.00,272.00 1919.00,272.00 Z            M 936.00,191.42            C 944.65,190.37 949.83,191.60 958.00,191.96              984.75,193.14 1011.78,200.45 1035.00,214.01              1041.90,218.04 1047.59,221.53 1054.00,226.37              1056.44,228.22 1060.33,230.88 1061.05,234.01              1061.79,237.21 1059.12,240.54 1057.41,243.00              1057.41,243.00 1043.98,262.00 1043.98,262.00              1041.76,265.21 1033.23,277.72 1030.82,279.40              1027.12,281.98 1024.20,279.81 1021.00,277.70              1021.00,277.70 999.00,264.00 999.00,264.00              978.77,252.53 948.96,245.21 926.00,250.90              909.47,254.99 896.60,266.06 897.01,284.00              897.59,309.14 932.06,317.86 952.00,322.87              983.43,330.77 1028.25,341.34 1050.71,366.04              1077.26,395.23 1077.15,444.93 1055.64,477.00              1044.69,493.34 1028.37,505.21 1010.00,511.95              985.94,520.77 969.10,521.29 944.00,521.00              944.00,521.00 935.00,520.17 935.00,520.17              904.60,517.13 878.28,508.80 852.00,493.00              844.04,488.22 830.55,479.03 824.11,472.71              817.50,466.24 821.81,462.75 826.59,457.00              826.59,457.00 845.92,434.00 845.92,434.00              848.35,431.08 853.25,424.13 857.04,423.56              860.71,423.01 864.38,426.60 867.00,428.75              873.75,434.28 880.58,439.33 888.00,443.94              907.96,456.32 930.55,463.05 954.00,463.96              958.53,464.14 959.86,463.61 964.00,463.16              976.31,461.85 986.14,459.74 995.99,451.53              1008.62,441.00 1011.24,421.46 999.82,409.04              988.55,396.79 962.96,390.62 947.00,386.63              918.64,379.54 886.76,371.99 863.00,354.24              837.57,335.25 832.66,310.70 833.00,281.00              833.11,271.83 836.01,259.50 839.45,251.00              844.93,237.48 853.95,225.76 865.00,216.30              878.35,204.87 899.70,196.34 917.00,193.43              917.00,193.43 936.00,191.42 936.00,191.42 Z            M 1652.00,272.00            C 1652.00,272.00 1652.00,217.00 1652.00,217.00              1652.06,208.26 1653.76,208.02 1662.00,208.00              1662.00,208.00 1707.00,208.00 1707.00,208.00              1715.50,208.16 1714.99,211.70 1715.00,219.00              1715.00,219.00 1715.00,272.00 1715.00,272.00              1715.00,272.00 1769.00,272.00 1769.00,272.00              1778.13,272.13 1777.99,274.82 1778.00,283.00              1778.00,283.00 1778.00,314.00 1778.00,314.00              1778.00,317.11 1778.66,324.05 1776.40,326.26              1774.29,328.32 1769.77,328.00 1767.00,328.00              1767.00,328.00 1715.00,328.00 1715.00,328.00              1715.00,328.00 1715.00,438.00 1715.00,438.00              1715.01,442.28 1715.00,445.91 1716.56,450.00              1722.33,465.12 1739.82,465.11 1753.00,462.11              1767.26,458.87 1776.80,449.35 1777.00,464.00              1777.00,464.00 1777.00,499.00 1777.00,499.00              1777.00,501.35 1777.22,504.63 1775.98,506.67              1774.42,509.24 1770.65,510.84 1768.00,512.00              1760.49,515.28 1755.12,517.22 1747.00,518.74              1719.32,523.90 1681.68,521.36 1664.22,496.00              1650.44,475.99 1652.00,453.91 1652.00,431.00              1652.00,431.00 1652.00,328.00 1652.00,328.00              1652.00,328.00 1631.00,328.00 1631.00,328.00              1628.63,327.96 1625.42,328.04 1623.60,326.26              1621.66,324.36 1622.01,320.53 1622.00,318.00              1622.00,318.00 1622.00,287.00 1622.00,287.00              1622.00,284.14 1621.53,276.60 1623.02,274.43              1625.00,271.56 1629.91,272.01 1633.00,272.00              1633.00,272.00 1652.00,272.00 1652.00,272.00 Z            M 1154.00,302.00            C 1164.16,290.31 1176.52,280.32 1191.00,274.45              1208.26,267.46 1219.98,267.79 1238.00,268.00              1267.02,268.34 1298.42,286.82 1316.19,309.00              1344.68,344.55 1350.06,402.70 1335.31,445.00              1325.58,472.86 1305.05,498.18 1278.00,510.69              1263.55,517.37 1253.68,519.60 1238.00,521.17              1233.67,521.60 1232.87,522.08 1228.00,521.98              1228.00,521.98 1219.00,521.09 1219.00,521.09              1190.79,519.03 1173.70,508.70 1154.00,489.00              1154.00,489.00 1154.00,564.00 1154.00,564.00              1154.00,568.68 1155.30,584.41 1151.57,586.98              1149.76,588.22 1146.16,588.00 1144.00,588.00              1144.00,588.00 1099.00,588.00 1099.00,588.00              1090.85,587.85 1091.01,585.22 1091.00,578.00              1091.00,578.00 1091.00,343.00 1091.00,343.00              1091.00,343.00 1091.00,282.00 1091.00,282.00              1091.02,272.25 1092.48,272.02 1102.00,272.00              1102.00,272.00 1143.00,272.00 1143.00,272.00              1145.79,272.02 1149.32,271.82 1151.57,273.74              1154.41,276.15 1153.99,280.63 1154.00,284.00              1154.00,284.00 1154.00,302.00 1154.00,302.00 Z            M 1472.00,268.21            C 1472.00,268.21 1500.00,268.21 1500.00,268.21              1507.08,268.09 1516.10,269.91 1523.00,271.63              1564.47,281.95 1597.93,311.34 1611.92,352.00              1616.57,365.51 1619.16,382.73 1619.00,397.00              1618.88,407.05 1616.35,422.30 1613.57,432.00              1608.72,448.93 1600.20,463.39 1589.20,477.00              1578.16,490.65 1563.62,500.99 1548.00,508.75              1525.80,519.78 1505.38,522.28 1481.00,522.00              1470.11,521.87 1455.36,518.78 1445.00,515.33              1426.44,509.15 1408.90,498.87 1395.01,484.99              1356.67,446.65 1348.20,385.14 1372.27,337.00              1387.35,306.84 1414.99,284.01 1447.00,273.75              1455.14,271.14 1463.57,269.70 1472.00,268.21 Z            M 1805.23,272.74            C 1810.26,271.41 1818.54,272.00 1824.00,272.00              1824.00,272.00 1856.00,272.00 1856.00,272.00              1865.13,272.13 1864.99,274.82 1865.00,283.00              1865.00,283.00 1865.00,451.00 1865.00,451.00              1865.00,451.00 1865.00,508.00 1865.00,508.00              1864.87,517.13 1862.18,516.99 1854.00,517.00              1854.00,517.00 1811.00,517.00 1811.00,517.00              1804.16,516.90 1802.14,516.18 1802.00,509.00              1802.00,509.00 1802.00,465.00 1802.00,465.00              1802.00,465.00 1802.00,321.00 1802.00,321.00              1802.00,321.00 1802.00,282.00 1802.00,282.00              1802.02,277.65 1801.48,275.44 1805.23,272.74 Z            M 1212.00,323.16            C 1193.42,326.01 1178.49,332.33 1166.92,348.00              1140.21,384.21 1150.34,448.47 1197.00,462.80              1202.02,464.34 1209.78,465.87 1215.00,465.99              1222.14,466.15 1231.27,464.70 1238.00,462.30              1299.42,440.37 1292.24,325.92 1218.00,323.16              1218.00,323.16 1212.00,323.16 1212.00,323.16 Z            M 1479.00,324.29            C 1457.07,327.92 1440.01,338.72 1429.81,359.00              1412.49,393.42 1423.24,441.36 1459.00,459.24              1466.81,463.14 1476.24,465.89 1485.00,466.00              1498.57,466.15 1506.39,465.67 1519.00,459.68              1558.57,440.88 1566.97,383.36 1541.50,350.00              1525.98,329.68 1503.90,321.93 1479.00,324.29 Z" />
</svg>