<svg xmlns="http://www.w3.org/2000/svg" viewBox="66.5 66.43 2425.5 1078.07">
  <path id="Selection" fill="#303030" stroke="none" stroke-width="1" d="M 587.00,1013.00            C 587.00,1013.00 297.00,1013.00 297.00,1013.00              297.00,1013.00 151.00,1013.00 151.00,1013.00              118.21,1012.61 89.51,996.94 74.76,967.00              70.01,957.37 67.02,946.76 67.00,936.00              67.00,936.00 67.00,303.00 67.00,303.00              67.00,303.00 67.00,191.00 67.00,191.00              67.06,149.93 104.19,114.06 145.00,114.00              145.00,114.00 806.00,114.00 806.00,114.00              808.16,114.00 810.97,114.11 813.00,113.42              816.15,112.33 820.35,108.44 823.00,106.25              823.00,106.25 839.00,94.02 839.00,94.02              856.85,81.70 883.85,67.26 906.00,67.00              917.94,66.86 927.39,66.54 939.00,70.36              953.16,75.02 965.51,83.56 976.00,94.00              1004.03,121.91 1014.44,154.46 1017.09,193.00              1017.09,193.00 1018.00,205.00 1018.00,205.00              1018.00,205.00 1018.00,210.00 1018.00,210.00              1018.00,210.00 1016.96,222.00 1016.96,222.00              1016.96,222.00 1016.96,231.00 1016.96,231.00              1013.57,265.28 1005.20,298.41 994.33,331.00              975.80,386.60 950.38,439.89 921.86,491.00              921.86,491.00 888.20,549.00 888.20,549.00              885.45,553.58 873.23,574.01 870.48,576.49              867.62,579.09 858.10,581.55 854.00,583.05              854.00,583.05 822.00,596.00 822.00,596.00              791.62,609.01 757.66,626.49 729.00,643.00              729.00,643.00 743.00,637.45 743.00,637.45              743.00,637.45 759.00,632.02 759.00,632.02              759.00,632.02 814.00,617.63 814.00,617.63              814.00,617.63 849.00,610.00 849.00,610.00              849.00,610.00 827.02,643.00 827.02,643.00              827.02,643.00 783.37,704.00 783.37,704.00              783.37,704.00 759.21,736.00 759.21,736.00              756.50,739.46 750.86,747.17 747.91,749.73              745.04,752.22 738.69,754.84 735.00,756.78              735.00,756.78 713.00,769.69 713.00,769.69              693.21,782.44 678.19,796.02 662.04,813.00              651.92,823.63 640.03,840.89 633.26,854.00              633.26,854.00 621.00,880.00 621.00,880.00              641.11,773.16 670.52,668.42 709.81,567.00              732.37,508.76 758.84,451.83 786.75,396.00              820.76,327.99 858.75,256.23 903.88,195.00              903.88,195.00 931.00,161.00 931.00,161.00              924.99,165.30 916.55,174.45 911.00,180.00              896.33,194.67 882.73,209.96 869.58,226.00              829.32,275.12 794.24,329.36 763.70,385.00              730.42,445.61 697.86,514.06 674.05,579.00              674.05,579.00 659.98,622.00 659.98,622.00              644.92,670.44 632.28,719.32 622.00,769.00              613.44,810.36 607.03,851.99 602.83,894.00              602.83,894.00 600.00,924.00 600.00,924.00              600.00,924.00 600.00,933.00 600.00,933.00              600.00,933.00 598.96,943.00 598.96,943.00              598.96,943.00 598.96,958.00 598.96,958.00              598.96,958.00 598.00,970.00 598.00,970.00              598.00,970.00 598.00,995.00 598.00,995.00              598.00,995.00 598.96,1005.00 598.96,1005.00              598.96,1005.00 598.96,1017.00 598.96,1017.00              598.96,1017.00 599.91,1027.00 599.91,1027.00              601.33,1047.72 603.31,1068.62 607.66,1089.00              607.66,1089.00 617.00,1127.00 617.00,1127.00              617.00,1127.00 609.00,1130.00 609.00,1130.00              601.31,1110.78 598.21,1094.15 594.58,1074.00              591.23,1055.46 587.86,1031.71 587.00,1013.00 Z            M 939.00,153.00            C 939.00,153.00 938.00,153.00 938.00,153.00              938.00,153.00 939.00,154.00 939.00,154.00              939.00,154.00 939.00,153.00 939.00,153.00 Z            M 938.00,154.00            C 938.00,154.00 937.00,154.00 937.00,154.00              937.00,154.00 938.00,155.00 938.00,155.00              938.00,155.00 938.00,154.00 938.00,154.00 Z            M 937.00,155.00            C 937.00,155.00 936.00,155.00 936.00,155.00              936.00,155.00 937.00,156.00 937.00,156.00              937.00,156.00 937.00,155.00 937.00,155.00 Z            M 936.00,156.00            C 936.00,156.00 935.00,156.00 935.00,156.00              935.00,156.00 936.00,157.00 936.00,157.00              936.00,157.00 936.00,156.00 936.00,156.00 Z            M 935.00,157.00            C 935.00,157.00 934.00,157.00 934.00,157.00              934.00,157.00 935.00,158.00 935.00,158.00              935.00,158.00 935.00,157.00 935.00,157.00 Z            M 934.00,158.00            C 934.00,158.00 933.00,158.00 933.00,158.00              933.00,158.00 934.00,159.00 934.00,159.00              934.00,159.00 934.00,158.00 934.00,158.00 Z            M 933.00,159.00            C 933.00,159.00 932.00,159.00 932.00,159.00              932.00,159.00 933.00,160.00 933.00,160.00              933.00,160.00 933.00,159.00 933.00,159.00 Z            M 932.00,160.00            C 932.00,160.00 931.00,160.00 931.00,160.00              931.00,160.00 932.00,161.00 932.00,161.00              932.00,161.00 932.00,160.00 932.00,160.00 Z            M 890.00,904.00            C 890.04,918.73 893.77,936.80 900.37,950.00              914.70,978.67 948.47,1001.95 981.00,1002.00              994.93,1002.02 1005.50,1002.11 1019.00,997.30              1047.85,987.04 1066.69,961.93 1065.99,931.00              1065.30,900.64 1044.24,879.63 1022.00,862.00              997.54,842.61 969.67,827.72 944.00,810.02              921.84,794.75 906.84,783.96 893.01,760.00              884.24,744.79 879.03,721.53 879.00,704.00              878.96,675.44 886.11,650.23 906.09,629.00              925.44,608.44 952.41,599.16 980.00,597.96              980.00,597.96 989.00,597.21 989.00,597.21              1003.48,597.96 1017.95,599.56 1032.00,603.42              1032.00,603.42 1066.00,612.74 1066.00,612.74              1074.96,612.92 1074.34,605.24 1077.51,603.02              1079.60,601.55 1086.28,602.00 1089.00,602.00              1089.00,602.00 1089.00,696.00 1089.00,696.00              1089.00,696.00 1076.00,696.00 1076.00,696.00              1073.56,665.92 1057.62,637.18 1030.00,623.37              1015.52,616.13 1000.01,613.82 984.00,614.00              952.80,614.37 920.74,632.61 916.95,666.00              916.61,669.00 915.97,671.97 916.18,675.00              918.48,707.32 936.86,726.74 962.00,744.99              962.00,744.99 1053.00,805.13 1053.00,805.13              1072.03,819.40 1088.40,833.55 1099.68,855.00              1108.92,872.56 1111.22,890.50 1111.00,910.00              1110.53,949.49 1085.26,987.13 1051.00,1005.69              1029.31,1017.44 1006.19,1020.26 982.00,1017.83              965.79,1016.21 949.40,1011.47 934.00,1006.33              928.09,1004.36 911.18,998.19 906.00,998.13              896.05,998.02 892.45,1009.99 889.51,1011.98              887.29,1013.48 879.90,1013.00 877.00,1013.00              877.00,1013.00 877.00,904.00 877.00,904.00              877.00,904.00 890.00,904.00 890.00,904.00 Z            M 1608.00,1131.00            C 1597.61,1134.60 1587.86,1138.37 1577.00,1140.55              1566.87,1142.59 1549.39,1144.02 1539.00,1144.00              1539.00,1144.00 1527.00,1142.96 1527.00,1142.96              1527.00,1142.96 1519.00,1142.96 1519.00,1142.96              1486.80,1139.75 1454.40,1127.76 1429.00,1107.55              1411.68,1093.77 1396.74,1077.57 1382.15,1061.00              1382.15,1061.00 1354.00,1030.28 1354.00,1030.28              1348.27,1025.23 1340.79,1017.98 1334.00,1014.67              1334.00,1014.67 1313.00,1008.66 1313.00,1008.66              1300.39,1004.62 1289.73,999.79 1278.00,993.74              1245.28,976.86 1212.45,943.63 1193.86,912.00              1138.31,817.49 1167.83,691.71 1260.00,631.69              1291.86,610.95 1329.90,598.44 1368.00,598.00              1368.00,598.00 1377.00,597.18 1377.00,597.18              1377.00,597.18 1396.00,598.00 1396.00,598.00              1420.22,598.29 1453.25,607.23 1475.00,617.74              1515.22,637.17 1550.25,668.45 1571.69,708.00              1584.70,732.00 1592.25,758.88 1594.96,786.00              1594.96,786.00 1594.96,796.00 1594.96,796.00              1594.96,796.00 1596.00,810.00 1596.00,810.00              1596.00,810.00 1595.09,820.00 1595.09,820.00              1594.23,832.58 1593.04,844.66 1590.12,857.00              1578.33,906.65 1545.39,953.41 1503.00,981.67              1483.22,994.85 1448.81,1011.05 1425.00,1013.00              1425.00,1013.00 1454.25,1047.00 1454.25,1047.00              1464.04,1058.84 1474.14,1070.14 1485.00,1081.00              1505.02,1101.02 1525.21,1118.31 1554.00,1123.54              1565.92,1125.70 1578.19,1124.98 1590.00,1122.34              1590.00,1122.34 1604.00,1119.00 1604.00,1119.00              1604.00,1119.00 1608.00,1131.00 1608.00,1131.00 Z            M 1622.00,597.00            C 1622.00,597.00 1759.00,597.00 1759.00,597.00              1759.00,597.00 1760.00,611.00 1760.00,611.00              1751.17,612.17 1742.47,613.23 1735.00,618.63              1725.12,625.80 1722.14,640.41 1722.00,652.00              1722.00,652.00 1722.00,668.00 1722.00,668.00              1722.00,668.00 1721.00,684.00 1721.00,684.00              1721.00,684.00 1721.00,942.00 1721.00,942.00              1720.92,952.86 1720.01,960.60 1724.47,971.00              1731.75,988.01 1750.90,993.97 1768.00,994.00              1789.37,994.03 1810.81,994.91 1832.00,992.00              1853.41,989.07 1869.40,983.66 1879.73,963.00              1882.31,957.83 1883.86,952.64 1885.00,947.00              1885.00,947.00 1898.00,947.00 1898.00,947.00              1898.00,947.00 1893.28,993.00 1893.28,993.00              1893.28,993.00 1891.26,1009.71 1891.26,1009.71              1889.80,1012.58 1885.73,1012.00 1883.00,1012.00              1883.00,1012.00 1629.00,1012.00 1629.00,1012.00              1629.00,1012.00 1630.00,998.00 1630.00,998.00              1639.96,996.19 1651.33,994.32 1658.82,986.82              1664.69,980.93 1666.03,972.87 1667.13,965.00              1667.13,965.00 1668.00,913.00 1668.00,913.00              1668.00,913.00 1668.00,833.00 1668.00,833.00              1668.00,833.00 1669.00,818.00 1669.00,818.00              1669.00,818.00 1669.00,666.00 1669.00,666.00              1669.00,666.00 1668.00,650.00 1668.00,650.00              1667.95,639.46 1667.37,628.92 1658.91,621.33              1653.30,616.29 1644.41,613.13 1637.00,612.16              1634.18,611.79 1624.58,611.37 1623.02,609.40              1621.52,607.51 1622.00,599.66 1622.00,597.00 Z            M 1370.00,614.14            C 1348.52,617.37 1337.25,618.39 1317.00,628.26              1305.63,633.80 1295.20,641.26 1286.01,649.92              1255.09,679.07 1239.52,715.71 1232.59,757.00              1230.98,766.55 1229.01,781.49 1229.00,791.00              1229.00,791.00 1229.00,825.00 1229.00,825.00              1229.01,834.51 1230.98,849.45 1232.59,859.00              1242.76,919.63 1278.60,981.95 1342.00,997.87              1350.22,999.94 1359.51,1001.90 1368.00,1002.00              1391.71,1002.27 1405.95,1002.33 1429.00,994.65              1438.88,991.35 1453.57,983.91 1462.00,977.85              1504.98,946.94 1525.68,897.28 1531.16,846.00              1531.16,846.00 1533.00,823.00 1533.00,823.00              1533.00,823.00 1533.00,798.00 1533.00,798.00              1533.00,798.00 1532.09,786.00 1532.09,786.00              1527.88,724.77 1506.85,663.69 1451.00,631.01              1441.72,625.58 1430.44,620.98 1420.00,618.37              1410.75,616.06 1397.49,614.01 1388.00,614.14              1388.00,614.14 1370.00,614.14 1370.00,614.14 Z            M 727.00,644.00            C 727.00,644.00 726.00,644.00 726.00,644.00              726.00,644.00 727.00,645.00 727.00,645.00              727.00,645.00 727.00,644.00 727.00,644.00 Z            M 725.00,645.00            C 725.00,645.00 724.00,645.00 724.00,645.00              724.00,645.00 725.00,646.00 725.00,646.00              725.00,646.00 725.00,645.00 725.00,645.00 Z            M 723.00,646.00            C 723.00,646.00 722.00,646.00 722.00,646.00              722.00,646.00 723.00,647.00 723.00,647.00              723.00,647.00 723.00,646.00 723.00,646.00 Z            M 1978.00,674.53            C 1991.46,672.31 2003.45,677.22 2009.60,690.00              2016.38,704.10 2009.42,720.72 1992.00,719.96              1981.64,719.51 1971.72,712.25 1967.33,703.00              1961.83,691.44 1965.05,678.57 1978.00,674.53 Z            M 2086.00,785.00            C 2108.03,780.99 2123.96,774.82 2137.84,756.00              2143.67,748.11 2147.53,741.17 2150.95,732.00              2151.98,729.26 2154.86,719.38 2156.70,717.99              2158.66,716.51 2166.30,717.00 2169.00,717.00              2169.00,717.00 2169.00,778.00 2169.00,778.00              2169.00,778.00 2233.00,778.00 2233.00,778.00              2233.00,778.00 2233.00,798.00 2233.00,798.00              2233.00,798.00 2169.00,798.00 2169.00,798.00              2169.00,798.00 2169.00,931.00 2169.00,931.00              2169.00,931.00 2168.00,945.00 2168.00,945.00              2167.95,955.42 2168.16,971.87 2175.21,979.98              2190.21,997.22 2217.77,981.31 2232.00,970.63              2232.00,970.63 2241.00,963.41 2241.00,963.41              2241.00,963.41 2252.00,953.33 2252.00,953.33              2256.42,950.19 2263.31,953.89 2264.67,959.00              2265.48,962.08 2261.72,965.89 2259.83,968.00              2256.02,972.25 2244.58,982.61 2240.00,986.39              2221.14,1001.91 2202.42,1012.79 2178.00,1016.27              2165.15,1018.10 2150.19,1016.66 2140.17,1007.53              2130.40,998.64 2128.02,981.60 2128.00,969.00              2128.00,969.00 2127.00,949.00 2127.00,949.00              2127.00,949.00 2127.00,906.00 2127.00,906.00              2127.00,906.00 2128.00,889.00 2128.00,889.00              2128.00,889.00 2128.00,798.00 2128.00,798.00              2128.00,798.00 2086.00,798.00 2086.00,798.00              2086.00,798.00 2086.00,785.00 2086.00,785.00 Z            M 2482.00,934.00            C 2485.71,935.75 2491.04,939.50 2491.48,944.00              2491.72,946.55 2489.06,951.60 2487.89,954.00              2484.23,961.53 2480.23,968.99 2475.66,976.00              2469.96,984.73 2462.51,995.12 2454.00,1001.21              2439.59,1011.53 2409.66,1016.79 2392.00,1017.00              2392.00,1017.00 2386.00,1017.00 2386.00,1017.00              2377.18,1016.96 2366.52,1015.18 2358.00,1012.85              2307.16,998.92 2291.45,946.00 2292.00,899.00              2292.50,856.19 2317.88,805.58 2355.00,783.45              2369.95,774.54 2388.62,769.81 2406.00,770.00              2417.81,770.14 2441.83,773.69 2452.00,779.35              2463.49,785.74 2473.82,801.61 2473.82,815.00              2473.82,819.82 2471.87,825.72 2469.73,830.00              2466.76,835.95 2462.44,841.16 2457.91,846.00              2453.21,851.02 2447.30,855.81 2442.00,860.25              2434.07,866.87 2425.90,873.25 2417.00,878.55              2393.44,892.57 2357.21,902.39 2330.00,906.00              2330.00,906.00 2333.65,925.00 2333.65,925.00              2337.27,940.31 2343.53,954.87 2355.00,965.96              2385.43,995.37 2434.40,983.58 2463.00,957.83              2471.32,950.34 2476.30,943.47 2482.00,934.00 Z            M 1934.00,789.00            C 1934.00,789.00 1990.00,776.58 1990.00,776.58              1990.00,776.58 2016.00,772.00 2016.00,772.00              2016.00,772.00 2026.00,772.00 2026.00,772.00              2026.00,772.00 2026.00,960.00 2026.00,960.00              2026.13,970.73 2027.31,984.80 2037.00,991.30              2043.64,995.76 2061.80,996.00 2070.00,996.00              2070.00,996.00 2071.00,1009.00 2071.00,1009.00              2071.00,1009.00 1947.00,1009.00 1947.00,1009.00              1947.00,1009.00 1947.00,996.00 1947.00,996.00              1955.84,996.00 1973.76,996.40 1979.49,988.95              1984.73,982.14 1983.99,967.35 1984.00,959.00              1984.00,959.00 1985.00,942.00 1985.00,942.00              1985.00,942.00 1985.00,830.00 1985.00,830.00              1984.82,815.04 1978.55,800.10 1961.00,801.09              1961.00,801.09 1934.00,804.00 1934.00,804.00              1934.00,804.00 1934.00,789.00 1934.00,789.00 Z            M 2331.00,892.00            C 2341.25,891.16 2362.12,885.15 2372.00,881.42              2383.27,877.17 2392.22,873.51 2402.00,866.10              2407.73,861.76 2413.01,856.41 2416.37,850.00              2425.72,832.15 2420.65,813.58 2404.00,802.36              2398.80,798.86 2393.32,796.52 2387.00,796.09              2372.35,795.09 2359.42,803.74 2350.90,815.00              2343.20,825.17 2337.23,838.65 2334.13,851.00              2330.75,864.43 2329.19,878.25 2331.00,892.00 Z"/>
</svg>