<svg xmlns="http://www.w3.org/2000/svg" viewBox="66.5 66.43 952 1064.07">
  <path id="Selection" fill="#303030" stroke="none" stroke-width="1" d="M 587.00,1013.00            C 587.00,1013.00 297.00,1013.00 297.00,1013.00              297.00,1013.00 151.00,1013.00 151.00,1013.00              118.21,1012.61 89.51,996.94 74.76,967.00              70.01,957.37 67.02,946.76 67.00,936.00              67.00,936.00 67.00,303.00 67.00,303.00              67.00,303.00 67.00,191.00 67.00,191.00              67.06,149.93 104.19,114.06 145.00,114.00              145.00,114.00 806.00,114.00 806.00,114.00              808.16,114.00 810.97,114.11 813.00,113.42              816.15,112.33 820.35,108.44 823.00,106.25              823.00,106.25 839.00,94.02 839.00,94.02              856.85,81.70 883.85,67.26 906.00,67.00              917.94,66.86 927.39,66.54 939.00,70.36              953.16,75.02 965.51,83.56 976.00,94.00              1004.03,121.91 1014.44,154.46 1017.09,193.00              1017.09,193.00 1018.00,205.00 1018.00,205.00              1018.00,205.00 1018.00,210.00 1018.00,210.00              1018.00,210.00 1016.96,222.00 1016.96,222.00              1016.96,222.00 1016.96,231.00 1016.96,231.00              1013.57,265.28 1005.20,298.41 994.33,331.00              975.80,386.60 950.38,439.89 921.86,491.00              921.86,491.00 888.20,549.00 888.20,549.00              885.45,553.58 873.23,574.01 870.48,576.49              867.62,579.09 858.10,581.55 854.00,583.05              854.00,583.05 822.00,596.00 822.00,596.00              791.62,609.01 757.66,626.49 729.00,643.00              729.00,643.00 743.00,637.45 743.00,637.45              743.00,637.45 759.00,632.02 759.00,632.02              759.00,632.02 814.00,617.63 814.00,617.63              814.00,617.63 849.00,610.00 849.00,610.00              849.00,610.00 827.02,643.00 827.02,643.00              827.02,643.00 783.37,704.00 783.37,704.00              783.37,704.00 759.21,736.00 759.21,736.00              756.50,739.46 750.86,747.17 747.91,749.73              745.04,752.22 738.69,754.84 735.00,756.78              735.00,756.78 713.00,769.69 713.00,769.69              693.21,782.44 678.19,796.02 662.04,813.00              651.92,823.63 640.03,840.89 633.26,854.00              633.26,854.00 621.00,880.00 621.00,880.00              641.11,773.16 670.52,668.42 709.81,567.00              732.37,508.76 758.84,451.83 786.75,396.00              820.76,327.99 858.75,256.23 903.88,195.00              903.88,195.00 931.00,161.00 931.00,161.00              924.99,165.30 916.55,174.45 911.00,180.00              896.33,194.67 882.73,209.96 869.58,226.00              829.32,275.12 794.24,329.36 763.70,385.00              730.42,445.61 697.86,514.06 674.05,579.00              674.05,579.00 659.98,622.00 659.98,622.00              644.92,670.44 632.28,719.32 622.00,769.00              613.44,810.36 607.03,851.99 602.83,894.00              602.83,894.00 600.00,924.00 600.00,924.00              600.00,924.00 600.00,933.00 600.00,933.00              600.00,933.00 598.96,943.00 598.96,943.00              598.96,943.00 598.96,958.00 598.96,958.00              598.96,958.00 598.00,970.00 598.00,970.00              598.00,970.00 598.00,995.00 598.00,995.00              598.00,995.00 598.96,1005.00 598.96,1005.00              598.96,1005.00 598.96,1017.00 598.96,1017.00              598.96,1017.00 599.91,1027.00 599.91,1027.00              601.33,1047.72 603.31,1068.62 607.66,1089.00              607.66,1089.00 617.00,1127.00 617.00,1127.00              617.00,1127.00 609.00,1130.00 609.00,1130.00              601.31,1110.78 598.21,1094.15 594.58,1074.00              591.23,1055.46 587.86,1031.71 587.00,1013.00 Z            M 939.00,153.00            C 939.00,153.00 938.00,153.00 938.00,153.00              938.00,153.00 939.00,154.00 939.00,154.00              939.00,154.00 939.00,153.00 939.00,153.00 Z            M 938.00,154.00            C 938.00,154.00 937.00,154.00 937.00,154.00              937.00,154.00 938.00,155.00 938.00,155.00              938.00,155.00 938.00,154.00 938.00,154.00 Z            M 937.00,155.00            C 937.00,155.00 936.00,155.00 936.00,155.00              936.00,155.00 937.00,156.00 937.00,156.00              937.00,156.00 937.00,155.00 937.00,155.00 Z            M 936.00,156.00            C 936.00,156.00 935.00,156.00 935.00,156.00              935.00,156.00 936.00,157.00 936.00,157.00              936.00,157.00 936.00,156.00 936.00,156.00 Z            M 935.00,157.00            C 935.00,157.00 934.00,157.00 934.00,157.00              934.00,157.00 935.00,158.00 935.00,158.00              935.00,158.00 935.00,157.00 935.00,157.00 Z            M 934.00,158.00            C 934.00,158.00 933.00,158.00 933.00,158.00              933.00,158.00 934.00,159.00 934.00,159.00              934.00,159.00 934.00,158.00 934.00,158.00 Z            M 933.00,159.00            C 933.00,159.00 932.00,159.00 932.00,159.00              932.00,159.00 933.00,160.00 933.00,160.00              933.00,160.00 933.00,159.00 933.00,159.00 Z            M 932.00,160.00            C 932.00,160.00 931.00,160.00 931.00,160.00              931.00,160.00 932.00,161.00 932.00,161.00              932.00,161.00 932.00,160.00 932.00,160.00 Z            M 727.00,644.00            C 727.00,644.00 726.00,644.00 726.00,644.00              726.00,644.00 727.00,645.00 727.00,645.00              727.00,645.00 727.00,644.00 727.00,644.00 Z            M 725.00,645.00            C 725.00,645.00 724.00,645.00 724.00,645.00              724.00,645.00 725.00,646.00 725.00,646.00              725.00,646.00 725.00,645.00 725.00,645.00 Z            M 723.00,646.00            C 723.00,646.00 722.00,646.00 722.00,646.00              722.00,646.00 723.00,647.00 723.00,647.00              723.00,647.00 723.00,646.00 723.00,646.00 Z"/>
</svg>