<svg xmlns="http://www.w3.org/2000/svg" viewBox="123.44 94.76 251.11 202.49">
  <path id="squarespace" fill="#303030" stroke="none" stroke-width="1"
    d="M 219.00,107.00            C 219.00,107.00 180.00,146.00 180.00,146.00              180.00,146.00 155.00,172.00 155.00,172.00              148.04,178.97 142.60,184.59 142.10,195.00              141.30,211.96 159.44,227.32 176.00,222.84              187.06,219.85 194.20,210.80 202.00,203.00              202.00,203.00 242.00,163.00 242.00,163.00              242.00,163.00 262.00,142.00 262.00,142.00              264.27,139.77 267.41,135.93 271.00,137.17              274.39,138.34 282.20,146.05 280.83,150.00              280.02,152.35 274.93,157.07 273.00,159.00              273.00,159.00 254.00,178.00 254.00,178.00              254.00,178.00 219.00,213.00 219.00,213.00              208.58,223.42 198.57,236.22 184.00,240.56              177.87,242.39 173.27,242.03 167.00,242.00              146.93,241.90 129.95,227.16 124.92,208.00              123.67,203.24 123.95,196.99 124.00,192.00              124.22,173.46 134.85,164.15 147.00,152.00              147.00,152.00 182.00,117.00 182.00,117.00              182.00,117.00 197.00,102.00 197.00,102.00              198.74,100.26 202.73,95.90 205.00,95.34              209.26,94.27 216.73,103.82 219.00,107.00 Z            M 301.00,129.00            C 293.64,121.64 285.47,113.24 274.00,114.19              261.71,115.20 255.11,123.89 247.00,132.00              247.00,132.00 203.00,176.00 203.00,176.00              203.00,176.00 184.00,196.00 184.00,196.00              181.73,198.23 178.59,202.07 175.00,200.83              171.61,199.66 163.80,191.95 165.17,188.00              166.01,185.56 171.94,180.06 174.00,178.00              174.00,178.00 193.00,159.00 193.00,159.00              193.00,159.00 228.00,123.00 228.00,123.00              239.32,111.68 248.57,100.16 265.00,96.67              269.25,95.77 274.60,95.95 279.00,96.00              289.54,96.13 299.04,100.72 307.00,107.44              309.58,109.62 314.17,113.12 312.83,117.00              311.67,120.37 304.03,126.83 301.00,129.00 Z            M 279.00,285.00            C 279.00,285.00 318.00,246.00 318.00,246.00              318.00,246.00 343.00,220.00 343.00,220.00              349.97,213.02 355.39,207.42 355.90,197.00              356.72,180.03 338.48,164.70 322.00,169.16              310.94,172.15 303.80,181.20 296.00,189.00              296.00,189.00 256.00,229.00 256.00,229.00              256.00,229.00 236.00,250.00 236.00,250.00              233.73,252.23 230.59,256.07 227.00,254.83              223.61,253.66 215.80,245.95 217.17,242.00              217.98,239.65 223.07,234.93 225.00,233.00              225.00,233.00 244.00,214.00 244.00,214.00              244.00,214.00 279.00,179.00 279.00,179.00              289.42,168.58 299.43,155.78 314.00,151.44              320.13,149.61 324.73,149.97 331.00,150.00              350.21,150.09 366.96,163.76 372.43,182.00              374.29,188.18 374.07,193.65 374.00,200.00              373.78,218.54 363.15,227.85 351.00,240.00              351.00,240.00 316.00,275.00 316.00,275.00              316.00,275.00 301.00,290.00 301.00,290.00              299.26,291.74 295.27,296.10 293.00,296.66              288.74,297.73 281.27,288.18 279.00,285.00 Z            M 197.00,263.00            C 204.36,270.36 212.53,278.76 224.00,277.81              236.29,276.80 242.89,268.11 251.00,260.00              251.00,260.00 295.00,216.00 295.00,216.00              295.00,216.00 314.00,196.00 314.00,196.00              316.27,193.77 319.41,189.93 323.00,191.17              326.39,192.34 334.20,200.05 332.83,204.00              331.99,206.44 326.06,211.94 324.00,214.00              324.00,214.00 305.00,233.00 305.00,233.00              305.00,233.00 270.00,269.00 270.00,269.00              258.68,280.32 249.43,291.84 233.00,295.33              228.75,296.23 223.40,296.05 219.00,296.00              208.46,295.87 198.96,291.28 191.00,284.56              188.42,282.38 183.83,278.88 185.17,275.00              186.33,271.63 193.97,265.17 197.00,263.00 Z" />
</svg>