<svg xmlns="http://www.w3.org/2000/svg" viewBox="123.44 94.76 1411.06 202.49">
  <path id="squarespace-wordmark" fill="#303030" stroke="none" stroke-width="1"
    d="M 219.00,107.00            C 219.00,107.00 180.00,146.00 180.00,146.00              180.00,146.00 155.00,172.00 155.00,172.00              148.04,178.97 142.60,184.59 142.10,195.00              141.30,211.96 159.44,227.32 176.00,222.84              187.06,219.85 194.20,210.80 202.00,203.00              202.00,203.00 242.00,163.00 242.00,163.00              242.00,163.00 262.00,142.00 262.00,142.00              264.27,139.77 267.41,135.93 271.00,137.17              274.39,138.34 282.20,146.05 280.83,150.00              280.02,152.35 274.93,157.07 273.00,159.00              273.00,159.00 254.00,178.00 254.00,178.00              254.00,178.00 219.00,213.00 219.00,213.00              208.58,223.42 198.57,236.22 184.00,240.56              177.87,242.39 173.27,242.03 167.00,242.00              146.93,241.90 129.95,227.16 124.92,208.00              123.67,203.24 123.95,196.99 124.00,192.00              124.22,173.46 134.85,164.15 147.00,152.00              147.00,152.00 182.00,117.00 182.00,117.00              182.00,117.00 197.00,102.00 197.00,102.00              198.74,100.26 202.73,95.90 205.00,95.34              209.26,94.27 216.73,103.82 219.00,107.00 Z            M 301.00,129.00            C 293.64,121.64 285.47,113.24 274.00,114.19              261.71,115.20 255.11,123.89 247.00,132.00              247.00,132.00 203.00,176.00 203.00,176.00              203.00,176.00 184.00,196.00 184.00,196.00              181.73,198.23 178.59,202.07 175.00,200.83              171.61,199.66 163.80,191.95 165.17,188.00              166.01,185.56 171.94,180.06 174.00,178.00              174.00,178.00 193.00,159.00 193.00,159.00              193.00,159.00 228.00,123.00 228.00,123.00              239.32,111.68 248.57,100.16 265.00,96.67              269.25,95.77 274.60,95.95 279.00,96.00              289.54,96.13 299.04,100.72 307.00,107.44              309.58,109.62 314.17,113.12 312.83,117.00              311.67,120.37 304.03,126.83 301.00,129.00 Z            M 447.00,216.00            C 451.72,225.94 456.21,231.85 468.00,232.40              477.30,232.84 489.60,225.68 486.35,215.00              483.86,206.83 473.23,204.64 466.00,202.58              450.22,198.08 433.23,192.59 433.00,173.00              432.92,165.52 433.19,160.28 437.93,154.04              446.93,142.18 459.59,141.85 473.00,142.00              480.04,142.09 487.36,144.13 492.99,148.53              500.19,154.17 502.82,161.28 504.00,170.21              500.20,170.03 490.04,171.68 487.41,170.21              484.54,169.06 484.66,165.42 479.91,161.80              472.53,156.17 459.20,156.48 454.09,165.04              448.71,174.04 457.81,179.63 465.00,182.55              481.52,189.24 505.72,191.06 506.00,214.00              506.09,221.87 506.21,227.23 501.36,234.00              491.91,247.21 478.65,248.17 464.00,248.00              445.98,247.79 430.88,236.89 430.00,218.00              430.00,218.00 447.00,216.00 447.00,216.00 Z            M 1077.00,216.00            C 1081.72,225.94 1086.21,231.85 1098.00,232.40              1107.30,232.84 1119.60,225.68 1116.35,215.00              1113.86,206.83 1103.23,204.64 1096.00,202.58              1080.22,198.08 1063.23,192.59 1063.00,173.00              1062.92,165.52 1063.19,160.28 1067.93,154.04              1076.93,142.18 1089.59,141.85 1103.00,142.00              1110.04,142.09 1117.36,144.13 1122.99,148.53              1130.19,154.17 1132.82,161.28 1134.00,170.21              1130.20,170.03 1120.04,171.68 1117.41,170.21              1114.54,169.06 1114.66,165.42 1109.91,161.80              1102.53,156.17 1089.20,156.48 1084.09,165.04              1078.71,174.04 1087.81,179.63 1095.00,182.55              1111.52,189.24 1135.72,191.06 1136.00,214.00              1136.09,221.87 1136.21,227.23 1131.36,234.00              1121.91,247.21 1108.65,248.17 1094.00,248.00              1075.98,247.79 1060.88,236.89 1060.00,218.00              1060.00,218.00 1077.00,216.00 1077.00,216.00 Z            M 627.00,256.00            C 623.73,256.00 611.56,256.38 609.29,255.43              605.19,253.71 602.74,246.80 598.71,246.47              598.71,246.47 580.00,249.91 580.00,249.91              564.79,250.88 549.14,244.53 539.30,233.00              528.29,220.10 527.82,206.93 528.00,191.00              528.16,177.86 534.81,162.83 545.00,154.47              557.16,144.49 568.17,143.83 583.00,144.00              588.66,144.07 592.72,145.06 598.00,147.06              616.10,153.94 627.77,171.79 628.00,191.00              628.00,191.00 628.00,202.00 628.00,202.00              627.94,215.14 622.43,226.18 614.00,236.00              620.36,240.77 626.72,247.78 627.00,256.00 Z            M 656.00,144.00            C 656.00,144.00 674.00,144.00 674.00,144.00              674.00,144.00 674.00,206.00 674.00,206.00              674.09,213.44 675.63,221.40 681.18,226.79              692.21,237.48 710.45,233.32 715.87,219.00              718.75,211.40 718.00,200.22 718.00,192.00              718.00,192.00 718.00,144.00 718.00,144.00              718.00,144.00 736.00,144.00 736.00,144.00              736.00,144.00 736.00,211.00 736.00,211.00              735.98,220.92 733.34,231.74 725.91,238.82              715.72,248.53 703.94,248.06 691.00,248.00              681.19,247.95 670.86,244.67 664.33,236.98              655.19,226.23 656.00,214.03 656.00,201.00              656.00,201.00 656.00,144.00 656.00,144.00 Z            M 1444.00,219.00            C 1442.76,225.59 1439.61,230.24 1434.96,234.98              1422.88,247.31 1411.08,248.18 1395.00,248.00              1386.07,247.89 1378.56,245.22 1371.00,240.53              1358.46,232.75 1350.18,216.66 1350.00,202.00              1350.00,202.00 1350.00,191.00 1350.00,191.00              1350.22,172.62 1361.05,155.28 1378.00,147.87              1388.23,143.41 1394.24,143.88 1405.00,144.00              1422.17,144.20 1439.91,155.77 1444.00,173.00              1440.27,173.30 1428.46,176.09 1426.21,175.31              1424.10,174.58 1419.50,168.36 1417.00,166.21              1411.08,161.13 1405.58,159.83 1398.00,160.01              1383.15,160.37 1373.66,172.63 1370.16,186.00              1364.41,207.90 1377.30,232.59 1402.00,231.99              1409.18,231.81 1414.83,228.96 1419.91,223.91              1421.65,222.17 1424.53,218.03 1426.32,217.11              1429.15,215.66 1440.44,218.35 1444.00,219.00 Z            M 1466.00,144.00            C 1466.00,144.00 1533.00,144.00 1533.00,144.00              1533.00,144.00 1533.00,161.00 1533.00,161.00              1533.00,161.00 1485.00,161.00 1485.00,161.00              1485.00,161.00 1485.00,186.00 1485.00,186.00              1485.00,186.00 1529.00,186.00 1529.00,186.00              1529.00,186.00 1529.00,202.00 1529.00,202.00              1529.00,202.00 1485.00,202.00 1485.00,202.00              1485.00,202.00 1485.00,230.00 1485.00,230.00              1485.00,230.00 1534.00,230.00 1534.00,230.00              1534.00,230.00 1534.00,246.00 1534.00,246.00              1534.00,246.00 1466.00,246.00 1466.00,246.00              1466.00,246.00 1466.00,144.00 1466.00,144.00 Z            M 754.00,246.00            C 754.03,235.06 758.57,227.14 762.32,217.00              762.32,217.00 780.81,168.00 780.81,168.00              782.20,164.34 787.39,148.70 789.70,146.99              791.38,145.74 794.94,146.00 797.00,146.00              797.00,146.00 811.00,146.00 811.00,146.00              812.78,146.04 814.98,145.97 816.50,147.02              819.15,148.85 824.12,164.13 825.58,168.00              825.58,168.00 843.42,216.00 843.42,216.00              847.17,225.92 851.97,235.28 852.00,246.00              848.13,246.00 836.37,246.98 833.84,244.40              830.44,240.94 826.92,221.65 822.73,219.02              820.76,217.79 817.28,218.00 815.00,218.00              815.00,218.00 789.00,218.00 789.00,218.00              786.94,218.01 784.18,217.87 782.39,219.02              778.10,221.79 774.38,241.12 771.16,244.40              768.65,246.95 757.76,246.00 754.00,246.00 Z            M 874.00,146.00            C 874.00,146.00 907.00,146.00 907.00,146.00              917.97,146.00 926.79,145.39 935.98,152.68              953.13,166.27 948.40,200.86 922.00,205.00              922.00,205.00 940.80,228.00 940.80,228.00              946.26,234.83 949.88,236.96 950.00,246.00              945.43,246.00 934.79,246.94 931.29,244.40              931.29,244.40 910.12,218.00 910.12,218.00              907.95,215.19 903.97,209.60 900.96,208.02              898.49,206.73 894.76,207.00 892.00,207.00              892.00,207.00 892.00,246.00 892.00,246.00              892.00,246.00 874.00,246.00 874.00,246.00              874.00,246.00 874.00,146.00 874.00,146.00 Z            M 972.00,146.00            C 972.00,146.00 1038.00,146.00 1038.00,146.00              1038.00,146.00 1038.00,162.00 1038.00,162.00              1038.00,162.00 990.00,162.00 990.00,162.00              990.00,162.00 990.00,187.00 990.00,187.00              990.00,187.00 1034.00,187.00 1034.00,187.00              1034.00,187.00 1034.00,203.00 1034.00,203.00              1034.00,203.00 990.00,203.00 990.00,203.00              990.00,203.00 990.00,230.00 990.00,230.00              990.00,230.00 1038.00,230.00 1038.00,230.00              1038.00,230.00 1038.00,246.00 1038.00,246.00              1038.00,246.00 972.00,246.00 972.00,246.00              972.00,246.00 972.00,146.00 972.00,146.00 Z            M 1162.00,146.00            C 1162.00,146.00 1197.00,146.00 1197.00,146.00              1207.19,146.00 1216.14,145.56 1225.00,151.80              1235.69,159.32 1236.14,168.18 1236.00,180.00              1235.88,189.35 1232.12,197.07 1223.99,202.07              1211.67,209.65 1193.98,208.00 1180.00,208.00              1180.00,208.00 1180.00,246.00 1180.00,246.00              1180.00,246.00 1162.00,246.00 1162.00,246.00              1162.00,246.00 1162.00,146.00 1162.00,146.00 Z            M 1240.00,246.00            C 1240.03,235.06 1244.57,227.14 1248.32,217.00              1248.32,217.00 1266.81,168.00 1266.81,168.00              1268.20,164.34 1273.39,148.70 1275.70,146.99              1277.12,145.93 1279.31,146.03 1281.00,146.00              1281.00,146.00 1295.00,146.00 1295.00,146.00              1297.17,146.00 1300.68,145.77 1302.50,147.02              1305.15,148.85 1310.12,164.13 1311.58,168.00              1311.58,168.00 1329.42,216.00 1329.42,216.00              1333.17,225.92 1337.97,235.28 1338.00,246.00              1334.13,246.00 1322.37,246.98 1319.84,244.40              1316.44,240.94 1312.92,221.65 1308.73,219.02              1306.76,217.79 1303.28,218.00 1301.00,218.00              1301.00,218.00 1275.00,218.00 1275.00,218.00              1272.94,218.01 1270.18,217.87 1268.39,219.02              1264.10,221.79 1260.38,241.12 1257.16,244.40              1254.65,246.95 1243.76,246.00 1240.00,246.00 Z            M 279.00,285.00            C 279.00,285.00 318.00,246.00 318.00,246.00              318.00,246.00 343.00,220.00 343.00,220.00              349.97,213.02 355.39,207.42 355.90,197.00              356.72,180.03 338.48,164.70 322.00,169.16              310.94,172.15 303.80,181.20 296.00,189.00              296.00,189.00 256.00,229.00 256.00,229.00              256.00,229.00 236.00,250.00 236.00,250.00              233.73,252.23 230.59,256.07 227.00,254.83              223.61,253.66 215.80,245.95 217.17,242.00              217.98,239.65 223.07,234.93 225.00,233.00              225.00,233.00 244.00,214.00 244.00,214.00              244.00,214.00 279.00,179.00 279.00,179.00              289.42,168.58 299.43,155.78 314.00,151.44              320.13,149.61 324.73,149.97 331.00,150.00              350.21,150.09 366.96,163.76 372.43,182.00              374.29,188.18 374.07,193.65 374.00,200.00              373.78,218.54 363.15,227.85 351.00,240.00              351.00,240.00 316.00,275.00 316.00,275.00              316.00,275.00 301.00,290.00 301.00,290.00              299.26,291.74 295.27,296.10 293.00,296.66              288.74,297.73 281.27,288.18 279.00,285.00 Z            M 572.00,160.30            C 532.76,167.97 540.59,238.79 581.00,233.71              615.63,229.36 616.44,179.85 595.00,164.80              587.92,159.83 580.30,159.47 572.00,160.30 Z            M 818.00,202.00            C 816.74,193.82 811.16,180.48 808.33,172.00              807.55,169.65 805.98,162.59 802.91,162.61              799.69,162.63 798.15,169.54 797.33,172.00              797.33,172.00 787.00,202.00 787.00,202.00              787.00,202.00 818.00,202.00 818.00,202.00 Z            M 892.00,191.00            C 900.09,191.00 914.26,192.21 920.98,188.00              929.42,182.71 929.93,169.43 920.98,164.41              914.51,160.78 899.76,162.00 892.00,162.00              892.00,162.00 892.00,191.00 892.00,191.00 Z            M 1180.00,192.00            C 1188.17,192.00 1204.28,193.15 1210.98,188.99              1220.27,183.25 1219.91,168.76 1209.98,163.92              1203.76,160.88 1187.52,162.00 1180.00,162.00              1180.00,162.00 1180.00,192.00 1180.00,192.00 Z            M 1304.00,202.00            C 1302.74,193.82 1297.16,180.48 1294.33,172.00              1293.55,169.65 1291.98,162.59 1288.91,162.61              1285.69,162.63 1284.15,169.54 1283.33,172.00              1283.33,172.00 1273.00,202.00 1273.00,202.00              1273.00,202.00 1304.00,202.00 1304.00,202.00 Z            M 197.00,263.00            C 204.36,270.36 212.53,278.76 224.00,277.81              236.29,276.80 242.89,268.11 251.00,260.00              251.00,260.00 295.00,216.00 295.00,216.00              295.00,216.00 314.00,196.00 314.00,196.00              316.27,193.77 319.41,189.93 323.00,191.17              326.39,192.34 334.20,200.05 332.83,204.00              331.99,206.44 326.06,211.94 324.00,214.00              324.00,214.00 305.00,233.00 305.00,233.00              305.00,233.00 270.00,269.00 270.00,269.00              258.68,280.32 249.43,291.84 233.00,295.33              228.75,296.23 223.40,296.05 219.00,296.00              208.46,295.87 198.96,291.28 191.00,284.56              188.42,282.38 183.83,278.88 185.17,275.00              186.33,271.63 193.97,265.17 197.00,263.00 Z" />
</svg>