<svg xmlns="http://www.w3.org/2000/svg" viewBox="358.92 110.5 1507.58 198.01">
  <path id="stackoverflow-text" fill="#303030" stroke="none" stroke-width="1"
    d="M 789.00,111.00            C 789.00,111.00 810.00,111.00 810.00,111.00              810.00,111.00 810.00,228.00 810.00,228.00              810.00,228.00 828.00,211.00 828.00,211.00              828.00,211.00 853.00,186.96 853.00,186.96              853.00,186.96 870.00,171.60 870.00,171.60              870.00,171.60 877.00,171.00 877.00,171.00              877.00,171.00 895.00,171.00 895.00,171.00              895.00,171.00 877.00,190.00 877.00,190.00              877.00,190.00 847.00,220.00 847.00,220.00              847.00,220.00 871.05,256.00 871.05,256.00              871.05,256.00 891.69,288.00 891.69,288.00              891.69,288.00 902.00,306.00 902.00,306.00              902.00,306.00 885.00,306.00 885.00,306.00              883.12,306.00 879.89,306.12 878.21,305.40              875.03,304.04 868.69,292.45 866.60,289.00              866.60,289.00 833.00,234.00 833.00,234.00              833.00,234.00 811.02,257.00 811.02,257.00              811.02,257.00 810.00,263.00 810.00,263.00              810.00,263.00 810.00,306.00 810.00,306.00              810.00,306.00 789.00,306.00 789.00,306.00              789.00,306.00 789.00,111.00 789.00,111.00 Z            M 1412.00,306.00            C 1412.00,306.00 1412.00,183.00 1412.00,183.00              1412.00,166.02 1409.48,142.67 1421.21,129.00              1434.46,113.57 1453.70,116.00 1472.00,116.00              1472.00,116.00 1472.00,146.00 1472.00,146.00              1468.28,146.00 1457.94,145.60 1455.00,146.74              1445.17,150.54 1447.00,163.58 1447.00,172.00              1447.00,172.00 1472.00,172.00 1472.00,172.00              1472.00,172.00 1472.00,199.00 1472.00,199.00              1472.00,199.00 1447.00,199.00 1447.00,199.00              1447.00,199.00 1447.00,306.00 1447.00,306.00              1447.00,306.00 1412.00,306.00 1412.00,306.00 Z            M 1547.00,306.00            C 1531.58,306.00 1515.36,308.20 1502.01,298.78              1489.27,289.78 1487.02,273.47 1487.00,259.00              1487.00,259.00 1487.00,183.00 1487.00,183.00              1487.00,183.00 1487.00,125.00 1487.00,125.00              1487.02,116.36 1487.36,116.02 1496.00,116.00              1496.00,116.00 1522.00,116.00 1522.00,116.00              1522.00,116.00 1522.00,239.00 1522.00,239.00              1522.00,247.11 1520.25,268.24 1526.23,273.57              1529.51,276.50 1535.77,276.95 1540.00,277.00              1540.00,277.00 1547.00,277.00 1547.00,277.00              1547.00,277.00 1547.00,306.00 1547.00,306.00 Z            M 483.00,130.00            C 483.00,130.00 503.00,130.00 503.00,130.00              503.00,130.00 503.00,174.00 503.00,174.00              503.00,174.00 540.00,174.00 540.00,174.00              537.76,178.75 526.85,190.62 522.00,192.40              519.31,193.39 506.69,193.00 503.00,193.00              503.00,193.00 503.00,262.00 503.00,262.00              503.09,269.04 503.87,278.57 509.21,283.66              515.25,289.41 524.31,288.00 532.00,288.00              532.00,288.00 532.00,306.00 532.00,306.00              517.67,306.00 502.14,307.87 491.52,295.83              480.17,282.96 483.00,262.10 483.00,246.00              483.00,246.00 483.00,130.00 483.00,130.00 Z            M 975.00,168.43            C 997.76,165.62 1020.80,171.93 1033.90,192.00              1044.26,207.88 1043.03,228.87 1043.00,247.00              1042.95,276.63 1028.30,302.14 997.00,306.87              977.63,309.79 956.00,306.08 942.17,290.99              927.01,274.44 926.76,252.16 927.00,231.00              927.26,209.43 933.83,186.42 954.00,175.31              961.69,171.08 966.50,169.82 975.00,168.43 Z            M 1262.00,265.00            C 1262.00,265.00 1276.00,279.00 1276.00,279.00              1277.63,280.67 1280.80,283.51 1280.80,286.00              1280.80,288.54 1277.78,291.05 1276.00,292.54              1271.52,296.28 1265.37,300.27 1260.00,302.57              1238.29,311.86 1204.19,309.51 1186.04,293.56              1168.87,278.48 1166.75,253.26 1167.00,232.00              1167.24,212.13 1175.43,189.65 1192.00,177.79              1212.72,162.95 1248.25,164.64 1267.00,182.09              1279.67,193.89 1285.97,211.93 1286.00,229.00              1286.00,229.00 1286.00,249.00 1286.00,249.00              1286.00,249.00 1201.00,249.00 1201.00,249.00              1201.93,254.10 1202.34,258.35 1204.90,263.00              1213.01,277.72 1231.06,281.52 1246.00,275.52              1251.93,273.14 1256.74,268.52 1262.00,265.00 Z            M 1336.00,181.00            C 1350.84,170.11 1355.48,167.79 1374.00,168.00              1378.74,168.06 1383.56,168.75 1388.00,170.47              1394.11,172.83 1397.85,176.22 1403.00,180.00              1400.03,186.29 1390.24,194.80 1385.00,200.00              1383.11,201.88 1379.72,205.70 1377.00,205.97              1373.90,206.28 1371.42,202.93 1367.00,200.97              1359.20,197.51 1351.26,199.62 1345.04,205.21              1338.78,210.84 1337.10,218.91 1337.00,227.00              1337.00,227.00 1337.00,306.00 1337.00,306.00              1337.00,306.00 1302.00,306.00 1302.00,306.00              1302.00,306.00 1302.00,169.00 1302.00,169.00              1302.00,169.00 1336.00,169.00 1336.00,169.00              1336.00,169.00 1336.00,181.00 1336.00,181.00 Z            M 1601.00,168.44            C 1621.90,165.76 1643.99,170.96 1657.62,188.00              1667.65,200.53 1669.98,219.40 1670.00,235.00              1670.02,248.69 1669.04,265.44 1663.33,278.00              1654.04,298.46 1631.65,308.48 1610.00,307.99              1604.66,307.86 1596.13,306.37 1591.00,304.80              1586.15,303.31 1582.22,301.48 1578.00,298.64              1551.63,280.87 1553.68,252.97 1554.00,225.00              1554.25,203.72 1564.00,182.69 1584.00,173.32              1589.38,170.81 1595.19,169.51 1601.00,168.44 Z            M 1042.00,169.00            C 1042.00,169.00 1079.00,169.00 1079.00,169.00              1079.00,169.00 1089.00,201.00 1089.00,201.00              1089.00,201.00 1106.00,252.00 1106.00,252.00              1106.00,252.00 1126.33,188.00 1126.33,188.00              1126.33,188.00 1133.51,170.02 1133.51,170.02              1133.51,170.02 1141.00,169.00 1141.00,169.00              1141.00,169.00 1169.00,169.00 1169.00,169.00              1169.00,169.00 1154.42,211.00 1154.42,211.00              1154.42,211.00 1133.95,267.00 1133.95,267.00              1133.95,267.00 1120.00,306.00 1120.00,306.00              1120.00,306.00 1100.00,306.00 1100.00,306.00              1100.00,306.00 1092.50,304.98 1092.50,304.98              1092.50,304.98 1088.00,296.00 1088.00,296.00              1088.00,296.00 1080.31,275.00 1080.31,275.00              1080.31,275.00 1052.66,200.00 1052.66,200.00              1052.66,200.00 1042.00,169.00 1042.00,169.00 Z            M 1669.00,169.00            C 1669.00,169.00 1706.00,169.00 1706.00,169.00              1706.00,169.00 1718.13,216.00 1718.13,216.00              1718.13,216.00 1728.00,251.00 1728.00,251.00              1728.00,251.00 1735.33,227.00 1735.33,227.00              1735.33,227.00 1754.00,169.00 1754.00,169.00              1754.00,169.00 1772.00,169.00 1772.00,169.00              1774.14,169.00 1777.71,168.77 1779.49,170.02              1782.10,171.85 1785.78,185.33 1787.00,189.00              1787.00,189.00 1808.00,251.00 1808.00,251.00              1808.00,251.00 1814.12,227.00 1814.12,227.00              1814.12,227.00 1823.88,189.00 1823.88,189.00              1823.88,189.00 1829.00,169.00 1829.00,169.00              1829.00,169.00 1866.00,169.00 1866.00,169.00              1866.00,169.00 1855.02,206.00 1855.02,206.00              1855.02,206.00 1835.28,271.00 1835.28,271.00              1835.28,271.00 1825.00,306.00 1825.00,306.00              1825.00,306.00 1795.00,306.00 1795.00,306.00              1795.00,306.00 1781.67,265.00 1781.67,265.00              1781.67,265.00 1767.00,222.00 1767.00,222.00              1767.00,222.00 1759.67,246.00 1759.67,246.00              1759.67,246.00 1740.00,306.00 1740.00,306.00              1740.00,306.00 1710.00,306.00 1710.00,306.00              1710.00,306.00 1702.42,280.00 1702.42,280.00              1702.42,280.00 1681.66,212.00 1681.66,212.00              1681.66,212.00 1669.00,169.00 1669.00,169.00 Z            M 448.00,198.00            C 435.31,188.29 415.41,184.07 400.00,189.05              389.67,192.39 381.12,202.73 384.65,214.00              388.24,225.47 400.82,227.27 411.00,228.08              427.61,229.41 450.43,229.90 461.61,244.00              474.18,259.86 468.49,288.35 450.00,299.12              431.41,309.96 403.11,310.10 383.00,303.66              377.08,301.76 362.55,295.32 359.74,289.91              357.41,285.40 368.49,274.71 373.00,276.15              373.32,276.26 383.61,283.36 389.00,285.66              400.69,290.66 417.85,291.20 430.00,287.56              444.01,283.37 455.41,266.65 442.79,254.33              435.77,247.47 425.13,247.55 416.00,246.91              397.56,245.62 372.65,243.78 365.75,223.00              363.79,217.11 363.93,213.07 364.00,207.00              364.44,170.30 409.68,165.54 437.00,172.13              445.94,174.29 456.08,177.59 462.00,185.00              462.00,185.00 448.00,198.00 448.00,198.00 Z            M 561.00,203.00            C 558.40,200.40 550.43,193.25 549.82,190.00              549.24,186.90 551.97,184.30 554.04,182.44              560.17,176.93 565.16,174.31 573.00,172.04              578.33,170.49 583.48,170.01 589.00,170.00              603.90,169.98 618.70,169.26 632.00,177.47              644.52,185.19 649.83,198.78 650.00,213.00              650.00,213.00 650.00,306.00 650.00,306.00              650.00,306.00 629.00,306.00 629.00,306.00              629.00,306.00 629.00,295.00 629.00,295.00              614.13,307.76 598.83,309.41 580.00,307.15              569.54,305.90 562.10,304.27 554.04,296.82              542.48,286.14 539.45,263.88 546.38,250.00              549.93,242.89 555.93,237.34 563.00,233.81              573.28,228.67 582.96,229.00 594.00,229.00              594.00,229.00 629.00,229.00 629.00,229.00              629.00,221.24 630.01,209.93 626.81,203.00              620.22,188.71 603.93,186.35 590.00,187.84              584.38,188.43 580.22,188.68 575.00,191.40              568.43,194.82 566.37,198.82 561.00,203.00 Z            M 771.00,288.00            C 759.37,299.62 752.54,304.91 736.00,307.27              714.50,310.34 693.07,303.57 679.53,286.00              669.58,273.08 666.16,252.96 666.74,237.00              667.37,220.02 669.61,203.86 680.52,190.00              689.92,178.04 705.76,170.18 721.00,170.00              721.00,170.00 733.00,170.00 733.00,170.00              747.48,170.17 762.60,178.30 771.00,190.00              768.46,192.54 760.30,201.73 757.09,201.82              754.95,201.87 752.44,199.08 750.91,197.75              747.45,194.73 744.32,192.21 740.00,190.48              720.09,182.48 699.76,193.09 691.31,212.00              684.31,227.69 685.45,258.77 695.44,273.00              710.23,294.06 740.62,295.01 756.00,274.00              761.83,276.76 767.27,282.78 771.00,288.00 Z            M 1252.00,225.00            C 1251.71,218.76 1250.56,212.04 1246.61,207.00              1236.66,194.32 1217.72,193.21 1207.39,206.02              1203.08,211.35 1201.55,218.32 1201.00,225.00              1201.00,225.00 1252.00,225.00 1252.00,225.00 Z            M 982.00,199.49            C 975.24,200.62 970.52,203.00 966.76,209.04              963.50,214.27 962.08,223.84 962.00,230.00              961.82,245.62 959.85,273.18 981.00,275.75              983.26,276.10 987.77,276.06 990.00,275.75              1004.06,273.20 1007.85,259.33 1008.00,247.00              1008.19,230.34 1011.22,204.57 990.00,199.49              986.78,198.94 985.22,199.01 982.00,199.49 Z            M 1608.00,199.20            C 1587.63,203.33 1589.00,222.85 1589.00,239.00              1589.00,247.31 1588.50,252.83 1591.04,261.00              1593.78,269.84 1600.61,275.72 1610.00,275.98              1617.92,276.20 1624.23,274.73 1629.20,267.96              1633.54,262.05 1634.91,250.27 1635.00,243.00              1635.19,226.12 1635.98,200.51 1613.00,199.20              1613.00,199.20 1608.00,199.20 1608.00,199.20 Z            M 629.00,244.00            C 629.00,244.00 594.00,244.00 594.00,244.00              587.13,244.08 576.65,245.59 571.02,249.65              561.51,256.49 559.86,274.40 568.21,282.79              575.29,289.90 587.63,290.11 597.00,290.00              616.78,289.76 628.97,281.91 629.00,261.00              629.00,261.00 629.00,244.00 629.00,244.00 Z" />
</svg>