<svg xmlns="http://www.w3.org/2000/svg" viewBox="-0.5 -0.5 314 373">
  <path id="Selection" fill="#303030" stroke="none" stroke-width="1" d="M 286.00,154.00            C 286.00,154.00 262.12,122.00 262.12,122.00              262.12,122.00 213.63,57.00 213.63,57.00              213.63,57.00 195.13,32.00 195.13,32.00              193.42,29.73 188.29,23.68 188.32,21.04              188.35,18.22 191.98,15.90 194.00,14.37              198.92,10.64 209.90,2.17 215.00,0.00              215.00,0.00 283.88,93.00 283.88,93.00              283.88,93.00 304.01,120.00 304.01,120.00              307.78,125.19 311.44,128.61 313.00,135.00              313.00,135.00 286.00,154.00 286.00,154.00 Z            M 152.00,53.00            C 158.85,55.68 165.30,62.48 171.00,67.25              171.00,67.25 204.00,94.59 204.00,94.59              204.00,94.59 239.00,123.75 239.00,123.75              239.00,123.75 267.00,147.08 267.00,147.08              269.40,149.08 278.11,155.88 279.18,158.09              280.53,160.88 278.70,162.89 277.06,165.00              277.06,165.00 264.41,179.98 264.41,179.98              262.72,181.89 260.87,184.28 258.00,183.83              255.57,183.45 251.00,179.25 249.00,177.59              249.00,177.59 230.00,161.75 230.00,161.75              230.00,161.75 160.00,103.41 160.00,103.41              160.00,103.41 139.00,85.92 139.00,85.92              136.43,83.76 131.89,80.89 133.15,77.00              133.76,75.12 137.66,70.71 139.08,69.00              139.08,69.00 152.00,53.00 152.00,53.00 Z            M 104.00,122.00            C 104.00,122.00 119.00,128.58 119.00,128.58              119.00,128.58 160.00,147.69 160.00,147.69              160.00,147.69 218.00,174.69 218.00,174.69              218.00,174.69 255.00,192.00 255.00,192.00              255.00,192.00 241.00,223.00 241.00,223.00              241.00,223.00 217.00,212.31 217.00,212.31              217.00,212.31 175.00,192.78 175.00,192.78              175.00,192.78 116.00,165.31 116.00,165.31              116.00,165.31 90.00,153.00 90.00,153.00              90.00,153.00 104.00,122.00 104.00,122.00 Z            M 75.00,197.00            C 75.00,197.00 126.00,207.79 126.00,207.79              126.00,207.79 182.00,219.42 182.00,219.42              182.00,219.42 238.00,231.00 238.00,231.00              238.00,231.00 231.00,265.00 231.00,265.00              231.00,265.00 215.00,261.58 215.00,261.58              215.00,261.58 153.00,248.58 153.00,248.58              153.00,248.58 98.00,237.00 98.00,237.00              98.00,237.00 69.00,231.00 69.00,231.00              69.00,231.00 75.00,197.00 75.00,197.00 Z            M 0.00,240.00            C 0.00,240.00 33.00,240.00 33.00,240.00              33.00,240.00 33.00,339.00 33.00,339.00              33.00,339.00 264.00,339.00 264.00,339.00              264.00,339.00 264.00,240.00 264.00,240.00              264.00,240.00 297.00,240.00 297.00,240.00              297.00,240.00 297.00,372.00 297.00,372.00              297.00,372.00 0.00,372.00 0.00,372.00              0.00,372.00 0.00,240.00 0.00,240.00 Z            M 66.00,273.00            C 66.00,273.00 231.00,273.00 231.00,273.00              231.00,273.00 231.00,306.00 231.00,306.00              231.00,306.00 66.00,306.00 66.00,306.00              66.00,306.00 66.00,273.00 66.00,273.00 Z"/>
</svg>