<svg xmlns="http://www.w3.org/2000/svg" viewBox="7.64 6.5 1008.86 1011">
  <path id="Selection" fill="#303030" stroke="none" stroke-width="1" d="M 29.00,659.00            C 29.00,659.00 73.00,676.99 73.00,676.99              73.00,676.99 159.00,712.40 159.00,712.40              159.00,712.40 199.00,728.99 199.00,728.99              202.89,730.59 216.14,735.47 218.57,737.70              221.16,740.06 223.30,750.09 224.69,754.00              228.00,763.29 233.76,774.68 239.05,783.00              258.29,813.22 289.40,834.77 324.00,843.37              330.34,844.95 341.58,846.92 348.00,847.00              361.58,847.16 369.45,847.28 383.00,844.55              429.48,835.20 465.30,804.99 484.69,762.00              489.26,751.86 494.03,734.10 495.00,723.00              495.00,723.00 496.57,704.30 496.57,704.30              497.18,702.88 498.00,702.14 499.13,701.15              499.13,701.15 544.00,669.00 544.00,669.00              544.00,669.00 627.00,609.58 627.00,609.58              627.00,609.58 656.00,588.86 656.00,588.86              659.30,586.49 668.81,579.32 672.00,578.25              675.22,577.16 686.16,577.04 690.00,577.00              705.11,576.82 728.78,570.79 743.00,565.42              803.80,542.47 849.41,490.55 863.42,427.00              865.71,416.63 867.98,401.53 868.00,391.00              868.05,359.01 863.13,333.25 849.69,304.00              840.94,284.96 826.76,265.76 812.00,251.00              773.39,212.38 725.39,193.37 671.00,194.00              660.50,194.13 644.34,196.74 634.00,199.12              571.76,213.46 521.66,257.75 498.20,317.00              492.01,332.63 488.28,349.33 486.28,366.00              486.28,366.00 484.15,390.00 484.15,390.00              483.23,392.36 478.11,399.34 476.33,402.00              476.33,402.00 459.14,427.00 459.14,427.00              459.14,427.00 415.72,490.00 415.72,490.00              415.72,490.00 379.33,543.00 379.33,543.00              379.33,543.00 369.00,558.00 369.00,558.00              367.50,560.24 364.77,564.65 362.54,566.01              360.65,567.16 345.29,567.86 342.00,568.09              335.20,568.57 319.59,572.16 313.00,574.35              306.41,576.55 297.04,580.49 291.00,583.86              287.34,585.90 282.25,589.92 278.00,589.52              274.99,589.23 260.72,582.98 257.00,581.42              257.00,581.42 218.00,565.40 218.00,565.40              218.00,565.40 74.00,506.00 74.00,506.00              74.00,506.00 26.00,486.20 26.00,486.20              22.35,484.73 10.06,480.77 8.57,477.61              7.23,474.75 9.41,459.98 9.84,456.00              9.84,456.00 18.60,402.00 18.60,402.00              34.81,321.57 79.50,236.76 134.17,176.00              211.93,89.56 313.38,33.38 428.00,14.08              448.90,10.56 472.85,8.03 494.00,8.00              494.00,8.00 513.00,7.00 513.00,7.00              513.00,7.00 523.00,7.96 523.00,7.96              523.00,7.96 539.00,7.96 539.00,7.96              539.00,7.96 549.00,8.91 549.00,8.91              585.33,11.41 621.08,17.80 656.00,28.28              804.52,72.84 922.92,180.93 980.55,325.00              993.98,358.57 1003.31,393.37 1009.25,429.00              1009.25,429.00 1015.00,479.00 1015.00,479.00              1015.00,479.00 1016.00,499.00 1016.00,499.00              1016.00,499.00 1016.00,525.00 1016.00,525.00              1016.00,525.00 1015.00,540.00 1015.00,540.00              1014.63,571.81 1006.51,615.12 998.15,646.00              959.96,787.04 857.99,908.62 725.00,969.69              679.81,990.44 634.22,1004.17 585.00,1011.27              585.00,1011.27 548.00,1015.09 548.00,1015.09              548.00,1015.09 536.00,1016.04 536.00,1016.04              536.00,1016.04 523.00,1016.04 523.00,1016.04              523.00,1016.04 509.00,1017.00 509.00,1017.00              509.00,1017.00 498.00,1016.04 498.00,1016.04              498.00,1016.04 484.00,1016.04 484.00,1016.04              484.00,1016.04 474.00,1015.09 474.00,1015.09              447.93,1013.30 422.51,1009.42 397.00,1003.65              303.84,982.56 214.08,932.04 148.04,863.00              129.24,843.35 112.27,822.18 96.58,800.00              76.05,770.99 59.50,739.64 45.58,707.00              41.04,696.37 30.49,669.54 29.00,659.00 Z            M 665.00,258.42            C 679.49,256.66 700.09,258.90 714.00,263.34              732.11,269.13 747.78,277.37 762.00,290.17              812.01,335.18 818.62,410.62 778.10,464.00              768.38,476.81 757.56,486.14 744.00,494.68              728.74,504.29 710.90,510.51 693.00,512.71              616.36,522.15 548.66,462.51 549.00,385.00              549.10,362.96 555.82,338.85 567.20,320.00              575.31,306.58 586.54,293.77 599.00,284.24              620.13,268.07 639.21,262.17 665.00,258.42 Z            M 665.00,290.29            C 624.81,296.42 593.66,323.02 583.90,363.00              573.40,405.98 594.38,451.44 634.00,471.25              644.65,476.57 658.00,480.86 670.00,481.00              689.91,481.23 702.70,480.24 721.00,471.03              778.54,442.08 790.24,363.87 745.58,318.28              723.83,296.09 695.52,287.43 665.00,290.29 Z            M 319.00,606.00            C 328.52,601.83 344.59,599.12 355.00,599.00              375.82,598.77 398.66,605.52 416.00,617.00              432.42,627.88 444.02,641.43 452.75,659.00              480.47,714.78 455.62,784.29 397.00,807.55              357.12,823.38 310.44,814.44 280.00,784.00              272.84,776.84 262.86,764.79 260.00,755.00              266.88,756.24 273.53,759.76 280.00,762.40              301.85,771.30 332.69,787.51 356.00,785.91              390.15,783.58 419.27,759.97 428.57,727.00              431.16,717.84 431.11,711.33 431.00,702.00              430.92,695.12 429.29,687.46 426.95,681.00              423.63,671.87 419.73,664.55 413.54,657.00              395.38,634.85 370.36,628.66 345.00,617.85              338.46,615.06 323.73,610.17 319.00,606.00 Z"/>
</svg>