<svg xmlns="http://www.w3.org/2000/svg" viewBox="215.44 270.46 255.99 366.06">
  <path id="Selection" fill="#303030" stroke="none" stroke-width="1" d="M 220.00,517.00            C 220.00,517.00 254.00,531.80 254.00,531.80              277.26,540.94 302.93,547.99 328.00,548.96              335.88,549.27 350.33,547.12 357.00,542.87              370.16,534.48 370.84,519.87 359.83,509.30              349.66,499.54 328.29,492.55 315.00,487.58              277.41,473.52 232.80,457.94 220.14,415.00              215.74,400.07 215.83,392.24 216.00,377.00              216.09,369.77 217.83,360.04 219.63,353.00              232.24,303.78 274.53,279.46 322.00,272.87              322.00,272.87 341.00,271.00 341.00,271.00              370.71,270.66 397.21,272.36 426.00,280.58              426.00,280.58 443.00,286.00 443.00,286.00              445.13,286.73 448.66,287.77 450.01,289.65              451.25,291.39 451.00,294.90 451.00,297.00              451.00,297.00 451.00,384.00 451.00,384.00              451.00,384.00 423.00,372.34 423.00,372.34              395.63,362.84 375.02,358.66 346.00,359.00              333.47,359.15 316.66,365.64 318.20,381.00              319.04,389.41 328.03,396.52 335.00,400.22              335.00,400.22 393.00,422.05 393.00,422.05              423.16,433.33 451.16,450.87 463.55,482.00              468.52,494.49 470.15,507.69 470.91,521.00              471.20,526.23 468.96,544.56 467.63,550.00              465.66,558.03 463.00,566.67 459.11,574.00              436.84,616.01 391.73,631.96 347.00,635.09              347.00,635.09 337.00,636.00 337.00,636.00              306.96,636.35 274.62,632.45 246.00,623.00              246.00,623.00 228.00,616.60 228.00,616.60              225.80,615.72 222.36,614.61 221.02,612.59              219.78,610.70 220.00,607.22 220.00,605.00              220.00,605.00 220.00,517.00 220.00,517.00 Z"/>
</svg>