<svg xmlns="http://www.w3.org/2000/svg" viewBox="215.44 143.5 1442.06 602">
  <path id="stripe" fill="#303030" stroke="none" stroke-width="1"
    d="M 995.00,144.00            C 995.00,144.00 996.00,170.00 996.00,170.00              996.00,170.00 996.00,227.00 996.00,227.00              996.00,227.00 928.00,241.42 928.00,241.42              928.00,241.42 895.00,248.00 895.00,248.00              895.00,248.00 895.00,174.00 895.00,174.00              895.00,174.00 896.02,166.58 896.02,166.58              896.02,166.58 903.00,164.00 903.00,164.00              903.00,164.00 919.00,160.60 919.00,160.60              919.00,160.60 964.00,151.00 964.00,151.00              964.00,151.00 995.00,144.00 995.00,144.00 Z            M 490.00,211.00            C 490.00,211.00 517.00,205.65 517.00,205.65              517.00,205.65 560.00,196.58 560.00,196.58              560.00,196.58 588.00,191.00 588.00,191.00              588.00,191.00 588.00,278.00 588.00,278.00              588.00,278.00 664.00,278.00 664.00,278.00              664.00,278.00 664.00,364.00 664.00,364.00              664.00,364.00 588.00,364.00 588.00,364.00              588.00,364.00 588.00,479.00 588.00,479.00              588.00,495.00 586.17,518.59 595.79,532.00              611.48,553.90 642.40,547.20 664.00,540.00              664.00,540.00 664.00,615.00 664.00,615.00              664.00,616.80 664.13,620.14 663.40,621.73              661.78,625.29 651.73,628.17 648.00,629.28              635.81,632.91 623.61,634.22 611.00,635.09              611.00,635.09 601.00,636.00 601.00,636.00              582.73,636.21 566.02,634.42 549.00,627.13              509.31,610.13 489.07,571.90 489.00,530.00              489.00,530.00 489.00,449.00 489.00,449.00              489.00,449.00 490.00,434.00 490.00,434.00              490.00,434.00 490.00,211.00 490.00,211.00 Z            M 220.00,517.00            C 220.00,517.00 254.00,531.80 254.00,531.80              277.26,540.94 302.93,547.99 328.00,548.96              335.88,549.27 350.33,547.12 357.00,542.87              370.16,534.48 370.84,519.87 359.83,509.30              349.66,499.54 328.29,492.55 315.00,487.58              277.41,473.52 232.80,457.94 220.14,415.00              215.74,400.07 215.83,392.24 216.00,377.00              216.09,369.77 217.83,360.04 219.63,353.00              232.24,303.78 274.53,279.46 322.00,272.87              322.00,272.87 341.00,271.00 341.00,271.00              370.71,270.66 397.21,272.36 426.00,280.58              426.00,280.58 443.00,286.00 443.00,286.00              445.13,286.73 448.66,287.77 450.01,289.65              451.25,291.39 451.00,294.90 451.00,297.00              451.00,297.00 451.00,384.00 451.00,384.00              451.00,384.00 423.00,372.34 423.00,372.34              395.63,362.84 375.02,358.66 346.00,359.00              333.47,359.15 316.66,365.64 318.20,381.00              319.04,389.41 328.03,396.52 335.00,400.22              335.00,400.22 393.00,422.05 393.00,422.05              423.16,433.33 451.16,450.87 463.55,482.00              468.52,494.49 470.15,507.69 470.91,521.00              471.20,526.23 468.96,544.56 467.63,550.00              465.66,558.03 463.00,566.67 459.11,574.00              436.84,616.01 391.73,631.96 347.00,635.09              347.00,635.09 337.00,636.00 337.00,636.00              306.96,636.35 274.62,632.45 246.00,623.00              246.00,623.00 228.00,616.60 228.00,616.60              225.80,615.72 222.36,614.61 221.02,612.59              219.78,610.70 220.00,607.22 220.00,605.00              220.00,605.00 220.00,517.00 220.00,517.00 Z            M 1127.00,301.00            C 1161.67,267.95 1215.65,262.09 1258.00,283.27              1281.52,295.03 1300.78,314.42 1313.99,337.00              1329.27,363.12 1337.89,393.92 1340.09,424.00              1340.09,424.00 1341.00,436.00 1341.00,436.00              1341.00,436.00 1341.00,470.00 1341.00,470.00              1341.00,470.00 1340.09,480.00 1340.09,480.00              1338.31,504.33 1333.03,530.62 1323.14,553.00              1303.30,597.92 1268.29,630.42 1218.00,635.07              1218.00,635.07 1208.00,636.00 1208.00,636.00              1191.29,636.19 1174.30,633.70 1159.00,626.69              1149.09,622.15 1142.98,617.62 1134.00,612.00              1134.00,612.00 1134.00,724.00 1134.00,724.00              1134.00,724.00 1106.00,729.60 1106.00,729.60              1106.00,729.60 1033.00,745.00 1033.00,745.00              1033.00,745.00 1033.00,278.00 1033.00,278.00              1033.00,278.00 1122.00,278.00 1122.00,278.00              1122.00,278.00 1127.00,301.00 1127.00,301.00 Z            M 1636.00,528.00            C 1636.00,528.00 1636.00,602.00 1636.00,602.00              1636.00,604.27 1636.22,607.66 1634.98,609.61              1632.76,613.10 1617.45,619.05 1613.00,620.80              1590.32,629.71 1567.14,633.44 1543.00,635.09              1543.00,635.09 1533.00,636.00 1533.00,636.00              1505.57,636.32 1477.48,633.47 1452.00,622.57              1398.45,599.68 1369.83,553.18 1361.73,497.00              1361.73,497.00 1359.00,472.00 1359.00,472.00              1359.00,472.00 1359.00,440.00 1359.00,440.00              1359.06,403.62 1374.13,357.07 1395.89,328.00              1410.29,308.77 1429.17,293.31 1451.00,283.31              1487.17,266.74 1535.86,266.63 1572.00,283.31              1585.17,289.39 1600.06,300.42 1609.91,311.00              1641.15,344.53 1653.04,390.50 1656.09,435.00              1656.09,435.00 1657.00,447.00 1657.00,447.00              1657.00,447.00 1656.00,491.00 1656.00,491.00              1656.00,491.00 1460.00,491.00 1460.00,491.00              1462.02,502.10 1462.71,507.80 1468.31,518.00              1480.82,540.78 1504.45,548.93 1529.00,550.04              1529.00,550.04 1538.00,550.92 1538.00,550.92              1538.00,550.92 1553.00,550.00 1553.00,550.00              1572.12,549.77 1598.10,543.33 1616.00,536.58              1616.00,536.58 1636.00,528.00 1636.00,528.00 Z            M 789.00,306.00            C 790.96,299.84 795.36,294.51 800.01,290.09              820.53,270.60 846.38,271.85 872.00,277.00              872.00,277.00 872.00,370.00 872.00,370.00              872.00,370.00 852.00,367.09 852.00,367.09              838.05,366.13 822.71,370.11 811.00,377.70              806.77,380.44 798.31,387.35 796.60,392.00              795.88,393.94 796.00,396.91 796.00,399.00              796.00,399.00 796.00,629.00 796.00,629.00              796.00,629.00 695.00,629.00 695.00,629.00              695.00,629.00 695.00,278.00 695.00,278.00              695.00,278.00 783.00,278.00 783.00,278.00              783.00,278.00 789.00,306.00 789.00,306.00 Z            M 895.00,278.00            C 895.00,278.00 996.00,278.00 996.00,278.00              996.00,278.00 996.00,629.00 996.00,629.00              996.00,629.00 895.00,629.00 895.00,629.00              895.00,629.00 895.00,278.00 895.00,278.00 Z            M 1561.00,416.00            C 1561.00,403.48 1559.38,391.34 1553.63,380.00              1538.96,351.09 1501.80,344.43 1478.01,366.17              1464.38,378.63 1459.05,398.03 1459.00,416.00              1459.00,416.00 1561.00,416.00 1561.00,416.00 Z            M 1178.00,360.30            C 1163.84,362.24 1156.63,362.26 1144.00,370.75              1140.76,372.93 1135.99,376.27 1134.60,380.00              1133.89,381.92 1134.00,384.93 1134.00,387.00              1134.00,387.00 1134.00,520.00 1134.00,520.00              1134.01,522.63 1133.81,525.60 1135.02,528.00              1136.78,531.47 1141.74,535.03 1145.00,537.13              1154.58,543.32 1162.92,544.98 1174.00,546.16              1176.62,546.44 1178.28,546.93 1181.00,546.79              1206.31,545.48 1223.24,528.62 1232.40,506.00              1244.73,475.56 1245.63,433.47 1232.99,403.00              1223.42,379.93 1205.15,358.92 1178.00,360.30 Z" />
</svg>