<svg xmlns="http://www.w3.org/2000/svg" viewBox="34.48 62.5 80.02 103">
  <path id="sublime-text" fill="#303030" stroke="none" stroke-width="1"
    d="M 69.00,127.00            C 69.00,127.00 46.00,119.14 46.00,119.14              43.12,118.31 37.73,117.16 36.02,114.58              34.78,112.71 35.00,109.21 35.00,107.00              35.00,107.00 35.00,97.00 35.00,97.00              35.00,94.57 34.76,90.51 36.17,88.48              37.99,85.88 50.47,82.46 54.00,81.42              54.00,81.42 114.00,63.00 114.00,63.00              114.00,63.00 114.00,85.00 114.00,85.00              113.87,92.48 111.28,92.00 103.00,94.42              103.00,94.42 81.00,102.00 81.00,102.00              81.00,102.00 104.00,108.98 104.00,108.98              104.00,108.98 113.01,112.70 113.01,112.70              113.01,112.70 114.00,133.00 114.00,133.00              114.00,133.00 113.01,140.30 113.01,140.30              113.01,140.30 96.00,146.86 96.00,146.86              96.00,146.86 53.00,160.42 53.00,160.42              53.00,160.42 36.00,165.00 36.00,165.00              36.00,165.00 36.00,137.00 36.00,137.00              36.00,137.00 69.00,127.00 69.00,127.00 Z" />
</svg>