<svg xmlns="http://www.w3.org/2000/svg" viewBox="34.48 55.77 994.36 109.73">
  <path id="sublime-text-wordmark" fill="#303030" stroke="none" stroke-width="1"
    d="M 492.00,56.57            C 495.98,55.94 499.62,56.05 502.57,59.28              506.48,63.54 506.07,73.18 498.00,75.43              485.55,78.89 479.08,61.74 492.00,56.57 Z            M 352.00,66.00            C 352.00,66.00 354.74,57.99 354.74,57.99              354.74,57.99 362.00,57.00 362.00,57.00              362.00,57.00 377.00,57.00 377.00,57.00              377.00,57.00 377.00,95.00 377.00,95.00              384.28,91.91 393.90,87.61 402.00,88.33              420.40,89.95 425.01,105.20 425.91,121.00              426.12,124.77 425.54,126.49 425.16,130.00              423.34,147.03 417.62,160.77 398.00,161.00              387.89,161.11 383.73,159.91 376.00,153.00              376.00,153.00 375.00,160.00 375.00,160.00              375.00,160.00 360.00,160.00 360.00,160.00              363.43,140.89 362.00,110.39 362.00,90.00              362.00,85.73 362.93,72.36 360.40,69.51              358.53,67.39 354.65,66.61 352.00,66.00 Z            M 436.83,57.00            C 436.83,57.00 454.00,57.00 454.00,57.00              454.00,57.00 459.40,58.02 459.40,58.02              459.40,58.02 461.00,64.00 461.00,64.00              461.00,64.00 461.00,119.00 461.00,119.00              461.00,119.00 461.00,143.00 461.00,143.00              461.00,143.00 462.60,149.26 462.60,149.26              462.60,149.26 470.00,151.00 470.00,151.00              470.00,151.00 470.00,160.00 470.00,160.00              470.00,160.00 435.00,160.00 435.00,160.00              435.00,160.00 436.60,152.02 436.60,152.02              436.60,152.02 443.98,148.57 443.98,148.57              443.98,148.57 445.00,141.00 445.00,141.00              445.00,141.00 445.00,78.00 445.00,78.00              445.00,78.00 443.40,69.51 443.40,69.51              443.40,69.51 436.83,64.58 436.83,64.58              436.83,64.58 436.83,57.00 436.83,57.00 Z            M 194.00,132.00            C 196.39,132.00 202.48,131.57 204.27,132.99              206.51,134.77 206.39,140.53 208.30,143.94              211.15,149.05 217.86,148.98 223.00,149.00              228.41,149.02 233.21,149.13 237.96,146.01              245.15,141.28 246.71,131.55 240.78,125.10              229.71,113.07 205.74,118.30 197.93,99.00              196.74,96.05 196.17,93.17 196.04,90.00              195.03,65.15 214.58,59.76 235.00,60.00              239.45,60.06 253.42,61.86 255.98,65.51              257.23,67.29 257.00,70.86 257.00,73.00              257.00,73.00 257.00,89.00 257.00,89.00              254.61,88.89 248.53,88.53 246.74,87.02              244.70,85.31 244.79,80.58 243.85,78.04              241.95,72.87 236.88,72.13 232.00,72.01              221.68,71.76 208.26,76.97 212.70,90.00              215.92,99.44 228.77,101.58 237.00,104.36              252.64,109.62 260.38,116.75 259.99,134.00              259.57,152.06 244.59,160.80 228.00,161.00              228.00,161.00 217.00,161.00 217.00,161.00              212.39,160.94 197.68,159.27 195.02,155.49              193.77,153.71 194.00,150.14 194.00,148.00              194.00,148.00 194.00,132.00 194.00,132.00 Z            M 747.00,61.00            C 747.00,61.00 831.00,61.00 831.00,61.00              831.00,61.00 831.00,86.00 831.00,86.00              828.27,86.00 821.98,86.67 820.17,84.43              818.29,82.10 819.29,76.34 815.70,74.02              813.11,72.35 800.71,73.00 797.00,73.00              797.00,73.00 797.00,150.00 797.00,150.00              797.00,150.00 814.00,151.00 814.00,151.00              814.00,151.00 814.00,160.00 814.00,160.00              814.00,160.00 765.00,160.00 765.00,160.00              765.00,160.00 765.00,151.00 765.00,151.00              765.00,151.00 781.00,150.00 781.00,150.00              781.00,150.00 781.00,73.00 781.00,73.00              777.33,73.00 764.85,72.35 762.31,74.02              758.88,76.27 759.91,82.10 757.99,84.40              756.14,86.63 749.77,86.00 747.00,86.00              747.00,86.00 747.00,61.00 747.00,61.00 Z            M 69.00,127.00            C 69.00,127.00 46.00,119.14 46.00,119.14              43.12,118.31 37.73,117.16 36.02,114.58              34.78,112.71 35.00,109.21 35.00,107.00              35.00,107.00 35.00,97.00 35.00,97.00              35.00,94.57 34.76,90.51 36.17,88.48              37.99,85.88 50.47,82.46 54.00,81.42              54.00,81.42 114.00,63.00 114.00,63.00              114.00,63.00 114.00,85.00 114.00,85.00              113.87,92.48 111.28,92.00 103.00,94.42              103.00,94.42 81.00,102.00 81.00,102.00              81.00,102.00 104.00,108.98 104.00,108.98              104.00,108.98 113.01,112.70 113.01,112.70              113.01,112.70 114.00,133.00 114.00,133.00              114.00,133.00 113.01,140.30 113.01,140.30              113.01,140.30 96.00,146.86 96.00,146.86              96.00,146.86 53.00,160.42 53.00,160.42              53.00,160.42 36.00,165.00 36.00,165.00              36.00,165.00 36.00,137.00 36.00,137.00              36.00,137.00 69.00,127.00 69.00,127.00 Z            M 995.00,71.00            C 995.00,71.00 1005.00,71.00 1005.00,71.00              1005.00,71.00 1005.00,90.00 1005.00,90.00              1005.00,90.00 1026.00,90.00 1026.00,90.00              1026.00,90.00 1026.00,101.00 1026.00,101.00              1026.00,101.00 1005.00,101.00 1005.00,101.00              1005.00,101.00 1005.00,137.00 1005.00,137.00              1005.06,141.18 1005.36,144.74 1009.11,147.20              1013.59,150.59 1022.14,148.41 1027.00,147.20              1027.48,149.39 1029.13,154.42 1027.89,156.49              1026.68,158.50 1022.19,159.58 1020.00,160.10              1012.66,161.86 998.90,162.14 993.65,155.79              990.49,151.97 989.86,145.79 989.14,141.00              989.14,141.00 989.14,100.00 989.14,100.00              989.14,100.00 979.00,99.00 979.00,99.00              979.00,99.00 979.00,89.00 979.00,89.00              988.80,87.13 993.11,80.21 995.00,71.00 Z            M 544.00,97.00            C 554.06,92.16 562.14,85.90 574.00,89.16              578.81,90.48 580.73,91.49 583.00,96.00              583.00,96.00 594.00,91.23 594.00,91.23              603.37,87.67 616.51,85.80 623.35,95.04              629.71,103.62 628.00,124.24 628.00,135.00              628.00,147.70 626.47,150.73 637.00,151.00              637.00,151.00 637.00,160.00 637.00,160.00              637.00,160.00 603.00,160.00 603.00,160.00              603.00,160.00 603.00,151.00 603.00,151.00              605.36,150.97 608.60,151.21 610.40,149.40              612.04,147.77 611.96,145.14 612.00,143.00              612.00,143.00 612.00,115.00 612.00,115.00              611.97,108.69 610.96,101.66 603.00,101.36              598.76,101.20 589.39,104.08 587.60,108.21              586.56,110.61 587.00,127.18 587.00,131.00              587.00,145.39 585.06,150.36 596.00,151.00              596.00,151.00 596.00,160.00 596.00,160.00              596.00,160.00 563.00,160.00 563.00,160.00              563.00,160.00 563.00,151.00 563.00,151.00              565.72,150.93 569.23,151.11 570.98,148.57              572.22,146.76 572.00,143.16 571.85,141.00              571.85,141.00 571.85,111.00 571.85,111.00              570.93,105.84 568.76,101.74 563.00,101.30              560.60,101.12 558.17,101.96 556.00,102.88              553.12,104.10 548.60,106.41 547.02,109.18              545.31,112.18 546.00,127.64 546.00,132.00              546.00,141.18 543.01,150.29 555.00,151.00              555.00,151.00 555.00,160.00 555.00,160.00              555.00,160.00 522.00,160.00 522.00,160.00              522.00,160.00 522.00,151.00 522.00,151.00              522.00,151.00 531.00,150.00 531.00,150.00              531.00,150.00 531.00,111.00 531.00,111.00              531.00,111.00 529.98,103.13 529.98,103.13              529.98,103.13 523.02,97.49 523.02,97.49              523.02,97.49 523.02,90.00 523.02,90.00              523.02,90.00 543.00,90.00 543.00,90.00              543.00,90.00 544.00,97.00 544.00,97.00 Z            M 702.00,155.00            C 689.82,161.74 668.03,164.29 656.00,156.15              639.71,145.12 639.05,112.20 651.33,98.02              662.31,85.38 687.00,84.50 697.61,98.02              703.95,106.07 704.74,119.30 703.00,129.00              703.00,129.00 659.00,129.00 659.00,129.00              659.94,132.70 660.34,136.61 662.23,140.00              670.77,155.30 686.49,146.93 699.00,145.00              699.00,145.00 702.00,155.00 702.00,155.00 Z            M 888.00,156.00            C 888.00,156.00 876.00,159.76 876.00,159.76              864.17,162.55 847.13,162.06 838.10,152.91              832.90,147.63 831.11,141.08 829.92,134.00              826.68,114.73 832.07,93.26 854.00,89.09              856.92,88.54 860.03,87.97 863.00,88.18              875.60,89.10 884.57,94.26 888.24,107.00              889.14,110.87 891.78,125.30 888.24,127.98              886.81,129.23 882.99,129.00 881.00,129.00              881.00,129.00 846.00,129.00 846.00,129.00              846.07,132.03 846.09,134.07 847.11,137.00              853.91,156.55 874.02,146.70 885.00,145.00              885.00,145.00 888.00,156.00 888.00,156.00 Z            M 270.03,90.00            C 270.03,90.00 293.00,90.00 293.00,90.00              293.00,90.00 293.00,130.00 293.00,130.00              293.01,134.16 293.14,140.28 295.16,143.98              301.31,155.21 318.04,144.57 320.98,138.96              322.19,136.64 321.99,133.56 322.00,131.00              322.00,131.00 322.00,108.00 322.00,108.00              321.94,105.21 322.04,102.79 319.69,100.85              318.01,99.47 315.20,99.16 314.06,97.44              313.11,95.86 313.85,91.93 314.06,90.00              314.06,90.00 337.00,90.00 337.00,90.00              337.00,90.00 337.00,140.00 337.00,140.00              337.02,147.84 337.29,150.70 346.00,151.00              346.00,151.00 346.00,160.00 346.00,160.00              346.00,160.00 325.74,159.01 325.74,159.01              325.74,159.01 324.00,152.00 324.00,152.00              314.34,155.69 311.63,160.85 299.00,161.00              294.16,161.05 289.20,161.23 285.04,158.30              280.45,155.06 279.26,150.24 278.22,145.00              278.22,145.00 278.22,110.00 278.22,110.00              278.00,107.72 278.21,104.24 276.98,102.28              275.14,99.35 271.50,99.59 270.03,97.44              268.87,95.66 269.74,92.06 270.03,90.00 Z            M 481.03,90.00            C 481.03,90.00 504.00,90.00 504.00,90.00              504.00,90.00 504.00,140.00 504.00,140.00              504.00,140.00 505.60,148.57 505.60,148.57              505.60,148.57 513.40,152.02 513.40,152.02              513.40,152.02 515.00,160.00 515.00,160.00              515.00,160.00 479.00,160.00 479.00,160.00              479.00,160.00 479.00,151.00 479.00,151.00              479.00,151.00 489.00,150.00 489.00,150.00              489.00,150.00 489.00,111.00 489.00,111.00              489.00,111.00 487.98,103.13 487.98,103.13              487.98,103.13 481.03,97.49 481.03,97.49              481.03,97.49 481.03,90.00 481.03,90.00 Z            M 899.00,90.00            C 899.00,90.00 930.00,90.00 930.00,90.00              929.98,96.81 930.49,98.55 923.00,99.00              923.00,99.00 935.00,116.00 935.00,116.00              935.00,116.00 949.00,99.00 949.00,99.00              949.00,99.00 941.00,98.00 941.00,98.00              941.00,98.00 942.00,90.00 942.00,90.00              942.00,90.00 970.00,90.00 970.00,90.00              969.95,101.70 967.99,96.56 961.17,102.39              961.17,102.39 950.92,114.00 950.92,114.00              949.23,116.03 945.06,120.41 944.94,123.00              944.84,125.17 946.76,127.38 948.01,129.00              948.01,129.00 958.40,142.00 958.40,142.00              963.40,148.21 964.80,150.25 973.00,151.00              973.00,151.00 973.00,160.00 973.00,160.00              973.00,160.00 938.00,160.00 938.00,160.00              938.03,151.97 937.98,151.55 946.00,150.00              946.00,150.00 934.00,133.00 934.00,133.00              934.00,133.00 919.00,150.00 919.00,150.00              919.00,150.00 927.00,151.00 927.00,151.00              927.00,151.00 927.00,160.00 927.00,160.00              927.00,160.00 896.00,160.00 896.00,160.00              896.01,157.95 895.76,154.24 897.02,152.58              898.70,150.37 901.66,151.29 905.96,147.72              905.96,147.72 918.75,133.00 918.75,133.00              920.12,131.35 923.12,128.07 923.43,126.00              923.90,122.92 919.45,118.32 917.60,116.00              917.60,116.00 906.91,103.11 906.91,103.11              899.71,96.21 897.53,101.45 899.00,90.00 Z            M 688.00,118.00            C 687.99,113.41 688.12,109.00 685.30,105.08              680.18,97.89 668.80,98.64 663.42,105.08              660.11,109.06 660.04,113.15 660.00,118.00              660.00,118.00 688.00,118.00 688.00,118.00 Z            M 874.00,118.00            C 874.00,113.73 874.35,109.82 871.99,106.02              867.42,98.63 856.16,97.94 850.39,104.21              846.78,108.13 846.11,112.93 846.00,118.00              846.00,118.00 874.00,118.00 874.00,118.00 Z            M 391.00,101.52            C 386.63,102.15 380.39,104.05 378.02,108.18              376.51,110.83 377.00,118.68 377.00,122.00              377.00,125.51 376.63,137.42 377.60,139.98              379.99,146.29 390.77,149.84 397.00,148.66              405.91,146.98 408.21,138.79 409.15,131.00              410.25,121.92 410.48,105.79 400.00,101.52              397.24,100.67 393.87,101.02 391.00,101.52 Z" />
</svg>