<svg xmlns="http://www.w3.org/2000/svg" viewBox="-0.5 -0.88 208 125.42">
  <path id="tailwind" fill="#303030" stroke="none" stroke-width="1"
    d="M 51.00,42.00            C 52.86,29.97 60.11,16.17 70.00,8.74              87.42,-3.84 118.17,-3.00 136.00,8.74              151.94,18.86 161.46,37.78 179.00,36.48              195.63,35.25 198.65,24.67 207.00,20.00              203.33,32.57 200.23,41.79 190.00,50.82              172.85,65.96 140.75,65.47 122.00,53.56              106.60,43.78 96.35,23.72 78.00,25.33              64.39,26.52 60.06,34.94 51.00,42.00 Z            M 0.00,103.00            C 0.53,97.08 2.12,93.27 4.76,88.00              8.80,79.92 14.22,73.24 22.00,68.47              38.80,58.16 66.35,59.33 83.00,69.46              99.59,79.56 106.66,98.50 128.00,97.99              141.65,97.65 145.55,88.89 155.00,82.00              152.04,101.13 139.70,116.40 121.00,121.96              113.52,124.18 106.67,124.09 99.00,124.00              91.08,123.90 80.92,121.43 74.00,117.56              55.79,107.39 49.80,90.65 32.00,87.46              16.90,84.76 10.28,95.64 0.00,103.00 Z" />
</svg>