<svg xmlns="http://www.w3.org/2000/svg" viewBox="-0.5 -0.88 999.15 125.42">
  <path id="tailwind-wordmark" fill="#303030" stroke="none" stroke-width="1"
    d="M 51.00,42.00            C 52.86,29.97 60.11,16.17 70.00,8.74              87.42,-3.84 118.17,-3.00 136.00,8.74              151.94,18.86 161.46,37.78 179.00,36.48              195.63,35.25 198.65,24.67 207.00,20.00              203.33,32.57 200.23,41.79 190.00,50.82              172.85,65.96 140.75,65.47 122.00,53.56              106.60,43.78 96.35,23.72 78.00,25.33              64.39,26.52 60.06,34.94 51.00,42.00 Z            M 445.00,3.00            C 445.00,3.00 462.00,3.00 462.00,3.00              462.00,3.00 462.00,110.00 462.00,110.00              462.00,110.00 445.00,110.00 445.00,110.00              445.00,110.00 445.00,3.00 445.00,3.00 Z            M 415.02,6.96            C 418.20,5.97 421.88,5.50 424.90,6.96              434.23,12.36 429.36,28.21 418.00,26.38              407.90,24.75 405.60,12.01 415.02,6.96 Z            M 594.04,6.85            C 598.06,5.74 602.41,5.44 605.77,8.43              610.81,12.90 609.91,22.34 602.98,25.57              591.66,30.84 581.43,14.38 594.04,6.85 Z            M 764.00,8.00            C 764.00,8.00 781.00,8.00 781.00,8.00              781.00,8.00 781.00,110.00 781.00,110.00              781.00,110.00 764.00,110.00 764.00,110.00              764.00,110.00 764.00,102.00 764.00,102.00              756.10,109.19 748.81,112.38 738.00,111.96              731.63,111.71 725.38,109.69 720.00,106.29              701.93,94.86 697.53,67.20 709.79,50.00              722.27,32.48 748.94,28.86 764.00,45.00              764.00,45.00 764.00,8.00 764.00,8.00 Z            M 291.00,12.00            C 291.00,12.00 292.00,37.00 292.00,37.00              292.00,37.00 310.00,37.00 310.00,37.00              310.00,37.00 310.00,53.00 310.00,53.00              310.00,53.00 292.00,53.00 292.00,53.00              292.00,53.00 292.00,84.00 292.00,84.00              292.05,87.55 292.10,90.90 295.23,93.26              298.42,95.68 305.97,95.00 310.00,95.00              310.00,95.00 310.00,110.00 310.00,110.00              301.03,110.41 291.25,112.36 283.04,107.01              275.86,102.33 275.01,93.79 275.00,86.00              275.00,86.00 275.00,53.00 275.00,53.00              275.00,53.00 262.00,53.00 262.00,53.00              262.00,53.00 262.00,37.00 262.00,37.00              262.00,37.00 275.00,37.00 275.00,37.00              275.00,37.00 275.99,17.72 275.99,17.72              275.99,17.72 291.00,12.00 291.00,12.00 Z            M 377.00,102.00            C 368.70,109.12 362.17,112.40 351.00,111.96              329.11,111.10 315.98,93.94 316.00,73.00              316.02,53.46 329.31,35.25 350.00,35.00              362.85,34.85 367.38,35.85 377.00,45.00              377.00,45.00 377.00,37.00 377.00,37.00              377.00,37.00 394.00,37.00 394.00,37.00              394.00,37.00 394.00,110.00 394.00,110.00              394.00,110.00 377.00,110.00 377.00,110.00              377.00,110.00 377.00,102.00 377.00,102.00 Z            M 642.00,44.00            C 648.39,33.78 665.87,32.73 676.00,37.35              680.53,39.42 684.21,42.75 686.79,47.00              691.82,55.28 691.00,62.84 691.00,72.00              691.00,72.00 691.00,110.00 691.00,110.00              691.00,110.00 675.00,110.00 675.00,110.00              675.00,110.00 674.41,66.00 674.41,66.00              673.06,57.61 669.11,51.61 660.00,50.56              651.53,49.58 644.08,56.20 641.93,64.00              640.61,68.78 641.00,75.89 641.00,81.00              641.00,81.00 641.00,110.00 641.00,110.00              641.00,110.00 624.00,110.00 624.00,110.00              624.00,110.00 624.00,37.00 624.00,37.00              624.00,37.00 641.00,37.00 641.00,37.00              641.00,37.00 642.00,44.00 642.00,44.00 Z            M 866.00,92.00            C 859.87,111.21 832.62,116.01 816.00,108.48              802.35,102.30 794.08,87.82 794.08,73.00              794.08,52.33 810.18,35.10 831.00,35.16              831.00,35.16 841.00,35.16 841.00,35.16              851.56,37.09 862.89,44.45 866.00,55.00              866.00,55.00 851.00,62.00 851.00,62.00              848.49,58.50 845.89,55.48 842.00,53.44              828.35,46.28 812.40,57.40 811.19,72.00              810.57,79.49 815.06,87.09 821.00,91.36              823.63,93.25 826.80,94.62 830.00,95.09              833.53,95.61 837.73,95.06 841.00,93.64              846.05,91.43 848.76,88.26 852.00,84.00              852.00,84.00 866.00,92.00 866.00,92.00 Z            M 887.00,86.00            C 890.15,91.85 894.11,95.60 901.00,96.21              909.82,96.99 917.26,90.38 910.77,84.80              906.03,80.72 891.39,78.85 884.00,74.03              870.88,65.47 872.58,45.78 886.00,38.41              893.92,34.06 907.78,33.69 916.00,37.35              919.84,39.05 929.07,44.80 928.13,49.79              927.44,53.44 918.26,57.07 915.00,58.00              911.43,53.40 907.34,49.56 901.00,50.25              896.95,50.69 891.04,54.18 893.71,58.96              896.37,63.73 904.11,65.18 909.00,66.58              920.61,69.91 930.41,74.39 930.96,88.00              931.62,104.38 918.79,111.65 904.00,111.99              889.57,112.31 878.13,107.73 872.00,94.00              872.00,94.00 887.00,86.00 887.00,86.00 Z            M 954.00,86.00            C 957.15,91.85 961.11,95.60 968.00,96.21              976.23,96.94 983.75,91.11 977.84,85.27              972.74,80.23 961.32,80.20 952.00,74.65              937.60,66.08 938.98,46.41 953.00,38.13              961.37,33.56 975.38,33.93 984.00,38.13              987.61,39.56 995.87,45.16 995.10,49.79              994.50,53.42 985.21,57.08 982.00,58.00              978.36,53.31 974.43,49.65 968.00,50.23              964.00,50.58 958.16,54.07 960.28,58.82              962.33,63.41 971.55,65.38 976.00,66.72              989.63,70.83 1001.09,77.45 997.48,94.00              992.14,118.50 946.63,117.92 939.00,94.00              939.00,94.00 954.00,86.00 954.00,86.00 Z            M 411.00,37.00            C 411.00,37.00 428.00,37.00 428.00,37.00              428.00,37.00 428.00,110.00 428.00,110.00              428.00,110.00 411.00,110.00 411.00,110.00              411.00,110.00 411.00,37.00 411.00,37.00 Z            M 472.00,37.00            C 472.00,37.00 484.00,37.00 484.00,37.00              490.88,37.12 490.56,38.20 493.63,50.00              495.63,57.67 500.86,77.85 504.00,84.00              504.00,84.00 514.14,49.00 514.14,49.00              516.97,39.18 516.65,37.14 524.00,37.00              526.33,36.96 531.61,36.68 533.44,38.02              535.61,39.62 537.59,48.16 538.42,51.00              538.42,51.00 549.00,85.00 549.00,85.00              549.00,85.00 558.29,50.00 558.29,50.00              558.29,50.00 562.72,37.99 562.72,37.99              562.72,37.99 580.00,37.00 580.00,37.00              580.00,37.00 562.58,93.00 562.58,93.00              562.58,93.00 556.30,109.01 556.30,109.01              556.30,109.01 551.00,110.00 551.00,110.00              551.00,110.00 541.51,108.98 541.51,108.98              541.51,108.98 536.28,96.00 536.28,96.00              536.28,96.00 526.00,64.00 526.00,64.00              526.00,64.00 515.86,96.00 515.86,96.00              515.86,96.00 510.49,108.98 510.49,108.98              510.49,108.98 501.00,110.00 501.00,110.00              501.00,110.00 495.70,109.01 495.70,109.01              495.70,109.01 489.42,93.00 489.42,93.00              489.42,93.00 472.00,37.00 472.00,37.00 Z            M 590.00,37.00            C 590.00,37.00 607.00,37.00 607.00,37.00              607.00,37.00 607.00,110.00 607.00,110.00              607.00,110.00 590.00,110.00 590.00,110.00              590.00,110.00 590.00,37.00 590.00,37.00 Z            M 349.00,51.39            C 324.37,58.80 328.41,94.21 353.00,95.90              377.39,97.58 384.87,66.75 367.99,54.65              362.45,50.67 355.50,50.51 349.00,51.39 Z            M 737.00,51.33            C 709.07,58.04 717.26,100.70 746.00,95.67              758.63,93.46 764.28,84.11 763.99,72.00              763.86,67.00 762.79,63.00 759.61,59.02              753.51,51.39 746.11,50.32 737.00,51.33 Z            M 0.00,103.00            C 0.53,97.08 2.12,93.27 4.76,88.00              8.80,79.92 14.22,73.24 22.00,68.47              38.80,58.16 66.35,59.33 83.00,69.46              99.59,79.56 106.66,98.50 128.00,97.99              141.65,97.65 145.55,88.89 155.00,82.00              152.04,101.13 139.70,116.40 121.00,121.96              113.52,124.18 106.67,124.09 99.00,124.00              91.08,123.90 80.92,121.43 74.00,117.56              55.79,107.39 49.80,90.65 32.00,87.46              16.90,84.76 10.28,95.64 0.00,103.00 Z" />
</svg>