<svg xmlns="http://www.w3.org/2000/svg" viewBox="-0.65 7.71 497.15 496.79">
  <path id="Selection" fill="#303030" stroke="none" stroke-width="1" d="M 226.00,8.21            C 226.00,8.21 262.00,8.21 262.00,8.21              289.17,8.04 323.12,17.46 348.00,28.15              374.59,39.57 401.53,57.57 422.00,78.00              449.06,105.02 468.77,135.06 481.95,171.00              489.01,190.26 495.97,221.56 496.00,242.00              496.00,242.00 496.00,272.00 496.00,272.00              496.00,272.00 493.08,298.00 493.08,298.00              486.22,339.44 468.78,378.04 442.79,411.00              421.29,438.26 397.05,457.59 367.00,474.58              338.86,490.48 294.44,503.95 262.00,504.00              262.00,504.00 232.00,504.00 232.00,504.00              210.80,503.75 180.90,496.47 161.00,489.05              131.17,477.93 103.63,461.20 80.00,439.83              40.17,403.81 12.94,353.75 3.42,301.00              -0.63,278.54 -0.26,261.56 0.00,239.00              0.22,220.48 7.42,189.60 13.69,172.00              39.35,99.95 95.30,46.18 167.00,20.69              179.47,16.26 196.87,12.21 210.00,10.27              210.00,10.27 226.00,8.21 226.00,8.21 Z            M 345.00,158.43            C 327.98,161.47 291.35,177.30 274.00,184.58              274.00,184.58 149.00,237.85 149.00,237.85              149.00,237.85 102.00,258.88 102.00,258.88              92.82,264.31 91.45,271.58 102.00,276.48              102.00,276.48 135.00,287.15 135.00,287.15              141.48,288.91 151.42,291.70 158.00,291.96              170.78,292.46 180.84,285.44 191.00,278.67              191.00,278.67 232.00,251.33 232.00,251.33              232.00,251.33 277.00,221.33 277.00,221.33              280.83,218.78 290.12,211.45 294.72,214.00              300.88,217.41 291.56,225.43 289.00,228.00              289.00,228.00 255.00,260.96 255.00,260.96              255.00,260.96 221.00,293.00 221.00,293.00              217.00,297.06 210.35,303.71 211.43,310.00              212.88,318.38 227.23,326.82 234.00,331.33              234.00,331.33 286.00,366.42 286.00,366.42              294.46,372.41 306.02,381.07 317.00,379.81              324.61,378.94 328.34,373.69 330.93,367.00              334.39,358.09 336.55,342.80 338.25,333.00              338.25,333.00 359.87,199.00 359.87,199.00              360.90,191.62 362.61,178.14 362.25,171.00              361.95,165.06 360.29,160.38 354.00,158.43              351.12,157.74 347.94,158.01 345.00,158.43 Z"/>
</svg>