<svg xmlns="http://www.w3.org/2000/svg" viewBox="93.93 157.49 269.34 223.01">
  <path id="Selection" fill="#303030" stroke="none" stroke-width="1" d="M 343.00,158.34            C 346.09,158.04 349.91,157.73 353.00,158.34              360.29,159.36 361.64,163.55 362.57,170.00              363.52,176.55 360.87,191.66 360.05,199.00              360.05,199.00 355.27,232.00 355.27,232.00              355.27,232.00 338.75,332.00 338.75,332.00              336.92,342.54 334.71,358.45 330.93,368.00              328.45,374.26 324.12,379.55 317.00,379.96              304.00,380.70 293.06,371.75 283.00,364.72              283.00,364.72 232.00,330.33 232.00,330.33              224.33,325.22 209.84,317.88 211.23,307.00              212.29,298.68 223.33,290.52 229.00,284.99              229.00,284.99 264.00,251.96 264.00,251.96              264.00,251.96 280.00,236.09 280.00,236.09              283.71,232.63 293.02,224.00 295.38,220.00              297.72,216.05 295.49,212.72 291.00,213.70              288.09,214.34 282.66,218.25 280.00,220.00              280.00,220.00 262.00,231.67 262.00,231.67              262.00,231.67 199.00,274.00 199.00,274.00              185.97,282.73 174.45,292.36 158.00,291.99              146.48,291.72 118.39,283.03 107.00,278.77              101.93,276.88 92.49,273.08 94.78,266.00              96.63,260.28 105.82,256.22 111.00,254.00              111.00,254.00 155.00,235.00 155.00,235.00              155.00,235.00 277.00,182.99 277.00,182.99              294.56,175.74 325.49,162.24 343.00,158.34 Z"/>
</svg>