<svg xmlns="http://www.w3.org/2000/svg" viewBox="-0.5 1842.5 1587 206.01">
  <path id="Selection" fill="#303030" stroke="none" stroke-width="1" d="M 0.00,1843.00            C 0.00,1843.00 260.00,1843.00 260.00,1843.00              258.10,1864.11 234.14,1885.90 213.00,1886.00              213.00,1886.00 188.00,1886.00 188.00,1886.00              188.00,1886.00 160.00,1886.00 160.00,1886.00              157.42,1886.01 153.58,1885.80 151.60,1887.74              149.66,1889.64 150.01,1893.47 150.00,1896.00              150.00,1896.00 150.00,2048.00 150.00,2048.00              150.00,2048.00 109.00,2048.00 109.00,2048.00              109.00,2048.00 109.00,1924.00 109.00,1924.00              109.00,1924.00 109.00,1896.00 109.00,1896.00              108.99,1893.46 109.32,1889.52 107.40,1887.60              105.48,1885.68 101.54,1886.01 99.00,1886.00              99.00,1886.00 48.00,1886.00 48.00,1886.00              30.39,1885.97 14.62,1875.01 5.88,1860.00              2.49,1854.18 0.33,1849.79 0.00,1843.00 Z            M 358.00,1843.00            C 358.00,1843.00 596.00,1843.00 596.00,1843.00              589.11,1866.58 572.12,1885.96 546.00,1886.00              546.00,1886.00 407.00,1886.00 407.00,1886.00              401.22,1885.99 398.59,1885.86 393.00,1883.92              377.11,1878.42 358.97,1860.55 358.00,1843.00 Z            M 1348.00,1843.00            C 1348.00,1843.00 1586.00,1843.00 1586.00,1843.00              1580.77,1865.92 1561.38,1885.96 1537.00,1886.00              1537.00,1886.00 1396.00,1886.00 1396.00,1886.00              1374.32,1885.97 1349.08,1864.93 1348.00,1843.00 Z            M 710.00,1844.00            C 710.00,1844.00 936.00,1844.00 936.00,1844.00              933.42,1860.43 919.13,1873.08 905.00,1880.24              902.01,1881.76 898.24,1883.73 895.00,1884.47              892.38,1885.07 889.67,1885.00 887.00,1885.00              887.00,1885.00 751.00,1885.00 751.00,1885.00              751.00,1885.00 751.00,1925.00 751.00,1925.00              751.00,1925.00 935.00,1925.00 935.00,1925.00              935.00,1925.00 935.00,2048.00 935.00,2048.00              935.00,2048.00 699.00,2048.00 699.00,2048.00              709.63,2028.14 733.48,2008.04 757.00,2008.00              757.00,2008.00 800.00,2008.00 800.00,2008.00              800.00,2008.00 894.00,2008.00 894.00,2008.00              894.00,2008.00 894.00,1966.00 894.00,1966.00              894.00,1966.00 710.00,1966.00 710.00,1966.00              710.00,1966.00 710.00,1844.00 710.00,1844.00 Z            M 1048.00,1844.00            C 1048.00,1844.00 1090.00,1844.00 1090.00,1844.00              1090.00,1844.00 1090.00,2009.00 1090.00,2009.00              1090.00,2009.00 1269.00,2009.00 1269.00,2009.00              1266.13,2023.21 1254.59,2042.95 1240.00,2047.35              1237.50,2048.11 1234.60,2048.00 1232.00,2048.00              1232.00,2048.00 1048.00,2048.00 1048.00,2048.00              1048.00,2048.00 1048.00,1844.00 1048.00,1844.00 Z            M 358.00,1925.00            C 358.00,1925.00 596.00,1925.00 596.00,1925.00              596.00,1925.00 591.63,1937.00 591.63,1937.00              583.33,1953.84 567.23,1966.97 548.00,1967.00              548.00,1967.00 405.00,1967.00 405.00,1967.00              383.67,1966.97 359.95,1946.48 358.00,1925.00 Z            M 1354.00,1925.00            C 1354.00,1925.00 1580.00,1925.00 1580.00,1925.00              1580.00,1925.00 1580.00,2048.00 1580.00,2048.00              1580.00,2048.00 1539.00,2048.00 1539.00,2048.00              1539.00,2048.00 1539.00,1968.00 1539.00,1968.00              1539.00,1968.00 1395.00,1968.00 1395.00,1968.00              1395.00,1968.00 1395.00,2048.00 1395.00,2048.00              1395.00,2048.00 1354.00,2048.00 1354.00,2048.00              1354.00,2048.00 1354.00,1925.00 1354.00,1925.00 Z            M 358.00,2009.00            C 358.00,2009.00 596.00,2009.00 596.00,2009.00              591.46,2022.59 585.88,2033.17 574.00,2041.84              571.21,2043.88 567.33,2046.41 564.00,2047.36              561.42,2048.11 558.66,2048.00 556.00,2048.00              556.00,2048.00 397.00,2048.00 397.00,2048.00              394.34,2048.00 391.58,2048.11 389.00,2047.36              375.36,2043.44 359.29,2023.18 358.00,2009.00 Z"/>
</svg>