<svg xmlns="http://www.w3.org/2000/svg" viewBox="-0.5 -0.36 1587 2048.87">
  <path id="tesla-wordmark" fill="#303030" stroke="none" stroke-width="1"
    d="M 739.00,0.14            C 739.00,0.14 775.00,0.14 775.00,0.14              775.00,0.14 838.00,0.14 838.00,0.14              838.00,0.14 853.00,1.00 853.00,1.00              853.00,1.00 913.00,3.91 913.00,3.91              913.00,3.91 935.00,5.09 935.00,5.09              935.00,5.09 964.00,7.83 964.00,7.83              964.00,7.83 1058.00,18.73 1058.00,18.73              1138.02,30.27 1208.79,44.56 1287.00,65.12              1287.00,65.12 1344.00,81.02 1344.00,81.02              1385.95,93.93 1427.92,107.08 1469.00,122.58              1469.00,122.58 1499.00,133.95 1499.00,133.95              1501.69,134.95 1510.76,138.05 1512.36,139.81              1515.33,143.10 1508.38,156.16 1506.72,160.00              1506.72,160.00 1483.14,208.00 1483.14,208.00              1481.23,211.44 1476.28,222.25 1472.82,223.22              1469.69,224.09 1457.54,218.09 1454.00,216.58              1454.00,216.58 1405.00,196.81 1405.00,196.81              1349.69,175.38 1281.56,153.76 1224.00,139.37              1147.76,120.31 1070.22,105.65 992.00,97.83              992.00,97.83 923.00,91.91 923.00,91.91              923.00,91.91 889.00,90.00 889.00,90.00              889.00,90.00 876.00,89.00 876.00,89.00              876.00,89.00 862.00,89.00 862.00,89.00              862.00,89.00 846.00,88.00 846.00,88.00              846.00,88.00 737.00,88.00 737.00,88.00              737.00,88.00 722.00,89.00 722.00,89.00              722.00,89.00 710.00,89.00 710.00,89.00              710.00,89.00 691.00,90.00 691.00,90.00              691.00,90.00 672.00,91.00 672.00,91.00              672.00,91.00 648.00,92.91 648.00,92.91              648.00,92.91 559.00,101.85 559.00,101.85              463.95,113.21 351.77,138.08 261.00,168.33              223.19,180.94 186.01,194.39 149.00,209.20              149.00,209.20 122.00,220.58 122.00,220.58              119.35,221.69 114.10,224.33 111.39,222.89              109.28,221.77 105.99,215.28 104.78,213.00              104.78,213.00 91.75,188.00 91.75,188.00              91.75,188.00 76.00,154.00 76.00,154.00              74.88,151.38 71.10,143.81 71.81,141.27              72.53,138.69 77.68,137.32 80.00,136.40              80.00,136.40 104.00,127.19 104.00,127.19              104.00,127.19 174.00,102.33 174.00,102.33              174.00,102.33 205.00,92.14 205.00,92.14              205.00,92.14 249.00,78.72 249.00,78.72              249.00,78.72 310.00,61.88 310.00,61.88              381.55,43.08 463.64,26.94 537.00,17.28              537.00,17.28 633.00,6.83 633.00,6.83              633.00,6.83 672.00,3.91 672.00,3.91              672.00,3.91 683.00,3.00 683.00,3.00              683.00,3.00 705.00,2.00 705.00,2.00              705.00,2.00 720.00,1.00 720.00,1.00              726.33,0.99 732.72,1.32 739.00,0.14 Z            M 134.00,262.00            C 134.00,262.00 179.00,242.42 179.00,242.42              179.00,242.42 241.00,218.69 241.00,218.69              321.11,190.19 417.85,166.12 502.00,153.73              535.25,148.83 568.48,144.21 602.00,141.91              602.00,141.91 625.00,140.01 625.00,140.01              628.70,139.96 641.71,138.89 643.99,140.01              647.29,141.68 654.02,150.69 656.75,154.00              656.75,154.00 683.00,186.00 683.00,186.00              683.00,186.00 793.00,320.00 793.00,320.00              796.12,314.15 803.16,306.32 807.59,301.00              807.59,301.00 830.58,273.00 830.58,273.00              830.58,273.00 906.92,180.00 906.92,180.00              906.92,180.00 930.75,151.00 930.75,151.00              933.50,147.68 938.05,140.99 942.00,139.81              942.00,139.81 960.00,139.81 960.00,139.81              960.00,139.81 970.00,140.91 970.00,140.91              970.00,140.91 994.00,142.83 994.00,142.83              994.00,142.83 1083.00,153.73 1083.00,153.73              1167.82,166.22 1263.25,189.96 1344.00,218.69              1344.00,218.69 1406.00,242.42 1406.00,242.42              1406.00,242.42 1451.00,262.00 1451.00,262.00              1448.71,267.89 1442.99,274.96 1439.00,280.00              1430.20,291.09 1422.00,300.00 1412.00,310.00              1380.68,341.32 1339.64,369.42 1300.00,389.25              1289.62,394.44 1266.30,406.58 1256.00,409.00              1256.00,409.00 1253.39,394.00 1253.39,394.00              1250.88,380.71 1245.12,365.91 1237.08,355.00              1211.27,320.02 1157.55,311.17 1117.00,306.84              1117.00,306.84 1093.00,304.91 1093.00,304.91              1093.00,304.91 1083.00,304.00 1083.00,304.00              1083.00,304.00 1066.00,303.00 1066.00,303.00              1066.00,303.00 1054.00,303.00 1054.00,303.00              1054.00,303.00 1037.00,302.00 1037.00,302.00              1037.00,302.00 1004.00,302.00 1004.00,302.00              1001.84,302.00 998.24,301.78 996.43,303.02              993.46,305.06 992.71,315.32 992.00,319.00              992.00,319.00 983.41,367.00 983.41,367.00              983.41,367.00 968.42,451.00 968.42,451.00              968.42,451.00 945.58,580.00 945.58,580.00              945.58,580.00 837.42,1188.00 837.42,1188.00              837.42,1188.00 805.61,1367.00 805.61,1367.00              805.61,1367.00 797.25,1414.00 797.25,1414.00              796.22,1419.93 795.02,1432.36 792.00,1437.00              792.00,1437.00 785.42,1400.00 785.42,1400.00              785.42,1400.00 773.42,1333.00 773.42,1333.00              773.42,1333.00 740.42,1149.00 740.42,1149.00              740.42,1149.00 645.58,619.00 645.58,619.00              645.58,619.00 607.58,407.00 607.58,407.00              607.58,407.00 595.58,340.00 595.58,340.00              595.58,340.00 589.00,302.00 589.00,302.00              536.50,302.00 475.16,302.29 424.00,313.58              395.59,319.84 368.43,329.66 349.47,353.00              340.84,363.61 334.43,379.61 331.80,393.00              331.80,393.00 329.00,409.00 329.00,409.00              318.70,406.58 295.38,394.44 285.00,389.25              245.36,369.42 204.32,341.32 173.00,310.00              163.00,300.00 154.80,291.09 146.00,280.00              142.01,274.96 136.29,267.89 134.00,262.00 Z            M 0.00,1843.00            C 0.00,1843.00 260.00,1843.00 260.00,1843.00              258.10,1864.11 234.14,1885.90 213.00,1886.00              213.00,1886.00 188.00,1886.00 188.00,1886.00              188.00,1886.00 160.00,1886.00 160.00,1886.00              157.42,1886.01 153.58,1885.80 151.60,1887.74              149.66,1889.64 150.01,1893.47 150.00,1896.00              150.00,1896.00 150.00,2048.00 150.00,2048.00              150.00,2048.00 109.00,2048.00 109.00,2048.00              109.00,2048.00 109.00,1924.00 109.00,1924.00              109.00,1924.00 109.00,1896.00 109.00,1896.00              108.99,1893.46 109.32,1889.52 107.40,1887.60              105.48,1885.68 101.54,1886.01 99.00,1886.00              99.00,1886.00 48.00,1886.00 48.00,1886.00              30.39,1885.97 14.62,1875.01 5.88,1860.00              2.49,1854.18 0.33,1849.79 0.00,1843.00 Z            M 358.00,1843.00            C 358.00,1843.00 596.00,1843.00 596.00,1843.00              589.11,1866.58 572.12,1885.96 546.00,1886.00              546.00,1886.00 407.00,1886.00 407.00,1886.00              401.22,1885.99 398.59,1885.86 393.00,1883.92              377.11,1878.42 358.97,1860.55 358.00,1843.00 Z            M 1348.00,1843.00            C 1348.00,1843.00 1586.00,1843.00 1586.00,1843.00              1580.77,1865.92 1561.38,1885.96 1537.00,1886.00              1537.00,1886.00 1396.00,1886.00 1396.00,1886.00              1374.32,1885.97 1349.08,1864.93 1348.00,1843.00 Z            M 710.00,1844.00            C 710.00,1844.00 936.00,1844.00 936.00,1844.00              933.42,1860.43 919.13,1873.08 905.00,1880.24              902.01,1881.76 898.24,1883.73 895.00,1884.47              892.38,1885.07 889.67,1885.00 887.00,1885.00              887.00,1885.00 751.00,1885.00 751.00,1885.00              751.00,1885.00 751.00,1925.00 751.00,1925.00              751.00,1925.00 935.00,1925.00 935.00,1925.00              935.00,1925.00 935.00,2048.00 935.00,2048.00              935.00,2048.00 699.00,2048.00 699.00,2048.00              709.63,2028.14 733.48,2008.04 757.00,2008.00              757.00,2008.00 800.00,2008.00 800.00,2008.00              800.00,2008.00 894.00,2008.00 894.00,2008.00              894.00,2008.00 894.00,1966.00 894.00,1966.00              894.00,1966.00 710.00,1966.00 710.00,1966.00              710.00,1966.00 710.00,1844.00 710.00,1844.00 Z            M 1048.00,1844.00            C 1048.00,1844.00 1090.00,1844.00 1090.00,1844.00              1090.00,1844.00 1090.00,2009.00 1090.00,2009.00              1090.00,2009.00 1269.00,2009.00 1269.00,2009.00              1266.13,2023.21 1254.59,2042.95 1240.00,2047.35              1237.50,2048.11 1234.60,2048.00 1232.00,2048.00              1232.00,2048.00 1048.00,2048.00 1048.00,2048.00              1048.00,2048.00 1048.00,1844.00 1048.00,1844.00 Z            M 358.00,1925.00            C 358.00,1925.00 596.00,1925.00 596.00,1925.00              596.00,1925.00 591.63,1937.00 591.63,1937.00              583.33,1953.84 567.23,1966.97 548.00,1967.00              548.00,1967.00 405.00,1967.00 405.00,1967.00              383.67,1966.97 359.95,1946.48 358.00,1925.00 Z            M 1354.00,1925.00            C 1354.00,1925.00 1580.00,1925.00 1580.00,1925.00              1580.00,1925.00 1580.00,2048.00 1580.00,2048.00              1580.00,2048.00 1539.00,2048.00 1539.00,2048.00              1539.00,2048.00 1539.00,1968.00 1539.00,1968.00              1539.00,1968.00 1395.00,1968.00 1395.00,1968.00              1395.00,1968.00 1395.00,2048.00 1395.00,2048.00              1395.00,2048.00 1354.00,2048.00 1354.00,2048.00              1354.00,2048.00 1354.00,1925.00 1354.00,1925.00 Z            M 358.00,2009.00            C 358.00,2009.00 596.00,2009.00 596.00,2009.00              591.46,2022.59 585.88,2033.17 574.00,2041.84              571.21,2043.88 567.33,2046.41 564.00,2047.36              561.42,2048.11 558.66,2048.00 556.00,2048.00              556.00,2048.00 397.00,2048.00 397.00,2048.00              394.34,2048.00 391.58,2048.11 389.00,2047.36              375.36,2043.44 359.29,2023.18 358.00,2009.00 Z" />
</svg>