<svg xmlns="http://www.w3.org/2000/svg" viewBox="-0.5 14.5 2561 980">
  <path id="teyit" fill="#303030" stroke="none" stroke-width="1"
    d="M 1833.00,15.00            C 1833.00,15.00 2056.00,15.00 2056.00,15.00              2056.00,15.00 2056.00,143.00 2056.00,143.00              2056.00,143.00 1833.00,143.00 1833.00,143.00              1833.00,143.00 1833.00,15.00 1833.00,15.00 Z            M 165.00,18.00            C 165.00,18.00 358.00,18.00 358.00,18.00              358.00,18.00 358.00,184.00 358.00,184.00              358.00,184.00 528.00,184.00 528.00,184.00              528.00,184.00 528.00,377.00 528.00,377.00              528.00,377.00 358.00,377.00 358.00,377.00              358.00,377.00 358.00,542.00 358.00,542.00              358.00,542.00 165.00,542.00 165.00,542.00              165.00,542.00 165.00,373.00 165.00,373.00              165.00,373.00 0.00,373.00 0.00,373.00              0.00,373.00 0.00,184.00 0.00,184.00              0.00,184.00 165.00,184.00 165.00,184.00              165.00,184.00 165.00,18.00 165.00,18.00 Z            M 2213.00,26.00            C 2213.00,26.00 2417.00,26.00 2417.00,26.00              2417.00,26.00 2417.00,188.00 2417.00,188.00              2417.00,188.00 2560.00,188.00 2560.00,188.00              2560.00,188.00 2560.00,313.00 2560.00,313.00              2560.00,313.00 2414.00,313.00 2414.00,313.00              2414.00,313.00 2414.00,580.00 2414.00,580.00              2414.01,586.15 2414.75,592.06 2416.43,598.00              2417.72,602.56 2419.47,607.03 2422.10,611.00              2432.21,626.21 2449.04,629.85 2466.00,631.09              2466.00,631.09 2479.00,631.99 2479.00,631.99              2479.00,631.99 2495.00,631.00 2495.00,631.00              2495.00,631.00 2514.00,629.42 2514.00,629.42              2514.00,629.42 2534.00,627.28 2534.00,627.28              2534.00,627.28 2560.00,624.00 2560.00,624.00              2560.00,624.00 2560.00,761.00 2560.00,761.00              2560.00,761.00 2536.00,764.58 2536.00,764.58              2536.00,764.58 2490.00,770.84 2490.00,770.84              2490.00,770.84 2434.00,775.00 2434.00,775.00              2434.00,775.00 2417.00,775.96 2417.00,775.96              2417.00,775.96 2405.00,775.96 2405.00,775.96              2405.00,775.96 2395.00,775.00 2395.00,775.00              2355.16,774.54 2309.19,768.09 2275.00,746.31              2234.59,720.56 2219.19,680.49 2212.87,635.00              2212.87,635.00 2209.96,606.00 2209.96,606.00              2209.96,606.00 2209.96,593.00 2209.96,593.00              2209.96,593.00 2209.00,581.00 2209.00,581.00              2209.00,581.00 2209.00,313.00 2209.00,313.00              2209.00,313.00 2127.00,313.00 2127.00,313.00              2127.00,313.00 2127.00,184.00 2127.00,184.00              2127.00,184.00 2213.00,184.00 2213.00,184.00              2213.00,184.00 2213.00,26.00 2213.00,26.00 Z            M 1156.00,654.00            C 1153.94,660.20 1147.40,667.79 1143.20,673.00              1133.14,685.46 1118.13,700.69 1106.00,711.13              1056.55,753.70 996.17,774.75 932.00,781.17              932.00,781.17 908.00,783.00 908.00,783.00              908.00,783.00 874.00,783.00 874.00,783.00              874.00,783.00 851.00,781.17 851.00,781.17              782.24,774.29 715.71,749.53 666.09,699.91              614.33,648.15 587.12,574.34 583.96,502.00              583.96,502.00 583.00,491.00 583.00,491.00              583.00,491.00 583.00,467.00 583.00,467.00              583.00,467.00 583.96,454.00 583.96,454.00              587.04,383.17 612.23,312.01 660.17,259.00              704.94,209.49 768.14,179.72 834.00,171.85              834.00,171.85 855.00,169.91 855.00,169.91              855.00,169.91 866.00,169.00 866.00,169.00              889.67,168.89 908.36,169.10 932.00,172.28              982.43,179.08 1032.08,199.87 1070.00,234.17              1117.57,277.19 1143.03,335.13 1155.40,397.00              1158.69,413.44 1162.97,443.62 1163.00,460.00              1163.00,460.00 1164.00,480.00 1164.00,480.00              1164.00,480.00 1164.00,524.00 1164.00,524.00              1164.00,524.00 785.00,524.00 785.00,524.00              785.66,532.05 789.41,546.16 792.00,554.00              798.77,574.50 809.78,597.17 826.00,611.83              851.06,634.49 877.43,639.38 910.00,639.00              920.83,638.87 937.90,635.34 948.00,631.39              976.98,620.05 995.11,600.34 1012.00,575.00              1012.00,575.00 1073.00,608.14 1073.00,608.14              1073.00,608.14 1156.00,654.00 1156.00,654.00 Z            M 1163.00,188.00            C 1163.00,188.00 1394.00,188.00 1394.00,188.00              1394.00,188.00 1408.39,263.00 1408.39,263.00              1408.39,263.00 1445.39,451.00 1445.39,451.00              1445.39,451.00 1470.20,577.00 1470.20,577.00              1470.20,577.00 1478.40,619.00 1478.40,619.00              1478.40,619.00 1484.00,643.00 1484.00,643.00              1484.00,643.00 1491.39,599.00 1491.39,599.00              1491.39,599.00 1504.58,526.00 1504.58,526.00              1504.58,526.00 1546.58,293.00 1546.58,293.00              1546.58,293.00 1561.00,213.00 1561.00,213.00              1561.00,213.00 1564.08,196.00 1564.08,196.00              1564.08,196.00 1566.58,189.02 1566.58,189.02              1566.58,189.02 1574.00,188.00 1574.00,188.00              1574.00,188.00 1792.00,188.00 1792.00,188.00              1792.00,188.00 1781.71,227.00 1781.71,227.00              1781.71,227.00 1762.42,295.00 1762.42,295.00              1762.42,295.00 1702.42,507.00 1702.42,507.00              1702.42,507.00 1627.42,772.00 1627.42,772.00              1607.19,842.98 1579.56,919.40 1513.00,959.55              1482.24,978.11 1448.39,986.92 1413.00,991.15              1413.00,991.15 1393.00,993.00 1393.00,993.00              1393.00,993.00 1374.00,994.00 1374.00,994.00              1374.00,994.00 1350.00,994.00 1350.00,994.00              1350.00,994.00 1329.00,993.00 1329.00,993.00              1316.81,992.85 1294.15,989.30 1282.00,986.58              1282.00,986.58 1268.00,983.00 1268.00,983.00              1268.00,983.00 1268.00,850.00 1268.00,850.00              1268.00,850.00 1287.00,851.83 1287.00,851.83              1287.00,851.83 1309.00,853.09 1309.00,853.09              1309.00,853.09 1321.00,853.96 1321.00,853.96              1321.00,853.96 1337.00,853.96 1337.00,853.96              1337.00,853.96 1348.00,853.00 1348.00,853.00              1372.01,852.89 1401.67,849.10 1417.48,829.00              1430.42,812.55 1429.46,797.45 1434.00,779.00              1434.00,779.00 1359.00,779.00 1359.00,779.00              1359.00,779.00 1351.70,778.01 1351.70,778.01              1351.70,778.01 1347.67,769.00 1347.67,769.00              1347.67,769.00 1340.67,747.00 1340.67,747.00              1340.67,747.00 1320.66,684.00 1320.66,684.00              1320.66,684.00 1306.86,641.00 1306.86,641.00              1306.86,641.00 1279.02,554.00 1279.02,554.00              1279.02,554.00 1204.98,321.00 1204.98,321.00              1204.98,321.00 1175.98,230.00 1175.98,230.00              1175.98,230.00 1163.00,188.00 1163.00,188.00 Z            M 1833.00,206.00            C 1833.00,206.00 2056.00,206.00 2056.00,206.00              2056.00,206.00 2056.00,779.00 2056.00,779.00              2056.00,779.00 1833.00,779.00 1833.00,779.00              1833.00,779.00 1833.00,206.00 1833.00,206.00 Z            M 967.00,413.00            C 967.00,387.85 960.08,358.68 943.68,339.00              935.34,329.00 924.97,321.00 913.00,315.87              886.15,304.37 849.05,307.16 825.00,324.04              798.19,342.85 784.24,381.54 780.00,413.00              780.00,413.00 967.00,413.00 967.00,413.00 Z            M 357.00,599.00            C 359.84,606.14 357.20,623.44 368.21,635.99              378.82,648.08 395.90,649.90 411.00,650.00              411.00,650.00 432.00,650.00 432.00,650.00              432.00,650.00 460.00,648.09 460.00,648.09              460.00,648.09 497.00,647.00 497.00,647.00              497.00,647.00 497.00,776.00 497.00,776.00              497.00,776.00 480.00,778.58 480.00,778.58              480.00,778.58 446.00,783.72 446.00,783.72              425.91,786.36 400.99,789.91 381.00,790.00              381.00,790.00 365.00,791.00 365.00,791.00              365.00,791.00 334.00,790.00 334.00,790.00              334.00,790.00 305.00,787.28 305.00,787.28              259.45,781.34 218.13,766.28 193.20,725.00              186.07,713.19 180.25,697.41 176.89,684.00              170.17,657.11 169.00,629.56 169.00,602.00              169.00,602.00 311.00,602.00 311.00,602.00              311.00,602.00 344.00,602.00 344.00,602.00              348.71,602.00 354.13,603.29 357.00,599.00 Z" />
</svg>