<svg xmlns="http://www.w3.org/2000/svg" viewBox="118.68 118.68 762.64 762.65">
  <path id="teyit-alt" fill="#303030" stroke="none" stroke-width="1"
    d="M 453.00,257.00            C 453.00,257.00 463.12,217.00 463.12,217.00              463.12,217.00 480.58,150.00 480.58,150.00              483.64,138.99 484.74,119.18 500.00,119.18              515.26,119.18 516.36,138.99 519.42,150.00              519.42,150.00 535.42,211.00 535.42,211.00              535.42,211.00 547.00,257.00 547.00,257.00              552.87,252.41 565.19,234.89 570.37,228.00              570.37,228.00 611.58,174.00 611.58,174.00              618.10,165.61 628.31,146.91 640.00,147.26              659.07,147.85 653.28,170.15 651.72,182.00              651.72,182.00 641.72,257.00 641.72,257.00              641.72,257.00 637.00,295.00 637.00,295.00              637.00,295.00 683.00,268.15 683.00,268.15              683.00,268.15 742.00,234.00 742.00,234.00              746.33,231.51 752.05,227.69 757.00,227.20              766.45,226.25 773.69,233.57 772.89,243.00              772.47,247.98 769.28,252.74 766.85,257.00              766.85,257.00 754.15,279.00 754.15,279.00              754.15,279.00 721.01,336.00 721.01,336.00              721.01,336.00 705.00,363.00 705.00,363.00              705.00,363.00 751.00,357.42 751.00,357.42              751.00,357.42 819.00,348.28 819.00,348.28              830.32,346.79 846.91,341.54 851.89,356.00              852.59,358.04 852.91,359.85 852.63,362.00              852.30,364.59 850.92,367.83 849.35,369.91              846.74,373.38 828.68,386.62 824.00,390.13              824.00,390.13 772.00,429.63 772.00,429.63              765.50,434.51 747.18,447.65 743.00,453.00              743.00,453.00 783.00,463.12 783.00,463.12              783.00,463.12 850.00,480.58 850.00,480.58              861.01,483.64 880.82,484.74 880.82,500.00              880.82,514.73 860.98,516.88 850.00,519.63              850.00,519.63 776.00,538.87 776.00,538.87              776.00,538.87 743.00,547.00 743.00,547.00              747.32,552.53 765.38,565.41 772.00,570.37              772.00,570.37 827.00,612.21 827.00,612.21              835.43,618.82 854.16,628.96 852.63,641.00              850.32,659.25 829.20,653.30 817.00,651.58              817.00,651.58 750.00,642.58 750.00,642.58              750.00,642.58 705.00,637.00 705.00,637.00              705.00,637.00 724.42,670.00 724.42,670.00              724.42,670.00 766.80,743.00 766.80,743.00              769.29,747.18 772.48,752.07 772.89,757.00              773.70,766.53 766.53,773.70 757.00,772.89              752.01,772.47 747.30,769.16 743.00,766.72              743.00,766.72 719.00,752.80 719.00,752.80              719.00,752.80 665.00,721.42 665.00,721.42              665.00,721.42 637.00,705.00 637.00,705.00              637.00,705.00 640.87,737.00 640.87,737.00              640.87,737.00 650.15,807.00 650.15,807.00              650.15,807.00 653.96,836.00 653.96,836.00              654.37,846.60 647.08,855.29 636.00,852.21              630.78,850.76 628.46,848.06 625.21,844.00              625.21,844.00 571.21,773.00 571.21,773.00              565.24,765.39 553.70,748.24 547.00,743.00              547.00,743.00 539.37,774.00 539.37,774.00              539.37,774.00 519.87,849.00 519.87,849.00              519.87,849.00 516.88,860.00 516.88,860.00              514.48,869.15 512.86,879.86 501.00,880.78              485.82,881.95 483.60,861.89 480.87,851.00              480.87,851.00 461.63,777.00 461.63,777.00              461.63,777.00 453.00,742.00 453.00,742.00              453.00,742.00 432.12,769.00 432.12,769.00              432.12,769.00 391.65,822.00 391.65,822.00              391.65,822.00 373.34,845.96 373.34,845.96              362.63,858.70 345.18,852.20 346.09,836.00              346.09,836.00 349.85,808.00 349.85,808.00              349.85,808.00 359.28,737.00 359.28,737.00              359.28,737.00 363.00,705.00 363.00,705.00              363.00,705.00 329.00,725.01 329.00,725.01              329.00,725.01 258.00,766.15 258.00,766.15              253.56,768.69 248.09,772.46 243.00,772.89              233.47,773.70 226.30,766.53 227.11,757.00              227.51,752.17 230.39,748.11 232.72,744.00              232.72,744.00 246.58,720.00 246.58,720.00              246.58,720.00 272.15,676.00 272.15,676.00              272.15,676.00 295.00,637.00 295.00,637.00              295.00,637.00 257.00,641.72 257.00,641.72              257.00,641.72 181.00,651.85 181.00,651.85              169.65,653.21 153.12,658.54 148.11,644.00              147.41,641.96 147.09,640.15 147.37,638.00              148.73,627.29 166.76,617.25 175.00,610.79              175.00,610.79 228.00,570.37 228.00,570.37              234.62,565.41 252.68,552.53 257.00,547.00              257.00,547.00 221.00,537.88 221.00,537.88              221.00,537.88 150.00,519.42 150.00,519.42              138.99,516.36 119.18,515.26 119.18,500.00              119.18,484.94 138.97,483.42 150.00,480.63              150.00,480.63 226.00,460.63 226.00,460.63              226.00,460.63 257.00,453.00 257.00,453.00              251.89,446.46 235.40,435.20 228.00,429.63              228.00,429.63 174.00,388.42 174.00,388.42              165.51,381.82 146.91,371.78 147.26,360.00              147.85,340.93 170.15,346.72 182.00,348.28              182.00,348.28 256.00,358.28 256.00,358.28              256.00,358.28 295.00,363.00 295.00,363.00              295.00,363.00 274.99,329.00 274.99,329.00              274.99,329.00 233.85,258.00 233.85,258.00              231.31,253.56 227.54,248.09 227.11,243.00              226.33,233.74 233.74,226.33 243.00,227.11              247.83,227.51 251.89,230.39 256.00,232.72              256.00,232.72 279.00,246.00 279.00,246.00              279.00,246.00 331.00,276.15 331.00,276.15              331.00,276.15 363.00,295.00 363.00,295.00              363.00,295.00 359.13,262.00 359.13,262.00              359.13,262.00 349.85,193.00 349.85,193.00              349.85,193.00 346.04,164.00 346.04,164.00              345.63,153.39 352.86,144.62 364.00,147.79              369.74,149.42 372.05,152.51 375.58,157.00              375.58,157.00 426.63,224.00 426.63,224.00              431.96,231.12 447.27,252.52 453.00,257.00 Z            M 594.00,414.32            C 580.12,417.44 569.81,431.19 560.00,441.00              560.00,441.00 496.00,505.00 496.00,505.00              496.00,505.00 477.00,524.00 477.00,524.00              475.18,525.82 470.22,531.22 468.00,531.80              465.51,532.46 463.67,530.49 462.00,528.96              462.00,528.96 449.00,516.00 449.00,516.00              449.00,516.00 431.00,498.00 431.00,498.00              421.26,488.26 414.80,480.00 400.00,480.00              394.48,480.00 392.05,480.28 387.00,482.81              384.20,484.21 381.41,485.96 379.18,488.18              369.05,498.31 368.35,514.34 376.10,526.00              379.57,531.22 391.91,542.91 397.00,548.00              397.00,548.00 436.00,587.00 436.00,587.00              446.72,597.72 455.33,607.46 472.00,604.68              482.23,602.97 488.98,596.01 496.00,589.00              496.00,589.00 516.00,569.00 516.00,569.00              516.00,569.00 588.00,497.00 588.00,497.00              596.14,488.86 619.09,467.10 624.19,459.00              633.12,444.82 628.65,425.90 614.00,417.53              607.60,413.87 601.14,413.54 594.00,414.32 Z" />
</svg>