<svg xmlns="http://www.w3.org/2000/svg" viewBox="1031.5 48.5 1777 2063">
  <path id="Selection" fill="#303030" stroke="none" stroke-width="1" d="M 2380.00,2013.00            C 2376.69,2013.49 2363.55,2021.48 2359.00,2023.75              2359.00,2023.75 2313.00,2044.72 2313.00,2044.72              2271.00,2062.49 2223.55,2076.79 2179.00,2086.58              2142.47,2094.60 2105.20,2100.45 2068.00,2104.17              2068.00,2104.17 2007.00,2109.00 2007.00,2109.00              2007.00,2109.00 1997.00,2109.96 1997.00,2109.96              1997.00,2109.96 1987.00,2109.96 1987.00,2109.96              1987.00,2109.96 1972.00,2111.00 1972.00,2111.00              1972.00,2111.00 1902.00,2111.00 1902.00,2111.00              1902.00,2111.00 1881.00,2110.00 1881.00,2110.00              1881.00,2110.00 1853.00,2108.09 1853.00,2108.09              1853.00,2108.09 1776.00,2100.28 1776.00,2100.28              1683.94,2088.16 1579.57,2059.35 1497.00,2016.74              1443.36,1989.07 1387.38,1952.44 1342.00,1912.72              1313.36,1887.64 1287.13,1860.07 1262.58,1831.00              1245.28,1810.52 1228.23,1789.07 1213.02,1767.00              1158.52,1687.91 1117.83,1593.82 1090.28,1502.00              1090.28,1502.00 1078.58,1460.00 1078.58,1460.00              1078.58,1460.00 1068.65,1423.00 1068.65,1423.00              1046.41,1325.95 1034.16,1209.44 1033.00,1110.00              1033.00,1110.00 1032.00,1096.00 1032.00,1096.00              1032.00,1096.00 1032.00,1065.00 1032.00,1065.00              1032.00,1065.00 1033.00,1048.00 1033.00,1048.00              1033.00,1048.00 1033.00,1033.00 1033.00,1033.00              1033.00,1033.00 1033.96,1021.00 1033.96,1021.00              1033.96,1021.00 1033.96,1009.00 1033.96,1009.00              1033.96,1009.00 1034.96,997.00 1034.96,997.00              1034.96,997.00 1034.96,989.00 1034.96,989.00              1034.96,989.00 1036.00,972.00 1036.00,972.00              1036.00,972.00 1037.91,948.00 1037.91,948.00              1037.91,948.00 1047.72,855.00 1047.72,855.00              1052.95,815.23 1059.62,775.05 1068.88,736.00              1068.88,736.00 1079.12,698.00 1079.12,698.00              1087.17,667.35 1096.06,636.87 1106.69,607.00              1133.67,531.18 1169.29,456.36 1215.02,390.00              1215.02,390.00 1231.63,368.00 1231.63,368.00              1254.00,338.34 1275.80,313.14 1301.09,286.00              1301.09,286.00 1324.00,263.91 1324.00,263.91              1352.99,236.91 1376.47,218.40 1409.00,195.98              1438.63,175.56 1484.45,148.25 1517.00,133.31              1589.12,100.19 1665.80,77.71 1744.00,64.59              1744.00,64.59 1812.00,55.17 1812.00,55.17              1812.00,55.17 1840.00,52.83 1840.00,52.83              1840.00,52.83 1869.00,50.91 1869.00,50.91              1869.00,50.91 1881.00,50.00 1881.00,50.00              1881.00,50.00 1901.00,49.00 1901.00,49.00              1901.00,49.00 1970.00,49.00 1970.00,49.00              1970.00,49.00 1992.00,50.00 1992.00,50.00              1992.00,50.00 2005.00,51.00 2005.00,51.00              2028.90,51.28 2071.66,56.22 2096.00,59.73              2166.57,69.90 2221.48,82.98 2289.00,106.00              2289.00,106.00 2353.00,131.58 2353.00,131.58              2358.60,134.02 2375.13,140.53 2378.00,145.00              2378.00,145.00 2380.00,144.00 2380.00,144.00              2380.00,144.00 2380.00,146.00 2380.00,146.00              2380.00,146.00 2382.00,145.00 2382.00,145.00              2382.00,145.00 2382.00,147.00 2382.00,147.00              2382.00,147.00 2384.00,146.00 2384.00,146.00              2384.00,146.00 2384.00,148.00 2384.00,148.00              2384.00,148.00 2386.00,147.00 2386.00,147.00              2386.00,147.00 2386.00,149.00 2386.00,149.00              2386.00,149.00 2388.00,148.00 2388.00,148.00              2388.00,148.00 2388.00,150.00 2388.00,150.00              2392.52,150.46 2397.92,154.48 2402.00,156.69              2402.00,156.69 2429.00,172.00 2429.00,172.00              2469.79,196.47 2493.27,212.63 2530.00,243.25              2530.00,243.25 2568.42,278.25 2568.42,278.25              2568.42,278.25 2576.91,286.04 2576.91,286.04              2576.91,286.04 2585.01,295.00 2585.01,295.00              2585.01,295.00 2616.42,328.04 2616.42,328.04              2676.93,395.99 2722.27,476.17 2758.86,559.00              2758.86,559.00 2770.40,585.00 2770.40,585.00              2780.02,608.75 2788.33,633.47 2795.72,658.00              2795.72,658.00 2808.00,701.00 2808.00,701.00              2808.00,701.00 2748.00,716.88 2748.00,716.88              2748.00,716.88 2677.00,735.88 2677.00,735.88              2677.00,735.88 2645.00,744.42 2645.00,744.42              2642.36,745.16 2636.08,747.60 2633.70,745.97              2631.65,744.56 2628.35,731.16 2627.42,728.00              2627.42,728.00 2612.35,682.00 2612.35,682.00              2612.35,682.00 2583.69,612.00 2583.69,612.00              2568.12,578.09 2550.38,545.07 2529.67,514.00              2510.13,484.69 2488.39,456.42 2463.96,431.00              2463.96,431.00 2451.00,418.99 2451.00,418.99              2405.31,374.41 2364.29,344.91 2308.00,315.22              2308.00,315.22 2279.00,300.31 2279.00,300.31              2220.90,273.63 2158.95,256.15 2096.00,245.59              2096.00,245.59 2044.00,238.17 2044.00,238.17              2044.00,238.17 2017.00,235.83 2017.00,235.83              2017.00,235.83 1995.00,234.00 1995.00,234.00              1995.00,234.00 1967.00,233.00 1967.00,233.00              1967.00,233.00 1951.00,232.00 1951.00,232.00              1951.00,232.00 1920.00,232.00 1920.00,232.00              1920.00,232.00 1908.00,232.96 1908.00,232.96              1908.00,232.96 1895.00,232.96 1895.00,232.96              1895.00,232.96 1880.00,234.00 1880.00,234.00              1854.16,234.12 1802.50,241.14 1776.00,245.59              1714.77,255.86 1650.18,274.24 1594.00,300.78              1594.00,300.78 1554.00,322.14 1554.00,322.14              1515.34,343.72 1479.45,368.86 1447.00,399.09              1354.39,485.37 1296.73,594.62 1261.58,715.00              1249.06,757.87 1240.38,798.06 1232.75,842.00              1232.75,842.00 1227.27,871.00 1227.27,871.00              1222.53,903.17 1219.14,935.60 1216.91,968.00              1216.91,968.00 1215.00,997.00 1215.00,997.00              1215.00,997.00 1214.04,1007.00 1214.04,1007.00              1214.04,1007.00 1214.04,1020.00 1214.04,1020.00              1214.04,1020.00 1213.00,1035.00 1213.00,1035.00              1213.00,1035.00 1213.00,1055.00 1213.00,1055.00              1213.00,1055.00 1212.00,1070.00 1212.00,1070.00              1212.00,1070.00 1213.00,1125.00 1213.00,1125.00              1213.00,1125.00 1213.96,1137.00 1213.96,1137.00              1213.96,1137.00 1213.96,1150.00 1213.96,1150.00              1213.96,1150.00 1215.00,1163.00 1215.00,1163.00              1215.00,1163.00 1216.91,1192.00 1216.91,1192.00              1219.14,1224.40 1222.53,1256.83 1227.27,1289.00              1227.27,1289.00 1232.58,1317.00 1232.58,1317.00              1232.58,1317.00 1241.00,1362.00 1241.00,1362.00              1273.17,1517.47 1337.32,1665.20 1459.00,1771.71              1487.41,1796.59 1518.22,1817.65 1551.00,1836.28              1551.00,1836.28 1595.00,1859.69 1595.00,1859.69              1660.14,1889.60 1729.09,1908.26 1800.00,1918.13              1800.00,1918.13 1867.00,1925.09 1867.00,1925.09              1867.00,1925.09 1877.00,1926.00 1877.00,1926.00              1877.00,1926.00 1896.00,1927.04 1896.00,1927.04              1896.00,1927.04 1908.00,1927.04 1908.00,1927.04              1908.00,1927.04 1920.00,1928.00 1920.00,1928.00              1920.00,1928.00 1952.00,1928.00 1952.00,1928.00              1952.00,1928.00 1968.00,1927.00 1968.00,1927.00              1968.00,1927.00 1980.00,1927.00 1980.00,1927.00              1980.00,1927.00 1999.00,1926.00 1999.00,1926.00              1999.00,1926.00 2009.00,1925.09 2009.00,1925.09              2036.17,1923.23 2063.03,1920.61 2090.00,1916.42              2134.39,1909.53 2178.91,1899.45 2221.00,1883.58              2307.26,1851.04 2385.91,1796.93 2446.13,1727.00              2446.13,1727.00 2462.35,1708.00 2462.35,1708.00              2501.16,1657.86 2528.26,1595.80 2537.57,1533.00              2539.26,1521.65 2540.98,1507.38 2541.00,1496.00              2541.00,1496.00 2542.00,1475.00 2542.00,1475.00              2542.00,1475.00 2541.00,1461.00 2541.00,1461.00              2540.42,1410.93 2523.29,1350.90 2497.55,1308.00              2485.38,1287.71 2470.35,1268.42 2453.56,1251.75              2453.56,1251.75 2445.00,1243.96 2445.00,1243.96              2445.00,1243.96 2434.00,1233.17 2434.00,1233.17              2420.04,1220.56 2395.41,1202.18 2379.00,1193.00              2377.65,1209.72 2369.93,1248.92 2365.88,1266.00              2353.90,1316.54 2337.44,1366.41 2312.14,1412.00              2312.14,1412.00 2299.05,1433.00 2299.05,1433.00              2270.16,1479.05 2235.27,1516.78 2191.00,1548.42              2191.00,1548.42 2167.00,1564.55 2167.00,1564.55              2167.00,1564.55 2156.00,1570.31 2156.00,1570.31              2105.93,1597.38 2051.50,1613.12 1995.00,1619.16              1995.00,1619.16 1962.00,1622.00 1962.00,1622.00              1962.00,1622.00 1945.00,1623.00 1945.00,1623.00              1945.00,1623.00 1919.00,1623.00 1919.00,1623.00              1919.00,1623.00 1900.00,1622.00 1900.00,1622.00              1886.93,1621.84 1862.38,1618.30 1849.00,1616.08              1762.09,1601.69 1678.87,1563.02 1619.17,1497.00              1569.82,1442.43 1538.86,1366.78 1538.00,1293.00              1538.00,1293.00 1537.00,1280.00 1537.00,1280.00              1537.00,1280.00 1537.96,1267.00 1537.96,1267.00              1537.96,1267.00 1537.96,1256.00 1537.96,1256.00              1538.12,1245.79 1541.52,1223.43 1543.60,1213.00              1550.85,1176.76 1563.84,1141.46 1583.42,1110.00              1627.03,1039.95 1689.26,994.70 1765.00,964.40              1817.33,943.47 1870.16,933.24 1926.00,927.83              1926.00,927.83 1954.00,926.00 1954.00,926.00              1954.00,926.00 1977.00,923.96 1977.00,923.96              1977.00,923.96 1992.00,923.96 1992.00,923.96              1992.00,923.96 2004.00,923.00 2004.00,923.00              2004.00,923.00 2040.00,923.00 2040.00,923.00              2040.00,923.00 2055.00,924.00 2055.00,924.00              2055.00,924.00 2069.00,924.00 2069.00,924.00              2069.00,924.00 2093.00,926.00 2093.00,926.00              2093.00,926.00 2117.00,927.91 2117.00,927.91              2117.00,927.91 2201.00,938.00 2201.00,938.00              2201.00,938.00 2198.55,925.00 2198.55,925.00              2198.55,925.00 2189.28,887.00 2189.28,887.00              2175.32,840.65 2152.50,798.06 2115.00,766.44              2077.25,734.61 2030.38,720.01 1982.00,714.84              1982.00,714.84 1962.00,713.00 1962.00,713.00              1962.00,713.00 1942.00,712.00 1942.00,712.00              1942.00,712.00 1916.00,713.00 1916.00,713.00              1905.37,713.13 1888.67,715.65 1878.00,717.58              1824.45,727.23 1780.83,747.17 1742.00,786.00              1730.54,797.46 1717.96,811.82 1710.00,826.00              1710.00,826.00 1692.00,815.00 1692.00,815.00              1692.00,815.00 1661.00,794.02 1661.00,794.02              1661.00,794.02 1560.00,724.00 1560.00,724.00              1563.35,715.24 1581.90,692.14 1588.58,684.00              1616.59,649.82 1651.45,618.95 1689.00,595.58              1743.08,561.91 1803.02,542.01 1866.00,533.72              1866.00,533.72 1905.00,530.00 1905.00,530.00              1905.00,530.00 1921.00,529.00 1921.00,529.00              1921.00,529.00 1956.00,529.00 1956.00,529.00              1956.00,529.00 1976.00,530.00 1976.00,530.00              1976.00,530.00 1986.00,530.91 1986.00,530.91              2006.50,532.34 2026.82,534.97 2047.00,539.00              2095.12,548.62 2147.50,566.64 2189.00,593.05              2189.00,593.05 2225.00,619.45 2225.00,619.45              2235.70,628.01 2245.32,637.32 2255.00,647.00              2316.98,708.98 2350.15,782.81 2370.12,867.00              2375.42,889.36 2382.10,927.32 2383.92,950.00              2383.92,950.00 2385.83,970.00 2385.83,970.00              2385.83,970.00 2386.42,980.00 2386.42,980.00              2386.76,982.53 2386.91,988.86 2388.02,990.61              2389.57,993.04 2394.38,994.87 2397.00,996.00              2397.00,996.00 2415.00,1004.26 2415.00,1004.26              2433.95,1013.43 2461.42,1027.92 2479.00,1039.05              2532.80,1073.13 2591.34,1125.43 2628.58,1177.00              2670.98,1235.73 2696.85,1300.25 2711.00,1371.00              2715.77,1394.87 2718.43,1418.78 2720.09,1443.00              2720.09,1443.00 2721.00,1455.00 2721.00,1455.00              2721.00,1455.00 2721.00,1505.00 2721.00,1505.00              2721.00,1505.00 2720.04,1516.00 2720.04,1516.00              2717.99,1562.99 2707.08,1615.55 2691.66,1660.00              2674.53,1709.35 2647.40,1764.09 2616.24,1806.00              2616.24,1806.00 2608.89,1815.00 2608.89,1815.00              2608.89,1815.00 2581.57,1849.00 2581.57,1849.00              2552.29,1883.39 2500.93,1932.36 2464.00,1958.28              2464.00,1958.28 2412.00,1993.19 2412.00,1993.19              2412.00,1993.19 2380.00,2013.00 2380.00,2013.00 Z            M 2205.00,1126.00            C 2168.93,1119.21 2134.69,1113.43 2098.00,1110.91              2098.00,1110.91 2072.00,1109.00 2072.00,1109.00              2072.00,1109.00 2052.00,1108.00 2052.00,1108.00              2052.00,1108.00 1987.00,1108.00 1987.00,1108.00              1987.00,1108.00 1975.00,1108.96 1975.00,1108.96              1975.00,1108.96 1964.00,1108.96 1964.00,1108.96              1964.00,1108.96 1941.00,1110.83 1941.00,1110.83              1905.89,1114.23 1884.02,1118.18 1850.00,1127.86              1814.83,1137.87 1775.11,1159.93 1751.44,1188.00              1706.67,1241.07 1704.96,1322.26 1753.09,1374.00              1780.57,1403.55 1815.37,1420.22 1854.00,1429.87              1870.35,1433.96 1896.38,1438.92 1913.00,1439.04              1913.00,1439.04 1923.00,1439.04 1923.00,1439.04              1923.00,1439.04 1934.00,1439.96 1934.00,1439.96              1934.00,1439.96 1951.00,1439.00 1951.00,1439.00              1951.00,1439.00 1973.00,1437.16 1973.00,1437.16              2016.85,1432.47 2055.71,1421.62 2092.00,1395.57              2127.31,1370.23 2155.38,1328.06 2171.40,1288.00              2184.74,1254.64 2192.49,1221.31 2198.41,1186.00              2201.11,1169.93 2205.00,1141.80 2205.00,1126.00 Z"/>
</svg>