<svg xmlns="http://www.w3.org/2000/svg" viewBox="-0.53 -0.5 1171.03 1338">
  <path id="Selection" fill="#303030" stroke="none" stroke-width="1" d="M 619.00,0.00            C 619.00,0.00 850.00,0.00 850.00,0.00              850.00,38.81 855.65,72.45 869.05,109.00              903.71,203.53 985.29,278.91 1082.00,306.71              1102.77,312.68 1133.53,318.97 1155.00,319.00              1155.00,319.00 1170.00,319.00 1170.00,319.00              1170.00,319.00 1170.00,549.00 1170.00,549.00              1170.00,549.00 1151.00,548.00 1151.00,548.00              1151.00,548.00 1140.00,548.00 1140.00,548.00              1140.00,548.00 1130.00,547.09 1130.00,547.09              1130.00,547.09 1085.00,542.27 1085.00,542.27              1031.55,534.57 978.55,517.76 930.00,494.26              904.25,481.79 872.55,464.41 850.00,447.00              850.00,447.00 850.00,921.00 850.00,921.00              850.00,921.00 849.00,940.00 849.00,940.00              848.81,955.64 844.54,981.33 841.40,997.00              829.30,1057.46 804.34,1112.98 768.42,1163.00              726.54,1221.32 668.21,1268.45 603.00,1298.31              555.31,1320.15 505.24,1332.51 453.00,1336.09              453.00,1336.09 441.00,1337.00 441.00,1337.00              441.00,1337.00 408.00,1337.00 408.00,1337.00              408.00,1337.00 397.00,1336.04 397.00,1336.04              350.06,1333.99 300.12,1321.37 257.00,1302.85              209.05,1282.26 163.97,1252.96 127.00,1216.00              91.01,1180.02 60.60,1138.37 39.31,1092.00              -31.32,938.17 -5.95,754.24 108.17,628.00              146.80,585.27 187.68,555.41 239.00,529.75              284.08,507.22 351.51,488.59 402.00,488.00              402.00,488.00 415.00,487.00 415.00,487.00              415.00,487.00 432.00,487.00 432.00,487.00              432.00,487.00 444.00,487.91 444.00,487.91              444.00,487.91 467.00,489.17 467.00,489.17              467.00,489.17 484.00,491.00 484.00,491.00              484.00,491.00 484.00,727.00 484.00,727.00              484.00,727.00 461.00,721.61 461.00,721.61              445.47,718.68 433.75,717.82 418.00,718.00              418.00,718.00 408.00,718.92 408.00,718.92              366.47,722.24 325.88,740.28 295.00,768.17              259.48,800.25 235.74,846.23 231.04,894.00              231.04,894.00 231.04,902.00 231.04,902.00              231.04,902.00 230.01,914.00 230.01,914.00              230.01,914.00 230.91,923.00 230.91,923.00              234.29,972.21 254.07,1017.54 290.00,1051.96              309.23,1070.39 332.20,1084.61 357.00,1094.19              375.08,1101.17 393.75,1104.77 413.00,1106.09              413.00,1106.09 426.00,1107.00 426.00,1107.00              426.00,1107.00 436.00,1106.09 436.00,1106.09              516.55,1100.55 583.72,1048.91 609.33,972.00              614.60,956.19 618.97,933.64 619.00,917.00              619.00,917.00 619.00,0.00 619.00,0.00 Z"/>
</svg>