<svg xmlns="http://www.w3.org/2000/svg" viewBox="9.5 2.5 1271 288.01">
  <path id="tiktok-text" fill="#303030" stroke="none" stroke-width="1"
    d="M 331.00,3.00            C 331.00,3.00 400.00,3.00 400.00,3.00              400.00,3.00 400.00,134.00 400.00,134.00              400.00,134.00 421.00,114.00 421.00,114.00              421.00,114.00 438.00,97.09 438.00,97.09              438.00,97.09 448.00,88.00 448.00,88.00              448.00,88.00 467.00,70.60 467.00,70.60              467.00,70.60 474.00,70.00 474.00,70.00              474.00,70.00 548.00,70.00 548.00,70.00              544.67,77.04 529.37,90.67 523.00,96.28              523.00,96.28 498.00,121.00 498.00,121.00              498.00,121.00 485.00,133.00 485.00,133.00              485.00,133.00 470.01,148.00 470.01,148.00              467.78,150.31 465.10,152.48 466.11,156.00              466.75,158.20 472.34,165.64 473.98,168.00              473.98,168.00 493.58,196.00 493.58,196.00              493.58,196.00 537.02,258.00 537.02,258.00              537.02,258.00 559.00,290.00 559.00,290.00              559.00,290.00 490.00,290.00 490.00,290.00              490.00,290.00 482.32,288.98 482.32,288.98              482.32,288.98 467.33,268.00 467.33,268.00              467.33,268.00 435.00,220.00 435.00,220.00              435.00,220.00 420.00,197.00 420.00,197.00              420.00,197.00 408.00,207.91 408.00,207.91              408.00,207.91 401.02,215.04 401.02,215.04              401.02,215.04 400.00,223.00 400.00,223.00              400.00,223.00 400.00,290.00 400.00,290.00              400.00,290.00 331.00,290.00 331.00,290.00              331.00,290.00 331.00,3.00 331.00,3.00 Z            M 1052.00,3.00            C 1052.00,3.00 1122.00,3.00 1122.00,3.00              1122.00,3.00 1122.00,135.00 1122.00,135.00              1122.00,135.00 1171.00,87.00 1171.00,87.00              1171.00,87.00 1189.00,70.60 1189.00,70.60              1189.00,70.60 1196.00,70.00 1196.00,70.00              1196.00,70.00 1271.00,70.00 1271.00,70.00              1268.54,74.78 1256.49,85.51 1252.00,90.00              1252.00,90.00 1209.00,132.00 1209.00,132.00              1209.00,132.00 1194.00,146.00 1194.00,146.00              1192.40,147.61 1188.81,150.92 1188.16,153.00              1187.20,156.05 1191.01,160.53 1192.67,163.00              1192.67,163.00 1210.86,189.00 1210.86,189.00              1210.86,189.00 1256.72,255.00 1256.72,255.00              1261.84,262.33 1277.40,283.20 1280.00,290.00              1280.00,290.00 1212.00,290.00 1212.00,290.00              1212.00,290.00 1204.18,288.98 1204.18,288.98              1204.18,288.98 1189.67,269.00 1189.67,269.00              1189.67,269.00 1158.00,222.00 1158.00,222.00              1158.00,222.00 1142.00,197.00 1142.00,197.00              1137.80,200.01 1124.21,212.61 1122.60,217.00              1121.88,218.94 1122.00,221.91 1122.00,224.00              1122.00,224.00 1122.00,290.00 1122.00,290.00              1122.00,290.00 1053.00,290.00 1053.00,290.00              1053.00,290.00 1053.00,112.00 1053.00,112.00              1053.00,112.00 1052.00,97.00 1052.00,97.00              1052.00,97.00 1052.00,3.00 1052.00,3.00 Z            M 10.00,4.00            C 10.00,4.00 223.00,4.00 223.00,4.00              222.43,10.29 219.89,16.01 218.02,22.00              218.02,22.00 208.66,52.00 208.66,52.00              204.21,65.91 205.09,65.98 196.00,66.00              196.00,66.00 149.00,66.00 149.00,66.00              149.00,66.00 149.00,290.00 149.00,290.00              149.00,290.00 79.00,290.00 79.00,290.00              79.00,290.00 79.00,66.00 79.00,66.00              79.00,66.00 10.00,66.00 10.00,66.00              10.00,66.00 10.00,4.00 10.00,4.00 Z            M 264.00,4.44            C 275.80,2.92 287.56,6.07 295.82,15.04              310.50,30.99 306.82,57.81 288.00,68.80              280.26,73.33 275.56,73.10 267.00,73.00              243.81,72.72 229.85,47.86 237.10,27.00              241.49,14.35 251.11,6.93 264.00,4.44 Z            M 571.00,4.00            C 571.00,4.00 789.00,4.00 789.00,4.00              789.00,4.00 776.67,45.00 776.67,45.00              776.67,45.00 770.44,63.71 770.44,63.71              768.53,66.58 765.05,65.99 762.00,66.00              762.00,66.00 710.00,66.00 710.00,66.00              710.00,66.00 710.00,290.00 710.00,290.00              710.00,290.00 640.00,290.00 640.00,290.00              640.00,290.00 640.00,66.00 640.00,66.00              640.00,66.00 571.00,66.00 571.00,66.00              571.00,66.00 571.00,4.00 571.00,4.00 Z            M 894.00,56.51            C 906.01,56.27 922.58,59.82 934.00,63.67              947.80,68.31 958.69,74.66 970.00,83.80              1012.04,117.80 1024.28,180.48 998.69,228.00              985.93,251.70 968.21,267.79 944.00,279.22              927.97,286.79 909.65,290.20 892.00,290.00              883.27,289.89 871.44,287.53 863.00,285.14              823.55,273.96 792.86,241.68 782.89,202.00              779.35,187.90 779.84,178.28 780.00,164.00              780.15,151.45 785.76,133.27 791.26,122.00              804.44,94.95 828.60,73.60 857.00,63.69              868.90,59.54 881.53,57.89 894.00,56.51 Z            M 235.00,95.00            C 235.00,95.00 305.00,95.00 305.00,95.00              305.00,95.00 305.00,290.00 305.00,290.00              305.00,290.00 236.00,290.00 236.00,290.00              236.00,290.00 236.00,172.00 236.00,172.00              236.00,172.00 235.00,157.00 235.00,157.00              235.00,157.00 235.00,95.00 235.00,95.00 Z            M 892.00,117.28            C 876.71,119.53 866.63,122.81 855.43,134.29              831.83,158.45 835.47,198.03 862.00,218.47              870.56,225.07 883.28,229.05 894.00,229.82              899.43,230.20 909.84,228.15 915.00,226.19              946.07,214.37 961.25,179.03 946.24,149.00              942.45,141.41 938.63,135.91 932.00,130.46              926.55,125.99 920.69,122.61 914.00,120.36              907.58,118.19 898.74,116.68 892.00,117.28 Z" />
</svg>