<svg xmlns="http://www.w3.org/2000/svg" viewBox="19.5 15.47 984.15 482.03">
  <path id="topaz-labs-wordmark" fill="#303030" stroke="none" stroke-width="1"
    d="M 277.00,16.00            C 277.00,16.00 352.00,16.00 352.00,16.00              352.00,16.00 352.00,125.00 352.00,125.00              352.00,125.00 352.00,157.00 352.00,157.00              352.00,157.00 351.00,173.00 351.00,173.00              351.00,173.00 305.22,76.00 305.22,76.00              305.22,76.00 277.00,16.00 277.00,16.00 Z            M 374.00,16.00            C 374.00,16.00 485.00,16.00 485.00,16.00              485.00,16.00 485.00,62.00 485.00,62.00              485.00,62.00 453.00,62.00 453.00,62.00              453.00,62.00 453.00,384.00 453.00,384.00              453.00,384.00 406.00,384.00 406.00,384.00              406.00,384.00 406.00,62.00 406.00,62.00              406.00,62.00 374.00,62.00 374.00,62.00              374.00,62.00 374.00,16.00 374.00,16.00 Z            M 544.00,16.23            C 548.96,15.78 554.00,15.99 559.00,16.23              581.78,16.04 602.02,33.60 608.43,55.00              610.10,60.56 610.99,69.16 611.00,75.00              611.00,75.00 611.00,323.00 611.00,323.00              610.97,344.07 604.38,362.42 586.00,374.46              549.58,398.30 500.07,373.33 500.00,329.00              500.00,329.00 500.00,161.00 500.00,161.00              500.00,161.00 500.00,68.00 500.00,68.00              500.30,42.37 519.57,21.89 544.00,16.23 Z            M 633.00,16.00            C 633.00,16.00 692.00,16.00 692.00,16.00              721.61,16.05 743.96,43.48 744.00,72.00              744.00,72.00 744.00,194.00 744.00,194.00              744.00,194.00 744.00,253.00 744.00,253.00              744.00,274.39 746.96,294.26 734.33,313.00              730.42,318.80 725.73,323.91 720.00,327.96              715.08,331.43 710.76,333.55 705.00,335.28              695.47,338.14 689.65,338.00 680.00,338.00              680.00,338.00 680.00,384.00 680.00,384.00              680.00,384.00 633.00,384.00 633.00,384.00              633.00,384.00 633.00,16.00 633.00,16.00 Z            M 766.00,384.00            C 766.00,384.00 766.00,174.00 766.00,174.00              766.00,174.00 766.00,69.00 766.00,69.00              766.33,41.17 789.84,16.04 818.00,16.00              818.00,16.00 877.00,16.00 877.00,16.00              877.00,16.00 877.00,384.00 877.00,384.00              877.00,384.00 830.00,384.00 830.00,384.00              830.00,384.00 830.00,338.00 830.00,338.00              830.00,338.00 813.00,338.00 813.00,338.00              813.00,338.00 813.00,370.00 813.00,370.00              813.00,370.00 811.98,382.40 811.98,382.40              811.98,382.40 805.00,384.00 805.00,384.00              805.00,384.00 766.00,384.00 766.00,384.00 Z            M 892.00,16.00            C 892.00,16.00 1003.00,16.00 1003.00,16.00              1003.00,16.00 995.42,61.00 995.42,61.00              995.42,61.00 981.08,142.00 981.08,142.00              981.08,142.00 957.42,278.00 957.42,278.00              957.42,278.00 951.08,314.00 951.08,314.00              951.08,314.00 947.00,337.00 947.00,337.00              947.00,337.00 1003.00,337.00 1003.00,337.00              1003.00,337.00 1003.00,384.00 1003.00,384.00              1003.00,384.00 892.00,384.00 892.00,384.00              892.00,384.00 905.58,306.00 905.58,306.00              905.58,306.00 930.42,164.00 930.42,164.00              930.42,164.00 943.44,89.00 943.44,89.00              943.44,89.00 948.00,62.00 948.00,62.00              948.00,62.00 892.00,62.00 892.00,62.00              892.00,62.00 892.00,16.00 892.00,16.00 Z            M 35.00,100.00            C 37.89,95.71 46.17,94.03 51.00,92.31              51.00,92.31 88.00,78.58 88.00,78.58              88.00,78.58 192.00,39.95 192.00,39.95              192.00,39.95 241.00,22.00 241.00,22.00              241.00,22.00 229.69,55.00 229.69,55.00              229.69,55.00 211.05,107.00 211.05,107.00              211.05,107.00 203.67,128.00 203.67,128.00              203.67,128.00 199.58,135.89 199.58,135.89              199.58,135.89 188.00,134.58 188.00,134.58              188.00,134.58 156.00,127.12 156.00,127.12              156.00,127.12 78.00,109.35 78.00,109.35              78.00,109.35 35.00,100.00 35.00,100.00 Z            M 260.00,23.00            C 260.00,23.00 277.86,59.00 277.86,59.00              277.86,59.00 303.26,113.00 303.26,113.00              303.26,113.00 325.42,160.00 325.42,160.00              325.42,160.00 333.00,178.00 333.00,178.00              333.00,178.00 324.00,175.96 324.00,175.96              324.00,175.96 305.00,169.50 305.00,169.50              305.00,169.50 264.00,156.33 264.00,156.33              264.00,156.33 219.00,141.00 219.00,141.00              219.00,141.00 239.31,82.00 239.31,82.00              239.31,82.00 260.00,23.00 260.00,23.00 Z            M 554.00,62.38            C 546.83,64.38 546.09,68.19 546.00,75.00              546.00,75.00 546.00,127.00 546.00,127.00              546.00,127.00 546.00,322.00 546.00,322.00              546.01,325.65 545.82,330.54 548.09,333.67              551.22,337.86 559.03,337.87 562.26,333.67              564.29,331.12 563.99,327.14 564.00,324.00              564.00,324.00 564.00,123.00 564.00,123.00              564.00,123.00 564.00,74.00 564.00,74.00              563.90,66.57 562.33,62.10 554.00,62.38 Z            M 680.00,291.00            C 683.89,291.00 690.65,291.62 693.77,289.26              696.90,286.90 696.95,283.55 697.00,280.00              697.00,280.00 697.00,248.00 697.00,248.00              697.00,248.00 697.00,110.00 697.00,110.00              697.00,110.00 697.00,75.00 697.00,75.00              696.98,71.52 697.18,67.28 694.49,64.65              691.09,61.31 684.45,62.00 680.00,62.00              680.00,62.00 680.00,291.00 680.00,291.00 Z            M 830.00,62.00            C 825.30,62.00 817.84,61.20 814.60,65.28              812.27,68.20 813.00,76.19 813.00,80.00              813.00,80.00 813.00,116.00 813.00,116.00              813.00,116.00 813.00,291.00 813.00,291.00              813.00,291.00 830.00,291.00 830.00,291.00              830.00,291.00 830.00,62.00 830.00,62.00 Z            M 20.00,116.00            C 20.00,116.00 67.00,126.77 67.00,126.77              67.00,126.77 150.00,146.12 150.00,146.12              150.00,146.12 186.00,154.63 186.00,154.63              186.00,154.63 200.50,158.85 200.50,158.85              200.50,158.85 204.80,167.00 204.80,167.00              204.80,167.00 211.80,184.00 211.80,184.00              211.80,184.00 237.40,248.00 237.40,248.00              237.40,248.00 330.00,477.00 330.00,477.00              330.00,477.00 317.41,464.00 317.41,464.00              317.41,464.00 300.73,445.00 300.73,445.00              300.73,445.00 240.87,375.00 240.87,375.00              240.87,375.00 88.57,197.00 88.57,197.00              88.57,197.00 40.25,141.00 40.25,141.00              40.25,141.00 20.00,116.00 20.00,116.00 Z            M 219.00,163.00            C 227.34,164.18 242.36,169.79 251.00,172.67              251.00,172.67 312.00,192.98 312.00,192.98              312.00,192.98 338.00,201.33 338.00,201.33              340.48,202.16 347.80,204.26 349.40,205.84              351.38,207.79 350.98,211.43 351.00,214.00              351.00,214.00 352.00,230.00 352.00,230.00              352.00,230.00 352.00,295.00 352.00,295.00              352.00,295.00 353.00,312.00 353.00,312.00              353.00,312.00 353.00,395.00 353.00,395.00              353.00,395.00 354.00,410.00 354.00,410.00              354.00,410.00 354.00,476.00 354.00,476.00              354.08,482.54 356.44,490.85 354.00,497.00              354.00,497.00 331.00,441.00 331.00,441.00              331.00,441.00 288.99,337.00 288.99,337.00              288.99,337.00 242.20,221.00 242.20,221.00              242.20,221.00 219.00,163.00 219.00,163.00 Z            M 407.00,394.00            C 407.00,394.00 463.00,394.00 463.00,394.00              463.00,394.00 463.00,482.00 463.00,482.00              463.00,482.00 539.00,482.00 539.00,482.00              539.00,482.00 539.00,496.00 539.00,496.00              539.00,496.00 438.00,496.00 438.00,496.00              438.00,496.00 415.00,496.00 415.00,496.00              415.00,496.00 408.60,494.98 408.60,494.98              408.60,494.98 407.00,487.00 407.00,487.00              407.00,487.00 407.00,394.00 407.00,394.00 Z            M 557.00,496.00            C 557.00,496.00 557.00,415.00 557.00,415.00              557.00,412.53 556.80,409.30 558.02,407.10              561.51,400.80 580.02,397.56 587.00,396.44              611.43,392.51 661.08,394.00 688.00,394.00              688.00,394.00 688.00,496.00 688.00,496.00              688.00,496.00 633.00,496.00 633.00,496.00              633.00,496.00 633.00,483.00 633.00,483.00              633.00,483.00 612.00,483.00 612.00,483.00              612.00,485.83 612.69,493.17 610.40,494.98              608.42,496.54 598.90,496.00 596.00,496.00              596.00,496.00 557.00,496.00 557.00,496.00 Z            M 817.00,445.00            C 824.31,445.59 839.93,447.79 844.26,454.10              845.98,456.60 845.96,459.11 846.00,462.00              846.00,462.00 846.00,473.00 846.00,473.00              846.00,475.88 846.21,479.35 844.83,481.96              841.52,488.19 829.44,490.42 823.00,491.88              801.80,496.67 774.85,496.00 753.00,496.00              753.00,496.00 726.00,496.00 726.00,496.00              723.59,496.00 717.40,496.40 715.60,494.98              713.62,493.41 714.00,489.30 714.00,487.00              714.00,487.00 714.00,416.00 714.00,416.00              714.00,416.00 714.00,401.00 714.00,401.00              714.04,399.05 713.90,396.37 715.60,395.02              717.19,393.77 721.01,394.00 723.00,394.00              754.22,393.94 805.50,391.57 834.00,400.75              836.91,401.68 841.27,403.30 843.35,405.55              847.17,409.69 846.03,421.39 846.00,427.00              845.98,430.58 846.19,433.79 843.57,436.61              838.07,442.53 824.54,442.79 817.00,445.00 Z            M 948.00,481.00            C 948.00,481.00 948.00,462.00 948.00,462.00              948.00,459.84 948.22,456.24 946.98,454.43              945.44,452.20 942.43,452.09 940.00,451.73              933.47,450.75 927.55,451.01 921.00,451.00              911.74,450.99 893.88,448.22 885.00,445.56              876.71,443.08 872.13,441.17 872.00,432.00              872.00,432.00 872.00,415.00 872.00,415.00              872.00,412.53 871.80,409.30 873.02,407.10              874.90,403.71 879.49,402.00 883.00,400.89              890.83,398.41 897.90,397.11 906.00,396.00              928.92,392.86 957.32,393.19 980.00,397.80              985.88,399.00 998.96,401.66 1001.98,407.10              1003.20,409.30 1003.00,412.53 1003.00,415.00              1003.00,415.00 1003.00,423.00 1003.00,423.00              1003.00,423.00 948.00,423.00 948.00,423.00              948.00,420.14 948.47,412.60 946.98,410.43              944.58,406.94 930.42,406.94 928.02,410.43              926.87,412.11 927.01,415.03 927.00,417.00              927.00,417.00 927.00,437.00 927.00,437.00              935.66,438.14 938.46,437.99 947.00,438.00              947.00,438.00 976.00,440.92 976.00,440.92              982.68,442.02 998.41,444.94 1001.83,451.10              1003.75,454.57 1003.01,469.27 1003.00,474.00              1003.00,476.75 1003.22,480.38 1001.83,482.82              1000.03,485.95 996.23,487.49 993.00,488.65              985.57,491.31 977.78,492.61 970.00,493.73              959.12,495.30 947.01,496.02 936.00,496.00              936.00,496.00 917.00,495.00 917.00,495.00              912.21,494.94 899.81,493.17 895.00,492.12              889.10,490.82 876.58,488.18 873.31,482.79              871.78,480.26 872.01,476.86 872.00,474.00              872.00,474.00 872.00,467.00 872.00,467.00              872.00,467.00 927.00,467.00 927.00,467.00              927.00,467.00 927.00,481.00 927.00,481.00              937.40,482.37 937.60,482.37 948.00,481.00 Z            M 633.00,408.00            C 629.17,408.00 615.19,407.02 612.99,409.74              611.93,411.05 612.03,413.41 612.00,415.00              612.00,415.00 612.00,470.00 612.00,470.00              612.00,470.00 633.00,469.00 633.00,469.00              633.00,469.00 633.00,408.00 633.00,408.00 Z            M 790.00,437.00            C 790.00,437.00 790.00,415.00 790.00,415.00              790.00,415.00 788.40,409.02 788.40,409.02              788.40,409.02 770.00,408.00 770.00,408.00              770.00,408.00 770.00,438.00 770.00,438.00              770.00,438.00 790.00,437.00 790.00,437.00 Z            M 770.00,482.00            C 770.00,482.00 788.43,480.83 788.43,480.83              788.43,480.83 790.00,474.00 790.00,474.00              790.00,474.00 790.00,459.00 790.00,459.00              790.00,459.00 788.40,453.02 788.40,453.02              788.40,453.02 770.00,451.00 770.00,451.00              770.00,451.00 770.00,482.00 770.00,482.00 Z" />
</svg>