<svg xmlns="http://www.w3.org/2000/svg" viewBox="19.5 15.5 336.1 482">
  <path id="topaz-labs" fill="#303030" stroke="none" stroke-width="1"
    d="M 277.00,16.00            C 277.00,16.00 352.00,16.00 352.00,16.00              352.00,16.00 352.00,125.00 352.00,125.00              352.00,125.00 352.00,157.00 352.00,157.00              352.00,157.00 351.00,173.00 351.00,173.00              351.00,173.00 305.22,76.00 305.22,76.00              305.22,76.00 277.00,16.00 277.00,16.00 Z            M 35.00,100.00            C 37.89,95.71 46.17,94.03 51.00,92.31              51.00,92.31 88.00,78.58 88.00,78.58              88.00,78.58 192.00,39.95 192.00,39.95              192.00,39.95 241.00,22.00 241.00,22.00              241.00,22.00 229.69,55.00 229.69,55.00              229.69,55.00 211.05,107.00 211.05,107.00              211.05,107.00 203.67,128.00 203.67,128.00              203.67,128.00 199.58,135.89 199.58,135.89              199.58,135.89 188.00,134.58 188.00,134.58              188.00,134.58 156.00,127.12 156.00,127.12              156.00,127.12 78.00,109.35 78.00,109.35              78.00,109.35 35.00,100.00 35.00,100.00 Z            M 260.00,23.00            C 260.00,23.00 277.86,59.00 277.86,59.00              277.86,59.00 303.26,113.00 303.26,113.00              303.26,113.00 325.42,160.00 325.42,160.00              325.42,160.00 333.00,178.00 333.00,178.00              333.00,178.00 324.00,175.96 324.00,175.96              324.00,175.96 305.00,169.50 305.00,169.50              305.00,169.50 264.00,156.33 264.00,156.33              264.00,156.33 219.00,141.00 219.00,141.00              219.00,141.00 239.31,82.00 239.31,82.00              239.31,82.00 260.00,23.00 260.00,23.00 Z            M 20.00,116.00            C 20.00,116.00 67.00,126.77 67.00,126.77              67.00,126.77 150.00,146.12 150.00,146.12              150.00,146.12 186.00,154.63 186.00,154.63              186.00,154.63 200.50,158.85 200.50,158.85              200.50,158.85 204.80,167.00 204.80,167.00              204.80,167.00 211.80,184.00 211.80,184.00              211.80,184.00 237.40,248.00 237.40,248.00              237.40,248.00 330.00,477.00 330.00,477.00              330.00,477.00 317.41,464.00 317.41,464.00              317.41,464.00 300.73,445.00 300.73,445.00              300.73,445.00 240.87,375.00 240.87,375.00              240.87,375.00 88.57,197.00 88.57,197.00              88.57,197.00 40.25,141.00 40.25,141.00              40.25,141.00 20.00,116.00 20.00,116.00 Z            M 219.00,163.00            C 227.34,164.18 242.36,169.79 251.00,172.67              251.00,172.67 312.00,192.98 312.00,192.98              312.00,192.98 338.00,201.33 338.00,201.33              340.48,202.16 347.80,204.26 349.40,205.84              351.38,207.79 350.98,211.43 351.00,214.00              351.00,214.00 352.00,230.00 352.00,230.00              352.00,230.00 352.00,295.00 352.00,295.00              352.00,295.00 353.00,312.00 353.00,312.00              353.00,312.00 353.00,395.00 353.00,395.00              353.00,395.00 354.00,410.00 354.00,410.00              354.00,410.00 354.00,476.00 354.00,476.00              354.08,482.54 356.44,490.85 354.00,497.00              354.00,497.00 331.00,441.00 331.00,441.00              331.00,441.00 288.99,337.00 288.99,337.00              288.99,337.00 242.20,221.00 242.20,221.00              242.20,221.00 219.00,163.00 219.00,163.00 Z" />
</svg>