<svg xmlns="http://www.w3.org/2000/svg" viewBox="-0.5 -0.5 965.01 976">
  <path id="tplink" fill="#303030" stroke="none" stroke-width="1"
    d="M 248.00,439.00            C 248.00,439.00 248.00,352.00 248.00,352.00              248.00,352.00 248.96,339.00 248.96,339.00              252.01,269.12 278.09,201.28 319.15,145.00              365.17,81.92 432.59,36.61 507.00,14.28              530.76,7.15 555.27,2.64 580.00,0.91              580.00,0.91 590.00,0.00 590.00,0.00              590.00,0.00 633.00,0.00 633.00,0.00              647.38,0.17 672.60,3.92 687.00,6.80              749.34,19.27 804.74,46.41 852.00,89.17              911.41,142.91 947.91,219.36 959.57,298.00              963.17,322.25 964.11,346.52 964.00,371.00              964.00,371.00 963.09,382.00 963.09,382.00              961.52,404.95 958.71,427.60 953.11,450.00              945.44,480.67 933.76,510.21 918.69,538.00              877.15,614.63 809.19,671.80 728.00,702.42              698.17,713.67 666.65,719.82 635.00,722.96              635.00,722.96 625.00,722.96 625.00,722.96              625.00,722.96 613.00,724.00 613.00,724.00              613.00,724.00 529.00,724.00 529.00,724.00              529.00,724.00 529.00,518.00 529.00,518.00              529.00,518.00 612.00,518.00 612.00,518.00              627.02,517.98 644.87,514.11 659.00,509.05              681.69,500.92 702.43,487.70 718.91,470.00              738.63,448.82 752.44,420.45 757.58,392.00              757.58,392.00 760.82,361.00 760.82,361.00              760.82,361.00 760.01,350.00 760.01,350.00              759.43,325.89 753.22,301.26 741.69,280.00              733.94,265.70 724.74,254.26 713.00,243.04              701.58,232.12 686.58,223.06 672.00,217.01              653.31,209.26 629.22,204.77 609.00,205.00              609.00,205.00 600.00,205.83 600.00,205.83              579.27,207.84 560.91,211.46 542.00,220.76              516.68,233.21 496.93,248.90 480.43,272.00              462.70,296.80 453.99,322.79 451.91,353.00              451.91,353.00 451.00,365.00 451.00,365.00              451.00,365.00 451.00,439.00 451.00,439.00              451.00,439.00 248.00,439.00 248.00,439.00 Z            M 0.00,511.00            C 0.00,511.00 458.00,511.00 458.00,511.00              458.00,511.00 458.00,975.00 458.00,975.00              458.00,975.00 291.00,975.00 291.00,975.00              261.79,974.95 242.13,949.98 242.00,922.00              242.00,922.00 242.00,730.00 242.00,730.00              242.00,730.00 53.00,730.00 53.00,730.00              24.93,729.96 0.05,710.32 0.00,681.00              0.00,681.00 0.00,511.00 0.00,511.00 Z" />
</svg>