<svg xmlns="http://www.w3.org/2000/svg" viewBox="-0.5 -0.5 2561 976">
  <path id="tplink-wordmark" fill="#303030" stroke="none" stroke-width="1"
    d="M 248.00,439.00            C 248.00,439.00 248.00,352.00 248.00,352.00              248.00,352.00 248.96,339.00 248.96,339.00              252.01,269.12 278.09,201.28 319.15,145.00              365.17,81.92 432.59,36.61 507.00,14.28              530.76,7.15 555.27,2.64 580.00,0.91              580.00,0.91 590.00,0.00 590.00,0.00              590.00,0.00 633.00,0.00 633.00,0.00              647.38,0.17 672.60,3.92 687.00,6.80              749.34,19.27 804.74,46.41 852.00,89.17              911.41,142.91 947.91,219.36 959.57,298.00              963.17,322.25 964.11,346.52 964.00,371.00              964.00,371.00 963.09,382.00 963.09,382.00              961.52,404.95 958.71,427.60 953.11,450.00              945.44,480.67 933.76,510.21 918.69,538.00              877.15,614.63 809.19,671.80 728.00,702.42              698.17,713.67 666.65,719.82 635.00,722.96              635.00,722.96 625.00,722.96 625.00,722.96              625.00,722.96 613.00,724.00 613.00,724.00              613.00,724.00 529.00,724.00 529.00,724.00              529.00,724.00 529.00,518.00 529.00,518.00              529.00,518.00 612.00,518.00 612.00,518.00              627.02,517.98 644.87,514.11 659.00,509.05              681.69,500.92 702.43,487.70 718.91,470.00              738.63,448.82 752.44,420.45 757.58,392.00              757.58,392.00 760.82,361.00 760.82,361.00              760.82,361.00 760.01,350.00 760.01,350.00              759.43,325.89 753.22,301.26 741.69,280.00              733.94,265.70 724.74,254.26 713.00,243.04              701.58,232.12 686.58,223.06 672.00,217.01              653.31,209.26 629.22,204.77 609.00,205.00              609.00,205.00 600.00,205.83 600.00,205.83              579.27,207.84 560.91,211.46 542.00,220.76              516.68,233.21 496.93,248.90 480.43,272.00              462.70,296.80 453.99,322.79 451.91,353.00              451.91,353.00 451.00,365.00 451.00,365.00              451.00,365.00 451.00,439.00 451.00,439.00              451.00,439.00 248.00,439.00 248.00,439.00 Z            M 1909.00,325.44            C 1932.92,322.37 1954.88,339.23 1954.84,364.00              1954.84,364.00 1954.84,374.00 1954.84,374.00              1953.84,379.01 1949.75,389.37 1944.83,391.40              1943.08,392.12 1939.93,392.00 1938.00,392.00              1938.00,392.00 1891.00,392.00 1891.00,392.00              1889.03,392.00 1885.88,392.12 1884.09,391.40              1879.18,389.43 1875.04,378.99 1874.15,374.00              1874.15,374.00 1874.15,364.00 1874.15,364.00              1874.03,342.46 1888.70,329.24 1909.00,325.44 Z            M 1823.00,331.00            C 1823.00,331.00 1824.00,344.00 1824.00,344.00              1824.00,344.00 1824.00,367.00 1824.00,367.00              1824.00,367.00 1824.00,449.00 1824.00,449.00              1824.00,449.00 1824.00,730.00 1824.00,730.00              1824.00,730.00 1791.00,730.00 1791.00,730.00              1781.62,730.00 1768.25,731.44 1764.65,720.00              1763.89,717.60 1764.00,714.52 1764.00,712.00              1764.00,712.00 1764.00,369.00 1764.00,369.00              1764.02,359.16 1764.41,360.55 1780.00,352.75              1780.00,352.75 1823.00,331.00 1823.00,331.00 Z            M 2376.00,596.00            C 2376.00,596.00 2376.00,699.00 2376.00,699.00              2376.00,699.00 2376.00,722.00 2376.00,722.00              2375.99,723.82 2376.15,726.92 2374.98,728.40              2373.41,730.38 2369.30,730.00 2367.00,730.00              2367.00,730.00 2334.00,730.00 2334.00,730.00              2328.80,729.99 2324.46,729.93 2320.21,726.36              2315.28,722.23 2315.01,716.87 2315.00,711.00              2315.00,711.00 2315.00,369.00 2315.00,369.00              2315.02,359.34 2315.29,360.60 2330.00,353.25              2330.00,353.25 2375.00,331.00 2375.00,331.00              2375.00,331.00 2376.00,358.00 2376.00,358.00              2376.00,358.00 2376.00,408.00 2376.00,408.00              2376.00,408.00 2376.00,573.00 2376.00,573.00              2376.00,573.00 2404.08,540.00 2404.08,540.00              2404.08,540.00 2450.92,484.00 2450.92,484.00              2450.92,484.00 2465.08,467.00 2465.08,467.00              2471.84,458.90 2472.25,455.02 2483.00,455.00              2483.00,455.00 2547.00,455.00 2547.00,455.00              2543.02,461.81 2526.45,479.90 2520.28,487.00              2520.28,487.00 2464.72,551.00 2464.72,551.00              2464.72,551.00 2443.85,575.00 2443.85,575.00              2441.87,577.24 2436.97,581.96 2436.97,585.00              2436.97,588.15 2442.63,593.60 2444.72,596.00              2444.72,596.00 2467.42,622.00 2467.42,622.00              2467.42,622.00 2531.28,695.00 2531.28,695.00              2531.28,695.00 2550.58,717.00 2550.58,717.00              2554.53,721.59 2557.75,724.26 2560.00,730.00              2560.00,730.00 2494.00,730.00 2494.00,730.00              2482.98,729.98 2482.18,725.35 2475.39,717.00              2475.39,717.00 2459.00,697.00 2459.00,697.00              2459.00,697.00 2407.42,634.00 2407.42,634.00              2407.42,634.00 2376.00,596.00 2376.00,596.00 Z            M 1252.00,730.00            C 1252.00,730.00 1191.00,730.00 1191.00,730.00              1161.07,730.00 1129.66,729.92 1108.30,705.00              1086.84,679.96 1091.00,643.73 1091.00,613.00              1091.00,613.00 1091.00,410.00 1091.00,410.00              1091.02,400.63 1091.02,402.29 1106.00,394.75              1106.00,394.75 1152.00,372.00 1152.00,372.00              1152.00,372.00 1152.00,455.00 1152.00,455.00              1152.00,455.00 1229.00,455.00 1229.00,455.00              1229.00,455.00 1229.00,509.00 1229.00,509.00              1229.00,509.00 1152.00,509.00 1152.00,509.00              1152.00,509.00 1152.00,640.00 1152.00,640.00              1152.06,652.52 1155.10,666.06 1167.00,672.59              1173.27,676.03 1180.97,676.99 1188.00,677.00              1188.00,677.00 1252.00,677.00 1252.00,677.00              1252.00,677.00 1252.00,730.00 1252.00,730.00 Z            M 2065.00,730.00            C 2065.00,730.00 2031.00,730.00 2031.00,730.00              2026.27,730.00 2018.17,730.53 2014.00,728.77              2005.92,725.38 2005.01,719.75 2005.00,712.00              2005.00,712.00 2005.00,516.00 2005.00,516.00              2005.01,513.32 2004.85,510.54 2005.85,508.00              2008.44,501.42 2024.15,486.54 2030.00,481.80              2059.49,457.96 2096.36,446.56 2134.00,447.00              2143.59,447.12 2157.73,449.63 2167.00,452.29              2218.75,467.17 2253.82,511.66 2258.08,565.00              2258.08,565.00 2259.00,575.00 2259.00,575.00              2259.00,575.00 2259.00,730.00 2259.00,730.00              2259.00,730.00 2199.00,730.00 2199.00,730.00              2199.00,730.00 2199.00,609.00 2199.00,609.00              2199.00,581.08 2201.74,558.35 2184.56,534.00              2163.42,504.03 2125.10,497.35 2093.00,512.78              2085.13,516.57 2078.17,521.86 2072.00,528.00              2069.78,530.21 2066.69,533.04 2065.60,536.00              2064.88,537.94 2065.00,540.91 2065.00,543.00              2065.00,543.00 2065.00,730.00 2065.00,730.00 Z            M 1347.00,833.00            C 1347.00,833.00 1312.00,833.00 1312.00,833.00              1306.50,833.00 1298.80,833.72 1294.02,830.91              1287.43,827.06 1287.01,821.79 1287.00,815.00              1287.00,815.00 1287.00,524.00 1287.00,524.00              1287.01,521.35 1286.85,518.51 1287.85,516.00              1290.95,508.25 1306.32,493.98 1313.00,488.43              1344.57,462.21 1384.28,449.53 1425.00,450.00              1466.94,450.49 1507.85,472.08 1532.25,506.00              1546.78,526.18 1557.96,556.99 1558.00,582.00              1558.00,582.00 1558.00,603.00 1558.00,603.00              1557.73,625.61 1547.47,654.59 1534.56,673.00              1528.51,681.64 1521.88,689.06 1514.00,696.05              1493.13,714.59 1466.59,725.40 1439.00,728.72              1419.73,731.03 1394.87,730.00 1375.00,730.00              1375.00,730.00 1375.00,677.00 1375.00,677.00              1375.00,677.00 1405.00,677.00 1405.00,677.00              1428.54,677.00 1445.19,676.65 1465.00,661.32              1511.79,625.11 1508.48,543.38 1454.00,515.97              1427.58,502.67 1393.48,505.98 1369.00,522.08              1362.87,526.11 1350.01,537.16 1347.70,544.00              1346.88,546.44 1347.00,549.44 1347.00,552.00              1347.00,552.00 1347.00,833.00 1347.00,833.00 Z            M 1884.00,455.00            C 1884.00,455.00 1945.00,455.00 1945.00,455.00              1945.00,455.00 1945.00,730.00 1945.00,730.00              1945.00,730.00 1910.00,730.00 1910.00,730.00              1904.44,730.00 1896.87,730.72 1892.00,727.91              1884.63,723.67 1884.01,717.61 1884.00,710.00              1884.00,710.00 1884.00,455.00 1884.00,455.00 Z            M 0.00,511.00            C 0.00,511.00 458.00,511.00 458.00,511.00              458.00,511.00 458.00,975.00 458.00,975.00              458.00,975.00 291.00,975.00 291.00,975.00              261.79,974.95 242.13,949.98 242.00,922.00              242.00,922.00 242.00,730.00 242.00,730.00              242.00,730.00 53.00,730.00 53.00,730.00              24.93,729.96 0.05,710.32 0.00,681.00              0.00,681.00 0.00,511.00 0.00,511.00 Z            M 1601.00,561.00            C 1601.00,561.00 1712.00,561.00 1712.00,561.00              1712.00,561.00 1712.00,623.00 1712.00,623.00              1712.00,623.00 1638.00,623.00 1638.00,623.00              1627.02,622.98 1629.03,620.99 1622.74,608.00              1622.74,608.00 1609.75,581.00 1609.75,581.00              1606.53,574.54 1602.66,568.05 1601.00,561.00 Z" />
</svg>