<svg xmlns="http://www.w3.org/2000/svg" viewBox="-0.5 92.84 1201 444.46">
  <path id="ts-node-wordmark" fill="#303030" stroke="none" stroke-width="1"
    d="M 117.00,495.00            C 117.00,495.00 88.00,478.42 88.00,478.42              88.00,478.42 30.00,444.85 30.00,444.85              22.28,440.42 7.36,433.43 3.09,426.00              0.34,421.24 0.01,415.35 0.00,410.00              0.00,410.00 0.00,219.00 0.00,219.00              0.01,214.09 0.08,209.49 2.44,205.00              6.50,197.26 19.35,191.07 27.00,186.72              27.00,186.72 91.00,149.72 91.00,149.72              91.00,149.72 167.00,105.85 167.00,105.85              176.45,100.45 188.60,90.86 200.00,93.93              206.01,95.54 212.54,100.02 218.00,103.15              218.00,103.15 250.00,121.58 250.00,121.58              250.00,121.58 348.00,178.20 348.00,178.20              348.00,178.20 373.00,192.60 373.00,192.60              377.99,195.56 382.78,197.97 386.03,203.00              389.06,207.67 388.99,210.71 389.00,216.00              389.00,216.00 389.00,321.00 389.00,321.00              389.00,321.00 389.00,413.00 389.00,413.00              388.98,426.47 385.50,430.17 374.00,436.72              369.78,439.13 367.75,440.61 363.00,442.00              353.08,421.67 331.66,411.54 312.00,402.86              302.55,398.69 286.32,393.17 281.09,384.00              279.47,381.18 279.03,378.20 279.03,375.00              279.03,364.16 286.52,357.88 297.00,357.21              309.00,356.45 319.72,363.99 324.00,375.00              324.00,375.00 347.00,360.00 347.00,360.00              348.96,358.71 353.91,356.05 354.47,353.79              355.17,350.96 350.29,345.14 348.54,343.00              340.08,332.69 329.94,326.28 317.00,323.24              279.72,314.47 237.04,334.10 238.01,377.00              238.11,381.20 239.28,388.94 240.43,393.00              248.33,421.01 274.76,431.74 299.00,442.15              305.22,444.82 316.21,449.63 320.90,454.18              323.13,456.36 326.44,460.46 324.87,463.79              323.58,466.54 311.25,472.99 308.00,474.85              304.18,477.03 290.15,485.71 287.00,486.16              277.06,487.58 263.89,471.94 260.00,464.00              260.00,464.00 226.00,483.00 226.00,483.00              231.30,492.90 237.78,501.40 247.00,508.00              247.00,508.00 247.00,510.00 247.00,510.00              247.00,510.00 217.00,527.42 217.00,527.42              211.03,530.89 203.94,535.83 197.00,536.69              188.15,537.78 177.44,530.12 170.00,525.85              167.74,524.55 161.30,521.26 159.99,519.37              158.74,517.56 159.00,514.15 159.00,512.00              159.00,512.00 159.00,360.00 159.00,360.00              159.00,360.00 215.00,360.00 215.00,360.00              215.00,360.00 215.00,323.00 215.00,323.00              215.00,323.00 61.00,323.00 61.00,323.00              61.00,323.00 61.00,360.00 61.00,360.00              61.00,360.00 117.00,360.00 117.00,360.00              117.00,360.00 117.00,495.00 117.00,495.00 Z            M 950.43,233.04            C 956.03,231.18 963.13,236.83 968.00,239.58              968.00,239.58 991.00,252.42 991.00,252.42              994.41,254.38 998.93,256.47 1000.83,260.04              1002.21,262.65 1002.00,266.11 1002.00,269.00              1002.00,269.00 1002.00,467.00 1002.00,467.00              1002.00,469.40 1002.13,472.76 1001.26,474.99              999.14,480.41 989.07,484.94 984.00,487.85              984.00,487.85 942.00,512.15 942.00,512.15              936.85,515.09 925.58,522.88 920.00,522.29              916.01,521.87 908.68,517.26 905.00,515.15              905.00,515.15 874.00,497.15 874.00,497.15              874.00,497.15 852.00,484.42 852.00,484.42              848.26,482.27 843.25,479.91 841.17,475.96              839.79,473.33 840.00,469.91 840.00,467.00              840.00,467.00 840.00,394.00 840.00,394.00              840.00,391.60 839.87,388.24 840.74,386.01              842.86,380.59 852.93,376.06 858.00,373.15              858.00,373.15 899.00,349.42 899.00,349.42              903.44,346.88 914.74,339.74 919.00,338.88              925.11,337.64 932.86,343.67 938.00,346.57              940.17,347.80 944.05,350.28 946.40,348.30              948.32,346.68 948.00,342.31 948.14,340.00              948.14,340.00 948.14,262.00 948.14,262.00              948.14,262.00 948.14,236.06 948.14,236.06              949.03,234.04 949.20,234.37 950.43,233.04 Z            M 523.00,336.67            C 528.98,335.96 531.99,338.44 537.00,341.28              537.00,341.28 560.00,354.58 560.00,354.58              560.00,354.58 590.00,371.85 590.00,371.85              593.48,373.84 602.16,378.30 604.26,381.21              606.30,384.02 605.99,387.70 606.00,391.00              606.00,391.00 606.00,492.00 606.00,492.00              605.99,495.15 606.55,500.88 602.77,502.16              599.31,503.32 591.23,497.55 588.00,495.72              588.00,495.72 564.00,482.00 564.00,482.00              560.93,480.24 555.93,477.89 554.17,474.82              552.78,472.37 553.00,468.76 553.00,466.00              553.00,466.00 553.00,425.00 553.00,425.00              552.98,420.30 552.89,415.97 549.58,412.21              547.03,409.30 537.76,404.29 534.00,402.15              531.74,400.87 528.60,398.79 526.00,398.60              522.43,398.34 517.09,401.81 514.00,403.58              503.41,409.64 498.02,410.75 498.00,424.00              498.00,424.00 498.00,465.00 498.00,465.00              498.00,467.89 498.21,471.35 496.83,473.96              494.85,477.70 489.60,480.23 486.00,482.28              486.00,482.28 465.00,494.28 465.00,494.28              462.20,495.87 452.46,501.84 450.02,502.21              445.24,502.93 445.07,498.41 445.00,495.00              445.00,495.00 445.00,473.00 445.00,473.00              445.00,473.00 444.00,457.00 444.00,457.00              444.00,457.00 444.00,393.00 444.00,393.00              444.01,389.74 443.82,385.99 445.31,383.02              447.82,378.01 457.07,373.83 462.00,371.00              462.00,371.00 501.00,348.58 501.00,348.58              507.39,344.87 516.29,339.03 523.00,336.67 Z            M 1117.00,337.67            C 1124.46,336.78 1132.65,343.35 1139.00,347.00              1139.00,347.00 1183.00,372.58 1183.00,372.58              1192.63,378.17 1199.85,379.59 1200.00,392.00              1200.00,392.00 1200.00,402.00 1200.00,402.00              1199.99,405.26 1200.21,408.89 1198.55,411.82              1196.53,415.36 1191.46,417.86 1188.00,419.85              1188.00,419.85 1166.00,432.60 1166.00,432.60              1162.85,434.47 1153.29,440.75 1150.06,440.46              1145.45,440.05 1146.01,434.30 1146.00,431.00              1145.99,427.86 1146.34,418.45 1145.40,416.04              1143.48,411.07 1130.87,405.02 1126.00,402.28              1124.08,401.20 1120.78,399.08 1118.58,399.16              1116.40,399.25 1112.92,401.48 1111.00,402.58              1106.18,405.33 1093.70,411.19 1091.74,416.04              1090.58,418.91 1090.95,432.13 1091.00,436.00              1091.15,446.81 1097.57,448.34 1106.00,453.15              1106.00,453.15 1149.00,477.85 1149.00,477.85              1149.00,477.85 1164.89,487.10 1164.89,487.10              1166.70,488.47 1168.63,490.32 1168.04,492.83              1167.38,495.61 1163.29,497.51 1161.00,498.77              1161.00,498.77 1143.00,508.77 1143.00,508.77              1143.00,508.77 1123.00,519.53 1123.00,519.53              1116.68,521.85 1113.43,519.23 1108.00,516.15              1108.00,516.15 1085.00,503.00 1085.00,503.00              1085.00,503.00 1055.00,485.85 1055.00,485.85              1051.49,483.84 1042.95,479.48 1040.70,476.67              1038.02,473.33 1038.02,469.05 1038.00,465.00              1038.00,465.00 1038.00,395.00 1038.00,395.00              1038.01,391.57 1037.89,387.17 1039.43,384.04              1041.75,379.32 1052.26,374.30 1057.00,371.58              1057.00,371.58 1092.00,351.40 1092.00,351.40              1098.05,347.81 1111.01,339.82 1117.00,337.67 Z            M 719.00,338.81            C 726.78,336.84 730.50,340.19 737.00,344.01              737.00,344.01 757.00,355.60 757.00,355.60              757.00,355.60 787.00,372.99 787.00,372.99              797.95,379.42 802.98,379.05 803.00,392.00              803.00,392.00 803.00,466.00 803.00,466.00              802.98,478.31 800.70,477.04 786.00,485.80              786.00,485.80 747.00,508.28 747.00,508.28              747.00,508.28 728.00,519.01 728.00,519.01              721.11,521.59 716.77,518.44 711.00,515.15              711.00,515.15 690.00,503.00 690.00,503.00              690.00,503.00 659.00,485.01 659.00,485.01              648.40,478.79 643.03,479.05 643.00,466.00              643.00,466.00 643.00,393.00 643.00,393.00              643.01,389.75 642.79,386.10 644.45,383.18              646.73,379.20 656.74,374.49 661.00,371.99              661.00,371.99 719.00,338.81 719.00,338.81 Z            M 921.00,399.89            C 915.70,400.63 907.01,406.70 902.00,409.58              899.94,410.77 896.27,412.56 894.99,414.53              893.76,416.43 894.00,419.77 894.00,422.00              894.00,422.00 894.00,441.00 894.00,441.00              894.03,442.83 893.95,444.87 894.99,446.47              896.61,448.97 907.79,454.74 911.00,456.58              913.14,457.80 917.73,460.67 920.00,460.92              923.47,461.29 928.98,457.57 932.00,455.85              935.44,453.88 945.19,448.85 946.98,445.79              948.67,442.89 948.01,427.28 948.00,423.00              948.00,420.57 948.20,417.33 946.98,415.18              945.45,412.51 941.62,410.65 939.00,409.15              933.91,406.24 926.45,401.16 921.00,399.89 Z            M 1117.00,412.69            C 1122.01,412.14 1131.38,416.14 1133.40,421.10              1134.22,423.11 1134.04,429.56 1134.00,432.00              1133.96,433.95 1134.00,436.05 1132.98,437.79              1131.53,440.25 1123.80,444.64 1121.00,445.31              1117.41,446.17 1115.00,444.53 1112.00,442.85              1109.77,441.60 1106.36,439.89 1104.81,437.67              1103.63,435.38 1103.55,423.68 1104.81,421.18              1106.12,417.56 1113.44,414.03 1117.00,412.69 Z" />
</svg>