<svg xmlns="http://www.w3.org/2000/svg" viewBox="-0.5 92.84 390 444.46">
  <path id="ts-node" fill="#303030" stroke="none" stroke-width="1"
    d="M 117.00,495.00            C 117.00,495.00 88.00,478.42 88.00,478.42              88.00,478.42 30.00,444.85 30.00,444.85              22.28,440.42 7.36,433.43 3.09,426.00              0.34,421.24 0.01,415.35 0.00,410.00              0.00,410.00 0.00,219.00 0.00,219.00              0.01,214.09 0.08,209.49 2.44,205.00              6.50,197.26 19.35,191.07 27.00,186.72              27.00,186.72 91.00,149.72 91.00,149.72              91.00,149.72 167.00,105.85 167.00,105.85              176.45,100.45 188.60,90.86 200.00,93.93              206.01,95.54 212.54,100.02 218.00,103.15              218.00,103.15 250.00,121.58 250.00,121.58              250.00,121.58 348.00,178.20 348.00,178.20              348.00,178.20 373.00,192.60 373.00,192.60              377.99,195.56 382.78,197.97 386.03,203.00              389.06,207.67 388.99,210.71 389.00,216.00              389.00,216.00 389.00,321.00 389.00,321.00              389.00,321.00 389.00,413.00 389.00,413.00              388.98,426.47 385.50,430.17 374.00,436.72              369.78,439.13 367.75,440.61 363.00,442.00              353.08,421.67 331.66,411.54 312.00,402.86              302.55,398.69 286.32,393.17 281.09,384.00              279.47,381.18 279.03,378.20 279.03,375.00              279.03,364.16 286.52,357.88 297.00,357.21              309.00,356.45 319.72,363.99 324.00,375.00              324.00,375.00 347.00,360.00 347.00,360.00              348.96,358.71 353.91,356.05 354.47,353.79              355.17,350.96 350.29,345.14 348.54,343.00              340.08,332.69 329.94,326.28 317.00,323.24              279.72,314.47 237.04,334.10 238.01,377.00              238.11,381.20 239.28,388.94 240.43,393.00              248.33,421.01 274.76,431.74 299.00,442.15              305.22,444.82 316.21,449.63 320.90,454.18              323.13,456.36 326.44,460.46 324.87,463.79              323.58,466.54 311.25,472.99 308.00,474.85              304.18,477.03 290.15,485.71 287.00,486.16              277.06,487.58 263.89,471.94 260.00,464.00              260.00,464.00 226.00,483.00 226.00,483.00              231.30,492.90 237.78,501.40 247.00,508.00              247.00,508.00 247.00,510.00 247.00,510.00              247.00,510.00 217.00,527.42 217.00,527.42              211.03,530.89 203.94,535.83 197.00,536.69              188.15,537.78 177.44,530.12 170.00,525.85              167.74,524.55 161.30,521.26 159.99,519.37              158.74,517.56 159.00,514.15 159.00,512.00              159.00,512.00 159.00,360.00 159.00,360.00              159.00,360.00 215.00,360.00 215.00,360.00              215.00,360.00 215.00,323.00 215.00,323.00              215.00,323.00 61.00,323.00 61.00,323.00              61.00,323.00 61.00,360.00 61.00,360.00              61.00,360.00 117.00,360.00 117.00,360.00              117.00,360.00 117.00,495.00 117.00,495.00 Z" />
</svg>