<svg xmlns="http://www.w3.org/2000/svg" viewBox="18.19 8.5 125.32 303.16">
  <path id="ttec" fill="#303030" stroke="none" stroke-width="1"
    d="M 95.00,78.00            C 95.00,78.00 95.00,189.00 95.00,189.00              95.02,204.90 101.88,216.39 117.00,222.55              121.43,224.35 126.24,225.48 131.00,225.93              133.95,226.20 139.25,226.35 141.40,228.58              143.04,230.28 142.96,232.81 143.00,235.00              143.00,235.00 143.00,247.00 143.00,247.00              142.84,255.52 138.68,256.26 131.00,255.96              92.17,254.46 64.06,230.04 64.00,190.00              64.00,190.00 64.00,83.00 64.00,83.00              64.00,83.00 64.00,20.00 64.00,20.00              64.02,11.32 64.75,9.06 74.00,9.00              74.00,9.00 86.00,9.00 86.00,9.00              95.10,9.17 94.99,13.24 95.00,21.00              95.00,21.00 95.00,47.00 95.00,47.00              95.00,47.00 113.00,47.00 113.00,47.00              115.53,47.01 119.36,46.66 121.26,48.60              123.88,51.27 123.01,63.02 123.00,67.00              123.00,69.77 123.32,74.29 121.26,76.40              119.36,78.34 115.53,77.99 113.00,78.00              113.00,78.00 95.00,78.00 95.00,78.00 Z            M 21.31,48.02            C 25.92,46.27 36.66,46.91 42.00,47.00              44.55,47.05 47.23,46.93 48.83,49.31              50.62,52.01 50.02,64.21 50.00,68.00              49.99,70.58 50.20,74.42 48.26,76.40              46.36,78.34 42.53,77.99 40.00,78.00              36.38,78.01 23.80,78.63 21.31,76.98              18.55,75.14 19.01,70.91 19.00,68.00              18.99,62.40 17.46,52.15 21.31,48.02 Z            M 20.52,231.02            C 24.94,229.21 33.93,229.99 39.00,230.00              41.14,230.00 44.71,229.77 46.49,231.02              48.54,232.46 49.83,237.56 50.87,240.00              53.14,245.30 56.64,251.58 60.32,256.00              75.72,274.49 97.74,280.92 121.00,282.04              124.29,282.20 139.77,282.97 141.40,284.60              143.32,286.52 142.99,290.46 143.00,293.00              143.00,293.00 143.00,300.00 143.00,300.00              143.00,302.31 143.20,305.77 141.98,307.77              139.30,312.16 129.63,311.05 125.00,311.00              125.00,311.00 115.00,310.09 115.00,310.09              80.18,307.65 49.99,298.36 30.42,267.00              24.88,258.11 22.29,252.20 19.88,242.00              18.90,237.82 17.64,234.59 20.52,231.02 Z" />
</svg>