<svg xmlns="http://www.w3.org/2000/svg" viewBox="18.19 8.5 574.08 303.16">
  <path id="ttec-wordmark" fill="#303030" stroke="none" stroke-width="1"
    d="M 95.00,78.00            C 95.00,78.00 95.00,189.00 95.00,189.00              95.02,204.90 101.88,216.39 117.00,222.55              121.43,224.35 126.24,225.48 131.00,225.93              133.95,226.20 139.25,226.35 141.40,228.58              143.04,230.28 142.96,232.81 143.00,235.00              143.00,235.00 143.00,247.00 143.00,247.00              142.84,255.52 138.68,256.26 131.00,255.96              92.17,254.46 64.06,230.04 64.00,190.00              64.00,190.00 64.00,83.00 64.00,83.00              64.00,83.00 64.00,20.00 64.00,20.00              64.02,11.32 64.75,9.06 74.00,9.00              74.00,9.00 86.00,9.00 86.00,9.00              95.10,9.17 94.99,13.24 95.00,21.00              95.00,21.00 95.00,47.00 95.00,47.00              95.00,47.00 113.00,47.00 113.00,47.00              115.53,47.01 119.36,46.66 121.26,48.60              123.88,51.27 123.01,63.02 123.00,67.00              123.00,69.77 123.32,74.29 121.26,76.40              119.36,78.34 115.53,77.99 113.00,78.00              113.00,78.00 95.00,78.00 95.00,78.00 Z            M 186.00,107.00            C 186.00,107.00 186.00,190.00 186.00,190.00              186.08,205.80 194.11,217.28 209.00,222.94              215.88,225.55 219.13,225.39 226.00,226.28              228.00,226.54 231.68,226.93 232.98,228.59              234.15,230.10 233.99,233.16 234.00,235.00              234.00,235.00 234.00,247.00 234.00,247.00              233.87,256.44 229.47,256.32 221.00,255.96              211.84,255.58 199.40,252.79 191.00,249.13              166.80,238.56 155.04,214.38 155.00,189.00              155.00,189.00 155.00,71.00 155.00,71.00              155.00,71.00 155.00,45.00 155.00,45.00              155.01,42.43 154.78,38.69 156.74,36.74              158.82,34.65 163.24,35.00 166.00,35.00              169.65,34.99 180.97,34.38 183.57,36.17              186.10,37.92 185.96,41.27 186.00,44.00              186.00,44.00 186.00,77.00 186.00,77.00              186.00,77.00 204.00,77.00 204.00,77.00              206.57,77.01 210.31,76.78 212.26,78.74              214.06,80.54 213.96,83.64 214.00,86.00              214.05,90.04 214.84,101.76 212.40,104.57              210.12,107.20 206.17,106.98 203.00,107.00              203.00,107.00 186.00,107.00 186.00,107.00 Z            M 21.31,48.02            C 25.92,46.27 36.66,46.91 42.00,47.00              44.55,47.05 47.23,46.93 48.83,49.31              50.62,52.01 50.02,64.21 50.00,68.00              49.99,70.58 50.20,74.42 48.26,76.40              46.36,78.34 42.53,77.99 40.00,78.00              36.38,78.01 23.80,78.63 21.31,76.98              18.55,75.14 19.01,70.91 19.00,68.00              18.99,62.40 17.46,52.15 21.31,48.02 Z            M 271.00,175.00            C 274.25,214.80 316.85,239.86 353.00,222.68              359.96,219.38 365.71,213.94 370.53,208.00              375.70,201.65 375.79,197.17 385.00,197.00              389.03,196.93 402.70,196.13 405.26,198.74              407.93,201.46 405.99,206.09 404.69,209.00              401.09,217.06 396.15,224.68 389.99,231.00              373.86,247.53 352.97,255.47 330.00,255.99              320.54,256.20 307.98,254.03 299.00,251.00              287.77,247.21 277.99,241.44 269.00,233.70              258.35,224.53 249.76,210.27 245.33,197.00              232.24,157.74 244.53,114.85 279.00,90.72              288.49,84.08 299.60,79.63 311.00,77.61              346.20,71.39 381.31,87.86 399.13,119.00              406.39,131.69 409.51,142.64 411.57,157.00              412.10,160.70 412.84,169.48 410.26,172.35              407.61,175.30 402.61,174.99 399.00,175.00              399.00,175.00 271.00,175.00 271.00,175.00 Z            M 511.00,76.67            C 516.25,75.90 516.28,76.58 521.00,76.67              541.09,78.31 558.31,84.67 572.99,99.04              579.55,105.46 585.22,113.76 589.24,122.00              590.79,125.17 593.34,130.16 590.26,133.26              587.66,135.89 574.08,135.05 570.00,135.00              558.35,134.84 563.08,130.96 548.00,117.09              538.42,108.28 525.99,103.72 513.00,104.01              481.13,104.74 456.86,137.54 458.04,168.00              459.13,196.20 478.52,222.41 507.00,227.54              522.52,230.33 539.74,223.43 550.83,212.71              554.66,209.01 560.33,199.80 563.18,198.17              566.34,196.38 576.94,196.99 581.00,197.00              593.04,197.02 593.98,200.52 588.75,211.00              583.94,220.65 578.18,228.60 570.00,235.71              547.04,255.68 513.36,260.88 485.00,250.56              453.96,239.27 429.05,206.50 429.00,173.00              429.00,173.00 429.00,158.00 429.00,158.00              429.19,141.68 437.67,121.69 447.67,109.00              458.89,94.76 474.42,83.85 492.00,79.15              501.66,76.58 502.61,77.60 511.00,76.67 Z            M 379.00,148.00            C 378.33,141.56 375.33,135.45 371.94,130.00              358.70,108.73 332.94,98.15 309.00,106.70              288.70,113.94 278.55,128.39 272.00,148.00              272.00,148.00 379.00,148.00 379.00,148.00 Z            M 20.52,231.02            C 24.94,229.21 33.93,229.99 39.00,230.00              41.14,230.00 44.71,229.77 46.49,231.02              48.54,232.46 49.83,237.56 50.87,240.00              53.14,245.30 56.64,251.58 60.32,256.00              75.72,274.49 97.74,280.92 121.00,282.04              124.29,282.20 139.77,282.97 141.40,284.60              143.32,286.52 142.99,290.46 143.00,293.00              143.00,293.00 143.00,300.00 143.00,300.00              143.00,302.31 143.20,305.77 141.98,307.77              139.30,312.16 129.63,311.05 125.00,311.00              125.00,311.00 115.00,310.09 115.00,310.09              80.18,307.65 49.99,298.36 30.42,267.00              24.88,258.11 22.29,252.20 19.88,242.00              18.90,237.82 17.64,234.59 20.52,231.02 Z" />
</svg>