<svg xmlns="http://www.w3.org/2000/svg" viewBox="-0.5 -0.5 2561 600">
  <path id="Selection" fill="#303030" stroke="none" stroke-width="1" d="M 978.00,0.00            C 978.00,0.00 1305.00,0.00 1305.00,0.00              1305.00,0.00 1312.68,1.02 1312.68,1.02              1312.68,1.02 1320.12,10.00 1320.12,10.00              1320.12,10.00 1336.00,32.00 1336.00,32.00              1336.00,32.00 1410.29,135.00 1410.29,135.00              1410.29,135.00 1505.12,265.00 1505.12,265.00              1505.12,265.00 1635.42,444.00 1635.42,444.00              1635.42,444.00 1701.71,535.00 1701.71,535.00              1701.71,535.00 1719.88,560.00 1719.88,560.00              1719.88,560.00 1731.00,577.00 1731.00,577.00              1731.00,577.00 1515.00,577.00 1515.00,577.00              1515.00,577.00 1507.17,575.98 1507.17,575.98              1507.17,575.98 1498.85,566.00 1498.85,566.00              1498.85,566.00 1483.58,545.00 1483.58,545.00              1483.58,545.00 1408.63,442.00 1408.63,442.00              1408.63,442.00 1357.63,372.00 1357.63,372.00              1357.63,372.00 1344.58,354.00 1344.58,354.00              1344.58,354.00 1340.83,346.00 1340.83,346.00              1340.83,346.00 1349.12,333.00 1349.12,333.00              1349.12,333.00 1370.88,303.00 1370.88,303.00              1370.88,303.00 1418.88,237.00 1418.88,237.00              1418.88,237.00 1449.00,195.00 1449.00,195.00              1449.00,195.00 1319.00,237.33 1319.00,237.33              1319.00,237.33 1285.00,248.33 1285.00,248.33              1281.85,249.38 1274.29,252.50 1271.30,251.39              1268.48,250.35 1263.62,242.70 1261.63,240.00              1261.63,240.00 1240.58,211.00 1240.58,211.00              1240.58,211.00 1188.15,139.00 1188.15,139.00              1188.15,139.00 1161.00,102.00 1161.00,102.00              1161.00,102.00 1161.00,289.00 1161.00,289.00              1161.00,289.00 1120.00,302.00 1120.00,302.00              1120.00,302.00 1055.00,323.33 1055.00,323.33              1055.00,323.33 1008.00,338.66 1008.00,338.66              1008.00,338.66 981.00,348.00 981.00,348.00              981.00,348.00 1000.00,353.33 1000.00,353.33              1000.00,353.33 1027.00,362.00 1027.00,362.00              1027.00,362.00 1104.00,386.67 1104.00,386.67              1104.00,386.67 1153.00,402.00 1153.00,402.00              1152.40,414.93 1142.83,437.93 1137.31,450.00              1115.42,497.79 1076.77,534.86 1030.00,558.25              983.90,581.30 937.94,591.24 887.00,596.17              887.00,596.17 864.00,598.00 864.00,598.00              864.00,598.00 851.00,598.00 851.00,598.00              851.00,598.00 835.00,599.00 835.00,599.00              835.00,599.00 828.00,599.00 828.00,599.00              828.00,599.00 815.00,598.00 815.00,598.00              815.00,598.00 799.00,598.00 799.00,598.00              799.00,598.00 789.00,597.09 789.00,597.09              789.00,597.09 751.00,593.27 751.00,593.27              702.43,586.27 656.15,573.01 614.00,547.19              598.52,537.70 584.83,526.83 572.00,514.00              533.40,475.40 512.01,429.01 505.28,375.00              501.51,344.73 503.00,313.51 503.00,283.00              503.00,283.00 503.00,146.00 503.00,146.00              503.00,146.00 361.00,146.00 361.00,146.00              361.00,146.00 361.00,579.00 361.00,579.00              361.00,579.00 180.00,579.00 180.00,579.00              180.00,579.00 180.00,146.00 180.00,146.00              180.00,146.00 0.00,146.00 0.00,146.00              0.00,146.00 0.00,1.00 0.00,1.00              0.00,1.00 684.00,1.00 684.00,1.00              684.00,1.00 684.00,264.00 684.00,264.00              684.00,264.00 684.00,324.00 684.00,324.00              684.04,352.82 694.45,389.31 710.88,413.00              737.60,451.51 775.77,466.98 821.00,470.09              821.00,470.09 831.00,471.00 831.00,471.00              831.00,471.00 844.00,470.09 844.00,470.09              866.10,468.57 888.25,464.33 908.00,453.69              937.27,437.93 957.46,414.03 969.05,383.00              973.46,371.20 977.98,355.60 978.00,343.00              978.00,343.00 978.00,0.00 978.00,0.00 Z            M 1734.00,0.00            C 1734.00,0.00 1828.00,0.00 1828.00,0.00              1828.00,0.00 1828.00,17.00 1828.00,17.00              1828.00,17.00 1791.00,17.00 1791.00,17.00              1791.00,17.00 1791.00,113.00 1791.00,113.00              1791.00,113.00 1771.00,113.00 1771.00,113.00              1771.00,113.00 1771.00,17.00 1771.00,17.00              1771.00,17.00 1734.00,17.00 1734.00,17.00              1734.00,17.00 1734.00,0.00 1734.00,0.00 Z            M 1842.00,0.00            C 1842.00,0.00 1859.00,0.00 1859.00,0.00              1859.00,0.00 1859.00,18.00 1859.00,18.00              1859.00,18.00 1842.00,18.00 1842.00,18.00              1842.00,18.00 1842.00,0.00 1842.00,0.00 Z            M 1875.00,0.00            C 1875.00,0.00 1892.00,0.00 1892.00,0.00              1892.00,0.00 1892.00,18.00 1892.00,18.00              1892.00,18.00 1875.00,18.00 1875.00,18.00              1875.00,18.00 1875.00,0.00 1875.00,0.00 Z            M 1985.00,0.00            C 1985.00,0.00 2004.00,0.00 2004.00,0.00              2004.00,0.00 2004.00,41.00 2004.00,41.00              2004.00,41.00 2005.00,64.00 2005.00,64.00              2005.00,64.00 2023.28,42.00 2023.28,42.00              2023.28,42.00 2033.17,32.60 2033.17,32.60              2033.17,32.60 2055.00,32.00 2055.00,32.00              2049.17,40.70 2039.40,49.93 2032.28,58.00              2030.37,60.18 2024.13,66.51 2023.96,69.00              2023.75,72.05 2030.17,78.52 2032.25,81.00              2032.25,81.00 2059.00,112.85 2059.00,112.85              2059.00,112.85 2035.01,112.85 2035.01,112.85              2035.01,112.85 2024.80,102.00 2024.80,102.00              2024.80,102.00 2004.00,76.00 2004.00,76.00              2004.00,76.00 2004.00,114.00 2004.00,114.00              2004.00,114.00 1985.00,114.00 1985.00,114.00              1985.00,114.00 1985.00,0.00 1985.00,0.00 Z            M 2066.00,0.00            C 2066.00,0.00 2086.00,0.00 2086.00,0.00              2086.00,0.00 2086.00,18.00 2086.00,18.00              2086.00,18.00 2066.00,18.00 2066.00,18.00              2066.00,18.00 2066.00,0.00 2066.00,0.00 Z            M 2256.00,88.00            C 2252.75,109.05 2235.13,116.22 2216.00,116.00              2209.99,115.93 2203.27,114.43 2198.00,111.47              2185.01,104.19 2179.17,89.31 2179.00,75.00              2178.85,62.18 2180.33,51.09 2189.32,41.13              2203.06,25.81 2232.80,25.94 2246.53,41.13              2255.40,51.00 2257.00,64.36 2257.00,77.00              2257.00,77.00 2198.00,77.00 2198.00,77.00              2198.40,85.60 2201.27,94.24 2209.00,99.00              2219.14,105.23 2233.49,99.82 2236.00,88.00              2236.00,88.00 2256.00,88.00 2256.00,88.00 Z            M 1943.00,43.00            C 1949.15,30.02 1960.90,31.00 1973.00,31.00              1973.00,31.00 1973.00,49.00 1973.00,49.00              1960.58,45.98 1948.98,51.12 1945.30,64.00              1943.55,70.12 1944.00,76.69 1944.00,83.00              1944.00,83.00 1944.00,113.00 1944.00,113.00              1944.00,113.00 1925.00,113.00 1925.00,113.00              1925.00,113.00 1925.00,32.00 1925.00,32.00              1925.00,32.00 1942.00,32.00 1942.00,32.00              1942.00,32.00 1943.00,43.00 1943.00,43.00 Z            M 1831.00,32.00            C 1831.00,32.00 1850.00,32.00 1850.00,32.00              1850.00,32.00 1850.00,79.00 1850.00,79.00              1850.05,89.17 1854.47,100.93 1867.00,99.44              1876.26,98.35 1881.44,90.55 1882.86,82.00              1884.89,69.67 1884.00,45.56 1884.00,32.00              1884.00,32.00 1903.00,32.00 1903.00,32.00              1903.00,32.00 1903.00,113.00 1903.00,113.00              1903.00,113.00 1885.00,113.00 1885.00,113.00              1885.00,113.00 1884.00,104.00 1884.00,104.00              1876.55,118.99 1845.67,120.38 1835.35,103.00              1829.79,93.63 1831.00,85.35 1831.00,75.00              1831.00,75.00 1831.00,32.00 1831.00,32.00 Z            M 2066.00,32.00            C 2066.00,32.00 2086.00,32.00 2086.00,32.00              2086.00,32.00 2086.00,113.00 2086.00,113.00              2086.00,113.00 2066.00,113.00 2066.00,113.00              2066.00,113.00 2066.00,32.00 2066.00,32.00 Z            M 2095.00,32.00            C 2095.00,32.00 2116.00,32.00 2116.00,32.00              2116.00,32.00 2126.33,64.00 2126.33,64.00              2126.33,64.00 2136.00,91.00 2136.00,91.00              2136.00,91.00 2150.67,46.00 2150.67,46.00              2154.69,34.04 2154.40,32.06 2163.00,32.00              2163.00,32.00 2176.00,32.00 2176.00,32.00              2176.00,32.00 2149.19,105.00 2149.19,105.00              2145.24,115.43 2140.82,130.51 2131.99,137.61              2122.81,144.98 2109.95,144.45 2099.00,143.00              2099.00,143.00 2099.00,127.00 2099.00,127.00              2108.12,128.63 2114.33,129.18 2120.58,121.00              2122.62,118.33 2123.87,115.40 2123.38,112.00              2123.38,112.00 2116.69,93.00 2116.69,93.00              2116.69,93.00 2095.00,32.00 2095.00,32.00 Z            M 2238.00,64.00            C 2236.92,58.66 2235.67,53.32 2231.67,49.23              2224.75,42.42 2212.13,42.35 2205.10,49.23              2200.74,53.34 2199.17,58.25 2198.00,64.00              2198.00,64.00 2238.00,64.00 2238.00,64.00 Z            M 1745.00,190.00            C 1745.00,190.00 1765.00,190.00 1765.00,190.00              1765.00,190.00 1765.00,242.00 1765.00,242.00              1765.00,250.57 1764.43,264.08 1767.10,272.00              1772.19,287.06 1791.27,293.95 1803.91,283.47              1810.36,278.12 1812.90,269.09 1813.00,261.00              1813.00,261.00 1813.00,190.00 1813.00,190.00              1813.00,190.00 1833.00,190.00 1833.00,190.00              1833.00,190.00 1833.00,262.00 1833.00,262.00              1832.98,274.28 1830.09,287.09 1820.96,295.91              1805.45,310.88 1768.24,310.33 1754.53,292.99              1747.57,284.20 1745.05,271.99 1745.00,261.00              1745.00,261.00 1745.00,190.00 1745.00,190.00 Z            M 2119.00,304.00            C 2119.00,304.00 2130.58,270.00 2130.58,270.00              2130.58,270.00 2150.19,216.00 2150.19,216.00              2150.19,216.00 2156.81,198.00 2156.81,198.00              2156.81,198.00 2160.51,191.02 2160.51,191.02              2160.51,191.02 2166.00,190.00 2166.00,190.00              2166.00,190.00 2178.00,190.00 2178.00,190.00              2178.00,190.00 2185.49,191.02 2185.49,191.02              2185.49,191.02 2189.19,198.00 2189.19,198.00              2189.19,198.00 2195.69,216.00 2195.69,216.00              2195.69,216.00 2216.05,272.00 2216.05,272.00              2216.05,272.00 2227.00,304.00 2227.00,304.00              2222.99,304.00 2208.45,305.02 2206.08,302.43              2204.44,300.63 2200.11,286.32 2199.00,283.00              2198.12,280.38 2197.19,276.56 2194.73,275.02              2192.90,273.88 2190.09,274.01 2188.00,274.00              2188.00,274.00 2159.00,274.00 2159.00,274.00              2156.72,274.00 2153.24,273.79 2151.27,275.02              2148.81,276.56 2147.88,280.38 2147.00,283.00              2145.89,286.32 2141.56,300.63 2139.92,302.43              2137.55,305.02 2123.01,304.00 2119.00,304.00 Z            M 2240.00,190.00            C 2240.00,190.00 2259.00,190.00 2259.00,190.00              2259.00,190.00 2259.00,208.00 2259.00,208.00              2259.00,208.00 2240.00,208.00 2240.00,208.00              2240.00,208.00 2240.00,190.00 2240.00,190.00 Z            M 2174.00,205.00            C 2170.31,209.28 2169.43,215.69 2167.67,221.00              2167.67,221.00 2156.00,256.00 2156.00,256.00              2156.00,256.00 2190.00,256.00 2190.00,256.00              2190.00,256.00 2174.00,205.00 2174.00,205.00 Z            M 1929.00,249.00            C 1929.79,232.04 1939.65,223.17 1956.00,220.87              1959.32,220.40 1961.56,219.90 1965.00,220.09              1973.77,220.59 1984.60,223.08 1990.47,230.09              1995.57,236.18 1996.96,244.30 1997.00,252.00              1997.00,252.00 1997.00,284.00 1997.00,284.00              1997.00,284.00 1999.00,304.00 1999.00,304.00              1999.00,304.00 1981.00,304.00 1981.00,304.00              1981.00,304.00 1981.00,295.00 1981.00,295.00              1977.31,297.60 1974.08,300.86 1970.00,302.86              1962.04,306.77 1949.34,307.12 1941.00,304.24              1929.15,300.15 1925.85,291.53 1926.00,280.00              1926.08,274.35 1927.22,270.35 1931.21,266.10              1940.25,256.48 1965.21,254.00 1978.00,254.00              1977.98,247.96 1977.98,242.69 1972.89,238.42              1963.20,230.26 1949.33,236.50 1948.00,249.00              1948.00,249.00 1929.00,249.00 1929.00,249.00 Z            M 2278.00,249.00            C 2278.22,225.40 2299.66,217.50 2320.00,220.92              2327.03,222.10 2332.74,223.63 2337.79,229.09              2345.89,237.87 2345.00,248.06 2345.00,259.00              2345.00,259.00 2345.00,281.00 2345.00,281.00              2345.00,281.00 2347.00,304.00 2347.00,304.00              2343.63,304.00 2332.14,304.91 2330.17,302.43              2329.23,301.24 2328.58,296.03 2328.00,294.00              2320.74,309.01 2291.34,309.69 2280.33,298.67              2270.04,288.38 2272.13,269.32 2285.00,261.88              2290.31,258.81 2295.06,257.73 2301.00,256.61              2309.72,254.97 2318.13,254.00 2327.00,254.00              2326.97,250.84 2327.03,248.01 2325.85,245.00              2322.21,235.70 2311.54,232.13 2303.09,237.36              2294.25,242.84 2300.59,248.82 2290.00,249.00              2290.00,249.00 2278.00,249.00 2278.00,249.00 Z            M 2454.00,277.00            C 2457.37,277.00 2470.12,276.32 2472.28,277.99              2473.99,279.31 2474.27,282.27 2476.00,284.96              2479.37,290.20 2484.96,292.33 2491.00,291.90              2496.35,291.53 2504.56,287.63 2502.92,281.00              2501.19,273.98 2490.00,271.72 2484.00,270.00              2473.07,266.86 2459.67,265.17 2456.29,252.00              2455.93,249.50 2455.89,244.63 2456.29,242.00              2456.81,228.44 2469.30,222.67 2481.00,220.75              2493.61,218.69 2511.82,221.60 2518.33,234.00              2521.09,239.25 2521.00,243.30 2521.00,249.00              2521.00,249.00 2503.00,249.00 2503.00,249.00              2502.18,240.03 2497.52,234.46 2488.00,234.59              2482.87,234.65 2474.03,238.59 2475.84,244.96              2477.60,251.12 2488.65,252.94 2494.00,254.42              2509.15,258.64 2524.60,262.66 2523.96,282.00              2523.87,284.66 2523.39,287.50 2522.44,290.00              2517.49,302.96 2503.18,305.77 2491.00,306.68              2488.01,306.90 2485.94,306.35 2483.00,306.07              2465.11,304.42 2454.41,295.69 2454.00,277.00 Z            M 2384.00,232.00            C 2388.05,228.04 2391.56,224.57 2397.00,222.56              2401.67,220.83 2406.12,220.95 2411.00,221.00              2423.35,221.15 2432.29,227.21 2436.45,239.00              2439.02,246.27 2439.00,258.22 2439.00,266.00              2439.00,266.00 2439.00,304.00 2439.00,304.00              2439.00,304.00 2419.00,304.00 2419.00,304.00              2419.00,304.00 2419.00,256.00 2419.00,256.00              2418.91,248.91 2417.45,242.79 2411.00,238.74              2402.01,233.10 2390.99,240.42 2387.48,249.00              2385.37,254.16 2386.00,262.30 2386.00,268.00              2386.00,268.00 2386.00,304.00 2386.00,304.00              2386.00,304.00 2366.00,304.00 2366.00,304.00              2366.00,304.00 2366.00,223.00 2366.00,223.00              2366.00,223.00 2384.00,223.00 2384.00,223.00              2384.00,223.00 2384.00,232.00 2384.00,232.00 Z            M 1851.00,222.00            C 1851.00,222.00 1916.00,222.00 1916.00,222.00              1916.00,222.00 1916.00,232.00 1916.00,232.00              1915.93,241.89 1910.21,245.81 1904.00,253.00              1904.00,253.00 1873.00,289.00 1873.00,289.00              1873.00,289.00 1917.00,289.00 1917.00,289.00              1917.00,289.00 1917.00,304.00 1917.00,304.00              1917.00,304.00 1849.00,304.00 1849.00,304.00              1849.00,304.00 1849.00,295.00 1849.00,295.00              1849.06,285.50 1854.50,281.95 1860.42,275.00              1860.42,275.00 1892.00,238.00 1892.00,238.00              1892.00,238.00 1851.00,238.00 1851.00,238.00              1851.00,238.00 1851.00,222.00 1851.00,222.00 Z            M 2003.00,223.00            C 2003.00,223.00 2016.00,223.00 2016.00,223.00              2024.67,223.06 2023.63,223.89 2028.33,238.00              2028.33,238.00 2043.00,281.00 2043.00,281.00              2043.00,281.00 2051.05,258.00 2051.05,258.00              2051.05,258.00 2063.00,223.00 2063.00,223.00              2063.00,223.00 2083.00,223.00 2083.00,223.00              2082.07,228.90 2075.86,244.54 2073.42,251.00              2073.42,251.00 2055.19,300.00 2055.19,300.00              2051.17,310.56 2047.65,322.47 2038.00,329.36              2032.77,333.10 2023.37,334.82 2017.00,334.82              2017.00,334.82 2007.00,334.00 2007.00,334.00              2007.00,334.00 2007.00,318.00 2007.00,318.00              2015.93,318.72 2021.82,320.66 2028.20,311.96              2029.87,309.69 2031.28,306.89 2031.15,304.00              2031.15,304.00 2024.34,284.00 2024.34,284.00              2024.34,284.00 2010.58,246.00 2010.58,246.00              2008.21,239.67 2003.97,229.27 2003.00,223.00 Z            M 2240.00,223.00            C 2240.00,223.00 2259.00,223.00 2259.00,223.00              2259.00,223.00 2259.00,285.00 2259.00,285.00              2259.00,292.58 2258.87,313.68 2256.61,320.00              2252.77,330.74 2244.52,333.87 2234.00,334.68              2231.54,334.86 2225.63,334.48 2224.02,332.41              2222.50,330.44 2223.00,321.80 2223.00,319.00              2236.24,319.78 2239.84,315.17 2240.00,302.00              2240.00,302.00 2240.00,223.00 2240.00,223.00 Z            M 2541.00,223.00            C 2541.00,223.00 2560.00,223.00 2560.00,223.00              2560.00,223.00 2560.00,304.00 2560.00,304.00              2560.00,304.00 2541.00,304.00 2541.00,304.00              2541.00,304.00 2541.00,223.00 2541.00,223.00 Z            M 1979.00,266.00            C 1979.00,266.00 1963.00,267.87 1963.00,267.87              1959.67,268.34 1956.13,268.82 1953.00,270.13              1944.68,273.61 1942.50,282.85 1949.13,288.58              1958.07,296.30 1973.51,290.42 1977.15,280.00              1978.49,276.19 1978.96,270.07 1979.00,266.00 Z            M 2327.00,266.00            C 2327.00,266.00 2311.00,267.87 2311.00,267.87              2307.67,268.34 2304.13,268.82 2301.00,270.13              2292.96,273.49 2290.35,282.47 2297.21,288.58              2305.88,296.32 2321.72,290.33 2325.21,280.00              2326.75,275.45 2326.99,270.74 2327.00,266.00 Z"/>
</svg>