<svg xmlns="http://www.w3.org/2000/svg" viewBox="-0.5 -0.5 1732 600">
  <path id="tua" fill="#303030" stroke="none" stroke-width="1"
    d="M 978.00,0.00            C 978.00,0.00 1305.00,0.00 1305.00,0.00              1305.00,0.00 1312.68,1.02 1312.68,1.02              1312.68,1.02 1320.12,10.00 1320.12,10.00              1320.12,10.00 1336.00,32.00 1336.00,32.00              1336.00,32.00 1410.29,135.00 1410.29,135.00              1410.29,135.00 1505.12,265.00 1505.12,265.00              1505.12,265.00 1635.42,444.00 1635.42,444.00              1635.42,444.00 1701.71,535.00 1701.71,535.00              1701.71,535.00 1719.88,560.00 1719.88,560.00              1719.88,560.00 1731.00,577.00 1731.00,577.00              1731.00,577.00 1515.00,577.00 1515.00,577.00              1515.00,577.00 1507.17,575.98 1507.17,575.98              1507.17,575.98 1498.85,566.00 1498.85,566.00              1498.85,566.00 1483.58,545.00 1483.58,545.00              1483.58,545.00 1408.63,442.00 1408.63,442.00              1408.63,442.00 1357.63,372.00 1357.63,372.00              1357.63,372.00 1344.58,354.00 1344.58,354.00              1344.58,354.00 1340.83,346.00 1340.83,346.00              1340.83,346.00 1349.12,333.00 1349.12,333.00              1349.12,333.00 1370.88,303.00 1370.88,303.00              1370.88,303.00 1418.88,237.00 1418.88,237.00              1418.88,237.00 1449.00,195.00 1449.00,195.00              1449.00,195.00 1319.00,237.33 1319.00,237.33              1319.00,237.33 1285.00,248.33 1285.00,248.33              1281.85,249.38 1274.29,252.50 1271.30,251.39              1268.48,250.35 1263.62,242.70 1261.63,240.00              1261.63,240.00 1240.58,211.00 1240.58,211.00              1240.58,211.00 1188.15,139.00 1188.15,139.00              1188.15,139.00 1161.00,102.00 1161.00,102.00              1161.00,102.00 1161.00,289.00 1161.00,289.00              1161.00,289.00 1120.00,302.00 1120.00,302.00              1120.00,302.00 1055.00,323.33 1055.00,323.33              1055.00,323.33 1008.00,338.66 1008.00,338.66              1008.00,338.66 981.00,348.00 981.00,348.00              981.00,348.00 1000.00,353.33 1000.00,353.33              1000.00,353.33 1027.00,362.00 1027.00,362.00              1027.00,362.00 1104.00,386.67 1104.00,386.67              1104.00,386.67 1153.00,402.00 1153.00,402.00              1152.40,414.93 1142.83,437.93 1137.31,450.00              1115.42,497.79 1076.77,534.86 1030.00,558.25              983.90,581.30 937.94,591.24 887.00,596.17              887.00,596.17 864.00,598.00 864.00,598.00              864.00,598.00 851.00,598.00 851.00,598.00              851.00,598.00 835.00,599.00 835.00,599.00              835.00,599.00 828.00,599.00 828.00,599.00              828.00,599.00 815.00,598.00 815.00,598.00              815.00,598.00 799.00,598.00 799.00,598.00              799.00,598.00 789.00,597.09 789.00,597.09              789.00,597.09 751.00,593.27 751.00,593.27              702.43,586.27 656.15,573.01 614.00,547.19              598.52,537.70 584.83,526.83 572.00,514.00              533.40,475.40 512.01,429.01 505.28,375.00              501.51,344.73 503.00,313.51 503.00,283.00              503.00,283.00 503.00,146.00 503.00,146.00              503.00,146.00 361.00,146.00 361.00,146.00              361.00,146.00 361.00,579.00 361.00,579.00              361.00,579.00 180.00,579.00 180.00,579.00              180.00,579.00 180.00,146.00 180.00,146.00              180.00,146.00 0.00,146.00 0.00,146.00              0.00,146.00 0.00,1.00 0.00,1.00              0.00,1.00 684.00,1.00 684.00,1.00              684.00,1.00 684.00,264.00 684.00,264.00              684.00,264.00 684.00,324.00 684.00,324.00              684.04,352.82 694.45,389.31 710.88,413.00              737.60,451.51 775.77,466.98 821.00,470.09              821.00,470.09 831.00,471.00 831.00,471.00              831.00,471.00 844.00,470.09 844.00,470.09              866.10,468.57 888.25,464.33 908.00,453.69              937.27,437.93 957.46,414.03 969.05,383.00              973.46,371.20 977.98,355.60 978.00,343.00              978.00,343.00 978.00,0.00 978.00,0.00 Z" />
</svg>