<svg xmlns="http://www.w3.org/2000/svg" viewBox="-0.5 -0.88 1845 2049.39">
  <path id="tubitak-wordmark" fill="#303030" stroke="none" stroke-width="1"
    d="M 485.00,436.00            C 485.00,436.00 486.00,410.00 486.00,410.00              486.00,410.00 486.91,400.00 486.91,400.00              489.64,361.03 498.57,322.74 511.69,286.00              525.34,247.77 545.13,211.95 568.71,179.00              588.32,151.60 611.50,126.82 637.00,104.87              766.80,-6.86 950.81,-31.38 1106.00,39.69              1148.11,58.98 1192.23,88.24 1225.00,121.00              1225.00,121.00 1244.83,141.00 1244.83,141.00              1276.68,176.21 1302.66,215.56 1321.86,259.00              1346.54,314.83 1359.00,375.05 1359.00,436.00              1359.00,436.00 1650.00,436.00 1650.00,436.00              1650.00,436.00 1617.88,482.00 1617.88,482.00              1617.88,482.00 1569.42,550.00 1569.42,550.00              1569.42,550.00 1414.42,767.00 1414.42,767.00              1414.42,767.00 1096.58,1212.00 1096.58,1212.00              1096.58,1212.00 923.00,1455.00 923.00,1455.00              923.00,1455.00 921.00,1455.00 921.00,1455.00              921.00,1455.00 900.71,1426.00 900.71,1426.00              900.71,1426.00 861.42,1371.00 861.42,1371.00              861.42,1371.00 746.42,1210.00 746.42,1210.00              746.42,1210.00 393.58,716.00 393.58,716.00              393.58,716.00 257.29,525.00 257.29,525.00              257.29,525.00 215.86,467.00 215.86,467.00              215.86,467.00 195.00,436.00 195.00,436.00              195.00,436.00 485.00,436.00 485.00,436.00 Z            M 1332.00,436.00            C 1332.00,386.97 1322.44,333.61 1304.20,288.00              1284.95,239.86 1260.74,199.59 1225.83,161.00              1168.03,97.11 1089.41,52.21 1005.00,35.00              987.08,31.35 969.21,29.16 951.00,27.91              951.00,27.91 939.00,27.00 939.00,27.00              939.00,27.00 906.00,27.00 906.00,27.00              906.00,27.00 894.00,27.91 894.00,27.91              859.04,30.31 824.23,36.68 791.00,48.08              732.42,68.17 691.59,94.15 645.00,134.58              606.08,168.35 569.01,221.79 548.14,269.00              529.73,310.65 519.67,348.77 514.84,394.00              514.84,394.00 513.00,417.00 513.00,417.00              513.00,417.00 513.00,436.00 513.00,436.00              513.00,436.00 564.00,436.00 564.00,436.00              564.00,385.24 574.88,332.97 596.75,287.00              617.98,242.37 646.22,203.43 683.00,170.17              778.16,84.11 918.04,55.65 1039.00,98.69              1092.64,117.78 1135.77,145.77 1176.00,186.00              1208.92,218.92 1233.21,256.28 1251.42,299.00              1269.46,341.32 1279.00,390.07 1279.00,436.00              1279.00,436.00 1332.00,436.00 1332.00,436.00 Z            M 1239.00,436.00            C 1239.00,404.70 1232.21,371.64 1222.33,342.00              1212.78,313.34 1198.40,285.58 1180.86,261.00              1136.50,198.83 1072.99,155.62 999.00,137.13              982.18,132.92 955.14,128.20 938.00,128.00              938.00,128.00 909.00,128.00 909.00,128.00              909.00,128.00 897.00,128.91 897.00,128.91              859.89,131.51 824.96,141.13 791.00,156.14              763.45,168.32 732.02,188.61 710.00,209.09              710.00,209.09 698.09,220.09 698.09,220.09              656.36,261.82 625.37,317.18 613.00,375.00              609.63,390.73 606.09,411.01 606.00,427.00              605.95,436.13 604.92,436.98 596.00,437.00              596.00,437.00 566.00,437.00 566.00,437.00              566.00,437.00 566.00,454.00 566.00,454.00              566.02,465.12 568.69,484.72 570.59,496.00              577.34,536.21 590.93,575.55 611.15,611.00              618.26,623.47 634.96,651.15 645.00,660.00              645.00,660.00 647.45,648.00 647.45,648.00              647.45,648.00 652.37,627.00 652.37,627.00              653.66,621.94 654.56,616.03 658.00,612.00              658.00,612.00 646.43,592.00 646.43,592.00              646.43,592.00 629.42,557.00 629.42,557.00              617.25,527.96 609.21,495.40 606.91,464.00              606.91,464.00 606.00,452.00 606.00,452.00              606.00,452.00 606.00,436.00 606.00,436.00              606.00,436.00 645.00,436.00 645.00,436.00              645.00,436.00 645.00,430.00 645.00,430.00              645.00,430.00 646.04,420.00 646.04,420.00              646.04,420.00 646.04,411.00 646.04,411.00              648.67,384.75 654.59,358.51 664.40,334.00              676.41,303.98 693.44,275.05 715.17,251.00              738.94,224.68 767.22,202.14 799.00,186.25              906.20,132.65 1035.17,153.17 1120.00,238.00              1145.38,263.38 1165.25,290.89 1179.42,324.00              1191.63,352.53 1198.89,380.08 1201.96,411.00              1201.96,411.00 1201.96,420.00 1201.96,420.00              1201.96,420.00 1203.00,430.00 1203.00,430.00              1203.00,430.00 1203.00,436.00 1203.00,436.00              1203.00,436.00 1239.00,436.00 1239.00,436.00 Z            M 832.00,436.00            C 832.00,436.00 646.00,436.00 646.00,436.00              646.00,468.17 651.89,500.68 662.69,531.00              662.69,531.00 677.00,564.00 677.00,564.00              677.00,564.00 679.00,564.00 679.00,564.00              683.63,554.38 692.65,541.65 699.13,533.00              723.42,500.56 751.94,476.48 787.00,456.43              795.44,451.60 805.98,446.73 815.00,443.01              815.00,443.01 832.00,436.00 832.00,436.00 Z            M 1200.00,436.00            C 1200.00,436.00 1069.00,436.00 1069.00,436.00              1069.00,436.00 1031.00,436.00 1031.00,436.00              1031.00,436.00 1012.00,437.00 1012.00,437.00              1024.74,439.91 1047.35,451.09 1059.00,457.72              1105.38,484.10 1139.49,519.96 1166.00,566.00              1166.00,566.00 1168.00,566.00 1168.00,566.00              1176.21,546.93 1182.12,535.66 1188.28,515.00              1193.02,499.09 1198.80,470.38 1199.00,454.00              1199.00,454.00 1200.00,436.00 1200.00,436.00 Z            M 1333.00,436.00            C 1333.00,436.00 1332.00,436.00 1332.00,436.00              1332.00,436.00 1333.00,437.00 1333.00,437.00              1333.00,437.00 1333.00,436.00 1333.00,436.00 Z            M 512.00,437.00            C 512.00,437.00 486.00,437.00 486.00,437.00              486.00,437.00 487.00,462.00 487.00,462.00              487.00,462.00 487.91,472.00 487.91,472.00              489.11,489.15 491.63,506.13 495.00,523.00              508.78,591.93 538.92,655.15 582.80,710.00              596.11,726.64 610.40,741.62 626.00,756.09              633.46,763.00 646.54,775.14 655.00,780.00              655.00,780.00 649.42,755.00 649.42,755.00              648.76,751.34 647.70,742.02 646.02,739.28              646.02,739.28 621.09,714.00 621.09,714.00              606.28,698.10 588.95,676.41 577.42,658.00              547.33,609.92 527.01,561.12 517.59,505.00              515.35,491.68 512.02,467.07 512.00,454.00              512.00,454.00 512.00,437.00 512.00,437.00 Z            M 1279.00,437.00            C 1279.00,437.00 1240.00,437.00 1240.00,437.00              1240.00,476.70 1232.78,518.31 1217.15,555.00              1211.03,569.38 1205.81,580.33 1198.14,594.00              1198.14,594.00 1186.60,614.00 1186.60,614.00              1185.84,617.54 1189.19,627.12 1190.29,631.00              1192.30,638.09 1195.85,654.93 1196.00,662.00              1201.75,659.15 1205.38,653.06 1209.12,648.00              1209.12,648.00 1230.80,615.00 1230.80,615.00              1261.86,562.93 1279.00,497.52 1279.00,437.00 Z            M 1358.00,437.00            C 1358.00,437.00 1333.00,437.00 1333.00,437.00              1333.00,437.00 1332.00,463.00 1332.00,463.00              1331.80,480.00 1326.49,510.03 1322.65,527.00              1310.36,581.30 1286.91,633.15 1253.88,678.00              1240.97,695.54 1214.21,728.06 1197.00,740.00              1197.82,750.13 1191.12,770.47 1189.00,781.00              1211.03,766.24 1244.75,731.06 1261.60,710.00              1303.92,657.09 1332.81,597.15 1347.42,531.00              1351.73,511.51 1354.70,491.90 1356.09,472.00              1356.09,472.00 1357.00,462.00 1357.00,462.00              1357.00,462.00 1358.00,441.00 1358.00,441.00              1358.00,441.00 1358.00,437.00 1358.00,437.00 Z            M 679.00,567.00            C 679.00,567.00 678.00,567.00 678.00,567.00              678.00,567.00 679.00,568.00 679.00,568.00              679.00,568.00 679.00,567.00 679.00,567.00 Z            M 679.00,569.00            C 679.00,569.00 665.60,599.00 665.60,599.00              665.60,599.00 659.00,615.00 659.00,615.00              659.00,615.00 686.17,649.00 686.17,649.00              705.31,670.16 727.92,688.69 752.00,703.95              845.91,763.43 970.97,768.70 1069.00,715.69              1094.72,701.79 1115.53,686.99 1137.00,667.09              1137.00,667.09 1145.91,658.99 1145.91,658.99              1145.91,658.99 1171.79,629.00 1171.79,629.00              1175.89,623.79 1180.42,616.24 1185.00,612.00              1179.88,597.22 1174.06,582.43 1166.00,569.00              1166.00,569.00 1155.66,585.00 1155.66,585.00              1155.66,585.00 1140.11,607.00 1140.11,607.00              1124.66,627.08 1105.39,645.26 1085.00,660.27              989.94,730.25 862.37,730.95 765.00,665.33              739.84,648.37 713.17,622.82 695.72,598.00              690.70,590.87 680.55,577.15 679.00,569.00 Z            M 659.00,612.00            C 659.00,612.00 658.00,612.00 658.00,612.00              658.00,612.00 659.00,613.00 659.00,613.00              659.00,613.00 659.00,612.00 659.00,612.00 Z            M 647.00,663.00            C 647.00,663.00 646.00,663.00 646.00,663.00              646.00,663.00 647.00,664.00 647.00,664.00              647.00,664.00 647.00,663.00 647.00,663.00 Z            M 1197.00,663.00            C 1197.00,663.00 1172.00,689.96 1172.00,689.96              1151.30,709.85 1128.67,727.69 1104.00,742.40              995.76,806.92 865.61,809.33 754.00,751.74              728.54,738.61 698.92,717.40 678.00,697.91              678.00,697.91 659.09,679.00 659.09,679.00              659.09,679.00 647.00,666.00 647.00,666.00              647.00,666.00 646.00,682.00 646.00,682.00              646.00,682.00 646.00,706.00 646.00,706.00              646.00,706.00 647.84,730.00 647.84,730.00              648.22,733.63 648.18,737.70 649.98,741.00              652.62,745.82 666.99,756.67 672.00,760.58              691.80,776.00 713.63,789.87 736.00,801.24              818.65,843.25 912.24,855.95 1003.00,837.80              1022.98,833.80 1042.92,828.62 1062.00,821.42              1098.81,807.54 1133.35,789.92 1165.00,766.37              1165.00,766.37 1187.00,748.87 1187.00,748.87              1189.62,746.62 1194.45,742.90 1195.98,739.99              1197.65,736.80 1197.80,729.70 1198.17,726.00              1198.17,726.00 1199.00,687.00 1199.00,687.00              1199.00,687.00 1197.00,663.00 1197.00,663.00 Z            M 656.00,780.00            C 656.00,780.00 655.00,780.00 655.00,780.00              655.00,780.00 656.00,781.00 656.00,781.00              656.00,781.00 656.00,780.00 656.00,780.00 Z            M 658.00,783.00            C 658.00,783.00 657.00,783.00 657.00,783.00              657.00,783.00 658.00,784.00 658.00,784.00              658.00,784.00 658.00,783.00 658.00,783.00 Z            M 1187.00,784.00            C 1187.00,784.00 1186.00,784.00 1186.00,784.00              1186.00,784.00 1187.00,785.00 1187.00,785.00              1187.00,785.00 1187.00,784.00 1187.00,784.00 Z            M 659.00,785.00            C 658.65,789.46 661.38,794.81 662.95,799.00              662.95,799.00 675.75,828.00 675.75,828.00              698.42,873.21 735.72,912.28 779.00,938.20              816.17,960.46 857.74,974.06 901.00,977.09              901.00,977.09 913.00,978.00 913.00,978.00              913.00,978.00 933.00,978.00 933.00,978.00              945.42,977.85 963.70,975.26 976.00,972.80              1040.04,959.99 1097.17,926.04 1138.20,875.00              1153.60,855.84 1166.74,834.63 1176.42,812.00              1179.53,804.74 1184.84,792.51 1186.00,785.00              1186.00,785.00 1174.00,793.28 1174.00,793.28              1174.00,793.28 1154.00,806.58 1154.00,806.58              1129.65,821.74 1100.04,836.68 1073.00,846.31              972.79,882.00 865.62,882.67 766.00,844.19              742.38,835.07 715.50,821.89 694.00,808.58              694.00,808.58 659.00,785.00 659.00,785.00 Z            M 294.00,1597.00            C 294.00,1597.00 351.00,1597.00 351.00,1597.00              351.00,1597.00 351.00,1654.00 351.00,1654.00              351.00,1654.00 294.00,1654.00 294.00,1654.00              294.00,1654.00 294.00,1597.00 294.00,1597.00 Z            M 381.00,1597.00            C 381.00,1597.00 438.00,1597.00 438.00,1597.00              438.00,1597.00 438.00,1654.00 438.00,1654.00              438.00,1654.00 381.00,1654.00 381.00,1654.00              381.00,1654.00 381.00,1597.00 381.00,1597.00 Z            M 890.00,1597.00            C 890.00,1597.00 952.00,1597.00 952.00,1597.00              952.00,1597.00 952.00,1654.00 952.00,1654.00              952.00,1654.00 890.00,1654.00 890.00,1654.00              890.00,1654.00 890.00,1597.00 890.00,1597.00 Z            M 1402.00,1683.00            C 1402.00,1683.00 1472.00,1683.00 1472.00,1683.00              1472.00,1683.00 1480.00,1726.00 1480.00,1726.00              1480.00,1726.00 1491.58,1787.00 1491.58,1787.00              1491.58,1787.00 1541.00,2048.00 1541.00,2048.00              1541.00,2048.00 1475.00,2048.00 1475.00,2048.00              1475.00,2048.00 1465.00,1982.00 1465.00,1982.00              1465.00,1982.00 1407.00,1982.00 1407.00,1982.00              1407.00,1982.00 1397.00,2048.00 1397.00,2048.00              1397.00,2048.00 1333.00,2048.00 1333.00,2048.00              1333.00,2048.00 1378.61,1807.00 1378.61,1807.00              1378.61,1807.00 1393.61,1728.00 1393.61,1728.00              1393.61,1728.00 1402.00,1683.00 1402.00,1683.00 Z            M 0.00,1684.00            C 0.00,1684.00 155.00,1684.00 155.00,1684.00              155.00,1684.00 155.00,1746.00 155.00,1746.00              155.00,1746.00 110.00,1746.00 110.00,1746.00              110.00,1746.00 110.00,2048.00 110.00,2048.00              110.00,2048.00 45.00,2048.00 45.00,2048.00              45.00,2048.00 45.00,1746.00 45.00,1746.00              45.00,1746.00 0.00,1746.00 0.00,1746.00              0.00,1746.00 0.00,1684.00 0.00,1684.00 Z            M 274.00,1684.00            C 274.00,1684.00 338.00,1684.00 338.00,1684.00              338.00,1684.00 338.00,1944.00 338.00,1944.00              338.00,1944.00 338.91,1956.00 338.91,1956.00              339.74,1968.18 340.00,1980.44 349.10,1989.96              360.01,2001.36 376.26,1999.66 385.37,1987.00              390.99,1979.17 392.99,1966.48 393.00,1957.00              393.00,1957.00 393.00,1684.00 393.00,1684.00              393.00,1684.00 458.00,1684.00 458.00,1684.00              458.00,1684.00 458.00,1962.00 458.00,1962.00              457.96,1985.11 448.04,2010.41 434.70,2029.00              430.54,2034.79 419.78,2045.02 413.00,2047.30              410.55,2048.13 407.58,2048.00 405.00,2048.00              405.00,2048.00 327.00,2048.00 327.00,2048.00              324.82,2048.00 322.08,2048.09 320.00,2047.49              313.90,2045.74 305.39,2037.57 301.04,2033.00              286.25,2017.47 274.03,1984.54 274.00,1963.00              274.00,1963.00 274.00,1684.00 274.00,1684.00 Z            M 588.00,1684.00            C 588.00,1684.00 630.00,1684.00 630.00,1684.00              630.00,1684.00 654.00,1684.00 654.00,1684.00              679.01,1684.04 713.02,1693.76 733.00,1708.90              749.01,1721.03 761.11,1742.03 763.85,1762.00              763.85,1762.00 763.85,1792.00 763.85,1792.00              763.63,1822.98 740.63,1852.10 713.00,1864.00              732.91,1873.39 745.83,1881.34 757.55,1901.00              770.02,1921.92 769.27,1937.81 769.00,1961.00              768.68,1988.33 751.44,2016.17 729.00,2030.92              717.04,2038.78 699.48,2047.98 685.00,2048.00              685.00,2048.00 588.00,2048.00 588.00,2048.00              588.00,2048.00 588.00,1684.00 588.00,1684.00 Z            M 890.00,1684.00            C 890.00,1684.00 955.00,1684.00 955.00,1684.00              955.00,1684.00 955.00,2048.00 955.00,2048.00              955.00,2048.00 890.00,2048.00 890.00,2048.00              890.00,2048.00 890.00,1684.00 890.00,1684.00 Z            M 1075.00,1684.00            C 1075.00,1684.00 1231.00,1684.00 1231.00,1684.00              1231.00,1684.00 1231.00,1746.00 1231.00,1746.00              1231.00,1746.00 1186.00,1746.00 1186.00,1746.00              1186.00,1746.00 1186.00,2048.00 1186.00,2048.00              1186.00,2048.00 1121.00,2048.00 1121.00,2048.00              1121.00,2048.00 1121.00,1746.00 1121.00,1746.00              1121.00,1746.00 1075.00,1746.00 1075.00,1746.00              1075.00,1746.00 1075.00,1684.00 1075.00,1684.00 Z            M 1654.00,1684.00            C 1654.00,1684.00 1719.00,1684.00 1719.00,1684.00              1719.00,1684.00 1719.00,1786.00 1719.00,1786.00              1719.00,1786.00 1719.00,1817.00 1719.00,1817.00              1719.00,1817.00 1720.00,1835.00 1720.00,1835.00              1720.00,1835.00 1733.67,1792.00 1733.67,1792.00              1733.67,1792.00 1759.00,1717.00 1759.00,1717.00              1759.00,1717.00 1770.00,1684.00 1770.00,1684.00              1770.00,1684.00 1844.00,1684.00 1844.00,1684.00              1844.00,1684.00 1828.40,1725.00 1828.40,1725.00              1828.40,1725.00 1799.20,1798.00 1799.20,1798.00              1799.20,1798.00 1787.60,1827.00 1787.60,1827.00              1787.60,1827.00 1782.70,1841.00 1782.70,1841.00              1782.70,1841.00 1786.86,1857.00 1786.86,1857.00              1786.86,1857.00 1797.58,1893.00 1797.58,1893.00              1797.58,1893.00 1827.02,1992.00 1827.02,1992.00              1827.02,1992.00 1838.14,2029.00 1838.14,2029.00              1838.14,2029.00 1843.00,2048.00 1843.00,2048.00              1843.00,2048.00 1779.00,2048.00 1779.00,2048.00              1779.00,2048.00 1771.51,2046.98 1771.51,2046.98              1771.51,2046.98 1768.00,2039.00 1768.00,2039.00              1768.00,2039.00 1762.00,2018.00 1762.00,2018.00              1762.00,2018.00 1733.00,1917.00 1733.00,1917.00              1733.00,1917.00 1724.66,1940.00 1724.66,1940.00              1721.28,1949.73 1719.02,1952.23 1719.00,1963.00              1719.00,1963.00 1719.00,2048.00 1719.00,2048.00              1719.00,2048.00 1654.00,2048.00 1654.00,2048.00              1654.00,2048.00 1654.00,1684.00 1654.00,1684.00 Z            M 653.00,1839.00            C 671.89,1840.62 690.11,1831.50 696.91,1813.00              700.94,1802.01 699.50,1799.41 699.04,1789.00              698.52,1777.21 697.18,1767.24 688.70,1758.09              679.62,1748.29 665.70,1746.00 653.00,1746.00              653.00,1746.00 653.00,1839.00 653.00,1839.00 Z            M 1436.00,1806.00            C 1436.00,1806.00 1433.25,1820.00 1433.25,1820.00              1433.25,1820.00 1428.75,1847.00 1428.75,1847.00              1428.75,1847.00 1420.58,1897.00 1420.58,1897.00              1420.58,1897.00 1417.00,1922.00 1417.00,1922.00              1417.00,1922.00 1455.00,1922.00 1455.00,1922.00              1455.00,1922.00 1443.27,1850.00 1443.27,1850.00              1443.27,1850.00 1436.00,1806.00 1436.00,1806.00 Z            M 653.00,1994.00            C 667.84,1993.87 683.87,1988.63 693.68,1977.00              703.26,1965.63 704.16,1955.09 704.00,1941.00              703.79,1923.60 694.55,1909.05 679.00,1901.27              669.46,1896.50 663.37,1896.00 653.00,1896.00              653.00,1896.00 653.00,1994.00 653.00,1994.00 Z" />
</svg>