<svg xmlns="http://www.w3.org/2000/svg" viewBox="-0.54 -0.5 190.04 334">
  <path id="tumblr" fill="#303030" stroke="none" stroke-width="1"
    d="M 73.00,0.00            C 73.00,0.00 126.00,0.00 126.00,0.00              126.00,0.00 126.00,84.00 126.00,84.00              126.00,84.00 186.00,84.00 186.00,84.00              186.00,84.00 186.00,147.00 186.00,147.00              186.00,147.00 126.00,147.00 126.00,147.00              126.00,147.00 126.00,234.00 126.00,234.00              126.12,243.57 129.06,254.21 137.04,260.21              149.14,269.31 174.04,267.00 189.00,267.00              189.00,267.00 189.00,333.00 189.00,333.00              189.00,333.00 143.00,333.00 143.00,333.00              126.30,333.00 111.07,333.02 95.00,327.30              88.28,324.91 81.83,321.68 76.00,317.56              41.28,293.06 45.00,251.22 45.00,214.00              45.00,214.00 45.00,147.00 45.00,147.00              45.00,147.00 0.00,147.00 0.00,147.00              0.00,147.00 0.00,101.00 0.00,101.00              0.00,98.52 -0.42,94.90 1.57,93.08              1.57,93.08 15.00,87.69 15.00,87.69              23.87,83.69 30.63,79.36 38.00,73.00              58.61,55.22 71.75,27.21 73.00,0.00 Z" />
</svg>