<svg xmlns="http://www.w3.org/2000/svg" viewBox="-0.53 -0.5 1642.03 336.08">
  <path id="Selection" fill="#303030" stroke="none" stroke-width="1" d="M 73.00,0.00            C 73.00,0.00 126.00,0.00 126.00,0.00              126.00,0.00 126.00,84.00 126.00,84.00              126.00,84.00 187.00,84.00 187.00,84.00              187.00,84.00 187.00,147.00 187.00,147.00              187.00,147.00 126.00,147.00 126.00,147.00              126.00,147.00 126.00,229.00 126.00,229.00              126.13,240.05 128.56,253.30 138.01,260.21              141.79,262.97 146.42,264.71 151.00,265.77              151.00,265.77 189.00,265.77 189.00,265.77              189.00,265.77 189.00,333.00 189.00,333.00              161.19,333.00 117.01,335.68 92.00,325.55              85.87,323.06 79.19,319.42 74.00,315.33              55.13,300.49 46.04,275.55 46.00,252.00              46.00,252.00 46.00,220.00 46.00,220.00              46.00,220.00 46.00,147.00 46.00,147.00              46.00,147.00 0.00,147.00 0.00,147.00              0.00,147.00 0.00,101.00 0.00,101.00              0.00,98.52 -0.38,94.75 1.60,92.93              1.60,92.93 16.00,87.14 16.00,87.14              24.27,83.48 31.06,79.03 38.00,73.25              58.21,56.40 72.92,26.49 73.00,0.00 Z            M 974.00,0.00            C 974.00,0.00 1090.00,0.00 1090.00,0.00              1090.00,0.00 1090.00,101.00 1090.00,101.00              1107.89,87.31 1134.69,80.74 1157.00,81.00              1181.96,81.30 1209.19,89.89 1226.96,108.01              1253.59,135.18 1259.06,174.71 1259.00,211.00              1258.98,222.91 1256.53,241.40 1253.63,253.00              1250.02,267.44 1244.67,281.63 1236.25,294.00              1221.75,315.32 1200.46,329.28 1175.00,333.57              1164.37,335.35 1153.75,335.12 1143.00,335.00              1123.28,334.77 1099.81,324.71 1085.00,312.00              1085.00,312.00 1085.00,333.00 1085.00,333.00              1085.00,333.00 1007.00,333.00 1007.00,333.00              1007.00,333.00 1007.00,54.00 1007.00,54.00              1007.00,54.00 974.00,54.00 974.00,54.00              974.00,54.00 974.00,0.00 974.00,0.00 Z            M 1268.00,0.00            C 1268.00,0.00 1382.00,0.00 1382.00,0.00              1382.00,0.00 1382.00,279.00 1382.00,279.00              1382.00,279.00 1411.00,279.00 1411.00,279.00              1411.00,279.00 1411.00,333.00 1411.00,333.00              1411.00,333.00 1273.00,333.00 1273.00,333.00              1273.00,333.00 1273.00,279.00 1273.00,279.00              1273.00,279.00 1301.00,279.00 1301.00,279.00              1301.00,279.00 1301.00,54.00 1301.00,54.00              1301.00,54.00 1268.00,54.00 1268.00,54.00              1268.00,54.00 1268.00,0.00 1268.00,0.00 Z            M 619.00,115.00            C 639.94,92.29 666.07,81.04 697.00,81.00              711.07,80.98 729.38,84.06 742.00,90.37              749.03,93.88 758.43,100.51 763.96,106.04              768.50,110.57 770.84,114.97 776.00,119.00              782.92,105.57 796.74,97.04 810.00,90.78              823.32,84.49 841.29,81.02 856.00,81.00              885.62,80.96 914.25,90.77 931.65,116.00              951.11,144.21 952.00,178.07 952.00,211.00              952.00,211.00 952.00,279.00 952.00,279.00              952.00,279.00 979.00,279.00 979.00,279.00              979.00,279.00 979.00,333.00 979.00,333.00              979.00,333.00 843.00,333.00 843.00,333.00              843.00,333.00 843.00,279.00 843.00,279.00              843.00,279.00 870.00,279.00 870.00,279.00              870.00,279.00 870.00,181.00 870.00,181.00              869.97,159.75 858.63,146.88 837.00,146.04              809.73,144.98 790.13,165.17 790.00,192.00              790.00,192.00 790.00,279.00 790.00,279.00              790.00,279.00 819.00,279.00 819.00,279.00              819.00,279.00 819.00,333.00 819.00,333.00              819.00,333.00 682.00,333.00 682.00,333.00              682.00,333.00 682.00,279.00 682.00,279.00              682.00,279.00 710.00,279.00 710.00,279.00              710.00,279.00 710.00,188.00 710.00,188.00              709.98,176.94 708.79,163.45 700.82,155.09              688.13,141.79 663.12,144.71 649.00,154.10              643.96,157.46 639.96,161.94 636.70,167.00              628.14,180.28 630.00,193.05 630.00,208.00              630.00,208.00 630.00,279.00 630.00,279.00              630.00,279.00 658.00,279.00 658.00,279.00              658.00,279.00 658.00,333.00 658.00,333.00              658.00,333.00 520.00,333.00 520.00,333.00              520.00,333.00 520.00,279.00 520.00,279.00              520.00,279.00 548.00,279.00 548.00,279.00              548.00,279.00 548.00,139.00 548.00,139.00              548.00,139.00 515.00,139.00 515.00,139.00              515.00,139.00 515.00,84.00 515.00,84.00              515.00,84.00 619.00,84.00 619.00,84.00              619.00,84.00 619.00,115.00 619.00,115.00 Z            M 1543.00,117.00            C 1546.29,108.59 1554.70,101.38 1562.00,96.35              1587.44,78.80 1611.90,81.00 1641.00,81.00              1641.00,81.00 1641.00,153.00 1641.00,153.00              1641.00,153.00 1607.00,153.00 1607.00,153.00              1599.99,153.01 1592.71,153.95 1586.00,156.02              1580.96,157.59 1576.46,159.19 1572.00,162.10              1546.70,178.62 1549.00,202.82 1549.00,229.00              1549.00,229.00 1549.00,279.00 1549.00,279.00              1549.00,279.00 1576.00,279.00 1576.00,279.00              1576.00,279.00 1576.00,333.00 1576.00,333.00              1576.00,333.00 1440.00,333.00 1440.00,333.00              1440.00,333.00 1440.00,279.00 1440.00,279.00              1440.00,279.00 1468.00,279.00 1468.00,279.00              1468.00,279.00 1468.00,139.00 1468.00,139.00              1468.00,139.00 1438.00,139.00 1438.00,139.00              1438.00,139.00 1438.00,84.00 1438.00,84.00              1438.00,84.00 1542.00,84.00 1542.00,84.00              1542.00,84.00 1543.00,117.00 1543.00,117.00 Z            M 222.00,84.00            C 222.00,84.00 306.00,84.00 306.00,84.00              306.00,84.00 306.00,229.00 306.00,229.00              306.03,247.61 309.14,266.54 331.00,269.87              333.85,270.30 337.16,270.89 340.00,270.68              364.29,268.86 385.87,255.86 386.00,229.00              386.00,229.00 386.00,139.00 386.00,139.00              386.00,139.00 354.00,139.00 354.00,139.00              354.00,139.00 354.00,84.00 354.00,84.00              354.00,84.00 468.00,84.00 468.00,84.00              468.00,84.00 468.00,279.00 468.00,279.00              468.00,279.00 491.00,279.00 491.00,279.00              491.00,279.00 491.00,333.00 491.00,333.00              491.00,333.00 397.00,333.00 397.00,333.00              397.00,333.00 397.00,303.00 397.00,303.00              379.35,321.68 352.06,334.96 326.00,335.00              326.00,335.00 308.00,335.00 308.00,335.00              275.09,334.61 244.44,315.41 231.43,285.00              220.17,258.69 222.00,230.92 222.00,203.00              222.00,203.00 222.00,84.00 222.00,84.00 Z            M 1127.00,143.10            C 1117.75,145.02 1109.96,148.22 1103.30,155.17              1092.55,166.39 1089.00,183.05 1087.91,198.00              1086.76,213.71 1086.64,226.72 1091.67,242.00              1098.70,263.35 1116.06,276.70 1139.00,273.71              1160.95,270.85 1170.71,253.03 1174.08,233.00              1175.13,226.74 1175.99,220.35 1176.00,214.00              1176.00,214.00 1176.00,200.00 1176.00,200.00              1175.97,179.34 1168.84,153.94 1148.00,145.45              1143.38,143.57 1140.95,143.06 1136.00,143.10              1136.00,143.10 1132.00,143.10 1132.00,143.10              1132.00,143.10 1127.00,143.10 1127.00,143.10 Z"/>
</svg>