<svg xmlns="http://www.w3.org/2000/svg" viewBox="263.5 186.5 3569.01 3723">
  <path id="twitch" fill="#303030" stroke="none" stroke-width="1"
    d="M 524.00,187.00            C 524.00,187.00 3832.00,187.00 3832.00,187.00              3832.00,187.00 3832.00,1693.00 3832.00,1693.00              3832.00,1693.00 3832.00,2446.00 3832.00,2446.00              3832.00,2448.45 3832.13,2451.72 3831.26,2454.00              3830.00,2457.30 3826.48,2460.51 3824.00,2463.00              3824.00,2463.00 3809.00,2478.00 3809.00,2478.00              3809.00,2478.00 3741.00,2546.00 3741.00,2546.00              3741.00,2546.00 3465.00,2822.00 3465.00,2822.00              3465.00,2822.00 3009.00,3278.00 3009.00,3278.00              3009.00,3278.00 2895.00,3392.00 2895.00,3392.00              2895.00,3392.00 2870.00,3417.00 2870.00,3417.00              2862.45,3424.55 2860.97,3428.98 2850.00,3429.00              2850.00,3429.00 2126.00,3429.00 2126.00,3429.00              2115.79,3429.02 2117.42,3430.48 2109.00,3439.00              2109.00,3439.00 2093.83,3455.00 2093.83,3455.00              2093.83,3455.00 2081.09,3468.00 2081.09,3468.00              2081.09,3468.00 2019.83,3533.00 2019.83,3533.00              2019.83,3533.00 1988.09,3566.00 1988.09,3566.00              1988.09,3566.00 1906.91,3652.00 1906.91,3652.00              1906.91,3652.00 1894.09,3665.00 1894.09,3665.00              1894.09,3665.00 1802.04,3762.00 1802.04,3762.00              1802.04,3762.00 1748.00,3819.00 1748.00,3819.00              1748.00,3819.00 1719.96,3849.00 1719.96,3849.00              1719.96,3849.00 1700.96,3869.00 1700.96,3869.00              1700.96,3869.00 1686.42,3884.00 1686.42,3884.00              1686.42,3884.00 1673.01,3898.00 1673.01,3898.00              1665.41,3905.79 1666.24,3908.98 1655.00,3909.00              1655.00,3909.00 1158.00,3909.00 1158.00,3909.00              1158.00,3909.00 1158.00,3429.00 1158.00,3429.00              1158.00,3429.00 264.00,3429.00 264.00,3429.00              264.00,3429.00 264.00,1701.00 264.00,1701.00              264.00,1701.00 264.00,837.00 264.00,837.00              264.02,827.07 266.79,823.02 270.40,814.00              270.40,814.00 283.80,781.00 283.80,781.00              283.80,781.00 333.60,658.00 333.60,658.00              333.60,658.00 465.20,333.00 465.20,333.00              465.20,333.00 500.42,246.00 500.42,246.00              500.42,246.00 524.00,187.00 524.00,187.00 Z            M 3496.00,522.00            C 3496.00,522.00 858.00,522.00 858.00,522.00              858.00,522.00 858.00,2837.00 858.00,2837.00              858.00,2837.00 1570.00,2837.00 1570.00,2837.00              1570.00,2837.00 1570.00,3330.00 1570.00,3330.00              1576.68,3326.84 1582.42,3319.52 1587.28,3314.00              1587.28,3314.00 1602.00,3299.00 1602.00,3299.00              1602.00,3299.00 1619.04,3281.00 1619.04,3281.00              1619.04,3281.00 1640.96,3259.00 1640.96,3259.00              1640.96,3259.00 1678.04,3220.00 1678.04,3220.00              1678.04,3220.00 1698.96,3199.00 1698.96,3199.00              1698.96,3199.00 1766.04,3129.00 1766.04,3129.00              1766.04,3129.00 1787.96,3107.00 1787.96,3107.00              1787.96,3107.00 1854.04,3038.00 1854.04,3038.00              1854.04,3038.00 1875.96,3016.00 1875.96,3016.00              1875.96,3016.00 1933.00,2957.00 1933.00,2957.00              1933.00,2957.00 1943.04,2946.00 1943.04,2946.00              1943.04,2946.00 1963.96,2925.00 1963.96,2925.00              1963.96,2925.00 2021.00,2866.00 2021.00,2866.00              2021.00,2866.00 2040.00,2846.00 2040.00,2846.00              2042.24,2843.76 2046.32,2839.36 2049.00,2838.02              2051.43,2836.81 2054.35,2837.01 2057.00,2837.00              2057.00,2837.00 2928.00,2837.00 2928.00,2837.00              2930.09,2837.00 2933.06,2837.12 2935.00,2836.40              2939.14,2834.88 2948.87,2823.92 2953.00,2820.28              2953.00,2820.28 3010.00,2764.00 3010.00,2764.00              3010.00,2764.00 3042.00,2732.04 3042.00,2732.04              3042.00,2732.04 3053.00,2722.00 3053.00,2722.00              3053.00,2722.00 3133.00,2642.01 3133.00,2642.01              3133.00,2642.01 3145.00,2631.00 3145.00,2631.00              3145.00,2631.00 3202.00,2574.00 3202.00,2574.00              3202.00,2574.00 3229.00,2547.17 3229.00,2547.17              3229.00,2547.17 3263.00,2514.00 3263.00,2514.00              3263.00,2514.00 3317.00,2460.00 3317.00,2460.00              3317.00,2460.00 3330.00,2448.00 3330.00,2448.00              3330.00,2448.00 3410.00,2368.01 3410.00,2368.01              3410.00,2368.01 3431.00,2348.00 3431.00,2348.00              3431.00,2348.00 3479.00,2300.00 3479.00,2300.00              3482.63,2296.37 3493.91,2286.04 3495.40,2282.00              3496.12,2280.06 3496.00,2277.09 3496.00,2275.00              3496.00,2275.00 3496.00,1691.00 3496.00,1691.00              3496.00,1691.00 3496.00,522.00 3496.00,522.00 Z            M 1736.00,1142.00            C 1736.00,1142.00 2048.00,1142.00 2048.00,1142.00              2048.00,1142.00 2048.00,2128.00 2048.00,2128.00              2048.00,2128.00 1736.00,2128.00 1736.00,2128.00              1736.00,2128.00 1736.00,1142.00 1736.00,1142.00 Z            M 2613.00,1142.00            C 2613.00,1142.00 2925.00,1142.00 2925.00,1142.00              2925.00,1142.00 2925.00,2128.00 2925.00,2128.00              2925.00,2128.00 2613.00,2128.00 2613.00,2128.00              2613.00,2128.00 2613.00,1142.00 2613.00,1142.00 Z" />
</svg>