<svg xmlns="http://www.w3.org/2000/svg" viewBox="4.5 6.48 1237 1006.02">
  <path id="Selection" fill="#303030" stroke="none" stroke-width="1" d="M 613.00,318.00            C 606.21,294.52 606.72,269.16 607.00,245.00              607.23,225.81 613.57,198.29 619.67,180.00              647.81,95.59 717.33,32.97 804.00,13.35              816.68,10.48 829.06,8.80 842.00,7.91              842.00,7.91 852.00,7.00 852.00,7.00              898.88,6.46 944.96,15.95 986.00,39.43              1000.43,47.68 1016.71,58.93 1029.00,70.07              1029.00,70.07 1040.99,81.00 1040.99,81.00              1043.05,83.02 1045.07,85.71 1048.17,85.90              1050.44,86.04 1060.26,83.56 1063.00,82.87              1063.00,82.87 1091.00,75.42 1091.00,75.42              1117.32,67.73 1143.32,57.69 1168.00,45.74              1168.00,45.74 1207.00,25.00 1207.00,25.00              1205.27,36.17 1193.28,61.75 1187.42,72.00              1173.37,96.56 1156.04,118.83 1135.00,137.83              1123.68,148.06 1111.23,156.06 1099.00,165.00              1129.41,160.98 1159.84,154.62 1189.00,145.00              1189.00,145.00 1222.00,133.19 1222.00,133.19              1228.16,130.79 1234.55,127.21 1241.00,126.00              1238.05,133.58 1223.63,151.90 1218.00,159.00              1198.29,183.85 1177.66,205.71 1154.00,226.84              1154.00,226.84 1128.00,248.35 1128.00,248.35              1119.02,255.27 1115.02,255.10 1115.00,266.00              1115.00,266.00 1115.00,320.00 1115.00,320.00              1115.00,320.00 1114.09,330.00 1114.09,330.00              1114.09,330.00 1111.16,366.00 1111.16,366.00              1105.37,420.13 1093.19,473.58 1075.34,525.00              1065.06,554.63 1053.41,583.76 1039.74,612.00              971.62,752.75 857.19,872.40 716.00,940.74              642.60,976.27 563.05,998.49 482.00,1007.16              482.00,1007.16 427.00,1011.00 427.00,1011.00              427.00,1011.00 412.00,1012.00 412.00,1012.00              412.00,1012.00 382.00,1012.00 382.00,1012.00              382.00,1012.00 370.00,1011.04 370.00,1011.04              370.00,1011.04 356.00,1011.04 356.00,1011.04              356.00,1011.04 346.00,1010.09 346.00,1010.09              346.00,1010.09 283.00,1003.42 283.00,1003.42              211.42,992.31 151.75,973.50 86.00,943.31              65.83,934.05 46.05,923.61 27.00,912.20              21.34,908.81 8.12,902.21 5.00,897.00              28.46,900.09 52.34,901.11 76.00,901.00              76.00,901.00 95.00,900.00 95.00,900.00              95.00,900.00 105.00,899.09 105.00,899.09              124.86,897.70 144.47,894.91 164.00,891.00              223.99,879.00 281.04,856.78 333.00,824.42              348.49,814.78 363.83,804.50 378.00,793.00              363.95,793.00 348.78,790.96 335.00,788.20              270.62,775.33 215.32,739.51 177.14,686.00              166.55,671.15 157.03,653.92 150.20,637.00              147.75,630.93 143.98,622.27 143.00,616.00              174.35,620.16 192.96,622.84 225.00,618.27              232.40,617.21 247.49,614.73 254.00,612.00              167.18,594.54 96.07,529.07 67.34,446.00              57.76,418.28 54.00,389.19 54.00,360.00              54.00,360.00 80.00,371.99 80.00,371.99              99.46,380.08 116.23,384.93 137.00,388.41              145.43,389.83 158.68,391.87 167.00,391.00              150.41,382.46 124.86,356.75 113.00,342.00              66.32,283.96 47.71,211.23 59.92,138.00              63.64,115.70 69.84,95.56 79.23,75.00              82.35,68.17 86.42,57.92 92.00,53.00              102.24,66.70 131.58,99.08 144.00,110.96              144.00,110.96 153.00,119.04 153.00,119.04              242.94,205.06 349.76,264.28 470.00,295.88              502.11,304.32 534.97,310.63 568.00,314.16              568.00,314.16 601.00,317.09 601.00,317.09              601.00,317.09 613.00,318.00 613.00,318.00 Z"/>
</svg>