<svg xmlns="http://www.w3.org/2000/svg" viewBox="-0.5 -0.42 513 512.92">
  <path id="Selection" fill="#303030" stroke="none" stroke-width="1" d="M 40.00,0.08            C 40.00,0.08 82.00,0.08 82.00,0.08              82.00,0.08 162.00,0.08 162.00,0.08              162.00,0.08 407.00,0.08 407.00,0.08              407.00,0.08 445.00,0.08 445.00,0.08              445.00,0.08 465.00,0.08 465.00,0.08              484.27,0.09 502.11,13.07 508.94,31.00              511.45,37.60 511.99,41.03 512.00,48.00              512.00,48.00 512.00,405.00 512.00,405.00              512.00,405.00 512.00,444.00 512.00,444.00              512.00,444.00 512.00,465.00 512.00,465.00              511.91,484.70 498.46,502.71 480.00,509.30              473.59,511.59 470.72,511.99 464.00,512.00              464.00,512.00 107.00,512.00 107.00,512.00              107.00,512.00 68.00,512.00 68.00,512.00              68.00,512.00 47.00,512.00 47.00,512.00              27.30,511.91 9.29,498.46 2.70,480.00              0.41,473.59 0.01,470.72 0.00,464.00              0.00,464.00 0.00,114.00 0.00,114.00              0.00,114.00 0.00,48.00 0.00,48.00              0.04,23.72 16.75,5.63 40.00,0.08 Z            M 460.00,293.00            C 460.00,293.00 460.00,254.00 460.00,254.00              460.00,251.96 460.26,248.37 459.01,246.70              457.11,244.17 447.29,242.15 444.00,241.42              426.64,237.59 412.55,237.80 395.00,238.00              367.25,238.33 333.78,250.37 321.32,277.00              315.86,288.68 315.86,296.56 316.00,309.00              316.44,346.35 348.58,361.58 378.00,374.28              392.40,380.50 416.94,390.10 415.96,409.00              415.30,421.58 401.65,427.04 391.00,428.92              372.54,432.16 352.58,427.71 336.00,419.40              336.00,419.40 317.00,408.00 317.00,408.00              317.00,408.00 317.00,450.00 317.00,450.00              317.02,459.18 318.26,459.57 331.00,463.66              341.52,467.03 359.98,469.98 371.00,470.00              399.77,470.04 431.03,469.67 453.00,447.99              459.64,441.43 464.13,434.94 466.97,426.00              468.72,420.51 469.93,414.77 470.00,409.00              470.09,400.81 470.36,393.00 468.25,385.00              461.74,360.43 440.76,347.27 419.00,337.31              405.04,330.92 379.89,322.73 372.09,309.00              370.82,306.78 370.29,304.52 370.09,302.00              368.58,282.35 394.26,277.83 409.00,278.00              420.09,278.13 433.73,281.29 444.00,285.45              444.00,285.45 460.00,293.00 460.00,293.00 Z            M 297.00,243.00            C 297.00,243.00 118.00,243.00 118.00,243.00              118.00,243.00 118.00,284.00 118.00,284.00              118.00,284.00 173.00,284.00 173.00,284.00              181.74,284.06 181.98,285.76 182.00,294.00              182.00,294.00 182.00,467.00 182.00,467.00              182.00,467.00 233.00,467.00 233.00,467.00              233.00,467.00 233.00,284.00 233.00,284.00              233.00,284.00 297.00,284.00 297.00,284.00              297.00,284.00 297.00,243.00 297.00,243.00 Z"/>
</svg>