<svg xmlns="http://www.w3.org/2000/svg" viewBox="-0.9 -0.29 513.5 512.79">
  <path id="Selection" fill="#303030" stroke="none" stroke-width="1" d="M 234.00,0.21            C 234.00,0.21 272.00,0.21 272.00,0.21              288.03,0.19 312.45,5.24 328.00,9.71              406.14,32.17 467.78,90.07 496.42,166.00              504.15,186.49 511.74,218.15 512.00,240.00              512.34,269.59 512.27,287.70 505.35,317.00              492.30,372.24 458.77,423.82 414.00,458.58              402.13,467.79 390.04,475.20 377.00,482.58              349.15,498.31 302.08,511.95 270.00,512.00              270.00,512.00 240.00,512.00 240.00,512.00              222.77,511.79 198.67,506.50 182.00,501.71              114.61,482.33 55.78,432.03 25.26,369.00              -3.94,308.71 -8.80,234.27 13.69,171.00              38.07,102.44 89.59,46.95 157.00,19.01              176.56,10.90 197.06,5.36 218.00,2.27              218.00,2.27 234.00,0.21 234.00,0.21 Z            M 422.00,205.00            C 422.00,205.00 422.00,166.00 422.00,166.00              422.00,163.96 422.26,160.37 421.01,158.70              419.11,156.17 409.29,154.15 406.00,153.42              388.64,149.59 374.55,149.80 357.00,150.00              329.25,150.33 295.78,162.37 283.32,189.00              277.86,200.68 277.86,208.56 278.00,221.00              278.44,258.35 310.58,273.58 340.00,286.28              354.40,292.50 378.94,302.10 377.96,321.00              377.30,333.58 363.65,339.04 353.00,340.92              334.54,344.16 314.58,339.71 298.00,331.40              298.00,331.40 279.00,320.00 279.00,320.00              279.00,320.00 279.00,362.00 279.00,362.00              279.02,371.18 280.26,371.57 293.00,375.66              303.52,379.03 321.98,381.98 333.00,382.00              361.77,382.04 393.03,381.67 415.00,359.99              421.64,353.43 426.13,346.94 428.97,338.00              430.72,332.51 431.93,326.77 432.00,321.00              432.09,312.81 432.36,305.00 430.25,297.00              423.74,272.43 402.76,259.27 381.00,249.31              367.04,242.92 341.89,234.73 334.09,221.00              332.82,218.78 332.29,216.52 332.09,214.00              330.58,194.35 356.26,189.83 371.00,190.00              382.09,190.13 395.73,193.29 406.00,197.45              406.00,197.45 422.00,205.00 422.00,205.00 Z            M 259.00,155.00            C 259.00,155.00 80.00,155.00 80.00,155.00              80.00,155.00 80.00,196.00 80.00,196.00              80.00,196.00 135.00,196.00 135.00,196.00              143.74,196.06 143.98,197.76 144.00,206.00              144.00,206.00 144.00,379.00 144.00,379.00              144.00,379.00 195.00,379.00 195.00,379.00              195.00,379.00 195.00,196.00 195.00,196.00              195.00,196.00 259.00,196.00 259.00,196.00              259.00,196.00 259.00,155.00 259.00,155.00 Z"/>
</svg>