<svg xmlns="http://www.w3.org/2000/svg" viewBox="138.48 135.74 968.83 269.98">
  <path id="typo3-wordmark" fill="#303030" stroke="none" stroke-width="1"
    d="M 306.00,136.24            C 306.00,136.24 337.00,136.24 337.00,136.24              350.14,136.16 374.02,139.73 386.00,144.87              392.45,147.64 399.14,151.66 402.59,158.00              405.29,162.96 405.06,167.56 405.00,173.00              404.71,197.45 392.73,234.12 380.20,255.00              375.85,262.24 367.89,275.24 359.00,276.77              346.17,278.98 334.57,265.09 327.88,256.00              316.40,240.40 307.13,219.38 301.00,201.00              297.30,189.91 293.06,173.62 293.00,162.00              292.95,150.19 291.74,140.00 306.00,136.24 Z            M 340.00,321.10            C 337.79,327.93 329.44,338.77 325.00,345.00              312.93,361.93 293.22,384.59 276.00,396.00              265.58,402.90 254.57,407.89 242.00,403.45              224.34,397.23 207.18,375.19 197.00,360.00              176.87,329.94 158.30,289.83 148.29,255.00              144.29,241.09 139.17,221.37 139.00,207.00              138.89,197.70 139.05,186.90 144.80,179.04              150.14,171.73 161.93,165.73 170.00,161.76              186.29,153.75 208.16,147.57 226.00,144.00              233.78,142.44 245.25,140.17 253.00,140.00              250.76,143.58 248.10,146.94 246.78,151.00              242.62,163.77 246.97,182.33 250.58,195.00              259.96,227.92 273.58,259.97 291.81,289.00              298.22,299.21 312.27,317.67 324.00,321.10              329.23,322.78 334.73,321.70 340.00,321.10 Z            M 737.00,205.00            C 745.11,203.55 765.20,203.00 774.00,203.00              792.10,203.00 809.07,201.82 823.96,214.47              835.75,224.48 838.72,240.50 840.17,255.00              840.62,259.54 841.10,261.10 840.99,266.00              840.99,266.00 840.09,275.00 840.09,275.00              839.61,281.89 839.14,288.27 837.25,295.00              834.79,303.79 830.32,312.76 823.00,318.47              806.71,331.17 781.55,329.00 762.00,329.00              762.00,329.00 762.00,403.00 762.00,403.00              762.00,403.00 737.00,403.00 737.00,403.00              737.00,403.00 737.00,205.00 737.00,205.00 Z            M 917.00,203.21            C 917.00,203.21 933.00,203.21 933.00,203.21              939.19,203.01 943.00,203.51 949.00,205.16              986.88,215.58 988.00,266.06 988.00,298.00              988.00,298.00 988.00,319.00 988.00,319.00              988.00,319.00 987.09,331.00 987.09,331.00              985.70,350.89 982.63,377.02 967.83,391.83              955.13,404.53 939.71,405.19 923.00,405.00              898.67,404.71 882.79,389.65 876.14,367.00              871.97,352.79 870.17,337.76 870.00,323.00              870.00,323.00 869.05,313.00 869.05,313.00              869.05,313.00 869.05,294.00 869.05,294.00              869.05,294.00 870.00,277.00 870.00,277.00              870.23,258.06 876.09,227.08 891.01,214.32              898.83,207.64 907.08,205.06 917.00,203.21 Z            M 1022.00,229.00            C 1022.00,229.00 1022.00,216.00 1022.00,216.00              1022.00,213.92 1021.77,210.26 1023.02,208.56              1024.75,206.23 1034.84,204.96 1038.00,204.43              1051.68,202.14 1071.64,201.32 1084.00,208.36              1095.58,214.95 1100.37,227.43 1102.13,240.00              1103.20,247.62 1103.04,254.35 1103.00,262.00              1102.93,277.71 1097.65,290.47 1084.00,299.00              1097.31,302.16 1102.71,313.45 1104.92,326.00              1108.38,345.72 1108.34,377.50 1093.90,392.98              1080.42,407.43 1056.95,406.14 1039.00,403.72              1039.00,403.72 1021.00,401.00 1021.00,401.00              1021.00,401.00 1021.00,379.00 1021.00,379.00              1021.00,379.00 1053.00,383.00 1053.00,383.00              1056.77,383.04 1060.38,383.15 1064.00,381.89              1081.87,375.68 1081.18,355.33 1081.00,340.00              1080.92,333.22 1079.29,324.55 1075.06,319.09              1066.47,308.02 1046.75,311.00 1034.00,311.00              1034.00,311.00 1034.00,289.00 1034.00,289.00              1047.57,289.00 1064.47,292.24 1073.03,279.00              1078.49,270.57 1078.11,260.60 1078.00,251.00              1077.83,237.03 1071.19,223.12 1055.00,224.32              1055.00,224.32 1022.00,229.00 1022.00,229.00 Z            M 458.00,205.00            C 458.00,205.00 570.00,205.00 570.00,205.00              570.00,205.00 570.00,227.00 570.00,227.00              570.00,227.00 527.00,227.00 527.00,227.00              527.00,227.00 527.00,403.00 527.00,403.00              527.00,403.00 501.00,403.00 501.00,403.00              501.00,403.00 501.00,227.00 501.00,227.00              501.00,227.00 458.00,227.00 458.00,227.00              458.00,227.00 458.00,205.00 458.00,205.00 Z            M 582.00,205.00            C 582.00,205.00 602.00,205.00 602.00,205.00              602.00,205.00 609.37,205.99 609.37,205.99              609.37,205.99 618.26,223.00 618.26,223.00              618.26,223.00 646.00,283.00 646.00,283.00              646.00,283.00 654.26,266.00 654.26,266.00              654.26,266.00 673.78,224.00 673.78,224.00              673.78,224.00 683.39,206.02 683.39,206.02              683.39,206.02 691.00,205.00 691.00,205.00              691.00,205.00 710.00,205.00 710.00,205.00              710.00,205.00 670.58,287.00 670.58,287.00              670.58,287.00 658.13,313.00 658.13,313.00              658.13,313.00 658.13,320.00 658.13,320.00              658.13,320.00 658.13,403.00 658.13,403.00              658.13,403.00 632.00,403.00 632.00,403.00              632.00,403.00 632.00,319.00 632.00,319.00              632.00,319.00 631.37,311.00 631.37,311.00              631.37,311.00 619.24,285.00 619.24,285.00              619.24,285.00 595.75,236.00 595.75,236.00              595.75,236.00 582.00,205.00 582.00,205.00 Z            M 762.00,307.00            C 772.74,307.00 793.32,309.01 802.00,303.15              807.75,299.26 810.44,293.48 812.25,287.00              814.21,280.04 813.65,278.57 814.09,272.00              814.98,258.77 814.75,238.65 803.96,229.22              796.30,222.53 782.47,223.59 773.00,224.72              770.53,225.01 765.38,224.75 763.57,226.17              761.59,227.74 762.00,231.70 762.00,234.00              762.00,234.00 762.00,307.00 762.00,307.00 Z            M 926.00,224.29            C 921.89,224.91 917.71,225.40 914.00,227.41              902.69,233.57 899.84,247.39 897.92,259.00              896.60,267.00 896.01,274.90 896.00,283.00              896.00,283.00 895.00,306.00 895.00,306.00              895.00,306.00 896.00,323.00 896.00,323.00              896.01,332.45 896.86,341.70 898.61,351.00              901.39,365.74 906.35,380.14 923.00,383.08              925.98,383.60 927.94,384.00 931.00,383.70              950.59,381.76 955.53,368.13 959.00,351.00              961.93,336.51 962.00,317.87 962.00,303.00              962.00,286.26 961.90,267.34 958.11,251.00              954.09,233.64 945.19,222.67 926.00,224.29 Z" />
</svg>