<svg xmlns="http://www.w3.org/2000/svg" viewBox="1.75 1.24 1020.75 1021.26">
  <path id="ubuntu" fill="#303030" stroke="none" stroke-width="1"
    d="M 497.00,2.42            C 511.49,0.66 526.48,2.83 541.00,3.00              541.00,3.00 551.00,3.91 551.00,3.91              580.84,5.96 609.97,10.87 639.00,18.13              809.93,60.86 949.11,194.32 999.72,363.00              1010.50,398.94 1017.52,435.58 1020.09,473.00              1020.09,473.00 1021.00,483.00 1021.00,483.00              1021.00,483.00 1022.00,520.00 1022.00,520.00              1022.00,520.00 1021.00,539.00 1021.00,539.00              1021.00,539.00 1019.17,562.00 1019.17,562.00              1015.59,597.83 1008.67,632.58 997.98,667.00              949.46,823.07 823.77,946.87 669.00,997.33              630.88,1009.76 590.95,1017.34 551.00,1020.09              551.00,1020.09 541.00,1021.00 541.00,1021.00              541.00,1021.00 519.00,1022.00 519.00,1022.00              519.00,1022.00 504.00,1022.00 504.00,1022.00              504.00,1022.00 483.00,1021.00 483.00,1021.00              483.00,1021.00 461.00,1019.17 461.00,1019.17              418.46,1014.91 379.27,1006.07 339.00,991.69              289.50,974.02 242.65,948.45 201.00,916.35              160.20,884.90 123.23,846.23 93.72,804.00              -10.31,655.15 -26.29,461.63 49.31,297.00              108.74,167.57 224.18,67.24 360.00,25.02              389.28,15.93 425.49,8.22 456.00,5.17              456.00,5.17 473.00,3.91 473.00,3.91              473.00,3.91 484.00,3.00 484.00,3.00              489.02,2.98 491.91,3.15 497.00,2.42 Z            M 676.00,144.29            C 652.25,148.22 634.53,160.13 623.76,182.00              619.84,189.94 617.11,199.10 617.00,208.00              616.89,217.47 616.78,221.67 619.43,231.00              626.92,257.42 651.83,279.67 680.00,280.00              695.06,280.17 703.12,279.87 717.00,272.74              754.69,253.38 765.18,201.79 738.53,169.00              722.71,149.52 700.49,141.97 676.00,144.29 Z            M 807.00,493.00            C 806.97,482.33 803.95,463.74 801.80,453.00              793.64,412.22 778.08,377.46 755.00,343.00              747.85,332.32 739.71,322.57 731.16,313.00              728.51,310.03 723.50,303.58 720.00,302.11              716.75,300.75 712.23,303.01 709.00,303.96              703.83,305.50 694.39,306.93 689.00,307.00              689.00,307.00 682.00,307.00 682.00,307.00              651.67,306.95 621.23,288.18 605.09,263.00              601.29,257.08 596.51,246.74 594.34,240.00              593.25,236.58 592.16,229.12 589.57,227.09              587.12,225.17 579.33,223.88 576.00,223.12              576.00,223.12 542.00,217.72 542.00,217.72              542.00,217.72 518.00,216.00 518.00,216.00              483.76,215.84 449.49,220.92 417.00,231.93              405.10,235.96 391.91,240.79 381.00,247.00              381.00,247.00 397.70,278.00 397.70,278.00              397.70,278.00 428.00,332.00 428.00,332.00              428.00,332.00 455.00,322.34 455.00,322.34              468.07,318.17 490.36,314.02 504.00,314.00              504.00,314.00 521.00,314.00 521.00,314.00              529.38,314.01 541.67,315.94 550.00,317.60              590.87,325.77 627.12,345.85 655.96,376.00              677.62,398.65 695.54,430.58 703.37,461.00              703.37,461.00 708.25,485.00 708.25,485.00              708.62,487.30 708.83,492.58 710.60,493.98              712.42,495.42 719.50,495.03 722.00,495.00              722.00,495.00 737.00,494.00 737.00,494.00              737.00,494.00 784.00,494.00 784.00,494.00              784.00,494.00 807.00,493.00 807.00,493.00 Z            M 349.00,266.00            C 339.38,269.68 321.04,285.63 313.00,292.93              282.11,320.96 262.05,349.80 243.76,387.00              239.12,396.43 232.76,412.89 229.72,423.00              228.87,425.82 226.12,434.50 226.49,436.96              226.98,440.26 230.70,442.76 232.96,445.04              236.66,448.76 241.38,454.63 244.33,459.00              254.48,474.05 260.99,493.76 260.99,512.00              260.99,529.28 254.69,549.75 244.97,564.00              242.08,568.23 236.43,575.32 232.91,578.96              230.67,581.28 226.98,583.74 226.49,587.04              226.12,589.50 228.87,598.18 229.72,601.00              232.76,611.11 239.12,627.57 243.76,637.00              259.42,668.86 277.21,695.42 302.09,720.96              302.09,720.96 311.00,729.04 311.00,729.04              318.86,736.52 339.46,754.35 349.00,758.00              349.00,758.00 384.42,698.00 384.42,698.00              384.42,698.00 394.00,682.00 394.00,682.00              395.04,680.25 397.12,677.16 396.91,675.09              396.58,671.90 387.65,665.99 385.00,663.72              373.27,653.65 364.94,645.26 355.42,633.00              334.09,605.52 320.64,573.40 315.73,539.00              315.73,539.00 314.00,522.00 314.00,522.00              314.00,522.00 314.00,504.00 314.00,504.00              314.05,469.68 329.14,427.89 348.72,400.00              358.33,386.32 369.33,373.78 382.00,362.87              384.91,360.36 396.57,352.13 396.91,348.91              397.12,346.92 395.12,343.72 394.15,342.00              394.15,342.00 384.60,326.00 384.60,326.00              384.60,326.00 349.00,266.00 349.00,266.00 Z            M 156.00,444.29            C 128.14,448.90 106.57,467.27 99.48,495.00              91.16,527.50 107.76,562.04 139.00,574.99              146.00,577.89 153.38,579.91 161.00,580.00              174.02,580.15 182.88,579.57 195.00,573.88              237.27,554.03 247.31,497.46 214.91,464.04              199.04,447.67 178.14,442.19 156.00,444.29 Z            M 807.00,531.00            C 807.00,531.00 735.00,530.00 735.00,530.00              735.00,530.00 722.00,529.00 722.00,529.00              719.50,528.97 712.42,528.58 710.60,530.02              708.83,531.42 708.47,537.61 708.08,540.00              708.08,540.00 702.57,566.00 702.57,566.00              693.06,599.35 672.75,633.54 647.00,656.83              618.93,682.22 587.15,698.97 550.00,706.40              541.46,708.11 528.60,709.99 520.00,710.00              520.00,710.00 504.00,710.00 504.00,710.00              490.36,709.98 468.07,705.83 455.00,701.66              455.00,701.66 428.00,692.00 428.00,692.00              428.00,692.00 398.14,745.00 398.14,745.00              398.14,745.00 381.00,777.00 381.00,777.00              392.22,783.39 407.65,788.88 420.00,793.00              457.01,805.34 503.27,811.05 542.00,806.28              542.00,806.28 577.00,800.63 577.00,800.63              579.67,799.97 587.72,798.24 589.57,796.86              592.17,794.92 593.01,788.28 594.02,785.00              596.63,776.58 600.31,768.42 605.09,761.00              621.40,735.69 651.45,717.05 682.00,717.00              682.00,717.00 689.00,717.00 689.00,717.00              694.63,717.07 703.55,718.50 709.00,720.01              712.08,720.87 717.04,723.08 720.00,721.88              723.42,720.48 728.40,713.92 731.08,711.00              739.72,701.61 747.89,691.61 755.00,681.00              778.89,645.33 795.99,606.54 803.08,564.00              804.74,554.07 806.97,540.92 807.00,531.00 Z            M 685.00,743.57            C 672.82,744.19 662.85,745.76 652.00,751.87              612.54,774.11 604.27,829.14 637.04,860.91              651.91,875.33 668.85,880.23 689.00,880.00              696.17,879.91 703.32,878.09 710.00,875.58              734.24,866.45 752.88,842.32 753.00,816.00              753.00,816.00 753.00,806.00 753.00,806.00              752.92,799.47 750.99,792.05 748.55,786.00              739.70,764.09 720.20,748.57 697.00,744.46              697.00,744.46 685.00,743.57 685.00,743.57 Z" />
</svg>