<svg xmlns="http://www.w3.org/2000/svg" viewBox="97.59 143.9 708.91 735.6">
  <path id="ubuntu-alt" fill="#303030" stroke="none" stroke-width="1"
    d="M 683.00,144.46            C 691.52,144.03 702.03,146.02 710.00,149.06              717.75,152.03 724.92,156.45 731.00,162.09              767.77,196.22 756.46,256.16 710.00,275.14              703.44,277.82 691.07,280.24 684.00,279.96              671.04,279.46 657.80,275.51 647.00,268.25              613.26,245.56 608.15,197.40 634.30,167.00              643.81,155.94 658.66,148.00 673.00,145.46              673.00,145.46 683.00,144.46 683.00,144.46 Z            M 382.00,247.00            C 414.24,230.27 454.88,220.44 491.00,217.91              491.00,217.91 503.00,217.00 503.00,217.00              503.00,217.00 522.00,217.00 522.00,217.00              535.18,217.02 556.89,219.98 570.00,222.60              573.71,223.34 586.11,225.59 588.70,227.30              591.75,229.31 592.25,235.50 593.35,239.00              595.78,246.77 599.32,255.13 603.69,262.00              621.98,290.75 652.78,308.39 687.00,308.00              693.14,307.92 701.98,306.34 708.00,304.87              710.65,304.22 716.63,302.19 719.00,302.78              722.84,303.73 727.68,310.01 730.28,313.00              730.28,313.00 752.85,341.00 752.85,341.00              775.79,372.59 793.14,413.73 800.80,452.00              803.44,465.19 806.00,479.55 806.00,493.00              806.00,493.00 747.00,493.00 747.00,493.00              747.00,493.00 732.00,494.00 732.00,494.00              732.00,494.00 710.00,494.00 710.00,494.00              709.31,478.98 703.87,458.17 698.68,444.00              675.95,381.97 624.09,335.15 560.00,319.13              546.94,315.86 530.43,313.02 517.00,313.00              517.00,313.00 505.00,313.00 505.00,313.00              489.79,313.18 464.44,318.12 450.00,323.08              450.00,323.08 435.00,328.85 435.00,328.85              433.00,329.66 430.52,330.97 428.39,329.87              426.58,328.95 425.13,325.75 424.14,324.00              424.14,324.00 415.70,309.00 415.70,309.00              415.70,309.00 394.58,271.00 394.58,271.00              391.05,264.77 383.85,253.33 382.00,247.00 Z            M 347.00,757.00            C 347.00,757.00 331.00,745.35 331.00,745.35              321.36,737.92 311.67,729.53 303.04,720.97              278.45,696.56 257.92,666.54 243.70,635.00              238.53,623.56 233.89,612.03 230.28,600.00              229.46,597.26 226.69,589.50 227.11,587.04              227.63,584.01 231.71,581.21 233.83,578.96              239.33,573.14 244.02,566.75 248.31,560.00              259.25,542.78 262.32,521.99 260.91,502.00              259.86,486.98 252.66,469.09 243.84,457.00              241.39,453.64 235.86,446.94 232.96,444.09              230.92,442.08 227.62,439.92 227.11,436.96              226.73,434.75 229.40,426.60 230.14,424.00              232.99,414.04 238.41,400.51 242.70,391.00              259.20,354.39 282.99,320.63 313.00,293.84              320.87,286.81 339.63,270.11 349.00,267.00              349.00,267.00 384.28,327.00 384.28,327.00              384.28,327.00 393.20,342.00 393.20,342.00              394.26,343.80 396.28,346.76 395.99,348.91              395.59,351.83 386.56,357.91 384.00,360.15              372.18,370.51 363.24,379.45 353.65,392.00              331.02,421.64 316.89,457.82 313.92,495.00              313.92,495.00 313.00,505.00 313.00,505.00              312.48,550.08 324.16,591.21 350.74,628.00              360.47,641.46 369.63,650.98 382.00,661.95              384.81,664.44 395.57,671.98 395.99,675.09              396.28,677.25 394.27,680.19 393.20,682.00              393.20,682.00 384.85,696.00 384.85,696.00              384.85,696.00 361.00,736.00 361.00,736.00              357.35,742.08 352.05,752.58 347.00,757.00 Z            M 162.00,444.42            C 169.02,443.59 180.24,445.47 187.00,447.67              195.86,450.56 203.94,455.19 211.00,461.30              245.22,490.94 238.78,546.45 201.00,569.94              194.01,574.28 185.16,577.56 177.00,578.72              165.68,580.33 153.90,579.82 143.00,575.91              92.81,557.91 82.61,492.97 123.00,459.32              135.74,448.71 146.37,446.65 162.00,444.42 Z            M 710.00,530.00            C 710.00,530.00 739.00,530.00 739.00,530.00              739.00,530.00 756.00,531.00 756.00,531.00              756.00,531.00 806.00,531.00 806.00,531.00              806.00,543.83 803.33,559.35 800.80,572.00              793.21,609.92 775.57,651.72 752.85,683.00              752.85,683.00 730.28,711.00 730.28,711.00              727.68,713.99 722.84,720.27 719.00,721.22              716.39,721.87 709.85,719.48 707.00,718.73              701.95,717.40 692.20,716.06 687.00,716.00              653.17,715.61 622.71,732.77 604.34,761.00              599.23,768.87 596.13,776.09 593.35,785.00              592.27,788.45 591.76,794.69 588.70,796.57              586.70,797.80 573.10,800.78 570.00,801.40              557.01,804.01 535.05,806.98 522.00,807.00              522.00,807.00 503.00,807.00 503.00,807.00              503.00,807.00 491.00,806.09 491.00,806.09              468.90,804.54 447.24,800.68 426.00,794.28              426.00,794.28 382.00,777.00 382.00,777.00              383.74,771.03 389.10,762.76 392.23,757.00              392.23,757.00 415.70,715.00 415.70,715.00              415.70,715.00 424.14,700.00 424.14,700.00              425.13,698.25 426.58,695.05 428.39,694.13              430.52,693.03 433.00,694.34 435.00,695.15              435.00,695.15 450.00,700.67 450.00,700.67              466.56,706.19 479.74,708.50 497.00,710.17              497.00,710.17 506.00,711.00 506.00,711.00              592.16,712.00 668.75,661.70 698.68,580.00              703.87,565.83 709.31,545.02 710.00,530.00 Z            M 680.00,744.42            C 687.36,743.53 694.84,744.59 702.00,746.37              740.63,755.99 763.08,798.81 748.54,836.00              739.53,859.02 716.52,878.70 691.00,879.00              691.00,879.00 679.00,879.00 679.00,879.00              671.75,878.91 664.66,876.76 658.00,873.99              635.21,864.51 618.12,840.96 618.00,816.00              618.00,816.00 618.00,806.00 618.00,806.00              618.08,799.47 620.01,792.05 622.45,786.00              630.07,767.13 646.43,752.52 666.00,746.91              672.43,745.07 673.84,745.32 680.00,744.42 Z" />
</svg>