<svg xmlns="http://www.w3.org/2000/svg" viewBox="0.42 -0.2 463.54 464.7">
  <path id="unity" fill="#303030" stroke="none" stroke-width="1"
    d="M 413.00,464.00            C 413.00,464.00 374.00,453.88 374.00,453.88              374.00,453.88 291.00,432.15 291.00,432.15              291.00,432.15 248.00,420.88 248.00,420.88              248.00,420.88 226.02,415.01 226.02,415.01              221.04,412.89 219.43,408.42 216.80,404.00              216.80,404.00 202.15,379.00 202.15,379.00              198.15,372.03 196.75,366.17 188.00,366.00              188.00,366.00 161.00,366.00 161.00,366.00              161.00,366.00 145.00,367.00 145.00,367.00              134.78,366.93 130.93,359.86 124.00,353.00              124.00,353.00 112.00,341.99 112.00,341.99              112.00,341.99 87.00,317.04 87.00,317.04              87.00,317.04 21.00,253.00 21.00,253.00              21.00,253.00 5.02,238.00 5.02,238.00              2.97,235.87 0.04,233.27 1.17,230.00              2.28,226.78 12.96,217.22 16.00,214.58              16.00,214.58 42.00,189.00 42.00,189.00              42.00,189.00 56.00,175.99 56.00,175.99              56.00,175.99 114.00,119.00 114.00,119.00              114.00,119.00 126.00,107.99 126.00,107.99              133.70,100.47 134.86,96.02 146.00,96.04              146.00,96.04 164.00,96.04 164.00,96.04              164.00,96.04 174.00,97.00 174.00,97.00              174.00,97.00 187.00,97.00 187.00,97.00              196.85,96.93 197.52,92.06 202.15,84.00              202.15,84.00 216.15,60.00 216.15,60.00              217.79,57.14 221.06,50.73 223.53,48.90              225.94,47.12 241.00,43.93 245.00,42.85              245.00,42.85 300.00,28.58 300.00,28.58              300.00,28.58 385.00,6.37 385.00,6.37              385.00,6.37 405.00,1.45 405.00,1.45              407.52,0.61 410.96,-0.65 413.07,1.45              414.76,3.41 416.64,12.19 417.42,15.00              417.42,15.00 426.00,46.00 426.00,46.00              426.00,46.00 452.42,142.00 452.42,142.00              452.42,142.00 460.42,171.00 460.42,171.00              461.28,174.08 463.72,181.16 463.43,184.00              463.09,187.27 459.19,193.02 457.40,196.00              457.40,196.00 443.00,220.00 443.00,220.00              441.54,222.44 437.55,228.51 437.20,231.00              436.69,234.70 441.08,240.81 443.00,244.00              443.00,244.00 458.00,269.00 458.00,269.00              460.05,272.42 463.41,276.96 463.33,281.00              463.33,281.00 458.15,301.00 458.15,301.00              458.15,301.00 445.71,346.00 445.71,346.00              445.71,346.00 424.42,423.00 424.42,423.00              424.42,423.00 413.00,464.00 413.00,464.00 Z            M 343.00,70.00            C 343.00,70.00 309.00,78.13 309.00,78.13              309.00,78.13 247.00,93.63 247.00,93.63              247.00,93.63 216.00,101.37 216.00,101.37              216.00,101.37 200.00,105.93 200.00,105.93              200.00,105.93 187.00,118.00 187.00,118.00              187.00,118.00 163.00,142.00 163.00,142.00              163.00,142.00 136.00,168.96 136.00,168.96              136.00,168.96 118.00,186.00 118.00,186.00              118.00,186.00 97.00,208.00 97.00,208.00              97.00,208.00 253.00,208.00 253.00,208.00              253.00,208.00 260.79,206.98 260.79,206.98              260.79,206.98 267.85,197.00 267.85,197.00              267.85,197.00 280.40,176.00 280.40,176.00              280.40,176.00 320.20,109.00 320.20,109.00              320.20,109.00 343.00,70.00 343.00,70.00 Z            M 385.00,94.00            C 385.00,94.00 362.99,130.00 362.99,130.00              362.99,130.00 323.00,197.00 323.00,197.00              323.00,197.00 308.20,222.00 308.20,222.00              306.35,225.09 303.08,229.27 303.95,233.00              304.48,235.32 310.76,245.27 312.40,248.00              312.40,248.00 329.60,277.00 329.60,277.00              329.60,277.00 366.60,339.00 366.60,339.00              366.60,339.00 385.00,369.00 385.00,369.00              385.00,369.00 394.71,337.00 394.71,337.00              394.71,337.00 412.42,275.00 412.42,275.00              412.42,275.00 420.71,246.00 420.71,246.00              420.71,246.00 424.38,231.00 424.38,231.00              424.38,231.00 420.14,215.00 420.14,215.00              420.14,215.00 411.00,183.00 411.00,183.00              411.00,183.00 394.42,125.00 394.42,125.00              394.42,125.00 385.00,94.00 385.00,94.00 Z            M 344.00,393.00            C 344.00,393.00 317.40,348.00 317.40,348.00              317.40,348.00 281.20,287.00 281.20,287.00              281.20,287.00 268.00,265.00 268.00,265.00              268.00,265.00 261.62,256.02 261.62,256.02              261.62,256.02 254.00,255.00 254.00,255.00              254.00,255.00 98.00,255.00 98.00,255.00              98.00,255.00 119.00,277.00 119.00,277.00              119.00,277.00 149.00,306.96 149.00,306.96              149.00,306.96 164.00,321.00 164.00,321.00              164.00,321.00 188.00,345.00 188.00,345.00              188.00,345.00 201.00,356.86 201.00,356.86              201.00,356.86 217.00,361.37 217.00,361.37              217.00,361.37 249.00,369.37 249.00,369.37              249.00,369.37 311.00,384.87 311.00,384.87              311.00,384.87 344.00,393.00 344.00,393.00 Z" />
</svg>