<svg xmlns="http://www.w3.org/2000/svg" viewBox="0.42 -0.2 1280.08 464.7">
  <path id="Selection #1" fill="#303030" stroke="none" stroke-width="1" d="M 413.00,464.00            C 413.00,464.00 374.00,453.88 374.00,453.88              374.00,453.88 291.00,432.15 291.00,432.15              291.00,432.15 248.00,420.88 248.00,420.88              248.00,420.88 226.02,415.01 226.02,415.01              221.04,412.89 219.43,408.42 216.80,404.00              216.80,404.00 202.15,379.00 202.15,379.00              198.15,372.03 196.75,366.17 188.00,366.00              188.00,366.00 161.00,366.00 161.00,366.00              161.00,366.00 145.00,367.00 145.00,367.00              134.78,366.93 130.93,359.86 124.00,353.00              124.00,353.00 112.00,341.99 112.00,341.99              112.00,341.99 87.00,317.04 87.00,317.04              87.00,317.04 21.00,253.00 21.00,253.00              21.00,253.00 5.02,238.00 5.02,238.00              2.97,235.87 0.04,233.27 1.17,230.00              2.28,226.78 12.96,217.22 16.00,214.58              16.00,214.58 42.00,189.00 42.00,189.00              42.00,189.00 56.00,175.99 56.00,175.99              56.00,175.99 114.00,119.00 114.00,119.00              114.00,119.00 126.00,107.99 126.00,107.99              133.70,100.47 134.86,96.02 146.00,96.04              146.00,96.04 164.00,96.04 164.00,96.04              164.00,96.04 174.00,97.00 174.00,97.00              174.00,97.00 187.00,97.00 187.00,97.00              196.85,96.93 197.52,92.06 202.15,84.00              202.15,84.00 216.15,60.00 216.15,60.00              217.79,57.14 221.06,50.73 223.53,48.90              225.94,47.12 241.00,43.93 245.00,42.85              245.00,42.85 300.00,28.58 300.00,28.58              300.00,28.58 385.00,6.37 385.00,6.37              385.00,6.37 405.00,1.45 405.00,1.45              407.52,0.61 410.96,-0.65 413.07,1.45              414.76,3.41 416.64,12.19 417.42,15.00              417.42,15.00 426.00,46.00 426.00,46.00              426.00,46.00 452.42,142.00 452.42,142.00              452.42,142.00 460.42,171.00 460.42,171.00              461.28,174.08 463.72,181.16 463.43,184.00              463.09,187.27 459.19,193.02 457.40,196.00              457.40,196.00 443.00,220.00 443.00,220.00              441.54,222.44 437.55,228.51 437.20,231.00              436.69,234.70 441.08,240.81 443.00,244.00              443.00,244.00 458.00,269.00 458.00,269.00              460.05,272.42 463.41,276.96 463.33,281.00              463.33,281.00 458.15,301.00 458.15,301.00              458.15,301.00 445.71,346.00 445.71,346.00              445.71,346.00 424.42,423.00 424.42,423.00              424.42,423.00 413.00,464.00 413.00,464.00 Z            M 343.00,70.00            C 343.00,70.00 309.00,78.13 309.00,78.13              309.00,78.13 247.00,93.63 247.00,93.63              247.00,93.63 216.00,101.37 216.00,101.37              216.00,101.37 200.00,105.93 200.00,105.93              200.00,105.93 187.00,118.00 187.00,118.00              187.00,118.00 163.00,142.00 163.00,142.00              163.00,142.00 136.00,168.96 136.00,168.96              136.00,168.96 118.00,186.00 118.00,186.00              118.00,186.00 97.00,208.00 97.00,208.00              97.00,208.00 253.00,208.00 253.00,208.00              253.00,208.00 260.79,206.98 260.79,206.98              260.79,206.98 267.85,197.00 267.85,197.00              267.85,197.00 280.40,176.00 280.40,176.00              280.40,176.00 320.20,109.00 320.20,109.00              320.20,109.00 343.00,70.00 343.00,70.00 Z            M 929.00,83.00            C 929.00,83.00 975.00,83.00 975.00,83.00              975.00,83.00 975.00,121.00 975.00,121.00              975.00,121.00 929.00,121.00 929.00,121.00              929.00,121.00 929.00,83.00 929.00,83.00 Z            M 1014.00,83.00            C 1014.00,83.00 1060.00,83.00 1060.00,83.00              1060.00,83.00 1060.00,141.00 1060.00,141.00              1060.00,141.00 1089.00,141.00 1089.00,141.00              1089.00,141.00 1089.00,174.00 1089.00,174.00              1089.00,174.00 1060.00,174.00 1060.00,174.00              1060.00,174.00 1060.00,253.00 1060.00,253.00              1060.00,261.70 1058.26,277.37 1064.22,283.90              1070.65,290.93 1081.30,289.00 1090.00,289.00              1090.00,289.00 1090.00,326.00 1090.00,326.00              1070.91,327.55 1043.76,329.73 1028.00,316.67              1017.47,307.95 1014.02,297.27 1014.00,284.00              1014.00,284.00 1014.00,174.00 1014.00,174.00              1014.00,174.00 988.00,174.00 988.00,174.00              988.00,174.00 988.00,141.00 988.00,141.00              988.00,141.00 1014.00,141.00 1014.00,141.00              1014.00,141.00 1014.00,83.00 1014.00,83.00 Z            M 385.00,94.00            C 385.00,94.00 362.99,130.00 362.99,130.00              362.99,130.00 323.00,197.00 323.00,197.00              323.00,197.00 308.20,222.00 308.20,222.00              306.35,225.09 303.08,229.27 303.95,233.00              304.48,235.32 310.76,245.27 312.40,248.00              312.40,248.00 329.60,277.00 329.60,277.00              329.60,277.00 366.60,339.00 366.60,339.00              366.60,339.00 385.00,369.00 385.00,369.00              385.00,369.00 394.71,337.00 394.71,337.00              394.71,337.00 412.42,275.00 412.42,275.00              412.42,275.00 420.71,246.00 420.71,246.00              420.71,246.00 424.38,231.00 424.38,231.00              424.38,231.00 420.14,215.00 420.14,215.00              420.14,215.00 411.00,183.00 411.00,183.00              411.00,183.00 394.42,125.00 394.42,125.00              394.42,125.00 385.00,94.00 385.00,94.00 Z            M 786.00,165.00            C 796.52,152.75 800.96,145.73 817.00,139.46              827.33,135.42 837.17,135.88 848.00,136.00              871.68,136.28 891.87,152.52 900.55,174.00              907.69,191.69 906.00,213.20 906.00,232.00              906.00,232.00 906.00,327.00 906.00,327.00              906.00,327.00 860.00,327.00 860.00,327.00              860.00,327.00 860.00,218.00 860.00,218.00              859.97,199.45 852.47,184.42 833.00,180.21              829.63,179.48 826.48,178.88 823.00,179.09              797.65,180.65 787.04,203.51 787.00,226.00              787.00,226.00 787.00,327.00 787.00,327.00              787.00,327.00 741.00,327.00 741.00,327.00              741.00,327.00 741.00,141.00 741.00,141.00              741.00,141.00 786.00,141.00 786.00,141.00              786.00,141.00 786.00,165.00 786.00,165.00 Z            M 556.00,141.00            C 556.00,141.00 602.00,141.00 602.00,141.00              602.00,141.00 602.00,253.00 602.00,253.00              602.04,275.74 613.72,289.26 637.00,289.00              655.64,288.78 668.36,274.60 671.54,257.00              673.73,244.83 673.00,225.83 673.00,213.00              673.00,213.00 673.00,141.00 673.00,141.00              673.00,141.00 719.00,141.00 719.00,141.00              719.00,141.00 719.00,327.00 719.00,327.00              719.00,327.00 674.00,327.00 674.00,327.00              674.00,327.00 673.00,306.00 673.00,306.00              670.46,310.74 668.82,312.24 665.00,315.99              660.25,320.64 655.13,324.45 649.00,327.13              629.79,335.51 600.84,333.40 583.00,322.54              574.57,317.40 568.60,310.64 563.90,302.00              554.11,284.01 556.00,262.71 556.00,243.00              556.00,243.00 556.00,141.00 556.00,141.00 Z            M 929.00,141.00            C 929.00,141.00 975.00,141.00 975.00,141.00              975.00,141.00 975.00,327.00 975.00,327.00              975.00,327.00 929.00,327.00 929.00,327.00              929.00,327.00 929.00,141.00 929.00,141.00 Z            M 1101.00,141.00            C 1101.00,141.00 1143.00,141.00 1143.00,141.00              1143.00,141.00 1150.35,141.99 1150.35,141.99              1150.35,141.99 1154.69,151.00 1154.69,151.00              1154.69,151.00 1162.00,171.00 1162.00,171.00              1162.00,171.00 1182.97,229.00 1182.97,229.00              1182.97,229.00 1194.00,264.00 1194.00,264.00              1194.45,254.36 1201.14,232.78 1204.33,223.00              1204.33,223.00 1221.67,169.00 1221.67,169.00              1221.67,169.00 1227.67,150.00 1227.67,150.00              1228.43,147.71 1229.51,143.42 1231.51,142.02              1233.29,140.77 1236.86,141.00 1239.00,141.00              1239.00,141.00 1280.00,141.00 1280.00,141.00              1279.37,147.96 1276.60,153.51 1274.34,160.00              1274.34,160.00 1262.33,195.00 1262.33,195.00              1262.33,195.00 1221.69,313.00 1221.69,313.00              1214.74,332.55 1206.62,363.35 1190.00,376.48              1178.07,385.91 1168.20,386.12 1154.00,387.09              1154.00,387.09 1144.00,388.00 1144.00,388.00              1144.00,388.00 1120.00,388.00 1120.00,388.00              1120.00,388.00 1120.00,348.00 1120.00,348.00              1134.99,348.00 1155.19,350.51 1162.81,334.00              1169.65,319.20 1157.79,292.66 1152.66,278.00              1152.66,278.00 1142.05,250.00 1142.05,250.00              1142.05,250.00 1112.58,172.00 1112.58,172.00              1112.58,172.00 1101.00,141.00 1101.00,141.00 Z            M 344.00,393.00            C 344.00,393.00 317.40,348.00 317.40,348.00              317.40,348.00 281.20,287.00 281.20,287.00              281.20,287.00 268.00,265.00 268.00,265.00              268.00,265.00 261.62,256.02 261.62,256.02              261.62,256.02 254.00,255.00 254.00,255.00              254.00,255.00 98.00,255.00 98.00,255.00              98.00,255.00 119.00,277.00 119.00,277.00              119.00,277.00 149.00,306.96 149.00,306.96              149.00,306.96 164.00,321.00 164.00,321.00              164.00,321.00 188.00,345.00 188.00,345.00              188.00,345.00 201.00,356.86 201.00,356.86              201.00,356.86 217.00,361.37 217.00,361.37              217.00,361.37 249.00,369.37 249.00,369.37              249.00,369.37 311.00,384.87 311.00,384.87              311.00,384.87 344.00,393.00 344.00,393.00 Z"/>
</svg>