<svg xmlns="http://www.w3.org/2000/svg" viewBox="6.48 8.64 848.04 1007.93">
  <path id="Selection" fill="#303030" stroke="none" stroke-width="1" d="M 382.00,9.14            C 382.00,9.14 418.00,9.14 418.00,9.14              418.00,9.14 471.00,9.14 471.00,9.14              471.00,9.14 483.00,9.96 483.00,9.96              483.00,9.96 494.00,9.96 494.00,9.96              494.00,9.96 504.00,10.91 504.00,10.91              504.00,10.91 518.00,11.83 518.00,11.83              518.00,11.83 538.00,13.17 538.00,13.17              538.00,13.17 562.00,15.84 562.00,15.84              626.13,22.70 687.85,36.62 749.00,57.00              771.12,64.37 792.62,73.13 814.00,82.42              814.00,82.42 829.00,89.42 829.00,89.42              829.00,89.42 846.00,97.75 846.00,97.75              848.17,98.84 851.66,100.32 852.98,102.39              854.22,104.34 854.00,107.73 854.00,110.00              854.00,110.00 854.00,509.00 854.00,509.00              854.00,509.00 854.00,620.00 854.00,620.00              854.00,620.00 852.16,643.00 852.16,643.00              846.16,699.18 828.60,750.79 795.57,797.00              781.18,817.14 762.94,836.67 744.00,852.56              724.93,868.57 698.75,884.43 677.00,896.85              644.91,915.17 612.04,931.72 579.00,948.25              579.00,948.25 476.00,996.86 476.00,996.86              476.00,996.86 447.00,1009.86 447.00,1009.86              443.96,1011.21 434.70,1015.63 432.00,1016.01              427.77,1016.59 421.00,1012.72 417.00,1011.00              417.00,1011.00 384.00,996.30 384.00,996.30              384.00,996.30 260.00,937.25 260.00,937.25              209.18,911.83 144.25,878.35 103.00,839.91              84.83,822.98 68.34,801.97 55.05,781.00              25.67,734.61 11.63,681.31 7.91,627.00              7.91,627.00 7.00,615.00 7.00,615.00              7.00,615.00 7.00,510.00 7.00,510.00              7.00,510.00 7.00,110.00 7.00,110.00              7.00,107.87 6.75,104.42 7.99,102.63              9.57,100.38 22.72,94.39 26.00,92.75              46.83,82.34 68.18,73.08 90.00,64.95              150.85,42.27 214.61,26.76 279.00,18.28              279.00,18.28 349.00,11.00 349.00,11.00              349.00,11.00 358.00,11.00 358.00,11.00              358.00,11.00 368.00,10.00 368.00,10.00              373.42,9.94 376.46,10.21 382.00,9.14 Z            M 604.00,106.09            C 597.93,107.16 594.99,106.99 589.00,107.00              589.00,107.00 577.00,107.91 577.00,107.91              577.00,107.91 554.00,109.09 554.00,109.09              520.64,111.38 487.01,115.90 454.00,121.43              349.67,138.94 251.49,174.28 161.00,229.20              129.73,248.18 100.10,270.03 72.00,293.41              72.00,293.41 54.00,309.00 54.00,309.00              52.07,310.77 48.18,313.93 47.02,316.09              45.80,318.36 46.01,321.47 46.00,324.00              46.00,324.00 46.00,527.00 46.00,527.00              46.00,527.00 46.00,595.00 46.00,595.00              46.00,595.00 47.00,610.00 47.00,610.00              47.00,610.00 47.00,620.00 47.00,620.00              47.00,620.00 49.87,650.00 49.87,650.00              57.84,707.33 80.42,758.42 120.09,801.00              142.40,824.95 168.92,842.13 197.00,858.42              225.81,875.15 255.21,890.35 285.00,905.25              285.00,905.25 390.00,955.31 390.00,955.31              390.00,955.31 419.00,968.58 419.00,968.58              422.83,970.24 427.84,973.18 432.00,972.58              435.62,972.06 442.42,968.46 446.00,966.86              446.00,966.86 476.00,953.31 476.00,953.31              476.00,953.31 561.00,913.25 561.00,913.25              612.99,887.25 685.60,852.19 728.00,813.83              739.12,803.78 752.94,788.14 761.85,776.00              794.88,730.95 811.63,676.42 814.04,621.00              814.04,621.00 815.00,609.00 815.00,609.00              815.00,609.00 815.00,554.00 815.00,554.00              815.00,554.00 815.00,432.00 815.00,432.00              815.00,432.00 815.00,122.00 815.00,122.00              815.00,120.01 815.23,116.19 813.98,114.60              812.49,112.72 809.16,113.08 807.00,112.91              807.00,112.91 788.00,111.09 788.00,111.09              788.00,111.09 753.00,108.91 753.00,108.91              753.00,108.91 742.00,108.00 742.00,108.00              742.00,108.00 715.00,107.00 715.00,107.00              715.00,107.00 698.00,106.09 698.00,106.09              698.00,106.09 638.00,106.09 638.00,106.09              638.00,106.09 604.00,106.09 604.00,106.09 Z            M 416.00,839.00            C 416.00,839.00 361.00,839.00 361.00,839.00              357.52,839.00 345.01,839.92 343.02,837.40              341.77,835.81 342.00,831.99 342.00,830.00              342.00,830.00 342.00,367.00 342.00,367.00              342.00,364.57 341.80,361.33 343.02,359.18              345.25,355.29 359.41,348.89 364.00,346.86              381.57,339.10 400.94,334.99 420.00,333.04              420.00,333.04 429.00,333.04 429.00,333.04              429.00,333.04 442.00,332.00 442.00,332.00              442.00,332.00 452.00,332.91 452.00,332.91              465.13,333.83 474.34,335.15 487.00,339.19              496.14,342.12 504.87,346.35 513.00,351.42              554.19,377.12 571.24,425.97 576.16,472.00              576.16,472.00 578.00,495.00 578.00,495.00              578.00,495.00 578.00,519.00 578.00,519.00              577.98,533.88 574.00,562.42 570.37,577.00              558.46,624.89 532.37,669.36 482.00,683.57              469.64,687.06 456.79,688.15 444.00,688.00              434.55,687.89 425.24,685.74 416.00,684.00              416.00,684.00 416.00,839.00 416.00,839.00 Z            M 598.00,599.00            C 598.00,599.00 622.00,614.69 622.00,614.69              648.00,628.78 694.35,639.24 709.12,604.00              710.93,599.70 711.88,594.66 711.99,590.00              712.62,562.22 692.05,549.15 671.00,535.95              671.00,535.95 644.00,518.66 644.00,518.66              625.33,505.94 607.39,487.61 599.70,466.00              596.01,455.62 594.47,441.03 594.04,430.00              593.84,424.92 594.56,423.49 594.92,419.00              598.04,379.94 625.15,349.57 662.00,337.75              670.71,334.95 678.97,333.74 688.00,332.83              693.36,332.30 695.27,331.79 701.00,332.04              719.82,332.86 741.24,337.05 758.00,345.89              762.03,348.01 771.76,352.99 773.40,357.09              774.12,358.88 774.00,362.03 774.00,364.00              774.00,364.00 774.00,420.00 774.00,420.00              774.00,420.00 752.00,403.86 752.00,403.86              746.81,400.81 743.56,399.16 738.00,396.86              716.06,387.81 677.88,385.85 667.71,413.00              666.32,416.70 665.20,421.04 665.04,425.00              663.96,451.72 690.22,464.94 710.00,476.42              710.00,476.42 728.00,487.67 728.00,487.67              749.08,501.66 768.83,519.02 778.55,543.00              783.71,555.74 785.14,569.42 785.91,583.00              786.15,587.29 785.35,589.12 784.90,593.00              784.90,593.00 784.90,601.00 784.90,601.00              780.58,634.56 761.13,664.33 730.00,678.69              710.65,687.62 692.94,689.24 672.00,689.00              654.27,688.79 631.13,682.57 615.00,675.30              611.03,673.52 600.33,669.48 598.57,665.62              597.86,664.06 598.00,660.77 598.00,659.00              598.00,659.00 598.00,599.00 598.00,599.00 Z            M 84.00,340.00            C 84.00,340.00 158.00,340.00 158.00,340.00              158.00,340.00 158.00,579.00 158.00,579.00              158.04,602.19 168.57,625.87 195.00,626.00              204.69,626.04 212.91,625.61 222.00,621.71              224.53,620.63 228.50,619.05 229.98,616.66              231.22,614.66 231.00,611.31 231.00,609.00              231.00,609.00 231.00,340.00 231.00,340.00              231.00,340.00 305.00,340.00 305.00,340.00              305.00,340.00 305.00,652.00 305.00,652.00              304.98,660.87 304.50,660.63 292.00,667.29              280.47,673.44 265.76,679.36 253.00,682.21              204.13,693.12 138.40,696.95 104.90,652.00              91.36,633.84 84.04,604.51 84.00,582.00              84.00,582.00 84.00,542.00 84.00,542.00              84.00,542.00 84.00,340.00 84.00,340.00 Z            M 435.00,392.14            C 431.05,392.89 419.31,394.61 416.99,397.70              415.93,399.11 416.03,401.32 416.00,403.00              416.00,403.00 416.00,447.00 416.00,447.00              416.00,447.00 416.00,615.00 416.00,615.00              416.00,617.13 415.77,620.73 417.02,622.49              419.50,625.99 430.85,626.78 435.00,627.28              454.42,629.64 472.35,621.21 483.25,605.00              490.87,593.68 495.95,576.42 498.39,563.00              499.81,555.18 501.99,535.74 502.00,528.00              502.00,528.00 502.00,504.00 502.00,504.00              502.00,479.15 501.05,453.79 493.00,430.00              487.43,413.56 477.27,399.55 460.00,394.44              452.37,392.18 447.82,391.91 440.00,392.14              440.00,392.14 435.00,392.14 435.00,392.14 Z"/>
</svg>