<svg xmlns="http://www.w3.org/2000/svg" viewBox="32.27 36.47 1216.23 541.03">
  <path id="usb" fill="#303030" stroke="none" stroke-width="1"
    d="M 712.00,82.00            C 713.65,73.19 719.93,64.37 726.04,58.00              744.16,39.11 769.93,32.71 795.00,39.75              822.23,47.39 842.66,73.67 843.00,102.00              843.36,132.87 827.93,158.60 798.00,169.14              772.72,178.04 744.57,171.31 726.04,152.00              719.93,145.63 713.65,136.81 712.00,128.00              712.00,128.00 600.00,128.00 600.00,128.00              585.27,128.02 569.05,134.47 558.00,144.18              558.00,144.18 545.91,157.00 545.91,157.00              545.91,157.00 528.83,175.00 528.83,175.00              528.83,175.00 517.04,187.00 517.04,187.00              517.04,187.00 491.91,214.00 491.91,214.00              491.91,214.00 480.09,226.00 480.09,226.00              480.09,226.00 425.00,284.00 425.00,284.00              425.00,284.00 1112.00,284.00 1112.00,284.00              1112.00,284.00 1112.00,229.00 1112.00,229.00              1112.00,229.00 1144.00,246.58 1144.00,246.58              1144.00,246.58 1205.00,281.72 1205.00,281.72              1205.00,281.72 1231.00,296.72 1231.00,296.72              1231.00,296.72 1248.00,308.00 1248.00,308.00              1248.00,308.00 1212.00,328.58 1212.00,328.58              1212.00,328.58 1150.00,364.28 1150.00,364.28              1141.42,369.16 1119.93,382.73 1112.00,385.00              1112.00,385.00 1112.00,330.00 1112.00,330.00              1112.00,330.00 594.00,330.00 594.00,330.00              594.00,330.00 656.04,396.00 656.04,396.00              656.04,396.00 685.83,427.00 685.83,427.00              685.83,427.00 716.00,459.00 716.00,459.00              727.73,470.78 729.50,474.87 746.00,481.55              762.49,488.23 780.57,487.00 798.00,487.00              798.00,487.00 876.00,487.00 876.00,487.00              876.00,487.00 876.00,441.00 876.00,441.00              876.00,441.00 1012.00,441.00 1012.00,441.00              1012.00,441.00 1012.00,577.00 1012.00,577.00              1012.00,577.00 876.00,577.00 876.00,577.00              876.00,577.00 876.00,532.00 876.00,532.00              876.00,532.00 797.00,532.00 797.00,532.00              775.99,532.00 760.63,533.48 740.00,527.57              721.22,522.19 703.61,511.52 689.00,498.71              689.00,498.71 639.91,447.00 639.91,447.00              639.91,447.00 574.09,378.00 574.09,378.00              574.09,378.00 556.09,359.00 556.09,359.00              556.09,359.00 544.00,346.18 544.00,346.18              532.92,336.44 515.75,330.02 501.00,330.00              501.00,330.00 266.00,330.00 266.00,330.00              263.41,330.01 259.70,329.65 257.72,331.60              256.16,333.13 253.40,343.88 252.19,347.00              248.21,357.27 242.86,367.18 236.26,376.00              217.41,401.20 183.81,419.62 152.00,420.00              132.64,420.22 115.72,418.30 98.00,409.74              84.03,403.00 70.77,393.96 60.75,382.00              21.55,335.15 23.46,269.35 67.00,226.00              74.92,218.12 83.98,211.28 94.00,206.27              111.86,197.34 130.14,193.77 150.00,194.00              183.06,194.39 216.22,211.84 236.10,238.00              243.66,247.94 249.06,258.18 253.00,270.00              255.56,277.67 254.64,283.82 264.00,284.00              264.00,284.00 333.00,284.00 333.00,284.00              347.23,283.98 362.89,278.28 373.96,269.32              373.96,269.32 405.00,237.00 405.00,237.00              405.00,237.00 417.04,224.00 417.04,224.00              417.04,224.00 452.09,187.00 452.09,187.00              452.09,187.00 482.83,155.00 482.83,155.00              482.83,155.00 499.91,137.00 499.91,137.00              512.10,123.91 523.66,110.99 539.00,101.42              557.26,90.03 579.29,82.03 601.00,82.00              601.00,82.00 636.00,82.00 636.00,82.00              636.00,82.00 712.00,82.00 712.00,82.00 Z" />
</svg>