<svg xmlns="http://www.w3.org/2000/svg" viewBox="-0.5 -0.5 2311 2001">
  <path id="vercel" fill="#303030" stroke="none" stroke-width="1"
    d="M 1154.00,0.00            C 1154.00,0.00 1156.00,0.00 1156.00,0.00              1156.00,0.00 1188.58,57.00 1188.58,57.00              1188.58,57.00 1244.58,154.00 1244.58,154.00              1244.58,154.00 1427.58,471.00 1427.58,471.00              1427.58,471.00 2009.42,1479.00 2009.42,1479.00              2009.42,1479.00 2203.42,1815.00 2203.42,1815.00              2203.42,1815.00 2274.42,1938.00 2274.42,1938.00              2274.42,1938.00 2310.00,2000.00 2310.00,2000.00              2310.00,2000.00 0.00,2000.00 0.00,2000.00              0.00,2000.00 11.85,1978.00 11.85,1978.00              11.85,1978.00 36.15,1936.00 36.15,1936.00              36.15,1936.00 118.15,1794.00 118.15,1794.00              118.15,1794.00 382.58,1336.00 382.58,1336.00              382.58,1336.00 912.58,418.00 912.58,418.00              912.58,418.00 1080.58,127.00 1080.58,127.00              1080.58,127.00 1154.00,0.00 1154.00,0.00 Z" />
</svg>