<svg xmlns="http://www.w3.org/2000/svg" viewBox="-0.5 -0.5 8876 2001">
  <path id="vercel-wordmark" fill="#303030" stroke="none" stroke-width="1"
    d="M 1154.00,0.00            C 1154.00,0.00 1156.00,0.00 1156.00,0.00              1156.00,0.00 1188.58,57.00 1188.58,57.00              1188.58,57.00 1244.58,154.00 1244.58,154.00              1244.58,154.00 1427.58,471.00 1427.58,471.00              1427.58,471.00 2009.42,1479.00 2009.42,1479.00              2009.42,1479.00 2203.42,1815.00 2203.42,1815.00              2203.42,1815.00 2274.42,1938.00 2274.42,1938.00              2274.42,1938.00 2310.00,2000.00 2310.00,2000.00              2310.00,2000.00 0.00,2000.00 0.00,2000.00              0.00,2000.00 11.85,1978.00 11.85,1978.00              11.85,1978.00 36.15,1936.00 36.15,1936.00              36.15,1936.00 118.15,1794.00 118.15,1794.00              118.15,1794.00 382.58,1336.00 382.58,1336.00              382.58,1336.00 912.58,418.00 912.58,418.00              912.58,418.00 1080.58,127.00 1080.58,127.00              1080.58,127.00 1154.00,0.00 1154.00,0.00 Z            M 2349.00,156.00            C 2349.00,156.00 2667.00,156.00 2667.00,156.00              2676.57,156.02 2674.77,156.09 2683.42,171.00              2683.42,171.00 2706.00,210.00 2706.00,210.00              2706.00,210.00 2805.85,383.00 2805.85,383.00              2805.85,383.00 2922.58,585.00 2922.58,585.00              2922.58,585.00 3079.58,857.00 3079.58,857.00              3079.58,857.00 3169.58,1013.00 3169.58,1013.00              3169.58,1013.00 3200.80,1067.00 3200.80,1067.00              3205.32,1074.59 3210.70,1085.48 3216.00,1092.00              3216.00,1092.00 3233.99,1060.00 3233.99,1060.00              3233.99,1060.00 3260.58,1014.00 3260.58,1014.00              3260.58,1014.00 3346.58,865.00 3346.58,865.00              3346.58,865.00 3525.42,555.00 3525.42,555.00              3525.42,555.00 3627.72,378.00 3627.72,378.00              3627.72,378.00 3725.28,209.00 3725.28,209.00              3725.28,209.00 3747.80,170.00 3747.80,170.00              3755.92,156.37 3754.21,156.02 3764.00,156.00              3764.00,156.00 4082.00,156.00 4082.00,156.00              4082.00,156.00 4044.42,222.00 4044.42,222.00              4044.42,222.00 3977.42,338.00 3977.42,338.00              3977.42,338.00 3779.42,681.00 3779.42,681.00              3779.42,681.00 3398.42,1341.00 3398.42,1341.00              3398.42,1341.00 3271.42,1561.00 3271.42,1561.00              3271.42,1561.00 3216.00,1657.00 3216.00,1657.00              3216.00,1657.00 3203.58,1637.00 3203.58,1637.00              3203.58,1637.00 3181.15,1598.00 3181.15,1598.00              3181.15,1598.00 3113.58,1481.00 3113.58,1481.00              3113.58,1481.00 2882.58,1081.00 2882.58,1081.00              2882.58,1081.00 2528.58,468.00 2528.58,468.00              2528.58,468.00 2409.58,262.00 2409.58,262.00              2409.58,262.00 2369.15,192.00 2369.15,192.00              2369.15,192.00 2349.00,156.00 2349.00,156.00 Z            M 8593.00,156.00            C 8593.00,156.00 8875.00,156.00 8875.00,156.00              8875.00,156.00 8875.00,1594.00 8875.00,1594.00              8875.00,1594.00 8593.00,1594.00 8593.00,1594.00              8593.00,1594.00 8593.00,156.00 8593.00,156.00 Z            M 4985.00,1403.00            C 4981.26,1410.00 4972.63,1418.88 4967.16,1425.00              4952.23,1441.73 4935.97,1457.35 4919.00,1472.00              4848.10,1533.18 4765.92,1574.42 4676.00,1599.42              4638.01,1609.99 4599.18,1616.97 4560.00,1621.16              4560.00,1621.16 4525.00,1624.00 4525.00,1624.00              4525.00,1624.00 4509.00,1625.00 4509.00,1625.00              4509.00,1625.00 4448.00,1625.00 4448.00,1625.00              4448.00,1625.00 4429.00,1624.00 4429.00,1624.00              4429.00,1624.00 4419.00,1623.09 4419.00,1623.09              4393.56,1621.31 4368.13,1618.11 4343.00,1613.58              4213.33,1590.19 4087.39,1530.16 3996.91,1433.00              3976.38,1410.96 3956.70,1387.43 3940.43,1362.00              3913.96,1320.61 3896.55,1285.64 3881.00,1239.00              3868.82,1202.46 3860.93,1165.28 3856.84,1127.00              3856.84,1127.00 3854.91,1105.00 3854.91,1105.00              3854.91,1105.00 3854.00,1095.00 3854.00,1095.00              3854.00,1095.00 3853.00,1052.00 3853.00,1052.00              3853.00,1052.00 3854.00,1038.00 3854.00,1038.00              3854.13,1009.26 3858.30,975.39 3863.42,947.00              3881.50,846.78 3926.46,753.67 3995.91,679.00              3995.91,679.00 4013.00,661.04 4013.00,661.04              4095.89,581.75 4200.53,531.86 4313.00,511.58              4337.97,507.07 4377.13,501.29 4402.00,501.00              4402.00,501.00 4417.00,500.00 4417.00,500.00              4417.00,500.00 4478.00,500.00 4478.00,500.00              4478.00,500.00 4497.00,501.00 4497.00,501.00              4497.00,501.00 4507.00,501.91 4507.00,501.91              4538.88,504.14 4570.76,508.68 4602.00,515.58              4706.24,538.60 4802.36,584.78 4880.00,659.04              4909.32,687.08 4934.51,719.09 4956.66,753.00              4977.66,785.17 4998.06,828.53 5010.33,865.00              5028.94,920.29 5040.32,980.66 5041.00,1039.00              5041.00,1039.00 5042.00,1054.00 5042.00,1054.00              5042.00,1054.00 5042.00,1070.00 5042.00,1070.00              5042.00,1070.00 5041.00,1086.00 5041.00,1086.00              5041.00,1086.00 5039.83,1109.00 5039.83,1109.00              5039.83,1109.00 5034.58,1151.00 5034.58,1151.00              5034.58,1151.00 5031.00,1172.00 5031.00,1172.00              5031.00,1172.00 4156.00,1172.00 4156.00,1172.00              4158.29,1180.47 4164.72,1192.93 4168.75,1201.00              4182.77,1229.03 4200.88,1252.88 4223.00,1275.00              4322.71,1374.71 4482.96,1397.58 4613.00,1351.31              4646.08,1339.54 4678.29,1322.16 4706.00,1300.58              4715.84,1292.91 4725.18,1284.82 4734.00,1276.00              4736.49,1273.51 4742.72,1266.42 4746.00,1266.01              4749.07,1265.63 4760.77,1273.11 4764.00,1275.01              4764.00,1275.01 4810.00,1301.60 4810.00,1301.60              4810.00,1301.60 4925.00,1368.15 4925.00,1368.15              4925.00,1368.15 4968.00,1392.99 4968.00,1392.99              4968.00,1392.99 4985.00,1403.00 4985.00,1403.00 Z            M 7125.00,1359.00            C 7122.43,1367.79 7107.88,1387.75 7102.00,1396.00              7080.00,1426.86 7054.41,1455.13 7026.00,1480.15              6942.47,1553.70 6842.20,1597.09 6733.00,1615.41              6706.82,1619.81 6680.49,1622.89 6654.00,1624.04              6654.00,1624.04 6641.00,1625.00 6641.00,1625.00              6641.00,1625.00 6580.00,1625.00 6580.00,1625.00              6580.00,1625.00 6561.00,1624.00 6561.00,1624.00              6561.00,1624.00 6551.00,1623.09 6551.00,1623.09              6551.00,1623.09 6513.00,1619.28 6513.00,1619.28              6476.09,1614.47 6439.61,1606.98 6404.00,1596.02              6316.51,1569.11 6237.02,1525.02 6172.00,1460.00              6172.00,1460.00 6156.17,1444.00 6156.17,1444.00              6088.71,1369.44 6044.43,1279.99 6026.58,1181.00              6021.80,1154.52 6017.31,1126.91 6017.00,1100.00              6017.00,1100.00 6016.00,1085.00 6016.00,1085.00              6016.00,1085.00 6016.00,1040.00 6016.00,1040.00              6016.00,1040.00 6017.00,1021.00 6017.00,1021.00              6017.00,1021.00 6017.91,1011.00 6017.91,1011.00              6017.91,1011.00 6022.73,967.00 6022.73,967.00              6029.81,917.90 6044.30,866.22 6064.70,821.00              6106.59,728.11 6171.67,650.70 6258.00,595.95              6330.41,550.02 6408.35,521.72 6493.00,508.58              6517.25,504.81 6541.51,502.03 6566.00,500.96              6566.00,500.96 6577.00,500.00 6577.00,500.00              6577.00,500.00 6640.00,500.00 6640.00,500.00              6640.00,500.00 6656.00,501.00 6656.00,501.00              6670.81,501.07 6703.59,505.00 6719.00,507.27              6833.76,524.18 6939.52,568.82 7027.00,645.85              7056.28,671.62 7082.22,701.27 7104.86,733.00              7104.86,733.00 7120.19,756.00 7120.19,756.00              7121.48,758.09 7124.59,762.37 7124.13,764.82              7123.56,767.79 7117.51,770.56 7115.00,772.00              7115.00,772.00 7089.00,787.00 7089.00,787.00              7089.00,787.00 6980.00,849.85 6980.00,849.85              6980.00,849.85 6918.00,885.60 6918.00,885.60              6910.90,889.81 6890.70,902.40 6884.00,904.00              6872.72,878.71 6848.86,850.04 6829.00,830.96              6782.18,785.99 6721.92,761.25 6658.00,753.28              6658.00,753.28 6625.00,751.00 6625.00,751.00              6625.00,751.00 6610.00,750.01 6610.00,750.01              6610.00,750.01 6600.00,750.96 6600.00,750.96              6600.00,750.96 6587.00,750.96 6587.00,750.96              6574.94,751.14 6553.22,754.37 6541.00,756.58              6495.63,764.76 6453.56,781.47 6416.00,808.43              6344.38,859.84 6308.41,939.25 6299.83,1025.00              6299.83,1025.00 6298.00,1048.00 6298.00,1048.00              6297.66,1077.58 6299.09,1106.89 6304.80,1136.00              6318.18,1204.21 6352.68,1267.45 6408.00,1310.58              6461.41,1352.21 6529.67,1373.22 6597.00,1374.00              6597.00,1374.00 6610.00,1374.99 6610.00,1374.99              6610.00,1374.99 6620.00,1374.04 6620.00,1374.04              6620.00,1374.04 6632.00,1374.04 6632.00,1374.04              6647.68,1373.81 6675.47,1369.46 6691.00,1365.88              6743.54,1353.79 6789.82,1331.67 6829.00,1294.04              6848.40,1275.40 6873.26,1245.80 6884.00,1221.00              6884.00,1221.00 6910.00,1234.85 6910.00,1234.85              6910.00,1234.85 6960.00,1263.72 6960.00,1263.72              6960.00,1263.72 7069.00,1326.58 7069.00,1326.58              7069.00,1326.58 7125.00,1359.00 7125.00,1359.00 Z            M 8350.00,1403.00            C 8346.26,1410.00 8337.63,1418.88 8332.16,1425.00              8317.23,1441.73 8300.97,1457.35 8284.00,1472.00              8213.10,1533.18 8130.92,1574.42 8041.00,1599.42              8003.01,1609.99 7964.18,1616.97 7925.00,1621.16              7925.00,1621.16 7890.00,1624.00 7890.00,1624.00              7890.00,1624.00 7874.00,1625.00 7874.00,1625.00              7874.00,1625.00 7813.00,1625.00 7813.00,1625.00              7813.00,1625.00 7794.00,1624.00 7794.00,1624.00              7794.00,1624.00 7773.00,1622.17 7773.00,1622.17              7745.70,1619.52 7718.92,1615.79 7692.00,1610.40              7577.81,1587.56 7467.47,1534.83 7383.00,1454.04              7383.00,1454.04 7373.01,1444.99 7373.01,1444.99              7373.01,1444.99 7364.91,1436.00 7364.91,1436.00              7339.08,1408.27 7320.24,1384.92 7299.69,1353.00              7276.98,1317.73 7259.25,1278.74 7246.00,1239.00              7233.85,1202.56 7225.92,1165.17 7221.84,1127.00              7221.84,1127.00 7219.91,1105.00 7219.91,1105.00              7219.91,1105.00 7219.00,1095.00 7219.00,1095.00              7219.00,1095.00 7218.00,1052.00 7218.00,1052.00              7218.00,1052.00 7219.00,1038.00 7219.00,1038.00              7219.13,1009.26 7223.30,975.39 7228.42,947.00              7246.50,846.78 7291.46,753.67 7360.91,679.00              7360.91,679.00 7378.00,661.04 7378.00,661.04              7460.89,581.75 7565.53,531.86 7678.00,511.58              7702.97,507.07 7742.13,501.29 7767.00,501.00              7767.00,501.00 7782.00,500.00 7782.00,500.00              7782.00,500.00 7843.00,500.00 7843.00,500.00              7843.00,500.00 7862.00,501.00 7862.00,501.00              7862.00,501.00 7872.00,501.91 7872.00,501.91              7903.88,504.14 7935.76,508.68 7967.00,515.58              8071.21,538.59 8167.39,584.80 8245.00,659.04              8274.32,687.08 8299.51,719.09 8321.66,753.00              8342.66,785.17 8363.06,828.53 8375.33,865.00              8393.94,920.29 8405.32,980.66 8406.00,1039.00              8406.00,1039.00 8407.00,1054.00 8407.00,1054.00              8407.00,1054.00 8407.00,1070.00 8407.00,1070.00              8407.00,1070.00 8406.00,1086.00 8406.00,1086.00              8406.00,1086.00 8404.83,1109.00 8404.83,1109.00              8404.83,1109.00 8399.58,1151.00 8399.58,1151.00              8399.58,1151.00 8396.00,1172.00 8396.00,1172.00              8396.00,1172.00 7521.00,1172.00 7521.00,1172.00              7523.29,1180.47 7529.72,1192.93 7533.75,1201.00              7547.77,1229.03 7565.88,1252.88 7588.00,1275.00              7687.71,1374.71 7847.96,1397.58 7978.00,1351.31              8011.08,1339.54 8043.29,1322.16 8071.00,1300.58              8080.84,1292.91 8090.18,1284.82 8099.00,1276.00              8101.49,1273.51 8107.72,1266.42 8111.00,1266.01              8114.07,1265.63 8125.77,1273.11 8129.00,1275.01              8129.00,1275.01 8175.00,1301.60 8175.00,1301.60              8175.00,1301.60 8290.00,1368.15 8290.00,1368.15              8290.00,1368.15 8333.00,1392.99 8333.00,1392.99              8333.00,1392.99 8350.00,1403.00 8350.00,1403.00 Z            M 5228.00,531.00            C 5228.00,531.00 5510.00,531.00 5510.00,531.00              5510.00,531.00 5510.00,714.00 5510.00,714.00              5510.00,714.00 5510.00,770.00 5510.00,770.00              5510.00,770.00 5511.00,799.00 5511.00,799.00              5511.04,784.72 5515.81,766.57 5520.33,753.00              5534.47,710.59 5560.92,673.60 5594.00,643.83              5655.09,588.85 5734.58,555.08 5815.00,540.58              5839.20,536.21 5863.45,533.03 5888.00,531.96              5888.00,531.96 5901.00,531.00 5901.00,531.00              5901.00,531.00 5923.00,531.00 5923.00,531.00              5923.00,531.00 5923.00,834.00 5923.00,834.00              5923.00,834.00 5893.00,827.21 5893.00,827.21              5893.00,827.21 5848.00,820.04 5848.00,820.04              5848.00,820.04 5839.00,820.04 5839.00,820.04              5839.00,820.04 5829.00,819.00 5829.00,819.00              5771.20,818.33 5713.06,830.69 5662.00,858.31              5567.25,909.56 5512.24,1011.69 5511.00,1118.00              5511.00,1118.00 5510.00,1133.00 5510.00,1133.00              5510.00,1133.00 5510.00,1594.00 5510.00,1594.00              5510.00,1594.00 5228.00,1594.00 5228.00,1594.00              5228.00,1594.00 5228.00,531.00 5228.00,531.00 Z            M 4742.00,953.00            C 4736.93,930.76 4719.37,896.09 4706.67,877.00              4662.30,810.33 4595.04,770.50 4517.00,756.42              4500.61,753.47 4480.59,751.03 4464.00,751.00              4464.00,751.00 4449.00,750.00 4449.00,750.00              4449.00,750.00 4437.00,750.96 4437.00,750.96              4437.00,750.96 4424.00,750.96 4424.00,750.96              4411.94,751.14 4390.22,754.37 4378.00,756.58              4298.28,770.96 4227.90,813.41 4184.58,883.00              4173.33,901.07 4157.70,932.40 4153.00,953.00              4153.00,953.00 4742.00,953.00 4742.00,953.00 Z            M 8107.00,953.00            C 8101.93,930.76 8084.37,896.09 8071.67,877.00              8027.30,810.33 7960.04,770.50 7882.00,756.42              7865.61,753.47 7845.59,751.03 7829.00,751.00              7829.00,751.00 7814.00,750.00 7814.00,750.00              7814.00,750.00 7802.00,750.96 7802.00,750.96              7802.00,750.96 7789.00,750.96 7789.00,750.96              7789.00,750.96 7779.00,751.91 7779.00,751.91              7761.10,753.22 7743.47,755.97 7726.00,760.12              7652.44,777.58 7589.98,818.09 7549.58,883.00              7538.33,901.07 7522.70,932.40 7518.00,953.00              7518.00,953.00 8107.00,953.00 8107.00,953.00 Z" />
</svg>