<svg xmlns="http://www.w3.org/2000/svg" viewBox="16.37 21.59 85.09 75.56">
  <path id="Selection" fill="#303030" stroke="none" stroke-width="1" d="M 65.00,42.00            C 66.70,34.77 70.12,28.33 77.00,24.84              89.82,18.33 101.86,23.50 100.91,39.00              99.94,54.68 82.87,76.38 72.00,86.99              67.45,91.43 59.92,97.60 53.00,96.52              47.97,95.73 44.88,91.30 42.90,87.00              42.90,87.00 34.42,58.00 34.42,58.00              33.28,54.03 30.94,44.82 25.96,44.38              23.86,44.20 20.86,46.04 19.00,47.00              17.97,45.48 16.64,44.13 16.91,42.09              17.20,39.88 20.43,37.39 22.00,35.92              26.36,31.83 33.95,24.57 40.00,23.62              45.52,22.76 48.98,26.22 50.88,31.00              50.88,31.00 56.37,58.00 56.37,58.00              57.17,61.17 58.78,68.80 63.03,68.80              66.00,68.80 68.86,64.22 70.15,62.00              73.65,56.84 82.57,41.61 70.15,41.20              68.26,41.14 66.66,41.60 65.00,42.00 Z"/>
</svg>