<svg xmlns="http://www.w3.org/2000/svg" viewBox="0.43 -0.58 826.17 235.29">
  <path id="vimeo-text" fill="#303030" stroke="none" stroke-width="1"
    d="M 234.00,0.46            C 238.83,-0.20 246.51,-0.58 251.00,1.36              262.44,6.32 265.96,20.33 260.62,31.00              253.67,44.91 239.13,52.33 224.00,51.99              211.90,51.71 203.27,47.02 202.19,34.00              201.89,30.44 202.90,25.22 204.41,22.00              209.65,10.81 222.27,3.07 234.00,0.46 Z            M 105.00,117.00            C 108.65,101.43 119.05,83.78 134.00,76.90              145.70,71.52 168.13,70.06 177.67,80.18              183.16,86.00 184.83,94.27 185.00,102.00              191.30,95.71 197.92,89.65 205.00,84.24              208.97,81.20 214.25,77.70 219.00,76.10              229.57,72.56 241.96,76.43 246.53,87.00              249.33,93.45 249.03,97.23 249.00,104.00              248.96,111.31 246.95,117.86 245.61,125.00              245.61,125.00 239.41,160.00 239.41,160.00              238.01,168.34 234.95,178.98 242.21,185.61              249.81,192.55 262.19,183.92 267.77,177.83              271.46,173.81 271.41,168.16 272.13,163.00              272.13,163.00 276.15,137.00 276.15,137.00              276.56,133.59 277.59,127.32 276.69,124.06              274.30,115.46 264.64,127.28 260.04,126.90              256.78,126.62 250.91,118.67 249.00,116.00              249.00,116.00 276.00,90.84 276.00,90.84              281.13,86.25 288.73,79.04 295.00,76.36              308.98,70.40 319.50,82.66 322.84,95.00              324.37,100.67 324.00,105.22 324.00,111.00              341.65,90.67 359.30,78.68 387.00,79.00              405.20,79.22 415.78,89.76 416.00,108.00              416.00,108.00 416.00,114.00 416.00,114.00              424.60,105.40 432.81,96.12 443.00,89.36              455.03,81.37 465.75,78.84 480.00,79.00              483.92,79.05 486.23,79.27 490.00,80.52              502.41,84.66 506.70,93.85 508.15,106.00              510.14,122.61 504.48,141.72 501.00,158.00              499.19,166.44 492.18,190.99 509.00,188.62              509.00,188.62 519.00,185.00 519.00,185.00              515.34,169.93 520.92,150.45 527.76,137.00              540.86,111.24 566.99,88.36 595.00,80.43              608.59,76.58 616.34,76.98 630.00,77.00              640.07,77.02 651.19,79.42 658.82,86.47              669.60,96.42 670.86,113.98 665.94,127.00              659.59,143.78 641.28,159.90 626.00,168.72              610.91,177.42 597.02,181.80 580.00,185.00              580.00,185.00 580.00,187.00 580.00,187.00              584.32,189.21 588.20,192.36 593.00,193.47              606.45,196.58 632.84,190.72 646.00,186.33              650.59,184.81 664.69,180.58 666.98,176.78              668.20,174.74 668.00,171.34 668.00,169.00              668.00,169.00 668.00,162.00 668.00,162.00              668.18,146.78 675.10,131.25 683.72,119.00              704.29,89.76 734.19,73.59 770.00,74.00              801.50,74.37 825.62,95.64 826.00,128.00              826.11,137.71 826.48,147.44 824.55,157.00              818.40,187.57 798.46,213.67 770.00,226.69              741.82,239.59 688.67,238.26 676.00,204.00              676.00,204.00 642.00,220.55 642.00,220.55              615.23,231.44 597.43,233.33 569.00,233.00              553.46,232.81 532.21,223.71 527.00,208.00              512.33,221.98 489.78,233.78 469.00,232.96              451.40,232.27 444.03,223.02 444.00,206.00              444.00,206.00 444.00,199.00 444.00,199.00              444.03,179.59 452.82,161.28 453.91,142.00              454.36,134.05 449.85,122.62 440.00,128.09              434.17,131.32 426.39,141.23 422.81,147.00              411.57,165.14 404.96,180.67 402.83,202.00              402.83,202.00 402.08,209.00 402.08,209.00              402.08,216.90 404.64,224.36 406.00,232.00              406.00,232.00 384.00,230.39 384.00,230.39              379.24,229.54 374.30,228.28 370.00,226.02              355.22,218.26 354.83,203.53 355.00,189.00              355.00,189.00 362.96,142.00 362.96,142.00              363.26,134.21 358.59,122.93 349.00,127.47              342.31,130.64 335.62,140.50 332.26,147.00              321.16,168.46 316.96,184.86 317.00,209.00              317.01,218.55 318.76,223.19 320.00,232.00              301.51,231.99 275.52,228.36 272.00,206.00              260.67,212.61 256.89,219.46 239.00,227.13              233.06,229.67 227.38,231.12 221.00,232.00              215.54,232.76 212.64,233.45 207.00,232.56              204.15,232.11 200.60,231.32 198.00,230.08              176.61,219.92 186.25,185.49 190.63,168.00              190.63,168.00 194.14,155.00 194.14,155.00              195.53,150.10 200.65,132.97 200.74,129.00              200.81,125.49 198.93,120.71 194.98,120.15              191.97,119.73 185.46,124.38 183.41,126.52              180.78,129.26 178.40,136.29 176.69,140.00              173.82,146.25 170.21,152.17 166.58,158.00              154.62,177.19 134.20,203.77 117.00,218.08              105.79,227.40 96.08,233.82 81.00,232.96              70.16,232.34 64.15,222.77 59.76,214.00              53.06,200.61 44.37,162.74 39.57,146.00              38.02,140.59 34.07,130.59 31.04,126.00              29.51,123.70 26.92,120.55 24.00,120.15              17.41,119.26 12.05,131.34 5.67,124.84              3.53,122.66 0.00,118.22 1.16,115.00              2.13,112.32 10.44,105.45 13.00,103.16              22.12,95.02 36.02,81.78 47.00,76.90              59.43,71.38 71.72,76.76 77.12,89.00              81.82,99.65 86.07,134.84 89.65,150.00              91.02,155.79 93.30,163.97 96.35,169.00              97.58,171.02 99.41,173.71 102.02,173.89              107.41,174.27 115.73,161.22 118.41,157.00              123.21,149.46 130.29,137.94 131.16,129.00              131.93,121.06 128.54,114.93 120.00,114.22              115.14,113.82 109.80,116.15 105.00,117.00 Z            M 762.00,109.29            C 758.05,109.94 754.63,110.57 751.00,112.38              730.75,122.41 718.76,152.25 719.00,174.00              719.12,184.11 723.02,197.33 735.00,197.96              746.22,198.55 755.77,191.66 762.24,183.00              772.99,168.61 776.98,155.59 778.54,138.00              779.21,130.36 776.35,114.05 768.96,110.17              766.53,108.90 764.60,109.11 762.00,109.29 Z            M 572.00,168.00            C 587.21,162.69 604.67,150.57 613.45,137.00              617.13,131.32 621.98,120.87 614.86,115.74              608.16,110.91 597.96,117.52 593.00,122.09              579.89,134.19 572.00,150.16 572.00,168.00 Z" />
</svg>