<svg xmlns="http://www.w3.org/2000/svg" viewBox="43.5 43.45 937 937.1">
  <path id="Selection" fill="#303030" stroke="none" stroke-width="1" d="M 428.00,346.00            C 428.00,346.00 451.73,318.00 451.73,318.00              451.73,318.00 501.72,260.00 501.72,260.00              501.72,260.00 626.58,115.00 626.58,115.00              626.58,115.00 661.87,74.00 661.87,74.00              671.59,62.71 680.75,48.67 696.00,44.76              700.01,43.73 705.76,43.95 710.00,44.00              721.59,44.14 728.78,49.85 738.00,56.00              738.00,56.00 775.00,80.67 775.00,80.67              775.00,80.67 927.00,181.67 927.00,181.67              927.00,181.67 951.00,197.67 951.00,197.67              967.43,208.62 979.97,216.00 980.00,238.00              980.00,238.00 980.00,786.00 980.00,786.00              979.96,811.13 962.36,818.76 944.00,831.00              944.00,831.00 835.00,903.67 835.00,903.67              835.00,903.67 752.00,959.00 752.00,959.00              739.64,967.24 725.14,979.82 710.00,980.00              704.49,980.06 699.28,980.32 694.00,978.45              678.13,972.86 663.52,951.75 652.58,939.00              652.58,939.00 551.72,822.00 551.72,822.00              551.72,822.00 469.85,727.00 469.85,727.00              469.85,727.00 444.85,698.00 444.85,698.00              440.09,692.60 431.89,684.24 429.00,678.00              429.00,678.00 389.00,715.91 389.00,715.91              389.00,715.91 342.00,760.96 342.00,760.96              342.00,760.96 304.00,797.00 304.00,797.00              304.00,797.00 280.00,820.00 280.00,820.00              268.79,831.21 259.82,842.15 243.00,843.83              224.92,845.64 214.45,835.96 201.00,825.87              201.00,825.87 142.00,781.63 142.00,781.63              142.00,781.63 73.00,729.87 73.00,729.87              57.42,718.19 44.03,710.71 44.00,689.00              44.00,689.00 44.00,335.00 44.00,335.00              44.04,311.15 64.08,300.82 81.00,288.13              81.00,288.13 195.00,202.63 195.00,202.63              212.61,189.42 229.18,173.31 253.00,182.47              263.95,186.67 270.93,194.94 279.00,203.00              279.00,203.00 292.00,215.04 292.00,215.04              292.00,215.04 309.00,231.91 309.00,231.91              309.00,231.91 380.00,299.96 380.00,299.96              380.00,299.96 428.00,346.00 428.00,346.00 Z            M 746.00,373.00            C 746.00,373.00 705.00,411.96 705.00,411.96              705.00,411.96 636.00,478.00 636.00,478.00              636.00,478.00 611.00,502.00 611.00,502.00              611.00,502.00 602.20,511.95 602.20,511.95              602.20,511.95 610.00,521.00 610.00,521.00              610.00,521.00 636.00,546.00 636.00,546.00              636.00,546.00 704.00,611.04 704.00,611.04              704.00,611.04 719.00,625.96 719.00,625.96              719.00,625.96 729.00,635.01 729.00,635.01              729.00,635.01 746.00,651.00 746.00,651.00              746.00,651.00 746.00,373.00 746.00,373.00 Z            M 206.00,419.00            C 206.00,419.00 205.00,437.00 205.00,437.00              205.00,437.00 205.00,475.00 205.00,475.00              205.00,475.00 205.00,604.00 205.00,604.00              211.15,599.38 220.55,587.31 226.00,581.00              226.00,581.00 265.58,535.00 265.58,535.00              265.58,535.00 279.42,519.00 279.42,519.00              281.20,516.89 284.33,514.02 283.70,511.00              283.20,508.59 278.77,503.94 277.05,502.00              277.05,502.00 262.42,485.00 262.42,485.00              262.42,485.00 206.00,419.00 206.00,419.00 Z"/>
</svg>