<svg xmlns="http://www.w3.org/2000/svg" viewBox="-0.56 1.49 1025.06 1021.02">
  <path id="visual-studio-code" fill="#303030" stroke="none" stroke-width="1"
    d="M 301.00,389.00            C 305.13,383.28 317.25,373.24 323.00,367.91              323.00,367.91 367.00,327.83 367.00,327.83              367.00,327.83 465.00,238.17 465.00,238.17              465.00,238.17 518.00,190.00 518.00,190.00              518.00,190.00 583.00,130.83 583.00,130.83              583.00,130.83 674.00,47.72 674.00,47.72              697.64,26.91 716.35,1.23 751.00,2.01              766.28,2.36 779.63,9.07 793.00,15.75              793.00,15.75 830.00,33.74 830.00,33.74              830.00,33.74 936.00,84.74 936.00,84.74              936.00,84.74 991.00,111.31 991.00,111.31              1010.82,122.20 1023.96,142.15 1024.00,165.00              1024.00,165.00 1024.00,859.00 1024.00,859.00              1023.97,880.84 1011.14,901.77 992.00,912.21              992.00,912.21 936.00,939.26 936.00,939.26              936.00,939.26 830.00,990.31 830.00,990.31              830.00,990.31 793.00,1008.25 793.00,1008.25              779.38,1015.06 766.60,1021.63 751.00,1021.99              720.75,1022.67 707.59,1006.77 687.00,988.17              687.00,988.17 619.00,926.09 619.00,926.09              619.00,926.09 591.00,900.83 591.00,900.83              591.00,900.83 511.00,827.83 511.00,827.83              511.00,827.83 390.00,717.17 390.00,717.17              390.00,717.17 333.00,665.17 333.00,665.17              333.00,665.17 300.00,635.00 300.00,635.00              295.81,640.02 288.37,644.84 283.00,648.87              283.00,648.87 253.00,671.37 253.00,671.37              253.00,671.37 156.00,744.88 156.00,744.88              156.00,744.88 135.00,760.87 135.00,760.87              121.88,770.71 114.43,777.39 97.00,776.99              80.21,776.60 71.65,767.55 60.00,757.28              60.00,757.28 41.00,740.03 41.00,740.03              41.00,740.03 19.00,720.03 19.00,720.03              8.18,709.81 0.19,701.95 0.00,686.00              -0.07,679.97 -0.37,674.83 1.52,669.00              6.63,653.27 24.81,639.84 37.00,628.83              37.00,628.83 122.00,551.09 122.00,551.09              122.00,551.09 153.00,522.97 153.00,522.97              155.19,520.89 162.96,514.72 162.96,512.00              162.96,509.28 155.19,503.11 153.00,501.03              153.00,501.03 122.00,472.91 122.00,472.91              122.00,472.91 37.00,395.17 37.00,395.17              24.81,384.16 6.63,370.73 1.52,355.00              -0.37,349.17 -0.07,344.03 0.00,338.00              0.19,322.05 8.18,314.19 19.00,303.97              19.00,303.97 41.00,283.97 41.00,283.97              41.00,283.97 60.00,266.72 60.00,266.72              71.49,256.59 79.46,247.76 96.00,247.04              115.11,246.20 123.71,254.22 138.00,265.12              138.00,265.12 160.00,281.63 160.00,281.63              160.00,281.63 254.00,353.12 254.00,353.12              254.00,353.12 301.00,389.00 301.00,389.00 Z            M 768.00,281.00            C 768.00,281.00 734.00,305.79 734.00,305.79              734.00,305.79 690.00,339.12 690.00,339.12              690.00,339.12 537.00,455.13 537.00,455.13              537.00,455.13 482.00,497.12 482.00,497.12              482.00,497.12 469.02,507.00 469.02,507.00              469.02,507.00 465.20,512.00 465.20,512.00              465.20,512.00 469.02,517.00 469.02,517.00              469.02,517.00 483.00,527.63 483.00,527.63              483.00,527.63 537.00,568.63 537.00,568.63              537.00,568.63 635.00,643.12 635.00,643.12              635.00,643.12 683.00,679.42 683.00,679.42              683.00,679.42 739.00,721.87 739.00,721.87              739.00,721.87 768.00,743.00 768.00,743.00              768.00,743.00 768.00,281.00 768.00,281.00 Z" />
</svg>