<svg xmlns="http://www.w3.org/2000/svg" viewBox="-0.54 2.37 1025.04 1019.99">
  <path id="vsc-insiders" fill="#303030" stroke="none" stroke-width="1"
    d="M 710.00,17.00            C 714.30,11.93 720.80,8.91 727.00,6.70              740.04,2.04 755.78,1.52 769.00,5.75              769.00,5.75 795.00,17.42 795.00,17.42              795.00,17.42 816.00,27.74 816.00,27.74              816.00,27.74 868.00,52.74 868.00,52.74              868.00,52.74 970.00,101.75 970.00,101.75              979.79,106.62 990.11,110.37 999.00,116.92              1014.26,128.18 1023.97,147.07 1024.00,166.00              1024.00,166.00 1024.00,859.00 1024.00,859.00              1023.97,877.93 1014.13,896.28 999.00,907.52              990.26,914.02 977.03,919.70 967.00,924.31              967.00,924.31 923.00,945.74 923.00,945.74              923.00,945.74 836.00,987.26 836.00,987.26              836.00,987.26 792.00,1008.69 792.00,1008.69              792.00,1008.69 771.00,1018.14 771.00,1018.14              755.11,1023.73 737.21,1023.09 722.00,1015.74              716.14,1012.91 712.13,1011.24 708.00,1006.00              718.05,1010.46 720.19,1013.26 732.00,1012.99              755.24,1012.45 767.97,992.49 768.00,971.00              768.00,971.00 768.00,837.00 768.00,837.00              768.00,837.00 768.00,224.00 768.00,224.00              768.00,224.00 768.00,54.00 768.00,54.00              767.99,46.87 767.11,39.54 764.10,33.00              758.49,20.83 742.69,10.23 729.00,11.32              719.62,12.07 717.73,14.80 710.00,17.00 Z            M 299.00,391.00            C 303.62,384.55 327.59,363.53 335.00,356.83              335.00,356.83 398.00,298.91 398.00,298.91              398.00,298.91 619.00,95.09 619.00,95.09              619.00,95.09 663.00,54.83 663.00,54.83              672.50,46.24 678.11,39.17 692.00,39.00              713.13,38.76 725.97,52.02 726.00,73.00              726.00,73.00 726.00,295.00 726.00,295.00              726.00,296.95 726.12,300.06 725.40,301.83              723.99,305.27 713.42,312.67 710.00,315.40              710.00,315.40 662.00,353.40 662.00,353.40              662.00,353.40 540.00,450.00 540.00,450.00              540.00,450.00 483.00,495.21 483.00,495.21              483.00,495.21 458.00,515.00 458.00,515.00              465.11,518.66 477.09,528.80 484.00,534.12              484.00,534.12 531.00,570.58 531.00,570.58              531.00,570.58 664.00,673.79 664.00,673.79              664.00,673.79 710.00,709.42 710.00,709.42              713.57,712.20 723.94,719.39 725.40,723.09              726.12,724.90 726.00,728.01 726.00,730.00              726.00,730.00 726.00,951.00 726.00,951.00              725.99,958.55 724.88,965.68 720.36,972.00              709.57,987.13 687.53,990.13 673.00,978.62              673.00,978.62 656.00,963.17 656.00,963.17              656.00,963.17 622.00,932.09 622.00,932.09              622.00,932.09 555.00,870.83 555.00,870.83              555.00,870.83 509.00,828.58 509.00,828.58              509.00,828.58 464.00,787.17 464.00,787.17              464.00,787.17 380.00,710.09 380.00,710.09              380.00,710.09 326.00,660.83 326.00,660.83              326.00,660.83 254.00,594.83 254.00,594.83              254.00,594.83 126.00,477.17 126.00,477.17              126.00,477.17 66.00,422.17 66.00,422.17              66.00,422.17 32.00,391.04 32.00,391.04              20.98,380.54 6.68,371.06 1.75,356.00              -0.29,349.78 -0.07,345.40 0.00,339.00              0.22,320.61 10.71,312.31 23.00,300.91              23.00,300.91 43.00,282.72 43.00,282.72              59.45,268.22 75.16,247.34 99.00,247.34              115.37,247.34 125.83,256.25 138.00,265.79              138.00,265.79 162.00,284.35 162.00,284.35              162.00,284.35 239.00,344.12 239.00,344.12              239.00,344.12 277.00,373.58 277.00,373.58              277.00,373.58 299.00,391.00 299.00,391.00 Z            M 146.00,536.00            C 153.96,541.05 173.74,560.36 182.00,567.83              182.00,567.83 227.00,608.83 227.00,608.83              227.00,608.83 246.00,626.01 246.00,626.01              246.00,626.01 269.00,647.00 269.00,647.00              270.90,648.81 276.80,653.40 276.80,655.95              276.80,658.03 274.45,659.58 272.98,660.71              272.98,660.71 261.00,669.42 261.00,669.42              261.00,669.42 211.00,706.00 211.00,706.00              211.00,706.00 141.00,757.15 141.00,757.15              123.29,770.06 109.51,782.31 86.00,775.23              74.70,771.83 69.36,765.72 61.00,758.17              61.00,758.17 36.00,735.58 36.00,735.58              36.00,735.58 19.00,720.03 19.00,720.03              8.33,709.95 0.19,701.77 0.00,686.00              -0.08,679.13 -0.29,674.64 2.09,668.00              6.83,654.79 14.95,649.45 25.00,640.72              25.00,640.72 40.00,627.73 40.00,627.73              40.00,627.73 102.00,574.27 102.00,574.27              102.00,574.27 146.00,536.00 146.00,536.00 Z" />
</svg>