<svg xmlns="http://www.w3.org/2000/svg" viewBox="-0.5 63.49 449 385.01">
  <path id="vuejs" fill="#303030" stroke="none" stroke-width="1"
    d="M 0.00,64.00            C 0.00,64.00 169.00,64.00 169.00,64.00              170.77,64.00 174.06,63.86 175.62,64.57              178.63,65.94 185.33,79.42 187.22,83.00              187.22,83.00 209.86,125.00 209.86,125.00              213.28,131.16 221.29,144.99 223.00,151.00              223.00,151.00 225.00,151.00 225.00,151.00              227.26,145.10 235.53,133.02 239.32,127.00              239.32,127.00 267.05,83.00 267.05,83.00              269.37,79.34 276.98,65.99 280.21,64.60              281.89,63.88 285.12,64.00 287.00,64.00              287.00,64.00 448.00,64.00 448.00,64.00              445.75,71.86 430.85,95.29 425.85,104.00              425.85,104.00 375.01,191.00 375.01,191.00              375.01,191.00 273.42,365.00 273.42,365.00              273.42,365.00 225.00,448.00 225.00,448.00              225.00,448.00 223.00,448.00 223.00,448.00              223.00,448.00 174.58,365.00 174.58,365.00              174.58,365.00 72.99,191.00 72.99,191.00              72.99,191.00 22.15,104.00 22.15,104.00              17.15,95.29 2.25,71.86 0.00,64.00 Z            M 223.00,295.00            C 221.29,289.57 215.88,281.31 212.85,276.00              212.85,276.00 192.01,240.00 192.01,240.00              192.01,240.00 135.42,142.00 135.42,142.00              135.42,142.00 117.58,111.00 117.58,111.00              109.80,97.44 110.69,97.02 101.00,97.00              101.00,97.00 57.00,97.00 57.00,97.00              57.00,97.00 79.40,136.00 79.40,136.00              79.40,136.00 115.58,198.00 115.58,198.00              115.58,198.00 181.58,311.00 181.58,311.00              181.58,311.00 223.00,382.00 223.00,382.00              223.00,382.00 225.00,382.00 225.00,382.00              225.00,382.00 266.42,311.00 266.42,311.00              266.42,311.00 329.42,203.00 329.42,203.00              329.42,203.00 368.01,137.00 368.01,137.00              368.01,137.00 391.00,97.00 391.00,97.00              391.00,97.00 346.00,97.00 346.00,97.00              336.87,97.02 338.75,96.79 330.99,110.00              330.99,110.00 312.42,142.00 312.42,142.00              312.42,142.00 253.58,244.00 253.58,244.00              253.58,244.00 234.58,277.00 234.58,277.00              231.62,282.17 226.69,289.64 225.00,295.00              225.00,295.00 223.00,295.00 223.00,295.00 Z" />
</svg>