<svg xmlns="http://www.w3.org/2000/svg" viewBox="60.5 290.5 2439.11 1162">
  <path id="w3c" fill="#303030" stroke="none" stroke-width="1"
    d="M 2205.00,291.00            C 2205.00,291.00 2207.00,291.00 2207.00,291.00              2207.00,291.00 2211.58,320.00 2211.58,320.00              2211.58,320.00 2224.27,398.00 2224.27,398.00              2224.27,398.00 2228.75,425.00 2228.75,425.00              2228.75,425.00 2230.56,438.00 2230.56,438.00              2230.56,438.00 2223.75,453.00 2223.75,453.00              2223.75,453.00 2205.86,487.00 2205.86,487.00              2205.86,487.00 2186.74,524.00 2186.74,524.00              2186.74,524.00 2166.25,563.00 2166.25,563.00              2166.25,563.00 2154.25,586.00 2154.25,586.00              2154.25,586.00 2144.00,603.00 2144.00,603.00              2124.29,568.38 2110.76,545.75 2082.00,517.00              2066.43,501.44 2048.20,488.57 2029.00,477.86              2011.77,468.25 1989.85,461.09 1970.00,461.00              1926.30,460.80 1887.94,479.82 1857.00,510.01              1809.41,556.46 1787.38,600.57 1767.98,663.00              1760.32,687.63 1753.51,712.70 1748.45,738.00              1742.56,767.44 1739.05,799.02 1739.00,829.00              1739.00,829.00 1738.00,845.00 1738.00,845.00              1738.00,845.00 1738.00,874.00 1738.00,874.00              1738.00,874.00 1739.00,892.00 1739.00,892.00              1739.00,892.00 1743.27,936.00 1743.27,936.00              1743.27,936.00 1746.26,954.00 1746.26,954.00              1746.96,957.76 1748.25,960.23 1747.00,964.00              1739.36,950.57 1730.66,926.99 1725.67,912.00              1716.72,885.17 1709.27,857.92 1704.59,830.00              1700.91,808.07 1697.93,786.20 1696.96,764.00              1696.96,764.00 1696.00,751.00 1696.00,751.00              1696.00,751.00 1696.00,697.00 1696.00,697.00              1696.00,697.00 1697.00,677.00 1697.00,677.00              1697.00,677.00 1697.91,667.00 1697.91,667.00              1697.91,667.00 1702.72,621.00 1702.72,621.00              1709.45,569.83 1725.78,510.45 1748.26,464.00              1764.15,431.16 1777.39,407.07 1801.43,379.00              1815.23,362.89 1833.06,346.48 1851.00,335.05              1867.56,324.51 1885.59,316.12 1905.00,312.46              1958.65,302.34 2013.16,326.92 2052.00,363.09              2075.79,385.24 2093.56,411.54 2110.58,439.00              2110.58,439.00 2122.00,458.00 2122.00,458.00              2122.00,458.00 2132.75,435.00 2132.75,435.00              2132.75,435.00 2151.75,397.00 2151.75,397.00              2151.75,397.00 2185.75,329.00 2185.75,329.00              2185.75,329.00 2205.00,291.00 2205.00,291.00 Z            M 61.00,297.00            C 61.00,297.00 203.00,297.00 203.00,297.00              203.00,297.00 210.44,298.02 210.44,298.02              210.44,298.02 214.86,309.00 214.86,309.00              214.86,309.00 222.42,335.00 222.42,335.00              222.42,335.00 260.14,463.00 260.14,463.00              260.14,463.00 289.58,563.00 289.58,563.00              289.58,563.00 364.58,818.00 364.58,818.00              364.58,818.00 399.58,937.00 399.58,937.00              399.58,937.00 418.00,998.00 418.00,998.00              418.00,998.00 430.28,954.00 430.28,954.00              430.28,954.00 453.28,876.00 453.28,876.00              453.28,876.00 526.42,628.00 526.42,628.00              526.42,628.00 545.02,565.00 545.02,565.00              545.02,565.00 555.61,528.00 555.61,528.00              555.61,528.00 549.72,505.00 549.72,505.00              549.72,505.00 536.02,459.00 536.02,459.00              536.02,459.00 506.28,359.00 506.28,359.00              506.28,359.00 495.28,322.00 495.28,322.00              495.28,322.00 488.00,297.00 488.00,297.00              488.00,297.00 639.00,297.00 639.00,297.00              639.00,297.00 650.58,337.00 650.58,337.00              650.58,337.00 675.28,421.00 675.28,421.00              675.28,421.00 745.58,660.00 745.58,660.00              745.58,660.00 808.58,874.00 808.58,874.00              808.58,874.00 833.28,958.00 833.28,958.00              833.28,958.00 845.00,997.00 845.00,997.00              845.00,997.00 864.42,931.00 864.42,931.00              864.42,931.00 894.42,829.00 894.42,829.00              894.42,829.00 956.58,618.00 956.58,618.00              956.58,618.00 1002.72,461.00 1002.72,461.00              1002.72,461.00 1039.86,335.00 1039.86,335.00              1039.86,335.00 1047.72,308.00 1047.72,308.00              1047.72,308.00 1051.72,297.99 1051.72,297.99              1051.72,297.99 1059.00,297.00 1059.00,297.00              1059.00,297.00 1612.00,297.00 1612.00,297.00              1612.00,297.00 1612.00,361.00 1612.00,361.00              1612.00,361.00 1611.35,369.00 1611.35,369.00              1611.35,369.00 1596.28,396.00 1596.28,396.00              1596.28,396.00 1554.42,468.00 1554.42,468.00              1554.42,468.00 1457.58,635.00 1457.58,635.00              1457.58,635.00 1421.58,697.00 1421.58,697.00              1421.58,697.00 1402.00,731.00 1402.00,731.00              1408.99,732.08 1424.05,738.18 1431.00,741.15              1450.86,749.65 1464.96,756.97 1483.00,769.00              1501.92,781.61 1518.38,795.33 1533.91,812.00              1578.81,860.20 1608.57,930.38 1619.41,995.00              1619.41,995.00 1625.09,1043.00 1625.09,1043.00              1625.09,1043.00 1626.00,1055.00 1626.00,1055.00              1626.00,1055.00 1626.00,1067.00 1626.00,1067.00              1626.00,1067.00 1627.00,1084.00 1627.00,1084.00              1627.00,1084.00 1626.00,1099.00 1626.00,1099.00              1625.67,1127.45 1622.69,1156.10 1616.79,1184.00              1596.31,1280.89 1540.55,1378.33 1450.00,1424.74              1437.40,1431.20 1422.54,1436.78 1409.00,1440.98              1392.20,1446.18 1360.43,1451.97 1343.00,1452.00              1343.00,1452.00 1310.00,1452.00 1310.00,1452.00              1297.12,1451.85 1276.73,1448.53 1264.00,1445.65              1181.85,1427.05 1121.77,1372.11 1079.60,1301.00              1068.68,1282.58 1057.75,1259.11 1050.32,1239.00              1050.32,1239.00 1044.95,1224.00 1044.95,1224.00              1044.31,1222.19 1043.01,1219.28 1043.68,1217.39              1044.50,1215.02 1048.84,1213.66 1051.00,1212.72              1051.00,1212.72 1072.00,1203.99 1072.00,1203.99              1072.00,1203.99 1130.00,1179.99 1130.00,1179.99              1137.56,1176.87 1153.95,1169.28 1161.00,1168.00              1169.48,1192.45 1186.54,1222.62 1202.42,1243.00              1215.82,1260.18 1233.20,1277.34 1252.00,1288.55              1291.44,1312.06 1342.51,1317.97 1382.00,1291.48              1400.20,1279.27 1415.05,1261.50 1426.58,1243.00              1440.30,1220.96 1447.39,1203.45 1455.33,1179.00              1465.60,1147.37 1469.38,1105.23 1469.00,1072.00              1469.00,1072.00 1468.00,1054.00 1468.00,1054.00              1467.87,1043.51 1464.53,1020.67 1462.40,1010.00              1451.00,953.01 1424.15,904.22 1371.00,876.32              1320.39,849.76 1262.20,854.00 1207.14,854.00              1207.14,854.00 1207.14,791.00 1207.14,791.00              1207.14,791.00 1207.14,784.00 1207.14,784.00              1207.14,784.00 1221.72,758.00 1221.72,758.00              1221.72,758.00 1259.85,692.00 1259.85,692.00              1259.85,692.00 1405.00,441.00 1405.00,441.00              1405.00,441.00 1175.00,441.00 1175.00,441.00              1164.60,441.02 1165.56,442.39 1158.60,454.00              1158.60,454.00 1152.90,464.00 1152.90,464.00              1152.90,464.00 1143.42,495.00 1143.42,495.00              1143.42,495.00 1089.42,677.00 1089.42,677.00              1089.42,677.00 931.58,1210.00 931.58,1210.00              931.58,1210.00 880.58,1382.00 880.58,1382.00              880.58,1382.00 864.86,1435.00 864.86,1435.00              864.86,1435.00 860.00,1452.00 860.00,1452.00              860.00,1452.00 844.00,1452.00 844.00,1452.00              844.00,1452.00 837.02,1428.00 837.02,1428.00              837.02,1428.00 827.72,1397.00 827.72,1397.00              827.72,1397.00 795.72,1290.00 795.72,1290.00              795.72,1290.00 691.72,942.00 691.72,942.00              691.72,942.00 648.72,798.00 648.72,798.00              648.72,798.00 636.72,758.00 636.72,758.00              635.09,752.57 633.59,744.21 630.00,740.00              630.00,740.00 624.42,761.00 624.42,761.00              624.42,761.00 613.02,799.00 613.02,799.00              613.02,799.00 580.42,908.00 580.42,908.00              580.42,908.00 508.72,1148.00 508.72,1148.00              508.72,1148.00 466.66,1289.00 466.66,1289.00              466.66,1289.00 450.28,1344.00 450.28,1344.00              450.28,1344.00 429.86,1412.00 429.86,1412.00              429.86,1412.00 421.58,1440.00 421.58,1440.00              421.58,1440.00 417.28,1451.01 417.28,1451.01              417.28,1451.01 402.00,1452.00 402.00,1452.00              402.00,1452.00 377.42,1368.00 377.42,1368.00              377.42,1368.00 321.42,1179.00 321.42,1179.00              321.42,1179.00 150.58,602.00 150.58,602.00              150.58,602.00 91.28,402.00 91.28,402.00              91.28,402.00 70.58,332.00 70.58,332.00              70.58,332.00 61.00,297.00 61.00,297.00 Z            M 2379.00,297.21            C 2379.00,297.21 2392.00,297.21 2392.00,297.21              2404.54,297.02 2420.41,300.21 2432.00,305.01              2463.71,318.17 2487.72,345.62 2496.11,379.00              2499.60,392.92 2499.16,401.93 2499.00,416.00              2498.88,425.84 2495.01,440.94 2491.13,450.00              2480.86,473.98 2462.90,491.97 2440.00,504.11              2421.14,514.12 2403.90,516.24 2383.00,516.00              2369.63,515.84 2353.90,511.20 2342.00,505.25              2293.50,481.00 2268.63,426.02 2285.19,374.00              2294.76,343.95 2316.82,317.90 2346.00,305.43              2357.65,300.45 2366.73,299.20 2379.00,297.21 Z            M 2386.00,312.28            C 2378.19,313.41 2371.86,313.56 2364.00,315.74              2344.07,321.27 2328.03,332.60 2315.50,349.00              2304.23,363.76 2296.03,383.26 2296.00,402.00              2295.98,416.47 2295.75,422.81 2300.69,437.00              2313.70,474.29 2348.80,499.44 2388.00,500.96              2398.50,501.37 2415.19,497.68 2425.00,493.80              2434.47,490.04 2443.16,484.38 2451.00,477.92              2497.51,439.58 2493.95,367.86 2447.00,331.42              2438.61,324.91 2427.27,318.97 2417.00,316.15              2408.52,313.83 2394.66,311.49 2386.00,312.28 Z            M 2345.00,342.00            C 2345.00,342.00 2405.00,342.84 2405.00,342.84              2413.81,343.78 2423.42,345.13 2431.00,350.11              2454.16,365.33 2447.92,405.22 2417.00,410.00              2417.00,410.00 2444.00,467.00 2444.00,467.00              2444.00,467.00 2425.00,467.00 2425.00,467.00              2414.86,466.98 2416.84,466.19 2410.25,453.00              2410.25,453.00 2397.75,427.00 2397.75,427.00              2397.75,427.00 2392.30,416.31 2392.30,416.31              2389.01,412.66 2375.08,414.00 2370.00,414.00              2370.00,414.00 2370.00,467.00 2370.00,467.00              2370.00,467.00 2345.00,467.00 2345.00,467.00              2345.00,467.00 2345.00,342.00 2345.00,342.00 Z            M 2370.00,398.00            C 2380.67,398.00 2402.12,399.48 2411.00,394.59              2422.34,388.33 2422.62,370.23 2411.96,363.13              2402.69,356.95 2381.20,358.00 2370.00,358.00              2370.00,358.00 2370.00,398.00 2370.00,398.00 Z            M 1643.00,1103.00            C 1647.18,1106.91 1653.15,1118.49 1656.28,1124.00              1656.28,1124.00 1677.40,1160.00 1677.40,1160.00              1700.75,1198.92 1717.18,1223.40 1751.00,1254.91              1778.16,1280.22 1803.02,1300.09 1837.00,1315.69              1858.17,1325.41 1882.74,1333.57 1906.00,1335.83              1906.00,1335.83 1927.00,1337.09 1927.00,1337.09              1927.00,1337.09 1937.00,1338.00 1937.00,1338.00              1937.00,1338.00 1941.00,1338.00 1941.00,1338.00              1941.00,1338.00 1951.00,1337.09 1951.00,1337.09              1989.21,1334.46 2031.56,1318.77 2064.00,1298.58              2082.19,1287.25 2099.34,1273.50 2115.00,1258.91              2143.29,1232.56 2162.59,1210.27 2183.66,1178.00              2183.66,1178.00 2205.80,1142.00 2205.80,1142.00              2209.06,1136.53 2212.91,1128.50 2217.00,1124.00              2217.00,1124.00 2221.40,1146.00 2221.40,1146.00              2221.40,1146.00 2232.20,1202.00 2232.20,1202.00              2232.20,1202.00 2236.80,1226.00 2236.80,1226.00              2237.48,1229.41 2239.13,1235.79 2238.57,1239.00              2237.85,1243.21 2229.55,1257.52 2227.00,1262.00              2217.10,1279.41 2206.33,1295.91 2194.37,1312.00              2176.18,1336.48 2161.44,1352.44 2139.00,1373.08              2092.83,1415.56 2046.40,1441.73 1983.00,1446.09              1983.00,1446.09 1973.00,1447.00 1973.00,1447.00              1950.74,1447.26 1927.58,1444.96 1906.00,1439.27              1858.87,1426.83 1820.12,1400.12 1786.00,1366.00              1740.51,1320.51 1707.36,1267.24 1680.69,1209.00              1669.05,1183.57 1659.35,1156.78 1651.28,1130.00              1651.28,1130.00 1643.00,1103.00 1643.00,1103.00 Z" />
</svg>