<svg xmlns="http://www.w3.org/2000/svg" viewBox="9.52 234.5 2539.98 684">
  <path id="wayback-machine" fill="#303030" stroke="none" stroke-width="1"
    d="M 1188.00,235.00            C 1188.00,235.00 1262.00,235.00 1262.00,235.00              1262.00,235.00 1262.00,625.00 1262.00,625.00              1266.44,625.00 1272.24,625.77 1275.26,621.77              1277.90,618.29 1277.00,606.67 1277.00,602.00              1277.00,602.00 1277.00,552.00 1277.00,552.00              1277.00,552.00 1277.00,310.00 1277.00,310.00              1277.00,310.00 1351.00,310.00 1351.00,310.00              1351.00,310.00 1351.00,543.00 1351.00,543.00              1351.00,543.00 1351.00,571.00 1351.00,571.00              1351.00,590.85 1351.42,606.38 1335.00,620.82              1329.42,625.73 1326.38,626.19 1320.00,629.00              1325.04,630.48 1326.86,632.00 1331.00,635.13              1343.27,644.42 1350.81,656.35 1351.00,672.00              1351.00,672.00 1351.00,856.00 1351.00,856.00              1351.00,856.00 1277.00,856.00 1277.00,856.00              1277.00,856.00 1277.00,725.00 1277.00,725.00              1277.00,725.00 1277.00,696.00 1277.00,696.00              1276.94,691.82 1276.64,688.26 1272.89,685.60              1269.88,683.45 1264.62,684.00 1261.00,684.00              1261.00,684.00 1261.00,856.00 1261.00,856.00              1261.00,856.00 1188.00,856.00 1188.00,856.00              1188.00,856.00 1188.00,235.00 1188.00,235.00 Z            M 1395.00,862.00            C 1395.00,862.00 1395.00,385.00 1395.00,385.00              1395.00,385.00 1395.00,329.00 1395.00,329.00              1395.00,298.87 1391.97,269.38 1421.00,250.36              1425.88,247.16 1431.40,245.01 1437.00,243.43              1444.56,241.28 1458.07,240.01 1466.00,240.00              1466.00,240.00 1545.00,240.00 1545.00,240.00              1558.54,240.00 1580.47,239.21 1593.00,243.04              1618.32,250.77 1631.96,275.53 1632.00,301.00              1632.00,301.00 1632.00,862.00 1632.00,862.00              1632.00,862.00 1579.00,862.00 1579.00,862.00              1579.00,862.00 1579.00,415.00 1579.00,415.00              1579.00,415.00 1579.00,300.00 1579.00,300.00              1578.82,285.25 1573.96,279.02 1559.00,279.00              1559.00,279.00 1541.00,279.00 1541.00,279.00              1541.00,279.00 1541.00,862.00 1541.00,862.00              1541.00,862.00 1487.00,862.00 1487.00,862.00              1487.00,862.00 1487.00,279.00 1487.00,279.00              1487.00,279.00 1469.00,279.00 1469.00,279.00              1460.10,279.01 1453.47,280.18 1450.64,290.00              1449.89,292.57 1450.00,295.35 1450.00,298.00              1450.00,298.00 1450.00,415.00 1450.00,415.00              1450.00,415.00 1450.00,862.00 1450.00,862.00              1450.00,862.00 1395.00,862.00 1395.00,862.00 Z            M 638.00,256.00            C 638.00,256.00 671.00,256.00 671.00,256.00              696.27,256.00 726.98,253.77 751.00,260.58              764.26,264.34 777.04,270.91 784.53,283.00              788.29,289.05 790.20,295.15 791.87,302.00              793.71,309.52 794.99,317.25 795.00,325.00              795.00,325.00 795.00,545.00 795.00,545.00              795.00,545.00 795.00,580.00 795.00,580.00              795.00,589.52 795.46,598.28 790.65,607.00              786.07,615.30 775.55,622.30 767.00,626.00              785.35,638.35 794.73,649.09 795.00,672.00              795.00,672.00 795.00,752.00 795.00,752.00              795.00,781.33 796.83,807.00 770.00,826.51              758.03,835.22 739.62,838.93 725.00,839.00              725.00,839.00 638.00,839.00 638.00,839.00              638.00,839.00 638.00,256.00 638.00,256.00 Z            M 1993.00,256.00            C 1993.00,256.00 2046.00,256.00 2046.00,256.00              2046.00,256.00 2046.00,316.00 2046.00,316.00              2046.00,316.00 2047.00,347.00 2047.00,347.00              2050.51,340.61 2056.55,336.87 2063.00,333.78              2077.89,326.67 2103.33,324.96 2117.00,335.53              2128.87,344.70 2132.98,360.61 2133.00,375.00              2133.00,375.00 2133.00,876.00 2133.00,876.00              2133.00,876.00 2083.00,876.00 2083.00,876.00              2083.00,876.00 2083.00,405.00 2083.00,405.00              2082.99,396.08 2082.06,385.47 2074.96,379.22              2066.69,371.94 2053.51,374.51 2048.09,384.00              2045.86,387.90 2046.01,391.69 2046.00,396.00              2046.00,396.00 2046.00,877.00 2046.00,877.00              2046.00,877.00 1993.00,877.00 1993.00,877.00              1993.00,877.00 1993.00,256.00 1993.00,256.00 Z            M 11.00,264.00            C 11.00,264.00 82.00,264.00 82.00,264.00              82.00,264.00 82.00,668.00 82.00,668.00              82.00,668.00 82.00,760.00 82.00,760.00              82.00,760.00 82.00,779.00 82.00,779.00              82.01,783.17 81.78,788.53 86.19,790.87              88.26,791.78 94.30,791.02 97.00,790.87              97.00,790.87 97.00,264.00 97.00,264.00              97.00,264.00 169.00,264.00 169.00,264.00              169.00,264.00 169.00,791.00 169.00,791.00              171.99,791.03 177.50,791.88 179.85,790.31              183.36,787.98 182.99,783.68 183.00,780.00              183.00,780.00 183.00,761.00 183.00,761.00              183.00,761.00 183.00,668.00 183.00,668.00              183.00,668.00 183.00,264.00 183.00,264.00              183.00,264.00 255.00,264.00 255.00,264.00              255.00,264.00 255.00,713.00 255.00,713.00              255.00,713.00 255.00,761.00 255.00,761.00              255.00,761.00 255.00,783.00 255.00,783.00              254.97,804.30 244.28,825.28 226.00,836.54              220.67,839.82 215.00,842.48 209.00,844.28              201.37,846.57 191.95,847.99 184.00,848.00              184.00,848.00 141.00,848.00 141.00,848.00              141.00,848.00 101.00,848.00 101.00,848.00              101.00,848.00 81.00,848.00 81.00,848.00              59.11,847.97 36.11,839.07 22.93,821.00              20.03,817.03 16.36,809.66 14.70,805.00              12.21,798.02 9.81,785.34 10.04,778.00              10.04,778.00 11.00,765.00 11.00,765.00              11.00,765.00 11.00,264.00 11.00,264.00 Z            M 280.00,521.00            C 280.00,521.00 280.00,332.00 280.00,332.00              280.01,324.84 280.79,319.86 282.88,313.00              284.56,307.52 286.57,302.83 289.70,298.00              306.27,272.40 334.12,268.68 362.00,269.00              377.88,269.19 397.43,274.63 410.00,284.52              426.11,297.19 432.97,317.04 433.00,337.00              433.00,337.00 433.00,787.00 433.00,787.00              433.00,787.00 367.00,787.00 367.00,787.00              367.00,787.00 367.00,775.00 367.00,775.00              360.99,780.73 354.93,785.16 347.00,787.90              326.95,794.84 304.29,786.25 291.52,770.00              283.14,759.35 280.31,746.23 279.32,733.00              279.32,733.00 280.00,692.00 280.00,692.00              280.00,692.00 280.00,643.00 280.00,643.00              280.00,643.00 280.00,623.00 280.00,623.00              280.03,604.54 288.97,586.17 305.00,576.46              312.18,572.12 323.60,569.18 332.00,569.18              332.00,569.18 344.00,570.00 344.00,570.00              344.00,570.00 364.00,570.00 364.00,570.00              364.00,570.00 364.00,342.00 364.00,342.00              363.99,337.09 363.57,326.95 356.99,326.05              349.73,325.06 349.01,336.35 349.00,341.00              349.00,341.00 349.00,521.00 349.00,521.00              349.00,521.00 280.00,521.00 280.00,521.00 Z            M 2187.00,287.46            C 2195.06,287.05 2204.06,289.22 2209.89,295.10              2220.04,305.35 2214.16,318.89 2202.00,324.12              2198.89,325.46 2193.38,326.61 2190.00,326.79              2170.08,327.85 2153.77,308.63 2169.10,294.21              2174.44,289.20 2180.16,288.39 2187.00,287.46 Z            M 1661.00,579.00            C 1661.00,579.00 1661.00,357.00 1661.00,357.00              1661.03,339.25 1668.29,322.32 1683.00,311.79              1694.95,303.23 1709.69,300.58 1724.00,299.96              1724.00,299.96 1731.00,299.34 1731.00,299.34              1731.00,299.34 1737.00,300.10 1737.00,300.10              1737.00,300.10 1746.00,300.10 1746.00,300.10              1769.77,303.21 1790.40,314.81 1797.56,339.00              1799.37,345.10 1799.99,349.68 1800.00,356.00              1800.00,356.00 1800.00,849.00 1800.00,849.00              1800.00,849.00 1752.00,849.00 1752.00,849.00              1752.00,849.00 1751.00,831.00 1751.00,831.00              1742.29,851.42 1713.92,853.27 1695.00,850.08              1687.39,848.80 1681.20,847.08 1675.09,842.10              1664.25,833.26 1661.06,817.35 1661.00,804.00              1661.00,804.00 1661.00,680.00 1661.00,680.00              1661.04,654.70 1674.63,633.13 1702.00,633.00              1702.00,633.00 1749.00,633.00 1749.00,633.00              1749.00,633.00 1749.00,363.00 1749.00,363.00              1748.99,357.19 1748.82,351.99 1745.35,347.00              1738.20,336.72 1724.76,334.29 1716.80,345.04              1712.68,350.61 1712.01,357.33 1712.00,364.00              1712.00,364.00 1712.00,579.00 1712.00,579.00              1712.00,579.00 1661.00,579.00 1661.00,579.00 Z            M 458.00,303.00            C 458.00,303.00 527.00,303.00 527.00,303.00              527.00,303.00 527.00,746.00 527.00,746.00              527.01,749.42 526.74,752.97 528.74,755.95              531.98,760.77 537.99,761.45 540.98,755.95              542.19,753.71 542.00,750.49 542.00,748.00              542.00,748.00 542.00,303.00 542.00,303.00              542.00,303.00 611.00,303.00 611.00,303.00              611.00,303.00 611.00,775.00 611.00,775.00              611.00,775.00 611.00,832.00 611.00,832.00              611.00,856.27 613.81,878.55 595.71,897.91              592.45,901.40 588.10,904.54 584.00,906.98              578.12,910.49 573.53,912.34 567.00,914.28              559.32,916.56 550.01,917.99 542.00,918.00              542.00,918.00 527.00,918.00 527.00,918.00              504.33,917.96 480.41,909.40 467.36,890.00              464.28,885.42 462.00,880.29 460.44,875.00              456.72,862.43 458.00,846.25 458.00,833.00              458.00,833.00 527.00,833.00 527.00,833.00              527.00,837.98 526.21,853.28 528.17,856.96              530.49,861.29 536.74,863.81 539.83,858.77              541.22,856.50 541.00,852.62 541.00,850.00              541.00,850.00 541.00,804.00 541.00,804.00              535.36,809.36 531.43,812.35 524.00,814.92              507.89,820.50 481.75,816.13 470.21,802.99              463.06,794.84 459.13,776.75 459.00,766.00              459.00,766.00 459.00,499.00 459.00,499.00              459.00,499.00 458.00,484.00 458.00,484.00              458.00,484.00 458.00,303.00 458.00,303.00 Z            M 709.00,624.00            C 723.74,623.63 724.94,613.22 725.00,601.00              725.00,601.00 725.00,557.00 725.00,557.00              725.00,557.00 725.00,366.00 725.00,366.00              725.00,366.00 725.00,324.00 725.00,324.00              724.99,319.86 725.17,314.74 722.30,311.39              718.98,307.53 713.59,308.00 709.00,308.00              709.00,308.00 709.00,624.00 709.00,624.00 Z            M 1953.00,657.00            C 1953.00,657.00 1953.00,758.00 1953.00,758.00              1953.00,758.00 1952.09,768.00 1952.09,768.00              1951.07,782.77 1949.70,795.16 1939.54,806.96              1928.79,819.44 1906.81,823.98 1891.00,824.00              1867.99,824.04 1843.10,820.66 1829.93,799.00              1827.19,794.50 1824.86,789.07 1823.43,784.00              1821.78,778.17 1821.01,771.05 1821.00,765.00              1821.00,765.00 1821.00,421.00 1821.00,421.00              1821.00,421.00 1821.00,384.00 1821.00,384.00              1821.00,384.00 1821.00,368.00 1821.00,368.00              1821.03,348.12 1828.57,328.88 1846.00,318.06              1851.23,314.82 1857.07,312.71 1863.00,311.16              1872.77,308.59 1882.99,308.89 1893.00,309.00              1927.60,309.41 1953.94,331.30 1954.00,367.00              1954.00,367.00 1954.00,569.00 1954.00,569.00              1954.00,569.00 1905.00,569.00 1905.00,569.00              1905.00,569.00 1905.00,476.00 1905.00,476.00              1905.00,476.00 1905.00,366.00 1905.00,366.00              1904.99,359.68 1904.78,355.24 1900.61,350.02              1891.76,338.93 1878.20,340.57 1871.67,353.00              1869.10,357.89 1869.01,361.67 1869.00,367.00              1869.00,367.00 1869.00,761.00 1869.00,761.00              1869.01,767.71 1869.64,775.34 1873.65,781.00              1880.22,790.27 1892.01,792.12 1899.61,782.96              1904.34,777.26 1904.99,771.06 1905.00,764.00              1905.00,764.00 1905.00,657.00 1905.00,657.00              1905.00,657.00 1953.00,657.00 1953.00,657.00 Z            M 824.00,589.00            C 824.00,589.00 824.00,386.00 824.00,386.00              824.01,378.53 825.14,372.18 827.15,365.00              836.72,330.95 865.83,319.12 898.00,316.91              902.37,316.61 903.97,315.84 909.00,316.04              944.26,317.41 977.87,328.64 988.96,366.00              990.95,372.70 991.99,380.03 992.00,387.00              992.00,387.00 992.00,876.00 992.00,876.00              992.00,876.00 920.00,876.00 920.00,876.00              920.00,876.00 920.00,862.00 920.00,862.00              913.43,868.51 908.79,872.49 900.00,875.77              861.63,890.11 824.06,858.75 824.00,819.00              824.00,819.00 824.00,699.00 824.00,699.00              824.22,680.10 833.63,659.63 850.00,649.47              864.68,640.36 874.69,641.00 891.00,641.00              891.00,641.00 916.00,641.00 916.00,641.00              916.00,641.00 916.00,393.00 916.00,393.00              915.99,389.06 916.21,385.53 913.99,382.04              909.73,375.33 903.81,377.30 901.15,384.00              899.88,387.20 900.01,390.63 900.00,394.00              900.00,394.00 900.00,589.00 900.00,589.00              900.00,589.00 824.00,589.00 824.00,589.00 Z            M 2549.00,740.00            C 2549.00,740.00 2549.00,814.00 2549.00,814.00              2548.93,829.14 2544.55,845.39 2532.99,855.82              2518.75,868.65 2495.54,872.02 2477.00,872.00              2444.62,871.96 2409.06,856.35 2409.00,819.00              2409.00,819.00 2409.00,527.00 2409.00,527.00              2409.00,527.00 2409.00,394.00 2409.00,394.00              2409.00,394.00 2408.04,383.00 2408.04,383.00              2407.70,374.93 2409.97,362.63 2412.70,355.00              2422.92,326.40 2451.32,317.68 2479.00,318.00              2503.47,318.29 2528.58,327.33 2540.68,350.00              2546.71,361.31 2548.98,376.29 2549.00,389.00              2549.00,389.00 2549.00,689.00 2549.00,689.00              2549.00,689.00 2460.00,689.00 2460.00,689.00              2460.00,689.00 2460.00,810.00 2460.00,810.00              2460.01,815.69 2460.19,821.14 2463.65,825.98              2470.32,835.34 2484.32,835.27 2491.79,826.96              2496.63,821.57 2496.99,816.82 2497.00,810.00              2497.00,810.00 2497.00,740.00 2497.00,740.00              2497.00,740.00 2549.00,740.00 2549.00,740.00 Z            M 2289.00,343.00            C 2294.52,337.53 2298.85,333.67 2306.00,330.32              2317.26,325.05 2326.95,324.86 2339.00,325.00              2356.22,325.21 2368.40,334.90 2373.92,351.00              2376.12,357.40 2376.99,363.27 2377.00,370.00              2377.00,370.00 2377.00,876.00 2377.00,876.00              2377.00,876.00 2326.00,876.00 2326.00,876.00              2326.00,876.00 2326.00,398.00 2326.00,398.00              2325.99,389.81 2324.75,381.05 2317.91,375.56              2309.52,368.82 2296.38,371.74 2291.09,381.00              2288.86,384.90 2289.01,388.69 2289.00,393.00              2289.00,393.00 2289.00,877.00 2289.00,877.00              2289.00,877.00 2235.00,877.00 2235.00,877.00              2235.00,877.00 2235.00,328.00 2235.00,328.00              2235.00,328.00 2289.00,328.00 2289.00,328.00              2289.00,328.00 2289.00,343.00 2289.00,343.00 Z            M 1161.00,692.00            C 1161.00,692.00 1161.00,775.00 1161.00,775.00              1161.00,798.49 1163.07,816.51 1144.96,834.99              1130.93,849.30 1113.06,852.78 1094.00,854.09              1090.12,854.35 1088.29,855.15 1084.00,854.91              1051.93,853.09 1021.65,844.66 1011.44,810.00              1009.72,804.16 1009.01,798.06 1009.00,792.00              1009.00,792.00 1009.00,397.00 1009.00,397.00              1009.01,390.17 1009.75,385.56 1011.72,379.00              1021.34,346.95 1046.42,337.01 1077.00,334.91              1077.00,334.91 1084.00,334.18 1084.00,334.18              1084.00,334.18 1091.00,335.04 1091.00,335.04              1091.00,335.04 1099.00,335.04 1099.00,335.04              1111.33,336.36 1125.86,340.88 1136.00,348.04              1152.72,359.86 1161.97,379.77 1162.00,400.00              1162.00,400.00 1162.00,587.00 1162.00,587.00              1162.00,587.00 1092.00,587.00 1092.00,587.00              1092.00,587.00 1092.00,507.00 1092.00,507.00              1092.00,507.00 1092.00,403.00 1092.00,403.00              1092.00,400.16 1092.21,396.60 1090.83,394.05              1088.22,389.23 1082.91,388.52 1079.60,393.11              1077.74,395.70 1078.01,398.98 1078.00,402.00              1078.00,402.00 1078.00,786.00 1078.00,786.00              1078.01,789.19 1077.71,793.09 1079.74,795.81              1082.47,799.39 1088.47,800.09 1090.98,795.81              1092.19,793.80 1092.00,790.35 1092.00,788.00              1092.00,788.00 1092.00,692.00 1092.00,692.00              1092.00,692.00 1161.00,692.00 1161.00,692.00 Z            M 2167.00,354.00            C 2167.00,354.00 2211.00,354.00 2211.00,354.00              2211.00,354.00 2211.00,817.00 2211.00,817.00              2211.00,817.00 2167.00,817.00 2167.00,817.00              2167.00,817.00 2167.00,354.00 2167.00,354.00 Z            M 2497.00,650.00            C 2497.00,650.00 2497.00,380.00 2497.00,380.00              2496.99,373.72 2496.63,368.48 2493.03,363.01              2487.02,353.87 2472.99,351.77 2465.53,360.19              2460.60,365.74 2460.01,371.97 2460.00,379.00              2460.00,379.00 2460.00,650.00 2460.00,650.00              2460.00,650.00 2497.00,650.00 2497.00,650.00 Z            M 363.00,625.00            C 352.59,625.00 349.02,624.20 349.00,636.00              349.00,636.00 349.00,709.00 349.00,709.00              349.00,715.75 346.07,734.82 357.98,732.34              363.45,731.20 362.99,726.38 363.00,722.00              363.00,722.00 363.00,695.00 363.00,695.00              363.00,695.00 363.00,667.00 363.00,667.00              363.00,667.00 363.00,625.00 363.00,625.00 Z            M 1749.00,669.00            C 1738.80,669.00 1724.93,667.25 1717.21,675.19              1710.14,682.46 1712.00,697.39 1712.00,707.00              1712.00,707.00 1712.00,788.00 1712.00,788.00              1712.01,794.14 1712.48,799.91 1716.42,804.98              1722.49,812.82 1735.43,815.11 1742.79,807.79              1747.47,803.14 1748.92,796.35 1749.00,790.00              1749.00,790.00 1749.00,727.00 1749.00,727.00              1749.00,727.00 1749.00,669.00 1749.00,669.00 Z            M 709.00,785.00            C 720.18,784.99 723.94,784.47 724.00,772.00              724.00,772.00 724.00,697.00 724.00,697.00              723.98,685.05 721.49,681.11 709.00,681.00              709.00,681.00 709.00,785.00 709.00,785.00 Z            M 916.00,701.00            C 905.20,701.00 900.03,699.12 900.00,712.00              900.00,712.00 900.00,805.00 900.00,805.00              900.01,807.92 899.71,811.33 901.60,813.77              905.04,818.23 915.77,819.25 916.00,807.00              916.00,807.00 916.00,776.00 916.00,776.00              916.00,776.00 916.00,746.00 916.00,746.00              916.00,746.00 916.00,701.00 916.00,701.00 Z" />
</svg>