<svg xmlns="http://www.w3.org/2000/svg" viewBox="-0.5 -0.5 1501 1509">
  <path id="Selection" fill="#303030" stroke="none" stroke-width="1" d="M 0.00,1508.00            C 0.67,1500.03 6.49,1481.72 8.85,1473.00              8.85,1473.00 26.58,1408.00 26.58,1408.00              26.58,1408.00 79.42,1215.00 79.42,1215.00              79.42,1215.00 96.88,1151.00 96.88,1151.00              96.88,1151.00 104.33,1123.00 104.33,1123.00              104.44,1119.03 101.73,1115.34 99.86,1112.00              99.86,1112.00 89.25,1092.00 89.25,1092.00              77.23,1067.96 66.04,1044.03 56.20,1019.00              36.45,968.73 21.44,911.47 13.73,858.00              13.73,858.00 7.91,803.00 7.91,803.00              7.91,803.00 7.00,793.00 7.00,793.00              7.00,793.00 6.00,774.00 6.00,774.00              6.00,774.00 6.00,720.00 6.00,720.00              6.00,720.00 7.00,707.00 7.00,707.00              7.31,680.42 12.15,646.46 16.59,620.00              32.58,524.68 67.96,434.07 118.81,352.00              173.48,263.76 248.21,186.93 334.00,128.66              431.05,62.74 539.73,21.58 656.00,6.28              656.00,6.28 704.00,1.91 704.00,1.91              704.00,1.91 721.00,1.00 721.00,1.00              721.00,1.00 738.00,0.00 738.00,0.00              738.00,0.00 768.00,0.00 768.00,0.00              768.00,0.00 785.00,1.00 785.00,1.00              805.41,1.03 825.72,3.66 846.00,5.84              900.03,11.62 956.88,26.06 1008.00,44.31              1082.30,70.84 1151.85,109.93 1214.00,158.42              1272.46,204.04 1326.88,261.93 1368.98,323.00              1434.89,418.64 1478.55,529.72 1493.72,645.00              1493.72,645.00 1499.04,703.00 1499.04,703.00              1499.04,703.00 1500.00,716.00 1500.00,716.00              1500.00,716.00 1500.00,781.00 1500.00,781.00              1500.00,781.00 1499.04,792.00 1499.04,792.00              1499.04,792.00 1495.15,838.00 1495.15,838.00              1489.47,885.53 1479.23,932.39 1464.66,978.00              1442.50,1047.31 1409.27,1113.16 1368.02,1173.00              1300.86,1270.44 1215.11,1346.33 1112.00,1403.86              1044.18,1441.70 968.29,1468.33 892.00,1482.61              866.13,1487.45 823.77,1493.70 798.00,1494.00              798.00,1494.00 783.00,1495.00 783.00,1495.00              783.00,1495.00 721.00,1495.00 721.00,1495.00              721.00,1495.00 711.00,1494.00 711.00,1494.00              711.00,1494.00 702.00,1494.00 702.00,1494.00              702.00,1494.00 664.00,1490.16 664.00,1490.16              607.99,1484.17 547.88,1469.27 495.00,1449.95              470.91,1441.14 447.08,1430.91 424.00,1419.74              424.00,1419.74 406.00,1410.42 406.00,1410.42              402.70,1408.56 397.82,1405.58 394.00,1405.67              391.27,1405.74 381.19,1408.69 378.00,1409.58              378.00,1409.58 356.00,1415.29 356.00,1415.29              356.00,1415.29 294.00,1431.58 294.00,1431.58              294.00,1431.58 239.00,1445.88 239.00,1445.88              239.00,1445.88 98.00,1482.88 98.00,1482.88              98.00,1482.88 36.00,1499.15 36.00,1499.15              36.00,1499.15 0.00,1508.00 0.00,1508.00 Z            M 180.00,1330.00            C 180.00,1330.00 199.00,1324.85 199.00,1324.85              199.00,1324.85 238.00,1314.63 238.00,1314.63              238.00,1314.63 286.00,1301.88 286.00,1301.88              286.00,1301.88 341.00,1287.58 341.00,1287.58              341.00,1287.58 392.00,1274.13 392.00,1274.13              396.17,1273.08 410.90,1268.70 414.00,1269.16              416.88,1269.59 424.07,1274.17 427.00,1275.85              427.00,1275.85 454.00,1291.58 454.00,1291.58              475.58,1303.77 505.78,1317.74 529.00,1326.58              581.81,1346.66 635.80,1359.55 692.00,1365.17              692.00,1365.17 709.00,1367.00 709.00,1367.00              709.00,1367.00 718.00,1367.00 718.00,1367.00              718.00,1367.00 730.00,1368.00 730.00,1368.00              730.00,1368.00 776.00,1368.00 776.00,1368.00              776.00,1368.00 789.00,1367.04 789.00,1367.04              838.37,1364.89 887.76,1355.56 935.00,1341.02              996.07,1322.24 1054.61,1293.90 1107.00,1257.28              1157.74,1221.82 1203.52,1178.84 1241.58,1130.00              1287.04,1071.65 1323.00,1004.71 1344.98,934.00              1385.14,804.79 1382.70,665.57 1337.31,538.00              1273.41,358.44 1123.28,212.68 941.00,156.02              889.50,140.02 829.93,128.63 776.00,128.00              776.00,128.00 761.00,127.00 761.00,127.00              761.00,127.00 721.00,128.00 721.00,128.00              721.00,128.00 711.00,128.91 711.00,128.91              711.00,128.91 652.00,135.59 652.00,135.59              588.64,146.22 531.47,165.02 474.00,193.75              374.39,243.56 294.56,317.62 233.00,410.00              187.38,478.46 155.19,562.93 141.59,644.00              141.59,644.00 134.91,699.00 134.91,699.00              134.91,699.00 134.00,709.00 134.00,709.00              134.00,709.00 133.00,728.00 133.00,728.00              133.00,728.00 133.00,768.00 133.00,768.00              133.00,768.00 134.00,787.00 134.00,787.00              134.00,787.00 134.91,797.00 134.91,797.00              134.91,797.00 139.73,840.00 139.73,840.00              147.85,896.30 165.58,955.33 189.31,1007.00              199.20,1028.54 210.95,1050.86 223.42,1071.00              223.42,1071.00 236.00,1091.00 236.00,1091.00              237.43,1093.20 241.52,1099.09 241.90,1101.41              242.31,1103.91 237.83,1118.58 236.86,1122.00              236.86,1122.00 223.71,1170.00 223.71,1170.00              223.71,1170.00 195.85,1272.00 195.85,1272.00              195.85,1272.00 180.00,1330.00 180.00,1330.00 Z            M 482.00,402.21            C 482.00,402.21 511.00,402.21 511.00,402.21              511.00,402.21 525.00,403.00 525.00,403.00              532.57,403.08 537.79,402.22 545.00,405.52              559.67,412.23 567.19,434.90 573.01,449.00              573.01,449.00 612.20,544.00 612.20,544.00              617.25,556.48 628.72,578.94 629.68,591.00              630.37,599.70 625.99,607.51 622.25,615.00              622.25,615.00 615.30,628.00 615.30,628.00              615.30,628.00 586.15,664.00 586.15,664.00              578.19,673.05 565.43,682.70 567.02,696.00              568.10,704.98 582.81,726.71 588.33,735.00              605.87,761.30 625.38,785.88 646.91,809.00              646.91,809.00 662.00,824.91 662.00,824.91              703.80,863.86 748.61,895.70 801.00,918.86              801.00,918.86 818.00,926.31 818.00,926.31              828.94,931.33 841.96,939.64 854.00,933.33              861.04,929.64 871.85,916.45 877.25,910.00              877.25,910.00 914.63,864.00 914.63,864.00              922.70,853.28 929.78,838.38 945.00,838.01              961.30,837.62 980.29,848.59 995.00,855.14              995.00,855.14 1040.00,876.74 1040.00,876.74              1040.00,876.74 1097.00,904.75 1097.00,904.75              1105.52,909.01 1124.08,916.44 1129.01,924.04              1131.97,928.60 1133.17,940.51 1132.96,946.00              1132.10,968.12 1125.01,1006.93 1114.13,1026.00              1104.55,1042.78 1088.57,1056.62 1073.00,1067.71              1053.78,1081.41 1023.08,1097.41 1000.00,1102.58              978.50,1107.38 953.99,1107.25 932.00,1107.00              932.00,1107.00 923.00,1106.17 923.00,1106.17              899.93,1103.86 888.90,1100.83 867.00,1094.02              840.94,1085.92 815.34,1076.54 790.00,1066.40              790.00,1066.40 737.00,1042.74 737.00,1042.74              639.22,992.29 552.80,911.28 485.58,825.00              485.58,825.00 450.28,777.00 450.28,777.00              434.02,753.88 419.97,733.45 407.25,708.00              390.08,673.66 376.61,636.54 373.91,598.00              373.91,598.00 373.00,586.00 373.00,586.00              372.92,537.67 383.34,494.38 412.63,455.00              419.22,446.14 426.34,437.98 433.96,430.00              433.96,430.00 441.09,422.17 441.09,422.17              453.02,410.65 465.88,405.07 482.00,402.21 Z"/>
</svg>