<svg xmlns="http://www.w3.org/2000/svg" viewBox="109.5 1248.5 2343 550.35">
  <path id="Selection #2" fill="#303030" stroke="none" stroke-width="1" d="M 110.00,1249.00            C 110.00,1249.00 179.00,1249.00 179.00,1249.00              179.00,1249.00 186.67,1272.00 186.67,1272.00              186.67,1272.00 204.66,1324.00 204.66,1324.00              204.66,1324.00 234.00,1409.00 234.00,1409.00              234.00,1409.00 246.98,1365.00 246.98,1365.00              246.98,1365.00 271.66,1285.00 271.66,1285.00              271.66,1285.00 279.33,1260.00 279.33,1260.00              279.33,1260.00 283.51,1250.02 283.51,1250.02              283.51,1250.02 291.00,1249.00 291.00,1249.00              291.00,1249.00 349.00,1249.00 349.00,1249.00              349.00,1249.00 356.28,1273.00 356.28,1273.00              356.28,1273.00 371.28,1322.00 371.28,1322.00              371.28,1322.00 388.98,1380.00 388.98,1380.00              388.98,1380.00 398.00,1409.00 398.00,1409.00              398.00,1409.00 413.95,1361.00 413.95,1361.00              413.95,1361.00 421.34,1339.00 421.34,1339.00              421.34,1339.00 439.33,1287.00 439.33,1287.00              439.33,1287.00 452.00,1249.00 452.00,1249.00              452.00,1249.00 521.00,1249.00 521.00,1249.00              521.00,1249.00 510.05,1282.00 510.05,1282.00              510.05,1282.00 494.69,1326.00 494.69,1326.00              494.69,1326.00 451.31,1451.00 451.31,1451.00              451.31,1451.00 435.95,1495.00 435.95,1495.00              435.95,1495.00 424.00,1530.00 424.00,1530.00              424.00,1530.00 384.00,1530.00 384.00,1530.00              384.00,1530.00 376.09,1528.43 376.09,1528.43              376.09,1528.43 371.67,1516.00 371.67,1516.00              371.67,1516.00 361.98,1485.00 361.98,1485.00              361.98,1485.00 330.34,1385.00 330.34,1385.00              330.34,1385.00 315.00,1337.00 315.00,1337.00              315.00,1337.00 301.02,1383.00 301.02,1383.00              301.02,1383.00 277.98,1457.00 277.98,1457.00              277.98,1457.00 268.86,1486.00 268.86,1486.00              268.86,1486.00 259.72,1515.00 259.72,1515.00              259.72,1515.00 254.92,1528.43 254.92,1528.43              254.92,1528.43 247.00,1530.00 247.00,1530.00              247.00,1530.00 207.00,1530.00 207.00,1530.00              207.00,1530.00 183.69,1462.00 183.69,1462.00              183.69,1462.00 133.66,1318.00 133.66,1318.00              133.66,1318.00 110.00,1249.00 110.00,1249.00 Z            M 554.00,1249.00            C 554.00,1249.00 617.00,1249.00 617.00,1249.00              617.00,1249.00 617.00,1530.00 617.00,1530.00              617.00,1530.00 554.00,1530.00 554.00,1530.00              554.00,1530.00 554.00,1249.00 554.00,1249.00 Z            M 685.00,1249.00            C 685.00,1249.00 749.00,1249.00 749.00,1249.00              749.00,1249.00 749.00,1325.00 749.00,1325.00              749.00,1333.40 748.09,1356.28 750.00,1363.00              750.00,1363.00 759.72,1351.00 759.72,1351.00              759.72,1351.00 778.96,1330.00 778.96,1330.00              778.96,1330.00 830.09,1274.00 830.09,1274.00              830.09,1274.00 845.91,1257.00 845.91,1257.00              845.91,1257.00 853.04,1250.02 853.04,1250.02              853.04,1250.02 861.00,1249.00 861.00,1249.00              861.00,1249.00 932.00,1249.00 932.00,1249.00              927.26,1256.47 911.00,1273.41 904.17,1281.00              904.17,1281.00 853.00,1338.00 853.00,1338.00              853.00,1338.00 830.58,1363.00 830.58,1363.00              828.61,1365.27 823.23,1370.41 822.68,1373.00              821.96,1376.38 827.05,1382.25 829.00,1385.00              829.00,1385.00 849.71,1414.00 849.71,1414.00              849.71,1414.00 906.72,1494.00 906.72,1494.00              906.72,1494.00 932.00,1530.00 932.00,1530.00              932.00,1530.00 865.00,1530.00 865.00,1530.00              865.00,1530.00 857.30,1528.98 857.30,1528.98              857.30,1528.98 850.58,1521.00 850.58,1521.00              850.58,1521.00 839.37,1506.00 839.37,1506.00              839.37,1506.00 796.58,1448.00 796.58,1448.00              796.58,1448.00 777.00,1420.00 777.00,1420.00              777.00,1420.00 759.84,1439.00 759.84,1439.00              753.00,1446.65 749.02,1448.37 749.00,1459.00              749.00,1459.00 749.00,1530.00 749.00,1530.00              749.00,1530.00 685.00,1530.00 685.00,1530.00              685.00,1530.00 685.00,1249.00 685.00,1249.00 Z            M 969.00,1249.00            C 969.00,1249.00 1033.00,1249.00 1033.00,1249.00              1033.00,1249.00 1033.00,1530.00 1033.00,1530.00              1033.00,1530.00 969.00,1530.00 969.00,1530.00              969.00,1530.00 969.00,1249.00 969.00,1249.00 Z            M 1101.00,1249.00            C 1101.00,1249.00 1187.00,1249.00 1187.00,1249.00              1187.00,1249.00 1207.74,1294.00 1207.74,1294.00              1207.74,1294.00 1241.31,1366.00 1241.31,1366.00              1241.31,1366.00 1257.00,1401.00 1257.00,1401.00              1257.00,1401.00 1259.00,1401.00 1259.00,1401.00              1259.00,1401.00 1279.74,1356.00 1279.74,1356.00              1279.74,1356.00 1299.31,1314.00 1299.31,1314.00              1299.31,1314.00 1313.69,1284.00 1313.69,1284.00              1313.69,1284.00 1324.78,1260.00 1324.78,1260.00              1324.78,1260.00 1330.63,1249.99 1330.63,1249.99              1330.63,1249.99 1338.00,1249.00 1338.00,1249.00              1338.00,1249.00 1415.00,1249.00 1415.00,1249.00              1415.00,1249.00 1415.00,1530.00 1415.00,1530.00              1415.00,1530.00 1352.00,1530.00 1352.00,1530.00              1352.00,1530.00 1352.00,1412.00 1352.00,1412.00              1352.00,1412.00 1352.00,1376.00 1352.00,1376.00              1352.00,1376.00 1351.00,1356.00 1351.00,1356.00              1351.00,1356.00 1333.26,1393.00 1333.26,1393.00              1333.26,1393.00 1310.75,1439.00 1310.75,1439.00              1310.75,1439.00 1294.58,1472.00 1294.58,1472.00              1294.58,1472.00 1282.75,1496.00 1282.75,1496.00              1279.36,1502.78 1279.17,1506.84 1271.00,1507.00              1271.00,1507.00 1246.00,1507.00 1246.00,1507.00              1243.87,1507.00 1240.42,1507.25 1238.63,1506.01              1236.68,1504.64 1233.93,1498.36 1232.75,1496.00              1232.75,1496.00 1220.00,1470.00 1220.00,1470.00              1220.00,1470.00 1196.78,1423.00 1196.78,1423.00              1196.78,1423.00 1173.25,1375.00 1173.25,1375.00              1173.25,1375.00 1164.00,1356.00 1164.00,1356.00              1164.00,1356.00 1164.00,1530.00 1164.00,1530.00              1164.00,1530.00 1101.00,1530.00 1101.00,1530.00              1101.00,1530.00 1101.00,1249.00 1101.00,1249.00 Z            M 1483.00,1249.00            C 1483.00,1249.00 1686.00,1249.00 1686.00,1249.00              1686.00,1249.00 1686.00,1306.00 1686.00,1306.00              1686.00,1306.00 1546.00,1306.00 1546.00,1306.00              1546.00,1306.00 1546.00,1362.00 1546.00,1362.00              1546.00,1362.00 1672.00,1362.00 1672.00,1362.00              1672.00,1362.00 1672.00,1417.00 1672.00,1417.00              1672.00,1417.00 1546.00,1417.00 1546.00,1417.00              1546.00,1417.00 1546.00,1474.00 1546.00,1474.00              1546.00,1474.00 1690.00,1474.00 1690.00,1474.00              1690.00,1474.00 1690.00,1530.00 1690.00,1530.00              1690.00,1530.00 1483.00,1530.00 1483.00,1530.00              1483.00,1530.00 1483.00,1249.00 1483.00,1249.00 Z            M 1744.00,1249.00            C 1744.00,1249.00 1823.00,1249.00 1823.00,1249.00              1867.15,1249.00 1907.56,1249.81 1946.00,1275.08              1978.96,1296.74 1998.94,1337.84 1999.00,1377.00              1999.00,1377.00 1999.00,1402.00 1999.00,1402.00              1998.93,1407.50 1997.29,1418.43 1996.20,1424.00              1989.18,1459.76 1969.55,1491.81 1937.00,1509.69              1914.59,1522.00 1889.28,1527.32 1864.00,1529.09              1864.00,1529.09 1852.00,1530.00 1852.00,1530.00              1852.00,1530.00 1825.00,1530.00 1825.00,1530.00              1825.00,1530.00 1744.00,1530.00 1744.00,1530.00              1744.00,1530.00 1744.00,1249.00 1744.00,1249.00 Z            M 2053.00,1249.00            C 2053.00,1249.00 2116.00,1249.00 2116.00,1249.00              2116.00,1249.00 2116.00,1530.00 2116.00,1530.00              2116.00,1530.00 2053.00,1530.00 2053.00,1530.00              2053.00,1530.00 2053.00,1249.00 2053.00,1249.00 Z            M 2148.00,1530.00            C 2148.00,1530.00 2183.14,1448.00 2183.14,1448.00              2183.14,1448.00 2240.58,1315.00 2240.58,1315.00              2240.58,1315.00 2262.15,1265.00 2262.15,1265.00              2262.15,1265.00 2269.64,1249.99 2269.64,1249.99              2269.64,1249.99 2275.00,1249.00 2275.00,1249.00              2275.00,1249.00 2323.00,1249.00 2323.00,1249.00              2323.00,1249.00 2330.35,1249.99 2330.35,1249.99              2330.35,1249.99 2337.72,1265.00 2337.72,1265.00              2337.72,1265.00 2359.28,1315.00 2359.28,1315.00              2359.28,1315.00 2418.42,1452.00 2418.42,1452.00              2418.42,1452.00 2452.00,1530.00 2452.00,1530.00              2452.00,1530.00 2391.00,1530.00 2391.00,1530.00              2389.30,1530.00 2385.89,1530.14 2384.41,1529.43              2381.68,1528.10 2378.18,1518.11 2376.85,1515.00              2376.85,1515.00 2364.00,1485.00 2364.00,1485.00              2362.73,1482.02 2359.45,1473.44 2357.36,1471.60              2355.17,1469.65 2351.75,1470.01 2349.00,1470.00              2349.00,1470.00 2250.00,1470.00 2250.00,1470.00              2247.25,1470.01 2243.83,1469.65 2241.64,1471.60              2239.55,1473.44 2236.27,1482.02 2235.00,1485.00              2235.00,1485.00 2222.15,1515.00 2222.15,1515.00              2220.82,1518.11 2217.32,1528.10 2214.59,1529.43              2213.11,1530.14 2209.70,1530.00 2208.00,1530.00              2208.00,1530.00 2148.00,1530.00 2148.00,1530.00 Z            M 1808.00,1474.00            C 1838.76,1474.00 1876.16,1477.68 1903.00,1460.30              1924.01,1446.69 1934.96,1421.51 1935.00,1397.00              1935.00,1397.00 1935.00,1380.00 1935.00,1380.00              1934.73,1357.17 1923.77,1333.68 1905.00,1320.44              1877.79,1301.25 1839.69,1305.00 1808.00,1305.00              1808.00,1305.00 1808.00,1474.00 1808.00,1474.00 Z            M 2300.00,1335.00            C 2300.00,1335.00 2287.72,1361.00 2287.72,1361.00              2287.72,1361.00 2265.00,1414.00 2265.00,1414.00              2265.00,1414.00 2333.00,1414.00 2333.00,1414.00              2333.00,1414.00 2322.86,1389.00 2322.86,1389.00              2322.86,1389.00 2300.00,1335.00 2300.00,1335.00 Z            M 588.00,1677.42            C 608.58,1674.91 630.33,1682.89 643.54,1699.00              663.64,1723.52 660.79,1764.19 636.00,1784.54              621.44,1796.49 608.05,1798.21 590.00,1798.00              545.13,1797.47 519.91,1747.37 539.37,1709.00              546.49,1694.96 559.84,1684.00 575.00,1679.75              575.00,1679.75 588.00,1677.42 588.00,1677.42 Z            M 1920.00,1677.42            C 1938.08,1675.22 1959.12,1681.85 1971.83,1695.09              1996.52,1720.81 1992.89,1764.55 1965.00,1786.48              1951.33,1797.24 1937.54,1798.19 1921.00,1798.00              1897.97,1797.73 1875.84,1781.62 1868.09,1760.00              1864.59,1750.25 1864.89,1742.10 1865.00,1732.00              1865.09,1724.50 1867.45,1715.70 1870.81,1709.00              1877.87,1694.92 1891.91,1683.98 1907.00,1679.75              1907.00,1679.75 1920.00,1677.42 1920.00,1677.42 Z            M 755.00,1679.00            C 755.00,1679.00 775.00,1679.00 775.00,1679.00              775.00,1679.00 775.00,1732.00 775.00,1732.00              775.00,1743.52 774.12,1754.70 780.47,1765.00              788.50,1778.04 807.42,1783.38 820.00,1773.61              829.82,1765.99 832.98,1757.01 833.00,1745.00              833.00,1745.00 833.00,1679.00 833.00,1679.00              833.00,1679.00 854.00,1679.00 854.00,1679.00              854.00,1679.00 854.00,1735.00 854.00,1735.00              854.00,1752.53 854.32,1768.95 841.82,1783.00              824.22,1802.78 786.83,1803.49 768.17,1784.83              759.07,1775.73 755.02,1762.62 755.00,1750.00              755.00,1750.00 755.00,1679.00 755.00,1679.00 Z            M 1173.00,1679.00            C 1198.34,1679.00 1235.41,1675.97 1257.00,1690.10              1277.51,1703.52 1279.26,1721.84 1279.00,1744.00              1278.80,1761.12 1270.11,1779.00 1255.00,1787.66              1232.94,1800.31 1198.22,1797.00 1173.00,1797.00              1173.00,1797.00 1173.00,1679.00 1173.00,1679.00 Z            M 365.00,1680.00            C 365.00,1680.00 425.00,1680.00 425.00,1680.00              428.48,1680.00 440.99,1679.08 442.98,1681.60              444.15,1683.07 443.99,1686.18 444.00,1688.00              444.00,1688.00 444.00,1692.00 444.00,1692.00              443.87,1698.84 442.43,1698.96 436.00,1699.00              436.00,1699.00 386.00,1699.00 386.00,1699.00              386.00,1699.00 386.00,1730.00 386.00,1730.00              386.00,1730.00 437.00,1730.00 437.00,1730.00              437.00,1730.00 437.00,1750.00 437.00,1750.00              437.00,1750.00 386.00,1750.00 386.00,1750.00              386.00,1750.00 386.00,1785.00 386.00,1785.00              386.00,1787.83 386.69,1795.17 384.40,1796.98              382.25,1798.68 368.46,1798.00 365.00,1798.00              365.00,1798.00 365.00,1680.00 365.00,1680.00 Z            M 959.00,1680.00            C 959.00,1680.00 973.00,1680.00 973.00,1680.00              973.00,1680.00 979.70,1680.57 979.70,1680.57              979.70,1680.57 996.00,1700.00 996.00,1700.00              996.00,1700.00 1025.42,1738.00 1025.42,1738.00              1025.42,1738.00 1047.00,1766.00 1047.00,1766.00              1047.00,1766.00 1047.00,1680.00 1047.00,1680.00              1047.00,1680.00 1067.00,1680.00 1067.00,1680.00              1067.00,1680.00 1067.00,1797.00 1067.00,1797.00              1067.00,1797.00 1052.00,1797.00 1052.00,1797.00              1050.05,1797.00 1046.94,1797.12 1045.17,1796.40              1041.54,1794.92 1031.66,1780.89 1028.65,1777.00              1028.65,1777.00 1001.58,1742.00 1001.58,1742.00              1001.58,1742.00 980.00,1714.00 980.00,1714.00              980.00,1714.00 980.00,1797.00 980.00,1797.00              980.00,1797.00 959.00,1797.00 959.00,1797.00              959.00,1797.00 959.00,1680.00 959.00,1680.00 Z            M 1363.00,1797.00            C 1363.00,1797.00 1402.28,1707.00 1402.28,1707.00              1402.28,1707.00 1410.70,1688.00 1410.70,1688.00              1410.70,1688.00 1414.65,1680.99 1414.65,1680.99              1414.65,1680.99 1422.00,1680.00 1422.00,1680.00              1422.00,1680.00 1437.00,1680.00 1437.00,1680.00              1437.00,1680.00 1454.70,1721.00 1454.70,1721.00              1454.70,1721.00 1488.00,1797.00 1488.00,1797.00              1488.00,1797.00 1472.00,1797.00 1472.00,1797.00              1470.11,1796.99 1467.27,1797.17 1465.70,1796.01              1462.16,1793.39 1457.63,1774.89 1452.79,1772.02              1450.72,1770.80 1447.37,1771.00 1445.00,1771.00              1445.00,1771.00 1405.00,1771.00 1405.00,1771.00              1402.78,1771.00 1399.30,1770.78 1397.41,1772.02              1393.91,1774.34 1388.71,1792.37 1385.35,1795.40              1382.36,1798.11 1367.55,1797.00 1363.00,1797.00 Z            M 1558.00,1680.00            C 1558.00,1680.00 1649.00,1680.00 1649.00,1680.00              1649.00,1680.00 1649.00,1699.00 1649.00,1699.00              1649.00,1699.00 1614.00,1699.00 1614.00,1699.00              1614.00,1699.00 1614.00,1797.00 1614.00,1797.00              1614.00,1797.00 1593.00,1797.00 1593.00,1797.00              1593.00,1797.00 1593.00,1699.00 1593.00,1699.00              1593.00,1699.00 1558.00,1699.00 1558.00,1699.00              1558.00,1699.00 1558.00,1680.00 1558.00,1680.00 Z            M 1745.00,1680.00            C 1745.00,1680.00 1765.00,1680.00 1765.00,1680.00              1765.00,1680.00 1765.00,1798.00 1765.00,1798.00              1765.00,1798.00 1745.00,1798.00 1745.00,1798.00              1745.00,1798.00 1745.00,1680.00 1745.00,1680.00 Z            M 2087.00,1680.00            C 2087.00,1680.00 2100.00,1680.00 2100.00,1680.00              2100.00,1680.00 2107.96,1681.02 2107.96,1681.02              2107.96,1681.02 2124.79,1701.00 2124.79,1701.00              2124.79,1701.00 2174.00,1764.00 2174.00,1764.00              2174.00,1764.00 2174.00,1680.00 2174.00,1680.00              2174.00,1680.00 2195.00,1680.00 2195.00,1680.00              2195.00,1680.00 2195.00,1797.00 2195.00,1797.00              2195.00,1797.00 2180.00,1797.00 2180.00,1797.00              2178.05,1797.00 2174.94,1797.12 2173.17,1796.40              2169.50,1794.90 2159.61,1780.89 2156.58,1777.00              2156.58,1777.00 2123.35,1734.00 2123.35,1734.00              2123.35,1734.00 2108.00,1714.00 2108.00,1714.00              2108.00,1714.00 2108.00,1797.00 2108.00,1797.00              2108.00,1797.00 2087.00,1797.00 2087.00,1797.00              2087.00,1797.00 2087.00,1680.00 2087.00,1680.00 Z            M 588.00,1696.30            C 581.77,1697.51 577.16,1699.40 572.00,1703.16              543.94,1723.63 551.15,1770.56 586.00,1778.76              591.13,1779.97 594.76,1780.33 600.00,1779.57              641.09,1773.66 648.71,1718.95 614.00,1700.32              605.70,1695.87 597.20,1695.38 588.00,1696.30 Z            M 1919.00,1696.30            C 1912.80,1697.51 1908.12,1699.40 1903.00,1703.16              1875.03,1723.71 1882.19,1770.57 1917.00,1778.76              1922.13,1779.97 1925.76,1780.33 1931.00,1779.57              1971.38,1773.76 1980.62,1719.44 1945.00,1700.32              1936.70,1695.87 1928.20,1695.38 1919.00,1696.30 Z            M 1194.00,1778.00            C 1209.83,1778.00 1230.37,1779.77 1244.00,1770.64              1263.93,1757.28 1264.38,1719.23 1244.00,1705.96              1230.08,1696.90 1210.02,1699.00 1194.00,1699.00              1194.00,1699.00 1194.00,1778.00 1194.00,1778.00 Z            M 1426.00,1706.00            C 1426.00,1706.00 1416.14,1726.00 1416.14,1726.00              1416.14,1726.00 1405.00,1752.00 1405.00,1752.00              1405.00,1752.00 1446.00,1752.00 1446.00,1752.00              1446.00,1752.00 1426.00,1706.00 1426.00,1706.00 Z"/>
</svg>