<svg xmlns="http://www.w3.org/2000/svg" viewBox="777.07 90.31 1005.43 1008.46">
  <path id="wikimedia" fill="#303030" stroke="none" stroke-width="1"
    d="M 1268.00,91.42            C 1285.25,89.32 1311.50,92.85 1328.00,98.33              1351.99,106.30 1370.40,116.73 1389.00,134.09              1438.91,180.65 1450.87,258.54 1420.63,319.00              1404.77,350.72 1380.51,373.53 1349.00,389.25              1325.81,400.81 1300.75,405.30 1275.00,405.00              1262.50,404.85 1247.03,401.85 1235.00,398.42              1220.90,394.40 1206.22,387.75 1194.00,379.64              1127.56,335.57 1104.41,249.49 1139.26,178.00              1157.40,140.79 1190.94,112.18 1230.00,99.00              1244.39,94.15 1253.49,93.49 1268.00,91.42 Z            M 1528.00,311.00            C 1532.48,304.74 1544.95,293.05 1551.00,287.00              1551.00,287.00 1593.00,245.00 1593.00,245.00              1593.00,245.00 1609.00,229.00 1609.00,229.00              1610.67,227.37 1613.51,224.20 1616.00,224.20              1618.24,224.20 1620.49,226.58 1622.00,228.02              1622.00,228.02 1634.00,240.00 1634.00,240.00              1651.62,257.62 1666.64,274.02 1681.63,294.00              1727.15,354.71 1757.73,423.67 1772.60,498.00              1777.10,520.48 1780.04,543.13 1781.04,566.00              1781.04,566.00 1782.00,577.00 1782.00,577.00              1782.00,577.00 1782.00,613.00 1782.00,613.00              1782.00,613.00 1781.09,625.00 1781.09,625.00              1781.09,625.00 1778.15,659.00 1778.15,659.00              1771.54,714.29 1754.28,772.47 1728.74,822.00              1703.92,870.13 1673.31,912.69 1635.00,951.00              1635.00,951.00 1619.00,966.83 1619.00,966.83              1564.24,1016.37 1499.59,1054.03 1429.00,1075.98              1325.15,1108.25 1209.11,1105.38 1107.00,1067.95              1059.85,1050.66 1016.13,1026.23 976.00,996.13              922.87,956.26 878.49,905.29 845.01,848.00              783.22,742.25 763.50,614.70 787.45,495.00              795.89,452.78 810.41,411.66 829.26,373.00              829.26,373.00 836.76,359.00 836.76,359.00              849.48,334.13 870.63,302.66 888.26,281.00              888.26,281.00 912.58,253.00 912.58,253.00              917.48,247.35 929.46,235.16 935.00,230.28              937.26,228.30 941.83,223.54 945.00,224.34              947.13,224.87 950.41,228.42 952.00,230.00              952.00,230.00 964.00,242.00 964.00,242.00              964.00,242.00 1012.00,290.00 1012.00,290.00              1012.00,290.00 1025.98,304.00 1025.98,304.00              1027.72,305.83 1030.37,308.18 1029.66,311.00              1028.98,313.74 1024.14,317.40 1022.00,319.28              1022.00,319.28 1008.01,333.00 1008.01,333.00              992.76,348.63 979.21,366.12 966.72,384.00              939.43,423.06 919.67,471.48 909.79,518.00              906.21,534.84 902.03,561.03 902.00,578.00              902.00,578.00 902.00,614.00 902.00,614.00              902.00,614.00 903.84,637.00 903.84,637.00              908.54,680.95 919.90,718.91 938.31,759.00              945.07,773.73 955.65,791.47 964.67,805.00              1013.41,878.12 1086.08,932.21 1170.00,958.02              1195.35,965.82 1221.54,971.15 1248.00,973.09              1248.00,973.09 1258.00,974.00 1258.00,974.00              1258.00,974.00 1282.00,975.00 1282.00,975.00              1282.00,975.00 1299.00,974.00 1299.00,974.00              1299.00,974.00 1336.00,970.57 1336.00,970.57              1420.42,958.06 1498.76,916.42 1556.91,854.00              1593.18,815.07 1621.27,768.28 1638.66,718.00              1675.82,610.56 1661.17,488.60 1599.69,393.00              1582.84,366.80 1552.79,329.22 1528.00,311.00 Z            M 1237.00,902.00            C 1215.98,901.54 1176.76,888.40 1157.00,880.00              1077.94,846.39 1012.65,776.01 986.34,694.00              978.73,670.26 971.04,635.84 971.00,611.00              971.00,611.00 971.00,580.00 971.00,580.00              971.02,566.43 974.61,543.47 977.58,530.00              987.82,483.55 1007.95,440.14 1037.80,403.00              1046.58,392.08 1058.57,378.48 1069.00,369.28              1071.90,366.73 1078.07,359.81 1082.00,361.17              1084.09,361.89 1087.37,365.38 1089.00,367.00              1089.00,367.00 1103.00,381.00 1103.00,381.00              1103.00,381.00 1151.00,429.00 1151.00,429.00              1151.00,429.00 1215.00,493.00 1215.00,493.00              1215.00,493.00 1229.00,507.00 1229.00,507.00              1231.41,509.41 1235.23,512.82 1236.40,516.00              1237.12,517.94 1237.00,520.91 1237.00,523.00              1237.00,523.00 1237.00,902.00 1237.00,902.00 Z            M 1323.00,902.00            C 1323.00,902.00 1323.00,523.00 1323.00,523.00              1323.00,520.91 1322.88,517.94 1323.60,516.00              1325.07,512.00 1335.48,502.52 1339.00,499.00              1339.00,499.00 1385.00,453.00 1385.00,453.00              1385.00,453.00 1456.00,382.00 1456.00,382.00              1456.00,382.00 1473.00,365.02 1473.00,365.02              1475.35,362.79 1477.50,360.24 1481.00,361.58              1483.71,362.61 1488.66,367.73 1491.00,369.83              1499.44,377.43 1507.03,385.37 1514.42,394.00              1544.36,428.97 1566.11,469.54 1578.15,514.00              1606.76,619.64 1578.45,730.00 1503.91,810.00              1483.51,831.90 1457.00,851.50 1431.00,866.28              1409.22,878.66 1386.05,887.57 1362.00,894.42              1352.88,897.02 1332.03,901.80 1323.00,902.00 Z" />
</svg>