<svg xmlns="http://www.w3.org/2000/svg" viewBox="16.5 1.5 1491 2032">
  <path id="wikimedia-commons" fill="#303030" stroke="none" stroke-width="1"
    d="M 704.00,2.00            C 709.63,7.22 721.12,28.20 725.80,36.00              725.80,36.00 767.42,106.00 767.42,106.00              767.42,106.00 826.58,207.00 826.58,207.00              826.58,207.00 897.86,334.00 897.86,334.00              897.86,334.00 940.25,416.00 940.25,416.00              945.73,426.96 958.82,455.66 959.82,467.00              961.15,481.96 946.51,469.88 942.00,465.83              931.18,456.10 924.47,447.33 912.00,438.16              891.39,422.98 860.55,413.17 835.00,412.00              835.00,412.00 843.00,440.00 843.00,440.00              855.14,476.43 873.56,513.41 902.00,539.91              946.10,581.02 1007.71,603.08 1063.00,625.20              1122.52,649.01 1179.96,675.19 1232.00,713.15              1276.40,745.54 1314.71,785.73 1348.42,829.00              1425.61,928.07 1475.78,1041.12 1496.57,1165.00              1500.84,1190.45 1503.92,1216.25 1505.04,1242.00              1505.04,1242.00 1506.04,1255.00 1506.04,1255.00              1506.04,1255.00 1506.04,1267.00 1506.04,1267.00              1506.04,1267.00 1507.00,1279.00 1507.00,1279.00              1507.00,1279.00 1506.00,1325.00 1506.00,1325.00              1506.00,1325.00 1505.04,1336.00 1505.04,1336.00              1503.75,1365.50 1499.67,1394.93 1494.42,1424.00              1478.44,1512.64 1445.92,1598.04 1399.20,1675.00              1339.69,1773.05 1256.47,1858.72 1159.00,1919.42              1077.57,1970.14 990.45,2004.39 896.00,2021.42              871.18,2025.90 846.14,2029.33 821.00,2031.09              821.00,2031.09 811.00,2032.00 811.00,2032.00              811.00,2032.00 792.00,2033.00 792.00,2033.00              792.00,2033.00 732.00,2033.00 732.00,2033.00              732.00,2033.00 713.00,2032.00 713.00,2032.00              713.00,2032.00 703.00,2031.09 703.00,2031.09              703.00,2031.09 645.00,2024.27 645.00,2024.27              576.74,2014.22 508.61,1992.44 446.00,1963.69              368.24,1927.99 298.50,1877.06 237.00,1817.96              237.00,1817.96 224.99,1805.00 224.99,1805.00              195.16,1774.44 168.64,1741.32 144.66,1706.00              78.88,1609.16 34.65,1491.61 22.16,1375.00              20.07,1355.46 18.03,1335.65 18.00,1316.00              18.00,1316.00 17.00,1299.00 17.00,1299.00              17.00,1299.00 17.00,1278.00 17.00,1278.00              17.00,1278.00 17.96,1266.00 17.96,1266.00              17.96,1266.00 17.96,1253.00 17.96,1253.00              17.96,1253.00 18.96,1242.00 18.96,1242.00              20.17,1214.22 23.63,1186.39 28.58,1159.00              46.61,1059.02 81.22,969.51 136.31,884.00              159.46,848.07 185.81,814.29 214.91,783.00              214.91,783.00 250.00,747.19 250.00,747.19              256.80,741.37 258.14,744.14 267.00,753.00              267.00,753.00 302.00,788.00 302.00,788.00              302.00,788.00 412.00,898.00 412.00,898.00              412.00,898.00 441.00,927.00 441.00,927.00              443.29,929.29 451.51,938.15 454.00,938.80              457.88,939.83 467.15,928.85 470.00,926.00              470.00,926.00 496.00,900.00 496.00,900.00              500.77,895.23 505.93,888.87 512.00,886.00              512.00,886.00 523.12,927.00 523.12,927.00              523.12,927.00 550.42,1028.00 550.42,1028.00              550.42,1028.00 562.88,1074.00 562.88,1074.00              562.88,1074.00 568.00,1095.00 568.00,1095.00              568.00,1095.00 516.00,1081.15 516.00,1081.15              516.00,1081.15 418.00,1054.58 418.00,1054.58              418.00,1054.58 359.00,1039.00 359.00,1039.00              362.00,1032.65 371.74,1024.26 377.00,1019.00              377.00,1019.00 415.00,981.00 415.00,981.00              415.00,981.00 364.00,932.00 364.00,932.00              361.86,936.52 346.24,954.43 341.80,960.00              328.91,976.18 316.94,993.32 306.20,1011.00              272.94,1065.78 250.76,1123.21 238.20,1186.00              234.16,1206.20 229.00,1240.83 229.00,1261.00              229.00,1261.00 299.00,1261.00 299.00,1261.00              299.00,1261.00 299.00,1181.00 299.00,1181.00              299.00,1181.00 325.00,1194.72 325.00,1194.72              325.00,1194.72 377.00,1224.58 377.00,1224.58              377.00,1224.58 452.00,1267.58 452.00,1267.58              452.00,1267.58 488.00,1289.00 488.00,1289.00              488.00,1289.00 460.00,1305.42 460.00,1305.42              460.00,1305.42 411.00,1333.42 411.00,1333.42              411.00,1333.42 337.00,1375.85 337.00,1375.85              337.00,1375.85 300.00,1397.00 300.00,1397.00              300.00,1397.00 299.00,1370.00 299.00,1370.00              299.00,1370.00 299.00,1317.00 299.00,1317.00              299.00,1317.00 229.00,1317.00 229.00,1317.00              229.00,1344.12 236.95,1389.29 243.63,1416.00              259.29,1478.67 284.26,1535.72 320.98,1589.00              333.35,1606.96 350.91,1630.57 366.00,1646.00              366.00,1646.00 384.00,1627.00 384.00,1627.00              384.00,1627.00 415.00,1596.00 415.00,1596.00              415.00,1596.00 377.00,1559.00 377.00,1559.00              371.74,1553.74 362.00,1545.35 359.00,1539.00              359.00,1539.00 493.00,1502.58 493.00,1502.58              493.00,1502.58 540.00,1489.85 540.00,1489.85              540.00,1489.85 568.00,1483.00 568.00,1483.00              568.00,1483.00 552.42,1542.00 552.42,1542.00              552.42,1542.00 527.58,1634.00 527.58,1634.00              527.58,1634.00 518.58,1667.00 518.58,1667.00              518.58,1667.00 512.00,1692.00 512.00,1692.00              505.65,1689.00 497.26,1679.26 492.00,1674.00              492.00,1674.00 454.00,1636.00 454.00,1636.00              454.00,1636.00 436.00,1655.00 436.00,1655.00              436.00,1655.00 405.00,1686.00 405.00,1686.00              405.00,1686.00 434.00,1709.58 434.00,1709.58              450.93,1722.77 468.69,1734.99 487.00,1746.19              542.65,1780.21 608.65,1804.43 673.00,1815.08              673.00,1815.08 723.00,1821.09 723.00,1821.09              723.00,1821.09 734.00,1822.00 734.00,1822.00              734.00,1822.00 734.00,1751.00 734.00,1751.00              734.00,1751.00 654.00,1751.00 654.00,1751.00              654.00,1751.00 678.72,1707.00 678.72,1707.00              678.72,1707.00 734.85,1609.00 734.85,1609.00              734.85,1609.00 761.00,1563.00 761.00,1563.00              761.00,1563.00 763.00,1563.00 763.00,1563.00              763.00,1563.00 789.15,1609.00 789.15,1609.00              789.15,1609.00 845.28,1707.00 845.28,1707.00              845.28,1707.00 870.00,1751.00 870.00,1751.00              870.00,1751.00 790.00,1751.00 790.00,1751.00              790.00,1751.00 790.00,1822.00 790.00,1822.00              790.00,1822.00 801.00,1821.09 801.00,1821.09              828.23,1819.18 855.41,1815.19 882.00,1808.88              946.76,1793.53 1002.55,1769.63 1058.00,1732.67              1076.64,1720.24 1103.19,1700.46 1119.00,1685.00              1119.00,1685.00 1100.00,1667.00 1100.00,1667.00              1100.00,1667.00 1069.00,1636.00 1069.00,1636.00              1069.00,1636.00 1032.00,1674.00 1032.00,1674.00              1026.74,1679.26 1018.35,1689.00 1012.00,1692.00              1012.00,1692.00 1005.42,1667.00 1005.42,1667.00              1005.42,1667.00 996.42,1634.00 996.42,1634.00              996.42,1634.00 971.58,1542.00 971.58,1542.00              971.58,1542.00 956.00,1483.00 956.00,1483.00              956.00,1483.00 984.00,1489.85 984.00,1489.85              984.00,1489.85 1031.00,1502.58 1031.00,1502.58              1031.00,1502.58 1165.00,1539.00 1165.00,1539.00              1162.17,1544.98 1156.63,1549.37 1152.00,1554.00              1152.00,1554.00 1126.00,1580.00 1126.00,1580.00              1123.30,1582.70 1112.04,1592.79 1112.04,1596.00              1112.04,1599.14 1121.50,1607.50 1124.00,1610.00              1124.00,1610.00 1138.04,1625.00 1138.04,1625.00              1138.04,1625.00 1159.00,1646.00 1159.00,1646.00              1159.00,1646.00 1181.79,1618.00 1181.79,1618.00              1193.90,1602.62 1205.23,1586.62 1215.58,1570.00              1251.23,1512.74 1275.45,1449.36 1287.42,1383.00              1290.61,1365.31 1295.00,1334.51 1295.00,1317.00              1295.00,1317.00 1225.00,1317.00 1225.00,1317.00              1225.00,1317.00 1225.00,1370.00 1225.00,1370.00              1225.00,1370.00 1224.00,1397.00 1224.00,1397.00              1224.00,1397.00 1194.00,1379.85 1194.00,1379.85              1194.00,1379.85 1126.00,1340.85 1126.00,1340.85              1126.00,1340.85 1060.00,1303.01 1060.00,1303.01              1060.00,1303.01 1036.00,1289.00 1036.00,1289.00              1036.00,1289.00 1077.00,1264.72 1077.00,1264.72              1077.00,1264.72 1154.00,1220.58 1154.00,1220.58              1154.00,1220.58 1200.00,1194.15 1200.00,1194.15              1200.00,1194.15 1225.00,1181.00 1225.00,1181.00              1225.00,1181.00 1225.00,1261.00 1225.00,1261.00              1225.00,1261.00 1295.00,1261.00 1295.00,1261.00              1295.00,1240.50 1289.90,1206.49 1285.80,1186.00              1273.24,1123.21 1251.06,1065.78 1217.80,1011.00              1207.38,993.85 1194.70,975.69 1182.20,960.00              1177.76,954.43 1162.14,936.52 1160.00,932.00              1160.00,932.00 1141.00,950.00 1141.00,950.00              1141.00,950.00 1109.00,982.00 1109.00,982.00              1109.00,982.00 1147.00,1019.00 1147.00,1019.00              1152.26,1024.26 1162.00,1032.65 1165.00,1039.00              1165.00,1039.00 1109.00,1053.85 1109.00,1053.85              1109.00,1053.85 1008.00,1081.15 1008.00,1081.15              1008.00,1081.15 956.00,1095.00 956.00,1095.00              956.00,1095.00 961.12,1074.00 961.12,1074.00              961.12,1074.00 973.58,1028.00 973.58,1028.00              973.58,1028.00 1000.88,927.00 1000.88,927.00              1000.88,927.00 1012.00,886.00 1012.00,886.00              1017.98,888.83 1022.37,894.37 1027.00,899.00              1027.00,899.00 1053.00,925.00 1053.00,925.00              1055.70,927.70 1065.79,938.96 1069.00,938.96              1072.14,938.96 1080.50,929.50 1083.00,927.00              1083.00,927.00 1118.00,892.00 1118.00,892.00              1118.00,892.00 1104.00,881.72 1104.00,881.72              1092.46,873.62 1080.40,866.01 1068.00,859.31              1018.36,832.46 964.49,814.89 913.00,792.14              857.11,767.45 807.66,740.13 762.00,698.83              709.45,651.29 672.29,589.10 648.05,523.00              648.05,523.00 632.42,473.00 632.42,473.00              632.42,473.00 627.00,452.00 627.00,452.00              627.00,452.00 523.00,490.67 523.00,490.67              515.87,493.05 504.26,496.77 497.00,497.71              494.21,498.07 488.86,498.47 486.96,496.26              484.43,493.83 486.03,489.63 486.96,487.00              489.85,480.84 496.22,473.21 500.59,468.00              522.54,441.83 540.88,416.07 557.23,386.00              610.38,288.28 649.01,183.06 681.98,77.00              681.98,77.00 704.00,2.00 704.00,2.00 Z            M 739.00,1039.21            C 739.00,1039.21 777.00,1039.21 777.00,1039.21              806.01,1039.05 846.12,1050.82 872.00,1063.75              904.24,1079.87 929.13,1098.52 952.72,1126.00              1029.82,1215.84 1031.90,1349.84 959.58,1443.00              935.18,1474.42 906.37,1496.61 871.00,1514.25              833.92,1532.74 794.09,1539.48 753.00,1539.00              753.00,1539.00 743.00,1538.09 743.00,1538.09              722.33,1536.64 702.68,1532.89 683.00,1526.33              650.22,1515.41 619.68,1498.05 594.00,1474.83              513.26,1401.82 488.92,1282.84 534.31,1184.00              560.81,1126.27 608.97,1080.06 668.00,1056.45              694.60,1045.81 711.27,1043.38 739.00,1039.21 Z" />
</svg>