<svg xmlns="http://www.w3.org/2000/svg" viewBox="54.5 407.48 1940.08 1334.04">
  <path id="wikipedia" fill="#303030" stroke="none" stroke-width="1"
    d="M 1353.00,1478.00            C 1354.28,1471.17 1359.66,1460.72 1362.58,1454.00              1362.58,1454.00 1382.14,1409.00 1382.14,1409.00              1382.14,1409.00 1442.58,1270.00 1442.58,1270.00              1442.58,1270.00 1645.85,802.00 1645.85,802.00              1645.85,802.00 1708.42,658.00 1708.42,658.00              1721.71,626.85 1739.39,582.98 1739.00,549.00              1738.51,507.69 1705.08,488.89 1669.00,481.21              1669.00,481.21 1643.00,476.95 1643.00,476.95              1639.49,476.56 1633.31,476.42 1630.97,473.69              1629.04,471.43 1626.92,464.99 1626.04,462.00              1622.37,449.67 1622.30,436.43 1625.48,424.00              1626.52,419.91 1629.17,410.35 1633.21,408.60              1634.87,407.88 1638.14,408.00 1640.00,408.00              1640.00,408.00 1907.00,408.00 1907.00,408.00              1907.00,408.00 1978.00,408.00 1978.00,408.00              1980.26,408.00 1983.68,407.78 1985.61,409.02              1987.97,410.54 1989.61,415.39 1990.56,418.00              1994.52,428.87 1994.13,436.75 1994.00,448.00              1993.93,453.86 1990.41,470.48 1986.30,474.41              1984.46,476.17 1980.49,476.51 1978.00,476.92              1978.00,476.92 1961.00,480.13 1961.00,480.13              1942.70,484.57 1924.25,490.51 1908.00,500.20              1862.76,527.19 1841.37,567.24 1821.42,614.00              1821.42,614.00 1542.58,1259.00 1542.58,1259.00              1542.58,1259.00 1458.42,1453.00 1458.42,1453.00              1458.42,1453.00 1362.15,1675.00 1362.15,1675.00              1356.29,1688.66 1346.49,1712.55 1338.25,1724.00              1331.09,1733.96 1322.72,1740.84 1310.00,1741.00              1289.02,1741.25 1278.74,1730.39 1270.31,1712.00              1270.31,1712.00 1264.19,1696.00 1264.19,1696.00              1264.19,1696.00 1256.58,1678.00 1256.58,1678.00              1256.58,1678.00 1220.58,1595.00 1220.58,1595.00              1220.58,1595.00 1079.58,1269.00 1079.58,1269.00              1079.58,1269.00 1037.14,1171.00 1037.14,1171.00              1037.14,1171.00 1011.00,1110.00 1011.00,1110.00              1011.00,1110.00 993.22,1147.00 993.22,1147.00              993.22,1147.00 955.74,1226.00 955.74,1226.00              955.74,1226.00 899.22,1345.00 899.22,1345.00              899.22,1345.00 863.58,1420.00 863.58,1420.00              863.58,1420.00 846.78,1455.00 846.78,1455.00              846.78,1455.00 808.78,1535.00 808.78,1535.00              808.78,1535.00 771.31,1614.00 771.31,1614.00              771.31,1614.00 745.75,1668.00 745.75,1668.00              745.75,1668.00 733.43,1694.00 733.43,1694.00              725.84,1711.74 718.48,1733.40 698.00,1739.78              693.56,1741.16 689.58,1741.05 685.00,1741.00              658.43,1740.68 647.96,1706.39 639.80,1686.00              639.80,1686.00 565.60,1499.00 565.60,1499.00              565.60,1499.00 404.80,1093.00 404.80,1093.00              404.80,1093.00 251.20,706.00 251.20,706.00              251.20,706.00 205.42,592.00 205.42,592.00              193.61,563.85 181.31,533.32 159.58,511.28              142.58,494.05 122.13,487.03 99.00,482.40              99.00,482.40 76.00,478.95 76.00,478.95              73.14,478.63 66.69,478.22 64.64,476.40              62.79,474.76 61.13,470.35 60.20,468.00              57.42,460.93 55.19,450.60 55.01,443.00              54.84,435.48 56.63,425.12 59.08,418.00              59.89,415.65 61.31,411.41 63.41,410.02              65.30,408.78 68.78,409.00 71.00,409.00              71.00,409.00 457.00,409.00 457.00,409.00              458.73,409.00 462.10,408.86 463.61,409.57              467.10,411.22 469.71,421.31 470.49,425.00              473.76,437.61 473.75,449.43 470.49,462.00              469.49,465.22 467.11,472.26 465.03,474.69              462.97,477.09 459.94,477.15 457.00,477.58              457.00,477.58 438.00,480.27 438.00,480.27              420.45,482.98 396.75,488.83 382.00,498.75              359.65,513.78 357.99,533.69 362.08,558.00              367.25,588.69 388.66,637.05 401.01,667.00              401.01,667.00 503.58,913.00 503.58,913.00              503.58,913.00 630.42,1218.00 630.42,1218.00              630.42,1218.00 700.42,1386.00 700.42,1386.00              700.42,1386.00 725.01,1445.00 725.01,1445.00              728.13,1452.56 735.72,1468.95 737.00,1476.00              744.40,1474.77 744.75,1469.12 747.76,1463.00              747.76,1463.00 766.31,1423.00 766.31,1423.00              766.31,1423.00 842.31,1259.00 842.31,1259.00              842.31,1259.00 919.31,1093.00 919.31,1093.00              919.31,1093.00 940.25,1048.00 940.25,1048.00              942.24,1043.97 950.38,1027.35 950.46,1024.00              950.54,1020.67 946.46,1012.44 945.00,1009.00              945.00,1009.00 931.28,977.00 931.28,977.00              931.28,977.00 884.28,867.00 884.28,867.00              884.28,867.00 785.86,638.00 785.86,638.00              774.36,611.99 762.87,586.02 749.31,561.00              740.11,544.02 728.64,524.72 714.96,511.04              702.59,498.66 685.82,488.96 669.00,484.14              669.00,484.14 649.00,479.42 649.00,479.42              646.60,478.99 640.39,478.33 638.65,477.02              636.02,475.05 633.48,466.30 632.76,463.00              629.08,449.18 629.21,437.78 632.76,424.00              636.14,411.79 636.99,410.02 646.00,410.00              646.00,410.00 906.00,410.00 906.00,410.00              906.00,410.00 972.00,410.00 972.00,410.00              974.10,410.00 977.61,409.75 979.35,410.99              981.22,412.33 982.76,416.82 983.58,419.00              986.65,427.16 988.09,436.30 988.00,445.00              987.91,452.57 984.86,471.25 979.37,476.44              977.15,478.53 972.93,479.01 970.00,479.60              970.00,479.60 955.00,483.52 955.00,483.52              942.27,487.79 928.95,495.77 924.09,509.00              921.63,515.70 921.92,521.04 922.00,528.00              922.16,541.47 928.29,560.28 932.95,573.00              932.95,573.00 959.58,637.00 959.58,637.00              959.58,637.00 1016.58,768.00 1016.58,768.00              1016.58,768.00 1036.58,814.00 1036.58,814.00              1036.58,814.00 1048.41,841.00 1048.41,841.00              1048.41,841.00 1056.00,852.00 1056.00,852.00              1056.00,852.00 1069.25,826.00 1069.25,826.00              1069.25,826.00 1091.25,782.00 1091.25,782.00              1091.25,782.00 1158.25,648.00 1158.25,648.00              1170.53,623.43 1182.45,598.76 1192.05,573.00              1196.71,560.51 1202.84,541.23 1203.00,528.00              1203.30,501.80 1191.50,488.48 1167.00,480.08              1167.00,480.08 1151.00,476.00 1151.00,476.00              1148.51,475.49 1144.79,475.24 1142.96,473.43              1141.00,471.48 1138.93,465.73 1138.00,463.00              1134.35,452.22 1133.87,446.22 1134.00,435.00              1134.08,428.90 1135.50,422.86 1137.15,417.00              1137.77,414.82 1138.73,411.37 1140.65,409.99              1142.39,408.75 1145.90,409.00 1148.00,409.00              1148.00,409.00 1372.00,409.00 1372.00,409.00              1372.00,409.00 1426.00,409.00 1426.00,409.00              1428.26,409.00 1431.68,408.78 1433.61,410.02              1435.74,411.39 1436.90,414.72 1437.80,417.00              1440.74,424.44 1441.99,431.02 1442.00,439.00              1442.00,439.00 1442.00,448.00 1442.00,448.00              1441.92,454.14 1438.65,471.38 1434.35,475.42              1432.06,477.57 1420.67,479.37 1417.00,480.23              1408.11,482.34 1393.16,487.31 1385.00,491.26              1354.37,506.08 1333.56,523.89 1312.88,551.00              1286.03,586.20 1266.53,628.45 1246.75,668.00              1246.75,668.00 1175.75,808.00 1175.75,808.00              1175.75,808.00 1127.75,902.00 1127.75,902.00              1127.75,902.00 1113.75,930.00 1113.75,930.00              1113.75,930.00 1107.09,943.00 1107.09,943.00              1106.12,946.46 1107.90,949.91 1109.31,953.00              1109.31,953.00 1117.86,972.00 1117.86,972.00              1117.86,972.00 1153.14,1050.00 1153.14,1050.00              1153.14,1050.00 1240.69,1244.00 1240.69,1244.00              1240.69,1244.00 1293.78,1362.00 1293.78,1362.00              1293.78,1362.00 1333.58,1450.00 1333.58,1450.00              1333.58,1450.00 1341.69,1468.00 1341.69,1468.00              1342.87,1470.58 1344.20,1474.62 1346.39,1476.40              1348.41,1478.05 1350.57,1477.92 1353.00,1478.00 Z" />
</svg>