<svg xmlns="http://www.w3.org/2000/svg" viewBox="-0.5 -0.5 1281 499">
  <path id="wixcom" fill="#303030" stroke="none" stroke-width="1"
    d="M 0.00,0.00            C 0.00,0.00 22.00,0.00 22.00,0.00              42.91,0.03 68.60,8.80 84.00,23.09              104.27,41.91 108.27,61.83 114.88,87.00              114.88,87.00 124.37,123.00 124.37,123.00              124.37,123.00 159.12,256.00 159.12,256.00              159.12,256.00 171.63,304.00 171.63,304.00              171.63,304.00 180.00,334.00 180.00,334.00              180.00,334.00 187.13,303.00 187.13,303.00              187.13,303.00 199.63,252.00 199.63,252.00              199.63,252.00 213.13,198.00 213.13,198.00              213.13,198.00 222.13,161.00 222.13,161.00              229.04,133.36 234.58,105.14 246.14,79.00              251.07,67.85 259.20,52.60 268.09,44.29              277.38,35.60 290.74,29.12 303.00,25.88              309.94,24.05 319.88,22.09 327.00,22.00              349.57,21.74 374.64,26.79 391.96,42.30              399.06,48.65 406.93,61.39 411.25,70.00              421.54,90.53 425.36,102.94 430.87,125.00              430.87,125.00 467.85,266.00 467.85,266.00              467.85,266.00 486.00,334.00 486.00,334.00              486.00,334.00 493.12,306.00 493.12,306.00              493.12,306.00 505.12,260.00 505.12,260.00              505.12,260.00 540.85,123.00 540.85,123.00              540.85,123.00 553.12,76.00 553.12,76.00              557.48,59.41 561.32,44.29 573.17,31.00              590.95,11.06 618.44,0.04 645.00,0.00              645.00,0.00 666.00,0.00 666.00,0.00              666.00,0.00 654.88,42.00 654.88,42.00              654.88,42.00 635.88,114.00 635.88,114.00              635.88,114.00 566.12,379.00 566.12,379.00              566.12,379.00 546.85,452.00 546.85,452.00              546.85,452.00 535.00,497.00 535.00,497.00              502.26,499.65 469.30,497.94 444.01,473.91              426.21,456.99 415.57,417.78 409.63,394.00              409.63,394.00 371.87,243.00 371.87,243.00              371.87,243.00 349.63,153.00 349.63,153.00              347.72,145.49 342.99,127.49 333.00,127.73              322.95,127.98 318.34,145.23 316.37,153.00              316.37,153.00 294.63,241.00 294.63,241.00              294.63,241.00 256.37,394.00 256.37,394.00              249.66,420.83 241.86,455.63 221.00,474.91              196.22,497.80 162.74,499.57 131.00,497.00              131.00,497.00 120.88,459.00 120.88,459.00              120.88,459.00 99.88,380.00 99.88,380.00              99.88,380.00 38.12,147.00 38.12,147.00              38.12,147.00 12.12,49.00 12.12,49.00              12.12,49.00 0.00,0.00 0.00,0.00 Z            M 697.00,108.00            C 697.00,75.15 696.18,30.53 728.00,11.20              732.79,8.30 737.62,6.03 743.00,4.44              756.44,0.46 773.02,0.00 787.00,0.00              787.00,0.00 786.00,16.00 786.00,16.00              785.98,29.98 783.58,44.04 775.91,56.00              767.19,69.59 750.43,79.08 736.00,85.69              736.00,85.69 721.00,92.25 721.00,92.25              710.73,97.38 705.99,101.98 697.00,108.00 Z            M 832.00,2.00            C 838.07,0.91 845.85,0.01 852.00,0.00              852.00,0.00 873.00,0.00 873.00,0.00              892.00,0.03 916.41,6.01 932.00,17.04              940.48,23.05 952.67,37.58 959.40,46.00              959.40,46.00 997.33,98.00 997.33,98.00              997.33,98.00 1037.34,157.00 1037.34,157.00              1041.31,162.83 1048.31,175.61 1056.00,175.76              1063.65,175.91 1070.82,162.71 1074.67,157.00              1074.67,157.00 1115.67,97.00 1115.67,97.00              1132.60,71.65 1157.04,32.53 1182.00,15.75              1201.92,2.35 1226.71,0.00 1250.00,0.00              1261.45,0.00 1268.50,-0.06 1280.00,2.00              1277.98,8.35 1271.83,16.26 1268.00,22.00              1268.00,22.00 1243.00,59.00 1243.00,59.00              1243.00,59.00 1182.02,149.00 1182.02,149.00              1182.02,149.00 1159.86,182.00 1159.86,182.00              1159.86,182.00 1126.67,231.00 1126.67,231.00              1124.37,234.45 1115.35,246.64 1115.42,250.00              1115.49,253.05 1124.77,265.66 1127.00,269.00              1127.00,269.00 1157.67,315.00 1157.67,315.00              1157.67,315.00 1241.00,439.00 1241.00,439.00              1241.00,439.00 1265.02,475.00 1265.02,475.00              1269.33,481.25 1276.38,490.16 1279.00,497.00              1279.00,497.00 1263.00,498.00 1263.00,498.00              1236.68,498.04 1206.21,496.38 1183.00,482.55              1163.40,470.87 1139.43,439.24 1126.34,420.00              1126.34,420.00 1076.00,346.00 1076.00,346.00              1071.72,339.58 1062.42,322.57 1054.00,322.94              1050.25,323.11 1046.92,326.33 1044.67,329.04              1044.67,329.04 1031.67,348.00 1031.67,348.00              1031.67,348.00 977.98,427.00 977.98,427.00              966.91,443.06 946.79,468.51 931.00,479.25              906.32,496.05 873.91,498.05 845.00,498.00              845.00,498.00 828.00,497.00 828.00,497.00              830.38,490.77 838.92,479.12 843.00,473.00              843.00,473.00 871.98,430.00 871.98,430.00              871.98,430.00 949.67,314.00 949.67,314.00              949.67,314.00 981.00,267.00 981.00,267.00              983.27,263.59 991.62,252.45 991.46,249.00              991.31,245.77 982.89,234.42 980.69,231.00              980.69,231.00 950.00,184.00 950.00,184.00              950.00,184.00 901.66,110.00 901.66,110.00              901.66,110.00 865.58,55.00 865.58,55.00              865.58,55.00 843.33,21.00 843.33,21.00              839.59,15.36 834.00,8.30 832.00,2.00 Z            M 785.00,80.00            C 786.88,84.73 786.00,105.55 786.00,112.00              786.00,112.00 786.00,182.00 786.00,182.00              786.00,182.00 786.00,342.00 786.00,342.00              786.00,342.00 786.00,423.00 786.00,423.00              785.90,431.06 783.66,450.46 781.25,458.00              772.79,484.46 743.84,495.96 718.00,496.00              718.00,496.00 696.00,496.00 696.00,496.00              696.00,496.00 696.00,162.00 696.00,162.00              696.01,155.72 696.67,147.72 699.32,142.00              701.25,137.84 703.69,134.31 707.04,131.17              716.52,122.29 744.08,110.79 757.00,103.69              767.88,97.71 776.93,89.30 785.00,80.00 Z" />
</svg>