<svg xmlns="http://www.w3.org/2000/svg" viewBox="-0.64 -0.36 1025.14 1024.86">
  <path id="wordpress" fill="#303030" stroke="none" stroke-width="1"
    d="M 481.00,0.14            C 481.00,0.14 517.00,0.14 517.00,0.14              517.00,0.14 535.00,0.14 535.00,0.14              535.00,0.14 547.00,0.91 547.00,0.91              576.42,2.92 605.33,6.96 634.00,14.13              693.22,28.93 744.93,51.52 796.00,85.08              901.00,154.07 978.44,264.26 1008.87,386.00              1016.56,416.74 1020.92,444.43 1023.09,476.00              1023.09,476.00 1024.00,486.00 1024.00,486.00              1024.00,486.00 1024.00,536.00 1024.00,536.00              1024.00,536.00 1022.17,560.00 1022.17,560.00              1017.92,603.90 1009.12,644.39 994.31,686.00              938.98,841.47 809.22,960.48 651.00,1005.57              617.06,1015.25 582.12,1020.69 547.00,1023.09              547.00,1023.09 535.00,1024.00 535.00,1024.00              535.00,1024.00 487.00,1024.00 487.00,1024.00              487.00,1024.00 477.00,1023.09 477.00,1023.09              433.60,1020.12 391.33,1012.11 350.00,998.33              277.92,974.31 214.57,935.68 159.00,883.91              142.57,868.61 125.65,849.57 111.60,832.00              52.10,757.62 15.06,669.48 3.28,575.00              -0.36,545.75 -0.34,516.46 0.00,487.00              0.00,487.00 0.91,477.00 0.91,477.00              0.91,477.00 4.73,439.00 4.73,439.00              10.91,396.13 22.41,352.88 39.43,313.00              95.33,181.97 203.39,77.59 338.00,29.69              369.45,18.50 401.96,10.14 435.00,5.27              435.00,5.27 469.00,1.17 469.00,1.17              469.00,1.17 481.00,0.14 481.00,0.14 Z            M 490.00,24.14            C 490.00,24.14 475.00,25.17 475.00,25.17              475.00,25.17 439.00,29.28 439.00,29.28              416.07,32.37 384.13,40.27 362.00,47.34              235.18,87.88 127.62,182.70 70.78,303.00              -6.17,465.88 12.62,659.63 120.89,804.00              154.38,848.65 195.55,887.70 242.00,918.67              278.89,943.26 323.51,964.92 366.00,977.72              404.60,989.35 443.68,997.28 484.00,999.04              484.00,999.04 495.00,1000.00 495.00,1000.00              495.00,1000.00 527.00,1000.00 527.00,1000.00              527.00,1000.00 540.00,999.04 540.00,999.04              606.21,996.16 671.80,977.85 731.00,948.25              782.34,922.58 829.79,886.99 868.91,845.00              916.37,794.05 952.74,732.96 975.00,667.00              1022.99,524.77 1001.16,363.20 916.66,239.00              886.14,194.15 848.39,154.22 805.00,121.63              761.97,89.31 707.77,60.71 656.00,45.58              617.92,34.44 579.69,26.69 540.00,24.96              540.00,24.96 527.00,24.14 527.00,24.14              527.00,24.14 490.00,24.14 490.00,24.14 Z            M 145.00,271.00            C 148.17,262.71 161.81,245.52 167.80,238.00              187.93,212.74 210.77,189.59 236.00,169.40              296.13,121.30 368.65,88.52 445.00,77.27              445.00,77.27 488.00,73.00 488.00,73.00              488.00,73.00 519.00,72.00 519.00,72.00              519.00,72.00 529.00,72.96 529.00,72.96              529.00,72.96 539.00,72.96 539.00,72.96              539.00,72.96 559.00,74.84 559.00,74.84              595.37,78.73 622.36,85.12 657.00,96.67              696.87,109.96 740.37,133.26 774.00,158.37              774.00,158.37 797.00,176.59 797.00,176.59              801.34,180.24 806.45,183.86 809.00,189.00              800.58,186.95 789.15,189.25 781.00,192.00              753.32,201.34 730.35,231.47 730.00,261.00              730.00,261.00 730.00,269.00 730.00,269.00              730.06,304.28 756.80,340.58 773.99,370.00              786.53,391.46 797.06,414.82 803.11,439.00              816.74,493.57 804.35,537.90 788.72,590.00              788.72,590.00 764.02,671.00 764.02,671.00              764.02,671.00 740.72,749.00 740.72,749.00              740.72,749.00 734.72,769.00 734.72,769.00              733.55,772.88 733.54,775.61 730.00,778.00              730.00,778.00 717.00,738.00 717.00,738.00              717.00,738.00 690.00,658.00 690.00,658.00              690.00,658.00 604.67,404.00 604.67,404.00              604.67,404.00 582.67,338.00 582.67,338.00              582.67,338.00 572.00,306.00 572.00,306.00              572.00,306.00 609.00,302.83 609.00,302.83              619.39,301.83 629.86,302.06 636.00,292.00              637.74,289.14 638.83,285.36 638.44,282.00              637.52,273.99 630.84,267.62 623.00,266.33              619.31,265.73 615.68,266.80 612.00,266.96              612.00,266.96 577.00,269.00 577.00,269.00              577.00,269.00 561.00,270.00 561.00,270.00              561.00,270.00 543.00,271.00 543.00,271.00              543.00,271.00 529.00,271.00 529.00,271.00              529.00,271.00 512.00,272.00 512.00,272.00              512.00,272.00 494.00,272.00 494.00,272.00              494.00,272.00 482.00,271.04 482.00,271.04              482.00,271.04 467.00,271.04 467.00,271.04              467.00,271.04 452.00,270.00 452.00,270.00              452.00,270.00 418.00,268.00 418.00,268.00              418.00,268.00 409.00,268.00 409.00,268.00              409.00,268.00 385.00,266.19 385.00,266.19              376.93,267.11 369.87,273.82 369.10,282.00              367.45,299.53 381.19,300.71 394.00,302.28              394.00,302.28 417.00,304.58 417.00,304.58              424.20,305.52 428.86,303.67 431.73,308.15              431.73,308.15 440.69,332.00 440.69,332.00              440.69,332.00 455.69,373.00 455.69,373.00              455.69,373.00 483.05,448.00 483.05,448.00              483.05,448.00 497.96,489.00 497.96,489.00              500.26,497.10 495.58,506.27 493.00,514.00              493.00,514.00 476.00,565.00 476.00,565.00              476.00,565.00 427.00,712.00 427.00,712.00              427.00,712.00 411.67,758.00 411.67,758.00              409.76,763.73 405.73,777.55 403.00,782.00              399.43,776.20 392.01,752.02 389.33,744.00              389.33,744.00 364.33,669.00 364.33,669.00              364.33,669.00 285.33,434.00 285.33,434.00              285.33,434.00 255.00,344.00 255.00,344.00              255.00,344.00 246.67,319.00 246.67,319.00              245.94,316.83 243.27,310.05 243.50,308.23              244.03,303.96 251.91,305.10 255.00,304.96              255.00,304.96 261.00,304.28 261.00,304.28              270.18,303.20 289.11,303.02 297.00,300.16              304.33,297.50 309.59,289.89 308.80,282.00              307.84,272.38 298.39,265.52 289.00,266.18              289.00,266.18 246.00,269.00 246.00,269.00              246.00,269.00 233.00,270.00 233.00,270.00              233.00,270.00 201.00,271.00 201.00,271.00              201.00,271.00 184.00,272.00 184.00,272.00              184.00,272.00 164.00,272.00 164.00,272.00              164.00,272.00 145.00,271.00 145.00,271.00 Z            M 897.00,301.00            C 900.84,304.85 902.84,310.18 905.25,315.00              905.25,315.00 919.42,346.00 919.42,346.00              937.14,388.25 950.47,446.16 951.00,492.00              951.00,492.00 951.95,502.00 951.95,502.00              951.95,502.00 951.95,518.00 951.95,518.00              951.95,518.00 951.00,533.00 951.00,533.00              950.98,546.27 948.64,566.68 946.58,580.00              932.26,672.19 888.95,757.05 823.00,823.00              803.68,842.32 782.76,860.15 760.00,875.33              752.81,880.13 739.78,889.54 732.00,892.00              732.00,892.00 775.66,766.00 775.66,766.00              775.66,766.00 837.34,587.00 837.34,587.00              837.34,587.00 864.69,508.00 864.69,508.00              864.69,508.00 876.31,477.00 876.31,477.00              884.62,453.63 891.77,425.52 895.58,401.00              898.72,380.77 900.03,360.45 900.00,340.00              900.00,340.00 897.00,301.00 897.00,301.00 Z            M 110.00,333.00            C 114.02,337.23 115.73,344.50 117.69,350.00              117.69,350.00 129.69,383.00 129.69,383.00              129.69,383.00 172.05,499.00 172.05,499.00              172.05,499.00 272.05,773.00 272.05,773.00              272.05,773.00 303.42,859.00 303.42,859.00              303.42,859.00 321.00,908.00 321.00,908.00              296.31,897.36 269.49,880.02 248.00,863.89              163.77,800.71 105.12,709.79 82.42,607.00              78.67,590.00 73.08,554.87 73.00,538.00              73.00,538.00 72.00,507.00 72.00,507.00              72.00,507.00 73.00,486.00 73.00,486.00              73.00,486.00 75.85,456.00 75.85,456.00              81.42,409.36 92.74,376.14 110.00,333.00 Z            M 519.00,550.00            C 519.00,550.00 525.05,563.00 525.05,563.00              525.05,563.00 532.69,584.00 532.69,584.00              532.69,584.00 560.42,660.00 560.42,660.00              560.42,660.00 625.05,837.00 625.05,837.00              625.05,837.00 648.05,900.00 648.05,900.00              648.05,900.00 658.00,927.00 658.00,927.00              620.93,939.36 587.10,947.36 548.00,950.09              548.00,950.09 538.00,951.00 538.00,951.00              538.00,951.00 517.00,952.00 517.00,952.00              517.00,952.00 507.00,952.00 507.00,952.00              507.00,952.00 497.00,951.04 497.00,951.04              497.00,951.04 485.00,951.04 485.00,951.04              485.00,951.04 451.00,947.42 451.00,947.42              451.00,947.42 404.00,938.37 404.00,938.37              400.96,937.59 389.72,935.31 388.67,932.57              387.92,930.65 389.37,926.91 390.00,925.00              390.00,925.00 396.33,907.00 396.33,907.00              396.33,907.00 421.00,835.00 421.00,835.00              421.00,835.00 436.66,790.00 436.66,790.00              436.66,790.00 476.34,674.00 476.34,674.00              476.34,674.00 519.00,550.00 519.00,550.00 Z" />
</svg>