<svg xmlns="http://www.w3.org/2000/svg" viewBox="-0.5 -0.5 2401 2454">
  <path id="Selection" fill="#303030" stroke="none" stroke-width="1" d="M 0.00,0.00            C 0.00,0.00 708.00,0.00 708.00,0.00              708.00,0.00 714.68,0.57 714.68,0.57              714.68,0.57 725.33,14.00 725.33,14.00              725.33,14.00 751.34,52.00 751.34,52.00              751.34,52.00 813.98,143.00 813.98,143.00              813.98,143.00 864.72,217.00 864.72,217.00              864.72,217.00 989.02,398.00 989.02,398.00              989.02,398.00 1193.98,696.00 1193.98,696.00              1193.98,696.00 1283.98,827.00 1283.98,827.00              1283.98,827.00 1318.98,878.00 1318.98,878.00              1318.98,878.00 1335.00,901.00 1335.00,901.00              1338.45,894.57 1348.43,884.05 1353.58,878.00              1353.58,878.00 1394.87,830.00 1394.87,830.00              1394.87,830.00 1520.58,684.00 1520.58,684.00              1520.58,684.00 1924.87,214.00 1924.87,214.00              1924.87,214.00 2030.72,91.00 2030.72,91.00              2030.72,91.00 2065.05,51.00 2065.05,51.00              2065.05,51.00 2096.87,14.00 2096.87,14.00              2104.14,5.56 2105.49,0.02 2117.00,0.00              2117.00,0.00 2322.00,0.00 2322.00,0.00              2322.00,0.00 2290.15,38.00 2290.15,38.00              2290.15,38.00 2246.28,89.00 2246.28,89.00              2246.28,89.00 2111.27,246.00 2111.27,246.00              2111.27,246.00 1666.58,763.00 1666.58,763.00              1666.58,763.00 1492.73,965.00 1492.73,965.00              1492.73,965.00 1447.13,1018.00 1447.13,1018.00              1447.13,1018.00 1435.13,1032.00 1435.13,1032.00              1435.13,1032.00 1430.65,1038.42 1430.65,1038.42              1430.65,1038.42 1434.33,1046.00 1434.33,1046.00              1434.33,1046.00 1446.00,1063.00 1446.00,1063.00              1446.00,1063.00 1494.14,1133.00 1494.14,1133.00              1494.14,1133.00 1560.02,1229.00 1560.02,1229.00              1560.02,1229.00 1676.98,1399.00 1676.98,1399.00              1676.98,1399.00 2175.02,2124.00 2175.02,2124.00              2175.02,2124.00 2330.34,2350.00 2330.34,2350.00              2330.34,2350.00 2377.02,2418.00 2377.02,2418.00              2377.02,2418.00 2400.00,2453.00 2400.00,2453.00              2400.00,2453.00 1693.00,2453.00 1693.00,2453.00              1680.99,2452.98 1680.91,2447.49 1674.28,2438.00              1674.28,2438.00 1648.02,2400.00 1648.02,2400.00              1648.02,2400.00 1530.66,2229.00 1530.66,2229.00              1530.66,2229.00 1334.02,1943.00 1334.02,1943.00              1334.02,1943.00 1193.28,1738.00 1193.28,1738.00              1193.28,1738.00 1082.66,1577.00 1082.66,1577.00              1082.66,1577.00 1048.98,1528.00 1048.98,1528.00              1044.76,1521.89 1034.35,1508.05 1032.00,1502.00              1032.00,1502.00 1011.00,1525.00 1011.00,1525.00              1011.00,1525.00 969.73,1573.00 969.73,1573.00              969.73,1573.00 846.72,1716.00 846.72,1716.00              846.72,1716.00 528.28,2086.00 528.28,2086.00              528.28,2086.00 412.15,2221.00 412.15,2221.00              412.15,2221.00 372.72,2267.00 372.72,2267.00              372.72,2267.00 261.73,2396.00 261.73,2396.00              261.73,2396.00 225.58,2438.00 225.58,2438.00              225.58,2438.00 211.72,2452.43 211.72,2452.43              211.72,2452.43 205.00,2453.00 205.00,2453.00              205.00,2453.00 0.00,2453.00 0.00,2453.00              0.00,2453.00 22.73,2425.00 22.73,2425.00              22.73,2425.00 71.85,2368.00 71.85,2368.00              71.85,2368.00 136.27,2293.00 136.27,2293.00              136.27,2293.00 213.73,2203.00 213.73,2203.00              213.73,2203.00 697.27,1641.00 697.27,1641.00              697.27,1641.00 870.13,1440.00 870.13,1440.00              870.13,1440.00 917.42,1385.00 917.42,1385.00              917.42,1385.00 929.58,1371.00 929.58,1371.00              929.58,1371.00 934.42,1364.00 934.42,1364.00              934.42,1364.00 931.34,1357.00 931.34,1357.00              931.34,1357.00 920.34,1341.00 920.34,1341.00              920.34,1341.00 875.02,1275.00 875.02,1275.00              875.02,1275.00 697.02,1016.00 697.02,1016.00              697.02,1016.00 218.98,320.00 218.98,320.00              218.98,320.00 126.02,185.00 126.02,185.00              126.02,185.00 73.28,108.00 73.28,108.00              73.28,108.00 22.33,34.00 22.33,34.00              22.33,34.00 0.00,0.00 0.00,0.00 Z            M 2109.00,2300.00            C 2109.00,2300.00 2066.72,2239.00 2066.72,2239.00              2066.72,2239.00 1987.72,2126.00 1987.72,2126.00              1987.72,2126.00 1743.72,1777.00 1743.72,1777.00              1743.72,1777.00 1264.28,1091.00 1264.28,1091.00              1264.28,1091.00 974.02,676.00 974.02,676.00              974.02,676.00 700.02,284.00 700.02,284.00              700.02,284.00 634.34,190.00 634.34,190.00              634.34,190.00 621.02,171.00 621.02,171.00              621.02,171.00 612.83,161.02 612.83,161.02              612.83,161.02 605.00,160.00 605.00,160.00              605.00,160.00 289.00,160.00 289.00,160.00              289.00,160.00 327.28,215.00 327.28,215.00              327.28,215.00 406.28,328.00 406.28,328.00              406.28,328.00 643.28,667.00 643.28,667.00              643.28,667.00 1173.72,1426.00 1173.72,1426.00              1173.72,1426.00 1421.98,1781.00 1421.98,1781.00              1421.98,1781.00 1570.28,1993.00 1570.28,1993.00              1570.28,1993.00 1698.14,2176.00 1698.14,2176.00              1698.14,2176.00 1764.58,2271.00 1764.58,2271.00              1764.58,2271.00 1778.58,2291.00 1778.58,2291.00              1778.58,2291.00 1785.18,2298.98 1785.18,2298.98              1785.18,2298.98 1793.00,2300.00 1793.00,2300.00              1793.00,2300.00 2109.00,2300.00 2109.00,2300.00 Z"/>
</svg>