<svg xmlns="http://www.w3.org/2000/svg" viewBox="220.5 90.5 425 468.02">
  <path id="xai" fill="#303030" stroke="none" stroke-width="1"
    d="M 441.00,381.00            C 441.00,381.00 406.71,332.00 406.71,332.00              406.71,332.00 397.58,319.00 397.58,319.00              396.22,317.07 394.03,314.45 394.02,312.00              393.99,308.85 400.32,300.93 402.34,298.00              402.34,298.00 426.14,264.00 426.14,264.00              426.14,264.00 515.02,137.00 515.02,137.00              515.02,137.00 537.42,105.00 537.42,105.00              543.91,95.83 544.32,91.02 556.00,91.00              556.00,91.00 644.00,91.00 644.00,91.00              642.26,98.09 632.19,110.42 627.66,117.00              627.66,117.00 587.02,175.00 587.02,175.00              587.02,175.00 498.28,302.00 498.28,302.00              498.28,302.00 443.00,381.00 443.00,381.00              443.00,381.00 441.00,381.00 441.00,381.00 Z            M 644.00,128.00            C 644.00,128.00 645.00,145.00 645.00,145.00              645.00,145.00 645.00,167.00 645.00,167.00              645.00,167.00 644.00,183.00 644.00,183.00              644.00,183.00 644.00,220.00 644.00,220.00              644.00,220.00 643.00,237.00 643.00,237.00              643.00,237.00 643.00,272.00 643.00,272.00              643.00,272.00 642.00,288.00 642.00,288.00              642.00,288.00 642.00,328.00 642.00,328.00              642.00,328.00 641.00,345.00 641.00,345.00              641.00,345.00 641.00,380.00 641.00,380.00              641.00,380.00 640.00,397.00 640.00,397.00              640.00,397.00 640.00,432.00 640.00,432.00              640.00,432.00 639.00,449.00 639.00,449.00              639.00,449.00 639.00,488.00 639.00,488.00              639.00,488.00 638.00,505.00 638.00,505.00              638.00,505.00 638.00,541.00 638.00,541.00              638.00,541.00 637.00,558.00 637.00,558.00              637.00,558.00 573.00,558.00 573.00,558.00              573.00,558.00 571.00,457.00 571.00,457.00              571.00,457.00 570.00,440.00 570.00,440.00              570.00,440.00 570.00,417.00 570.00,417.00              570.00,417.00 569.00,400.00 569.00,400.00              569.00,400.00 569.00,377.00 569.00,377.00              569.00,377.00 568.00,360.00 568.00,360.00              568.00,360.00 568.00,340.00 568.00,340.00              568.00,340.00 567.00,324.00 567.00,324.00              567.00,324.00 567.00,301.00 567.00,301.00              567.00,301.00 565.84,285.00 565.84,285.00              565.84,285.00 565.84,261.00 565.84,261.00              565.84,261.00 565.84,242.00 565.84,242.00              565.84,242.00 573.02,230.00 573.02,230.00              573.02,230.00 589.14,207.00 589.14,207.00              589.14,207.00 622.72,159.00 622.72,159.00              622.72,159.00 644.00,128.00 644.00,128.00 Z            M 221.00,242.00            C 221.00,242.00 311.00,242.00 311.00,242.00              312.97,242.00 316.12,241.88 317.91,242.60              322.09,244.27 329.47,256.83 332.42,261.00              332.42,261.00 372.34,318.00 372.34,318.00              372.34,318.00 410.28,372.00 410.28,372.00              410.28,372.00 485.72,480.00 485.72,480.00              485.72,480.00 520.72,530.00 520.72,530.00              520.72,530.00 540.00,558.00 540.00,558.00              540.00,558.00 450.00,558.00 450.00,558.00              448.03,558.00 444.88,558.12 443.09,557.40              439.27,555.87 431.99,543.87 429.28,540.00              429.28,540.00 390.12,484.00 390.12,484.00              390.12,484.00 352.28,430.00 352.28,430.00              352.28,430.00 282.28,330.00 282.28,330.00              282.28,330.00 240.98,271.00 240.98,271.00              240.98,271.00 221.00,242.00 221.00,242.00 Z            M 318.00,418.00            C 322.99,422.23 329.42,432.30 333.34,438.00              333.34,438.00 355.72,470.00 355.72,470.00              358.07,473.35 366.98,484.54 366.77,488.00              366.61,490.60 361.29,497.58 359.58,500.00              359.58,500.00 341.34,526.00 341.34,526.00              341.34,526.00 326.66,547.00 326.66,547.00              324.99,549.43 320.99,555.59 318.68,556.98              316.60,558.22 313.37,558.00 311.00,558.00              311.00,558.00 221.00,558.00 221.00,558.00              221.00,558.00 250.58,515.00 250.58,515.00              250.58,515.00 296.72,449.00 296.72,449.00              296.72,449.00 318.00,418.00 318.00,418.00 Z" />
</svg>