<svg xmlns="http://www.w3.org/2000/svg" viewBox="10.48 10.5 1003.22 1004">
  <path id="xbox" fill="#303030" stroke="none" stroke-width="1"
    d="M 260.00,80.00            C 265.33,72.98 277.05,68.73 285.00,64.75              306.69,53.91 328.97,44.01 352.00,36.33              379.90,27.03 409.78,18.93 439.00,15.28              468.47,11.61 498.31,10.95 528.00,11.00              528.00,11.00 540.00,11.96 540.00,11.96              540.00,11.96 552.00,11.96 552.00,11.96              552.00,11.96 562.00,12.91 562.00,12.91              599.18,15.47 630.57,21.87 666.00,33.67              694.75,43.24 717.80,52.15 745.00,65.75              751.72,69.11 768.43,77.01 772.00,83.00              766.51,82.02 766.61,82.01 761.00,82.00              761.00,82.00 741.00,81.00 741.00,81.00              727.99,80.98 714.83,82.62 702.00,84.75              661.91,91.44 621.14,105.45 584.00,121.86              584.00,121.86 539.00,142.78 539.00,142.78              534.11,145.09 518.42,152.79 514.00,153.60              508.12,154.67 497.47,147.96 492.00,145.25              492.00,145.25 444.00,122.30 444.00,122.30              412.67,108.18 356.64,88.41 323.00,83.43              311.95,81.79 297.21,80.98 286.00,81.00              277.00,81.01 268.48,83.93 260.00,80.00 Z            M 912.00,815.00            C 912.00,815.00 916.00,786.00 916.00,786.00              916.62,733.02 895.11,677.26 872.78,630.00              839.74,560.07 799.88,493.32 757.00,429.00              733.28,393.41 708.59,358.52 682.00,325.00              682.00,325.00 660.60,298.00 660.60,298.00              658.61,295.51 652.80,289.08 652.74,286.09              652.68,283.08 659.75,277.18 662.00,275.09              662.00,275.09 693.00,246.92 693.00,246.92              725.57,216.95 772.09,179.03 813.00,162.01              822.43,158.09 845.25,149.38 855.00,150.70              857.74,151.07 860.70,152.61 863.00,154.11              873.57,161.00 887.84,177.16 896.27,187.00              916.89,211.06 935.05,237.22 950.30,265.00              975.95,311.70 999.38,372.23 1007.58,425.00              1013.70,464.44 1013.46,505.13 1013.00,545.00              1013.00,545.00 1012.04,556.00 1012.04,556.00              1010.25,597.04 1002.63,630.11 989.67,669.00              974.89,713.34 963.17,738.85 938.80,779.00              938.80,779.00 922.85,804.00 922.85,804.00              919.44,808.69 917.34,812.42 912.00,815.00 Z            M 117.00,816.00            C 110.98,814.19 109.06,809.95 105.66,805.00              105.66,805.00 89.32,780.00 89.32,780.00              65.49,742.20 47.09,701.99 34.86,659.00              22.57,615.81 10.48,550.61 11.00,506.00              11.00,506.00 11.91,496.00 11.91,496.00              11.91,496.00 17.73,446.00 17.73,446.00              17.73,446.00 25.42,400.00 25.42,400.00              35.37,354.96 52.74,310.49 74.69,270.00              91.09,239.75 109.39,212.11 131.87,186.00              137.53,179.43 155.54,160.39 162.00,156.10              166.11,153.38 171.03,151.35 176.00,151.10              184.86,150.67 205.29,158.31 214.00,161.80              253.70,177.73 301.26,217.13 333.00,245.93              333.00,245.93 365.00,274.83 365.00,274.83              367.88,277.43 375.50,282.80 375.10,287.00              374.86,289.52 370.10,294.89 368.39,297.00              368.39,297.00 350.60,319.00 350.60,319.00              329.57,345.29 309.14,372.27 290.02,400.00              236.85,477.14 181.10,566.91 144.15,653.00              129.14,687.98 114.96,730.97 111.92,769.00              111.92,769.00 111.00,779.00 111.00,779.00              110.89,788.47 111.18,795.74 113.74,805.00              113.74,805.00 117.00,816.00 117.00,816.00 Z            M 511.00,417.82            C 519.14,415.80 523.84,420.47 530.00,425.13              530.00,425.13 567.00,456.83 567.00,456.83              612.18,497.49 668.40,553.86 709.17,599.00              756.25,651.13 801.72,708.95 833.25,772.00              847.10,799.70 861.63,833.40 856.71,865.00              854.58,878.63 847.56,886.66 838.00,895.99              825.26,908.42 800.55,925.36 785.00,934.80              748.00,957.26 704.37,979.12 663.00,991.98              638.13,999.71 612.74,1004.56 587.00,1008.27              569.52,1010.79 551.65,1012.80 534.00,1013.00              534.00,1013.00 520.00,1014.00 520.00,1014.00              520.00,1014.00 495.00,1014.00 495.00,1014.00              495.00,1014.00 482.00,1013.00 482.00,1013.00              459.82,1012.74 432.82,1008.52 411.00,1004.00              353.38,992.08 300.25,970.31 250.00,939.80              250.00,939.80 206.00,909.87 206.00,909.87              193.51,900.41 180.44,888.82 174.45,874.00              170.26,863.63 170.88,854.89 171.00,844.00              171.13,833.30 175.58,817.27 179.00,807.00              188.19,779.46 203.86,751.52 219.32,727.00              252.34,674.63 294.75,623.27 336.91,578.00              363.04,549.95 389.55,521.57 418.00,495.83              418.00,495.83 428.00,486.09 428.00,486.09              428.00,486.09 478.00,441.75 478.00,441.75              486.56,434.59 501.18,422.28 511.00,417.82 Z" />
</svg>