<svg xmlns="http://www.w3.org/2000/svg" viewBox="35.5 78.5 1198 1107">
  <path id="Selection" fill="#303030" stroke="none" stroke-width="1" d="M 973.00,79.00            C 973.00,79.00 1233.00,79.00 1233.00,79.00              1233.00,79.00 1174.58,220.00 1174.58,220.00              1174.58,220.00 1058.01,501.00 1058.01,501.00              1058.01,501.00 1016.60,601.00 1016.60,601.00              1016.60,601.00 1007.85,622.00 1007.85,622.00              1007.85,622.00 1003.50,629.98 1003.50,629.98              1003.50,629.98 996.00,631.00 996.00,631.00              996.00,631.00 744.00,631.00 744.00,631.00              744.00,631.00 764.58,581.00 764.58,581.00              764.58,581.00 801.58,492.00 801.58,492.00              801.58,492.00 911.42,228.00 911.42,228.00              911.42,228.00 953.01,128.00 953.01,128.00              953.01,128.00 973.00,79.00 973.00,79.00 Z            M 36.00,348.00            C 36.00,348.00 267.00,348.00 267.00,348.00              267.00,348.00 274.30,348.99 274.30,348.99              274.30,348.99 282.60,368.00 282.60,368.00              282.60,368.00 307.20,431.00 307.20,431.00              307.20,431.00 374.58,603.00 374.58,603.00              374.58,603.00 399.60,667.00 399.60,667.00              399.60,667.00 413.00,700.00 413.00,700.00              413.00,700.00 424.80,668.00 424.80,668.00              424.80,668.00 447.80,610.00 447.80,610.00              447.80,610.00 515.40,439.00 515.40,439.00              515.40,439.00 538.40,381.00 538.40,381.00              538.40,381.00 551.00,348.00 551.00,348.00              551.00,348.00 784.00,348.00 784.00,348.00              784.00,348.00 773.42,374.00 773.42,374.00              773.42,374.00 758.42,410.00 758.42,410.00              758.42,410.00 711.01,524.00 711.01,524.00              711.01,524.00 585.58,826.00 585.58,826.00              585.58,826.00 518.20,988.00 518.20,988.00              518.20,988.00 455.40,1139.00 455.40,1139.00              455.40,1139.00 442.58,1170.00 442.58,1170.00              442.58,1170.00 436.30,1183.40 436.30,1183.40              436.30,1183.40 428.00,1185.00 428.00,1185.00              428.00,1185.00 202.00,1185.00 202.00,1185.00              202.00,1185.00 269.85,1027.00 269.85,1027.00              269.85,1027.00 288.30,984.00 288.30,984.00              288.30,984.00 296.41,963.00 296.41,963.00              296.41,963.00 289.85,946.00 289.85,946.00              289.85,946.00 275.42,912.00 275.42,912.00              275.42,912.00 224.01,791.00 224.01,791.00              224.01,791.00 176.42,679.00 176.42,679.00              176.42,679.00 94.15,485.00 94.15,485.00              94.15,485.00 60.58,406.00 60.58,406.00              60.58,406.00 36.00,348.00 36.00,348.00 Z            M 800.00,683.21            C 800.00,683.21 818.00,683.21 818.00,683.21              833.94,683.19 852.23,687.49 867.00,693.40              883.63,700.05 898.88,709.87 912.00,722.09              924.14,733.39 933.85,747.22 941.25,762.00              974.51,828.53 952.80,910.33 889.00,949.94              870.27,961.57 843.20,970.97 821.00,971.00              821.00,971.00 802.00,971.00 802.00,971.00              789.14,970.85 769.93,965.90 758.00,960.99              683.90,930.51 649.02,847.16 678.45,773.00              693.90,734.06 725.56,704.45 765.00,690.69              777.94,686.18 786.81,685.31 800.00,683.21 Z"/>
</svg>