<svg xmlns="http://www.w3.org/2000/svg" viewBox="-0.5 -0.5 2561 710">
  <path id="yahoo-wordmark" fill="#303030" stroke="none" stroke-width="1"
    d="M 918.00,0.00            C 918.00,0.00 1058.00,0.00 1058.00,0.00              1058.00,0.00 1058.00,207.00 1058.00,207.00              1082.70,180.20 1111.79,166.44 1148.00,163.91              1148.00,163.91 1161.00,163.01 1161.00,163.01              1161.00,163.01 1170.00,163.91 1170.00,163.91              1195.33,165.65 1218.31,172.08 1239.00,187.48              1256.71,200.66 1270.25,218.89 1279.14,239.00              1297.17,279.80 1294.00,324.52 1294.00,368.00              1294.00,368.00 1294.00,565.00 1294.00,565.00              1294.00,565.00 1155.00,565.00 1155.00,565.00              1155.00,565.00 1155.00,352.00 1155.00,352.00              1154.96,323.41 1141.29,292.89 1109.00,291.21              1106.40,291.07 1103.59,291.63 1101.00,292.00              1074.36,295.78 1058.04,322.62 1058.00,348.00              1058.00,348.00 1058.00,565.00 1058.00,565.00              1058.00,565.00 918.00,565.00 918.00,565.00              918.00,565.00 918.00,0.00 918.00,0.00 Z            M 2247.00,355.00            C 2247.00,355.00 2257.99,326.00 2257.99,326.00              2257.99,326.00 2282.58,267.00 2282.58,267.00              2282.58,267.00 2359.99,81.00 2359.99,81.00              2359.99,81.00 2385.40,20.00 2385.40,20.00              2385.40,20.00 2394.41,1.02 2394.41,1.02              2394.41,1.02 2402.00,0.00 2402.00,0.00              2402.00,0.00 2560.00,0.00 2560.00,0.00              2560.00,0.00 2547.60,32.00 2547.60,32.00              2547.60,32.00 2521.42,95.00 2521.42,95.00              2521.42,95.00 2447.28,274.00 2447.28,274.00              2447.28,274.00 2422.00,335.00 2422.00,335.00              2422.00,335.00 2413.30,354.01 2413.30,354.01              2413.30,354.01 2406.00,355.00 2406.00,355.00              2406.00,355.00 2247.00,355.00 2247.00,355.00 Z            M 739.00,530.00            C 739.00,530.00 729.96,539.91 729.96,539.91              723.16,546.53 710.49,555.21 702.00,559.68              685.36,568.43 658.82,574.97 640.00,575.00              640.00,575.00 622.00,575.00 622.00,575.00              612.10,574.88 597.69,572.31 588.00,569.87              544.07,558.84 509.59,533.10 483.88,496.00              462.66,465.37 450.69,427.94 447.04,391.00              447.04,391.00 447.04,381.00 447.04,381.00              447.04,381.00 446.00,370.00 446.00,370.00              446.00,370.00 446.00,366.00 446.00,366.00              446.00,366.00 446.91,356.00 446.91,356.00              447.87,342.06 449.43,328.66 452.65,315.00              464.37,265.39 494.93,218.43 538.00,190.69              560.41,176.26 587.44,166.71 614.00,164.04              614.00,164.04 622.00,164.04 622.00,164.04              622.00,164.04 636.00,163.00 636.00,163.00              636.00,163.00 646.00,163.91 646.00,163.91              675.89,166.00 704.94,175.54 728.00,195.30              728.00,195.30 739.00,206.00 739.00,206.00              739.00,206.00 739.00,172.00 739.00,172.00              739.00,172.00 873.00,172.00 873.00,172.00              873.00,172.00 873.00,565.00 873.00,565.00              873.00,565.00 739.00,565.00 739.00,565.00              739.00,565.00 739.00,530.00 739.00,530.00 Z            M 1523.00,163.42            C 1531.23,162.42 1534.32,163.39 1542.00,164.04              1542.00,164.04 1552.00,164.04 1552.00,164.04              1552.00,164.04 1579.00,168.40 1579.00,168.40              1627.52,178.12 1671.91,205.19 1701.52,245.00              1723.20,274.14 1736.45,311.86 1739.09,348.00              1739.09,348.00 1740.00,360.00 1740.00,360.00              1740.00,360.00 1740.00,386.00 1740.00,386.00              1739.78,404.32 1733.32,431.94 1726.55,449.00              1703.13,508.03 1654.65,549.27 1594.00,566.57              1567.60,574.11 1546.15,575.31 1519.00,575.00              1500.59,574.78 1475.49,569.50 1458.00,563.67              1428.70,553.90 1398.58,536.26 1377.04,514.00              1350.02,486.08 1331.34,450.26 1324.42,412.00              1320.58,390.75 1320.75,377.29 1321.00,356.00              1321.35,326.06 1335.06,285.51 1350.45,260.00              1377.56,215.04 1419.34,184.10 1470.00,170.73              1480.29,168.02 1501.62,164.13 1512.00,164.00              1516.76,163.95 1518.09,164.12 1523.00,163.42 Z            M 1964.00,163.42            C 1972.23,162.42 1975.32,163.39 1983.00,164.04              1983.00,164.04 1993.00,164.04 1993.00,164.04              1993.00,164.04 2020.00,168.40 2020.00,168.40              2057.81,175.98 2098.04,196.19 2124.96,224.00              2154.99,255.03 2173.21,294.39 2179.13,337.00              2179.13,337.00 2181.00,356.00 2181.00,356.00              2181.00,356.00 2181.00,387.00 2181.00,387.00              2180.72,410.66 2171.44,442.73 2161.22,464.00              2138.18,511.93 2093.19,548.01 2043.00,564.26              2014.42,573.51 1989.71,575.34 1960.00,575.00              1941.75,574.78 1916.36,569.45 1899.00,563.67              1869.87,553.96 1840.78,536.70 1819.04,514.96              1752.12,448.04 1744.15,336.15 1793.42,257.00              1820.40,213.67 1861.79,183.82 1911.00,170.88              1921.78,168.05 1942.12,164.13 1953.00,164.00              1957.76,163.95 1959.09,164.12 1964.00,163.42 Z            M 0.00,172.00            C 0.00,172.00 145.00,172.00 145.00,172.00              146.70,172.00 150.11,171.86 151.59,172.57              154.45,173.96 157.50,183.81 158.68,187.00              158.68,187.00 173.60,225.00 173.60,225.00              173.60,225.00 218.19,339.00 218.19,339.00              218.19,339.00 234.20,380.00 234.20,380.00              234.20,380.00 241.00,397.00 241.00,397.00              241.00,397.00 257.40,356.00 257.40,356.00              257.40,356.00 292.20,268.00 292.20,268.00              292.20,268.00 316.80,206.00 316.80,206.00              316.80,206.00 330.00,172.00 330.00,172.00              330.00,172.00 480.00,172.00 480.00,172.00              480.00,172.00 457.42,227.00 457.42,227.00              457.42,227.00 420.42,316.00 420.42,316.00              420.42,316.00 309.42,583.00 309.42,583.00              309.42,583.00 269.15,680.00 269.15,680.00              269.15,680.00 261.20,699.00 261.20,699.00              261.20,699.00 256.36,708.01 256.36,708.01              256.36,708.01 249.00,709.00 249.00,709.00              249.00,709.00 107.00,709.00 107.00,709.00              108.26,702.24 117.87,681.64 121.15,674.00              121.15,674.00 150.28,606.00 150.28,606.00              150.28,606.00 161.85,579.00 161.85,579.00              163.37,575.45 166.53,569.81 165.84,566.00              165.84,566.00 153.00,535.00 153.00,535.00              153.00,535.00 125.42,470.00 125.42,470.00              125.42,470.00 39.15,267.00 39.15,267.00              39.15,267.00 12.00,203.00 12.00,203.00              8.77,195.41 0.77,179.29 0.00,172.00 Z            M 653.00,290.28            C 632.45,293.30 616.47,299.01 602.17,315.00              580.36,339.40 575.61,378.24 591.31,407.00              600.42,423.69 615.47,436.32 633.00,443.40              640.99,446.62 651.38,448.90 660.00,449.00              683.26,449.27 706.31,440.98 721.70,423.00              757.04,381.72 743.02,311.46 689.00,294.19              677.58,290.54 664.94,289.17 653.00,290.28 Z            M 1525.00,291.28            C 1525.00,291.28 1512.00,293.23 1512.00,293.23              1491.73,297.94 1476.15,309.05 1465.45,327.00              1440.35,369.11 1458.27,427.89 1506.00,444.00              1512.32,446.13 1521.34,447.92 1528.00,448.00              1541.40,448.15 1551.77,446.69 1564.00,440.74              1572.86,436.44 1580.14,431.11 1586.96,424.00              1619.75,389.83 1615.21,337.14 1579.00,307.46              1571.82,301.58 1561.96,296.61 1553.00,294.15              1544.21,291.74 1534.10,290.44 1525.00,291.28 Z            M 1966.00,291.28            C 1966.00,291.28 1953.00,293.24 1953.00,293.24              1932.80,297.98 1916.21,309.89 1905.87,328.00              1900.14,338.04 1896.99,349.54 1895.93,361.00              1895.93,361.00 1895.03,370.00 1895.03,370.00              1895.03,370.00 1895.85,378.00 1895.85,378.00              1899.49,408.47 1916.61,432.88 1946.00,443.56              1952.62,445.97 1961.96,447.91 1969.00,448.00              1982.80,448.16 1993.44,446.59 2006.00,440.40              2058.61,414.46 2065.50,341.94 2019.00,306.50              2012.09,301.24 2002.39,296.45 1994.00,294.15              1984.74,291.62 1975.59,290.39 1966.00,291.28 Z            M 2290.00,387.59            C 2305.20,387.72 2317.09,389.89 2331.00,396.31              2341.30,401.06 2350.09,407.92 2357.99,416.00              2392.14,450.96 2391.46,511.36 2356.91,545.91              2338.46,564.37 2313.83,573.30 2288.00,573.00              2278.88,572.89 2267.61,570.66 2259.00,567.66              2201.83,547.68 2180.29,477.56 2213.52,428.00              2227.89,406.57 2248.88,393.61 2274.00,388.80              2274.00,388.80 2290.00,387.59 2290.00,387.59 Z" />
</svg>