<svg xmlns="http://www.w3.org/2000/svg" viewBox="-0.5 -0.5 1114 1025">
  <path id="yaml" fill="#303030" stroke="none" stroke-width="1"
    d="M 0.00,0.00            C 0.00,0.00 130.00,0.00 130.00,0.00              140.43,0.02 140.24,2.81 147.19,14.00              147.19,14.00 166.68,45.00 166.68,45.00              166.68,45.00 220.05,130.00 220.05,130.00              220.05,130.00 259.00,192.00 259.00,192.00              259.00,192.00 293.31,137.00 293.31,137.00              293.31,137.00 351.58,45.00 351.58,45.00              351.58,45.00 371.95,13.00 371.95,13.00              380.12,0.11 378.63,0.02 388.00,0.00              388.00,0.00 513.00,0.00 513.00,0.00              513.00,0.00 496.67,26.00 496.67,26.00              496.67,26.00 465.33,73.00 465.33,73.00              465.33,73.00 364.67,224.00 364.67,224.00              364.67,224.00 327.33,280.00 327.33,280.00              327.33,280.00 313.51,302.00 313.51,302.00              313.51,302.00 313.00,309.00 313.00,309.00              313.00,309.00 313.00,490.00 313.00,490.00              313.00,490.00 189.83,490.00 189.83,490.00              189.83,490.00 189.83,308.00 189.83,308.00              189.83,308.00 189.83,301.00 189.83,301.00              189.83,301.00 175.69,278.00 175.69,278.00              175.69,278.00 141.34,224.00 141.34,224.00              141.34,224.00 43.95,71.00 43.95,71.00              43.95,71.00 15.31,26.00 15.31,26.00              15.31,26.00 0.00,0.00 0.00,0.00 Z            M 353.00,491.00            C 353.00,491.00 370.72,448.00 370.72,448.00              370.72,448.00 402.58,373.00 402.58,373.00              402.58,373.00 511.85,115.00 511.85,115.00              511.85,115.00 548.80,28.00 548.80,28.00              548.80,28.00 556.42,10.00 556.42,10.00              556.42,10.00 560.70,1.99 560.70,1.99              560.70,1.99 568.00,1.00 568.00,1.00              568.00,1.00 656.00,1.00 656.00,1.00              656.00,1.00 661.30,1.99 661.30,1.99              661.30,1.99 665.40,10.00 665.40,10.00              665.40,10.00 672.28,27.00 672.28,27.00              672.28,27.00 707.28,113.00 707.28,113.00              707.28,113.00 743.01,201.00 743.01,201.00              743.01,201.00 812.20,371.00 812.20,371.00              812.20,371.00 845.20,452.00 845.20,452.00              845.20,452.00 860.00,491.00 860.00,491.00              860.00,491.00 763.00,491.00 763.00,491.00              763.00,491.00 755.51,489.98 755.51,489.98              755.51,489.98 752.00,483.00 752.00,483.00              752.00,483.00 746.33,467.00 746.33,467.00              746.33,467.00 727.00,410.00 727.00,410.00              727.00,410.00 718.00,382.00 718.00,382.00              718.00,382.00 506.00,382.00 506.00,382.00              503.73,382.00 500.34,381.78 498.39,383.02              495.43,384.91 490.61,398.11 489.01,402.00              489.01,402.00 462.15,467.00 462.15,467.00              462.15,467.00 455.58,483.00 455.58,483.00              454.72,485.02 453.32,488.73 451.51,489.98              449.68,491.23 446.18,491.00 444.00,491.00              444.00,491.00 353.00,491.00 353.00,491.00 Z            M 614.00,107.00            C 614.00,107.00 604.40,127.00 604.40,127.00              604.40,127.00 590.00,161.00 590.00,161.00              590.00,161.00 556.72,240.00 556.72,240.00              556.72,240.00 539.00,284.00 539.00,284.00              539.00,284.00 680.00,284.00 680.00,284.00              680.00,284.00 661.05,232.00 661.05,232.00              661.05,232.00 628.58,146.00 628.58,146.00              628.58,146.00 614.00,107.00 614.00,107.00 Z            M 190.00,544.00            C 190.00,544.00 317.00,544.00 317.00,544.00              326.60,544.02 326.38,546.47 332.24,558.00              332.24,558.00 350.00,592.00 350.00,592.00              350.00,592.00 369.31,629.00 369.31,629.00              369.31,629.00 410.26,707.00 410.26,707.00              410.26,707.00 429.25,743.00 429.25,743.00              431.82,748.13 435.44,753.64 437.00,759.00              441.90,752.96 445.10,745.77 448.86,739.00              448.86,739.00 469.30,702.00 469.30,702.00              469.30,702.00 527.77,596.00 527.77,596.00              527.77,596.00 548.22,559.00 548.22,559.00              555.68,544.95 554.63,544.02 564.00,544.00              564.00,544.00 692.00,544.00 692.00,544.00              692.00,544.00 692.00,1024.00 692.00,1024.00              692.00,1024.00 593.00,1024.00 593.00,1024.00              593.00,1024.00 593.00,794.00 593.00,794.00              593.00,794.00 593.00,723.00 593.00,723.00              593.00,723.00 592.00,688.00 592.00,688.00              589.85,695.96 584.07,706.36 580.25,714.00              580.25,714.00 562.26,751.00 562.26,751.00              562.26,751.00 507.75,864.00 507.75,864.00              507.75,864.00 489.25,902.00 489.25,902.00              482.58,915.43 485.15,915.98 475.00,916.00              475.00,916.00 409.00,916.00 409.00,916.00              399.49,915.98 400.64,915.78 393.75,902.00              393.75,902.00 375.75,865.00 375.75,865.00              375.75,865.00 353.74,819.00 353.74,819.00              353.74,819.00 326.78,764.00 326.78,764.00              326.78,764.00 311.31,732.00 311.31,732.00              311.31,732.00 294.00,697.00 294.00,697.00              294.00,697.00 294.00,1024.00 294.00,1024.00              294.00,1024.00 190.00,1024.00 190.00,1024.00              190.00,1024.00 190.00,544.00 190.00,544.00 Z            M 755.00,544.00            C 755.00,544.00 861.00,544.00 861.00,544.00              861.00,544.00 861.00,919.00 861.00,919.00              861.00,919.00 1113.00,919.00 1113.00,919.00              1113.00,919.00 1113.00,1022.00 1113.00,1022.00              1113.00,1022.00 755.00,1022.00 755.00,1022.00              755.00,1022.00 755.00,544.00 755.00,544.00 Z" />
</svg>