<svg xmlns="http://www.w3.org/2000/svg" viewBox="-0.59 -0.5 2554.72 1013.11">
  <path id="yandex-ru-wordmark" fill="#303030" stroke="none" stroke-width="1"
    d="M 184.00,547.00            C 157.74,535.69 133.21,520.01 112.00,500.83              66.64,459.81 41.75,401.88 34.28,342.00              31.66,320.98 31.97,300.15 32.00,279.00              32.00,279.00 32.91,267.00 32.91,267.00              34.95,237.13 39.14,207.73 47.98,179.00              60.42,138.54 78.60,103.59 107.17,72.00              140.46,35.19 188.31,10.98 237.00,2.92              237.00,2.92 263.00,0.00 263.00,0.00              263.00,0.00 390.00,0.00 390.00,0.00              390.00,0.00 416.00,0.00 416.00,0.00              419.47,0.05 422.74,0.13 425.44,2.65              429.17,6.12 428.99,11.34 429.00,16.00              429.00,16.00 429.00,681.00 429.00,681.00              429.00,681.00 429.00,846.00 429.00,846.00              429.00,846.00 429.00,878.00 429.00,878.00              429.00,882.04 429.62,888.56 427.26,891.87              424.11,896.30 418.81,895.99 414.00,896.00              414.00,896.00 349.00,896.00 349.00,896.00              338.00,895.86 336.02,892.31 336.00,882.00              336.00,882.00 336.00,564.00 336.00,564.00              336.00,564.00 286.00,564.00 286.00,564.00              275.12,564.02 275.59,567.33 269.75,579.00              269.75,579.00 248.25,621.00 248.25,621.00              248.25,621.00 193.26,728.00 193.26,728.00              193.26,728.00 154.31,804.00 154.31,804.00              154.31,804.00 139.75,833.00 139.75,833.00              139.75,833.00 120.75,870.00 120.75,870.00              118.28,874.95 110.82,890.36 106.90,893.00              102.63,895.87 96.95,895.99 92.00,896.00              92.00,896.00 17.00,896.00 17.00,896.00              14.43,896.00 11.49,896.08 9.00,895.47              -6.52,891.69 1.47,875.77 6.42,867.00              6.42,867.00 56.30,777.00 56.30,777.00              56.30,777.00 106.77,686.00 106.77,686.00              106.77,686.00 156.14,597.00 156.14,597.00              156.14,597.00 184.00,547.00 184.00,547.00 Z            M 336.00,77.00            C 336.00,77.00 294.00,77.00 294.00,77.00              294.00,77.00 271.00,77.00 271.00,77.00              248.57,77.03 222.14,86.43 204.00,99.43              162.02,129.51 142.85,180.63 135.73,230.00              135.73,230.00 132.91,258.00 132.91,258.00              132.91,258.00 132.00,270.00 132.00,270.00              132.00,270.00 132.00,301.00 132.00,301.00              132.00,301.00 132.91,313.00 132.91,313.00              134.35,333.93 137.39,354.98 144.00,375.00              153.26,403.06 166.72,429.71 189.00,449.83              208.11,467.09 230.77,478.48 256.00,483.55              278.18,488.01 312.65,487.00 336.00,487.00              336.00,487.00 336.00,77.00 336.00,77.00 Z            M 1508.00,612.00            C 1508.00,612.00 1508.00,656.00 1508.00,656.00              1508.00,656.00 1510.87,686.00 1510.87,686.00              1517.21,731.63 1536.15,780.86 1577.00,806.19              1609.49,826.33 1646.48,826.11 1683.00,820.73              1683.00,820.73 1717.00,813.63 1717.00,813.63              1721.92,812.40 1730.13,809.78 1734.96,811.74              1739.60,813.62 1740.54,818.66 1741.63,823.00              1741.63,823.00 1747.65,849.00 1747.65,849.00              1748.59,853.11 1750.44,858.86 1749.85,863.00              1749.18,867.67 1745.69,869.91 1742.00,872.30              1733.94,877.53 1724.73,881.79 1716.00,885.77              1686.60,899.19 1650.40,908.85 1618.00,909.16              1618.00,909.16 1607.00,909.16 1607.00,909.16              1607.00,909.16 1596.00,909.16 1596.00,909.16              1583.43,908.98 1569.07,905.87 1557.00,902.42              1466.27,876.53 1425.12,782.95 1412.73,697.00              1412.73,697.00 1408.91,659.00 1408.91,659.00              1408.91,659.00 1408.00,649.00 1408.00,649.00              1408.00,649.00 1408.00,590.00 1408.00,590.00              1408.00,590.00 1409.91,562.00 1409.91,562.00              1412.68,521.71 1419.11,481.88 1430.29,443.00              1440.95,405.92 1457.26,368.28 1481.45,338.00              1512.58,299.02 1550.65,281.43 1600.00,282.00              1615.84,282.19 1634.69,287.17 1649.00,293.89              1659.33,298.74 1671.54,307.53 1680.00,315.17              1713.96,345.84 1733.88,397.08 1743.58,441.00              1749.35,467.16 1752.27,493.36 1754.09,520.00              1754.09,520.00 1755.04,531.00 1755.04,531.00              1755.04,531.00 1755.04,543.00 1755.04,543.00              1755.04,543.00 1756.00,555.00 1756.00,555.00              1756.00,555.00 1756.00,617.00 1756.00,617.00              1756.00,617.00 1570.00,617.00 1570.00,617.00              1570.00,617.00 1558.00,616.09 1558.00,616.09              1558.00,616.09 1527.00,613.83 1527.00,613.83              1527.00,613.83 1508.00,612.00 1508.00,612.00 Z            M 2407.00,282.21            C 2407.00,282.21 2430.00,282.21 2430.00,282.21              2430.00,282.21 2439.00,282.83 2439.00,282.83              2465.32,285.46 2485.68,291.18 2510.00,301.58              2510.00,301.58 2531.00,311.76 2531.00,311.76              2534.94,313.76 2539.50,315.98 2541.69,320.04              2545.15,326.49 2540.07,334.52 2536.80,340.00              2536.80,340.00 2510.42,383.00 2510.42,383.00              2506.40,389.46 2502.98,396.88 2494.00,395.86              2487.66,395.15 2474.79,382.07 2469.00,377.65              2451.08,363.97 2425.91,351.27 2403.00,359.44              2389.26,364.33 2379.10,373.71 2370.21,385.00              2353.95,405.65 2342.70,435.72 2335.85,461.00              2318.95,523.41 2314.97,593.85 2321.84,658.00              2325.76,694.69 2334.55,733.04 2353.60,765.00              2377.13,804.46 2411.25,824.21 2457.00,824.00              2457.00,824.00 2468.00,823.09 2468.00,823.09              2486.92,821.79 2499.62,819.31 2518.00,815.21              2523.24,814.04 2537.15,809.08 2541.58,812.02              2544.91,814.23 2546.59,825.84 2547.63,830.00              2549.64,838.08 2556.18,859.04 2552.55,865.96              2550.53,869.79 2545.62,872.69 2542.00,874.94              2513.09,892.89 2466.18,908.60 2432.00,909.00              2432.00,909.00 2424.00,909.68 2424.00,909.68              2424.00,909.68 2409.00,909.00 2409.00,909.00              2398.99,908.88 2385.76,906.32 2376.00,903.87              2304.24,885.85 2257.60,824.50 2237.58,756.00              2228.19,723.91 2222.42,691.39 2220.96,658.00              2220.96,658.00 2220.00,645.00 2220.00,645.00              2220.00,645.00 2220.00,601.00 2220.00,601.00              2220.00,601.00 2221.00,581.00 2221.00,581.00              2221.00,581.00 2221.91,571.00 2221.91,571.00              2221.91,571.00 2224.85,541.00 2224.85,541.00              2230.13,496.82 2240.00,456.18 2256.99,415.00              2276.18,368.48 2310.40,318.46 2357.00,296.32              2375.51,287.53 2387.12,285.26 2407.00,282.21 Z            M 644.00,609.00            C 644.00,609.00 644.00,829.00 644.00,829.00              644.00,829.00 644.00,870.00 644.00,870.00              644.00,875.02 644.60,885.80 642.57,889.98              640.01,895.28 636.07,894.99 631.00,895.00              631.00,895.00 563.00,895.00 563.00,895.00              553.18,894.98 551.02,892.82 551.00,883.00              551.00,883.00 551.00,433.00 551.00,433.00              551.00,433.00 551.00,329.00 551.00,329.00              551.00,329.00 551.00,307.00 551.00,307.00              551.06,303.88 551.09,301.00 553.57,298.70              556.69,295.80 562.03,296.01 566.00,296.00              566.00,296.00 632.00,296.00 632.00,296.00              635.57,296.05 639.76,296.05 642.07,299.28              644.01,301.98 643.98,306.78 644.00,310.00              644.00,310.00 644.00,351.00 644.00,351.00              644.00,351.00 644.00,533.00 644.00,533.00              644.00,533.00 780.00,533.00 780.00,533.00              780.00,533.00 780.00,351.00 780.00,351.00              780.00,351.00 780.00,315.00 780.00,315.00              780.00,310.89 779.31,303.52 781.74,300.21              784.93,295.87 790.19,296.01 795.00,296.00              795.00,296.00 860.00,296.00 860.00,296.00              871.64,296.14 872.98,300.47 873.00,311.00              873.00,311.00 873.00,759.00 873.00,759.00              873.00,759.00 873.00,863.00 873.00,863.00              873.00,870.63 875.35,889.98 867.95,893.98              865.70,895.19 862.50,895.00 860.00,894.92              860.00,894.92 793.00,894.92 793.00,894.92              793.00,894.92 787.00,894.92 787.00,894.92              779.82,893.45 780.01,887.85 780.00,882.00              780.00,882.00 780.00,609.00 780.00,609.00              780.00,609.00 644.00,609.00 644.00,609.00 Z            M 1022.00,895.00            C 1022.00,895.00 1022.00,992.00 1022.00,992.00              1021.91,999.43 1020.29,1006.54 1012.99,1010.08              1007.41,1012.79 998.29,1012.00 992.00,1012.00              992.00,1012.00 950.00,1012.00 950.00,1012.00              937.97,1011.98 937.02,1008.25 937.00,997.00              937.00,997.00 937.00,860.00 937.00,860.00              937.00,860.00 937.00,832.00 937.00,832.00              937.05,828.10 937.17,824.28 940.28,821.43              943.29,818.67 947.21,819.01 951.00,819.00              951.00,819.00 964.00,819.00 964.00,819.00              966.47,819.00 969.70,819.20 971.90,817.98              975.92,815.75 981.94,801.68 984.24,797.00              996.10,772.89 1005.21,747.46 1013.67,722.00              1033.25,663.03 1044.18,593.81 1050.17,532.00              1050.17,532.00 1053.09,497.00 1053.09,497.00              1053.09,497.00 1054.00,487.00 1054.00,487.00              1054.00,487.00 1055.00,465.00 1055.00,465.00              1055.00,465.00 1056.04,450.00 1056.04,450.00              1056.04,450.00 1056.04,438.00 1056.04,438.00              1056.04,438.00 1057.00,426.00 1057.00,426.00              1057.00,426.00 1057.00,401.00 1057.00,401.00              1057.00,401.00 1058.00,384.00 1058.00,384.00              1058.00,384.00 1058.00,309.00 1058.00,309.00              1058.02,297.25 1062.15,296.02 1073.00,296.00              1073.00,296.00 1258.00,296.00 1258.00,296.00              1258.00,296.00 1296.00,296.00 1296.00,296.00              1300.02,296.00 1308.49,295.34 1311.57,297.85              1314.43,300.20 1313.99,304.66 1314.00,308.00              1314.00,308.00 1314.00,700.00 1314.00,700.00              1314.00,700.00 1314.00,780.00 1314.00,780.00              1314.00,789.78 1312.23,805.43 1319.21,812.90              1326.60,820.79 1338.25,818.89 1348.00,819.00              1359.64,819.14 1360.98,823.47 1361.00,834.00              1361.00,834.00 1361.00,971.00 1361.00,971.00              1361.00,982.60 1364.31,1006.00 1351.00,1011.11              1348.34,1012.13 1344.83,1012.00 1342.00,1012.00              1342.00,1012.00 1287.00,1012.00 1287.00,1012.00              1276.71,1011.82 1276.01,1006.90 1276.00,998.00              1276.00,998.00 1276.00,895.00 1276.00,895.00              1276.00,895.00 1022.00,895.00 1022.00,895.00 Z            M 1944.00,588.00            C 1944.00,588.00 1944.00,824.00 1944.00,824.00              1944.00,824.00 1944.00,884.00 1944.00,884.00              1943.95,894.23 1941.67,894.98 1932.00,895.00              1932.00,895.00 1864.00,895.00 1864.00,895.00              1851.89,894.98 1851.02,891.52 1851.00,880.00              1851.00,880.00 1851.00,432.00 1851.00,432.00              1851.00,432.00 1851.00,328.00 1851.00,328.00              1851.00,320.80 1849.12,302.09 1855.14,297.74              1857.94,295.72 1861.72,296.01 1865.00,296.00              1865.00,296.00 1933.00,296.00 1933.00,296.00              1941.65,296.12 1943.94,298.45 1944.00,307.00              1944.00,307.00 1944.00,359.00 1944.00,359.00              1944.00,359.00 1944.00,566.00 1944.00,566.00              1954.17,558.65 1959.88,545.19 1964.86,534.00              1964.86,534.00 1979.26,504.00 1979.26,504.00              1979.26,504.00 2025.74,408.00 2025.74,408.00              2025.74,408.00 2047.75,362.00 2047.75,362.00              2047.75,362.00 2064.69,327.00 2064.69,327.00              2068.77,318.13 2072.79,307.55 2081.00,301.64              2086.86,297.42 2096.88,296.09 2104.00,296.00              2104.00,296.00 2168.00,296.00 2168.00,296.00              2170.17,296.00 2173.92,295.86 2175.85,296.74              2179.26,298.27 2179.25,301.86 2178.36,305.00              2177.47,308.19 2170.89,319.34 2168.86,323.00              2168.86,323.00 2126.75,400.00 2126.75,400.00              2126.75,400.00 2105.31,439.00 2105.31,439.00              2105.31,439.00 2062.14,518.00 2062.14,518.00              2062.14,518.00 2044.00,551.00 2044.00,551.00              2042.61,553.45 2036.25,564.42 2036.23,566.42              2036.20,569.31 2042.58,579.74 2044.24,583.00              2044.24,583.00 2066.69,626.00 2066.69,626.00              2066.69,626.00 2097.78,686.00 2097.78,686.00              2097.78,686.00 2141.75,770.00 2141.75,770.00              2141.75,770.00 2190.76,864.00 2190.76,864.00              2190.76,864.00 2201.30,884.00 2201.30,884.00              2202.43,886.77 2203.92,890.86 2201.30,893.40              2199.50,895.32 2195.53,894.99 2193.00,895.00              2193.00,895.00 2119.00,895.00 2119.00,895.00              2113.93,894.99 2109.91,894.76 2105.00,893.23              2089.51,888.40 2085.22,872.03 2078.75,859.00              2078.75,859.00 2034.25,768.00 2034.25,768.00              2034.25,768.00 1974.25,645.00 1974.25,645.00              1974.25,645.00 1957.25,610.00 1957.25,610.00              1952.87,601.24 1950.75,595.43 1944.00,588.00 Z            M 1659.00,541.00            C 1659.00,541.00 1659.00,517.00 1659.00,517.00              1659.00,517.00 1658.09,505.00 1658.09,505.00              1658.09,505.00 1656.16,479.00 1656.16,479.00              1653.41,453.27 1649.06,425.00 1639.14,401.00              1631.21,381.83 1618.47,360.54 1596.00,357.30              1568.75,353.37 1551.21,374.07 1540.25,396.00              1527.16,422.19 1520.89,455.13 1516.73,484.00              1516.73,484.00 1512.04,521.00 1512.04,521.00              1512.04,521.00 1512.04,530.00 1512.04,530.00              1512.04,530.00 1511.00,546.00 1511.00,546.00              1511.00,546.00 1543.00,542.91 1543.00,542.91              1543.00,542.91 1572.00,541.00 1572.00,541.00              1572.00,541.00 1659.00,541.00 1659.00,541.00 Z            M 1221.00,372.00            C 1221.00,372.00 1146.00,372.00 1146.00,372.00              1146.00,372.00 1146.00,388.00 1146.00,388.00              1146.00,388.00 1145.04,400.00 1145.04,400.00              1145.04,400.00 1145.04,413.00 1145.04,413.00              1145.04,413.00 1144.00,428.00 1144.00,428.00              1144.00,428.00 1142.00,457.00 1142.00,457.00              1142.00,457.00 1142.00,466.00 1142.00,466.00              1142.00,466.00 1139.17,498.00 1139.17,498.00              1132.15,571.37 1123.37,635.34 1100.33,706.00              1093.21,727.84 1083.74,752.35 1073.74,773.00              1073.74,773.00 1059.69,801.00 1059.69,801.00              1059.69,801.00 1050.00,819.00 1050.00,819.00              1050.00,819.00 1221.00,819.00 1221.00,819.00              1221.00,819.00 1221.00,372.00 1221.00,372.00 Z" />
</svg>