<svg xmlns="http://www.w3.org/2000/svg" viewBox="-0.59 -0.5 430.17 897">
  <path id="yandex-ru" fill="#303030" stroke="none" stroke-width="1"
    d="M 184.00,547.00            C 157.74,535.69 133.21,520.01 112.00,500.83              66.64,459.81 41.75,401.88 34.28,342.00              31.66,320.98 31.97,300.15 32.00,279.00              32.00,279.00 32.91,267.00 32.91,267.00              34.95,237.13 39.14,207.73 47.98,179.00              60.42,138.54 78.60,103.59 107.17,72.00              140.46,35.19 188.31,10.98 237.00,2.92              237.00,2.92 263.00,0.00 263.00,0.00              263.00,0.00 390.00,0.00 390.00,0.00              390.00,0.00 416.00,0.00 416.00,0.00              419.47,0.05 422.74,0.13 425.44,2.65              429.17,6.12 428.99,11.34 429.00,16.00              429.00,16.00 429.00,681.00 429.00,681.00              429.00,681.00 429.00,846.00 429.00,846.00              429.00,846.00 429.00,878.00 429.00,878.00              429.00,882.04 429.62,888.56 427.26,891.87              424.11,896.30 418.81,895.99 414.00,896.00              414.00,896.00 349.00,896.00 349.00,896.00              338.00,895.86 336.02,892.31 336.00,882.00              336.00,882.00 336.00,564.00 336.00,564.00              336.00,564.00 286.00,564.00 286.00,564.00              275.12,564.02 275.59,567.33 269.75,579.00              269.75,579.00 248.25,621.00 248.25,621.00              248.25,621.00 193.26,728.00 193.26,728.00              193.26,728.00 154.31,804.00 154.31,804.00              154.31,804.00 139.75,833.00 139.75,833.00              139.75,833.00 120.75,870.00 120.75,870.00              118.28,874.95 110.82,890.36 106.90,893.00              102.63,895.87 96.95,895.99 92.00,896.00              92.00,896.00 17.00,896.00 17.00,896.00              14.43,896.00 11.49,896.08 9.00,895.47              -6.52,891.69 1.47,875.77 6.42,867.00              6.42,867.00 56.30,777.00 56.30,777.00              56.30,777.00 106.77,686.00 106.77,686.00              106.77,686.00 156.14,597.00 156.14,597.00              156.14,597.00 184.00,547.00 184.00,547.00 Z            M 336.00,77.00            C 336.00,77.00 294.00,77.00 294.00,77.00              294.00,77.00 271.00,77.00 271.00,77.00              248.57,77.03 222.14,86.43 204.00,99.43              162.02,129.51 142.85,180.63 135.73,230.00              135.73,230.00 132.91,258.00 132.91,258.00              132.91,258.00 132.00,270.00 132.00,270.00              132.00,270.00 132.00,301.00 132.00,301.00              132.00,301.00 132.91,313.00 132.91,313.00              134.35,333.93 137.39,354.98 144.00,375.00              153.26,403.06 166.72,429.71 189.00,449.83              208.11,467.09 230.77,478.48 256.00,483.55              278.18,488.01 312.65,487.00 336.00,487.00              336.00,487.00 336.00,77.00 336.00,77.00 Z" />
</svg>