<svg xmlns="http://www.w3.org/2000/svg" viewBox="6.5 188.5 2540 938.04">
  <path id="yandex-wordmark" fill="#303030" stroke="none" stroke-width="1"
    d="M 426.00,189.00            C 426.00,189.00 520.00,189.00 520.00,189.00              520.00,189.00 505.00,234.00 505.00,234.00              505.00,234.00 470.00,335.00 470.00,335.00              470.00,335.00 387.66,573.00 387.66,573.00              387.66,573.00 354.33,669.00 354.33,669.00              354.33,669.00 317.66,775.00 317.66,775.00              317.66,775.00 308.31,802.00 308.31,802.00              304.85,811.72 302.02,816.33 302.00,827.00              302.00,827.00 302.00,1118.00 302.00,1118.00              302.00,1118.00 207.87,1118.00 207.87,1118.00              207.87,1118.00 207.87,825.00 207.87,825.00              207.87,825.00 207.87,818.00 207.87,818.00              207.87,818.00 193.05,778.00 193.05,778.00              193.05,778.00 158.05,684.00 158.05,684.00              158.05,684.00 86.58,492.00 86.58,492.00              86.58,492.00 52.31,400.00 52.31,400.00              52.31,400.00 20.95,316.00 20.95,316.00              20.95,316.00 7.00,276.00 7.00,276.00              7.00,276.00 101.00,276.00 101.00,276.00              101.00,276.00 108.30,276.99 108.30,276.99              108.30,276.99 111.42,283.00 111.42,283.00              111.42,283.00 117.19,299.00 117.19,299.00              117.19,299.00 143.42,373.00 143.42,373.00              143.42,373.00 163.69,430.00 163.69,430.00              163.69,430.00 223.95,599.00 223.95,599.00              223.95,599.00 246.31,662.00 246.31,662.00              246.31,662.00 257.00,691.00 257.00,691.00              257.00,691.00 270.00,650.00 270.00,650.00              270.00,650.00 298.33,567.00 298.33,567.00              298.33,567.00 358.66,389.00 358.66,389.00              358.66,389.00 375.69,338.00 375.69,338.00              375.69,338.00 409.33,239.00 409.33,239.00              409.33,239.00 426.00,189.00 426.00,189.00 Z            M 1607.00,276.00            C 1607.00,276.00 1700.00,276.00 1700.00,276.00              1700.00,276.00 1700.00,1118.00 1700.00,1118.00              1700.00,1118.00 1631.00,1118.00 1631.00,1118.00              1631.00,1118.00 1624.00,1071.00 1624.00,1071.00              1616.65,1071.61 1614.50,1076.84 1609.83,1082.00              1604.08,1088.36 1597.71,1094.21 1591.00,1099.55              1572.20,1114.51 1544.22,1125.71 1520.00,1126.00              1497.08,1126.26 1479.15,1125.42 1457.00,1118.26              1373.82,1091.33 1343.24,997.61 1334.84,919.00              1334.84,919.00 1332.00,886.00 1332.00,886.00              1332.00,886.00 1331.00,870.00 1331.00,870.00              1331.00,870.00 1331.00,815.00 1331.00,815.00              1331.00,815.00 1332.00,795.00 1332.00,795.00              1332.00,795.00 1332.91,785.00 1332.91,785.00              1334.65,760.09 1337.90,735.52 1342.80,711.00              1349.23,678.86 1360.96,641.66 1376.86,613.00              1392.67,584.50 1412.52,560.10 1440.00,542.08              1476.97,517.83 1529.40,509.27 1572.00,521.43              1585.74,525.35 1594.81,529.68 1607.00,537.00              1607.00,537.00 1607.00,276.00 1607.00,276.00 Z            M 507.00,645.00            C 507.00,645.00 494.42,585.00 494.42,585.00              494.42,585.00 491.12,570.00 491.12,570.00              490.73,567.71 489.83,564.63 491.12,562.46              492.70,559.45 504.54,551.89 508.00,549.86              524.45,540.20 537.98,534.34 556.00,528.33              585.44,518.52 610.23,515.95 641.00,516.00              641.00,516.00 653.00,516.91 653.00,516.91              688.64,519.36 723.41,527.24 749.96,553.09              757.37,560.30 766.73,573.79 771.69,583.00              785.31,608.29 791.10,641.58 793.09,670.00              793.09,670.00 794.00,682.00 794.00,682.00              794.00,682.00 794.00,718.00 794.00,718.00              794.00,718.00 794.00,772.00 794.00,772.00              794.00,772.00 794.00,979.00 794.00,979.00              794.00,979.00 795.00,994.00 795.00,994.00              795.00,994.00 795.00,1015.00 795.00,1015.00              795.00,1015.00 796.00,1034.00 796.00,1034.00              796.00,1034.00 797.83,1056.00 797.83,1056.00              797.83,1056.00 805.00,1118.00 805.00,1118.00              805.00,1118.00 726.00,1118.00 726.00,1118.00              726.00,1118.00 722.80,1103.00 722.80,1103.00              722.80,1103.00 718.00,1071.00 718.00,1071.00              711.30,1072.08 710.26,1075.33 705.91,1080.00              701.28,1084.97 692.20,1094.08 687.00,1098.11              665.80,1114.53 639.14,1125.68 612.00,1126.00              612.00,1126.00 594.00,1126.00 594.00,1126.00              573.12,1125.97 547.88,1118.18 530.00,1107.55              472.36,1073.26 458.90,1000.62 459.00,939.00              459.00,939.00 460.00,927.00 460.00,927.00              460.00,927.00 460.00,919.00 460.00,919.00              460.93,906.65 462.91,894.08 465.58,882.00              469.85,862.62 476.55,844.26 486.43,827.00              491.82,817.59 498.90,808.05 506.17,800.00              554.78,746.18 634.92,738.00 703.00,738.00              703.00,738.00 703.00,714.00 703.00,714.00              703.00,674.87 701.12,618.27 659.00,599.87              649.19,595.59 638.58,594.11 628.00,593.32              624.69,593.08 623.15,593.70 620.00,593.91              606.37,594.84 597.19,595.99 584.00,600.19              565.20,606.18 549.18,614.85 533.00,626.02              526.14,630.76 512.95,642.32 507.00,645.00 Z            M 1000.00,575.00            C 1006.46,573.95 1008.55,569.51 1013.00,565.00              1019.75,558.18 1026.18,552.05 1034.00,546.43              1057.46,529.56 1087.69,516.35 1117.00,516.00              1135.41,515.79 1154.53,517.08 1172.00,523.44              1210.98,537.61 1229.37,566.84 1237.20,606.00              1238.99,614.97 1240.99,629.98 1241.00,639.00              1241.00,639.00 1241.00,1118.00 1241.00,1118.00              1241.00,1118.00 1147.00,1118.00 1147.00,1118.00              1147.00,1118.00 1147.00,653.00 1147.00,653.00              1146.99,645.53 1145.73,638.15 1143.56,631.00              1142.30,626.83 1140.25,622.58 1137.78,619.00              1130.55,608.50 1121.24,603.48 1109.00,601.00              1086.63,596.47 1066.38,601.90 1047.00,613.45              1040.19,617.51 1034.00,622.58 1028.00,627.73              1020.37,634.27 1014.87,640.33 1008.44,648.00              1006.19,650.68 1001.85,655.85 1000.72,659.00              999.87,661.40 1000.00,664.46 1000.00,667.00              1000.00,667.00 1000.00,1118.00 1000.00,1118.00              1000.00,1118.00 907.00,1118.00 907.00,1118.00              907.00,1118.00 907.00,523.00 907.00,523.00              907.00,523.00 1000.00,523.00 1000.00,523.00              1000.00,523.00 1000.00,575.00 1000.00,575.00 Z            M 2111.00,1007.00            C 2111.00,1007.00 2117.98,1031.00 2117.98,1031.00              2117.98,1031.00 2126.02,1058.00 2126.02,1058.00              2127.17,1061.73 2131.89,1074.80 2130.68,1077.83              2129.55,1080.65 2120.83,1086.34 2118.00,1088.26              2105.17,1096.93 2091.31,1104.10 2077.00,1109.99              2055.31,1118.91 2023.46,1125.96 2000.00,1126.00              2000.00,1126.00 1979.00,1126.00 1979.00,1126.00              1944.71,1125.95 1907.39,1112.91 1880.00,1092.52              1825.73,1052.13 1802.57,979.60 1794.85,915.00              1794.85,915.00 1792.00,889.00 1792.00,889.00              1792.00,889.00 1792.00,880.00 1792.00,880.00              1792.00,880.00 1791.00,868.00 1791.00,868.00              1791.00,868.00 1791.00,816.00 1791.00,816.00              1791.00,816.00 1792.00,794.00 1792.00,794.00              1792.00,794.00 1792.91,784.00 1792.91,784.00              1792.91,784.00 1797.72,735.00 1797.72,735.00              1805.45,676.23 1822.52,611.12 1861.44,565.00              1886.73,535.03 1925.60,516.06 1965.00,516.00              2009.21,515.93 2045.23,526.00 2075.83,560.00              2097.87,584.48 2111.46,619.37 2119.37,651.00              2126.71,680.33 2130.03,709.95 2132.09,740.00              2132.09,740.00 2133.04,751.00 2133.04,751.00              2133.04,751.00 2133.04,764.00 2133.04,764.00              2133.04,764.00 2134.00,776.00 2134.00,776.00              2134.00,776.00 2134.00,843.00 2134.00,843.00              2134.00,843.00 1887.00,843.00 1887.00,843.00              1887.00,843.00 1887.00,857.00 1887.00,857.00              1887.00,857.00 1888.00,877.00 1888.00,877.00              1888.00,877.00 1889.83,898.00 1889.83,898.00              1893.07,930.35 1899.07,961.70 1913.75,991.00              1928.86,1021.13 1956.82,1045.58 1992.00,1046.00              2021.55,1046.34 2046.21,1040.91 2073.00,1028.22              2081.28,1024.30 2089.24,1019.43 2097.00,1014.58              2101.90,1011.51 2105.29,1008.40 2111.00,1007.00 Z            M 2190.00,524.00            C 2190.00,524.00 2286.00,524.00 2286.00,524.00              2286.00,524.00 2295.66,552.00 2295.66,552.00              2295.66,552.00 2317.31,613.00 2317.31,613.00              2317.31,613.00 2344.31,689.00 2344.31,689.00              2344.31,689.00 2362.00,738.00 2362.00,738.00              2362.00,738.00 2382.58,682.00 2382.58,682.00              2382.58,682.00 2423.68,573.00 2423.68,573.00              2423.68,573.00 2436.19,540.00 2436.19,540.00              2436.19,540.00 2442.08,525.57 2442.08,525.57              2442.08,525.57 2450.00,524.00 2450.00,524.00              2450.00,524.00 2533.00,524.00 2533.00,524.00              2533.00,524.00 2521.80,553.00 2521.80,553.00              2521.80,553.00 2504.20,597.00 2504.20,597.00              2504.20,597.00 2454.40,722.00 2454.40,722.00              2454.40,722.00 2432.20,778.00 2432.20,778.00              2432.20,778.00 2425.80,794.00 2425.80,794.00              2425.80,794.00 2423.11,802.42 2423.11,802.42              2423.11,802.42 2433.00,829.00 2433.00,829.00              2433.00,829.00 2454.95,885.00 2454.95,885.00              2454.95,885.00 2518.81,1048.00 2518.81,1048.00              2518.81,1048.00 2546.00,1118.00 2546.00,1118.00              2546.00,1118.00 2449.00,1118.00 2449.00,1118.00              2449.00,1118.00 2435.42,1081.00 2435.42,1081.00              2435.42,1081.00 2408.42,1009.00 2408.42,1009.00              2408.42,1009.00 2375.42,921.00 2375.42,921.00              2375.42,921.00 2358.00,875.00 2358.00,875.00              2358.00,875.00 2331.05,949.00 2331.05,949.00              2331.05,949.00 2289.81,1062.00 2289.81,1062.00              2289.81,1062.00 2274.81,1103.00 2274.81,1103.00              2274.81,1103.00 2268.49,1116.98 2268.49,1116.98              2268.49,1116.98 2261.00,1118.00 2261.00,1118.00              2261.00,1118.00 2178.00,1118.00 2178.00,1118.00              2178.00,1118.00 2187.60,1092.00 2187.60,1092.00              2187.60,1092.00 2206.80,1044.00 2206.80,1044.00              2206.80,1044.00 2269.20,889.00 2269.20,889.00              2269.20,889.00 2291.40,834.00 2291.40,834.00              2291.40,834.00 2300.10,810.00 2300.10,810.00              2300.10,810.00 2291.40,786.00 2291.40,786.00              2291.40,786.00 2272.20,737.00 2272.20,737.00              2272.20,737.00 2216.80,595.00 2216.80,595.00              2216.80,595.00 2199.60,551.00 2199.60,551.00              2199.60,551.00 2190.00,524.00 2190.00,524.00 Z            M 1534.00,592.28            C 1524.80,593.64 1518.72,594.35 1510.00,598.31              1478.61,612.57 1460.04,649.84 1449.67,681.00              1438.12,715.66 1433.39,751.75 1430.91,788.00              1430.91,788.00 1430.00,800.00 1430.00,800.00              1430.00,800.00 1430.00,832.00 1430.00,832.00              1430.00,869.04 1431.31,906.55 1438.60,943.00              1446.09,980.45 1459.56,1030.07 1500.00,1043.92              1510.57,1047.55 1517.22,1047.02 1528.00,1047.00              1551.91,1046.96 1576.19,1037.00 1592.99,1020.00              1596.53,1016.41 1605.13,1006.61 1606.49,1002.00              1607.09,999.96 1607.00,997.14 1607.00,995.00              1607.00,995.00 1607.00,628.00 1607.00,628.00              1607.00,625.91 1607.11,622.93 1606.40,621.00              1604.67,616.30 1596.20,610.23 1592.00,607.35              1577.30,597.26 1565.34,594.57 1548.00,592.83              1541.72,592.20 1540.71,591.66 1534.00,592.28 Z            M 2039.00,766.00            C 2039.00,727.28 2036.31,671.87 2022.00,636.00              2012.46,612.09 1998.65,593.66 1971.00,592.09              1967.56,591.90 1965.33,592.40 1962.00,592.87              1938.13,596.22 1921.82,613.57 1912.58,635.00              1899.93,664.32 1894.24,696.34 1891.17,728.00              1891.17,728.00 1888.00,766.00 1888.00,766.00              1888.00,766.00 2039.00,766.00 2039.00,766.00 Z            M 703.00,809.00            C 674.04,809.00 645.61,809.00 618.00,819.42              608.71,822.93 598.91,827.89 591.00,833.90              567.03,852.13 555.35,886.62 555.00,916.00              555.00,916.00 554.04,935.00 554.04,935.00              554.04,935.00 555.00,946.00 555.00,946.00              555.38,979.11 564.42,1028.42 599.00,1042.55              610.33,1047.18 616.14,1047.14 628.00,1047.00              649.60,1046.74 674.04,1032.85 689.00,1018.00              697.19,1009.86 702.98,1004.93 703.00,993.00              703.00,993.00 703.00,923.00 703.00,923.00              703.00,923.00 703.00,809.00 703.00,809.00 Z" />
</svg>