<svg xmlns="http://www.w3.org/2000/svg" viewBox="6.5 188.5 514 930">
  <path id="Selection" fill="#303030" stroke="none" stroke-width="1" d="M 426.00,189.00            C 426.00,189.00 520.00,189.00 520.00,189.00              520.00,189.00 505.00,234.00 505.00,234.00              505.00,234.00 470.00,335.00 470.00,335.00              470.00,335.00 387.66,573.00 387.66,573.00              387.66,573.00 354.33,669.00 354.33,669.00              354.33,669.00 317.66,775.00 317.66,775.00              317.66,775.00 308.31,802.00 308.31,802.00              304.85,811.72 302.02,816.33 302.00,827.00              302.00,827.00 302.00,1118.00 302.00,1118.00              302.00,1118.00 207.87,1118.00 207.87,1118.00              207.87,1118.00 207.87,825.00 207.87,825.00              207.87,825.00 207.87,818.00 207.87,818.00              207.87,818.00 193.05,778.00 193.05,778.00              193.05,778.00 158.05,684.00 158.05,684.00              158.05,684.00 86.58,492.00 86.58,492.00              86.58,492.00 52.31,400.00 52.31,400.00              52.31,400.00 20.95,316.00 20.95,316.00              20.95,316.00 7.00,276.00 7.00,276.00              7.00,276.00 101.00,276.00 101.00,276.00              101.00,276.00 108.30,276.99 108.30,276.99              108.30,276.99 111.42,283.00 111.42,283.00              111.42,283.00 117.19,299.00 117.19,299.00              117.19,299.00 143.42,373.00 143.42,373.00              143.42,373.00 163.69,430.00 163.69,430.00              163.69,430.00 223.95,599.00 223.95,599.00              223.95,599.00 246.31,662.00 246.31,662.00              246.31,662.00 257.00,691.00 257.00,691.00              257.00,691.00 270.00,650.00 270.00,650.00              270.00,650.00 298.33,567.00 298.33,567.00              298.33,567.00 358.66,389.00 358.66,389.00              358.66,389.00 375.69,338.00 375.69,338.00              375.69,338.00 409.33,239.00 409.33,239.00              409.33,239.00 426.00,189.00 426.00,189.00 Z"/>
</svg>