<svg xmlns="http://www.w3.org/2000/svg" viewBox="633.46 156.53 646.96 377.31">
  <path id="yarn-text" fill="#303030" stroke="none" stroke-width="1"
    d="M 758.00,354.00            C 767.60,343.54 776.88,329.71 783.25,317.00              785.15,313.21 788.57,306.93 789.47,303.00              790.19,299.88 789.97,296.22 790.00,293.00              790.00,293.00 790.91,283.00 790.91,283.00              794.11,239.20 817.83,199.14 860.00,182.81              869.10,179.29 883.26,176.24 893.00,176.01              905.96,175.72 916.68,180.43 916.98,195.00              917.03,197.40 917.07,200.75 915.83,202.85              913.88,206.14 910.38,206.13 907.00,205.83              897.04,204.95 894.16,204.42 884.00,206.90              865.97,211.30 850.63,223.55 840.70,239.00              829.95,255.71 826.20,275.48 825.09,295.00              824.63,303.16 827.27,316.50 832.39,323.00              834.35,325.50 837.29,328.33 840.00,330.01              853.64,338.46 869.23,325.24 873.20,312.00              874.10,309.00 874.00,306.09 874.00,303.00              874.00,303.00 873.17,231.00 873.17,231.00              872.46,221.70 879.18,219.72 887.00,220.04              900.50,220.58 908.93,228.42 909.00,242.00              909.00,242.00 909.00,309.00 909.00,309.00              909.01,312.72 908.93,315.33 909.93,319.00              912.25,327.57 919.42,335.95 929.00,331.59              930.96,330.69 933.31,329.11 934.91,327.67              943.41,320.05 948.82,303.01 951.35,292.00              957.15,266.72 960.05,240.92 960.00,215.00              959.98,202.91 957.23,207.59 948.21,197.00              944.28,192.38 941.85,186.04 941.33,180.00              939.96,164.24 954.62,154.87 969.00,157.46              981.48,159.71 990.04,168.49 992.00,181.00              992.00,181.00 1008.00,182.00 1008.00,182.00              1008.00,182.00 1032.00,182.00 1032.00,182.00              1034.65,182.00 1037.43,181.89 1040.00,182.64              1049.28,185.31 1059.58,196.09 1059.96,206.00              1060.24,213.41 1053.52,232.54 1051.37,241.00              1045.71,263.37 1041.82,282.93 1040.18,306.00              1039.31,318.28 1046.76,336.54 1062.00,332.21              1070.74,329.73 1077.10,320.91 1080.69,313.00              1085.26,302.95 1090.98,281.92 1091.00,271.00              1091.00,271.00 1091.00,207.00 1091.00,207.00              1090.99,201.97 1088.42,189.12 1090.03,186.04              1094.81,176.85 1115.82,180.51 1122.30,190.02              1127.36,197.43 1123.52,209.26 1126.00,218.00              1129.81,204.93 1145.55,185.63 1158.00,179.90              1175.36,171.91 1197.28,175.94 1206.39,194.00              1213.24,207.57 1212.00,223.28 1212.00,238.00              1212.00,238.00 1212.00,312.00 1212.00,312.00              1212.02,323.21 1216.69,339.19 1231.00,330.03              1233.20,328.63 1235.07,326.92 1236.82,324.98              1246.81,313.91 1249.82,297.94 1253.48,284.00              1254.82,278.90 1257.11,273.14 1263.00,272.24              1273.91,270.58 1280.81,283.75 1279.83,293.00              1278.09,309.42 1263.79,336.57 1252.00,347.96              1232.73,366.57 1196.48,371.56 1182.37,344.00              1178.66,336.74 1177.04,328.11 1177.00,320.00              1177.00,320.00 1177.00,226.00 1177.00,226.00              1176.99,220.27 1176.07,207.08 1168.00,206.99              1164.72,206.95 1159.42,211.17 1157.04,213.30              1149.26,220.26 1139.16,236.28 1134.86,246.00              1123.98,270.62 1125.00,283.27 1125.00,309.00              1125.00,309.00 1125.00,347.00 1125.00,347.00              1124.99,351.37 1125.19,356.07 1122.15,359.48              1117.25,365.31 1103.53,363.33 1098.02,359.48              1092.10,355.09 1092.08,351.24 1090.00,345.00              1077.99,365.55 1041.00,368.35 1023.00,354.47              1010.90,345.15 1006.02,330.85 1006.00,316.00              1005.96,287.63 1009.51,271.07 1017.42,244.00              1017.42,244.00 1027.00,215.00 1027.00,215.00              1027.00,215.00 990.00,215.00 990.00,215.00              990.00,241.06 985.69,275.09 978.02,300.00              973.68,314.13 968.16,328.04 959.24,340.00              946.87,356.59 933.36,363.24 913.00,363.00              905.89,362.91 900.18,361.19 894.00,357.66              887.67,354.06 885.62,351.30 881.00,346.00              867.54,363.93 838.21,367.99 819.00,357.68              812.38,354.12 806.50,347.94 802.00,342.00              798.27,353.73 781.78,371.22 773.00,380.00              770.20,382.80 759.67,392.26 758.60,395.04              757.88,396.89 758.00,399.98 758.00,402.00              758.00,402.00 758.00,472.00 758.00,472.00              757.98,486.49 754.79,504.03 746.21,516.00              732.16,535.63 701.94,539.54 684.04,522.83              673.38,512.88 667.48,494.40 668.04,480.00              668.95,456.51 677.37,434.55 693.17,417.00              693.17,417.00 711.00,399.04 711.00,399.04              718.92,391.47 722.98,391.63 723.00,380.00              723.00,380.00 723.00,353.00 723.00,353.00              723.00,347.35 723.55,341.47 722.00,336.00              707.13,366.31 664.70,375.71 644.87,345.00              634.05,328.25 633.78,308.20 634.00,289.00              634.00,289.00 634.91,279.00 634.91,279.00              636.25,259.86 639.11,240.73 643.35,222.00              643.35,222.00 648.88,199.00 648.88,199.00              650.07,194.53 651.31,189.50 655.11,186.51              659.70,182.88 667.42,182.94 673.00,183.00              679.56,183.08 686.36,184.81 685.66,193.00              685.30,197.13 682.47,202.95 681.08,207.00              681.08,207.00 675.42,229.00 675.42,229.00              668.71,259.42 667.64,272.02 668.00,303.00              668.15,315.19 673.57,334.22 689.00,332.89              701.41,331.83 710.71,314.32 714.80,304.00              719.18,292.93 722.98,280.98 723.00,269.00              723.00,269.00 723.00,204.00 723.00,204.00              722.99,198.91 720.69,187.93 723.60,184.28              726.27,180.92 731.12,181.00 735.00,181.00              750.40,181.00 757.98,188.80 758.00,204.00              758.00,204.00 758.00,354.00 758.00,354.00 Z            M 723.00,425.00            C 709.20,435.37 702.60,455.47 700.84,472.00              700.36,476.48 699.71,478.16 700.17,483.00              700.80,489.74 702.72,504.49 712.00,504.13              721.65,503.76 722.99,489.13 723.00,482.00              723.00,482.00 723.00,425.00 723.00,425.00 Z" />
</svg>