<svg xmlns="http://www.w3.org/2000/svg" viewBox="-0.5 -0.29 576 574.79">
  <path id="yarn" fill="#303030" stroke="none" stroke-width="1"
    d="M 263.00,0.21            C 263.00,0.21 303.00,0.21 303.00,0.21              331.72,0.04 369.37,9.95 396.00,20.60              426.41,32.77 454.44,50.67 479.00,72.28              524.51,112.34 558.14,171.36 569.39,231.00              571.04,239.75 573.96,259.54 574.00,268.00              574.00,268.00 575.00,290.00 575.00,290.00              575.00,290.00 574.00,307.00 574.00,307.00              573.85,319.55 569.49,343.53 566.37,356.00              555.73,398.57 536.14,438.40 507.73,472.00              487.24,496.22 461.49,518.61 434.00,534.58              399.88,554.39 363.25,567.46 324.00,572.15              324.00,572.15 303.00,574.00 303.00,574.00              303.00,574.00 269.00,574.00 269.00,574.00              251.25,573.79 223.24,567.97 206.00,563.00              127.82,540.46 60.33,483.10 26.31,409.00              12.68,379.31 3.52,346.60 0.92,314.00              0.92,314.00 0.00,302.00 0.00,302.00              0.00,302.00 0.00,272.00 0.00,272.00              0.03,255.82 4.65,230.90 8.63,215.00              28.11,137.07 80.49,71.44 151.00,33.31              179.81,17.72 212.63,7.23 245.00,2.43              245.00,2.43 263.00,0.21 263.00,0.21 Z            M 375.00,377.00            C 375.00,353.30 373.57,337.78 362.75,316.00              358.46,307.36 355.75,302.73 349.87,295.00              348.02,292.57 343.52,287.98 343.68,285.00              343.81,282.62 351.45,271.03 353.14,268.00              358.86,257.74 363.10,246.28 366.29,235.00              372.21,214.11 372.93,180.11 367.87,159.00              366.07,151.49 363.59,141.03 358.61,135.04              355.42,131.20 350.95,128.78 346.00,128.18              341.68,127.66 338.33,129.16 335.63,126.60              332.24,123.37 327.37,106.77 316.99,100.90              300.08,91.35 285.47,105.31 277.20,119.00              274.45,123.55 271.63,132.12 266.96,133.97              263.34,135.41 255.32,135.32 244.00,140.01              234.76,143.84 227.46,148.47 220.00,155.17              220.00,155.17 213.00,161.61 213.00,161.61              207.75,165.68 201.97,166.01 196.02,171.21              188.86,177.46 182.66,192.59 181.15,202.00              181.15,202.00 181.15,213.00 181.15,213.00              181.10,221.23 183.52,228.45 186.60,236.00              187.84,239.02 191.01,243.59 189.27,246.58              189.27,246.58 177.16,260.00 177.16,260.00              170.80,267.32 164.25,277.06 160.43,286.00              155.88,296.63 152.70,308.52 151.29,320.00              151.29,320.00 149.42,340.00 149.42,340.00              148.35,343.10 142.07,350.33 139.70,354.00              133.53,363.55 129.14,374.52 129.00,386.00              128.86,398.43 130.73,409.60 135.86,421.00              135.86,421.00 142.11,432.00 142.11,432.00              144.00,435.98 143.09,442.16 145.48,448.00              149.93,458.84 161.51,463.63 172.00,466.57              178.78,468.48 187.03,469.50 194.00,468.41              194.00,468.41 208.42,465.51 208.42,465.51              210.78,466.07 213.47,469.40 220.00,471.93              229.94,475.79 238.56,476.12 249.00,476.00              249.00,476.00 259.00,475.00 259.00,475.00              259.00,475.00 268.00,475.00 268.00,475.00              268.00,475.00 289.00,473.09 289.00,473.09              301.42,472.22 318.13,471.11 330.00,467.84              337.57,465.76 341.95,461.72 349.00,458.96              376.58,448.17 390.08,443.57 416.00,427.42              425.70,421.38 435.24,415.11 446.00,411.06              459.82,405.87 472.32,406.34 480.00,391.00              489.13,372.78 477.86,349.37 452.00,347.17              448.41,346.87 445.52,347.56 442.00,347.95              412.81,351.23 399.15,365.38 375.00,377.00 Z            M 215.00,248.00            C 210.11,243.92 207.60,239.60 204.76,234.00              197.51,219.71 195.47,209.17 201.60,194.00              202.60,191.54 203.97,188.17 205.64,186.13              208.93,182.09 217.28,179.74 222.00,176.37              222.00,176.37 229.00,170.17 229.00,170.17              236.21,163.72 242.10,159.68 251.00,155.87              256.86,153.37 263.68,152.06 270.00,151.29              272.56,150.97 277.99,151.19 279.87,150.40              283.06,149.05 284.03,144.96 285.28,142.00              288.26,135.00 292.92,124.52 298.30,119.16              302.82,114.74 307.50,113.66 311.64,119.16              313.09,121.02 314.63,123.84 315.74,126.00              315.74,126.00 321.25,137.00 321.25,137.00              323.70,141.90 326.49,146.72 328.00,152.00              331.14,149.98 340.07,144.71 343.79,145.78              346.96,146.70 348.43,152.18 349.28,155.00              351.94,163.82 353.99,176.81 354.00,186.00              354.00,186.00 354.00,202.00 354.00,202.00              353.97,219.41 347.50,242.78 339.14,258.00              339.14,258.00 326.00,279.00 326.00,279.00              324.53,281.20 321.27,285.30 321.72,288.00              322.24,291.09 329.53,297.43 331.91,300.00              337.34,305.86 343.74,315.76 347.22,323.00              354.78,338.74 358.03,353.61 358.00,371.00              358.00,371.00 355.00,400.00 355.00,400.00              383.25,399.74 406.19,373.47 435.00,366.65              445.02,364.28 463.74,361.63 465.63,376.00              466.25,380.69 463.88,385.57 459.96,388.16              456.97,390.13 447.17,392.41 443.00,393.86              432.62,397.46 427.34,400.38 418.00,406.00              401.29,416.05 392.40,422.24 374.00,430.69              374.00,430.69 340.00,443.71 340.00,443.71              333.71,446.16 332.32,449.13 325.00,451.25              312.25,454.94 296.26,454.90 283.00,456.17              283.00,456.17 242.00,458.91 242.00,458.91              235.92,458.56 225.77,457.06 221.39,452.61              219.26,450.45 218.42,447.90 217.82,445.00              215.97,436.02 220.58,428.31 229.00,425.00              229.00,425.00 229.00,423.00 229.00,423.00              229.00,423.00 218.00,414.00 218.00,414.00              215.40,425.53 212.36,443.29 201.00,448.82              192.65,453.20 180.54,451.53 172.00,448.82              167.92,447.27 163.24,445.33 161.60,440.98              159.37,435.09 163.38,428.96 166.00,424.00              162.99,424.27 160.85,424.53 158.09,422.90              150.17,418.21 146.38,398.73 146.04,390.00              145.62,379.10 149.98,368.55 156.50,360.00              158.93,356.81 166.38,348.93 167.42,346.00              168.37,343.12 167.08,340.33 167.42,336.00              168.49,324.33 167.99,321.20 170.88,309.00              177.77,280.01 193.48,266.66 215.00,248.00 Z" />
</svg>