<svg xmlns="http://www.w3.org/2000/svg" viewBox="-0.5 -0.29 1280.92 574.79">
  <path id="yarn-wordmark" fill="#303030" stroke="none" stroke-width="1"
    d="M 263.00,0.21            C 263.00,0.21 303.00,0.21 303.00,0.21              331.72,0.04 369.37,9.95 396.00,20.60              426.41,32.77 454.44,50.67 479.00,72.28              524.51,112.34 558.14,171.36 569.39,231.00              571.04,239.75 573.96,259.54 574.00,268.00              574.00,268.00 575.00,290.00 575.00,290.00              575.00,290.00 574.00,307.00 574.00,307.00              573.85,319.55 569.49,343.53 566.37,356.00              555.73,398.57 536.14,438.40 507.73,472.00              487.24,496.22 461.49,518.61 434.00,534.58              399.88,554.39 363.25,567.46 324.00,572.15              324.00,572.15 303.00,574.00 303.00,574.00              303.00,574.00 269.00,574.00 269.00,574.00              251.25,573.79 223.24,567.97 206.00,563.00              127.82,540.46 60.33,483.10 26.31,409.00              12.68,379.31 3.52,346.60 0.92,314.00              0.92,314.00 0.00,302.00 0.00,302.00              0.00,302.00 0.00,272.00 0.00,272.00              0.03,255.82 4.65,230.90 8.63,215.00              28.11,137.07 80.49,71.44 151.00,33.31              179.81,17.72 212.63,7.23 245.00,2.43              245.00,2.43 263.00,0.21 263.00,0.21 Z            M 375.00,377.00            C 375.00,353.30 373.57,337.78 362.75,316.00              358.46,307.36 355.75,302.73 349.87,295.00              348.02,292.57 343.52,287.98 343.68,285.00              343.81,282.62 351.45,271.03 353.14,268.00              358.86,257.74 363.10,246.28 366.29,235.00              372.21,214.11 372.93,180.11 367.87,159.00              366.07,151.49 363.59,141.03 358.61,135.04              355.42,131.20 350.95,128.78 346.00,128.18              341.68,127.66 338.33,129.16 335.63,126.60              332.24,123.37 327.37,106.77 316.99,100.90              300.08,91.35 285.47,105.31 277.20,119.00              274.45,123.55 271.63,132.12 266.96,133.97              263.34,135.41 255.32,135.32 244.00,140.01              234.76,143.84 227.46,148.47 220.00,155.17              220.00,155.17 213.00,161.61 213.00,161.61              207.75,165.68 201.97,166.01 196.02,171.21              188.86,177.46 182.66,192.59 181.15,202.00              181.15,202.00 181.15,213.00 181.15,213.00              181.10,221.23 183.52,228.45 186.60,236.00              187.84,239.02 191.01,243.59 189.27,246.58              189.27,246.58 177.16,260.00 177.16,260.00              170.80,267.32 164.25,277.06 160.43,286.00              155.88,296.63 152.70,308.52 151.29,320.00              151.29,320.00 149.42,340.00 149.42,340.00              148.35,343.10 142.07,350.33 139.70,354.00              133.53,363.55 129.14,374.52 129.00,386.00              128.86,398.43 130.73,409.60 135.86,421.00              135.86,421.00 142.11,432.00 142.11,432.00              144.00,435.98 143.09,442.16 145.48,448.00              149.93,458.84 161.51,463.63 172.00,466.57              178.78,468.48 187.03,469.50 194.00,468.41              194.00,468.41 208.42,465.51 208.42,465.51              210.78,466.07 213.47,469.40 220.00,471.93              229.94,475.79 238.56,476.12 249.00,476.00              249.00,476.00 259.00,475.00 259.00,475.00              259.00,475.00 268.00,475.00 268.00,475.00              268.00,475.00 289.00,473.09 289.00,473.09              301.42,472.22 318.13,471.11 330.00,467.84              337.57,465.76 341.95,461.72 349.00,458.96              376.58,448.17 390.08,443.57 416.00,427.42              425.70,421.38 435.24,415.11 446.00,411.06              459.82,405.87 472.32,406.34 480.00,391.00              489.13,372.78 477.86,349.37 452.00,347.17              448.41,346.87 445.52,347.56 442.00,347.95              412.81,351.23 399.15,365.38 375.00,377.00 Z            M 215.00,248.00            C 210.11,243.92 207.60,239.60 204.76,234.00              197.51,219.71 195.47,209.17 201.60,194.00              202.60,191.54 203.97,188.17 205.64,186.13              208.93,182.09 217.28,179.74 222.00,176.37              222.00,176.37 229.00,170.17 229.00,170.17              236.21,163.72 242.10,159.68 251.00,155.87              256.86,153.37 263.68,152.06 270.00,151.29              272.56,150.97 277.99,151.19 279.87,150.40              283.06,149.05 284.03,144.96 285.28,142.00              288.26,135.00 292.92,124.52 298.30,119.16              302.82,114.74 307.50,113.66 311.64,119.16              313.09,121.02 314.63,123.84 315.74,126.00              315.74,126.00 321.25,137.00 321.25,137.00              323.70,141.90 326.49,146.72 328.00,152.00              331.14,149.98 340.07,144.71 343.79,145.78              346.96,146.70 348.43,152.18 349.28,155.00              351.94,163.82 353.99,176.81 354.00,186.00              354.00,186.00 354.00,202.00 354.00,202.00              353.97,219.41 347.50,242.78 339.14,258.00              339.14,258.00 326.00,279.00 326.00,279.00              324.53,281.20 321.27,285.30 321.72,288.00              322.24,291.09 329.53,297.43 331.91,300.00              337.34,305.86 343.74,315.76 347.22,323.00              354.78,338.74 358.03,353.61 358.00,371.00              358.00,371.00 355.00,400.00 355.00,400.00              383.25,399.74 406.19,373.47 435.00,366.65              445.02,364.28 463.74,361.63 465.63,376.00              466.25,380.69 463.88,385.57 459.96,388.16              456.97,390.13 447.17,392.41 443.00,393.86              432.62,397.46 427.34,400.38 418.00,406.00              401.29,416.05 392.40,422.24 374.00,430.69              374.00,430.69 340.00,443.71 340.00,443.71              333.71,446.16 332.32,449.13 325.00,451.25              312.25,454.94 296.26,454.90 283.00,456.17              283.00,456.17 242.00,458.91 242.00,458.91              235.92,458.56 225.77,457.06 221.39,452.61              219.26,450.45 218.42,447.90 217.82,445.00              215.97,436.02 220.58,428.31 229.00,425.00              229.00,425.00 229.00,423.00 229.00,423.00              229.00,423.00 218.00,414.00 218.00,414.00              215.40,425.53 212.36,443.29 201.00,448.82              192.65,453.20 180.54,451.53 172.00,448.82              167.92,447.27 163.24,445.33 161.60,440.98              159.37,435.09 163.38,428.96 166.00,424.00              162.99,424.27 160.85,424.53 158.09,422.90              150.17,418.21 146.38,398.73 146.04,390.00              145.62,379.10 149.98,368.55 156.50,360.00              158.93,356.81 166.38,348.93 167.42,346.00              168.37,343.12 167.08,340.33 167.42,336.00              168.49,324.33 167.99,321.20 170.88,309.00              177.77,280.01 193.48,266.66 215.00,248.00 Z            M 758.00,354.00            C 767.60,343.54 776.88,329.71 783.25,317.00              785.15,313.21 788.57,306.93 789.47,303.00              790.19,299.88 789.97,296.22 790.00,293.00              790.00,293.00 790.91,283.00 790.91,283.00              794.11,239.20 817.83,199.14 860.00,182.81              869.10,179.29 883.26,176.24 893.00,176.01              905.96,175.72 916.68,180.43 916.98,195.00              917.03,197.40 917.07,200.75 915.83,202.85              913.88,206.14 910.38,206.13 907.00,205.83              897.04,204.95 894.16,204.42 884.00,206.90              865.97,211.30 850.63,223.55 840.70,239.00              829.95,255.71 826.20,275.48 825.09,295.00              824.63,303.16 827.27,316.50 832.39,323.00              834.35,325.50 837.29,328.33 840.00,330.01              853.64,338.46 869.23,325.24 873.20,312.00              874.10,309.00 874.00,306.09 874.00,303.00              874.00,303.00 873.17,231.00 873.17,231.00              872.46,221.70 879.18,219.72 887.00,220.04              900.50,220.58 908.93,228.42 909.00,242.00              909.00,242.00 909.00,309.00 909.00,309.00              909.01,312.72 908.93,315.33 909.93,319.00              912.25,327.57 919.42,335.95 929.00,331.59              930.96,330.69 933.31,329.11 934.91,327.67              943.41,320.05 948.82,303.01 951.35,292.00              957.15,266.72 960.05,240.92 960.00,215.00              959.98,202.91 957.23,207.59 948.21,197.00              944.28,192.38 941.85,186.04 941.33,180.00              939.96,164.24 954.62,154.87 969.00,157.46              981.48,159.71 990.04,168.49 992.00,181.00              992.00,181.00 1008.00,182.00 1008.00,182.00              1008.00,182.00 1032.00,182.00 1032.00,182.00              1034.65,182.00 1037.43,181.89 1040.00,182.64              1049.28,185.31 1059.58,196.09 1059.96,206.00              1060.24,213.41 1053.52,232.54 1051.37,241.00              1045.71,263.37 1041.82,282.93 1040.18,306.00              1039.31,318.28 1046.76,336.54 1062.00,332.21              1070.74,329.73 1077.10,320.91 1080.69,313.00              1085.26,302.95 1090.98,281.92 1091.00,271.00              1091.00,271.00 1091.00,207.00 1091.00,207.00              1090.99,201.97 1088.42,189.12 1090.03,186.04              1094.81,176.85 1115.82,180.51 1122.30,190.02              1127.36,197.43 1123.52,209.26 1126.00,218.00              1129.81,204.93 1145.55,185.63 1158.00,179.90              1175.36,171.91 1197.28,175.94 1206.39,194.00              1213.24,207.57 1212.00,223.28 1212.00,238.00              1212.00,238.00 1212.00,312.00 1212.00,312.00              1212.02,323.21 1216.69,339.19 1231.00,330.03              1233.20,328.63 1235.07,326.92 1236.82,324.98              1246.81,313.91 1249.82,297.94 1253.48,284.00              1254.82,278.90 1257.11,273.14 1263.00,272.24              1273.91,270.58 1280.81,283.75 1279.83,293.00              1278.09,309.42 1263.79,336.57 1252.00,347.96              1232.73,366.57 1196.48,371.56 1182.37,344.00              1178.66,336.74 1177.04,328.11 1177.00,320.00              1177.00,320.00 1177.00,226.00 1177.00,226.00              1176.99,220.27 1176.07,207.08 1168.00,206.99              1164.72,206.95 1159.42,211.17 1157.04,213.30              1149.26,220.26 1139.16,236.28 1134.86,246.00              1123.98,270.62 1125.00,283.27 1125.00,309.00              1125.00,309.00 1125.00,347.00 1125.00,347.00              1124.99,351.37 1125.19,356.07 1122.15,359.48              1117.25,365.31 1103.53,363.33 1098.02,359.48              1092.10,355.09 1092.08,351.24 1090.00,345.00              1077.99,365.55 1041.00,368.35 1023.00,354.47              1010.90,345.15 1006.02,330.85 1006.00,316.00              1005.96,287.63 1009.51,271.07 1017.42,244.00              1017.42,244.00 1027.00,215.00 1027.00,215.00              1027.00,215.00 990.00,215.00 990.00,215.00              990.00,241.06 985.69,275.09 978.02,300.00              973.68,314.13 968.16,328.04 959.24,340.00              946.87,356.59 933.36,363.24 913.00,363.00              905.89,362.91 900.18,361.19 894.00,357.66              887.67,354.06 885.62,351.30 881.00,346.00              867.54,363.93 838.21,367.99 819.00,357.68              812.38,354.12 806.50,347.94 802.00,342.00              798.27,353.73 781.78,371.22 773.00,380.00              770.20,382.80 759.67,392.26 758.60,395.04              757.88,396.89 758.00,399.98 758.00,402.00              758.00,402.00 758.00,472.00 758.00,472.00              757.98,486.49 754.79,504.03 746.21,516.00              732.16,535.63 701.94,539.54 684.04,522.83              673.38,512.88 667.48,494.40 668.04,480.00              668.95,456.51 677.37,434.55 693.17,417.00              693.17,417.00 711.00,399.04 711.00,399.04              718.92,391.47 722.98,391.63 723.00,380.00              723.00,380.00 723.00,353.00 723.00,353.00              723.00,347.35 723.55,341.47 722.00,336.00              707.13,366.31 664.70,375.71 644.87,345.00              634.05,328.25 633.78,308.20 634.00,289.00              634.00,289.00 634.91,279.00 634.91,279.00              636.25,259.86 639.11,240.73 643.35,222.00              643.35,222.00 648.88,199.00 648.88,199.00              650.07,194.53 651.31,189.50 655.11,186.51              659.70,182.88 667.42,182.94 673.00,183.00              679.56,183.08 686.36,184.81 685.66,193.00              685.30,197.13 682.47,202.95 681.08,207.00              681.08,207.00 675.42,229.00 675.42,229.00              668.71,259.42 667.64,272.02 668.00,303.00              668.15,315.19 673.57,334.22 689.00,332.89              701.41,331.83 710.71,314.32 714.80,304.00              719.18,292.93 722.98,280.98 723.00,269.00              723.00,269.00 723.00,204.00 723.00,204.00              722.99,198.91 720.69,187.93 723.60,184.28              726.27,180.92 731.12,181.00 735.00,181.00              750.40,181.00 757.98,188.80 758.00,204.00              758.00,204.00 758.00,354.00 758.00,354.00 Z            M 723.00,425.00            C 709.20,435.37 702.60,455.47 700.84,472.00              700.36,476.48 699.71,478.16 700.17,483.00              700.80,489.74 702.72,504.49 712.00,504.13              721.65,503.76 722.99,489.13 723.00,482.00              723.00,482.00 723.00,425.00 723.00,425.00 Z" />
</svg>