<svg xmlns="http://www.w3.org/2000/svg" viewBox="-0.5 -0.39 2561.37 570.89">
  <path id="youtube-wordmark" fill="#303030" stroke="none" stroke-width="1"
    d="M 320.00,0.11            C 320.00,0.11 348.00,0.11 348.00,0.11              348.00,0.11 399.00,0.11 399.00,0.11              399.00,0.11 490.00,0.11 490.00,0.11              490.00,0.11 504.00,1.00 504.00,1.00              504.00,1.00 530.00,1.00 530.00,1.00              530.00,1.00 547.00,2.00 547.00,2.00              547.00,2.00 587.00,3.00 587.00,3.00              587.00,3.00 606.00,4.00 606.00,4.00              606.00,4.00 623.00,5.00 623.00,5.00              623.00,5.00 664.00,7.91 664.00,7.91              702.90,10.58 744.99,13.45 773.96,43.01              803.36,73.02 805.57,113.69 810.28,153.00              810.28,153.00 814.04,202.00 814.04,202.00              814.04,202.00 815.00,215.00 815.00,215.00              815.00,215.00 816.00,235.00 816.00,235.00              816.00,235.00 816.00,251.00 816.00,251.00              816.00,251.00 817.00,268.00 817.00,268.00              817.08,318.82 815.22,369.47 810.17,420.00              810.17,420.00 803.80,465.00 803.80,465.00              798.09,493.54 791.49,512.59 769.00,532.83              744.88,554.54 719.61,557.51 689.00,561.28              689.00,561.28 629.00,566.04 629.00,566.04              629.00,566.04 618.00,567.00 618.00,567.00              618.00,567.00 596.00,568.00 596.00,568.00              596.00,568.00 563.00,569.00 563.00,569.00              563.00,569.00 546.00,570.00 546.00,570.00              546.00,570.00 367.00,570.00 367.00,570.00              367.00,570.00 268.00,570.00 268.00,570.00              268.00,570.00 253.00,569.00 253.00,569.00              253.00,569.00 241.00,569.00 241.00,569.00              241.00,569.00 228.00,568.00 228.00,568.00              228.00,568.00 199.00,567.00 199.00,567.00              199.00,567.00 189.00,566.00 189.00,566.00              189.00,566.00 180.00,566.00 180.00,566.00              180.00,566.00 148.00,563.17 148.00,563.17              113.78,559.89 81.86,559.00 53.00,537.52              15.69,509.76 11.94,467.44 6.72,425.00              6.72,425.00 2.91,380.00 2.91,380.00              2.91,380.00 2.00,370.00 2.00,370.00              2.00,370.00 1.00,341.00 1.00,341.00              1.00,341.00 0.00,326.00 0.00,326.00              0.00,326.00 0.00,244.00 0.00,244.00              0.00,244.00 1.00,229.00 1.00,229.00              1.00,229.00 5.92,154.00 5.92,154.00              5.92,154.00 11.58,112.00 11.58,112.00              17.63,78.44 25.52,55.01 54.00,33.24              79.15,14.01 110.70,11.86 141.00,8.83              141.00,8.83 180.00,5.91 180.00,5.91              180.00,5.91 190.00,5.00 190.00,5.00              190.00,5.00 215.00,4.00 215.00,4.00              215.00,4.00 229.00,3.00 229.00,3.00              229.00,3.00 269.00,2.00 269.00,2.00              269.00,2.00 284.00,1.00 284.00,1.00              284.00,1.00 320.00,0.11 320.00,0.11 Z            M 2085.00,22.00            C 2085.00,22.00 2163.00,22.00 2163.00,22.00              2163.00,22.00 2163.00,150.00 2163.00,150.00              2163.00,150.00 2163.00,189.00 2163.00,189.00              2163.00,189.00 2164.00,210.00 2164.00,210.00              2167.20,199.87 2176.89,189.67 2185.00,183.09              2194.25,175.60 2204.47,170.18 2216.00,167.16              2236.43,161.80 2263.73,165.36 2279.91,179.62              2286.93,185.80 2292.38,195.49 2296.14,204.00              2310.82,237.21 2311.00,289.72 2311.00,326.00              2311.00,374.63 2314.20,434.82 2299.26,481.00              2294.10,496.92 2286.20,512.02 2272.99,522.71              2251.63,539.99 2216.85,539.63 2193.00,527.73              2186.24,524.36 2177.52,518.44 2172.43,512.91              2172.43,512.91 2160.00,497.00 2160.00,497.00              2160.00,497.00 2154.87,521.00 2154.87,521.00              2154.87,521.00 2151.44,529.98 2151.44,529.98              2151.44,529.98 2144.00,531.00 2144.00,531.00              2144.00,531.00 2085.00,531.00 2085.00,531.00              2085.00,531.00 2085.00,22.00 2085.00,22.00 Z            M 897.00,40.00            C 897.00,40.00 978.00,40.00 978.00,40.00              978.00,40.00 981.79,59.00 981.79,59.00              981.79,59.00 988.79,92.00 988.79,92.00              988.79,92.00 1012.79,204.00 1012.79,204.00              1012.79,204.00 1022.92,255.00 1022.92,255.00              1022.92,255.00 1029.00,285.00 1029.00,285.00              1029.00,285.00 1042.00,215.00 1042.00,215.00              1042.00,215.00 1064.21,113.00 1064.21,113.00              1064.21,113.00 1074.42,67.00 1074.42,67.00              1074.42,67.00 1080.00,40.00 1080.00,40.00              1080.00,40.00 1161.00,40.00 1161.00,40.00              1160.40,47.15 1155.32,63.31 1153.14,71.00              1153.14,71.00 1137.42,127.00 1137.42,127.00              1137.42,127.00 1089.85,297.00 1089.85,297.00              1089.85,297.00 1074.63,351.00 1074.63,351.00              1072.02,361.05 1069.02,367.41 1069.00,378.00              1069.00,378.00 1069.00,531.00 1069.00,531.00              1069.00,531.00 988.00,531.00 988.00,531.00              988.00,531.00 988.00,378.00 988.00,378.00              987.98,367.70 984.16,357.85 981.42,348.00              981.42,348.00 967.88,299.00 967.88,299.00              967.88,299.00 917.85,118.00 917.85,118.00              917.85,118.00 904.58,70.00 904.58,70.00              902.44,62.33 897.60,47.18 897.00,40.00 Z            M 1603.00,40.00            C 1603.00,40.00 1843.00,40.00 1843.00,40.00              1843.00,40.00 1843.00,106.00 1843.00,106.00              1843.00,106.00 1763.00,106.00 1763.00,106.00              1763.00,106.00 1763.00,531.00 1763.00,531.00              1763.00,531.00 1683.00,531.00 1683.00,531.00              1683.00,531.00 1683.00,106.00 1683.00,106.00              1683.00,106.00 1603.00,106.00 1603.00,106.00              1603.00,106.00 1603.00,40.00 1603.00,40.00 Z            M 327.00,163.00            C 327.00,163.00 326.00,186.00 326.00,186.00              326.00,186.00 326.00,236.00 326.00,236.00              326.00,236.00 326.00,408.00 326.00,408.00              326.00,408.00 348.00,396.42 348.00,396.42              348.00,396.42 387.00,373.85 387.00,373.85              387.00,373.85 477.00,321.99 477.00,321.99              477.00,321.99 538.00,287.00 538.00,287.00              538.00,287.00 538.00,285.00 538.00,285.00              538.00,285.00 463.00,241.58 463.00,241.58              463.00,241.58 327.00,163.00 327.00,163.00 Z            M 1241.00,165.21            C 1241.00,165.21 1259.00,165.21 1259.00,165.21              1259.00,165.21 1269.00,165.83 1269.00,165.83              1298.51,168.78 1321.93,177.27 1339.25,203.00              1354.26,225.29 1360.16,257.56 1362.09,284.00              1362.09,284.00 1363.00,294.00 1363.00,294.00              1363.00,294.00 1364.00,314.00 1364.00,314.00              1364.07,358.96 1366.08,410.26 1357.20,454.00              1349.67,491.09 1332.38,520.62 1294.00,531.57              1281.30,535.20 1262.23,537.15 1249.00,537.00              1249.00,537.00 1239.00,536.09 1239.00,536.09              1227.87,535.32 1217.76,534.31 1207.00,530.98              1199.15,528.54 1190.82,524.85 1184.00,520.25              1155.39,500.98 1146.69,465.19 1142.85,433.00              1142.85,433.00 1140.91,410.00 1140.91,410.00              1140.91,410.00 1140.00,399.00 1140.00,399.00              1140.00,399.00 1140.00,350.00 1140.00,350.00              1140.00,350.00 1140.00,305.00 1140.00,305.00              1140.00,305.00 1140.91,295.00 1140.91,295.00              1143.35,259.33 1148.52,220.79 1173.29,193.01              1185.68,179.12 1205.88,170.48 1224.00,167.43              1224.00,167.43 1241.00,165.21 1241.00,165.21 Z            M 2558.00,424.00            C 2558.00,424.00 2558.00,443.00 2558.00,443.00              2557.97,463.11 2551.72,488.34 2538.68,504.00              2521.13,525.06 2490.97,535.96 2464.00,536.00              2464.00,536.00 2442.00,536.00 2442.00,536.00              2418.61,535.72 2393.10,526.25 2377.09,509.00              2361.20,491.89 2353.01,462.75 2349.73,440.00              2348.01,428.07 2346.02,412.93 2346.00,401.00              2346.00,401.00 2346.00,301.00 2346.00,301.00              2346.00,301.00 2346.91,291.00 2346.91,291.00              2349.22,257.20 2354.53,218.16 2378.29,192.04              2403.97,163.81 2458.03,160.58 2493.00,168.88              2507.60,172.35 2521.59,178.67 2531.83,190.00              2547.37,207.21 2553.11,229.67 2556.42,252.00              2562.06,290.02 2560.00,339.59 2560.00,379.00              2560.00,379.00 2426.00,379.00 2426.00,379.00              2426.00,379.00 2426.00,426.00 2426.00,426.00              2426.00,426.00 2426.91,438.00 2426.91,438.00              2427.61,448.00 2428.39,460.34 2433.97,469.00              2443.63,484.00 2466.87,484.13 2477.21,469.99              2485.04,459.28 2487.00,433.29 2487.00,420.00              2487.00,420.00 2527.00,422.00 2527.00,422.00              2527.00,422.00 2541.00,423.00 2541.00,423.00              2541.00,423.00 2558.00,424.00 2558.00,424.00 Z            M 1405.00,172.00            C 1405.00,172.00 1486.00,172.00 1486.00,172.00              1486.00,172.00 1486.00,349.00 1486.00,349.00              1486.00,349.00 1486.00,438.00 1486.00,438.00              1486.00,438.00 1486.83,447.00 1486.83,447.00              1488.23,461.02 1491.47,480.04 1510.00,478.91              1522.18,478.16 1537.87,467.54 1542.03,456.00              1543.15,452.91 1542.99,450.21 1543.00,447.00              1543.00,447.00 1543.00,172.00 1543.00,172.00              1543.00,172.00 1624.00,172.00 1624.00,172.00              1624.00,172.00 1624.00,531.00 1624.00,531.00              1624.00,531.00 1560.00,531.00 1560.00,531.00              1560.00,531.00 1552.00,487.00 1552.00,487.00              1538.47,518.23 1509.51,536.23 1476.00,536.99              1459.49,537.36 1441.49,533.09 1429.00,521.83              1411.39,505.94 1405.04,474.94 1405.00,452.00              1405.00,452.00 1405.00,172.00 1405.00,172.00 Z            M 1818.00,172.00            C 1818.00,172.00 1899.00,172.00 1899.00,172.00              1899.00,172.00 1899.00,344.00 1899.00,344.00              1899.00,344.00 1899.00,430.00 1899.00,430.00              1899.00,430.00 1899.96,441.00 1899.96,441.00              1900.64,456.66 1902.21,480.24 1924.00,478.91              1935.60,478.20 1951.60,467.09 1955.30,456.00              1956.13,453.53 1956.00,450.59 1956.00,448.00              1956.00,448.00 1956.00,172.00 1956.00,172.00              1956.00,172.00 2037.00,172.00 2037.00,172.00              2037.00,172.00 2037.00,531.00 2037.00,531.00              2037.00,531.00 1973.00,531.00 1973.00,531.00              1973.00,531.00 1969.27,507.00 1969.27,507.00              1969.27,507.00 1965.00,487.00 1965.00,487.00              1962.66,494.41 1956.09,503.13 1951.00,509.00              1944.40,516.60 1936.03,523.65 1927.00,528.19              1902.76,540.39 1864.51,540.81 1843.00,522.68              1824.22,506.84 1818.04,472.50 1818.00,449.00              1818.00,449.00 1818.00,172.00 1818.00,172.00 Z            M 2483.00,330.00            C 2483.00,306.69 2484.34,269.76 2480.39,248.00              2477.72,233.35 2473.22,221.21 2456.00,221.00              2452.05,220.96 2447.74,220.76 2444.00,222.13              2432.26,226.44 2429.40,240.00 2427.87,251.00              2424.82,272.88 2426.00,306.85 2426.00,330.00              2426.00,330.00 2483.00,330.00 2483.00,330.00 Z            M 1246.00,222.33            C 1226.61,227.16 1223.03,260.20 1223.00,277.00              1223.00,277.00 1223.00,426.00 1223.00,426.00              1223.01,432.32 1223.84,438.74 1224.73,445.00              1226.91,460.28 1231.07,479.60 1250.00,480.90              1273.53,482.52 1278.41,456.93 1280.07,439.00              1280.07,439.00 1281.00,429.00 1281.00,429.00              1281.00,429.00 1282.00,410.00 1282.00,410.00              1282.00,410.00 1282.00,292.00 1282.00,292.00              1282.00,292.00 1281.00,277.00 1281.00,277.00              1280.81,260.76 1278.15,228.91 1260.00,222.85              1256.27,221.61 1249.93,221.89 1246.00,222.33 Z            M 2196.00,223.30            C 2178.36,226.61 2163.22,243.77 2163.00,262.00              2163.00,262.00 2163.00,451.00 2163.00,451.00              2163.00,453.17 2162.91,455.93 2163.51,458.00              2166.83,469.52 2181.79,476.87 2193.00,477.00              2196.82,477.04 2200.33,477.15 2204.00,475.89              2219.70,470.51 2223.78,451.58 2225.87,437.00              2230.30,406.13 2229.39,337.77 2229.00,304.00              2229.00,304.00 2228.04,294.00 2228.04,294.00              2228.04,294.00 2228.04,283.00 2228.04,283.00              2228.04,283.00 2227.03,272.00 2227.03,272.00              2225.98,252.87 2221.65,221.31 2196.00,223.30 Z" />
</svg>