<svg xmlns="http://www.w3.org/2000/svg" viewBox="-0.5 -0.39 818 570.89">
  <path id="youtube" fill="#303030" stroke="none" stroke-width="1"
    d="M 320.00,0.11            C 320.00,0.11 348.00,0.11 348.00,0.11              348.00,0.11 399.00,0.11 399.00,0.11              399.00,0.11 490.00,0.11 490.00,0.11              490.00,0.11 504.00,1.00 504.00,1.00              504.00,1.00 530.00,1.00 530.00,1.00              530.00,1.00 547.00,2.00 547.00,2.00              547.00,2.00 587.00,3.00 587.00,3.00              587.00,3.00 606.00,4.00 606.00,4.00              606.00,4.00 623.00,5.00 623.00,5.00              623.00,5.00 664.00,7.91 664.00,7.91              702.90,10.58 744.99,13.45 773.96,43.01              803.36,73.02 805.57,113.69 810.28,153.00              810.28,153.00 814.04,202.00 814.04,202.00              814.04,202.00 815.00,215.00 815.00,215.00              815.00,215.00 816.00,235.00 816.00,235.00              816.00,235.00 816.00,251.00 816.00,251.00              816.00,251.00 817.00,268.00 817.00,268.00              817.08,318.82 815.22,369.47 810.17,420.00              810.17,420.00 803.80,465.00 803.80,465.00              798.09,493.54 791.49,512.59 769.00,532.83              744.88,554.54 719.61,557.51 689.00,561.28              689.00,561.28 629.00,566.04 629.00,566.04              629.00,566.04 618.00,567.00 618.00,567.00              618.00,567.00 596.00,568.00 596.00,568.00              596.00,568.00 563.00,569.00 563.00,569.00              563.00,569.00 546.00,570.00 546.00,570.00              546.00,570.00 367.00,570.00 367.00,570.00              367.00,570.00 268.00,570.00 268.00,570.00              268.00,570.00 253.00,569.00 253.00,569.00              253.00,569.00 241.00,569.00 241.00,569.00              241.00,569.00 228.00,568.00 228.00,568.00              228.00,568.00 199.00,567.00 199.00,567.00              199.00,567.00 189.00,566.00 189.00,566.00              189.00,566.00 180.00,566.00 180.00,566.00              180.00,566.00 148.00,563.17 148.00,563.17              113.78,559.89 81.86,559.00 53.00,537.52              15.69,509.76 11.94,467.44 6.72,425.00              6.72,425.00 2.91,380.00 2.91,380.00              2.91,380.00 2.00,370.00 2.00,370.00              2.00,370.00 1.00,341.00 1.00,341.00              1.00,341.00 0.00,326.00 0.00,326.00              0.00,326.00 0.00,244.00 0.00,244.00              0.00,244.00 1.00,229.00 1.00,229.00              1.00,229.00 5.92,154.00 5.92,154.00              5.92,154.00 11.58,112.00 11.58,112.00              17.63,78.44 25.52,55.01 54.00,33.24              79.15,14.01 110.70,11.86 141.00,8.83              141.00,8.83 180.00,5.91 180.00,5.91              180.00,5.91 190.00,5.00 190.00,5.00              190.00,5.00 215.00,4.00 215.00,4.00              215.00,4.00 229.00,3.00 229.00,3.00              229.00,3.00 269.00,2.00 269.00,2.00              269.00,2.00 284.00,1.00 284.00,1.00              284.00,1.00 320.00,0.11 320.00,0.11 Z            M 327.00,163.00            C 327.00,163.00 326.00,186.00 326.00,186.00              326.00,186.00 326.00,236.00 326.00,236.00              326.00,236.00 326.00,408.00 326.00,408.00              326.00,408.00 348.00,396.42 348.00,396.42              348.00,396.42 387.00,373.85 387.00,373.85              387.00,373.85 477.00,321.99 477.00,321.99              477.00,321.99 538.00,287.00 538.00,287.00              538.00,287.00 538.00,285.00 538.00,285.00              538.00,285.00 463.00,241.58 463.00,241.58              463.00,241.58 327.00,163.00 327.00,163.00 Z" />
</svg>