<svg xmlns="http://www.w3.org/2000/svg" viewBox="-0.5 -0.52 501 137.02">
  <path id="zapier" fill="#303030" stroke="none" stroke-width="1"
    d="M 342.00,0.74            C 347.24,-0.53 353.59,-0.55 357.77,3.39              364.34,9.57 361.35,22.58 353.00,25.85              337.48,31.93 325.70,9.46 342.00,0.74 Z            M 169.00,60.00            C 170.25,50.72 172.54,43.54 180.00,37.33              192.49,26.93 223.79,26.82 234.47,40.04              239.75,46.57 240.99,53.89 241.00,62.00              241.00,62.00 241.00,113.00 241.00,113.00              237.31,113.00 223.21,113.96 221.17,111.43              221.17,111.43 217.00,94.00 217.00,94.00              216.20,99.06 215.05,102.00 211.67,105.95              202.40,116.95 179.95,118.00 170.99,105.95              162.85,94.91 166.29,73.24 180.00,67.48              185.23,65.28 189.46,65.01 195.00,65.00              195.00,65.00 217.00,65.00 217.00,65.00              216.96,60.79 217.03,57.69 214.20,54.21              207.80,46.36 194.20,49.79 192.00,63.00              192.00,63.00 169.00,60.00 169.00,60.00 Z            M 273.00,51.00            C 276.21,43.72 277.84,38.20 285.01,33.56              290.92,29.74 295.30,29.92 302.00,30.00              314.50,30.15 322.64,37.40 326.64,49.00              331.64,63.47 331.48,89.95 322.89,103.00              320.40,106.79 317.04,110.21 313.00,112.33              304.39,116.84 289.63,116.04 282.09,109.61              276.95,105.23 275.58,99.85 273.00,94.00              273.00,94.00 273.00,136.00 273.00,136.00              273.00,136.00 249.00,136.00 249.00,136.00              249.00,136.00 249.00,32.00 249.00,32.00              249.00,32.00 270.00,32.00 270.00,32.00              270.00,32.00 273.00,51.00 273.00,51.00 Z            M 444.00,88.00            C 440.73,108.86 423.75,115.22 405.00,115.00              399.33,114.93 393.19,113.84 388.00,111.48              374.09,105.18 366.18,90.95 366.00,76.00              365.84,62.24 366.18,51.87 376.18,41.04              389.34,26.80 422.45,25.36 435.67,40.09              444.63,50.06 446.27,66.34 444.00,79.00              444.00,79.00 390.00,79.00 390.00,79.00              390.96,83.07 392.13,86.75 395.21,89.78              400.17,94.65 411.34,95.66 416.96,91.49              420.13,89.13 421.42,86.46 423.00,83.00              423.00,83.00 444.00,88.00 444.00,88.00 Z            M 90.00,32.00            C 90.00,32.00 162.00,32.00 162.00,32.00              162.00,32.00 162.00,46.00 162.00,46.00              161.93,55.68 158.05,56.19 151.00,62.99              151.00,62.99 119.00,92.00 119.00,92.00              119.00,92.00 163.00,92.00 163.00,92.00              163.00,92.00 163.00,113.00 163.00,113.00              163.00,113.00 89.00,113.00 89.00,113.00              89.00,113.00 89.00,98.00 89.00,98.00              89.17,89.04 94.87,86.38 101.00,80.83              101.00,80.83 132.00,52.00 132.00,52.00              132.00,52.00 90.00,52.00 90.00,52.00              90.00,52.00 90.00,32.00 90.00,32.00 Z            M 336.00,32.00            C 336.00,32.00 360.00,32.00 360.00,32.00              360.00,32.00 360.00,113.00 360.00,113.00              360.00,113.00 336.00,113.00 336.00,113.00              336.00,113.00 336.00,32.00 336.00,32.00 Z            M 451.00,32.00            C 454.67,32.00 468.82,31.04 470.83,33.57              472.68,35.91 472.25,45.40 475.00,52.00              475.90,43.29 480.97,34.71 490.00,32.53              492.86,31.84 496.99,32.00 500.00,32.00              500.00,32.00 500.00,56.00 500.00,56.00              493.85,56.00 485.24,55.00 480.19,58.85              475.71,62.27 475.07,66.77 475.00,72.00              475.00,72.00 475.00,113.00 475.00,113.00              475.00,113.00 451.00,113.00 451.00,113.00              451.00,113.00 451.00,32.00 451.00,32.00 Z            M 422.00,63.00            C 420.95,53.14 415.41,49.82 406.00,50.02              402.85,50.08 399.81,50.42 397.04,52.09              392.97,54.54 391.25,58.64 390.00,63.00              390.00,63.00 422.00,63.00 422.00,63.00 Z            M 288.00,51.34            C 274.52,53.80 271.68,66.13 273.76,78.00              275.29,86.77 281.11,94.64 291.00,93.66              310.65,91.71 308.19,62.43 300.79,55.23              297.36,51.89 292.58,51.21 288.00,51.34 Z            M 217.00,81.00            C 217.00,81.00 200.00,81.00 200.00,81.00              195.01,81.07 189.01,82.33 190.47,88.98              191.66,94.38 197.39,95.13 202.00,94.96              211.17,94.62 216.48,90.24 217.00,81.00 Z            M 0.00,92.00            C 0.00,92.00 61.00,92.00 61.00,92.00              64.58,92.00 77.97,91.07 79.98,93.60              81.23,95.19 81.00,99.01 81.00,101.00              81.00,101.00 81.00,113.00 81.00,113.00              81.00,113.00 0.00,113.00 0.00,113.00              0.00,113.00 0.00,92.00 0.00,92.00 Z" />
</svg>