<svg xmlns="http://www.w3.org/2000/svg" viewBox="282.5 -0.5 715 542">
  <path id="Selection" fill="#303030" stroke="none" stroke-width="1" d="M 283.00,0.00            C 283.00,0.00 613.00,0.00 613.00,0.00              613.00,0.00 613.00,10.00 613.00,10.00              612.97,27.78 606.10,52.83 598.69,69.00              589.73,88.58 576.92,106.67 561.00,121.17              509.63,167.94 435.42,178.94 373.00,147.73              354.75,138.61 337.81,125.10 324.17,110.00              311.39,95.85 301.72,79.62 294.60,62.00              286.47,41.85 283.00,21.63 283.00,0.00 Z            M 667.00,0.00            C 667.00,0.00 997.00,0.00 997.00,0.00              997.00,0.00 984.08,17.00 984.08,17.00              984.08,17.00 960.08,46.00 960.08,46.00              960.08,46.00 887.08,134.00 887.08,134.00              887.08,134.00 737.08,315.00 737.08,315.00              737.08,315.00 690.75,371.00 690.75,371.00              690.75,371.00 667.00,398.00 667.00,398.00              667.00,398.00 667.00,0.00 667.00,0.00 Z            M 612.00,142.00            C 612.00,142.00 613.00,155.00 613.00,155.00              613.00,155.00 613.00,178.00 613.00,178.00              613.00,178.00 613.00,260.00 613.00,260.00              613.00,260.00 613.00,541.00 613.00,541.00              613.00,541.00 283.00,541.00 283.00,541.00              283.00,541.00 293.25,527.00 293.25,527.00              293.25,527.00 312.39,504.00 312.39,504.00              312.39,504.00 381.92,420.00 381.92,420.00              381.92,420.00 524.41,248.00 524.41,248.00              524.41,248.00 579.08,182.00 579.08,182.00              579.08,182.00 612.00,142.00 612.00,142.00 Z            M 667.00,541.00            C 667.00,516.43 670.28,498.84 679.60,476.00              686.65,458.75 696.51,444.10 708.58,430.00              756.10,374.51 843.82,359.63 908.00,393.32              942.71,411.54 965.08,436.09 982.24,471.00              992.93,492.72 997.00,517.01 997.00,541.00              997.00,541.00 667.00,541.00 667.00,541.00 Z"/>
</svg>