<svg xmlns="http://www.w3.org/2000/svg" viewBox="-0.5 -0.5 1281 914">
  <path id="Selection #1" fill="#303030" stroke="none" stroke-width="1" d="M 283.00,0.00            C 283.00,0.00 613.00,0.00 613.00,0.00              613.00,0.00 613.00,10.00 613.00,10.00              612.97,27.78 606.10,52.83 598.69,69.00              589.73,88.58 576.92,106.67 561.00,121.17              509.63,167.94 435.42,178.94 373.00,147.73              354.75,138.61 337.81,125.10 324.17,110.00              311.39,95.85 301.72,79.62 294.60,62.00              286.47,41.85 283.00,21.63 283.00,0.00 Z            M 667.00,0.00            C 667.00,0.00 997.00,0.00 997.00,0.00              997.00,0.00 984.08,17.00 984.08,17.00              984.08,17.00 960.08,46.00 960.08,46.00              960.08,46.00 887.08,134.00 887.08,134.00              887.08,134.00 737.08,315.00 737.08,315.00              737.08,315.00 690.75,371.00 690.75,371.00              690.75,371.00 667.00,398.00 667.00,398.00              667.00,398.00 667.00,0.00 667.00,0.00 Z            M 612.00,142.00            C 612.00,142.00 613.00,155.00 613.00,155.00              613.00,155.00 613.00,178.00 613.00,178.00              613.00,178.00 613.00,260.00 613.00,260.00              613.00,260.00 613.00,541.00 613.00,541.00              613.00,541.00 283.00,541.00 283.00,541.00              283.00,541.00 293.25,527.00 293.25,527.00              293.25,527.00 312.39,504.00 312.39,504.00              312.39,504.00 381.92,420.00 381.92,420.00              381.92,420.00 524.41,248.00 524.41,248.00              524.41,248.00 579.08,182.00 579.08,182.00              579.08,182.00 612.00,142.00 612.00,142.00 Z            M 667.00,541.00            C 667.00,516.43 670.28,498.84 679.60,476.00              686.65,458.75 696.51,444.10 708.58,430.00              756.10,374.51 843.82,359.63 908.00,393.32              942.71,411.54 965.08,436.09 982.24,471.00              992.93,492.72 997.00,517.01 997.00,541.00              997.00,541.00 667.00,541.00 667.00,541.00 Z            M 692.00,669.00            C 692.00,669.00 728.00,669.00 728.00,669.00              728.00,669.00 728.00,912.00 728.00,912.00              728.00,912.00 692.00,912.00 692.00,912.00              692.00,912.00 692.00,890.00 692.00,890.00              680.79,901.21 666.77,912.79 650.00,913.00              650.00,913.00 622.00,913.00 622.00,913.00              613.68,912.90 604.30,909.08 597.00,905.22              569.09,890.43 553.14,860.09 553.00,829.00              552.85,793.62 570.56,761.87 604.00,748.01              611.98,744.70 622.34,742.11 631.00,742.00              631.00,742.00 641.00,742.00 641.00,742.00              661.29,742.03 677.77,751.08 692.00,765.00              692.00,765.00 692.00,669.00 692.00,669.00 Z            M 1125.00,669.00            C 1125.00,669.00 1162.00,669.00 1162.00,669.00              1162.00,669.00 1162.00,825.00 1162.00,825.00              1162.00,825.00 1216.96,765.00 1216.96,765.00              1216.96,765.00 1236.01,745.60 1236.01,745.60              1236.01,745.60 1243.00,745.00 1243.00,745.00              1243.00,745.00 1279.00,745.00 1279.00,745.00              1275.81,751.79 1269.18,757.46 1264.17,763.00              1264.17,763.00 1234.01,796.00 1234.01,796.00              1234.01,796.00 1221.09,810.00 1221.09,810.00              1219.77,811.41 1216.80,814.46 1216.63,816.42              1216.44,818.55 1219.45,822.24 1220.66,824.00              1220.66,824.00 1232.58,841.00 1232.58,841.00              1232.58,841.00 1267.02,890.00 1267.02,890.00              1271.31,896.19 1278.98,904.67 1280.00,912.00              1280.00,912.00 1248.00,912.00 1248.00,912.00              1248.00,912.00 1241.30,911.43 1241.30,911.43              1241.30,911.43 1228.34,895.00 1228.34,895.00              1228.34,895.00 1201.66,857.00 1201.66,857.00              1201.66,857.00 1190.00,839.00 1190.00,839.00              1185.13,842.66 1176.31,853.05 1171.83,858.00              1165.94,864.52 1162.13,865.68 1162.00,875.00              1162.00,875.00 1162.00,911.00 1162.00,911.00              1162.00,911.00 1125.00,911.00 1125.00,911.00              1125.00,911.00 1125.00,669.00 1125.00,669.00 Z            M 986.00,859.00            C 996.38,874.36 1010.09,883.42 1029.00,882.99              1040.60,882.72 1058.86,875.22 1057.00,861.00              1055.26,847.61 1030.61,844.75 1020.00,842.35              998.61,837.52 970.29,831.57 962.10,808.00              959.96,801.84 959.93,796.39 960.00,790.00              960.13,779.32 964.07,769.93 971.17,762.00              991.37,739.45 1028.73,736.77 1056.00,746.00              1065.60,749.26 1076.84,755.78 1083.91,763.04              1085.59,764.76 1089.99,769.74 1090.53,771.96              1091.28,775.12 1088.26,776.48 1085.99,777.77              1085.99,777.77 1071.00,786.00 1071.00,786.00              1068.93,787.17 1065.40,789.38 1063.00,789.30              1058.39,789.15 1055.21,782.88 1048.00,778.25              1037.39,771.41 1020.56,769.57 1009.00,774.90              1003.11,777.62 996.99,783.02 996.77,790.00              996.37,802.93 1018.41,807.15 1028.00,809.35              1047.88,813.91 1075.52,818.50 1087.45,837.00              1091.44,843.18 1093.68,851.67 1093.96,859.00              1095.08,887.89 1068.20,912.96 1040.00,913.00              1040.00,913.00 1011.00,913.00 1011.00,913.00              994.44,912.97 976.69,904.59 965.04,892.96              960.25,888.18 954.63,881.65 953.00,875.00              953.00,875.00 986.00,859.00 986.00,859.00 Z            M 209.00,842.00            C 212.17,851.68 214.05,858.06 221.30,865.91              235.45,881.24 260.02,883.24 279.00,877.56              285.77,875.54 290.17,873.25 296.00,869.33              298.06,867.94 302.68,864.12 305.00,864.18              307.27,864.24 309.45,866.52 310.96,868.02              310.96,868.02 323.94,882.00 323.94,882.00              325.75,883.99 327.85,886.09 326.83,889.00              325.41,893.07 313.97,900.64 310.00,902.99              300.93,908.36 288.61,912.95 278.00,913.00              278.00,913.00 241.00,913.00 241.00,913.00              232.42,912.90 221.67,909.02 214.00,905.24              185.14,891.02 171.10,866.32 168.91,835.00              168.91,835.00 168.10,828.00 168.10,828.00              168.10,828.00 169.61,812.00 169.61,812.00              172.74,794.36 180.94,777.55 194.01,765.09              207.86,751.89 228.67,742.09 248.00,742.00              248.00,742.00 262.00,742.00 262.00,742.00              276.68,742.18 293.18,747.85 305.00,756.49              332.88,776.86 339.00,809.70 339.00,842.00              339.00,842.00 209.00,842.00 209.00,842.00 Z            M 370.00,912.00            C 370.00,912.00 370.00,810.00 370.00,810.00              370.01,802.26 371.04,796.35 373.52,789.00              383.20,760.21 412.19,742.05 442.00,742.00              442.00,742.00 454.00,742.00 454.00,742.00              473.41,742.23 492.56,751.29 505.99,765.00              520.43,779.76 524.97,799.94 525.00,820.00              525.00,820.00 525.00,912.00 525.00,912.00              525.00,912.00 488.00,912.00 488.00,912.00              488.00,912.00 488.00,822.00 488.00,822.00              487.98,809.93 485.58,796.02 476.91,787.04              459.59,769.10 426.48,773.64 413.11,794.00              405.27,805.92 407.00,820.45 407.00,834.00              407.00,834.00 407.00,912.00 407.00,912.00              407.00,912.00 370.00,912.00 370.00,912.00 Z            M 801.00,842.00            C 803.51,850.60 806.18,858.11 812.30,864.96              826.20,880.54 850.79,883.67 870.00,877.96              877.08,875.86 881.85,873.62 888.00,869.48              890.15,868.03 894.56,864.12 897.00,864.18              899.27,864.24 901.46,866.52 902.96,868.02              902.96,868.02 915.94,882.00 915.94,882.00              917.75,883.99 919.85,886.09 918.83,889.00              917.31,893.34 906.16,900.56 902.00,902.99              884.47,913.25 876.26,913.00 857.00,913.00              857.00,913.00 833.00,913.00 833.00,913.00              824.42,912.90 813.67,909.02 806.00,905.24              780.52,892.69 764.94,870.04 761.10,842.00              761.10,842.00 761.10,833.00 761.10,833.00              760.45,826.05 760.39,818.92 761.61,812.00              764.65,794.82 773.29,777.21 786.04,765.17              799.73,752.24 820.93,742.09 840.00,742.00              840.00,742.00 854.00,742.00 854.00,742.00              868.51,742.17 885.33,747.96 897.00,756.49              925.06,776.99 931.00,809.52 931.00,842.00              931.00,842.00 801.00,842.00 801.00,842.00 Z            M 2.00,746.00            C 2.00,746.00 147.00,746.00 147.00,746.00              147.00,746.00 147.00,771.00 147.00,771.00              147.00,771.00 145.98,779.00 145.98,779.00              145.98,779.00 138.00,788.00 138.00,788.00              138.00,788.00 122.00,804.00 122.00,804.00              122.00,804.00 104.99,822.00 104.99,822.00              104.99,822.00 48.00,879.00 48.00,879.00              48.00,879.00 148.00,879.00 148.00,879.00              148.00,879.00 148.00,912.00 148.00,912.00              148.00,912.00 0.00,912.00 0.00,912.00              0.00,912.00 0.00,886.00 0.00,886.00              0.00,886.00 1.02,878.00 1.02,878.00              1.02,878.00 8.96,869.00 8.96,869.00              8.96,869.00 24.00,853.00 24.00,853.00              24.00,853.00 70.99,806.00 70.99,806.00              70.99,806.00 80.04,796.00 80.04,796.00              80.04,796.00 98.00,778.00 98.00,778.00              98.00,778.00 2.00,778.00 2.00,778.00              2.00,778.00 2.00,746.00 2.00,746.00 Z            M 298.00,814.00            C 296.80,799.68 288.65,785.21 275.00,779.46              265.95,775.65 260.48,775.89 251.00,776.00              243.43,776.09 235.46,778.48 229.00,782.47              217.23,789.73 211.65,800.89 209.00,814.00              209.00,814.00 298.00,814.00 298.00,814.00 Z            M 890.00,814.00            C 888.76,799.25 880.03,784.85 866.00,779.09              857.83,775.74 852.55,775.90 844.00,776.00              836.02,776.10 827.82,778.26 821.00,782.47              809.23,789.73 803.65,800.89 801.00,814.00              801.00,814.00 890.00,814.00 890.00,814.00 Z            M 639.00,777.29            C 622.47,779.71 610.37,783.84 599.92,798.00              574.75,832.11 597.28,879.63 640.00,881.26              647.89,881.56 655.75,880.29 663.00,877.13              706.19,858.27 702.15,793.27 657.00,779.72              651.33,778.02 644.91,776.79 639.00,777.29 Z"/>
</svg>