<svg xmlns="http://www.w3.org/2000/svg" viewBox="-0.5 1.5 1425.03 282.27">
  <path id="zoterobib" fill="#303030" stroke="none" stroke-width="1"
    d="M 961.00,2.00            C 961.00,2.00 995.00,2.00 995.00,2.00              995.00,2.00 995.00,87.00 995.00,87.00              995.00,95.75 994.09,122.28 996.00,129.00              1001.09,117.71 1014.87,110.12 1026.00,105.81              1039.57,100.56 1048.88,100.84 1063.00,101.00              1086.49,101.28 1112.37,114.98 1125.96,134.00              1150.87,168.85 1149.81,222.22 1121.70,255.00              1094.92,286.23 1041.25,292.97 1008.00,268.24              1002.80,264.38 999.06,259.95 995.00,255.00              995.00,255.00 995.00,279.00 995.00,279.00              995.00,279.00 961.00,279.00 961.00,279.00              961.00,279.00 961.00,2.00 961.00,2.00 Z            M 1242.00,2.00            C 1242.00,2.00 1276.00,2.00 1276.00,2.00              1276.00,2.00 1276.00,87.00 1276.00,87.00              1276.00,95.75 1275.09,122.28 1277.00,129.00              1281.94,117.42 1297.47,108.89 1309.00,105.00              1322.25,100.53 1330.40,100.84 1344.00,101.00              1368.51,101.29 1393.42,115.30 1407.57,135.00              1423.08,156.59 1424.29,175.60 1424.00,201.00              1423.77,220.04 1414.41,241.92 1401.83,256.00              1370.49,291.05 1305.47,293.94 1276.00,255.00              1276.00,255.00 1276.00,279.00 1276.00,279.00              1276.00,279.00 1242.00,279.00 1242.00,279.00              1242.00,279.00 1242.00,2.00 1242.00,2.00 Z            M 1184.00,19.28            C 1186.30,19.15 1187.63,18.95 1190.00,19.28              1215.97,20.69 1221.23,54.91 1200.00,65.58              1196.02,67.57 1191.40,68.15 1187.00,67.96              1167.44,67.11 1157.39,44.58 1168.64,29.00              1172.69,23.39 1177.47,21.02 1184.00,19.28 Z            M 374.00,59.00            C 374.00,59.00 399.00,59.00 399.00,59.00              399.00,59.00 399.00,107.00 399.00,107.00              399.00,107.00 449.00,107.00 449.00,107.00              449.00,107.00 449.00,130.00 449.00,130.00              449.00,130.00 399.00,130.00 399.00,130.00              399.00,130.00 399.00,223.00 399.00,223.00              399.00,223.00 399.91,233.00 399.91,233.00              400.58,242.55 400.97,250.81 410.04,256.66              422.94,264.99 436.55,256.92 449.00,254.00              449.00,254.00 449.99,268.00 449.99,268.00              450.04,270.25 450.27,274.66 448.98,276.49              447.67,278.36 444.12,279.32 442.00,279.98              435.86,281.89 429.43,282.97 423.00,283.00              405.34,283.08 389.47,281.32 379.90,264.00              372.75,251.07 374.00,231.48 374.00,217.00              374.00,217.00 374.00,130.00 374.00,130.00              374.00,130.00 338.00,130.00 338.00,130.00              338.00,130.00 338.00,107.00 338.00,107.00              338.00,107.00 374.00,107.00 374.00,107.00              374.00,107.00 374.00,59.00 374.00,59.00 Z            M 228.00,103.42            C 255.77,100.03 287.28,108.42 306.91,129.01              321.27,144.08 330.97,166.06 331.00,187.00              331.00,187.00 331.00,201.00 331.00,201.00              330.65,230.87 311.49,258.38 286.00,272.56              269.88,281.53 252.02,283.21 234.00,283.00              226.61,282.91 218.10,281.17 211.00,279.14              168.18,266.87 145.25,225.90 149.84,183.00              151.09,171.30 153.79,159.51 159.32,149.00              174.05,120.99 197.75,107.99 228.00,103.42 Z            M 620.00,247.00            C 609.15,260.21 597.99,270.07 582.00,276.55              567.43,282.45 555.40,283.18 540.00,283.00              505.67,282.59 475.40,259.73 463.42,228.00              459.74,218.24 457.13,206.46 457.00,196.00              456.73,172.68 463.37,148.69 479.17,131.00              485.92,123.44 495.80,115.68 505.00,111.32              536.08,96.59 578.35,100.71 602.91,126.04              618.31,141.92 625.97,166.17 626.00,188.00              626.00,188.00 626.00,200.00 626.00,200.00              626.00,200.00 484.00,200.00 484.00,200.00              484.36,207.76 486.98,215.98 490.23,223.00              504.40,253.55 537.32,268.06 569.00,255.94              577.85,252.55 584.34,247.66 591.00,241.00              593.11,238.88 598.27,232.25 601.04,232.18              603.07,232.13 605.47,234.22 607.00,235.40              611.57,238.95 616.31,242.53 620.00,247.00 Z            M 684.00,138.00            C 686.16,130.43 690.43,124.50 696.01,119.04              713.45,101.97 734.35,100.87 757.00,105.00              757.00,105.00 752.00,130.00 752.00,130.00              741.73,127.93 735.53,126.77 725.00,129.48              700.30,135.83 685.12,160.39 685.00,185.00              685.00,185.00 685.00,279.00 685.00,279.00              685.00,279.00 660.00,279.00 660.00,279.00              660.00,279.00 660.00,143.00 660.00,143.00              660.00,143.00 659.00,128.00 659.00,128.00              659.00,128.00 659.00,107.00 659.00,107.00              659.00,107.00 683.00,107.00 683.00,107.00              683.00,107.00 684.00,138.00 684.00,138.00 Z            M 831.00,103.42            C 859.82,99.90 892.08,109.00 911.83,131.00              925.09,145.79 933.97,167.04 934.00,187.00              934.00,187.00 934.00,201.00 934.00,201.00              933.93,206.75 932.79,212.44 931.37,218.00              925.11,242.46 911.08,260.28 889.00,272.56              872.71,281.62 855.18,283.21 837.00,283.00              829.61,282.91 821.10,281.17 814.00,279.14              772.03,267.11 748.31,226.32 752.84,184.00              754.22,171.09 756.37,160.66 762.48,149.00              777.14,121.06 800.79,107.99 831.00,103.42 Z            M 1172.00,105.00            C 1172.00,105.00 1197.00,105.00 1197.00,105.00              1197.00,105.00 1204.40,106.02 1204.40,106.02              1204.40,106.02 1206.00,114.00 1206.00,114.00              1206.00,114.00 1206.00,241.00 1206.00,241.00              1206.00,241.00 1206.00,267.00 1206.00,267.00              1206.00,267.00 1204.98,277.40 1204.98,277.40              1204.98,277.40 1197.00,279.00 1197.00,279.00              1197.00,279.00 1172.00,279.00 1172.00,279.00              1172.00,279.00 1172.00,105.00 1172.00,105.00 Z            M 5.00,107.00            C 5.00,107.00 135.00,107.00 135.00,107.00              135.00,107.00 135.00,120.00 135.00,120.00              134.94,129.11 130.25,133.04 124.79,140.00              124.79,140.00 104.88,166.00 104.88,166.00              104.88,166.00 55.42,231.00 55.42,231.00              55.42,231.00 36.00,256.00 36.00,256.00              36.00,256.00 139.00,256.00 139.00,256.00              139.00,256.00 139.00,279.00 139.00,279.00              139.00,279.00 0.00,279.00 0.00,279.00              0.00,279.00 0.00,265.00 0.00,265.00              0.14,257.46 3.52,254.80 7.87,249.00              7.87,249.00 27.63,223.00 27.63,223.00              27.63,223.00 76.37,159.00 76.37,159.00              76.37,159.00 98.00,130.00 98.00,130.00              98.00,130.00 5.00,130.00 5.00,130.00              5.00,130.00 5.00,107.00 5.00,107.00 Z            M 231.00,126.29            C 211.16,129.57 195.20,138.89 185.31,157.00              177.43,171.43 176.82,183.13 177.00,199.00              177.38,230.94 203.57,259.62 236.00,260.00              247.90,260.14 259.13,259.06 270.00,253.63              309.46,233.89 315.11,173.18 284.91,143.09              270.62,128.85 250.51,124.44 231.00,126.29 Z            M 598.00,179.00            C 598.00,169.55 597.71,163.86 593.69,155.00              579.62,124.01 540.50,118.58 513.00,134.34              500.38,141.57 490.18,153.99 486.04,168.00              486.04,168.00 484.00,179.00 484.00,179.00              484.00,179.00 598.00,179.00 598.00,179.00 Z            M 834.00,126.29            C 814.16,129.57 798.20,138.89 788.31,157.00              780.43,171.43 779.82,183.13 780.00,199.00              780.38,230.78 806.75,259.62 839.00,260.00              851.27,260.14 861.78,259.32 873.00,253.63              911.73,233.99 918.46,174.48 888.91,144.04              874.36,129.05 854.22,124.37 834.00,126.29 Z            M 1048.00,132.19            C 1032.32,134.55 1020.31,137.49 1009.18,150.00              989.61,172.01 990.14,214.96 1011.09,235.91              1021.66,246.48 1035.43,250.78 1050.00,251.82              1053.60,252.07 1063.38,250.59 1067.00,249.57              1096.91,241.18 1109.39,215.34 1107.08,186.00              1106.27,175.67 1104.04,165.94 1098.53,157.00              1088.68,140.99 1071.30,133.13 1053.00,132.19              1053.00,132.19 1048.00,132.19 1048.00,132.19 Z            M 1329.00,132.19            C 1313.96,134.46 1303.35,136.69 1292.04,148.04              1269.83,170.32 1270.52,216.65 1294.01,237.82              1307.54,250.00 1324.55,252.91 1342.00,250.83              1365.56,248.03 1381.59,230.33 1386.77,208.00              1388.44,200.80 1388.08,193.35 1388.00,186.00              1387.90,177.56 1385.13,167.41 1381.10,160.00              1371.36,142.10 1353.87,133.22 1334.00,132.19              1334.00,132.19 1329.00,132.19 1329.00,132.19 Z" />
</svg>