<svg xmlns="http://www.w3.org/2000/svg" viewBox="-0.5 30.5 92 114">
  <path id="Selection" fill="#303030" stroke="none" stroke-width="1" d="M 3.00,31.00            C 3.00,31.00 89.00,31.00 89.00,31.00              89.00,31.00 88.44,43.00 88.44,43.00              88.44,43.00 70.37,68.00 70.37,68.00              70.37,68.00 37.63,111.00 37.63,111.00              37.63,111.00 25.00,128.00 25.00,128.00              25.00,128.00 91.00,128.00 91.00,128.00              91.00,128.00 91.00,144.00 91.00,144.00              91.00,144.00 0.00,144.00 0.00,144.00              0.00,144.00 0.56,131.00 0.56,131.00              0.56,131.00 7.13,121.00 7.13,121.00              7.13,121.00 20.79,103.00 20.79,103.00              20.79,103.00 63.00,47.00 63.00,47.00              63.00,47.00 3.00,47.00 3.00,47.00              3.00,47.00 3.00,31.00 3.00,31.00 Z"/>
</svg>