<svg xmlns="http://www.w3.org/2000/svg" viewBox="-0.5 -0.5 611 147.6">
  <path id="zotero-wordmark" fill="#303030" stroke="none" stroke-width="1"
    d="M 244.00,0.00            C 244.00,0.00 261.00,0.00 261.00,0.00              261.00,0.00 261.00,31.00 261.00,31.00              261.00,31.00 293.00,31.00 293.00,31.00              293.00,31.00 293.00,47.00 293.00,47.00              293.00,47.00 261.00,47.00 261.00,47.00              261.00,47.00 261.00,111.00 261.00,111.00              261.09,118.10 262.41,125.16 269.00,129.15              276.68,133.79 285.47,129.12 293.00,127.00              294.11,130.91 294.06,132.98 294.00,137.00              293.86,145.22 288.14,145.33 281.00,145.92              269.72,146.83 257.47,147.02 249.94,136.96              245.30,130.76 244.09,120.61 244.00,113.00              244.00,113.00 244.00,47.00 244.00,47.00              244.00,47.00 221.00,47.00 221.00,47.00              221.00,47.00 221.00,31.00 221.00,31.00              221.00,31.00 244.00,31.00 244.00,31.00              244.00,31.00 244.00,0.00 244.00,0.00 Z            M 156.00,28.51            C 165.81,28.32 177.19,30.40 186.00,34.81              215.27,49.44 224.63,88.90 209.68,117.00              199.47,136.18 177.66,147.86 156.00,146.49              141.50,145.57 129.58,143.33 118.00,133.68              90.48,110.74 90.21,65.76 117.00,42.18              129.62,31.07 140.37,30.19 156.00,28.51 Z            M 391.00,112.00            C 394.52,113.38 403.72,118.78 403.66,123.01              403.61,127.22 393.44,134.94 390.00,137.25              377.50,145.65 360.67,147.63 346.00,145.71              335.56,144.35 324.60,139.22 317.00,131.96              311.68,126.88 307.46,121.70 304.32,115.00              293.57,92.02 297.41,59.67 317.04,42.44              342.96,19.68 388.87,24.64 403.56,58.00              408.73,69.75 409.00,79.53 409.00,92.00              409.00,92.00 316.00,92.00 316.00,92.00              318.57,105.65 322.62,114.71 334.00,123.47              352.87,138.01 378.31,130.89 391.00,112.00 Z            M 448.00,49.00            C 452.54,34.78 467.42,29.38 481.00,28.51              483.43,28.36 491.49,28.64 492.96,30.60              494.49,32.63 492.98,38.60 492.38,40.98              490.31,49.15 487.79,43.20 475.00,46.02              466.44,47.90 458.73,53.68 453.96,61.00              446.56,72.38 448.00,81.27 448.00,94.00              448.00,94.00 448.00,144.00 448.00,144.00              448.00,144.00 431.00,144.00 431.00,144.00              431.00,144.00 431.00,54.00 431.00,54.00              431.00,54.00 430.04,44.00 430.04,44.00              430.04,44.00 430.04,31.00 430.04,31.00              430.04,31.00 447.00,31.00 447.00,31.00              447.00,31.00 448.00,49.00 448.00,49.00 Z            M 550.00,28.51            C 559.96,28.31 569.96,30.24 579.00,34.49              596.89,42.90 609.76,62.13 610.00,82.00              610.00,82.00 610.00,93.00 610.00,93.00              609.91,100.08 607.76,108.65 604.63,115.00              594.69,135.16 572.50,147.92 550.00,146.49              535.38,145.56 523.72,143.44 512.00,133.68              484.00,110.34 484.00,64.66 512.00,41.32              518.98,35.50 529.97,30.60 539.00,29.30              539.00,29.30 550.00,28.51 550.00,28.51 Z            M 3.00,31.00            C 3.00,31.00 89.00,31.00 89.00,31.00              89.00,31.00 88.44,43.00 88.44,43.00              88.44,43.00 70.37,68.00 70.37,68.00              70.37,68.00 37.63,111.00 37.63,111.00              37.63,111.00 25.00,128.00 25.00,128.00              25.00,128.00 91.00,128.00 91.00,128.00              91.00,128.00 91.00,144.00 91.00,144.00              91.00,144.00 0.00,144.00 0.00,144.00              0.00,144.00 0.56,131.00 0.56,131.00              0.56,131.00 7.13,121.00 7.13,121.00              7.13,121.00 20.79,103.00 20.79,103.00              20.79,103.00 63.00,47.00 63.00,47.00              63.00,47.00 3.00,47.00 3.00,47.00              3.00,47.00 3.00,31.00 3.00,31.00 Z            M 150.00,44.30            C 138.86,46.40 130.56,50.55 123.79,60.00              104.72,86.61 119.44,130.58 155.00,131.00              168.52,131.15 179.68,127.77 188.67,117.00              196.94,107.10 198.14,96.29 198.00,84.00              197.82,68.99 189.55,54.77 176.00,47.99              167.87,43.93 158.88,43.42 150.00,44.30 Z            M 391.00,78.00            C 389.97,65.42 385.63,54.32 374.00,47.90              351.64,35.57 317.60,51.28 317.00,78.00              317.00,78.00 391.00,78.00 391.00,78.00 Z            M 544.00,44.30            C 533.20,46.34 525.41,50.09 518.53,59.00              498.07,85.50 512.80,130.57 549.00,131.00              560.83,131.13 571.23,128.58 579.91,119.91              590.36,109.47 592.16,97.97 592.00,84.00              591.80,67.03 581.80,52.64 566.00,46.46              558.95,43.70 551.45,43.56 544.00,44.30 Z" />
</svg>